<svg id="Layer_1" data-name="Layer 1" xmlns="http://www.w3.org/2000/svg" viewBox="0 0 600 500"><defs><style>.cls-1,.cls-2{fill:#010101;}.cls-2,.cls-4{opacity:0.4;}.cls-3{fill:none;stroke:#010101;stroke-miterlimit:10;}</style></defs><title>tabla-yot-productos-sintexto</title><path class="cls-1" d="M346.274,42.3c-2.374-2.772-6.73-7.075-4.75-10.638.394-.4.791-.792.394-1.188a.605.605,0,0,0-.452-.18c-.94,0-2.5,1.617-3.506,2.952-2.559,3.518-3.437,9.135-3.367,12.182h0c.144,2.886,1.252,5.158,1.555,6.866h0c.495,2.891.255,4.1-1.382,5.732a3.515,3.515,0,0,1-2.278.7,3.009,3.009,0,0,1-2.049-.751c-1.584-1.584,0-3.959.792-4.752a.365.365,0,0,0,0-.4c-.052-.093-.181-.108-.3-.108a3.288,3.288,0,0,0-1.678.9c-5.544,5.94-4.752,14.651-.4,19.007a9.036,9.036,0,0,0,6.119,2.883,3.615,3.615,0,0,0,2.593-.9c.792-.792,0-1.188-.4-1.584a3.479,3.479,0,0,1,.4-4.356c1.583-1.98,5.186-3.934,6.334-5.544a11.878,11.878,0,0,0,1.981-4.355c.028.042.129.185.144.207a10.313,10.313,0,0,1,2.468,5.666,8.5,8.5,0,0,1-2.612,6.8c-2.375,2.376-5.147,2.376-3.564,3.96a3.464,3.464,0,0,0,1.992.482c2.6,0,7.695-2.073,10.814-5.841a12.721,12.721,0,0,0,2.636-6.915C357.757,53.438,354.2,51.4,346.274,42.3Z"/><path class="cls-1" d="M393.01,42.3c-2.375-2.772-6.731-7.075-4.75-10.638.394-.4.791-.792.394-1.188a.609.609,0,0,0-.453-.18c-.94,0-2.5,1.617-3.506,2.952-2.558,3.518-3.436,9.135-3.367,12.182h0c.145,2.886,1.252,5.158,1.555,6.866h0c.5,2.891.256,4.1-1.381,5.732a3.516,3.516,0,0,1-2.278.7,3.012,3.012,0,0,1-2.05-.751c-1.584-1.584,0-3.959.792-4.752a.363.363,0,0,0,0-.4c-.051-.093-.18-.108-.3-.108a3.292,3.292,0,0,0-1.678.9c-5.543,5.94-4.752,14.651-.4,19.007a9.036,9.036,0,0,0,6.119,2.883,3.613,3.613,0,0,0,2.593-.9c.792-.792,0-1.188-.4-1.584a3.479,3.479,0,0,1,.4-4.356c1.583-1.98,5.186-3.934,6.335-5.544a11.864,11.864,0,0,0,1.98-4.355c.028.042.129.185.144.207a10.3,10.3,0,0,1,2.468,5.666,8.5,8.5,0,0,1-2.612,6.8c-2.375,2.376-5.147,2.376-3.564,3.96a3.466,3.466,0,0,0,1.992.482c2.6,0,7.7-2.073,10.815-5.841a12.719,12.719,0,0,0,2.635-6.915C404.493,53.438,400.931,51.4,393.01,42.3Z"/><path class="cls-1" d="M439.746,42.3c-2.375-2.772-6.731-7.075-4.75-10.638.394-.4.79-.792.394-1.188a.609.609,0,0,0-.453-.18c-.94,0-2.5,1.617-3.506,2.952-2.559,3.518-3.437,9.135-3.367,12.182h0c.144,2.886,1.252,5.158,1.555,6.866h0c.495,2.891.255,4.1-1.382,5.732a3.515,3.515,0,0,1-2.278.7,3.011,3.011,0,0,1-2.049-.751c-1.584-1.584,0-3.959.792-4.752a.365.365,0,0,0,0-.4c-.051-.093-.181-.108-.3-.108a3.288,3.288,0,0,0-1.678.9c-5.544,5.94-4.752,14.651-.4,19.007a9.036,9.036,0,0,0,6.119,2.883,3.613,3.613,0,0,0,2.593-.9c.792-.792,0-1.188-.4-1.584a3.479,3.479,0,0,1,.4-4.356c1.583-1.98,5.186-3.934,6.334-5.544a11.857,11.857,0,0,0,1.981-4.355c.028.042.129.185.144.207a10.313,10.313,0,0,1,2.468,5.666,8.5,8.5,0,0,1-2.612,6.8c-2.375,2.376-5.147,2.376-3.564,3.96a3.464,3.464,0,0,0,1.992.482c2.6,0,7.695-2.073,10.814-5.841a12.721,12.721,0,0,0,2.636-6.915C451.228,53.438,447.666,51.4,439.746,42.3Z"/><path class="cls-1" d="M486.481,42.3c-2.375-2.772-6.731-7.075-4.75-10.638.394-.4.791-.792.394-1.188a.608.608,0,0,0-.452-.18c-.94,0-2.5,1.617-3.507,2.952-2.558,3.518-3.436,9.135-3.367,12.182h0c.145,2.886,1.253,5.158,1.555,6.866h0c.5,2.891.256,4.1-1.381,5.732a3.516,3.516,0,0,1-2.278.7,3.012,3.012,0,0,1-2.05-.751c-1.584-1.584,0-3.959.792-4.752a.363.363,0,0,0,0-.4c-.051-.093-.18-.108-.3-.108a3.292,3.292,0,0,0-1.678.9c-5.543,5.94-4.752,14.651-.4,19.007a9.036,9.036,0,0,0,6.12,2.883,3.613,3.613,0,0,0,2.592-.9c.792-.792,0-1.188-.4-1.584a3.479,3.479,0,0,1,.4-4.356c1.584-1.98,5.186-3.934,6.335-5.544a11.878,11.878,0,0,0,1.981-4.355c.027.042.128.185.143.207a10.3,10.3,0,0,1,2.468,5.666,8.5,8.5,0,0,1-2.611,6.8c-2.376,2.376-5.148,2.376-3.564,3.96a3.46,3.46,0,0,0,1.991.482c2.6,0,7.7-2.073,10.815-5.841a12.719,12.719,0,0,0,2.635-6.915C497.964,53.438,494.4,51.4,486.481,42.3Z"/><path class="cls-1" d="M533.217,42.3c-2.375-2.772-6.731-7.075-4.75-10.638.394-.4.79-.792.394-1.188a.609.609,0,0,0-.453-.18c-.94,0-2.5,1.617-3.506,2.952-2.559,3.518-3.436,9.135-3.367,12.182h0c.145,2.886,1.252,5.158,1.555,6.866h0c.5,2.891.255,4.1-1.382,5.732a3.515,3.515,0,0,1-2.278.7,3.011,3.011,0,0,1-2.049-.751c-1.584-1.584,0-3.959.792-4.752a.365.365,0,0,0,0-.4c-.051-.093-.181-.108-.3-.108a3.288,3.288,0,0,0-1.678.9c-5.543,5.94-4.752,14.651-.4,19.007a9.036,9.036,0,0,0,6.119,2.883,3.613,3.613,0,0,0,2.593-.9c.792-.792,0-1.188-.4-1.584a3.48,3.48,0,0,1,.4-4.356c1.583-1.98,5.186-3.934,6.334-5.544a11.857,11.857,0,0,0,1.981-4.355c.028.042.129.185.144.207a10.313,10.313,0,0,1,2.468,5.666,8.5,8.5,0,0,1-2.612,6.8c-2.375,2.376-5.147,2.376-3.564,3.96a3.464,3.464,0,0,0,1.992.482c2.6,0,7.7-2.073,10.814-5.841a12.721,12.721,0,0,0,2.636-6.915C544.7,53.438,541.137,51.4,533.217,42.3Z"/><path class="cls-2" d="M369.324,279.947c-.012-5.194-.813-22.066-.878-23.415l1.029-5.146H327.154l1.029,5.146c-.065,1.349-.866,18.221-.878,23.415-.014,5.9.818,24.913.878,26.288l-1.014,5.581H369.46l-1.014-5.581C368.506,304.86,369.338,285.847,369.324,279.947Zm-38,25.721a1.188,1.188,0,0,1-.151.22.688.688,0,0,1-.481.192.658.658,0,0,1-.686-.686.685.685,0,0,1,.192-.48.718.718,0,0,1,.975,0,.75.75,0,0,1,.206.48A.988.988,0,0,1,331.324,305.668Zm-.151-47.378a1.273,1.273,0,0,1-.219.152.882.882,0,0,1-.262.04.744.744,0,0,1-.494-.192,1.264,1.264,0,0,1-.15-.219.937.937,0,0,1-.042-.275.842.842,0,0,1,.042-.26,1.272,1.272,0,0,1,.15-.22.8.8,0,0,1,.22-.151.729.729,0,0,1,.536,0,1.215,1.215,0,0,1,.219.151.7.7,0,0,1,.206.48A.728.728,0,0,1,331.173,258.29Zm2.223,47.79a.68.68,0,0,1-.686-.686.687.687,0,0,1,1.373,0A.68.68,0,0,1,333.4,306.08Zm0-47.584a.693.693,0,1,1,.687-.7A.691.691,0,0,1,333.4,258.5Zm2.718,47.584a.68.68,0,0,1-.686-.686.688.688,0,0,1,.686-.686.7.7,0,0,1,.686.686A.688.688,0,0,1,336.114,306.08Zm0-47.584a.693.693,0,1,1,.686-.7A.7.7,0,0,1,336.114,258.5Zm2.7,47.584a.688.688,0,0,1-.686-.686.7.7,0,0,1,.686-.686.688.688,0,0,1,.686.686A.68.68,0,0,1,338.818,306.08Zm0-47.584a.693.693,0,0,1,0-1.386.693.693,0,0,1,0,1.386Zm2.718,47.584a.68.68,0,0,1-.687-.686.689.689,0,0,1,.687-.686.7.7,0,0,1,.686.686A.688.688,0,0,1,341.536,306.08Zm0-47.584a.693.693,0,1,1,.686-.7A.692.692,0,0,1,341.536,258.5Zm2.717,47.584a.691.691,0,0,1-.7-.686.693.693,0,0,1,1.386,0A.688.688,0,0,1,344.253,306.08Zm0-47.584a.693.693,0,1,1,.686-.7A.7.7,0,0,1,344.253,258.5Zm2.7,47.584a.688.688,0,0,1-.686-.686.7.7,0,0,1,.686-.686.689.689,0,0,1,.687.686A.68.68,0,0,1,346.956,306.08Zm0-47.584a.693.693,0,1,1,.687-.7A.691.691,0,0,1,346.956,258.5Zm2.718,47.584a.68.68,0,0,1-.686-.686.688.688,0,0,1,.686-.686.7.7,0,0,1,.686.686A.688.688,0,0,1,349.674,306.08Zm0-47.584a.693.693,0,1,1,.686-.7A.7.7,0,0,1,349.674,258.5Zm2.7,47.584a.688.688,0,0,1-.686-.686.7.7,0,0,1,.686-.686.688.688,0,0,1,.686.686A.68.68,0,0,1,352.378,306.08Zm0-47.584a.693.693,0,0,1,0-1.386.693.693,0,0,1,0,1.386ZM355.1,306.08a.68.68,0,0,1-.686-.686.687.687,0,0,1,1.373,0A.68.68,0,0,1,355.1,306.08Zm0-47.584a.693.693,0,1,1,.687-.7A.7.7,0,0,1,355.1,258.5Zm2.718,47.584a.679.679,0,0,1-.686-.686.688.688,0,0,1,.686-.686.7.7,0,0,1,.686.686A.688.688,0,0,1,357.813,306.08Zm0-47.584a.693.693,0,1,1,.686-.7A.7.7,0,0,1,357.813,258.5Zm2.7,47.584a.68.68,0,0,1-.686-.686.687.687,0,0,1,1.373,0A.68.68,0,0,1,360.516,306.08Zm0-47.584a.693.693,0,0,1,0-1.386.693.693,0,0,1,0,1.386Zm2.718,47.584a.68.68,0,0,1-.686-.686.688.688,0,0,1,.686-.686.7.7,0,0,1,.686.686A.688.688,0,0,1,363.234,306.08Zm0-47.584a.693.693,0,1,1,.686-.7A.7.7,0,0,1,363.234,258.5Zm3.2,47.392a.747.747,0,0,1-.494.192.691.691,0,0,1-.481-.192.707.707,0,0,1-.2-.494.7.7,0,0,1,.2-.48.718.718,0,0,1,.975,0,.706.706,0,0,1,.192.48A.716.716,0,0,1,366.432,305.888Zm0-47.6a1.313,1.313,0,0,1-.219.152.973.973,0,0,1-.275.04.712.712,0,0,1-.481-.192.784.784,0,0,1-.15-.219.96.96,0,0,1-.055-.275.864.864,0,0,1,.055-.26.723.723,0,0,1,.37-.371.721.721,0,0,1,.755.151.708.708,0,0,1,.192.48A.74.74,0,0,1,366.432,258.29Z"/><path class="cls-1" d="M428.884,293.609c-.012-5.051-.766-13.289-.873-14.233l1.024-5.122H386.714l1.024,5.122c-.106.944-.861,9.182-.873,14.233a119.412,119.412,0,0,0,.873,13.094l-1.009,5.554H429.02l-1.009-5.554A119.434,119.434,0,0,0,428.884,293.609Zm-38.146,12.279a1.294,1.294,0,0,1-.233.151.811.811,0,0,1-.261.041.689.689,0,0,1-.48-.192.653.653,0,0,1-.206-.494.642.642,0,0,1,.206-.48.7.7,0,0,1,.741-.151.818.818,0,0,1,.233.151.682.682,0,0,1,.193.48A.693.693,0,0,1,390.738,305.888Zm.138-25.391a.587.587,0,0,1-.151.22.663.663,0,0,1-.961,0,.675.675,0,0,1-.206-.5.594.594,0,0,1,.055-.26.576.576,0,0,1,.151-.219.632.632,0,0,1,.22-.152.693.693,0,0,1,.741.152.576.576,0,0,1,.151.219.594.594,0,0,1,.055.26A.656.656,0,0,1,390.876,280.5Zm2.086,25.583a.68.68,0,0,1-.686-.686.688.688,0,0,1,.686-.686.7.7,0,0,1,.686.686A.688.688,0,0,1,392.962,306.08Zm0-25.171a.68.68,0,0,1-.686-.687.688.688,0,0,1,.686-.686.7.7,0,0,1,.686.686A.688.688,0,0,1,392.962,280.909Zm2.7,25.171a.688.688,0,0,1-.686-.686.7.7,0,0,1,.686-.686.688.688,0,0,1,.686.686A.68.68,0,0,1,395.666,306.08Zm0-25.171a.688.688,0,0,1-.686-.687.7.7,0,0,1,.686-.686.688.688,0,0,1,.686.686A.68.68,0,0,1,395.666,280.909Zm2.718,25.171a.68.68,0,0,1-.687-.686.689.689,0,0,1,.687-.686.7.7,0,0,1,.686.686A.688.688,0,0,1,398.384,306.08Zm0-25.171a.68.68,0,0,1-.687-.687.689.689,0,0,1,.687-.686.7.7,0,0,1,.686.686A.689.689,0,0,1,398.384,280.909ZM401.1,306.08a.679.679,0,0,1-.686-.686.688.688,0,0,1,.686-.686.7.7,0,0,1,.686.686A.688.688,0,0,1,401.1,306.08Zm-.014-25.171a.676.676,0,0,1-.672-.687.685.685,0,0,1,.672-.686.7.7,0,0,1,.7.686A.691.691,0,0,1,401.087,280.909ZM403.8,306.08a.688.688,0,0,1-.686-.686.7.7,0,0,1,.686-.686.689.689,0,0,1,.687.686A.68.68,0,0,1,403.8,306.08Zm0-25.171a.68.68,0,0,1-.686-.687.687.687,0,0,1,1.373,0A.68.68,0,0,1,403.8,280.909Zm2.718,25.171a.68.68,0,0,1-.686-.686.688.688,0,0,1,.686-.686.7.7,0,0,1,.686.686A.688.688,0,0,1,406.522,306.08Zm0-25.171a.68.68,0,0,1-.686-.687.688.688,0,0,1,.686-.686.7.7,0,0,1,.686.686A.688.688,0,0,1,406.522,280.909Zm2.7,25.171a.688.688,0,0,1-.686-.686.7.7,0,0,1,.686-.686.688.688,0,0,1,.686.686A.68.68,0,0,1,409.226,306.08Zm0-25.171a.688.688,0,0,1-.686-.687.7.7,0,0,1,.686-.686.688.688,0,0,1,.686.686A.68.68,0,0,1,409.226,280.909Zm2.717,25.171a.68.68,0,0,1-.686-.686.687.687,0,0,1,1.373,0A.68.68,0,0,1,411.943,306.08Zm0-25.171a.68.68,0,0,1-.686-.687.687.687,0,0,1,1.373,0A.681.681,0,0,1,411.943,280.909Zm2.705,25.171a.689.689,0,0,1-.687-.686.693.693,0,0,1,1.386,0A.691.691,0,0,1,414.648,306.08Zm.013-25.171a.68.68,0,0,1-.686-.687.688.688,0,0,1,.686-.686.7.7,0,0,1,.686.686A.688.688,0,0,1,414.661,280.909Zm2.7,25.171a.688.688,0,0,1-.686-.686.7.7,0,0,1,.686-.686.688.688,0,0,1,.686.686A.68.68,0,0,1,417.365,306.08Zm0-25.171a.679.679,0,0,1-.686-.687.686.686,0,0,1,1.372,0A.68.68,0,0,1,417.365,280.909Zm2.718,25.171a.68.68,0,0,1-.687-.686.689.689,0,0,1,.687-.686.7.7,0,0,1,.686.686A.688.688,0,0,1,420.083,306.08Zm0-25.171a.68.68,0,0,1-.687-.687.689.689,0,0,1,.687-.686.7.7,0,0,1,.686.686A.689.689,0,0,1,420.083,280.909Zm2.7,25.171a.688.688,0,0,1-.686-.686.7.7,0,0,1,.686-.686.688.688,0,0,1,.686.686A.679.679,0,0,1,422.786,306.08Zm0-25.171a.676.676,0,0,1-.672-.687.679.679,0,1,1,.672.687Zm3.2,24.979a.688.688,0,0,1-.481.192.81.81,0,0,1-.26-.041.87.87,0,0,1-.22-.151.653.653,0,0,1-.206-.494.642.642,0,0,1,.206-.48.7.7,0,0,1,.961,0,.642.642,0,0,1,.206.48A.653.653,0,0,1,425.984,305.888Zm0-25.171a.9.9,0,0,1-.22.151.807.807,0,0,1-.261.041.871.871,0,0,1-.26-.041.9.9,0,0,1-.22-.151.587.587,0,0,1-.151-.22.656.656,0,0,1-.055-.275.594.594,0,0,1,.055-.26.576.576,0,0,1,.151-.219.632.632,0,0,1,.22-.152.691.691,0,0,1,.521,0,.632.632,0,0,1,.22.152.642.642,0,0,1,.206.479A.675.675,0,0,1,425.984,280.717Z"/><path class="cls-1" d="M163.308,267.916h3.239l-.216,5.939H152.754V271.1h1.7V257.713H152.43v-2.754h13.82l.162,5.561h-3.239l-.162-2.807H158.4v4.967h4.751V265.6H158.4V271.1h4.7Z"/><path class="cls-1" d="M187.39,271.1h1.377v-5.8c0-1.943-1.026-2.645-2.457-2.645-1.835,0-3,1.484-3,3.752v4.7h1.62v2.754h-6.776V271.1h1.376v-5.8c0-1.943-1.025-2.645-2.456-2.645-2,0-3,1.619-3,3.752v4.7h1.62v2.754h-6.937V271.1H170.3v-8.61h-1.835v-2.753H174a12.784,12.784,0,0,1-.216,2.861h.054a4.887,4.887,0,0,1,4.886-3.186c2.321,0,3.779,1.08,4.157,3.186h.054a4.578,4.578,0,0,1,4.723-3.186c3.348,0,4.886,2.133,4.886,5.507V271.1h1.62v2.754H187.39Z"/><path class="cls-1" d="M197.546,262.491h-2.159v-2.753h5.885a15.078,15.078,0,0,1-.243,2.671h.053a4.858,4.858,0,0,1,4.805-3c3.1,0,5.452,2.241,5.452,6.452,0,3.86-1.862,8.313-7.882,8.313a11.222,11.222,0,0,1-2.132-.242v3.94h1.62v2.754h-6.937v-2.754h1.538Zm3.7,8.232a8.3,8.3,0,0,0,2.4.378c2.726,0,3.914-2.294,3.914-4.805,0-1.943-.7-3.805-3.051-3.805-2.51,0-3.266,1.808-3.266,3.563Z"/><path class="cls-1" d="M222.736,264.866c0-2.132-.891-2.7-2.673-2.7a8.548,8.548,0,0,0-2.348.406v1.889h-3.239v-3.59a12.4,12.4,0,0,1,5.641-1.458c3.779,0,6.181,1.323,6.181,5.426,0,2.321-.081,4.265-.135,6.262h1.593v2.754h-4.751v-.864a7.279,7.279,0,0,1,.19-1.944h-.055c-.944,2.133-2.24,3.131-4.615,3.131-3.186,0-4.724-1.889-4.724-4.1a4.1,4.1,0,0,1,2.834-3.887,18.971,18.971,0,0,1,6.1-.649Zm-1.108,3c-3.077,0-4.049.647-4.049,1.862,0,.837.594,1.7,2.079,1.7,1.512,0,3.023-.972,3.023-3.562Z"/><path class="cls-1" d="M239.853,275.312a23.915,23.915,0,0,1,.3-4.13H240.1a4.3,4.3,0,0,1-4.535,3c-3.239,0-5.723-2.375-5.723-6.451,0-3.859,2.187-8.314,8.234-8.314a14.786,14.786,0,0,1,5.56,1.188v17.275h1.673v2.754h-6.964v-2.754h1.512ZM239.934,263a6.109,6.109,0,0,0-2.4-.512c-2.727,0-3.752,2.159-3.752,4.345,0,2.214,1.052,4.1,2.887,4.1,2,0,3.267-1.782,3.267-3.942Z"/><path class="cls-1" d="M256.107,259.738h5.56V271.1h1.648v2.754h-5.291a7.611,7.611,0,0,1,.35-2.915h-.053a4.724,4.724,0,0,1-4.886,3.238c-3.212,0-4.751-1.943-4.751-4.939v-6.748h-1.89v-2.753h5.669v7.908c0,2,.216,3.455,2.484,3.455,1.619,0,2.942-1.3,2.942-3.536v-5.074h-1.782Z"/><path class="cls-1" d="M269.122,267.646c.109,2.241,1.836,3.617,4.481,3.617a10.415,10.415,0,0,0,4.562-.972l-.189,3a14.086,14.086,0,0,1-5.21.891c-5.452,0-7.746-3.4-7.746-7.314,0-4.4,2.672-7.451,7.1-7.451,4.859,0,6.83,3.671,6.83,8.233Zm5.723-2.591a2.721,2.721,0,0,0-2.861-3.05c-1.728,0-2.727,1.133-2.889,3.05Z"/><path class="cls-1" d="M111.013,138.717h-1.7v-2.754h7.343v2.754h-1.7V152.1h1.7v2.753h-7.343V152.1h1.7Z"/><path class="cls-1" d="M120.327,143.494h-1.835v-2.753h5.534a13.5,13.5,0,0,1-.216,2.915h.054a5,5,0,0,1,4.885-3.239c3.348,0,4.886,2.133,4.886,5.507V152.1h1.62v2.753h-6.937V152.1h1.538v-5.8c0-1.944-1.026-2.646-2.456-2.646-2.294,0-3.293,1.62-3.293,3.752v4.7h1.619v2.753h-6.775V152.1h1.376Z"/><path class="cls-1" d="M151.7,143.332h-2.43a4.468,4.468,0,0,1,.918,2.726c0,3.321-2.808,4.859-5.939,4.859H142.9a.87.87,0,0,0-.918.756c0,.486.3.675,1,.756l4.67.513c2.428.27,3.778,1.3,3.778,3.725,0,2.051-1.646,5.29-7.449,5.29-5.723,0-7.127-2.051-7.127-3.778,0-1.215.595-2.592,3.1-3.186v-.054c-1.215-.27-1.916-.81-1.916-2.1,0-1.4,1.35-2.106,2.726-2.349v-.054a4.527,4.527,0,0,1-3.536-4.669c0-3.267,2.483-5.345,6.344-5.345a16.36,16.36,0,0,1,2.968.324H151.7ZM141.981,155.7c-.7.243-1.566.837-1.566,1.647,0,1.322,1.512,1.862,3.806,1.862,1.674,0,3.645-.648,3.645-1.943,0-.864-.594-1-1.863-1.134Zm1.808-7.531c2.349,0,3.159-1.3,3.159-2.537,0-1.485-1.323-2.457-3.024-2.457-1.646,0-3.131.729-3.131,2.592C140.793,147.246,141.9,148.164,143.789,148.164Z"/><path class="cls-1" d="M155.076,143.494h-1.835v-2.753h5.479a21.665,21.665,0,0,1-.242,3.239h.054c.566-2.375,1.889-3.563,4.048-3.563a6.021,6.021,0,0,1,1.243.162l-.244,3.374a6.436,6.436,0,0,0-1.214-.135,3.4,3.4,0,0,0-3.509,3.725V152.1h1.781v2.753h-7.1V152.1h1.539Z"/><path class="cls-1" d="M168.684,148.65c.108,2.24,1.836,3.617,4.48,3.617a10.419,10.419,0,0,0,4.563-.972l-.19,3a14.1,14.1,0,0,1-5.21.891c-5.452,0-7.746-3.4-7.746-7.315,0-4.4,2.672-7.45,7.1-7.45,4.858,0,6.829,3.671,6.829,8.233Zm5.723-2.592a2.721,2.721,0,0,0-2.862-3.049c-1.727,0-2.726,1.133-2.888,3.049Z"/><path class="cls-1" d="M190.282,136.854h-2.16V134.1h5.939v18h1.619v2.753h-5.317a10.935,10.935,0,0,1,.324-2.726h-.054a4.827,4.827,0,0,1-4.805,3.05c-3.1,0-5.75-2.24-5.75-6.451,0-3.86,1.863-8.314,7.882-8.314a9.221,9.221,0,0,1,2.322.324Zm-.108,7.153a6.087,6.087,0,0,0-2.4-.513c-2.727,0-3.752,2.16-3.752,4.346,0,2.214,1.053,4.1,2.888,4.1,2,0,3.266-1.782,3.266-3.941Z"/><path class="cls-1" d="M199.329,143.494h-1.836v-2.753h5.615V152.1h1.62v2.753H197.79V152.1h1.539Zm1.754-9.8a2.355,2.355,0,1,1-2.537,2.348A2.293,2.293,0,0,1,201.083,133.7Z"/><path class="cls-1" d="M210.641,148.65c.108,2.24,1.836,3.617,4.48,3.617a10.419,10.419,0,0,0,4.563-.972l-.19,3a14.1,14.1,0,0,1-5.21.891c-5.452,0-7.746-3.4-7.746-7.315,0-4.4,2.672-7.45,7.1-7.45,4.858,0,6.829,3.671,6.829,8.233Zm5.723-2.592a2.721,2.721,0,0,0-2.862-3.049c-1.727,0-2.726,1.133-2.888,3.049Z"/><path class="cls-1" d="M223.79,143.494h-1.836v-2.753h5.535a13.441,13.441,0,0,1-.217,2.915h.054a5,5,0,0,1,4.886-3.239c3.347,0,4.886,2.133,4.886,5.507V152.1h1.619v2.753H231.78V152.1h1.539v-5.8c0-1.944-1.026-2.646-2.456-2.646-2.295,0-3.294,1.62-3.294,3.752v4.7h1.62v2.753h-6.776V152.1h1.377Z"/><path class="cls-1" d="M242.285,137.826l3.779-.216v3.131h3.779v2.753h-3.779v6.29c0,2,.513,2.483,2.079,2.483a5.382,5.382,0,0,0,1.835-.432l-.135,2.672a9.857,9.857,0,0,1-3.293.675c-2.78,0-4.265-1.295-4.265-3.779v-7.909h-1.917v-2.753h1.917Z"/><path class="cls-1" d="M254.623,148.65c.109,2.24,1.836,3.617,4.481,3.617a10.415,10.415,0,0,0,4.562-.972l-.189,3a14.106,14.106,0,0,1-5.21.891c-5.452,0-7.746-3.4-7.746-7.315,0-4.4,2.672-7.45,7.1-7.45,4.859,0,6.83,3.671,6.83,8.233Zm5.723-2.592a2.72,2.72,0,0,0-2.861-3.049c-1.728,0-2.727,1.133-2.889,3.049Z"/><path class="cls-1" d="M274.521,143.413a6.488,6.488,0,0,0-2.187-.4c-1.727,0-2.537.7-2.537,1.484,0,.675.189.945,1.269,1.107l2.968.432c3.24.459,4.589,1.7,4.589,4.264,0,2.511-1.754,4.886-6.667,4.886a18.877,18.877,0,0,1-5.56-.891v-3.967h3.4v1.646a8.835,8.835,0,0,0,2.51.459c.783,0,2.754-.243,2.754-1.728,0-.782-.486-1.188-2.133-1.43l-3.185-.486c-2.457-.378-3.509-1.728-3.509-3.752,0-3.482,3.293-4.616,6.209-4.616a17.283,17.283,0,0,1,5.479.945v3.482h-3.4Z"/><path class="cls-1" d="M218.525,191.169h2.16l.107-16.52h-2.267v-1.188h5.75c3.022,0,6.72.648,6.72,5.291,0,3.347-2.347,5.7-6.019,5.7H222.25l-.054,6.721h2.538v1.187h-6.209Zm3.725-8.017h2.807c2.483,0,4.427-1.377,4.427-4.319s-2.106-4.184-4.859-4.184H222.3Z"/><path class="cls-1" d="M246.278,192.356H242.66a21.64,21.64,0,0,1,.3-3.158H242.9c-.756,2-2,3.482-4.536,3.482-2.428,0-4.4-1.214-4.4-3.86,0-2.564,2.106-3.833,4.994-4.022l3.752-.243c.026-.432.054-.836.054-1.268,0-2.241-.621-3.833-3.617-3.833a10.039,10.039,0,0,0-3.24.539l-.053,2.322h-1.3l.053-3.185a10.413,10.413,0,0,1,4.751-.972c3.726,0,4.751,2.105,4.751,4.427,0,3.266-.081,5.938-.108,8.584h2.268Zm-7.693-.971a3.815,3.815,0,0,0,3.023-1.458c.971-1.242,1.107-2.241,1.107-4.184-4.94.135-7.234.3-7.234,3.05C235.481,190.332,236.615,191.385,238.585,191.385Z"/><path class="cls-1" d="M248.657,197.944h2.24l.136-18.274h-2.619v-1.188h4.049a22.436,22.436,0,0,1-.189,2.915l.081-.054a4.917,4.917,0,0,1,4.832-3.185c3.778,0,5.695,2.888,5.695,6.451,0,4.427-2.052,8.071-7.18,8.071a10.085,10.085,0,0,1-3.347-.486l-.054,5.75h2.51v1.188h-6.154Zm8.259-18.49c-2.618,0-4.508,2.051-4.534,5.722l-.027,5.7a8.4,8.4,0,0,0,3.4.621c3.914,0,5.614-2.808,5.614-6.452C261.37,181.937,260.183,179.454,256.916,179.454Z"/><path class="cls-1" d="M278.272,192.356h-3.617a21.636,21.636,0,0,1,.3-3.158H274.9c-.756,2-2,3.482-4.535,3.482-2.429,0-4.4-1.214-4.4-3.86,0-2.564,2.106-3.833,4.994-4.022l3.752-.243c.027-.432.054-.836.054-1.268,0-2.241-.621-3.833-3.617-3.833a10.025,10.025,0,0,0-3.239.539l-.054,2.322h-1.3l.054-3.185a10.406,10.406,0,0,1,4.751-.972c3.725,0,4.751,2.105,4.751,4.427,0,3.266-.081,5.938-.109,8.584h2.268Zm-7.693-.971a3.815,3.815,0,0,0,3.023-1.458c.972-1.242,1.107-2.241,1.107-4.184-4.94.135-7.234.3-7.234,3.05C267.475,190.332,268.609,191.385,270.579,191.385Z"/><path class="cls-1" d="M171.573,80.674h2.16l.107-16.52h-2.267V62.966h12.173v3.779h-1.187V64.154h-7.207l-.054,7.558h6.559V72.9H175.3l-.055,7.774h7.478l.216-2.808h1.3l-.216,4H171.573Z"/><path class="cls-1" d="M186.4,80.674h1.727l4.589-5.885-4.184-5.614h-1.889V67.987h5.371v1.188h-1.943a5.5,5.5,0,0,1,.647.755l2.861,3.887,2.916-3.887a5.583,5.583,0,0,1,.648-.755h-2.133V67.987h5.236v1.188H198.57l-4.239,5.533,4.481,5.966h1.727v1.187H195.3V80.674h1.862a5.555,5.555,0,0,1-.62-.756l-3.077-4.157-3.158,4.157a5.724,5.724,0,0,1-.649.756h1.971v1.187H186.4Z"/><path class="cls-1" d="M211.314,81.483a7.289,7.289,0,0,1-3.186.7c-2.375,0-3.509-1.242-3.509-4.13,0-2.969.028-5.911.054-8.88h-2.429V67.987h2.429l.055-3.617,1.4-.108-.054,3.725h4.616v1.188h-4.616c-.027,2.807-.054,5.587-.054,8.394,0,2.484.54,3.428,2.429,3.428a7.559,7.559,0,0,0,3-.782Z"/><path class="cls-1" d="M213.044,80.674h2.213l.109-11.5h-2.619V67.987h4.076c0,1.3-.108,2.969-.216,4.454h.053c.622-2.376,2.133-4.778,4.644-4.778a7.009,7.009,0,0,1,1.943.3l-.215,1.349a4.079,4.079,0,0,0-1.7-.35c-2.428,0-4.561,3.023-4.615,6.937l-.055,4.778h2.592v1.187h-6.208Z"/><path class="cls-1" d="M235.747,81.132a9.77,9.77,0,0,1-4.426,1.053c-4.508,0-6.8-2.888-6.8-7.5,0-3.833,2.159-7.018,6.1-7.018,4.562,0,5.8,3.752,5.8,7.126H226.031c.053,3.941,1.862,6.1,5.506,6.1a9.084,9.084,0,0,0,4.265-1.16Zm-.836-7.531c0-2.483-1.349-4.642-4.373-4.642a4.493,4.493,0,0,0-4.507,4.642Z"/><path class="cls-1" d="M257.319,80.674H259.4c.027-2.511.108-4.994.108-7.505,0-2.834-1.242-4.21-3.617-4.21-2.43,0-4.13,2.429-4.184,4.993l-.108,6.722h2.187v1.187h-5.669V80.674h2.079c.026-2.511.053-4.994.053-7.505,0-2.834-1.214-4.21-3.508-4.21-2.538,0-4.292,2.429-4.32,4.993l-.053,6.722h2.186v1.187h-5.642V80.674h2.052l.054-11.5h-2.4V67.987h3.833a18.765,18.765,0,0,1-.325,3.32h.054a5.007,5.007,0,0,1,4.832-3.644,4.1,4.1,0,0,1,4.346,3.293,5.088,5.088,0,0,1,4.886-3.293c2.672,0,4.669,1.4,4.669,5.426,0,2.537-.081,5.047-.108,7.585h2.187v1.187h-5.668Z"/><path class="cls-1" d="M271.929,67.663c4.265,0,6.451,3.293,6.451,7.261s-2.186,7.261-6.451,7.261-6.452-3.293-6.452-7.261S267.663,67.663,271.929,67.663Zm0,13.226c3.238,0,4.939-2.456,4.939-5.965s-1.7-5.965-4.939-5.965-4.94,2.456-4.94,5.965S268.69,80.889,271.929,80.889Z"/><path class="cls-1" d="M121.489,311.163h2.159l.108-16.519h-2.267v-1.188h5.992c2.375,0,3.779.4,4.777,1.431a4.549,4.549,0,0,1,1.242,3.1,4.175,4.175,0,0,1-3.509,4.346v.054a4.652,4.652,0,0,1,4.8,4.777c0,3.374-2.483,5.183-6.721,5.183h-6.586Zm6.4,0c2.564,0,5.4-.647,5.4-4.021,0-2.808-2.376-3.941-5.075-3.941h-3l-.054,7.962Zm-.433-9.15c2.214,0,4.536-1.134,4.536-3.887a3.144,3.144,0,0,0-1.62-3.023,5.353,5.353,0,0,0-2.564-.459h-2.538l-.054,7.369Z"/><path class="cls-1" d="M144.382,298.153c4.265,0,6.451,3.293,6.451,7.261s-2.186,7.261-6.451,7.261-6.451-3.293-6.451-7.261S140.117,298.153,144.382,298.153Zm0,13.226c3.239,0,4.94-2.456,4.94-5.965s-1.7-5.965-4.94-5.965-4.939,2.456-4.939,5.965S141.143,311.379,144.382,311.379Z"/><path class="cls-1" d="M153.348,311.163h2.294l.108-18.381h-3.077v-1.188h4.481l-.109,19.569h2.4v1.188h-6.1Z"/><path class="cls-1" d="M163.445,308.41l.054,2.348a7.365,7.365,0,0,0,3.374.73c2.672,0,3.617-1.539,3.617-2.781,0-1.187-.567-2-2.375-2.429l-2.375-.567c-2.268-.54-3.671-1.62-3.671-3.671,0-2.3,1.943-3.887,4.831-3.887a10.05,10.05,0,0,1,4.211.864l.053,3.158h-1.295l-.054-2.24a5.834,5.834,0,0,0-2.834-.6c-2.187,0-3.4,1-3.4,2.565,0,1.377.73,2.186,2.349,2.538l2.564.566c2.4.513,3.509,1.593,3.509,3.509,0,2.835-2.105,4.157-5.236,4.157a10.4,10.4,0,0,1-4.535-.918l-.108-3.347Z"/><path class="cls-1" d="M187.741,312.351h-3.617a21.627,21.627,0,0,1,.3-3.158h-.054c-.755,2-2,3.482-4.535,3.482-2.428,0-4.4-1.215-4.4-3.86,0-2.565,2.105-3.833,4.994-4.022l3.752-.243c.026-.432.054-.837.054-1.268,0-2.241-.621-3.833-3.617-3.833a9.97,9.97,0,0,0-3.24.54l-.053,2.321h-1.3l.053-3.186a10.416,10.416,0,0,1,4.751-.971c3.726,0,4.751,2.1,4.751,4.426,0,3.267-.081,5.939-.108,8.584h2.267Zm-7.692-.972a3.814,3.814,0,0,0,3.023-1.457c.971-1.242,1.107-2.241,1.107-4.184-4.94.134-7.234.3-7.234,3.05C176.945,310.326,178.078,311.379,180.049,311.379Z"/><path class="cls-1" d="M209.962,291.594l-.107,19.569h2.375v1.188H208.4c0-.675.107-1.916.216-2.861h-.054a4.677,4.677,0,0,1-4.886,3.185c-2.267,0-5.507-1.458-5.507-6.883,0-4.426,2.592-7.639,6.938-7.639a9.956,9.956,0,0,1,3.428.674l.053-6.045h-3.077v-1.188Zm-1.43,8.529a8.769,8.769,0,0,0-3.347-.674c-3.86,0-5.507,2.671-5.507,6.343,0,2.942,1.134,5.587,4.373,5.587,2.726,0,4.427-2.213,4.453-6.019Z"/><path class="cls-1" d="M225.676,311.622a9.775,9.775,0,0,1-4.427,1.053c-4.508,0-6.8-2.889-6.8-7.5,0-3.833,2.16-7.018,6.1-7.018,4.563,0,5.8,3.752,5.8,7.126H215.958c.055,3.941,1.864,6.1,5.507,6.1a9.081,9.081,0,0,0,4.265-1.16Zm-.837-7.531c0-2.483-1.349-4.642-4.373-4.642a4.494,4.494,0,0,0-4.508,4.642Z"/><path class="cls-1" d="M248.139,294.806a10.427,10.427,0,0,0-2.321-.324c-6.776,0-7.531,6.262-7.531,9.015a6.2,6.2,0,0,1,4.94-2.456c3.617,0,5.317,2.807,5.317,5.642,0,3.212-1.97,5.938-5.56,5.938-4.67,0-6.208-3.914-6.208-8.233,0-6.289,2.509-11.2,9.176-11.2a9.766,9.766,0,0,1,2.376.324Zm-5.128,7.531a5.674,5.674,0,0,0-4.724,2.672c0,3.455,1.538,6.317,4.724,6.317,2.159,0,4.022-1.621,4.022-4.617C247.033,304.172,245.629,302.337,243.011,302.337Z"/><path class="cls-1" d="M258.1,293.186c3.671,0,5.857,4,5.857,9.34,0,4.7-1.943,10.095-6.4,10.095-4.534,0-6.181-4.966-6.181-9.42C251.383,298.368,253.461,293.186,258.1,293.186Zm-.459,18.14c2.7,0,4.805-3.348,4.805-8.747,0-4.912-1.863-8.1-4.535-8.1-3.1,0-5.021,3.482-5.021,8.637C252.894,307.493,254.433,311.326,257.645,311.326Z"/><path class="cls-1" d="M279.594,299.773h-1.269c-.728,0-1.538-.109-2.24-.135l-.053.054a4.244,4.244,0,0,1,1.646,3.617,4.9,4.9,0,0,1-5.156,5.047c-2.24,0-3.293.783-3.293,1.539,0,.728.837,1.053,2.267,1.3l4.481.809c1.7.3,3.348.81,3.348,3.131,0,1.917-1.566,4.32-6.641,4.32-3.59,0-6.37-1.243-6.37-3.752,0-1.755,1.755-3.24,3.7-3.483v-.054c-.918-.215-2.187-.729-2.187-2.079,0-1.4,1.377-1.943,2.484-2.078v-.054a4.464,4.464,0,0,1-3.536-4.588,5.09,5.09,0,0,1,5.372-5.21,5.479,5.479,0,0,1,2.347.432h5.1Zm-8.151,12.74c-1.215.216-3.726,1.053-3.726,3.023,0,1.323,1.728,2.727,5.048,2.727,2.483,0,5.156-.837,5.156-3.023,0-1.431-1-1.782-2.538-2.133Zm.863-5.345a3.678,3.678,0,0,0,3.969-3.886,3.8,3.8,0,0,0-4.13-3.833,3.714,3.714,0,0,0-3.969,3.805A3.81,3.81,0,0,0,272.306,307.168Z"/><path class="cls-1" d="M183.668,31.56h-1.862V28.807h7.8c4.561,0,6.91,1.89,6.91,5.587,0,3.536-2.511,6.02-6.263,6.02H187.61v4.535h1.862V47.7h-7.666V44.949h1.862Zm6.073,6.1a2.773,2.773,0,0,0,3-3.1,2.756,2.756,0,0,0-3.05-3H187.61v6.1Z"/><path class="cls-1" d="M199.814,36.338h-1.835V33.585h5.614V44.949h1.619V47.7h-6.936V44.949h1.538Zm1.755-9.8a2.356,2.356,0,1,1-2.537,2.349A2.294,2.294,0,0,1,201.569,26.539Z"/><path class="cls-1" d="M215.66,36.176a5.655,5.655,0,0,0-1.295-.162c-2.51,0-3.563,2.294-3.563,4.238,0,2.4,1.241,4.7,4.481,4.7a8.262,8.262,0,0,0,3.536-.783l-.216,3.185a10.509,10.509,0,0,1-4.238.675c-4.805,0-7.342-3.293-7.342-7.369,0-4.562,2.915-7.4,7.423-7.4a14.71,14.71,0,0,1,4.454.675v4.13h-3.24Z"/><path class="cls-1" d="M229.754,38.713c0-2.132-.89-2.7-2.672-2.7a8.576,8.576,0,0,0-2.348.4v1.889h-3.24V34.719a12.391,12.391,0,0,1,5.642-1.458c3.779,0,6.182,1.322,6.182,5.425,0,2.322-.081,4.265-.135,6.263h1.592V47.7h-4.75v-.864a7.321,7.321,0,0,1,.188-1.943h-.054c-.945,2.132-2.24,3.131-4.616,3.131-3.184,0-4.723-1.889-4.723-4.1a4.1,4.1,0,0,1,2.834-3.887,18.969,18.969,0,0,1,6.1-.648Zm-1.106,3c-3.077,0-4.049.647-4.049,1.862,0,.837.594,1.7,2.078,1.7,1.512,0,3.023-.972,3.023-3.563Z"/><path class="cls-1" d="M238.288,36.338h-1.836V33.585h5.535a13.45,13.45,0,0,1-.217,2.915h.055a5,5,0,0,1,4.885-3.239c3.347,0,4.886,2.132,4.886,5.506v6.182h1.619V47.7h-6.937V44.949h1.539v-5.8c0-1.943-1.026-2.645-2.456-2.645-2.295,0-3.294,1.619-3.294,3.752v4.7h1.62V47.7h-6.776V44.949h1.377Z"/><path class="cls-1" d="M256.783,30.67l3.779-.217v3.132h3.779v2.753h-3.779v6.289c0,2,.513,2.484,2.079,2.484a5.382,5.382,0,0,0,1.835-.432l-.135,2.672a9.857,9.857,0,0,1-3.293.675c-2.78,0-4.265-1.3-4.265-3.779V36.338h-1.917V33.585h1.917Z"/><path class="cls-1" d="M269.121,41.493c.109,2.241,1.836,3.618,4.481,3.618a10.415,10.415,0,0,0,4.562-.972l-.189,3a14.106,14.106,0,0,1-5.21.891c-5.452,0-7.746-3.4-7.746-7.315,0-4.4,2.672-7.45,7.1-7.45,4.859,0,6.83,3.671,6.83,8.232Zm5.723-2.591a2.721,2.721,0,0,0-2.861-3.05c-1.728,0-2.727,1.134-2.889,3.05Z"/><path class="cls-2" d="M444.909,282.187v5.42l1.794,1.457,1.736,18.115,2.048,3.705H480.37l1.961-3.43,1.822-18.39,1.794-1.457v-5.42Zm36.971,8.11h-32.9a.687.687,0,1,1,0-1.373h32.9a.687.687,0,0,1,0,1.373Z"/><path class="cls-2" d="M312.627,188.152q-.332-.309-.665-.637l1.943-1.943a25.448,25.448,0,0,0,3.9,3.272A4.644,4.644,0,0,1,312.627,188.152Zm19.44-35.546a7.619,7.619,0,0,0,.958,3.344q-2.04,1.68-4.152,3.5c-.868-1.675-1.006-3.041-.416-4.117C329.631,154.43,330.838,153.518,332.067,152.606Zm22.109-4.654c-.568-.449-1.069-.872-1.443-1.209l4.145-4.145c.159.151.318.3.478.44C356.532,144.356,355.466,146.018,354.176,147.952Zm4.244-4.027a10.032,10.032,0,0,0,1.211.809,56.417,56.417,0,0,1-2.66,5.171c-.542-.317-1.122-.705-1.7-1.124C356.539,146.884,357.594,145.241,358.42,143.925Zm-26.409,39.458c-.136.135-.265.259-.4.39a6.738,6.738,0,0,1-5.62.464c.737-.707,1.5-1.455,2.329-2.28.462-.462.917-.925,1.371-1.389a7.935,7.935,0,0,0,4.333.659C333.261,182.081,332.574,182.819,332.011,183.383Zm-4.659-2.4c-.986.986-1.882,1.854-2.721,2.645a22.849,22.849,0,0,1-4.9-3.883l3.743-3.743a25.19,25.19,0,0,0,4.927,3.921C328.05,180.28,327.7,180.634,327.352,180.987Zm10.261-19.123a24.639,24.639,0,0,0,4.022,3.157q-1.66,2.057-3.449,4.171a27.608,27.608,0,0,1-4.318-3.583Zm.972-.972,3.745-3.745a27.764,27.764,0,0,0,3.368,2.691c-1.014,1.332-2.082,2.7-3.193,4.1A21.98,21.98,0,0,1,338.585,160.892Zm8.467-10.408a28.772,28.772,0,0,1-1.839-2.261c1.527-1.117,2.959-2.138,4.273-3.055.47.6.925,1.138,1.312,1.57Zm-.972.971-3.746,3.747a25.729,25.729,0,0,1-2.4-3.01c1.447-1.118,2.843-2.171,4.172-3.155A30.265,30.265,0,0,0,346.08,151.455Zm-4.712,4.713-3.751,3.751a23.14,23.14,0,0,1-2.845-3.628q2.1-1.71,4.085-3.261A29.547,29.547,0,0,0,341.368,156.168Zm-4.72,4.719-3.74,3.741a29.059,29.059,0,0,1-3.328-3.978q2.1-1.814,4.136-3.492A26.045,26.045,0,0,0,336.648,160.887Zm-12.207,14.149,3.753-3.753A25.033,25.033,0,0,0,333,175.072q-1.753,1.915-3.6,3.827A22.523,22.523,0,0,1,324.441,175.036Zm4.722-4.722,3.735-3.735a29.643,29.643,0,0,0,4.384,3.669q-1.617,1.881-3.33,3.783A22.826,22.826,0,0,1,329.163,170.314Zm9.325.635a6.969,6.969,0,0,0,3.3.89q-1.126,1.442-2.2,2.781a5.108,5.108,0,0,1-4.336.02Q336.916,172.786,338.488,170.949Zm4.658-.862a4.053,4.053,0,0,1-3.736-.219q1.791-2.118,3.451-4.182a7.053,7.053,0,0,0,3.015.784C344.963,167.7,344.049,168.911,343.146,170.087Zm3.945-5.311c-.832.525-2.02.373-3.341-.2,1.085-1.365,2.129-2.707,3.121-4.012a8.47,8.47,0,0,0,2.574.981c-.768,1.091-1.551,2.178-2.339,3.257Zm3.262-4.534a5.026,5.026,0,0,1-2.647-.788q1.612-2.147,3.041-4.141a12.285,12.285,0,0,0,2.171,1.142C352.094,157.705,351.235,158.971,350.353,160.242Zm-3.83-1.5a24.47,24.47,0,0,1-3.224-2.567l3.747-3.747a30.649,30.649,0,0,0,2.57,2.1Q348.166,156.557,346.523,158.745Zm1.495-7.287,3.744-3.744c.411.374.987.861,1.647,1.381-.9,1.337-1.907,2.788-3,4.325A25.656,25.656,0,0,1,348.018,151.458Zm9.838-9.838,2.482-2.724-2.243,2.95Zm-.966-.974-.247-.261,2.936-2.186Zm-.973.973-4.146,4.145c-.338-.379-.736-.852-1.156-1.38,1.952-1.345,3.592-2.43,4.853-3.246C355.611,141.3,355.766,141.458,355.917,141.619Zm-6.135,1.672a20.9,20.9,0,0,1-1.172-1.761,56.285,56.285,0,0,1,5.184-2.665,10.737,10.737,0,0,0,.8,1.2C353.327,140.889,351.7,141.967,349.782,143.291Zm-1.125.782c-1.3.909-2.718,1.919-4.226,3.022a10.116,10.116,0,0,1-1.173-2.292c1.427-.922,2.824-1.793,4.168-2.587C347.776,142.813,348.2,143.446,348.657,144.073Zm-5.334,3.836c-1.313.971-2.691,2.011-4.119,3.113a5.5,5.5,0,0,1-.93-2.876c1.275-.885,2.545-1.746,3.8-2.571A13.073,13.073,0,0,0,343.323,147.909Zm-5.2,3.956q-1.957,1.528-4.02,3.2c-.693-1.448-.92-2.756-.371-3.653l-.023-.015c1.087-.792,2.182-1.581,3.28-2.355A9.058,9.058,0,0,0,338.119,151.865Zm-10.312,8.508q-1.839,1.6-3.707,3.3a5.44,5.44,0,0,1-.168-4.792q1.342-1.078,2.788-2.208A7.539,7.539,0,0,0,327.807,160.373Zm.728,1.185a30.192,30.192,0,0,0,3.393,4.05l-3.741,3.74a24.238,24.238,0,0,1-3.437-4.408Q326.657,163.2,328.535,161.558Zm-1.305,8.748-3.755,3.755a24.769,24.769,0,0,1-3.59-4.533q1.922-1.869,3.837-3.64A26.107,26.107,0,0,0,327.23,170.306Zm-4.728,4.728-3.742,3.742a23.727,23.727,0,0,1-3.594-4.527c.814-.837,1.7-1.735,2.708-2.74.338-.338.677-.669,1.015-1A26.254,26.254,0,0,0,322.5,175.034Zm-7.981-2.089a6.957,6.957,0,0,1,.2-6.039c.136-.137.263-.271.4-.41.567-.567,1.311-1.26,2.174-2.032a8.572,8.572,0,0,0,.911,4.785c-.435.427-.871.855-1.305,1.29C316.039,171.4,315.259,172.191,314.521,172.945Zm-1.916-3.78a8.731,8.731,0,0,0,.888,4.839,44.3,44.3,0,0,0-3.542,4.057c-.963-2.626-.36-5.268,2.357-8.563C312.4,169.389,312.507,169.275,312.605,169.165Zm1.574,6.11a26.15,26.15,0,0,0,3.609,4.472l-3.878,3.879a21.527,21.527,0,0,1-3.292-4.152A35.056,35.056,0,0,1,314.179,175.275Zm-1.242,9.324-1.874,1.873c-1.615-2.109-2.133-3.624-1.227-5.629A24.586,24.586,0,0,0,312.937,184.6Zm1.938,0,3.881-3.881a25.2,25.2,0,0,0,4.81,3.9,32.356,32.356,0,0,1-4.365,3.465A20.675,20.675,0,0,1,314.875,184.6Zm10.006.682a8.265,8.265,0,0,0,4.405.677c-3.451,2.926-6.141,3.538-8.569,2.782A40.109,40.109,0,0,0,324.881,185.284Zm10.9-6.066,0-.007a5.927,5.927,0,0,1-5.041.278q1.818-1.889,3.545-3.783a7.749,7.749,0,0,0,3.816.744C337.285,177.441,336.51,178.368,335.783,179.218Zm17.9-23.944a9.9,9.9,0,0,1-2.14-1.082c1.075-1.516,2.064-2.947,2.959-4.27.594.43,1.2.831,1.778,1.169C355.486,152.439,354.613,153.841,353.687,155.274Zm6.473-11.824a9.014,9.014,0,0,1-1.013-.7c.461-.748.82-1.344,1.058-1.747.345-.58.607-1.077.831-1.535A10.413,10.413,0,0,1,360.16,143.45Zm-1.225-5.982a15.773,15.773,0,0,0-1.568.847c-.274.167-.826.507-1.618,1.011a10,10,0,0,1-.678-.986A10.672,10.672,0,0,1,358.935,137.468ZM323.052,164.64q-1.9,1.755-3.813,3.6a6.1,6.1,0,0,1-.007-5.472c.883-.756,1.852-1.567,2.889-2.418A8.12,8.12,0,0,0,323.052,164.64Zm-14.844,10.866a8.326,8.326,0,0,0,.826,3.915,6.469,6.469,0,0,0-1.018,3.155A7.861,7.861,0,0,1,308.208,175.506Zm7.91,15.181a7.738,7.738,0,0,0,3.133-1.032,7.912,7.912,0,0,0,3.694.766C320.191,191.7,318.049,191.6,316.118,190.687Z"/><path class="cls-1" d="M396.138,153.8a9.979,9.979,0,0,0-13.568-2.363c-4.116,2.881-6.4,10.98-12.581,12.924-4.554,1.433-8.082,2.365-9.524,7.24-3.162,10.694,10.052,16.1,18.413,14.671,9.486-1.625,15.694-8.324,18.789-17.222C399.5,163.792,398.821,157.723,396.138,153.8Zm-30.724,21.655a1.03,1.03,0,0,1,0-2.059A1.03,1.03,0,0,1,365.414,175.458Zm4.689,5.49a1.03,1.03,0,0,1,0-2.059A1.03,1.03,0,0,1,370.1,180.948Zm1.945-8.463a1.03,1.03,0,0,1,0-2.059A1.03,1.03,0,0,1,372.048,172.485Zm3.888,1.715a1.03,1.03,0,0,1,0,2.059A1.03,1.03,0,0,1,375.936,174.2Zm.8,7.32a1.03,1.03,0,0,1,0-2.059A1.03,1.03,0,0,1,376.737,181.52Zm.8-13.5a1.03,1.03,0,0,1,0-2.059A1.03,1.03,0,0,1,377.537,168.024Zm8.007,10.179a1.03,1.03,0,0,1,0-2.059A1.03,1.03,0,0,1,385.544,178.2Z"/><line class="cls-3" x1="31.285" y1="107.109" x2="565.11" y2="107.109"/><line class="cls-3" x1="31.285" y1="224.021" x2="565.11" y2="224.021"/><path class="cls-1" d="M178.859,388.223H178.8a10.133,10.133,0,0,1-.729,2.483l-4.264,11.149h-3.779l-4.374-11.337a10.527,10.527,0,0,1-.755-2.484h-.054V399.1h1.971v2.754h-6.695V399.1h1.647V385.713H159.8v-2.754h6.938l4.858,12.552a8.5,8.5,0,0,1,.756,2.565h.055a11.71,11.71,0,0,1,.944-3.375l4.4-11.742h6.857v2.754h-1.971V399.1h1.89v2.754h-7.261V399.1h1.593Z"/><path class="cls-1" d="M195.277,392.866c0-2.132-.891-2.7-2.672-2.7a8.554,8.554,0,0,0-2.349.406v1.889h-3.239v-3.59a12.4,12.4,0,0,1,5.641-1.458c3.78,0,6.182,1.323,6.182,5.426,0,2.321-.081,4.265-.135,6.262H200.3v2.754h-4.75v-.864a7.327,7.327,0,0,1,.189-1.944h-.054c-.945,2.133-2.24,3.131-4.616,3.131-3.185,0-4.724-1.889-4.724-4.1a4.1,4.1,0,0,1,2.834-3.887,18.975,18.975,0,0,1,6.1-.649Zm-1.107,3c-3.077,0-4.049.647-4.049,1.862,0,.837.594,1.7,2.079,1.7,1.511,0,3.023-.972,3.023-3.562Z"/><path class="cls-1" d="M204.054,390.491h-1.836v-2.753h5.48a21.451,21.451,0,0,1-.244,3.239h.055c.566-2.376,1.889-3.564,4.049-3.564a5.933,5.933,0,0,1,1.241.163l-.243,3.374a6.347,6.347,0,0,0-1.215-.135,3.4,3.4,0,0,0-3.509,3.724V399.1h1.782v2.754h-7.1V399.1h1.539Z"/><path class="cls-1" d="M215.313,390.491h-1.836v-2.753h5.614V399.1h1.62v2.754h-6.937V399.1h1.539Zm1.754-9.8a2.355,2.355,0,1,1-2.537,2.347A2.293,2.293,0,0,1,217.067,380.693Z"/><path class="cls-1" d="M232.725,383.85h-2.159V381.1H236.5v18h1.62v2.754h-5.317a10.939,10.939,0,0,1,.323-2.727h-.054a4.823,4.823,0,0,1-4.8,3.05c-3.1,0-5.749-2.24-5.749-6.451,0-3.859,1.862-8.314,7.882-8.314a9.229,9.229,0,0,1,2.321.325ZM232.616,391a6.1,6.1,0,0,0-2.4-.512c-2.726,0-3.752,2.159-3.752,4.345,0,2.214,1.053,4.1,2.889,4.1,2,0,3.265-1.782,3.265-3.942Z"/><path class="cls-1" d="M249.249,392.866c0-2.132-.89-2.7-2.673-2.7a8.535,8.535,0,0,0-2.347.406v1.889H240.99v-3.59a12.4,12.4,0,0,1,5.641-1.458c3.778,0,6.181,1.323,6.181,5.426,0,2.321-.081,4.265-.135,6.262h1.593v2.754h-4.751v-.864a7.327,7.327,0,0,1,.189-1.944h-.054c-.945,2.133-2.241,3.131-4.616,3.131-3.185,0-4.723-1.889-4.723-4.1a4.1,4.1,0,0,1,2.834-3.887,18.961,18.961,0,0,1,6.1-.649Zm-1.107,3c-3.077,0-4.049.647-4.049,1.862,0,.837.594,1.7,2.079,1.7,1.512,0,3.023-.972,3.023-3.562Z"/><path class="cls-1" d="M255.948,387.738h5.614v11.04c0,6.855-2.753,9.716-7.99,10.175l-.432-3c3.509-.7,4.643-3.131,4.643-7.5v-7.962h-1.835Zm3.589-7.045A2.355,2.355,0,1,1,257,383.04,2.293,2.293,0,0,1,259.537,380.693Z"/><path class="cls-1" d="M269.121,395.646c.109,2.241,1.836,3.617,4.482,3.617a10.411,10.411,0,0,0,4.561-.972l-.188,3a14.089,14.089,0,0,1-5.21.891c-5.452,0-7.747-3.4-7.747-7.314,0-4.4,2.673-7.451,7.1-7.451,4.859,0,6.83,3.671,6.83,8.233Zm5.723-2.591a2.721,2.721,0,0,0-2.861-3.05c-1.728,0-2.726,1.133-2.888,3.05Z"/><line class="cls-3" x1="31.285" y1="352.021" x2="565.11" y2="352.021"/><path class="cls-2" d="M517.327,156.776a1.487,1.487,0,0,1-.6-.958,27.168,27.168,0,0,0-1.547-5.4l-.029-.068a1.14,1.14,0,0,0-.75-.8,5.217,5.217,0,0,0-.361-.742c-.073-.131-.147-.262-.213-.4a.3.3,0,0,1-.047-.166.213.213,0,0,1,.081-.09,4.36,4.36,0,0,0,1.323-2.432c.067-.229.135-.459.212-.688a.326.326,0,0,0-.045-.3.2.2,0,0,0-.247-.054,1.063,1.063,0,0,0-.494.581,6.584,6.584,0,0,0-.379,1.01,1.706,1.706,0,0,1-.66,1.026.993.993,0,0,1-.673-.2,1.944,1.944,0,0,0-.027-.5.942.942,0,0,1-.01-.367l.1-.352a8.688,8.688,0,0,1,.805-2.2,11.458,11.458,0,0,1,1.675-2.052l.412-.431a4.919,4.919,0,0,0,.851-1.068.335.335,0,0,0-.023-.36.2.2,0,0,0-.292-.019A28.406,28.406,0,0,0,514.122,142a7.144,7.144,0,0,0-1.838,3.3,2.37,2.37,0,0,1-.071.261,2.33,2.33,0,0,1-.071-.751,3.443,3.443,0,0,0-.7-2.26c-.1-.121-.2-.234-.309-.349a3.784,3.784,0,0,1-.658-.874.207.207,0,0,0-.245-.114.3.3,0,0,0-.18.253,1.558,1.558,0,0,0,.344,1.231l.039.053a3.521,3.521,0,0,1,.585.967,3.124,3.124,0,0,1,.227,1.1,2.409,2.409,0,0,1-.337-.382,7.338,7.338,0,0,1-1.205-2.6,3.946,3.946,0,0,0-.533-1.166.312.312,0,0,0-.348-.158c-.052.012-.313.1-.29.517a1.87,1.87,0,0,0,.072.446c.144.476.292.95.449,1.419a9.1,9.1,0,0,0,.765,1.714,7.211,7.211,0,0,0-2.246.565c-.16.059-.319.118-.479.174-5.2,1.83-10.133,4.121-12.5,5.221-.687.318-1.229.57-1.335.6a3.261,3.261,0,0,0-1.653,1.225l-.215.284a10.93,10.93,0,0,0-1.329,2.077,2.41,2.41,0,0,1-.189.317l-.078.118c-.243.381-.477.643-.827.689a1.539,1.539,0,0,0-.576.255,11.241,11.241,0,0,0-4.114,4.583c-.679,1.322-.679,1.322-2,1.325-.026,0-.054-.007-.084-.011s-.072-.013-.1-.016l-.809-.067a.256.256,0,0,0-.251.223.285.285,0,0,0,.127.326,4.716,4.716,0,0,0,2.393.286l.083-.005c-.039.075-.082.147-.126.221a2.365,2.365,0,0,0-.263.541,1.474,1.474,0,0,1-.538.778,5.391,5.391,0,0,0-1.778,2.275c-.773,1.806-1.635,3.75-1.817,4.017a4.856,4.856,0,0,0-.8,2.1,7.055,7.055,0,0,1-.86,1.3,3.707,3.707,0,0,0-.982,2c-.2,1.266-.973,5.893-1.138,6.782a1.8,1.8,0,0,1-.584,1.1c-.126.106-.25.218-.373.329a6.448,6.448,0,0,1-.8.645,6.038,6.038,0,0,0-1.8,2.053,5.179,5.179,0,0,0-.876,4.027.226.226,0,0,1-.067.038,1.408,1.408,0,0,1-1.029-.027c-.6-.186-1.193-.4-1.787-.6l-.817-.287c-.1-.036-.2-.071-.305-.105a.394.394,0,0,0-.5.307.44.44,0,0,0,.2.534c.062.038.127.071.193.1l.094.048a8.537,8.537,0,0,0,1.3.524c.29.1.58.2.863.32a2.841,2.841,0,0,0,1.476.2,2.561,2.561,0,0,1-.766.25,11.946,11.946,0,0,1-2.407.034.251.251,0,0,0-.236.191.311.311,0,0,0,.067.324,1.194,1.194,0,0,0,.753.367,6.226,6.226,0,0,0,2.654-.232c-.091.073-.183.146-.275.216a4.508,4.508,0,0,1-1.385.743,4.188,4.188,0,0,1-1.388.141l-.085-.008a.465.465,0,0,0-.578.306c-.027.081-.043.093-.179.132-.041.011-.081.024-.12.038a10.436,10.436,0,0,0-1.213.582,2.212,2.212,0,0,0-.827.71.359.359,0,0,0-.022.267.3.3,0,0,0,.166.2.371.371,0,0,0,.1.029.2.2,0,0,0,.154-.042,7,7,0,0,1,4.478-1.277,2.186,2.186,0,0,0,1.741-.664c.1-.1.2-.189.3-.28a4.15,4.15,0,0,0,.72-.785c.042-.065.065-.076.065-.076s.018,0,.067.042a1.822,1.822,0,0,0,.715.354l.068.022a6.132,6.132,0,0,0,3.978-.37,10.143,10.143,0,0,0,2.5-1.436,1.593,1.593,0,0,1,.657-.29l.46-.084c.351-.064.7-.128,1.047-.207a4.29,4.29,0,0,1,1.094-.107l.356.014a10.355,10.355,0,0,0,2.6-.128.512.512,0,0,1,.3.027,2.18,2.18,0,0,0,1.4-.014,28.436,28.436,0,0,0,3.294-1.194l.467-.19a4.511,4.511,0,0,0,.823-.427c.275-.183.552-.36.83-.538.627-.4,1.276-.818,1.893-1.3.457-.355.941-.685,1.409-1,.3-.205.6-.41.9-.623.107-.076.607-.323,1.091-.561a9.035,9.035,0,0,0,2.446-1.4,1.627,1.627,0,0,0,.095-.176.715.715,0,0,1,.07-.127,5.845,5.845,0,0,0,.717-.769,6.708,6.708,0,0,1,.5-.561,3.422,3.422,0,0,0,.8-1.317c.076-.208.146-.419.215-.629.045-.136.09-.272.137-.406.069-.2.469-.756.715-.807.039-.007.059,0,.108.08a3.217,3.217,0,0,0,.9,1.071.193.193,0,0,0,.227-.009.326.326,0,0,0,.121-.246.73.73,0,0,0-.258-.6,4.218,4.218,0,0,1-.443-.671l-.127-.219a.243.243,0,0,1-.041-.1.232.232,0,0,1,.077-.09,20.9,20.9,0,0,0,1.966-1.988c.485-.549,4.888-5.669,5.344-6.693a27.318,27.318,0,0,1,1.637-3.182,7.2,7.2,0,0,0,.658-1.359,19.133,19.133,0,0,0,.848-3.081,12.051,12.051,0,0,0,.1-3.295,9.585,9.585,0,0,1,.259-3.805,1.606,1.606,0,0,0,.072-.562c-.006-.123-.01-.247-.015-.371-.007-.2-.013-.407-.032-.615a17.128,17.128,0,0,1,.579,2.359,4.414,4.414,0,0,0,.144.659c.23.689.613,1.049,1.181,1.058a.254.254,0,0,0,.234-.207A.307.307,0,0,0,517.327,156.776Zm-43.14,33.72a.948.948,0,0,1,.2-1.884A.948.948,0,0,1,474.187,190.5Zm4.912-1.383a.948.948,0,0,1,.2-1.885A.948.948,0,0,1,479.1,189.113Zm.5-4.712a.948.948,0,0,1,.2-1.884A.948.948,0,0,1,479.6,184.4Zm3.188-12.049a.948.948,0,0,1,.2-1.885A.948.948,0,0,1,482.788,172.352Zm2.125,6.9a.948.948,0,0,1-.2,1.884A.948.948,0,0,1,484.913,179.249Zm.04,8.581a.948.948,0,0,1,.2-1.885A.948.948,0,0,1,484.953,187.83Zm7-3.068a.948.948,0,0,1,.2-1.884A.948.948,0,0,1,491.95,184.762Z"/><path class="cls-2" d="M433.851,169.445c.6-.942,1.25-1.835,1.919-2.7-.567-.629-1.116-1.274-1.668-1.916l-1.561,1.745c-4.057,4.539-8.168,9.029-12.277,13.521.59.857,1.161,1.73,1.733,2.6,1.365-1.006,2.7-2.048,3.974-3.194C429.229,176.558,431.5,173.115,433.851,169.445Z"/><path class="cls-2" d="M413.153,197.3a128.125,128.125,0,0,0,12.279-8.3l-.238-.294c-.616-.758-1.193-1.563-1.761-2.382-3.891,3.072-7.828,6.089-11.735,9.142Q412.409,196.4,413.153,197.3Z"/><path class="cls-2" d="M464.69,140.762a58.863,58.863,0,0,0-6.743,6.317c-2.11,2.183-4.3,4.245-6.59,6.223.669.506,1.339,1.011,2.02,1.5C457.115,150.1,460.932,145.453,464.69,140.762Z"/><path class="cls-2" d="M439.745,170.906c-.469-.467-.945-.926-1.4-1.4-.648-.671-1.276-1.361-1.906-2.048-1.216,1.674-2.341,3.419-3.487,5.2-2.865,4.45-6.543,7.662-10.5,10.712q.555.837,1.133,1.653c4.564-3.621,9.051-7.335,13.317-11.311C437.871,172.8,438.815,171.857,439.745,170.906Z"/><path class="cls-2" d="M444.709,149.476a17.207,17.207,0,0,1-2.875,2.731c-1.223.872-2.76,1.212-3.892,2.2-2.185,1.9-3.074,4.876-5.152,6.882-.08.077-.172.139-.255.212.057.071.112.143.169.213.46.568.942,1.117,1.413,1.675,3.916-4.378,7.93-8.773,12.186-12.9-.477-.4-.948-.81-1.417-1.22C444.826,149.338,444.769,149.407,444.709,149.476Z"/><path class="cls-2" d="M452.3,141.645c-2.8,1.886-4.682,4.395-6.793,6.9q.739.647,1.489,1.279a89.462,89.462,0,0,1,16.474-12.756A27.749,27.749,0,0,0,452.3,141.645Z"/><path class="cls-2" d="M434.735,164.118q.813.945,1.645,1.869c3.865-4.777,8.629-8.572,13.4-12.562l.08-.069q-1.428-1.1-2.817-2.258C442.746,155.255,438.7,159.694,434.735,164.118Z"/><path class="cls-2" d="M449.271,155.068c-2.989,2.462-6.039,4.866-8.792,7.6a37.1,37.1,0,0,0-3.464,4.017c.467.509.922,1.029,1.4,1.529.651.685,1.322,1.348,1.99,2.015,4.433-4.624,8.395-9.643,12.38-14.681-.731-.527-1.45-1.07-2.167-1.615C450.169,154.31,449.725,154.694,449.271,155.068Z"/><path class="cls-2" d="M407.6,191.018c-.028-.043-.058-.085-.087-.128-.1.23-4.246,6.4-4.343,6.616C403.3,197.326,407.471,191.2,407.6,191.018Z"/><path class="cls-2" d="M412.174,197.606c-.413-.509-.81-1.038-1.2-1.577q-3.941,3.087-7.793,6.279l.385-.1a76.476,76.476,0,0,0,8.758-4.418Z"/><path class="cls-2" d="M465.68,136.894a85.685,85.685,0,0,0-17.952,13.539q1.416,1.17,2.868,2.291c5.65-4.918,9.552-10.271,15.949-14.432,0,0,.555-.833.4-.926.281-.066.584-.128.925-.226a3.089,3.089,0,0,0,2.189-2.408,6.44,6.44,0,0,1-2.47,1.5,4.729,4.729,0,0,0-1.512.629A.669.669,0,0,0,465.68,136.894Z"/><path class="cls-2" d="M418.177,178.778c-3.1,4.172-6.459,8.145-9.508,12.349l.122.185q5.126-5.709,10.316-11.358C418.808,179.551,418.492,179.165,418.177,178.778Z"/><path class="cls-2" d="M408.156,191.855c-.2.285-4.979,6.387-5.178,6.674.225-.251,5.02-6.324,5.244-6.575C408.2,191.921,408.178,191.888,408.156,191.855Z"/><path class="cls-2" d="M429.3,163.7a17.489,17.489,0,0,0-4.27,4.429c-1.748,2.593-3.148,5.4-4.931,7.977-.446.645-.908,1.277-1.37,1.91q.5.63.974,1.285c4.244-4.638,8.489-9.277,12.674-13.969l1.1-1.23c-.143-.171-.294-.335-.437-.506-.406-.487-.8-1.013-1.2-1.543C431.016,162.634,430.118,163.11,429.3,163.7Z"/><path class="cls-2" d="M408.763,192.77q-3,3.352-5.96,6.742a63.91,63.91,0,0,0,6.438-6.017Z"/><path class="cls-2" d="M418.117,177.272c.71-.981,1.406-1.972,2.074-2.984,1.649-2.5,2.929-5.263,4.745-7.649a18.016,18.016,0,0,1,3.265-3.293c.978-.763,2.057-1.352,3.041-2.068a16.791,16.791,0,0,0-1.29-1.478c-.165.214-.347.442-.567.7-2.22,2.6-4.93,1.318-6.21,4.028s-5.719,7.9-6.057,10.727a2.115,2.115,0,0,1-.22.717Q417.535,176.6,418.117,177.272Z"/><path class="cls-2" d="M400.371,201.087l.069-.007c.4-.223.8-.463,1.2-.734a.543.543,0,0,1-.228-.243c-.373.011-.747.015-1.119.04a16.584,16.584,0,0,0-4.152.81A16.711,16.711,0,0,0,400.371,201.087Z"/><path class="cls-2" d="M408.118,190.287c3.045-4.158,6.374-8.106,9.434-12.254q-.606-.694-1.261-1.336a7.9,7.9,0,0,0-2.447,1.982c-2.333,3.538-5.177,9.085-5.177,9.085-.263.8-.52,1.521-.775,2.184Z"/><path class="cls-2" d="M415.967,187.063c1.761-1.34,3.577-2.588,5.361-3.881q-.813-1.233-1.661-2.436-5.19,5.671-10.336,11.382c.167.253.333.506.5.756A61.8,61.8,0,0,1,415.967,187.063Z"/><path class="cls-2" d="M470.973,142.025l-.062-.035a3.883,3.883,0,0,0-1.132-2.256l-.29-.249q.984.468,1.988.884l1.267.485a3.324,3.324,0,0,0,1.49.225,4.375,4.375,0,0,0,2.466-1.36,7.1,7.1,0,0,1-2.5.621,3.135,3.135,0,0,1-1.135-.322l-1.238-.526a34.566,34.566,0,0,0-3.349-1.144c.641,2.112-.223,4.451-1.078,6.424a38.456,38.456,0,0,1-5.612,9.018c-1.192,1.454-2.467,2.827-3.788,4.154.521.335,1.047.661,1.574.989,2.373-1.668,5.611-3.855,7.022-5.622,1.363-1.707,4.369-6.609,4.38-10.345a5.906,5.906,0,0,0,1.006.617,4.068,4.068,0,0,0,1.734.386,2.366,2.366,0,0,0,1.643-.618,5.669,5.669,0,0,1-2.987-.631C471.907,142.519,471.449,142.268,470.973,142.025Z"/><path class="cls-2" d="M431.932,160.73a7.491,7.491,0,0,0,.927-.932c1.8-2.195,2.83-5.23,5.349-6.771,1.363-.833,2.775-1.254,4-2.334a19.8,19.8,0,0,0,1.971-2.051c-.595-.528-1.181-1.066-1.766-1.6a23.6,23.6,0,0,1-2.517,3.389c-3.025,3.336-3.477,1.134-6.355,4.249a18.146,18.146,0,0,0-3.049,4.365A21.34,21.34,0,0,1,431.932,160.73Z"/><path class="cls-2" d="M457.312,158.625c-4.022,3.942-8.444,7.489-12.486,11.406-.771.746-1.515,1.519-2.243,2.306,1.119,1.056,2.264,2.081,3.423,3.093,2.056-2.43,5.665-5.341,7.444-7.948,1.881-2.757,2.219-5.58,4.327-7.236.277-.218.6-.46.964-.719C458.264,159.228,457.785,158.931,457.312,158.625Z"/><path class="cls-2" d="M441.947,173.047c-4.529,5.019-8.467,10.6-13.7,14.927-.472.391-.96.785-1.458,1.18.42.5.871.965,1.3,1.45,2.5-1.2,3.638-1.512,7.7-6.269,4.256-4.978,7.583-5.906,9.588-8.182C444.224,175.137,443.072,174.107,441.947,173.047Z"/><path class="cls-2" d="M401.551,202.43c2.913-2.448,5.888-4.823,8.886-7.171-.224-.323-.45-.644-.67-.972-2.924,3.009-9.13,7.965-9.215,8.093a7.06,7.06,0,0,0-2.9.466,6.518,6.518,0,0,0-3.041,2.272c1.2-.472,2.26-.971,3.38-1.388.716-.283,1.447-.532,2.193-.787l-.017.026s.116-.02.324-.06a28.65,28.65,0,0,0-2.176,4.3A52.142,52.142,0,0,0,401.551,202.43Z"/><path class="cls-2" d="M412.941,198.554c-1.114.642-2.228,1.245-3.337,1.827,1.181-.419,2.411-.893,3.658-1.431Z"/><path class="cls-2" d="M426.037,189.747a116.55,116.55,0,0,1-12.256,8.317c.136.16.284.309.421.468,1.313-.6,2.631-1.26,3.912-2,4.655-2.691,6.135-3.959,9.019-5.447C426.758,190.635,426.392,190.187,426.037,189.747Z"/><path class="cls-2" d="M411.133,194.718c3.918-3.06,7.866-6.086,11.767-9.168q-.561-.833-1.116-1.679c-1.738,1.322-3.524,2.625-5.316,4a62.513,62.513,0,0,0-6.094,5.793c.179.256.354.515.537.766C410.984,194.525,411.06,194.62,411.133,194.718Z"/><path class="cls-2" d="M441.226,172.376c-.274-.262-.54-.534-.811-.8-.924.945-1.862,1.878-2.833,2.783-4.31,4.016-8.845,7.765-13.458,11.421q1,1.347,2.062,2.639c.078-.062.161-.124.239-.185C432.2,183.724,436.316,177.713,441.226,172.376Z"/><path class="cls-2" d="M444.788,147.913c.32-.392.637-.787.954-1.179,4.7-5.816,11.1-9.872,18.609-10.733-.121-.054-.239-.109-.366-.164a9.59,9.59,0,0,0-1.208-1.489,11.84,11.84,0,0,0-1.825-1.5,9.771,9.771,0,0,0-2.132-1.072,5.52,5.52,0,0,0-2.364-.316,21.272,21.272,0,0,1,3.972,2.176c.633.406,1.242.854,1.874,1.282q.415.291.84.578a14.366,14.366,0,0,0-6.084-1.1c-4.817.377-7.263,4.856-10.424,7.34a15.658,15.658,0,0,0-3.708,4.49C443.543,146.79,444.161,147.356,444.788,147.913Z"/><path class="cls-2" d="M458.1,156.491a44.134,44.134,0,0,0,6.766-8.8c1.327-2.339,3.636-6.179,2.721-9.052-4.43,5.61-8.99,11.114-13.437,16.709q1.5,1.057,3.028,2.066C457.487,157.1,457.8,156.8,458.1,156.491Z"/><path class="cls-2" d="M442.523,170.985c4.426-4.541,9.435-8.463,13.971-12.887q-1.487-.98-2.936-2.01c-.026.034-.053.067-.08.1-4,5.049-7.965,10.08-12.409,14.712.267.262.54.517.81.776C442.1,171.447,442.3,171.211,442.523,170.985Z"/><path class="cls-1" d="M363.773,396.426H326.951a.729.729,0,0,0-.729.729v.624a1.076,1.076,0,0,0,.316.763l1.124,1.124.4,2.728a.6.6,0,0,0,.593.512h.083v2.16a.6.6,0,0,0,.6.6v3.12a.6.6,0,0,0,.6.6h.24l1.662,20.66a.6.6,0,0,0,.174.376l.5.5.413,8.92a.6.6,0,0,0,.075.263l.532.957v2.2a.6.6,0,0,0,.12.36l.6.8h22.2l.6-.8a.6.6,0,0,0,.12-.36v-2.2l.531-.957a.6.6,0,0,0,.075-.263l.414-8.92.5-.5a.6.6,0,0,0,.173-.376l1.663-20.66h.24a.6.6,0,0,0,.6-.6v-3.12a.6.6,0,0,0,.6-.6v-2.16h.082a.6.6,0,0,0,.594-.512l.4-2.728,1.123-1.124a1.077,1.077,0,0,0,.317-.763v-.624A.73.73,0,0,0,363.773,396.426Z"/><path class="cls-1" d="M410.278,393.4a3.111,3.111,0,0,0-3.058-2.544H393.074l-.11-17.3a3.229,3.229,0,0,0-3.225-3.2h-.02a3.205,3.205,0,0,0-2.874,1.8l-3.761,16.008,1.947.455,3.655-15.667a1.219,1.219,0,0,1,1.045-.6h.008a1.228,1.228,0,0,1,1.225,1.218l.11,17.282h-4.139a3.111,3.111,0,0,0-3.1,2.881l-.469,4.237a.5.5,0,0,0,.975.2l.293-1.171.272,44a3.439,3.439,0,0,0,3.44,3.419H406.1a3.436,3.436,0,0,0,3.441-3.41c.081-10.874.3-44.013-.026-44.013l.413,1.344a.5.5,0,0,0,.939-.314Z"/><g id="_6cL8vP" data-name="6cL8vP" class="cls-4"><path class="cls-1" d="M453.673,367.535c.62.047.895.292,1.037.952,1.324,6.141,2.84,12.25,3.241,18.548a49.609,49.609,0,0,1,.047,6.347c-.3,4.6-2.633,8.24-5.726,11.479a20.408,20.408,0,0,1-5.833,4.062c-1.252.621-1.474,2.791-1.474,2.791v23.124a4.547,4.547,0,0,0,3.906,3.19c1.867.224,3.731.482,5.586.793a7.079,7.079,0,0,1,1.9.65c1.181.577,1.287,1.438.166,2.1a14.885,14.885,0,0,1-3.662,1.626,33.434,33.434,0,0,1-19.754-.534,6.278,6.278,0,0,1-1.721-.816c-.45-.334-1.053-.894-1.025-1.318s.69-.991,1.187-1.16a26.106,26.106,0,0,1,3.8-.926c1.421-.251,3.135-.34,4.56-.574,2.268-.373,2.861-3.027,2.861-3.027V411.714s-.4-2.341-1.833-3.046a18.635,18.635,0,0,1-11.464-18.79,91.512,91.512,0,0,1,2.651-18.127c.251-1.113.52-2.224.727-3.346a.881.881,0,0,1,.91-.852C437.106,367.3,450.391,367.287,453.673,367.535Z"/></g><path class="cls-2" d="M495.527,394.628a4.543,4.543,0,0,1-1.289-1.757v-2.578a32.659,32.659,0,0,0,0-5.859c-.352-3.515-1.758-13.365-2.109-15.709.7-1.054,1.289-.226,1.289-1.046v-1.524a2.9,2.9,0,0,0-2.93-2.929H484.4a2.9,2.9,0,0,0-2.929,2.929v1.524c0,.82.586.109,1.289,1.046-.352,2.226-1.758,12.194-2.109,15.709a32.566,32.566,0,0,0,0,5.859c0,1.054.117,2.343.117,2.578a3.967,3.967,0,0,1-1.289,1.64,7.57,7.57,0,0,0-2.812,6.444v37.378a6.051,6.051,0,0,0,6.093,6.093h9.608a6.051,6.051,0,0,0,6.093-6.093V400.955A8.241,8.241,0,0,0,495.527,394.628Z"/><path class="cls-2" d="M549.787,416.289c0-6.194-.057-11.563.026-17.756.037-2.741-.085-2.774-2.254-4.911a3.864,3.864,0,0,1-1.143-2.807c.083-1.225-.856-1.824-2.154-1.817-.27,0-1.728,0-3.649,0l1.722-1.023a1,1,0,0,0-1.021-1.721L536.7,389c-3.322,0-6.694-.011-7.711-.028-.016,0-.031.016-.045.036-.84,0-1.68,0-2.519-.01-1.3-.007-2.237.592-2.154,1.817a3.864,3.864,0,0,1-1.143,2.807c-2.169,2.137-2.292,2.17-2.255,4.911.083,6.193.026,11.562.026,17.756,0,6.606.109,13.216-.071,19.819-.049,1.789.527,3.238,1.853,3.717,1.919.692,2.561.5,3.124,2.023a2.443,2.443,0,0,0,2.767,1.722c.383,0,13.164,0,13.547,0a2.443,2.443,0,0,0,2.767-1.722c.563-1.518,1.205-1.331,3.124-2.023,1.326-.479,1.9-1.928,1.854-3.717C549.679,429.505,549.787,422.9,549.787,416.289Z"/><g class="cls-4"><path class="cls-1" d="M554.127,141.327a3.864,3.864,0,0,1,1.36,2.622c.266,1.234.39,1.275.708,1.211a5.88,5.88,0,0,0,1.82-.819,3.92,3.92,0,0,1,2.5-.8c-.279-2.542-6.279-2.41-6.279-2.41-.048.058-.083.126-.127.187C554.116,141.323,554.122,141.323,554.127,141.327Z"/><path class="cls-1" d="M558.419,155.564c-2.612-1.379.049-7.742,1.63-10.379a3.976,3.976,0,0,0,.315-.648,3.169,3.169,0,0,0-1.836.663,6.758,6.758,0,0,1-2.135.94c-1.4.281-1.678-1.026-1.883-1.98a3.233,3.233,0,0,0-.866-1.932c-.965,2.714.185,7.274-.351,9.782-2.321,10.877-7.186,38.645-50.44,47.931,0,0-3.4,4.676,1.047,5.2,6.793.8,31.054,7.646,50-10.861C569.352,179.178,568.693,160.986,558.419,155.564Zm-2.785,18.452a44.073,44.073,0,0,1-12.49,16.687,49.057,49.057,0,0,1-21.709,10.07,46.771,46.771,0,0,1-9.34,1.016.5.5,0,1,1,.028-1c.169,0,16.969.336,30.38-10.855,12.571-10.489,15.6-23.972,13.638-27.96a.5.5,0,0,1,.9-.442C558.287,164.066,557.748,168.849,555.634,174.016Z"/></g><path class="cls-1" d="M87.926,421.456v1.189H85.767l-.136,12.578c-.053,4.049-.971,7.612-6.1,9.771l-.432-1.187c3-1.484,5.019-3.779,5.047-8.206l.108-12.956H81.988v-1.189Z"/><path class="cls-1" d="M94.029,426.477c-.027,2.889-.109,5.8-.109,8.692,0,2.834,1.08,4.211,3.59,4.211,2.835,0,4.428-2.105,4.481-5.722l.109-5.993H99.616v-1.188H103.5l-.108,12.687h2.16v1.188h-3.537a18.942,18.942,0,0,1,.324-3.32h-.054a5,5,0,0,1-4.831,3.643c-2.835,0-4.94-1.241-4.94-5.425,0-2.538.081-5.048.108-7.585H90.25v-1.188Z"/><path class="cls-1" d="M121.134,427.773h-1.268c-.729,0-1.54-.108-2.241-.135l-.054.054a4.244,4.244,0,0,1,1.646,3.617,4.9,4.9,0,0,1-5.155,5.048c-2.24,0-3.293.783-3.293,1.538,0,.729.837,1.053,2.267,1.3l4.481.809c1.7.3,3.347.811,3.347,3.132,0,1.916-1.565,4.319-6.64,4.319-3.59,0-6.37-1.242-6.37-3.752,0-1.754,1.754-3.24,3.7-3.482v-.055c-.917-.215-2.185-.728-2.185-2.078,0-1.4,1.376-1.943,2.482-2.078v-.055a4.463,4.463,0,0,1-3.535-4.588,5.089,5.089,0,0,1,5.371-5.209,5.5,5.5,0,0,1,2.349.431h5.1Zm-8.151,12.741c-1.215.216-3.726,1.053-3.726,3.022,0,1.324,1.728,2.727,5.048,2.727,2.483,0,5.156-.837,5.156-3.023,0-1.431-1-1.782-2.538-2.132Zm.863-5.345a3.678,3.678,0,0,0,3.969-3.886,3.8,3.8,0,0,0-4.131-3.833,3.713,3.713,0,0,0-3.968,3.805A3.81,3.81,0,0,0,113.846,435.169Z"/><path class="cls-1" d="M128.965,426.154c4.266,0,6.451,3.293,6.451,7.26s-2.185,7.261-6.451,7.261-6.451-3.293-6.451-7.261S124.7,426.154,128.965,426.154Zm0,13.226c3.239,0,4.94-2.457,4.94-5.966s-1.7-5.964-4.94-5.964-4.939,2.456-4.939,5.964S125.727,439.38,128.965,439.38Z"/><path class="cls-1" d="M157.53,419.594l-.108,19.57H159.8v1.188h-3.834c0-.675.109-1.917.217-2.861h-.055a4.674,4.674,0,0,1-4.884,3.184c-2.268,0-5.507-1.457-5.507-6.883,0-4.426,2.591-7.638,6.936-7.638a9.934,9.934,0,0,1,3.429.674l.054-6.046h-3.078v-1.188Zm-1.431,8.53a8.769,8.769,0,0,0-3.347-.674c-3.86,0-5.507,2.671-5.507,6.342,0,2.943,1.134,5.588,4.372,5.588,2.727,0,4.428-2.214,4.455-6.019Z"/><path class="cls-1" d="M173.243,439.622a9.76,9.76,0,0,1-4.426,1.053c-4.508,0-6.8-2.888-6.8-7.5,0-3.833,2.16-7.017,6.1-7.017,4.561,0,5.8,3.752,5.8,7.126H163.526c.054,3.94,1.863,6.1,5.507,6.1a9.069,9.069,0,0,0,4.264-1.161Zm-.836-7.53c0-2.483-1.35-4.642-4.374-4.642a4.493,4.493,0,0,0-4.507,4.642Z"/><path class="cls-1" d="M202.32,439.164H204.4c.026-2.51.107-4.994.107-7.5,0-2.833-1.242-4.209-3.617-4.209-2.43,0-4.13,2.428-4.184,4.993l-.107,6.721h2.185v1.188h-5.667v-1.188h2.078c.027-2.51.053-4.994.053-7.5,0-2.833-1.214-4.209-3.508-4.209-2.538,0-4.292,2.428-4.319,4.993l-.054,6.721h2.186v1.188H183.91v-1.188h2.052l.054-11.5h-2.4v-1.188h3.833a18.837,18.837,0,0,1-.324,3.32h.053a5.006,5.006,0,0,1,4.832-3.643,4.094,4.094,0,0,1,4.346,3.293,5.09,5.09,0,0,1,4.887-3.293c2.671,0,4.669,1.4,4.669,5.425,0,2.538-.082,5.047-.109,7.585h2.188v1.188H202.32Z"/><path class="cls-1" d="M223.274,440.352h-3.617a21.473,21.473,0,0,1,.3-3.158H219.9c-.756,2-2,3.481-4.535,3.481-2.429,0-4.4-1.214-4.4-3.859,0-2.565,2.1-3.833,4.993-4.023l3.752-.242c.027-.433.054-.837.054-1.268,0-2.242-.621-3.833-3.617-3.833a10,10,0,0,0-3.239.539l-.054,2.321h-1.3l.053-3.185a10.418,10.418,0,0,1,4.752-.971c3.724,0,4.75,2.105,4.75,4.426,0,3.266-.081,5.939-.108,8.584h2.268Zm-7.694-.972a3.817,3.817,0,0,0,3.024-1.458c.971-1.241,1.106-2.24,1.106-4.183-4.94.134-7.234.3-7.234,3.049C212.476,438.327,213.61,439.38,215.58,439.38Z"/><path class="cls-1" d="M225.867,439.164h2.08l.053-11.5h-2.429v-1.188h3.86a18.918,18.918,0,0,1-.323,3.32h.053a4.934,4.934,0,0,1,5.076-3.643c2.59,0,4.669,1.187,4.669,5.425,0,2.538-.081,5.047-.109,7.585h2.188v1.188h-5.669v-1.188h2.078c.027-2.51.108-4.994.108-7.5,0-2.833-1.08-4.209-3.59-4.209-2.807,0-4.481,2.509-4.507,5.127l-.055,6.587h2.186v1.188h-5.669Z"/><path class="cls-1" d="M256.59,427.773h-1.267c-.73,0-1.54-.108-2.241-.135l-.054.054a4.247,4.247,0,0,1,1.646,3.617,4.9,4.9,0,0,1-5.155,5.048c-2.241,0-3.294.783-3.294,1.538,0,.729.838,1.053,2.267,1.3l4.482.809c1.7.3,3.347.811,3.347,3.132,0,1.916-1.566,4.319-6.641,4.319-3.59,0-6.369-1.242-6.369-3.752,0-1.754,1.754-3.24,3.7-3.482v-.055c-.918-.215-2.185-.728-2.185-2.078,0-1.4,1.376-1.943,2.482-2.078v-.055a4.463,4.463,0,0,1-3.535-4.588,5.089,5.089,0,0,1,5.371-5.209,5.49,5.49,0,0,1,2.348.431h5.1Zm-8.151,12.741c-1.214.216-3.726,1.053-3.726,3.022,0,1.324,1.729,2.727,5.049,2.727,2.482,0,5.155-.837,5.155-3.023,0-1.431-1-1.782-2.538-2.132Zm.864-5.345a3.678,3.678,0,0,0,3.968-3.886,3.8,3.8,0,0,0-4.13-3.833,3.714,3.714,0,0,0-3.969,3.805A3.81,3.81,0,0,0,249.3,435.169Z"/><path class="cls-1" d="M264.422,426.154c4.265,0,6.451,3.293,6.451,7.26s-2.186,7.261-6.451,7.261-6.451-3.293-6.451-7.261S260.157,426.154,264.422,426.154Zm0,13.226c3.238,0,4.94-2.457,4.94-5.966s-1.7-5.964-4.94-5.964-4.939,2.456-4.939,5.964S261.183,439.38,264.422,439.38Z"/><path class="cls-1" d="M274.521,444.023a4.5,4.5,0,0,0,1.3-2.537c0-1.269-1.188-1.486-1.188-2.268a1.1,1.1,0,0,1,1.215-1.134c.756,0,1.484.756,1.484,2.133a6.347,6.347,0,0,1-2.16,4.453Z"/><path class="cls-1" d="M78.235,453.857h5.912v1.187H81.8L87.467,470a6.011,6.011,0,0,1,.27.918h.053a5.8,5.8,0,0,1,.271-.918l5.722-14.954H91.408v-1.187h5.721v1.187H95.294l-6.829,17.707H86.953l-6.775-17.707H78.235Z"/><path class="cls-1" d="M104.936,458.553c4.264,0,6.451,3.293,6.451,7.262s-2.187,7.261-6.451,7.261-6.451-3.293-6.451-7.261S100.67,458.553,104.936,458.553Zm0,13.227c3.238,0,4.939-2.456,4.939-5.965s-1.7-5.966-4.939-5.966-4.94,2.456-4.94,5.966S101.7,471.78,104.936,471.78Z"/><path class="cls-1" d="M125.994,451.994l-.108,19.57h2.375v1.187h-3.833c0-.675.107-1.916.217-2.861h-.055a4.675,4.675,0,0,1-4.886,3.186c-2.267,0-5.506-1.458-5.506-6.883,0-4.427,2.591-7.64,6.937-7.64a9.948,9.948,0,0,1,3.428.675l.054-6.046h-3.078v-1.188Zm-1.431,8.53a8.765,8.765,0,0,0-3.347-.675c-3.86,0-5.507,2.672-5.507,6.344,0,2.941,1.134,5.587,4.373,5.587,2.727,0,4.427-2.213,4.453-6.02Z"/><path class="cls-1" d="M130.37,471.564h2.08l.107-18.382H129.48v-1.188h4.481l-.054,13.091,5.938-4.967v-.053h-2v-1.188h5.4v1.188H141.6l-6.127,5.21,6.883,6.289h1.484v1.187H138.5v-1.187h1.944l-6.532-5.911-.054,5.911h2.186v1.187H130.37Z"/><path class="cls-1" d="M158.771,472.751h-3.617a21.636,21.636,0,0,1,.3-3.158H155.4c-.756,2-2,3.483-4.535,3.483-2.43,0-4.4-1.215-4.4-3.861,0-2.564,2.106-3.833,4.993-4.021l3.752-.243c.028-.432.055-.837.055-1.269,0-2.24-.621-3.833-3.617-3.833a9.985,9.985,0,0,0-3.239.54l-.054,2.321h-1.3l.054-3.185a10.406,10.406,0,0,1,4.751-.972c3.725,0,4.751,2.106,4.751,4.427,0,3.266-.082,5.938-.109,8.584h2.268Zm-7.693-.971a3.817,3.817,0,0,0,3.023-1.457c.972-1.243,1.106-2.242,1.106-4.185-4.939.136-7.234.3-7.234,3.051C147.973,470.727,149.108,471.78,151.078,471.78Z"/><path class="cls-1" d="M178.94,460.281a9.03,9.03,0,0,0-3-.432c-3.536,0-5.237,2.456-5.237,5.966s1.7,5.965,5.237,5.965a9.484,9.484,0,0,0,4.211-.81v1.377a11.057,11.057,0,0,1-4.265.729c-4.508,0-6.694-3.293-6.694-7.261s2.267-7.262,6.829-7.262a11.25,11.25,0,0,1,4.211.73v3.374h-1.3Z"/><path class="cls-1" d="M189.444,458.553c4.264,0,6.451,3.293,6.451,7.262s-2.187,7.261-6.451,7.261-6.452-3.293-6.452-7.261S185.178,458.553,189.444,458.553Zm0,13.227c3.238,0,4.939-2.456,4.939-5.965s-1.7-5.966-4.939-5.966-4.94,2.456-4.94,5.966S186.2,471.78,189.444,471.78Z"/><path class="cls-1" d="M198.381,471.564h2.079l.054-11.5h-2.43v-1.188h3.861a18.855,18.855,0,0,1-.324,3.321h.054a4.934,4.934,0,0,1,5.075-3.645c2.591,0,4.669,1.188,4.669,5.426,0,2.537-.081,5.048-.108,7.585H213.5v1.187h-5.669v-1.187h2.079c.027-2.511.108-4.993.108-7.5,0-2.834-1.08-4.211-3.59-4.211-2.808,0-4.481,2.511-4.508,5.129l-.054,6.586h2.186v1.187h-5.669Z"/><path class="cls-1" d="M223.168,478.339h2.24l.135-18.274h-2.618v-1.188h4.049a22.261,22.261,0,0,1-.189,2.915l.081-.053a4.918,4.918,0,0,1,4.832-3.186c3.779,0,5.695,2.889,5.695,6.451,0,4.427-2.051,8.072-7.18,8.072a10.054,10.054,0,0,1-3.347-.487l-.054,5.75h2.511v1.188h-6.155Zm8.26-18.49c-2.619,0-4.508,2.052-4.535,5.723l-.027,5.695a8.387,8.387,0,0,0,3.4.621c3.914,0,5.614-2.808,5.614-6.451C235.881,462.332,234.694,459.849,231.428,459.849Z"/><path class="cls-1" d="M239.557,471.564h2.375l.081-11.5H239.34v-1.188h4.076l-.081,12.687h2.484v1.187h-6.262Zm3.05-19.786a1.408,1.408,0,1,1-1.3,1.4A1.308,1.308,0,0,1,242.607,451.778Z"/><path class="cls-1" d="M247.871,471.564h2.079l.054-11.5h-2.429v-1.188h3.86a18.936,18.936,0,0,1-.323,3.321h.053a4.934,4.934,0,0,1,5.076-3.645c2.59,0,4.668,1.188,4.668,5.426,0,2.537-.081,5.048-.108,7.585h2.188v1.187H257.32v-1.187H259.4c.027-2.511.108-4.993.108-7.5,0-2.834-1.08-4.211-3.59-4.211-2.807,0-4.481,2.511-4.508,5.129l-.054,6.586h2.186v1.187h-5.669Zm12.039-18-.242.4a3,3,0,0,1-2.484,1.4c-1.457,0-2.455-1.43-3.535-1.4a1.961,1.961,0,0,0-1.458,1.027l-.189.269-1.052-.7.215-.351a2.985,2.985,0,0,1,2.456-1.538,4.043,4.043,0,0,1,2.079.675,3.359,3.359,0,0,0,1.593.729,2.182,2.182,0,0,0,1.457-.918l.216-.3Z"/><path class="cls-1" d="M278.271,472.751h-3.617a21.636,21.636,0,0,1,.3-3.158H274.9c-.756,2-2,3.483-4.535,3.483-2.43,0-4.4-1.215-4.4-3.861,0-2.564,2.106-3.833,4.993-4.021l3.752-.243c.028-.432.055-.837.055-1.269,0-2.24-.621-3.833-3.617-3.833a9.985,9.985,0,0,0-3.239.54l-.054,2.321h-1.3l.054-3.185a10.406,10.406,0,0,1,4.751-.972c3.725,0,4.751,2.106,4.751,4.427,0,3.266-.082,5.938-.109,8.584h2.268Zm-7.693-.971a3.817,3.817,0,0,0,3.023-1.457c.972-1.243,1.106-2.242,1.106-4.185-4.939.136-7.234.3-7.234,3.051C267.473,470.727,268.608,471.78,270.578,471.78Z"/></svg>