<svg id="Layer_1" data-name="Layer 1" xmlns="http://www.w3.org/2000/svg" viewBox="0 0 600 500"><defs><style>.cls-1,.cls-2{fill:#fff;}.cls-2,.cls-4{opacity:0.4;}.cls-3{fill:none;stroke:#fff;stroke-miterlimit:10;}</style></defs><title>tabla-yot-productos-sintexto</title><path class="cls-1" d="M369.324,209.947c-.012-5.194-.813-22.066-.878-23.415l1.029-5.146H327.154l1.029,5.146c-.065,1.349-.866,18.221-.878,23.415-.014,5.9.818,24.913.878,26.288l-1.014,5.581H369.46l-1.014-5.581C368.506,234.86,369.338,215.847,369.324,209.947Zm-38,25.721a1.188,1.188,0,0,1-.151.22.688.688,0,0,1-.481.192.658.658,0,0,1-.686-.686.685.685,0,0,1,.192-.48.718.718,0,0,1,.975,0,.75.75,0,0,1,.206.48A.988.988,0,0,1,331.324,235.668Zm-.151-47.378a1.273,1.273,0,0,1-.219.152.882.882,0,0,1-.262.04.744.744,0,0,1-.494-.192,1.264,1.264,0,0,1-.15-.219.937.937,0,0,1-.042-.275.842.842,0,0,1,.042-.26,1.272,1.272,0,0,1,.15-.22.8.8,0,0,1,.22-.151.729.729,0,0,1,.536,0,1.215,1.215,0,0,1,.219.151.7.7,0,0,1,.206.48A.728.728,0,0,1,331.173,188.29Zm2.223,47.79a.68.68,0,0,1-.686-.686.687.687,0,0,1,1.373,0A.68.68,0,0,1,333.4,236.08Zm0-47.584a.693.693,0,1,1,.687-.7A.691.691,0,0,1,333.4,188.5Zm2.718,47.584a.68.68,0,0,1-.686-.686.688.688,0,0,1,.686-.686.7.7,0,0,1,.686.686A.688.688,0,0,1,336.114,236.08Zm0-47.584a.693.693,0,1,1,.686-.7A.7.7,0,0,1,336.114,188.5Zm2.7,47.584a.688.688,0,0,1-.686-.686.7.7,0,0,1,.686-.686.688.688,0,0,1,.686.686A.68.68,0,0,1,338.818,236.08Zm0-47.584a.693.693,0,0,1,0-1.386.693.693,0,0,1,0,1.386Zm2.718,47.584a.68.68,0,0,1-.687-.686.689.689,0,0,1,.687-.686.7.7,0,0,1,.686.686A.688.688,0,0,1,341.536,236.08Zm0-47.584a.693.693,0,1,1,.686-.7A.692.692,0,0,1,341.536,188.5Zm2.717,47.584a.691.691,0,0,1-.7-.686.693.693,0,0,1,1.386,0A.688.688,0,0,1,344.253,236.08Zm0-47.584a.693.693,0,1,1,.686-.7A.7.7,0,0,1,344.253,188.5Zm2.7,47.584a.688.688,0,0,1-.686-.686.7.7,0,0,1,.686-.686.689.689,0,0,1,.687.686A.68.68,0,0,1,346.956,236.08Zm0-47.584a.693.693,0,1,1,.687-.7A.691.691,0,0,1,346.956,188.5Zm2.718,47.584a.68.68,0,0,1-.686-.686.688.688,0,0,1,.686-.686.7.7,0,0,1,.686.686A.688.688,0,0,1,349.674,236.08Zm0-47.584a.693.693,0,1,1,.686-.7A.7.7,0,0,1,349.674,188.5Zm2.7,47.584a.688.688,0,0,1-.686-.686.7.7,0,0,1,.686-.686.688.688,0,0,1,.686.686A.68.68,0,0,1,352.378,236.08Zm0-47.584a.693.693,0,0,1,0-1.386.693.693,0,0,1,0,1.386ZM355.1,236.08a.68.68,0,0,1-.686-.686.687.687,0,0,1,1.373,0A.68.68,0,0,1,355.1,236.08Zm0-47.584a.693.693,0,1,1,.687-.7A.7.7,0,0,1,355.1,188.5Zm2.718,47.584a.679.679,0,0,1-.686-.686.688.688,0,0,1,.686-.686.7.7,0,0,1,.686.686A.688.688,0,0,1,357.813,236.08Zm0-47.584a.693.693,0,1,1,.686-.7A.7.7,0,0,1,357.813,188.5Zm2.7,47.584a.68.68,0,0,1-.686-.686.687.687,0,0,1,1.373,0A.68.68,0,0,1,360.516,236.08Zm0-47.584a.693.693,0,0,1,0-1.386.693.693,0,0,1,0,1.386Zm2.718,47.584a.68.68,0,0,1-.686-.686.688.688,0,0,1,.686-.686.7.7,0,0,1,.686.686A.688.688,0,0,1,363.234,236.08Zm0-47.584a.693.693,0,1,1,.686-.7A.7.7,0,0,1,363.234,188.5Zm3.2,47.392a.747.747,0,0,1-.494.192.691.691,0,0,1-.481-.192.707.707,0,0,1-.2-.494.7.7,0,0,1,.2-.48.718.718,0,0,1,.975,0,.706.706,0,0,1,.192.48A.716.716,0,0,1,366.432,235.888Zm0-47.6a1.313,1.313,0,0,1-.219.152.973.973,0,0,1-.275.04.712.712,0,0,1-.481-.192.784.784,0,0,1-.15-.219.96.96,0,0,1-.055-.275.864.864,0,0,1,.055-.26.723.723,0,0,1,.37-.371.721.721,0,0,1,.755.151.708.708,0,0,1,.192.48A.74.74,0,0,1,366.432,188.29Z"/><path class="cls-1" d="M428.884,223.609c-.012-5.051-.766-13.289-.873-14.233l1.024-5.122H386.714l1.024,5.122c-.106.944-.861,9.182-.873,14.233a119.412,119.412,0,0,0,.873,13.094l-1.009,5.554H429.02l-1.009-5.554A119.434,119.434,0,0,0,428.884,223.609Zm-38.146,12.279a1.294,1.294,0,0,1-.233.151.811.811,0,0,1-.261.041.689.689,0,0,1-.48-.192.653.653,0,0,1-.206-.494.642.642,0,0,1,.206-.48.7.7,0,0,1,.741-.151.818.818,0,0,1,.233.151.682.682,0,0,1,.193.48A.693.693,0,0,1,390.738,235.888Zm.138-25.391a.587.587,0,0,1-.151.22.663.663,0,0,1-.961,0,.675.675,0,0,1-.206-.5.594.594,0,0,1,.055-.26.576.576,0,0,1,.151-.219.632.632,0,0,1,.22-.152.693.693,0,0,1,.741.152.576.576,0,0,1,.151.219.594.594,0,0,1,.055.26A.656.656,0,0,1,390.876,210.5Zm2.086,25.583a.68.68,0,0,1-.686-.686.688.688,0,0,1,.686-.686.7.7,0,0,1,.686.686A.688.688,0,0,1,392.962,236.08Zm0-25.171a.68.68,0,0,1-.686-.687.688.688,0,0,1,.686-.686.7.7,0,0,1,.686.686A.688.688,0,0,1,392.962,210.909Zm2.7,25.171a.688.688,0,0,1-.686-.686.7.7,0,0,1,.686-.686.688.688,0,0,1,.686.686A.68.68,0,0,1,395.666,236.08Zm0-25.171a.688.688,0,0,1-.686-.687.7.7,0,0,1,.686-.686.688.688,0,0,1,.686.686A.68.68,0,0,1,395.666,210.909Zm2.718,25.171a.68.68,0,0,1-.687-.686.689.689,0,0,1,.687-.686.7.7,0,0,1,.686.686A.688.688,0,0,1,398.384,236.08Zm0-25.171a.68.68,0,0,1-.687-.687.689.689,0,0,1,.687-.686.7.7,0,0,1,.686.686A.689.689,0,0,1,398.384,210.909ZM401.1,236.08a.679.679,0,0,1-.686-.686.688.688,0,0,1,.686-.686.7.7,0,0,1,.686.686A.688.688,0,0,1,401.1,236.08Zm-.014-25.171a.676.676,0,0,1-.672-.687.685.685,0,0,1,.672-.686.7.7,0,0,1,.7.686A.691.691,0,0,1,401.087,210.909ZM403.8,236.08a.688.688,0,0,1-.686-.686.7.7,0,0,1,.686-.686.689.689,0,0,1,.687.686A.68.68,0,0,1,403.8,236.08Zm0-25.171a.68.68,0,0,1-.686-.687.687.687,0,0,1,1.373,0A.68.68,0,0,1,403.8,210.909Zm2.718,25.171a.68.68,0,0,1-.686-.686.688.688,0,0,1,.686-.686.7.7,0,0,1,.686.686A.688.688,0,0,1,406.522,236.08Zm0-25.171a.68.68,0,0,1-.686-.687.688.688,0,0,1,.686-.686.7.7,0,0,1,.686.686A.688.688,0,0,1,406.522,210.909Zm2.7,25.171a.688.688,0,0,1-.686-.686.7.7,0,0,1,.686-.686.688.688,0,0,1,.686.686A.68.68,0,0,1,409.226,236.08Zm0-25.171a.688.688,0,0,1-.686-.687.7.7,0,0,1,.686-.686.688.688,0,0,1,.686.686A.68.68,0,0,1,409.226,210.909Zm2.717,25.171a.68.68,0,0,1-.686-.686.687.687,0,0,1,1.373,0A.68.68,0,0,1,411.943,236.08Zm0-25.171a.68.68,0,0,1-.686-.687.687.687,0,0,1,1.373,0A.681.681,0,0,1,411.943,210.909Zm2.705,25.171a.689.689,0,0,1-.687-.686.693.693,0,0,1,1.386,0A.691.691,0,0,1,414.648,236.08Zm.013-25.171a.68.68,0,0,1-.686-.687.688.688,0,0,1,.686-.686.7.7,0,0,1,.686.686A.688.688,0,0,1,414.661,210.909Zm2.7,25.171a.688.688,0,0,1-.686-.686.7.7,0,0,1,.686-.686.688.688,0,0,1,.686.686A.68.68,0,0,1,417.365,236.08Zm0-25.171a.679.679,0,0,1-.686-.687.686.686,0,1,1,1.372,0A.68.68,0,0,1,417.365,210.909Zm2.718,25.171a.68.68,0,0,1-.687-.686.689.689,0,0,1,.687-.686.7.7,0,0,1,.686.686A.688.688,0,0,1,420.083,236.08Zm0-25.171a.68.68,0,0,1-.687-.687.689.689,0,0,1,.687-.686.7.7,0,0,1,.686.686A.689.689,0,0,1,420.083,210.909Zm2.7,25.171a.688.688,0,0,1-.686-.686.7.7,0,0,1,.686-.686.688.688,0,0,1,.686.686A.679.679,0,0,1,422.786,236.08Zm0-25.171a.676.676,0,0,1-.672-.687.679.679,0,1,1,.672.687Zm3.2,24.979a.688.688,0,0,1-.481.192.81.81,0,0,1-.26-.041.87.87,0,0,1-.22-.151.653.653,0,0,1-.206-.494.642.642,0,0,1,.206-.48.7.7,0,0,1,.961,0,.642.642,0,0,1,.206.48A.653.653,0,0,1,425.984,235.888Zm0-25.171a.9.9,0,0,1-.22.151.807.807,0,0,1-.261.041.871.871,0,0,1-.26-.041.9.9,0,0,1-.22-.151.587.587,0,0,1-.151-.22.656.656,0,0,1-.055-.275.594.594,0,0,1,.055-.26.576.576,0,0,1,.151-.219.632.632,0,0,1,.22-.152.691.691,0,0,1,.521,0,.632.632,0,0,1,.22.152.642.642,0,0,1,.206.479A.675.675,0,0,1,425.984,210.717Z"/><path class="cls-1" d="M163.308,197.916h3.239l-.216,5.938H152.754V201.1h1.7V187.713H152.43V184.96h13.82l.162,5.56h-3.239l-.162-2.807H158.4v4.967h4.751V195.6H158.4V201.1h4.7Z"/><path class="cls-1" d="M187.39,201.1h1.377v-5.8c0-1.944-1.027-2.646-2.457-2.646-1.835,0-3,1.486-3,3.752v4.7h1.62v2.752h-6.776V201.1h1.376v-5.8c0-1.944-1.025-2.646-2.456-2.646-2,0-3,1.62-3,3.752v4.7h1.62v2.752h-6.937V201.1H170.3v-8.611h-1.835v-2.754H174a12.789,12.789,0,0,1-.216,2.862h.054a4.886,4.886,0,0,1,4.886-3.185c2.321,0,3.779,1.079,4.157,3.185h.054a4.577,4.577,0,0,1,4.723-3.185c3.348,0,4.886,2.132,4.886,5.506V201.1h1.62v2.752H187.39Z"/><path class="cls-1" d="M197.546,192.491h-2.159v-2.754h5.885a15.1,15.1,0,0,1-.243,2.673h.053a4.857,4.857,0,0,1,4.805-3c3.1,0,5.452,2.24,5.452,6.451,0,3.86-1.862,8.314-7.882,8.314a11.3,11.3,0,0,1-2.132-.243v3.941h1.62v2.753h-6.937v-2.753h1.538Zm3.7,8.233a8.333,8.333,0,0,0,2.4.378c2.726,0,3.914-2.3,3.914-4.805,0-1.943-.7-3.806-3.051-3.806-2.51,0-3.266,1.808-3.266,3.563Z"/><path class="cls-1" d="M222.736,194.866c0-2.133-.891-2.7-2.673-2.7a8.616,8.616,0,0,0-2.348.4v1.89h-3.239v-3.59a12.4,12.4,0,0,1,5.641-1.457c3.779,0,6.181,1.322,6.181,5.425,0,2.321-.081,4.265-.135,6.263h1.593v2.752h-4.751v-.863a7.265,7.265,0,0,1,.19-1.943h-.055c-.944,2.132-2.24,3.131-4.615,3.131-3.186,0-4.724-1.89-4.724-4.1a4.1,4.1,0,0,1,2.834-3.888,19.01,19.01,0,0,1,6.1-.647Zm-1.108,3c-3.077,0-4.049.648-4.049,1.863,0,.837.594,1.7,2.079,1.7,1.512,0,3.023-.972,3.023-3.564Z"/><path class="cls-1" d="M239.853,205.312a23.9,23.9,0,0,1,.3-4.129H240.1a4.3,4.3,0,0,1-4.535,3c-3.239,0-5.723-2.375-5.723-6.451,0-3.861,2.187-8.314,8.234-8.314a14.767,14.767,0,0,1,5.56,1.188v17.275h1.673v2.753h-6.964v-2.753h1.512ZM239.934,193a6.075,6.075,0,0,0-2.4-.513c-2.726,0-3.751,2.159-3.751,4.346,0,2.213,1.052,4.1,2.887,4.1,2,0,3.267-1.781,3.267-3.94Z"/><path class="cls-1" d="M256.107,189.737h5.56V201.1h1.648v2.752h-5.291a7.616,7.616,0,0,1,.35-2.915h-.053a4.725,4.725,0,0,1-4.886,3.24c-3.212,0-4.751-1.944-4.751-4.94v-6.748h-1.89v-2.754h5.669v7.909c0,2,.216,3.456,2.484,3.456,1.619,0,2.942-1.3,2.942-3.537v-5.074h-1.782Z"/><path class="cls-1" d="M269.122,197.646c.109,2.241,1.836,3.618,4.481,3.618a10.418,10.418,0,0,0,4.562-.972l-.189,3a14.106,14.106,0,0,1-5.21.891c-5.452,0-7.746-3.4-7.746-7.316,0-4.4,2.672-7.449,7.1-7.449,4.859,0,6.829,3.671,6.829,8.232Zm5.723-2.591a2.721,2.721,0,0,0-2.861-3.05c-1.728,0-2.727,1.134-2.889,3.05Z"/><path class="cls-1" d="M111.013,68.717h-1.7V65.963h7.343v2.754h-1.7V82.1h1.7v2.754h-7.343V82.1h1.7Z"/><path class="cls-1" d="M120.327,73.494h-1.835V70.741h5.534a13.5,13.5,0,0,1-.216,2.915h.054a5,5,0,0,1,4.885-3.239c3.348,0,4.886,2.133,4.886,5.507V82.1h1.62v2.754h-6.937V82.1h1.538V76.3c0-1.944-1.026-2.646-2.456-2.646-2.294,0-3.293,1.619-3.293,3.752v4.7h1.619v2.754h-6.775V82.1h1.376Z"/><path class="cls-1" d="M151.7,73.332h-2.429a4.469,4.469,0,0,1,.918,2.727c0,3.32-2.808,4.858-5.939,4.858H142.9a.87.87,0,0,0-.918.756c0,.486.3.675,1,.756l4.67.512c2.428.271,3.778,1.3,3.778,3.726,0,2.051-1.647,5.29-7.449,5.29-5.723,0-7.127-2.051-7.127-3.778,0-1.215.595-2.592,3.1-3.186v-.054c-1.215-.27-1.916-.81-1.916-2.1,0-1.4,1.35-2.105,2.726-2.349v-.053a4.53,4.53,0,0,1-3.536-4.67c0-3.267,2.483-5.345,6.343-5.345a16.362,16.362,0,0,1,2.969.324H151.7ZM141.981,85.7c-.7.242-1.566.836-1.566,1.647,0,1.322,1.512,1.862,3.806,1.862,1.674,0,3.644-.647,3.644-1.943,0-.865-.593-1-1.862-1.134Zm1.808-7.531c2.349,0,3.158-1.3,3.158-2.537,0-1.485-1.322-2.457-3.023-2.457-1.646,0-3.131.729-3.131,2.592C140.793,77.246,141.9,78.164,143.789,78.164Z"/><path class="cls-1" d="M155.076,73.494H153.24V70.741h5.48a21.675,21.675,0,0,1-.242,3.239h.053c.567-2.376,1.89-3.563,4.049-3.563a6,6,0,0,1,1.242.162l-.243,3.374a6.437,6.437,0,0,0-1.215-.135,3.4,3.4,0,0,0-3.508,3.725V82.1h1.781v2.754h-7.1V82.1h1.539Z"/><path class="cls-1" d="M168.684,78.649c.108,2.242,1.836,3.618,4.48,3.618a10.419,10.419,0,0,0,4.563-.972l-.19,3a14.106,14.106,0,0,1-5.21.891c-5.452,0-7.746-3.4-7.746-7.315,0-4.4,2.672-7.45,7.1-7.45,4.858,0,6.829,3.671,6.829,8.232Zm5.722-2.59a2.721,2.721,0,0,0-2.861-3.05c-1.727,0-2.726,1.133-2.889,3.05Z"/><path class="cls-1" d="M190.281,66.854h-2.159V64.1h5.939v18h1.619v2.754h-5.317a10.93,10.93,0,0,1,.324-2.726h-.054a4.825,4.825,0,0,1-4.805,3.05c-3.1,0-5.75-2.241-5.75-6.452,0-3.859,1.863-8.313,7.882-8.313a9.207,9.207,0,0,1,2.321.324Zm-.107,7.153a6.087,6.087,0,0,0-2.4-.513c-2.727,0-3.752,2.159-3.752,4.346,0,2.214,1.052,4.1,2.887,4.1,2,0,3.267-1.782,3.267-3.941Z"/><path class="cls-1" d="M199.329,73.494h-1.836V70.741h5.615V82.1h1.62v2.754H197.79V82.1h1.539Zm1.754-9.8a2.356,2.356,0,1,1-2.537,2.348A2.293,2.293,0,0,1,201.083,63.7Z"/><path class="cls-1" d="M210.641,78.649c.108,2.242,1.836,3.618,4.48,3.618a10.419,10.419,0,0,0,4.563-.972l-.19,3a14.106,14.106,0,0,1-5.21.891c-5.452,0-7.746-3.4-7.746-7.315,0-4.4,2.672-7.45,7.1-7.45,4.858,0,6.829,3.671,6.829,8.232Zm5.723-2.59a2.721,2.721,0,0,0-2.862-3.05c-1.727,0-2.726,1.133-2.888,3.05Z"/><path class="cls-1" d="M223.79,73.494h-1.836V70.741h5.535a13.441,13.441,0,0,1-.217,2.915h.054a5,5,0,0,1,4.886-3.239c3.347,0,4.886,2.133,4.886,5.507V82.1h1.619v2.754H231.78V82.1h1.539V76.3c0-1.944-1.026-2.646-2.456-2.646-2.295,0-3.294,1.619-3.294,3.752v4.7h1.62v2.754h-6.776V82.1h1.377Z"/><path class="cls-1" d="M242.285,67.826l3.779-.217v3.132h3.779v2.753h-3.779v6.289c0,2,.513,2.484,2.079,2.484a5.406,5.406,0,0,0,1.835-.432l-.135,2.672a9.857,9.857,0,0,1-3.293.675c-2.78,0-4.265-1.3-4.265-3.779V73.494h-1.917V70.741h1.917Z"/><path class="cls-1" d="M254.623,78.649c.109,2.242,1.836,3.618,4.481,3.618a10.418,10.418,0,0,0,4.562-.972l-.189,3a14.106,14.106,0,0,1-5.21.891c-5.452,0-7.746-3.4-7.746-7.315,0-4.4,2.672-7.45,7.1-7.45,4.859,0,6.829,3.671,6.829,8.232Zm5.723-2.59a2.721,2.721,0,0,0-2.861-3.05c-1.728,0-2.727,1.133-2.889,3.05Z"/><path class="cls-1" d="M274.521,73.413a6.513,6.513,0,0,0-2.187-.4c-1.727,0-2.537.7-2.537,1.484,0,.675.189.944,1.269,1.107l2.968.431c3.24.459,4.589,1.7,4.589,4.265,0,2.511-1.754,4.886-6.667,4.886a18.872,18.872,0,0,1-5.56-.891V80.323h3.4V81.97a8.835,8.835,0,0,0,2.51.459c.783,0,2.754-.243,2.754-1.728,0-.782-.487-1.187-2.133-1.431l-3.185-.485c-2.457-.378-3.509-1.727-3.509-3.752,0-3.482,3.293-4.616,6.209-4.616a17.307,17.307,0,0,1,5.479.944v3.483h-3.4Z"/><path class="cls-1" d="M195.247,118.037l-.026,3.914a26.336,26.336,0,0,1-5.426.729c-5.507,0-9.556-3.185-9.556-9.771,0-6.181,4.1-9.771,10.015-9.771a15.937,15.937,0,0,1,5.264.863l-.055,3.779h-1.4l.054-2.834a14.587,14.587,0,0,0-3.968-.513c-5.048,0-8.395,3.294-8.395,8.637,0,5.21,3.186,8.315,8.233,8.315a17.41,17.41,0,0,0,3.833-.433l.027-2.915Z"/><path class="cls-1" d="M211.314,122.356H207.7a21.5,21.5,0,0,1,.3-3.158h-.053c-.756,2-2,3.482-4.535,3.482-2.43,0-4.4-1.214-4.4-3.86,0-2.564,2.105-3.833,4.993-4.022l3.752-.242c.028-.433.054-.837.054-1.269,0-2.241-.62-3.833-3.616-3.833a10.027,10.027,0,0,0-3.24.539l-.054,2.321h-1.3l.054-3.184a10.406,10.406,0,0,1,4.751-.972c3.724,0,4.75,2.106,4.75,4.427,0,3.266-.082,5.938-.108,8.584h2.268Zm-7.694-.971a3.818,3.818,0,0,0,3.024-1.458c.971-1.241,1.106-2.24,1.106-4.184-4.939.135-7.234.3-7.234,3.05C200.516,120.332,201.65,121.385,203.62,121.385Z"/><path class="cls-1" d="M232.318,121.169H234.4c.027-2.511.108-4.994.108-7.5,0-2.834-1.242-4.21-3.617-4.21-2.43,0-4.13,2.429-4.184,4.993l-.108,6.722h2.186v1.187h-5.668v-1.187h2.079c.026-2.511.053-4.994.053-7.5,0-2.834-1.214-4.21-3.508-4.21-2.539,0-4.292,2.429-4.32,4.993l-.053,6.722h2.186v1.187h-5.642v-1.187h2.052l.054-11.5h-2.4v-1.189h3.833a18.758,18.758,0,0,1-.325,3.321h.054a5.006,5.006,0,0,1,4.832-3.644,4.1,4.1,0,0,1,4.346,3.293,5.09,5.09,0,0,1,4.886-3.293c2.672,0,4.669,1.4,4.669,5.426,0,2.537-.081,5.047-.108,7.585h2.187v1.187h-5.668Z"/><path class="cls-1" d="M246.928,108.158c4.265,0,6.451,3.293,6.451,7.261s-2.186,7.261-6.451,7.261-6.452-3.293-6.452-7.261S242.662,108.158,246.928,108.158Zm0,13.227c3.238,0,4.939-2.457,4.939-5.966s-1.7-5.965-4.939-5.965-4.94,2.456-4.94,5.965S243.689,121.385,246.928,121.385Z"/><path class="cls-1" d="M264.774,121.979a7.306,7.306,0,0,1-3.186.7c-2.375,0-3.509-1.242-3.509-4.13,0-2.969.028-5.911.054-8.88H255.7v-1.189h2.429l.055-3.616,1.4-.108-.054,3.724h4.616v1.189h-4.616c-.027,2.807-.054,5.587-.054,8.394,0,2.484.54,3.428,2.429,3.428a7.55,7.55,0,0,0,3-.782Z"/><path class="cls-1" d="M277.705,121.627a9.757,9.757,0,0,1-4.426,1.053c-4.508,0-6.8-2.888-6.8-7.5,0-3.833,2.159-7.018,6.1-7.018,4.562,0,5.8,3.752,5.8,7.126H267.989c.053,3.941,1.862,6.1,5.506,6.1a9.073,9.073,0,0,0,4.265-1.161Zm-.836-7.53c0-2.484-1.349-4.643-4.373-4.643a4.493,4.493,0,0,0-4.507,4.643Z"/><path class="cls-2" d="M444.909,212.187v5.42l1.794,1.457,1.736,18.115,2.048,3.7H480.37l1.961-3.43,1.822-18.39,1.794-1.457v-5.42Zm36.971,8.11h-32.9a.687.687,0,1,1,0-1.373h32.9a.687.687,0,0,1,0,1.373Z"/><path class="cls-2" d="M312.627,118.152q-.332-.309-.665-.637l1.943-1.943a25.448,25.448,0,0,0,3.9,3.272A4.644,4.644,0,0,1,312.627,118.152Zm19.44-35.546a7.619,7.619,0,0,0,.958,3.344q-2.04,1.68-4.152,3.5c-.868-1.675-1.006-3.041-.416-4.117C329.631,84.43,330.838,83.518,332.067,82.606Zm22.109-4.654c-.568-.449-1.069-.872-1.443-1.209l4.145-4.145c.159.151.318.3.478.44C356.532,74.356,355.466,76.018,354.176,77.952Zm4.244-4.027a10.032,10.032,0,0,0,1.211.809,56.417,56.417,0,0,1-2.66,5.171c-.542-.317-1.122-.7-1.7-1.124C356.539,76.884,357.594,75.241,358.42,73.925Zm-26.409,39.458c-.136.135-.265.259-.4.39a6.738,6.738,0,0,1-5.62.464c.737-.707,1.5-1.455,2.329-2.28.462-.462.917-.925,1.371-1.389a7.935,7.935,0,0,0,4.333.659C333.261,112.081,332.574,112.819,332.011,113.383Zm-4.659-2.4c-.986.986-1.882,1.854-2.721,2.645a22.849,22.849,0,0,1-4.9-3.883l3.743-3.743a25.19,25.19,0,0,0,4.927,3.921C328.05,110.28,327.7,110.634,327.352,110.987Zm10.261-19.123a24.639,24.639,0,0,0,4.022,3.157q-1.66,2.056-3.449,4.171a27.608,27.608,0,0,1-4.318-3.583Zm.972-.972,3.745-3.745a27.764,27.764,0,0,0,3.368,2.691c-1.014,1.332-2.082,2.7-3.193,4.1A21.98,21.98,0,0,1,338.585,90.892Zm8.467-10.408a28.772,28.772,0,0,1-1.839-2.261c1.527-1.117,2.959-2.138,4.273-3.055.47.6.925,1.138,1.312,1.57Zm-.972.971L342.334,85.2a25.729,25.729,0,0,1-2.4-3.01c1.447-1.118,2.843-2.171,4.172-3.155A30.265,30.265,0,0,0,346.08,81.455Zm-4.712,4.713-3.751,3.751a23.14,23.14,0,0,1-2.845-3.628q2.1-1.71,4.085-3.261A29.547,29.547,0,0,0,341.368,86.168Zm-4.72,4.719-3.74,3.741a29.059,29.059,0,0,1-3.328-3.978q2.1-1.814,4.136-3.492A26.045,26.045,0,0,0,336.648,90.887Zm-12.207,14.149,3.753-3.753A25.033,25.033,0,0,0,333,105.072q-1.753,1.916-3.6,3.827A22.523,22.523,0,0,1,324.441,105.036Zm4.722-4.722,3.735-3.735a29.643,29.643,0,0,0,4.384,3.669q-1.617,1.881-3.33,3.783A22.826,22.826,0,0,1,329.163,100.314Zm9.325.635a6.969,6.969,0,0,0,3.3.89q-1.126,1.441-2.2,2.781a5.108,5.108,0,0,1-4.336.02Q336.916,102.786,338.488,100.949Zm4.658-.862a4.053,4.053,0,0,1-3.736-.219q1.791-2.118,3.451-4.182a7.053,7.053,0,0,0,3.015.784C344.963,97.7,344.049,98.911,343.146,100.087Zm3.945-5.311c-.832.525-2.02.373-3.341-.2,1.085-1.365,2.129-2.707,3.121-4.012a8.47,8.47,0,0,0,2.574.981c-.768,1.091-1.551,2.178-2.339,3.257Zm3.262-4.534a5.026,5.026,0,0,1-2.647-.788q1.612-2.146,3.041-4.141a12.285,12.285,0,0,0,2.171,1.142C352.094,87.705,351.235,88.971,350.353,90.242Zm-3.83-1.5a24.47,24.47,0,0,1-3.224-2.567l3.747-3.747a30.649,30.649,0,0,0,2.57,2.105Q348.166,86.557,346.523,88.745Zm1.495-7.287,3.744-3.744c.411.374.987.861,1.647,1.381-.9,1.337-1.907,2.788-3,4.325A25.656,25.656,0,0,1,348.018,81.458Zm9.838-9.838,2.482-2.724-2.243,2.95Zm-.966-.974-.247-.261,2.936-2.186Zm-.973.973-4.146,4.145c-.338-.379-.736-.852-1.156-1.38,1.952-1.345,3.592-2.43,4.853-3.246C355.611,71.3,355.766,71.458,355.917,71.619Zm-6.135,1.672a20.9,20.9,0,0,1-1.172-1.761,56.285,56.285,0,0,1,5.184-2.665,10.737,10.737,0,0,0,.8,1.2C353.327,70.889,351.7,71.967,349.782,73.291Zm-1.125.782c-1.3.909-2.718,1.919-4.226,3.022a10.116,10.116,0,0,1-1.173-2.292c1.427-.922,2.824-1.793,4.168-2.587C347.776,72.813,348.2,73.446,348.657,74.073Zm-5.334,3.836c-1.313.971-2.691,2.011-4.119,3.113a5.5,5.5,0,0,1-.93-2.876c1.275-.885,2.545-1.746,3.8-2.571A13.073,13.073,0,0,0,343.323,77.909Zm-5.2,3.956q-1.957,1.529-4.02,3.2c-.693-1.448-.92-2.756-.371-3.653l-.023-.015c1.087-.792,2.182-1.581,3.28-2.355A9.058,9.058,0,0,0,338.119,81.865Zm-10.312,8.508q-1.839,1.6-3.707,3.3a5.44,5.44,0,0,1-.168-4.792q1.342-1.078,2.788-2.208A7.539,7.539,0,0,0,327.807,90.373Zm.728,1.185a30.192,30.192,0,0,0,3.393,4.05l-3.741,3.74a24.238,24.238,0,0,1-3.437-4.408Q326.657,93.2,328.535,91.558Zm-1.305,8.748-3.755,3.755a24.769,24.769,0,0,1-3.59-4.533q1.922-1.869,3.837-3.64A26.107,26.107,0,0,0,327.23,100.306Zm-4.728,4.728-3.742,3.742a23.727,23.727,0,0,1-3.594-4.527c.814-.837,1.7-1.735,2.708-2.74.338-.338.677-.669,1.015-1A26.254,26.254,0,0,0,322.5,105.034Zm-7.981-2.089a6.957,6.957,0,0,1,.2-6.039c.136-.137.263-.271.4-.41.567-.567,1.311-1.26,2.174-2.032a8.572,8.572,0,0,0,.911,4.785c-.435.427-.871.855-1.305,1.29C316.039,101.4,315.259,102.191,314.521,102.945Zm-1.916-3.78a8.731,8.731,0,0,0,.888,4.839,44.3,44.3,0,0,0-3.542,4.057c-.963-2.626-.36-5.268,2.357-8.563C312.4,99.389,312.507,99.275,312.605,99.165Zm1.574,6.11a26.15,26.15,0,0,0,3.609,4.472l-3.878,3.879a21.527,21.527,0,0,1-3.292-4.152A35.056,35.056,0,0,1,314.179,105.275Zm-1.242,9.324-1.874,1.873c-1.615-2.109-2.133-3.624-1.227-5.629A24.586,24.586,0,0,0,312.937,114.6Zm1.938,0,3.881-3.881a25.2,25.2,0,0,0,4.81,3.9,32.356,32.356,0,0,1-4.365,3.465A20.675,20.675,0,0,1,314.875,114.6Zm10.006.682a8.265,8.265,0,0,0,4.405.677c-3.451,2.926-6.141,3.538-8.569,2.782A40.109,40.109,0,0,0,324.881,115.284Zm10.9-6.066,0-.007a5.927,5.927,0,0,1-5.041.278q1.818-1.888,3.545-3.783a7.749,7.749,0,0,0,3.816.744C337.285,107.441,336.51,108.368,335.783,109.218Zm17.9-23.944a9.9,9.9,0,0,1-2.14-1.082c1.075-1.516,2.064-2.947,2.959-4.27.594.43,1.2.831,1.778,1.169C355.486,82.439,354.613,83.841,353.687,85.274ZM360.16,73.45a9.014,9.014,0,0,1-1.013-.7c.461-.748.82-1.344,1.058-1.747.345-.58.607-1.077.831-1.535A10.413,10.413,0,0,1,360.16,73.45Zm-1.225-5.982a15.773,15.773,0,0,0-1.568.847c-.274.167-.826.507-1.618,1.011a10,10,0,0,1-.678-.986A10.672,10.672,0,0,1,358.935,67.468ZM323.052,94.64q-1.9,1.755-3.813,3.6a6.1,6.1,0,0,1-.007-5.472c.883-.756,1.852-1.567,2.889-2.418A8.12,8.12,0,0,0,323.052,94.64Zm-14.844,10.866a8.326,8.326,0,0,0,.826,3.915,6.469,6.469,0,0,0-1.018,3.155A7.861,7.861,0,0,1,308.208,105.506Zm7.91,15.181a7.738,7.738,0,0,0,3.133-1.032,7.912,7.912,0,0,0,3.694.766C320.191,121.7,318.049,121.6,316.118,120.687Z"/><path class="cls-2" d="M396.138,83.8A9.979,9.979,0,0,0,382.57,81.44c-4.116,2.881-6.4,10.98-12.581,12.924-4.554,1.433-8.082,2.365-9.524,7.24-3.162,10.694,10.052,16.1,18.413,14.671,9.486-1.625,15.694-8.324,18.789-17.222C399.5,93.792,398.821,87.723,396.138,83.8Zm-30.724,21.655a1.03,1.03,0,0,1,0-2.059A1.03,1.03,0,0,1,365.414,105.458Zm4.689,5.49a1.03,1.03,0,0,1,0-2.059A1.03,1.03,0,0,1,370.1,110.948Zm1.945-8.463a1.03,1.03,0,0,1,0-2.059A1.03,1.03,0,0,1,372.048,102.485Zm3.888,1.715a1.03,1.03,0,0,1,0,2.059A1.03,1.03,0,0,1,375.936,104.2Zm.8,7.32a1.03,1.03,0,0,1,0-2.059A1.03,1.03,0,0,1,376.737,111.52Zm.8-13.5a1.03,1.03,0,0,1,0-2.059A1.03,1.03,0,0,1,377.537,98.024Zm8.007,10.179a1.03,1.03,0,0,1,0-2.059A1.03,1.03,0,0,1,385.544,108.2Z"/><line class="cls-3" x1="31.285" y1="154.021" x2="565.11" y2="154.021"/><path class="cls-1" d="M178.859,318.224H178.8a10.146,10.146,0,0,1-.729,2.483l-4.264,11.147h-3.78l-4.373-11.336a10.541,10.541,0,0,1-.755-2.484h-.054V329.1h1.971v2.752h-6.695V329.1h1.647V315.713H159.8V312.96h6.938l4.858,12.552a8.481,8.481,0,0,1,.756,2.564h.054a11.749,11.749,0,0,1,.945-3.375l4.4-11.741h6.857v2.753h-1.971V329.1h1.89v2.752h-7.261V329.1h1.593Z"/><path class="cls-1" d="M195.277,322.866c0-2.133-.891-2.7-2.672-2.7a8.623,8.623,0,0,0-2.349.4v1.89h-3.239v-3.59a12.405,12.405,0,0,1,5.641-1.457c3.78,0,6.182,1.322,6.182,5.425,0,2.321-.081,4.265-.135,6.263H200.3v2.752h-4.75v-.863a7.314,7.314,0,0,1,.189-1.943h-.054c-.945,2.132-2.24,3.131-4.616,3.131-3.185,0-4.724-1.89-4.724-4.1a4.1,4.1,0,0,1,2.834-3.888,19.014,19.014,0,0,1,6.1-.647Zm-1.107,3c-3.077,0-4.049.648-4.049,1.863,0,.837.594,1.7,2.078,1.7,1.512,0,3.024-.972,3.024-3.564Z"/><path class="cls-1" d="M204.054,320.491h-1.836v-2.754H207.7a21.438,21.438,0,0,1-.243,3.24h.055c.566-2.375,1.889-3.563,4.049-3.563a6,6,0,0,1,1.241.161l-.243,3.374a6.511,6.511,0,0,0-1.215-.135,3.406,3.406,0,0,0-3.509,3.726V329.1h1.782v2.752h-7.1V329.1h1.539Z"/><path class="cls-1" d="M215.313,320.491h-1.836v-2.754h5.614V329.1h1.62v2.752h-6.937V329.1h1.539Zm1.754-9.8a2.356,2.356,0,1,1-2.537,2.349A2.294,2.294,0,0,1,217.067,310.692Z"/><path class="cls-1" d="M232.725,313.851h-2.159V311.1H236.5v18h1.62v2.752h-5.317a10.934,10.934,0,0,1,.323-2.725h-.054a4.824,4.824,0,0,1-4.8,3.05c-3.1,0-5.749-2.241-5.749-6.451,0-3.861,1.862-8.314,7.882-8.314a9.222,9.222,0,0,1,2.321.323ZM232.616,321a6.065,6.065,0,0,0-2.4-.513c-2.726,0-3.752,2.159-3.752,4.346,0,2.213,1.053,4.1,2.889,4.1,2,0,3.265-1.781,3.265-3.94Z"/><path class="cls-1" d="M249.249,322.866c0-2.133-.89-2.7-2.673-2.7a8.6,8.6,0,0,0-2.347.4v1.89h-3.24v-3.59a12.4,12.4,0,0,1,5.642-1.457c3.778,0,6.181,1.322,6.181,5.425,0,2.321-.081,4.265-.135,6.263h1.593v2.752h-4.751v-.863a7.272,7.272,0,0,1,.189-1.943h-.054c-.945,2.132-2.241,3.131-4.616,3.131-3.185,0-4.723-1.89-4.723-4.1a4.1,4.1,0,0,1,2.834-3.888,19,19,0,0,1,6.1-.647Zm-1.107,3c-3.077,0-4.049.648-4.049,1.863,0,.837.594,1.7,2.079,1.7,1.512,0,3.023-.972,3.023-3.564Z"/><path class="cls-1" d="M255.947,317.737h5.615v11.04c0,6.857-2.753,9.718-7.99,10.177l-.432-3c3.509-.7,4.642-3.132,4.642-7.5v-7.963h-1.835Zm3.59-7.045A2.356,2.356,0,1,1,257,313.041,2.293,2.293,0,0,1,259.537,310.692Z"/><path class="cls-1" d="M269.121,325.646c.109,2.241,1.836,3.618,4.482,3.618a10.411,10.411,0,0,0,4.561-.972l-.188,3a14.11,14.11,0,0,1-5.21.891c-5.452,0-7.747-3.4-7.747-7.316,0-4.4,2.673-7.449,7.1-7.449,4.859,0,6.829,3.671,6.829,8.232Zm5.723-2.591a2.721,2.721,0,0,0-2.861-3.05c-1.728,0-2.726,1.134-2.888,3.05Z"/><path class="cls-1" d="M59.17,366.032l-.027,3.914a26.336,26.336,0,0,1-5.426.729c-5.506,0-9.555-3.185-9.555-9.771,0-6.181,4.1-9.771,10.014-9.771A15.932,15.932,0,0,1,59.44,352l-.054,3.779h-1.4l.053-2.834a14.58,14.58,0,0,0-3.967-.513c-5.048,0-8.4,3.294-8.4,8.637,0,5.21,3.186,8.315,8.233,8.315a17.41,17.41,0,0,0,3.833-.433l.027-2.915Z"/><path class="cls-1" d="M73.67,369.622a9.762,9.762,0,0,1-4.427,1.053c-4.507,0-6.8-2.888-6.8-7.5,0-3.833,2.16-7.018,6.1-7.018,4.563,0,5.8,3.752,5.8,7.126H63.952c.055,3.941,1.864,6.1,5.507,6.1a9.07,9.07,0,0,0,4.265-1.161Zm-.837-7.53c0-2.484-1.349-4.643-4.373-4.643a4.494,4.494,0,0,0-4.508,4.643Z"/><path class="cls-1" d="M76.967,369.164H79.18l.108-11.5H76.67v-1.188h4.075c0,1.3-.107,2.969-.215,4.454h.053c.621-2.375,2.133-4.778,4.644-4.778a7.009,7.009,0,0,1,1.943.3l-.216,1.35a4.058,4.058,0,0,0-1.7-.351c-2.429,0-4.561,3.023-4.615,6.937l-.055,4.778h2.592v1.188H76.967Z"/><path class="cls-1" d="M89.251,357.665H87.47v-1.188h5.155v1.188H90.871l3.482,9.879a6.86,6.86,0,0,1,.324,1.62h.054a9.122,9.122,0,0,1,.378-1.62l3.589-9.879H96.674v-1.188h5.156v1.188h-1.62l-4.886,12.687H94.03Z"/><path class="cls-1" d="M114.683,369.622a9.762,9.762,0,0,1-4.427,1.053c-4.508,0-6.8-2.888-6.8-7.5,0-3.833,2.161-7.018,6.1-7.018,4.562,0,5.8,3.752,5.8,7.126H104.965c.055,3.941,1.863,6.1,5.507,6.1a9.076,9.076,0,0,0,4.265-1.161Zm-.837-7.53c0-2.484-1.35-4.643-4.373-4.643a4.494,4.494,0,0,0-4.508,4.643Z"/><path class="cls-1" d="M118.168,369.164l8.773-10.743a5.92,5.92,0,0,1,.7-.756h-7.694l-.107,2.429h-1.323l.162-3.617h10.608v1.188l-8.772,10.743a6.133,6.133,0,0,1-.7.756h8.016l.162-2.564h1.324l-.216,3.752H118.168Z"/><path class="cls-1" d="M144.76,370.352h-3.617a21.5,21.5,0,0,1,.3-3.159h-.054c-.756,2-2,3.482-4.535,3.482-2.43,0-4.4-1.214-4.4-3.86,0-2.564,2.105-3.833,4.994-4.022l3.752-.242c.027-.433.053-.837.053-1.269,0-2.241-.62-3.833-3.616-3.833a10.014,10.014,0,0,0-3.239.539l-.055,2.322h-1.3l.054-3.185a10.406,10.406,0,0,1,4.751-.972c3.724,0,4.75,2.106,4.75,4.427,0,3.266-.081,5.939-.108,8.584h2.268Zm-7.693-.972a3.818,3.818,0,0,0,3.023-1.458c.972-1.241,1.107-2.24,1.107-4.184-4.94.135-7.235.3-7.235,3.05C133.962,368.327,135.1,369.38,137.067,369.38Z"/><path class="cls-1" d="M153.889,369.164H155.7l7.289-17.708H164.5l6.478,17.708h1.971v1.188h-5.939v-1.188h2.349L166.9,362.47h-7.019l-2.672,6.694h2.51v1.188h-5.83ZM163.93,354.21a5.028,5.028,0,0,1-.324-1.026h-.054a5.024,5.024,0,0,1-.323,1.026l-2.862,7.072h6.1Z"/><path class="cls-1" d="M174.489,369.164H176.7l.109-11.5h-2.618v-1.188h4.075c0,1.3-.108,2.969-.216,4.454h.054c.621-2.375,2.133-4.778,4.643-4.778a7.011,7.011,0,0,1,1.944.3l-.216,1.35a4.062,4.062,0,0,0-1.7-.351c-2.429,0-4.562,3.023-4.616,6.937l-.054,4.778H180.7v1.188h-6.208Z"/><path class="cls-1" d="M194.764,369.974a7.3,7.3,0,0,1-3.186.7c-2.375,0-3.508-1.241-3.508-4.13,0-2.969.027-5.911.053-8.88H185.7v-1.188h2.428l.055-3.617,1.4-.108-.053,3.725h4.615v1.188h-4.615c-.028,2.807-.055,5.587-.055,8.395,0,2.483.54,3.427,2.43,3.427a7.554,7.554,0,0,0,3-.782Z"/><path class="cls-1" d="M207.7,369.622a9.762,9.762,0,0,1-4.427,1.053c-4.508,0-6.8-2.888-6.8-7.5,0-3.833,2.159-7.018,6.1-7.018,4.561,0,5.8,3.752,5.8,7.126H197.979c.053,3.941,1.862,6.1,5.507,6.1a9.072,9.072,0,0,0,4.264-1.161Zm-.836-7.53c0-2.484-1.35-4.643-4.373-4.643a4.493,4.493,0,0,0-4.508,4.643Z"/><path class="cls-1" d="M212.45,366.41l.054,2.349a7.368,7.368,0,0,0,3.374.728c2.673,0,3.617-1.538,3.617-2.78,0-1.187-.567-2-2.375-2.429l-2.376-.567c-2.267-.54-3.671-1.619-3.671-3.671,0-2.294,1.944-3.887,4.833-3.887a10.045,10.045,0,0,1,4.21.864l.054,3.158h-1.3l-.053-2.24a5.824,5.824,0,0,0-2.834-.594c-2.187,0-3.4,1-3.4,2.564,0,1.377.729,2.187,2.349,2.537l2.564.568c2.4.512,3.509,1.592,3.509,3.509,0,2.834-2.105,4.156-5.236,4.156a10.414,10.414,0,0,1-4.535-.917l-.109-3.348Z"/><path class="cls-1" d="M236.747,370.352H233.13a21.5,21.5,0,0,1,.3-3.159h-.054c-.756,2-2,3.482-4.535,3.482-2.43,0-4.4-1.214-4.4-3.86,0-2.564,2.1-3.833,4.993-4.022l3.752-.242c.027-.433.054-.837.054-1.269,0-2.241-.621-3.833-3.617-3.833a10.014,10.014,0,0,0-3.239.539l-.055,2.322h-1.295l.054-3.185a10.406,10.406,0,0,1,4.751-.972c3.725,0,4.75,2.106,4.75,4.427,0,3.266-.081,5.939-.107,8.584h2.267Zm-7.693-.972a3.815,3.815,0,0,0,3.023-1.458c.972-1.241,1.107-2.24,1.107-4.184-4.94.135-7.235.3-7.235,3.05C225.949,368.327,227.083,369.38,229.054,369.38Z"/><path class="cls-1" d="M239.342,369.164h2.078l.055-11.5h-2.43v-1.188h3.86a18.837,18.837,0,0,1-.324,3.32h.054a4.934,4.934,0,0,1,5.075-3.644c2.591,0,4.669,1.188,4.669,5.426,0,2.537-.081,5.047-.107,7.585h2.186v1.188h-5.669v-1.188h2.078c.028-2.511.109-4.994.109-7.5,0-2.834-1.08-4.21-3.59-4.21-2.808,0-4.481,2.51-4.508,5.128l-.054,6.587h2.186v1.188h-5.668Z"/><path class="cls-1" d="M269.74,370.352h-3.617a21.641,21.641,0,0,1,.3-3.159h-.054c-.755,2-2,3.482-4.535,3.482-2.428,0-4.4-1.214-4.4-3.86,0-2.564,2.1-3.833,4.994-4.022l3.752-.242c.026-.433.054-.837.054-1.269,0-2.241-.621-3.833-3.618-3.833a10.031,10.031,0,0,0-3.239.539l-.053,2.322h-1.3l.053-3.185a10.409,10.409,0,0,1,4.751-.972c3.726,0,4.751,2.106,4.751,4.427,0,3.266-.081,5.939-.108,8.584h2.267Zm-7.692-.972a3.818,3.818,0,0,0,3.023-1.458c.971-1.241,1.107-2.24,1.107-4.184-4.94.135-7.234.3-7.234,3.05C258.944,368.327,260.077,369.38,262.048,369.38Z"/><path class="cls-1" d="M272.363,369.164h2.294l.108-18.383h-3.077v-1.187h4.48l-.107,19.57h2.4v1.188h-6.1Z"/><path class="cls-1" d="M158.963,409.932a23.845,23.845,0,0,1-.378-28.343l1.08.675c-1.808,2.375-4.157,5.911-4.157,13.523a20.984,20.984,0,0,0,4.454,13.415Z"/><path class="cls-1" d="M161.448,401.563h2.161l.107-16.519h-2.268v-1.188h5.75c3.023,0,6.721.648,6.721,5.29,0,3.348-2.347,5.7-6.019,5.7h-2.726l-.055,6.72h2.538v1.188h-6.209Zm3.726-8.016h2.807c2.483,0,4.426-1.377,4.426-4.319s-2.105-4.184-4.858-4.184h-2.321Z"/><path class="cls-1" d="M189.2,402.751h-3.617a21.627,21.627,0,0,1,.3-3.158h-.054c-.755,2-2,3.482-4.535,3.482-2.428,0-4.4-1.215-4.4-3.86,0-2.565,2.1-3.833,4.994-4.022l3.752-.243c.026-.431.054-.837.054-1.268,0-2.241-.621-3.833-3.618-3.833a9.968,9.968,0,0,0-3.239.54l-.054,2.321h-1.3l.053-3.186a10.413,10.413,0,0,1,4.751-.971c3.726,0,4.751,2.105,4.751,4.426,0,3.267-.081,5.939-.108,8.584H189.2Zm-7.692-.972a3.81,3.81,0,0,0,3.022-1.457c.972-1.242,1.108-2.241,1.108-4.184-4.941.135-7.234.3-7.234,3.05C178.405,400.727,179.538,401.779,181.509,401.779Z"/><path class="cls-1" d="M191.823,401.563h2.295l.108-18.381h-3.077v-1.188h4.48l-.107,19.569h2.4v1.188h-6.1Z"/><path class="cls-1" d="M211.665,402.022a9.773,9.773,0,0,1-4.426,1.053c-4.508,0-6.8-2.888-6.8-7.5,0-3.833,2.16-7.018,6.1-7.018,4.563,0,5.8,3.752,5.8,7.126H201.947c.055,3.941,1.864,6.1,5.507,6.1a9.081,9.081,0,0,0,4.265-1.16Zm-.837-7.531c0-2.483-1.349-4.642-4.373-4.642a4.494,4.494,0,0,0-4.508,4.642Z"/><path class="cls-1" d="M221.361,401.563h1.808l7.288-17.707h1.512l6.478,17.707h1.971v1.188H234.48v-1.188h2.347l-2.456-6.694h-7.017l-2.673,6.694h2.511v1.188h-5.831ZM231.4,386.609a4.925,4.925,0,0,1-.325-1.025h-.053a5.047,5.047,0,0,1-.325,1.025l-2.861,7.073h6.1Z"/><path class="cls-1" d="M241.854,401.563h2.294l.108-18.381h-3.077v-1.188h4.48l-.108,19.569h2.4v1.188h-6.1Z"/><path class="cls-1" d="M261.7,402.022a9.775,9.775,0,0,1-4.427,1.053c-4.508,0-6.8-2.888-6.8-7.5,0-3.833,2.159-7.018,6.1-7.018,4.561,0,5.8,3.752,5.8,7.126H251.978c.053,3.941,1.862,6.1,5.507,6.1a9.084,9.084,0,0,0,4.264-1.16Zm-.836-7.531c0-2.483-1.35-4.642-4.373-4.642a4.493,4.493,0,0,0-4.508,4.642Z"/><path class="cls-1" d="M264.8,381.589a22.9,22.9,0,0,1,4.858,14.2,22.262,22.262,0,0,1-4.48,14.145l-1.08-.675c1.808-2.321,4.157-5.858,4.157-13.47a21.286,21.286,0,0,0-4.454-13.47Z"/><path class="cls-1" d="M274.522,406.422a4.494,4.494,0,0,0,1.3-2.537c0-1.269-1.188-1.485-1.188-2.268a1.1,1.1,0,0,1,1.215-1.134c.756,0,1.484.756,1.484,2.133a6.352,6.352,0,0,1-2.159,4.454Z"/><path class="cls-1" d="M79.316,416.256h5.911v1.188H82.878L88.547,432.4a5.932,5.932,0,0,1,.27.918h.053a5.938,5.938,0,0,1,.271-.918l5.723-14.953H92.488v-1.188H98.21v1.188H96.374l-6.829,17.707H88.033l-6.774-17.707H79.316Z"/><path class="cls-1" d="M99.133,433.964h2.375l.081-11.5H98.917v-1.189h4.075l-.081,12.688H105.4v1.187H99.133Zm3.05-19.786a1.408,1.408,0,1,1-1.3,1.4A1.307,1.307,0,0,1,102.183,414.178Z"/><path class="cls-1" d="M107.448,433.964h2.079l.054-11.5h-2.429v-1.189h3.859a18.823,18.823,0,0,1-.323,3.321h.053a4.934,4.934,0,0,1,5.076-3.644c2.59,0,4.669,1.188,4.669,5.426,0,2.537-.081,5.047-.108,7.585h2.187v1.187H116.9v-1.187h2.078c.027-2.511.108-4.994.108-7.5,0-2.834-1.08-4.21-3.59-4.21-2.807,0-4.481,2.51-4.507,5.128l-.054,6.587h2.185v1.187h-5.668Z"/><path class="cls-1" d="M131.5,420.953c4.265,0,6.451,3.293,6.451,7.261s-2.186,7.261-6.451,7.261-6.452-3.293-6.452-7.261S127.239,420.953,131.5,420.953Zm0,13.227c3.238,0,4.94-2.457,4.94-5.966s-1.7-5.965-4.94-5.965-4.94,2.456-4.94,5.965S128.265,434.18,131.5,434.18Z"/><path class="cls-1" d="M148.11,433.964h2.16l.107-16.52H148.11v-1.188h12.173v3.779H159.1v-2.591h-7.207L151.835,425h6.559v1.187h-6.559l-.054,7.775h7.477l.216-2.808h1.3l-.216,4H148.11Z"/><path class="cls-1" d="M165.038,431.21l.054,2.349a7.368,7.368,0,0,0,3.374.728c2.673,0,3.617-1.538,3.617-2.78,0-1.188-.567-2-2.375-2.429l-2.376-.567c-2.267-.54-3.671-1.619-3.671-3.671,0-2.294,1.944-3.887,4.832-3.887a10.063,10.063,0,0,1,4.211.863l.054,3.159h-1.3l-.054-2.241a5.831,5.831,0,0,0-2.834-.593c-2.186,0-3.4,1-3.4,2.564,0,1.377.729,2.187,2.349,2.537l2.564.568c2.4.512,3.509,1.591,3.509,3.508,0,2.834-2.106,4.157-5.236,4.157a10.423,10.423,0,0,1-4.536-.917l-.108-3.348Z"/><path class="cls-1" d="M176.216,440.738h2.24l.136-18.273h-2.618v-1.189h4.049a22.273,22.273,0,0,1-.19,2.916l.081-.054a4.919,4.919,0,0,1,4.832-3.185c3.779,0,5.7,2.888,5.7,6.451,0,4.427-2.052,8.071-7.18,8.071a10.1,10.1,0,0,1-3.348-.486l-.053,5.749h2.509v1.189h-6.154Zm8.26-18.489c-2.618,0-4.508,2.051-4.534,5.722l-.028,5.7a8.4,8.4,0,0,0,3.4.62c3.914,0,5.614-2.807,5.614-6.451C188.93,424.731,187.742,422.249,184.476,422.249Z"/><path class="cls-1" d="M196.546,421.276c-.027,2.889-.108,5.8-.108,8.693,0,2.834,1.08,4.211,3.59,4.211,2.835,0,4.426-2.106,4.481-5.723l.107-5.992h-2.483v-1.189h3.888l-.109,12.688h2.16v1.187h-3.537a18.774,18.774,0,0,1,.325-3.32h-.054a5.006,5.006,0,0,1-4.832,3.644c-2.834,0-4.94-1.242-4.94-5.425,0-2.538.081-5.048.108-7.585h-2.375v-1.189Z"/><path class="cls-1" d="M228.834,433.964h2.078c.028-2.511.109-4.994.109-7.5,0-2.834-1.242-4.21-3.617-4.21-2.43,0-4.13,2.429-4.184,4.993l-.108,6.722H225.3v1.187h-5.669v-1.187h2.079c.027-2.511.054-4.994.054-7.5,0-2.834-1.215-4.21-3.509-4.21-2.538,0-4.292,2.429-4.319,4.993l-.054,6.722h2.187v1.187h-5.642v-1.187h2.052l.054-11.5h-2.4v-1.189h3.833a18.838,18.838,0,0,1-.324,3.321h.054a5,5,0,0,1,4.832-3.644,4.1,4.1,0,0,1,4.345,3.293,5.09,5.09,0,0,1,4.886-3.293c2.673,0,4.67,1.4,4.67,5.426,0,2.537-.081,5.047-.108,7.585H234.5v1.187h-5.668Z"/><path class="cls-1" d="M243.445,420.953c4.264,0,6.451,3.293,6.451,7.261s-2.187,7.261-6.451,7.261-6.453-3.293-6.453-7.261S239.179,420.953,243.445,420.953Zm0,13.227c3.238,0,4.939-2.457,4.939-5.966s-1.7-5.965-4.939-5.965-4.941,2.456-4.941,5.965S240.205,434.18,243.445,434.18Z"/><path class="cls-1" d="M253.975,431.21l.055,2.349a7.365,7.365,0,0,0,3.374.728c2.671,0,3.616-1.538,3.616-2.78,0-1.188-.567-2-2.375-2.429l-2.375-.567c-2.268-.54-3.671-1.619-3.671-3.671,0-2.294,1.943-3.887,4.831-3.887a10.063,10.063,0,0,1,4.211.863l.054,3.159h-1.3l-.055-2.241a5.834,5.834,0,0,0-2.834-.593c-2.187,0-3.4,1-3.4,2.564,0,1.377.729,2.187,2.348,2.537l2.565.568c2.4.512,3.508,1.591,3.508,3.508,0,2.834-2.105,4.157-5.236,4.157a10.418,10.418,0,0,1-4.535-.917l-.107-3.348Z"/><path class="cls-1" d="M271.929,420.953c4.265,0,6.451,3.293,6.451,7.261s-2.186,7.261-6.451,7.261-6.452-3.293-6.452-7.261S267.663,420.953,271.929,420.953Zm0,13.227c3.238,0,4.939-2.457,4.939-5.966s-1.7-5.965-4.939-5.965-4.94,2.456-4.94,5.965S268.69,434.18,271.929,434.18Z"/><line class="cls-3" x1="31.285" y1="282.021" x2="565.11" y2="282.021"/><path class="cls-1" d="M517.327,86.776a1.487,1.487,0,0,1-.6-.958,27.168,27.168,0,0,0-1.547-5.4l-.029-.068a1.14,1.14,0,0,0-.75-.8,5.217,5.217,0,0,0-.361-.742c-.073-.131-.147-.262-.213-.4a.3.3,0,0,1-.047-.166.213.213,0,0,1,.081-.09,4.36,4.36,0,0,0,1.323-2.432c.067-.229.135-.459.212-.688a.326.326,0,0,0-.045-.3.2.2,0,0,0-.247-.054,1.063,1.063,0,0,0-.494.581,6.584,6.584,0,0,0-.379,1.01,1.706,1.706,0,0,1-.66,1.026.993.993,0,0,1-.673-.2,1.944,1.944,0,0,0-.027-.5.942.942,0,0,1-.01-.367l.1-.352a8.688,8.688,0,0,1,.805-2.2,11.458,11.458,0,0,1,1.675-2.052l.412-.431a4.919,4.919,0,0,0,.851-1.068.335.335,0,0,0-.023-.36.2.2,0,0,0-.292-.019A28.406,28.406,0,0,0,514.122,72a7.144,7.144,0,0,0-1.838,3.3,2.37,2.37,0,0,1-.071.261,2.33,2.33,0,0,1-.071-.751,3.443,3.443,0,0,0-.7-2.26c-.1-.121-.2-.234-.309-.349a3.784,3.784,0,0,1-.658-.874.207.207,0,0,0-.245-.114.3.3,0,0,0-.18.253,1.558,1.558,0,0,0,.344,1.231l.039.053a3.521,3.521,0,0,1,.585.967,3.124,3.124,0,0,1,.227,1.1,2.409,2.409,0,0,1-.337-.382,7.338,7.338,0,0,1-1.205-2.6,3.946,3.946,0,0,0-.533-1.166.312.312,0,0,0-.348-.158c-.052.012-.313.1-.29.517a1.87,1.87,0,0,0,.072.446c.144.476.292.95.449,1.419a9.1,9.1,0,0,0,.765,1.714,7.211,7.211,0,0,0-2.246.565c-.16.059-.319.118-.479.174-5.2,1.83-10.133,4.121-12.5,5.221-.687.318-1.229.57-1.335.6a3.261,3.261,0,0,0-1.653,1.225l-.215.284a10.93,10.93,0,0,0-1.329,2.077,2.41,2.41,0,0,1-.189.317l-.078.118c-.243.381-.477.643-.827.689a1.539,1.539,0,0,0-.576.255,11.241,11.241,0,0,0-4.114,4.583c-.679,1.322-.679,1.322-2,1.325-.026,0-.054-.007-.084-.011s-.072-.013-.1-.016l-.809-.067a.256.256,0,0,0-.251.223.285.285,0,0,0,.127.326,4.716,4.716,0,0,0,2.393.286l.083,0c-.039.075-.082.147-.126.221a2.365,2.365,0,0,0-.263.541,1.474,1.474,0,0,1-.538.778,5.391,5.391,0,0,0-1.778,2.275c-.773,1.806-1.635,3.75-1.817,4.017a4.856,4.856,0,0,0-.8,2.105,7.055,7.055,0,0,1-.86,1.3,3.707,3.707,0,0,0-.982,2c-.2,1.266-.973,5.893-1.138,6.782a1.8,1.8,0,0,1-.584,1.1c-.126.106-.25.218-.373.329a6.448,6.448,0,0,1-.8.645,6.038,6.038,0,0,0-1.8,2.053,5.179,5.179,0,0,0-.876,4.027.226.226,0,0,1-.067.038,1.408,1.408,0,0,1-1.029-.027c-.6-.186-1.193-.4-1.787-.6l-.817-.287c-.1-.036-.2-.071-.305-.105a.394.394,0,0,0-.5.307.44.44,0,0,0,.2.534c.062.038.127.071.193.105l.094.048a8.537,8.537,0,0,0,1.3.524c.29.1.58.2.863.32a2.841,2.841,0,0,0,1.476.2,2.561,2.561,0,0,1-.766.25,11.946,11.946,0,0,1-2.407.034.251.251,0,0,0-.236.191.311.311,0,0,0,.067.324,1.194,1.194,0,0,0,.753.367,6.226,6.226,0,0,0,2.654-.232c-.091.073-.183.146-.275.216a4.508,4.508,0,0,1-1.385.743,4.188,4.188,0,0,1-1.388.141l-.085-.008a.465.465,0,0,0-.578.306c-.027.081-.043.093-.179.132-.041.011-.081.024-.12.038a10.436,10.436,0,0,0-1.213.582,2.212,2.212,0,0,0-.827.71.359.359,0,0,0-.022.267.3.3,0,0,0,.166.2.371.371,0,0,0,.1.029.2.2,0,0,0,.154-.042,7,7,0,0,1,4.478-1.277,2.186,2.186,0,0,0,1.741-.664c.1-.1.2-.189.3-.28a4.15,4.15,0,0,0,.72-.785c.042-.065.065-.076.065-.076s.018,0,.067.042a1.822,1.822,0,0,0,.715.354l.068.022a6.132,6.132,0,0,0,3.978-.37,10.143,10.143,0,0,0,2.5-1.436,1.593,1.593,0,0,1,.657-.29l.46-.084c.351-.064.7-.128,1.047-.207a4.29,4.29,0,0,1,1.094-.107l.356.014a10.355,10.355,0,0,0,2.6-.128.512.512,0,0,1,.3.027,2.18,2.18,0,0,0,1.4-.014,28.436,28.436,0,0,0,3.294-1.194l.467-.19a4.511,4.511,0,0,0,.823-.427c.275-.183.552-.36.83-.538.627-.4,1.276-.818,1.893-1.3.457-.355.941-.685,1.409-1,.3-.2.6-.41.9-.623.107-.076.607-.323,1.091-.561a9.035,9.035,0,0,0,2.446-1.4,1.627,1.627,0,0,0,.095-.176.715.715,0,0,1,.07-.127,5.845,5.845,0,0,0,.717-.769,6.708,6.708,0,0,1,.5-.561,3.422,3.422,0,0,0,.8-1.317c.076-.208.146-.419.215-.629.045-.136.09-.272.137-.406.069-.2.469-.756.715-.807.039-.007.059,0,.108.08a3.217,3.217,0,0,0,.9,1.071.193.193,0,0,0,.227-.009.326.326,0,0,0,.121-.246.73.73,0,0,0-.258-.605,4.218,4.218,0,0,1-.443-.671l-.127-.219a.243.243,0,0,1-.041-.1.232.232,0,0,1,.077-.09,20.9,20.9,0,0,0,1.966-1.988c.485-.549,4.888-5.669,5.344-6.693a27.318,27.318,0,0,1,1.637-3.182,7.2,7.2,0,0,0,.658-1.359,19.133,19.133,0,0,0,.848-3.081,12.051,12.051,0,0,0,.1-3.3,9.585,9.585,0,0,1,.259-3.8,1.606,1.606,0,0,0,.072-.562c-.006-.123-.01-.247-.015-.371-.007-.2-.013-.407-.032-.615a17.128,17.128,0,0,1,.579,2.359,4.414,4.414,0,0,0,.144.659c.23.689.613,1.049,1.181,1.058a.254.254,0,0,0,.234-.207A.307.307,0,0,0,517.327,86.776Zm-43.14,33.72a.948.948,0,0,1,.2-1.884A.948.948,0,0,1,474.187,120.5Zm4.912-1.383a.948.948,0,0,1,.2-1.885A.948.948,0,0,1,479.1,119.113Zm.5-4.712a.948.948,0,0,1,.2-1.884A.948.948,0,0,1,479.6,114.4Zm3.188-12.049a.948.948,0,0,1,.2-1.885A.948.948,0,0,1,482.788,102.352Zm2.125,6.9a.948.948,0,0,1-.2,1.884A.948.948,0,0,1,484.913,109.249Zm.04,8.581a.948.948,0,0,1,.2-1.885A.948.948,0,0,1,484.953,117.83Zm7-3.068a.948.948,0,0,1,.2-1.884A.948.948,0,0,1,491.95,114.762Z"/><path class="cls-2" d="M363.773,326.426H326.951a.729.729,0,0,0-.729.729v.624a1.076,1.076,0,0,0,.316.763l1.124,1.124.4,2.728a.6.6,0,0,0,.593.512h.083v2.16a.6.6,0,0,0,.6.6v3.12a.6.6,0,0,0,.6.6h.24l1.662,20.66a.6.6,0,0,0,.174.376l.5.5.413,8.92a.6.6,0,0,0,.075.263l.532.957v2.2a.6.6,0,0,0,.12.36l.6.8h22.2l.6-.8a.6.6,0,0,0,.12-.36v-2.2l.531-.957a.6.6,0,0,0,.075-.263l.414-8.92.5-.5a.6.6,0,0,0,.173-.376l1.663-20.66h.24a.6.6,0,0,0,.6-.6v-3.12a.6.6,0,0,0,.6-.6v-2.16h.082a.6.6,0,0,0,.594-.512l.4-2.728,1.123-1.124a1.077,1.077,0,0,0,.317-.763v-.624A.73.73,0,0,0,363.773,326.426Z"/><path class="cls-2" d="M410.278,323.4a3.111,3.111,0,0,0-3.058-2.544H393.074l-.11-17.3a3.229,3.229,0,0,0-3.225-3.2h-.02a3.205,3.205,0,0,0-2.874,1.8l-3.761,16.008,1.947.455,3.655-15.667a1.219,1.219,0,0,1,1.045-.6h.008a1.228,1.228,0,0,1,1.225,1.218l.11,17.282h-4.139a3.111,3.111,0,0,0-3.1,2.881l-.469,4.237a.5.5,0,0,0,.975.2l.293-1.171.272,44a3.439,3.439,0,0,0,3.44,3.419H406.1a3.436,3.436,0,0,0,3.441-3.41c.081-10.874.3-44.013-.026-44.013l.413,1.344a.5.5,0,0,0,.939-.314Z"/><g id="_6cL8vP" data-name="6cL8vP" class="cls-4"><path class="cls-1" d="M453.673,297.535c.62.047.895.292,1.037.952,1.324,6.141,2.84,12.25,3.241,18.548a49.609,49.609,0,0,1,.047,6.347c-.3,4.6-2.633,8.24-5.726,11.479a20.408,20.408,0,0,1-5.833,4.062c-1.252.621-1.474,2.791-1.474,2.791v23.124a4.547,4.547,0,0,0,3.906,3.19c1.867.224,3.731.482,5.586.793a7.079,7.079,0,0,1,1.9.65c1.181.577,1.287,1.438.166,2.1a14.885,14.885,0,0,1-3.662,1.626,33.434,33.434,0,0,1-19.754-.534,6.278,6.278,0,0,1-1.721-.816c-.45-.334-1.053-.894-1.025-1.318s.69-.991,1.187-1.16a26.106,26.106,0,0,1,3.8-.926c1.421-.251,3.135-.34,4.56-.574,2.268-.373,2.861-3.027,2.861-3.027V341.714s-.4-2.341-1.833-3.046a18.635,18.635,0,0,1-11.464-18.79,91.512,91.512,0,0,1,2.651-18.127c.251-1.113.52-2.224.727-3.346a.881.881,0,0,1,.91-.852C437.106,297.3,450.391,297.287,453.673,297.535Z"/></g><path class="cls-1" d="M495.527,324.628a4.543,4.543,0,0,1-1.289-1.757v-2.578a32.659,32.659,0,0,0,0-5.859c-.352-3.515-1.758-13.365-2.109-15.709.7-1.054,1.289-.226,1.289-1.046v-1.524a2.9,2.9,0,0,0-2.93-2.929H484.4a2.9,2.9,0,0,0-2.929,2.929v1.524c0,.82.586.109,1.289,1.046-.352,2.226-1.758,12.194-2.109,15.709a32.566,32.566,0,0,0,0,5.859c0,1.054.117,2.343.117,2.578a3.967,3.967,0,0,1-1.289,1.64,7.57,7.57,0,0,0-2.812,6.444v37.378a6.051,6.051,0,0,0,6.093,6.093h9.608a6.051,6.051,0,0,0,6.093-6.093V330.955A8.241,8.241,0,0,0,495.527,324.628Z"/><path class="cls-2" d="M549.787,346.289c0-6.194-.057-11.563.026-17.756.037-2.741-.085-2.774-2.254-4.911a3.864,3.864,0,0,1-1.143-2.807c.083-1.225-.856-1.824-2.154-1.817-.27,0-1.728,0-3.649,0l1.722-1.023a1,1,0,0,0-1.021-1.721L536.7,319c-3.322,0-6.694-.011-7.711-.028-.016,0-.031.016-.045.036-.84,0-1.68,0-2.519-.01-1.3-.007-2.237.592-2.154,1.817a3.864,3.864,0,0,1-1.143,2.807c-2.169,2.137-2.292,2.17-2.255,4.911.083,6.193.026,11.562.026,17.756,0,6.606.109,13.216-.071,19.819-.049,1.789.527,3.238,1.853,3.717,1.919.692,2.561.5,3.124,2.023a2.443,2.443,0,0,0,2.767,1.722c.383,0,13.164,0,13.547,0a2.443,2.443,0,0,0,2.767-1.722c.563-1.518,1.205-1.331,3.124-2.023,1.326-.479,1.9-1.928,1.854-3.717C549.679,359.505,549.787,352.9,549.787,346.289Z"/><g class="cls-4"><path class="cls-1" d="M554.127,71.327a3.864,3.864,0,0,1,1.36,2.622c.266,1.234.39,1.275.708,1.211a5.88,5.88,0,0,0,1.82-.819,3.92,3.92,0,0,1,2.5-.8c-.279-2.542-6.279-2.41-6.279-2.41-.048.058-.083.126-.127.187C554.116,71.323,554.122,71.323,554.127,71.327Z"/><path class="cls-1" d="M558.419,85.564c-2.612-1.379.049-7.742,1.63-10.379a3.976,3.976,0,0,0,.315-.648,3.169,3.169,0,0,0-1.836.663,6.758,6.758,0,0,1-2.135.94c-1.4.281-1.678-1.026-1.883-1.98a3.233,3.233,0,0,0-.866-1.932c-.965,2.714.185,7.274-.351,9.782-2.321,10.877-7.186,38.645-50.44,47.931,0,0-3.4,4.676,1.047,5.2,6.793.8,31.054,7.646,50-10.861C569.352,109.178,568.693,90.986,558.419,85.564Zm-2.785,18.452a44.073,44.073,0,0,1-12.49,16.687,49.057,49.057,0,0,1-21.709,10.07,46.771,46.771,0,0,1-9.34,1.016.5.5,0,1,1,.028-1c.169,0,16.969.336,30.38-10.855,12.571-10.489,15.6-23.972,13.638-27.96a.5.5,0,0,1,.9-.442C558.287,94.066,557.748,98.849,555.634,104.016Z"/></g><path class="cls-2" d="M433.851,99.445c.6-.942,1.25-1.835,1.919-2.7-.567-.629-1.116-1.274-1.668-1.916l-1.561,1.745c-4.057,4.539-8.168,9.029-12.277,13.521.59.857,1.161,1.73,1.733,2.6,1.365-1.006,2.7-2.048,3.974-3.194C429.229,106.558,431.5,103.115,433.851,99.445Z"/><path class="cls-2" d="M413.153,127.3a128.125,128.125,0,0,0,12.279-8.3l-.238-.294c-.616-.758-1.193-1.563-1.761-2.382-3.891,3.072-7.828,6.089-11.735,9.142Q412.409,126.4,413.153,127.3Z"/><path class="cls-2" d="M464.69,70.762a58.863,58.863,0,0,0-6.743,6.317c-2.11,2.183-4.3,4.245-6.59,6.223.669.506,1.339,1.011,2.02,1.5C457.115,80.1,460.932,75.453,464.69,70.762Z"/><path class="cls-2" d="M439.745,100.906c-.469-.467-.945-.926-1.4-1.4-.648-.671-1.276-1.361-1.906-2.048-1.216,1.674-2.341,3.419-3.487,5.2-2.865,4.45-6.543,7.662-10.5,10.712q.555.837,1.133,1.653c4.564-3.621,9.051-7.335,13.317-11.311C437.871,102.8,438.815,101.857,439.745,100.906Z"/><path class="cls-2" d="M444.709,79.476a17.207,17.207,0,0,1-2.875,2.731c-1.223.872-2.76,1.212-3.892,2.2-2.185,1.9-3.074,4.876-5.152,6.882-.08.077-.172.139-.255.212.057.071.112.143.169.213.46.568.942,1.117,1.413,1.675,3.916-4.378,7.93-8.773,12.186-12.9-.477-.4-.948-.81-1.417-1.22C444.826,79.338,444.769,79.407,444.709,79.476Z"/><path class="cls-2" d="M452.3,71.645c-2.8,1.886-4.682,4.4-6.793,6.9q.739.647,1.489,1.279a89.462,89.462,0,0,1,16.474-12.756A27.749,27.749,0,0,0,452.3,71.645Z"/><path class="cls-2" d="M434.735,94.118q.813.945,1.645,1.869c3.865-4.777,8.629-8.572,13.4-12.562l.08-.069q-1.428-1.1-2.817-2.258C442.746,85.255,438.7,89.694,434.735,94.118Z"/><path class="cls-2" d="M449.271,85.068c-2.989,2.462-6.039,4.866-8.792,7.6a37.1,37.1,0,0,0-3.464,4.017c.467.509.922,1.029,1.4,1.529.651.685,1.322,1.348,1.99,2.015,4.433-4.624,8.395-9.643,12.38-14.681-.731-.527-1.45-1.07-2.167-1.615C450.169,84.31,449.725,84.694,449.271,85.068Z"/><path class="cls-2" d="M407.6,121.018c-.028-.043-.058-.085-.087-.128-.1.23-4.246,6.4-4.343,6.616C403.3,127.326,407.471,121.2,407.6,121.018Z"/><path class="cls-2" d="M412.174,127.606c-.413-.509-.81-1.038-1.2-1.577q-3.941,3.087-7.793,6.279l.385-.1a76.476,76.476,0,0,0,8.758-4.418Z"/><path class="cls-2" d="M465.68,66.894a85.685,85.685,0,0,0-17.952,13.539q1.416,1.17,2.868,2.291c5.65-4.918,9.552-10.271,15.949-14.432,0,0,.555-.833.4-.926.281-.066.584-.128.925-.226a3.089,3.089,0,0,0,2.189-2.408,6.44,6.44,0,0,1-2.47,1.5,4.729,4.729,0,0,0-1.512.629A.669.669,0,0,0,465.68,66.894Z"/><path class="cls-2" d="M418.177,108.778c-3.1,4.172-6.459,8.145-9.508,12.349l.122.185q5.126-5.709,10.316-11.358C418.808,109.551,418.492,109.165,418.177,108.778Z"/><path class="cls-2" d="M408.156,121.855c-.2.285-4.979,6.387-5.178,6.674.225-.251,5.02-6.324,5.244-6.575C408.2,121.921,408.178,121.888,408.156,121.855Z"/><path class="cls-2" d="M429.3,93.7a17.489,17.489,0,0,0-4.27,4.429c-1.748,2.593-3.148,5.4-4.931,7.977-.446.645-.908,1.277-1.37,1.91q.5.63.974,1.285c4.244-4.638,8.489-9.277,12.674-13.969l1.1-1.23c-.143-.171-.294-.335-.437-.506-.406-.487-.8-1.013-1.2-1.543C431.016,92.634,430.118,93.11,429.3,93.7Z"/><path class="cls-2" d="M408.763,122.77q-3,3.353-5.96,6.742a63.91,63.91,0,0,0,6.438-6.017Z"/><path class="cls-2" d="M418.117,107.272c.71-.981,1.406-1.972,2.074-2.984,1.649-2.5,2.929-5.263,4.745-7.649a18.016,18.016,0,0,1,3.265-3.293c.978-.763,2.057-1.352,3.041-2.068a16.791,16.791,0,0,0-1.29-1.478c-.165.214-.347.442-.567.7-2.22,2.6-4.93,1.318-6.21,4.028s-5.719,7.9-6.057,10.727a2.115,2.115,0,0,1-.22.717Q417.535,106.6,418.117,107.272Z"/><path class="cls-2" d="M400.371,131.087l.069-.007c.4-.223.8-.463,1.2-.734a.543.543,0,0,1-.228-.243c-.373.011-.747.015-1.119.04a16.584,16.584,0,0,0-4.152.81A16.711,16.711,0,0,0,400.371,131.087Z"/><path class="cls-2" d="M408.118,120.287c3.045-4.158,6.374-8.106,9.434-12.254q-.606-.695-1.261-1.336a7.9,7.9,0,0,0-2.447,1.982c-2.333,3.538-5.177,9.085-5.177,9.085-.263.8-.52,1.521-.775,2.184Z"/><path class="cls-2" d="M415.967,117.063c1.761-1.34,3.577-2.588,5.361-3.881q-.813-1.233-1.661-2.436-5.19,5.672-10.336,11.382c.167.253.333.506.5.756A61.8,61.8,0,0,1,415.967,117.063Z"/><path class="cls-2" d="M470.973,72.025l-.062-.035a3.883,3.883,0,0,0-1.132-2.256l-.29-.249q.984.468,1.988.884l1.267.485a3.324,3.324,0,0,0,1.49.225,4.375,4.375,0,0,0,2.466-1.36,7.1,7.1,0,0,1-2.5.621,3.135,3.135,0,0,1-1.135-.322l-1.238-.526a34.566,34.566,0,0,0-3.349-1.144c.641,2.112-.223,4.451-1.078,6.424a38.456,38.456,0,0,1-5.612,9.018c-1.192,1.454-2.467,2.827-3.788,4.154.521.335,1.047.661,1.574.989,2.373-1.668,5.611-3.855,7.022-5.622,1.363-1.707,4.369-6.609,4.38-10.345a5.906,5.906,0,0,0,1.006.617,4.068,4.068,0,0,0,1.734.386,2.366,2.366,0,0,0,1.643-.618,5.669,5.669,0,0,1-2.987-.631C471.907,72.519,471.449,72.268,470.973,72.025Z"/><path class="cls-2" d="M431.932,90.73a7.491,7.491,0,0,0,.927-.932c1.8-2.2,2.83-5.23,5.349-6.771,1.363-.833,2.775-1.254,4-2.334a19.8,19.8,0,0,0,1.971-2.051c-.595-.528-1.181-1.066-1.766-1.6a23.6,23.6,0,0,1-2.517,3.389c-3.025,3.336-3.477,1.134-6.355,4.249a18.146,18.146,0,0,0-3.049,4.365A21.34,21.34,0,0,1,431.932,90.73Z"/><path class="cls-2" d="M457.312,88.625c-4.022,3.942-8.444,7.489-12.486,11.406-.771.746-1.515,1.519-2.243,2.306,1.119,1.056,2.264,2.081,3.423,3.093,2.056-2.43,5.665-5.341,7.444-7.948,1.881-2.757,2.219-5.58,4.327-7.236.277-.218.6-.46.964-.719C458.264,89.228,457.785,88.931,457.312,88.625Z"/><path class="cls-2" d="M441.947,103.047c-4.529,5.019-8.467,10.6-13.7,14.927-.472.391-.96.785-1.458,1.18.42.5.871.965,1.3,1.45,2.5-1.2,3.638-1.512,7.7-6.269,4.256-4.978,7.583-5.906,9.588-8.182C444.224,105.137,443.072,104.107,441.947,103.047Z"/><path class="cls-2" d="M401.551,132.43c2.913-2.448,5.888-4.823,8.886-7.171-.224-.323-.45-.644-.67-.972-2.924,3.009-9.13,7.965-9.215,8.093a7.06,7.06,0,0,0-2.9.466,6.518,6.518,0,0,0-3.041,2.272c1.2-.472,2.26-.971,3.38-1.388.716-.283,1.447-.532,2.193-.787l-.017.026s.116-.02.324-.06a28.65,28.65,0,0,0-2.176,4.3A52.142,52.142,0,0,0,401.551,132.43Z"/><path class="cls-2" d="M412.941,128.554c-1.114.642-2.228,1.245-3.337,1.827,1.181-.419,2.411-.893,3.658-1.431Z"/><path class="cls-2" d="M426.037,119.747a116.55,116.55,0,0,1-12.256,8.317c.136.16.284.309.421.468,1.313-.6,2.631-1.26,3.912-2,4.655-2.691,6.135-3.959,9.019-5.447C426.758,120.635,426.392,120.187,426.037,119.747Z"/><path class="cls-2" d="M411.133,124.718c3.918-3.06,7.866-6.086,11.767-9.168q-.561-.832-1.116-1.679c-1.738,1.322-3.524,2.625-5.316,4a62.513,62.513,0,0,0-6.094,5.793c.179.256.354.515.537.766C410.984,124.525,411.06,124.62,411.133,124.718Z"/><path class="cls-2" d="M441.226,102.376c-.274-.262-.54-.534-.811-.8-.924.945-1.862,1.878-2.833,2.783-4.31,4.016-8.845,7.765-13.458,11.421q1,1.347,2.062,2.639c.078-.062.161-.124.239-.185C432.2,113.724,436.316,107.713,441.226,102.376Z"/><path class="cls-2" d="M444.788,77.913c.32-.392.637-.787.954-1.179,4.7-5.816,11.1-9.872,18.609-10.733-.121-.054-.239-.109-.366-.164a9.59,9.59,0,0,0-1.208-1.489,11.84,11.84,0,0,0-1.825-1.5,9.771,9.771,0,0,0-2.132-1.072,5.52,5.52,0,0,0-2.364-.316,21.272,21.272,0,0,1,3.972,2.176c.633.406,1.242.854,1.874,1.282q.415.291.84.578a14.366,14.366,0,0,0-6.084-1.1c-4.817.377-7.263,4.856-10.424,7.34a15.658,15.658,0,0,0-3.708,4.49C443.543,76.79,444.161,77.356,444.788,77.913Z"/><path class="cls-2" d="M458.1,86.491a44.134,44.134,0,0,0,6.766-8.8c1.327-2.339,3.636-6.179,2.721-9.052-4.43,5.61-8.99,11.114-13.437,16.709q1.5,1.058,3.028,2.066C457.487,87.105,457.8,86.8,458.1,86.491Z"/><path class="cls-2" d="M442.523,100.985c4.426-4.541,9.435-8.463,13.971-12.887q-1.487-.98-2.936-2.01c-.026.034-.053.067-.08.1-4,5.049-7.965,10.08-12.409,14.712.267.262.54.517.81.776C442.1,101.447,442.3,101.211,442.523,100.985Z"/><path class="cls-1" d="M31.93,241.164h2.159l.108-16.519H31.93v-1.189h5.992c2.375,0,3.779.405,4.777,1.431a4.552,4.552,0,0,1,1.243,3.1,4.175,4.175,0,0,1-3.509,4.346v.054a4.653,4.653,0,0,1,4.805,4.778c0,3.374-2.484,5.183-6.722,5.183H31.93Zm6.4,0c2.564,0,5.4-.648,5.4-4.022,0-2.808-2.376-3.941-5.075-3.941h-3l-.054,7.963Zm-.432-9.151c2.214,0,4.535-1.134,4.535-3.887a3.144,3.144,0,0,0-1.619-3.023,5.376,5.376,0,0,0-2.565-.458H35.708l-.053,7.368Z"/><path class="cls-1" d="M54.823,228.153c4.265,0,6.452,3.293,6.452,7.261s-2.187,7.261-6.452,7.261-6.451-3.293-6.451-7.261S50.559,228.153,54.823,228.153Zm0,13.227c3.24,0,4.94-2.457,4.94-5.966s-1.7-5.965-4.94-5.965-4.939,2.456-4.939,5.965S51.584,241.38,54.823,241.38Z"/><path class="cls-1" d="M63.789,241.164h2.294l.109-18.383H63.114v-1.187H67.6l-.108,19.57h2.4v1.188h-6.1Z"/><path class="cls-1" d="M73.886,238.41l.055,2.349a7.365,7.365,0,0,0,3.374.728c2.672,0,3.616-1.538,3.616-2.78,0-1.187-.567-2-2.375-2.429l-2.375-.567c-2.268-.54-3.671-1.619-3.671-3.671,0-2.294,1.943-3.887,4.831-3.887a10.043,10.043,0,0,1,4.211.864l.054,3.158H80.311l-.055-2.24a5.821,5.821,0,0,0-2.834-.594c-2.186,0-3.4,1-3.4,2.564,0,1.377.729,2.187,2.348,2.537l2.565.568c2.4.512,3.509,1.592,3.509,3.509,0,2.834-2.106,4.156-5.237,4.156a10.421,10.421,0,0,1-4.535-.917l-.107-3.348Z"/><path class="cls-1" d="M98.183,242.352H94.566a21.5,21.5,0,0,1,.3-3.159h-.054c-.756,2-2,3.482-4.535,3.482-2.429,0-4.4-1.214-4.4-3.86,0-2.564,2.106-3.833,4.994-4.022l3.752-.242c.027-.433.054-.837.054-1.269,0-2.241-.621-3.833-3.617-3.833a10.025,10.025,0,0,0-3.239.539l-.054,2.322h-1.3l.054-3.185a10.406,10.406,0,0,1,4.751-.972c3.725,0,4.751,2.106,4.751,4.427,0,3.266-.081,5.939-.109,8.584h2.268Zm-7.693-.972a3.818,3.818,0,0,0,3.023-1.458c.972-1.241,1.107-2.24,1.107-4.184-4.94.135-7.234.3-7.234,3.05C87.386,240.327,88.52,241.38,90.49,241.38Z"/><path class="cls-1" d="M120.4,221.594l-.108,19.57h2.375v1.188h-3.833c0-.675.108-1.917.216-2.862H119a4.676,4.676,0,0,1-4.886,3.185c-2.267,0-5.506-1.457-5.506-6.883,0-4.427,2.591-7.639,6.937-7.639a9.934,9.934,0,0,1,3.428.675l.054-6.047h-3.078v-1.187Zm-1.431,8.53a8.765,8.765,0,0,0-3.347-.675c-3.86,0-5.507,2.672-5.507,6.343,0,2.942,1.134,5.588,4.373,5.588,2.726,0,4.427-2.214,4.454-6.02Z"/><path class="cls-1" d="M136.117,241.622a9.757,9.757,0,0,1-4.426,1.053c-4.508,0-6.8-2.888-6.8-7.5,0-3.833,2.16-7.018,6.1-7.018,4.562,0,5.8,3.752,5.8,7.126H126.4c.054,3.941,1.863,6.1,5.506,6.1a9.07,9.07,0,0,0,4.265-1.161Zm-.836-7.53c0-2.484-1.35-4.643-4.374-4.643a4.494,4.494,0,0,0-4.507,4.643Z"/><path class="cls-1" d="M149.484,241.164h3.86L153.452,225a3.824,3.824,0,0,1-.648.513l-4.372,2.807-.73-1.08,5.966-3.779h1.188l-.109,17.708h4.023v1.188h-9.286Z"/><path class="cls-1" d="M167.492,241.164h2.214l.054-4.725h-8.395v-1.052l8.449-11.931h1.4l-.055,11.8h3.78v1.187h-3.78l-.053,4.725h2.4v1.188h-6.02Zm2.322-13.551c0-.783.053-1.539.081-2.321h-.054a14.641,14.641,0,0,1-1.134,1.835l-5.83,8.18c.432-.028,1.16-.055,2.159-.055h4.724Z"/><path class="cls-1" d="M183.558,223.187c3.671,0,5.857,3.995,5.857,9.339,0,4.7-1.944,10.095-6.4,10.095-4.535,0-6.182-4.967-6.182-9.42C176.836,228.369,178.914,223.187,183.558,223.187Zm-.459,18.138c2.7,0,4.805-3.346,4.805-8.745,0-4.913-1.863-8.1-4.536-8.1-3.1,0-5.02,3.482-5.02,8.638C178.348,237.492,179.886,241.325,183.1,241.325Z"/><path class="cls-1" d="M205.048,229.772H203.78c-.73,0-1.54-.107-2.241-.134l-.054.053a4.248,4.248,0,0,1,1.646,3.618,4.9,4.9,0,0,1-5.155,5.047c-2.24,0-3.293.784-3.293,1.539,0,.729.837,1.052,2.267,1.295l4.481.81c1.7.3,3.347.811,3.347,3.132,0,1.916-1.566,4.318-6.64,4.318-3.59,0-6.37-1.241-6.37-3.752,0-1.754,1.754-3.239,3.7-3.481v-.055c-.917-.216-2.185-.728-2.185-2.078,0-1.4,1.376-1.943,2.482-2.078v-.055a4.464,4.464,0,0,1-3.535-4.589,5.09,5.09,0,0,1,5.371-5.209,5.493,5.493,0,0,1,2.349.432h5.1ZM196.9,242.514c-1.214.215-3.725,1.052-3.725,3.022,0,1.323,1.728,2.727,5.048,2.727,2.483,0,5.155-.837,5.155-3.024,0-1.43-1-1.781-2.537-2.132Zm.864-5.345a3.678,3.678,0,0,0,3.968-3.887,3.8,3.8,0,0,0-4.13-3.833,3.713,3.713,0,0,0-3.968,3.806A3.81,3.81,0,0,0,197.76,237.169Z"/><path class="cls-1" d="M218.2,228.477v1.188h-1.97l3.752,10.23a6.768,6.768,0,0,1,.3,1.026h.053a5.107,5.107,0,0,1,.243-.972l3.59-10.284h-2.079v-1.188h5.156v1.188h-1.673l-4.832,13.523c-1.511,4.238-3.1,6.262-6.343,6.262a6.49,6.49,0,0,1-1.62-.216v-1.322a9.372,9.372,0,0,0,1.7.242c1.943,0,3.184-.944,4.021-2.941l1.053-2.511-4.967-13.037h-1.808v-1.188Z"/><path class="cls-1" d="M242.039,241.164h2.214l.054-4.725h-8.395v-1.052l8.449-11.931h1.4l-.055,11.8h3.779v1.187H245.71l-.054,4.725h2.4v1.188h-6.02Zm2.322-13.551c0-.783.053-1.539.081-2.321h-.054a14.641,14.641,0,0,1-1.134,1.835l-5.83,8.18c.432-.028,1.16-.055,2.159-.055h4.724Z"/><path class="cls-1" d="M258.105,223.187c3.671,0,5.857,3.995,5.857,9.339,0,4.7-1.944,10.095-6.4,10.095-4.535,0-6.182-4.967-6.182-9.42C251.383,228.369,253.461,223.187,258.105,223.187Zm-.459,18.138c2.7,0,4.8-3.346,4.8-8.745,0-4.913-1.862-8.1-4.535-8.1-3.1,0-5.02,3.482-5.02,8.638C252.9,237.492,254.433,241.325,257.646,241.325Z"/><path class="cls-1" d="M279.6,229.772h-1.269c-.729,0-1.539-.107-2.24-.134l-.055.053a4.246,4.246,0,0,1,1.647,3.618,4.9,4.9,0,0,1-5.155,5.047c-2.241,0-3.293.784-3.293,1.539,0,.729.837,1.052,2.267,1.295l4.481.81c1.7.3,3.346.811,3.346,3.132,0,1.916-1.565,4.318-6.639,4.318-3.59,0-6.37-1.241-6.37-3.752,0-1.754,1.754-3.239,3.7-3.481v-.055c-.917-.216-2.186-.728-2.186-2.078,0-1.4,1.376-1.943,2.483-2.078v-.055a4.464,4.464,0,0,1-3.535-4.589,5.09,5.09,0,0,1,5.371-5.209,5.485,5.485,0,0,1,2.348.432h5.1Zm-8.152,12.742c-1.214.215-3.725,1.052-3.725,3.022,0,1.323,1.728,2.727,5.048,2.727,2.483,0,5.155-.837,5.155-3.024,0-1.43-1-1.781-2.537-2.132Zm.864-5.345a3.678,3.678,0,0,0,3.968-3.887,3.8,3.8,0,0,0-4.13-3.833,3.713,3.713,0,0,0-3.968,3.806A3.81,3.81,0,0,0,272.307,237.169Z"/></svg>