<svg id="Layer_1" data-name="Layer 1" xmlns="http://www.w3.org/2000/svg" viewBox="0 0 600 500"><defs><style>.cls-1,.cls-2{fill:#fff;}.cls-2,.cls-4{opacity:0.4;}.cls-3{fill:none;stroke:#fff;stroke-miterlimit:10;}</style></defs><title>tabla-yot-productos-sintexto</title><path class="cls-1" d="M346.274,42.3c-2.374-2.772-6.73-7.075-4.75-10.638.394-.4.791-.792.394-1.188a.605.605,0,0,0-.452-.18c-.94,0-2.5,1.617-3.506,2.952-2.559,3.518-3.437,9.135-3.367,12.182h0c.144,2.886,1.252,5.158,1.555,6.866h0c.495,2.891.255,4.1-1.382,5.732a3.515,3.515,0,0,1-2.278.7,3.009,3.009,0,0,1-2.049-.751c-1.584-1.584,0-3.959.792-4.752a.365.365,0,0,0,0-.4c-.052-.093-.181-.108-.3-.108a3.288,3.288,0,0,0-1.678.9c-5.544,5.94-4.752,14.651-.4,19.007a9.036,9.036,0,0,0,6.119,2.883,3.615,3.615,0,0,0,2.593-.9c.792-.792,0-1.188-.4-1.584a3.479,3.479,0,0,1,.4-4.356c1.583-1.98,5.186-3.934,6.334-5.544a11.878,11.878,0,0,0,1.981-4.355c.028.042.129.185.144.207a10.313,10.313,0,0,1,2.468,5.666,8.5,8.5,0,0,1-2.612,6.8c-2.375,2.376-5.147,2.376-3.564,3.96a3.464,3.464,0,0,0,1.992.482c2.6,0,7.695-2.073,10.814-5.841a12.721,12.721,0,0,0,2.636-6.915C357.757,53.438,354.2,51.4,346.274,42.3Z"/><path class="cls-1" d="M393.01,42.3c-2.375-2.772-6.731-7.075-4.75-10.638.394-.4.791-.792.394-1.188a.609.609,0,0,0-.453-.18c-.94,0-2.5,1.617-3.506,2.952-2.558,3.518-3.436,9.135-3.367,12.182h0c.145,2.886,1.252,5.158,1.555,6.866h0c.5,2.891.256,4.1-1.381,5.732a3.516,3.516,0,0,1-2.278.7,3.012,3.012,0,0,1-2.05-.751c-1.584-1.584,0-3.959.792-4.752a.363.363,0,0,0,0-.4c-.051-.093-.18-.108-.3-.108a3.292,3.292,0,0,0-1.678.9c-5.543,5.94-4.752,14.651-.4,19.007a9.036,9.036,0,0,0,6.119,2.883,3.613,3.613,0,0,0,2.593-.9c.792-.792,0-1.188-.4-1.584a3.479,3.479,0,0,1,.4-4.356c1.583-1.98,5.186-3.934,6.335-5.544a11.864,11.864,0,0,0,1.98-4.355c.028.042.129.185.144.207a10.3,10.3,0,0,1,2.468,5.666,8.5,8.5,0,0,1-2.612,6.8c-2.375,2.376-5.147,2.376-3.564,3.96a3.466,3.466,0,0,0,1.992.482c2.6,0,7.7-2.073,10.815-5.841a12.719,12.719,0,0,0,2.635-6.915C404.493,53.438,400.931,51.4,393.01,42.3Z"/><path class="cls-1" d="M439.746,42.3c-2.375-2.772-6.731-7.075-4.75-10.638.394-.4.79-.792.394-1.188a.609.609,0,0,0-.453-.18c-.94,0-2.5,1.617-3.506,2.952-2.559,3.518-3.437,9.135-3.367,12.182h0c.144,2.886,1.252,5.158,1.555,6.866h0c.495,2.891.255,4.1-1.382,5.732a3.515,3.515,0,0,1-2.278.7,3.011,3.011,0,0,1-2.049-.751c-1.584-1.584,0-3.959.792-4.752a.365.365,0,0,0,0-.4c-.051-.093-.181-.108-.3-.108a3.288,3.288,0,0,0-1.678.9c-5.544,5.94-4.752,14.651-.4,19.007a9.036,9.036,0,0,0,6.119,2.883,3.613,3.613,0,0,0,2.593-.9c.792-.792,0-1.188-.4-1.584a3.479,3.479,0,0,1,.4-4.356c1.583-1.98,5.186-3.934,6.334-5.544a11.857,11.857,0,0,0,1.981-4.355c.028.042.129.185.144.207a10.313,10.313,0,0,1,2.468,5.666,8.5,8.5,0,0,1-2.612,6.8c-2.375,2.376-5.147,2.376-3.564,3.96a3.464,3.464,0,0,0,1.992.482c2.6,0,7.695-2.073,10.814-5.841a12.721,12.721,0,0,0,2.636-6.915C451.228,53.438,447.666,51.4,439.746,42.3Z"/><path class="cls-2" d="M486.481,42.3c-2.375-2.772-6.731-7.075-4.75-10.638.394-.4.791-.792.394-1.188a.608.608,0,0,0-.452-.18c-.94,0-2.5,1.617-3.507,2.952-2.558,3.518-3.436,9.135-3.367,12.182h0c.145,2.886,1.253,5.158,1.555,6.866h0c.5,2.891.256,4.1-1.381,5.732a3.516,3.516,0,0,1-2.278.7,3.012,3.012,0,0,1-2.05-.751c-1.584-1.584,0-3.959.792-4.752a.363.363,0,0,0,0-.4c-.051-.093-.18-.108-.3-.108a3.292,3.292,0,0,0-1.678.9c-5.543,5.94-4.752,14.651-.4,19.007a9.036,9.036,0,0,0,6.12,2.883,3.613,3.613,0,0,0,2.592-.9c.792-.792,0-1.188-.4-1.584a3.479,3.479,0,0,1,.4-4.356c1.584-1.98,5.186-3.934,6.335-5.544a11.878,11.878,0,0,0,1.981-4.355c.027.042.128.185.143.207a10.3,10.3,0,0,1,2.468,5.666,8.5,8.5,0,0,1-2.611,6.8c-2.376,2.376-5.148,2.376-3.564,3.96a3.46,3.46,0,0,0,1.991.482c2.6,0,7.7-2.073,10.815-5.841a12.719,12.719,0,0,0,2.635-6.915C497.964,53.438,494.4,51.4,486.481,42.3Z"/><path class="cls-2" d="M533.217,42.3c-2.375-2.772-6.731-7.075-4.75-10.638.394-.4.79-.792.394-1.188a.609.609,0,0,0-.453-.18c-.94,0-2.5,1.617-3.506,2.952-2.559,3.518-3.436,9.135-3.367,12.182h0c.145,2.886,1.252,5.158,1.555,6.866h0c.5,2.891.255,4.1-1.382,5.732a3.515,3.515,0,0,1-2.278.7,3.011,3.011,0,0,1-2.049-.751c-1.584-1.584,0-3.959.792-4.752a.365.365,0,0,0,0-.4c-.051-.093-.181-.108-.3-.108a3.288,3.288,0,0,0-1.678.9c-5.543,5.94-4.752,14.651-.4,19.007a9.036,9.036,0,0,0,6.119,2.883,3.613,3.613,0,0,0,2.593-.9c.792-.792,0-1.188-.4-1.584a3.48,3.48,0,0,1,.4-4.356c1.583-1.98,5.186-3.934,6.334-5.544a11.857,11.857,0,0,0,1.981-4.355c.028.042.129.185.144.207a10.313,10.313,0,0,1,2.468,5.666,8.5,8.5,0,0,1-2.612,6.8c-2.375,2.376-5.147,2.376-3.564,3.96a3.464,3.464,0,0,0,1.992.482c2.6,0,7.7-2.073,10.814-5.841a12.721,12.721,0,0,0,2.636-6.915C544.7,53.438,541.137,51.4,533.217,42.3Z"/><path class="cls-2" d="M369.324,279.947c-.012-5.194-.813-22.066-.878-23.415l1.029-5.146H327.154l1.029,5.146c-.065,1.349-.866,18.221-.878,23.415-.014,5.9.818,24.913.878,26.288l-1.014,5.581H369.46l-1.014-5.581C368.506,304.86,369.338,285.847,369.324,279.947Zm-38,25.721a1.188,1.188,0,0,1-.151.22.688.688,0,0,1-.481.192.658.658,0,0,1-.686-.686.685.685,0,0,1,.192-.48.718.718,0,0,1,.975,0,.75.75,0,0,1,.206.48A.988.988,0,0,1,331.324,305.668Zm-.151-47.378a1.273,1.273,0,0,1-.219.152.882.882,0,0,1-.262.04.744.744,0,0,1-.494-.192,1.264,1.264,0,0,1-.15-.219.937.937,0,0,1-.042-.275.842.842,0,0,1,.042-.26,1.272,1.272,0,0,1,.15-.22.8.8,0,0,1,.22-.151.729.729,0,0,1,.536,0,1.215,1.215,0,0,1,.219.151.7.7,0,0,1,.206.48A.728.728,0,0,1,331.173,258.29Zm2.223,47.79a.68.68,0,0,1-.686-.686.687.687,0,0,1,1.373,0A.68.68,0,0,1,333.4,306.08Zm0-47.584a.693.693,0,1,1,.687-.7A.691.691,0,0,1,333.4,258.5Zm2.718,47.584a.68.68,0,0,1-.686-.686.688.688,0,0,1,.686-.686.7.7,0,0,1,.686.686A.688.688,0,0,1,336.114,306.08Zm0-47.584a.693.693,0,1,1,.686-.7A.7.7,0,0,1,336.114,258.5Zm2.7,47.584a.688.688,0,0,1-.686-.686.7.7,0,0,1,.686-.686.688.688,0,0,1,.686.686A.68.68,0,0,1,338.818,306.08Zm0-47.584a.693.693,0,0,1,0-1.386.693.693,0,0,1,0,1.386Zm2.718,47.584a.68.68,0,0,1-.687-.686.689.689,0,0,1,.687-.686.7.7,0,0,1,.686.686A.688.688,0,0,1,341.536,306.08Zm0-47.584a.693.693,0,1,1,.686-.7A.692.692,0,0,1,341.536,258.5Zm2.717,47.584a.691.691,0,0,1-.7-.686.693.693,0,0,1,1.386,0A.688.688,0,0,1,344.253,306.08Zm0-47.584a.693.693,0,1,1,.686-.7A.7.7,0,0,1,344.253,258.5Zm2.7,47.584a.688.688,0,0,1-.686-.686.7.7,0,0,1,.686-.686.689.689,0,0,1,.687.686A.68.68,0,0,1,346.956,306.08Zm0-47.584a.693.693,0,1,1,.687-.7A.691.691,0,0,1,346.956,258.5Zm2.718,47.584a.68.68,0,0,1-.686-.686.688.688,0,0,1,.686-.686.7.7,0,0,1,.686.686A.688.688,0,0,1,349.674,306.08Zm0-47.584a.693.693,0,1,1,.686-.7A.7.7,0,0,1,349.674,258.5Zm2.7,47.584a.688.688,0,0,1-.686-.686.7.7,0,0,1,.686-.686.688.688,0,0,1,.686.686A.68.68,0,0,1,352.378,306.08Zm0-47.584a.693.693,0,0,1,0-1.386.693.693,0,0,1,0,1.386ZM355.1,306.08a.68.68,0,0,1-.686-.686.687.687,0,0,1,1.373,0A.68.68,0,0,1,355.1,306.08Zm0-47.584a.693.693,0,1,1,.687-.7A.7.7,0,0,1,355.1,258.5Zm2.718,47.584a.679.679,0,0,1-.686-.686.688.688,0,0,1,.686-.686.7.7,0,0,1,.686.686A.688.688,0,0,1,357.813,306.08Zm0-47.584a.693.693,0,1,1,.686-.7A.7.7,0,0,1,357.813,258.5Zm2.7,47.584a.68.68,0,0,1-.686-.686.687.687,0,0,1,1.373,0A.68.68,0,0,1,360.516,306.08Zm0-47.584a.693.693,0,0,1,0-1.386.693.693,0,0,1,0,1.386Zm2.718,47.584a.68.68,0,0,1-.686-.686.688.688,0,0,1,.686-.686.7.7,0,0,1,.686.686A.688.688,0,0,1,363.234,306.08Zm0-47.584a.693.693,0,1,1,.686-.7A.7.7,0,0,1,363.234,258.5Zm3.2,47.392a.747.747,0,0,1-.494.192.691.691,0,0,1-.481-.192.707.707,0,0,1-.2-.494.7.7,0,0,1,.2-.48.718.718,0,0,1,.975,0,.706.706,0,0,1,.192.48A.716.716,0,0,1,366.432,305.888Zm0-47.6a1.313,1.313,0,0,1-.219.152.973.973,0,0,1-.275.04.712.712,0,0,1-.481-.192.784.784,0,0,1-.15-.219.96.96,0,0,1-.055-.275.864.864,0,0,1,.055-.26.723.723,0,0,1,.37-.371.721.721,0,0,1,.755.151.708.708,0,0,1,.192.48A.74.74,0,0,1,366.432,258.29Z"/><path class="cls-2" d="M428.884,293.609c-.012-5.051-.766-13.289-.873-14.233l1.024-5.122H386.714l1.024,5.122c-.106.944-.861,9.182-.873,14.233a119.412,119.412,0,0,0,.873,13.094l-1.009,5.554H429.02l-1.009-5.554A119.434,119.434,0,0,0,428.884,293.609Zm-38.146,12.279a1.294,1.294,0,0,1-.233.151.811.811,0,0,1-.261.041.689.689,0,0,1-.48-.192.653.653,0,0,1-.206-.494.642.642,0,0,1,.206-.48.7.7,0,0,1,.741-.151.818.818,0,0,1,.233.151.682.682,0,0,1,.193.48A.693.693,0,0,1,390.738,305.888Zm.138-25.391a.587.587,0,0,1-.151.22.663.663,0,0,1-.961,0,.675.675,0,0,1-.206-.5.594.594,0,0,1,.055-.26.576.576,0,0,1,.151-.219.632.632,0,0,1,.22-.152.693.693,0,0,1,.741.152.576.576,0,0,1,.151.219.594.594,0,0,1,.055.26A.656.656,0,0,1,390.876,280.5Zm2.086,25.583a.68.68,0,0,1-.686-.686.688.688,0,0,1,.686-.686.7.7,0,0,1,.686.686A.688.688,0,0,1,392.962,306.08Zm0-25.171a.68.68,0,0,1-.686-.687.688.688,0,0,1,.686-.686.7.7,0,0,1,.686.686A.688.688,0,0,1,392.962,280.909Zm2.7,25.171a.688.688,0,0,1-.686-.686.7.7,0,0,1,.686-.686.688.688,0,0,1,.686.686A.68.68,0,0,1,395.666,306.08Zm0-25.171a.688.688,0,0,1-.686-.687.7.7,0,0,1,.686-.686.688.688,0,0,1,.686.686A.68.68,0,0,1,395.666,280.909Zm2.718,25.171a.68.68,0,0,1-.687-.686.689.689,0,0,1,.687-.686.7.7,0,0,1,.686.686A.688.688,0,0,1,398.384,306.08Zm0-25.171a.68.68,0,0,1-.687-.687.689.689,0,0,1,.687-.686.7.7,0,0,1,.686.686A.689.689,0,0,1,398.384,280.909ZM401.1,306.08a.679.679,0,0,1-.686-.686.688.688,0,0,1,.686-.686.7.7,0,0,1,.686.686A.688.688,0,0,1,401.1,306.08Zm-.014-25.171a.676.676,0,0,1-.672-.687.685.685,0,0,1,.672-.686.7.7,0,0,1,.7.686A.691.691,0,0,1,401.087,280.909ZM403.8,306.08a.688.688,0,0,1-.686-.686.7.7,0,0,1,.686-.686.689.689,0,0,1,.687.686A.68.68,0,0,1,403.8,306.08Zm0-25.171a.68.68,0,0,1-.686-.687.687.687,0,0,1,1.373,0A.68.68,0,0,1,403.8,280.909Zm2.718,25.171a.68.68,0,0,1-.686-.686.688.688,0,0,1,.686-.686.7.7,0,0,1,.686.686A.688.688,0,0,1,406.522,306.08Zm0-25.171a.68.68,0,0,1-.686-.687.688.688,0,0,1,.686-.686.7.7,0,0,1,.686.686A.688.688,0,0,1,406.522,280.909Zm2.7,25.171a.688.688,0,0,1-.686-.686.7.7,0,0,1,.686-.686.688.688,0,0,1,.686.686A.68.68,0,0,1,409.226,306.08Zm0-25.171a.688.688,0,0,1-.686-.687.7.7,0,0,1,.686-.686.688.688,0,0,1,.686.686A.68.68,0,0,1,409.226,280.909Zm2.717,25.171a.68.68,0,0,1-.686-.686.687.687,0,0,1,1.373,0A.68.68,0,0,1,411.943,306.08Zm0-25.171a.68.68,0,0,1-.686-.687.687.687,0,0,1,1.373,0A.681.681,0,0,1,411.943,280.909Zm2.705,25.171a.689.689,0,0,1-.687-.686.693.693,0,0,1,1.386,0A.691.691,0,0,1,414.648,306.08Zm.013-25.171a.68.68,0,0,1-.686-.687.688.688,0,0,1,.686-.686.7.7,0,0,1,.686.686A.688.688,0,0,1,414.661,280.909Zm2.7,25.171a.688.688,0,0,1-.686-.686.7.7,0,0,1,.686-.686.688.688,0,0,1,.686.686A.68.68,0,0,1,417.365,306.08Zm0-25.171a.679.679,0,0,1-.686-.687.686.686,0,0,1,1.372,0A.68.68,0,0,1,417.365,280.909Zm2.718,25.171a.68.68,0,0,1-.687-.686.689.689,0,0,1,.687-.686.7.7,0,0,1,.686.686A.688.688,0,0,1,420.083,306.08Zm0-25.171a.68.68,0,0,1-.687-.687.689.689,0,0,1,.687-.686.7.7,0,0,1,.686.686A.689.689,0,0,1,420.083,280.909Zm2.7,25.171a.688.688,0,0,1-.686-.686.7.7,0,0,1,.686-.686.688.688,0,0,1,.686.686A.679.679,0,0,1,422.786,306.08Zm0-25.171a.676.676,0,0,1-.672-.687.679.679,0,1,1,.672.687Zm3.2,24.979a.688.688,0,0,1-.481.192.81.81,0,0,1-.26-.041.87.87,0,0,1-.22-.151.653.653,0,0,1-.206-.494.642.642,0,0,1,.206-.48.7.7,0,0,1,.961,0,.642.642,0,0,1,.206.48A.653.653,0,0,1,425.984,305.888Zm0-25.171a.9.9,0,0,1-.22.151.807.807,0,0,1-.261.041.871.871,0,0,1-.26-.041.9.9,0,0,1-.22-.151.587.587,0,0,1-.151-.22.656.656,0,0,1-.055-.275.594.594,0,0,1,.055-.26.576.576,0,0,1,.151-.219.632.632,0,0,1,.22-.152.691.691,0,0,1,.521,0,.632.632,0,0,1,.22.152.642.642,0,0,1,.206.479A.675.675,0,0,1,425.984,280.717Z"/><path class="cls-1" d="M163.308,267.917h3.24l-.216,5.938H152.754V271.1h1.7V257.714H152.43V254.96h13.821l.162,5.56h-3.239l-.162-2.806H158.4v4.966h4.751V265.6H158.4V271.1h4.7Z"/><path class="cls-1" d="M187.389,271.1h1.377v-5.8c0-1.943-1.025-2.645-2.456-2.645-1.836,0-3,1.484-3,3.752v4.7h1.619v2.754h-6.775V271.1h1.377v-5.8c0-1.943-1.025-2.645-2.456-2.645-2,0-3,1.619-3,3.752v4.7H175.7v2.754h-6.938V271.1H170.3v-8.61h-1.835v-2.753H174a12.776,12.776,0,0,1-.216,2.861h.054a4.885,4.885,0,0,1,4.885-3.185c2.322,0,3.779,1.08,4.157,3.185h.054a4.579,4.579,0,0,1,4.724-3.185c3.347,0,4.886,2.133,4.886,5.507v6.18h1.619v2.754h-6.776Z"/><path class="cls-1" d="M197.547,262.491h-2.16v-2.753h5.884a14.812,14.812,0,0,1-.243,2.672h.055a4.855,4.855,0,0,1,4.8-3c3.1,0,5.453,2.24,5.453,6.451,0,3.86-1.863,8.313-7.882,8.313a11.223,11.223,0,0,1-2.133-.242v3.941h1.62v2.754h-6.937v-2.754h1.539Zm3.7,8.232a8.269,8.269,0,0,0,2.4.378c2.727,0,3.914-2.294,3.914-4.8,0-1.944-.7-3.806-3.049-3.806-2.511,0-3.267,1.808-3.267,3.563Z"/><path class="cls-1" d="M222.735,264.866c0-2.132-.89-2.7-2.672-2.7a8.576,8.576,0,0,0-2.348.405v1.89h-3.24v-3.59a12.391,12.391,0,0,1,5.642-1.458c3.779,0,6.182,1.322,6.182,5.426,0,2.321-.081,4.264-.135,6.261h1.592v2.754h-4.75v-.864a7.326,7.326,0,0,1,.188-1.943h-.054c-.945,2.132-2.24,3.13-4.616,3.13-3.184,0-4.723-1.888-4.723-4.1a4.1,4.1,0,0,1,2.834-3.887,18.969,18.969,0,0,1,6.1-.648Zm-1.106,3c-3.077,0-4.049.647-4.049,1.862,0,.837.594,1.7,2.078,1.7,1.512,0,3.023-.971,3.023-3.562Z"/><path class="cls-1" d="M239.852,275.312a23.817,23.817,0,0,1,.3-4.13H240.1a4.3,4.3,0,0,1-4.534,3c-3.239,0-5.722-2.375-5.722-6.451,0-3.859,2.186-8.313,8.232-8.313a14.812,14.812,0,0,1,5.561,1.187v17.276h1.673v2.754h-6.963v-2.754h1.51ZM239.933,263a6.083,6.083,0,0,0-2.4-.513c-2.726,0-3.752,2.159-3.752,4.346,0,2.213,1.053,4.1,2.889,4.1,2,0,3.265-1.782,3.265-3.941Z"/><path class="cls-1" d="M256.107,259.738h5.561V271.1h1.646v2.754h-5.291a7.573,7.573,0,0,1,.352-2.915h-.054a4.725,4.725,0,0,1-4.886,3.238c-3.213,0-4.751-1.943-4.751-4.939v-6.748H246.8v-2.753h5.669v7.908c0,2,.215,3.455,2.482,3.455,1.62,0,2.942-1.3,2.942-3.536v-5.074h-1.781Z"/><path class="cls-1" d="M269.122,267.646c.108,2.241,1.836,3.617,4.481,3.617a10.428,10.428,0,0,0,4.562-.971l-.189,3a14.109,14.109,0,0,1-5.21.89c-5.452,0-7.747-3.4-7.747-7.314,0-4.4,2.673-7.45,7.1-7.45,4.858,0,6.829,3.671,6.829,8.232Zm5.723-2.591a2.721,2.721,0,0,0-2.862-3.049c-1.727,0-2.725,1.132-2.888,3.049Z"/><path class="cls-1" d="M111.012,138.716h-1.7v-2.753h7.342v2.753h-1.7V152.1h1.7v2.753h-7.342V152.1h1.7Z"/><path class="cls-1" d="M120.328,143.494h-1.836v-2.753h5.534a13.441,13.441,0,0,1-.217,2.915h.055a5,5,0,0,1,4.886-3.238c3.346,0,4.886,2.131,4.886,5.5V152.1h1.619v2.753h-6.938V152.1h1.539v-5.8c0-1.943-1.025-2.645-2.456-2.645-2.3,0-3.294,1.619-3.294,3.752v4.7h1.62v2.753h-6.775V152.1h1.377Z"/><path class="cls-1" d="M151.7,143.332h-2.429a4.462,4.462,0,0,1,.917,2.726c0,3.321-2.806,4.86-5.937,4.86H142.9a.869.869,0,0,0-.917.755c0,.486.3.674,1,.756l4.67.512c2.43.271,3.779,1.3,3.779,3.726,0,2.051-1.646,5.29-7.45,5.29-5.722,0-7.126-2.051-7.126-3.779,0-1.214.594-2.59,3.1-3.185v-.054c-1.215-.269-1.917-.81-1.917-2.1,0-1.405,1.349-2.106,2.726-2.349v-.054a4.528,4.528,0,0,1-3.536-4.67c0-3.265,2.484-5.343,6.344-5.343a16.4,16.4,0,0,1,2.969.323H151.7ZM141.981,155.7c-.7.242-1.565.836-1.565,1.646,0,1.323,1.511,1.863,3.805,1.863,1.674,0,3.644-.648,3.644-1.944,0-.864-.594-1-1.862-1.133Zm1.809-7.531c2.347,0,3.158-1.295,3.158-2.537,0-1.485-1.323-2.457-3.023-2.457-1.647,0-3.131.729-3.131,2.591C140.794,147.246,141.9,148.164,143.79,148.164Z"/><path class="cls-1" d="M155.077,143.494h-1.836v-2.753h5.479a21.417,21.417,0,0,1-.243,3.239h.055c.566-2.375,1.889-3.562,4.049-3.562a5.994,5.994,0,0,1,1.241.161l-.243,3.374a6.511,6.511,0,0,0-1.215-.135,3.405,3.405,0,0,0-3.509,3.725V152.1h1.782v2.753h-7.1V152.1h1.539Z"/><path class="cls-1" d="M168.683,148.65c.109,2.24,1.836,3.617,4.482,3.617a10.411,10.411,0,0,0,4.561-.972l-.188,3a14.109,14.109,0,0,1-5.21.89c-5.452,0-7.747-3.4-7.747-7.314,0-4.4,2.673-7.449,7.1-7.449,4.859,0,6.83,3.67,6.83,8.232Zm5.723-2.592a2.721,2.721,0,0,0-2.861-3.05c-1.728,0-2.726,1.134-2.888,3.05Z"/><path class="cls-1" d="M190.282,136.853h-2.159V134.1h5.937v18h1.62v2.753h-5.317a10.936,10.936,0,0,1,.323-2.726h-.053a4.826,4.826,0,0,1-4.805,3.049c-3.1,0-5.749-2.24-5.749-6.451,0-3.859,1.862-8.312,7.882-8.312a9.222,9.222,0,0,1,2.321.323Zm-.108,7.154a6.092,6.092,0,0,0-2.4-.513c-2.726,0-3.752,2.16-3.752,4.346,0,2.213,1.053,4.1,2.889,4.1,2,0,3.266-1.781,3.266-3.941Z"/><path class="cls-1" d="M199.329,143.494h-1.835v-2.753h5.614V152.1h1.619v2.753h-6.936V152.1h1.538Zm1.755-9.8a2.355,2.355,0,1,1-2.537,2.349A2.293,2.293,0,0,1,201.084,133.7Z"/><path class="cls-1" d="M210.64,148.65c.109,2.24,1.836,3.617,4.482,3.617a10.411,10.411,0,0,0,4.561-.972l-.188,3a14.109,14.109,0,0,1-5.21.89c-5.452,0-7.747-3.4-7.747-7.314,0-4.4,2.673-7.449,7.1-7.449,4.859,0,6.83,3.67,6.83,8.232Zm5.723-2.592a2.721,2.721,0,0,0-2.861-3.05c-1.728,0-2.726,1.134-2.888,3.05Z"/><path class="cls-1" d="M223.79,143.494h-1.835v-2.753h5.533a13.5,13.5,0,0,1-.216,2.915h.054a5,5,0,0,1,4.886-3.238c3.347,0,4.885,2.131,4.885,5.5V152.1h1.621v2.753H231.78V152.1h1.538v-5.8c0-1.943-1.025-2.645-2.456-2.645-2.294,0-3.293,1.619-3.293,3.752v4.7h1.619v2.753h-6.774V152.1h1.376Z"/><path class="cls-1" d="M242.285,137.826l3.779-.217v3.132h3.78v2.753h-3.78v6.289c0,2,.513,2.484,2.078,2.484a5.392,5.392,0,0,0,1.836-.432l-.134,2.672a9.865,9.865,0,0,1-3.294.674c-2.781,0-4.265-1.3-4.265-3.778v-7.909h-1.916v-2.753h1.916Z"/><path class="cls-1" d="M254.623,148.65c.108,2.24,1.836,3.617,4.481,3.617a10.415,10.415,0,0,0,4.562-.972l-.189,3a14.109,14.109,0,0,1-5.21.89c-5.452,0-7.747-3.4-7.747-7.314,0-4.4,2.673-7.449,7.1-7.449,4.858,0,6.829,3.67,6.829,8.232Zm5.722-2.592a2.721,2.721,0,0,0-2.861-3.05c-1.727,0-2.725,1.134-2.888,3.05Z"/><path class="cls-1" d="M274.52,143.414a6.462,6.462,0,0,0-2.185-.406c-1.728,0-2.538.7-2.538,1.485,0,.675.189.944,1.268,1.106l2.97.432c3.239.459,4.589,1.7,4.589,4.266,0,2.509-1.755,4.884-6.667,4.884a18.84,18.84,0,0,1-5.561-.89v-3.967h3.4v1.646a8.877,8.877,0,0,0,2.51.459c.783,0,2.753-.244,2.753-1.728,0-.782-.485-1.188-2.132-1.43l-3.185-.486c-2.456-.378-3.509-1.728-3.509-3.752,0-3.483,3.293-4.615,6.208-4.615a17.3,17.3,0,0,1,5.48.943v3.482h-3.4Z"/><path class="cls-1" d="M124.809,191.169H127.1l.109-16.52h-2.4v-1.187h4.427l6.451,16.087a3.03,3.03,0,0,1,.216.7h.054a3.03,3.03,0,0,1,.216-.7l6.5-16.087h4.346v1.187h-2.4l.107,16.52h2.295v1.187h-6.1v-1.187h2.4l-.107-15.386h-.055a4.45,4.45,0,0,1-.27.782l-6.4,15.791h-1.215l-6.343-15.6a4.056,4.056,0,0,1-.27-.865h-.054l-.108,15.279h2.4v1.187h-6.1Z"/><path class="cls-1" d="M162.255,192.356h-3.618a21.49,21.49,0,0,1,.3-3.158h-.053c-.756,2-2,3.482-4.536,3.482-2.429,0-4.4-1.215-4.4-3.86,0-2.564,2.106-3.833,4.993-4.022l3.752-.243c.028-.431.054-.837.054-1.268,0-2.24-.62-3.833-3.616-3.833a9.965,9.965,0,0,0-3.24.54l-.054,2.321h-1.3l.054-3.185a10.406,10.406,0,0,1,4.751-.972c3.724,0,4.75,2.105,4.75,4.427,0,3.266-.082,5.938-.108,8.584h2.268Zm-7.694-.972a3.814,3.814,0,0,0,3.024-1.457c.971-1.242,1.106-2.241,1.106-4.184-4.939.135-7.234.3-7.234,3.051C151.457,190.332,152.591,191.384,154.561,191.384Z"/><path class="cls-1" d="M164.525,191.169H166.9l.081-11.5h-2.673v-1.188h4.077l-.082,12.687h2.484v1.187h-6.263Zm.945-15.9,4.7-4.13.918.837L166.415,176Z"/><path class="cls-1" d="M173.165,191.169l8.772-10.744a6.278,6.278,0,0,1,.7-.755h-7.693l-.107,2.429h-1.324l.163-3.617h10.608v1.188l-8.773,10.743a6.051,6.051,0,0,1-.7.756h8.017l.162-2.565h1.323l-.216,3.752H173.165Z"/><path class="cls-1" d="M198.732,178.482v1.188h-1.97l3.752,10.23a6.794,6.794,0,0,1,.3,1.025h.054a5.042,5.042,0,0,1,.243-.971l3.59-10.284h-2.079v-1.188h5.156v1.188H206.1l-4.832,13.523c-1.51,4.238-3.1,6.263-6.342,6.263a6.593,6.593,0,0,1-1.621-.216v-1.323a9.474,9.474,0,0,0,1.7.243c1.943,0,3.184-.945,4.021-2.943l1.053-2.509-4.967-13.038h-1.809v-1.188Z"/><path class="cls-1" d="M216.662,197.944h2.24l.135-18.274h-2.618v-1.188h4.049a22.283,22.283,0,0,1-.189,2.915l.081-.054a4.916,4.916,0,0,1,4.831-3.185c3.779,0,5.7,2.889,5.7,6.451,0,4.427-2.051,8.071-7.18,8.071a10.063,10.063,0,0,1-3.347-.486l-.055,5.75h2.511v1.187h-6.154Zm8.26-18.49c-2.619,0-4.508,2.052-4.535,5.722l-.027,5.7a8.4,8.4,0,0,0,3.4.621c3.914,0,5.615-2.808,5.615-6.451C229.376,181.937,228.187,179.454,224.922,179.454Z"/><path class="cls-1" d="M246.277,192.356H242.66a21.49,21.49,0,0,1,.3-3.158H242.9c-.756,2-2,3.482-4.535,3.482-2.43,0-4.4-1.215-4.4-3.86,0-2.564,2.105-3.833,4.993-4.022l3.752-.243c.027-.431.053-.837.053-1.268,0-2.24-.62-3.833-3.616-3.833a9.951,9.951,0,0,0-3.239.54l-.055,2.321h-1.295l.054-3.185a10.406,10.406,0,0,1,4.751-.972c3.725,0,4.75,2.105,4.75,4.427,0,3.266-.081,5.938-.107,8.584h2.267Zm-7.693-.972a3.812,3.812,0,0,0,3.023-1.457c.972-1.242,1.107-2.241,1.107-4.184-4.94.135-7.235.3-7.235,3.051C235.479,190.332,236.613,191.384,238.584,191.384Z"/><path class="cls-1" d="M248.656,197.944h2.24l.135-18.274h-2.618v-1.188h4.049a22.283,22.283,0,0,1-.189,2.915l.081-.054a4.918,4.918,0,0,1,4.831-3.185c3.78,0,5.7,2.889,5.7,6.451,0,4.427-2.051,8.071-7.18,8.071a10.063,10.063,0,0,1-3.347-.486l-.054,5.75h2.51v1.187h-6.154Zm8.26-18.49c-2.618,0-4.508,2.052-4.535,5.722l-.027,5.7a8.4,8.4,0,0,0,3.4.621c3.914,0,5.615-2.808,5.615-6.451C261.37,181.937,260.181,179.454,256.916,179.454Z"/><path class="cls-1" d="M278.271,192.356h-3.617a21.49,21.49,0,0,1,.3-3.158H274.9c-.756,2-2,3.482-4.535,3.482-2.43,0-4.4-1.215-4.4-3.86,0-2.564,2.1-3.833,4.993-4.022l3.752-.243c.027-.431.054-.837.054-1.268,0-2.24-.621-3.833-3.617-3.833a9.951,9.951,0,0,0-3.239.54l-.055,2.321h-1.3l.054-3.185a10.406,10.406,0,0,1,4.751-.972c3.725,0,4.75,2.105,4.75,4.427,0,3.266-.081,5.938-.107,8.584h2.267Zm-7.693-.972a3.811,3.811,0,0,0,3.023-1.457c.972-1.242,1.107-2.241,1.107-4.184-4.94.135-7.235.3-7.235,3.051C267.473,190.332,268.607,191.384,270.578,191.384Z"/><path class="cls-1" d="M181.509,80.673h2.16l.107-16.519h-2.267V62.966h6.262c3.833,0,6.236,1.188,6.236,4.859a4.891,4.891,0,0,1-4.4,4.994v.054c1.053.216,1.728,1.215,2.3,2.159l2.106,3.536c1.052,1.755,1.43,2.105,2.321,2.105a4.053,4.053,0,0,0,1-.108v1.3a8.761,8.761,0,0,1-1.269.108c-1.377,0-1.836-.215-2.645-1.565l-2.889-4.859c-.89-1.512-1.512-2.267-3-2.267h-2.294l-.055,7.395h2.458v1.188h-6.128Zm6.316-8.691c2.456,0,4.67-1.323,4.67-4,0-2.753-1.566-3.833-4.777-3.833h-2.43l-.054,7.828Z"/><path class="cls-1" d="M210.18,81.132a9.775,9.775,0,0,1-4.427,1.053c-4.508,0-6.8-2.888-6.8-7.5,0-3.833,2.159-7.018,6.1-7.018,4.561,0,5.8,3.752,5.8,7.126H200.463c.053,3.941,1.862,6.1,5.507,6.1a9.084,9.084,0,0,0,4.264-1.16Zm-.836-7.531c0-2.483-1.35-4.642-4.374-4.642a4.493,4.493,0,0,0-4.507,4.642Z"/><path class="cls-1" d="M226.568,69.283H225.3c-.73,0-1.539-.109-2.241-.135l-.054.054a4.241,4.241,0,0,1,1.646,3.617,4.9,4.9,0,0,1-5.155,5.047c-2.24,0-3.293.783-3.293,1.539,0,.728.837,1.053,2.267,1.3l4.481.809c1.7.3,3.347.81,3.347,3.131,0,1.917-1.566,4.32-6.64,4.32-3.59,0-6.37-1.243-6.37-3.752,0-1.755,1.754-3.24,3.7-3.483v-.053c-.917-.216-2.185-.73-2.185-2.08,0-1.4,1.376-1.943,2.482-2.078v-.053a4.466,4.466,0,0,1-3.535-4.589,5.089,5.089,0,0,1,5.371-5.21,5.493,5.493,0,0,1,2.349.432h5.1Zm-8.152,12.74c-1.214.216-3.725,1.053-3.725,3.024,0,1.322,1.728,2.726,5.048,2.726,2.483,0,5.155-.837,5.155-3.023,0-1.431-1-1.782-2.537-2.133Zm.864-5.345a3.678,3.678,0,0,0,3.968-3.886,3.8,3.8,0,0,0-4.13-3.833,3.713,3.713,0,0,0-3.968,3.8A3.809,3.809,0,0,0,219.28,76.678Z"/><path class="cls-1" d="M231.457,67.987c-.027,2.889-.108,5.8-.108,8.691,0,2.835,1.079,4.211,3.59,4.211,2.834,0,4.427-2.1,4.481-5.722l.108-5.993h-2.483V67.987h3.886l-.107,12.686h2.159v1.188h-3.536a18.845,18.845,0,0,1,.324-3.32h-.054a5,5,0,0,1-4.831,3.644c-2.835,0-4.941-1.242-4.941-5.426,0-2.537.081-5.047.108-7.585h-2.375V67.987Z"/><path class="cls-1" d="M245.363,80.673h2.295l.107-18.381h-3.077V61.1h4.481l-.108,19.569h2.4v1.188h-6.1Z"/><path class="cls-1" d="M266.77,81.861h-3.617a21.627,21.627,0,0,1,.3-3.158H263.4c-.756,2-2,3.482-4.535,3.482-2.429,0-4.4-1.215-4.4-3.86,0-2.565,2.105-3.833,4.994-4.022l3.752-.243c.026-.431.054-.837.054-1.268,0-2.241-.622-3.833-3.618-3.833a9.963,9.963,0,0,0-3.239.54l-.054,2.321h-1.3l.054-3.186a10.413,10.413,0,0,1,4.751-.971c3.726,0,4.751,2.105,4.751,4.427,0,3.266-.081,5.938-.108,8.583h2.267Zm-7.692-.972a3.81,3.81,0,0,0,3.022-1.457c.972-1.242,1.108-2.241,1.108-4.184-4.941.134-7.235.3-7.235,3.05C255.973,79.837,257.107,80.889,259.078,80.889Z"/><path class="cls-1" d="M269.5,80.673h2.213l.108-11.5H269.2V67.987h4.075c0,1.3-.107,2.969-.216,4.454h.054c.621-2.376,2.133-4.778,4.644-4.778a7.009,7.009,0,0,1,1.943.3l-.216,1.349a4.059,4.059,0,0,0-1.7-.35c-2.429,0-4.562,3.023-4.615,6.937l-.055,4.777h2.592v1.188H269.5Z"/><path class="cls-1" d="M111.2,293.457h5.911v1.187h-2.349l5.669,14.954a5.9,5.9,0,0,1,.27.918h.054a5.9,5.9,0,0,1,.27-.918l5.723-14.954h-2.376v-1.187H130.1v1.187h-1.835l-6.83,17.707H119.92l-6.775-17.707H111.2Z"/><path class="cls-1" d="M144.246,312.351h-3.617a21.367,21.367,0,0,1,.3-3.158h-.054c-.756,2-2,3.482-4.535,3.482-2.43,0-4.4-1.214-4.4-3.86,0-2.564,2.106-3.833,4.993-4.021l3.752-.244c.028-.431.054-.836.054-1.268,0-2.24-.62-3.833-3.616-3.833a9.951,9.951,0,0,0-3.239.54l-.055,2.321h-1.295l.054-3.185a10.406,10.406,0,0,1,4.751-.972c3.724,0,4.75,2.1,4.75,4.427,0,3.266-.081,5.938-.108,8.584h2.268Zm-7.693-.971a3.817,3.817,0,0,0,3.023-1.457c.972-1.243,1.106-2.242,1.106-4.185-4.939.135-7.234.3-7.234,3.051C133.448,310.327,134.582,311.38,136.553,311.38Z"/><path class="cls-1" d="M148.433,308.411l.054,2.347a7.365,7.365,0,0,0,3.374.73c2.673,0,3.617-1.539,3.617-2.78,0-1.188-.567-2-2.375-2.43l-2.376-.566c-2.267-.54-3.671-1.621-3.671-3.671,0-2.3,1.944-3.888,4.832-3.888a10.062,10.062,0,0,1,4.211.864l.054,3.158h-1.3l-.054-2.24a5.826,5.826,0,0,0-2.833-.6c-2.187,0-3.4,1-3.4,2.565,0,1.377.729,2.186,2.349,2.538l2.564.566c2.4.513,3.509,1.593,3.509,3.509,0,2.835-2.105,4.157-5.236,4.157a10.383,10.383,0,0,1-4.535-.918l-.109-3.346Z"/><path class="cls-1" d="M166.387,298.153c4.264,0,6.451,3.293,6.451,7.262s-2.187,7.26-6.451,7.26-6.452-3.293-6.452-7.26S162.122,298.153,166.387,298.153Zm0,13.227c3.239,0,4.939-2.457,4.939-5.965s-1.7-5.966-4.939-5.966-4.94,2.456-4.94,5.966S163.147,311.38,166.387,311.38Z"/><path class="cls-1" d="M194.951,291.594l-.108,19.57h2.375v1.187h-3.833c0-.675.108-1.916.216-2.861h-.054a4.676,4.676,0,0,1-4.886,3.185c-2.267,0-5.506-1.458-5.506-6.882,0-4.427,2.591-7.64,6.937-7.64a9.929,9.929,0,0,1,3.428.675l.054-6.046H190.5v-1.188Zm-1.431,8.53a8.76,8.76,0,0,0-3.347-.675c-3.86,0-5.506,2.672-5.506,6.344,0,2.941,1.133,5.587,4.372,5.587,2.726,0,4.427-2.213,4.454-6.02Z"/><path class="cls-1" d="M210.665,311.623a9.793,9.793,0,0,1-4.428,1.052c-4.508,0-6.8-2.888-6.8-7.5,0-3.833,2.16-7.019,6.1-7.019,4.561,0,5.8,3.752,5.8,7.126H200.947c.054,3.941,1.862,6.1,5.507,6.1a9.08,9.08,0,0,0,4.265-1.161Zm-.837-7.532c0-2.483-1.35-4.642-4.373-4.642a4.494,4.494,0,0,0-4.508,4.642Z"/><path class="cls-1" d="M224.031,311.164h3.86L228,295a3.768,3.768,0,0,1-.648.512l-4.373,2.808-.728-1.08,5.965-3.778H229.4l-.107,17.707h4.021v1.187h-9.285Z"/><path class="cls-1" d="M239.044,311.164H242.9L243.012,295a3.813,3.813,0,0,1-.649.512l-4.372,2.808-.729-1.08,5.965-3.778h1.188l-.109,17.707h4.023v1.187h-9.285Z"/><path class="cls-1" d="M258.1,293.186c3.671,0,5.858,4,5.858,9.34,0,4.7-1.944,10.1-6.4,10.1-4.534,0-6.18-4.967-6.18-9.421C251.384,298.369,253.462,293.186,258.1,293.186Zm-.459,18.14c2.7,0,4.805-3.348,4.805-8.746,0-4.912-1.862-8.1-4.534-8.1-3.1,0-5.022,3.483-5.022,8.638C252.894,307.493,254.433,311.326,257.645,311.326Z"/><path class="cls-1" d="M279.6,299.773h-1.269c-.729,0-1.538-.108-2.24-.135l-.054.054a4.244,4.244,0,0,1,1.646,3.617,4.9,4.9,0,0,1-5.155,5.047c-2.241,0-3.294.783-3.294,1.539,0,.729.837,1.053,2.268,1.3l4.481.81c1.7.3,3.347.809,3.347,3.13,0,1.917-1.565,4.32-6.641,4.32-3.589,0-6.37-1.242-6.37-3.752,0-1.755,1.755-3.239,3.7-3.483v-.053c-.917-.216-2.186-.73-2.186-2.079,0-1.4,1.377-1.944,2.483-2.078v-.054a4.466,4.466,0,0,1-3.536-4.589,5.09,5.09,0,0,1,5.372-5.21,5.467,5.467,0,0,1,2.348.433h5.1Zm-8.152,12.74c-1.215.216-3.725,1.053-3.725,3.024,0,1.322,1.727,2.726,5.047,2.726,2.484,0,5.157-.837,5.157-3.023,0-1.431-1-1.781-2.538-2.133Zm.863-5.344a3.679,3.679,0,0,0,3.969-3.887,3.8,3.8,0,0,0-4.13-3.833,3.713,3.713,0,0,0-3.968,3.806A3.809,3.809,0,0,0,272.306,307.169Z"/><path class="cls-1" d="M183.669,31.56h-1.864V28.807h7.8c4.562,0,6.91,1.89,6.91,5.587,0,3.536-2.51,6.02-6.262,6.02h-2.646v4.535h1.862V47.7h-7.666V44.949h1.864Zm6.073,6.1a2.773,2.773,0,0,0,3-3.105,2.757,2.757,0,0,0-3.051-3h-2.078v6.1Z"/><path class="cls-1" d="M199.814,36.339h-1.836V33.585h5.615V44.949h1.62V47.7h-6.938V44.949h1.539Zm1.754-9.8a2.355,2.355,0,1,1-2.537,2.348A2.293,2.293,0,0,1,201.568,26.54Z"/><path class="cls-1" d="M215.661,36.176a5.677,5.677,0,0,0-1.3-.162c-2.511,0-3.563,2.294-3.563,4.238,0,2.4,1.242,4.7,4.481,4.7a8.258,8.258,0,0,0,3.536-.783l-.217,3.185a10.5,10.5,0,0,1-4.237.675c-4.805,0-7.342-3.293-7.342-7.369,0-4.562,2.915-7.4,7.423-7.4a14.7,14.7,0,0,1,4.453.675v4.13h-3.238Z"/><path class="cls-1" d="M229.755,38.714c0-2.133-.891-2.7-2.673-2.7a8.582,8.582,0,0,0-2.348.4v1.889H221.5v-3.59a12.415,12.415,0,0,1,5.642-1.457c3.778,0,6.18,1.323,6.18,5.425,0,2.321-.081,4.266-.135,6.263h1.593V47.7h-4.751v-.863a7.274,7.274,0,0,1,.19-1.944h-.055c-.944,2.132-2.24,3.131-4.615,3.131-3.186,0-4.724-1.89-4.724-4.1a4.1,4.1,0,0,1,2.834-3.887,18.976,18.976,0,0,1,6.1-.648Zm-1.108,3c-3.077,0-4.049.647-4.049,1.862,0,.837.594,1.7,2.08,1.7,1.511,0,3.022-.972,3.022-3.563Z"/><path class="cls-1" d="M238.288,36.339h-1.835V33.585h5.533a13.511,13.511,0,0,1-.216,2.915h.054a5,5,0,0,1,4.886-3.239c3.347,0,4.885,2.132,4.885,5.506v6.182h1.621V47.7h-6.938V44.949h1.538v-5.8c0-1.943-1.025-2.645-2.456-2.645-2.294,0-3.293,1.62-3.293,3.752v4.7h1.619V47.7h-6.774V44.949h1.376Z"/><path class="cls-1" d="M256.783,30.67l3.779-.216v3.131h3.78v2.754h-3.78v6.289c0,2,.513,2.483,2.078,2.483a5.392,5.392,0,0,0,1.836-.432l-.134,2.672a9.871,9.871,0,0,1-3.294.675c-2.781,0-4.265-1.3-4.265-3.779V36.339h-1.916V33.585h1.916Z"/><path class="cls-1" d="M269.121,41.494c.108,2.24,1.836,3.617,4.481,3.617a10.415,10.415,0,0,0,4.562-.972l-.189,3a14.11,14.11,0,0,1-5.21.891c-5.452,0-7.747-3.4-7.747-7.315,0-4.4,2.673-7.45,7.1-7.45,4.858,0,6.829,3.671,6.829,8.233Zm5.723-2.592a2.722,2.722,0,0,0-2.862-3.05c-1.727,0-2.725,1.134-2.887,3.05Z"/><path class="cls-1" d="M444.909,282.187v5.42l1.794,1.457,1.736,18.115,2.048,3.705H480.37l1.961-3.43,1.822-18.39,1.794-1.457v-5.42Zm36.971,8.11h-32.9a.687.687,0,1,1,0-1.373h32.9a.687.687,0,0,1,0,1.373Z"/><path class="cls-1" d="M312.627,188.152q-.332-.309-.665-.637l1.943-1.943a25.448,25.448,0,0,0,3.9,3.272A4.644,4.644,0,0,1,312.627,188.152Zm19.44-35.546a7.619,7.619,0,0,0,.958,3.344q-2.04,1.68-4.152,3.5c-.868-1.675-1.006-3.041-.416-4.117C329.631,154.43,330.838,153.518,332.067,152.606Zm22.109-4.654c-.568-.449-1.069-.872-1.443-1.209l4.145-4.145c.159.151.318.3.478.44C356.532,144.356,355.466,146.018,354.176,147.952Zm4.244-4.027a10.032,10.032,0,0,0,1.211.809,56.417,56.417,0,0,1-2.66,5.171c-.542-.317-1.122-.705-1.7-1.124C356.539,146.884,357.594,145.241,358.42,143.925Zm-26.409,39.458c-.136.135-.265.259-.4.39a6.738,6.738,0,0,1-5.62.464c.737-.707,1.5-1.455,2.329-2.28.462-.462.917-.925,1.371-1.389a7.935,7.935,0,0,0,4.333.659C333.261,182.081,332.574,182.819,332.011,183.383Zm-4.659-2.4c-.986.986-1.882,1.854-2.721,2.645a22.849,22.849,0,0,1-4.9-3.883l3.743-3.743a25.19,25.19,0,0,0,4.927,3.921C328.05,180.28,327.7,180.634,327.352,180.987Zm10.261-19.123a24.639,24.639,0,0,0,4.022,3.157q-1.66,2.057-3.449,4.171a27.608,27.608,0,0,1-4.318-3.583Zm.972-.972,3.745-3.745a27.764,27.764,0,0,0,3.368,2.691c-1.014,1.332-2.082,2.7-3.193,4.1A21.98,21.98,0,0,1,338.585,160.892Zm8.467-10.408a28.772,28.772,0,0,1-1.839-2.261c1.527-1.117,2.959-2.138,4.273-3.055.47.6.925,1.138,1.312,1.57Zm-.972.971-3.746,3.747a25.729,25.729,0,0,1-2.4-3.01c1.447-1.118,2.843-2.171,4.172-3.155A30.265,30.265,0,0,0,346.08,151.455Zm-4.712,4.713-3.751,3.751a23.14,23.14,0,0,1-2.845-3.628q2.1-1.71,4.085-3.261A29.547,29.547,0,0,0,341.368,156.168Zm-4.72,4.719-3.74,3.741a29.059,29.059,0,0,1-3.328-3.978q2.1-1.814,4.136-3.492A26.045,26.045,0,0,0,336.648,160.887Zm-12.207,14.149,3.753-3.753A25.033,25.033,0,0,0,333,175.072q-1.753,1.915-3.6,3.827A22.523,22.523,0,0,1,324.441,175.036Zm4.722-4.722,3.735-3.735a29.643,29.643,0,0,0,4.384,3.669q-1.617,1.881-3.33,3.783A22.826,22.826,0,0,1,329.163,170.314Zm9.325.635a6.969,6.969,0,0,0,3.3.89q-1.126,1.442-2.2,2.781a5.108,5.108,0,0,1-4.336.02Q336.916,172.786,338.488,170.949Zm4.658-.862a4.053,4.053,0,0,1-3.736-.219q1.791-2.118,3.451-4.182a7.053,7.053,0,0,0,3.015.784C344.963,167.7,344.049,168.911,343.146,170.087Zm3.945-5.311c-.832.525-2.02.373-3.341-.2,1.085-1.365,2.129-2.707,3.121-4.012a8.47,8.47,0,0,0,2.574.981c-.768,1.091-1.551,2.178-2.339,3.257Zm3.262-4.534a5.026,5.026,0,0,1-2.647-.788q1.612-2.147,3.041-4.141a12.285,12.285,0,0,0,2.171,1.142C352.094,157.705,351.235,158.971,350.353,160.242Zm-3.83-1.5a24.47,24.47,0,0,1-3.224-2.567l3.747-3.747a30.649,30.649,0,0,0,2.57,2.1Q348.166,156.557,346.523,158.745Zm1.495-7.287,3.744-3.744c.411.374.987.861,1.647,1.381-.9,1.337-1.907,2.788-3,4.325A25.656,25.656,0,0,1,348.018,151.458Zm9.838-9.838,2.482-2.724-2.243,2.95Zm-.966-.974-.247-.261,2.936-2.186Zm-.973.973-4.146,4.145c-.338-.379-.736-.852-1.156-1.38,1.952-1.345,3.592-2.43,4.853-3.246C355.611,141.3,355.766,141.458,355.917,141.619Zm-6.135,1.672a20.9,20.9,0,0,1-1.172-1.761,56.285,56.285,0,0,1,5.184-2.665,10.737,10.737,0,0,0,.8,1.2C353.327,140.889,351.7,141.967,349.782,143.291Zm-1.125.782c-1.3.909-2.718,1.919-4.226,3.022a10.116,10.116,0,0,1-1.173-2.292c1.427-.922,2.824-1.793,4.168-2.587C347.776,142.813,348.2,143.446,348.657,144.073Zm-5.334,3.836c-1.313.971-2.691,2.011-4.119,3.113a5.5,5.5,0,0,1-.93-2.876c1.275-.885,2.545-1.746,3.8-2.571A13.073,13.073,0,0,0,343.323,147.909Zm-5.2,3.956q-1.957,1.528-4.02,3.2c-.693-1.448-.92-2.756-.371-3.653l-.023-.015c1.087-.792,2.182-1.581,3.28-2.355A9.058,9.058,0,0,0,338.119,151.865Zm-10.312,8.508q-1.839,1.6-3.707,3.3a5.44,5.44,0,0,1-.168-4.792q1.342-1.078,2.788-2.208A7.539,7.539,0,0,0,327.807,160.373Zm.728,1.185a30.192,30.192,0,0,0,3.393,4.05l-3.741,3.74a24.238,24.238,0,0,1-3.437-4.408Q326.657,163.2,328.535,161.558Zm-1.305,8.748-3.755,3.755a24.769,24.769,0,0,1-3.59-4.533q1.922-1.869,3.837-3.64A26.107,26.107,0,0,0,327.23,170.306Zm-4.728,4.728-3.742,3.742a23.727,23.727,0,0,1-3.594-4.527c.814-.837,1.7-1.735,2.708-2.74.338-.338.677-.669,1.015-1A26.254,26.254,0,0,0,322.5,175.034Zm-7.981-2.089a6.957,6.957,0,0,1,.2-6.039c.136-.137.263-.271.4-.41.567-.567,1.311-1.26,2.174-2.032a8.572,8.572,0,0,0,.911,4.785c-.435.427-.871.855-1.305,1.29C316.039,171.4,315.259,172.191,314.521,172.945Zm-1.916-3.78a8.731,8.731,0,0,0,.888,4.839,44.3,44.3,0,0,0-3.542,4.057c-.963-2.626-.36-5.268,2.357-8.563C312.4,169.389,312.507,169.275,312.605,169.165Zm1.574,6.11a26.15,26.15,0,0,0,3.609,4.472l-3.878,3.879a21.527,21.527,0,0,1-3.292-4.152A35.056,35.056,0,0,1,314.179,175.275Zm-1.242,9.324-1.874,1.873c-1.615-2.109-2.133-3.624-1.227-5.629A24.586,24.586,0,0,0,312.937,184.6Zm1.938,0,3.881-3.881a25.2,25.2,0,0,0,4.81,3.9,32.356,32.356,0,0,1-4.365,3.465A20.675,20.675,0,0,1,314.875,184.6Zm10.006.682a8.265,8.265,0,0,0,4.405.677c-3.451,2.926-6.141,3.538-8.569,2.782A40.109,40.109,0,0,0,324.881,185.284Zm10.9-6.066,0-.007a5.927,5.927,0,0,1-5.041.278q1.818-1.889,3.545-3.783a7.749,7.749,0,0,0,3.816.744C337.285,177.441,336.51,178.368,335.783,179.218Zm17.9-23.944a9.9,9.9,0,0,1-2.14-1.082c1.075-1.516,2.064-2.947,2.959-4.27.594.43,1.2.831,1.778,1.169C355.486,152.439,354.613,153.841,353.687,155.274Zm6.473-11.824a9.014,9.014,0,0,1-1.013-.7c.461-.748.82-1.344,1.058-1.747.345-.58.607-1.077.831-1.535A10.413,10.413,0,0,1,360.16,143.45Zm-1.225-5.982a15.773,15.773,0,0,0-1.568.847c-.274.167-.826.507-1.618,1.011a10,10,0,0,1-.678-.986A10.672,10.672,0,0,1,358.935,137.468ZM323.052,164.64q-1.9,1.755-3.813,3.6a6.1,6.1,0,0,1-.007-5.472c.883-.756,1.852-1.567,2.889-2.418A8.12,8.12,0,0,0,323.052,164.64Zm-14.844,10.866a8.326,8.326,0,0,0,.826,3.915,6.469,6.469,0,0,0-1.018,3.155A7.861,7.861,0,0,1,308.208,175.506Zm7.91,15.181a7.738,7.738,0,0,0,3.133-1.032,7.912,7.912,0,0,0,3.694.766C320.191,191.7,318.049,191.6,316.118,190.687Z"/><path class="cls-1" d="M396.138,153.8a9.979,9.979,0,0,0-13.568-2.363c-4.116,2.881-6.4,10.98-12.581,12.924-4.554,1.433-8.082,2.365-9.524,7.24-3.162,10.694,10.052,16.1,18.413,14.671,9.486-1.625,15.694-8.324,18.789-17.222C399.5,163.792,398.821,157.723,396.138,153.8Zm-30.724,21.655a1.03,1.03,0,0,1,0-2.059A1.03,1.03,0,0,1,365.414,175.458Zm4.689,5.49a1.03,1.03,0,0,1,0-2.059A1.03,1.03,0,0,1,370.1,180.948Zm1.945-8.463a1.03,1.03,0,0,1,0-2.059A1.03,1.03,0,0,1,372.048,172.485Zm3.888,1.715a1.03,1.03,0,0,1,0,2.059A1.03,1.03,0,0,1,375.936,174.2Zm.8,7.32a1.03,1.03,0,0,1,0-2.059A1.03,1.03,0,0,1,376.737,181.52Zm.8-13.5a1.03,1.03,0,0,1,0-2.059A1.03,1.03,0,0,1,377.537,168.024Zm8.007,10.179a1.03,1.03,0,0,1,0-2.059A1.03,1.03,0,0,1,385.544,178.2Z"/><line class="cls-3" x1="31.285" y1="107.109" x2="565.11" y2="107.109"/><line class="cls-3" x1="31.285" y1="224.021" x2="565.11" y2="224.021"/><path class="cls-1" d="M178.858,388.223H178.8a10.185,10.185,0,0,1-.728,2.484l-4.266,11.148h-3.778l-4.373-11.337a10.486,10.486,0,0,1-.756-2.483h-.054V399.1h1.97v2.754h-6.693V399.1h1.646V385.714H159.8V382.96h6.936l4.859,12.551a8.505,8.505,0,0,1,.756,2.565h.054a11.8,11.8,0,0,1,.944-3.374l4.4-11.742h6.856v2.754h-1.971V399.1h1.89v2.754h-7.262V399.1h1.593Z"/><path class="cls-1" d="M195.277,392.866c0-2.132-.89-2.7-2.673-2.7a8.569,8.569,0,0,0-2.347.405v1.89h-3.24v-3.59a12.387,12.387,0,0,1,5.642-1.458c3.778,0,6.181,1.322,6.181,5.426,0,2.321-.081,4.264-.135,6.261H200.3v2.754h-4.751v-.864a7.277,7.277,0,0,1,.189-1.943h-.055c-.944,2.132-2.24,3.13-4.615,3.13-3.185,0-4.723-1.888-4.723-4.1a4.1,4.1,0,0,1,2.834-3.887,18.966,18.966,0,0,1,6.1-.648Zm-1.107,3c-3.077,0-4.049.647-4.049,1.862,0,.837.594,1.7,2.079,1.7,1.512,0,3.022-.971,3.022-3.562Z"/><path class="cls-1" d="M204.053,390.491h-1.835v-2.753h5.48a21.691,21.691,0,0,1-.243,3.239h.054c.566-2.376,1.889-3.563,4.048-3.563a6.021,6.021,0,0,1,1.243.162l-.244,3.374a6.427,6.427,0,0,0-1.214-.135,3.4,3.4,0,0,0-3.509,3.725V399.1h1.781v2.754h-7.1V399.1h1.538Z"/><path class="cls-1" d="M215.312,390.491h-1.835v-2.753h5.615V399.1h1.619v2.754h-6.937V399.1h1.538Zm1.755-9.8a2.355,2.355,0,1,1-2.537,2.348A2.292,2.292,0,0,1,217.067,380.693Z"/><path class="cls-1" d="M232.724,383.85h-2.159V381.1H236.5v18h1.619v2.754h-5.318a10.929,10.929,0,0,1,.325-2.726h-.054a4.826,4.826,0,0,1-4.805,3.049c-3.1,0-5.75-2.24-5.75-6.451,0-3.859,1.863-8.313,7.882-8.313a9.207,9.207,0,0,1,2.321.324ZM232.617,391a6.087,6.087,0,0,0-2.4-.513c-2.727,0-3.752,2.159-3.752,4.346,0,2.213,1.052,4.1,2.887,4.1,2,0,3.267-1.782,3.267-3.941Z"/><path class="cls-1" d="M249.249,392.866c0-2.132-.891-2.7-2.672-2.7a8.588,8.588,0,0,0-2.349.405v1.89h-3.239v-3.59a12.391,12.391,0,0,1,5.642-1.458c3.779,0,6.181,1.322,6.181,5.426,0,2.321-.081,4.264-.134,6.261h1.591v2.754h-4.75v-.864a7.319,7.319,0,0,1,.189-1.943h-.054c-.945,2.132-2.24,3.13-4.616,3.13-3.185,0-4.724-1.888-4.724-4.1a4.1,4.1,0,0,1,2.834-3.887,18.98,18.98,0,0,1,6.1-.648Zm-1.107,3c-3.077,0-4.048.647-4.048,1.862,0,.837.593,1.7,2.078,1.7,1.511,0,3.023-.971,3.023-3.562Z"/><path class="cls-1" d="M255.947,387.738h5.614v11.04c0,6.855-2.753,9.717-7.989,10.176l-.432-3c3.509-.7,4.643-3.131,4.643-7.5v-7.963h-1.836Zm3.59-7.045A2.355,2.355,0,1,1,257,383.041,2.293,2.293,0,0,1,259.537,380.693Z"/><path class="cls-1" d="M269.122,395.646c.108,2.241,1.836,3.617,4.48,3.617a10.433,10.433,0,0,0,4.563-.971l-.19,3a14.106,14.106,0,0,1-5.21.89c-5.452,0-7.746-3.4-7.746-7.314,0-4.4,2.672-7.45,7.1-7.45,4.858,0,6.829,3.671,6.829,8.232Zm5.723-2.591a2.721,2.721,0,0,0-2.862-3.049c-1.727,0-2.726,1.132-2.888,3.049Z"/><path class="cls-1" d="M15.543,439.164H17.7l.108-16.52H15.543v-1.187H21.8c3.833,0,6.236,1.187,6.236,4.858a4.889,4.889,0,0,1-4.4,4.993v.055c1.053.216,1.728,1.215,2.294,2.159l2.106,3.536c1.053,1.754,1.43,2.106,2.321,2.106a4.092,4.092,0,0,0,1-.109v1.3a8.734,8.734,0,0,1-1.268.108c-1.377,0-1.835-.215-2.646-1.565l-2.888-4.859c-.89-1.512-1.511-2.268-3-2.268h-2.3l-.053,7.4H21.67v1.187H15.543Zm6.316-8.692c2.456,0,4.67-1.323,4.67-4,0-2.752-1.566-3.832-4.778-3.832h-2.43l-.054,7.828Z"/><path class="cls-1" d="M44.214,439.623a9.789,9.789,0,0,1-4.427,1.052c-4.508,0-6.8-2.888-6.8-7.5,0-3.834,2.159-7.019,6.1-7.019,4.562,0,5.8,3.752,5.8,7.126H34.5c.055,3.941,1.863,6.1,5.507,6.1a9.058,9.058,0,0,0,4.264-1.162Zm-.837-7.532c0-2.483-1.35-4.642-4.373-4.642a4.494,4.494,0,0,0-4.508,4.642Z"/><path class="cls-1" d="M47.834,439.164h2.024l.055-11.5H47.429v-1.189h2.484l.026-2.32c.081-3.051,2.133-4.778,5.21-4.778a9.671,9.671,0,0,1,2.565.324l-.135,1.268a8.161,8.161,0,0,0-2.349-.4c-2.7,0-3.833,1.592-3.886,3.752l-.028,2.158h3.942v1.189H51.316l-.054,11.5h2.51v1.187H47.834Z"/><path class="cls-1" d="M57.5,439.164h2.214l.107-11.5H57.2v-1.189h4.076c0,1.3-.108,2.97-.216,4.455h.054c.621-2.376,2.133-4.778,4.643-4.778a7,7,0,0,1,1.943.3l-.216,1.349a4.073,4.073,0,0,0-1.7-.35c-2.43,0-4.562,3.023-4.616,6.937l-.054,4.778h2.591v1.187H57.5Z"/><path class="cls-1" d="M80.2,439.623a9.785,9.785,0,0,1-4.427,1.052c-4.508,0-6.8-2.888-6.8-7.5,0-3.834,2.16-7.019,6.1-7.019,4.562,0,5.8,3.752,5.8,7.126H70.486c.055,3.941,1.863,6.1,5.507,6.1a9.065,9.065,0,0,0,4.265-1.162Zm-.837-7.532c0-2.483-1.35-4.642-4.373-4.642a4.494,4.494,0,0,0-4.508,4.642Z"/><path class="cls-1" d="M84.958,436.41l.054,2.348a7.369,7.369,0,0,0,3.375.73c2.671,0,3.616-1.539,3.616-2.781,0-1.188-.567-2-2.375-2.429l-2.375-.567c-2.268-.539-3.671-1.62-3.671-3.67,0-2.3,1.943-3.888,4.831-3.888a10.046,10.046,0,0,1,4.211.864l.054,3.158h-1.3l-.055-2.24a5.831,5.831,0,0,0-2.834-.6c-2.187,0-3.4,1-3.4,2.565,0,1.377.729,2.186,2.348,2.538l2.565.566c2.4.513,3.508,1.592,3.508,3.509,0,2.835-2.1,4.157-5.236,4.157a10.387,10.387,0,0,1-4.535-.918l-.107-3.347Z"/><path class="cls-1" d="M106.421,427.881a9.035,9.035,0,0,0-3-.432c-3.537,0-5.237,2.456-5.237,5.965s1.7,5.966,5.237,5.966a9.484,9.484,0,0,0,4.211-.81v1.377a11.06,11.06,0,0,1-4.265.728c-4.508,0-6.694-3.293-6.694-7.261s2.266-7.261,6.829-7.261a11.253,11.253,0,0,1,4.211.729v3.374h-1.3Z"/><path class="cls-1" d="M116.925,426.153c4.264,0,6.451,3.293,6.451,7.261s-2.187,7.261-6.451,7.261-6.452-3.293-6.452-7.261S112.659,426.153,116.925,426.153Zm0,13.227c3.238,0,4.939-2.457,4.939-5.966s-1.7-5.965-4.939-5.965-4.941,2.456-4.941,5.965S113.685,439.38,116.925,439.38Z"/><path class="cls-1" d="M145.488,419.593l-.107,19.571h2.375v1.187h-3.833c0-.675.107-1.916.215-2.861h-.053a4.677,4.677,0,0,1-4.886,3.185c-2.268,0-5.507-1.458-5.507-6.882,0-4.428,2.592-7.64,6.938-7.64a9.928,9.928,0,0,1,3.427.675l.054-6.047h-3.077v-1.188Zm-1.431,8.531a8.754,8.754,0,0,0-3.346-.675c-3.861,0-5.507,2.672-5.507,6.344,0,2.941,1.134,5.587,4.373,5.587,2.726,0,4.427-2.214,4.453-6.02Z"/><path class="cls-1" d="M161.2,439.623a9.785,9.785,0,0,1-4.427,1.052c-4.508,0-6.8-2.888-6.8-7.5,0-3.834,2.16-7.019,6.1-7.019,4.563,0,5.8,3.752,5.8,7.126H151.484c.055,3.941,1.863,6.1,5.507,6.1a9.065,9.065,0,0,0,4.265-1.162Zm-.837-7.532c0-2.483-1.35-4.642-4.373-4.642a4.494,4.494,0,0,0-4.508,4.642Z"/><path class="cls-1" d="M171.869,439.164h2.079l.054-11.5h-2.43v-1.189h3.86a18.838,18.838,0,0,1-.324,3.321h.055a4.932,4.932,0,0,1,5.074-3.644c2.592,0,4.67,1.187,4.67,5.426,0,2.537-.081,5.048-.108,7.585h2.186v1.187h-5.668v-1.187H183.4c.028-2.511.109-4.994.109-7.5,0-2.834-1.08-4.211-3.591-4.211-2.807,0-4.481,2.51-4.508,5.129l-.054,6.586h2.187v1.187h-5.669Z"/><path class="cls-1" d="M202.268,440.351h-3.617a21.5,21.5,0,0,1,.3-3.158h-.054c-.756,2-2,3.482-4.535,3.482-2.43,0-4.4-1.214-4.4-3.86,0-2.564,2.1-3.833,4.993-4.022l3.752-.243c.027-.431.054-.836.054-1.268,0-2.241-.621-3.833-3.617-3.833a9.992,9.992,0,0,0-3.239.539l-.055,2.322h-1.3l.054-3.185a10.406,10.406,0,0,1,4.751-.972c3.725,0,4.75,2.1,4.75,4.427,0,3.265-.081,5.938-.107,8.584h2.267Zm-7.693-.971a3.815,3.815,0,0,0,3.023-1.458c.972-1.242,1.107-2.241,1.107-4.184-4.94.135-7.235.3-7.235,3.051C191.47,438.327,192.6,439.38,194.575,439.38Z"/><path class="cls-1" d="M205,439.164h2.214l.107-11.5H204.7v-1.189h4.076c0,1.3-.108,2.97-.216,4.455h.054c.621-2.376,2.133-4.778,4.643-4.778a7,7,0,0,1,1.943.3l-.216,1.349a4.073,4.073,0,0,0-1.7-.35c-2.43,0-4.562,3.023-4.616,6.937l-.054,4.778h2.591v1.187H205Z"/><path class="cls-1" d="M229.267,440.351H225.65a21.64,21.64,0,0,1,.3-3.158h-.054c-.756,2-2,3.482-4.535,3.482-2.429,0-4.4-1.214-4.4-3.86,0-2.564,2.1-3.833,4.994-4.022l3.752-.243c.026-.431.054-.836.054-1.268,0-2.241-.622-3.833-3.618-3.833a10,10,0,0,0-3.239.539l-.054,2.322h-1.3l.053-3.185a10.409,10.409,0,0,1,4.751-.972c3.726,0,4.751,2.1,4.751,4.427,0,3.265-.081,5.938-.108,8.584h2.267Zm-7.692-.971a3.814,3.814,0,0,0,3.022-1.458c.972-1.242,1.108-2.241,1.108-4.184-4.941.135-7.235.3-7.235,3.051C218.47,438.327,219.6,439.38,221.575,439.38Z"/><path class="cls-1" d="M231.862,439.164h2.079l.054-11.5h-2.43v-1.189h3.861a18.758,18.758,0,0,1-.325,3.321h.055a4.932,4.932,0,0,1,5.074-3.644c2.592,0,4.67,1.187,4.67,5.426,0,2.537-.081,5.048-.108,7.585h2.186v1.187H241.31v-1.187h2.078c.028-2.511.109-4.994.109-7.5,0-2.834-1.08-4.211-3.591-4.211-2.807,0-4.48,2.51-4.508,5.129l-.053,6.586h2.186v1.187h-5.669Z"/><path class="cls-1" d="M249.494,426.476h4.075l-.135,12.579c-.053,3.509-.89,7.154-6.423,8.4l-.216-1.215c4.8-1,5.236-4.67,5.263-8.232l.108-10.339h-2.672Zm3.266-7.1a1.408,1.408,0,1,1-1.3,1.4A1.306,1.306,0,0,1,252.76,419.378Z"/><path class="cls-1" d="M270.766,440.351h-3.617a21.5,21.5,0,0,1,.3-3.158h-.054c-.755,2-2,3.482-4.535,3.482-2.429,0-4.4-1.214-4.4-3.86,0-2.564,2.1-3.833,4.993-4.022l3.752-.243c.027-.431.054-.836.054-1.268,0-2.241-.62-3.833-3.617-3.833a9.992,9.992,0,0,0-3.239.539l-.055,2.322h-1.294l.053-3.185a10.409,10.409,0,0,1,4.751-.972c3.725,0,4.75,2.1,4.75,4.427,0,3.265-.081,5.938-.107,8.584h2.267Zm-7.693-.971a3.815,3.815,0,0,0,3.023-1.458c.972-1.242,1.107-2.241,1.107-4.184-4.94.135-7.234.3-7.234,3.051C259.969,438.327,261.1,439.38,263.073,439.38Z"/><path class="cls-1" d="M274.521,444.022a4.5,4.5,0,0,0,1.3-2.537c0-1.269-1.187-1.485-1.187-2.268a1.1,1.1,0,0,1,1.215-1.133c.755,0,1.484.756,1.484,2.132a6.35,6.35,0,0,1-2.159,4.454Z"/><path class="cls-1" d="M162.659,468.432l-.026,3.914a26.277,26.277,0,0,1-5.426.729c-5.507,0-9.556-3.185-9.556-9.771,0-6.181,4.1-9.771,10.015-9.771a15.93,15.93,0,0,1,5.263.863l-.054,3.779h-1.4l.054-2.834a14.582,14.582,0,0,0-3.968-.513c-5.047,0-8.394,3.293-8.394,8.637,0,5.21,3.185,8.314,8.232,8.314a17.411,17.411,0,0,0,3.833-.432l.028-2.915Z"/><path class="cls-1" d="M169.439,458.877c-.026,2.888-.107,5.8-.107,8.691,0,2.835,1.079,4.211,3.59,4.211,2.834,0,4.426-2.106,4.48-5.723l.109-5.992h-2.484v-1.187h3.887l-.108,12.687h2.16v1.188h-3.537a18.871,18.871,0,0,1,.325-3.321H177.7a5,5,0,0,1-4.831,3.644c-2.835,0-4.94-1.241-4.94-5.425,0-2.538.081-5.049.108-7.586h-2.375v-1.187Z"/><path class="cls-1" d="M186.234,451.994l-.055,7.179a10.686,10.686,0,0,1-.3,3.024h.054a5.043,5.043,0,0,1,4.993-3.645c3.78,0,5.7,3.051,5.7,6.452,0,4.427-2.051,8.071-7.18,8.071A10.6,10.6,0,0,1,184.722,472l.108-18.815h-2.7v-1.187Zm-.136,19.191a8.029,8.029,0,0,0,3.4.7c3.914,0,5.614-2.807,5.614-6.451,0-2.942-1.187-5.587-4.453-5.587-2.618,0-4.508,2.4-4.535,5.047Z"/><path class="cls-1" d="M212.232,472.752h-3.617a21.5,21.5,0,0,1,.3-3.159h-.054c-.756,2-2,3.482-4.535,3.482-2.43,0-4.4-1.214-4.4-3.86,0-2.565,2.1-3.833,4.993-4.022l3.752-.242c.027-.433.053-.838.053-1.27,0-2.24-.62-3.832-3.616-3.832a9.986,9.986,0,0,0-3.239.539l-.055,2.322h-1.3l.054-3.185a10.388,10.388,0,0,1,4.751-.973c3.725,0,4.75,2.106,4.75,4.428,0,3.266-.081,5.938-.107,8.584h2.267Zm-7.693-.973a3.812,3.812,0,0,0,3.023-1.457c.972-1.242,1.107-2.24,1.107-4.184-4.94.135-7.235.3-7.235,3.05C201.434,470.726,202.568,471.779,204.539,471.779Z"/><path class="cls-1" d="M222.36,471.564h2.294l.108-18.383h-3.077v-1.187h4.481l-.109,19.57h2.4v1.188h-6.1Z"/><path class="cls-1" d="M230.541,471.564h2.375l.081-11.5h-2.672v-1.187H234.4l-.081,12.687H236.8v1.188h-6.262Zm3.05-19.787a1.409,1.409,0,1,1-1.3,1.4A1.307,1.307,0,0,1,233.591,451.777Z"/><path class="cls-1" d="M241.771,451.994l-.053,7.179a10.651,10.651,0,0,1-.3,3.024h.053a5.043,5.043,0,0,1,5-3.645c3.778,0,5.695,3.051,5.695,6.452,0,4.427-2.052,8.071-7.181,8.071A10.6,10.6,0,0,1,240.26,472l.108-18.815h-2.7v-1.187Zm-.134,19.191a8.018,8.018,0,0,0,3.4.7c3.914,0,5.614-2.807,5.614-6.451,0-2.942-1.187-5.587-4.454-5.587-2.618,0-4.508,2.4-4.534,5.047Z"/><path class="cls-1" d="M255,471.564h2.214l.107-11.5h-2.618v-1.187h4.076c0,1.3-.108,2.968-.216,4.454h.054c.621-2.376,2.133-4.779,4.643-4.779a7.04,7.04,0,0,1,1.943.3l-.216,1.35a4.073,4.073,0,0,0-1.7-.35c-2.43,0-4.562,3.023-4.616,6.937l-.054,4.778h2.591v1.188H255Z"/><path class="cls-1" d="M277.706,472.022a9.771,9.771,0,0,1-4.427,1.053c-4.508,0-6.8-2.888-6.8-7.5,0-3.833,2.16-7.019,6.1-7.019,4.562,0,5.8,3.752,5.8,7.127H267.988c.055,3.941,1.863,6.1,5.507,6.1a9.076,9.076,0,0,0,4.265-1.16Zm-.837-7.53c0-2.485-1.35-4.643-4.373-4.643a4.494,4.494,0,0,0-4.508,4.643Z"/><line class="cls-3" x1="31.285" y1="352.021" x2="565.11" y2="352.021"/><path class="cls-2" d="M517.327,156.776a1.487,1.487,0,0,1-.6-.958,27.168,27.168,0,0,0-1.547-5.4l-.029-.068a1.14,1.14,0,0,0-.75-.8,5.217,5.217,0,0,0-.361-.742c-.073-.131-.147-.262-.213-.4a.3.3,0,0,1-.047-.166.213.213,0,0,1,.081-.09,4.36,4.36,0,0,0,1.323-2.432c.067-.229.135-.459.212-.688a.326.326,0,0,0-.045-.3.2.2,0,0,0-.247-.054,1.063,1.063,0,0,0-.494.581,6.584,6.584,0,0,0-.379,1.01,1.706,1.706,0,0,1-.66,1.026.993.993,0,0,1-.673-.2,1.944,1.944,0,0,0-.027-.5.942.942,0,0,1-.01-.367l.1-.352a8.688,8.688,0,0,1,.805-2.2,11.458,11.458,0,0,1,1.675-2.052l.412-.431a4.919,4.919,0,0,0,.851-1.068.335.335,0,0,0-.023-.36.2.2,0,0,0-.292-.019A28.406,28.406,0,0,0,514.122,142a7.144,7.144,0,0,0-1.838,3.3,2.37,2.37,0,0,1-.071.261,2.33,2.33,0,0,1-.071-.751,3.443,3.443,0,0,0-.7-2.26c-.1-.121-.2-.234-.309-.349a3.784,3.784,0,0,1-.658-.874.207.207,0,0,0-.245-.114.3.3,0,0,0-.18.253,1.558,1.558,0,0,0,.344,1.231l.039.053a3.521,3.521,0,0,1,.585.967,3.124,3.124,0,0,1,.227,1.1,2.409,2.409,0,0,1-.337-.382,7.338,7.338,0,0,1-1.205-2.6,3.946,3.946,0,0,0-.533-1.166.312.312,0,0,0-.348-.158c-.052.012-.313.1-.29.517a1.87,1.87,0,0,0,.072.446c.144.476.292.95.449,1.419a9.1,9.1,0,0,0,.765,1.714,7.211,7.211,0,0,0-2.246.565c-.16.059-.319.118-.479.174-5.2,1.83-10.133,4.121-12.5,5.221-.687.318-1.229.57-1.335.6a3.261,3.261,0,0,0-1.653,1.225l-.215.284a10.93,10.93,0,0,0-1.329,2.077,2.41,2.41,0,0,1-.189.317l-.078.118c-.243.381-.477.643-.827.689a1.539,1.539,0,0,0-.576.255,11.241,11.241,0,0,0-4.114,4.583c-.679,1.322-.679,1.322-2,1.325-.026,0-.054-.007-.084-.011s-.072-.013-.1-.016l-.809-.067a.256.256,0,0,0-.251.223.285.285,0,0,0,.127.326,4.716,4.716,0,0,0,2.393.286l.083-.005c-.039.075-.082.147-.126.221a2.365,2.365,0,0,0-.263.541,1.474,1.474,0,0,1-.538.778,5.391,5.391,0,0,0-1.778,2.275c-.773,1.806-1.635,3.75-1.817,4.017a4.856,4.856,0,0,0-.8,2.1,7.055,7.055,0,0,1-.86,1.3,3.707,3.707,0,0,0-.982,2c-.2,1.266-.973,5.893-1.138,6.782a1.8,1.8,0,0,1-.584,1.1c-.126.106-.25.218-.373.329a6.448,6.448,0,0,1-.8.645,6.038,6.038,0,0,0-1.8,2.053,5.179,5.179,0,0,0-.876,4.027.226.226,0,0,1-.067.038,1.408,1.408,0,0,1-1.029-.027c-.6-.186-1.193-.4-1.787-.6l-.817-.287c-.1-.036-.2-.071-.305-.105a.394.394,0,0,0-.5.307.44.44,0,0,0,.2.534c.062.038.127.071.193.1l.094.048a8.537,8.537,0,0,0,1.3.524c.29.1.58.2.863.32a2.841,2.841,0,0,0,1.476.2,2.561,2.561,0,0,1-.766.25,11.946,11.946,0,0,1-2.407.034.251.251,0,0,0-.236.191.311.311,0,0,0,.067.324,1.194,1.194,0,0,0,.753.367,6.226,6.226,0,0,0,2.654-.232c-.091.073-.183.146-.275.216a4.508,4.508,0,0,1-1.385.743,4.188,4.188,0,0,1-1.388.141l-.085-.008a.465.465,0,0,0-.578.306c-.027.081-.043.093-.179.132-.041.011-.081.024-.12.038a10.436,10.436,0,0,0-1.213.582,2.212,2.212,0,0,0-.827.71.359.359,0,0,0-.022.267.3.3,0,0,0,.166.2.371.371,0,0,0,.1.029.2.2,0,0,0,.154-.042,7,7,0,0,1,4.478-1.277,2.186,2.186,0,0,0,1.741-.664c.1-.1.2-.189.3-.28a4.15,4.15,0,0,0,.72-.785c.042-.065.065-.076.065-.076s.018,0,.067.042a1.822,1.822,0,0,0,.715.354l.068.022a6.132,6.132,0,0,0,3.978-.37,10.143,10.143,0,0,0,2.5-1.436,1.593,1.593,0,0,1,.657-.29l.46-.084c.351-.064.7-.128,1.047-.207a4.29,4.29,0,0,1,1.094-.107l.356.014a10.355,10.355,0,0,0,2.6-.128.512.512,0,0,1,.3.027,2.18,2.18,0,0,0,1.4-.014,28.436,28.436,0,0,0,3.294-1.194l.467-.19a4.511,4.511,0,0,0,.823-.427c.275-.183.552-.36.83-.538.627-.4,1.276-.818,1.893-1.3.457-.355.941-.685,1.409-1,.3-.205.6-.41.9-.623.107-.076.607-.323,1.091-.561a9.035,9.035,0,0,0,2.446-1.4,1.627,1.627,0,0,0,.095-.176.715.715,0,0,1,.07-.127,5.845,5.845,0,0,0,.717-.769,6.708,6.708,0,0,1,.5-.561,3.422,3.422,0,0,0,.8-1.317c.076-.208.146-.419.215-.629.045-.136.09-.272.137-.406.069-.2.469-.756.715-.807.039-.007.059,0,.108.08a3.217,3.217,0,0,0,.9,1.071.193.193,0,0,0,.227-.009.326.326,0,0,0,.121-.246.73.73,0,0,0-.258-.6,4.218,4.218,0,0,1-.443-.671l-.127-.219a.243.243,0,0,1-.041-.1.232.232,0,0,1,.077-.09,20.9,20.9,0,0,0,1.966-1.988c.485-.549,4.888-5.669,5.344-6.693a27.318,27.318,0,0,1,1.637-3.182,7.2,7.2,0,0,0,.658-1.359,19.133,19.133,0,0,0,.848-3.081,12.051,12.051,0,0,0,.1-3.295,9.585,9.585,0,0,1,.259-3.805,1.606,1.606,0,0,0,.072-.562c-.006-.123-.01-.247-.015-.371-.007-.2-.013-.407-.032-.615a17.128,17.128,0,0,1,.579,2.359,4.414,4.414,0,0,0,.144.659c.23.689.613,1.049,1.181,1.058a.254.254,0,0,0,.234-.207A.307.307,0,0,0,517.327,156.776Zm-43.14,33.72a.948.948,0,0,1,.2-1.884A.948.948,0,0,1,474.187,190.5Zm4.912-1.383a.948.948,0,0,1,.2-1.885A.948.948,0,0,1,479.1,189.113Zm.5-4.712a.948.948,0,0,1,.2-1.884A.948.948,0,0,1,479.6,184.4Zm3.188-12.049a.948.948,0,0,1,.2-1.885A.948.948,0,0,1,482.788,172.352Zm2.125,6.9a.948.948,0,0,1-.2,1.884A.948.948,0,0,1,484.913,179.249Zm.04,8.581a.948.948,0,0,1,.2-1.885A.948.948,0,0,1,484.953,187.83Zm7-3.068a.948.948,0,0,1,.2-1.884A.948.948,0,0,1,491.95,184.762Z"/><path class="cls-1" d="M363.773,396.426H326.951a.729.729,0,0,0-.729.729v.624a1.076,1.076,0,0,0,.316.763l1.124,1.124.4,2.728a.6.6,0,0,0,.593.512h.083v2.16a.6.6,0,0,0,.6.6v3.12a.6.6,0,0,0,.6.6h.24l1.662,20.66a.6.6,0,0,0,.174.376l.5.5.413,8.92a.6.6,0,0,0,.075.263l.532.957v2.2a.6.6,0,0,0,.12.36l.6.8h22.2l.6-.8a.6.6,0,0,0,.12-.36v-2.2l.531-.957a.6.6,0,0,0,.075-.263l.414-8.92.5-.5a.6.6,0,0,0,.173-.376l1.663-20.66h.24a.6.6,0,0,0,.6-.6v-3.12a.6.6,0,0,0,.6-.6v-2.16h.082a.6.6,0,0,0,.594-.512l.4-2.728,1.123-1.124a1.077,1.077,0,0,0,.317-.763v-.624A.73.73,0,0,0,363.773,396.426Z"/><path class="cls-2" d="M410.278,393.4a3.111,3.111,0,0,0-3.058-2.544H393.074l-.11-17.3a3.229,3.229,0,0,0-3.225-3.2h-.02a3.205,3.205,0,0,0-2.874,1.8l-3.761,16.008,1.947.455,3.655-15.667a1.219,1.219,0,0,1,1.045-.6h.008a1.228,1.228,0,0,1,1.225,1.218l.11,17.282h-4.139a3.111,3.111,0,0,0-3.1,2.881l-.469,4.237a.5.5,0,0,0,.975.2l.293-1.171.272,44a3.439,3.439,0,0,0,3.44,3.419H406.1a3.436,3.436,0,0,0,3.441-3.41c.081-10.874.3-44.013-.026-44.013l.413,1.344a.5.5,0,0,0,.939-.314Z"/><g id="_6cL8vP" data-name="6cL8vP" class="cls-4"><path class="cls-1" d="M453.673,367.535c.62.047.895.292,1.037.952,1.324,6.141,2.84,12.25,3.241,18.548a49.609,49.609,0,0,1,.047,6.347c-.3,4.6-2.633,8.24-5.726,11.479a20.408,20.408,0,0,1-5.833,4.062c-1.252.621-1.474,2.791-1.474,2.791v23.124a4.547,4.547,0,0,0,3.906,3.19c1.867.224,3.731.482,5.586.793a7.079,7.079,0,0,1,1.9.65c1.181.577,1.287,1.438.166,2.1a14.885,14.885,0,0,1-3.662,1.626,33.434,33.434,0,0,1-19.754-.534,6.278,6.278,0,0,1-1.721-.816c-.45-.334-1.053-.894-1.025-1.318s.69-.991,1.187-1.16a26.106,26.106,0,0,1,3.8-.926c1.421-.251,3.135-.34,4.56-.574,2.268-.373,2.861-3.027,2.861-3.027V411.714s-.4-2.341-1.833-3.046a18.635,18.635,0,0,1-11.464-18.79,91.512,91.512,0,0,1,2.651-18.127c.251-1.113.52-2.224.727-3.346a.881.881,0,0,1,.91-.852C437.106,367.3,450.391,367.287,453.673,367.535Z"/></g><path class="cls-2" d="M495.527,394.628a4.543,4.543,0,0,1-1.289-1.757v-2.578a32.659,32.659,0,0,0,0-5.859c-.352-3.515-1.758-13.365-2.109-15.709.7-1.054,1.289-.226,1.289-1.046v-1.524a2.9,2.9,0,0,0-2.93-2.929H484.4a2.9,2.9,0,0,0-2.929,2.929v1.524c0,.82.586.109,1.289,1.046-.352,2.226-1.758,12.194-2.109,15.709a32.566,32.566,0,0,0,0,5.859c0,1.054.117,2.343.117,2.578a3.967,3.967,0,0,1-1.289,1.64,7.57,7.57,0,0,0-2.812,6.444v37.378a6.051,6.051,0,0,0,6.093,6.093h9.608a6.051,6.051,0,0,0,6.093-6.093V400.955A8.241,8.241,0,0,0,495.527,394.628Z"/><path class="cls-1" d="M549.787,416.289c0-6.194-.057-11.563.026-17.756.037-2.741-.085-2.774-2.254-4.911a3.864,3.864,0,0,1-1.143-2.807c.083-1.225-.856-1.824-2.154-1.817-.27,0-1.728,0-3.649,0l1.722-1.023a1,1,0,0,0-1.021-1.721L536.7,389c-3.322,0-6.694-.011-7.711-.028-.016,0-.031.016-.045.036-.84,0-1.68,0-2.519-.01-1.3-.007-2.237.592-2.154,1.817a3.864,3.864,0,0,1-1.143,2.807c-2.169,2.137-2.292,2.17-2.255,4.911.083,6.193.026,11.562.026,17.756,0,6.606.109,13.216-.071,19.819-.049,1.789.527,3.238,1.853,3.717,1.919.692,2.561.5,3.124,2.023a2.443,2.443,0,0,0,2.767,1.722c.383,0,13.164,0,13.547,0a2.443,2.443,0,0,0,2.767-1.722c.563-1.518,1.205-1.331,3.124-2.023,1.326-.479,1.9-1.928,1.854-3.717C549.679,429.505,549.787,422.9,549.787,416.289Z"/><g class="cls-4"><path class="cls-1" d="M554.127,141.327a3.864,3.864,0,0,1,1.36,2.622c.266,1.234.39,1.275.708,1.211a5.88,5.88,0,0,0,1.82-.819,3.92,3.92,0,0,1,2.5-.8c-.279-2.542-6.279-2.41-6.279-2.41-.048.058-.083.126-.127.187C554.116,141.323,554.122,141.323,554.127,141.327Z"/><path class="cls-1" d="M558.419,155.564c-2.612-1.379.049-7.742,1.63-10.379a3.976,3.976,0,0,0,.315-.648,3.169,3.169,0,0,0-1.836.663,6.758,6.758,0,0,1-2.135.94c-1.4.281-1.678-1.026-1.883-1.98a3.233,3.233,0,0,0-.866-1.932c-.965,2.714.185,7.274-.351,9.782-2.321,10.877-7.186,38.645-50.44,47.931,0,0-3.4,4.676,1.047,5.2,6.793.8,31.054,7.646,50-10.861C569.352,179.178,568.693,160.986,558.419,155.564Zm-2.785,18.452a44.073,44.073,0,0,1-12.49,16.687,49.057,49.057,0,0,1-21.709,10.07,46.771,46.771,0,0,1-9.34,1.016.5.5,0,1,1,.028-1c.169,0,16.969.336,30.38-10.855,12.571-10.489,15.6-23.972,13.638-27.96a.5.5,0,0,1,.9-.442C558.287,164.066,557.748,168.849,555.634,174.016Z"/></g><path class="cls-2" d="M433.851,169.445c.6-.942,1.25-1.835,1.919-2.7-.567-.629-1.116-1.274-1.668-1.916l-1.561,1.745c-4.057,4.539-8.168,9.029-12.277,13.521.59.857,1.161,1.73,1.733,2.6,1.365-1.006,2.7-2.048,3.974-3.194C429.229,176.558,431.5,173.115,433.851,169.445Z"/><path class="cls-2" d="M413.153,197.3a128.125,128.125,0,0,0,12.279-8.3l-.238-.294c-.616-.758-1.193-1.563-1.761-2.382-3.891,3.072-7.828,6.089-11.735,9.142Q412.409,196.4,413.153,197.3Z"/><path class="cls-2" d="M464.69,140.762a58.863,58.863,0,0,0-6.743,6.317c-2.11,2.183-4.3,4.245-6.59,6.223.669.506,1.339,1.011,2.02,1.5C457.115,150.1,460.932,145.453,464.69,140.762Z"/><path class="cls-2" d="M439.745,170.906c-.469-.467-.945-.926-1.4-1.4-.648-.671-1.276-1.361-1.906-2.048-1.216,1.674-2.341,3.419-3.487,5.2-2.865,4.45-6.543,7.662-10.5,10.712q.555.837,1.133,1.653c4.564-3.621,9.051-7.335,13.317-11.311C437.871,172.8,438.815,171.857,439.745,170.906Z"/><path class="cls-2" d="M444.709,149.476a17.207,17.207,0,0,1-2.875,2.731c-1.223.872-2.76,1.212-3.892,2.2-2.185,1.9-3.074,4.876-5.152,6.882-.08.077-.172.139-.255.212.057.071.112.143.169.213.46.568.942,1.117,1.413,1.675,3.916-4.378,7.93-8.773,12.186-12.9-.477-.4-.948-.81-1.417-1.22C444.826,149.338,444.769,149.407,444.709,149.476Z"/><path class="cls-2" d="M452.3,141.645c-2.8,1.886-4.682,4.395-6.793,6.9q.739.647,1.489,1.279a89.462,89.462,0,0,1,16.474-12.756A27.749,27.749,0,0,0,452.3,141.645Z"/><path class="cls-2" d="M434.735,164.118q.813.945,1.645,1.869c3.865-4.777,8.629-8.572,13.4-12.562l.08-.069q-1.428-1.1-2.817-2.258C442.746,155.255,438.7,159.694,434.735,164.118Z"/><path class="cls-2" d="M449.271,155.068c-2.989,2.462-6.039,4.866-8.792,7.6a37.1,37.1,0,0,0-3.464,4.017c.467.509.922,1.029,1.4,1.529.651.685,1.322,1.348,1.99,2.015,4.433-4.624,8.395-9.643,12.38-14.681-.731-.527-1.45-1.07-2.167-1.615C450.169,154.31,449.725,154.694,449.271,155.068Z"/><path class="cls-2" d="M407.6,191.018c-.028-.043-.058-.085-.087-.128-.1.23-4.246,6.4-4.343,6.616C403.3,197.326,407.471,191.2,407.6,191.018Z"/><path class="cls-2" d="M412.174,197.606c-.413-.509-.81-1.038-1.2-1.577q-3.941,3.087-7.793,6.279l.385-.1a76.476,76.476,0,0,0,8.758-4.418Z"/><path class="cls-2" d="M465.68,136.894a85.685,85.685,0,0,0-17.952,13.539q1.416,1.17,2.868,2.291c5.65-4.918,9.552-10.271,15.949-14.432,0,0,.555-.833.4-.926.281-.066.584-.128.925-.226a3.089,3.089,0,0,0,2.189-2.408,6.44,6.44,0,0,1-2.47,1.5,4.729,4.729,0,0,0-1.512.629A.669.669,0,0,0,465.68,136.894Z"/><path class="cls-2" d="M418.177,178.778c-3.1,4.172-6.459,8.145-9.508,12.349l.122.185q5.126-5.709,10.316-11.358C418.808,179.551,418.492,179.165,418.177,178.778Z"/><path class="cls-2" d="M408.156,191.855c-.2.285-4.979,6.387-5.178,6.674.225-.251,5.02-6.324,5.244-6.575C408.2,191.921,408.178,191.888,408.156,191.855Z"/><path class="cls-2" d="M429.3,163.7a17.489,17.489,0,0,0-4.27,4.429c-1.748,2.593-3.148,5.4-4.931,7.977-.446.645-.908,1.277-1.37,1.91q.5.63.974,1.285c4.244-4.638,8.489-9.277,12.674-13.969l1.1-1.23c-.143-.171-.294-.335-.437-.506-.406-.487-.8-1.013-1.2-1.543C431.016,162.634,430.118,163.11,429.3,163.7Z"/><path class="cls-2" d="M408.763,192.77q-3,3.352-5.96,6.742a63.91,63.91,0,0,0,6.438-6.017Z"/><path class="cls-2" d="M418.117,177.272c.71-.981,1.406-1.972,2.074-2.984,1.649-2.5,2.929-5.263,4.745-7.649a18.016,18.016,0,0,1,3.265-3.293c.978-.763,2.057-1.352,3.041-2.068a16.791,16.791,0,0,0-1.29-1.478c-.165.214-.347.442-.567.7-2.22,2.6-4.93,1.318-6.21,4.028s-5.719,7.9-6.057,10.727a2.115,2.115,0,0,1-.22.717Q417.535,176.6,418.117,177.272Z"/><path class="cls-2" d="M400.371,201.087l.069-.007c.4-.223.8-.463,1.2-.734a.543.543,0,0,1-.228-.243c-.373.011-.747.015-1.119.04a16.584,16.584,0,0,0-4.152.81A16.711,16.711,0,0,0,400.371,201.087Z"/><path class="cls-2" d="M408.118,190.287c3.045-4.158,6.374-8.106,9.434-12.254q-.606-.694-1.261-1.336a7.9,7.9,0,0,0-2.447,1.982c-2.333,3.538-5.177,9.085-5.177,9.085-.263.8-.52,1.521-.775,2.184Z"/><path class="cls-2" d="M415.967,187.063c1.761-1.34,3.577-2.588,5.361-3.881q-.813-1.233-1.661-2.436-5.19,5.671-10.336,11.382c.167.253.333.506.5.756A61.8,61.8,0,0,1,415.967,187.063Z"/><path class="cls-2" d="M470.973,142.025l-.062-.035a3.883,3.883,0,0,0-1.132-2.256l-.29-.249q.984.468,1.988.884l1.267.485a3.324,3.324,0,0,0,1.49.225,4.375,4.375,0,0,0,2.466-1.36,7.1,7.1,0,0,1-2.5.621,3.135,3.135,0,0,1-1.135-.322l-1.238-.526a34.566,34.566,0,0,0-3.349-1.144c.641,2.112-.223,4.451-1.078,6.424a38.456,38.456,0,0,1-5.612,9.018c-1.192,1.454-2.467,2.827-3.788,4.154.521.335,1.047.661,1.574.989,2.373-1.668,5.611-3.855,7.022-5.622,1.363-1.707,4.369-6.609,4.38-10.345a5.906,5.906,0,0,0,1.006.617,4.068,4.068,0,0,0,1.734.386,2.366,2.366,0,0,0,1.643-.618,5.669,5.669,0,0,1-2.987-.631C471.907,142.519,471.449,142.268,470.973,142.025Z"/><path class="cls-2" d="M431.932,160.73a7.491,7.491,0,0,0,.927-.932c1.8-2.195,2.83-5.23,5.349-6.771,1.363-.833,2.775-1.254,4-2.334a19.8,19.8,0,0,0,1.971-2.051c-.595-.528-1.181-1.066-1.766-1.6a23.6,23.6,0,0,1-2.517,3.389c-3.025,3.336-3.477,1.134-6.355,4.249a18.146,18.146,0,0,0-3.049,4.365A21.34,21.34,0,0,1,431.932,160.73Z"/><path class="cls-2" d="M457.312,158.625c-4.022,3.942-8.444,7.489-12.486,11.406-.771.746-1.515,1.519-2.243,2.306,1.119,1.056,2.264,2.081,3.423,3.093,2.056-2.43,5.665-5.341,7.444-7.948,1.881-2.757,2.219-5.58,4.327-7.236.277-.218.6-.46.964-.719C458.264,159.228,457.785,158.931,457.312,158.625Z"/><path class="cls-2" d="M441.947,173.047c-4.529,5.019-8.467,10.6-13.7,14.927-.472.391-.96.785-1.458,1.18.42.5.871.965,1.3,1.45,2.5-1.2,3.638-1.512,7.7-6.269,4.256-4.978,7.583-5.906,9.588-8.182C444.224,175.137,443.072,174.107,441.947,173.047Z"/><path class="cls-2" d="M401.551,202.43c2.913-2.448,5.888-4.823,8.886-7.171-.224-.323-.45-.644-.67-.972-2.924,3.009-9.13,7.965-9.215,8.093a7.06,7.06,0,0,0-2.9.466,6.518,6.518,0,0,0-3.041,2.272c1.2-.472,2.26-.971,3.38-1.388.716-.283,1.447-.532,2.193-.787l-.017.026s.116-.02.324-.06a28.65,28.65,0,0,0-2.176,4.3A52.142,52.142,0,0,0,401.551,202.43Z"/><path class="cls-2" d="M412.941,198.554c-1.114.642-2.228,1.245-3.337,1.827,1.181-.419,2.411-.893,3.658-1.431Z"/><path class="cls-2" d="M426.037,189.747a116.55,116.55,0,0,1-12.256,8.317c.136.16.284.309.421.468,1.313-.6,2.631-1.26,3.912-2,4.655-2.691,6.135-3.959,9.019-5.447C426.758,190.635,426.392,190.187,426.037,189.747Z"/><path class="cls-2" d="M411.133,194.718c3.918-3.06,7.866-6.086,11.767-9.168q-.561-.833-1.116-1.679c-1.738,1.322-3.524,2.625-5.316,4a62.513,62.513,0,0,0-6.094,5.793c.179.256.354.515.537.766C410.984,194.525,411.06,194.62,411.133,194.718Z"/><path class="cls-2" d="M441.226,172.376c-.274-.262-.54-.534-.811-.8-.924.945-1.862,1.878-2.833,2.783-4.31,4.016-8.845,7.765-13.458,11.421q1,1.347,2.062,2.639c.078-.062.161-.124.239-.185C432.2,183.724,436.316,177.713,441.226,172.376Z"/><path class="cls-2" d="M444.788,147.913c.32-.392.637-.787.954-1.179,4.7-5.816,11.1-9.872,18.609-10.733-.121-.054-.239-.109-.366-.164a9.59,9.59,0,0,0-1.208-1.489,11.84,11.84,0,0,0-1.825-1.5,9.771,9.771,0,0,0-2.132-1.072,5.52,5.52,0,0,0-2.364-.316,21.272,21.272,0,0,1,3.972,2.176c.633.406,1.242.854,1.874,1.282q.415.291.84.578a14.366,14.366,0,0,0-6.084-1.1c-4.817.377-7.263,4.856-10.424,7.34a15.658,15.658,0,0,0-3.708,4.49C443.543,146.79,444.161,147.356,444.788,147.913Z"/><path class="cls-2" d="M458.1,156.491a44.134,44.134,0,0,0,6.766-8.8c1.327-2.339,3.636-6.179,2.721-9.052-4.43,5.61-8.99,11.114-13.437,16.709q1.5,1.057,3.028,2.066C457.487,157.1,457.8,156.8,458.1,156.491Z"/><path class="cls-2" d="M442.523,170.985c4.426-4.541,9.435-8.463,13.971-12.887q-1.487-.98-2.936-2.01c-.026.034-.053.067-.08.1-4,5.049-7.965,10.08-12.409,14.712.267.262.54.517.81.776C442.1,171.447,442.3,171.211,442.523,170.985Z"/></svg>