<?xml version="1.0" encoding="utf-8"?>
<!-- Generator: Adobe Illustrator 21.0.0, SVG Export Plug-In . SVG Version: 6.00 Build 0)  -->
<svg version="1.1" id="Layer_1" xmlns="http://www.w3.org/2000/svg" xmlns:xlink="http://www.w3.org/1999/xlink" x="0px" y="0px"
	 viewBox="0 0 740 269" style="enable-background:new 0 0 740 269;" xml:space="preserve">
<style type="text/css">
	.st0{fill:#FFFFFF;}
</style>
<g>
	<path class="st0" d="M47.7,101.2C24.1,101.2,6.6,83,6.6,60v-0.2c0-22.8,17.2-41.4,41.8-41.4c15.1,0,24.2,5,31.6,12.4L68.8,43.7
		c-6.2-5.6-12.5-9-20.5-9c-13.5,0-23.2,11.2-23.2,25v0.2C25,73.5,34.5,85,48.3,85c9.2,0,14.8-3.7,21.1-9.4l11.2,11.3
		C72.3,95.7,63.2,101.2,47.7,101.2z"/>
	<path class="st0" d="M94.6,99.9V19.7h17.6v64.1h40v16H94.6z"/>
	<path class="st0" d="M166.3,99.9V19.7h17.6v80.1H166.3z"/>
	<path class="st0" d="M241.5,101.2c-23.6,0-41.1-18.2-41.1-41.2v-0.2c0-22.8,17.2-41.4,41.8-41.4c15.1,0,24.2,5,31.6,12.4
		l-11.2,12.9c-6.2-5.6-12.5-9-20.5-9c-13.5,0-23.2,11.2-23.2,25v0.2c0,13.7,9.5,25.2,23.2,25.2c9.2,0,14.8-3.7,21.1-9.4l11.2,11.3
		C266.1,95.7,257,101.2,241.5,101.2z"/>
	<path class="st0" d="M340.2,99.9l-24.8-34.1l-9.3,9.6v24.5h-17.6V19.7h17.6v35l32.5-35h21.3l-32.6,34l34.1,46.1H340.2z"/>
	<path class="st0" d="M437.4,75.8H424v24h-17.6V19.7h32.7c19.1,0,30.7,11.3,30.7,27.7v0.2C469.8,66.2,455.4,75.8,437.4,75.8z
		 M451.9,47.8c0-7.9-5.5-12.1-14.3-12.1H424v24.5h14c8.8,0,14-5.3,14-12.1V47.8z"/>
	<path class="st0" d="M534.5,99.9l-7.3-18h-33.9l-7.3,18h-18l34.3-80.7h16.3l34.3,80.7H534.5z M510.2,40.3l-10.6,26h21.3L510.2,40.3
		z"/>
	<path class="st0" d="M613.9,99.9l-17.2-25.6h-13.9v25.6h-17.6V19.7h36.6c18.9,0,30.2,10,30.2,26.4v0.2c0,12.9-7,21.1-17.2,24.8
		l19.6,28.6H613.9z M614.3,47.1c0-7.6-5.3-11.4-13.9-11.4h-17.5v23h17.9c8.6,0,13.5-4.6,13.5-11.3V47.1z"/>
	<path class="st0" d="M707.7,99.9l-7.3-18h-33.9l-7.3,18h-18l34.3-80.7h16.3l34.3,80.7H707.7z M683.4,40.3l-10.6,26h21.3L683.4,40.3
		z"/>
	<path class="st0" d="M70.7,237.8H55.1l-32.4-80.7h19.5l20.9,56.4l21-56.4h19L70.7,237.8z"/>
	<path class="st0" d="M115.5,237.2v-80.1h60.4v15.7H133V189h37.8v15.7H133v16.8h43.5v15.7H115.5z"/>
	<path class="st0" d="M240.8,237.2l-17.2-25.6h-13.9v25.6h-17.6v-80.1h36.6c18.9,0,30.2,10,30.2,26.4v0.2c0,12.9-7,21.1-17.2,24.8
		l19.6,28.6H240.8z M241.2,184.5c0-7.6-5.3-11.4-13.9-11.4h-17.5v23h17.9c8.6,0,13.5-4.6,13.5-11.3V184.5z"/>
	<path class="st0" d="M326.9,173.1v17.1h38.2v16h-38.2v31h-17.6v-80.1h61v16H326.9z"/>
	<path class="st0" d="M423.3,238.6c-24.7,0-42.5-18.4-42.5-41.2v-0.2c0-22.8,18-41.4,42.7-41.4c24.7,0,42.5,18.4,42.5,41.2v0.2
		C466,220,448,238.6,423.3,238.6z M447.6,197.2c0-13.7-10.1-25.2-24.3-25.2c-14.2,0-24,11.2-24,25v0.2c0,13.7,10.1,25.2,24.3,25.2
		c14.2,0,24-11.2,24-25V197.2z"/>
	<path class="st0" d="M514.5,173.4v63.9h-17.6v-63.9h-24.4v-16.3h66.4v16.3H514.5z"/>
	<path class="st0" d="M587.9,238.6c-24.7,0-42.5-18.4-42.5-41.2v-0.2c0-22.8,18-41.4,42.7-41.4c24.7,0,42.5,18.4,42.5,41.2v0.2
		C630.6,220,612.7,238.6,587.9,238.6z M612.2,197.2c0-13.7-10.1-25.2-24.3-25.2c-14.2,0-24,11.2-24,25v0.2
		c0,13.7,10.1,25.2,24.3,25.2c14.2,0,24-11.2,24-25V197.2z"/>
	<path class="st0" d="M674.2,238.4c-12.1,0-24.4-4.2-34-12.8l10.4-12.5c7.2,6,14.8,9.7,23.9,9.7c7.2,0,11.6-2.9,11.6-7.6V215
		c0-4.5-2.7-6.8-16.1-10.2c-16.1-4.1-26.6-8.6-26.6-24.5v-0.2c0-14.5,11.7-24.2,28-24.2c11.7,0,21.6,3.7,29.8,10.2l-9.2,13.3
		c-7.1-4.9-14.1-7.9-20.8-7.9c-6.8,0-10.3,3.1-10.3,7v0.2c0,5.3,3.4,7,17.3,10.5c16.3,4.2,25.4,10.1,25.4,24v0.2
		C703.7,229.5,691.5,238.4,674.2,238.4z"/>
</g>
</svg>
