<?xml version="1.0" encoding="utf-8"?>
<!-- Generator: Adobe Illustrator 21.0.0, SVG Export Plug-In . SVG Version: 6.00 Build 0)  -->
<svg version="1.1" id="Layer_1" xmlns="http://www.w3.org/2000/svg" xmlns:xlink="http://www.w3.org/1999/xlink" x="0px" y="0px"
	 viewBox="0 0 30 30.2" style="enable-background:new 0 0 30 30.2;" xml:space="preserve">
<style type="text/css">
	.st0{fill:#231F20;}
</style>
<g>
	<g>
		<path class="st0" d="M28.4,14.9c0.1,0,0.2,0,0.2-0.1l-0.2-0.1V14.9z"/>
		<path class="st0" d="M28.8,14.1c-0.1-0.1-0.3-0.3-0.5-0.2c0.2,0.1,0.1,0.2,0.4,0.3c0,0.1-0.1,0.2-0.1,0.2c0.1,0,0,0.2,0.1,0.3
			C28.9,14.5,28.9,14.3,28.8,14.1C28.7,14,28.7,14.1,28.8,14.1z"/>
		<path class="st0" d="M23.1,3.2L23.1,3.2C23.1,3.3,23.1,3.2,23.1,3.2z"/>
		<path class="st0" d="M15.7,0.5C15.8,0.5,15.8,0.5,15.7,0.5C15.8,0.4,15.7,0.5,15.7,0.5z"/>
		<path class="st0" d="M14.4,0.2L14.4,0.2L14.4,0.2z"/>
		<path class="st0" d="M23.1,3.2L23,3C22.9,3.1,23,3.1,23.1,3.2z"/>
		<path class="st0" d="M28,12.5C28.1,12.5,28.1,12.5,28,12.5C28.1,12.5,28.1,12.5,28,12.5C28.1,12.5,28.1,12.5,28,12.5z"/>
		<path class="st0" d="M25.8,5.5L25.8,5.5C25.9,5.5,25.9,5.5,25.8,5.5L25.8,5.5z"/>
		<path class="st0" d="M27.4,7.7c0-0.1-0.2,0-0.3,0C27.2,7.7,27.2,7.7,27.4,7.7C27.3,7.7,27.4,7.7,27.4,7.7z"/>
		<path class="st0" d="M28.7,11.7L28.7,11.7C28.7,11.8,28.7,11.8,28.7,11.7z"/>
		<path class="st0" d="M24.5,4L24.5,4L24.5,4z"/>
		<path class="st0" d="M27.7,17.8L27.7,17.8L27.7,17.8z"/>
		<path class="st0" d="M28.9,14.9L28.9,14.9L29,15L28.9,14.9z"/>
		<path class="st0" d="M11.8,0.2L11.8,0.2C11.9,0.2,11.8,0.2,11.8,0.2z"/>
		<path class="st0" d="M0.2,18.1c0.1-0.3,0.3,0.4,0.4-0.1C0.6,18.1,0.3,17.7,0.2,18.1z"/>
		<path class="st0" d="M28.1,12.4v-0.1C28,12.3,28,12.4,28.1,12.4z"/>
		<path class="st0" d="M0.6,18L0.6,18L0.6,18L0.6,18z"/>
		<path class="st0" d="M6.4,2.6C6.4,2.7,6.4,2.7,6.4,2.6C6.5,2.7,6.4,2.6,6.4,2.6z"/>
		<path class="st0" d="M10.4,1L10.4,1L10.4,1z"/>
		<path class="st0" d="M4.8,4.3C4.7,4.3,4.7,4.3,4.8,4.3C4.7,4.4,4.7,4.4,4.8,4.3C4.7,4.3,4.7,4.3,4.8,4.3z"/>
		<path class="st0" d="M3.2,6C3.2,6,3.3,6,3.2,6C3.3,6,3.3,5.9,3.2,6L3.2,6z"/>
		<path class="st0" d="M24.9,23.5c0.1,0,0.1,0,0.2,0C25,23.5,25.1,23.2,24.9,23.5z"/>
		<path class="st0" d="M28.1,12.4L28.1,12.4L28.1,12.4C28.1,12.5,28.1,12.5,28.1,12.4z"/>
		<path class="st0" d="M5.7,5.4L5.5,5.6C5.5,5.6,5.6,5.5,5.7,5.4z"/>
		<path class="st0" d="M11.1,27.7L11.1,27.7L11.1,27.7z"/>
		<path class="st0" d="M4.8,6.4c-0.1,0-0.1,0-0.2,0c0,0,0,0,0,0.1L4.8,6.4z"/>
		<path class="st0" d="M25.1,23.6L25.1,23.6L25.1,23.6z"/>
		<path class="st0" d="M26,21.5c-0.2,0.3,0.1,0.3,0.2,0.4C26.1,22.3,26,22,25.8,22c0,0.1,0,0.2,0,0.4c0,0.1,0,0.2-0.1,0.3
			c0,0-0.1,0-0.1-0.1c0,0.3-0.4,0.6-0.4,1h-0.1c0.1,0,0.2,0.1,0.3,0.2c-0.1,0.1-0.1,0.3-0.2,0.2c0.1-0.1,0-0.1,0-0.2L25.1,24
			c-0.3,0,0.1-0.2,0-0.3c-0.1,0.3-0.2,0.7-0.4,0.8c-0.2-0.1,0.3-0.5,0-0.4l0.3-0.2c-0.4,0,0.2-0.1-0.3-0.2c-0.4,0.3-0.2,0.5-0.6,0.7
			c0,0.2,0.2,0.1,0.2,0.3c-0.3,0.6-0.8-0.1-0.9,0.5c0,0.2,0.1,0.4-0.2,0.5l-0.1-0.3c-0.4,0.2,0,0.4-0.5,0.6c0-0.1,0.2-0.3,0.2-0.3
			c-0.4,0-0.1,0.2-0.3,0.4l-0.2-0.2c-0.2,0.1-0.4,0.3-0.6,0.5s-0.4,0.4-0.6,0.5c0-0.1,0-0.2-0.1-0.2c-0.3,0.2-0.6,0.3-0.9,0.5
			c-0.3,0.1-0.7,0.1-1,0.2l-0.2,0.3c-0.1,0-0.1-0.1-0.1-0.1c-0.3,0,0,0.1-0.1,0.2c-0.1,0-0.2-0.1-0.1-0.1c-0.2,0.1-0.5,0.3-0.8,0.4
			c-0.1,0.1-0.3,0.1-0.5,0.1s-0.3,0-0.4,0l0.1-0.1c-0.4,0-0.4,0.5-0.7,0.3h0.1c-0.4,0-0.8,0-1.2,0c-0.1,0-0.2,0-0.3,0s-0.2,0-0.3,0
			c-0.2,0-0.3-0.1-0.5-0.2c-0.1,0.1-0.3,0.1-0.4,0.1c-0.2,0-0.4-0.1-0.4,0.1c-0.4-0.3-0.3-0.3-0.9-0.5c-0.2,0-0.3,0.2-0.5,0.2v-0.2
			L11.6,28l-0.1-0.3h-0.2c0.1,0,0.1,0.1,0.1,0.2c-0.2,0-0.3-0.1-0.5-0.2c-0.1-0.1-0.2-0.2-0.2-0.3L10,27.3c0-0.1,0.2-0.1,0.3-0.1
			c-0.4,0.1,0-0.2-0.4-0.2c0,0.1-0.1,0.1-0.1,0.1c-0.1-0.2-0.5-0.4-0.8-0.4v0.1c-0.5-0.2-1-0.5-1.5-0.8c0.1,0.2,0,0.3-0.2,0.3
			l0.1-0.2c-0.2,0.1,0.1,0.2-0.2,0.2C7,26.1,7.2,26,7.4,26l-0.3-0.2c0-0.1,0.1-0.1,0.2-0.1c-0.2,0-0.2-0.5-0.5-0.4v-0.1
			C6.7,25.1,6.6,25,6.5,25c-0.1-0.1-0.2-0.1-0.3-0.2c-0.2,0-0.3-0.2-0.5-0.3c-0.1,0.1-0.2,0-0.5,0c-0.2-0.3-0.4-0.7-0.7-1
			c-0.3-0.2-0.2,0-0.4,0c0.1-0.1-0.2-0.5,0.1-0.4c-0.2-0.2-0.3-0.3-0.4-0.5c-0.1-0.1-0.1-0.1-0.2-0.2c-0.1-0.1-0.2-0.2-0.3-0.3
			c0,0.1,0,0.2-0.1,0.2c-0.1-0.1-0.1-0.3,0-0.3l0,0c-0.3-0.3-0.4-0.7-0.5-1.1c0-0.2-0.1-0.4-0.1-0.6c0-0.1-0.1-0.2-0.1-0.2
			c0-0.1-0.1-0.1-0.2-0.2l0,0l-0.4-0.5c-0.1-0.3,0.2,0.1,0.2-0.1C2,19.2,1.9,19,1.8,18.9c0-0.1-0.1-0.3-0.1-0.4
			c0-0.2-0.1-0.5-0.2-0.7c0.2-0.3,0.1-0.6,0-1c0-0.2-0.1-0.4-0.1-0.6s0-0.4,0.1-0.5H1.4c0.1,0,0.3-0.1,0.3-0.2
			c-0.1,0-0.1,0.2-0.2,0.1c-0.1-0.6,0-1.3,0.1-1.9c0.1-0.3,0.2-0.6,0.3-0.9L2,12.3c0.1-0.1,0.1-0.3,0.2-0.4c0.1-0.4-0.5-0.4-0.1-0.9
			l0.2,0.2c0-0.5,0.2-0.9,0.4-1.4C2.9,9.4,3.1,9,3.2,8.5c0,0.1,0.1,0.1,0,0.2C3.4,8.6,3.6,8.1,3.5,8c0.1-0.1,0.1,0,0.2,0
			c0.1-0.1,0-0.5,0.2-0.5v0.1c0-0.1,0.4-0.5,0.1-0.5c0.3-0.2,0.3-0.6,0.6-0.7c0-0.3,0.5-0.4,0.3-0.6C5.1,6,5.5,5.5,5.5,5.3
			c0,0.1,0.2-0.1,0.2,0.1C5.9,5.2,6,5,5.9,5c0.6,0,0.5-0.8,1-0.6C7,4.3,7.1,4.1,7.3,4c0.2-0.2,0.3-0.3,0.4-0.4
			C7.8,3.5,8,3.4,8.1,3.3l0.2-0.2L8.5,3c0.1,0.1-0.1,0.2-0.3,0.3C8.1,3.4,8,3.5,8.1,3.6c0.1-0.1,0.2-0.2,0.3-0.3S8.6,3.1,8.7,3
			c0.2-0.2,0.4-0.3,0.7-0.4c0.2,0,0,0.2-0.1,0.2c0.3-0.2,0.6-0.3,0.8-0.4c0.1-0.1,0.3-0.1,0.4-0.2c0.1-0.1,0.3-0.1,0.4-0.2
			c0,0,0,0.1-0.1,0.1c0.1,0,0.3,0,0.2-0.1l-0.1,0.1c-0.2-0.1,0.3-0.5,0.3-0.6c-0.1,0.4,0.6,0,0.4,0.5c0.1,0,0.1-0.1,0.1-0.2
			c0.1,0,0.2,0,0.1,0.2c0.3-0.2,0.3-0.2,0.4-0.3c0.1-0.1,0.1-0.1,0.3-0.1c0,0.1-0.1,0.1-0.1,0.2c0.2-0.2,0.3-0.3,0.6-0.3
			c0,0,0,0.1-0.1,0.1c0.5-0.1,0.9-0.4,1.5-0.3c-0.2,0.3,0.2,0.1,0.2,0.3c0.1,0,0.2-0.1,0.3-0.1l-0.1-0.1c0.3,0,0.5-0.1,0.8-0.1
			l-0.2,0.1h0.5l-0.3-0.1c0.3-0.1,0-0.3,0.4-0.2c-0.1,0,0.3,0,0.4,0.2l0,0c0.1-0.1,0.3-0.1,0.5,0c0,0.1-0.1,0.3-0.1,0.3
			c0.2-0.2,0.6,0,0.9-0.1c-0.1,0-0.1,0.2-0.1,0.2l0.1-0.3c0.1,0.1,0.1,0.1,0.1,0.2c0.4,0.1,0-0.3,0.4-0.1c0,0,0,0-0.1,0
			c0.2,0.2,0.4,0.2,0.6,0.3c0.2,0,0.4,0.1,0.6,0.2c0,0.3-0.4-0.1-0.3,0.2c0.3,0.1,0.6,0.1,0.9,0.2c0.3,0.1,0.6,0.2,0.9,0.3l-0.1-0.2
			c0.2-0.3,0.3,0.3,0.7,0.3c-0.1,0-0.2,0.1-0.1,0.1c0.3,0.3,0.7,0.3,1.3,0.6h-0.1c0.1,0.2,0.5,0.4,0.7,0.6c0.1,0,0.2,0.1,0.2-0.1
			c0,0.1,0.1,0.2,0.1,0.3c0.1,0.1,0.1,0.2,0.2,0.2c0.1,0.1,0.3,0.2,0.5,0.3s0.3,0.2,0.5,0.3c0.1,0.1,0.2,0.3,0.3,0.5
			c-0.1-0.1-0.2-0.1-0.1,0L25.4,6c0.1-0.1,0-0.1,0-0.3c0.1,0,0.3,0.1,0.4,0.2c-0.3-0.1-0.2,0.2-0.2,0.3c0,0,0.1,0,0.1-0.1
			c0,0.4,0.3-0.2,0.4,0.3H26c0.1,0.1,0.3,0.2,0.4,0.3c-0.1,0.2-0.2-0.1-0.3,0c0.2,0.2,0.6,0.2,0.5,0.5C26.5,7.1,26.4,7,26.3,7
			c0,0.3,0,0.3,0.1,0.5l0,0l0.1,0.4V7.8c0.3,0,0.4,0.1,0.5,0.3c0,0.1,0.1,0.1,0.1,0.2c0.1,0.1,0.1,0.1,0.2,0.2
			c-0.4-0.2-0.2,0-0.4,0.1c0,0.1,0,0.3-0.1,0.3c0.2,0.1,0,0.3,0.4,0.5c-0.1,0,0.1,0.2-0.1,0.2c0.2,0.2,0.1-0.1,0.2-0.1
			c0.2,0.1,0.2,0.4,0.2,0.6c0,0.3,0.1,0.5,0.3,0.7c0.3,0.4,0.5,0.5,0.7,0.9c-0.1,0.2-0.3-0.1-0.3-0.1c0,0.3,0,0.4,0.1,0.6
			c-0.1,0-0.1,0-0.2,0.1c0,0.2,0.3,0.1,0.2,0.3c-0.1,0-0.2-0.1-0.3-0.1c0.1,0.2,0.2,0.4,0.3,0.6c-0.1,0.1-0.2-0.1-0.3-0.2
			c0.1,0.2,0.2,0.6,0.4,0.7l0.1-0.2c0,0.1-0.1,0.1-0.2,0c-0.2-0.2,0-0.3,0.1-0.3l0.1,0.2c0.4-0.2-0.2-0.6-0.2-1l0.3,0.1l-0.3-0.3
			c0.1-0.1,0.2-0.2,0.3,0c0.1-0.3-0.1-0.2,0-0.4l0,0l-0.1-0.2c0.1,0,0.2-0.1,0.2,0.1c0-0.5-0.4-0.6-0.2-0.8l0,0
			c-0.3-0.5-0.2,0-0.6-0.3c0.1-0.1,0.2-0.3,0.4-0.4h-0.2c0-0.1,0-0.2,0-0.2c-0.2-0.2-0.1,0.1-0.2,0c0-0.2,0-0.3-0.1-0.5
			s-0.1-0.3,0-0.4c-0.2,0,0,0.3-0.2,0.1c0.3-0.3-0.2-0.3-0.2-0.6c0.2,0,0.2,0.3,0.2-0.1c-0.2,0-0.2-0.1-0.2-0.3c0-0.1,0-0.3-0.1-0.4
			c-0.2,0.1-0.3-0.4-0.6-0.6c0.1,0-0.3-0.7-0.4-1l0,0c-0.2,0.1-0.4-0.2-0.6-0.4c0.1-0.1,0.2-0.1,0.3,0c-0.1-0.1-0.1-0.1-0.2-0.2
			c-0.1,0-0.2,0-0.3-0.1l0.2-0.1c-0.2-0.2-0.6-0.4-0.8-0.7c-0.1,0.1-0.1,0.6-0.5,0.3c0.1-0.1,0.2-0.2,0.3-0.1c0,0-0.2,0-0.2-0.1h0.2
			c-0.1-0.2-0.2,0-0.3-0.1c0.1-0.1,0-0.1,0.1-0.2l0.1,0.1c-0.1-0.1-0.2-0.3-0.2-0.5c0,0.1-0.1,0.1-0.2,0.1c-0.3-0.2,0-0.2-0.1-0.4
			c-0.1,0-0.2-0.2-0.4,0c-0.1-0.1,0-0.1,0-0.2c-0.2,0-0.7-0.5-0.6-0.2l0,0l0,0l0,0l0,0c-0.1,0-0.3-0.1-0.4-0.2
			c-0.1-0.1-0.2-0.2-0.3-0.3c-0.2-0.2-0.4-0.4-0.7-0.5V2.2c-0.3-0.1-0.7-0.3-0.9-0.3c-0.1,0.1-0.1,0-0.1-0.1c-0.3-0.1-0.3,0-0.6-0.2
			c0.3,0,0-0.1,0.3,0c-0.3-0.2-0.3-0.3-0.7-0.2c0.2-0.1-0.2-0.3-0.3-0.3l0.2,0.2c-0.2,0-0.3-0.1-0.5-0.2l0.1-0.2
			c-0.3-0.2-0.6-0.2-0.9-0.2s-0.6,0-0.8-0.2c-0.2,0.1,0.4,0.1,0.2,0.3c-0.3-0.1-0.6-0.4-0.7-0.5c-0.4-0.2-0.4,0.2-0.9,0.1
			c0.1,0.1,0.1,0.3-0.3,0.4c-0.3,0-0.4-0.3-0.2-0.4c0.1,0,0.1,0,0.1,0.1c0.1,0,0.2-0.1,0.1-0.1v0.1c-0.1-0.1-0.6-0.1-0.5-0.2
			c-0.2,0.1-0.1,0.1,0.1,0.2c-0.4-0.1-0.6-0.1-1-0.1c0.1,0,0.1,0.1,0.1,0.1c-0.6-0.1-0.3,0.2-0.7,0.2c-0.2-0.1,0.1-0.3-0.3-0.2
			c-0.3-0.1-0.1-0.2,0-0.3c-0.1,0-0.2,0.1-0.3,0.1s-0.2,0-0.3,0c-0.2,0-0.3-0.1-0.4-0.1l0.2-0.1c-0.1,0.1-0.2,0.1-0.3,0.1l0.1,0.1
			c-0.1,0-0.2,0-0.2-0.1c-0.1,0.1,0.1,0.2-0.1,0.4c-0.2-0.1-0.5,0.1-0.5,0c0.5,0-0.1-0.2,0.3-0.3c-0.1,0-0.2,0.1-0.3,0
			c0,0,0,0,0-0.1c-0.5-0.1-0.2,0.3-0.6,0.4c0-0.1-0.2-0.2-0.2-0.1c0.2,0,0.1,0.2,0,0.3c-0.3,0-0.3,0.2-0.5,0.2h0.2
			c0,0.1-0.2,0.1-0.4,0.3c0-0.1,0.2-0.1,0.1-0.1c-0.2,0.3-0.6,0-0.9,0.2c-0.2,0-0.1-0.2-0.2-0.2c-0.3,0.3-0.4,0-0.8,0.3
			c0.2,0.1,0.2,0.1,0,0.3l0.5-0.4L8.7,1.7C8.9,1.6,9,1.4,9.2,1.4c-0.1,0.2-0.1,0.2,0,0.2C8.8,1.6,8.7,2,8.4,2L8.2,1.7
			C8,1.7,7.8,1.8,7.6,2C7.5,2.2,7.3,2.3,7,2.5h0.2c0,0.2-0.3,0.2-0.4,0.4C6.7,2.7,6.6,2.7,6.5,2.7C6.6,2.8,6.1,3,6.2,3.2H5.9
			C5.5,3.4,5.7,3.8,5.3,4.1c0-0.2-0.2-0.1,0-0.4C5.2,3.8,5,3.9,5.1,3.9C5,3.9,4.9,4.4,4.7,4.4c0,0.1,0.1,0.2-0.1,0.3l0,0
			c0,0-0.1,0.3,0.1,0.2C4.4,4.9,4.2,5.2,4,5.4C3.8,5.5,3.7,5.7,3.6,5.8C3.5,5.9,3.4,6,3.3,6C3.1,6.3,2.9,6.6,2.7,6.9
			c0,0-0.1,0,0-0.1C2.4,7.1,2.9,7.2,2.5,7.6c-0.3,0.1,0-0.3-0.1-0.2C2,7.2,2.1,7.9,1.8,8.1V8C1.6,8.2,1.7,8.6,1.5,9c0,0,0,0-0.1,0
			c0.1,0.3,0,0.9-0.1,1.2C1.2,10,1.3,10,1.1,10c0,0.2,0.3,0,0.2,0.4c-0.1,0.1-0.3,0.3-0.5,0.3c0-0.1,0.1-0.2,0.1-0.3
			c-0.1,0-0.2,0.1-0.2,0.3c0,0.1,0,0.2,0,0.3l-0.1-0.1c-0.1,0.5,0.2,0.6,0,1.1h0.1c0.2,0.3-0.2,0.2,0,0.5H0.4c0,0.2,0.1,0.7,0.2,1.1
			c-0.2-0.2-0.2-0.6-0.3-0.9c0,0.2-0.1,0.7,0,0.8c0-0.1-0.1-0.2,0-0.3c0.2,0.3,0.3,0.6,0.2,1c-0.3,0-0.3,0.2-0.3,0.5s0,0.6-0.2,0.8
			c0.1,0.3,0.1,0.7,0.1,1.1s0,0.7,0.1,1.1c0.3-0.4,0,0.2,0.4,0.1C0.7,18,0.7,18,0.7,18.1l-0.1,0.6c-0.1,0.2-0.1-0.2-0.2-0.1
			c0.1,0.4-0.1,0.2-0.2,0.5c0.1-0.1,0.2,0.1,0.2,0.3L0.5,19c0.2,0.3,0.1,0.4,0.1,0.5S0.5,19.8,0.7,20l-0.2-0.1
			c0.1,0.1,0.2,0.4,0.3,0.6C0.9,20.8,1.1,21,1.3,21c0,0.1-0.1,0.2-0.2,0.1c0.1,0.3,0.4,0.7,0.6,1C2,22.4,2.2,22.7,2.2,23H2.1
			c0.1,0.1,0.3,0.1,0.3,0.3c0,0-0.1,0-0.1,0.1c0.1,0,0.4,0.2,0.4,0.4v-0.1c0.2,0.3,0.4,0.5,0.6,0.6s0.5,0.2,0.7,0.4
			c-0.2,0.2,0.1,0.7,0.3,0.9l0,0c0.3,0.3,0.6,0.5,0.9,0.7s0.6,0.3,1,0.5c0,0.1,0.1,0.3,0.3,0.4c0.1,0.1,0.3,0.2,0.5,0.4
			c0.3,0.2,0.7,0.5,1,0.7c-0.1-0.1,0.1-0.2,0.3-0.2c0.1,0.1,0.5,0,0.4,0.3H8.6c0,0.3,0.4,0.4,0.6,0.5l0.2-0.3
			c0.3,0.4,0.7,0.5,1.2,0.6c0.4,0.1,0.8,0.1,1,0.4c0.2,0,0.4,0,0.6-0.1v0.2c0.2,0.1,0.4,0.1,0.6,0.1s0.4,0.1,0.7,0.1L13.4,30
			c0.4,0,0.5-0.5,0.8-0.5l0.1,0.3c0.6,0.1,1.2,0.2,1.8,0c0,0,0,0.1-0.1,0.1c0.3,0,1.1,0.1,1-0.3c0,0.2,0.6-0.1,0.9-0.2v0.2
			c0.2-0.3,0.2-0.4,0.6-0.5c0.1,0,0.1,0.1,0,0.1c0.3,0,0.2-0.2,0.6-0.2L19,29.1c0.3-0.1,0.3-0.1,0.4-0.3c0.2-0.1,0.6-0.2,0.7,0
			c0-0.1,0.1-0.3,0.3-0.3c0,0.1,0,0.1,0,0.1c0.1,0,0.2-0.1,0.3-0.1c0.1-0.1,0.2-0.1,0.2-0.2c0.1-0.1,0.3-0.2,0.5-0.2
			c0,0.1,0.1,0.1,0.1,0.1c-0.4,0.2-0.7,0.3-0.7,0.3c0.1,0.2,0.4,0,0.2,0.4c0.2-0.2,0.5-0.7,0.8-0.8c0,0,0,0,0.1,0l0,0
			c0.1,0,0.1-0.1,0.2-0.1s0.2,0,0.3-0.1c0.1,0.1,0.4-0.1,0.5-0.2c-0.1-0.2,0.1-0.2-0.2-0.3c0,0,0,0-0.1,0.1c0,0,0,0-0.1,0.1l0,0
			c-0.1,0.1-0.2,0.1-0.3,0.2c0.1-0.2,0.1-0.3,0.3-0.3c0-0.1,0-0.3,0-0.4c0.3,0.1,0.8,0,0.9,0.1c0.2-0.2,0.4-0.4,0.6-0.6
			c0.1-0.1,0.2-0.2,0.2-0.3c0.1-0.1,0.1-0.2,0.1-0.4c0.1-0.1,0.2,0,0.3,0c0,0.1-0.1,0.1-0.1,0.2c0.2-0.3,0.6-0.6,0.5-0.8
			c0.3-0.2,0,0.3,0.3-0.1v0.1c0.5-0.2,0.6-0.6,0.8-1c0.1-0.4,0.3-0.8,0.8-1.1c-0.1,0-0.1,0.1-0.1,0.1c0.2-0.2,0.4-0.5,0.6-0.7
			c0.2-0.3,0.3-0.5,0.4-0.8s0.2-0.6,0.4-0.9c0.2-0.3,0.3-0.6,0.5-0.8c0.2-0.3,0.1-0.4,0-0.6h0.2c0-0.1-0.1-0.3-0.1-0.4
			c0-0.3,0.2-0.4,0.3-0.6c0.1-0.1,0.2-0.2,0.2-0.3c0-0.1,0-0.3,0-0.5l-0.1,0.1c0.1-0.2,0-0.7,0.2-0.7c0,0-0.1-0.1,0-0.2h0.1
			c0-0.2-0.1-0.4-0.1-0.6c0.1-0.4,0.4,0.1,0.5-0.5c0-0.2-0.3-0.7-0.3-0.6c0,0.1-0.1,0.2-0.2,0.2v-0.2c-0.3,0-0.6-0.2-0.9,0.3
			l0.2,0.4L28.5,16v-0.3c-0.1,0.2,0,0.3,0,0.4c-0.1,0-0.1,0.1-0.2,0.1l0.3,0.4c-0.1,0-0.2-0.2-0.3,0c0.1,0.2,0.3-0.1,0.3,0.1
			c-0.2,0.1-0.3,0.1-0.2,0.3c-0.1,0-0.1,0-0.2-0.1c0.1,0.2,0,0.5,0.1,0.6c-0.1,0.1-0.1,0.2-0.1,0.3c0,0.1-0.1,0.2-0.2,0.2
			c0.1,0.1,0.1,0.3,0.1,0.5c-0.3-0.4-0.2,0.6-0.5,0.4c0.3,0.3-0.1,0.8-0.1,1.2V20c-0.1,0.2-0.2,0.2-0.3,0.3c0.2,0.1,0.1,0.4,0.2,0.7
			c-0.3,0.1-0.2-0.3-0.5-0.3c0.2,0.1,0,0.5,0.2,0.5c-0.2,0.1-0.1,0.1-0.4,0.1c0.3,0.2,0,0.2,0.1,0.4c-0.3,0.2-0.3-0.1-0.4,0.2
			C26,21.8,26,21.5,26,21.5z M21,27L21,27c0.1,0,0.1-0.1,0.1-0.1S21.1,27,21,27z M20.4,27.3c0.1,0,0.2-0.1,0.3-0.1
			c0,0,0.1,0.1,0,0.1C20.7,27.3,20.5,27.3,20.4,27.3z M22.3,27.8c-0.1,0.1-0.1,0.1-0.2,0C22.2,27.8,22.2,27.7,22.3,27.8
			c0-0.1,0-0.1,0-0.1S22.3,27.7,22.3,27.8z"/>
		<path class="st0" d="M22.3,27.5C22.3,27.4,22.3,27.4,22.3,27.5C22.3,27.4,22.3,27.4,22.3,27.5C22.3,27.4,22.3,27.5,22.3,27.5
			L22.3,27.5z"/>
		<path class="st0" d="M23.2,3.3L23.2,3.3L23.2,3.3L23.2,3.3z"/>
		<path class="st0" d="M11.8,27.8v0.1V27.8z"/>
		<path class="st0" d="M25.4,6.3L25.4,6.3L25.4,6.3z"/>
		<path class="st0" d="M26.3,7.6v0.2C26.3,7.7,26.3,7.6,26.3,7.6z"/>
		<path class="st0" d="M26.8,8.6L26.8,8.6L26.8,8.6L26.8,8.6z"/>
		<path class="st0" d="M10.9,2.2C10.9,2.2,10.8,2.2,10.9,2.2C10.7,2.2,10.8,2.2,10.9,2.2z"/>
		<path class="st0" d="M16.4,1.2c-0.1,0-0.1,0-0.2,0.1C16.3,1.3,16.3,1.3,16.4,1.2z"/>
		<polygon class="st0" points="5.8,5.4 5.8,5.4 5.7,5.4 		"/>
		<path class="st0" d="M15.9,1.3c0.1,0,0.2,0,0.3,0C16.1,1.3,16,1.3,15.9,1.3z"/>
		<path class="st0" d="M28.2,13.5L28.2,13.5C28.2,13.6,28.2,13.6,28.2,13.5L28.2,13.5z"/>
		<path class="st0" d="M28.2,13.6L28.2,13.6L28.2,13.6z"/>
		<path class="st0" d="M28.3,13.8l-0.1-0.1C28.2,13.7,28.2,13.7,28.3,13.8z"/>
		<path class="st0" d="M28,12L28,12L28,12z"/>
		<path class="st0" d="M27.9,11.5c0,0.1-0.1,0.3,0,0.5H28C27.8,11.9,28,11.6,27.9,11.5z"/>
		<path class="st0" d="M28,9.3c0,0.1,0.1,0.3,0.1,0.4c0-0.1,0.1-0.2,0.2,0C28.3,9.1,28.2,9.8,28,9.3z"/>
		<path class="st0" d="M27.5,8.1C27.7,8.3,27.6,8,27.7,8C27.5,7.9,27.5,7.9,27.5,8.1z"/>
		<path class="st0" d="M20.7,1.7l0.1-0.1C20.6,1.5,20.7,1.6,20.7,1.7z"/>
		<path class="st0" d="M18.7,1.9L18.7,1.9h0.2C18.9,1.9,18.8,1.9,18.7,1.9z"/>
		<polygon class="st0" points="18,0.5 18.1,0.5 17.8,0.4 		"/>
		<path class="st0" d="M3.3,5.6l0.2,0.1C3.6,5.5,3.4,5.4,3.3,5.6z"/>
		<path class="st0" d="M0.5,11.9c-0.1,0-0.2,0.2-0.1,0.4C0.4,12.1,0.5,12,0.5,11.9z"/>
		<polygon class="st0" points="9.6,28.9 9.4,28.9 9.7,29 		"/>
	</g>
	<g>
		<path class="st0" d="M8.6,14.9c0,0-0.1,0.2,0,0.2V14.9L8.6,14.9z"/>
		<path class="st0" d="M8.7,15.4C8.8,15.3,9,15.2,9,15C8.8,15.2,8.9,15.1,8.7,15.4c-0.1-0.1,0-0.2,0-0.3c0,0,0-0.1-0.1,0
			C8.6,15.3,8.6,15.3,8.7,15.4L8.7,15.4z"/>
		<path class="st0" d="M12.6,18.2L12.6,18.2L12.6,18.2z"/>
		<path class="st0" d="M15.1,19.9C15.1,19.9,15,19.9,15.1,19.9L15.1,19.9z"/>
		<path class="st0" d="M15.4,20.3L15.4,20.3C15.4,20.3,15.4,20.4,15.4,20.3z"/>
		<path class="st0" d="M12.6,18.2v0.1C12.7,18.3,12.6,18.3,12.6,18.2z"/>
		<path class="st0" d="M9.5,15.3L9.5,15.3C9.5,15.4,9.5,15.4,9.5,15.3L9.5,15.3z"/>
		<path class="st0" d="M11.4,17.7L11.4,17.7C11.3,17.7,11.3,17.7,11.4,17.7L11.4,17.7z"/>
		<path class="st0" d="M10.5,17.2c0,0,0.1-0.1,0.2-0.2c-0.1,0.1-0.1,0.1-0.1,0.1C10.5,17.1,10.5,17.2,10.5,17.2z"/>
		<path class="st0" d="M9.3,16.1L9.3,16.1L9.3,16.1z"/>
		<path class="st0" d="M12,18.1C12,18.1,12,18.2,12,18.1L12,18.1z"/>
		<path class="st0" d="M9.8,15.3L9.8,15.3L9.8,15.3z"/>
		<polygon class="st0" points="8.3,15.3 8.3,15.2 8.3,15.2 		"/>
		<path class="st0" d="M16.7,21.4L16.7,21.4L16.7,21.4z"/>
		<path class="st0" d="M18.2,13.3c-0.2,0.1-0.2-0.2-0.4,0C17.9,13.2,18.1,13.4,18.2,13.3z"/>
		<path class="st0" d="M9.5,15.4L9.5,15.4L9.5,15.4z"/>
		<path class="st0" d="M17.8,13.3L17.8,13.3L17.8,13.3L17.8,13.3z"/>
		<path class="st0" d="M18.2,20.3C18.2,20.3,18.2,20.2,18.2,20.3L18.2,20.3z"/>
		<path class="st0" d="M17.3,21.4L17.3,21.4C17.4,21.4,17.4,21.4,17.3,21.4z"/>
		<path class="st0" d="M18,18.8L18,18.8L18,18.8L18,18.8z"/>
		<path class="st0" d="M18,18C18,18,17.9,18,18,18L18,18L18,18z"/>
		<path class="st0" d="M11.9,13.7l-0.1-0.1C11.8,13.7,11.8,13.8,11.9,13.7z"/>
		<path class="st0" d="M9.4,15.4C9.5,15.4,9.5,15.4,9.4,15.4C9.5,15.4,9.5,15.4,9.4,15.4C9.5,15.4,9.5,15.4,9.4,15.4z"/>
		<path class="st0" d="M16.5,18.8v-0.1V18.8z"/>
		<path class="st0" d="M16.4,10.4L16.4,10.4L16.4,10.4z"/>
		<path class="st0" d="M16.5,18.3c0.1,0,0.1-0.1,0.1-0.1S16.6,18.2,16.5,18.3L16.5,18.3z"/>
		<path class="st0" d="M11.8,13.6L11.8,13.6L11.8,13.6z"/>
		<path class="st0" d="M11.3,14.5c0.1-0.1-0.1-0.2-0.2-0.4c0.1-0.1,0.2,0.1,0.3,0.2c0-0.1,0-0.3,0-0.4c0,0,0,0,0.1,0.1
			c0-0.2,0.2-0.2,0.2-0.5l0,0c-0.1-0.1-0.2-0.2-0.2-0.3c0,0,0-0.2,0.1-0.1v0.1v-0.1c0.2,0.2,0,0.1,0.1,0.3c0.1-0.1,0.1-0.4,0.2-0.4
			c0.1,0.2-0.1,0.2,0.1,0.3h-0.2c0.3,0.2-0.1,0,0.2,0.3c0.2-0.1,0.1-0.2,0.3-0.3c0-0.1-0.1-0.1-0.2-0.3c0.1-0.3,0.5,0.3,0.5,0
			c0-0.2-0.2-0.4,0-0.4l0.1,0.2c0.2-0.1-0.1-0.4,0.1-0.3c0,0.1-0.1,0.2,0,0.2c0.2,0.1,0-0.2,0.1-0.2l0.1,0.2
			c0.1-0.1,0.2-0.4,0.4-0.6c0,0.1,0,0.1,0.1,0.2c0.2-0.2,0.5-0.3,0.8-0.4v-0.2c0,0,0.1,0,0.1,0.1c0.1,0-0.1-0.1-0.1-0.2
			c0,0,0.1,0,0.1,0.1c0-0.2,0.2-0.6,0.5-0.5v0.1c0.2,0-0.1-0.4,0.1-0.4l0,0c0.3-0.1,0.5-0.5,0.9-0.4c-0.1-0.3,0.3-0.1,0.1-0.4
			c0.1,0.1,0.1,0.1,0.2,0.1l0.1,0.1V10v0.2c0-0.1,0-0.2,0-0.3c0,0.1,0,0.2,0,0.3v-0.1c0,0,0-0.1,0-0.2c0-0.1,0.1-0.1,0.1,0
			s0,0.2,0,0.3c0-0.1,0.1-0.2,0.1-0.3c0,0.1-0.1,0.2-0.1,0.3c0.1-0.3-0.1,0.3,0,0c0-0.1,0.1-0.2,0.1-0.3c0,0.2,0,0.2,0,0.1l-0.1,0.3
			l0,0c0,0,0.1-0.1,0.1,0c0.1-0.1,0.3-0.5,0.3-0.5l-0.1,0.5c0.1-0.2,0.1-0.2,0.2-0.4c0,0.1-0.2,0.4-0.3,0.5l0.1-0.1
			c-0.1,0.1-0.1,0.1-0.2,0.3c0.1-0.1,0,0,0,0.1s-0.1,0.1,0,0l-0.1,0.1h0.1c0.2-0.1,0.1-0.1,0.3-0.1c-0.1,0.1-0.2,0.2-0.2,0.2
			c0.1,0,0.2,0,0.3,0c-0.2-0.1-0.2,0-0.3-0.1c0,0.2,0,0.3,0.2,0.5c0.1,0,0.1-0.1,0.2,0c0,0-0.1,0.1-0.2,0.1l0,0
			c0.3,0.3-0.5,0.7-0.1,0.9l0,0l0.2,0.2c0,0.1-0.1-0.1-0.2,0c0.3,0.3,0,0.4,0.1,0.6c-0.5,0.2,0,0.6-0.3,0.8h0.1
			c0.1,0.1-0.1,0.1-0.1,0.1c0.1,0,0.1-0.1,0.2,0c0.1,0.5-0.2,1-0.3,1.6c0,0.2,0.6,0.1,0.3,0.3l-0.2-0.1c0.3,0.4,0,0.8,0.2,1.1
			c-0.1,0-0.1,0-0.1-0.1c-0.2,0.1,0,0.3,0.1,0.3c0,0.1-0.1,0-0.2,0c-0.1,0.1,0.2,0.2,0,0.2h-0.1c0.1,0.1,0,0.2,0.2,0.2
			c-0.1,0.1,0.1,0.3,0,0.4c0.2,0.1-0.1,0.2,0.2,0.3c-0.3,0-0.2,0.2-0.1,0.3c-0.1,0-0.1,0.1-0.2,0c0,0.1,0,0.1,0.1,0.1
			c0,0,0.1,0,0.2,0c-0.2,0-0.1,0,0,0.1c0.1,0,0.1,0.1-0.1,0c0.2,0.1,0.3,0.4,0.3,0.6c-0.3,0.1-0.3,0-0.3,0s0-0.1-0.2-0.2
			c0.1,0.2,0.4,0.6,0.3,0.6c0,0-0.1-0.2-0.2-0.3c0,0.1,0,0.1,0,0.1s-0.1-0.1-0.1,0v-0.1c0,0-0.1-0.1,0,0.1l0,0
			c0.1,0.2,0.1,0.3,0.1,0.4s0,0.2,0,0.3c-0.1-0.5-0.2-0.2-0.3-0.8c0,0,0,0.1,0,0.2c0,0,0-0.1-0.1-0.2c0,0.1,0,0.3-0.1,0.2
			c0-0.1,0-0.1,0-0.2c0,0.1-0.1,0.3-0.1,0.2v-0.1c-0.1,0-0.3,0.2-0.4,0c0.2-0.2,0-0.1,0.1-0.3h-0.1v0.1c-0.1-0.1-0.3,0-0.3-0.1h0.1
			l-0.2-0.1l0.1,0.1c-0.2,0.1-0.2,0.3-0.2,0.1c0,0-0.1-0.1-0.1-0.2l0,0c-0.1,0-0.2,0.1-0.2,0s0.2-0.2,0.2-0.3
			c-0.2,0.1-0.2-0.1-0.4,0.1c0,0,0.1-0.1,0.1-0.2l-0.1,0.1c0-0.1,0-0.1,0.1-0.2c0,0,0,0.4-0.1,0.2c0,0,0,0,0.1,0
			c-0.1-0.2-0.4-0.1-0.5-0.2c0.1-0.2,0.2,0,0.2-0.2c-0.2-0.1-0.6,0-0.7-0.2l0,0c-0.2,0.3-0.1-0.2-0.2-0.2l0.1-0.1
			c-0.1-0.1-0.3-0.1-0.6-0.1l0.1-0.1c0-0.1-0.2-0.2-0.3-0.3c-0.1,0.1-0.1,0-0.2,0.2c0-0.6-0.7-0.1-0.7-0.6H12l-0.2-0.1
			c-0.1,0.1,0,0.1,0,0.2c-0.1,0.1-0.2,0.1-0.2,0.1c0.1,0,0.1-0.2,0.1-0.3L11.6,17c0-0.3-0.2,0.3-0.2,0v-0.1c-0.1,0-0.2,0.1-0.2,0
			c0.1-0.2,0.1,0,0.2-0.2c-0.1,0-0.3,0.2-0.3,0c0.1,0,0.1,0,0.2,0c0-0.2,0-0.2-0.1-0.3l0,0l-0.1-0.2v0.1c-0.3,0.3-0.3-0.1-0.5,0.1
			c0.3-0.2,0.1-0.1,0.2-0.3c0-0.1,0-0.2,0-0.2c-0.1,0.1,0-0.2-0.3,0c0-0.1-0.1,0,0-0.2c-0.1,0,0,0.1-0.1,0.2
			c-0.2,0.1-0.2-0.4-0.5-0.3c-0.2,0-0.4,0.2-0.6,0.2c0-0.1,0.2-0.2,0.2-0.2c0-0.1-0.1-0.2-0.2-0.1c0,0,0.1-0.1,0.1-0.2
			c-0.1,0-0.2,0.2-0.2,0c0.1-0.1,0.1-0.1,0.2-0.2c-0.1,0-0.2,0.1-0.3,0.1c0-0.1,0.1-0.1,0.2-0.2c-0.1,0-0.3,0-0.4,0.1v0.1
			c0,0,0.1-0.1,0.1-0.2c0.1-0.1,0.1,0.1,0,0.2H8.9c-0.1,0.4,0.2,0.1,0.3,0.2l-0.1,0.4l0.2-0.1c0,0.1-0.1,0.2-0.2,0.2
			c0,0.2,0.1,0,0.1,0.1l0,0h0.1c0,0-0.1,0.2-0.1,0.1c0.1,0.2,0.3,0,0.3,0.2l0,0c0.2,0,0.1-0.2,0.4-0.3l-0.2,0.5l0.1-0.2v0.1
			c0.1-0.1,0-0.1,0.1-0.2c0,0.2,0.3,0.1,0.2,0.4c0.1-0.1,0-0.2,0.1-0.2c-0.2,0.3,0.1,0,0.1,0.2c-0.1,0.1-0.2,0-0.1,0.2
			c0.2-0.2,0.1,0.2,0.2,0.2c0.1-0.2,0.2,0,0.4,0c0,0.1,0.2,0.3,0.2,0.4l0,0c0.1-0.2,0.2-0.1,0.4-0.1c-0.1,0.1-0.1,0.2-0.2,0.2h0.1
			c0.1-0.1,0.1-0.1,0.2-0.1l-0.1,0.4c0.1,0.1,0.3-0.1,0.4,0.1c0.1-0.1,0.1-0.5,0.3-0.5c0,0.1-0.1,0.2-0.2,0.2H12l-0.1,0.1
			c0,0.1,0.1-0.1,0.1,0c-0.1,0.1,0,0.1-0.1,0.2c0,0,0-0.1-0.1,0c0,0.1,0.1,0.2,0,0.3c0-0.1,0.1-0.2,0.1-0.1c0.1,0.1,0,0.2,0,0.3
			c0.1-0.1,0.1,0.1,0.2-0.1c0,0,0,0.1,0,0.2c0.1,0,0.3,0.1,0.3-0.1l0,0l0,0l0,0l0,0c0.3-0.1,0.3,0.3,0.5,0.4v0.1
			c0.1,0,0.3,0.1,0.4,0c0,0,0,0.1,0,0.2c0.1,0,0.2-0.1,0.2,0.1c-0.1,0,0,0.1-0.1,0c0.1,0.1,0,0.2,0.3,0.1c-0.1,0.1,0,0.2,0,0.2v-0.1
			c0.1,0,0.1,0.1,0.2,0.1l-0.1,0.2c0.1,0.4,0.6-0.2,0.6,0.3c0.1-0.1-0.1-0.2,0.1-0.3c0.1,0.1,0,0.4,0.1,0.4c0.1,0.2,0.3-0.2,0.4,0
			c0-0.1,0.1-0.3,0.3-0.3c0.1,0.1,0,0.4-0.1,0.4c0,0,0,0,0-0.1c0,0-0.1,0-0.1,0.1l0.1-0.1c0,0.1,0.1,0.2,0,0.3
			c0.1,0,0.1-0.1,0.1-0.2c0.1,0.2,0.2,0.1,0.3,0.3c0,0,0-0.1,0.1-0.1l0.1,0.1h0.1c0,0,0.1-0.1,0.2-0.1c0.1,0.2-0.2,0.2,0.1,0.3
			c0.1,0.2,0,0.2-0.1,0.3c0.1,0,0.2,0.1,0.3,0.2s0.1,0.2,0.2,0.3h-0.1c0.1,0,0.1,0,0.2,0.1l-0.1-0.2c0.1,0.1,0.1,0.1,0.1,0.2
			c0.1-0.1,0-0.3,0.1-0.4c0.1,0.1,0.2,0,0.3,0.3c-0.3-0.2,0.1,0.3-0.2,0.2c0,0,0.1,0,0.2,0.1c0,0,0,0,0,0.1c0.3,0.4,0.1-0.2,0.3-0.1
			c0,0.1,0.1,0.4,0.2,0.3c-0.1-0.1-0.1-0.3-0.1-0.4c0.2,0.2,0.1,0,0.2,0.1l-0.1-0.1c0-0.2,0-0.1,0.1-0.1c0.1,0.2,0,0,0,0.1
			c0-0.1,0.1,0,0.2,0.1s0.3,0.3,0.3,0.2c0.1,0.2,0.2,0.4,0.3,0.5l0,0c0-0.2,0.2,0.1,0.1-0.3c-0.2-0.2-0.1-0.1-0.3-0.5l0.1,0.6
			c-0.1-0.2-0.2-0.4-0.2-0.6c0,0.1,0.1,0.4,0.1,0.4c-0.1-0.3-0.1-0.2-0.2-0.4c0.1,0.1,0.1,0,0-0.1c0-0.1-0.1-0.3,0-0.2l0.4,0.6
			c0.1,0,0-0.2,0-0.4c-0.1-0.2-0.1-0.4-0.1-0.5c0,0,0,0-0.1,0c-0.2-0.2,0-0.2-0.1-0.4c0.1,0.1,0.2,0.1,0.3,0.1
			c-0.1-0.1,0-0.3-0.3-0.5c0.1,0,0.1,0,0.2-0.1c0.1-0.3-0.4-0.5-0.3-0.7c0.1,0.1,0.2,0,0.3,0.2c0-0.1,0-0.2-0.1-0.2c0,0,0-0.1,0-0.2
			s-0.1-0.1,0-0.1c-0.1,0-0.2,0-0.2-0.1h0.1c-0.1,0-0.1-0.1-0.2,0c0.4-0.2,0-0.5,0.3-0.7c0-0.1-0.1-0.3-0.1-0.4h0.1
			c0.1-0.2-0.4-0.1-0.2-0.3c0.2-0.1,0.1,0.1,0.2,0c0.4,0-0.1-0.2,0.2-0.3l0,0c0.1-0.1-0.2-0.2-0.1-0.4c0,0,0,0,0.1,0
			c-0.2-0.1-0.3-0.3-0.4-0.4c0.2,0,0.1,0.1,0.3,0c0-0.1-0.3,0-0.3-0.1c0.1,0,0.2-0.1,0.4-0.1v0.1c0.2-0.1,0-0.2,0-0.2h0.1
			c0-0.2-0.3-0.2-0.3-0.4h-0.1c-0.3-0.1,0.1-0.1,0-0.2h0.3c-0.1-0.1-0.3-0.3-0.3-0.4c0.2,0.1,0.3,0.2,0.4,0.3c0-0.1,0-0.2-0.1-0.3
			c0,0,0.1,0.1,0,0.1c-0.2-0.1-0.3-0.2-0.3-0.4c0.5,0,0.1-0.4,0.5-0.5c-0.2-0.3,0.1-0.5,0.1-0.8c-0.4,0.1,0-0.1-0.4-0.1
			c0-0.1,0-0.1,0-0.1l0.2-0.2c0.1,0,0.1,0.1,0.2,0.1c0-0.2,0.2-0.1,0.3-0.2c-0.1,0-0.2-0.1-0.2-0.1l-0.2,0.1
			C18.5,13,19,13,18.8,12.8l0.1,0.1c-0.1-0.1,0-0.4-0.3-0.5h0.2c0-0.3-0.3-0.6-0.1-0.8h0.1c0,0-0.2-0.1-0.1-0.1h0.1
			c0,0-0.2-0.1-0.1-0.2l0.1,0.1c0.1-0.1,0-0.2-0.1-0.4c-0.1-0.1-0.2-0.3-0.2-0.4c0.3-0.1,0.4-0.5,0.4-0.7l0,0c0-0.3,0-0.5-0.1-0.6
			s-0.2-0.2-0.2-0.4c0.2-0.5,0.2-1,0.2-1.5c-0.1,0-0.2,0.1-0.2,0.1c0,0.1-0.2,0.4-0.3,0.5c0,0-0.4,0.5-0.2,0l0,0
			c0.1-0.4-0.1-0.1-0.3,0l-0.2,0.6c-0.1-0.3-0.4,0-0.6,0.2S16.6,9.2,16.5,9c-0.1,0.2-0.2,0.2-0.2,0.4l-0.6-0.5
			C15.6,9,15.5,9,15.3,9.1c-0.1,0-0.1,0.1-0.2,0.1L15,9.3V9.2c-0.1,0.1,0.2,0.5,0.1,0.6l-0.2-0.2c-0.2,0.1-0.5,0.1-0.5,0.4
			c0,0-0.1-0.1,0-0.1C14.3,10,14,10,14.2,10.3C14,10.1,14,10.4,14,10.6l-0.1-0.2c0.1,0.3,0.1,0.3,0,0.4c0,0-0.1-0.1,0-0.1
			c-0.1,0,0,0.2-0.1,0.2v-0.1c-0.1,0.1-0.1,0.1,0,0.3c0,0.1-0.2,0.1-0.3,0c0,0.1,0.1,0.2,0,0.2v-0.1c-0.2,0-0.1,0.3-0.3,0.3
			l-0.1-0.1c0.1-0.1,0.2-0.1,0.2-0.1c-0.1-0.1-0.2-0.1-0.3-0.3c0,0.2,0,0.5-0.1,0.5l0,0l0,0c0,0,0,0,0,0.1h-0.1
			c-0.1-0.1-0.2,0-0.2,0.1c0.1,0.1,0,0.2,0.2,0.3c0,0,0,0,0-0.1l0,0l0,0l0.1-0.1c0,0.1,0,0.2-0.1,0.2c0,0.1,0.1,0.2,0.1,0.3
			c-0.2-0.2-0.4-0.2-0.5-0.3c-0.1,0.2-0.3,0.3-0.2,0.7c0,0.1-0.1,0-0.2-0.1v-0.1c0,0.1-0.2,0.2-0.1,0.4c-0.2,0-0.1-0.2-0.2-0.1v-0.1
			c-0.5-0.1-0.1,0.9-0.7,0.7h0.1c-0.5,0.1-0.6,0.7-1.2,0.7c-0.1,0-0.1,0.2-0.1,0.3l-0.1-0.1v0.3c-0.1,0.2-0.6-0.2-0.6,0.2l0.1,0.1
			c-0.1,0-0.2,0.2-0.3,0.1c0,0,0.1,0.1,0,0.1L8.8,15l-0.1,0.3c-0.2,0-0.2-0.4-0.4-0.2c0,0.1,0,0.4,0,0.4s0.1,0,0.2,0.1v0.1
			c0-0.2,0.1,0.1,0.4,0.1v-0.2L9,15.7v0.1c0.1,0.1,0.1-0.1,0.1-0.1c0.1,0.1,0.1,0.1,0.1,0.1l-0.1-0.3c0.1,0.1,0.1,0.2,0.2,0.2
			c0-0.1-0.2-0.2-0.2-0.3c0.1,0.1,0.2,0.2,0.2,0c0.1,0.1,0.1,0.1,0.1,0.2c0-0.1,0.1-0.1,0.1-0.3c0.2,0.1,0.2-0.2,0.3,0.1
			c0-0.1,0-0.3,0-0.3c0.1,0.4,0.2-0.1,0.4,0.2c-0.1-0.3,0.2-0.3,0.2-0.5v0.1c0.1,0,0.2,0,0.2,0c-0.1-0.2-0.1-0.3-0.1-0.5
			c0.2,0.1,0.1,0.3,0.3,0.5c-0.1-0.2,0-0.3-0.1-0.4c0.2,0.1,0.1,0,0.3,0.2c-0.2-0.3,0-0.1,0-0.3C11.2,14.5,11.2,14.6,11.3,14.5
			C11.3,14.3,11.3,14.5,11.3,14.5z M13.4,12.2L13.4,12.2C13.4,12.2,13.4,12.3,13.4,12.2C13.4,12.3,13.4,12.2,13.4,12.2z M13.6,12.1
			L13.6,12.1c-0.1,0-0.2,0-0.1-0.1C13.5,12.1,13.6,12,13.6,12.1z M12.4,11.3C12.4,11.3,12.5,11.3,12.4,11.3
			C12.5,11.4,12.5,11.4,12.4,11.3C12.5,11.4,12.5,11.4,12.4,11.3C12.5,11.4,12.4,11.4,12.4,11.3z"/>
		<path class="st0" d="M12.5,11.6L12.5,11.6L12.5,11.6L12.5,11.6L12.5,11.6z"/>
		<path class="st0" d="M12.6,18.2L12.6,18.2L12.6,18.2L12.6,18.2z"/>
		<path class="st0" d="M16.3,10.5L16.3,10.5L16.3,10.5z"/>
		<path class="st0" d="M11.7,16.9L11.7,16.9L11.7,16.9z"/>
		<path class="st0" d="M11.2,16.5v-0.1C11.2,16.5,11.2,16.5,11.2,16.5z"/>
		<path class="st0" d="M10.8,16.2C10.8,16.2,10.8,16.3,10.8,16.2L10.8,16.2L10.8,16.2z"/>
		<path class="st0" d="M16.6,19.4L16.6,19.4L16.6,19.4z"/>
		<path class="st0" d="M15.2,19.1L15.2,19.1C15.3,19.1,15.3,19,15.2,19.1z"/>
		<path class="st0" d="M16.5,18.8L16.5,18.8L16.5,18.8z"/>
		<path class="st0" d="M15.4,19.1L15.4,19.1L15.4,19.1z"/>
		<path class="st0" d="M9.2,15.1L9.2,15.1C9.1,15.1,9.1,15.1,9.2,15.1L9.2,15.1z"/>
		<path class="st0" d="M9.1,15.1L9.1,15.1L9.1,15.1z"/>
		<path class="st0" d="M9,15.1L9,15.1C9.1,15.1,9.1,15.1,9,15.1z"/>
		<path class="st0" d="M9.6,15.5L9.6,15.5C9.7,15.4,9.7,15.5,9.6,15.5z"/>
		<path class="st0" d="M9.8,15.6c0,0,0-0.2-0.1-0.2l0,0C9.8,15.4,9.7,15.6,9.8,15.6z"/>
		<path class="st0" d="M10.1,16.7L10,16.6c0,0.1,0,0.2-0.1,0.2C9.9,17,9.9,16.6,10.1,16.7z"/>
		<path class="st0" d="M10.4,17c-0.1,0-0.1,0.1-0.1,0.1C10.4,17.1,10.4,17.1,10.4,17z"/>
		<path class="st0" d="M13.5,18.9L13.4,19C13.4,19,13.4,19,13.5,18.9z"/>
		<polygon class="st0" points="14.5,18.5 14.5,18.4 14.4,18.5 		"/>
		<polygon class="st0" points="14.2,19.7 14.2,19.7 14.3,19.7 		"/>
		<path class="st0" d="M18.1,18.1h-0.2C18,18.2,18.2,18.2,18.1,18.1z"/>
		<path class="st0" d="M17.9,15.6c0.1,0,0.2-0.1,0.1-0.1C18,15.5,17.9,15.5,17.9,15.6z"/>
		<polygon class="st0" points="17.1,7.9 17.2,7.8 17,8 		"/>
	</g>
</g>
</svg>
