<svg viewBox="0 0 30 30.2" xmlns="http://www.w3.org/2000/svg"><g fill="#231f20"><path d="m28.4 14.9c.1 0 .2 0 .2-.1l-.2-.1z"/><path d="m28.8 14.1c-.1-.1-.3-.3-.5-.2.2.1.1.2.4.3 0 .1-.1.2-.1.2.1 0 0 .2.1.3.2-.2.2-.4.1-.6-.1-.1-.1 0 0 0z"/><path d="m15.7.5c.1 0 .1 0 0 0 .1-.1 0 0 0 0z"/><path d="m23.1 3.2-.1-.2c-.1.1 0 .1.1.2z"/><path d="m28 12.5c.1 0 .1 0 0 0z"/><path d="m25.8 5.5c.1 0 .1 0 0 0z"/><path d="m27.4 7.7c0-.1-.2 0-.3 0h.3c-.1 0 0 0 0 0z"/><path d="m28.7 11.7c0 .1 0 .1 0 0z"/><path d="m28.9 14.9.1.1z"/><path d="m.2 18.1c.1-.3.3.4.4-.1 0 .1-.3-.3-.4.1z"/><path d="m28.1 12.4v-.1c-.1 0-.1.1 0 .1z"/><path d="m6.4 2.6c0 .1 0 .1 0 0 .1.1 0 0 0 0z"/><path d="m4.8 4.3c-.1 0-.1 0 0 0-.1.1-.1.1 0 0-.1 0-.1 0 0 0z"/><path d="m3.2 6s.1 0 0 0c.1 0 .1-.1 0 0z"/><path d="m24.9 23.5h.2c-.1 0 0-.3-.2 0z"/><path d="m28.1 12.4c0 .1 0 .1 0 0z"/><path d="m5.7 5.4-.2.2s.1-.1.2-.2z"/><path d="m4.8 6.4c-.1 0-.1 0-.2 0v.1z"/><path d="m26 21.5c-.2.3.1.3.2.4-.1.4-.2.1-.4.1v.4c0 .1 0 .2-.1.3 0 0-.1 0-.1-.1 0 .3-.4.6-.4 1h-.1c.1 0 .2.1.3.2-.1.1-.1.3-.2.2.1-.1 0-.1 0-.2l-.1.2c-.3 0 .1-.2 0-.3-.1.3-.2.7-.4.8-.2-.1.3-.5 0-.4l.3-.2c-.4 0 .2-.1-.3-.2-.4.3-.2.5-.6.7 0 .2.2.1.2.3-.3.6-.8-.1-.9.5 0 .2.1.4-.2.5l-.1-.3c-.4.2 0 .4-.5.6 0-.1.2-.3.2-.3-.4 0-.1.2-.3.4l-.2-.2c-.2.1-.4.3-.6.5s-.4.4-.6.5c0-.1 0-.2-.1-.2-.3.2-.6.3-.9.5-.3.1-.7.1-1 .2l-.2.3c-.1 0-.1-.1-.1-.1-.3 0 0 .1-.1.2-.1 0-.2-.1-.1-.1-.2.1-.5.3-.8.4-.1.1-.3.1-.5.1s-.3 0-.4 0l.1-.1c-.4 0-.4.5-.7.3h.1c-.4 0-.8 0-1.2 0-.1 0-.2 0-.3 0s-.2 0-.3 0c-.2 0-.3-.1-.5-.2-.1.1-.3.1-.4.1-.2 0-.4-.1-.4.1-.4-.3-.3-.3-.9-.5-.2 0-.3.2-.5.2v-.2l-.3.1-.1-.3h-.2c.1 0 .1.1.1.2-.2 0-.3-.1-.5-.2-.1-.1-.2-.2-.2-.3l-.7-.1c0-.1.2-.1.3-.1-.4.1 0-.2-.4-.2 0 .1-.1.1-.1.1-.1-.2-.5-.4-.8-.4v.1c-.5-.2-1-.5-1.5-.8.1.2 0 .3-.2.3l.1-.2c-.2.1.1.2-.2.2-.2-.2 0-.3.2-.3l-.3-.2c0-.1.1-.1.2-.1-.2 0-.2-.5-.5-.4v-.1c-.1-.1-.2-.2-.3-.2-.1-.1-.2-.1-.3-.2-.2 0-.3-.2-.5-.3-.1.1-.2 0-.5 0-.2-.3-.4-.7-.7-1-.3-.2-.2 0-.4 0 .1-.1-.2-.5.1-.4-.2-.2-.3-.3-.4-.5-.1-.1-.1-.1-.2-.2s-.2-.2-.3-.3c0 .1 0 .2-.1.2-.1-.1-.1-.3 0-.3-.3-.3-.4-.7-.5-1.1 0-.2-.1-.4-.1-.6 0-.1-.1-.2-.1-.2 0-.1-.1-.1-.2-.2l-.4-.5c-.1-.3.2.1.2-.1-.1-.1-.2-.3-.3-.4 0-.1-.1-.3-.1-.4 0-.2-.1-.5-.2-.7.2-.3.1-.6 0-1 0-.2-.1-.4-.1-.6s0-.4.1-.5h-.1c.1 0 .3-.1.3-.2-.1 0-.1.2-.2.1-.1-.6 0-1.3.1-1.9.1-.3.2-.6.3-.9l.1-.5c.1-.1.1-.3.2-.4.1-.4-.5-.4-.1-.9l.2.2c0-.5.2-.9.4-1.4.2-.4.4-.8.5-1.3 0 .1.1.1 0 .2.2-.1.4-.6.3-.7.1-.1.1 0 .2 0 .1-.1 0-.5.2-.5v.1c0-.1.4-.5.1-.5.3-.2.3-.6.6-.7 0-.3.5-.4.3-.6.2.2.6-.3.6-.5 0 .1.2-.1.2.1.2-.2.3-.4.2-.4.6 0 .5-.8 1-.6.1-.1.2-.3.4-.4l.4-.4c.1-.1.3-.2.4-.3l.2-.2.2-.1c.1.1-.1.2-.3.3-.1.1-.2.2-.1.3.1-.1.2-.2.3-.3s.2-.2.3-.3c.2-.2.4-.3.7-.4.2 0 0 .2-.1.2.3-.2.6-.3.8-.4.1-.1.3-.1.4-.2s.3-.1.4-.2c0 0 0 .1-.1.1.1 0 .3 0 .2-.1l-.1.1c-.2-.1.3-.5.3-.6-.1.4.6 0 .4.5.1 0 .1-.1.1-.2.1 0 .2 0 .1.2.3-.2.3-.2.4-.3s.1-.1.3-.1c0 .1-.1.1-.1.2.2-.2.3-.3.6-.3 0 0 0 .1-.1.1.5-.1.9-.4 1.5-.3-.2.3.2.1.2.3.1 0 .2-.1.3-.1l-.1-.1c.3 0 .5-.1.8-.1l-.2.1h.5l-.3-.1c.3-.1 0-.3.4-.2-.1 0 .3 0 .4.2.1-.1.3-.1.5 0 0 .1-.1.3-.1.3.2-.2.6 0 .9-.1-.1 0-.1.2-.1.2l.1-.3c.1.1.1.1.1.2.4.1 0-.3.4-.1 0 0 0 0-.1 0 .2.2.4.2.6.3.2 0 .4.1.6.2 0 .3-.4-.1-.3.2.3.1.6.1.9.2s.6.2.9.3l-.1-.2c.2-.3.3.3.7.3-.1 0-.2.1-.1.1.3.3.7.3 1.3.6h-.1c.1.2.5.4.7.6.1 0 .2.1.2-.1 0 .1.1.2.1.3.1.1.1.2.2.2.1.1.3.2.5.3s.3.2.5.3c.1.1.2.3.3.5-.1-.1-.2-.1-.1 0l.5.4c.1-.1 0-.1 0-.3.1 0 .3.1.4.2-.3-.1-.2.2-.2.3 0 0 .1 0 .1-.1 0 .4.3-.2.4.3h-.1c.1.1.3.2.4.3-.1.2-.2-.1-.3 0 .2.2.6.2.5.5-.1-.1-.2-.2-.3-.2 0 .3 0 .3.1.5l.1.4v-.1c.3 0 .4.1.5.3 0 .1.1.1.1.2.1.1.1.1.2.2-.4-.2-.2 0-.4.1 0 .1 0 .3-.1.3.2.1 0 .3.4.5-.1 0 .1.2-.1.2.2.2.1-.1.2-.1.2.1.2.4.2.6 0 .3.1.5.3.7.3.4.5.5.7.9-.1.2-.3-.1-.3-.1 0 .3 0 .4.1.6-.1 0-.1 0-.2.1 0 .2.3.1.2.3-.1 0-.2-.1-.3-.1.1.2.2.4.3.6-.1.1-.2-.1-.3-.2.1.2.2.6.4.7l.1-.2c0 .1-.1.1-.2 0-.2-.2 0-.3.1-.3l.1.2c.4-.2-.2-.6-.2-1l.3.1-.3-.3c.1-.1.2-.2.3 0 .1-.3-.1-.2 0-.4l-.1-.2c.1 0 .2-.1.2.1 0-.5-.4-.6-.2-.8-.3-.5-.2 0-.6-.3.1-.1.2-.3.4-.4h-.2c0-.1 0-.2 0-.2-.2-.2-.1.1-.2 0 0-.2 0-.3-.1-.5s-.1-.3 0-.4c-.2 0 0 .3-.2.1.3-.3-.2-.3-.2-.6.2 0 .2.3.2-.1-.2 0-.2-.1-.2-.3 0-.1 0-.3-.1-.4-.2.1-.3-.4-.6-.6.1 0-.3-.7-.4-1-.2.1-.4-.2-.6-.4.1-.1.2-.1.3 0-.1-.1-.1-.1-.2-.2-.1 0-.2 0-.3-.1l.2-.1c-.2-.2-.6-.4-.8-.7-.1.1-.1.6-.5.3.1-.1.2-.2.3-.1 0 0-.2 0-.2-.1h.2c-.1-.2-.2 0-.3-.1.1-.1 0-.1.1-.2l.1.1c-.1-.1-.2-.3-.2-.5 0 .1-.1.1-.2.1-.3-.2 0-.2-.1-.4-.1 0-.2-.2-.4 0-.1-.1 0-.1 0-.2-.2 0-.7-.5-.6-.2-.1 0-.3-.1-.4-.2s-.2-.2-.3-.3c-.2-.2-.4-.4-.7-.5v-.1c-.3-.1-.7-.3-.9-.3-.1.1-.1 0-.1-.1-.3-.1-.3 0-.6-.2.3 0 0-.1.3 0-.3-.2-.3-.3-.7-.2.2-.1-.2-.3-.3-.3l.2.2c-.2 0-.3-.1-.5-.2l.1-.2c-.3-.2-.6-.2-.9-.2s-.6 0-.8-.2c-.2.1.4.1.2.3-.3-.1-.6-.4-.7-.5-.4-.2-.4.2-.9.1.1.1.1.3-.3.4-.3 0-.4-.3-.2-.4.1 0 .1 0 .1.1.1 0 .2-.1.1-.1v.1c-.1-.1-.6-.1-.5-.2-.2.1-.1.1.1.2-.4-.1-.6-.1-1-.1.1 0 .1.1.1.1-.6-.1-.3.2-.7.2-.2-.1.1-.3-.3-.2-.3-.1-.1-.2 0-.3-.1 0-.2.1-.3.1s-.2 0-.3 0c-.2 0-.3-.1-.4-.1l.2-.1c-.1.1-.2.1-.3.1l.1.1c-.1 0-.2 0-.2-.1-.1.1.1.2-.1.4-.2-.1-.5.1-.5 0 .5 0-.1-.2.3-.3-.1 0-.2.1-.3 0 0 0 0 0 0-.1-.5-.1-.2.3-.6.4 0-.1-.2-.2-.2-.1.2 0 .1.2 0 .3-.3 0-.3.2-.5.2h.2c0 .1-.2.1-.4.3 0-.1.2-.1.1-.1-.2.3-.6 0-.9.2-.2 0-.1-.2-.2-.2-.3.3-.4 0-.8.3.2.1.2.1 0 .3l.5-.4-.2.3c.2-.1.3-.3.5-.3-.1.2-.1.2 0 .2-.4 0-.5.4-.8.4l-.2-.3c-.2 0-.4.1-.6.3-.1.2-.3.3-.6.5h.2c0 .2-.3.2-.4.4-.1-.2-.2-.2-.3-.2.1.1-.4.3-.3.5h-.3c-.4.2-.2.6-.6.9 0-.2-.2-.1 0-.4-.1.1-.3.2-.2.2-.1 0-.2.5-.4.5 0 .1.1.2-.1.3s-.1.3.1.2c-.3 0-.5.3-.7.5-.2.1-.3.3-.4.4s-.2.2-.3.2c-.2.3-.4.6-.6.9 0 0-.1 0 0-.1-.3.3.2.4-.2.8-.3.1 0-.3-.1-.2-.4-.2-.3.5-.6.7v-.1c-.2.2-.1.6-.3 1 0 0 0 0-.1 0 .1.3 0 .9-.1 1.2-.1-.2 0-.2-.2-.2 0 .2.3 0 .2.4-.1.1-.3.3-.5.3 0-.1.1-.2.1-.3-.1 0-.2.1-.2.3v.3l-.1-.1c-.1.5.2.6 0 1.1h.1c.2.3-.2.2 0 .5h-.3c0 .2.1.7.2 1.1-.2-.2-.2-.6-.3-.9 0 .2-.1.7 0 .8 0-.1-.1-.2 0-.3.2.3.3.6.2 1-.3 0-.3.2-.3.5s0 .6-.2.8c.1.3.1.7.1 1.1s0 .7.1 1.1c.3-.4 0 .2.4.1.1.2.1.2.1.3l-.1.6c-.1.2-.1-.2-.2-.1.1.4-.1.2-.2.5.1-.1.2.1.2.3l.1-.4c.2.3.1.4.1.5s-.1.3.1.5l-.2-.1c.1.1.2.4.3.6.1.3.3.5.5.5 0 .1-.1.2-.2.1.1.3.4.7.6 1 .3.3.5.6.5.9h-.1c.1.1.3.1.3.3 0 0-.1 0-.1.1.1 0 .4.2.4.4v-.1c.2.3.4.5.6.6s.5.2.7.4c-.2.2.1.7.3.9.3.3.6.5.9.7s.6.3 1 .5c0 .1.1.3.3.4.1.1.3.2.5.4.3.2.7.5 1 .7-.1-.1.1-.2.3-.2.1.1.5 0 .4.3h-.1c0 .3.4.4.6.5l.2-.3c.3.4.7.5 1.2.6.4.1.8.1 1 .4.2 0 .4 0 .6-.1v.2c.2.1.4.1.6.1s.4.1.7.1l-.1.1c.4 0 .5-.5.8-.5l.1.3c.6.1 1.2.2 1.8 0 0 0 0 .1-.1.1.3 0 1.1.1 1-.3 0 .2.6-.1.9-.2v.2c.2-.3.2-.4.6-.5.1 0 .1.1 0 .1.3 0 .2-.2.6-.2l-.1.1c.3-.1.3-.1.4-.3.2-.1.6-.2.7 0 0-.1.1-.3.3-.3v.1c.1 0 .2-.1.3-.1.1-.1.2-.1.2-.2.1-.1.3-.2.5-.2 0 .1.1.1.1.1-.4.2-.7.3-.7.3.1.2.4 0 .2.4.2-.2.5-.7.8-.8h.1c.1 0 .1-.1.2-.1s.2 0 .3-.1c.1.1.4-.1.5-.2-.1-.2.1-.2-.2-.3 0 0 0 0-.1.1 0 0 0 0-.1.1-.1.1-.2.1-.3.2.1-.2.1-.3.3-.3 0-.1 0-.3 0-.4.3.1.8 0 .9.1l.6-.6c.1-.1.2-.2.2-.3.1-.1.1-.2.1-.4.1-.1.2 0 .3 0 0 .1-.1.1-.1.2.2-.3.6-.6.5-.8.3-.2 0 .3.3-.1v.1c.5-.2.6-.6.8-1 .1-.4.3-.8.8-1.1-.1 0-.1.1-.1.1.2-.2.4-.5.6-.7.2-.3.3-.5.4-.8s.2-.6.4-.9.3-.6.5-.8c.2-.3.1-.4 0-.6h.2c0-.1-.1-.3-.1-.4 0-.3.2-.4.3-.6.1-.1.2-.2.2-.3s0-.3 0-.5l-.1.1c.1-.2 0-.7.2-.7 0 0-.1-.1 0-.2h.1c0-.2-.1-.4-.1-.6.1-.4.4.1.5-.5 0-.2-.3-.7-.3-.6s-.1.2-.2.2v-.2c-.3 0-.6-.2-.9.3l.2.4-.2.1v-.3c-.1.2 0 .3 0 .4-.1 0-.1.1-.2.1l.3.4c-.1 0-.2-.2-.3 0 .1.2.3-.1.3.1-.2.1-.3.1-.2.3-.1 0-.1 0-.2-.1.1.2 0 .5.1.6-.1.1-.1.2-.1.3s-.1.2-.2.2c.1.1.1.3.1.5-.3-.4-.2.6-.5.4.3.3-.1.8-.1 1.2v-.1c-.1.2-.2.2-.3.3.2.1.1.4.2.7-.3.1-.2-.3-.5-.3.2.1 0 .5.2.5-.2.1-.1.1-.4.1.3.2 0 .2.1.4-.3.2-.3-.1-.4.2-.4-.1-.4-.4-.4-.4zm-5 5.5c.1 0 .1-.1.1-.1s0 .1-.1.1zm-.6.3c.1 0 .2-.1.3-.1 0 0 .1.1 0 .1 0 0-.2 0-.3 0zm1.9.5c-.1.1-.1.1-.2 0 .1 0 .1-.1.2 0 0-.1 0-.1 0-.1s0 0 0 .1z"/><path d="m22.3 27.5c0-.1 0-.1 0 0 0-.1 0 0 0 0z"/><path d="m11.8 27.8v.1z"/><path d="m26.3 7.6v.2c0-.1 0-.2 0-.2z"/><path d="m10.9 2.2c-.2 0-.1 0 0 0z"/><path d="m16.4 1.2c-.1 0-.1 0-.2.1.1 0 .1 0 .2-.1z"/><path d="m5.8 5.4h-.1z"/><path d="m15.9 1.3h.3c-.1 0-.2 0-.3 0z"/><path d="m28.2 13.5c0 .1 0 .1 0 0z"/><path d="m28.3 13.8-.1-.1s0 0 .1.1z"/><path d="m27.9 11.5c0 .1-.1.3 0 .5h.1c-.2-.1 0-.4-.1-.5z"/><path d="m28 9.3c0 .1.1.3.1.4 0-.1.1-.2.2 0 0-.6-.1.1-.3-.4z"/><path d="m27.5 8.1c.2.2.1-.1.2-.1-.2-.1-.2-.1-.2.1z"/><path d="m20.7 1.7.1-.1c-.2-.1-.1 0-.1.1z"/><path d="m18.7 1.9h.2s-.1 0-.2 0z"/><path d="m18 .5h.1l-.3-.1z"/><path d="m3.3 5.6.2.1c.1-.2-.1-.3-.2-.1z"/><path d="m.5 11.9c-.1 0-.2.2-.1.4 0-.2.1-.3.1-.4z"/><path d="m9.6 28.9h-.2l.3.1z"/><path d="m8.6 14.9s-.1.2 0 .2z"/><path d="m8.7 15.4c.1-.1.3-.2.3-.4-.2.2-.1.1-.3.4-.1-.1 0-.2 0-.3 0 0 0-.1-.1 0 0 .2 0 .2.1.3z"/><path d="m15.4 20.3s0 .1 0 0z"/><path d="m12.6 18.2v.1c.1 0 0 0 0-.1z"/><path d="m9.5 15.3c0 .1 0 .1 0 0z"/><path d="m11.4 17.7c-.1 0-.1 0 0 0z"/><path d="m10.5 17.2s.1-.1.2-.2c-.1.1-.1.1-.1.1-.1 0-.1.1-.1.1z"/><path d="m12 18.1s0 .1 0 0z"/><path d="m8.3 15.3v-.1z"/><path d="m18.2 13.3c-.2.1-.2-.2-.4 0 .1-.1.3.1.4 0z"/><path d="m17.3 21.4c.1 0 .1 0 0 0z"/><path d="m11.9 13.7-.1-.1c0 .1 0 .2.1.1z"/><path d="m9.4 15.4c.1 0 .1 0 0 0z"/><path d="m16.5 18.8v-.1z"/><path d="m16.5 18.3c.1 0 .1-.1.1-.1s0 0-.1.1z"/><path d="m11.3 14.5c.1-.1-.1-.2-.2-.4.1-.1.2.1.3.2 0-.1 0-.3 0-.4 0 0 0 0 .1.1 0-.2.2-.2.2-.5-.1-.1-.2-.2-.2-.3 0 0 0-.2.1-.1v.1-.1c.2.2 0 .1.1.3.1-.1.1-.4.2-.4.1.2-.1.2.1.3h-.2c.3.2-.1 0 .2.3.2-.1.1-.2.3-.3 0-.1-.1-.1-.2-.3.1-.3.5.3.5 0 0-.2-.2-.4 0-.4l.1.2c.2-.1-.1-.4.1-.3 0 .1-.1.2 0 .2.2.1 0-.2.1-.2l.1.2c.1-.1.2-.4.4-.6 0 .1 0 .1.1.2.2-.2.5-.3.8-.4v-.2s.1 0 .1.1c.1 0-.1-.1-.1-.2 0 0 .1 0 .1.1 0-.2.2-.6.5-.5v.1c.2 0-.1-.4.1-.4.3-.1.5-.5.9-.4-.1-.3.3-.1.1-.4.1.1.1.1.2.1l.1.1v-.3.2c0-.1 0-.2 0-.3v.3-.1s0-.1 0-.2.1-.1.1 0 0 .2 0 .3c0-.1.1-.2.1-.3 0 .1-.1.2-.1.3.1-.3-.1.3 0 0 0-.1.1-.2.1-.3 0 .2 0 .2 0 .1l-.1.3s.1-.1.1 0c.1-.1.3-.5.3-.5l-.1.5.2-.4c0 .1-.2.4-.3.5l.1-.1c-.1.1-.1.1-.2.3.1-.1 0 0 0 .1s-.1.1 0 0l-.1.1h.1c.2-.1.1-.1.3-.1-.1.1-.2.2-.2.2h.3c-.2-.1-.2 0-.3-.1 0 .2 0 .3.2.5.1 0 .1-.1.2 0 0 0-.1.1-.2.1.3.3-.5.7-.1.9l.2.2c0 .1-.1-.1-.2 0 .3.3 0 .4.1.6-.5.2 0 .6-.3.8h.1c.1.1-.1.1-.1.1.1 0 .1-.1.2 0 .1.5-.2 1-.3 1.6 0 .2.6.1.3.3l-.2-.1c.3.4 0 .8.2 1.1-.1 0-.1 0-.1-.1-.2.1 0 .3.1.3 0 .1-.1 0-.2 0-.1.1.2.2 0 .2h-.1c.1.1 0 .2.2.2-.1.1.1.3 0 .4.2.1-.1.2.2.3-.3 0-.2.2-.1.3-.1 0-.1.1-.2 0 0 .1 0 .1.1.1h.2c-.2 0-.1 0 0 .1.1 0 .1.1-.1 0 .2.1.3.4.3.6-.3.1-.3 0-.3 0s0-.1-.2-.2c.1.2.4.6.3.6 0 0-.1-.2-.2-.3v.1s-.1-.1-.1 0v-.1s-.1-.1 0 .1c.1.2.1.3.1.4s0 .2 0 .3c-.1-.5-.2-.2-.3-.8v.2s0-.1-.1-.2c0 .1 0 .3-.1.2 0-.1 0-.1 0-.2 0 .1-.1.3-.1.2v-.1c-.1 0-.3.2-.4 0 .2-.2 0-.1.1-.3h-.1v.1c-.1-.1-.3 0-.3-.1h.1l-.2-.1.1.1c-.2.1-.2.3-.2.1 0 0-.1-.1-.1-.2-.1 0-.2.1-.2 0s.2-.2.2-.3c-.2.1-.2-.1-.4.1 0 0 .1-.1.1-.2l-.1.1c0-.1 0-.1.1-.2 0 0 0 .4-.1.2h.1c-.1-.2-.4-.1-.5-.2.1-.2.2 0 .2-.2-.2-.1-.6 0-.7-.2-.2.3-.1-.2-.2-.2l.1-.1c-.1-.1-.3-.1-.6-.1l.1-.1c0-.1-.2-.2-.3-.3-.1.1-.1 0-.2.2 0-.6-.7-.1-.7-.6h.1l-.2-.1c-.1.1 0 .1 0 .2-.1.1-.2.1-.2.1.1 0 .1-.2.1-.3l-.1.1c0-.3-.2.3-.2 0v-.1c-.1 0-.2.1-.2 0 .1-.2.1 0 .2-.2-.1 0-.3.2-.3 0h.2c0-.2 0-.2-.1-.3l-.1-.2v.1c-.3.3-.3-.1-.5.1.3-.2.1-.1.2-.3 0-.1 0-.2 0-.2-.1.1 0-.2-.3 0 0-.1-.1 0 0-.2-.1 0 0 .1-.1.2-.2.1-.2-.4-.5-.3-.2 0-.4.2-.6.2 0-.1.2-.2.2-.2 0-.1-.1-.2-.2-.1 0 0 .1-.1.1-.2-.1 0-.2.2-.2 0 .1-.1.1-.1.2-.2-.1 0-.2.1-.3.1 0-.1.1-.1.2-.2-.1 0-.3 0-.4.1v.1s.1-.1.1-.2c.1-.1.1.1 0 .2h-.1c-.1.4.2.1.3.2l-.1.4.2-.1c0 .1-.1.2-.2.2 0 .2.1 0 .1.1h.1s-.1.2-.1.1c.1.2.3 0 .3.2.2 0 .1-.2.4-.3l-.2.5.1-.2v.1c.1-.1 0-.1.1-.2 0 .2.3.1.2.4.1-.1 0-.2.1-.2-.2.3.1 0 .1.2-.1.1-.2 0-.1.2.2-.2.1.2.2.2.1-.2.2 0 .4 0 0 .1.2.3.2.4.1-.2.2-.1.4-.1-.1.1-.1.2-.2.2h.1c.1-.1.1-.1.2-.1l-.1.4c.1.1.3-.1.4.1.1-.1.1-.5.3-.5 0 .1-.1.2-.2.2h.1l-.1.1c0 .1.1-.1.1 0-.1.1 0 .1-.1.2 0 0 0-.1-.1 0 0 .1.1.2 0 .3 0-.1.1-.2.1-.1.1.1 0 .2 0 .3.1-.1.1.1.2-.1v.2c.1 0 .3.1.3-.1.3-.1.3.3.5.4v.1c.1 0 .3.1.4 0v.2c.1 0 .2-.1.2.1-.1 0 0 .1-.1 0 .1.1 0 .2.3.1-.1.1 0 .2 0 .2v-.1c.1 0 .1.1.2.1l-.1.2c.1.4.6-.2.6.3.1-.1-.1-.2.1-.3.1.1 0 .4.1.4.1.2.3-.2.4 0 0-.1.1-.3.3-.3.1.1 0 .4-.1.4 0 0 0 0 0-.1 0 0-.1 0-.1.1l.1-.1c0 .1.1.2 0 .3.1 0 .1-.1.1-.2.1.2.2.1.3.3 0 0 0-.1.1-.1l.1.1h.1s.1-.1.2-.1c.1.2-.2.2.1.3.1.2 0 .2-.1.3.1 0 .2.1.3.2s.1.2.2.3h-.1c.1 0 .1 0 .2.1l-.1-.2c.1.1.1.1.1.2.1-.1 0-.3.1-.4.1.1.2 0 .3.3-.3-.2.1.3-.2.2 0 0 .1 0 .2.1v.1c.3.4.1-.2.3-.1 0 .1.1.4.2.3-.1-.1-.1-.3-.1-.4.2.2.1 0 .2.1l-.1-.1c0-.2 0-.1.1-.1.1.2 0 0 0 .1 0-.1.1 0 .2.1s.3.3.3.2c.1.2.2.4.3.5 0-.2.2.1.1-.3-.2-.2-.1-.1-.3-.5l.1.6c-.1-.2-.2-.4-.2-.6 0 .1.1.4.1.4-.1-.3-.1-.2-.2-.4.1.1.1 0 0-.1 0-.1-.1-.3 0-.2l.4.6c.1 0 0-.2 0-.4-.1-.2-.1-.4-.1-.5 0 0 0 0-.1 0-.2-.2 0-.2-.1-.4.1.1.2.1.3.1-.1-.1 0-.3-.3-.5.1 0 .1 0 .2-.1.1-.3-.4-.5-.3-.7.1.1.2 0 .3.2 0-.1 0-.2-.1-.2 0 0 0-.1 0-.2s-.1-.1 0-.1c-.1 0-.2 0-.2-.1h.1c-.1 0-.1-.1-.2 0 .4-.2 0-.5.3-.7 0-.1-.1-.3-.1-.4h.1c.1-.2-.4-.1-.2-.3.2-.1.1.1.2 0 .4 0-.1-.2.2-.3.1-.1-.2-.2-.1-.4h.1c-.2-.1-.3-.3-.4-.4.2 0 .1.1.3 0 0-.1-.3 0-.3-.1.1 0 .2-.1.4-.1v.1c.2-.1 0-.2 0-.2h.1c0-.2-.3-.2-.3-.4h-.1c-.3-.1.1-.1 0-.2h.3c-.1-.1-.3-.3-.3-.4.2.1.3.2.4.3 0-.1 0-.2-.1-.3 0 0 .1.1 0 .1-.2-.1-.3-.2-.3-.4.5 0 .1-.4.5-.5-.2-.3.1-.5.1-.8-.4.1 0-.1-.4-.1 0-.1 0-.1 0-.1l.2-.2c.1 0 .1.1.2.1 0-.2.2-.1.3-.2-.1 0-.2-.1-.2-.1l-.2.1c-.2-.2.3-.2.1-.4l.1.1c-.1-.1 0-.4-.3-.5h.2c0-.3-.3-.6-.1-.8h.1s-.2-.1-.1-.1h.1s-.2-.1-.1-.2l.1.1c.1-.1 0-.2-.1-.4-.1-.1-.2-.3-.2-.4.3-.1.4-.5.4-.7 0-.3 0-.5-.1-.6s-.2-.2-.2-.4c.2-.5.2-1 .2-1.5-.1 0-.2.1-.2.1 0 .1-.2.4-.3.5 0 0-.4.5-.2 0 .1-.4-.1-.1-.3 0l-.2.6c-.1-.3-.4 0-.6.2s-.4.4-.5.2c-.1.2-.2.2-.2.4l-.6-.5c-.1.1-.2.1-.4.2-.1 0-.1.1-.2.1l-.1.1v-.1c-.1.1.2.5.1.6l-.2-.2c-.2.1-.5.1-.5.4 0 0-.1-.1 0-.1-.1.1-.4.1-.2.4-.2-.2-.2.1-.2.3l-.1-.2c.1.3.1.3 0 .4 0 0-.1-.1 0-.1-.1 0 0 .2-.1.2v-.1c-.1.1-.1.1 0 .3 0 .1-.2.1-.3 0 0 .1.1.2 0 .2v-.1c-.2 0-.1.3-.3.3l-.1-.1c.1-.1.2-.1.2-.1-.1-.1-.2-.1-.3-.3 0 .2 0 .5-.1.5v.1h-.1c-.1-.1-.2 0-.2.1.1.1 0 .2.2.3 0 0 0 0 0-.1l.1-.1c0 .1 0 .2-.1.2 0 .1.1.2.1.3-.2-.2-.4-.2-.5-.3-.1.2-.3.3-.2.7 0 .1-.1 0-.2-.1v-.1c0 .1-.2.2-.1.4-.2 0-.1-.2-.2-.1v-.1c-.5-.1-.1.9-.7.7h.1c-.5.1-.6.7-1.2.7-.1 0-.1.2-.1.3l-.1-.1v.3c-.1.2-.6-.2-.6.2l.1.1c-.1 0-.2.2-.3.1 0 0 .1.1 0 .1l-.1-.1-.1.3c-.2 0-.2-.4-.4-.2v.4s.1 0 .2.1v.1c0-.2.1.1.4.1v-.2l.1.1v.1c.1.1.1-.1.1-.1.1.1.1.1.1.1l-.1-.3c.1.1.1.2.2.2 0-.1-.2-.2-.2-.3.1.1.2.2.2 0 .1.1.1.1.1.2 0-.1.1-.1.1-.3.2.1.2-.2.3.1 0-.1 0-.3 0-.3.1.4.2-.1.4.2-.1-.3.2-.3.2-.5v.1h.2c-.1-.2-.1-.3-.1-.5.2.1.1.3.3.5-.1-.2 0-.3-.1-.4.2.1.1 0 .3.2-.2-.3 0-.1 0-.3.2.1.2.2.3.1 0-.2 0 0 0 0zm2.1-2.3s0 .1 0 0zm.2-.1c-.1 0-.2 0-.1-.1 0 .1.1 0 .1.1zm-1.2-.8s.1 0 0 0c.1.1.1.1 0 0 .1.1 0 .1 0 0z"/><path d="m11.2 16.5v-.1z"/><path d="m10.8 16.2s0 .1 0 0z"/><path d="m15.2 19.1c.1 0 .1-.1 0 0z"/><path d="m9.2 15.1c-.1 0-.1 0 0 0z"/><path d="m9 15.1c.1 0 .1 0 0 0z"/><path d="m9.6 15.5c.1-.1.1 0 0 0z"/><path d="m9.8 15.6s0-.2-.1-.2c.1 0 0 .2.1.2z"/><path d="m10.1 16.7-.1-.1c0 .1 0 .2-.1.2 0 .2 0-.2.2-.1z"/><path d="m10.4 17c-.1 0-.1.1-.1.1.1 0 .1 0 .1-.1z"/><path d="m13.5 18.9-.1.1s0 0 .1-.1z"/><path d="m14.5 18.5v-.1l-.1.1z"/><path d="m14.2 19.7h.1z"/><path d="m18.1 18.1h-.2c.1.1.3.1.2 0z"/><path d="m17.9 15.6c.1 0 .2-.1.1-.1 0 0-.1 0-.1.1z"/><path d="m17.1 7.9.1-.1-.2.2z"/></g></svg>