<svg viewBox="0 0 30 30.2" xmlns="http://www.w3.org/2000/svg"><g fill="#fff"><path d="m-17.7-32c-.1 0-.1 0 0 0z"/><path d="m8.9 1.5.3-.3c-.1 0-.2 0-.3.1.2 0 .2 0 0 .2z"/><path d="m13.2 12-.1.1v.1c.1 0 .1-.1.1-.2z"/><path d="m1.1 10.3v.2c0-.2 0-.2.2-.4-.2 0-.2.2-.2.2z"/><path d="m29.4 13.6c0 .2-.2 0-.2 0s0 0 .2.2z"/><path d="m11.5.9c-.1 0-.1 0-.1 0 .1-.1.1 0 .1 0z"/><path d="m9.2 1.2.1-.2z"/><path d="m11.9 13.3c-.1-.1-.1.1 0 0z"/><path d="m18.7 29.4c0 .1 0 .1-.1.2.2 0 .2-.2.1-.2z"/><path d="m29.8 15.1-.2.2v-.2c-.2 0-.2 0-.2 0 0-.1 0-.3 0-.4s0-.2 0-.4c0 0 0 .2.2.2 0 .2 0 .2-.2.2 0 0 0 .2.2.2.2-.2.2-.4 0-.6h.2c-.4 0-.4-.2-.6-.2 0-.2 0-.2 0-.4.2-.2 0-.4-.2-.8 0 0 0 0-.2 0v-.2h.2s0 0 0-.2l.2.2-.2-.4h.2c0-.2-.2 0 0-.4l-.2-.2h.2c0-.4-.4-.6-.2-.8-.2-.4-.2 0-.6-.4.2-.2.2-.2.4-.4h-.2v-.5c-.2-.2 0 0-.2 0 0-.2 0-.4-.2-.4-.2-.2-.2-.2 0-.4-.2 0 0 .2-.2 0 .2-.2 0-.2 0-.4-.2-.2-.2-.2-.2-.2-.2-.2-.2-.4-.2-.4.2 0 .2.2.2.2s0 .2.2.2l.2.2v-.2c.2 0 .2.2.2 0-.2 0-.2-.2-.2-.2 0-.2 0-.2-.2-.4-.2.2-.4-.4-.6-.6.2 0-.2-.6-.4-1-.2 0-.4-.2-.6-.4.2-.2.2-.2.4 0l-.2-.2c-.2 0-.2 0-.2-.2h.2c-.2-.2-.6-.4-.8-.8-.2.2-.2.4-.4.4s-.2 0-.2 0-.2 0-.2-.2h.2s0-.1.1-.1c0 0 .1.1.2.1 0 0-.1-.1-.1-.1 0-.1-.1-.1-.1-.1-.1-.1-.2-.3-.2-.4 0 0-.2.2-.2 0-.2-.2 0-.2 0-.4-.2 0-.2-.2-.4 0v-.5c-.2 0-.4-.2-.6-.2v.2s0 0-.2 0-.2-.2-.4-.2c.2-.2 0-.2 0-.4-.2-.2-.4-.4-.6-.4-.4-.2-.6-.4-1.1-.4-.2 0-.2-.2-.2-.2-.2 0-.2 0-.6-.2.2 0 0-.2.2 0-.5-.3-.7-.3-.9-.3.2-.2-.2-.2-.4-.2l.2.2c-.2 0-.4-.2-.4-.2l.2-.2c-.4-.2-.8-.2-1.1-.2-.4 0-.6 0-.8-.2-.2.2.4.2.2.4-.3-.2-.7-.6-.7-.6-.4 0-.4.4-.8.2 0 .2 0 .2-.2.4-.2 0-.4-.4-.2-.4h.2c.2 0 .2 0 .2-.2-.4 0-.8 0-.8 0-.2 0-.2.2 0 .2-.4 0-.4 0-.8 0 0 0 .2.2 0 .2-.6 0-.2.2-.6.2-.2-.2 0-.2-.4-.2-.2 0 0-.2 0-.2-.2 0-.2 0-.2 0-.2 0-.2 0-.2 0-.2 0-.4 0-.4 0v-.2c-.2 0-.2.2-.4.2l.2.2c-.2 0-.2 0-.2 0-.2.2.2.2 0 .4-.2 0-.4.2-.4 0 .4 0-.2-.2.2-.2h-.2c-.4 0-.2.2-.6.4 0-.1 0-.1-.1-.2.1.1 0 .2-.1.2-.5 0-.3.3-.5.3h.2c0 .2-.2.2-.4.2 0 0 .2-.2 0-.2s-.6-.2-.8 0c-.3 0-.1-.3-.3-.3-.1.2-.3.1-.5.2l-.1.3c.2-.2.4-.2.4-.2-.1.1-.1.1-.1.1-.3 0-.4.5-.7.5l-.2-.4c-.3 0-.5.2-.5.4s-.4.2-.6.4h.2c0 .2-.2.2-.4.4 0-.2-.2-.2-.2-.2s-.5.2-.2.4h-.5c-.6.2-.4.7-.8 1.1 0-.2-.2-.2 0-.4-.2 0-.2.2-.2.2s-.2.4-.4.4v.2s-.2.2 0 .2c-.3 0-.5.2-.7.4 0 .2-.2.2-.2.2s0 0-.2.2c-.2.3-.2.5-.4.5 0 .2-.2.6-.4.8-.5.2 0 .4-.3.8-.2.2 0-.2-.2-.2-.4-.2-.2.5-.6.7v-.2c-.2.2 0 .6-.2 1 0 .4 0 .8-.2 1.3-.2-.2 0-.2-.2-.2 0 .2.2 0 .2.4-.2 0-.2.2-.4.2h-.3c-.2.4.2.6 0 1h.2c0 .6-.4.4-.2.6h-.2c0 .2.2.8.2 1-.4 0-.4-.4-.4-.8v.6c.2.2.2.6.2 1-.2-.2-.2.2-.4.4 0 .2 0 .6-.2.8.2.2.2.6.2 1s0 .8.2 1.3c.4-.4 0 .2.4.2 0 .2.2.2 0 .2h.2c0 .2-.2.2-.2.2v.4c-.2.2-.2-.2-.4-.2 0 .4-.2.2-.2.4.2-.2.2.2.2.4l.2-.4c.2.2.2.4.2.4 0 .2 0 .2.2.4l-.4.2c0 .2.2.4.2.6.3.6.5.8.5.8s0 .2-.2 0c.2.4.4.6.6 1 .2.2.4.6.4.8h.2c.2.2.2.2.2.2s.5.3.5.5h-.3c.2.2.4.4.6.6s.4.4.6.6c-.2.2.2.6.2.8.2.2.6.4.8.6s.6.2 1.1.4c0 .2.2.2.2.4.2.2.4.2.4.4.4.2.8.4 1.1.8 0-.2.2-.2.2-.2.2.2.4 0 .4.2s.4.4.6.4l.2-.2c.4.4.8.6 1.3.6.4 0 .8.2 1.1.4h.6v.2c.2 0 .4.2.6.2s.4.2.6 0l-.2.2c.4 0 .4-.4.8-.4h.2c.6 0 1.3.2 1.9 0 0 0 0 .2-.2.2.2 0 1.1 0 1.1-.2 0 .2.6 0 .8-.2v.2c.2-.2.2-.4.6-.4h.1c.1-.3 0-.4.3-.4l-.2.2c.2 0 .2-.2.4-.2.2-.2.6-.2.6 0 0-.2.2-.2.2-.2v.2c.2 0 .2 0 .4-.2.2 0 .2-.2.2-.2.2-.2.2-.2.4-.2h.2c-.4.2-.6.2-.6.2 0 .2.4 0 .2.4.2-.2.4-.6.8-.8 0 0 .2 0 .2-.2.2 0 .2 0 .2-.2h.2s.2 0 .2-.2v.2c.2 0 .2-.2.2-.2-.2-.2.2-.2-.2-.2 0 0 0 0-.2.2 0 0-.2.2-.4.2 0-.2.2-.2.4-.2 0-.2 0-.2 0-.4.4.2.8 0 .8 0 .2-.2.4-.4.6-.6s.2-.2.2-.2c0-.2.2-.2.2-.4s.2 0 .2 0c.2-.2.4-.5.2-.6.4-.2 0 .2.4 0v.2c.4-.2.6-.6.8-1s.2-.8.6-1c.2-.2.4-.4.6-.8.2-.2.4-.4.4-.8.2-.2.2-.6.4-.8s.2-.4.4-.8 0-.4 0-.6h.2c0-.2-.2-.2-.2-.4s.2-.4.2-.6.2-.2.2-.4 0-.2 0-.4h-.2c0-.2 0-.8.2-.6 0 0-.2-.2 0-.2h.2c0-.2 0-.4 0-.6.2-.4.4.2.4-.4 1.5-.4 1.3-.8 1.1-.8zm-17.1-3.6c.1.1 0 .1 0 0zm-2.5 5.5c0-.1.1-.1 0 0 .1-.1.1 0 0 0zm.1-.1v-.1l.1.1zm.5.5s0-.1.1-.1c-.1.1-.1.1-.1.1zm8.3-3.8c-.1 0-.1-.1-.2-.1l-.2.2v.1c.4 0 0 .2.4.1 0 .3-.3.5-.1.8-.4.1 0 .5-.5.5 0 .2.1.3.3.4.1 0 .1.1.1.2-.1-.1-.2-.2-.4-.3 0 .1.2.3.3.4h-.3c.1.1-.3.1 0 .2h.1c0 .2.3.2.3.4h-.1s.2.1 0 .2v-.1c-.2 0-.3.1-.4.1 0 .1.3 0 .3.1-.2.1-.1 0-.3 0 .1.1.2.3.4.4-.1 0-.1 0-.1 0-.1.2.2.3.1.4-.3.1.2.3-.2.3-.1.1 0-.1-.2 0-.2.2.3.1.2.3h-.1c0 .1.1.3.1.4-.2.2.1.5-.2.7h.1-.1c0 .1.1.1.2.1-.1 0 0 0 0 .1v.2c.1 0 .1.1.1.2-.1-.2-.2-.1-.3-.2-.1.2.4.4.3.7-.1.1-.1.1-.2.1.3.2.2.4.3.5-.1 0-.2 0-.3-.1.1.2-.1.2.1.4h.1c0 .1 0 .3.1.5 0 .2.1.4 0 .4l-.4-.6c-.1-.1 0 .1 0 .2.1.1.1.2 0 .1.1.2.1.1.2.3 0 .1.1.2.1.3l-.1-.6c.2.4.1.3.3.5.1.4-.1.1-.1.3-.1-.1-.2-.3-.3-.5 0 .1-.2-.1-.3-.2-.1 0-.2-.1-.2-.1v-.1c-.1 0-.1-.1-.1.1l.1.1c-.1-.1 0 .1-.2-.1 0 .1 0 .3.1.4-.1.1-.2-.2-.2-.3-.2-.1 0 .5-.3.1 0-.1 0-.1 0-.1-.1-.1-.2-.1-.2-.1.3.1-.1-.4.2-.2-.1-.3-.2-.2-.3-.3-.1.1 0 .3-.1.4-.1-.1-.1-.1-.2-.1h.1c-.1-.1-.1-.2-.2-.3s-.2-.2-.3-.2c.1-.1.2-.1.1-.3-.3-.1 0-.1-.1-.3-.1 0-.2.1-.2.1h-.1l-.1-.1c-.1 0-.1.1-.1.1-.1-.2-.2-.1-.3-.3 0 .1 0 .2-.1.2.1-.1 0-.1 0-.2.1 0 .2-.3.1-.4-.2 0-.3.2-.3.3-.1-.2-.3.2-.4 0-.1 0 0-.3-.1-.4-.2.1 0 .2-.1.3 0-.5-.5.1-.6-.3l.1-.2c-.1 0-.1-.1-.2-.1v.1s-.1-.1 0-.2c-.3.1-.2 0-.3-.1.1.1 0 0 .1 0 0-.2-.1-.1-.2-.1 0-.1 0-.2 0-.2-.1.1-.3 0-.4 0v-.1c-.2-.1-.2-.5-.5-.4 0 .2-.2.1-.3.1 0-.1 0-.2 0-.2-.1.2-.1 0-.2.1 0-.1.1-.2 0-.3h-.1c0-.1 0-.1 0-.2-.1-.2-.3 0-.4-.1l.1-.4c-.1 0-.1 0-.2.1h-.1c.1 0 .1-.1.2-.2-.2 0-.3-.1-.4.1 0-.1-.2-.3-.2-.4-.2 0-.3-.2-.4 0 0 .1 0 .1-.1.1 0 0 0-.1.1-.1-.1 0 0-.4-.2-.2-.1-.2 0-.1.1-.2 0-.1-.1-.1-.1-.1s0 0-.1 0v.1s0 0 0-.1c0 0 0 0 0-.1s-.2-.1-.2-.2c-.1.1 0 .1-.1.2v-.1l-.1.2.2-.5c-.3.1-.2.3-.4.3 0-.2-.2-.1-.3-.2.1 0 .1-.1.1-.1h-.1c0-.1-.1.1-.1-.1.1 0 .2-.1.2-.2l-.1.1h-.1v-.1s0 .2-.1.1v-.1l-.1-.1v.2c-.3 0-.4-.3-.4-.1v-.1c-.1-.1-.2-.1-.2-.1s0-.1 0-.2v-.1-.1c.1-.1.2.1.3.2 0-.1 0-.1 0-.2-.1 0 0-.2 0-.2v.2c.1-.1.1 0 .1 0v.2l.1-.4.1.1c0-.1 0-.1 0-.1h.1.1c0-.1.1-.1.1-.1l-.1-.1c0-.3.3-.1.5-.1l.1-.1v-.2l.1.2c0-.1 0-.3.1-.3.6 0 .7-.6 1.2-.7h.1l.1-.1c.1-.2 0-.7.4-.6v.1c.1-.1 0 .1.2.1-.1-.2.1-.3.1-.4v.1l.1.1.1-.1c-.1-.4.1-.5.2-.7.1.1.2.1.4.2h.1c-.1-.1-.1-.1-.1-.2-.2-.1-.1-.2-.2-.3 0-.1.1-.2.2-.1h.1c0-.1 0-.1 0-.1.1 0 .1-.3.1-.5.1.2.2.2.3.3 0 0-.1 0-.2.1l.1.1c.2 0 .1-.3.3-.3v.1c.1 0 0-.1 0-.2.1.1.3.1.3 0-.1-.2-.1-.2 0-.3v.1c.1 0 .1-.1.1-.2v.1c.1-.1.1-.1 0-.4l.1.2c0-.2 0-.5.2-.3-.1-.3.1-.3.2-.4v.1c0-.3.3-.3.5-.4l.2.2c.1-.1-.2-.5-.1-.6v.1l.1-.1c.1 0 .1-.1.2-.1.2-.1.3-.1.4-.2l.6.5c0-.2.1-.2.2-.4.1.2.3 0 .5-.2s.5-.5.6-.2l.2-.6c.2-.1.4-.4.3 0-.2.5.2 0 .2 0 .1-.1.3-.4.3-.5 0 0 .1-.1.2-.1 0 .5 0 1-.2 1.5 0 .2.1.3.2.4s.1.3.1.6c0 .2-.1.6-.4.7 0 .1.1.3.2.4.1.2.2.3.1.4l-.1-.1c-.1.1.1.2.1.2h-.1c-.1 0 .1.1.1.1h-.1c-.2.2.1.5.1.8h-.2c.3.1.2.4.3.5l-.1-.1c.2.2-.3.2-.1.4l.2-.1s.1.1.2.1c-.1.1-.3 0-.3.2zm-3.7 6.8c0-.1.1-.1.1-.1z"/><path d="m17 21.8c0-.1 0-.1-.1-.2z"/><path d="m24.5 25.8c-.1.1-.2.2-.2.2z"/><path d="m10.4 16.6c0 .1 0 .1 0 0 .1.1.1 0 0 0z"/><path d="m12.3 17.6c0 .1-.1.1-.1.2.1 0 .2-.1.1-.2z"/><path d="m12.2 18.1c.1-.1 0-.1.1-.2 0-.1-.1.1-.1 0l.1-.1h-.1c0 .1 0 .2-.1.3.1-.1.1 0 .1 0z"/><path d="m18 21.9c.1 0 0-.1 0 0z"/></g></svg>