<?xml version="1.0" encoding="utf-8"?>
<!-- Generator: Adobe Illustrator 22.0.1, SVG Export Plug-In . SVG Version: 6.00 Build 0)  -->
<svg version="1.1" id="Layer_1" xmlns="http://www.w3.org/2000/svg" xmlns:xlink="http://www.w3.org/1999/xlink" x="0px" y="0px"
	 viewBox="0 0 30 30.2" style="enable-background:new 0 0 30 30.2;" xml:space="preserve">
<style type="text/css">
	.st0{fill:#FFFFFF;}
</style>
<path class="st0" d="M8.9,1.5l0.3-0.3c-0.1,0-0.2,0-0.3,0.1C9.1,1.3,9.1,1.3,8.9,1.5z"/>
<path class="st0" d="M13.2,12l-0.1,0.1v0.1C13.2,12.2,13.2,12.1,13.2,12z"/>
<path class="st0" d="M1.1,10.3v0.2c0-0.2,0-0.2,0.2-0.4C1.1,10.1,1.1,10.3,1.1,10.3z"/>
<path class="st0" d="M29.4,13.6c0,0.2-0.2,0-0.2,0s0,0,0.2,0.2V13.6z"/>
<path class="st0" d="M11.5,0.9c-0.1,0-0.1,0-0.1,0C11.5,0.8,11.5,0.9,11.5,0.9z"/>
<path class="st0" d="M9.2,1.2L9.3,1L9.2,1.2z"/>
<path class="st0" d="M11.9,13.3C11.8,13.2,11.8,13.4,11.9,13.3z"/>
<path class="st0" d="M18.7,29.4c0,0.1,0,0.1-0.1,0.2C18.8,29.6,18.8,29.4,18.7,29.4z"/>
<path class="st0" d="M29.8,15.1l-0.2,0.2v-0.2c-0.2,0-0.2,0-0.2,0c0-0.1,0-0.3,0-0.4s0-0.2,0-0.4c0,0,0,0.2,0.2,0.2
	c0,0.2,0,0.2-0.2,0.2c0,0,0,0.2,0.2,0.2c0.2-0.2,0.2-0.4,0-0.6h0.2c-0.4,0-0.4-0.2-0.6-0.2c0-0.2,0-0.2,0-0.4c0.2-0.2,0-0.4-0.2-0.8
	c0,0,0,0-0.2,0v-0.2H29c0,0,0,0,0-0.2l0.2,0.2L29,12.3h0.2c0-0.2-0.2,0,0-0.4L29,11.7h0.2c0-0.4-0.4-0.6-0.2-0.8
	c-0.2-0.4-0.2,0-0.6-0.4c0.2-0.2,0.2-0.2,0.4-0.4h-0.2V9.6c-0.2-0.2,0,0-0.2,0c0-0.2,0-0.4-0.2-0.4C28,9,28,9,28.2,8.8
	c-0.2,0,0,0.2-0.2,0c0.2-0.2,0-0.2,0-0.4c-0.2-0.2-0.2-0.2-0.2-0.2c-0.2-0.2-0.2-0.4-0.2-0.4c0.2,0,0.2,0.2,0.2,0.2s0,0.2,0.2,0.2
	l0.2,0.2V8.2c0.2,0,0.2,0.2,0.2,0c-0.2,0-0.2-0.2-0.2-0.2c0-0.2,0-0.2-0.2-0.4c-0.2,0.2-0.4-0.4-0.6-0.6c0.2,0-0.2-0.6-0.4-1
	c-0.2,0-0.4-0.2-0.6-0.4c0.2-0.2,0.2-0.2,0.4,0l-0.2-0.2c-0.2,0-0.2,0-0.2-0.2h0.2C26.4,5,26,4.8,25.8,4.4c-0.2,0.2-0.2,0.4-0.4,0.4
	s-0.2,0-0.2,0S25,4.8,25,4.6h0.2c0,0,0-0.1,0.1-0.1c0,0,0.1,0.1,0.2,0.1l-0.1-0.1c0-0.1-0.1-0.1-0.1-0.1c-0.1-0.1-0.2-0.3-0.2-0.4
	c0,0-0.2,0.2-0.2,0c-0.2-0.2,0-0.2,0-0.4c-0.2,0-0.2-0.2-0.4,0V3.1c-0.2,0-0.4-0.2-0.6-0.2v0.2c0,0,0,0-0.2,0s-0.2-0.2-0.4-0.2
	c0.2-0.2,0-0.2,0-0.4c-0.2-0.2-0.4-0.4-0.6-0.4c-0.4-0.2-0.6-0.4-1.1-0.4c-0.2,0-0.2-0.2-0.2-0.2c-0.2,0-0.2,0-0.6-0.2
	c0.2,0,0-0.2,0.2,0C20.5,1,20.3,1,20.1,1c0.2-0.2-0.2-0.2-0.4-0.2L19.9,1c-0.2,0-0.4-0.2-0.4-0.2l0.2-0.2c-0.4-0.2-0.8-0.2-1.1-0.2
	c-0.4,0-0.6,0-0.8-0.2c-0.2,0.2,0.4,0.2,0.2,0.4C17.7,0.4,17.3,0,17.3,0c-0.4,0-0.4,0.4-0.8,0.2c0,0.2,0,0.2-0.2,0.4
	c-0.2,0-0.4-0.4-0.2-0.4h0.2c0.2,0,0.2,0,0.2-0.2c-0.4,0-0.8,0-0.8,0c-0.2,0-0.2,0.2,0,0.2c-0.4,0-0.4,0-0.8,0c0,0,0.2,0.2,0,0.2
	c-0.6,0-0.2,0.2-0.6,0.2c-0.2-0.2,0-0.2-0.4-0.2c-0.2,0,0-0.2,0-0.2c-0.2,0-0.2,0-0.2,0c-0.2,0-0.2,0-0.2,0c-0.2,0-0.4,0-0.4,0V0
	c-0.2,0-0.2,0.2-0.4,0.2l0.2,0.2c-0.2,0-0.2,0-0.2,0c-0.2,0.2,0.2,0.2,0,0.4c-0.2,0-0.4,0.2-0.4,0c0.4,0-0.2-0.2,0.2-0.2h-0.2
	c-0.4,0-0.2,0.2-0.6,0.4c0-0.1,0-0.1-0.1-0.2c0.1,0.1,0,0.2-0.1,0.2C11,1,11.2,1.3,11,1.3h0.2c0,0.2-0.2,0.2-0.4,0.2
	c0,0,0.2-0.2,0-0.2s-0.6-0.2-0.8,0C9.7,1.3,9.9,1,9.7,1C9.6,1.2,9.4,1.1,9.2,1.2L9.1,1.5c0.2-0.2,0.4-0.2,0.4-0.2
	C9.4,1.4,9.4,1.4,9.4,1.4C9.1,1.4,9,1.9,8.7,1.9L8.5,1.5C8.2,1.5,8,1.7,8,1.9S7.6,2.1,7.4,2.3h0.2c0,0.2-0.2,0.2-0.4,0.4
	C7.2,2.5,7,2.5,7,2.5S6.5,2.7,6.8,2.9H6.3C5.7,3.1,5.9,3.6,5.5,4c0-0.2-0.2-0.2,0-0.4c-0.2,0-0.2,0.2-0.2,0.2S5.1,4.2,4.9,4.2v0.2
	c0,0-0.2,0.2,0,0.2C4.6,4.6,4.4,4.8,4.2,5C4.2,5.2,4,5.2,4,5.2s0,0-0.2,0.2C3.6,5.7,3.6,5.9,3.4,5.9c0,0.2-0.2,0.6-0.4,0.8
	C2.5,6.9,3,7.1,2.7,7.5c-0.2,0.2,0-0.2-0.2-0.2C2.1,7.1,2.3,7.8,1.9,8V7.8c-0.2,0.2,0,0.6-0.2,1c0,0.4,0,0.8-0.2,1.3
	c-0.2-0.2,0-0.2-0.2-0.2c0,0.2,0.2,0,0.2,0.4c-0.2,0-0.2,0.2-0.4,0.2H0.8c-0.2,0.4,0.2,0.6,0,1H1c0,0.6-0.4,0.4-0.2,0.6H0.6
	c0,0.2,0.2,0.8,0.2,1c-0.4,0-0.4-0.4-0.4-0.8v0.6c0.2,0.2,0.2,0.6,0.2,1c-0.2-0.2-0.2,0.2-0.4,0.4c0,0.2,0,0.6-0.2,0.8
	c0.2,0.2,0.2,0.6,0.2,1s0,0.8,0.2,1.3c0.4-0.4,0,0.2,0.4,0.2c0,0.2,0.2,0.2,0,0.2H1C1,18,0.8,18,0.8,18v0.4
	c-0.2,0.2-0.2-0.2-0.4-0.2c0,0.4-0.2,0.2-0.2,0.4c0.2-0.2,0.2,0.2,0.2,0.4l0.2-0.4C0.8,18.8,0.8,19,0.8,19c0,0.2,0,0.2,0.2,0.4
	l-0.4,0.2c0,0.2,0.2,0.4,0.2,0.6C1.1,20.8,1.3,21,1.3,21s0,0.2-0.2,0c0.2,0.4,0.4,0.6,0.6,1c0.2,0.2,0.4,0.6,0.4,0.8h0.2
	C2.5,23,2.5,23,2.5,23S3,23.3,3,23.5H2.7c0.2,0.2,0.4,0.4,0.6,0.6s0.4,0.4,0.6,0.6c-0.2,0.2,0.2,0.6,0.2,0.8
	c0.2,0.2,0.6,0.4,0.8,0.6s0.6,0.2,1.1,0.4c0,0.2,0.2,0.2,0.2,0.4c0.2,0.2,0.4,0.2,0.4,0.4c0.4,0.2,0.8,0.4,1.1,0.8
	c0-0.2,0.2-0.2,0.2-0.2c0.2,0.2,0.4,0,0.4,0.2s0.4,0.4,0.6,0.4l0.2-0.2c0.4,0.4,0.8,0.6,1.3,0.6c0.4,0,0.8,0.2,1.1,0.4h0.6v0.2
	c0.2,0,0.4,0.2,0.6,0.2s0.4,0.2,0.6,0l-0.2,0.2c0.4,0,0.4-0.4,0.8-0.4h0.2c0.6,0,1.3,0.2,1.9,0c0,0,0,0.2-0.2,0.2
	c0.2,0,1.1,0,1.1-0.2c0,0.2,0.6,0,0.8-0.2v0.2c0.2-0.2,0.2-0.4,0.6-0.4h0.1c0.1-0.3,0-0.4,0.3-0.4l-0.2,0.2c0.2,0,0.2-0.2,0.4-0.2
	c0.2-0.2,0.6-0.2,0.6,0c0-0.2,0.2-0.2,0.2-0.2v0.2c0.2,0,0.2,0,0.4-0.2c0.2,0,0.2-0.2,0.2-0.2c0.2-0.2,0.2-0.2,0.4-0.2h0.2
	c-0.4,0.2-0.6,0.2-0.6,0.2c0,0.2,0.4,0,0.2,0.4c0.2-0.2,0.4-0.6,0.8-0.8c0,0,0.2,0,0.2-0.2c0.2,0,0.2,0,0.2-0.2h0.2
	c0,0,0.2,0,0.2-0.2v0.2c0.2,0,0.2-0.2,0.2-0.2c-0.2-0.2,0.2-0.2-0.2-0.2c0,0,0,0-0.2,0.2c0,0-0.2,0.2-0.4,0.2c0-0.2,0.2-0.2,0.4-0.2
	c0-0.2,0-0.2,0-0.4c0.4,0.2,0.8,0,0.8,0c0.2-0.2,0.4-0.4,0.6-0.6s0.2-0.2,0.2-0.2c0-0.2,0.2-0.2,0.2-0.4s0.2,0,0.2,0
	c0.2-0.2,0.4-0.5,0.2-0.6c0.4-0.2,0,0.2,0.4,0v0.2c0.4-0.2,0.6-0.6,0.8-1s0.2-0.8,0.6-1c0.2-0.2,0.4-0.4,0.6-0.8
	c0.2-0.2,0.4-0.4,0.4-0.8c0.2-0.2,0.2-0.6,0.4-0.8s0.2-0.4,0.4-0.8s0-0.4,0-0.6h0.2c0-0.2-0.2-0.2-0.2-0.4s0.2-0.4,0.2-0.6
	s0.2-0.2,0.2-0.4s0-0.2,0-0.4h-0.2c0-0.2,0-0.8,0.2-0.6c0,0-0.2-0.2,0-0.2h0.2c0-0.2,0-0.4,0-0.6c0.2-0.4,0.4,0.2,0.4-0.4
	C30.2,15.5,30,15.1,29.8,15.1z M12.7,11.5C12.8,11.6,12.7,11.6,12.7,11.5z M10.2,17C10.2,16.9,10.3,16.9,10.2,17
	C10.3,16.9,10.3,17,10.2,17z M10.3,16.9v-0.1l0.1,0.1H10.3z M10.8,17.4c0,0,0-0.1,0.1-0.1C10.8,17.4,10.8,17.4,10.8,17.4z
	 M19.1,13.6c-0.1,0-0.1-0.1-0.2-0.1l-0.2,0.2v0.1c0.4,0,0,0.2,0.4,0.1c0,0.3-0.3,0.5-0.1,0.8c-0.4,0.1,0,0.5-0.5,0.5
	c0,0.2,0.1,0.3,0.3,0.4c0.1,0,0.1,0.1,0.1,0.2c-0.1-0.1-0.2-0.2-0.4-0.3c0,0.1,0.2,0.3,0.3,0.4h-0.3c0.1,0.1-0.3,0.1,0,0.2h0.1
	c0,0.2,0.3,0.2,0.3,0.4h-0.1c0,0,0.2,0.1,0,0.2v-0.1c-0.2,0-0.3,0.1-0.4,0.1c0,0.1,0.3,0,0.3,0.1c-0.2,0.1-0.1,0-0.3,0
	c0.1,0.1,0.2,0.3,0.4,0.4c-0.1,0-0.1,0-0.1,0c-0.1,0.2,0.2,0.3,0.1,0.4c-0.3,0.1,0.2,0.3-0.2,0.3c-0.1,0.1,0-0.1-0.2,0
	c-0.2,0.2,0.3,0.1,0.2,0.3h-0.1c0,0.1,0.1,0.3,0.1,0.4c-0.2,0.2,0.1,0.5-0.2,0.7h0.1h-0.1c0,0.1,0.1,0.1,0.2,0.1c-0.1,0,0,0,0,0.1
	v0.2c0.1,0,0.1,0.1,0.1,0.2c-0.1-0.2-0.2-0.1-0.3-0.2c-0.1,0.2,0.4,0.4,0.3,0.7c-0.1,0.1-0.1,0.1-0.2,0.1c0.3,0.2,0.2,0.4,0.3,0.5
	c-0.1,0-0.2,0-0.3-0.1c0.1,0.2-0.1,0.2,0.1,0.4h0.1c0,0.1,0,0.3,0.1,0.5c0,0.2,0.1,0.4,0,0.4l-0.4-0.6c-0.1-0.1,0,0.1,0,0.2
	c0.1,0.1,0.1,0.2,0,0.1c0.1,0.2,0.1,0.1,0.2,0.3c0,0.1,0.1,0.2,0.1,0.3l-0.1-0.6c0.2,0.4,0.1,0.3,0.3,0.5c0.1,0.4-0.1,0.1-0.1,0.3
	c-0.1-0.1-0.2-0.3-0.3-0.5c0,0.1-0.2-0.1-0.3-0.2c-0.1,0-0.2-0.1-0.2-0.1v-0.1c-0.1,0-0.1-0.1-0.1,0.1L18,22c-0.1-0.1,0,0.1-0.2-0.1
	c0,0.1,0,0.3,0.1,0.4c-0.1,0.1-0.2-0.2-0.2-0.3c-0.2-0.1,0,0.5-0.3,0.1c0-0.1,0-0.1,0-0.1c-0.1-0.1-0.2-0.1-0.2-0.1
	c0.3,0.1-0.1-0.4,0.2-0.2c-0.1-0.3-0.2-0.2-0.3-0.3c-0.1,0.1,0,0.3-0.1,0.4c-0.1-0.1-0.1-0.1-0.2-0.1h0.1c-0.1-0.1-0.1-0.2-0.2-0.3
	s-0.2-0.2-0.3-0.2c0.1-0.1,0.2-0.1,0.1-0.3c-0.3-0.1,0-0.1-0.1-0.3c-0.1,0-0.2,0.1-0.2,0.1h-0.1L16,20.6c-0.1,0-0.1,0.1-0.1,0.1
	c-0.1-0.2-0.2-0.1-0.3-0.3c0,0.1,0,0.2-0.1,0.2c0.1-0.1,0-0.1,0-0.2c0.1,0,0.2-0.3,0.1-0.4c-0.2,0-0.3,0.2-0.3,0.3
	c-0.1-0.2-0.3,0.2-0.4,0c-0.1,0,0-0.3-0.1-0.4c-0.2,0.1,0,0.2-0.1,0.3c0-0.5-0.5,0.1-0.6-0.3l0.1-0.2c-0.1,0-0.1-0.1-0.2-0.1v0.1
	c0,0-0.1-0.1,0-0.2c-0.3,0.1-0.2,0-0.3-0.1c0.1,0.1,0,0,0.1,0c0-0.2-0.1-0.1-0.2-0.1c0-0.1,0-0.2,0-0.2c-0.1,0.1-0.3,0-0.4,0V19
	c-0.2-0.1-0.2-0.5-0.5-0.4c0,0.2-0.2,0.1-0.3,0.1c0-0.1,0-0.2,0-0.2c-0.1,0.2-0.1,0-0.2,0.1c0-0.1,0.1-0.2,0-0.3h-0.1
	c0-0.1,0-0.1,0-0.2c-0.1-0.2-0.3,0-0.4-0.1l0.1-0.4c-0.1,0-0.1,0-0.2,0.1h-0.1c0.1,0,0.1-0.1,0.2-0.2c-0.2,0-0.3-0.1-0.4,0.1
	c0-0.1-0.2-0.3-0.2-0.4c-0.2,0-0.3-0.2-0.4,0c0,0.1,0,0.1-0.1,0.1c0,0,0-0.1,0.1-0.1c-0.1,0,0-0.4-0.2-0.2c-0.1-0.2,0-0.1,0.1-0.2
	c0-0.1-0.1-0.1-0.1-0.1s0,0-0.1,0v0.1c0,0,0,0,0-0.1c0,0,0,0,0-0.1s-0.2-0.1-0.2-0.2c-0.1,0.1,0,0.1-0.1,0.2v-0.1L10,16.7l0.2-0.5
	c-0.3,0.1-0.2,0.3-0.4,0.3c0-0.2-0.2-0.1-0.3-0.2c0.1,0,0.1-0.1,0.1-0.1H9.5c0-0.1-0.1,0.1-0.1-0.1c0.1,0,0.2-0.1,0.2-0.2L9.5,16
	H9.4v-0.1c0,0,0,0.2-0.1,0.1v-0.1l-0.1-0.1V16c-0.3,0-0.4-0.3-0.4-0.1v-0.1c-0.1-0.1-0.2-0.1-0.2-0.1s0-0.1,0-0.2v-0.1v-0.1
	c0.1-0.1,0.2,0.1,0.3,0.2c0-0.1,0-0.1,0-0.2c-0.1,0,0-0.2,0-0.2v0.2c0.1-0.1,0.1,0,0.1,0v0.2l0.1-0.4l0.1,0.1c0-0.1,0-0.1,0-0.1h0.1
	h0.1C9.4,15,9.5,15,9.5,15l-0.1-0.1c0-0.3,0.3-0.1,0.5-0.1l0.1-0.1v-0.2l0.1,0.2c0-0.1,0-0.3,0.1-0.3c0.6,0,0.7-0.6,1.2-0.7h0.1
	l0.1-0.1c0.1-0.2,0-0.7,0.4-0.6v0.1c0.1-0.1,0,0.1,0.2,0.1c-0.1-0.2,0.1-0.3,0.1-0.4v0.1l0.1,0.1l0.1-0.1c-0.1-0.4,0.1-0.5,0.2-0.7
	c0.1,0.1,0.2,0.1,0.4,0.2h0.1c-0.1-0.1-0.1-0.1-0.1-0.2c-0.2-0.1-0.1-0.2-0.2-0.3c0-0.1,0.1-0.2,0.2-0.1h0.1c0-0.1,0-0.1,0-0.1
	c0.1,0,0.1-0.3,0.1-0.5c0.1,0.2,0.2,0.2,0.3,0.3c0,0-0.1,0-0.2,0.1l0.1,0.1c0.2,0,0.1-0.3,0.3-0.3v0.1c0.1,0,0-0.1,0-0.2
	c0.1,0.1,0.3,0.1,0.3,0c-0.1-0.2-0.1-0.2,0-0.3v0.1c0.1,0,0.1-0.1,0.1-0.2V11c0.1-0.1,0.1-0.1,0-0.4l0.1,0.2c0-0.2,0-0.5,0.2-0.3
	c-0.1-0.3,0.1-0.3,0.2-0.4v0.1c0-0.3,0.3-0.3,0.5-0.4l0.2,0.2c0.1-0.1-0.2-0.5-0.1-0.6v0.1l0.1-0.1c0.1,0,0.1-0.1,0.2-0.1
	c0.2-0.1,0.3-0.1,0.4-0.2l0.6,0.5c0-0.2,0.1-0.2,0.2-0.4c0.1,0.2,0.3,0,0.5-0.2s0.5-0.5,0.6-0.2l0.2-0.6c0.2-0.1,0.4-0.4,0.3,0
	c-0.2,0.5,0.2,0,0.2,0c0.1-0.1,0.3-0.4,0.3-0.5c0,0,0.1-0.1,0.2-0.1c0,0.5,0,1-0.2,1.5c0,0.2,0.1,0.3,0.2,0.4s0.1,0.3,0.1,0.6
	c0,0.2-0.1,0.6-0.4,0.7c0,0.1,0.1,0.3,0.2,0.4c0.1,0.2,0.2,0.3,0.1,0.4L19,11.5c-0.1,0.1,0.1,0.2,0.1,0.2H19c-0.1,0,0.1,0.1,0.1,0.1
	H19c-0.2,0.2,0.1,0.5,0.1,0.8h-0.2c0.3,0.1,0.2,0.4,0.3,0.5L19.1,13c0.2,0.2-0.3,0.2-0.1,0.4l0.2-0.1c0,0,0.1,0.1,0.2,0.1
	C19.3,13.5,19.1,13.4,19.1,13.6L19.1,13.6z M15.4,20.4c0-0.1,0.1-0.1,0.1-0.1L15.4,20.4z"/>
<path class="st0" d="M17,21.8c0-0.1,0-0.1-0.1-0.2L17,21.8z"/>
<path class="st0" d="M24.5,25.8c-0.1,0.1-0.2,0.2-0.2,0.2L24.5,25.8z"/>
<path class="st0" d="M10.4,16.6C10.4,16.7,10.4,16.7,10.4,16.6C10.5,16.7,10.5,16.6,10.4,16.6z"/>
<path class="st0" d="M12.3,17.6c0,0.1-0.1,0.1-0.1,0.2C12.3,17.8,12.4,17.7,12.3,17.6z"/>
<path class="st0" d="M12.2,18.1c0.1-0.1,0-0.1,0.1-0.2c0-0.1-0.1,0.1-0.1,0l0.1-0.1h-0.1c0,0.1,0,0.2-0.1,0.3
	C12.2,18,12.2,18.1,12.2,18.1z"/>
<path class="st0" d="M18,21.9C18.1,21.9,18,21.8,18,21.9z"/>
</svg>
