<?xml version="1.0" encoding="utf-8"?>
<!-- Generator: Adobe Illustrator 22.0.1, SVG Export Plug-In . SVG Version: 6.00 Build 0)  -->
<svg version="1.1" id="Layer_1" xmlns="http://www.w3.org/2000/svg" xmlns:xlink="http://www.w3.org/1999/xlink" x="0px" y="0px"
	 viewBox="0 0 30 30" style="enable-background:new 0 0 30 30;" xml:space="preserve">
<style type="text/css">
	.st0{fill:#F7F7F7;}
</style>
<path class="st0" d="M14.8,29.8l-0.2-0.2h0.2c0-0.2,0-0.2,0-0.2c0.1,0,0.3,0,0.4,0s0.2,0,0.4,0c0,0-0.2,0-0.2,0.2
	c-0.2,0-0.2,0-0.2-0.2c0,0-0.2,0-0.2,0.2c0.2,0.2,0.4,0.2,0.6,0v0.2c0-0.4,0.2-0.4,0.2-0.6c0.2,0,0.2,0,0.4,0c0.2,0.2,0.4,0,0.8-0.2
	c0,0,0,0,0-0.2h0.2V29c0,0,0,0,0.2,0l-0.2,0.2l0.4-0.2v0.2c0.2,0,0-0.2,0.4,0l0.2-0.2v0.2c0.4,0,0.6-0.4,0.8-0.2
	c0.4-0.2,0-0.2,0.4-0.6c0.2,0.2,0.2,0.2,0.4,0.4v-0.2h0.5c0.2-0.2,0,0,0-0.2c0.2,0,0.4,0,0.4-0.2c0.2-0.2,0.2-0.2,0.4,0
	c0-0.2-0.2,0,0-0.2c0.2,0.2,0.2,0,0.4,0c0.2-0.2,0.2-0.2,0.2-0.2c0.2-0.2,0.4-0.2,0.4-0.2c0,0.2-0.2,0.2-0.2,0.2s-0.2,0-0.2,0.2
	l-0.2,0.2h0.2c0,0.2-0.2,0.2,0,0.2c0-0.2,0.2-0.2,0.2-0.2c0.2,0,0.2,0,0.4-0.2c-0.2-0.2,0.4-0.4,0.6-0.6c0,0.2,0.6-0.2,1-0.4
	c0-0.2,0.2-0.4,0.4-0.6c0.2,0.2,0.2,0.2,0,0.4l0.2-0.2c0-0.2,0-0.2,0.2-0.2v0.2c0.2-0.2,0.4-0.6,0.8-0.8c-0.2-0.2-0.4-0.2-0.4-0.4
	s0-0.2,0-0.2s0-0.2,0.2-0.2v0.2c0,0,0.1,0,0.1,0.1c0,0-0.1,0.1-0.1,0.2l0.1-0.1c0.1,0,0.1-0.1,0.1-0.1c0.1-0.1,0.3-0.2,0.4-0.2
	c0,0-0.2-0.2,0-0.2c0.2-0.2,0.2,0,0.4,0c0-0.2,0.2-0.2,0-0.4h0.5c0-0.2,0.2-0.4,0.2-0.6h-0.2c0,0,0,0,0-0.2s0.2-0.2,0.2-0.4
	c0.2,0.2,0.2,0,0.4,0c0.2-0.2,0.4-0.4,0.4-0.6c0.2-0.4,0.4-0.6,0.4-1.1c0-0.2,0.2-0.2,0.2-0.2c0-0.2,0-0.2,0.2-0.6
	c0,0.2,0.2,0,0,0.2c0.3-0.5,0.3-0.7,0.3-0.9c0.2,0.2,0.2-0.2,0.2-0.4L29,19.9c0-0.2,0.2-0.4,0.2-0.4l0.2,0.2
	c0.2-0.4,0.2-0.8,0.2-1.1c0-0.4,0-0.6,0.2-0.8c-0.2-0.2-0.2,0.4-0.4,0.2c0.2-0.3,0.6-0.7,0.6-0.7c0-0.4-0.4-0.4-0.2-0.8
	c-0.2,0-0.2,0-0.4-0.2c0-0.2,0.4-0.4,0.4-0.2v0.2c0,0.2,0,0.2,0.2,0.2c0-0.4,0-0.8,0-0.8c0-0.2-0.2-0.2-0.2,0c0-0.4,0-0.4,0-0.8
	c0,0-0.2,0.2-0.2,0c0-0.6-0.2-0.2-0.2-0.6c0.2-0.2,0.2,0,0.2-0.4c0-0.2,0.2,0,0.2,0c0-0.2,0-0.2,0-0.2c0-0.2,0-0.2,0-0.2
	c0-0.2,0-0.4,0-0.4H30c0-0.2-0.2-0.2-0.2-0.4l-0.2,0.2c0-0.2,0-0.2,0-0.2c-0.2-0.2-0.2,0.2-0.4,0c0-0.2-0.2-0.4,0-0.4
	c0,0.4,0.2-0.2,0.2,0.2v-0.2c0-0.4-0.2-0.2-0.4-0.6c0.1,0,0.1,0,0.2-0.1c-0.1,0.1-0.2,0-0.2-0.1c0-0.5-0.3-0.3-0.3-0.5v0.2
	c-0.2,0-0.2-0.2-0.2-0.4c0,0,0.2,0.2,0.2,0s0.2-0.6,0-0.8c0-0.3,0.3-0.1,0.3-0.3c-0.2-0.1-0.1-0.3-0.2-0.5l-0.3-0.1
	c0.2,0.2,0.2,0.4,0.2,0.4c-0.1-0.1-0.1-0.1-0.1-0.1C28.5,9.1,28,9,28,8.7l0.4-0.2C28.5,8.2,28.2,8,28,8c-0.2,0-0.2-0.4-0.4-0.6v0.2
	c-0.2,0-0.2-0.2-0.4-0.4c0.2,0,0.2-0.2,0.2-0.2S27.2,6.5,27,6.8V6.3c-0.2-0.6-0.7-0.4-1.1-0.8c0.2,0,0.2-0.2,0.4,0
	c0-0.2-0.2-0.2-0.2-0.2s-0.4-0.2-0.4-0.4h-0.2c0,0-0.2-0.2-0.2,0c0-0.3-0.2-0.5-0.4-0.7c-0.2,0-0.2-0.2-0.2-0.2s0,0-0.2-0.2
	C24.2,3.6,24,3.6,24,3.4c-0.2,0-0.6-0.2-0.8-0.4c-0.2-0.5-0.4,0-0.8-0.3c-0.2-0.2,0.2,0,0.2-0.2c0.2-0.4-0.5-0.2-0.7-0.6h0.2
	c-0.2-0.2-0.6,0-1-0.2c-0.4,0-0.8,0-1.3-0.2C20,1.3,20,1.5,20,1.3c-0.2,0,0,0.2-0.4,0.2c0-0.2-0.2-0.2-0.2-0.4V0.8
	c-0.4-0.2-0.6,0.2-1,0V1c-0.6,0-0.4-0.4-0.6-0.2V0.6c-0.2,0-0.8,0.2-1,0.2c0-0.4,0.4-0.4,0.8-0.4H17c-0.2,0.2-0.6,0.2-1,0.2
	c0.2-0.2-0.2-0.2-0.4-0.4c-0.2,0-0.6,0-0.8-0.2c-0.2,0.2-0.6,0.2-1,0.2s-0.8,0-1.3,0.2c0.4,0.4-0.2,0-0.2,0.4c-0.2,0-0.2,0.2-0.2,0
	V1c-0.2,0-0.2-0.2-0.2-0.2h-0.4c-0.2-0.2,0.2-0.2,0.2-0.4c-0.4,0-0.2-0.2-0.4-0.2c0.2,0.2-0.2,0.2-0.4,0.2l0.4,0.2
	c-0.2,0.2-0.4,0.2-0.4,0.2c-0.2,0-0.2,0-0.4,0.2l-0.2-0.4c-0.2,0-0.4,0.2-0.6,0.2C9.2,1.1,8.9,1.3,8.9,1.3s-0.2,0,0-0.2
	c-0.4,0.2-0.6,0.4-1,0.6C7.7,1.9,7.3,2.1,7.2,2.1v0.2C6.9,2.5,6.9,2.5,6.9,2.5S6.7,3,6.4,3V2.7C6.2,2.9,6.1,3.1,5.8,3.3
	S5.4,3.7,5.2,3.9C5,3.7,4.6,4.1,4.4,4.1C4.2,4.3,4.1,4.7,3.8,4.9S3.6,5.5,3.4,6C3.2,6,3.2,6.2,3.1,6.2C2.8,6.4,2.8,6.6,2.7,6.6
	C2.4,7,2.3,7.4,1.9,7.7c0.2,0,0.2,0.2,0.2,0.2c-0.2,0.2,0,0.4-0.2,0.4S1.5,8.7,1.5,8.9l0.2,0.2c-0.4,0.4-0.6,0.8-0.6,1.3
	c0,0.4-0.2,0.8-0.4,1.1v0.6H0.5c0,0.2-0.2,0.4-0.2,0.6s-0.2,0.4,0,0.6l-0.2-0.2c0,0.4,0.4,0.4,0.4,0.8v0.2c0,0.6-0.2,1.3,0,1.9
	c0,0-0.2,0-0.2-0.2c0,0.2,0,1.1,0.2,1.1c-0.2,0,0,0.6,0.2,0.8H0.4c0.2,0.2,0.4,0.2,0.4,0.6v0.1c0.3,0.1,0.4,0,0.4,0.3L1,18.5
	c0,0.2,0.2,0.2,0.2,0.4c0.2,0.2,0.2,0.6,0,0.6c0.2,0,0.2,0.2,0.2,0.2H1.2c0,0.2,0,0.2,0.2,0.4c0,0.2,0.2,0.2,0.2,0.2
	c0.2,0.2,0.2,0.2,0.2,0.4v0.2c-0.2-0.4-0.2-0.6-0.2-0.6c-0.2,0,0,0.4-0.4,0.2c0.2,0.2,0.6,0.4,0.8,0.8c0,0,0,0.2,0.2,0.2
	c0,0.2,0,0.2,0.2,0.2v0.2c0,0,0,0.2,0.2,0.2H2.5c0,0.2,0.2,0.2,0.2,0.2c0.2-0.2,0.2,0.2,0.2-0.2c0,0,0,0-0.2-0.2
	c0,0-0.2-0.2-0.2-0.4c0.2,0,0.2,0.2,0.2,0.4c0.2,0,0.2,0,0.4,0c-0.2,0.4,0,0.8,0,0.8c0.2,0.2,0.4,0.4,0.6,0.6s0.2,0.2,0.2,0.2
	c0.2,0,0.2,0.2,0.4,0.2s0,0.2,0,0.2c0.2,0.2,0.5,0.4,0.6,0.2c0.2,0.4-0.2,0,0,0.4H4.7c0.2,0.4,0.6,0.6,1,0.8s0.8,0.2,1,0.6
	c0.2,0.2,0.4,0.4,0.8,0.6c0.2,0.2,0.4,0.4,0.8,0.4c0.2,0.2,0.6,0.2,0.8,0.4s0.4,0.2,0.8,0.4s0.4,0,0.6,0v0.2c0.2,0,0.2-0.2,0.4-0.2
	s0.4,0.2,0.6,0.2s0.2,0.2,0.4,0.2s0.2,0,0.4,0v-0.2c0.2,0,0.8,0,0.6,0.2c0,0,0.2-0.2,0.2,0v0.2c0.2,0,0.4,0,0.6,0
	c0.4,0.2-0.2,0.4,0.4,0.4C14.4,30.2,14.8,30,14.8,29.8z M18.5,12.7C18.3,12.8,18.3,12.7,18.5,12.7z M12.9,10.2
	C13.1,10.2,13.1,10.3,12.9,10.2C13.1,10.3,12.9,10.3,12.9,10.2z M13.1,10.3h0.1l-0.1,0.1V10.3z M12.6,10.8c0,0,0.1,0,0.1,0.1
	C12.6,10.8,12.6,10.8,12.6,10.8z M16.3,19.1c0-0.1,0.1-0.1,0.1-0.2l-0.2-0.2h-0.1c0,0.4-0.2,0-0.1,0.4c-0.3,0-0.5-0.3-0.8-0.1
	c-0.1-0.4-0.5,0-0.5-0.5c-0.2,0-0.3,0.1-0.4,0.3c0,0.1-0.1,0.1-0.2,0.1c0.1-0.1,0.2-0.2,0.3-0.4c-0.1,0-0.3,0.2-0.4,0.3v-0.3
	c-0.1,0.1-0.1-0.3-0.2,0v0.1c-0.2,0-0.2,0.3-0.4,0.3v-0.1c0,0-0.1,0.2-0.2,0h0.1c0-0.2-0.1-0.3-0.1-0.4c-0.1,0,0,0.3-0.1,0.3
	c-0.1-0.2,0-0.1,0-0.3c-0.1,0.1-0.3,0.2-0.4,0.4c0-0.1,0-0.1,0-0.1c-0.2-0.1-0.3,0.2-0.4,0.1c-0.1-0.3-0.3,0.2-0.3-0.2
	c-0.1-0.1,0.1,0,0-0.2c-0.2-0.2-0.1,0.3-0.3,0.2v-0.1c-0.1,0-0.3,0.1-0.4,0.1c-0.2-0.2-0.5,0.1-0.7-0.2v0.1v-0.1
	c-0.1,0-0.1,0.1-0.1,0.2c0-0.1,0,0-0.1,0h-0.2c0,0.1-0.1,0.1-0.2,0.1c0.2-0.1,0.1-0.2,0.2-0.3c-0.2-0.1-0.4,0.4-0.7,0.3
	c-0.1-0.1-0.1-0.1-0.1-0.2c-0.2,0.3-0.4,0.2-0.5,0.3c0-0.1,0-0.2,0.1-0.3c-0.2,0.1-0.2-0.1-0.4,0.1v0.1c-0.1,0-0.3,0-0.5,0.1
	c-0.2,0-0.4,0.1-0.4,0l0.6-0.4c0.1-0.1-0.1,0-0.2,0c-0.1,0.1-0.2,0.1-0.1,0c-0.2,0.1-0.1,0.1-0.3,0.2c-0.1,0-0.2,0.1-0.3,0.1
	l0.6-0.1c-0.4,0.2-0.3,0.1-0.5,0.3c-0.4,0.1-0.1-0.1-0.3-0.1c0.1-0.1,0.3-0.2,0.5-0.3c-0.1,0,0.1-0.2,0.2-0.3C8,18.1,8.1,18,8.1,18
	h0.1c0-0.1,0.1-0.1-0.1-0.1L7.9,18c0.1-0.1-0.1,0,0.1-0.2c-0.1,0-0.3,0-0.4,0.1c-0.1-0.1,0.2-0.2,0.3-0.2c0.1-0.2-0.5,0-0.1-0.3
	c0.1,0,0.1,0,0.1,0c0.1-0.1,0.1-0.2,0.1-0.2c-0.1,0.3,0.4-0.1,0.2,0.2c0.3-0.1,0.2-0.2,0.3-0.3c-0.1-0.1-0.3,0-0.4-0.1
	c0.1-0.1,0.1-0.1,0.1-0.2v0.1c0.1-0.1,0.2-0.1,0.3-0.2s0.2-0.2,0.2-0.3c0.1,0.1,0.1,0.2,0.3,0.1c0.1-0.3,0.1,0,0.3-0.1
	c0-0.1-0.1-0.2-0.1-0.2v-0.1L9.3,16c0-0.1-0.1-0.1-0.1-0.1c0.2-0.1,0.1-0.2,0.3-0.3c-0.1,0-0.2,0-0.2-0.1c0.1,0.1,0.1,0,0.2,0
	c0,0.1,0.3,0.2,0.4,0.1c0-0.2-0.2-0.3-0.3-0.3c0.2-0.1-0.2-0.3,0-0.4c0-0.1,0.3,0,0.4-0.1c-0.1-0.2-0.2,0-0.3-0.1
	c0.5,0-0.1-0.5,0.3-0.6l0.2,0.1c0-0.1,0.1-0.1,0.1-0.2h-0.1c0,0,0.1-0.1,0.2,0c-0.1-0.3,0-0.2,0.1-0.3c-0.1,0.1,0,0,0,0.1
	c0.2,0,0.1-0.1,0.1-0.2c0.1,0,0.2,0,0.2,0c-0.1-0.1,0-0.3,0-0.4h0.1c0.1-0.2,0.5-0.2,0.4-0.5c-0.2,0-0.1-0.2-0.1-0.3
	c0.1,0,0.2,0,0.2,0c-0.2-0.1,0-0.1-0.1-0.2c0.1,0,0.2,0.1,0.3,0v-0.1c0.1,0,0.1,0,0.2,0c0.2-0.1,0-0.3,0.1-0.4l0.4,0.1
	c0-0.1,0-0.1-0.1-0.2v-0.1c0,0.1,0.1,0.1,0.2,0.2c0-0.2,0.1-0.3-0.1-0.4c0.1,0,0.3-0.2,0.4-0.2c0-0.2,0.2-0.3,0-0.4
	c-0.1,0-0.1,0-0.1-0.1c0,0,0.1,0,0.1,0.1c0-0.1,0.4,0,0.2-0.2c0.2-0.1,0.1,0,0.2,0.1c0.1,0,0.1-0.1,0.1-0.1s0,0,0-0.1h-0.1
	c0,0,0,0,0.1,0c0,0,0,0,0.1,0s0.1-0.2,0.2-0.2c-0.1-0.1-0.1,0-0.2-0.1h0.1L13.2,10l0.5,0.2c-0.1-0.3-0.3-0.2-0.3-0.4
	c0.2,0,0.1-0.2,0.2-0.3c0,0.1,0.1,0.1,0.1,0.1V9.5c0.1,0-0.1-0.1,0.1-0.1c0,0.1,0.1,0.2,0.2,0.2l-0.1-0.1V9.4h0.1c0,0-0.2,0-0.1-0.1
	h0.1l0.1-0.1h-0.2c0-0.3,0.3-0.4,0.1-0.4h0.1c0.1-0.1,0.1-0.2,0.1-0.2s0.1,0,0.2,0h0.1h0.1c0.1,0.1-0.1,0.2-0.2,0.3
	c0.1,0,0.1,0,0.2,0c0-0.1,0.2,0,0.2,0h-0.2c0.1,0.1,0,0.1,0,0.1h-0.2l0.4,0.1l-0.1,0.1c0.1,0,0.1,0,0.1,0v0.1v0.1
	c0.1,0,0.1,0.1,0.1,0.1l0.1-0.1c0.3,0,0.1,0.3,0.1,0.5l0.1,0.1h0.2l-0.2,0.1c0.1,0,0.3,0,0.3,0.1c0,0.6,0.6,0.7,0.7,1.2v0.1l0.1,0.1
	c0.2,0.1,0.7,0,0.6,0.4h-0.1c0.1,0.1-0.1,0-0.1,0.2c0.2-0.1,0.3,0.1,0.4,0.1H17L17,12.4l0.1,0.1c0.4-0.1,0.5,0.1,0.7,0.2
	c-0.1,0.1-0.1,0.2-0.2,0.4v0.1c0.1-0.1,0.1-0.1,0.2-0.1c0.1-0.2,0.2-0.1,0.3-0.2c0.1,0,0.2,0.1,0.1,0.2v0.1c0.1,0,0.1,0,0.1,0
	c0,0.1,0.3,0.1,0.5,0.1c-0.2,0.1-0.2,0.2-0.3,0.3c0,0,0-0.1-0.1-0.2l-0.1,0.1c0,0.2,0.3,0.1,0.3,0.3h-0.1c0,0.1,0.1,0,0.2,0
	c-0.1,0.1-0.1,0.3,0,0.3c0.2-0.1,0.2-0.1,0.3,0h-0.1c0,0.1,0.1,0.1,0.2,0.1H19c0.1,0.1,0.1,0.1,0.4,0l-0.2,0.1c0.2,0,0.5,0,0.3,0.2
	c0.3-0.1,0.3,0.1,0.4,0.2h-0.1c0.3,0,0.3,0.3,0.4,0.5l-0.2,0.2c0.1,0.1,0.5-0.2,0.6-0.1h-0.1l0.1,0.1c0,0.1,0.1,0.1,0.1,0.2
	c0.1,0.2,0.1,0.3,0.2,0.4l-0.5,0.6c0.2,0,0.2,0.1,0.4,0.2c-0.2,0.1,0,0.3,0.2,0.5s0.5,0.5,0.2,0.6l0.6,0.2c0.1,0.2,0.4,0.4,0,0.3
	c-0.5-0.2,0,0.2,0,0.2c0.1,0.1,0.4,0.3,0.5,0.3c0,0,0.1,0.1,0.1,0.2c-0.5,0-1,0-1.5-0.2c-0.2,0-0.3,0.1-0.4,0.2
	c-0.1,0.1-0.3,0.1-0.6,0.1c-0.2,0-0.6-0.1-0.7-0.4c-0.1,0-0.3,0.1-0.4,0.2c-0.2,0.1-0.3,0.2-0.4,0.1l0.1-0.1
	c-0.1-0.1-0.2,0.1-0.2,0.1V19c0-0.1-0.1,0.1-0.1,0.1V19c-0.2-0.2-0.5,0.1-0.8,0.1v-0.2c-0.1,0.3-0.4,0.2-0.5,0.3l0.1-0.1
	c-0.2,0.2-0.2-0.3-0.4-0.1l0.1,0.2c0,0-0.1,0.1-0.1,0.2C16.5,19.3,16.5,19.1,16.3,19.1L16.3,19.1z M9.6,15.4c0.1,0,0.1,0.1,0.1,0.1
	L9.6,15.4z"/>
</svg>
