<?xml version="1.0" encoding="utf-8"?>
<!-- Generator: Adobe Illustrator 22.0.1, SVG Export Plug-In . SVG Version: 6.00 Build 0)  -->
<svg version="1.1" id="Layer_1" xmlns="http://www.w3.org/2000/svg" xmlns:xlink="http://www.w3.org/1999/xlink" x="0px" y="0px"
	 viewBox="0 0 30 30" style="enable-background:new 0 0 30 30;" xml:space="preserve">
<style type="text/css">
	.st0{fill:#FFFFFF;}
</style>
<g>
	<path class="st0" d="M15.4,28.7c0,0.1,0,0.2,0.1,0.2l0.1-0.2H15.4z"/>
	<path class="st0" d="M16.2,29.1c0.1-0.1,0.3-0.3,0.2-0.5c-0.1,0.2-0.2,0.1-0.3,0.4c-0.1,0-0.2-0.1-0.2-0.1c0,0.1-0.2,0-0.3,0.1
		c0.2,0.2,0.4,0.2,0.6,0C16.3,29,16.2,29,16.2,29.1z"/>
	<path class="st0" d="M27.1,23.4L27.1,23.4C27,23.4,27.1,23.4,27.1,23.4z"/>
	<path class="st0" d="M29.8,16C29.8,16.1,29.8,16.1,29.8,16C29.9,16.1,29.8,16,29.8,16z"/>
	<path class="st0" d="M30.1,14.7L30.1,14.7L30.1,14.7z"/>
	<path class="st0" d="M27.1,23.4l0.2-0.1C27.2,23.2,27.2,23.3,27.1,23.4z"/>
	<path class="st0" d="M17.8,28.3C17.8,28.4,17.8,28.4,17.8,28.3C17.8,28.4,17.8,28.4,17.8,28.3C17.8,28.4,17.8,28.4,17.8,28.3z"/>
	<path class="st0" d="M24.8,26.1L24.8,26.1c0,0.1,0,0.1,0,0.1V26.1z"/>
	<path class="st0" d="M22.6,27.7c0.1,0,0-0.2,0-0.3C22.6,27.5,22.6,27.5,22.6,27.7C22.6,27.6,22.6,27.7,22.6,27.7z"/>
	<path class="st0" d="M18.6,29L18.6,29C18.5,29,18.5,29,18.6,29z"/>
	<path class="st0" d="M26.3,24.8L26.3,24.8L26.3,24.8z"/>
	<path class="st0" d="M12.5,28L12.5,28L12.5,28z"/>
	<path class="st0" d="M15.4,29.2L15.4,29.2l-0.1,0.1L15.4,29.2z"/>
	<path class="st0" d="M30.1,12.1L30.1,12.1C30.1,12.2,30.1,12.1,30.1,12.1z"/>
	<path class="st0" d="M12.2,0.5c0.3,0.1-0.4,0.3,0.1,0.4C12.2,0.9,12.6,0.6,12.2,0.5z"/>
	<path class="st0" d="M17.9,28.4H18C18,28.3,17.9,28.3,17.9,28.4z"/>
	<path class="st0" d="M12.3,0.9L12.3,0.9L12.3,0.9L12.3,0.9z"/>
	<path class="st0" d="M27.7,6.7C27.6,6.7,27.6,6.7,27.7,6.7C27.6,6.8,27.7,6.7,27.7,6.7z"/>
	<path class="st0" d="M29.3,10.7v-0.1C29.3,10.7,29.3,10.7,29.3,10.7z"/>
	<path class="st0" d="M26,5.1C26,5,26,5,25.9,5C25.9,5,25.9,5,26,5.1C26,5,26,5,26,5.1z"/>
	<path class="st0" d="M24.3,3.5C24.3,3.5,24.3,3.6,24.3,3.5C24.3,3.6,24.4,3.6,24.3,3.5L24.3,3.5z"/>
	<path class="st0" d="M6.8,25.2c0,0.1,0,0.1,0,0.2C6.8,25.3,7.1,25.4,6.8,25.2z"/>
	<path class="st0" d="M17.9,28.4L17.9,28.4L17.9,28.4C17.8,28.4,17.8,28.4,17.9,28.4z"/>
	<path class="st0" d="M24.9,6l-0.2-0.2C24.7,5.8,24.8,5.9,24.9,6z"/>
	<path class="st0" d="M2.6,11.4L2.6,11.4L2.6,11.4z"/>
	<path class="st0" d="M23.9,5.1c0-0.1,0-0.1,0-0.2c0,0,0,0-0.1,0L23.9,5.1z"/>
	<path class="st0" d="M6.7,25.4L6.7,25.4L6.7,25.4z"/>
	<path class="st0" d="M8.8,26.3c-0.3-0.2-0.3,0.1-0.4,0.2c-0.4-0.1-0.1-0.2-0.1-0.4c-0.1,0-0.2,0-0.4,0c-0.1,0-0.2,0-0.3-0.1
		c0,0,0-0.1,0.1-0.1c-0.3,0-0.6-0.4-1-0.4v-0.1c0,0.1-0.1,0.2-0.2,0.3c-0.1-0.1-0.3-0.1-0.2-0.2c0.1,0.1,0.1,0,0.2,0l-0.2-0.1
		c0-0.3,0.2,0.1,0.3,0c-0.3-0.1-0.7-0.2-0.8-0.4c0.1-0.2,0.5,0.3,0.4,0l0.2,0.3c0-0.4,0.1,0.2,0.2-0.3c-0.3-0.4-0.5-0.2-0.7-0.6
		c-0.2,0-0.1,0.2-0.3,0.2c-0.6-0.3,0.1-0.8-0.5-0.9c-0.2,0-0.4,0.1-0.5-0.2l0.3-0.1c-0.2-0.4-0.4,0-0.6-0.5c0.1,0,0.3,0.2,0.3,0.2
		c0-0.4-0.2-0.1-0.4-0.3l0.2-0.2c-0.1-0.2-0.3-0.4-0.5-0.6c-0.2-0.2-0.4-0.4-0.5-0.6c0.1,0,0.2,0,0.2-0.1c-0.2-0.3-0.3-0.6-0.5-0.9
		c-0.1-0.3-0.1-0.7-0.2-1l-0.3-0.2c0-0.1,0.1-0.1,0.1-0.1c0-0.3-0.1,0-0.2-0.1c0-0.1,0.1-0.2,0.1-0.1c-0.1-0.2-0.3-0.5-0.4-0.8
		c-0.1-0.1-0.1-0.3-0.1-0.5s0-0.3,0-0.4l0.1,0.1c0-0.4-0.5-0.4-0.3-0.7v0.1c0-0.4,0-0.8,0-1.2c0-0.1,0-0.2,0-0.3s0-0.2,0-0.3
		c0-0.2,0.1-0.3,0.2-0.5C2,14.3,2,14.1,2,14c0-0.2,0.1-0.4-0.1-0.4c0.3-0.4,0.3-0.3,0.5-0.9c0-0.2-0.2-0.3-0.2-0.5h0.2l-0.1-0.3
		l0.3-0.1v-0.2c0,0.1-0.1,0.1-0.2,0.1c0-0.2,0.1-0.3,0.2-0.5C2.7,11.1,2.8,11,2.9,11L3,10.3c0.1,0,0.1,0.2,0.1,0.3
		c-0.1-0.4,0.2,0,0.2-0.4c-0.1,0-0.1-0.1-0.1-0.1C3.4,10,3.6,9.6,3.6,9.3H3.5c0.2-0.5,0.5-1,0.8-1.5C4.1,7.9,4,7.8,4,7.6l0.2,0.1
		C4.1,7.5,4,7.8,4,7.5c0.2-0.2,0.3,0,0.3,0.2l0.2-0.3c0.1,0,0.1,0.1,0.1,0.2c0-0.2,0.5-0.2,0.4-0.5h0.1C5.2,7,5.3,6.9,5.3,6.8
		c0.1-0.1,0.1-0.2,0.2-0.3c0-0.2,0.2-0.3,0.3-0.5c-0.1-0.1,0-0.2,0-0.5c0.3-0.2,0.7-0.4,1-0.7c0.2-0.3,0-0.2,0-0.4
		c0.1,0.1,0.5-0.2,0.4,0.1c0.2-0.2,0.3-0.3,0.5-0.4C7.8,4,7.8,4,7.9,3.9s0.2-0.2,0.3-0.3C8.1,3.6,8,3.6,8,3.5c0.1-0.1,0.3-0.1,0.3,0
		l0,0C8.6,3.2,9,3.1,9.4,3C9.6,3,9.8,2.9,10,2.9c0.1,0,0.2-0.1,0.2-0.1c0.1,0,0.1-0.1,0.2-0.2l0,0l0.5-0.4c0.3-0.1-0.1,0.2,0.1,0.2
		c0.1-0.1,0.3-0.2,0.4-0.3c0.1,0,0.3-0.1,0.4-0.1c0.2,0,0.5-0.1,0.7-0.2c0.3,0.2,0.6,0.1,1,0c0.2,0,0.4-0.1,0.6-0.1
		c0.2,0,0.4,0,0.5,0.1V1.7c0,0.1,0.1,0.3,0.2,0.3c0-0.1-0.2-0.1-0.1-0.2c0.6-0.1,1.3,0,1.9,0.1c0.3,0.1,0.6,0.2,0.9,0.3L18,2.3
		c0.1,0.1,0.3,0.1,0.4,0.2c0.4,0.1,0.4-0.5,0.9-0.1l-0.2,0.2c0.5,0,0.9,0.2,1.4,0.4c0.4,0.2,0.8,0.4,1.3,0.5c-0.1,0-0.1,0.1-0.2,0
		c0.1,0.2,0.6,0.4,0.7,0.3c0.1,0.1,0,0.1,0,0.2c0.1,0.1,0.5,0,0.5,0.2h-0.1c0.1,0,0.5,0.4,0.5,0.1c0.2,0.3,0.6,0.3,0.7,0.6
		c0.3,0,0.4,0.5,0.6,0.3c-0.2,0.2,0.3,0.6,0.5,0.6c-0.1,0,0.1,0.2-0.1,0.2c0.2,0.2,0.4,0.3,0.4,0.2c0,0.6,0.8,0.5,0.6,1
		c0.1,0.1,0.3,0.2,0.4,0.4c0.2,0.2,0.3,0.3,0.4,0.4s0.2,0.3,0.3,0.4l0.2,0.2l0.1,0.2c-0.1,0.1-0.2-0.1-0.3-0.3
		c-0.1-0.1-0.2-0.2-0.3-0.1c0.1,0.1,0.2,0.2,0.3,0.3s0.2,0.2,0.3,0.3c0.2,0.2,0.3,0.4,0.4,0.7c0,0.2-0.2,0-0.2-0.1
		c0.2,0.3,0.3,0.6,0.4,0.8c0.1,0.1,0.1,0.3,0.2,0.4c0.1,0.1,0.1,0.3,0.2,0.4c0,0-0.1,0-0.1-0.1c0,0.1,0,0.3,0.1,0.2l-0.1-0.1
		c0.1-0.2,0.5,0.3,0.6,0.3c-0.4-0.1,0,0.6-0.5,0.4c0,0.1,0.1,0.1,0.2,0.1c0,0.1,0,0.2-0.2,0.1c0.2,0.3,0.2,0.3,0.3,0.4
		s0.1,0.1,0.1,0.3c-0.1,0-0.1-0.1-0.2-0.1c0.2,0.2,0.3,0.3,0.3,0.6c0,0-0.1,0-0.1-0.1c0.1,0.5,0.4,0.9,0.3,1.5
		c-0.3-0.2-0.1,0.2-0.3,0.2c0,0.1,0.1,0.2,0.1,0.3l0.1-0.1c0,0.3,0.1,0.5,0.1,0.8l-0.1-0.2v0.5l0.1-0.3c0.1,0.3,0.3,0,0.2,0.4
		c0-0.1,0,0.3-0.2,0.4l0,0c0.1,0.1,0.1,0.3,0,0.5c-0.1,0-0.3-0.1-0.3-0.1c0.2,0.2,0,0.6,0.1,0.9c0-0.1-0.2-0.1-0.2-0.1l0.3,0.1
		c-0.1,0.1-0.1,0.1-0.2,0.1c-0.1,0.4,0.3,0,0.1,0.4c0,0,0,0,0-0.1c-0.2,0.2-0.2,0.4-0.3,0.6c0,0.2-0.1,0.4-0.2,0.6
		c-0.3,0,0.1-0.4-0.2-0.3c-0.1,0.3-0.1,0.6-0.2,0.9s-0.2,0.6-0.3,0.9l0.2-0.1c0.3,0.2-0.3,0.3-0.3,0.7c0-0.1-0.1-0.2-0.1-0.1
		c-0.3,0.3-0.3,0.7-0.6,1.3v-0.1c-0.2,0.1-0.4,0.5-0.6,0.7c0,0.1-0.1,0.2,0.1,0.2c-0.1,0-0.2,0.1-0.3,0.1c-0.1,0.1-0.2,0.1-0.2,0.2
		c-0.1,0.1-0.2,0.3-0.3,0.5s-0.2,0.3-0.3,0.5c-0.1,0.1-0.3,0.2-0.5,0.3c0.1-0.1,0.1-0.2,0-0.1l-0.4,0.5c0.1,0.1,0.1,0,0.3,0
		c0,0.1-0.1,0.3-0.2,0.4c0.1-0.3-0.2-0.2-0.3-0.2c0,0,0,0.1,0.1,0.1c-0.4,0,0.2,0.3-0.3,0.4v-0.1c-0.1,0.1-0.2,0.3-0.3,0.4
		c-0.2-0.1,0.1-0.2,0-0.3c-0.2,0.2-0.2,0.6-0.5,0.5c0.1-0.1,0.2-0.2,0.2-0.3c-0.3,0-0.3,0-0.5,0.1l0,0l-0.4,0.1h0.1
		c0,0.3-0.1,0.4-0.3,0.5c-0.1,0-0.1,0.1-0.2,0.1c-0.1,0.1-0.1,0.1-0.2,0.2c0.2-0.4,0-0.2-0.1-0.4c-0.1,0-0.3,0-0.3-0.1
		c-0.1,0.2-0.3,0-0.5,0.4c0-0.1-0.2,0.1-0.2-0.1c-0.2,0.2,0.1,0.1,0.1,0.2c-0.1,0.2-0.4,0.2-0.6,0.2c-0.3,0-0.5,0.1-0.7,0.3
		c-0.4,0.3-0.5,0.5-0.9,0.7c-0.2-0.1,0.1-0.3,0.1-0.3c-0.3,0-0.4,0-0.6,0.1c0-0.1,0-0.1-0.1-0.2c-0.2,0-0.1,0.3-0.3,0.2
		c0-0.1,0.1-0.2,0.1-0.3c-0.2,0.1-0.4,0.2-0.6,0.3c-0.1-0.1,0.1-0.2,0.2-0.3c-0.2,0.1-0.6,0.2-0.7,0.4l0.2,0.1c-0.1,0-0.1-0.1,0-0.2
		c0.2-0.2,0.3,0,0.3,0.1L17,28.8c0.2,0.4,0.6-0.2,1-0.2l-0.1,0.3l0.3-0.3c0.1,0.1,0.2,0.2,0,0.3c0.3,0.1,0.2-0.1,0.4,0l0,0l0.2-0.1
		c0,0.1,0.1,0.2-0.1,0.2c0.5,0,0.6-0.4,0.8-0.2l0,0c0.5-0.3,0-0.2,0.3-0.6c0.1,0.1,0.3,0.2,0.4,0.4v-0.2c0.1,0,0.2,0,0.2,0
		c0.2-0.2-0.1-0.1,0-0.2c0.2,0,0.3,0,0.5-0.1s0.3-0.1,0.4,0c0-0.2-0.3,0-0.1-0.2c0.3,0.3,0.3-0.2,0.6-0.2c0,0.2-0.3,0.2,0.1,0.2
		c0-0.2,0.1-0.2,0.3-0.2c0.1,0,0.3,0,0.4-0.1c-0.1-0.2,0.4-0.3,0.6-0.6c0,0.1,0.7-0.3,1-0.4l0,0c-0.1-0.2,0.2-0.4,0.4-0.6
		c0.1,0.1,0.1,0.2,0,0.3c0.1-0.1,0.1-0.1,0.2-0.2c0-0.1,0-0.2,0.1-0.3L25,26c0.2-0.2,0.4-0.6,0.7-0.8c-0.1-0.1-0.6-0.1-0.3-0.5
		c0.1,0.1,0.2,0.2,0.1,0.3c0,0,0-0.2,0.1-0.2V25c0.2-0.1,0-0.2,0.1-0.3c0.1,0.1,0.1,0,0.2,0.1l-0.1,0.1c0.1-0.1,0.3-0.2,0.5-0.2
		c-0.1,0-0.1-0.1-0.1-0.2c0.2-0.3,0.2,0,0.4-0.1c0-0.1,0.2-0.2,0-0.4c0.1-0.1,0.1,0,0.2,0c0-0.2,0.5-0.7,0.2-0.6l0,0l0,0l0,0l0,0
		c0-0.1,0.1-0.3,0.2-0.4s0.2-0.2,0.3-0.3c0.2-0.2,0.4-0.4,0.5-0.7h0.1c0.1-0.3,0.3-0.7,0.3-0.9c-0.1-0.1,0-0.1,0.1-0.1
		c0.1-0.3,0-0.3,0.2-0.6c0,0.3,0.1,0,0,0.3c0.2-0.3,0.3-0.3,0.2-0.7c0.1,0.2,0.3-0.2,0.3-0.3L29,19.9c0-0.2,0.1-0.3,0.2-0.5l0.2,0.1
		c0.2-0.3,0.2-0.6,0.2-0.9s0-0.6,0.2-0.8c-0.1-0.2-0.1,0.4-0.3,0.2c0.1-0.3,0.4-0.6,0.5-0.7c0.2-0.4-0.2-0.4-0.1-0.9
		c-0.1,0.1-0.3,0.1-0.4-0.3c0-0.3,0.3-0.4,0.4-0.2c0,0.1,0,0.1-0.1,0.1c0,0.1,0.1,0.2,0.1,0.1h-0.1c0.1-0.1,0.1-0.6,0.2-0.5
		c-0.1-0.2-0.1-0.1-0.2,0.1c0.1-0.4,0.1-0.6,0.1-1c0,0.1-0.1,0.1-0.1,0.1c0.1-0.6-0.2-0.3-0.2-0.7c0.1-0.2,0.3,0.1,0.2-0.3
		c0.1-0.3,0.2-0.1,0.3,0c0-0.1-0.1-0.2-0.1-0.3s0-0.2,0-0.3c0-0.2,0.1-0.3,0.1-0.4l0.1,0.2c-0.1-0.1-0.1-0.2-0.1-0.3L30,12.8
		c0-0.1,0-0.2,0.1-0.2c-0.1-0.1-0.2,0.1-0.4-0.1c0.1-0.2-0.1-0.5,0-0.5c0,0.5,0.2-0.1,0.3,0.3c0-0.1-0.1-0.2,0-0.3c0,0,0,0,0.1,0
		c0.1-0.5-0.3-0.2-0.4-0.6c0.1,0,0.2-0.2,0.1-0.2c0,0.2-0.2,0.1-0.3,0c0-0.3-0.2-0.3-0.2-0.5v0.2c-0.1,0-0.1-0.2-0.3-0.4
		c0.1,0,0.1,0.2,0.1,0.1c-0.3-0.2,0-0.6-0.2-0.9c0-0.2,0.2-0.1,0.2-0.2c-0.3-0.3,0-0.4-0.3-0.8c-0.1,0.2-0.1,0.2-0.3,0l0.4,0.5
		L28.6,9c0.1,0.2,0.3,0.3,0.3,0.5c-0.2-0.1-0.2-0.1-0.2,0c0-0.4-0.4-0.5-0.4-0.8l0.3-0.2c0-0.2-0.1-0.4-0.3-0.6
		c-0.2-0.1-0.3-0.3-0.5-0.6v0.2c-0.2,0-0.2-0.3-0.4-0.4c0.2-0.1,0.2-0.2,0.2-0.3c-0.1,0.1-0.3-0.4-0.5-0.3V6.2
		c-0.2-0.4-0.6-0.2-0.9-0.6c0.2,0,0.1-0.2,0.4,0c-0.1-0.1-0.2-0.3-0.2-0.2c0-0.1-0.5-0.2-0.5-0.4c-0.1,0-0.2,0.1-0.3-0.1l0,0
		c0,0-0.3-0.1-0.2,0.1c0-0.3-0.3-0.5-0.5-0.7c-0.1-0.2-0.3-0.3-0.4-0.4s-0.2-0.2-0.2-0.3C24,3.4,23.7,3.2,23.4,3c0,0,0-0.1,0.1,0
		c-0.3-0.3-0.4,0.2-0.8-0.2c-0.1-0.3,0.3,0,0.2-0.1c0.2-0.4-0.5-0.3-0.7-0.6h0.1c-0.2-0.2-0.6-0.1-1-0.3c0,0,0,0,0-0.1
		c-0.3,0.1-0.9,0-1.2-0.1c0.2-0.1,0.2,0,0.2-0.2c-0.2,0,0,0.3-0.4,0.2c-0.1-0.1-0.3-0.3-0.3-0.5c0.1,0,0.2,0.1,0.3,0.1
		c0-0.1-0.1-0.2-0.3-0.2c-0.1,0-0.2,0-0.3,0l0.1-0.1c-0.5-0.1-0.6,0.2-1.1,0V1c-0.3,0.2-0.2-0.2-0.5,0V0.7c-0.2,0-0.7,0.1-1.1,0.2
		c0.2-0.2,0.6-0.2,0.9-0.3c-0.2,0-0.7-0.1-0.8,0c0.1,0,0.2-0.1,0.3,0c-0.3,0.2-0.6,0.3-1,0.2c0-0.3-0.2-0.3-0.5-0.3s-0.6,0-0.8-0.2
		c-0.3,0.1-0.7,0.1-1.1,0.1s-0.7,0-1.1,0.1c0.4,0.3-0.2,0-0.1,0.4C12.3,1,12.3,1,12.2,1l-0.6-0.1c-0.2-0.1,0.2-0.1,0.1-0.2
		c-0.4,0.1-0.2-0.1-0.5-0.2c0.1,0.1-0.1,0.2-0.3,0.2l0.4,0.1C11,1,10.9,0.9,10.8,0.9c-0.1,0-0.3-0.1-0.5,0.1l0.1-0.2
		C10.3,0.9,10,1,9.8,1.1C9.5,1.2,9.3,1.4,9.3,1.6c-0.1,0-0.2-0.1-0.1-0.2C8.9,1.5,8.5,1.8,8.2,2C7.9,2.3,7.6,2.5,7.3,2.5V2.4
		C7.2,2.5,7.2,2.7,7,2.7c0,0,0-0.1-0.1-0.1C6.9,2.7,6.7,3,6.5,3h0.1C6.3,3.2,6.1,3.4,6,3.6C5.9,3.8,5.8,4.1,5.6,4.3
		C5.4,4.1,4.9,4.4,4.7,4.6l0,0C4.4,4.9,4.2,5.2,4,5.5s-0.3,0.6-0.5,1c-0.1,0-0.3,0.1-0.4,0.3C3,6.9,2.9,7.1,2.7,7.3
		C2.5,7.6,2.2,8,2,8.3c0.1-0.1,0.2,0.1,0.2,0.3C2.1,8.7,2.2,9.1,1.9,9V8.9c-0.3,0-0.4,0.4-0.5,0.6l0.3,0.2c-0.4,0.3-0.5,0.7-0.6,1.2
		c-0.1,0.4-0.1,0.8-0.4,1c0,0.2,0,0.4,0.1,0.6H0.6c-0.1,0.2-0.1,0.4-0.1,0.6c0,0.2-0.1,0.4-0.1,0.7l-0.1-0.1c0,0.4,0.5,0.5,0.5,0.8
		l-0.3,0.1c-0.1,0.6-0.2,1.2,0,1.8c0,0-0.1,0-0.1-0.1c0,0.3-0.1,1.1,0.3,1c-0.2,0,0.1,0.6,0.2,0.9H0.7c0.3,0.2,0.4,0.2,0.5,0.6
		c0,0.1-0.1,0.1-0.1,0c0,0.3,0.2,0.2,0.2,0.6l-0.1-0.1c0.1,0.3,0.1,0.3,0.3,0.4c0.1,0.2,0.2,0.6,0,0.7c0.1,0,0.3,0.1,0.3,0.3
		c-0.1,0-0.1,0-0.1,0c0,0.1,0.1,0.2,0.1,0.3c0.1,0.1,0.1,0.2,0.2,0.2c0.1,0.1,0.2,0.3,0.2,0.5c-0.1,0-0.1,0.1-0.1,0.1
		c-0.2-0.4-0.3-0.7-0.3-0.7c-0.2,0.1,0,0.4-0.4,0.2c0.2,0.2,0.7,0.5,0.8,0.8c0,0,0,0,0,0.1l0,0c0,0.1,0.1,0.1,0.1,0.2s0,0.2,0.1,0.3
		c-0.1,0.1,0.1,0.4,0.2,0.5c0.2-0.1,0.2,0.1,0.3-0.2c0,0,0,0-0.1-0.1c0,0,0,0-0.1-0.1l0,0c-0.1-0.1-0.1-0.2-0.2-0.3
		c0.2,0.1,0.3,0.1,0.3,0.3c0.1,0,0.3,0,0.4,0c-0.1,0.3,0,0.8-0.1,0.9c0.2,0.2,0.4,0.4,0.6,0.6c0.1,0.1,0.2,0.2,0.3,0.2
		c0.1,0.1,0.2,0.1,0.4,0.1c0.1,0.1,0,0.2,0,0.3c-0.1,0-0.1-0.1-0.2-0.1C4.5,25,4.8,25.4,5,25.3c0.2,0.3-0.3,0,0.1,0.3H5
		c0.2,0.5,0.6,0.6,1,0.8c0.4,0.1,0.8,0.3,1.1,0.8c0-0.1-0.1-0.1-0.1-0.1c0.2,0.2,0.5,0.4,0.7,0.6C8,27.9,8.2,28,8.5,28.1
		s0.6,0.2,0.9,0.4c0.3,0.2,0.6,0.3,0.8,0.5c0.3,0.2,0.4,0.1,0.6,0v0.2c0.1,0,0.3-0.1,0.4-0.1c0.3,0,0.4,0.2,0.6,0.3
		c0.1,0.1,0.2,0.2,0.3,0.2s0.3,0,0.5,0l-0.1-0.1c0.2,0.1,0.7,0,0.7,0.2c0,0,0.1-0.1,0.2,0v0.1c0.2,0,0.4-0.1,0.6-0.1
		c0.4,0.1-0.1,0.4,0.5,0.5c0.2,0,0.7-0.3,0.6-0.3c-0.1,0-0.2-0.1-0.2-0.2h0.2c0-0.3,0.2-0.6-0.3-0.9L14.4,29l-0.1-0.2h0.3
		c-0.2-0.1-0.3,0-0.4,0c0-0.1-0.1-0.1-0.1-0.2l-0.4,0.3c0-0.1,0.2-0.2,0-0.3c-0.2,0.1,0.1,0.3-0.1,0.3c-0.1-0.2-0.1-0.3-0.3-0.2
		c0-0.1,0-0.1,0.1-0.2c-0.2,0.1-0.5,0-0.6,0.1c-0.1-0.1-0.2-0.1-0.3-0.1s-0.2-0.1-0.2-0.2c-0.1,0.1-0.3,0.1-0.5,0.1
		c0.4-0.3-0.6-0.2-0.4-0.5c-0.3,0.3-0.8-0.1-1.2-0.1h0.1c-0.2-0.1-0.2-0.2-0.3-0.3c-0.1,0.2-0.4,0.1-0.7,0.2
		c-0.1-0.3,0.3-0.2,0.3-0.5c-0.1,0.2-0.5,0-0.5,0.2C9,27.2,9,27.3,9,27c-0.2,0.3-0.2,0-0.4,0.1c-0.2-0.3,0.1-0.3-0.2-0.4
		C8.5,26.3,8.8,26.3,8.8,26.3z M3.3,21.3L3.3,21.3c0,0.1,0.1,0.1,0.1,0.1S3.3,21.4,3.3,21.3z M3,20.7c0,0.1,0.1,0.2,0.1,0.3
		c0,0-0.1,0.1-0.1,0C3,21,3,20.8,3,20.7z M2.5,22.6c-0.1-0.1-0.1-0.1,0-0.2C2.5,22.5,2.6,22.5,2.5,22.6C2.6,22.6,2.6,22.6,2.5,22.6
		C2.6,22.6,2.6,22.6,2.5,22.6z"/>
	<path class="st0" d="M2.8,22.6C2.9,22.6,2.9,22.6,2.8,22.6C2.9,22.6,2.9,22.6,2.8,22.6C2.9,22.6,2.8,22.6,2.8,22.6L2.8,22.6z"/>
	<path class="st0" d="M27,23.5L27,23.5L27,23.5L27,23.5z"/>
	<path class="st0" d="M2.5,12.1L2.5,12.1L2.5,12.1z"/>
	<path class="st0" d="M24,25.7L24,25.7L24,25.7z"/>
	<path class="st0" d="M22.7,26.6h-0.2C22.6,26.6,22.7,26.6,22.7,26.6z"/>
	<path class="st0" d="M21.7,27.1L21.7,27.1L21.7,27.1L21.7,27.1z"/>
	<path class="st0" d="M28.1,11.2C28.1,11.2,28.1,11.1,28.1,11.2C28.1,11,28.1,11.1,28.1,11.2z"/>
	<path class="st0" d="M29.1,16.7c0-0.1,0-0.1-0.1-0.2C29,16.6,29,16.6,29.1,16.7z"/>
	<polygon class="st0" points="24.9,6.1 24.9,6.1 24.9,6 	"/>
	<path class="st0" d="M29,16.2c0,0.1,0,0.2,0,0.3C29,16.4,29,16.3,29,16.2z"/>
	<path class="st0" d="M16.8,28.5L16.8,28.5C16.7,28.5,16.7,28.5,16.8,28.5L16.8,28.5z"/>
	<path class="st0" d="M16.7,28.5L16.7,28.5L16.7,28.5z"/>
	<path class="st0" d="M16.5,28.6l0.1-0.1C16.6,28.5,16.6,28.5,16.5,28.6z"/>
	<path class="st0" d="M18.3,28.3L18.3,28.3L18.3,28.3z"/>
	<path class="st0" d="M18.8,28.2c-0.1,0-0.3-0.1-0.5,0v0.1C18.4,28.1,18.7,28.3,18.8,28.2z"/>
	<path class="st0" d="M21,28.3c-0.1,0-0.3,0.1-0.4,0.1c0.1,0,0.2,0.1,0,0.2C21.2,28.6,20.5,28.5,21,28.3z"/>
	<path class="st0" d="M22.2,27.8C22,28,22.3,27.9,22.3,28C22.4,27.8,22.4,27.8,22.2,27.8z"/>
	<path class="st0" d="M28.6,21l0.1,0.1C28.8,20.9,28.7,21,28.6,21z"/>
	<path class="st0" d="M28.4,19l-0.1,0.1l0.1,0.1C28.4,19.2,28.4,19.1,28.4,19z"/>
	<polygon class="st0" points="29.8,18.3 29.8,18.4 29.9,18.1 	"/>
	<path class="st0" d="M24.7,3.6l-0.1,0.2C24.8,3.9,24.9,3.7,24.7,3.6z"/>
	<path class="st0" d="M18.4,0.8c0-0.1-0.2-0.2-0.4-0.1C18.2,0.7,18.3,0.8,18.4,0.8z"/>
	<polygon class="st0" points="1.4,9.9 1.4,9.7 1.3,10 	"/>
</g>
<g>
	<path class="st0" d="M15.4,8.9c0,0-0.2-0.1-0.2,0H15.4L15.4,8.9z"/>
	<path class="st0" d="M14.9,9c0.1,0.1,0.2,0.3,0.4,0.3C15.1,9.1,15.2,9.2,15,9c0-0.1,0.1,0,0.2,0c0,0,0.1,0,0-0.1
		c-0.2,0-0.2,0-0.2,0.2C14.9,9,14.9,9,14.9,9z"/>
	<path class="st0" d="M12.1,12.9L12.1,12.9L12.1,12.9z"/>
	<path class="st0" d="M10.4,15.4C10.4,15.4,10.4,15.3,10.4,15.4L10.4,15.4z"/>
	<path class="st0" d="M10,15.7L10,15.7C10,15.7,9.9,15.7,10,15.7z"/>
	<path class="st0" d="M12.1,12.9H12C12,13,12,12.9,12.1,12.9z"/>
	<path class="st0" d="M15,9.8L15,9.8C14.9,9.8,14.9,9.8,15,9.8L15,9.8z"/>
	<path class="st0" d="M12.6,11.7L12.6,11.7C12.6,11.6,12.6,11.6,12.6,11.7L12.6,11.7z"/>
	<path class="st0" d="M13.1,10.8c0,0,0.1,0.1,0.2,0.2C13.2,10.9,13.2,10.9,13.1,10.8C13.2,10.8,13.1,10.8,13.1,10.8z"/>
	<path class="st0" d="M14.2,9.6L14.2,9.6L14.2,9.6z"/>
	<path class="st0" d="M12.2,12.3C12.2,12.3,12.1,12.3,12.2,12.3L12.2,12.3z"/>
	<path class="st0" d="M15,10.1L15,10.1L15,10.1z"/>
	<polygon class="st0" points="15,8.6 15.1,8.6 15.1,8.6 	"/>
	<path class="st0" d="M8.9,17L8.9,17L8.9,17z"/>
	<path class="st0" d="M17,18.5c-0.1-0.2,0.2-0.2,0-0.4C17.1,18.2,16.9,18.4,17,18.5z"/>
	<path class="st0" d="M14.9,9.8L14.9,9.8L14.9,9.8z"/>
	<path class="st0" d="M17,18.1L17,18.1L17,18.1L17,18.1z"/>
	<path class="st0" d="M10,18.5C10,18.5,10.1,18.5,10,18.5L10,18.5z"/>
	<path class="st0" d="M8.9,17.6L8.9,17.6C8.9,17.7,8.9,17.7,8.9,17.6z"/>
	<path class="st0" d="M11.5,18.3L11.5,18.3L11.5,18.3L11.5,18.3z"/>
	<path class="st0" d="M12.3,18.3C12.3,18.3,12.3,18.2,12.3,18.3L12.3,18.3L12.3,18.3z"/>
	<path class="st0" d="M16.6,12.2l0.1-0.1C16.6,12.1,16.5,12.1,16.6,12.2z"/>
	<path class="st0" d="M14.9,9.7C14.9,9.8,14.9,9.8,14.9,9.7C14.9,9.8,14.9,9.8,14.9,9.7C14.9,9.8,14.9,9.8,14.9,9.7z"/>
	<path class="st0" d="M11.5,16.8h0.1H11.5z"/>
	<path class="st0" d="M19.9,16.7L19.9,16.7L19.9,16.7z"/>
	<path class="st0" d="M12,16.8c0,0.1,0.1,0.1,0.1,0.1S12.1,16.9,12,16.8L12,16.8z"/>
	<path class="st0" d="M16.7,12.1L16.7,12.1L16.7,12.1z"/>
	<path class="st0" d="M15.8,11.6c0.1,0.1,0.2-0.1,0.4-0.2c0.1,0.1-0.1,0.2-0.2,0.3c0.1,0,0.3,0,0.4,0c0,0,0,0-0.1,0.1
		c0.2,0,0.2,0.2,0.5,0.2l0,0c0.1-0.1,0.2-0.2,0.3-0.2c0,0,0.2,0,0.1,0.1h-0.1h0.1c-0.2,0.2-0.1,0-0.3,0.1c0.1,0.1,0.4,0.1,0.4,0.2
		c-0.2,0.1-0.2-0.1-0.3,0.1v-0.2c-0.2,0.3,0-0.1-0.3,0.2c0.1,0.2,0.2,0.1,0.3,0.3c0.1,0,0.1-0.1,0.3-0.2c0.3,0.1-0.3,0.5,0,0.5
		c0.2,0,0.4-0.2,0.4,0L17.5,13c0.1,0.2,0.4-0.1,0.3,0.1c-0.1,0-0.2-0.1-0.2,0c-0.1,0.2,0.2,0,0.2,0.1l-0.2,0.1
		c0.1,0.1,0.4,0.2,0.6,0.4c-0.1,0-0.1,0-0.2,0.1c0.2,0.2,0.3,0.5,0.4,0.8h0.2c0,0,0,0.1-0.1,0.1c0,0.1,0.1-0.1,0.2-0.1
		c0,0,0,0.1-0.1,0.1c0.2,0,0.6,0.2,0.5,0.5H19c0,0.2,0.4-0.1,0.4,0.1l0,0c0.1,0.3,0.5,0.5,0.4,0.9c0.3-0.1,0.1,0.3,0.4,0.1
		c-0.1,0.1-0.1,0.1-0.1,0.2L20,16.6h0.3h-0.2c0.1,0,0.2,0,0.3,0c-0.1,0-0.2,0-0.3,0h0.1c0,0,0.1,0,0.2,0s0.1,0.1,0,0.1s-0.2,0-0.3,0
		c0.1,0,0.2,0.1,0.3,0.1c-0.1,0-0.2-0.1-0.3-0.1c0.3,0.1-0.3-0.1,0,0c0.1,0,0.2,0.1,0.3,0.1c-0.2,0-0.2,0-0.1,0L20,16.7l0,0
		c0,0,0.1,0.1,0,0.1c0.1,0.1,0.5,0.3,0.5,0.3L20,17c0.2,0.1,0.2,0.1,0.4,0.2c-0.1,0-0.4-0.2-0.5-0.3L20,17c-0.1-0.1-0.1-0.1-0.3-0.2
		c0.1,0.1,0,0-0.1,0s-0.1-0.1,0,0l-0.1-0.1v0.1c0.1,0.2,0.1,0.1,0.1,0.3c-0.1-0.1-0.2-0.2-0.2-0.2c0,0.1,0,0.2,0,0.3
		c0.1-0.2,0-0.2,0.1-0.3c-0.2,0-0.3,0-0.5,0.2c0,0.1,0.1,0.1,0,0.2c0,0-0.1-0.1-0.1-0.2l0,0c-0.3,0.3-0.7-0.5-0.9-0.1l0,0l-0.2,0.2
		c-0.1,0,0.1-0.1,0-0.2c-0.3,0.3-0.4,0-0.6,0.1c-0.2-0.5-0.6,0-0.8-0.3v0.1c-0.1,0.1-0.1-0.1-0.1-0.1c0,0.1,0.1,0.1,0,0.2
		c-0.5,0.1-1-0.2-1.6-0.3c-0.2,0-0.1,0.6-0.3,0.3l0.1-0.2c-0.4,0.3-0.8,0-1.1,0.2c0-0.1,0-0.1,0.1-0.1c-0.1-0.2-0.3,0-0.3,0.1
		c-0.1,0,0-0.1,0-0.2c-0.1-0.1-0.2,0.2-0.2,0v-0.1c-0.1,0.1-0.2,0-0.2,0.2c-0.1-0.1-0.3,0.1-0.4,0c-0.1,0.2-0.2-0.1-0.3,0.2
		c0-0.3-0.2-0.2-0.3-0.1c0-0.1-0.1-0.1,0-0.2c-0.1,0-0.1,0-0.1,0.1c0,0,0,0.1,0,0.2c0-0.2,0-0.1-0.1,0c0,0.1-0.1,0.1,0-0.1
		c-0.1,0.2-0.4,0.3-0.6,0.3C10.9,17,11,17,11,17s0.1,0,0.2-0.2c-0.2,0.1-0.6,0.4-0.6,0.3c0,0,0.2-0.1,0.3-0.2c-0.1,0-0.1,0-0.1,0
		s0.1-0.1,0-0.1h0.1c0,0,0.1-0.1-0.1,0l0,0c-0.2,0.1-0.3,0.1-0.4,0.1s-0.2,0-0.3,0c0.5-0.1,0.2-0.2,0.8-0.3c0,0-0.1,0-0.2,0
		c0,0,0.1,0,0.2-0.1c-0.1,0-0.3,0-0.2-0.1c0.1,0,0.1,0,0.2,0c-0.1,0-0.3-0.1-0.2-0.1h0.1c0-0.1-0.2-0.3,0-0.4c0.2,0.2,0.1,0,0.3,0.1
		v-0.1H11c0.1-0.1,0-0.3,0.1-0.3v0.1l0.1-0.2l-0.1,0.1c-0.1-0.2-0.3-0.2-0.1-0.2c0,0,0.1-0.1,0.2-0.1l0,0c0-0.1-0.1-0.2,0-0.2
		s0.2,0.2,0.3,0.2c-0.1-0.2,0.1-0.2-0.1-0.4c0,0,0.1,0.1,0.2,0.1l-0.1-0.1c0.1,0,0.1,0,0.2,0.1c0,0-0.4,0-0.2-0.1c0,0,0,0,0,0.1
		c0.2-0.1,0.1-0.4,0.2-0.5c0.2,0.1,0,0.2,0.2,0.2c0.1-0.2,0-0.6,0.2-0.7l0,0c-0.3-0.2,0.2-0.1,0.2-0.2l0.1,0.1
		c0.1-0.1,0.1-0.3,0.1-0.6l0.1,0.1c0.1,0,0.2-0.2,0.3-0.3c-0.1-0.1,0-0.1-0.2-0.2c0.6,0,0.1-0.7,0.6-0.7v0.1l0.1-0.2
		c-0.1-0.1-0.1,0-0.2,0c-0.1-0.1-0.1-0.2-0.1-0.2c0,0.1,0.2,0.1,0.3,0.1l-0.1-0.1c0.3,0-0.3-0.2,0-0.2h0.1c0-0.1-0.1-0.2,0-0.2
		c0.2,0.1,0,0.1,0.2,0.2c0-0.1-0.2-0.3,0-0.3c0,0.1,0,0.1,0,0.2c0.2,0,0.2,0,0.3-0.1l0,0l0.2-0.1H14c-0.3-0.3,0.1-0.3-0.1-0.5
		c0.2,0.3,0.1,0.1,0.3,0.2c0.1,0,0.2,0,0.2,0c-0.1-0.1,0.2,0,0-0.3c0.1,0,0-0.1,0.2,0c0-0.1-0.1,0-0.2-0.1c-0.1-0.2,0.4-0.2,0.3-0.5
		c0-0.2-0.2-0.4-0.2-0.6c0.1,0,0.2,0.2,0.2,0.2c0.1,0,0.2-0.1,0.1-0.2c0,0,0.1,0.1,0.2,0.1c0-0.1-0.2-0.2,0-0.2
		c0.1,0.1,0.1,0.1,0.2,0.2c0-0.1-0.1-0.2-0.1-0.3c0.1,0,0.1,0.1,0.2,0.2c0-0.1,0-0.3-0.1-0.4h-0.1c0,0,0.1,0.1,0.2,0.1
		c0.1,0.1-0.1,0.1-0.2,0V9.2c-0.4-0.1-0.1,0.2-0.2,0.3l-0.4-0.1l0.1,0.2c-0.1,0-0.2-0.1-0.2-0.2c-0.2,0,0,0.1-0.1,0.1l0,0v0.1
		c0,0-0.2-0.1-0.1-0.1c-0.2,0.1,0,0.3-0.2,0.3l0,0c0,0.2,0.2,0.1,0.3,0.4L13.8,10l0.2,0.1h-0.1c0.1,0.1,0.1,0,0.2,0.1
		c-0.2,0-0.1,0.3-0.4,0.2c0.1,0.1,0.2,0,0.2,0.1c-0.3-0.2,0,0.1-0.2,0.1c-0.1-0.1,0-0.2-0.2-0.1c0.2,0.2-0.2,0.1-0.2,0.2
		c0.2,0.1,0,0.2,0,0.4c-0.1,0-0.3,0.2-0.4,0.2l0,0c0.2,0.1,0.1,0.2,0.1,0.4c-0.1-0.1-0.2-0.1-0.2-0.2v0.1c0.1,0.1,0.1,0.1,0.1,0.2
		l-0.4-0.1c-0.1,0.1,0.1,0.3-0.1,0.4c0.1,0.1,0.5,0.1,0.5,0.3c-0.1,0-0.2-0.1-0.2-0.2v0.1l-0.1-0.1c-0.1,0,0.1,0.1,0,0.1
		c-0.1-0.1-0.1,0-0.2-0.1c0,0,0.1,0,0-0.1c-0.1,0-0.2,0.1-0.3,0c0.1,0,0.2,0.1,0.1,0.1c-0.1,0.1-0.2,0-0.3,0
		c0.1,0.1-0.1,0.1,0.1,0.2c0,0-0.1,0-0.2,0c0,0.1-0.1,0.3,0.1,0.3l0,0l0,0l0,0l0,0c0.1,0.3-0.3,0.3-0.4,0.5h-0.1
		c0,0.1-0.1,0.3,0,0.4c0,0-0.1,0-0.2,0c0,0.1,0.1,0.2-0.1,0.2c0-0.1-0.1,0,0-0.1c-0.1,0.1-0.2,0-0.1,0.3c-0.1-0.1-0.2,0-0.2,0h0.1
		c0,0.1-0.1,0.1-0.1,0.2l-0.2-0.1c-0.4,0.1,0.2,0.6-0.3,0.6c0.1,0.1,0.2-0.1,0.3,0.1c-0.1,0.1-0.4,0-0.4,0.1c-0.2,0.1,0.2,0.3,0,0.4
		c0.1,0,0.3,0.1,0.3,0.3c-0.1,0.1-0.4,0-0.4-0.1c0,0,0,0,0.1,0c0,0,0-0.1-0.1-0.1l0.1,0.1c-0.1,0-0.2,0.1-0.3,0
		c0,0.1,0.1,0.1,0.2,0.1c-0.2,0.1-0.1,0.2-0.3,0.3c0,0,0.1,0,0.1,0.1l-0.1,0.1v0.1c0,0,0.1,0.1,0.1,0.2c-0.2,0.1-0.2-0.2-0.3,0.1
		c-0.2,0.1-0.2,0-0.3-0.1c0,0.1-0.1,0.2-0.2,0.3c-0.1,0.1-0.2,0.1-0.3,0.2v-0.1c0,0.1,0,0.1-0.1,0.2l0.2-0.1C8.8,17,8.8,17,8.7,17
		c0.1,0.1,0.3,0,0.4,0.1c-0.1,0.1,0,0.2-0.3,0.3c0.2-0.3-0.3,0.1-0.2-0.2c0,0,0,0.1-0.1,0.2c0,0,0,0-0.1,0c-0.4,0.3,0.2,0.1,0.1,0.3
		c-0.1,0-0.4,0.1-0.3,0.2c0.1-0.1,0.3-0.1,0.4-0.1c-0.2,0.2,0,0.1-0.1,0.2l0.1-0.1c0.2,0,0.1,0,0.1,0.1c-0.2,0.1,0,0-0.1,0
		c0.1,0,0,0.1-0.1,0.2s-0.3,0.3-0.2,0.3c-0.2,0.1-0.4,0.2-0.5,0.3l0,0c0.2,0-0.1,0.2,0.3,0.1c0.2-0.2,0.1-0.1,0.5-0.3L8,18.7
		c0.2-0.1,0.4-0.2,0.6-0.2c-0.1,0-0.4,0.1-0.4,0.1c0.3-0.1,0.2-0.1,0.4-0.2c-0.1,0.1,0,0.1,0.1,0c0.1,0,0.3-0.1,0.2,0l-0.6,0.4
		c0,0.1,0.2,0,0.4,0c0.2-0.1,0.4-0.1,0.5-0.1c0,0,0,0,0-0.1c0.2-0.2,0.2,0,0.4-0.1c-0.1,0.1-0.1,0.2-0.1,0.3c0.1-0.1,0.3,0,0.5-0.3
		c0,0.1,0,0.1,0.1,0.2c0.3,0.1,0.5-0.4,0.7-0.3c-0.1,0.1,0,0.2-0.2,0.3c0.1,0,0.2,0,0.2-0.1c0,0,0.1,0,0.2,0s0.1-0.1,0.1,0
		c0-0.1,0-0.2,0.1-0.2v0.1c0-0.1,0.1-0.1,0-0.2c0.2,0.4,0.5,0,0.7,0.3c0.1,0,0.3-0.1,0.4-0.1v0.1c0.2,0.1,0.1-0.4,0.3-0.2
		c0.1,0.2-0.1,0.1,0,0.2c0,0.4,0.2-0.1,0.3,0.2l0,0c0.1,0.1,0.2-0.2,0.4-0.1c0,0,0,0,0,0.1c0.1-0.2,0.3-0.3,0.4-0.4
		c0,0.2-0.1,0.1,0,0.3c0.1,0,0-0.3,0.1-0.3c0,0.1,0.1,0.2,0.1,0.4h-0.1c0.1,0.2,0.2,0,0.2,0v0.1c0.2,0,0.2-0.3,0.4-0.3v-0.1
		c0.1-0.3,0.1,0.1,0.2,0v0.3c0.1-0.1,0.3-0.3,0.4-0.3c-0.1,0.2-0.2,0.3-0.3,0.4c0.1,0,0.2,0,0.3-0.1c0,0-0.1,0.1-0.1,0
		c0.1-0.2,0.2-0.3,0.4-0.3c0,0.5,0.4,0.1,0.5,0.5c0.3-0.2,0.5,0.1,0.8,0.1c-0.1-0.4,0.1,0,0.1-0.4c0.1,0,0.1,0,0.1,0l0.2,0.2
		c0,0.1-0.1,0.1-0.1,0.2c0.2,0,0.1,0.2,0.2,0.3c0-0.1,0.1-0.2,0.1-0.2L17.1,19c0.2-0.2,0.2,0.3,0.4,0.1l-0.1,0.1
		c0.1-0.1,0.4,0,0.5-0.3v0.2c0.3,0,0.6-0.3,0.8-0.1v0.1c0,0,0.1-0.2,0.1-0.1v0.1c0,0,0.1-0.2,0.2-0.1l-0.1,0.1
		c0.1,0.1,0.2,0,0.4-0.1c0.1-0.1,0.3-0.2,0.4-0.2c0.1,0.3,0.5,0.4,0.7,0.4l0,0c0.3,0,0.5,0,0.6-0.1s0.2-0.2,0.4-0.2
		c0.5,0.2,1,0.2,1.5,0.2c0-0.1-0.1-0.2-0.1-0.2c-0.1,0-0.4-0.2-0.5-0.3c0,0-0.5-0.4,0-0.2l0,0c0.4,0.1,0.1-0.1,0-0.3l-0.6-0.2
		c0.3-0.1,0-0.4-0.2-0.6s-0.4-0.4-0.2-0.5c-0.2-0.1-0.2-0.2-0.4-0.2l0.5-0.6c-0.1-0.1-0.1-0.2-0.2-0.4c0-0.1-0.1-0.1-0.1-0.2
		L21,15.3h0.1c-0.1-0.1-0.5,0.2-0.6,0.1l0.2-0.2c-0.1-0.2-0.1-0.5-0.4-0.5c0,0,0.1-0.1,0.1,0c-0.1-0.1-0.1-0.4-0.4-0.2
		c0.2-0.2-0.1-0.2-0.3-0.2l0.2-0.1c-0.3,0.1-0.3,0.1-0.4,0c0,0,0.1-0.1,0.1,0c0-0.1-0.2,0-0.2-0.1h0.1c-0.1-0.1-0.1-0.1-0.3,0
		c-0.1,0-0.1-0.2,0-0.3c-0.1,0-0.2,0.1-0.2,0h0.1c0-0.2-0.3-0.1-0.3-0.3l0.1-0.1c0.1,0.1,0.1,0.2,0.1,0.2c0.1-0.1,0.1-0.2,0.3-0.3
		c-0.2,0-0.5,0-0.5-0.1l0,0l0,0c0,0,0,0-0.1,0v-0.1c0.1-0.1,0-0.2-0.1-0.2c-0.1,0.1-0.2,0-0.3,0.2c0,0,0,0,0.1,0l0,0l0,0l0.1,0.1
		c-0.1,0-0.2,0-0.2-0.1c-0.1,0-0.2,0.1-0.3,0.1c0.2-0.2,0.2-0.4,0.3-0.5c-0.2-0.1-0.3-0.3-0.7-0.2c-0.1,0,0-0.1,0.1-0.2h0.1
		c-0.1,0-0.2-0.2-0.4-0.1c0-0.2,0.2-0.1,0.1-0.2h0.1c0.1-0.5-0.9-0.1-0.7-0.7v0.1c-0.1-0.5-0.7-0.6-0.7-1.2c0-0.1-0.2-0.1-0.3-0.1
		L16,10h-0.3c-0.2-0.1,0.2-0.6-0.2-0.6l-0.1,0.1c0-0.1-0.2-0.2-0.1-0.3c0,0-0.1,0.1-0.1,0l0.1-0.1L15,9c0-0.2,0.4-0.2,0.2-0.4
		c-0.1,0-0.4,0-0.4,0s0,0.1-0.1,0.2h-0.1c0.2,0-0.1,0.1-0.1,0.4h0.2l-0.1,0.1h-0.1c-0.1,0.1,0.1,0.1,0.1,0.1
		c-0.1,0.1-0.1,0.1-0.1,0.1l0.3-0.1c-0.1,0.1-0.2,0.1-0.2,0.2c0.1,0,0.2-0.2,0.3-0.2c-0.1,0.1-0.2,0.2,0,0.2
		c-0.1,0.1-0.1,0.1-0.2,0.1c0.1,0,0.1,0.1,0.3,0.1c-0.1,0.2,0.2,0.2-0.1,0.3c0.1,0,0.3,0,0.3,0c-0.4,0.1,0.1,0.2-0.2,0.4
		c0.3-0.1,0.3,0.2,0.5,0.2h-0.1c0,0.1,0,0.2,0,0.2c0.2-0.1,0.3-0.1,0.5-0.1c-0.1,0.2-0.3,0.1-0.5,0.3c0.2-0.1,0.3,0,0.4-0.1
		c-0.1,0.2,0,0.1-0.2,0.3c0.3-0.2,0.1,0,0.3,0c-0.1,0.2-0.2,0.2-0.1,0.2C16,11.6,15.8,11.6,15.8,11.6z M18.1,13.7L18.1,13.7
		C18.1,13.7,18,13.7,18.1,13.7C18,13.7,18.1,13.7,18.1,13.7z M18.2,13.9L18.2,13.9c0-0.1,0-0.2,0.1-0.1
		C18.2,13.8,18.3,13.9,18.2,13.9z M19,12.7C19,12.7,19,12.8,19,12.7C18.9,12.8,18.9,12.8,19,12.7C18.9,12.8,18.9,12.8,19,12.7
		C18.9,12.8,18.9,12.7,19,12.7z"/>
	<path class="st0" d="M18.7,12.8L18.7,12.8L18.7,12.8L18.7,12.8L18.7,12.8z"/>
	<path class="st0" d="M12.1,12.9L12.1,12.9L12.1,12.9L12.1,12.9z"/>
	<path class="st0" d="M19.8,16.6L19.8,16.6L19.8,16.6z"/>
	<path class="st0" d="M13.4,12L13.4,12L13.4,12z"/>
	<path class="st0" d="M13.8,11.5h0.1C13.8,11.5,13.8,11.5,13.8,11.5z"/>
	<path class="st0" d="M14.1,11.1C14.1,11.1,14,11.1,14.1,11.1L14.1,11.1L14.1,11.1z"/>
	<path class="st0" d="M10.9,16.9L10.9,16.9L10.9,16.9z"/>
	<path class="st0" d="M11.2,15.5v0.1C11.2,15.6,11.3,15.6,11.2,15.5z"/>
	<path class="st0" d="M11.5,16.8L11.5,16.8L11.5,16.8z"/>
	<path class="st0" d="M11.2,15.7L11.2,15.7L11.2,15.7z"/>
	<path class="st0" d="M15.2,9.5L15.2,9.5C15.2,9.4,15.2,9.4,15.2,9.5L15.2,9.5z"/>
	<path class="st0" d="M15.2,9.4L15.2,9.4L15.2,9.4z"/>
	<path class="st0" d="M15.2,9.3L15.2,9.3C15.2,9.4,15.2,9.4,15.2,9.3z"/>
	<path class="st0" d="M14.8,9.9L14.8,9.9C14.9,10,14.8,10,14.8,9.9z"/>
	<path class="st0" d="M14.7,10.1c0,0,0.2,0,0.2-0.1l0,0C14.9,10.1,14.7,10,14.7,10.1z"/>
	<path class="st0" d="M13.6,10.4l0.1-0.1c-0.1,0-0.2,0-0.2-0.1C13.3,10.2,13.7,10.2,13.6,10.4z"/>
	<path class="st0" d="M13.3,10.7c0-0.1-0.1-0.1-0.1-0.1C13.2,10.7,13.2,10.7,13.3,10.7z"/>
	<path class="st0" d="M11.4,13.8l-0.1-0.1C11.3,13.7,11.3,13.7,11.4,13.8z"/>
	<polygon class="st0" points="11.8,14.8 11.9,14.8 11.8,14.7 	"/>
	<polygon class="st0" points="10.6,14.5 10.6,14.5 10.6,14.6 	"/>
	<path class="st0" d="M12.2,18.4v-0.2C12.1,18.3,12.1,18.5,12.2,18.4z"/>
	<path class="st0" d="M14.7,18.2c0,0.1,0.1,0.2,0.1,0.1C14.8,18.3,14.8,18.2,14.7,18.2z"/>
	<polygon class="st0" points="22.4,17.4 22.5,17.5 22.3,17.3 	"/>
</g>
</svg>
