<svg viewBox="0 0 30 25" xmlns="http://www.w3.org/2000/svg"><path d="m21.9 22.9c-5.7 1.9-13.6-1.1-17.5-6.9-4.1-6.4-5.1-11 .8-13.9s17.1-3.1 20.8 3.6c3.1 5.4 1 15.4-4.1 17.2z" fill="#3fa9f5"/><path d="m.8 7.7c0-.6.1-1.2.3-1.6.6-1.7 1.8-3.1 4.1-4.2 6.2-2.9 17.5-3 21.1 3.7 1.8 3.4 1.9 8.5.2 12.6-1 2.5-2.7 4.2-4.5 4.8-5.9 2-13.9-1.1-17.7-6.9-2.4-3.6-3.5-6.2-3.5-8.4zm26.4 4.2c0-2.2-.5-4.4-1.4-6.1-3.5-6.4-14.4-6.3-20.4-3.5-2.2 1.1-3.5 2.3-4 3.9-.7 2.3.4 5.4 3.2 9.6 3.8 5.7 11.5 8.7 17.2 6.8 1.7-.6 3.2-2.2 4.2-4.6.8-1.9 1.2-4 1.2-6.1z"/></svg>