<svg viewBox="0 0 30 25" xmlns="http://www.w3.org/2000/svg"><path d="m19 23.3c-6.6 1-13.9-3.1-16.1-9.2-2.5-6.6-2.1-11.2 5-12.9s18.9-.2 20.7 6.7c1.5 5.5-3.7 14.5-9.6 15.4z" fill="#69be5a"/><path d="m17.1 23.6c-6.2 0-12.4-3.9-14.4-9.5-1.7-4.2-1.8-7.3-.6-9.4.9-1.8 2.9-3 5.8-3.7 3.8-1 8.5-.9 12.4.1 4.6 1.1 7.7 3.5 8.5 6.7.8 3-.3 7.2-2.7 10.6-2 2.9-4.6 4.7-7.1 5.1-.6.1-1.3.1-1.9.1zm-3.3-22.8c-2 0-4 .2-5.8.7-2.8.5-4.7 1.7-5.6 3.4-1.1 2-1 5 .6 9.1 2.2 5.9 9.3 10.1 15.9 9.1 2.4-.4 4.9-2.1 6.8-4.9 2.4-3.4 3.4-7.5 2.6-10.3-1.2-5-8.1-7.1-14.5-7.1z"/></svg>