<?xml version="1.0" encoding="utf-8"?>
<!-- Generator: Adobe Illustrator 21.1.0, SVG Export Plug-In . SVG Version: 6.00 Build 0)  -->
<svg version="1.1" id="Layer_1" xmlns="http://www.w3.org/2000/svg" xmlns:xlink="http://www.w3.org/1999/xlink" x="0px" y="0px"
	 viewBox="0 0 30 25" style="enable-background:new 0 0 30 25;" xml:space="preserve">
<style type="text/css">
	.st0{fill:#098442;}
</style>
<g>
	<g>
		<g>
			<path class="st0" d="M28.3,18.3C28.3,18.2,28.3,18.2,28.3,18.3C28.3,18.3,28.3,18.3,28.3,18.3z"/>
			<path class="st0" d="M28.2,18.5C28.2,18.5,28.2,18.5,28.2,18.5c0-0.2,0-0.3,0-0.2c0.1-0.2,0.1-0.6,0.1-0.7c0-0.2,0.1-0.6-0.1-0.7
				c0,0.2,0,0.4-0.1,0.6c0-0.2,0.1-0.3,0-0.4c0-0.2,0.1-0.3,0.1-0.4c0-0.4-0.1-1-0.1-1.2c0-0.2,0-0.6,0-0.8c0.1,0.5,0.2,1.1,0.2,1.6
				c0-0.2,0-0.4,0.1-0.5c-0.1,0.1-0.1,0-0.1,0l0-0.3l0,0l0-0.3c0,0.1,0.1,0,0.1-0.2l0-0.1c0-0.1,0.1-0.5,0.2-1
				c0.1-0.4,0.2-0.9,0.2-1c0-0.1,0-0.2,0-0.3l0,0c-0.1,0,0-0.4-0.1-0.4c0-0.2,0-0.3,0-0.3c0-0.4-0.2-0.6-0.1-1.1l-0.1,0
				c0-0.2,0-0.2,0-0.3c0-0.1,0-0.1,0-0.4c0-0.1-0.1-0.2-0.1-0.3c0-0.1,0-0.1-0.1-0.2c0-0.1,0-0.1-0.1-0.2c-0.2-1.4-0.9-2.8-1.7-4
				C26.7,5.4,26.9,6,27,5.9c-0.6-1.1-1.5-2.1-2.6-2.9c-1.1-0.8-2.3-1.4-3.6-1.7c-0.2-0.1-0.4-0.1-0.6-0.1c-0.2,0-0.4,0-0.6-0.1
				c-0.2,0-0.4,0-0.6,0c-0.2,0-0.4,0-0.6,0l0.1,0c-0.1,0-0.2,0-0.4-0.1c-0.2,0-0.4-0.1-0.7-0.1c-0.2,0-0.5-0.1-0.7-0.1
				c-0.2,0-0.3,0-0.4,0c-0.8,0-0.6,0.1-1.3,0.1C14.9,0.9,14.7,1,14.4,1c-0.3,0-0.7,0-1,0.1c-0.2,0-0.4,0.1-0.6,0.1
				c-0.2,0-0.4,0.1-0.6,0.1c-0.2,0-0.4,0.1-0.6,0.1c-0.2,0.1-0.4,0.1-0.6,0.2c0.2-0.1,0.2-0.2,0-0.1c-0.2,0-0.6,0.2-1,0.5
				C9.9,2,9.7,2,9.6,2c-0.1,0-0.2,0-0.3,0.1c-0.4,0-0.8,0.2-1.2,0.3C7.2,3,6.4,3.6,5.6,4.5C5.4,4.7,5.2,4.9,5.1,5.1
				C5,5.2,4.9,5.4,4.8,5.5L4.6,5.8C4.4,6.1,4.3,6.3,4.2,6.6C4.1,6.8,3.9,7.1,3.8,7.3C3.8,7.4,3.7,7.5,3.7,7.6c0,0.2-0.8,1.5-1.4,2.9
				c-0.6,1.4-0.9,2.9-0.9,3.1c0,0.1-0.1,0.2-0.1,0.2c-0.1,0.5-0.1,1,0,1.5c0,0.2,0.1,0.5,0.1,0.7c0,0.3,0.1,0.5,0.1,0.8
				c0,0,0-0.1,0-0.1c0,0.1,0,0.3,0.1,0.4c0,0.1,0.1,0.3,0.1,0.4c0.1,0.3,0.2,0.5,0.3,0.8c0.3,0.5,0.6,1,0.9,1.4
				c0.7,0.9,1.6,1.5,2.4,2C5.5,21.9,5.6,22,5.8,22c0.2,0.1,0.4,0.1,0.6,0.3c0.9,0.5,1.9,0.9,3,1.2c1.1,0.3,2.2,0.5,3.3,0.6
				c1,0.1,2,0.2,3.1,0.2c0.5,0,1,0,1.5,0c0.3,0,0.5,0,0.7,0c0.2,0,0.5,0,0.7,0c1.5,0,2.9-0.1,4.4-0.5c0.4-0.1,0.7-0.2,1.1-0.4
				c0.4-0.1,0.7-0.3,1.1-0.5c0.7-0.4,1.4-1.1,1.8-1.9l0,0c0.1-0.4,0.2-0.6,0.3-0.8c0.1-0.2,0.1-0.4,0.1-0.9c0,0,0,0,0,0l0,0
				c0,0.1,0,0.1,0,0c0,0,0,0,0,0c0,0,0,0,0,0.1c0,0.1,0.1-0.2,0.3-0.6c0,0,0-0.1,0.1-0.1c0,0,0,0.1,0,0.1c0,0.1,0.1,0,0.1-0.2
				C28.2,18.6,28.2,18.5,28.2,18.5C28.2,18.5,28.2,18.5,28.2,18.5z M28.1,18.8c-0.1,0.3-0.3,0.6-0.3,0.5c0,0.1,0,0.1,0,0.2
				c0,0,0-0.1,0-0.1c0,0,0-0.1,0-0.1l0,0c0,0,0,0,0-0.1c0-0.1,0-0.1,0.1-0.2c0,0,0,0.1,0.1,0.1c0-0.2,0.1-0.5,0.1-0.6c0,0,0,0,0,0.1
				c0-0.1,0.1-0.2,0.1-0.3l0,0.1c0,0,0,0,0,0c0,0,0,0.1,0,0.2C28.1,18.6,28.1,18.7,28.1,18.8z"/>
			<path class="st0" d="M28,18.4C28,18.4,28,18.3,28,18.4C28,18.4,28,18.4,28,18.4C28,18.4,28,18.4,28,18.4z"/>
			<path class="st0" d="M28.2,18.5C28.2,18.5,28.2,18.4,28.2,18.5c0-0.1,0-0.1,0.1-0.1C28.2,18.3,28.2,18.4,28.2,18.5L28.2,18.5z"/>
		</g>
	</g>
</g>
</svg>
