<svg viewBox="0 0 30 25" xmlns="http://www.w3.org/2000/svg"><g fill="#da8853"><path d="m21.4.8c-.1 0-.2-.1 0 0-.1 0-.1 0 0 0z"/><path d="m21.6.9c-.2 0-.4 0-.3 0-.3 0-.8-.1-.8-.1-.2 0-.7 0-.8 0 .2 0 .5 0 .7.1-.2 0-.4 0-.5 0-.3 0-.3-.1-.4-.1-.5 0-1.1.1-1.5.1-.3 0-.7 0-.9 0 .6-.1 1.3-.2 1.8-.2-.2 0-.4 0-.6-.1.1 0 0 .1 0 .1h-.4-.4c.2 0 0-.1-.2-.1h-.1c-.1 0-.6-.1-1.2-.2-.5-.1-1.1-.2-1.2-.2s-.2 0-.3 0c0 .1-.5 0-.5.1-.2 0-.4 0-.4 0-.5 0-.7.2-1.3.1v.1c-.2 0-.2 0-.3 0s-.1 0-.4 0c-.1 0-.2.1-.3.1s-.2 0-.2.1c-.1 0-.2 0-.2.1-1.7.2-3.3.8-4.7 1.5-.1-.1.6-.3.5-.4-1.3.6-2.5 1.4-3.5 2.3-1 1-1.7 2.1-2.1 3.2-.1.2-.1.3-.1.5s-.1.3-.1.5 0 .3 0 .5 0 .4-.1.6v-.1c0 .1 0 .2-.1.4s-.1.4-.2.6-.1.4-.1.6v.3c0 .7.1.5.1 1.2.1.1.2.3.2.5 0 .3 0 .6.1.9 0 .2.1.3.1.5s.1.3.1.5c.1.2.1.4.2.5.1.2.1.4.2.5-.1-.2-.2-.2-.2 0s.3.5.6.9c.1.2.1.3.1.4s.1.2.2.3c0 .3.2.7.4 1.1.7.8 1.5 1.5 2.5 2.2.3.2.5.3.8.5.1.1.3.2.4.2l.4.2c.3.2.6.2.9.4.3.1.6.2.9.3.1.1.2.1.3.1.2 0 1.8.7 3.4 1.2 1.7.5 3.5.8 3.6.8s.3 0 .3.1c.6.1 1.2.1 1.8 0 .3 0 .6 0 .9-.1.3 0 .6-.1 1-.1h-.1c.2 0 .3 0 .5-.1.2 0 .3-.1.5-.1.3-.1.6-.2 1-.3.6-.2 1.2-.5 1.7-.8 1-.6 1.8-1.4 2.4-2.1.1-.2.2-.3.2-.5.1-.2.2-.3.3-.5.6-.8 1-1.7 1.4-2.6.4-1 .6-2 .8-2.9.1-.9.2-1.8.2-2.7 0-.4 0-.9 0-1.3 0-.2 0-.4 0-.6s0-.4 0-.6c-.1-1.3-.2-2.6-.6-3.9-.1-.3-.3-.7-.4-1-.2-.3-.4-.7-.6-1-.5-.6-1.3-1.2-2.2-1.6h.1c-.4-.1-.7-.2-.9-.2-.2-.1-.5-.1-1-.1h.1.1s-.3-.1-.7-.2c-.4-.3-.5-.3-.6-.3h.1c.1 0 0-.1-.2-.1-.1-.1-.2-.1-.2 0zm.3.1c.4.1.8.3.6.2h.2-.1c-.1 0-.1 0-.2 0h-.1-.1c-.1 0-.2 0-.2-.1 0 0 .1 0 .1-.1-.1.1-.5 0-.6 0h.1c-.1 0-.3 0-.3-.1h.1.2c.2.1.3.1.3.1z"/><path d="m21.5 1c-.1 0-.1 0 0 0-.1 0 0 0 0 0z"/><path d="m21.6.8c-.1 0-.1 0-.2-.1 0 .1.1.1.2.1z"/></g></svg>