<svg viewBox="0 0 30 25" xmlns="http://www.w3.org/2000/svg"><path d="m11 .6c6.7-1 14.2 3.2 16.5 9.4 2.5 6.7 2.1 11.3-5.3 13.1-7.2 1.7-19.3.1-21.1-6.8-1.4-5.7 3.8-14.8 9.9-15.7z" fill="#ffc521"/><path d="m16.3 23.8c-2.3 0-4.6-.3-6.6-.8-2.2-.6-4-1.4-5.5-2.5-1.7-1.2-2.7-2.7-3.1-4.3-.9-2.8.2-7 2.7-10.6 2.1-3 4.7-4.8 7.3-5.1v.1-.1c3.3-.5 6.8.3 10.1 2 3.2 1.8 5.5 4.4 6.6 7.5 1.7 4.3 1.8 7.4.6 9.6-1 1.8-2.9 3-5.9 3.7-1.9.3-4 .5-6.2.5zm-3.3-23.1c-.6 0-1.3 0-2 .1-2.5.3-5 2.2-6.9 5-2.5 3.4-3.5 7.6-2.8 10.4.4 1.6 1.5 3 3 4.1 1.5 1 3.2 1.9 5.4 2.4 3.9 1 8.7 1 12.5.1 2.9-.7 4.8-1.9 5.7-3.5 1.1-2.1.9-5-.6-9.4-2-5.4-8.1-9.2-14.3-9.2z"/></svg>