<svg viewBox="0 0 30 25" xmlns="http://www.w3.org/2000/svg"><g fill="#d33a49"><path d="m18.1 24.7c-.1 0-.1 0 0 0-.1 0 0 0 0 0z"/><path d="m18.3 24.7h.2.3s0 0-.1-.1h.2c.4 0 .8-.1.7-.1s-.1 0-.1 0 .1 0 0-.1c.5.1.8.1 1 .1.3 0 .5 0 .9-.1 1-.2 2-.6 2.6-1.2.3-.3.7-.5.9-.8.3-.3.5-.6.7-.9.9-1.2 1.4-2.5 1.8-3.7.1-.2.1-.4.2-.6s.1-.4.2-.6c.1-.4.3-.9.4-1.3.3-.9.5-1.8.6-2.7.1-1 .2-2 .2-3s-.2-2-.5-2.8c-.1-.2-.1-.4-.1-.6s0-.3-.1-.5c-.4-.8-.9-1.6-1.7-2.4-.4-.4-.9-.8-1.4-1.1-.3-.2-.5-.3-.8-.4-.1-.1-.3-.1-.4-.2s-.3-.1-.4-.2h.1c-.3-.1-.6-.2-.9-.3-.2 0-.5-.1-.8-.2-.6-.1-1.1-.2-1.7-.3 0 0-.2 0-.3 0-.1-.1-2-.1-3.8.1s-3.5.6-3.7.6c-.1 0-.2.1-.4.1-.3.1-.6.1-.9.2s-.6.1-1 .2l-.4.2c-.2 0-.4 0-.5.1-.3.1-.6.2-.9.3-1.2.5-2.2 1.1-3 1.8-.3.3-.6.7-.7 1-.1 0-.2.1-.2.2-.1.1-.1.2-.3.3-.5.3-.8.6-.9.8s-.1.2.2 0c-.1.2-.2.3-.4.5-.1.1-.2.3-.3.5-.1.1-.2.3-.3.4-.1.2-.2.4-.2.5-.2.3-.3.6-.4.9-.1.2-.2.3-.3.4-.2.6-.2.4-.5 1.1-.1.1-.1.2-.1.4s-.1.4-.1.6v.6.4-.1c0 .2-.1.4-.1.6s-.1.3-.1.5-.1.3-.1.5-.1.4 0 .6c0 1.1.4 2.3 1 3.4.7 1.1 1.6 2.1 2.7 2.8.1-.1-.5-.3-.4-.4 1.2.9 2.5 1.7 4.1 2.2 0 0 0 0 .1.1.1 0 .1.1.2.1.1.1.2.1.3.1.3.1.4.1.4.1h.3v.1c.5 0 .7.3 1.2.3h.4c0 .1.5.1.5.2.1 0 .2 0 .3.1h1.2 1.2.1c.3 0 .4 0 .3-.1l.3.1.3.1c.1 0 .1.1 0 .1.2 0 .4 0 .6.1-.5-.1-1.2-.3-1.7-.5.2 0 .6.1.9.2s.9.3 1.4.4c.1 0 .2-.1.4 0 .1.1.3 0 .5.1-.2 0-.5 0-.7-.1 0 .1.6.1.7.2.1 0 .6.1.9.1-.1 0 0 0 .2 0zm.1-.1c-.1 0-.2 0-.2-.1 0 0 0 0-.1 0h-.1c.1 0 .2 0 .4.1-.1-.1-.1-.1-.1-.1.1 0 .5 0 .7.1 0 0-.1 0-.1-.1h.2.1.1.2.1s-.1 0-.2 0c.2 0-.3.1-.7.1-.1 0-.2 0-.3 0z"/><path d="m18.3 24.5c-.1 0-.1 0 0 0-.1 0 0 0 0 0z"/><path d="m18.3 24.7c-.1 0-.1 0-.2 0z"/></g></svg>