<svg viewBox="0 0 30 25" xmlns="http://www.w3.org/2000/svg"><path d="m26.9 9.4c.1.1.1.1 0 0 .1.1.1 0 0 0zm0-.1c0-.1 0-.1 0-.2 0-.2 0-.3 0-.2 0 0 0 0-.1 0v-.1c0-.3-.1-.6-.1-.6s0 .1 0 0 0 0-.1 0c.1-.4.1-.6.1-.8s0-.4-.1-.7c-.2-.8-.6-1.5-1.2-2-.3-.3-.5-.5-.8-.7-.3 0-.6-.2-.9-.4-1.2-.6-2.5-1-3.7-1.4-.2 0-.4-.1-.6-.1s-.4-.1-.6-.1c-.4-.1-.9-.2-1.3-.3-.9-.2-1.8-.4-2.7-.5-1-.1-2-.2-3-.1-1 0-2 .2-2.8.4-.3 0-.5.1-.7.1s-.3 0-.5.1c-.8.2-1.7.6-2.5 1.2-.4.3-.7.7-1 1.1-.2.2-.4.3-.5.6-.1.1-.1.2-.2.3s-.1.2-.1.4v-.1c-.1.2-.2.4-.3.6-.1.3-.2.5-.2.7-.2.4-.2.8-.3 1.3v.2c-.1.1-.1 1.5.1 2.8s.6 2.6.6 2.8c0 .1.1.2.1.3.1.2.1.5.2.7s.1.5.2.7l.1.4c0 .1.1.2.1.4.1.2.2.5.3.7.5.9 1.1 1.6 1.7 2.2.3.2.7.4 1 .5.1.1.2.2.3.2s.2.1.3.2c.3.4.6.6.7.7.2.1.2 0 0-.1.2.1.3.2.5.3s.3.2.5.2c.2.1.3.2.5.2.2.1.3.1.5.2.3.1.6.2.9.3s.4.2.5.3c.7.1.4.2 1.1.4 0 0 .2.1.3.1.2 0 .4 0 .6.1h.6.4-.1c.2 0 .4.1.6.1s.3.1.5.1.3.1.5.1.4 0 .6 0c1.1 0 2.3-.3 3.4-.8s2.1-1.2 2.8-2c-.1-.1-.3.4-.4.3.9-.9 1.8-1.9 2.3-3.1 0 0 .1-.1.1-.2s.1-.1.1-.2c.1-.1.1-.2.1-.2.1-.2.1-.3.1-.3s0-.1 0-.2h.1c0-.4.3-.5.3-.9 0 0 0-.2 0-.3.1 0 .1-.4.2-.4 0-.1 0-.1.1-.2 0-.1 0-.5 0-.9s0-.8 0-.9v-.1c0-.2 0-.3-.1-.2l.1-.3.1-.3s.1-.1.1 0c0-.2 0-.3.1-.5-.1.4-.3.9-.5 1.3 0-.2.1-.5.2-.7s.3-.7.4-1c0-.1-.1-.2 0-.3s0-.2.1-.4c0 .2 0 .4-.1.5.1 0 .1-.4.2-.6 0-.1.1-.4.1-.6.1.1.1 0 .1-.1 0-.1 0 0 0 0zm-.1-.1c0 .1 0 .2-.1.2v.1c0-.1 0-.2 0-.3v.1c0-.1 0-.3.1-.5 0 0 0 .1-.1 0 0 0 0-.1 0-.2 0 0 0 0 0-.1v-.1-.1.2c0-.1.1.2.1.5.1 0 0 .1 0 .2zm.1.1v.1z" fill="#9f3030"/></svg>