<svg viewBox="0 0 30 25" xmlns="http://www.w3.org/2000/svg"><g fill="#fddc0d"><path d="m28.3 18.3c0-.1 0-.1 0 0z"/><path d="m28.2 18.5c0-.2 0-.3 0-.2.1-.2.1-.6.1-.7 0-.2.1-.6-.1-.7 0 .2 0 .4-.1.6 0-.2.1-.3 0-.4 0-.2.1-.3.1-.4 0-.4-.1-1-.1-1.2s0-.6 0-.8c.1.5.2 1.1.2 1.6 0-.2 0-.4.1-.5-.1.1-.1 0-.1 0v-.3-.3c0 .1.1 0 .1-.2v-.1c0-.1.1-.5.2-1 .1-.4.2-.9.2-1s0-.2 0-.3c-.1 0 0-.4-.1-.4 0-.2 0-.3 0-.3 0-.4-.2-.6-.1-1.1h-.1c0-.2 0-.2 0-.3s0-.1 0-.4c0-.1-.1-.2-.1-.3s0-.1-.1-.2c0-.1 0-.1-.1-.2-.2-1.4-.9-2.8-1.7-4 .2 0 .4.6.5.5-.6-1.1-1.5-2.1-2.6-2.9s-2.3-1.4-3.6-1.7c-.2-.1-.4-.1-.6-.1s-.4 0-.6-.1c-.2 0-.4 0-.6 0s-.4 0-.6 0h.1c-.1 0-.2 0-.4-.1-.2 0-.4-.1-.7-.1-.2 0-.5-.1-.7-.1s-.3 0-.4 0c-.8 0-.6.1-1.3.1-.1 0-.3.1-.6.1s-.7 0-1 .1c-.2 0-.4.1-.6.1s-.4.1-.6.1-.4.1-.6.1c-.2.1-.4.1-.6.2.2-.1.2-.2 0-.1-.2 0-.6.2-1 .5-.1 0-.3 0-.4 0s-.2 0-.3.1c-.4 0-.8.2-1.2.3-.9.6-1.7 1.2-2.5 2.1-.2.2-.4.4-.5.6-.1.1-.2.3-.3.4l-.2.3c-.2.3-.3.5-.4.8-.1.2-.3.5-.4.7 0 .1-.1.2-.1.3 0 .2-.8 1.5-1.4 2.9s-.9 2.9-.9 3.1c0 .1-.1.2-.1.2-.1.5-.1 1 0 1.5 0 .2.1.5.1.7 0 .3.1.5.1.8v-.1c0 .1 0 .3.1.4 0 .1.1.3.1.4.1.3.2.5.3.8.3.5.6 1 .9 1.4.7.9 1.6 1.5 2.4 2 .2.2.3.3.5.3.2.1.4.1.6.3.9.5 1.9.9 3 1.2s2.2.5 3.3.6c1 .1 2 .2 3.1.2h1.5.7s.5 0 .7 0c1.5 0 2.9-.1 4.4-.5.4-.1.7-.2 1.1-.4.4-.1.7-.3 1.1-.5.7-.4 1.4-1.1 1.8-1.9.1-.4.2-.6.3-.8s.1-.4.1-.9c0 .1 0 .1 0 0v.1s.1-.2.3-.6c0 0 0-.1.1-.1v.1c0 .1.1 0 .1-.2.2 0 .2-.1.2-.1zm-.1.3c-.1.3-.3.6-.3.5v.2-.1-.1s0 0 0-.1 0-.1.1-.2c0 0 0 .1.1.1 0-.2.1-.5.1-.6v.1c0-.1.1-.2.1-.3v.1.2c-.1 0-.1.1-.1.2z"/><path d="m28.2 18.5c0-.1 0-.1.1-.1-.1-.1-.1 0-.1.1z"/></g></svg>