<svg viewBox="0 0 30 25" xmlns="http://www.w3.org/2000/svg"><path d="m11.7.3c.1 0 .2 0 0 0 .1 0 .1 0 0 0zm-.2 0c-.1 0-.2 0-.2 0-.2 0-.3 0-.3 0s0 0 .1.1c-.1 0-.1 0-.2 0-.4 0-.8.1-.7.1h.1s-.1 0 0 .1c-.5-.1-.8-.1-1-.1-.3 0-.5 0-.9.1-1 .2-2 .6-2.6 1.2-.5.3-.8.6-1.1.9s-.5.6-.7.9c-.9 1.2-1.4 2.4-1.8 3.7-.1.2-.1.4-.2.6s-.1.4-.2.6c-.1.4-.2.9-.4 1.3-.3.9-.5 1.8-.6 2.7-.1 1-.2 2-.2 3s.2 2 .5 2.8c.1.2.1.4.1.6s0 .3.1.5c.4.7.9 1.6 1.7 2.4.4.4.9.8 1.4 1.1.3.1.6.3.9.4.1.1.3.1.4.2s.3.1.4.2h-.1l.9.3c.3.1.6.2.8.2.6.1 1.1.2 1.7.3h.3c.1.1 2 .1 3.8-.1s3.5-.6 3.7-.6c.1 0 .2-.1.4-.1.3-.1.6-.1.9-.2s.6-.1 1-.2l.5-.1c.2 0 .3-.1.5-.1.3-.1.6-.2.9-.3 1.2-.5 2.2-1.1 2.9-1.7.3-.3.6-.7.7-1l.3-.3c.1-.1.1-.2.2-.3.5-.3.8-.6.9-.7.1-.2.1-.2-.2 0 .1-.2.2-.3.3-.5s.2-.3.3-.5.2-.3.3-.5.2-.3.3-.5c.1-.3.2-.6.3-.9.1-.2.2-.4.3-.5.2-.6.2-.4.5-1.1 0 0 .1-.2.1-.3 0-.2.1-.4.1-.6s0-.4 0-.6 0-.3 0-.4v.1c0-.2.1-.4.1-.6s.1-.3.1-.5.1-.3.1-.5.1-.4 0-.6c0-1.1-.4-2.3-1-3.4-.7-1.1-1.6-2.1-2.7-2.8.2-.1.9.2.7.3-1.2-.9-2.5-1.7-4.1-2.2-.1 0-.1-.1-.2-.1-.1-.1-.1-.1-.2-.1-.1-.1-.2-.1-.3-.1-.3-.1-.3-.1-.4-.1s-.1 0-.3 0v-.1c-.5 0-.7-.3-1.2-.3 0 0-.2 0-.4 0 0-.1-.5-.1-.5-.2-.1 0-.2 0-.3-.1-.1 0-.6 0-1.2 0-.5 0-1.1 0-1.2 0h-.1c-.3 0-.4 0-.3.1l-.3-.3-.3-.1c-.1 0-.1-.1 0-.1-.2 0-.4 0-.6-.1.5.1 1.2.3 1.7.5-.2 0-.6-.1-.9-.2s-.9-.3-1.4-.4c-.1 0-.2.1-.4 0-.1-.1-.3 0-.5-.1.2 0 .5 0 .7.1 0-.1-.6-.1-.7-.2-.1 0-.6-.1-.9-.1.1.2 0 .1-.2.1zm-.1.1c.1 0 .2 0 .2.1h.1.1c-.1 0-.2 0-.4-.1.1.1.1.1.1.1-.1 0-.5 0-.7-.1 0 0 .1 0 .1.1-.1 0-.1 0-.2 0h-.1-.1c-.1 0-.1 0-.2 0h-.1.2c-.2 0 .3-.1.7-.1zm.2.1c-.1 0 0 0 0 0zm-.1-.2h.2s-.1 0-.2 0z" fill="#bf1d70"/></svg>