<?xml version="1.0" encoding="utf-8"?>
<!-- Generator: Adobe Illustrator 21.1.0, SVG Export Plug-In . SVG Version: 6.00 Build 0)  -->
<svg version="1.1" id="Layer_1" xmlns="http://www.w3.org/2000/svg" xmlns:xlink="http://www.w3.org/1999/xlink" x="0px" y="0px"
	 viewBox="0 0 30 30" style="enable-background:new 0 0 30 30;" xml:space="preserve">
<style type="text/css">
	.st0{fill:#FFFFFF;}
</style>
<g>
	<g>
		<g>
			<g>
				<g>
					<g>
						<g>
							<path class="st0" d="M27.5,15c0.1,0,0.3,0,0.2-0.1l-0.3-0.1L27.5,15z"/>
							<path class="st0" d="M28,14.2c-0.2-0.1-0.5-0.3-0.8-0.2c0.3,0.1,0.2,0.2,0.6,0.3c0,0.1-0.1,0.2-0.2,0.2
								c0.1,0-0.1,0.2,0.1,0.2c0.2-0.2,0.2-0.4,0-0.6C27.9,14.1,28,14.2,28,14.2z"/>
							<path class="st0" d="M22.8,3.7L22.8,3.7C22.8,3.8,22.8,3.7,22.8,3.7z"/>
							<path class="st0" d="M15.7,1C15.7,1,15.7,1,15.7,1C15.7,0.9,15.6,1,15.7,1z"/>
							<path class="st0" d="M14.3,0.6C14.4,0.6,14.4,0.6,14.3,0.6C14.4,0.6,14.3,0.6,14.3,0.6z"/>
							<path class="st0" d="M22.8,3.7l-0.1-0.2C22.6,3.6,22.7,3.6,22.8,3.7z"/>
							<path class="st0" d="M27.1,12.7c0,0,0.1,0.1,0.1,0.1C27.1,12.8,27.1,12.7,27.1,12.7L27.1,12.7z"/>
							<path class="st0" d="M25.4,5.8L25.4,5.8c0.1,0,0.1,0,0.2,0L25.4,5.8z"/>
							<path class="st0" d="M27,7.9C27,7.9,26.7,8,26.6,8c0.1,0,0.2,0,0.2,0C26.9,8,27,8,27,7.9z"/>
							<path class="st0" d="M28.1,11.9L28.1,11.9C28.1,12,28.1,12,28.1,11.9z"/>
							<path class="st0" d="M24.2,4.4C24.2,4.4,24.2,4.3,24.2,4.4C24.2,4.3,24.2,4.4,24.2,4.4z"/>
							<path class="st0" d="M26.5,17.6C26.5,17.6,26.6,17.6,26.5,17.6C26.5,17.6,26.5,17.6,26.5,17.6z"/>
							<polygon class="st0" points="28.2,15 28.2,15 28.4,15 							"/>
							<path class="st0" d="M11.8,0.5C11.8,0.5,11.8,0.5,11.8,0.5C11.9,0.5,11.8,0.5,11.8,0.5z"/>
							<path class="st0" d="M0.5,18.1c0.2-0.3,0.4,0.3,0.6-0.1C1,18,0.6,17.7,0.5,18.1z"/>
							<path class="st0" d="M27.1,12.6C27.1,12.6,27.1,12.6,27.1,12.6C27.1,12.6,27.1,12.6,27.1,12.6z"/>
							<path class="st0" d="M1.1,18L1.1,18L1.1,18C1.1,18,1.1,18,1.1,18z"/>
							<path class="st0" d="M6.5,2.9C6.5,3,6.6,3,6.6,3C6.6,3,6.6,2.9,6.5,2.9z"/>
							<path class="st0" d="M10.5,1.4l-0.1,0C10.4,1.4,10.5,1.4,10.5,1.4z"/>
							<path class="st0" d="M5,4.6c-0.1,0-0.1,0-0.1,0.1C4.9,4.7,4.9,4.7,5,4.6C4.9,4.7,4.9,4.6,5,4.6z"/>
							<path class="st0" d="M3.5,6.3C3.5,6.3,3.5,6.3,3.5,6.3l0.1-0.1L3.5,6.3z"/>
							<path class="st0" d="M24,22.9c0.1,0,0.2,0.1,0.3,0.1C24.1,22.9,24.3,22.6,24,22.9z"/>
							<path class="st0" d="M27.2,12.7c-0.1,0-0.1,0-0.1,0l0,0.1C27.2,12.7,27.2,12.7,27.2,12.7z"/>
							<path class="st0" d="M6.5,6.3L6.2,6.5C6.3,6.4,6.4,6.4,6.5,6.3z"/>
							<path class="st0" d="M11.3,26.8L11.3,26.8C11.4,26.8,11.4,26.8,11.3,26.8z"/>
							<path class="st0" d="M5.6,7.2c-0.1,0-0.2,0-0.3,0c0,0,0,0,0,0.1L5.6,7.2z"/>
							<path class="st0" d="M24.3,23L24.3,23L24.3,23z"/>
							<path class="st0" d="M24.9,20.9c-0.2,0.2,0.2,0.3,0.4,0.5c-0.1,0.4-0.3,0-0.5,0c0,0.2,0.2,0.6,0,0.7c-0.1,0-0.1,0-0.1-0.1
								c0.1,0.4-0.4,0.6-0.3,1c0,0-0.1,0-0.1,0c0.2,0.1,0.3,0.2,0.4,0.3c-0.1,0.1,0,0.3-0.2,0.2c0.1-0.1,0-0.1,0-0.2l0,0.2
								c-0.3-0.1,0-0.2-0.2-0.4c-0.1,0.3-0.1,0.7-0.3,0.8c-0.3-0.2,0.3-0.5-0.2-0.4l0.3-0.2c-0.6-0.2,0.2-0.1-0.4-0.3
								c-0.4,0.2-0.2,0.5-0.6,0.7c0.1,0.2,0.2,0.2,0.3,0.4c-0.2,0.7-0.9-0.3-1,0.3c0.1,0.2,0.3,0.6-0.1,0.6l-0.1-0.4
								c-0.3,0.2,0.1,0.6-0.4,0.6c0-0.2,0.2-0.3,0.1-0.3c-0.4-0.1,0,0.3-0.2,0.4l-0.2-0.3c-0.3,0.3-0.6,0.8-1,1c0-0.1,0-0.2-0.1-0.3
								c-0.2,0.2-0.5,0.3-0.9,0.4c-0.3,0.1-0.7,0.1-1,0.1l-0.1,0.4c-0.1,0-0.1-0.1-0.1-0.2c-0.3-0.1,0,0.2,0,0.3
								c-0.1,0.1-0.2-0.1-0.2-0.2c-0.3,0.3-1,0.8-1.5,0.6l0.1-0.1c-0.3-0.1-0.3,0.7-0.6,0.4l0.1-0.1c-0.7-0.1-1.6,0.2-2.1-0.3
								c-0.1,0.4-0.7-0.2-0.8,0.3c-0.4-0.4-0.2-0.4-0.8-0.7c-0.1,0-0.3,0.3-0.5,0.3l0.1-0.3l-0.3,0.2l0-0.4l-0.2,0
								c0.1,0,0.1,0.2,0.1,0.3c-0.3,0.1-0.6-0.4-0.6-0.5l-0.7,0c0.1-0.1,0.2-0.1,0.3-0.2c-0.4,0.2,0.1-0.3-0.3-0.2
								c0,0.1-0.1,0.2-0.1,0.2C10,26.2,9.6,26,9.4,25.9l0.1-0.2c-0.4-0.2-0.9-0.4-1.4-0.7c0.1,0.2-0.1,0.5-0.3,0.4l0.1-0.3
								c-0.2,0.1,0.1,0.2-0.2,0.3c-0.2-0.2,0.1-0.4,0.2-0.4L7.7,25c0-0.1,0.1-0.1,0.2-0.2c-0.2,0.1-0.1-0.5-0.5-0.3l0-0.1
								c-0.4-0.3-0.7-0.4-1-0.7c-0.2,0.2-0.3,0-0.5,0.1c-0.2-0.3-0.2-0.7-0.5-1c-0.3-0.1-0.2,0.1-0.4,0.1c0.2-0.2-0.1-0.5,0.2-0.4
								c-0.3-0.4-0.4-0.4-0.9-0.9c-0.1,0.1-0.1,0.2-0.1,0.2c-0.1-0.1,0-0.3,0.1-0.3l0,0c-0.3-0.2-0.4-0.6-0.4-1.1
								c0-0.4,0-0.8-0.4-0.9l0,0L3,19.1c0-0.3,0.2,0.1,0.3-0.2c-0.6-0.4-0.2-0.9-0.6-1.3c0.3-0.3,0.3-0.6,0.2-0.9
								c-0.1-0.3-0.2-0.7,0-1l-0.2,0c-0.2-0.1,0.1-0.2,0.1-0.3c-0.1,0-0.2,0.2-0.3,0.1c-0.3-1.1,0.3-2.4,0.7-3.4
								c0.1-0.4-0.8-0.5-0.3-0.9l0.3,0.2c-0.1-0.5,0.1-0.9,0.3-1.3C3.7,9.9,3.9,9.5,4,9.1C4,9.2,4.1,9.2,4,9.3
								c0.3,0,0.3-0.5,0.2-0.7c0.1-0.1,0.2,0.1,0.3,0.1c0.2-0.1,0-0.6,0.2-0.5c0,0,0,0.1,0,0.1c0-0.2,0.3-0.4,0.1-0.5
								c0.3-0.2,0.3-0.6,0.6-0.7C5.3,6.8,5.9,6.9,5.6,6.5c0.3,0.3,0.6-0.2,0.6-0.4c0,0.1,0.2,0,0.3,0.2c0.2-0.2,0.3-0.4,0.1-0.5
								c0.6,0.1,0.4-0.9,1-0.5C7.8,5,8,4.7,8.2,4.5C8.5,4.3,8.7,4,8.9,3.8c0.2,0.4-0.6,0.4-0.3,0.8C9,4.1,9.2,3.7,9.7,3.5
								c0.2,0,0,0.2,0,0.3c0.5-0.4,1.1-0.4,1.5-0.8c0,0,0,0.1-0.1,0.1c0.1,0,0.2,0,0.2-0.2l-0.1,0.1c-0.2-0.2,0.2-0.7,0.2-0.9
								c0,0.6,0.6,0,0.4,0.8C12,3,12,2.9,12,2.7c0.1,0,0.2,0.1,0.1,0.3c0.3-0.2,0.2-0.4,0.5-0.4c0,0.1,0,0.1-0.1,0.3
								c0.1-0.2,0.3-0.4,0.6-0.4c0,0.1,0,0.1-0.1,0.1c0.5-0.1,0.8-0.6,1.4-0.4c-0.1,0.4,0.2,0.1,0.2,0.5c0.1,0,0.2-0.1,0.3-0.1
								l-0.1-0.2c0.3,0,0.5-0.2,0.7-0.1l-0.2,0.1l0.5,0l-0.3-0.2c0.3-0.2,0-0.5,0.3-0.4c-0.1,0,0.3,0,0.4,0.3l0,0
								C16.4,2,16.5,1.9,16.7,2c0,0.1-0.1,0.4-0.1,0.5c0.2-0.3,0.6,0,0.8-0.3c-0.1,0.1-0.1,0.3-0.1,0.3l0.2-0.2
								c0.1,0.1,0.1,0.2,0.1,0.3c0.3,0.1,0-0.5,0.4-0.2c0,0,0,0.1-0.1,0.1c0.4,0.2,0.9,0,1.2,0.3c0,0.4-0.4,0-0.3,0.3
								c0.5,0.1,1.3,0,1.7,0.3l-0.1-0.1c0.3-0.4,0.3,0.4,0.6,0.3c-0.1,0-0.2,0.2-0.2,0.2c0.3,0.3,0.7,0.3,1.3,0.5l-0.1,0.1
								C22,4.6,22.4,4.8,22.5,5c0.1-0.1,0.2,0,0.3-0.2c0.1,0.5,0.4,0.7,0.7,0.8c0.3,0.1,0.7,0.3,0.7,0.8c-0.1-0.1-0.2-0.1-0.2,0
								l0.5,0.3c0.1-0.2,0.1-0.1,0.1-0.4c0.2,0,0.3,0,0.4,0.1c-0.3-0.1-0.3,0.2-0.3,0.4c0-0.1,0.1-0.1,0.2-0.1
								c-0.1,0.5,0.4-0.2,0.4,0.3l-0.1,0.1c0.1,0.1,0.4,0.1,0.4,0.3c-0.2,0.2-0.2-0.1-0.4,0.1c0.1,0.2,0.7,0.1,0.6,0.4
								c-0.1,0-0.2-0.2-0.3-0.2c-0.1,0.4-0.1,0.3,0,0.5l0,0l0.1,0.4l0-0.1c0.7-0.1,0.4,0.4,1,0.6C26,8.8,26.3,9,26,9.1
								c0,0.1-0.1,0.3-0.1,0.3c0.3,0.1,0,0.3,0.4,0.4c-0.1,0.1,0.1,0.2-0.2,0.2c0.2,0.2,0.1-0.1,0.3-0.1c0.5,0.2-0.1,0.9,0.5,1.3
								c0.3,0.4,0.6,0.4,0.9,0.8c-0.1,0.2-0.4,0-0.4,0c-0.1,0.3,0,0.4,0.1,0.6c-0.1,0-0.2,0-0.3,0.1c0.1,0.2,0.4,0.1,0.3,0.3
								c-0.1,0-0.3,0-0.4-0.1c0.1,0.2,0.3,0.3,0.4,0.5c-0.2,0.1-0.3-0.1-0.4-0.1c0.1,0.2,0.3,0.6,0.5,0.6l0.1-0.2
								c0,0.1-0.2,0.1-0.3,0c-0.2-0.2,0-0.3,0.1-0.3l0.1,0.1c0.5-0.2-0.2-0.6-0.2-0.9l0.4,0.1l-0.4-0.3c0.1-0.1,0.3-0.2,0.4,0
								c0.2-0.3-0.2-0.2,0-0.4c0,0,0.1,0,0.1,0l-0.2-0.2c0.1,0,0.3-0.1,0.3,0c0.1-0.5-0.5-0.5-0.2-0.8l0,0c-0.3-0.5-0.3,0-0.8-0.2
								l0.6-0.5l-0.3,0.1c0-0.1,0-0.2,0.1-0.2c-0.3-0.1-0.1,0.1-0.3,0c0.2-0.4-0.4-0.6,0-0.9c-0.3,0,0,0.3-0.3,0.1
								c0.4-0.3-0.2-0.3-0.1-0.6c0.3-0.1,0.3,0.2,0.4-0.1c-0.5,0.1-0.1-0.5-0.3-0.6c-0.3,0.2-0.4-0.3-0.7-0.6c0.1-0.1-0.2-0.7-0.3-1
								l0.1,0c-0.3,0.2-0.5-0.2-0.7-0.3C25.4,6,25.5,6,25.7,6l-0.2-0.2c-0.1,0-0.2,0-0.4-0.1l0.2-0.1c-0.2-0.2-0.7-0.3-0.8-0.7
								c-0.2,0.2-0.3,0.7-0.7,0.6c0.1-0.1,0.2-0.3,0.4-0.3c0,0-0.2,0-0.2-0.1l0.3-0.1c-0.1-0.2-0.2,0.1-0.3,0c0.1-0.1,0-0.2,0.1-0.3
								c0,0,0,0.1,0.1,0.1c-0.1-0.1-0.2-0.4-0.1-0.5c-0.1,0.1-0.2,0.2-0.3,0.1c-0.2-0.2,0.1-0.3,0-0.5c-0.1,0-0.2-0.2-0.4,0
								c-0.1-0.1,0-0.2,0-0.3c-0.2,0-0.6-0.4-0.7-0.1l0,0c0,0,0,0,0,0l0,0l0,0c-0.6-0.1-0.8-0.7-1.4-0.9l0-0.1
								c-0.3-0.1-0.7-0.3-1-0.2c-0.1,0-0.1-0.3,0-0.3c-0.3,0-0.3,0-0.6-0.2c0.3-0.1,0-0.2,0.3,0c-0.3-0.2-0.3-0.4-0.7-0.2
								c0.2-0.2-0.1-0.4-0.3-0.4l0.2,0.2c-0.2,0-0.3-0.1-0.4-0.2l0.2-0.3c-0.6-0.6-1.3,0.3-1.7-0.4c-0.2,0.2,0.3,0.2,0.1,0.5
								c-0.3-0.1-0.5-0.6-0.6-0.6c-0.4-0.2-0.5,0.4-0.9,0.2c0,0.1,0.1,0.4-0.3,0.5c-0.3-0.1-0.3-0.5-0.1-0.6c0.1,0,0.1,0,0.1,0.1
								c0.1,0,0.2-0.1,0.1-0.2l0,0.1c-0.1-0.1-0.6-0.1-0.5-0.3c-0.2,0.1-0.1,0.2,0.1,0.3c-0.4-0.2-0.6-0.1-1-0.1
								c0.1,0.1,0.1,0.2,0.1,0.2c-0.6-0.1-0.3,0.2-0.6,0.3c-0.2-0.2,0.1-0.4-0.3-0.3c-0.3-0.1-0.1-0.3,0-0.4
								c-0.4,0.2-0.7-0.1-0.9-0.1l0.2-0.1c-0.1,0.1-0.2,0.1-0.3,0.1l0.1,0.2c-0.1,0-0.2,0-0.2-0.1c-0.1,0.2,0.2,0.4,0,0.6
								C12.1,1,11.9,1.3,11.8,1c0.5,0-0.1-0.3,0.3-0.4c-0.1,0-0.2,0.1-0.3,0c0,0,0-0.1,0-0.1c-0.5-0.2-0.1,0.4-0.6,0.5
								c0-0.2-0.2-0.3-0.3-0.2c0.2,0,0.2,0.3,0,0.4c-0.3-0.1-0.3,0.2-0.4,0.2l0.2,0c0,0.2-0.2,0.2-0.3,0.3c-0.1-0.1,0.1-0.2,0.1-0.2
								C10.3,2,9.8,1.5,9.6,1.8C9.4,1.7,9.4,1.5,9.3,1.4C9,1.8,8.8,1.4,8.5,1.7c0.2,0.2,0.2,0.1,0,0.4l0.5-0.4L8.9,2.2
								C9,2.1,9.1,1.9,9.3,1.9C9.2,2.1,9.2,2.1,9.3,2.2C9,2,9,2.6,8.6,2.5L8.3,2C7.8,2,7.8,2.7,7.2,2.8l0.2,0C7.4,3.1,7.1,3,7,3.2
								C6.9,3,6.8,3,6.6,3c0.1,0.1-0.4,0.3-0.2,0.6L6.1,3.5C5.6,3.8,6,4.3,5.6,4.6c0-0.3-0.3-0.2-0.2-0.5C5.3,4.1,5.2,4.2,5.3,4.3
								c-0.2,0-0.1,0.5-0.4,0.4c0,0.1,0.1,0.3,0,0.4c0,0-0.1-0.1-0.1-0.1C4.9,5.1,4.8,5.3,5,5.4c-0.7-0.1-0.8,0.9-1.5,1
								C3.4,6.6,3.2,7,3.1,7.2c0,0-0.1-0.1,0-0.1C2.7,7.4,3.4,7.6,3,7.9C2.6,8,3,7.6,2.8,7.7C2.2,7.4,2.5,8.2,2.1,8.3l0-0.1
								c-0.3,0.1,0,0.7-0.3,1c0,0,0,0-0.1,0c0.2,0.4,0.1,0.9,0.1,1.3c-0.2-0.2-0.1-0.2-0.3-0.2c0,0.2,0.4,0.1,0.4,0.4
								c-0.2,0.1-0.4,0.2-0.6,0.2c0-0.1,0.1-0.2,0.1-0.3c-0.4,0-0.1,0.4-0.2,0.5L0.9,11c-0.1,0.5,0.3,0.6,0.1,1.1l0.1,0
								c0.3,0.4-0.3,0.2,0,0.5l-0.4,0c0.1,0.2,0.3,0.7,0.3,1.1c-0.3-0.2-0.4-0.6-0.5-0.9c0,0.2-0.1,0.7,0.1,0.8c0-0.1-0.1-0.2,0-0.3
								c0.3,0.3,0.4,0.6,0.4,0.9c-0.8-0.1-0.3,1-0.8,1.2c0.2,0.3,0.1,0.7,0.1,1c0,0.4,0,0.7,0,1.1c0.5-0.4,0.1,0.2,0.6,0.1
								c0.1,0.2,0.1,0.2,0,0.3l-0.2,0.6c-0.1,0.2-0.2-0.1-0.3-0.1c0.1,0.4-0.2,0.2-0.3,0.5c0.2-0.1,0.3,0.1,0.3,0.3L0.8,19
								c0.4,0.5-0.3,0.6,0.2,1.1l-0.2-0.1c0.2,0.2,0.4,1.1,1,1.1c0,0.1-0.2,0.2-0.3,0.1c0.2,0.7,1.2,1.1,1.2,1.8l-0.2,0
								c0.1,0.1,0.3,0,0.3,0.3c-0.1,0-0.2,0-0.1,0.1c0.1,0,0.4,0.1,0.5,0.3l-0.2,0c0.3,0.7,1,0.6,1.4,0.9c-0.3,0.3-0.1,0.8,0.1,1
								l-0.1,0c0.6,0.6,1.3,0.7,2,0.9c0.1,0.7,1.2,1,1.7,1.6C8,28,8.2,27.9,8.3,27.9c0.1,0.2,0.6-0.1,0.4,0.3l-0.1,0
								c0,0.4,0.3,0.5,0.6,0.6l0.2-0.5c0.2,0.5,0.7,0.6,1.1,0.6c0.4,0,0.8,0,1,0.4c0.2-0.1,0.4,0,0.6-0.1l-0.1,0.3
								c0.5,0.1,0.7,0.2,1.3,0.2l-0.1,0.2c0.4,0,0.5-0.8,0.8-0.8l0.1,0.4c0.6,0,1.2,0.4,1.8-0.1c0,0.1,0,0.2-0.1,0.2
								c0.3,0,1.1,0.2,0.9-0.4c0.1,0.4,0.6-0.1,0.9-0.3l0,0.3c0.2-0.4,0.2-0.5,0.5-0.7c0.1,0,0.1,0.2,0,0.2c0.3,0.1,0.2-0.3,0.5-0.3
								l-0.1,0.2c0.3-0.1,0.3-0.1,0.3-0.4c0.1-0.2,0.5-0.1,0.7,0.1c0-0.2,0.1-0.4,0.3-0.4c0.1,0.1,0,0.2,0,0.2c0.6,0,0.5-0.6,1-0.5
								c0,0.1,0.1,0.1,0.1,0.1c-0.4,0.2-0.7,0.3-0.6,0.3c0.1,0.2,0.4,0.1,0.3,0.6c0.2-0.3,0.4-0.9,0.7-0.9c0,0,0.1,0,0.1,0.1l0,0
								c0.1,0,0.1-0.1,0.2-0.1c0.1,0,0.2,0,0.3-0.1c0.1,0.2,0.4-0.1,0.5-0.2c-0.2-0.2,0-0.3-0.2-0.4c0,0,0,0-0.1,0.1c0,0,0,0,0,0.1
								l0,0c-0.1,0.1-0.2,0.1-0.3,0.2c0-0.2,0.1-0.4,0.3-0.3c0-0.2,0-0.4,0-0.5c0.4,0.2,0.9,0.2,1.1,0.3c0.3-0.4,0.9-0.8,0.8-1.4
								c0.1-0.1,0.2,0,0.3,0c0,0.1-0.1,0.2-0.1,0.2c0.1-0.3,0.6-0.6,0.4-0.9c0.4-0.1,0.1,0.4,0.4,0l0,0.1c0.5-0.1,0.6-0.6,0.7-1
								c0.1-0.5,0.2-0.9,0.8-1.1c-0.1,0-0.1,0-0.2,0c1-0.8,1-2.2,1.8-3.1c0.2-0.3,0-0.4-0.1-0.6l0.3,0L28,18.8
								c-0.1-0.5,1-0.6,0.6-1.4l-0.2,0c0.1-0.2,0-0.7,0.2-0.6c0,0-0.2-0.1-0.1-0.2l0.2,0c-0.1-0.2-0.1-0.4-0.2-0.6
								c0.1-0.4,0.6,0.1,0.7-0.5c0-0.2-0.4-0.7-0.5-0.6c0,0.1-0.1,0.2-0.3,0.2L28.2,15c-0.5,0-0.9-0.2-1.3,0.3l0.3,0.3L27,15.7
								l0-0.3c-0.2,0.1,0,0.2,0.1,0.4c-0.1,0-0.2,0.1-0.3,0.1l0.4,0.4c-0.2,0-0.3-0.2-0.5,0c0.2,0.2,0.4-0.1,0.5,0.2
								c-0.2,0.1-0.4,0.1-0.2,0.3c-0.1,0-0.2,0-0.2-0.1c0.1,0.2,0,0.4,0.2,0.5c-0.3,0.1,0,0.5-0.5,0.4c0.1,0.1,0.3,0.3,0.2,0.5
								c-0.4-0.4-0.2,0.5-0.7,0.3c0.4,0.3,0,0.7,0.1,1.1c0,0-0.1-0.1-0.1-0.1c-0.1,0.2-0.3,0.2-0.4,0.3c0.4,0.2,0.3,0.5,0.4,0.7
								c-0.4,0.1-0.4-0.3-0.7-0.4c0.3,0.1,0.1,0.5,0.4,0.6c-0.3,0.1-0.2,0.1-0.5,0c0.4,0.3,0,0.2,0.2,0.5c-0.4,0.1-0.4-0.2-0.5,0.2
								C24.9,21.2,24.9,20.9,24.9,20.9z M20.5,26.2L20.5,26.2c0,0,0.1-0.1,0.1-0.1C20.6,26.2,20.6,26.2,20.5,26.2z M20,26.5
								c0.1,0,0.2-0.1,0.2-0.1c0.1,0.1,0.1,0.2,0,0.2C20.3,26.5,20.1,26.5,20,26.5z M22.1,27.6c-0.1,0.1-0.1,0.1-0.2,0
								c0,0,0.1-0.1,0.1-0.1l0,0C22.1,27.5,22.1,27.6,22.1,27.6z"/>
							<path class="st0" d="M22.1,27.2C22.1,27.2,22.1,27.2,22.1,27.2C22.1,27.1,22,27.1,22.1,27.2L22.1,27.2L22.1,27.2z"/>
							<path class="st0" d="M22.8,3.8L22.8,3.8C22.8,3.8,22.8,3.8,22.8,3.8C22.8,3.8,22.8,3.8,22.8,3.8z"/>
							<polygon class="st0" points="12,26.8 12,26.9 12,26.8 							"/>
							<path class="st0" d="M24.7,6.9C24.7,6.9,24.7,6.9,24.7,6.9C24.7,6.9,24.7,6.9,24.7,6.9z"/>
							<path class="st0" d="M25.5,8.1l0,0.2C25.5,8.2,25.5,8.1,25.5,8.1z"/>
							<path class="st0" d="M25.9,9.1c0,0,0.1,0,0.1,0l0,0L25.9,9.1z"/>
							<path class="st0" d="M11.1,3.2C11.1,3.2,11.1,3.2,11.1,3.2C11,3.3,11.1,3.3,11.1,3.2z"/>
							<path class="st0" d="M16.2,2.1c-0.1,0-0.1,0.1-0.2,0.1C16.1,2.2,16.2,2.3,16.2,2.1z"/>
							<polygon class="st0" points="6.5,6.3 6.5,6.3 6.5,6.3 							"/>
							<path class="st0" d="M15.8,2.2c0.1,0.1,0.2,0.1,0.2,0C16,2.2,15.9,2.2,15.8,2.2z"/>
							<path class="st0" d="M27.2,13.7L27.2,13.7C27.2,13.7,27.2,13.7,27.2,13.7L27.2,13.7z"/>
							<path class="st0" d="M27.2,13.7L27.2,13.7C27.3,13.7,27.3,13.7,27.2,13.7z"/>
							<path class="st0" d="M27.3,13.9l-0.1-0.1C27.3,13.8,27.3,13.9,27.3,13.9z"/>
							<path class="st0" d="M27.1,12.2l-0.1,0C27,12.2,27,12.2,27.1,12.2z"/>
							<path class="st0" d="M26.9,11.8c0,0.1-0.1,0.3,0,0.4l0.1,0C26.8,12.2,27.1,11.9,26.9,11.8z"/>
							<path class="st0" d="M27.5,9.6c0,0.1,0,0.3,0.1,0.4c0.1-0.1,0.2-0.2,0.3-0.1C28,9.3,27.7,10.1,27.5,9.6z"/>
							<path class="st0" d="M27.1,8.3c0.1,0.2,0.1-0.1,0.2-0.1C27.1,8.2,27.1,8.2,27.1,8.3z"/>
							<path class="st0" d="M20.4,2.2L20.6,2C20.4,1.9,20.5,2,20.4,2.2z"/>
							<path class="st0" d="M18.4,2.8c0,0.1,0.1,0.1,0.1,0.2l0.1-0.2C18.6,2.8,18.5,2.8,18.4,2.8z"/>
							<polygon class="st0" points="17.9,0.8 18,0.8 17.7,0.8 							"/>
							<path class="st0" d="M3.5,5.8L3.8,6C3.9,5.9,3.6,5.6,3.5,5.8z"/>
							<path class="st0" d="M0.9,12c-0.2,0-0.3,0.2-0.2,0.4C0.8,12.2,0.9,12.1,0.9,12z"/>
							<polygon class="st0" points="9.7,28.7 9.5,28.8 9.8,28.8 							"/>
						</g>
					</g>
				</g>
			</g>
		</g>
	</g>
	<g>
		<g>
			<g>
				<g>
					<g>
						<path class="st0" d="M20.2,10.5c-0.1-0.1-0.2-0.2-0.2-0.2L20.2,10.5L20.2,10.5z"/>
						<path class="st0" d="M19.6,10.1c0.1,0.1,0.3,0.3,0.5,0.6c-0.2-0.2-0.1-0.2-0.4-0.4c0,0,0.1,0,0.2,0.1c-0.1-0.1,0.1,0-0.1-0.1
							c-0.2-0.2-0.2-0.1-0.1,0C19.7,10.3,19.7,10.2,19.6,10.1z"/>
						<path class="st0" d="M17.9,11.2L17.9,11.2C17.9,11.2,17.9,11.2,17.9,11.2z"/>
						<path class="st0" d="M16.9,11.9C16.9,11.9,16.8,11.9,16.9,11.9C16.8,11.9,16.8,11.9,16.9,11.9z"/>
						<path class="st0" d="M16.5,11.8C16.5,11.8,16.5,11.8,16.5,11.8C16.5,11.8,16.4,11.8,16.5,11.8z"/>
						<path class="st0" d="M17.9,11.2L17.9,11.2C17.8,11.2,17.8,11.2,17.9,11.2z"/>
						<path class="st0" d="M20,10.9C20,10.9,20,10.9,20,10.9C20,10.8,20,10.9,20,10.9C20,10.9,20,10.9,20,10.9z"/>
						<path class="st0" d="M18.1,10.6L18.1,10.6c0,0,0-0.1-0.1-0.1L18.1,10.6z"/>
						<path class="st0" d="M18.3,10.3c0,0,0.2,0.2,0.3,0.3c-0.1-0.1-0.1-0.1-0.1-0.2C18.4,10.4,18.4,10.3,18.3,10.3z"/>
						<path class="st0" d="M19.1,10.2L19.1,10.2C19.1,10.1,19.1,10.2,19.1,10.2z"/>
						<path class="st0" d="M17.8,10.8C17.8,10.8,17.8,10.7,17.8,10.8C17.8,10.7,17.8,10.8,17.8,10.8z"/>
						<path class="st0" d="M11,20.6C11,20.6,11,20.6,11,20.6C11,20.6,11,20.6,11,20.6z"/>
						<path class="st0" d="M9.7,19.9L9.7,19.9c0-0.1-0.1-0.1-0.1-0.1L9.7,19.9z"/>
						<path class="st0" d="M15.9,11.9C15.9,11.9,15.9,11.9,15.9,11.9C15.9,11.8,15.9,11.8,15.9,11.9z"/>
						<path class="st0" d="M13.6,14.5c0.2,0.1,0.2,0.3,0.4,0.4C13.9,14.9,13.7,14.6,13.6,14.5z"/>
						<path class="st0" d="M20,10.9C20,10.9,20,10.9,20,10.9C20,10.9,20,10.9,20,10.9z"/>
						<path class="st0" d="M14,14.9C14,14.9,14,14.9,14,14.9L14,14.9C14,15,14,15,14,14.9z"/>
						<path class="st0" d="M15.4,12.6C15.5,12.6,15.5,12.7,15.4,12.6C15.5,12.7,15.5,12.6,15.4,12.6z"/>
						<path class="st0" d="M16.2,12.4L16.2,12.4C16.2,12.4,16.2,12.4,16.2,12.4z"/>
						<path class="st0" d="M15.5,13.1C15.4,13.1,15.4,13.1,15.5,13.1C15.4,13.1,15.4,13.1,15.5,13.1C15.4,13.1,15.4,13.1,15.5,13.1z
							"/>
						<path class="st0" d="M15.2,13.4C15.2,13.4,15.2,13.4,15.2,13.4C15.2,13.4,15.2,13.4,15.2,13.4L15.2,13.4z"/>
						<path class="st0" d="M11.7,19.7c-0.1-0.1-0.1-0.1-0.2-0.2C11.6,19.7,11.7,19.8,11.7,19.7z"/>
						<path class="st0" d="M19.9,10.8C20,10.8,20,10.9,19.9,10.8C20,10.9,20,10.9,19.9,10.8C20,10.8,19.9,10.8,19.9,10.8z"/>
						<path class="st0" d="M17,14.7L17,14.7C17,14.7,17,14.7,17,14.7z"/>
						<path class="st0" d="M13.5,17.9L13.5,17.9C13.5,17.9,13.5,17.9,13.5,17.9z"/>
						<path class="st0" d="M16.9,14.9c-0.1-0.1-0.1-0.1-0.2-0.1c0,0,0,0,0,0.1L16.9,14.9z"/>
						<path class="st0" d="M11.5,19.5C11.5,19.5,11.5,19.5,11.5,19.5C11.5,19.5,11.5,19.5,11.5,19.5z"/>
						<path class="st0" d="M11.7,20.3c0,0-0.2-0.3-0.4-0.4c0-0.1,0.2,0.2,0.4,0.3c0-0.1-0.3-0.4-0.2-0.4c0,0,0.1,0.1,0.1,0.1
							c-0.2-0.2,0.1-0.1-0.1-0.4c0,0,0,0,0.1,0.1c-0.1-0.1-0.3-0.3-0.4-0.4c0,0-0.1-0.2,0,0c0,0,0.1,0.1,0.1,0.1l-0.1-0.1
							c0.3,0.2,0.1,0.1,0.2,0.3c0-0.1-0.2-0.4-0.1-0.3c0.2,0.2,0,0.1,0.3,0.3l-0.1,0c0.4,0.3-0.1,0,0.4,0.4c0.1,0-0.1-0.2,0.1-0.2
							c-0.1-0.1-0.2-0.2-0.3-0.3c-0.2-0.3,0.7,0.5,0.4,0.2c-0.1-0.2-0.4-0.5-0.2-0.4l0.3,0.3c0.1,0-0.4-0.4-0.1-0.3
							c0.1,0.1,0,0.1,0.1,0.2c0.3,0.2-0.1-0.2-0.1-0.2l0.2,0.2c0-0.1-0.1-0.3-0.1-0.4c0.1,0.1,0.1,0.2,0.2,0.2
							c0-0.2,0.2-0.1,0.4-0.1l-0.2-0.2c0,0,0.1,0.1,0.1,0.1c0.1,0-0.1-0.1-0.2-0.2c0,0,0.1,0.1,0.2,0.2c-0.1-0.2-0.2-0.5,0-0.4
							l0.1,0.1c0.1,0-0.4-0.5-0.1-0.3l0,0c0.2,0,0.1-0.3,0.5-0.1c-0.3-0.3,0.2,0-0.2-0.4c0.3,0.2,0.3,0.2,0.5,0.3
							c0,0-0.2-0.3-0.2-0.4l0.2,0.2l-0.2-0.3l0.3,0.2l0-0.1c0,0-0.1-0.1-0.2-0.1c-0.1-0.1,0.2,0.1,0.4,0.2l-0.1-0.3
							c0.1,0.1,0.1,0.1,0.1,0.2c-0.2-0.3,0.2,0.2,0.1,0c-0.1,0-0.1-0.1-0.2-0.2c0.2,0.1,0.2,0.1,0.2,0l0.1,0.2
							c0.1,0,0.1-0.2,0.1-0.3c-0.1,0-0.4-0.3-0.4-0.4l0.2,0.2c-0.1-0.2-0.1-0.1-0.3-0.3c0.1,0,0.3,0.2,0.3,0.3l0-0.1
							c0.1,0.1,0.1,0.1,0.2,0.2c-0.1-0.2,0.3,0.2,0.1-0.1l0.1,0.1c0.1-0.1,0-0.2,0.1-0.3c-0.2-0.2-0.1-0.2-0.3-0.4
							c0.1,0,0.3,0.1,0.3,0.1c-0.1-0.1-0.2-0.2-0.3-0.3c0.2,0.2,0.2,0.1,0.3,0.3c0-0.1,0-0.1,0-0.3c-0.1-0.1-0.1-0.1-0.2-0.2
							c0,0,0.1,0,0.2,0.1l0,0c-0.2-0.4,0.7,0.3,0.4-0.1l0,0l-0.1-0.3c0.1,0,0.1,0.2,0.3,0.2c-0.2-0.4,0.2-0.1,0-0.3
							c0.6,0.5,0.1-0.2,0.5,0.1L15.5,16c-0.1-0.1,0.1,0.1,0.1,0.1c-0.1-0.1-0.1-0.1-0.2-0.2c0-0.3,0.5-0.1,0.8-0.2
							c0.1,0-0.6-0.7-0.2-0.5l0.2,0.3c-0.2-0.4,0.2-0.2,0.1-0.6c0,0.1,0.1,0.1,0.1,0.1c0.2,0.1,0.1-0.1,0-0.2c0,0,0.1,0.1,0.2,0.2
							c0.1,0.1-0.2-0.3,0-0.1c0,0,0,0.1,0.1,0.1c-0.1-0.1,0.1,0-0.1-0.2c0.1,0.1,0-0.2,0.1-0.1c-0.2-0.2,0.2,0-0.1-0.3
							c0.3,0.3,0.3,0.2,0.2,0c0.1,0.1,0.1,0.1,0.2,0.2c0,0,0-0.1-0.2-0.3c0.4,0.3-0.2-0.4,0.3,0C17.1,14.2,17,14,17,13.9
							c0.3,0.3-0.1,0.1,0.3,0.5c-0.1-0.2-0.3-0.5-0.1-0.5c0.1,0,0.1,0.1,0.2,0.2c-0.1-0.2,0.2-0.1,0.1-0.4c0,0,0.1,0.1,0.1,0.1
							c0,0,0.1,0-0.1-0.1l0,0.1c-0.2-0.2-0.4-0.5-0.5-0.6c0.4,0.4,0.2,0,0.7,0.6c0,0-0.1-0.1-0.2-0.2c0,0,0.1,0.1,0.2,0.2
							c0-0.1-0.2-0.3-0.2-0.3c0.1,0.1,0.1,0.1,0.2,0.2c-0.1-0.2-0.2-0.3-0.1-0.3c0,0,0.1,0.1,0.1,0.1c0-0.1-0.3-0.5-0.1-0.4
							c0.3,0.3,0.1,0.1,0.4,0.3l0-0.1L17.8,13c0,0-0.1-0.2,0-0.2l0.1,0.1l0-0.1l-0.1-0.1c-0.1-0.2-0.3-0.3-0.2-0.3c0,0,0,0,0.2,0.1
							c0,0,0,0,0,0c-0.1-0.1-0.1-0.2-0.1-0.2c0.1,0.1,0.3,0.3,0.3,0.3c-0.2-0.2,0-0.1-0.2-0.4c0,0.1,0.2,0.2,0.2,0.2l-0.2-0.2
							c0.1,0,0.1,0.1,0.2,0.2c0.1,0-0.3-0.3-0.2-0.2c0,0,0,0,0.1,0.1c0.1,0,0-0.2,0.1-0.2c0.3,0.3,0,0.1,0.3,0.3
							c0-0.1-0.2-0.5,0-0.5l0,0c-0.4-0.4,0.2,0.1,0.1-0.1c0,0,0.2,0.2,0.2,0.2c0.1,0,0-0.2,0-0.4l0.1,0.1c0.1,0.1,0.1,0,0.2,0
							c-0.1-0.1-0.1-0.1-0.2-0.2c0.6,0.5-0.1-0.5,0.4-0.1c0,0,0.1,0.1,0.1,0.1l0-0.2c-0.2-0.2-0.1-0.1-0.2-0.2
							c-0.1-0.1-0.1-0.2-0.1-0.2c0.1,0.1,0.3,0.3,0.4,0.3c-0.1,0-0.1-0.1-0.2-0.2c0.3,0.3-0.3-0.3-0.1-0.2l0.1,0.1
							c0-0.1-0.1-0.2-0.1-0.2c0.2,0.2,0.1,0.1,0.2,0.3c0,0-0.3-0.4-0.1-0.3c0,0.1,0,0.1,0.1,0.1c0.2,0.2,0.2,0.1,0.3,0.1l0,0
							l0.1,0.1l-0.1,0c-0.5-0.5,0-0.2-0.3-0.5c0.3,0.4,0.2,0.2,0.4,0.4c0.1,0,0.2,0.1,0.2,0.2c-0.2-0.2,0.2,0.1,0-0.2
							c0.1,0.1,0,0,0.2,0.2c0-0.1-0.1-0.1-0.2-0.2c-0.2-0.3,0.4,0.2,0.1-0.2c-0.1-0.2-0.3-0.4-0.4-0.6c0.1,0.1,0.2,0.3,0.2,0.3
							c0.1,0.1,0.1,0,0.1-0.1c0.1,0.1,0.1,0.1,0.2,0.2c0,0-0.2-0.3-0.1-0.2c0.1,0.1,0.2,0.2,0.3,0.3c0-0.1-0.1-0.2-0.2-0.3
							c0.1,0.1,0.2,0.2,0.2,0.3c0-0.1,0-0.2-0.2-0.4l-0.1,0c0,0,0.2,0.2,0.2,0.2c0.1,0.2-0.1,0-0.2-0.1l0-0.1
							c-0.4-0.4,0,0.1-0.1,0.2l-0.3-0.3l0.2,0.3c-0.1-0.1-0.3-0.2-0.3-0.3c-0.2-0.1,0.1,0.1-0.1,0c0,0,0,0-0.1-0.1l0.1,0.1
							c-0.1-0.1-0.2-0.2-0.2-0.2c-0.2-0.1,0.1,0.3-0.1,0.1l0,0c0,0.2,0.2,0.2,0.4,0.5l-0.6-0.5l0.2,0.2c0,0,0,0-0.1-0.1
							c0.1,0.2,0.1,0.1,0.2,0.2c-0.2-0.2,0,0.2-0.3-0.2c0.2,0.2,0.2,0.1,0.2,0.2c-0.4-0.4,0,0.1-0.2,0c-0.2-0.2-0.1-0.1-0.3-0.3
							c0.3,0.3-0.1,0-0.1,0.1c0.3,0.3,0.1,0.2,0.1,0.3c-0.1-0.1-0.2-0.1-0.4-0.1l0,0c0.3,0.3,0.2,0.3,0.2,0.3
							c-0.2-0.2-0.2-0.2-0.3-0.3l0,0c0.1,0.1,0.1,0.1,0.1,0.2L18,10.6c0,0,0.2,0.3,0,0.2c0.2,0.2,0.5,0.5,0.6,0.6
							c-0.1-0.1-0.3-0.3-0.3-0.3c0,0,0.1,0.1,0,0.1L18.2,11c-0.1-0.1,0.1,0.1,0.1,0.2C18.1,11,18.2,11.1,18,11c0,0,0.1,0,0,0
							c0,0-0.2-0.1-0.3-0.2C17.9,10.9,18,11,18,11c0,0-0.2-0.2-0.3-0.2c0.1,0.1,0,0,0.2,0.2c0,0-0.1-0.1-0.2-0.1
							c0.1,0.1-0.1,0.1,0.2,0.3l0,0c0,0,0,0,0,0c0,0,0,0,0,0l0,0c0.1,0.3-0.2,0-0.2,0.2l-0.1-0.1c0,0.1,0,0.1,0.1,0.3
							c0,0-0.2-0.1-0.2-0.2c0,0.1,0.1,0.2-0.1,0.1c-0.1-0.1-0.1-0.1-0.1-0.1c-0.1,0-0.2-0.1-0.1,0.1c-0.2-0.2-0.3-0.2-0.2-0.1
							l0.2,0.1c0,0,0,0-0.1,0L17,11.3c-0.4-0.2,0.4,0.6-0.2,0.2c0.1,0.2,0.2,0.1,0.3,0.3c-0.1,0-0.4-0.3-0.5-0.3
							c-0.2-0.1,0.3,0.4,0.2,0.3c0.1,0.1,0.3,0.3,0.4,0.4c-0.1,0-0.4-0.3-0.4-0.4c0,0,0,0,0.1,0c0,0,0-0.1-0.1-0.2l0.1,0.1
							c-0.1-0.1-0.1,0-0.3-0.2c0.1,0.1,0.1,0.1,0.2,0.2c-0.2-0.1-0.1,0.1-0.2,0c0.1,0,0.2,0.1,0.2,0.1c-0.2,0,0.1,0.2,0.1,0.3
							c-0.2-0.1-0.3-0.3-0.2-0.2c-0.1-0.1-0.2-0.2-0.3-0.3c0.1,0.2-0.2,0-0.2,0l0-0.1c0,0.1,0,0.1,0,0.1l0.2,0.2c0,0-0.1,0-0.1-0.1
							c0.1,0.1,0.3,0.3,0.4,0.4c-0.1-0.1,0,0.1-0.2-0.1c0.1,0-0.2-0.2-0.2-0.3c0,0,0,0,0,0c0,0,0,0-0.1-0.1
							c-0.2-0.1,0.2,0.3,0.2,0.3C16,12,15.8,12,15.9,12c0,0,0.2,0.2,0.3,0.3c-0.1-0.1,0,0.1,0,0.1l0.1,0c0.1,0.1,0.1,0.1,0.1,0.2
							c-0.1-0.1,0-0.1-0.1-0.1c0.2,0.2-0.3-0.2-0.2,0c-0.1-0.1-0.2-0.2-0.3-0.3c0.1,0.2-0.2-0.1-0.1,0c0.2,0.2,0.1,0.1,0.3,0.3
							l0-0.2l0.2,0.3c0,0-0.1-0.2,0-0.1c0.1,0.2,0.1,0.1,0.2,0.2c-0.3-0.2,0.1,0.2-0.1,0.1l-0.4-0.4c-0.2-0.1,0.1,0.3,0,0.3l0.1,0.1
							c0.2,0.2,0,0.1,0,0.2c-0.1-0.1-0.2-0.2-0.3-0.3c0.1,0.1-0.1,0,0.2,0.3l-0.2-0.2c-0.1,0,0.3,0.5,0.2,0.5
							c-0.1-0.2-0.3-0.2-0.3-0.4c0,0-0.1,0,0,0.1c-0.1-0.1,0.1,0.2,0,0.1c0.1,0.1,0.2,0.2,0.2,0.2c0,0-0.1-0.1-0.1-0.1
							c0.1,0.1,0.1,0.1,0.2,0.3c-0.5-0.4-0.1,0.2-0.5-0.1c0,0.1,0,0.2,0,0.2c0,0-0.1-0.1,0-0.1c-0.2-0.1,0.4,0.4,0.2,0.3
							c-0.3-0.2-0.1-0.2-0.2-0.2c-0.5-0.5,0,0.1-0.3-0.1l0,0c-0.2-0.1,0.1,0.2,0,0.3c0,0,0,0-0.1-0.1C15,14,15,14.1,15,14.2
							c-0.2-0.2-0.1-0.1-0.3-0.3c0,0,0.3,0.3,0.3,0.4c-0.1-0.1-0.2-0.1-0.4-0.3l0,0c-0.3-0.2,0,0.1-0.1,0l-0.1-0.1
							c0,0.1,0.3,0.4,0.2,0.4l0.1,0.1c0.2,0.3-0.2-0.1,0,0.1l-0.3-0.3c0,0.1,0.2,0.3,0.2,0.4c-0.2-0.2-0.2-0.4-0.3-0.5
							c0,0-0.1,0.1,0.1,0.2c0,0-0.1-0.1,0-0.1c0.2,0.2,0.3,0.4,0.2,0.4c-0.5-0.5-0.2,0-0.7-0.4c0.1,0.3-0.2,0.1-0.3,0.2
							c0.5,0.4,0,0,0.4,0.5c0,0,0,0,0,0l-0.3-0.2c-0.1-0.1-0.1-0.1-0.2-0.2c-0.1,0-0.2-0.2-0.3-0.2c0.2,0.1,0.2,0.2,0.1,0.2l0.2,0.2
							c0.2,0.3-0.4-0.3-0.3,0l-0.1-0.2c0,0.1-0.1,0.1,0.2,0.5c-0.1,0-0.2-0.2-0.2-0.2c-0.1,0,0.2,0.5-0.1,0.4L13,15.1
							c0,0,0.2,0.2,0,0.1c0,0-0.1-0.1-0.1-0.1c0,0,0.1,0.2,0.1,0.2l-0.1-0.1c-0.2-0.1,0.2,0.4,0.2,0.5c-0.3-0.3-0.5-0.4-0.6-0.4l0,0
							c-0.1,0,0.1,0.4,0.1,0.6c-0.4-0.3-0.3,0-0.6-0.1c0.1,0,0.2,0.2,0.3,0.3c-0.1,0,0.2,0.3-0.1,0l0,0c-0.3-0.3-0.3-0.2-0.3-0.1
							l0.4,0.4c-0.6-0.5,0,0.4-0.5,0c0.1,0.1,0,0.1,0.1,0.2l-0.2-0.2c-0.1,0-0.2,0-0.2,0.1l-0.1-0.2c0,0,0.5,0.6,0.5,0.7l-0.3-0.3
							c-0.1,0.1-0.4-0.1-0.2,0.2c0,0-0.1-0.1-0.1-0.2c0,0-0.3-0.1,0.1,0.3c-0.3-0.3-0.1,0,0,0.2L11.1,17c0.2,0.3,0.3,0.4,0.3,0.5
							c0,0-0.2-0.1-0.1-0.1c-0.1-0.1,0.2,0.2,0,0.1l-0.1-0.1c0,0,0,0.1,0.1,0.2c0.1,0.1-0.1,0-0.3-0.2c0.1,0.1,0.2,0.3,0.2,0.2
							c-0.1-0.1-0.1-0.1-0.1-0.1c-0.2-0.1,0.1,0.3-0.1,0.2c-0.1-0.1-0.1-0.1-0.1-0.1c0,0,0.1-0.1,0.1,0c-0.2-0.2-0.2-0.2-0.5-0.5
							c0.1,0.2,0.4,0.5,0.2,0.5c0,0,0,0-0.1-0.1l0,0c0,0,0,0,0,0.1c0,0-0.1,0-0.1,0c-0.2-0.1-0.1,0-0.1,0c0.2,0.2,0.1,0.2,0.3,0.3
							c0,0,0,0,0,0c0,0,0,0,0,0c0,0,0,0,0,0c0,0,0,0,0-0.1c0.1,0.1,0.2,0.2,0,0.1c0.1,0.1,0.2,0.3,0.3,0.3c-0.3-0.3-0.5-0.4-0.7-0.5
							c0.1,0.2-0.1,0.2,0.3,0.6c0,0.1-0.1-0.1-0.2-0.1c0,0,0-0.1-0.1-0.1c0.1,0.1-0.1,0.1,0.2,0.4c-0.2-0.1-0.2-0.3-0.2-0.2
							l-0.1-0.1c-0.5-0.3,0.5,0.8-0.2,0.4c0,0,0.1,0,0.1,0.1c-0.4-0.1-0.1,0.5-0.6,0.3c-0.1,0,0,0.1,0.2,0.3L9.7,19l0.2,0.3
							c0.1,0.2-0.6-0.4-0.3,0l0.2,0.1c-0.1,0,0,0.2-0.2,0c0,0,0.1,0.2,0.1,0.1l-0.1-0.1l0.1,0.3c-0.1,0-0.4-0.5-0.5-0.4
							c0,0.1,0.3,0.4,0.3,0.5c0,0,0.1,0,0.2,0.2l0,0.1c0.3,0.3,0.6,0.7,0.9,0.9l-0.2-0.2l0.2,0.1l0,0c0.2,0.1,0,0,0-0.1
							c0.1,0.1,0.2,0.1,0.2,0.2l-0.3-0.4c0.1,0.1,0.2,0.3,0.3,0.3c-0.1-0.2-0.3-0.3-0.4-0.4c0.2,0.1,0.3,0.3,0.2,0.1
							c0.1,0.1,0.1,0.1,0.2,0.2c-0.1-0.1,0-0.1-0.2-0.3c0.2,0.2,0-0.1,0.3,0.2c-0.1-0.1-0.2-0.3-0.2-0.3c0.3,0.4,0.1,0,0.5,0.4
							c-0.3-0.4-0.1-0.2-0.2-0.5c0,0,0.1,0.1,0.1,0.1c0.1,0,0.2,0.1,0.2,0.1c-0.3-0.3-0.3-0.4-0.4-0.6c0.3,0.2,0.3,0.3,0.6,0.6
							c-0.2-0.2-0.2-0.3-0.4-0.5c0.2,0.1,0.1,0.1,0.3,0.3c-0.3-0.4,0-0.1-0.2-0.3c0.2,0.1,0.3,0.3,0.3,0.2
							C11.6,20.1,11.7,20.3,11.7,20.3z M12,18.8C12,18.8,12,18.8,12,18.8C12,18.8,12,18.8,12,18.8C12,18.8,12,18.8,12,18.8z
							 M12.1,18.7C12.1,18.7,12,18.7,12.1,18.7c-0.1,0-0.2-0.1-0.2-0.1C11.9,18.6,12,18.7,12.1,18.7z M10.5,17.5
							C10.5,17.4,10.6,17.5,10.5,17.5C10.6,17.5,10.6,17.5,10.5,17.5c0.1,0.1,0.1,0.1,0.1,0.1C10.6,17.5,10.6,17.5,10.5,17.5z"/>
						<path class="st0" d="M10.8,17.8C10.8,17.8,10.8,17.8,10.8,17.8C10.8,17.8,10.8,17.8,10.8,17.8C10.8,17.8,10.8,17.8,10.8,17.8
							C10.8,17.8,10.8,17.8,10.8,17.8z"/>
						<path class="st0" d="M17.9,11.2L17.9,11.2C17.9,11.2,17.9,11.2,17.9,11.2C17.9,11.2,17.9,11.2,17.9,11.2z"/>
						<polygon class="st0" points="13.5,18 13.4,18 13.5,18 						"/>
						<path class="st0" d="M19,11.5C19,11.5,19,11.5,19,11.5C19.1,11.5,19,11.5,19,11.5z"/>
						<path class="st0" d="M19.2,11.4L19.2,11.4C19.3,11.4,19.3,11.4,19.2,11.4z"/>
						<path class="st0" d="M19.5,11.3C19.4,11.3,19.4,11.2,19.5,11.3C19.4,11.2,19.4,11.2,19.5,11.3L19.5,11.3z"/>
						<path class="st0" d="M17.5,13.7C17.5,13.7,17.5,13.7,17.5,13.7C17.5,13.8,17.5,13.8,17.5,13.7z"/>
						<path class="st0" d="M17.7,12.6c0,0,0.1,0.1,0.1,0.1C17.8,12.7,17.8,12.7,17.7,12.6z"/>
						<polygon class="st0" points="17,14.7 17,14.7 17,14.7 						"/>
						<path class="st0" d="M17.7,12.8C17.8,12.8,17.8,12.8,17.7,12.8C17.7,12.7,17.7,12.7,17.7,12.8z"/>
						<path class="st0" d="M20.2,10.8L20.2,10.8C20.2,10.8,20.1,10.8,20.2,10.8L20.2,10.8z"/>
						<path class="st0" d="M20.1,10.8L20.1,10.8C20.1,10.7,20.1,10.7,20.1,10.8z"/>
						<path class="st0" d="M20.1,10.7L20.1,10.7C20.1,10.7,20.1,10.7,20.1,10.7z"/>
						<path class="st0" d="M19.9,10.9L19.9,10.9C19.9,11,19.9,10.9,19.9,10.9z"/>
						<path class="st0" d="M19.8,11c0,0,0.2,0.1,0.2,0.1L20,11C20.1,11.1,19.7,10.8,19.8,11z"/>
						<path class="st0" d="M18.7,10.3l0.1,0c-0.1-0.1-0.2-0.2-0.2-0.2C18.3,10,18.8,10.3,18.7,10.3z"/>
						<path class="st0" d="M18.5,10.3c0-0.1-0.1-0.1-0.2-0.2C18.4,10.3,18.4,10.3,18.5,10.3z"/>
						<path class="st0" d="M17.4,11.4l-0.2-0.2C17.3,11.2,17.3,11.3,17.4,11.4z"/>
						<polygon class="st0" points="18.2,12.5 18.3,12.6 18.1,12.4 						"/>
						<polygon class="st0" points="16.8,11.4 16.7,11.3 16.8,11.4 						"/>
						<path class="st0" d="M15.1,13.2l0.2,0.2C15.3,13.3,15,13.1,15.1,13.2z"/>
						<path class="st0" d="M14.5,14.1c-0.1-0.1-0.2-0.2-0.1,0C14.5,14.1,14.6,14.2,14.5,14.1z"/>
						<polygon class="st0" points="11.9,16.1 11.9,16 11.9,16.1 						"/>
					</g>
				</g>
			</g>
		</g>
	</g>
	<g>
		<g>
			<g>
				<g>
					<g>
						<path class="st0" d="M10.2,9.5C10.1,9.6,10,9.7,10,9.7L10.2,9.5L10.2,9.5z"/>
						<path class="st0" d="M9.9,10.1c0.1-0.1,0.3-0.3,0.6-0.5c-0.2,0.2-0.2,0.1-0.4,0.4c0,0,0-0.1,0.1-0.2c-0.1,0.1,0-0.1-0.1,0.1
							C9.8,10,9.9,10,10,9.9C10,10,9.9,10,9.9,10.1z"/>
						<path class="st0" d="M10.9,11.9L10.9,11.9C10.9,11.8,10.9,11.8,10.9,11.9z"/>
						<path class="st0" d="M11.7,12.9C11.7,12.9,11.6,12.9,11.7,12.9C11.6,12.9,11.6,12.9,11.7,12.9z"/>
						<path class="st0" d="M11.6,13.3C11.6,13.3,11.6,13.2,11.6,13.3C11.5,13.3,11.5,13.3,11.6,13.3z"/>
						<path class="st0" d="M10.9,11.9L10.9,11.9C10.9,11.9,10.9,11.9,10.9,11.9z"/>
						<path class="st0" d="M10.6,9.7C10.6,9.7,10.6,9.7,10.6,9.7C10.6,9.7,10.6,9.7,10.6,9.7C10.6,9.7,10.6,9.7,10.6,9.7z"/>
						<path class="st0" d="M10.3,11.7L10.3,11.7c0,0-0.1,0-0.1,0.1L10.3,11.7z"/>
						<path class="st0" d="M10,11.4c0,0,0.2-0.2,0.3-0.3c-0.1,0.1-0.1,0.1-0.2,0.1C10.1,11.3,10.1,11.3,10,11.4z"/>
						<path class="st0" d="M9.9,10.6L9.9,10.6C9.9,10.6,9.9,10.6,9.9,10.6z"/>
						<path class="st0" d="M10.5,11.9C10.5,11.9,10.5,12,10.5,11.9C10.5,12,10.5,11.9,10.5,11.9z"/>
						<path class="st0" d="M20.3,18.7C20.3,18.7,20.3,18.7,20.3,18.7C20.3,18.7,20.3,18.7,20.3,18.7z"/>
						<path class="st0" d="M19.7,20L19.7,20c-0.1,0-0.1,0.1-0.1,0.1L19.7,20z"/>
						<path class="st0" d="M11.6,13.8C11.6,13.8,11.6,13.8,11.6,13.8C11.6,13.8,11.6,13.8,11.6,13.8z"/>
						<path class="st0" d="M14.2,16.2c0.1-0.2,0.3-0.2,0.4-0.4C14.6,15.8,14.3,16,14.2,16.2z"/>
						<path class="st0" d="M10.6,9.7C10.6,9.7,10.6,9.7,10.6,9.7C10.6,9.7,10.6,9.7,10.6,9.7z"/>
						<path class="st0" d="M14.7,15.7C14.7,15.7,14.7,15.7,14.7,15.7L14.7,15.7C14.7,15.7,14.7,15.7,14.7,15.7z"/>
						<path class="st0" d="M12.3,14.3C12.4,14.3,12.4,14.2,12.3,14.3C12.4,14.2,12.4,14.3,12.3,14.3z"/>
						<path class="st0" d="M12.1,13.6L12.1,13.6C12.1,13.6,12.1,13.6,12.1,13.6z"/>
						<path class="st0" d="M12.9,14.3C12.8,14.3,12.8,14.3,12.9,14.3C12.9,14.3,12.9,14.3,12.9,14.3C12.8,14.3,12.8,14.3,12.9,14.3z
							"/>
						<path class="st0" d="M13.1,14.5C13.1,14.5,13.1,14.5,13.1,14.5C13.1,14.5,13.1,14.5,13.1,14.5L13.1,14.5z"/>
						<path class="st0" d="M19.4,18c-0.1,0.1-0.1,0.1-0.2,0.2C19.4,18.1,19.5,18.1,19.4,18z"/>
						<path class="st0" d="M10.5,9.8C10.6,9.8,10.6,9.7,10.5,9.8C10.6,9.7,10.6,9.7,10.5,9.8C10.6,9.8,10.5,9.8,10.5,9.8z"/>
						<path class="st0" d="M14.4,12.7L14.4,12.7C14.5,12.8,14.4,12.7,14.4,12.7z"/>
						<path class="st0" d="M17.6,16.2L17.6,16.2C17.6,16.2,17.6,16.2,17.6,16.2z"/>
						<path class="st0" d="M14.6,12.9c-0.1,0.1-0.1,0.1-0.1,0.2c0,0,0,0,0.1,0L14.6,12.9z"/>
						<path class="st0" d="M19.3,18.2C19.3,18.2,19.3,18.2,19.3,18.2C19.3,18.2,19.3,18.2,19.3,18.2z"/>
						<path class="st0" d="M20,18c0,0-0.3,0.2-0.4,0.4c-0.1,0,0.2-0.2,0.3-0.4c-0.1,0-0.4,0.3-0.4,0.2c0,0,0.1-0.1,0.1-0.1
							c-0.2,0.2-0.1-0.1-0.4,0.1c0,0,0,0,0.1-0.1c-0.1,0.1-0.3,0.3-0.4,0.4c0,0-0.2,0.1,0,0c0,0,0.1-0.1,0.1-0.1l-0.1,0.1
							c0.2-0.3,0.1-0.1,0.3-0.2c-0.1,0-0.4,0.2-0.3,0.1c0.2-0.2,0.1,0,0.3-0.3l0,0.1c0.3-0.4,0,0.1,0.4-0.4c0-0.1-0.2,0.1-0.2-0.1
							c-0.1,0.1-0.2,0.2-0.3,0.3c-0.3,0.2,0.5-0.7,0.2-0.4c-0.2,0.1-0.5,0.4-0.4,0.2l0.3-0.3c0-0.1-0.4,0.4-0.3,0.1
							c0.1-0.1,0.1,0,0.2-0.1c0.2-0.3-0.2,0.1-0.2,0.1l0.2-0.2c-0.1,0-0.3,0.1-0.4,0.1c0.1-0.1,0.2-0.1,0.2-0.2
							c-0.2,0-0.1-0.2-0.1-0.4l-0.2,0.2c0,0,0.1-0.1,0.1-0.1c0-0.1-0.1,0.1-0.2,0.2c0,0,0.1-0.1,0.2-0.2c-0.2,0.1-0.5,0.2-0.4,0
							l0.1-0.1c0-0.1-0.5,0.4-0.3,0.1l0,0c0-0.2-0.3-0.1-0.1-0.5c-0.3,0.3,0-0.2-0.4,0.2c0.2-0.3,0.2-0.3,0.3-0.5
							c0,0-0.3,0.2-0.4,0.2l0.2-0.2l-0.3,0.2l0.2-0.3l-0.1,0c0,0-0.1,0.1-0.1,0.2c-0.1,0.1,0.1-0.2,0.2-0.4l-0.3,0.1
							c0.1-0.1,0.1-0.1,0.2-0.1c-0.3,0.2,0.2-0.2,0-0.1c0,0.1-0.1,0.1-0.2,0.2c0.1-0.2,0.1-0.2,0-0.2l0.2-0.1c0-0.1-0.2-0.1-0.3-0.1
							c0,0.1-0.3,0.4-0.4,0.4l0.2-0.2c-0.2,0.1-0.1,0.1-0.3,0.3c0-0.1,0.2-0.3,0.3-0.3l-0.1,0c0.1-0.1,0.1-0.1,0.2-0.2
							c-0.2,0.1,0.2-0.3-0.1-0.1l0.1-0.1c-0.1-0.1-0.2,0-0.3-0.1c-0.2,0.2-0.2,0.1-0.4,0.3c0-0.1,0.1-0.3,0.1-0.3
							c-0.1,0.1-0.2,0.2-0.3,0.3c0.2-0.2,0.1-0.2,0.3-0.3c-0.1,0-0.1,0-0.3,0c-0.1,0.1-0.1,0.1-0.2,0.2c0,0,0-0.1,0.1-0.2l0,0
							c-0.4,0.2,0.3-0.7-0.1-0.4l0,0l-0.3,0.1c0-0.1,0.2-0.1,0.2-0.3c-0.4,0.2-0.1-0.2-0.3,0c0.5-0.6-0.2-0.1,0.1-0.5l-0.1,0.1
							c-0.1,0.1,0.1-0.1,0.1-0.1c-0.1,0.1-0.1,0.1-0.2,0.2c-0.3,0-0.1-0.5-0.2-0.8c0-0.1-0.7,0.6-0.5,0.2l0.3-0.2
							c-0.4,0.2-0.2-0.2-0.6-0.1c0.1,0,0.1-0.1,0.1-0.1c0.1-0.2-0.1-0.1-0.2,0c0,0,0.1-0.1,0.2-0.2c0.1-0.1-0.3,0.2-0.1,0
							c0,0,0.1,0,0.1-0.1c-0.1,0.1,0-0.1-0.2,0.1c0.1-0.1-0.2,0-0.1-0.1c-0.2,0.2,0-0.2-0.3,0.1c0.3-0.3,0.2-0.3,0-0.2
							c0.1-0.1,0.1-0.1,0.2-0.2c0,0-0.1,0-0.3,0.2c0.3-0.4-0.4,0.2,0-0.3c-0.3,0.1-0.5,0.1-0.6,0.1c0.3-0.3,0.1,0.1,0.5-0.3
							c-0.2,0.1-0.5,0.3-0.5,0.1c0-0.1,0.1-0.1,0.2-0.2c-0.2,0.1-0.1-0.2-0.4-0.1c0,0,0.1-0.1,0.1-0.1c0,0,0-0.1-0.1,0.1l0.1,0
							c-0.2,0.2-0.5,0.4-0.6,0.5c0.4-0.4,0-0.2,0.6-0.7c0,0-0.1,0.1-0.2,0.2c0,0,0.1-0.1,0.2-0.2c-0.1,0-0.3,0.2-0.3,0.2
							c0.1-0.1,0.1-0.1,0.2-0.2c-0.2,0.1-0.3,0.2-0.3,0.1c0,0,0.1-0.1,0.1-0.1c-0.1,0-0.5,0.3-0.4,0.1c0.3-0.3,0.1-0.1,0.3-0.4
							l-0.1,0L12.8,12c0,0-0.2,0.1-0.2,0l0.1-0.1l-0.1,0L12.5,12c-0.2,0.1-0.3,0.3-0.3,0.2c0,0,0,0,0.1-0.2c0,0,0,0,0,0
							c-0.1,0.1-0.2,0.1-0.2,0.1c0.1-0.1,0.3-0.3,0.3-0.3c-0.2,0.2-0.1,0-0.4,0.2c0.1,0,0.2-0.2,0.2-0.2l-0.2,0.2
							c0-0.1,0.1-0.1,0.2-0.2c0-0.1-0.3,0.3-0.2,0.2c0,0,0,0,0.1-0.1c0-0.1-0.2,0-0.2-0.1c0.3-0.3,0.1,0,0.3-0.3
							c-0.1,0-0.5,0.2-0.5,0l0,0c-0.4,0.4,0.1-0.2-0.1-0.1c0,0,0.2-0.2,0.2-0.2c0-0.1-0.2,0-0.4,0l0.1-0.1c0.1-0.1,0-0.1,0-0.2
							c-0.1,0.1-0.1,0.1-0.2,0.2c0.5-0.6-0.5,0.1-0.1-0.4c0,0,0.1-0.1,0.1-0.1l-0.2,0c-0.2,0.2-0.1,0.1-0.2,0.2
							c-0.1,0.1-0.2,0.1-0.2,0.1c0.1-0.1,0.3-0.3,0.3-0.4c0,0.1-0.1,0.1-0.2,0.2c0.3-0.3-0.3,0.3-0.2,0.1l0.1-0.1
							c-0.1,0-0.2,0.1-0.2,0.1c0.2-0.2,0.1-0.1,0.3-0.2c0,0-0.4,0.3-0.3,0.1c0.1,0,0.1,0,0.1-0.1c0.2-0.2,0.1-0.2,0.1-0.3l0,0
							l0.1-0.1l0,0.1c-0.5,0.5-0.2,0-0.5,0.3c0.4-0.3,0.2-0.2,0.4-0.4c0-0.1,0.1-0.2,0.2-0.2c-0.2,0.2,0.1-0.2-0.2,0
							c0.1-0.1,0,0,0.2-0.2c-0.1,0-0.1,0.1-0.2,0.2c-0.3,0.2,0.2-0.4-0.2-0.1c-0.2,0.1-0.4,0.3-0.6,0.4c0.1-0.1,0.3-0.2,0.3-0.2
							c0.1-0.1,0-0.1-0.1-0.1c0.1-0.1,0.1-0.1,0.2-0.2c0,0-0.3,0.2-0.2,0.1c0.1-0.1,0.2-0.2,0.3-0.3c-0.1,0-0.2,0.1-0.3,0.2
							c0.1-0.1,0.2-0.2,0.3-0.2c-0.1,0-0.2,0-0.4,0.2l0,0.1c0,0,0.2-0.2,0.2-0.2c0.2-0.1,0,0.1-0.1,0.2l-0.1,0
							c-0.4,0.4,0.1,0,0.2,0.1L10,10.3l0.3-0.2c-0.1,0.1-0.2,0.3-0.3,0.3c-0.1,0.2,0.1-0.1,0,0.1c0,0,0,0-0.1,0.1l0.1-0.1
							c-0.1,0.1-0.2,0.2-0.2,0.2c-0.1,0.2,0.3-0.1,0.1,0.1l0,0c0.2,0,0.2-0.2,0.5-0.4l-0.5,0.6l0.2-0.2c0,0,0,0-0.1,0.1
							c0.2-0.1,0.1-0.1,0.2-0.2c-0.2,0.2,0.2,0-0.2,0.3c0.2-0.2,0.1-0.2,0.2-0.2c-0.4,0.4,0.1,0,0,0.2c-0.2,0.2-0.1,0.1-0.3,0.3
							c0.3-0.3,0,0.1,0.1,0.1c0.3-0.3,0.2-0.1,0.3-0.1c-0.1,0.1-0.1,0.2-0.1,0.4l0,0c0.3-0.3,0.3-0.2,0.3-0.2
							c-0.2,0.2-0.2,0.2-0.3,0.3l0,0c0.1-0.1,0.1-0.1,0.2-0.1l-0.2,0.2c0,0,0.3-0.2,0.2,0c0.2-0.2,0.5-0.5,0.6-0.6
							c-0.1,0.1-0.3,0.3-0.3,0.3c0,0,0.1-0.1,0.1,0l-0.2,0.1c-0.1,0.1,0.1-0.1,0.2-0.1c-0.1,0.1-0.1,0.1-0.2,0.2c0,0,0-0.1,0,0
							c0,0-0.1,0.2-0.2,0.3c0.1-0.1,0.2-0.2,0.2-0.2c0,0-0.2,0.2-0.2,0.3c0.1-0.1,0,0,0.2-0.2c0,0-0.1,0.1-0.1,0.2
							c0.1-0.1,0.1,0.1,0.3-0.2l0,0c0,0,0,0,0,0c0,0,0,0,0,0l0,0c0.3-0.1,0,0.2,0.2,0.2l-0.1,0.1c0.1,0,0.1,0,0.3-0.1
							c0,0-0.1,0.2-0.2,0.2c0.1,0,0.2-0.1,0.1,0.1c-0.1,0.1-0.1,0.1-0.1,0.1c0,0.1-0.1,0.2,0.1,0.1c-0.2,0.2-0.2,0.3-0.1,0.2
							l0.1-0.2c0,0,0,0,0,0.1L11,12.7c-0.2,0.4,0.6-0.4,0.2,0.2c0.2-0.1,0.1-0.2,0.3-0.3c0,0.1-0.3,0.4-0.3,0.5
							c-0.1,0.2,0.4-0.3,0.3-0.2c0.1-0.1,0.3-0.3,0.4-0.4c0,0.1-0.3,0.4-0.4,0.4c0,0,0,0,0-0.1c0,0-0.1,0-0.2,0.1l0.1-0.1
							c-0.1,0.1,0,0.1-0.2,0.3c0.1-0.1,0.1-0.1,0.2-0.2c-0.1,0.2,0.1,0.1,0,0.2c0-0.1,0.1-0.2,0.1-0.2c0,0.2,0.2-0.1,0.3-0.1
							c-0.1,0.2-0.3,0.3-0.2,0.2c-0.1,0.1-0.2,0.2-0.3,0.3c0.2-0.1,0,0.2,0,0.2l-0.1,0c0.1,0,0.1,0,0.1,0l0.2-0.2c0,0,0,0.1-0.1,0.1
							c0.1-0.1,0.3-0.3,0.4-0.4c-0.1,0.1,0.1,0-0.1,0.2c0-0.1-0.2,0.2-0.3,0.2c0,0,0,0,0,0c0,0,0,0-0.1,0.1
							c-0.1,0.2,0.3-0.2,0.3-0.2c-0.1,0.1-0.2,0.3-0.2,0.2c0,0,0.2-0.2,0.3-0.3c-0.1,0.1,0.1,0,0.1,0l0-0.1c0.1-0.1,0.1-0.1,0.2-0.1
							c-0.1,0.1-0.1,0-0.1,0.1c0.2-0.2-0.2,0.3,0,0.2C12.2,13.8,12,13.9,12,14c0.2-0.1-0.1,0.2,0,0.1c0.2-0.2,0.1-0.1,0.3-0.3
							l-0.2,0l0.3-0.2c0,0-0.2,0.1-0.1,0c0.2-0.1,0.1-0.1,0.2-0.2c-0.2,0.3,0.2-0.1,0.1,0.1L12.2,14c-0.1,0.2,0.3-0.1,0.3,0l0.1-0.1
							c0.2-0.2,0.1,0,0.2,0c-0.1,0.1-0.2,0.2-0.3,0.3c0.1-0.1,0,0.1,0.3-0.2l-0.2,0.2c0,0.1,0.5-0.3,0.5-0.2
							c-0.2,0.1-0.2,0.3-0.4,0.3c0,0,0,0.1,0.1,0c-0.1,0.1,0.2-0.1,0.1,0c0.1-0.1,0.2-0.2,0.2-0.2c0,0-0.1,0.1-0.1,0.1
							c0.1-0.1,0.1-0.1,0.3-0.2c-0.4,0.5,0.2,0.1-0.1,0.5c0.1,0,0.2,0,0.2,0c0,0-0.1,0.1-0.1,0c-0.1,0.2,0.4-0.4,0.3-0.2
							c-0.2,0.3-0.2,0.1-0.2,0.2c-0.5,0.5,0.1,0-0.1,0.3l0,0c-0.1,0.2,0.2-0.1,0.3,0c0,0,0,0-0.1,0.1c0.3-0.2,0.4-0.2,0.5-0.2
							c-0.2,0.2-0.1,0.1-0.3,0.3c0,0,0.3-0.3,0.4-0.3c-0.1,0.1-0.1,0.2-0.3,0.4l0,0c-0.2,0.3,0.1,0,0,0.1l-0.1,0.1
							c0.1,0,0.4-0.3,0.4-0.2l0.1-0.1c0.3-0.2-0.1,0.2,0.1,0l-0.3,0.3c0.1,0,0.3-0.2,0.4-0.2c-0.2,0.2-0.4,0.2-0.5,0.3
							c0,0,0.1,0.1,0.2-0.1c0,0-0.1,0.1-0.1,0c0.2-0.2,0.4-0.3,0.4-0.2c-0.5,0.5,0,0.2-0.4,0.7c0.3-0.1,0.1,0.2,0.2,0.3
							c0.4-0.5,0,0,0.5-0.4c0,0,0,0,0,0l-0.2,0.3c-0.1,0.1-0.1,0.1-0.2,0.2c0,0.1-0.2,0.2-0.2,0.3c0.1-0.2,0.2-0.2,0.2-0.1l0.2-0.2
							c0.3-0.2-0.3,0.4,0,0.3l-0.2,0.1c0.1,0,0.1,0.1,0.5-0.2c0,0.1-0.2,0.2-0.2,0.2c0,0.1,0.5-0.2,0.4,0.1l-0.1,0.1
							c0,0,0.2-0.2,0.1,0c0,0-0.1,0.1-0.1,0.1c0,0,0.2-0.1,0.2-0.1l-0.1,0.1c-0.1,0.2,0.4-0.2,0.5-0.2C15.1,17,15,17.2,15,17.2l0,0
							c0,0.1,0.4-0.1,0.6-0.1c-0.3,0.4,0,0.3-0.1,0.6c0-0.1,0.2-0.2,0.3-0.3c0,0.1,0.3-0.2,0,0.1l0,0c-0.3,0.3-0.2,0.3-0.1,0.3
							l0.4-0.4c-0.5,0.6,0.4,0,0,0.5c0.1-0.1,0.1,0,0.2-0.1L16,18.1c0,0.1,0,0.2,0.1,0.2L16,18.4c0,0,0.6-0.5,0.7-0.5l-0.3,0.3
							c0.1,0.1-0.1,0.4,0.2,0.2c0,0-0.1,0.1-0.2,0.1c0,0-0.1,0.3,0.3-0.1c-0.3,0.3,0,0.1,0.2,0l-0.2,0.2c0.3-0.2,0.4-0.3,0.5-0.3
							c0,0-0.1,0.2-0.1,0.1c-0.1,0.1,0.2-0.2,0.1,0l-0.1,0.1c0,0,0.1,0,0.2-0.1c0.1-0.1,0,0.1-0.2,0.3c0.1-0.1,0.3-0.2,0.2-0.2
							c-0.1,0.1-0.1,0.1-0.1,0.1c-0.1,0.2,0.3-0.1,0.2,0.1c-0.1,0.1-0.1,0.1-0.1,0.1c0,0-0.1-0.1,0-0.1c-0.2,0.2-0.2,0.2-0.5,0.5
							c0.2-0.1,0.5-0.4,0.5-0.2c0,0,0,0-0.1,0.1l0,0c0,0,0,0,0.1,0c0,0,0,0.1,0,0.1c-0.1,0.2,0,0.1,0,0.1c0.2-0.2,0.2-0.1,0.3-0.3
							c0,0,0,0,0,0c0,0,0,0,0,0c0,0,0,0,0,0c0,0,0,0-0.1,0c0.1-0.1,0.2-0.2,0.1,0c0.1-0.1,0.3-0.2,0.3-0.3c-0.3,0.3-0.4,0.5-0.5,0.7
							c0.2-0.1,0.2,0.1,0.6-0.3c0.1,0-0.1,0.1-0.1,0.2c0,0-0.1,0-0.1,0.1c0.1-0.1,0.1,0.1,0.4-0.2c-0.1,0.2-0.3,0.2-0.2,0.2
							l-0.1,0.1c-0.3,0.5,0.8-0.5,0.4,0.2c0,0,0-0.1,0.1-0.1c-0.1,0.4,0.5,0.1,0.3,0.6c0,0.1,0.1,0,0.3-0.2L18.7,20l0.3-0.2
							c0.2-0.1-0.4,0.6,0,0.3l0.1-0.2c0,0.1,0.2,0,0,0.2c0,0,0.2-0.1,0.1-0.1l-0.1,0.1l0.3-0.1c0,0.1-0.5,0.4-0.4,0.5
							c0.1,0,0.4-0.3,0.5-0.3c0,0,0-0.1,0.2-0.2l0.1,0c0.3-0.3,0.7-0.6,0.9-0.9l-0.2,0.2l0.1-0.2l0,0c0.1-0.2,0,0-0.1,0
							c0.1-0.1,0.1-0.2,0.2-0.2l-0.4,0.3c0.1-0.1,0.3-0.2,0.3-0.3c-0.2,0.1-0.3,0.3-0.4,0.4c0.1-0.2,0.3-0.3,0.1-0.2
							c0.1-0.1,0.1-0.1,0.2-0.2c-0.1,0.1-0.1,0-0.3,0.2c0.2-0.2-0.1,0,0.2-0.3c-0.1,0.1-0.3,0.2-0.3,0.2c0.4-0.3,0-0.1,0.4-0.5
							c-0.4,0.3-0.2,0.1-0.5,0.2c0,0,0.1-0.1,0.1-0.1c0-0.1,0.1-0.2,0.1-0.2c-0.3,0.3-0.4,0.3-0.6,0.4c0.2-0.3,0.3-0.3,0.6-0.6
							c-0.2,0.2-0.3,0.2-0.5,0.4c0.1-0.2,0.1-0.1,0.3-0.3c-0.4,0.3-0.1,0-0.3,0.2c0.1-0.2,0.3-0.3,0.2-0.3C19.8,18.1,20,18,20,18z
							 M18.5,17.7C18.5,17.7,18.5,17.7,18.5,17.7C18.5,17.7,18.5,17.7,18.5,17.7C18.5,17.7,18.5,17.7,18.5,17.7z M18.4,17.6
							C18.4,17.7,18.4,17.7,18.4,17.6c0,0.1-0.1,0.2-0.1,0.2C18.4,17.8,18.4,17.7,18.4,17.6z M17.2,19.2
							C17.2,19.2,17.2,19.2,17.2,19.2C17.2,19.1,17.3,19.1,17.2,19.2c0.1-0.1,0.1-0.1,0.1-0.1C17.3,19.1,17.2,19.2,17.2,19.2z"/>
						<path class="st0" d="M17.5,18.9C17.5,18.9,17.5,18.9,17.5,18.9C17.5,18.9,17.5,18.9,17.5,18.9C17.5,18.9,17.5,18.9,17.5,18.9
							C17.5,18.9,17.5,18.9,17.5,18.9z"/>
						<path class="st0" d="M10.9,11.8L10.9,11.8C10.9,11.8,11,11.8,10.9,11.8C11,11.8,10.9,11.8,10.9,11.8z"/>
						<polygon class="st0" points="17.8,16.2 17.7,16.3 17.8,16.2 						"/>
						<path class="st0" d="M11.2,10.7C11.2,10.7,11.2,10.7,11.2,10.7C11.2,10.7,11.2,10.7,11.2,10.7z"/>
						<path class="st0" d="M11.1,10.5L11.1,10.5C11.1,10.4,11.1,10.5,11.1,10.5z"/>
						<path class="st0" d="M11,10.3C11,10.3,11,10.3,11,10.3C10.9,10.3,10.9,10.3,11,10.3L11,10.3z"/>
						<path class="st0" d="M13.5,12.2C13.5,12.2,13.5,12.2,13.5,12.2C13.5,12.2,13.5,12.2,13.5,12.2z"/>
						<path class="st0" d="M12.3,12c0,0,0.1-0.1,0.1-0.1C12.5,11.9,12.5,11.9,12.3,12z"/>
						<polygon class="st0" points="14.4,12.7 14.4,12.7 14.4,12.7 						"/>
						<path class="st0" d="M12.5,12C12.5,11.9,12.5,11.9,12.5,12C12.5,12,12.4,12,12.5,12z"/>
						<path class="st0" d="M10.5,9.6L10.5,9.6C10.5,9.6,10.5,9.6,10.5,9.6L10.5,9.6z"/>
						<path class="st0" d="M10.5,9.6L10.5,9.6C10.5,9.6,10.5,9.6,10.5,9.6z"/>
						<path class="st0" d="M10.4,9.6L10.4,9.6C10.5,9.6,10.5,9.6,10.4,9.6z"/>
						<path class="st0" d="M10.6,9.8L10.6,9.8C10.7,9.8,10.7,9.8,10.6,9.8z"/>
						<path class="st0" d="M10.7,9.9c0,0,0.1-0.2,0.1-0.2l-0.1,0.1C10.8,9.7,10.6,10,10.7,9.9z"/>
						<path class="st0" d="M10,11l0-0.1C10,11,9.9,11.1,9.8,11.1C9.7,11.4,10,10.9,10,11z"/>
						<path class="st0" d="M10.1,11.3c-0.1,0-0.1,0.1-0.2,0.2C10,11.4,10,11.3,10.1,11.3z"/>
						<path class="st0" d="M11.1,12.3l-0.2,0.2C11,12.5,11,12.4,11.1,12.3z"/>
						<polygon class="st0" points="12.2,11.6 12.3,11.4 12.2,11.6 						"/>
						<polygon class="st0" points="11.1,13 11,13 11.1,12.9 						"/>
						<path class="st0" d="M12.9,14.7l0.2-0.2C13.1,14.5,12.8,14.7,12.9,14.7z"/>
						<path class="st0" d="M13.9,15.2c-0.1,0.1-0.2,0.2,0,0.1C13.8,15.3,13.9,15.2,13.9,15.2z"/>
						<polygon class="st0" points="15.8,17.8 15.7,17.9 15.8,17.8 						"/>
					</g>
				</g>
			</g>
		</g>
	</g>
</g>
</svg>
