<svg viewBox="0 0 30 30" xmlns="http://www.w3.org/2000/svg"><g fill="#fff"><path d="m27.5 15c.1 0 .3 0 .2-.1l-.3-.1z"/><path d="m28 14.2c-.2-.1-.5-.3-.8-.2.3.1.2.2.6.3 0 .1-.1.2-.2.2.1 0-.1.2.1.2.2-.2.2-.4 0-.6.2 0 .3.1.3.1z"/><path d="m15.7 1c0-.1-.1 0 0 0z"/><path d="m14.3.6c.1 0 .1 0 0 0z"/><path d="m22.8 3.7-.1-.2c-.1.1 0 .1.1.2z"/><path d="m27.1 12.7s.1.1.1.1c-.1 0-.1-.1-.1-.1z"/><path d="m25.4 5.8h.2z"/><path d="m27 7.9s-.3.1-.4.1h.2c.1 0 .2 0 .2-.1z"/><path d="m28.1 11.9c0 .1 0 .1 0 0z"/><path d="m24.2 4.4c0-.1 0 0 0 0z"/><path d="m26.5 17.6s.1 0 0 0z"/><path d="m28.2 15h.2z"/><path d="m.5 18.1c.2-.3.4.3.6-.1-.1 0-.5-.3-.6.1z"/><path d="m6.5 2.9c0 .1.1.1.1.1s0-.1-.1-.1z"/><path d="m10.5 1.4h-.1z"/><path d="m5 4.6c-.1 0-.1 0-.1.1 0 0 0 0 .1-.1-.1.1-.1 0 0 0z"/><path d="m3.5 6.3.1-.1z"/><path d="m24 22.9c.1 0 .2.1.3.1-.2-.1 0-.4-.3-.1z"/><path d="m27.2 12.7c-.1 0-.1 0-.1 0v.1c.1-.1.1-.1.1-.1z"/><path d="m6.5 6.3-.3.2c.1-.1.2-.1.3-.2z"/><path d="m11.3 26.8c.1 0 .1 0 0 0z"/><path d="m5.6 7.2c-.1 0-.2 0-.3 0v.1z"/><path d="m24.9 20.9c-.2.2.2.3.4.5-.1.4-.3 0-.5 0 0 .2.2.6 0 .7-.1 0-.1 0-.1-.1.1.4-.4.6-.3 1h-.1c.2.1.3.2.4.3-.1.1 0 .3-.2.2.1-.1 0-.1 0-.2v.2c-.3-.1 0-.2-.2-.4-.1.3-.1.7-.3.8-.3-.2.3-.5-.2-.4l.3-.2c-.6-.2.2-.1-.4-.3-.4.2-.2.5-.6.7.1.2.2.2.3.4-.2.7-.9-.3-1 .3.1.2.3.6-.1.6l-.1-.4c-.3.2.1.6-.4.6 0-.2.2-.3.1-.3-.4-.1 0 .3-.2.4l-.2-.3c-.3.3-.6.8-1 1 0-.1 0-.2-.1-.3-.2.2-.5.3-.9.4-.3.1-.7.1-1 .1l-.1.4c-.1 0-.1-.1-.1-.2-.3-.1 0 .2 0 .3-.1.1-.2-.1-.2-.2-.3.3-1 .8-1.5.6l.1-.1c-.3-.1-.3.7-.6.4l.1-.1c-.7-.1-1.6.2-2.1-.3-.1.4-.7-.2-.8.3-.4-.4-.2-.4-.8-.7-.1 0-.3.3-.5.3l.1-.3-.3.2v-.4h-.2c.1 0 .1.2.1.3-.3.1-.6-.4-.6-.5h-.7c.1-.1.2-.1.3-.2-.4.2.1-.3-.3-.2 0 .1-.1.2-.1.2-.3.2-.7 0-.9-.1l.1-.2c-.4-.2-.9-.4-1.4-.7.1.2-.1.5-.3.4l.1-.3c-.2.1.1.2-.2.3-.2-.2.1-.4.2-.4h-.2c0-.1.1-.1.2-.2-.2.1-.1-.5-.5-.3v-.1c-.4-.3-.7-.4-1-.7-.2.2-.3 0-.5.1-.2-.3-.2-.7-.5-1-.3-.1-.2.1-.4.1.2-.2-.1-.5.2-.4-.3-.4-.4-.4-.9-.9-.1.1-.1.2-.1.2-.1-.1 0-.3.1-.3-.3-.2-.4-.6-.4-1.1 0-.4 0-.8-.4-.9l-.5-.4c0-.3.2.1.3-.2-.6-.4-.2-.9-.6-1.3.3-.3.3-.6.2-.9s-.2-.7 0-1h-.2c-.2-.1.1-.2.1-.3-.1 0-.2.2-.3.1-.3-1.1.3-2.4.7-3.4.1-.4-.8-.5-.3-.9l.3.2c-.1-.5.1-.9.3-1.3.2-.2.4-.6.5-1 0 .1.1.1 0 .2.3 0 .3-.5.2-.7.1-.1.2.1.3.1.2-.1 0-.6.2-.5v.1c0-.2.3-.4.1-.5.3-.2.3-.6.6-.7-.1-.3.5-.2.2-.6.3.3.6-.2.6-.4 0 .1.2 0 .3.2.2-.2.3-.4.1-.5.6.1.4-.9 1-.5.2-.3.4-.6.6-.8.3-.2.5-.5.7-.7.2.4-.6.4-.3.8.4-.5.6-.9 1.1-1.1.2 0 0 .2 0 .3.5-.4 1.1-.4 1.5-.8 0 0 0 .1-.1.1.1 0 .2 0 .2-.2l-.1.1c-.2-.2.2-.7.2-.9 0 .6.6 0 .4.8.2.1.2 0 .2-.2.1 0 .2.1.1.3.3-.2.2-.4.5-.4 0 .1 0 .1-.1.3.1-.2.3-.4.6-.4 0 .1 0 .1-.1.1.5-.1.8-.6 1.4-.4-.1.4.2.1.2.5.1 0 .2-.1.3-.1l-.1-.2c.3 0 .5-.2.7-.1l-.2.1h.5l-.3-.2c.3-.2 0-.5.3-.4-.1 0 .3 0 .4.3.2-.1.3-.2.5-.1 0 .1-.1.4-.1.5.2-.3.6 0 .8-.3-.1.1-.1.3-.1.3l.2-.2c.1.1.1.2.1.3.3.1 0-.5.4-.2 0 0 0 .1-.1.1.4.2.9 0 1.2.3 0 .4-.4 0-.3.3.5.1 1.3 0 1.7.3l-.1-.1c.3-.4.3.4.6.3-.1 0-.2.2-.2.2.3.3.7.3 1.3.5l-.1.1c0 .2.4.4.5.6.1-.1.2 0 .3-.2.1.5.4.7.7.8s.7.3.7.8c-.1-.1-.2-.1-.2 0l.5.3c.1-.2.1-.1.1-.4.2 0 .3 0 .4.1-.3-.1-.3.2-.3.4 0-.1.1-.1.2-.1-.1.5.4-.2.4.3l-.1.1c.1.1.4.1.4.3-.2.2-.2-.1-.4.1.1.2.7.1.6.4-.1 0-.2-.2-.3-.2-.1.4-.1.3 0 .5l.1.4v-.1c.7-.1.4.4 1 .6-.6-.3-.3-.1-.6 0 0 .1-.1.3-.1.3.3.1 0 .3.4.4-.1.1.1.2-.2.2.2.2.1-.1.3-.1.5.2-.1.9.5 1.3.3.4.6.4.9.8-.1.2-.4 0-.4 0-.1.3 0 .4.1.6-.1 0-.2 0-.3.1.1.2.4.1.3.3-.1 0-.3 0-.4-.1.1.2.3.3.4.5-.2.1-.3-.1-.4-.1.1.2.3.6.5.6l.1-.2c0 .1-.2.1-.3 0-.2-.2 0-.3.1-.3l.1.1c.5-.2-.2-.6-.2-.9l.4.1-.4-.3c.1-.1.3-.2.4 0 .2-.3-.2-.2 0-.4h.1l-.2-.2c.1 0 .3-.1.3 0 .1-.5-.5-.5-.2-.8-.3-.5-.3 0-.8-.2l.6-.5-.3.1c0-.1 0-.2.1-.2-.3-.1-.1.1-.3 0 .2-.4-.4-.6 0-.9-.3 0 0 .3-.3.1.4-.3-.2-.3-.1-.6.3-.1.3.2.4-.1-.5.1-.1-.5-.3-.6-.3.2-.4-.3-.7-.6.1-.1-.2-.7-.3-1h.1c-.3.2-.5-.2-.7-.3.2-.2.3-.2.5-.2l-.2-.2c-.1 0-.2 0-.4-.1l.2-.1c-.2-.2-.7-.3-.8-.7-.2.2-.3.7-.7.6.1-.1.2-.3.4-.3 0 0-.2 0-.2-.1l.3-.1c-.1-.2-.2.1-.3 0 .1-.1 0-.2.1-.3 0 0 0 .1.1.1-.1-.1-.2-.4-.1-.5-.1.1-.2.2-.3.1-.2-.2.1-.3 0-.5-.1 0-.2-.2-.4 0-.1-.1 0-.2 0-.3-.2 0-.6-.4-.7-.1-.6-.1-.8-.7-1.4-.9v-.1c-.3-.1-.7-.3-1-.2-.1 0-.1-.3 0-.3-.3 0-.3 0-.6-.2.3-.1 0-.2.3 0-.3-.2-.3-.4-.7-.2.2-.2-.1-.4-.3-.4l.2.2c-.2 0-.3-.1-.4-.2l.2-.3c-.6-.6-1.3.3-1.7-.4-.2.2.3.2.1.5-.3-.1-.5-.6-.6-.6-.4-.2-.5.4-.9.2 0 .1.1.4-.3.5-.3-.1-.3-.5-.1-.6.1 0 .1 0 .1.1.1 0 .2-.1.1-.2v.1c-.1-.1-.6-.1-.5-.3-.2.1-.1.2.1.3-.4-.2-.6-.1-1-.1.1.1.1.2.1.2-.6-.1-.3.2-.6.3-.2-.2.1-.4-.3-.3-.3-.1-.1-.3 0-.4-.4.2-.7-.1-.9-.1l.2-.1c-.1.1-.2.1-.3.1l.1.2c-.1 0-.2 0-.2-.1-.1.2.2.4 0 .6-.3.2-.5.5-.6.2.5 0-.1-.3.3-.4-.1 0-.2.1-.3 0v-.1c-.5-.2-.1.4-.6.5 0-.2-.2-.3-.3-.2.2 0 .2.3 0 .4-.3-.1-.3.2-.4.2h.2c0 .2-.2.2-.3.3-.1-.1.1-.2.1-.2-.2.5-.7 0-.9.3-.2-.1-.2-.3-.3-.4-.3.4-.5 0-.8.3.2.2.2.1 0 .4l.5-.4-.1.5c.1-.1.2-.3.4-.3-.1.2-.1.2 0 .3-.3-.2-.3.4-.7.3l-.3-.5c-.5 0-.5.7-1.1.8h.2c0 .3-.3.2-.4.4-.1-.2-.2-.2-.4-.2.1.1-.4.3-.2.6l-.3-.1c-.5.3-.1.8-.5 1.1 0-.3-.3-.2-.2-.5-.1 0-.2.1-.1.2-.2 0-.1.5-.4.4 0 .1.1.3 0 .4 0 0-.1-.1-.1-.1.1.1 0 .3.2.4-.7-.1-.8.9-1.5 1-.1.2-.3.6-.4.8 0 0-.1-.1 0-.1-.4.3.3.5-.1.8-.4.1 0-.3-.2-.2-.6-.3-.3.5-.7.6v-.1c-.3.1 0 .7-.3 1 0 0 0 0-.1 0 .2.4.1.9.1 1.3-.2-.2-.1-.2-.3-.2 0 .2.4.1.4.4-.2.1-.4.2-.6.2 0-.1.1-.2.1-.3-.4 0-.1.4-.2.5l-.3-.1c-.1.5.3.6.1 1.1h.1c.3.4-.3.2 0 .5h-.4c.1.2.3.7.3 1.1-.3-.2-.4-.6-.5-.9 0 .2-.1.7.1.8 0-.1-.1-.2 0-.3.3.3.4.6.4.9-.8-.1-.3 1-.8 1.2.2.3.1.7.1 1v1.1c.5-.4.1.2.6.1.1.2.1.2 0 .3l-.2.6c-.1.2-.2-.1-.3-.1.1.4-.2.2-.3.5.2-.1.3.1.3.3l.4-.2c.4.5-.3.6.2 1.1l-.2-.1c.2.2.4 1.1 1 1.1 0 .1-.2.2-.3.1.2.7 1.2 1.1 1.2 1.8h-.2c.1.1.3 0 .3.3-.1 0-.2 0-.1.1.1 0 .4.1.5.3h-.2c.3.7 1 .6 1.4.9-.3.3-.1.8.1 1h-.1c.6.6 1.3.7 2 .9.1.7 1.2 1 1.7 1.6-.1-.1.1-.2.2-.2.1.2.6-.1.4.3h-.1c0 .4.3.5.6.6l.2-.5c.2.5.7.6 1.1.6s.8 0 1 .4c.2-.1.4 0 .6-.1l-.1.3c.5.1.7.2 1.3.2l-.1.2c.4 0 .5-.8.8-.8l.1.4c.6 0 1.2.4 1.8-.1 0 .1 0 .2-.1.2.3 0 1.1.2.9-.4.1.4.6-.1.9-.3v.3c.2-.4.2-.5.5-.7.1 0 .1.2 0 .2.3.1.2-.3.5-.3l-.1.2c.3-.1.3-.1.3-.4.1-.2.5-.1.7.1 0-.2.1-.4.3-.4.1.1 0 .2 0 .2.6 0 .5-.6 1-.5 0 .1.1.1.1.1-.4.2-.7.3-.6.3.1.2.4.1.3.6.2-.3.4-.9.7-.9 0 0 .1 0 .1.1.1 0 .1-.1.2-.1s.2 0 .3-.1c.1.2.4-.1.5-.2-.2-.2 0-.3-.2-.4 0 0 0 0-.1.1v.1c-.1.1-.2.1-.3.2 0-.2.1-.4.3-.3 0-.2 0-.4 0-.5.4.2.9.2 1.1.3.3-.4.9-.8.8-1.4.1-.1.2 0 .3 0 0 .1-.1.2-.1.2.1-.3.6-.6.4-.9.4-.1.1.4.4 0v.1c.5-.1.6-.6.7-1 .1-.5.2-.9.8-1.1-.1 0-.1 0-.2 0 1-.8 1-2.2 1.8-3.1.2-.3 0-.4-.1-.6h.3l-.3-.3c-.1-.5 1-.6.6-1.4h-.2c.1-.2 0-.7.2-.6 0 0-.2-.1-.1-.2h.2c-.1-.2-.1-.4-.2-.6.1-.4.6.1.7-.5 0-.2-.4-.7-.5-.6 0 .1-.1.2-.3.2l-.2-.1c-.5 0-.9-.2-1.3.3l.3.3-.2.1v-.3c-.2.1 0 .2.1.4-.1 0-.2.1-.3.1l.4.4c-.2 0-.3-.2-.5 0 .2.2.4-.1.5.2-.2.1-.4.1-.2.3-.1 0-.2 0-.2-.1.1.2 0 .4.2.5-.3.1 0 .5-.5.4.1.1.3.3.2.5-.4-.4-.2.5-.7.3.4.3 0 .7.1 1.1 0 0-.1-.1-.1-.1-.1.2-.3.2-.4.3.4.2.3.5.4.7-.4.1-.4-.3-.7-.4.3.1.1.5.4.6-.3.1-.2.1-.5 0 .4.3 0 .2.2.5-.4.1-.4-.2-.5.2 0-.1 0-.4 0-.4zm-4.4 5.3s.1-.1.1-.1c0 .1 0 .1-.1.1zm-.5.3c.1 0 .2-.1.2-.1.1.1.1.2 0 .2.1-.1-.1-.1-.2-.1zm2.1 1.1c-.1.1-.1.1-.2 0 0 0 .1-.1.1-.1.1 0 .1.1.1.1z"/><path d="m22.1 27.2c0-.1-.1-.1 0 0z"/><path d="m12 26.8v.1z"/><path d="m25.5 8.1v.2c0-.1 0-.2 0-.2z"/><path d="m25.9 9.1h.1z"/><path d="m11.1 3.2c-.1.1 0 .1 0 0z"/><path d="m16.2 2.1c-.1 0-.1.1-.2.1.1 0 .2.1.2-.1z"/><path d="m15.8 2.2c.1.1.2.1.2 0 0 0-.1 0-.2 0z"/><path d="m27.2 13.7c.1 0 .1 0 0 0z"/><path d="m27.3 13.9-.1-.1c.1 0 .1.1.1.1z"/><path d="m27.1 12.2h-.1z"/><path d="m26.9 11.8c0 .1-.1.3 0 .4h.1c-.2 0 .1-.3-.1-.4z"/><path d="m27.5 9.6c0 .1 0 .3.1.4.1-.1.2-.2.3-.1.1-.6-.2.2-.4-.3z"/><path d="m27.1 8.3c.1.2.1-.1.2-.1-.2 0-.2 0-.2.1z"/><path d="m20.4 2.2.2-.2c-.2-.1-.1 0-.2.2z"/><path d="m18.4 2.8c0 .1.1.1.1.2l.1-.2s-.1 0-.2 0z"/><path d="m17.9.8h.1-.3z"/><path d="m3.5 5.8.3.2c.1-.1-.2-.4-.3-.2z"/><path d="m.9 12c-.2 0-.3.2-.2.4.1-.2.2-.3.2-.4z"/><path d="m9.7 28.7-.2.1h.3z"/><path d="m20.2 10.5c-.1-.1-.2-.2-.2-.2z"/><path d="m19.6 10.1c.1.1.3.3.5.6-.2-.2-.1-.2-.4-.4 0 0 .1 0 .2.1-.1-.1.1 0-.1-.1-.2-.2-.2-.1-.1 0 0 0 0-.1-.1-.2z"/><path d="m16.9 11.9c-.1 0-.1 0 0 0z"/><path d="m17.9 11.2c-.1 0-.1 0 0 0z"/><path d="m20 10.9c0-.1 0 0 0 0z"/><path d="m18.1 10.6s0-.1-.1-.1z"/><path d="m18.3 10.3s.2.2.3.3c-.1-.1-.1-.1-.1-.2-.1 0-.1-.1-.2-.1z"/><path d="m19.1 10.2c0-.1 0 0 0 0z"/><path d="m17.8 10.8c0-.1 0 0 0 0z"/><path d="m9.7 19.9c0-.1-.1-.1-.1-.1z"/><path d="m15.9 11.9c0-.1 0-.1 0 0z"/><path d="m13.6 14.5c.2.1.2.3.4.4-.1 0-.3-.3-.4-.4z"/><path d="m14 14.9c0 .1 0 .1 0 0z"/><path d="m15.4 12.6c.1 0 .1.1 0 0 .1.1.1 0 0 0z"/><path d="m15.5 13.1c-.1 0-.1 0 0 0z"/><path d="m11.7 19.7c-.1-.1-.1-.1-.2-.2.1.2.2.3.2.2z"/><path d="m19.9 10.8c.1 0 .1.1 0 0 .1.1.1.1 0 0z"/><path d="m16.9 14.9c-.1-.1-.1-.1-.2-.1v.1z"/><path d="m11.7 20.3s-.2-.3-.4-.4c0-.1.2.2.4.3 0-.1-.3-.4-.2-.4 0 0 .1.1.1.1-.2-.2.1-.1-.1-.4 0 0 0 0 .1.1-.1-.1-.3-.3-.4-.4 0 0-.1-.2 0 0 0 0 .1.1.1.1l-.1-.1c.3.2.1.1.2.3 0-.1-.2-.4-.1-.3.2.2 0 .1.3.3h-.1c.4.3-.1 0 .4.4.1 0-.1-.2.1-.2-.1-.1-.2-.2-.3-.3-.2-.3.7.5.4.2-.1-.2-.4-.5-.2-.4l.3.3c.1 0-.4-.4-.1-.3.1.1 0 .1.1.2.3.2-.1-.2-.1-.2l.2.2c0-.1-.1-.3-.1-.4.1.1.1.2.2.2 0-.2.2-.1.4-.1l-.2-.2s.1.1.1.1c.1 0-.1-.1-.2-.2 0 0 .1.1.2.2-.1-.2-.2-.5 0-.4l.1.1c.1 0-.4-.5-.1-.3.2 0 .1-.3.5-.1-.3-.3.2 0-.2-.4.3.2.3.2.5.3 0 0-.2-.3-.2-.4l.2.2-.2-.3.3.2v-.1s-.1-.1-.2-.1c-.1-.1.2.1.4.2l-.1-.3c.1.1.1.1.1.2-.2-.3.2.2.1 0-.1 0-.1-.1-.2-.2.2.1.2.1.2 0l.1.2c.1 0 .1-.2.1-.3-.1 0-.4-.3-.4-.4l.2.2c-.1-.2-.1-.1-.3-.3.1 0 .3.2.3.3v-.1c.1.1.1.1.2.2-.1-.2.3.2.1-.1l.1.1c.1-.1 0-.2.1-.3-.2-.2-.1-.2-.3-.4.1 0 .3.1.3.1-.1-.1-.2-.2-.3-.3.2.2.2.1.3.3 0-.1 0-.1 0-.3-.1-.1-.1-.1-.2-.2 0 0 .1 0 .2.1-.2-.4.7.3.4-.1l-.1-.3c.1 0 .1.2.3.2-.2-.4.2-.1 0-.3.6.5.1-.2.5.1-.1-.1.1.1.1.1-.1-.1-.1-.1-.2-.2 0-.3.5-.1.8-.2.1 0-.6-.7-.2-.5l.2.3c-.2-.4.2-.2.1-.6 0 .1.1.1.1.1.2.1.1-.1 0-.2 0 0 .1.1.2.2s-.2-.3 0-.1c0 0 0 .1.1.1-.1-.1.1 0-.1-.2.1.1 0-.2.1-.1-.2-.2.2 0-.1-.3.3.3.3.2.2 0 .1.1.1.1.2.2 0 0 0-.1-.2-.3.4.3-.2-.4.3 0 0-.1-.1-.3-.1-.4.3.3-.1.1.3.5-.1-.2-.3-.5-.1-.5.1 0 .1.1.2.2-.1-.2.2-.1.1-.4 0 0 .1.1.1.1s.1 0-.1-.1v.1c-.2-.2-.4-.5-.5-.6.4.4.2 0 .7.6 0 0-.1-.1-.2-.2 0 0 .1.1.2.2 0-.1-.2-.3-.2-.3.1.1.1.1.2.2-.1-.2-.2-.3-.1-.3 0 0 .1.1.1.1 0-.1-.3-.5-.1-.4.3.3.1.1.4.3v-.1l-.2-.3s-.1-.2 0-.2l.1.1v-.1l-.1-.1c-.1-.2-.3-.3-.2-.3 0 0 0 0 .2.1-.1-.1-.1-.2-.1-.2.1.1.3.3.3.3-.2-.2 0-.1-.2-.4 0 .1.2.2.2.2l-.2-.2c.1 0 .1.1.2.2.1 0-.3-.3-.2-.2 0 0 0 0 .1.1.1 0 0-.2.1-.2.3.3 0 .1.3.3 0-.1-.2-.5 0-.5-.4-.4.2.1.1-.1 0 0 .2.2.2.2.1 0 0-.2 0-.4l.1.1c.1.1.1 0 .2 0-.1-.1-.1-.1-.2-.2.6.5-.1-.5.4-.1 0 0 .1.1.1.1v-.2c-.2-.2-.1-.1-.2-.2s-.1-.2-.1-.2c.1.1.3.3.4.3-.1 0-.1-.1-.2-.2.3.3-.3-.3-.1-.2l.1.1c0-.1-.1-.2-.1-.2.2.2.1.1.2.3 0 0-.3-.4-.1-.3 0 .1 0 .1.1.1.2.2.2.1.3.1l.1.1h-.1c-.5-.5 0-.2-.3-.5.3.4.2.2.4.4.1 0 .2.1.2.2-.2-.2.2.1 0-.2.1.1 0 0 .2.2 0-.1-.1-.1-.2-.2-.2-.3.4.2.1-.2-.1-.2-.3-.4-.4-.6.1.1.2.3.2.3.1.1.1 0 .1-.1.1.1.1.1.2.2 0 0-.2-.3-.1-.2s.2.2.3.3c0-.1-.1-.2-.2-.3.1.1.2.2.2.3 0-.1 0-.2-.2-.4h-.1s.2.2.2.2c.1.2-.1 0-.2-.1v-.1c-.4-.4 0 .1-.1.2l-.3-.3.2.3c-.1-.1-.3-.2-.3-.3-.2-.1.1.1-.1 0 0 0 0 0-.1-.1l.1.1c-.1-.1-.2-.2-.2-.2-.2-.1.1.3-.1.1 0 .2.2.2.4.5l-.6-.5.2.2s0 0-.1-.1c.1.2.1.1.2.2-.2-.2 0 .2-.3-.2.2.2.2.1.2.2-.4-.4 0 .1-.2 0-.2-.2-.1-.1-.3-.3.3.3-.1 0-.1.1.3.3.1.2.1.3-.1-.1-.2-.1-.4-.1.3.3.2.3.2.3-.2-.2-.2-.2-.3-.3.1.1.1.1.1.2l-.1.1s.2.3 0 .2c.2.2.5.5.6.6-.1-.1-.3-.3-.3-.3s.1.1 0 .1l-.1-.2c-.1-.1.1.1.1.2-.2-.2-.1-.1-.3-.2 0 0 .1 0 0 0 0 0-.2-.1-.3-.2.2.1.3.2.3.2s-.2-.2-.3-.2c.1.1 0 0 .2.2 0 0-.1-.1-.2-.1.1.1-.1.1.2.3.1.3-.2 0-.2.2l-.1-.1c0 .1 0 .1.1.3 0 0-.2-.1-.2-.2 0 .1.1.2-.1.1-.1-.1-.1-.1-.1-.1-.1 0-.2-.1-.1.1-.2-.2-.3-.2-.2-.1l.2.1s0 0-.1 0l-.1-.2c-.4-.2.4.6-.2.2.1.2.2.1.3.3-.1 0-.4-.3-.5-.3-.2-.1.3.4.2.3.1.1.3.3.4.4-.1 0-.4-.3-.4-.4h.1s0-.1-.1-.2l.1.1c-.1-.1-.1 0-.3-.2.1.1.1.1.2.2-.2-.1-.1.1-.2 0 .1 0 .2.1.2.1-.2 0 .1.2.1.3-.2-.1-.3-.3-.2-.2-.1-.1-.2-.2-.3-.3.1.2-.2 0-.2 0v-.1.1l.2.2s-.1 0-.1-.1c.1.1.3.3.4.4-.1-.1 0 .1-.2-.1.1 0-.2-.2-.2-.3s0 0-.1-.1c-.2-.1.2.3.2.3-.4.1-.6.1-.5.1 0 0 .2.2.3.3-.1-.1 0 .1 0 .1h.1c.1.1.1.1.1.2-.1-.1 0-.1-.1-.1.2.2-.3-.2-.2 0-.1-.1-.2-.2-.3-.3.1.2-.2-.1-.1 0 .2.2.1.1.3.3v-.2l.2.3s-.1-.2 0-.1c.1.2.1.1.2.2-.3-.2.1.2-.1.1l-.4-.4c-.2-.1.1.3 0 .3l.1.1c.2.2 0 .1 0 .2-.1-.1-.2-.2-.3-.3.1.1-.1 0 .2.3l-.2-.2c-.1 0 .3.5.2.5-.1-.2-.3-.2-.3-.4 0 0-.1 0 0 .1-.1-.1.1.2 0 .1.1.1.2.2.2.2s-.1-.1-.1-.1c.1.1.1.1.2.3-.5-.4-.1.2-.5-.1v.2s-.1-.1 0-.1c-.2-.1.4.4.2.3-.3-.2-.1-.2-.2-.2-.5-.5 0 .1-.3-.1-.2-.1.1.2 0 .3 0 0 0 0-.1-.1v.5c-.2-.2-.1-.1-.3-.3 0 0 .3.3.3.4-.1-.1-.2-.1-.4-.3-.3-.2 0 .1-.1 0l-.1-.1c0 .1.3.4.2.4l.1.1c.2.3-.2-.1 0 .1l-.3-.3c0 .1.2.3.2.4-.2-.2-.2-.4-.3-.5 0 0-.1.1.1.2 0 0-.1-.1 0-.1.2.2.3.4.2.4-.5-.5-.2 0-.7-.4.1.3-.2.1-.3.2.5.4 0 0 .4.5l-.3-.2c-.1-.1-.1-.1-.2-.2-.1 0-.2-.2-.3-.2.2.1.2.2.1.2l.2.2c.2.3-.4-.3-.3 0l-.1-.2c0 .1-.1.1.2.5-.1 0-.2-.2-.2-.2-.1 0 .2.5-.1.4v-.1s.2.2 0 .1c0 0-.1-.1-.1-.1s.1.2.1.2l-.1-.1c-.2-.1.2.4.2.5-.3-.3-.5-.4-.6-.4-.1 0 .1.4.1.6-.4-.3-.3 0-.6-.1.1 0 .2.2.3.3-.1 0 .2.3-.1 0-.3-.3-.3-.2-.3-.1l.4.4c-.6-.5 0 .4-.5 0 .1.1 0 .1.1.2l-.2-.2c-.1 0-.2 0-.2.1l-.1-.2s.5.6.5.7l-.3-.3c-.1.1-.4-.1-.2.2 0 0-.1-.1-.1-.2 0 0-.3-.1.1.3-.3-.3-.1 0 0 .2l-.3-.2c.2.3.3.4.3.5 0 0-.2-.1-.1-.1-.1-.1.2.2 0 .1l-.1-.1s0 .1.1.2-.1 0-.3-.2c.1.1.2.3.2.2-.1-.1-.1-.1-.1-.1-.2-.1.1.3-.1.2-.1-.1-.1-.1-.1-.1s.1-.1.1 0c-.2-.2-.2-.2-.5-.5.1.2.4.5.2.5 0 0 0 0-.1-.1v.1h-.1c-.2-.1-.1 0-.1 0 .2.2.1.2.3.3s0 0 0-.1c.1.1.2.2 0 .1.1.1.2.3.3.3-.3-.3-.5-.4-.7-.5.1.2-.1.2.3.6 0 .1-.1-.1-.2-.1 0 0 0-.1-.1-.1.1.1-.1.1.2.4-.2-.1-.2-.3-.2-.2l-.1-.1c-.5-.3.5.8-.2.4 0 0 .1 0 .1.1-.4-.1-.1.5-.6.3-.1 0 0 .1.2.3v-.3l.2.3c.1.2-.6-.4-.3 0l.2.1c-.1 0 0 .2-.2 0 0 0 .1.2.1.1l-.1-.1.1.3c-.1 0-.4-.5-.5-.4 0 .1.3.4.3.5 0 0 .1 0 .2.2v.1c.3.3.6.7.9.9l-.2-.2.2.1c.2.1 0 0 0-.1.1.1.2.1.2.2l-.3-.4c.1.1.2.3.3.3-.1-.2-.3-.3-.4-.4.2.1.3.3.2.1l.2.2c-.1-.1 0-.1-.2-.3.2.2 0-.1.3.2-.1-.1-.2-.3-.2-.3.3.4.1 0 .5.4-.3-.4-.1-.2-.2-.5 0 0 .1.1.1.1.1 0 .2.1.2.1-.3-.3-.3-.4-.4-.6.3.2.3.3.6.6-.2-.2-.2-.3-.4-.5.2.1.1.1.3.3-.3-.4 0-.1-.2-.3.2.1.3.3.3.2.1-.1.2.1.2.1zm.4-1.6c-.1 0-.2-.1-.2-.1s.1.1.2.1zm-1.6-1.2c0-.1.1 0 0 0 .1 0 .1 0 0 0 .1.1.1.1.1.1 0-.1 0-.1-.1-.1z"/><path d="m13.5 18h-.1z"/><path d="m19.2 11.4c.1 0 .1 0 0 0z"/><path d="m19.5 11.3c-.1 0-.1-.1 0 0-.1-.1-.1-.1 0 0z"/><path d="m17.5 13.7c0 .1 0 .1 0 0z"/><path d="m17.7 12.6s.1.1.1.1 0 0-.1-.1z"/><path d="m17.7 12.8c.1 0 .1 0 0 0 0-.1 0-.1 0 0z"/><path d="m20.1 10.8c0-.1 0-.1 0 0z"/><path d="m19.8 11s.2.1.2.1v-.1c.1.1-.3-.2-.2 0z"/><path d="m18.7 10.3h.1c-.1-.1-.2-.2-.2-.2-.3-.1.2.2.1.2z"/><path d="m18.5 10.3c0-.1-.1-.1-.2-.2.1.2.1.2.2.2z"/><path d="m17.4 11.4-.2-.2c.1 0 .1.1.2.2z"/><path d="m18.2 12.5.1.1-.2-.2z"/><path d="m16.8 11.4-.1-.1z"/><path d="m15.1 13.2.2.2c0-.1-.3-.3-.2-.2z"/><path d="m14.5 14.1c-.1-.1-.2-.2-.1 0 .1 0 .2.1.1 0z"/><path d="m11.9 16.1v-.1z"/><path d="m10.2 9.5c-.1.1-.2.2-.2.2z"/><path d="m9.9 10.1c.1-.1.3-.3.6-.5-.2.2-.2.1-.4.4 0 0 0-.1.1-.2-.1.1 0-.1-.1.1-.3.1-.2.1-.1 0 0 .1-.1.1-.1.2z"/><path d="m10.9 11.9c0-.1 0-.1 0 0z"/><path d="m11.7 12.9c-.1 0-.1 0 0 0z"/><path d="m11.6 13.3c-.1 0-.1 0 0 0z"/><path d="m10.3 11.7s-.1 0-.1.1z"/><path d="m10 11.4s.2-.2.3-.3c-.1.1-.1.1-.2.1 0 .1 0 .1-.1.2z"/><path d="m10.5 11.9s0 .1 0 0z"/><path d="m19.7 20c-.1 0-.1.1-.1.1z"/><path d="m14.2 16.2c.1-.2.3-.2.4-.4 0 0-.3.2-.4.4z"/><path d="m12.3 14.3c.1 0 .1-.1 0 0 .1-.1.1 0 0 0z"/><path d="m12.9 14.3c-.1 0-.1 0 0 0z"/><path d="m19.4 18c-.1.1-.1.1-.2.2.2-.1.3-.1.2-.2z"/><path d="m10.5 9.8c.1 0 .1-.1 0 0 .1-.1.1-.1 0 0z"/><path d="m14.4 12.7c.1.1 0 0 0 0z"/><path d="m14.6 12.9c-.1.1-.1.1-.1.2h.1z"/><path d="m20 18s-.3.2-.4.4c-.1 0 .2-.2.3-.4-.1 0-.4.3-.4.2 0 0 .1-.1.1-.1-.2.2-.1-.1-.4.1 0 0 0 0 .1-.1-.1.1-.3.3-.4.4 0 0-.2.1 0 0 0 0 .1-.1.1-.1l-.1.1c.2-.3.1-.1.3-.2-.1 0-.4.2-.3.1.2-.2.1 0 .3-.3v.1c.3-.4 0 .1.4-.4 0-.1-.2.1-.2-.1-.1.1-.2.2-.3.3-.3.2.5-.7.2-.4-.2.1-.5.4-.4.2l.3-.3c0-.1-.4.4-.3.1.1-.1.1 0 .2-.1.2-.3-.2.1-.2.1l.2-.2c-.1 0-.3.1-.4.1.1-.1.2-.1.2-.2-.2 0-.1-.2-.1-.4l-.2.2s.1-.1.1-.1c0-.1-.1.1-.2.2 0 0 .1-.1.2-.2-.2.1-.5.2-.4 0l.1-.1c0-.1-.5.4-.3.1 0-.2-.3-.1-.1-.5-.3.3 0-.2-.4.2.2-.3.2-.3.3-.5 0 0-.3.2-.4.2l.2-.2-.3.2.2-.3h-.1s-.1.1-.1.2c-.1.1.1-.2.2-.4l-.3.1c.1-.1.1-.1.2-.1-.3.2.2-.2 0-.1 0 .1-.1.1-.2.2.1-.2.1-.2 0-.2l.2-.1c0-.1-.2-.1-.3-.1 0 .1-.3.4-.4.4l.2-.2c-.2.1-.1.1-.3.3 0-.1.2-.3.3-.3h-.1c.1-.1.1-.1.2-.2-.2.1.2-.3-.1-.1l.1-.1c-.1-.1-.2 0-.3-.1-.2.2-.2.1-.4.3 0-.1.1-.3.1-.3-.1.1-.2.2-.3.3.2-.2.1-.2.3-.3-.1 0-.1 0-.3 0-.1.1-.1.1-.2.2 0 0 0-.1.1-.2-.4.2.3-.7-.1-.4l-.3.1c0-.1.2-.1.2-.3-.4.2-.1-.2-.3 0 .5-.6-.2-.1.1-.5l-.1.1c-.1.1.1-.1.1-.1-.1.1-.1.1-.2.2-.3 0-.1-.5-.2-.8 0-.1-.7.6-.5.2l.3-.2c-.4.2-.2-.2-.6-.1.1 0 .1-.1.1-.1.1-.2-.1-.1-.2 0 0 0 .1-.1.2-.2s-.3.2-.1 0c0 0 .1 0 .1-.1-.1.1 0-.1-.2.1.1-.1-.2 0-.1-.1-.2.2 0-.2-.3.1.3-.3.2-.3 0-.2.1-.1.1-.1.2-.2 0 0-.1 0-.3.2.3-.4-.4.2 0-.3-.3.1-.5.1-.6.1.3-.3.1.1.5-.3-.2.1-.5.3-.5.1 0-.1.1-.1.2-.2-.2.1-.1-.2-.4-.1 0 0 .1-.1.1-.1s0-.1-.1.1h.1c-.2.2-.5.4-.6.5.4-.4 0-.2.6-.7 0 0-.1.1-.2.2 0 0 .1-.1.2-.2-.1 0-.3.2-.3.2.1-.1.1-.1.2-.2-.2.1-.3.2-.3.1 0 0 .1-.1.1-.1-.1 0-.5.3-.4.1.3-.3.1-.1.3-.4h-.1l.1.2s-.2.1-.2 0l.1-.1h-.1l-.1.1c-.2.1-.3.3-.3.2 0 0 0 0 .1-.2-.1.1-.2.1-.2.1.1-.1.3-.3.3-.3-.2.2-.1 0-.4.2.1 0 .2-.2.2-.2l-.2.2c0-.1.1-.1.2-.2 0-.1-.3.3-.2.2 0 0 0 0 .1-.1 0-.1-.2 0-.2-.1.3-.3.1 0 .3-.3-.1 0-.5.2-.5 0-.4.4.1-.2-.1-.1 0 0 .2-.2.2-.2 0-.1-.2 0-.4 0l.1-.1c.1-.1 0-.1 0-.2-.1.1-.1.1-.2.2.5-.6-.5.1-.1-.4 0 0 .1-.1.1-.1h-.2c-.2.2-.1.1-.2.2s-.2.1-.2.1c.1-.1.3-.3.3-.4 0 .1-.1.1-.2.2.3-.3-.3.3-.2.1l.1-.1c-.1 0-.2.1-.2.1.2-.2.1-.1.3-.2 0 0-.4.3-.3.1.1 0 .1 0 .1-.1.2-.2.1-.2.1-.3l.1-.1v.1c-.5.5-.2 0-.5.3.4-.3.2-.2.4-.4 0-.1.1-.2.2-.2-.2.2.1-.2-.2 0 .1-.1 0 0 .2-.2-.1 0-.1.1-.2.2-.3.2.2-.4-.2-.1-.2.1-.4.3-.6.4.1-.1.3-.2.3-.2.1-.1 0-.1-.1-.1.1-.1.1-.1.2-.2 0 0-.3.2-.2.1l.3-.3c-.1 0-.2.1-.3.2.1-.1.2-.2.3-.2-.1 0-.2 0-.4.2v.1s.2-.2.2-.2c.2-.1 0 .1-.1.2h-.1c-.4.4.1 0 .2.1l-.2.3.3-.2c-.1.1-.2.3-.3.3-.1.2.1-.1 0 .1 0 0 0 0-.1.1l.1-.1c-.1.1-.2.2-.2.2-.1.2.3-.1.1.1.2 0 .2-.2.5-.4l-.5.6.2-.2s0 0-.1.1c.2-.1.1-.1.2-.2-.2.2.2 0-.2.3.2-.2.1-.2.2-.2-.4.4.1 0 0 .2-.2.2-.1.1-.3.3.3-.3 0 .1.1.1.3-.3.2-.1.3-.1-.1.1-.1.2-.1.4.3-.3.3-.2.3-.2-.2.2-.2.2-.3.3.1-.1.1-.1.2-.1l-.2.2s.3-.2.2 0c.2-.2.5-.5.6-.6-.1.1-.3.3-.3.3s.1-.1.1 0l-.2.1c-.1.1.1-.1.2-.1-.1.1-.1.1-.2.2s-.1.2-.2.3c.1-.1.2-.2.2-.2s-.2.2-.2.3c.1-.1 0 0 .2-.2 0 0-.1.1-.1.2.1-.1.1.1.3-.2.3-.1 0 .2.2.2l-.1.1c.1 0 .1 0 .3-.1 0 0-.1.2-.2.2.1 0 .2-.1.1.1-.1.1-.1.1-.1.1 0 .1-.1.2.1.1-.2.2-.2.3-.1.2l.1-.2v.1l-.1-.1c-.2.4.6-.4.2.2.2-.1.1-.2.3-.3 0 .1-.3.4-.3.5-.1.2.4-.3.3-.2l.4-.4c0 .1-.3.4-.4.4 0 0 0 0 0-.1 0 0-.1 0-.2.1l.1-.1c-.1.1 0 .1-.2.3l.2-.2c-.1.2.1.1 0 .2 0-.1.1-.2.1-.2 0 .2.2-.1.3-.1-.1.2-.3.3-.2.2-.1.1-.2.2-.3.3.2-.1 0 .2 0 .2h-.1.1l.2-.2s0 .1-.1.1l.4-.4c-.1.1.1 0-.1.2 0-.1-.2.2-.3.2s0 0-.1.1c-.1.2.3-.2.3-.2-.1.1-.2.3-.2.2 0 0 .2-.2.3-.3-.1.1.1 0 .1 0v-.1c.1-.1.1-.1.2-.1-.1.1-.1 0-.1.1.2-.2-.2.3 0 .2.3.5.1.6.1.7.2-.1-.1.2 0 .1.2-.2.1-.1.3-.3h-.2l.3-.2s-.2.1-.1 0c.2-.1.1-.1.2-.2-.2.3.2-.1.1.1l-.4.5c-.1.2.3-.1.3 0l.1-.1c.2-.2.1 0 .2 0-.1.1-.2.2-.3.3.1-.1 0 .1.3-.2l-.2.2c0 .1.5-.3.5-.2-.2.1-.2.3-.4.3 0 0 0 .1.1 0-.1.1.2-.1.1 0 .1-.1.2-.2.2-.2s-.1.1-.1.1c.1-.1.1-.1.3-.2-.4.5.2.1-.1.5h.2s-.1.1-.1 0c-.1.2.4-.4.3-.2-.2.3-.2.1-.2.2-.5.5.1 0-.1.3-.1.2.2-.1.3 0 0 0 0 0-.1.1.3-.2.4-.2.5-.2-.2.2-.1.1-.3.3 0 0 .3-.3.4-.3-.1.1-.1.2-.3.4-.2.3.1 0 0 .1l-.1.1c.1 0 .4-.3.4-.2l.1-.1c.3-.2-.1.2.1 0l-.3.3c.1 0 .3-.2.4-.2-.2.2-.4.2-.5.3 0 0 .1.1.2-.1 0 0-.1.1-.1 0 .2-.2.4-.3.4-.2-.5.5 0 .2-.4.7.3-.1.1.2.2.3.4-.5 0 0 .5-.4l-.2.3c-.1.1-.1.1-.2.2 0 .1-.2.2-.2.3.1-.2.2-.2.2-.1l.2-.2c.3-.2-.3.4 0 .3l-.2.1c.1 0 .1.1.5-.2 0 .1-.2.2-.2.2 0 .1.5-.2.4.1l-.1.1s.2-.2.1 0c0 0-.1.1-.1.1s.2-.1.2-.1l-.1.1c-.1.2.4-.2.5-.2-.4.3-.5.5-.5.5 0 .1.4-.1.6-.1-.3.4 0 .3-.1.6 0-.1.2-.2.3-.3 0 .1.3-.2 0 .1-.3.3-.2.3-.1.3l.4-.4c-.5.6.4 0 0 .5.1-.1.1 0 .2-.1l-.3.3c0 .1 0 .2.1.2l-.1.1s.6-.5.7-.5l-.3.3c.1.1-.1.4.2.2 0 0-.1.1-.2.1 0 0-.1.3.3-.1-.3.3 0 .1.2 0l-.2.2c.3-.2.4-.3.5-.3 0 0-.1.2-.1.1-.1.1.2-.2.1 0l-.1.1s.1 0 .2-.1 0 .1-.2.3c.1-.1.3-.2.2-.2-.1.1-.1.1-.1.1-.1.2.3-.1.2.1-.1.1-.1.1-.1.1s-.1-.1 0-.1c-.2.2-.2.2-.5.5.2-.1.5-.4.5-.2 0 0 0 0-.1.1h.1v.1c-.1.2 0 .1 0 .1.2-.2.2-.1.3-.3s0 0-.1 0c.1-.1.2-.2.1 0 .1-.1.3-.2.3-.3-.3.3-.4.5-.5.7.2-.1.2.1.6-.3.1 0-.1.1-.1.2 0 0-.1 0-.1.1.1-.1.1.1.4-.2-.1.2-.3.2-.2.2l-.1.1c-.3.5.8-.5.4.2 0 0 0-.1.1-.1-.1.4.5.1.3.6 0 .1.1 0 .3-.2h-.3l.3-.2c.2-.1-.4.6 0 .3l.1-.2c0 .1.2 0 0 .2 0 0 .2-.1.1-.1l-.1.1.3-.1c0 .1-.5.4-.4.5.1 0 .4-.3.5-.3 0 0 0-.1.2-.2h.1c.3-.3.7-.6.9-.9l-.2.2.1-.2c.1-.2 0 0-.1 0 .1-.1.1-.2.2-.2l-.4.3c.1-.1.3-.2.3-.3-.2.1-.3.3-.4.4.1-.2.3-.3.1-.2.1-.1.1-.1.2-.2-.1.1-.1 0-.3.2.2-.2-.1 0 .2-.3-.1.1-.3.2-.3.2.4-.3 0-.1.4-.5-.4.3-.2.1-.5.2 0 0 .1-.1.1-.1 0-.1.1-.2.1-.2-.3.3-.4.3-.6.4.2-.3.3-.3.6-.6-.2.2-.3.2-.5.4.1-.2.1-.1.3-.3-.4.3-.1 0-.3.2.1-.2.3-.3.2-.3-.1-.1.1-.2.1-.2zm-1.6-.4c0 .1 0 .1 0 0 0 .1-.1.2-.1.2.1 0 .1-.1.1-.2zm-1.2 1.6c0-.1.1-.1 0 0 .1-.1.1-.1.1-.1s-.1.1-.1.1z"/><path d="m10.9 11.8s.1 0 0 0z"/><path d="m17.8 16.2-.1.1z"/><path d="m11.1 10.5c0-.1 0 0 0 0z"/><path d="m11 10.3c-.1 0-.1 0 0 0z"/><path d="m12.3 12s.1-.1.1-.1c.1 0 .1 0-.1.1z"/><path d="m12.5 12c0-.1 0-.1 0 0z"/><path d="m10.4 9.6c.1 0 .1 0 0 0z"/><path d="m10.6 9.8c.1 0 .1 0 0 0z"/><path d="m10.7 9.9s.1-.2.1-.2l-.1.1c.1-.1-.1.2 0 .1z"/><path d="m10 11v-.1c0 .1-.1.2-.2.2-.1.3.2-.2.2-.1z"/><path d="m10.1 11.3c-.1 0-.1.1-.2.2.1-.1.1-.2.2-.2z"/><path d="m11.1 12.3-.2.2c.1 0 .1-.1.2-.2z"/><path d="m12.2 11.6.1-.2z"/><path d="m11.1 13h-.1l.1-.1z"/><path d="m12.9 14.7.2-.2s-.3.2-.2.2z"/><path d="m13.9 15.2c-.1.1-.2.2 0 .1-.1 0 0-.1 0-.1z"/><path d="m15.8 17.8-.1.1z"/></g></svg>