<?xml version="1.0" encoding="utf-8"?>
<!-- Generator: Adobe Illustrator 21.1.0, SVG Export Plug-In . SVG Version: 6.00 Build 0)  -->
<svg version="1.1" id="Layer_1" xmlns="http://www.w3.org/2000/svg" xmlns:xlink="http://www.w3.org/1999/xlink" x="0px" y="0px"
	 viewBox="0 0 30 30" style="enable-background:new 0 0 30 30;" xml:space="preserve">
<style type="text/css">
	.st0{fill:#FFFFFF;}
</style>
<path class="st0" d="M15.2,0.3C7,0.3,0.4,7,0.4,15c0,8.1,6.7,14.7,14.7,14.7c8.2,0,14.7-6.7,14.7-14.7S23.3,0.3,15.2,0.3z
	 M19.3,10.2c0,0-1-0.2-1.4-0.2c-1-0.1-1.3,0.3-1.3,1l-0.1,1.8H19l-0.4,2.7h-2.1v7.1h-2.7v-7.1h-2.2v-2.7h2.2v-1.7
	c0-2.2,1.4-3.8,3.4-3.8c0,0,1.8,0.3,2.1,0.3L19.3,10.2L19.3,10.2z"/>
</svg>
