<?xml version="1.0" encoding="utf-8"?>
<!-- Generator: Adobe Illustrator 21.1.0, SVG Export Plug-In . SVG Version: 6.00 Build 0)  -->
<svg version="1.1" id="Layer_1" xmlns="http://www.w3.org/2000/svg" xmlns:xlink="http://www.w3.org/1999/xlink" x="0px" y="0px"
	 viewBox="0 0 30 30" style="enable-background:new 0 0 30 30;" xml:space="preserve">
<style type="text/css">
	.st0{fill:#FFFFFF;}
</style>
<g>
	<g>
		<path class="st0" d="M15.3,10.9H15c-2.1,0-3.8,2-3.8,4s1.9,4,3.9,4l0,0c2.1,0,3.9-2,3.9-4S17.3,10.9,15.3,10.9z M15,17.6L15,17.6
			c-1.4,0-2.6-1.3-2.6-2.7s1.2-2.6,2.6-2.6l0,0c1.4,0,2.6,1.3,2.6,2.7C17.7,16.3,16.6,17.6,15,17.6z"/>
		<path class="st0" d="M19.2,10.1c-0.5,0-0.8,0.2-0.8,0.7s0.3,0.8,0.8,0.8c0.5,0,0.8-0.2,0.8-0.7C20.1,10.2,19.6,10.1,19.2,10.1z"/>
		<path class="st0" d="M15.1,0.1C7,0.1,0.5,6.7,0.5,14.8c0,8.1,6.7,14.7,14.7,14.7c8.2,0,14.7-6.7,14.7-14.7S23.3,0.1,15.1,0.1z
			 M21.3,18.8c-0.1,1.1-1.1,2.1-2.2,2.2c-1.4,0.2-2.6,0.3-4,0.3c-1.4,0-2.6-0.1-4-0.3C10,21,9,20,8.9,18.8c-0.3-2.6-0.3-5.4,0-8.1
			C9,9.6,10,8.6,11.1,8.5c1.4-0.2,2.7-0.3,4-0.3c1.4,0,2.6,0.1,4,0.3c1,0.1,2.1,1.1,2.2,2.2c0.2,1.4,0.2,2.6,0.3,4
			C21.5,16.1,21.5,17.5,21.3,18.8z"/>
	</g>
</g>
</svg>
