<?xml version="1.0" encoding="utf-8"?>
<!-- Generator: Adobe Illustrator 21.1.0, SVG Export Plug-In . SVG Version: 6.00 Build 0)  -->
<svg version="1.1" id="Layer_1" xmlns="http://www.w3.org/2000/svg" xmlns:xlink="http://www.w3.org/1999/xlink" x="0px" y="0px"
	 viewBox="0 0 30 30" style="enable-background:new 0 0 30 30;" xml:space="preserve">
<style type="text/css">
	.st0{fill:#FFFFFF;}
</style>
<path class="st0" d="M15.1,0.2C7,0.2,0.5,6.8,0.5,14.9S7,29.5,15.1,29.5S29.8,23,29.8,14.9S23.2,0.2,15.1,0.2z M21,9.6L15,15.7
	L8.9,9.6H21z M8.1,10.4l4,4l-4,4.9V10.4z M8.8,20.1l4.1-5l1.1,1.1c0.2,0.2,0.4,0.4,0.6,0.6c0.3,0.3,0.6,0.3,0.9,0l1.4-1.4l4.3,4.8
	H8.8z M21.8,19.3L21.8,19.3l-4.2-4.7l4.2-4.2V19.3z"/>
</svg>
