<?xml version="1.0" encoding="utf-8"?>
<!-- Generator: Adobe Illustrator 21.1.0, SVG Export Plug-In . SVG Version: 6.00 Build 0)  -->
<svg version="1.1" id="Layer_1" xmlns="http://www.w3.org/2000/svg" xmlns:xlink="http://www.w3.org/1999/xlink" x="0px" y="0px"
	 viewBox="0 0 19.8 8.2" style="enable-background:new 0 0 19.8 8.2;" xml:space="preserve">
<style type="text/css">
	.st0{fill:#FFFFFF;}
</style>
<g>
	<path class="st0" d="M0.9,2.9C0.9,2.9,0.9,3,0.9,2.9C0.9,3,1,2.9,0.9,2.9C1,2.9,0.9,2.9,0.9,2.9z"/>
	<path class="st0" d="M1.2,2.2C1.2,2.3,1.2,2.3,1.2,2.2C1.3,2.3,1.3,2.3,1.2,2.2C1.3,2.3,1.3,2.2,1.2,2.2z"/>
	<path class="st0" d="M0.9,3C0.8,3.2,0.8,3.4,0.7,3.6c0,0-0.1,0-0.2,0C0.5,3.7,0.5,3.8,0.4,3.9c0,0-0.1,0-0.1,0
		c-0.1,0.1-0.1,0.3,0,0.3C0.7,3.7,1.3,3.6,0.9,3z"/>
	<path class="st0" d="M1.4,2.6c-0.1,0-0.1,0-0.2-0.1C1.1,2.7,1,2.8,1,2.9C1.1,2.9,1.2,2.8,1.4,2.6z"/>
	<path class="st0" d="M17.8,7.1c0.2,0.1,0.4,0,0.7,0.1c0,0,0-0.1,0,0c0,0,0,0,0,0c0,0,0,0.1,0,0.1c0.2,0,0.4,0,0.5,0
		C19,7.2,19,7.2,19,7.1C18.6,7,18.2,6.9,17.8,7.1z"/>
	<path class="st0" d="M19.2,6.8C19.2,6.8,19.2,6.8,19.2,6.8C19.2,6.7,19.2,6.7,19.2,6.8z"/>
	<path class="st0" d="M11.5,6c-0.3,0-0.5,0.1-0.8,0.2c0.5,0,1,0,1.5-0.1C11.9,6.1,11.7,6.1,11.5,6z"/>
	<path class="st0" d="M9.4,6.7c0.3,0.2,0.6,0.1,0.9,0C10,6.7,9.7,6.7,9.4,6.7C9.4,6.7,9.4,6.7,9.4,6.7z"/>
	<path class="st0" d="M10.7,6.3c-0.3,0-0.6,0.1-0.9,0.2C10.1,6.5,10.4,6.4,10.7,6.3z"/>
	<path class="st0" d="M17,2.7C17,2.7,17,2.7,17,2.7c0.3-0.1,0.4-0.1,0.5-0.1c0.1-0.1,0.1-0.2,0.2-0.3c0,0,0,0,0,0
		c-0.2,0-0.4,0.1-0.7,0.1c-0.1,0.1-0.2,0.1-0.3,0.2C16.8,2.6,16.9,2.7,17,2.7z"/>
	<path class="st0" d="M17.5,2.5C17,3.2,17.7,2.5,17.5,2.5L17.5,2.5z"/>
	<path class="st0" d="M15,5.9c0,0,0.1,0,0.1,0C15.2,5.9,15.2,5.9,15,5.9C15.1,5.9,15.1,5.9,15,5.9z"/>
	<path class="st0" d="M7.7,4C7.6,4,7.6,4,7.5,4c0,0-0.1,0-0.1,0.1c0,0-0.1,0-0.1,0.1c0,0,0,0.1,0,0.1c0,0.1,0,0.1,0.1,0.2
		c0.1,0,0.1,0.1,0.2,0.1c0.1,0,0.3,0,0.3-0.1C8,4.3,8.1,4.2,8.1,4.1V4C8,4,7.9,4,7.9,4C7.8,4,7.7,4,7.7,4z"/>
	<path class="st0" d="M17.2,3.9c0.3-0.1,0.5-0.2,0.5-0.3c0-0.1-0.2,0-0.8-0.2c-0.1-0.2,0-0.8,0.1-0.8c0,0,0,0,0,0
		c-0.1,0-0.6-0.1-0.6-0.1c-0.1,0,0.1-0.1,0-0.1c-0.2,0-0.3,0-0.5,0c-0.3,0-0.5,0-0.8,0c0.1,0,0.2-0.1,0.2-0.1c0,0,0.1,0,0.1-0.1
		c0.3-0.1,0.6,0,0.9,0.1c0.2,0,0.4,0,0.6-0.1c0,0,0,0,0,0c-0.2-0.1-0.4-0.2-0.6-0.3c-0.4,0-0.9,0.1-1.3,0.1c0.1,0,0.2-0.1,0.2-0.1
		c0.4-0.2,0.7-0.1,1.1,0c0.4,0,0.8-0.1,1.2-0.2c-0.2-0.1-0.5-0.1-0.8-0.2c-1.1,0-2,0.1-3,0.1C13.7,2,13.3,2,13.2,2
		c-0.3,0-0.4,0-0.7,0c0,0.1-0.1,0.1-0.1,0.2c-0.3,0.2-0.6,0-0.9-0.1c0,0,0-0.1-0.1-0.1c-0.6,0.4-1.1,0.2-1.6,0C9.8,2,9.6,2,9.5,2
		C9.6,2,9.8,2,9.9,2.1c0.3,0,0.6,0,1,0c-0.8,0-1.5-0.1-2.2-0.2C8,1.7,7.3,1.7,6.6,1.8c-0.3,0-0.5-0.1-0.8-0.2c0,0,0.1-0.1,0.1-0.1
		C5.6,1.4,5.3,1.3,5,1.3c0,0-0.1,0-0.1,0c-0.7,0-1.3-0.1-2-0.3c-0.2,0-0.4,0-0.5-0.1c-0.1,0,0,0.4-0.3,0.4c0,0,0,0,0,0.1
		c0.2,0,0.4-0.1,0.4,0c0,0.3-0.4,0.3-0.6,0.5c0,0,0,0.1-0.1,0.1c0,0,0,0-0.1,0c0,0,0,0,0,0c0,0.1,0,0.2-0.1,0.2c0.1,0,0.1,0,0.2,0.1
		C1.7,2.5,1.6,2.6,1.5,2.7c0,0,0,0,0,0c0,0,0,0,0,0c0,0-0.1,0-0.1,0c0,0,0,0,0,0C1.7,3.3,1.2,3.4,0.8,4c0,0,0.1,0,0.2,0
		c0,0.1-0.1,0.2-0.1,0.2c0.3,0.2,0.5,0.5,0.8,0.9c0.1,0.1,0,0.3,0.1,0.4c0.3,0.1,0.7,0.2,1,0.3C3.6,5.8,4.3,5.9,5,6c0,0,0,0,0,0
		C5.2,6,5.4,6,5.5,6.1C5.7,6.1,5.9,6,6,6c1.1,0.3,2.2,0.5,3.4,0.6c0.1-0.1,0.2-0.1,0.4-0.2c-0.1,0-0.1-0.1-0.2-0.1
		c0.9-0.7,2.1-0.3,2.9-0.6c0.9-0.3,1.8-0.2,2.7,0.1c0.5-0.1,1-0.1,1.5-0.2c-0.5,0.1-0.9,0.1-1.5,0.2c0.5,0.1,0.9,0.3,1.4,0.4
		c0.6,0,1.1,0.2,1.6,0.2c0.1,0,0.3,0,0.4-0.1c0.1-0.1,0.2-0.3,0.3-0.4c-0.2,0-0.4,0-0.5,0c0,0,0-0.1,0-0.1c-0.2-0.1-0.4,0-0.7-0.1
		c0.4-0.2,0.8-0.1,1.3,0c0-0.1,0.1-0.1,0.1-0.2c-0.4-0.2-1.5-0.4-2.5-0.5c0.1,0,0.3-0.1,0.4-0.1c0.8-0.2,1.5,0.3,2.3,0.4
		c0.1-0.2,0.1-0.5,0.2-0.7C18.7,4.2,18,4.3,17.2,3.9z M14.5,2.1c0.1-0.1,0.1-0.1,0.2-0.1s0.1,0,0.2,0.1C15,2.2,15,2.3,15,2.3
		c0,0.1,0,0.1-0.1,0.2c-0.1,0.1-0.1,0.1-0.2,0.1s-0.1,0-0.2-0.1c-0.1-0.1-0.1-0.1-0.1-0.2C14.4,2.3,14.5,2.2,14.5,2.1z M9.3,2.2
		c0.4,0.2,0.9,0.2,1.4,0.1c-0.1,1.4-2.1-0.5-2.9,0.7C7.9,2.2,9,2.1,9.3,2.2z M8,3.3C7.9,3.3,7.8,3.2,7.7,3.2c-0.1,0-0.2,0-0.3,0.1
		v0.3H7V3.1C7.2,3,7.4,2.9,7.7,2.9C8,2.9,8.1,3,8.3,3.1c0.1,0.1,0.2,0.3,0.2,0.5c0,0.1,0,0.3,0,0.5c0,0.2,0,0.3,0,0.4h0.2v0.3H8.1
		c0-0.1,0-0.3,0-0.4h0C8,4.7,7.8,4.8,7.5,4.8C7.3,4.8,7.1,4.8,7,4.7S6.9,4.5,6.9,4.3c0-0.3,0.3-0.5,0.8-0.6l0.4,0V3.6
		C8.1,3.5,8,3.4,8,3.3z M5.6,2.1h0.7l0,2.4h0.2v0.3H5.7V4.5h0.2l0-2.1H5.6V2.1z M2.3,3.1C2.3,3.1,2.4,3.2,2.3,3.1
		c0,0.1-0.1,0.1-0.1,0.1C2.3,3.2,2.3,3.1,2.3,3.1z M2.1,3.4C2.1,3.4,2.1,3.4,2.1,3.4c0.4,0,0.8-0.1,1.1,0.1C2.8,3.5,2.4,3.6,2.1,3.4
		z M3.6,2.6l0,0.4H3.2l0-0.6h2.3l0,0.6H5.1l0-0.4H4.6l0,1.9h0.3v0.3H3.9V4.5h0.3l0-1.9H3.6z M3.9,5.1C3.9,5.1,3.9,5.1,3.9,5.1
		C3.9,5.1,3.9,5.1,3.9,5.1C3.9,5.1,3.9,5.1,3.9,5.1z M7.7,5.2C7,5.3,6.4,5.3,5.7,5.3c-0.3,0-0.6,0-0.9,0.1c-0.1,0-0.2,0-0.3,0
		c0,0,0,0,0-0.1c0.1,0,0.2,0,0.3,0c0.1,0,0.2-0.2,0.3-0.2c0.2-0.1,0.4,0,0.6,0C6,5.1,6.2,5.2,6.4,5.2c0,0,0.1-0.1,0.1-0.2
		C6.8,5.3,7,5,7.3,5.1L7.2,5c0.2,0,0.3-0.1,0.6-0.1c0.2,0,0.4,0,0.5,0c0.5,0,0.8,0,1.3-0.2C9.5,4.8,9.4,4.8,9.4,4.8
		C9,5.2,8.5,5,8.1,5.1C8,5.1,7.8,5.2,7.7,5.2z M10.8,3.3h-0.2l-0.6,1.5C9.9,5.1,9.8,5.3,9.8,5.4C9.6,5.6,9.4,5.7,9.1,5.7
		c-0.1,0-0.2,0-0.3,0V5.4c0.1,0,0.1,0,0.3,0c0.1,0,0.2,0,0.3-0.1c0.1-0.1,0.2-0.2,0.2-0.4l0,0L9,3.3H8.8V3h0.8v0.3H9.4l0.4,0.9
		c0,0,0,0.1,0,0.2c0,0.1,0,0.1,0,0.1h0c0-0.1,0-0.2,0.1-0.3l0.3-0.9H10V3h0.8V3.3z M11.2,4.6C11.1,4.4,11,4.2,11,3.9
		c0-0.3,0.1-0.5,0.3-0.7C11.5,3,11.7,2.9,12,2.9c0.2,0,0.3,0,0.4,0.1c0.1,0.1,0.2,0.1,0.3,0.2c0.1,0.1,0.1,0.2,0.1,0.3
		c0,0.1,0,0.2,0,0.3c0,0.3-0.1,0.5-0.2,0.7c-0.2,0.2-0.4,0.3-0.7,0.3C11.6,4.8,11.4,4.8,11.2,4.6z M13.3,5.2
		C13.3,5.2,13.3,5.2,13.3,5.2C13.2,5.2,13.2,5.2,13.3,5.2c-0.1,0.1-0.2,0.1-0.2,0.1c-0.3,0-0.7,0.1-1,0.1c0,0-0.1,0-0.1,0
		c-0.1,0-0.2-0.1-0.3-0.1c0.1,0,0.3,0.1,0.4,0.1C12.4,5.3,12.8,5,13.3,5.2C13.2,5.2,13.2,5.2,13.3,5.2C13.3,5.2,13.3,5.2,13.3,5.2
		C13.5,4.9,13.6,5.1,13.3,5.2z M14,4.8h-0.9V4.5h0.2l0-2.1h-0.3V2.1h0.7l0,2.4H14V4.8z M15.1,4.8h-0.9V4.5h0.2l0-1.3h-0.3V3h0.7
		l0,1.5h0.2V4.8z M16.9,4.5c0,0.1-0.1,0.1-0.2,0.2c-0.1,0-0.2,0.1-0.3,0.1c-0.1,0-0.2,0-0.3,0c-0.2,0-0.5,0-0.7-0.1l0-0.5h0.4l0,0.2
		c0.2,0,0.3,0.1,0.4,0.1c0.1,0,0.2,0,0.3-0.1c0.1,0,0.1-0.1,0.1-0.2c0-0.1,0-0.1-0.1-0.2c0,0-0.1-0.1-0.2-0.1L16,4
		c-0.1,0-0.2,0-0.2-0.1c-0.1,0-0.1-0.1-0.2-0.1c-0.1,0-0.1-0.1-0.1-0.1c0-0.1,0-0.1,0-0.2c0-0.2,0.1-0.3,0.2-0.4
		C15.8,3,16,2.9,16.2,2.9c0.2,0,0.4,0,0.6,0.1l0,0.4h-0.4l0-0.2c-0.1,0-0.2-0.1-0.3-0.1c-0.2,0-0.4,0.1-0.4,0.2c0,0.1,0,0.1,0.1,0.1
		c0,0,0.1,0.1,0.2,0.1l0.5,0.1c0.1,0,0.1,0,0.2,0c0,0,0.1,0,0.1,0.1c0,0,0.1,0.1,0.1,0.1c0,0.1,0,0.1,0,0.2
		C16.9,4.4,16.9,4.5,16.9,4.5z"/>
	<path class="st0" d="M12.3,4.3c0.1-0.1,0.1-0.3,0.1-0.5c0-0.2,0-0.3-0.1-0.4c-0.1-0.1-0.2-0.1-0.4-0.1c-0.2,0-0.3,0.1-0.4,0.2
		c-0.1,0.1-0.1,0.3-0.1,0.5c0,0.2,0,0.3,0.1,0.4c0.1,0.1,0.2,0.2,0.4,0.2C12.1,4.5,12.2,4.5,12.3,4.3z"/>
	<path class="st0" d="M10.2,6.7c0.2,0,0.3,0,0.5,0c0.5,0,1-0.1,1.4-0.2c-0.3-0.1-0.6-0.1-0.9-0.2C10.9,6.4,10.6,6.6,10.2,6.7z"/>
	<path class="st0" d="M12.6,6.5c-0.1,0-0.3,0.1-0.4,0.1c0.5,0.1,0.9,0.1,1.4,0.2c0.8,0,1.6,0,2.4-0.1c0.1,0,0.2,0,0.3,0
		c-1.4-0.5-2.7-0.9-4.1-0.5c0,0-0.1,0-0.1,0c0.6,0.1,1.1,0.2,1.7,0.3C13.4,6.4,13,6.5,12.6,6.5z"/>
	<path class="st0" d="M14.2,1.8c0,0-0.1,0-0.2,0c0,0-0.1,0.1-0.1,0.1c0,0,0.1,0,0.1,0L14.2,1.8z"/>
	<path class="st0" d="M11.5,2C11.5,2,11.5,2,11.5,2C12.3,2,13,2,13.8,1.9c0,0,0.1-0.1,0.1-0.1c-0.5-0.2-0.9-0.2-1.4,0
		c-0.1,0-0.3,0.2-0.4,0.1c-0.4-0.1-0.8,0-1.3,0.1C11.1,2,11.3,2,11.5,2z"/>
</g>
</svg>
