<?xml version="1.0" encoding="utf-8"?>
<!-- Generator: Adobe Illustrator 21.1.0, SVG Export Plug-In . SVG Version: 6.00 Build 0)  -->
<svg version="1.1" id="Layer_1" xmlns="http://www.w3.org/2000/svg" xmlns:xlink="http://www.w3.org/1999/xlink" x="0px" y="0px"
	 viewBox="0 0 18.3 8.2" style="enable-background:new 0 0 18.3 8.2;" xml:space="preserve">
<style type="text/css">
	.st0{fill:#BF1D70;}
</style>
<g>
	<path class="st0" d="M7.8,3.8c-0.3,0-0.5,0.1-0.6,0.3C7.1,4.3,7,4.5,7,4.8C7,5,7.1,5.2,7.2,5.4c0.1,0.2,0.3,0.3,0.6,0.3
		s0.5-0.1,0.6-0.3S8.5,5,8.5,4.7S8.4,4.2,8.3,4C8.2,3.9,8,3.8,7.8,3.8z"/>
	<path class="st0" d="M15.8,4h0.1C15.9,4,15.9,4,15.8,4z"/>
	<path class="st0" d="M15.8,4L15.8,4L15.8,4z"/>
	<path class="st0" d="M15.5,4c0.1,0,0.2,0,0.3,0C15.7,4,15.6,4,15.5,4z"/>
	<path class="st0" d="M16.6,6.7c0-0.1,0-0.3-0.1-0.3c-0.8-0.1-1.7,0.1-2.1-0.3c-0.1-0.1-0.3-0.3-0.6-0.3c0.1,0,0.3,0,0.4,0
		c0-0.1,0-0.3,0-0.3c-0.5-0.1-1.2-0.2-1.7-0.3c0,0,0-0.2,0-0.3h-0.3c-0.3-0.6,1.2-0.5,1.8-0.6C14,4.2,14,4,14,4h-0.3V3.8
		c0.6,0,1.2,0,1.8,0h-0.1c0-0.1,0-0.2-0.1-0.2c0.5,0,1.2,0.1,1.7-0.1c0.1-0.1,0-0.3-0.4-0.4c-0.4,0-0.7,0-1,0V2.9
		c0.3,0,0.7,0.1,0.9,0c0.1-0.1-0.3-0.3-0.1-0.3c0.1,0,0.3,0,0.4-0.1c-0.4,0-0.9,0.1-1.3,0c-0.1-0.1-0.3-0.2-0.3-0.3
		C14.5,2.3,14,2,13.6,1.6c-0.1-0.1-0.5-0.1-0.8-0.1c-2.2-0.4-4.5-0.3-6.6-0.9C6,0.7,5.8,0.5,5.7,0.4c-1-0.3-2.3-0.2-3.4,0
		c-0.5,0.1-0.9,1-0.9,1C1.2,1.6,1.1,1.9,1.2,2.1c0.3,0.1,0.9,0.1,0.9,0.4c0,0.1-0.1,0.1-0.3,0.1c0,0.3-0.4,1-0.5,1
		c-0.1,0.2-0.9,0.7-1,0.8C-0.1,4.7,1.1,6,1.6,6.3c0.3,0.2,0,0.4,0,0.7C1.8,6.9,2,7.1,2.2,7c0,0.1,0.8,0.2,1.2,0.2
		c0,0,0.1-0.1,0.5-0.1C4.1,7.1,4.1,7,4.1,7c0,0.1,0,0.1,0,0.2c0.1-0.2,0.4,0,0.5-0.1c0,0.1,0,0.1,0,0.2c0.3-0.2,0.5,0,0.8-0.1
		c0,0.1,0,0.1,0,0.2c0.1,0,0.3,0,0.3,0.1s0,0.1,0,0.2c0,0,0.3-0.2,0.3,0c0-0.1,0-0.1,0-0.2c0.5,0,0.9,0.1,1.3,0.2
		c1,0.3,2.3,0.2,3.5,0c0.1,0,0.3-0.2,0.1-0.3c0.1,0,0.3,0,0.4,0c0.3,0,0.1-0.3,0.4-0.3c2.1-0.4,4.2,0,6.3-0.2
		C17.5,6.8,17.1,6.6,16.6,6.7z M5.5,5.9c-0.3,0.2-0.6,0.3-1,0.3c-0.2,0-0.4,0-0.6-0.1C3.6,6.1,3.4,6,3.2,6V5.1h0.6v0.5
		C4,5.7,4.2,5.7,4.5,5.7c0.2,0,0.4-0.1,0.6-0.2C5.2,5.4,5.3,5.2,5.3,5c0-0.1,0-0.2-0.1-0.3c-0.1,0-0.3-0.1-0.5-0.1L4,4.4
		c-0.5-0.2-0.8-0.5-0.8-1c0-0.4,0.1-0.6,0.4-0.8s0.6-0.3,1-0.3c0.3,0,0.7,0.1,1.1,0.2v0.8H5.2V2.9C5.1,2.8,4.9,2.8,4.6,2.8
		S4.1,2.9,4,3C3.9,3,3.9,3.2,3.9,3.3s0,0.3,0.1,0.3c0.1,0.1,0.2,0.1,0.4,0.2L5,4c0.6,0.2,0.9,0.5,0.9,1C5.9,5.4,5.8,5.7,5.5,5.9z
		 M8.8,5.8C8.5,6,8.2,6.2,7.7,6.2s-0.8-0.1-1-0.4s-0.3-0.6-0.3-1S6.5,4,6.8,3.7s0.6-0.4,1-0.4c0.2,0,0.5,0,0.6,0.1
		c0.2,0.1,0.3,0.2,0.4,0.3C9,3.9,9,4.1,9.1,4.2c0,0.2,0.1,0.3,0.1,0.5C9.2,5.2,9,5.5,8.8,5.8z M11.3,6c-0.2,0.1-0.4,0.1-0.6,0.1
		c-0.3,0-0.5-0.1-0.6-0.2C10,5.8,9.9,5.6,9.9,5.3c0-0.1,0-0.6,0-1.5H9.5V3.3h0.4V2.7h0.6v0.7h0.8v0.4h-0.8c0,0.6,0,1,0,1.3
		c0,0.2,0,0.4,0.1,0.5s0.2,0.1,0.3,0.1s0.3,0,0.5-0.1L11.3,6z"/>
</g>
</svg>
