<?xml version="1.0" encoding="utf-8"?>
<!-- Generator: Adobe Illustrator 21.1.0, SVG Export Plug-In . SVG Version: 6.00 Build 0)  -->
<svg version="1.1" id="Layer_1" xmlns="http://www.w3.org/2000/svg" xmlns:xlink="http://www.w3.org/1999/xlink" x="0px" y="0px"
	 viewBox="0 0 30 8.2" style="enable-background:new 0 0 30 8.2;" xml:space="preserve">
<style type="text/css">
	.st0{fill:#9F3030;}
</style>
<g>
	<path class="st0" d="M10.7,3.4c-0.2,0-0.4,0.1-0.5,0.2C10.1,3.8,10,4,10,4.2s0.1,0.4,0.2,0.6C10.3,4.9,10.5,5,10.7,5
		s0.4-0.1,0.5-0.2c0.1-0.2,0.2-0.4,0.2-0.6c0-0.3-0.1-0.5-0.2-0.6C11.1,3.4,10.9,3.4,10.7,3.4z"/>
	<path class="st0" d="M22.3,3.4c-0.2,0-0.4,0.1-0.5,0.2c-0.1,0.2-0.2,0.4-0.2,0.6c0,0.2,0.1,0.4,0.2,0.6C21.8,4.9,22,5,22.2,5
		s0.4-0.1,0.5-0.2c0.1-0.2,0.2-0.4,0.2-0.6c0-0.3-0.1-0.5-0.2-0.6C22.6,3.4,22.5,3.4,22.3,3.4z"/>
	<path class="st0" d="M15.9,3.4c-0.2,0-0.4,0.1-0.5,0.2c-0.1,0.2-0.2,0.4-0.2,0.6c0,0.2,0.1,0.4,0.2,0.6c0,0.1,0.2,0.2,0.4,0.2
		s0.4-0.1,0.5-0.2c0.1-0.2,0.2-0.4,0.2-0.6c0-0.3-0.1-0.5-0.2-0.6C16.2,3.4,16.1,3.4,15.9,3.4z"/>
	<path class="st0" d="M29.5,0.5C19.8,0,9.9,0.6,0.3,0.8C-0.3,1,0,1.3,0,1.6c1.1,0,2.2-0.1,3,0.2c0.3,0-0.3,0.6,0,0.9
		c0.3,0,0.8,0,1.1,0c0.3,0.5-0.3,0.9,0,1.4s1.4,0.2,1.6,0.5C6.6,4.8,5.2,5,4.4,5c0.3,0.3-0.6,0-0.6,0.3c0,0.6,0,1.2,1.1,1.7
		c0.3,0.2,0,0.6,0,0.9c3.3,0,6.9,0,10.2-0.6c2.8-0.5,6.1,0.2,8.8-0.3c0.8-0.2,2.2,0.5,2.8-0.3c-0.3,0-0.6,0-0.8,0
		c0.8-0.5,1.7,0,2.5-0.1c0-0.3,0-0.5,0.3-0.6c-0.6,0-1.4,0.1-1.9,0V5.5c0.6-0.2,1.4,0.2,1.9,0c0-0.2,0-0.5,0-0.6
		c0-0.2,0.3-0.2,0.6-0.2c-0.3,0-0.8,0-1.1,0c0-0.2,0-0.5,0-0.6C28.1,4,28.4,4,28.6,4c0-0.3,0.3-0.6,0-0.8c-0.3,0-0.6,0-0.8,0
		c1.1-0.2,1.7-0.9,1.7-1.4c-0.3,0.2-0.3-0.3-0.6-0.2C29.7,1.2,30.6,0.6,29.5,0.5z M9.2,2.5H8.9v2.8H8.5l-1.6-2C6.8,3.2,6.7,3,6.6,3
		l0,0v2H7v0.4H5.9V5h0.3V2.5H5.8V2.2h0.8l1.5,1.9c0.1,0.1,0.2,0.3,0.3,0.5l0,0V2.5H8.1V2.2h1.1C9.2,2.2,9.2,2.5,9.2,2.5z M11.6,5.1
		c-0.2,0.2-0.5,0.4-0.9,0.4S10,5.4,9.8,5.2c-0.2-0.3-0.3-0.6-0.3-1s0.1-0.7,0.4-0.9c0.2-0.2,0.5-0.4,0.9-0.4c0.2,0,0.4,0,0.6,0.1
		c0.2,0.1,0.3,0.2,0.4,0.3c0.1,0.1,0.1,0.3,0.2,0.4c0,0.1,0.1,0.3,0.1,0.4C11.9,4.6,11.8,4.9,11.6,5.1z M14.2,5
		c-0.1,0.1-0.1,0.2-0.3,0.2c-0.1,0.1-0.2,0.1-0.3,0.1s-0.2,0-0.4,0c-0.3,0-0.6,0-0.9-0.1V4.6h0.5v0.3C13,5,13.2,5.1,13.3,5.1
		s0.2,0,0.3-0.1s0.1-0.1,0.1-0.3c0-0.1,0-0.2-0.1-0.2s-0.1-0.1-0.3-0.1l-0.4-0.1c-0.1,0-0.2,0-0.3-0.1c-0.1,0-0.2-0.1-0.2-0.1
		c-0.1,0-0.1-0.1-0.2-0.2c0-0.1-0.1-0.2-0.1-0.3c0-0.3,0.1-0.5,0.3-0.6c0.4,0,0.6-0.1,0.9-0.1c0.2,0,0.5,0.1,0.8,0.2v0.6h-0.5V3.4
		c-0.1-0.1-0.2-0.1-0.4-0.1c-0.3,0-0.5,0.1-0.5,0.3c0,0.1,0,0.1,0.1,0.2c0.1,0,0.1,0.1,0.2,0.1L13.7,4c0.1,0,0.1,0,0.2,0.1
		c0.1,0,0.1,0.1,0.2,0.1c0.1,0,0.1,0.1,0.1,0.2s0,0.2,0,0.3C14.3,4.8,14.2,4.9,14.2,5z M16.7,5.1c-0.2,0.2-0.5,0.4-0.9,0.4
		s-0.7-0.1-0.9-0.3c-0.2-0.2-0.3-0.5-0.3-0.9s0.1-0.7,0.4-0.9C15.2,3.2,15.5,3,15.9,3c0.2,0,0.4,0,0.6,0.1c0.2,0.1,0.3,0.2,0.4,0.3
		s0.1,0.3,0.2,0.4c0,0.1,0.1,0.3,0.1,0.4C17.1,4.6,16.9,4.9,16.7,5.1z M18.9,5.3c-0.2,0.1-0.3,0.1-0.5,0.1c-0.3,0-0.4-0.1-0.5-0.2
		s-0.2-0.3-0.2-0.6c0-0.1,0-0.5,0-1.3h-0.4V3h0.4V2.5h0.5v0.6h0.7v0.4h-0.7c0,0.5,0,0.9,0,1.1s0,0.4,0.1,0.4c0,0,0.1,0,0.2,0
		s0.2,0,0.4-0.1V5.3z M20.8,3.4c-0.1,0-0.1,0-0.2,0c-0.2,0-0.4,0.1-0.5,0.3C20,3.8,19.9,4,19.9,4.3V5h0.4v0.4h-1.2V5h0.3V3.4H19V3
		h0.9c0,0.3,0,0.5,0,0.7l0,0c0-0.2,0.1-0.4,0.3-0.5C20.3,3.1,20.5,3,20.6,3s0.2,0,0.3,0L20.8,3.4z M23.1,5.1
		c-0.2,0.2-0.5,0.4-0.9,0.4s-0.7-0.1-0.9-0.3c-0.2-0.3-0.3-0.6-0.3-1s0.1-0.7,0.4-0.9c0.2-0.2,0.5-0.4,0.9-0.4c0.2,0,0.4,0,0.6,0.1
		s0.3,0.2,0.4,0.3s0.1,0.3,0.2,0.4c0,0.1,0.1,0.3,0.1,0.4C23.4,4.6,23.3,4.9,23.1,5.1z M25.7,5c-0.1,0.1-0.1,0.2-0.3,0.2
		c-0.1,0.1-0.2,0.1-0.3,0.1c-0.1,0-0.2,0-0.4,0c-0.3,0-0.6,0-0.9-0.1V4.6h0.5v0.3C24.5,5,24.7,5,24.8,5s0.2,0,0.3-0.1
		c0.1-0.1,0.1-0.1,0.1-0.3c0-0.1,0-0.2-0.1-0.2S25,4.3,24.8,4.3l-0.4-0.1c-0.1,0-0.2,0-0.3-0.1C24,4.1,23.9,4,23.9,4
		c-0.1,0-0.1-0.1-0.2-0.2c0-0.1-0.1-0.2-0.1-0.3c0-0.3,0.1-0.5,0.3-0.6c0.2-0.1,0.4-0.2,0.7-0.2c0.2,0,0.5,0.1,0.8,0.2v0.6h-0.5V3.2
		c-0.1-0.1-0.2-0.1-0.4-0.1c-0.3,0-0.5,0.1-0.5,0.3c0,0.1,0,0.1,0.1,0.2c0.1,0,0.1,0.1,0.2,0.1L25.2,4c0.1,0,0.1,0,0.2,0.1
		c0.1,0,0.1,0.1,0.2,0.1s0.1,0.1,0.1,0.2s0,0.2,0,0.3C25.8,4.8,25.8,4.9,25.7,5z"/>
</g>
</svg>
