<?xml version="1.0" encoding="utf-8"?>
<!-- Generator: Adobe Illustrator 21.1.0, SVG Export Plug-In . SVG Version: 6.00 Build 0)  -->
<svg version="1.1" id="Layer_1" xmlns="http://www.w3.org/2000/svg" xmlns:xlink="http://www.w3.org/1999/xlink" x="0px" y="0px"
	 viewBox="0 0 30 14" style="enable-background:new 0 0 30 14;" xml:space="preserve">
<style type="text/css">
	.st0{fill:#FFFFFF;}
</style>
<g>
	<path class="st0" d="M26.3,5.2c0-0.1,0-0.1,0-0.2V5.2z"/>
	<path class="st0" d="M23.6,4c0,0.1,0,0.2,0,0.3C23.6,4.2,23.6,4.1,23.6,4z"/>
	<path class="st0" d="M23.1,2.8C23.1,2.8,23.2,2.8,23.1,2.8C23.2,2.7,23.1,2.7,23.1,2.8z"/>
	<path class="st0" d="M26.3,5l-0.1-0.4C26.2,5.1,26.2,4.9,26.3,5z"/>
	<path class="st0" d="M27.5,4.2L27.5,4.2c0-0.1,0-0.3,0-0.5V4.2z"/>
	<path class="st0" d="M28.4,4.7c0-0.1,0,0.8,0,1.1c0-0.3,0-0.5,0-0.5C28.4,5.1,28.4,5,28.4,4.7z"/>
	<path class="st0" d="M29.8,6.6L29.8,6.6L29.8,6.6z"/>
	<path class="st0" d="M26.8,3.6c0-0.2,0-0.3,0-0.4C26.8,3.3,26.8,3.5,26.8,3.6z"/>
	<path class="st0" d="M1.4,8.6L1.4,8.6L1.4,8.6z"/>
	<path class="st0" d="M0.3,6.9L0.3,6.9L0.3,6.9L0.3,6.9z"/>
	<path class="st0" d="M22.3,1.3L22.3,1.3C22.3,1.1,22.3,1.2,22.3,1.3z"/>
	<path class="st0" d="M14.6,2.1c0.1,1-0.1,1.3,0,2.5C14.6,4.1,14.7,2.8,14.6,2.1z"/>
	<path class="st0" d="M14.6,4.6L14.6,4.6L14.6,4.6L14.6,4.6L14.6,4.6L14.6,4.6z"/>
	<path class="st0" d="M20.4,2.5c0-0.1,0-0.3,0-0.5C20.4,2.2,20.4,2.3,20.4,2.5z"/>
	<path class="st0" d="M21.8,3.6V3.4C21.8,3.6,21.8,3.6,21.8,3.6z"/>
	<path class="st0" d="M19.6,3.5C19.6,3.5,19.6,3.6,19.6,3.5C19.6,3.6,19.6,3.5,19.6,3.5z"/>
	<path class="st0" d="M19.6,3.5C19.6,3.4,19.6,3.4,19.6,3.5S19.6,3.6,19.6,3.5C19.6,3.5,19.6,3.5,19.6,3.5z"/>
	<path class="st0" d="M18.8,3.6c0,0.1,0,0.2,0,0.2s0,0,0-0.1V3.6z"/>
	<path class="st0" d="M3.7,11.4c0-0.3,0-0.7,0-1C3.7,11.2,3.6,11.3,3.7,11.4z"/>
	<path class="st0" d="M19.5,12.8l-0.1-0.2C19.5,12.8,19.5,12.8,19.5,12.8z"/>
	<path class="st0" d="M9.3,11.7v0.1C9.3,11.8,9.3,11.8,9.3,11.7z"/>
	<path class="st0" d="M19.1,12.8c0-0.4,0-0.7-0.1-0.8c0,0.1,0,0.2,0,0.3L19.1,12.8z"/>
	<path class="st0" d="M9.7,12.3L9.7,12.3L9.7,12.3z"/>
	<path class="st0" d="M19.5,4.5C19.5,4.5,19.5,4.4,19.5,4.5C19.5,4.4,19.5,4.4,19.5,4.5z"/>
	<path class="st0" d="M2.1,9.3L2.1,9.3L2.1,9.3z"/>
	<path class="st0" d="M21.7,4.7c0-0.2,0-0.3,0-0.3c-0.1,0.4-0.2-1.5-0.3-0.8c-0.1-0.5,0-1.4,0-1.7c-0.1,1-0.1-1-0.3-0.2
		c0,1,0,0.8-0.1,1.7l0.2-0.7l-0.1,1.4c0.1,0,0.1-0.6,0.2-0.5c-0.1,0.6-0.1,0.6,0,1l0.2-0.2L21.7,4.7z"/>
	<path class="st0" d="M3.3,4.9L3.3,4.9C3.3,4.8,3.3,4.8,3.3,4.9z"/>
	<path class="st0" d="M6.8,3.8L6.8,3.8L6.8,3.8z"/>
	<path class="st0" d="M9.7,12.1c0,0,0,0.1,0,0.2C9.7,12.2,9.7,12.2,9.7,12.1z"/>
	<path class="st0" d="M14,6.4c-0.5,0-0.7,0.4-0.7,0.7h1.4l0,0C14.7,6.9,14.5,6.4,14,6.4z"/>
	<path class="st0" d="M21.8,4.1c0,0.1,0,0.2,0,0.2C21.8,4.3,21.8,4.3,21.8,4.1z"/>
	<path class="st0" d="M29.1,6.2c-0.1,0.4,0,0.3,0,0.7c0-0.3-0.1-0.2-0.2-0.2s-0.1,0-0.1-0.6c0,0.6,0.1,0.4,0,0.8
		c0-0.6,0-0.6-0.1-0.5c0,0.1-0.1,0.4-0.1,0.1c0-0.7,0.1-0.3,0-1c0,0.6-0.1,0.5-0.1,0.3s-0.1-0.6-0.1-0.5c0,0.5,0,0.6-0.1,0.6
		S28.2,5.8,28.1,6c0-0.4-0.2-0.7-0.4-1.3V4.5c0,1.3-0.1,1-0.2,1.2c0-0.8,0-1.1,0.1-1.5l-0.1-0.1c0,0.4,0,0.7-0.1,0.8v-1
		c-0.1,0-0.1,0.3-0.2,0.4c-0.1,0.2-0.1,0.3-0.2-0.1c0,0.5,0,1.3,0,2s0,1.4-0.1,1.7c0-0.6,0-1.6,0-1.8c0,0.1,0,0.5-0.1,0.2l0.1-1
		c-0.1-0.4,0,0.8-0.1,0.7c0-0.8,0-0.6,0-1.3c0-0.1,0,0.4,0.1,0c-0.1-0.2-0.1-0.7-0.1-1.3c0,0.5,0,1.1,0,1.2c-0.1,0.1,0-1-0.1-1.4
		c0,0.6-0.1,0-0.1,1.2c0,0,0-0.6,0-0.9C26.5,4,26.3,3.7,26.4,5v0.1c0,0,0,0,0,0.1C26.2,6.4,26,4.5,25.8,5V4.6
		c-0.1,0.5-0.2,0.3-0.3,1.2c0,0-0.1-0.8-0.1-1.2c-0.1,0.3-0.1,0.8-0.2,0.1c0.1-0.7,0-0.6,0.1-0.5c-0.1-0.4-0.1-1-0.3,0.1
		c0-1.1-0.1-1.3-0.1-1L25,4.1c-0.1,0.2-0.1,0.1-0.2,0V2.7c-0.2-1.7-0.4,2.9-0.6,0c-0.1,1,0.1,0.7,0.1,1.8c-0.1-0.1-0.1-0.6-0.1-1.2
		c0-0.3,0-0.5-0.1-0.7c0-0.2,0-0.3,0-0.3c-0.1-0.8-0.1,2-0.3,1.5c0,0.5,0,1.8-0.1,2.3c-0.1-0.2-0.1-2.1-0.1-2.5c0,0,0,0.1,0,0.3
		c0-0.2,0.1-0.4,0-0.9v0.5C23.5,3,23.4,3,23.4,2.2c-0.1,0.4,0,0.7,0,1c-0.1-0.5-0.2,0.1-0.3-0.4c0,0.3,0,0.9,0,0.8
		c-0.1-0.5,0,1-0.1,1.3c-0.1-0.8,0-1.8-0.1-1.2c-0.1-0.5,0-1.3,0-1.7c-0.1,1-0.2-0.6-0.3-0.8l0.1-0.4C22.6,1,22.6,1,22.5,1v1
		c0-0.2-0.1-0.2-0.1-0.6c0,0.6,0,1.6-0.1,2.5c-0.1-0.5-0.2,0.5-0.2-0.8c0.1,0.4,0-1,0.1-1.4c0,0,0,0-0.1-0.1c0-0.1,0-0.3,0-0.3
		c-0.2-1.2-0.1,1.5-0.2,1.5c0-0.7,0-1.4-0.1-1.2c0.1,0,0,1.2,0,1.8c-0.1-0.6-0.1,0.4-0.2,0.4l0.1,0.3c0,0.7-0.1,0.6-0.1,0.9l0.1,0.1
		L20.6,6l-0.3-0.3L21,4.9V2.5c-0.2-1.1-0.3,1.3-0.5,0.6l0.1,0.4c0,1-0.1,0.1-0.2,0.5c0-0.8,0-1.1-0.1-1.6c0,0.6-0.1-0.1-0.2,1.6l0-1
		c-0.1-0.5-0.2,2.3-0.3,2c0.1-0.9,0-1.5,0.1-2.1c-0.1,0-0.1-0.2-0.1,0.4c0-0.5-0.1,1.1-0.2,0.3c0,0.4,0,1.2-0.1,1.2
		c0-0.1,0-0.2,0-0.3c0,0.3-0.1,0.5,0,1.4c-0.2-2.6-0.5,0.2-0.6-2c-0.1,0.3-0.3,0.5-0.4,0.6c0-0.2,0-0.4,0-0.3
		c-0.1-0.8-0.1,2.4-0.3,1.5c-0.1-1.3,0.1-0.7,0-1.2c0-2.7-0.2,0.4-0.3-1.2L18,3c-0.1-0.9-0.2,1-0.3,0.8c0,0,0-0.2,0-0.4
		c-0.1,1.4-0.3,1.8-0.4,2.2c0-1.1,0.1-0.6,0-1.6c-0.1,0.1,0,1.7-0.1,2c0.1,0,0.3,0,0.4,0c0.7,0,1,0.4,1,1.1c0,0.5,0,0.9,0,1.4H19
		v0.4h-1.3V8.4H18c0-0.4,0-0.8,0-1.2c0-0.4-0.2-0.7-0.6-0.7s-0.7,0.3-0.7,0.9v1.1H17v0.4h-1.3V8.4H16V6.5h-0.4V6h1
		c0,0.2,0,0.4-0.1,0.6l0,0c0.1-0.3,0.3-0.5,0.6-0.6c0-0.6-0.1-1.1-0.1-2.2l0.1-0.1c0-1.4-0.1,0.1-0.1-0.1V3
		c-0.2,0.2-0.2,1.8-0.4,1.7v0.5c-0.1,1.6-0.1-0.9-0.2,0.3V3.9c-0.1,0.4-0.2,1.6-0.4,1.9c0.1-1.2,0.2-1.8,0.3-2.6
		c-0.1,0-0.2,0.1-0.3,0.9c0-0.2,0.1-0.6,0.1-0.3c0,1.2-0.1,1.9-0.2,1.8c0-3.2-0.3-0.8-0.4-3.3C15.2,3.5,15,1.8,14.7,2
		c0.1,2.5-0.1,0.1-0.1,2.6c-0.1,0.2-0.1,0.1-0.1,0l0,0l0,0l-0.2-1.5c0-0.7,0.1-0.6,0.1-1.1c-0.1-0.2-0.1-1.1-0.1-1.8
		c0,0.9-0.1,1.3-0.1,1l0.1,1.2c-0.2,1.4-0.2-2.1-0.4-0.8L14,0.7c-0.1,0.5-0.4,0-0.5,2c0-0.3,0-1,0-1.2c-0.2-0.3-0.5,2.2-0.7,0.9V1.8
		c0,0.2-0.1,1.2-0.1,0.5c0-0.3,0-0.6,0-0.7c0,0.2-0.1,1.1-0.2,0.7l0.1-0.7C12.3,1,12.2,3.5,12,3.9c0-1.8-0.2-2.4-0.3-2.7V0.9
		c-0.3-0.2-0.5,1.5-0.7,2.2c-0.1-2-0.5-0.8-0.8-2c0,0.3,0,1.4-0.1,1.6C10,2.3,9.9,4,9.9,2.3l0,0c0-1.6-0.2-1.2-0.3-1.3v2.2
		c0-3-0.4,1.4-0.6-1.5c0,0.6-0.1,0.5-0.1,1.1V1.6C8.7,1.3,8.6,1.2,8.4,1.4V0.6C8.3,0.5,8.3,4,8.2,4.1V2.3C8,2.3,7.8,0.8,7.6,2.4
		c0-0.3,0-0.8,0-0.8c-0.1,0-0.3-1.1-0.3,1c0-1.2-0.2,0.1-0.3,0.8V2.2C6.9,3.6,6.9,4,6.8,4.5c0-0.1,0-0.8,0-0.7
		C6.7,3.3,6.7,4.9,6.6,4.3V3.6C6.5,3.5,6.5,3.9,6.5,4.7C6.4,5.2,6.3,4.4,6.3,3.4c0,0.6-0.1,1.5-0.1,1.2c0-0.4,0-0.6,0-0.8
		C6,3,5.9,5.2,5.8,4c0-0.4,0-0.6,0-0.7C5.9,3.4,6,3.4,6,3.5c0-1.1-0.1-1.3,0-2.7c-0.1,0.8-0.3,2.5-0.4,2c0-0.1,0-0.2,0-0.4V2.3
		c0-0.1,0,0-0.1,0.2c0-0.2-0.1-0.3-0.1-0.3c0-0.9-0.1-0.5-0.2-0.5c0,1.2-0.1,1,0,1.9c0-0.1,0-0.1,0-0.2V3.3v0.1l0.1-0.1
		c0,0.6-0.1,1.1-0.2,0.4C5.1,4.4,5,5.2,5,5.6C5.2,4,5,3.1,5,2.1C4.9,2.5,4.8,2.6,4.8,2.9C4.7,3.2,4.6,3.6,4.5,4.7
		c0,0.3-0.1-0.7-0.1-1c0-0.2,0.1-0.2,0.1-0.5c0,0.3-0.1,0.3-0.2,0.5c0,0.2-0.1,0.5-0.1,1.3c-0.1-0.3,0-0.7,0-0.9
		c0-0.2,0-0.4-0.1-0.2V3.4c0-0.6-0.1-0.5-0.2-0.3C3.8,3.4,3.8,3.9,3.7,4.3c-0.1,0.5-0.1,0.9-0.2,1c-0.1,0.1-0.1,0-0.2-0.4
		c0,0.1,0,0.1,0,0.3C3.2,4.9,3.1,4.9,3,5S2.8,5.2,2.7,5.4C2.6,5.5,2.4,5.6,2.3,5.6c-0.1,0-0.2,0-0.3-0.2C1.9,5.2,1.9,5.7,1.8,6.1
		V5.6c0,0.2-0.1,0.5-0.1,0.7C1.6,6.5,1.5,6.2,1.4,6c0-0.1-0.1-0.1-0.1-0.1S1.2,6,1.2,6.2v0.2c0,0-0.1,0.1-0.2,0.1c0,0,0,0,0-0.1
		c0,0,0,0.2-0.1,0.1V6.4C0.8,6.5,0.8,6.6,0.7,6.7c-0.1,0-0.1-0.1-0.1-0.1c0-0.1,0-0.1-0.1,0c0,0.1-0.1,0.2-0.1,0.2
		c0,0.1-0.1,0.1-0.1,0.1h0.1c0,0,0,0-0.1,0l0,0c0,0,0,0,0.1,0.2c0,0.1,0.1,0.1,0.1,0.1v0.1c0,0-0.1-0.1-0.1-0.2
		c0,0.1,0.1,0.1,0.1,0.1s0,0,0.1,0c0,0.1,0,0.1,0.1,0.2c0,0,0.1,0,0.1-0.1c0,0.1,0,0.1,0,0.2c0,0,0,0.1,0,0.2c0,0,0-0.1,0-0.2
		s0-0.1,0-0.1C1,7.7,0.9,7.8,1,7.7c0,0.1,0,0.2,0,0.2c0.1,0,0.2,0.2,0.2,0c0,0.2,0.1,0.2,0.1,0.3s0.1,0.1,0.1,0.4
		c0-0.1,0-0.1,0.1-0.2c0-0.1,0.1-0.1,0.1-0.1c-0.1,0.3,0,0.4,0.1,0.5c0,0.1,0,0.2,0,0.7c0-0.3,0.1-0.3,0.2-0.3c0.1,0,0.2,0.2,0.2,0
		c0,0.1,0,0.2,0,0.2c0.1,0.2,0.1,0.5,0.1,0.8c0-0.9,0.1-1,0.2-1.5c0,0.5,0,0.8,0,1.1s-0.1,0.5,0,1c0-0.8,0.2-0.6,0.1-1.3
		c0,0.3,0.1,0.5,0.1,0.6s0,0.3,0,0.7c0-0.7,0-0.7,0-0.7s0.1,0.1,0.1-0.3c0.1,0.8,0,1.4,0.1,1.1c0,0.3,0,0.5,0,0.7s0,0.2,0,0.2
		C3,11.9,2.9,10.6,3,10c0.1-0.1,0,1,0.1,1.6c0-0.1,0.1-0.4,0.1-0.7s0.1-0.5,0.1-0.5c0,0.2,0,0.3,0,0.5c0-0.4,0.1-0.4,0.2-0.4
		c0.1,0,0.1,0,0.2-0.6c0,0.1,0,0.3,0,0.4c0-0.7,0-1.4,0-1.9c0.1,0,0.1-0.9,0.1,0.1c0,0,0,0.3-0.1,0.6l0.1-0.4c0,1.4-0.1,0.4-0.1,1.4
		C3.8,10,3.8,9.7,3.9,9.4C4,9.2,4,9,4,9.2c0,1.4-0.2,0.3-0.1,1.6l-0.1-0.6c0.1,2.2-0.1-0.2,0,2.1C3.9,12.7,4,12.6,4,12.4
		c0-0.1,0.1-0.2,0.2,0c0-0.8,0-1.2,0-2c0.1-0.7,0.2,0.2,0.2,1S4.5,13,4.6,12c0-1,0.1-2.8,0.2-1.8v1.6C5,12,4.9,9.5,5.1,10.6
		c0,0.6-0.1,0.5-0.1,0.7c0,1.4,0-0.8,0.1-0.8v1.4c0.2-0.2,0.4-1.2,0.6-1.5c0,0.4,0,0.9,0,1.3c0.2-0.7,0.5,0.2,0.7,1l0.1-1.2
		c0,0,0,0.6,0,0.8c0.1,0.5,0-0.8,0.1-1.3c0.1-0.1,0.1,0.7,0,1.1c0.2-1,0.5-2.2,0.6-0.9v0.4C7.3,12,7.3,9,7.4,10.2v0.2
		c0.3,0.5,0.6-0.6,0.8,1.3c0-1.8,0.3,0.8,0.3-1.7c0.2,1.2,0.1,1.7,0.3,2.5C8.9,12.6,8.9,11,9,10.7V12l0.1-1.3v1.5l0.1-0.3
		c0-0.1-0.1-0.6-0.1-0.9c0.1-0.6,0.3,0.9,0.3,1.6l0.3-1.1c0,0.4,0,0.6-0.1,0.8c0.1-0.7,0,1.5,0.1,0.4c0-0.3,0-0.8,0-1
		c0.1,0.8,0.2,0.8,0.3,0.5v0.9c0.2,0.2,0.4-0.4,0.6-0.4c-0.1-0.4-0.1-1.9,0-2.1V12c0-0.8-0.1-0.5,0-1.5c0.1,0.2,0,1.5,0,2l0.1-0.5
		c0,0.4,0,0.6,0,1.1c0-0.8,0.2,1.4,0.2-0.1v0.4c0.2,0,0.3-0.5,0.5-0.5c0-1.2,0.1-0.9,0.1-1.9c0.1,0.4,0.3,1.3,0.4,1.2
		c0.1-0.6,0-1,0.1-1.7c0,1.1,0.2,1,0.1,1.7c0.2-0.2,0.2-0.2,0.5-1.1c0-0.4-0.1-0.6,0-1c0-0.2,0.1,0.4,0.1,1v0.1c0.3-1.6,0.6,3,0.8,1
		l0.2-1.1c0.1,0.2-0.1,0.8,0,1.5c0.2-1.8,0.4,0.3,0.6-0.9c0.1,3.1,0.5-0.2,0.7,1.8v-0.7c0.1-0.7,0.1,0.4,0.1,0.6
		c0-0.6-0.1-0.7,0-1.1c0.5-0.9,0.9,1.1,1.4,1.8c0.2,0.2,0.1-3.8,0.3-2.1l0.2,1c0.3-1.6,0.7,0.1,1-1.3c0,0.3,0,0.7-0.1,0.7
		c0.1,1,0.3,0,0.3-0.8c0.1,0.1,0,0.7,0,1.2c0.1,0.6,0.2-1.3,0.2-0.3c0,0.1,0,0.2,0,0.3c0.1-0.3,0.2,0.1,0.2-0.9
		c0.1,0.6,0.2-0.5,0.3,0.2c0.1-1.3,0.2,0.6,0.2-1.2c0,1.9,0.2,1.5,0.3,0.6c0,0.6,0.1,0.6,0,1.4c0.1,0,0.2-0.4,0.2-1.3
		c0.2,2.3,0.3-1.8,0.4,1.1c0.3-1,0.5-1.7,0.8-2.1c0,1.9-0.3,0.2-0.3,2.2c0.2-0.8,0.4-2.4,0.6-1.9c0.1,0.3,0,0.8-0.1,1.1
		c0.2-0.8,0.4,0.2,0.7-0.8c0,0.2,0,0.4,0,0.5c0-0.1,0.1,0.3,0.1-0.6v0.2c0-0.8,0-1.6,0.1-2.2h-0.4c0-0.2,0-0.4,0.1-0.6l0,0
		c-0.1,0.4-0.5,0.7-1,0.7c-0.6,0-1-0.4-1-1.1c0-0.5,0-0.9,0-1.4h-0.4V6h1c0,0.6,0,1.1,0,1.7c0,0.4,0.2,0.7,0.6,0.7s0.7-0.3,0.7-0.9
		V6.4h-0.4V6h1v2.4h0.4v0.4H22c0,0.9,0.2,0.2,0.1,2.7c0-0.2,0.1-0.6,0.1-1.1c0,0.2,0.1,0.5,0,1.1c0.1-0.5,0.1-1.4,0.2-1.4
		c0,0.4,0,0.6,0,1.1c0.1-0.8,0.1-1.6,0.2-1.3c0,0.2,0,0.5,0,0.6c0.2-0.2,0.3-2.1,0.5-1.4c-0.1,1.8,0.1,0.6,0.1,2.1l0.1-0.5V9.9
		c0.1,0,0.2-1.1,0.3-0.6l-0.1,0.6l0.2-0.3L23.6,9c0.1-0.8,0-2,0.1-1.5c0,0.2,0.1,0,0.1,0.9l0,0c0.1-0.5,0.1-1,0.2-0.6
		c0,0.5,0,1.7,0,2c0.1-1.3,0.2-0.4,0.3-1.6c0,0.4,0,1.1,0,1.2V8.3c0,0.3,0.1,0.5,0,1.2c0.1,0.2,0-2,0.1-1.1c0,0.1,0,0.2,0,0.4
		c0.2,0.4,0.3-0.7,0.5-0.1c0,1.6-0.1,0.4-0.1,1.7c0.2-0.3,0.5-1.9,0.7-1.5V8.7c0-2.2,0.1,1,0.3,0.1c0,0.3,0,1.2,0,0.9
		c0.1,0.4,0.3-0.5,0.5-1.2v0.6c0.1,0.5,0.2,0.3,0.3,0.6c0-0.6,0.1-0.5,0.1-1.3c0.1,1.6,0.3,1.3,0.4,0.7c-0.1,0-0.1-0.3,0-0.4
		s0.1,0.1,0.2,0.7c0,0-0.1,0.5,0,0.5c0.1-0.2,0.1-0.4,0.2-0.6c0-0.9,0-0.5-0.1-1.2c0-0.5,0.1-0.9,0.1-0.9c0,0.3,0,0.6,0,1
		c0,0.3,0,0.6,0.1,0.9c0-0.3,0-0.6,0-0.8c0.1,0.7,0.1,0.3,0.1-0.2s0-1,0.1-0.5V8c0.1-0.2,0.1-0.8,0.2-0.7c0,0.9-0.1,0.4-0.1,1.2
		c0,0,0.1-0.5,0.1-0.8s0.1-0.5,0.1-0.1c0,0.2-0.1,0.3-0.1,0.5c0,0.5,0,0.6,0,0.7s0,0,0.1,0.1l0,0c0,0.1,0.1,0.2,0.1,0.3V9
		c0.1-1.1,0.1-1.2,0.2-1.2s0.1,0,0.2-0.6c-0.1,0.6-0.1,0.8-0.1,0.9s0,0.2,0,0.6c0,0.2,0.1,0.4,0.1,0.6c0-0.3,0.1-0.2,0.1-0.2
		c0,0.1,0.1,0.1,0.1-0.4c0,0.2,0.1,0,0.1,0.5c0.1-0.3,0-0.4,0-0.7c0.1-0.3,0.1-0.1,0.2,0S29.1,6.5,29.1,6.2z M5.4,2.3L5.4,2.3
		c0-0.1,0-0.3,0-0.5s0,0.1,0.1,0.3C5.4,2.2,5.4,2.3,5.4,2.3z M5.6,10C5.6,10.1,5.6,10.1,5.6,10C5.6,10.1,5.6,10.1,5.6,10L5.6,10z
		 M5.8,10c0-0.4,0-0.8,0-0.8C5.8,9.5,5.8,9.7,5.8,10C5.8,10,5.8,10,5.8,10z M12.3,5.5h-0.4v2.9h0.4v0.4h-1.4V8.4h0.4V5.8l0,0
		c0,0.2-0.1,0.3-0.1,0.5l-1,2.5H9.5l-1-2.4c0-0.1,0-0.3-0.1-0.5l0,0v2.6h0.4v0.4H7.5V8.4h0.4V5.5H7.5V5.1h1.3l1.1,2.8
		C9.9,8,10,8.1,10,8.2l0,0c0-0.1,0-0.2,0.1-0.3l1.1-2.8h1.2v0.4H12.3z M15.3,7.6h-2c0,0.5,0.4,0.9,1,0.9c0.4,0,0.7-0.1,0.9-0.2v0.5
		C15,8.9,14.6,9,14.2,9c-0.9,0-1.5-0.6-1.5-1.5C12.6,6.6,13.1,6,14,6S15.3,6.6,15.3,7.6L15.3,7.6z"/>
	<path class="st0" d="M21.2,4.8L21.2,4.8C21.3,4.5,21.2,4.6,21.2,4.8z"/>
	<path class="st0" d="M22.6,10.6L22.6,10.6L22.6,10.6z"/>
	<path class="st0" d="M22.4,1.7c0,0,0,0,0-0.1C22.4,1.7,22.4,1.7,22.4,1.7z"/>
	<path class="st0" d="M18.5,12.8v0.1C18.5,12.9,18.5,12.8,18.5,12.8z"/>
	<path class="st0" d="M21.7,4.4L21.7,4.4L21.7,4.4z"/>
	<path class="st0" d="M5.3,3.4C5.3,3.5,5.3,3.5,5.3,3.4c0,0.2,0,0.3,0,0.3S5.4,3.5,5.3,3.4L5.3,3.4z"/>
	<path class="st0" d="M26.3,5.2c0,0,0,0.1,0,0.2C26.3,5.3,26.3,5.3,26.3,5.2L26.3,5.2z"/>
	<polygon class="st0" points="9.1,12.3 9.1,12 9,12.2 	"/>
	<path class="st0" d="M27.6,9c0,0.1,0,0.2,0,0.3C27.6,9.2,27.6,9.1,27.6,9z"/>
	<path class="st0" d="M28.1,8.9l0.1,0.3C28.2,9,28.1,8.9,28.1,8.9z"/>
	<path class="st0" d="M28.5,9c0-0.2,0-0.2,0-0.3l0,0V9z"/>
	<path class="st0" d="M21.8,11.5L21.8,11.5C21.7,11.7,21.8,11.6,21.8,11.5z"/>
	<path class="st0" d="M23.8,8.7c0,0.2,0,0.4-0.1,0.6C23.8,9.4,23.8,9.4,23.8,8.7z"/>
	<path class="st0" d="M19.5,12.8L19.5,12.8C19.6,12.8,19.6,12.8,19.5,12.8C19.6,12.8,19.6,12.8,19.5,12.8z"/>
	<path class="st0" d="M23.7,9.3C23.7,9.5,23.7,9.4,23.7,9.3C23.7,9.2,23.7,9.1,23.7,9.3z"/>
	<path class="st0" d="M29.1,5.5C29,5.1,29,5.2,29.1,5.5C29,5.7,29,6,28.9,5.9C29,6,29,6,29.1,6.1C29.1,5.9,29,5.5,29.1,5.5z"/>
	<path class="st0" d="M28.5,4.6c0,0.2-0.1,0.3,0,0.6C28.6,5.1,28.5,4.8,28.5,4.6z"/>
	<path class="st0" d="M25.3,4.3V3.2C25.3,3.4,25.3,3.6,25.3,4.3z"/>
	<polygon class="st0" points="24.7,10.5 24.8,9.5 24.7,9.8 	"/>
	<polygon class="st0" points="24.4,2.1 24.3,2.4 24.3,2.2 	"/>
	<path class="st0" d="M19,2.6v1.3C19,3.7,19,2.2,19,2.6z"/>
	<path class="st0" d="M16.7,3.9c0-0.7-0.1-1.1-0.1-0.4C16.6,3.6,16.6,4.1,16.7,3.9z"/>
	<polygon class="st0" points="9.8,1.3 9.7,1.7 9.7,1.7 	"/>
	<path class="st0" d="M17.2,6L17.2,6C17.2,6.1,17.2,6.1,17.2,6C17.2,6.1,17.2,6.1,17.2,6z"/>
	<path class="st0" d="M21.7,4.7L21.7,4.7C21.7,4.8,21.7,4.8,21.7,4.7C21.7,4.8,21.7,4.8,21.7,4.7z"/>
	<path class="st0" d="M21.3,4.7L21.3,4.7c0,0.1,0,0.2,0,0.4C21.3,4.9,21.3,4.8,21.3,4.7z"/>
	<path class="st0" d="M21.2,4.8L21,4.9l0,0C21.1,5.5,21.1,5.1,21.2,4.8z"/>
	<path class="st0" d="M22,7.9c0,0.2,0,0.6-0.1,1H22C22,8.7,22,8.3,22,7.9z"/>
</g>
</svg>
