<?xml version="1.0" encoding="utf-8"?>
<!-- Generator: Adobe Illustrator 21.1.0, SVG Export Plug-In . SVG Version: 6.00 Build 0)  -->
<svg version="1.1" id="Layer_1" xmlns="http://www.w3.org/2000/svg" xmlns:xlink="http://www.w3.org/1999/xlink" x="0px" y="0px"
	 viewBox="0 0 24.6 8.2" style="enable-background:new 0 0 24.6 8.2;" xml:space="preserve">
<style type="text/css">
	.st0{fill:#FFFFFF;}
</style>
<g>
	<path class="st0" d="M15.2,3.4c-0.2,0-0.4,0.1-0.5,0.2c-0.1,0.1-0.2,0.3-0.2,0.5h1.5V4.1c0-0.2-0.1-0.3-0.2-0.5
		C15.6,3.5,15.4,3.4,15.2,3.4z"/>
	<path class="st0" d="M6.3,2.4H5.9l0,1.5h0.5c0.3,0,0.5-0.1,0.6-0.2c0.1-0.1,0.2-0.3,0.2-0.6c0-0.2-0.1-0.4-0.2-0.5
		C6.8,2.5,6.6,2.4,6.3,2.4z"/>
	<path class="st0" d="M9.8,3.5c-0.3,0-0.5,0.1-0.7,0.3C9,4,8.9,4.2,8.9,4.5C8.9,4.8,9,5,9.1,5.2c0.1,0.2,0.3,0.3,0.6,0.3
		c0.3,0,0.5-0.1,0.6-0.3c0.1-0.2,0.2-0.5,0.2-0.8c0-0.3-0.1-0.6-0.2-0.7C10.2,3.6,10,3.5,9.8,3.5z"/>
	<path class="st0" d="M24.2,4c-0.4,0.4-0.9,0.8-1.3,1.2c-0.4,0.4-0.8,0.6-1.1,0.8c-0.1,0.1-0.1-0.1,0-0.3c0.1-0.2,0.1-0.4,0-0.5
		c-0.1,0-0.3,0.1-0.4,0.2c-0.1,0-0.2,0.1-0.2,0.1c-0.1,0-0.1,0-0.2,0c-0.1-0.2-0.1-0.5,0-0.7C21,4.5,21,4.3,20.9,4
		c-0.2-0.5-1.1-0.2-1.3-0.5c-0.7-0.3,0.4-0.5,1.1-0.5C20.6,3,20.7,3,20.9,3c0.1,0,0.1,0,0.2,0c0.1,0,0.1-0.1,0.1-0.1
		c0-0.3,0-0.6-0.1-0.9c-0.1-0.1-0.1-0.2-0.3-0.4c-0.1-0.1-0.3-0.3-0.5-0.4c-0.2-0.2,0-0.6,0-0.9c-2.6,0-5.5,0-8.2,0.6
		C9.9,1.2,7.2,0.6,5.1,1.1C4.7,1.1,4.3,1,3.9,1C3.8,1,3.8,1,3.7,1c-0.1,0-0.1,0-0.1,0c-0.1,0-0.2,0-0.3,0C3.2,1,3.1,1.1,3,1.3
		C3,1.4,2.9,1.5,2.8,1.6l0.3-0.2c0.1-0.1,0.2-0.1,0.3-0.1c-0.1,0-0.2,0.1-0.2,0.1C3.2,1.5,3.1,1.6,3,1.7C2.8,1.8,2.7,1.9,2.5,2
		C2.3,2.1,2.2,2.2,2,2.3C1.8,2.5,1.7,2.6,1.5,2.8c0,0.1,0,0.2-0.2,0.4c0.2-0.1,0.5-0.3,0.8-0.5c0.3-0.2,0.6-0.3,0.8-0.4l0,0.4
		C2.6,2.9,2.3,2.9,2.1,3C1.8,3.1,1.5,3.2,1.3,3.4c0,0.1,0,0.2,0,0.2c0,0.1-0.2,0.1-0.4,0.1c0.2,0,0.7-0.1,0.9-0.2c0,0.1,0,0.3,0,0.3
		C1.7,4,1.5,4,1.3,4c0,0.1-0.1,0.1-0.1,0.2c0,0,0,0.1,0.1,0.1l0.7,0.2C1.5,4.4,1.2,4.4,1,4.3C0.7,4.3,0.6,4.2,0.6,4.3
		c0.1,0.1,0.2,0.1,0.2,0.2C0.9,4.5,1,4.6,1.1,4.7C0.7,4.5,0.4,4.1,0.3,3.9c0,0,0,0,0,0C0.3,4,0.4,4.2,0.6,4.5L1,5l0.4,0.5l0.4,0.5
		l0.2,0.2l0.2,0.2l0.4,0.4C2.5,7,2.7,7.1,2.8,7.3l0.4,0.4c0.1,0.1,0.1,0.1,0.2,0.1c0.1,0,0.1,0,0.2,0c0.1,0,0.1-0.1,0.2-0.1
		c0.1,0,0.1,0,0.2,0l0.4,0l0.7,0c0.5,0,1,0,1.5,0c2,0,3.9,0,5.9-0.1c2-0.1,3.9-0.1,5.9-0.2c0.5,0,1,0,1.5-0.1l0.7,0l0.4,0
		c0.1,0,0.1,0,0.2,0c0.1,0,0.1,0,0.2,0c0.1,0,0.1-0.1,0.2-0.1l0.2-0.2l0.4-0.4c0.2-0.3,0.5-0.5,0.7-0.8l0.7-0.8l0.2-0.2l0.2-0.2
		L24,4.3C24.1,4.1,24.2,4,24.2,4C24.2,4,24.2,4,24.2,4z M7.7,3.8C7.6,4,7.5,4.1,7.3,4.2C7.1,4.3,6.8,4.4,6.5,4.4H5.9l0,1.1h0.5V6
		H4.9V5.5h0.4l0-3.1H4.9V2h1.5C6.6,2,6.8,2,7,2c0.1,0,0.3,0.1,0.4,0.1c0.2,0.1,0.3,0.2,0.4,0.4c0.1,0.2,0.1,0.4,0.1,0.6
		C7.9,3.4,7.8,3.6,7.7,3.8z M10.8,5.6C10.6,5.9,10.2,6,9.7,6C9.2,6,8.8,5.9,8.6,5.6C8.4,5.3,8.2,5,8.2,4.5c0-0.5,0.1-0.9,0.4-1.2
		C9,3.1,9.3,2.9,9.8,2.9c0.3,0,0.5,0,0.7,0.1c0.2,0.1,0.3,0.2,0.5,0.4c0.1,0.2,0.2,0.3,0.2,0.5c0.1,0.2,0.1,0.4,0.1,0.6
		C11.2,4.9,11.1,5.3,10.8,5.6z M13.6,5.9C13.4,6,13.1,6,12.9,6c-0.3,0-0.5-0.1-0.7-0.2C12.1,5.7,12,5.5,12,5.1c0-0.1,0-0.6,0-1.7
		h-0.5V3H12l0-0.7l0.6,0l0,0.7h0.9v0.5h-0.9c0,0.6,0,1.1,0,1.4c0,0.3,0,0.4,0.1,0.5c0.1,0.1,0.2,0.1,0.3,0.1c0.1,0,0.3,0,0.5-0.1
		L13.6,5.9z M16.5,4.6h-2.1c0,0.3,0.1,0.5,0.3,0.7c0.2,0.2,0.4,0.3,0.7,0.3c0.3,0,0.7-0.1,1-0.2l0,0.5C16,6,15.7,6,15.3,6
		c-0.5,0-0.9-0.1-1.1-0.4c-0.3-0.3-0.4-0.7-0.4-1.1c0-0.5,0.1-0.8,0.4-1.1c0.3-0.3,0.6-0.4,1.1-0.4c0.4,0,0.8,0.1,1,0.4
		C16.4,3.6,16.5,4,16.5,4.6L16.5,4.6z M18.8,5.9C18.7,6,18.4,6,18.2,6c-0.3,0-0.5-0.1-0.7-0.2c-0.1-0.1-0.2-0.4-0.2-0.7
		c0-0.1,0-0.6,0-1.7h-0.5V3h0.5l0-0.7l0.6,0L18,3h0.9v0.5H18c0,0.6,0,1.1,0,1.4c0,0.3,0,0.4,0.1,0.5c0.1,0.1,0.2,0.1,0.3,0.1
		c0.1,0,0.3,0,0.5-0.1L18.8,5.9z"/>
	<path class="st0" d="M24.2,4L24.2,4C24.3,4,24.3,4,24.2,4C24.3,4,24.3,4,24.2,4z"/>
	<path class="st0" d="M0.2,3.9C0.2,3.9,0.2,3.9,0.2,3.9C0.2,3.9,0.2,3.9,0.2,3.9C0.2,3.9,0.2,3.9,0.2,3.9C0.2,3.9,0.2,3.9,0.2,3.9z"
		/>
</g>
</svg>
