<?xml version="1.0" encoding="utf-8"?>
<!-- Generator: Adobe Illustrator 21.1.0, SVG Export Plug-In . SVG Version: 6.00 Build 0)  -->
<svg version="1.1" id="Layer_1" xmlns="http://www.w3.org/2000/svg" xmlns:xlink="http://www.w3.org/1999/xlink" x="0px" y="0px"
	 viewBox="0 0 24.6 8.2" style="enable-background:new 0 0 24.6 8.2;" xml:space="preserve">
<style type="text/css">
	.st0{fill:#FFC521;}
</style>
<g>
	<path class="st0" d="M15.2,3.4c-0.2,0-0.4,0.1-0.5,0.2c-0.1,0.1-0.2,0.3-0.2,0.5H16v0c0-0.2-0.1-0.3-0.2-0.5
		C15.6,3.5,15.4,3.4,15.2,3.4z"/>
	<path class="st0" d="M6.3,2.4H5.9v1.5h0.5c0.3,0,0.5-0.1,0.6-0.2c0.1-0.1,0.2-0.3,0.2-0.6c0-0.2-0.1-0.4-0.2-0.5
		C6.8,2.5,6.6,2.4,6.3,2.4z"/>
	<path class="st0" d="M9.8,3.5c-0.3,0-0.5,0.1-0.7,0.3C9,4,8.9,4.2,8.9,4.5S9,5,9.1,5.2s0.3,0.3,0.6,0.3s0.5-0.1,0.6-0.3
		c0.1-0.2,0.2-0.5,0.2-0.8s-0.1-0.6-0.2-0.7C10.2,3.6,10,3.5,9.8,3.5z"/>
	<path class="st0" d="M24.2,4c-0.4,0.4-0.9,0.8-1.3,1.2c-0.4,0.4-0.8,0.6-1.1,0.8c-0.1,0.1-0.1-0.1,0-0.3c0.1-0.2,0.1-0.4,0-0.5
		c-0.1,0-0.3,0.1-0.4,0.2c-0.1,0-0.2,0.1-0.2,0.1c-0.1,0-0.1,0-0.2,0c-0.1-0.2-0.1-0.5,0-0.7c0-0.3,0-0.5-0.1-0.8
		c-0.2-0.5-1.1-0.2-1.3-0.5C18.9,3.2,20,3,20.7,3c-0.1,0,0,0,0.2,0C21,3,21,3,21.1,3s0.1-0.1,0.1-0.1c0-0.3,0-0.6-0.1-0.9
		C21,1.9,21,1.8,20.8,1.6c-0.1-0.1-0.3-0.3-0.5-0.4c-0.2-0.2,0-0.6,0-0.9c-2.6,0-5.5,0-8.2,0.6c-2.2,0.3-4.9-0.3-7,0.2
		C4.7,1.1,4.3,1,3.9,1C3.8,1,3.8,1,3.7,1S3.6,1,3.6,1C3.5,1,3.4,1,3.3,1C3.2,1,3.1,1.1,3,1.3c0,0.1-0.1,0.2-0.2,0.3l0.3-0.2
		c0.1-0.1,0.2-0.1,0.3-0.1c-0.1,0-0.2,0.1-0.2,0.1c0,0.1-0.1,0.2-0.2,0.3C2.8,1.8,2.7,1.9,2.5,2C2.3,2.1,2.2,2.2,2,2.3
		C1.8,2.5,1.7,2.6,1.5,2.8c0,0.1,0,0.2-0.2,0.4c0.2-0.1,0.5-0.3,0.8-0.5s0.6-0.3,0.8-0.4v0.4C2.6,2.9,2.3,2.9,2.1,3
		C1.8,3.1,1.5,3.2,1.3,3.4c0,0.1,0,0.2,0,0.2c0,0.1-0.2,0.1-0.4,0.1c0.2,0,0.7-0.1,0.9-0.2c0,0.1,0,0.3,0,0.3C1.7,4,1.5,4,1.3,4
		c0,0.1-0.1,0.1-0.1,0.2c0,0,0,0.1,0.1,0.1L2,4.5C1.5,4.4,1.2,4.4,1,4.3c-0.3,0-0.4-0.1-0.4,0c0.1,0.1,0.2,0.1,0.2,0.2
		c0.1,0,0.2,0.1,0.3,0.2C0.7,4.5,0.4,4.1,0.3,3.9l0,0c0,0.1,0.1,0.3,0.3,0.6L1,5l0.4,0.5L1.8,6L2,6.2l0.2,0.2l0.4,0.4
		C2.5,7,2.7,7.1,2.8,7.3l0.4,0.4c0.1,0.1,0.1,0.1,0.2,0.1c0.1,0,0.1,0,0.2,0c0.1,0,0.1-0.1,0.2-0.1c0.1,0,0.1,0,0.2,0h0.4h0.7
		c0.5,0,1,0,1.5,0c2,0,3.9,0,5.9-0.1s3.9-0.1,5.9-0.2c0.5,0,1,0,1.5-0.1h0.7H21c0.1,0,0.1,0,0.2,0s0.1,0,0.2,0s0.1-0.1,0.2-0.1
		L21.8,7l0.4-0.4c0.2-0.3,0.5-0.5,0.7-0.8L23.6,5l0.2-0.2L24,4.6l0-0.3C24.1,4.1,24.2,4,24.2,4L24.2,4z M7.7,3.8
		C7.6,4,7.5,4.1,7.3,4.2C7.1,4.3,6.8,4.4,6.5,4.4H5.9v1.1h0.5V6H4.9V5.5h0.4V2.4H4.9V2h1.5C6.6,2,6.8,2,7,2c0.1,0,0.3,0.1,0.4,0.1
		c0.2,0.1,0.3,0.2,0.4,0.4s0.1,0.4,0.1,0.6C7.9,3.4,7.8,3.6,7.7,3.8z M10.8,5.6C10.6,5.9,10.2,6,9.7,6S8.8,5.9,8.6,5.6
		C8.4,5.3,8.2,5,8.2,4.5s0.1-0.9,0.4-1.2C9,3.1,9.3,2.9,9.8,2.9c0.3,0,0.5,0,0.7,0.1s0.3,0.2,0.5,0.4c0.1,0.2,0.2,0.3,0.2,0.5
		c0.1,0.2,0.1,0.4,0.1,0.6C11.2,4.9,11.1,5.3,10.8,5.6z M13.6,5.9C13.4,6,13.1,6,12.9,6c-0.3,0-0.5-0.1-0.7-0.2
		C12.1,5.7,12,5.5,12,5.1c0-0.1,0-0.6,0-1.7h-0.5V3H12V2.3h0.6V3h0.9v0.5h-0.9c0,0.6,0,1.1,0,1.4s0,0.4,0.1,0.5s0.2,0.1,0.3,0.1
		s0.3,0,0.5-0.1L13.6,5.9z M16.5,4.6h-2.1c0,0.3,0.1,0.5,0.3,0.7s0.4,0.3,0.7,0.3s0.7-0.1,1-0.2v0.5C16,6,15.7,6,15.3,6
		c-0.5,0-0.9-0.1-1.1-0.4c-0.3-0.3-0.4-0.7-0.4-1.1c0-0.5,0.1-0.8,0.4-1.1C14.5,3.1,14.8,3,15.3,3c0.4,0,0.8,0.1,1,0.4
		C16.4,3.6,16.5,4,16.5,4.6L16.5,4.6z M18.8,5.9C18.7,6,18.4,6,18.2,6c-0.3,0-0.5-0.1-0.7-0.2c-0.1-0.1-0.2-0.4-0.2-0.7
		c0-0.1,0-0.6,0-1.7h-0.5V3h0.5V2.3h0.6L18,3h0.9v0.5H18c0,0.6,0,1.1,0,1.4s0,0.4,0.1,0.5s0.2,0.1,0.3,0.1c0.1,0,0.3,0,0.5-0.1
		L18.8,5.9z"/>
	<path class="st0" d="M24.2,4L24.2,4C24.3,4,24.3,4,24.2,4C24.3,4,24.3,4,24.2,4z"/>
	<path class="st0" d="M0.2,3.9L0.2,3.9L0.2,3.9L0.2,3.9L0.2,3.9z"/>
</g>
</svg>
