<?xml version="1.0" encoding="utf-8"?>
<!-- Generator: Adobe Illustrator 21.1.0, SVG Export Plug-In . SVG Version: 6.00 Build 0)  -->
<svg version="1.1" id="Layer_1" xmlns="http://www.w3.org/2000/svg" xmlns:xlink="http://www.w3.org/1999/xlink" x="0px" y="0px"
	 viewBox="0 0 18.5 8.2" style="enable-background:new 0 0 18.5 8.2;" xml:space="preserve">
<style type="text/css">
	.st0{fill:#0E8442;}
	.st1{fill:#BC7129;}
</style>
<g>
	<path class="st0" d="M1146.5,106.1c-0.4,0-0.8,0-0.8,0c0,0.2,0,0.4,0,0.6C1146,106.5,1146.3,106.3,1146.5,106.1z"/>
	<path class="st0" d="M1147.3,99.1c-0.1,0-0.2,0-0.2,0c0,0.2,0,0.3,0,0.5C1147.1,99.4,1147.2,99.2,1147.3,99.1z"/>
	<path class="st0" d="M1145.8,106.7c0,2.1,0.4,4.3,0,6.4c-0.4,0-1.2,0-1.7,0c-0.4,1.2,0,2.3,0,3.5c-0.4,0-0.8,0-0.8,0.6
		c-0.3,1.5,0.2,2.6,1,2.9C1146,113.6,1150.6,111.3,1145.8,106.7z"/>
	<path class="st0" d="M1149.1,102c-0.7,0-1.5,0-2.2,0c-0.2,1.3-0.5,2.7-0.3,4C1147.7,105.1,1148.4,103.9,1149.1,102z"/>
	<path class="st0" d="M1318.4,100.1c0-0.4,0-0.5,0.4,0C1318.6,100.1,1318.5,100.1,1318.4,100.1c0,0.3,0,0.8-0.2,1
		c1.4-0.7,3.1-1.3,4.8-1.5c0.2-0.6,0.4-1.3,0.6-1.9c-4.1,0.3-8.1,0.3-11.5,3.4C1314.5,101.2,1316.1,100.2,1318.4,100.1z"/>
	<path class="st0" d="M1323.9,94.2c0.1,0,0.3,0,0.4,0C1324,93.7,1323.9,93.9,1323.9,94.2z"/>
	<path class="st0" d="M1251.5,107.2c-2.5,0.5-4.7,2.5-6.9,4.5c4.7-1.7,9.6-2.5,13.2-4.7C1255.6,107.2,1253.6,107.2,1251.5,107.2z"/>
	<path class="st0" d="M1233.4,119.4c3.1,1.1,5.7-0.3,8.1-2.3c-2.5,0.5-5,1-7.4,1.5C1233.9,118.8,1233.6,119.1,1233.4,119.4z"/>
	<path class="st0" d="M1236.9,115.8c2.8,0,5.3-2,7.6-4C1241.8,112.6,1239.2,113.9,1236.9,115.8z"/>
	<path class="st0" d="M1293.3,62.1c1.9-1.7,3-2.4,3.7-2.6c0.3-0.8,0.7-1.8,1.2-3.1c-0.1,0-0.2,0-0.3,0c-1.9,1.1-3.9,2-5.9,2.9
		c-0.8,0.7-1.6,1.5-2.2,2.5C1290.9,61.9,1292.1,62,1293.3,62.1z"/>
	<path class="st0" d="M1297,59.4C1294.5,66.4,1299.5,58.7,1297,59.4L1297,59.4z"/>
	<path class="st0" d="M1284.7,96.2c-0.1,0-0.2,0-0.3,0c-0.3,0.1-0.6,0.3-0.8,0.4C1284,96.5,1284.4,96.4,1284.7,96.2z"/>
	<path class="st0" d="M1261.7,79.5c1.6-0.2,3.3-0.6,4.9-1.2c-3.3,0.6-6.7,1.2-9.5,2.9c0.4,0,0.8,0.6,1.2,0.6
		C1259.2,80.7,1260.4,79.5,1261.7,79.5z"/>
	<path class="st0" d="M1297.7,90.8c-4.5,1.5-9,3.3-13.3,5.4c-8.7,0.2-17.1,1.6-24.7,6.3c-6.7,4.7-18.3,3.5-25,12.8
		c0.7,0.3,1.4,0.4,2.1,0.4c-1,0.8-1.9,1.7-2.8,2.8c-11,2-21.7,3.2-32.9,3.2c-1.7,0-2.9,1.8-4.6,1.7c-1.7,0.1-3.3,0.2-5,0.3
		c0,0.1,0,0.3,0.1,0.4c-6.8,0.7-13.6,1.8-20.7,3.8c-3.3,0.6-6.6,0-10,0c-1.2,0-1.2-2.4-2.1-2.9c-3.3-2.9-5.8-5.3-9.5-6.5
		c0,0,0-1.2,0-1.8c-0.6,0.2-1.1,0.2-1.5,0c1.8-6.6,6.4-8.9,1.6-13.5l0,0c0.3-0.2,0.5-0.4,0.7-0.6h0.1c0,0,0,0,0-0.1
		c1.1-1,1.8-2.1,2.5-4c-0.7,0-1.5,0-2.2,0c0.1-0.8,0.2-1.6,0.2-2.5c0.1-0.2,0.1-0.3,0.2-0.5c0.3,0,0.6,0,0.6,0
		c0.1-0.5,0.2-0.9,0.2-1.4c1.9-2.5,4.9-3.8,4.4-6.3c-0.4-1.3-1.8-0.2-3.4,0.6c-0.1-0.2-0.2-0.4-0.3-0.6c2.1-0.6,0-4.1,1.3-4.7
		c1.7,0,3.3-0.6,5-0.6c6.8,0,12.5-0.5,19.1-2.3c0.3-0.1,0.6-0.1,0.9-0.2c3.2-0.7,6.3-0.8,9.4-0.4c-0.2,0.4-0.4,0.8-0.6,1.1
		c2.5,0.4,5.1,0.5,7.6-0.4c6.2-2.3,12.5-4.6,19.1-5.2c7-0.4,13.7-1.6,20.7-3.6c-2.9,1.3-5.8,2.5-8.7,2.9c-1.3-0.1-2.7-0.1-3.9,0
		c1.3,0.2,2.6,0.2,3.9,0c5.1,0.3,10.4,1,14.3-4.5c0.4,0.5,0.4,1.1,0.8,1.1c2.9,0,5.8,0.6,8.3-1.7c0-0.6,1.2-0.6,0.8-1.8
		c2.5-0.6,5.4-0.6,7.9-1.7c1.1-0.4,2.2-1.5,3.2-2.9c8.9-3.1,17.7-6.2,27.4-9.2c2.4-0.6,5.1-0.6,7.6-0.6c-3.6,1.9-7.2,3.6-11,5
		c-3.6-0.4-7.1-0.5-9.9,2.5c-0.7,0.6-1.3,1.1-2,1.6c4-1.3,8-2.6,11.9-4.1c2.1,0.3,4.3,0.7,6.4,0.7l-0.1,0.1
		c-1.7,0.7-3.4,1.5-5.1,2.1c-3.2-0.4-6.3-0.4-8.9,1.7c-0.3,0.3-0.7,0.6-1,0.9c-0.7,0.6-1.3,1.1-2,1.6c2.5-0.8,4.9-1.6,7.4-2.5
		c1.5-0.5,3-1.1,4.5-1.7c0.9,0.1,1.9,0.3,2.8,0.4c-0.1,0.1-0.2,0.3-0.3,0.5c-0.8,0.6-3.2,7.5-1.9,9.2c6.4-0.1,15.4-2.9,15.4-2.3
		c0.4,2.3-10.6,5.4-10.1,6c0.6,0.3,1.2,0.5,1.8,0.7c-0.6,0.5-1.2,1-1.7,1.5c-1.2,0.6-2.9,0-3.7,1.2c-2.9,3.5-6.2,2.3-9.6,4.7
		c-2.1,1.8-4.6,4.1-7.1,6.4c0,1.2-1.3,0.6-0.8,1.8c-2.3,0-5.1,0-6.1,3.4c-0.1,0-0.1,0.1-0.2,0.1c-0.2,0-0.4,0.2-0.7,0.5
		c-3.9-0.6-6.6,2.6-10.2,4.9c-1.2,0.3-2.5,0.5-3.7,0.5c0.8,0,2.1,0.6,2.9,0c0.3-0.2,0.5-0.3,0.8-0.5c3.2-0.8,6.2-2.3,9.2-3.6
		c0.2-0.3,0.6-0.9,1-1.3c0.2,0,0.4,0.1,0.7,0.1c0.1-0.2,0.1-0.5,0.2-0.7c2.9-1.7,6.1-2.3,8.6-4c4.6-2,9.5-1,14.2-0.6
		c-2.3,1-4.7,2-6.9,3.2c2.8-1,5.5-2,8.1-3.1c0.4,0,0.8,0,1.2,0h2.5c-0.8-0.3-1.5-0.5-2.3-0.6c1.6-0.7,3.1-1.4,4.6-2.1
		c8.3-2.7,16.9-4.1,25.4-3.2c-0.2,0.7-0.4,1.4-0.6,2.1c-4.1,0.3-8.1,0.3-11.5,3.4c2.3,0,4-1,6.2-1.1c0,0.3,0,0.8-0.2,1
		c1.4-0.7,3.1-1.3,4.8-1.5c-0.5,1.5-1.1,3-1.7,4.5c-0.8,1.2-2.1,1.2-3.3,1.7c-5.4,1-10.5,0.7-15.8,2.1c-4.7-0.2-9.4-0.5-14.1-0.4
		C1289.4,94.6,1293.6,92.9,1297.7,90.8z M1158.4,105.6c0.4-0.2,0.9-0.5,1.3-0.8c-0.1-0.1-0.1-0.3-0.2-0.4
		C1159.1,104.4,1158.7,104.9,1158.4,105.6z M1168.1,106.2c-2.8-1-6.6,0.3-10.2,1.2c0,0.2,0,0.3,0,0.5
		C1160.8,108.5,1164.6,107,1168.1,106.2z M1179.4,118.5c0-0.1,0-0.1-0.1-0.2C1179.3,118.4,1179.3,118.5,1179.4,118.5L1179.4,118.5z
		 M1230.1,100c-3.3,2.9-7.5,2.9-11.6,4.1c-1.2,0-2.5,2.3-4.2,2.3c-2.1,0.6-3.3,1.7-5,2.3l1.2,1.2c-2.9-0.6-4.6,2.9-7.5,1.7
		c0,0.6-0.4,1.8-0.8,1.8c-2.1,0.6-4.2-0.6-5.8,0.6c-2.1,0.6-4.2,0.6-5.8,1.7c-0.4,0-1.3,1.8-2.1,2.3c-1,0.2-2,0.4-3,0.5
		c0,0.2,0.1,0.3,0.1,0.5c0.8,0,1.7,0,2.5-0.4c2.5-1.2,5.4-2.3,7.9-2.9c6.2-1.1,12.1-3.5,17.9-5.8c1.2-0.6,2.5-1.7,3.7-2.3
		c3.7-2.3,8.3-1.7,10.8-5.8C1228.8,101.1,1229.6,101.1,1230.1,100z M1234.8,74.5c-4.4,2.5-9.2,3.6-13.4,3.1
		c-3.3,0-12.9,3.5-11.2,10.5C1214.3,75.4,1237.6,88,1234.8,74.5z M1269.5,63.9c-1.7,0.9-3.4,1.7-5.4,1.7
		C1265.9,65,1267.7,64.4,1269.5,63.9z M1251.7,87.7c5.4-4.1,11.2-4.7,16.6-7c4.2-1.7,8.7,1.2,12.5-2.9c0-0.6,0-1.2,0-1.8l-0.4,0.6
		c-1.5-0.4-2.6-1.3-3.8-1.8c0.1-0.1,0.1-0.1,0.2-0.2c-0.1,0-0.2,0.1-0.4,0.1c-0.8-0.3-1.7-0.4-2.6,0.1c-0.4,0.3-0.9,0.6-1.4,0.8
		c-5.2,1-10.6,1.9-15.3,5.6c-2.9,1.7-5.4,4.7-8.3,6.4C1249.6,87.7,1250.9,88.3,1251.7,87.7z"/>
	<path class="st0" d="M1290.1,89.4c1.8-0.7,3.6-1.4,5.4-2c1.4-0.7,2.8-1.5,4.2-2.3c6.7-3.1,14.5-2,21.6-3.4c0.2-1.7,0.2-3.5,0-5.3
		c-7.8-1.9-15.6,1.2-23.3,0.2c-0.1,0.1-0.1,0.1-0.2,0.2c-3.3,3.5-8.7,2.3-12.9,5.2c-4.2,3.5-8.3,4.7-12.5,7.6
		C1278.4,89.6,1284.2,88.3,1290.1,89.4z"/>
	<path class="st0" d="M1241.5,117.1c1.6-0.3,3.3-0.7,4.9-1.1c4.6-1.4,8.7-3.1,12.8-5.2c-3.1,0.3-6.1,0.5-9.2,0.5
		C1247,111.9,1244.3,114.8,1241.5,117.1z"/>
	<path class="st0" d="M1262.7,109c-1.1,0.6-2.3,1.2-3.4,1.8c4.5-0.4,9-1.1,13.5-1.9c7.4-2.4,14.8-4.4,22.1-7.5
		c0.8-0.3,1.7-0.6,2.5-0.8c-13.7-0.7-27.4-1.4-39.1,5.9c-0.2,0.2-0.5,0.3-0.7,0.4c5.5-0.4,11-1.2,16.5-2.1
		C1270.3,106.1,1266.5,107.4,1262.7,109z"/>
	<path class="st0" d="M1288.3,90.1c0.4,0,0.8,0.1,1.2,0.1c0.5-0.2,0.9-0.4,1.4-0.6c-0.3-0.1-0.6-0.1-0.8-0.2
		C1289.5,89.7,1288.9,89.9,1288.3,90.1z"/>
	<path class="st0" d="M1276.5,74.9c-0.1,0-0.1,0-0.2-0.1c-1.3,0.3-2.7,0.6-4,0.9c-1.9,1.1-3.8,2-5.8,2.6
		C1270.2,77.7,1273.7,77,1276.5,74.9z"/>
	<path class="st0" d="M1265.1,60.8c-0.4,0-1.2,0-1.7,0c-0.3,0.4-0.5,0.7-0.8,1.1c0.4,0,0.8,0.1,1.2,0.1L1265.1,60.8z"/>
	<path class="st0" d="M1240.5,70.2c7.4-2.3,14.3-4.6,21.1-7c0.3-0.4,0.7-0.9,1-1.3c-4.6-0.4-9.2,0.4-13.4,3.6
		c-0.8,0.6-2.1,2.3-2.9,2.3c-3.9,0.5-7.7,2.4-11.4,4.1c1.8-0.5,3.6-1,5.4-1.6C1240.4,70.2,1240.5,70.2,1240.5,70.2z"/>
</g>
<g>
	<path class="st1" d="M18.3,4.1L18.3,4.1L18.3,4.1z"/>
	<path class="st1" d="M18.3,4.1L18.3,4.1L18.3,4.1L18.3,4.1z"/>
	<path class="st1" d="M18.2,4.1C18.1,4.1,18.2,4.1,18.2,4.1C18.1,4.1,18.1,4.1,18.2,4.1c-0.1,0.1-0.1,0.1,0,0.2
		C18.1,4.2,18.1,4.2,18.2,4.1C18.2,4.2,18.2,4.2,18.2,4.1L18.2,4.1c0.1,0,0.1,0,0.1,0C18.2,4.1,18.2,4.1,18.2,4.1z"/>
	<path class="st1" d="M15.6,3C15.6,3,15.6,2.9,15.6,3L15.6,3z"/>
	<path class="st1" d="M14,2.3c0,0.1,0,0.1,0,0.2C14,2.4,14,2.4,14,2.3z"/>
	<path class="st1" d="M13.7,1.5C13.7,1.6,13.7,1.6,13.7,1.5L13.7,1.5z"/>
	<path class="st1" d="M15.6,2.9V2.6C15.5,2.9,15.6,2.9,15.6,2.9z"/>
	<path class="st1" d="M17.8,4.6L17.8,4.6L17.8,4.6L17.8,4.6z"/>
	<path class="st1" d="M16.3,2.4L16.3,2.4c0-0.1,0-0.2,0-0.3V2.4z"/>
	<path class="st1" d="M16.8,3.4c0-0.2,0-0.3,0-0.3c0-0.1,0-0.2,0-0.3C16.8,2.7,16.8,3.2,16.8,3.4z"/>
	<path class="st1" d="M15.9,2.1c0-0.1,0-0.2,0-0.3C15.9,1.9,15.9,2,15.9,2.1z"/>
	<path class="st1" d="M0.1,4L0.1,4L0.1,4z"/>
	<path class="st1" d="M13.2,0.7L13.2,0.7C13.2,0.6,13.2,0.6,13.2,0.7z"/>
	<path class="st1" d="M8.6,1.1c0,0.6-0.1,0.8,0,1.5C8.6,2.4,8.7,1.6,8.6,1.1z"/>
	<path class="st1" d="M8.6,2.7L8.6,2.7L8.6,2.7L8.6,2.7L8.6,2.7L8.6,2.7z"/>
	<path class="st1" d="M12.1,1.4c0-0.1,0-0.2,0-0.3C12.1,1.2,12.1,1.3,12.1,1.4z"/>
	<path class="st1" d="M12.9,2.1L12.9,2.1C12.9,2,12.9,2.1,12.9,2.1z"/>
	<path class="st1" d="M11.6,2C11.6,2,11.6,1.9,11.6,2L11.6,2L11.6,2z"/>
	<path class="st1" d="M11.6,2L11.6,2L11.6,2z"/>
	<path class="st1" d="M11.1,2.1L11.1,2.1L11.1,2.1L11.1,2.1z"/>
	<path class="st1" d="M2.1,6.7c0-0.2,0-0.4,0-0.6C2.1,6.6,2.1,6.7,2.1,6.7z"/>
	<path class="st1" d="M17.8,4.6L17.8,4.6C17.8,4.6,17.8,4.5,17.8,4.6L17.8,4.6z"/>
	<path class="st1" d="M11.6,7.6l-0.1-0.1C11.5,7.5,11.5,7.6,11.6,7.6z"/>
	<path class="st1" d="M5.5,6.9L5.5,6.9C5.5,7,5.5,6.9,5.5,6.9z"/>
	<path class="st1" d="M11.3,7.6c0-0.2,0-0.4,0-0.5c0,0.1,0,0.1,0,0.2V7.6z"/>
	<path class="st1" d="M5.7,7.1L5.7,7.1C5.7,7.2,5.7,7.2,5.7,7.1z"/>
	<path class="st1" d="M0.3,4.3L0.3,4.3C0.3,4.2,0.2,4.2,0.3,4.3C0.2,4.2,0.2,4.2,0.3,4.3z"/>
	<path class="st1" d="M10.9,7.5C10.9,7.5,10.9,7.6,10.9,7.5C10.9,7.6,10.9,7.5,10.9,7.5z"/>
	<path class="st1" d="M0.3,4.3L0.3,4.3L0.3,4.3z"/>
	<path class="st1" d="M13.2,0.9C13.2,0.9,13.3,0.9,13.2,0.9L13.2,0.9z"/>
	<path class="st1" d="M10.2,2.3c0,0.1,0,0.5,0,0.9l0,0C10.2,2.7,10.2,2.9,10.2,2.3z"/>
	<path class="st1" d="M12.9,2.4c0,0.1,0,0.1,0,0.2C12.9,2.4,12.9,2.5,12.9,2.4z"/>
	<path class="st1" d="M12.9,2.5L12.9,2.5L12.9,2.5z"/>
	<path class="st1" d="M1.9,2.8C1.9,2.8,1.9,2.7,1.9,2.8C1.8,2.7,1.9,2.8,1.9,2.8z"/>
	<path class="st1" d="M2.6,2.1c0-0.1,0-0.1,0-0.3C2.6,2,2.5,2,2.6,2.1C2.5,2.2,2.4,2.4,2.4,2.7c0,0,0.1,0,0.2-0.1
		C2.6,2.5,2.6,2.3,2.6,2.1z"/>
	<path class="st1" d="M14.2,4.7L14.2,4.7L14.2,4.7c0,0.3,0,1.1,0,1.3c0-0.8,0.1-0.2,0.2-1c0,0.2,0,0.7,0,0.8V5.2c0,0.2,0,0.3,0,0.7
		c0.1,0.1,0-1.2,0.1-0.7c0,0.1,0,0.1,0,0.2c0.1,0.3,0.2-0.4,0.3-0.1c0,0.9-0.1,0.2-0.1,1c0.1-0.2,0.3-1.1,0.4-0.9V5.3
		c0-0.2,0-0.3,0-0.3c-0.1,0-0.2,0-0.2,0C14.6,4.9,14.3,4.9,14.2,4.7z"/>
	<path class="st1" d="M4.8,3.5c-0.2,0-0.3,0.1-0.4,0.2c0,0.1-0.1,0.2-0.1,0.4s0,0.3,0.1,0.4s0.2,0.2,0.3,0.2c0.2,0,0.3-0.1,0.4-0.2
		C5.2,4.4,5.3,4.2,5.3,4c0-0.2,0-0.3-0.1-0.4C5.1,3.5,5,3.5,4.8,3.5z"/>
	<path class="st1" d="M10.1,4.2c-0.1,0-0.1,0-0.1,0H9.9c0,0-0.1,0-0.1,0.1v0.1c0,0.1,0,0.1,0.1,0.2c0,0,0.1,0.1,0.2,0.1
		c0.1,0,0.2,0,0.3-0.1s0.1-0.2,0.1-0.3V4.2c-0.1,0-0.1,0-0.2,0C10.2,4.2,10.1,4.2,10.1,4.2z"/>
	<path class="st1" d="M2.4,2.7c0-0.1,0-0.3,0-0.4c0-0.1,0-0.2,0-0.1V1.9c0-0.3-0.1-0.3-0.1-0.2c0,0.2-0.1,0.5-0.1,0.7
		C2.1,2.7,2,3,2,3s0.1,0,0.1-0.1C2.2,2.8,2.3,2.8,2.4,2.7z"/>
	<path class="st1" d="M3,2.6c0-0.6-0.1-1-0.1-1.4c0,0.2-0.1,0.2-0.2,0.4c0,0.2-0.1,0.4-0.1,1C2.7,2.6,2.9,2.6,3,2.6L3,2.6z"/>
	<path class="st1" d="M10.1,3.2c0-0.2,0-0.5,0-1h0.1c0-0.9-0.1,0-0.1-0.1V1.7C10,1.8,10,2.8,9.9,2.7V3c0,0.1,0,0.2,0,0.2
		C9.9,3.2,10,3.2,10.1,3.2L10.1,3.2z"/>
	<path class="st1" d="M18.1,4.2C18.1,4.2,18,4.2,18.1,4.2C18.1,4.2,18,4.2,18.1,4.2C18,4.3,18,4.3,18,4.3V4.2
		C18,4.2,18,4.2,18.1,4.2C18,4.1,18,4.1,17.9,4.1l-0.1,0.2V4c0,0.1,0,0.2-0.1,0.2c0-0.1,0-0.2,0-0.3s0-0.1,0,0l0,0c0,0,0,0,0-0.1
		v0.1c0-0.1,0-0.3,0-0.2c0-0.1-0.1-0.1-0.1,0s0,0.1-0.1-0.1l0,0c-0.1,0-0.1,0.1-0.1,0.2c0,0.1,0,0.2,0,0.5l-0.1-0.9v0.4
		c0,0,0-0.1,0-0.2c0,0.2,0,0.2,0,0.4c0-0.2-0.1-0.1-0.1-0.1s-0.1,0-0.1-0.4c0,0.3,0.1,0.3,0,0.5c0-0.4,0-0.4,0-0.3
		c0,0.1-0.1,0.2-0.1,0c0-0.4,0.1-0.2,0-0.6c0,0.3,0,0.3-0.1,0.2c0-0.1-0.1-0.3-0.1-0.3c0,0.3,0,0.4-0.1,0.4c0,0-0.1-0.1-0.1,0
		c0-0.2-0.1-0.4-0.2-0.8V2.5c0,0.8-0.1,0.6-0.1,0.7c0-0.5,0-0.7,0-0.9l0,0c0,0.3,0,0.4-0.1,0.5V2.2c0,0-0.1,0.2-0.1,0.3
		S16,2.7,16,2.4c0,0.3,0,0.8,0,1.2s0,0.8,0,1c0-0.3,0-0.9,0-1.1c0,0,0,0.3,0,0.1V3c0-0.3,0,0.5-0.1,0.4c0-0.5,0-0.4,0-0.8
		c0,0,0,0.2,0,0c0-0.1-0.1-0.4-0.1-0.8c0,0.3,0,0.7,0,0.7c-0.1,0,0-0.6-0.1-0.8c0,0.3-0.1,0-0.1,0.7c0,0,0-0.3,0-0.5
		c0,0.3-0.2,0.1-0.1,0.9v0.1l0,0c-0.1,0.7-0.2-0.4-0.3-0.1V2.6c0,0.4-0.1,0.4-0.1,0.6c0.1,0,0.1,0,0.2,0.1c0.1,0.1,0.2,0.1,0.3,0.2
		c0.1,0.1,0.1,0.2,0.1,0.3s0,0.2,0,0.3c0,0.3-0.1,0.5-0.2,0.6c-0.1,0.1-0.2,0.2-0.4,0.2c0,0.2,0.1,0.7,0.1,0.4c0,0.1,0,0.7,0,0.6
		c0.1,0.2,0.2-0.3,0.3-0.7v0.3c0,0.3,0.1,0.2,0.2,0.3c0-0.3,0-0.3,0-0.8c0.1,1,0.2,0.8,0.2,0.4C15.9,5.2,16,5.1,16,5
		c0,0,0.1,0.1,0.1,0.4v0.3c0-0.1,0.1-0.3,0.1-0.4c0-0.5,0-0.3,0-0.7c0-0.3,0.1-0.6,0.1-0.6c0,0.2,0,0.4,0,0.6s0,0.4,0,0.5
		c0-0.2,0-0.3,0-0.5c0,0.4,0,0.2,0-0.1c0-0.3,0-0.6,0.1-0.3v0.3c0-0.1,0.1-0.5,0.1-0.4c0,0.5,0,0.3,0,0.7c0,0,0.1-0.3,0.1-0.5
		s0-0.3,0.1,0c0,0.1-0.1,0.2-0.1,0.3c0,0.3,0,0.4,0.1,0.4c0,0,0,0,0,0.1l0,0c0,0.1,0.1,0.1,0.1,0.2V5.2c0-0.7,0.1-0.7,0.1-0.7
		s0.1,0,0.1-0.4c0,0.3,0,0.5,0,0.5c0,0.1,0,0.1,0,0.4c0,0.1,0.1,0.2,0,0.4c0-0.2,0-0.1,0.1-0.1c0,0,0,0,0.1-0.2c0,0.1,0,0,0,0.3
		c0.1-0.2,0-0.2,0-0.4c0-0.3,0.1-0.1,0.1-0.1c0,0.1,0.1,0.1,0.1-0.2c0.1-0.3,0.1-0.6,0.2-0.7c0,0.1,0,0.1,0,0.2s0,0.1,0,0.1
		c0.1,0.1,0.1,0.1,0.1,0c0,0.1,0,0.1,0,0.2c0,0,0-0.2,0.1-0.2c0,0.1,0,0.2,0,0.3c0-0.1,0.1-0.2,0.1-0.3c0,0.1,0,0.1,0,0.2
		C18,4.4,18.1,4.3,18.1,4.2z"/>
	<path class="st1" d="M14.2,3.4c0.2-0.2,0.4-0.3,0.6-0.3c0.1,0,0.1,0,0.1,0c0-0.1,0-0.3,0-0.5c0.1,0.3,0.1,0.6,0,0.2
		c0.1-0.4,0-0.4,0.1-0.3c-0.1-0.2-0.1-0.6-0.2,0.1c0-0.6,0-0.8-0.1-0.6v0.4c0,0.1-0.1,0-0.1,0V1.6c-0.1-1-0.3,1.7-0.3,0
		c0,0.6,0.1,0.4,0,1.1c0-0.1-0.1-0.4-0.1-0.7c0-0.2,0-0.3,0-0.4s0-0.2,0-0.2c-0.1-0.5-0.1,1.2-0.2,0.9c0,0.3,0,1.1,0,1.4
		c-0.1-0.1-0.1-1.2,0-1.5c0,0,0,0.1,0,0.2c0-0.1,0-0.2,0-0.6L14,2c0-0.3-0.1-0.3-0.1-0.8c0,0.3,0,0.5,0,0.6c-0.1-0.4-0.1,0-0.2-0.3
		c0,0.2,0,0.5,0,0.5c-0.1-0.4-0.1,0.6-0.1,0.7c0-0.4,0-1.1-0.1-0.7c0-0.3,0-0.8,0-1c-0.1,0.6-0.1-0.4-0.2-0.5V0.3
		c0,0.1,0,0.1-0.1,0.1V1c0-0.1,0-0.1,0-0.4c0,0.4,0,1,0,1.5c0-0.3-0.1,0.3-0.1-0.5c0.1,0.2,0-0.6,0.1-0.9c0,0,0,0,0-0.1s0-0.2,0-0.2
		c-0.1-0.7,0,0.9-0.1,0.9c0-0.4,0-0.8,0-0.7c0,0,0,0.7,0,1.1C13,1.4,13,2,13,1.9v0.2c0,0.4,0,0.4-0.1,0.5c0-0.1,0-0.2,0-0.2
		c0,0.3-0.1-0.9-0.2-0.4c0-0.3,0-0.8,0-1c-0.1,0.6-0.1-0.6-0.2-0.1c0,0.6,0,0.4,0,1l0.1-0.4l-0.1,0.9c0,0,0.1-0.4,0.1-0.3
		c0,0.5,0,0.3,0,0.8c-0.1-0.9-0.1,0.5-0.2-0.1V1.3c-0.1-0.7-0.2,0.8-0.3,0.4V2c0,0.6-0.1,0.1-0.1,0.3c0-0.5,0-0.7,0-1
		c0,0.4-0.1,0-0.1,0.9l-0.1-0.6c-0.1-0.3-0.1,1.4-0.2,1.2c0-0.5,0-0.9,0.1-1.3c0,0-0.1-0.1-0.1,0.2c0-0.3-0.1,0.7-0.1,0.2
		c0,0.2,0,0.7-0.1,0.7c0-0.1,0-0.2,0-0.2c0,0.2-0.1,0.3,0,0.8C11.6,3.1,11.8,3,12,3c0.2,0,0.4,0,0.5,0.1v0.5h-0.3V3.5
		c-0.1,0-0.1,0-0.2,0c-0.2,0-0.3,0.1-0.4,0.2c-0.1,0.1-0.1,0.2-0.1,0.4s0,0.3,0.1,0.4s0.2,0.2,0.4,0.2s0.3,0,0.4-0.1v0.3
		C12.3,5,12.1,5,11.9,5s-0.3,0-0.4-0.1c-0.1-0.1-0.2-0.1-0.3-0.2s-0.1-0.2-0.1-0.3c0-0.1,0-0.2,0-0.3c0-0.3,0.1-0.5,0.2-0.6
		c0,0,0,0,0.1-0.1c-0.1-1.5-0.3,0.1-0.3-1.2c-0.1,0.2-0.2,0.3-0.2,0.4c0-0.1,0-0.2,0-0.2c-0.1-0.5-0.1,1.4-0.2,0.9
		c0-0.8,0.1-0.4,0-0.7c0-1.6-0.1,0.2-0.2-0.7V1.8c0-0.5-0.1,0.6-0.2,0.5c0,0,0-0.1,0-0.2c-0.1,0.7-0.1,1-0.2,1.2
		c0.2,0,0.3,0.1,0.3,0.2c0.1,0.1,0.2,0.3,0.2,0.5c0,0.1,0,0.3,0,0.4c0,0.2,0,0.3,0,0.4h0.2v0.3h-0.5c0-0.1,0-0.2,0-0.4l0,0
		C10.2,5,10,5.1,9.7,5.1c-0.2,0-0.3,0-0.4-0.1c0.1-0.3,0-0.4,0-0.5C9.3,4.2,9.5,4,10,4h0.3V3.8c0-0.1,0-0.2-0.1-0.3l-0.1-0.1
		c0,0,0,0,0,0.1c0,0,0,0,0-0.1H10c-0.1,0-0.2,0-0.3,0.1v0.2H9.4V3.3c0.1-0.1,0.3-0.1,0.4-0.1c0-0.2,0-0.5-0.1-0.1v-1
		c0,0.2-0.1,0.9-0.2,1.1c0-0.7,0.1-1.1,0.2-1.5c0,0-0.1,0.1-0.2,0.6c0-0.1,0-0.3,0.1-0.2C9.5,2.9,9.5,3.3,9.4,3.3
		c0-1.9-0.2-0.5-0.3-2C9,2,8.9,1,8.7,1.1c0.1,1.5,0,0,0,1.6c0,0.1-0.1,0.1-0.1,0l0,0l0,0l-0.1-1c0-0.4,0-0.3,0-0.7
		c-0.1,0,0-0.6-0.1-1c0,0.5,0,0.8-0.1,0.6l0.1,0.7C8.3,2.1,8.3,0,8.2,0.8V0.3c0,0.3-0.2,0-0.2,1.2c0-0.2,0-0.6,0-0.7
		C7.8,0.7,7.7,2.1,7.5,1.4V1c0,0.1,0,0.7-0.1,0.3c0-0.2,0-0.4,0-0.4c0,0.1-0.1,0.7-0.1,0.4V0.9c0-0.4-0.1,1.1-0.2,1.3
		c0-1.1-0.1-1.4-0.2-1.6V0.4c-0.1-0.1-0.3,1-0.4,1.4C6.4,0.6,6.2,1.3,6,0.6c0,0.2,0,0.9,0,1c0-0.2-0.1,0.8-0.1-0.2l0,0
		c0-1-0.1-0.7-0.2-0.7V2C5.6,0,5.4,2.6,5.3,0.9c0,0.3-0.1,0.3-0.1,0.7V0.9C5.1,0.7,5,0.6,4.9,0.8V0.3c-0.1,0-0.1,2-0.2,2.1v-1
		c-0.1,0-0.2-0.9-0.4,0c0-0.2,0-0.5,0-0.5c-0.1,0-0.2-0.7-0.2,0.7c0-0.9-0.1-0.1-0.2,0.3V1.2C4,2.1,4,2.3,3.9,2.6c0-0.1,0-0.6,0-0.4
		c-0.1-0.4,0,0.7-0.1,0.3V2.1c0-0.1,0,0.1,0,0.6c0,0.3-0.1-0.2-0.1-0.8c0,0.4,0,0.9-0.1,0.7c0-0.2,0-0.4,0-0.5
		C3.5,1.7,3.4,3,3.4,2.3c0-0.2,0-0.3,0-0.4C3.5,1.9,3.5,2,3.5,2c0-0.6-0.1-0.7,0-1.6C3.4,0.8,3.3,1.9,3.3,1.6c0-0.1,0-0.1,0-0.2V1.3
		c0-0.1,0,0,0,0.1c0-0.1,0-0.2-0.1-0.2c0-0.5-0.1-0.3-0.1-0.3c0,0.7,0,0.6,0,1.2c0-0.1,0-0.1,0-0.1s0,0,0-0.1c0,0,0,0,0,0.1
		c0,0,0,0,0.1,0c0,0.4-0.1,0.7-0.1,0.3c0,0.2,0,0.3,0,0.4c0.2,0,0.4,0,0.6,0.1v0.6H3.4V2.9c-0.1,0-0.2,0-0.3,0c0,0.2,0,0.3,0,0.4
		C3,3.1,3,3,3,2.9l0,0C2.7,2.9,2.5,3,2.4,3.1C2.2,3.3,2.2,3.5,2.2,3.8s0.1,0.5,0.2,0.6C2.5,4.6,2.7,4.6,3,4.6c0.2,0,0.3,0,0.4,0V4.2
		h0.3v0.6C3.5,4.9,3.2,4.9,3,4.9c-0.4,0-0.7-0.1-0.9-0.3C1.9,4.4,1.8,4.1,1.8,3.8S1.9,3.3,2,3.1c0,0-0.1-0.1-0.1-0.3
		c0,0,0,0.1,0,0.2C1.8,2.8,1.7,2.8,1.7,2.9C1.6,2.9,1.6,3,1.5,3.1C1.4,3.2,1.4,3.2,1.3,3.3c-0.1,0-0.1,0-0.2-0.2C1.1,3,1,3.3,1,3.5
		V3.2c0,0.1,0,0.3-0.1,0.4c-0.1,0.1-0.1,0-0.1-0.1c0,0,0-0.1-0.1-0.1c0,0-0.1,0.1-0.1,0.2v0.1c0,0-0.1,0-0.1,0.1c0,0-0.1,0,0,0v0.1
		V3.8c0,0.1-0.1,0.1-0.1,0.2c0,0,0,0,0-0.1c0,0,0-0.1-0.1,0L0.2,4l0,0c0,0,0,0,0.1,0l0,0l0,0c0,0,0,0,0.1,0.1c0,0,0,0.1,0.1,0.1v0.1
		l0,0v0.1c0,0,0,0,0.1-0.1v0.1v0.1V4.4V4.3c0,0.1,0,0.2,0.1,0.2c0,0.1,0,0.1,0,0.1s0.1,0.1,0.1,0c0,0.1,0,0.1,0.1,0.2
		c0,0,0,0.1,0,0.3V5c0,0,0-0.1,0.1-0.1c0,0.2,0,0.2,0,0.3c0,0.1,0.1,0.1,0.1,0.4C1,5.4,1,5.4,1,5.4s0.1,0.1,0.1,0v0.1
		c0,0.1,0.1,0.3,0.1,0.5c0-0.5,0.1-0.6,0.1-0.9c0,0.3,0,0.5,0,0.6c0,0.2,0,0.3,0,0.6c0-0.5,0.1-0.4,0.1-0.8c0,0.2,0,0.3,0,0.3
		c0,0.1,0,0.2,0,0.4c0-0.4,0-0.4,0-0.4s0,0.1,0-0.2c0.1,0.5,0,0.8,0.1,0.6c0,0.2,0,0.3,0,0.4s0,0.1,0,0.1c0.1,0.1,0-0.6,0.1-1
		c0.1-0.1,0,0.5,0.1,0.9c0-0.1,0.1-0.2,0.1-0.4c0-0.2,0-0.3,0.1-0.3c0,0.1,0,0.2,0,0.3C1.9,5.9,2,6,2,6s0.1,0,0.1-0.4
		c0,0.1,0,0.1,0,0.2c0-0.4,0-0.9,0-1.2c0,0,0.1-0.5,0.1,0c0,0,0,0.2,0,0.4V4.8c0,0.8,0,0.3,0,0.8c0-0.1,0.1-0.3,0.1-0.5
		S2.4,4.8,2.4,5c0,0.8-0.1,0.2-0.1,1H2.2c0.1,1.3,0-0.1,0,1.3c0,0.2,0.1,0.1,0.1,0.1c0-0.1,0.1-0.1,0.1,0c0-0.5,0-0.7,0-1.2
		c0.1-0.4,0.1,0.1,0.1,0.6s0,1,0.1,0.4c0-0.6,0-1.7,0.1-1.1v1c0.1,0.1,0.1-1.4,0.2-0.7c0,0.4-0.1,0.3-0.1,0.4c0.1,0.8,0-0.5,0.1-0.5
		v0.8c0.1-0.2,0.3-0.8,0.4-1c0,0.3,0,0.5,0,0.8C3.4,6.5,3.6,7,3.7,7.5l0.1-0.7c0,0,0,0.3,0,0.5c0.1,0.3,0-0.5,0-0.7
		c0-0.1,0,0.4,0,0.6c0.1-0.6,0.3-1.3,0.4-0.5v0.2C4.3,7.1,4.3,5.3,4.3,6v0.1c0.2,0.3,0.4-0.4,0.5,0.8c0-1,0.2,0.5,0.2-1
		c0.1,0.7,0.1,1,0.2,1.5c0,0.1,0.1-0.9,0.1-1.1v0.8l0.1-0.8v0.9V7c0,0,0-0.3,0-0.6C5.5,6,5.6,6.9,5.6,7.3l0.2-0.6c0,0.2,0,0.4,0,0.5
		c0.1-0.4,0,0.9,0.1,0.2c0-0.2,0-0.5,0-0.6C5.8,7.2,5.9,7.2,6,7v0.5c0.1,0.1,0.2-0.3,0.4-0.2c0-0.2,0-1.2,0-1.2v0.8
		c0-0.5,0-0.3,0-0.9c0,0.1,0,0.9,0,1.2l0.1-0.3c0,0.2,0,0.4,0,0.7c0-0.5,0.1,0.8,0.1-0.1v0.2c0.1,0,0.2-0.3,0.3-0.3
		c0-0.7,0-0.5,0.1-1.1C7,6.5,7.1,7.1,7.2,7c0.1-0.3,0-0.6,0.1-1c0,0.6,0.1,0.6,0,1c0.1-0.1,0.1-0.1,0.3-0.6c0-0.3,0-0.4,0-0.6
		c0-0.1,0.1,0.3,0.1,0.6v0.1C7.8,5.5,8,8.2,8.1,7l0.1-0.7c0.1,0.1,0,0.5,0,0.9c0.1-1.1,0.2,0.2,0.3-0.6C8.7,8.5,8.9,6.5,9,7.7V7.3
		c0-0.4,0,0.3,0.1,0.4c0-0.3,0-0.4,0-0.6c0.3-0.5,0.6,0.6,0.8,1C10,8.2,10,5.8,10.1,6.8v0.8c0.2-1,0.4,0,0.6-0.8c0,0.2,0,0.4,0,0.4
		c0,0.6,0.2,0,0.2-0.5c0,0.1,0,0.4,0,0.7c0,0.4,0.1-0.8,0.1-0.2c0,0.1,0,0.1,0,0.2c0-0.1,0.1,0.2,0-0.4c0.1,0.3,0.1-0.3,0.2,0.1
		c0-0.8,0.1,0.4,0.1-0.7c0,1.1,0.1,0.9,0.2,0.4c0,0.3,0,0.4,0,0.8c0.1,0,0.1-0.2,0.1-0.8c0.1,1.3,0.2-1.1,0.3,0.6
		c0.2-0.6,0.3-1,0.5-1.3c0,1.1-0.2,0.1-0.2,1.3c0.1-0.5,0.2-1.4,0.4-1.2c0,0.2,0,0.5,0,0.7C12.7,6.4,12.9,7,13,6.4
		c0,0.1,0,0.2,0,0.3c0,0,0.1,0.2,0.1-0.3v0.1C12.9,5.8,13,5,13,4.6c0,1.5,0.1,0.4,0,2.2c0-0.1,0-0.3,0-0.7c0,0.1,0,0.3,0,0.7
		C13.2,6.5,13.2,6,13.3,6c0,0.2,0,0.3,0,0.6c0-0.5,0.1-1,0.1-0.8c0,0.1,0,0.3,0,0.3c0.1-0.1,0.2-1.3,0.3-0.8c0,1.1,0,0.4,0,1.3
		l0.1-0.3V5.9c0.1,0,0.1-0.7,0.2-0.4v0.4l0-0.1l-0.1-0.4C14,5,13.9,4.3,14,4.5c0,0.1,0.1,0,0.1,0.6l0,0c0-0.2,0-0.4,0.1-0.4
		C14.1,4.5,14,4.3,14,4.1C14,3.8,14.1,3.6,14.2,3.4z M3.1,1.3C3.1,1.3,3.1,1.4,3.1,1.3c0,0,0-0.2,0-0.3C3.2,0.9,3.2,1.1,3.1,1.3
		C3.2,1.2,3.1,1.2,3.1,1.3z M3.3,5.9C3.3,5.9,3.2,5.9,3.3,5.9C3.2,5.9,3.3,5.9,3.3,5.9L3.3,5.9z M3.3,5.8c0-0.2,0-0.5,0-0.5
		C3.4,5.5,3.4,5.7,3.3,5.8C3.4,5.8,3.4,5.8,3.3,5.8z M5.4,4.7C5.3,4.9,5.1,4.9,4.8,4.9c-0.3,0-0.5-0.1-0.6-0.2C4,4.5,4,4.3,4,4.1
		c0-0.3,0-0.5,0.2-0.7c0.2-0.2,0.4-0.3,0.6-0.3c0.1,0,0.3,0,0.4,0.1s0.2,0.1,0.3,0.2c0.1,0.1,0.1,0.2,0.1,0.3s0,0.2,0,0.3
		C5.7,4.3,5.6,4.5,5.4,4.7z M7.9,4.9H7.1V4.6h0.2c0-0.1,0-0.2,0-0.3c0-0.2,0-0.3,0-0.4c0-0.1,0-0.2-0.1-0.3C7.1,3.5,7.1,3.5,6.9,3.5
		c-0.1,0-0.2,0-0.3,0.1C6.5,3.7,6.5,3.8,6.5,4v0.6h0.2v0.3H5.9V4.6h0.2V3.4H5.9V3.2h0.6c0,0.1,0,0.2,0,0.4l0,0
		c0-0.1,0.1-0.2,0.2-0.3s0.2-0.1,0.4-0.1c0.2,0,0.3,0.1,0.4,0.2c0.1,0.1,0.1,0.3,0.1,0.5c0,0.1,0,0.2,0,0.4s0,0.3,0,0.4h0.2v0.2H7.9
		z M9.2,4.9c-0.2,0-0.3,0-0.4,0c-0.2,0-0.3,0-0.4-0.1C8.3,4.7,8.3,4.6,8.3,4.4c0,0,0-0.4,0-0.9H8V3.2h0.3V2.8h0.4v0.4h0.5v0.3H8.7
		c0,0.4,0,0.6,0,0.8c0,0.1,0,0.3,0.1,0.3c0,0.1,0.1,0.1,0.2,0.1c0.1,0,0.2,0,0.3-0.1L9.2,4.9z M13.9,4.9C13.8,5,13.7,5,13.5,5
		s-0.3,0-0.4-0.1c0-0.2-0.1-0.3-0.1-0.5c0,0,0-0.4,0-0.9h-0.3V3.2H13V2.8h0.4v0.4h0.5v0.3h-0.5c0,0.4,0,0.6,0,0.8
		c0,0.1,0,0.3,0.1,0.3c0,0.1,0.1,0.1,0.2,0.1c0.1,0,0.2,0,0.3-0.1L13.9,4.9z"/>
	<path class="st1" d="M14.9,3.5c-0.2,0-0.3,0.1-0.4,0.2c-0.1,0.1-0.1,0.3-0.1,0.4c0,0.2,0,0.3,0.1,0.4s0.2,0.2,0.3,0.2
		c0.2,0,0.3-0.1,0.4-0.2c0.1-0.1,0.1-0.3,0.1-0.4c0-0.2,0-0.3-0.1-0.4C15.1,3.5,15,3.5,14.9,3.5z"/>
	<path class="st1" d="M3.1,1.9C3.1,2,3.1,2,3.1,1.9c0,0.1,0,0.2,0,0.2S3.1,2,3.1,1.9L3.1,1.9z"/>
	<path class="st1" d="M15.6,3C15.6,3,15.6,3.1,15.6,3C15.6,3.1,15.6,3.1,15.6,3L15.6,3z"/>
	<path class="st1" d="M5.3,7.2V7V7.2z"/>
	<path class="st1" d="M16.7,5.2v0.2C16.7,5.3,16.7,5.2,16.7,5.2z"/>
	<path class="st1" d="M16.9,5.3c0-0.1,0-0.1,0-0.2l0,0V5.3z"/>
	<path class="st1" d="M12.9,6.7L12.9,6.7C12.9,6.9,12.9,6.8,12.9,6.7z"/>
	<path class="st1" d="M14.1,5.1c0,0.1,0,0.3,0,0.3C14.1,5.5,14.1,5.5,14.1,5.1z"/>
	<path class="st1" d="M11.6,7.6L11.6,7.6L11.6,7.6L11.6,7.6z"/>
	<path class="st1" d="M14,5.4C14,5.6,14.1,5.5,14,5.4C14.1,5.4,14,5.3,14,5.4z"/>
	<path class="st1" d="M18,4.4L18,4.4L18,4.4L18,4.4z"/>
	<path class="st1" d="M18.1,4.3L18.1,4.3L18.1,4.3z"/>
	<path class="st1" d="M17.6,4.7L17.6,4.7C17.6,4.8,17.6,4.9,17.6,4.7L17.6,4.7C17.7,4.8,17.7,4.8,17.6,4.7z"/>
	<path class="st1" d="M17.3,3.2C17.2,2.9,17.2,3,17.3,3.2c0,0.1,0,0.3-0.1,0.2c0,0.1,0.1,0.1,0.1,0.1C17.2,3.4,17.2,3.2,17.3,3.2z"
		/>
	<path class="st1" d="M16.9,2.7c0,0.1,0,0.2,0,0.4C17,3,16.9,2.8,16.9,2.7z"/>
	<path class="st1" d="M15,2.5V1.9C15,1.9,15,2.1,15,2.5z"/>
	<polygon class="st1" points="14.7,6.1 14.7,5.6 14.6,5.7 	"/>
	<polygon class="st1" points="14.4,1.1 14.4,1.4 14.4,1.2 	"/>
	<path class="st1" d="M11.2,1.4v0.8C11.3,2.1,11.3,1.2,11.2,1.4z"/>
	<path class="st1" d="M9.8,2.2c0-0.4-0.1-0.6-0.1-0.3C9.8,2,9.8,2.3,9.8,2.2z"/>
	<polygon class="st1" points="5.7,0.7 5.7,0.9 5.7,0.9 	"/>
	<path class="st1" d="M2.4,2.7L2.4,2.7c0,0.1,0,0.1,0,0.2C2.4,2.8,2.4,2.8,2.4,2.7z"/>
	<path class="st1" d="M2,3.1L2,3.1L2,3.1L2,3.1z"/>
	<path class="st1" d="M3.1,2.9c0-0.1,0-0.2,0-0.3c0,0,0,0-0.1,0C3,2.7,3,2.8,3.1,2.9C3,2.9,3,2.9,3.1,2.9z"/>
	<path class="st1" d="M2.6,2.7L2.6,2.7C2.6,2.6,2.6,2.7,2.6,2.7S2.6,2.8,2.6,2.7z"/>
	<path class="st1" d="M10.2,3.5c0-0.1,0-0.2,0-0.3c0,0,0,0-0.1,0C10.1,3.3,10.2,3.4,10.2,3.5L10.2,3.5z"/>
	<path class="st1" d="M9.8,3.2L9.8,3.2C9.8,3.3,9.8,3.3,9.8,3.2z"/>
	<path class="st1" d="M10.2,3.2L10.2,3.2L10.2,3.2C10.2,3.3,10.2,3.2,10.2,3.2z"/>
	<path class="st1" d="M11.5,3.4L11.5,3.4L11.5,3.4L11.5,3.4z"/>
	<path class="st1" d="M15.1,3.2C15.1,3.2,15,3.2,15.1,3.2c-0.1,0.1,0,0.3,0,0.3C15.1,3.3,15.1,3.3,15.1,3.2z"/>
	<path class="st1" d="M15.1,4.9L15.1,4.9C15.1,4.8,15.1,4.7,15.1,4.9z"/>
	<path class="st1" d="M14.2,4.7L14.2,4.7C14.2,4.7,14.2,4.6,14.2,4.7z"/>
</g>
</svg>
