<?xml version="1.0" encoding="utf-8"?>
<!-- Generator: Adobe Illustrator 21.1.0, SVG Export Plug-In . SVG Version: 6.00 Build 0)  -->
<svg version="1.1" id="Layer_1" xmlns="http://www.w3.org/2000/svg" xmlns:xlink="http://www.w3.org/1999/xlink" x="0px" y="0px"
	 viewBox="0 0 30 30" style="enable-background:new 0 0 30 30;" xml:space="preserve">
<style type="text/css">
	.st0{fill:#FFFFFF;}
</style>
<path class="st0" d="M15,0.1C6.8,0.1,0.1,6.8,0.1,15S6.8,29.9,15,29.9S29.9,23.2,29.9,15S23.2,0.1,15,0.1z M5.5,17.1
	c-1.2,0-2.1-1-2.1-2.1c0-1.2,1-2.1,2.1-2.1c1.2,0,2.1,1,2.1,2.1C7.7,16.2,6.7,17.1,5.5,17.1z M15.2,17.1c-1.2,0-2.1-1-2.1-2.1
	c0-1.2,1-2.1,2.1-2.1s2.1,1,2.1,2.1C17.3,16.2,16.4,17.1,15.2,17.1z M24.9,17.1c-1.2,0-2.1-1-2.1-2.1c0-1.2,1-2.1,2.1-2.1
	c1.2,0,2.1,1,2.1,2.1C27,16.2,26.1,17.1,24.9,17.1z"/>
</svg>
