<?xml version="1.0" encoding="utf-8"?>
<!-- Generator: Adobe Illustrator 22.0.1, SVG Export Plug-In . SVG Version: 6.00 Build 0)  -->
<svg version="1.1" id="Layer_1" xmlns="http://www.w3.org/2000/svg" xmlns:xlink="http://www.w3.org/1999/xlink" x="0px" y="0px"
	 viewBox="0 0 582.5 550.6" style="enable-background:new 0 0 582.5 550.6;" xml:space="preserve">
<style type="text/css">
	.st0{fill:#711929;}
</style>
<path class="st0" d="M581.6,193.1c0.2-1.5,0.5-3.1,0.9-4.3c0.3-3.9-0.5-6.5-1.3-4.9c-0.5-0.3-0.9,0.3-1.2,1.3
	c-0.2-1.1-0.5-2.3-0.7-3.4c-1.6-8.4-3-16.3-3.2-14.3c-0.2,1.3-0.6,1.3-1,1c-0.1-0.5-0.3-0.7-0.6-0.6c-0.5-0.6-1-0.9-1.2,0.8
	l-0.9-0.2c0-0.1,0.1-0.3,0.1-0.4c2-9.6,1.4-15.1,0.9-20c-0.9-4.9-1.6-9.3-2.9-18.2l-0.7,0.9c-5.6-19.7-17.4-36.9-30.7-49.4
	c-6.7-6.4-13.7-12-21-16.8c-7.3-5-14.6-9.2-22.1-12.9c-30-15.1-60.8-23.7-91-30.8c-5.1-0.7-10.2-1.5-15.4-2.3
	c-5.2-0.9-9.8-1.6-15.2-2.6c-10.4-2-21-4-31.7-6c-21.4-3.8-43.2-7.2-65-8.8c-23.4-1.6-47.9-1.7-71.8,0.5
	c-23.8,2.2-46.9,6.6-66.9,13.6c-4.7,1.6-8.9,2.6-13.1,3.3c-4.1,0.6-8.1,1.2-12.5,2.2c-18.2,7.8-38.7,19.4-56.9,35.9
	c-9.1,8.2-17.3,17.9-24.7,28.1c-3.5,5.4-7.2,10.5-9.9,16.7c-1.4,2.9-2.8,5.9-4.2,8.9c-1.3,2.9-2.2,5.9-3.2,8.9
	c0.4-0.9,0.7-1.7,0.9-2.3c-2.2,6.3-4.5,12-6,17.6C7.9,140.2,6,145.6,5,151c-2.7,10.8-4.4,21.7-5,34c0.8,0,0.7,3.7,1,5.6
	c-2.2,2-1.1,38.2,6.5,72.3c6.8,34.4,18.5,67.2,18.7,71.4c0.8,2.2,1.6,4.6,2.4,7c1.6,5.9,3.2,11.8,4.8,17.7
	c1.7,6.1,3.1,12.1,5.8,18.3l3.5,9.3c1.2,3.1,2.3,6.3,3.9,9c2.8,5.8,5.6,11.7,8.7,17.3c12.5,22.1,28.3,40.6,44.5,54.4
	c8.1,4.4,16.9,9.8,24.1,12.3c2.6,2.8,4.5,3.7,6.7,4.6c2.2,1,4.5,1.9,8.2,4.3c7.5,9,14.6,14.8,18.8,16.5c4,2,5,0.8,0.6-3
	c4.1,1.9,8.1,3.8,12.1,5.9c4,2,8.1,3.6,12,5.5c4,1.8,7.8,3.7,11.7,5.3c3.9,1.5,7.7,3,11.4,4.4c6.9,2.3,14.1,3.8,21.2,5.5
	c6.1,1.5,9.2,3.4,11.8,5.9c15.8,3,10.7,4,27.1,8.1c0.9,0.9,4,1.6,8.2,2.2c4.2,0.4,9.6,0.6,14.9,0.6c5.3,0.3,10.8-0.1,15.1-0.2
	c4.3-0.1,7.6-0.1,8.8,0.2l-2.7,0.1c4.8,0.7,9.2,0.9,13.5,1.6c4.3,0.6,8.4,1.4,12.4,2.1c4.1,0.5,8.2,0.9,12.5,1.2
	c4.3,0.1,8.8,0.6,13.7-0.3c27.1-2.1,55.7-10.2,81.4-24.3c25.8-14,48.2-34,65.1-55.3c-1.6-2.2-7.1,9.8-10.1,7.7
	c21-23.5,39.5-51.1,49.8-82.2c0.6-1.3,1.3-2.8,2-4.1c0.6-1.4,1.3-2.8,1.9-4.1c1.2-2.7,2.3-4.9,3.1-6.1c1.8-5,1.9-6.6,1.8-7.8
	c-0.1-1.3-0.2-2.4,0.6-5.8l2.5-0.3c0.1-10.5,5.6-14.1,6.5-23.8c-0.8-0.8-0.3-4.3,0.4-7.6c2.5,0.4,1.8-10.4,4-9.4l-0.1-0.1
	c0.4-2,0.5-3.4,1.4-5.9c0-2.1-0.2-12.5-0.3-23c-0.3-10.6-0.7-21-0.9-23.1l0.7-1.7c0.8-5.5-0.9-8.2-1.7-5.1l1.1-6.7l0,0.8l1.1-6.8
	c0.4-1.2,1.7-2.4,2.5-0.3c-0.3-4-0.2-8.3,0.7-12.1c-3,10.4-6.7,23.4-11,33.9c-0.1-4.7,2.4-12.6,2.7-17.7c2.5-5.6,5.5-17.5,7.5-27
	c0.1-2.1-2.5-3.9-0.8-8.6c2.1-2.1,0.6-5.4,2.2-9.3c0.7,4.7-0.4,9.2-0.9,13.7c2.4-0.5,2.8-11,3.6-14.7c-0.6-1.8,0.7-10.8,0.5-16.6
	C580.8,198.5,581.1,196,581.6,193.1c-0.1-0.4-0.2-0.9-0.3-1.4C581.4,192.1,581.5,192.6,581.6,193.1z M579.1,190.4
	c-0.3,2.6-0.8,4.8-1.5,4.4c0.1,0.4,0.2,0.7,0.3,1l-0.7,2.3c-0.2-1.4-0.5-4-0.5-6.6c0.2,0.7,0.4,1.3,0.5,1.9c1-2,0.7-8.9,0.7-12.7
	c-0.9-0.1-1,1.4-1.5,1.2c-0.3-1.2-0.5-2.8-0.7-4.5c0-0.6-0.1-1.1-0.1-1.7l0.2-1.1c-0.2-1.1-0.3-2.4-0.4-3.5c0.1-0.9,0.2-1.7,0.6-2.3
	c0.3,0.8,0.1,2.7,0.1,4c0-2.9,2,4.8,3.8,12.7C579.5,186.8,579.3,188.7,579.1,190.4z"/>
</svg>
