<?xml version="1.0" encoding="utf-8"?>
<!-- Generator: Adobe Illustrator 21.1.0, SVG Export Plug-In . SVG Version: 6.00 Build 0)  -->
<svg version="1.1" id="Layer_1" xmlns="http://www.w3.org/2000/svg" xmlns:xlink="http://www.w3.org/1999/xlink" x="0px" y="0px"
	 viewBox="0 0 30 30" style="enable-background:new 0 0 30 30;" xml:space="preserve">
<style type="text/css">
	.st0{fill:#ED2E37;}
	.st1{fill:#221F1F;}
</style>
<g>
	<path class="st0" d="M25,9.6c-0.3-1.1-1.8-0.3-2.1-0.1c0,0,0,0,0,0c0.2-0.1,0.7-0.5,0.8-1.1C24.1,8,24.3,7.5,24.3,7
		c0.1-0.9-2.1-0.2-2.1-0.2C23,6,23.8,4.7,23.1,4.1c-1-0.8-1.9,0.5-2.1,0.7c1.3-1.9,1-2.7,0.2-2.9c-0.6-0.2-1.4,0.9-1.7,1.4
		c-0.1-0.6-0.2-1.2-0.4-1.3c-0.1-0.1-1.1-0.5-1.2,0C17.7,3,17.6,4,17.6,4s0.2-2.9-1.4-2.6s0.5,2.3,0,2.6c-0.9,0.5-1.2-2.6-2.3-1.8
		c-0.3,0.2-0.4,0.4-0.5,0.6c-0.1-0.4-0.3-0.6-0.6-0.7c-0.8-0.3-1.9,1.7-1.9,1.7c-0.9,0-1,1.3-1,2.3c-0.1,0-0.1,0.1-0.2,0.1
		c-1.3,1.2,0.6,2.6,0.9,2.9c-0.3-0.2-1.5-0.9-1.3,1c0,0.4,0.1,0.7,0.3,1c-0.4,0.2-0.7,0.6-0.6,1.1c0,0,0,0,0,0.1
		c-0.4,0.5-0.8,1.1-0.8,1.1c-0.5,0-0.7,0.4-0.9,0.9c-0.3,0.3-0.2,0.9-0.2,1.2c0,0,0,0.1,0.1,0.1c0,0.2,0,0.4,0,0.6
		c-0.3,0.1-0.5,0.2-0.7,0.4c-0.4,0.4,0.4,1.1,0.5,1.3c0,0.1,0.1,0.1,0.3,0C7.3,18,7,18.4,7.3,18.6c0.1,0.1,0.2,0.2,0.3,0.2
		c0.1,0.1,0.2,0.3,0.3,0.4C7.2,19.1,6.2,19,6,19.9c-0.4,1.6,2.3,0.4,2.4,1c0.1,1-2.8,0-2.6,1.4c0.2,1.8,2.5,0.9,2.9,0.8
		c-0.3,0.1-1.6,0.8,0.1,1.6C9.2,24.9,9.6,25,9.9,25c0,0.2,0,0.4,0.2,0.6c0.4,0.7,2.5,0,2.5,0c1.1,0.9,2.6-1.6,2.9-2.1
		c0.1-0.3,0-0.4-0.4-0.6c0,0,0,0,0.1,0c1.9-0.2,2.8-2.3,3-3.6c1.5,0.1,2-1,2.1-1.9c0.1-0.6-1-0.5-1.6-0.4c0,0,0,0,0,0
		c0.1-0.1,0.1-0.2,0.2-0.3c1.1,0.2,1.3-0.4,1.5-1.1c0.1-0.4,0.2,0,1.3,0c1.1,0.1,0.7-1.2,0.5-1.5s-0.9,0.1-1-0.1
		c0-0.1,0-0.1,0.1-0.2c0,0,0,0,0,0c0.9,0.4,2-0.3,2-0.7c0-0.6-0.6-0.7-1.1-0.8c-0.1-0.2-0.4-0.3-0.5-0.4c0.4-0.1,1.7,0.3,1.7-0.3
		c0-0.4,0-0.8,0-1.1C23.8,10.8,25.3,10.6,25,9.6z M8.6,17.5c-0.1,0-0.1,0-0.2,0C8.5,17.5,8.5,17.5,8.6,17.5z M8.5,19.5
		C8.5,19.5,8.6,19.5,8.5,19.5c0.2,0.1,0.4,0.2,0.4,0.2S8.8,19.6,8.5,19.5z M13.8,11.5c-0.2,0.1-0.3,0.1-0.4,0.2l-0.2-0.4
		c0,0,0,0,0,0c0.1,0,0.1,0,0.2,0C13.6,11.4,13.7,11.5,13.8,11.5z M13.3,3.4c0,0.2,0.1,0.4,0.2,0.6c-0.5,0.2-0.9,0.7-1,0.9
		C13,4.4,13.2,3.9,13.3,3.4z M12.2,7.2l-0.6,0.1c0,0-0.1-0.1-0.1-0.1C11.7,7.2,11.9,7.2,12.2,7.2z M11.2,12c0,0-0.1,0.1-0.3,0.3
		c0,0,0-0.1,0-0.1C11.1,12.1,11.2,12,11.2,12z M11.6,23.8C11.6,23.7,11.6,23.7,11.6,23.8c0.3-0.1,0.4-0.1,0.5-0.2
		C11.9,23.6,11.8,23.7,11.6,23.8z M18.1,14.4c0,0,0-0.1,0.1-0.1c0,0,0.1,0,0.1,0.1C18.2,14.4,18.2,14.4,18.1,14.4z"/>
	<g>
		<path class="st1" d="M18.2,9.6C18,10.1,19,10.7,21,11.3c0,0,0.1,0,0.1,0c0.1,0,0.1,0,0.2-0.1c0.1-0.1,0.1-0.2,0.1-0.3l-0.6-1.5
			c0-0.1-0.1-0.1-0.2-0.2c0,0-0.9-0.2-1.5-0.2C18.6,9.1,18.3,9.2,18.2,9.6z M20.6,10.6c-0.7-0.3-1.3-0.5-1.6-0.7
			c0-0.1,0-0.1,0.1-0.2c0,0,0,0,0.1,0c0.4,0,1,0.1,1.2,0.2L20.6,10.6z"/>
		<g>
			<path class="st1" d="M16.8,20.3l-1.5-0.4c-0.1,0-0.2,0-0.2,0c-0.2,0.2-1.3,1-1.3,1.6c0,0.2,0,0.3,0.1,0.4
				c0.1,0.1,0.2,0.2,0.4,0.2c0.7,0,2.3-1.1,2.7-1.4c0.1-0.1,0.1-0.2,0.1-0.3C17,20.4,16.9,20.3,16.8,20.3z M14.3,21.6
				c0-0.1,0.1-0.2,0.1-0.3c0,0.1,0.1,0.1,0.1,0.2C14.4,21.5,14.3,21.6,14.3,21.6z M15,21.3c-0.1-0.1-0.1-0.3-0.2-0.4
				c0.1-0.1,0.3-0.3,0.5-0.4l0.8,0.2C15.8,20.9,15.4,21.1,15,21.3z"/>
			<path class="st1" d="M9.9,17.4c0.1,0,0.2,0.1,0.3,0.2c0.5,0.3,0.8,0.5,1,0.5c0,0,0.1,0,0.1,0c0.1,0,0.3-0.1,0.4-0.4
				c0.1-0.1,0.6-1.1,0.6-1.4c-0.1-0.6-1-1.2-1.4-1.2c-0.1,0-0.1,0-0.2,0c-0.2,0.1-1.1,1.3-1.1,1.8C9.7,17.2,9.7,17.4,9.9,17.4z
				 M11,15.8c0.1,0,0.2,0.1,0.4,0.2c-0.1,0.2-0.3,0.3-0.4,0.5c-0.1,0.1-0.1,0.2,0,0.3C11,17,11.1,17,11.2,17c0.1,0,0.2-0.1,0.3-0.1
				c-0.1,0.3-0.3,0.6-0.4,0.7c-0.2-0.1-0.5-0.3-0.7-0.4c-0.1-0.1-0.2-0.1-0.3-0.2C10.3,16.8,10.7,16.1,11,15.8z"/>
			<path class="st1" d="M25.3,11.6c-0.1-0.3-0.2-0.5-0.4-0.8c0,0,0.1-0.1,0.1-0.1c0.2-0.3,0.3-0.6,0.2-0.9c-0.1-0.5-0.5-0.8-1-0.8
				c-0.1,0-0.3,0-0.4,0c0-0.1,0.1-0.1,0.1-0.2c0.5-0.5,0.6-1.2,0.7-1.5c0-0.2,0-0.5-0.2-0.6c-0.3-0.3-0.9-0.2-1.4-0.1
				c0.4-0.5,0.7-1.1,0.7-1.7c0-0.3-0.2-0.6-0.4-0.8c-0.3-0.3-0.7-0.4-1-0.3c-0.1,0-0.2,0-0.2,0.1c0.2-0.5,0.2-1,0.1-1.3
				c-0.1-0.3-0.4-0.6-0.8-0.7c-0.6-0.2-1.2,0.4-1.6,0.9c-0.1-0.6-0.3-0.7-0.5-0.8l0,0C19,2,18.6,1.9,18.3,1.9
				c-0.3,0-0.6,0.2-0.7,0.5c0,0,0,0,0,0c-0.1-0.2-0.2-0.4-0.3-0.6c-0.3-0.3-0.7-0.4-1.1-0.3c-0.4,0.1-0.6,0.2-0.7,0.5
				c-0.2,0.5,0.1,1.1,0.4,1.6C15.9,3.7,16,3.9,16,4.1c-0.1,0-0.4-0.5-0.6-0.8c-0.3-0.6-0.6-1.2-1.2-1.2c-0.2,0-0.3,0-0.5,0.1
				c-0.1,0.1-0.2,0.2-0.3,0.3c-0.1-0.2-0.4-0.3-0.6-0.4c-0.9-0.3-1.8,1.2-2.1,1.7c-0.1,0-0.3,0.1-0.4,0.2C10.1,3.9,9.9,4,9.8,4
				C9.3,4.2,9,4.5,8.9,5v0c0,0,0,0,0,0c0,0-1.2,4.4-2.3,8.7c-2.3,8.8-2.2,9-2.2,9.2c0.1,0.4,0.8,2.4,3.8,4.1
				c1.6,0.9,2.9,1.1,3.9,1.1c1.1,0,1.8-0.3,1.8-0.3c0,0,0,0,0,0c0,0,0,0,0,0c0,0,0,0,0,0c0,0,0,0,0,0l0,0l11.2-13.8
				c0-0.1,0.1-0.1,0.1-0.2C25.7,13,25.5,12,25.3,11.6z M24,7.2C24,7.2,24,7.2,24,7.2c0,0.2,0,0.5-0.2,0.8c-0.1-0.2-0.2-0.3-0.4-0.5
				c-0.1-0.1-0.3-0.2-0.4-0.3C23.5,7.1,23.9,7.1,24,7.2z M19.8,6.1C19.8,6.1,19.8,6.1,19.8,6.1c0-0.1,0-0.1,0-0.2c0,0,0-0.9,0-1.7
				c0-0.2,0-0.4,0-0.5c0.4-0.6,1-1.3,1.3-1.2c0.3,0.1,0.4,0.3,0.4,0.4c0.1,0.3,0,0.9-0.8,2.1c0,0,0,0.1-0.1,0.1
				c-0.1,0.1,0,0.3,0.1,0.4c0.1,0.1,0.3,0,0.4-0.1c0,0,0-0.1,0.1-0.1c0.2-0.3,0.6-0.7,1-0.8c0.2,0,0.4,0,0.6,0.2
				C23,4.7,23.1,4.8,23.1,5c0,0.4-0.3,1-0.9,1.7c0-0.1,0-0.1-0.1-0.2c-0.3-0.4-1.1-0.9-1.6-0.8c-0.3,0.1-0.6,0.4-0.8,0.8
				C19.7,6.4,19.7,6.2,19.8,6.1z M19.4,7.7c0.3,0,0.4-0.3,0.7-0.7c0.1-0.2,0.4-0.7,0.5-0.7c0,0,0,0,0,0c0.3,0,1,0.4,1,0.6
				C21.5,7.2,21.2,8,21,8.4c-0.1,0.1,0,0.3,0.1,0.4c0.1,0.1,0.3,0,0.4-0.1c0.1-0.3,0.6-1,1-1c0.2,0,0.3,0.1,0.5,0.2
				c0.2,0.2,0.4,0.5,0.3,0.7c0,0.5-0.5,0.9-0.7,1c-0.1,0.1-0.2,0.3-0.1,0.4c0.1,0.1,0.3,0.2,0.4,0.1c0.2-0.1,0.8-0.5,1.2-0.5
				c0.3,0,0.4,0.1,0.5,0.4c0,0.2,0,0.3-0.1,0.5c-0.3,0.4-1.2,0.5-1.5,0.5c-0.1,0-0.2,0.1-0.3,0.2c-0.1,0.2-1.3,0.9-2.7,0.9
				c-0.9,0-1.6-0.3-2.1-0.8c-1.3-1.3-1.2-2.3-1.1-2.5l1.2-0.6c0.1,0,0.2-0.2,0.1-0.3c0-1,0-1.9,0.2-2.1c0.1-0.1,0.3-0.1,0.4-0.1
				c0.1,0,0.3,0,0.3,0.1c0,0.1,0,0.5-0.1,0.8c-0.1,0.6-0.2,1,0.1,1.1C19.3,7.7,19.4,7.7,19.4,7.7z M23,12.2c0,0-0.1,0-0.3,0
				c-0.1,0-0.3,0-0.4,0c-0.1,0-0.2,0-0.3,0c0.4-0.1,0.8-0.3,1.1-0.5c0,0,0,0,0,0C23,11.9,23,12.1,23,12.2z M18.4,19
				c0.1-0.2,0.4-0.7,0.5-1.3c0.5-0.1,0.9-0.1,1.1,0c0,0,0,0,0,0.1c0,0.3-0.2,1-0.7,1.4c-0.2,0.2-0.5,0.2-0.8,0.3
				C18.4,19.2,18.4,19.1,18.4,19z M17.8,19.1c0.1,0.1,0.1,1-0.4,2c-0.3,0.7-1,1.8-2.3,1.9c-0.3,0-0.5,0-0.7,0
				c-1.3,0-1.8-0.5-1.9-0.7l0.2-1.3c0-0.1,0-0.2-0.1-0.3c-0.8-0.5-1.5-1.2-1.6-1.4c0.1-0.3,0.3-0.6,0.4-0.6c0,0,0,0,0.1,0
				c0.1,0.1,0.4,0.3,0.6,0.6c0.4,0.4,0.6,0.6,0.8,0.6c0.1,0,0.1,0,0.2,0c0.3-0.2,0.1-0.5-0.1-1c-0.1-0.2-0.3-0.7-0.3-0.9
				c0.1-0.2,0.7-0.5,1.1-0.5c0,0,0.1,0,0.1,0c0.2,0.3,0.6,1,0.9,1.4c0.1,0.1,0.2,0.2,0.4,0.1c0.1-0.1,0.2-0.2,0.1-0.4l0,0l0,0
				c-0.1-0.2-0.5-1-0.3-1.4c0.1-0.2,0.2-0.3,0.5-0.3c0.7-0.2,1,0.4,1,0.5c0,0,0.1,0.2,0.1,0.2c0.1,0.3,0.1,0.6,0.1,0.6
				c0,0.2,0.1,0.3,0.3,0.3c0.1,0,0.3-0.1,0.3-0.3c0-0.5,0.2-1.5,0.7-1.5c0.1,0,0.1,0,0.2,0c0.2,0.1,0.3,0.2,0.3,0.3
				c0.1,0.5-0.3,1.2-0.5,1.5C17.8,18.9,17.8,19,17.8,19.1z M9,23.2c0-0.1-0.1-0.2-0.3-0.2c0,0-0.1,0-0.1,0c0,0,0,0-0.1,0
				c-0.2,0.1-0.8,0.3-1.5,0.3c-0.9,0-1-0.5-1.1-0.9c0-0.1,0-0.2,0-0.2c0.2-0.2,0.7-0.2,1.1-0.3c0.6,0,1.1-0.1,1.3-0.4
				c0.1-0.1,0.2-0.3,0.1-0.5c0-0.3-0.3-0.4-0.7-0.4c-0.1,0-0.3,0-0.5,0c-0.2,0-0.4,0-0.6,0c-0.4,0-0.5-0.1-0.6-0.1
				c-0.1-0.1,0-0.3,0-0.4C6.3,20,6.5,19.7,7,19.7c0.3,0,0.5,0.1,0.8,0.1C7.9,20,8.1,20,8.2,20c0,0,0.1,0,0.1,0c0,0,0.1,0,0.1,0
				c-0.1,0.2-0.1,0.5,0.1,0.8c0.2,0.3,0.6,0.3,0.8,0.3c0.1,0,0.3,0,0.4,0c0,0.1,0.1,0.2,0.1,0.3c-0.3,0.8-0.5,1.7-0.3,2.4
				c0,0.1,0.1,0.2,0.3,0.2c0,0,0.1,0,0.1,0c0.1,0,0.2-0.2,0.2-0.4c-0.1-0.4,0-1.1,0.2-1.7c0.2,0.2,0.5,0.4,0.8,0.6
				c0.1,0.1,0.3,0.2,0.5,0.2c0,0.3,0,0.5-0.1,0.7c-0.4,1.1-0.9,1.6-1.6,1.6l0,0c-0.3,0-0.7-0.1-1.1-0.3c-0.6-0.3-0.7-0.6-0.7-0.6
				c0-0.1,0.2-0.4,0.6-0.5c0,0,0.1,0,0.1,0C9,23.5,9,23.4,9,23.2z M8.5,15.8c0-0.3-0.4-0.4-0.6-0.4c-0.1,0-0.3,0-0.3-0.1
				c0-0.2-0.1-0.6,0.1-0.9c0-0.1,0.1-0.1,0.2-0.1c0.1,0,0.1,0,0.2,0c0.4,0.2,0.6,0.3,0.8,0.4C9,14.9,9.1,15,9.2,15l0,0
				c0.2,0,0.4-0.2,0.4-0.3C9.9,14.3,10,14,10.3,14c0.3,0,0.9,0.3,1.6,0.8c0.9,0.7,1.6,1.6,1.6,1.8c0,0.1-0.1,0.2-0.1,0.3
				c-0.5,0.1-1.1,0.4-1.2,0.8c-0.1,0.3,0,0.7,0.2,1.1c-0.2-0.3-0.5-0.5-0.7-0.6c-0.1,0-0.2-0.1-0.3-0.1c-0.5,0-0.9,0.6-1,1.1
				c0,0.2,0,0.3,0.2,0.5c0,0.1-0.1,0.1-0.1,0.2c-0.2,0.4-0.7,0.5-1.1,0.5c-0.2,0-0.3,0-0.3-0.1c-0.1-0.2,0-0.4,0.4-0.8
				c0.2-0.2,0.5-0.4,0.4-0.6c-0.1-0.3-0.2-0.3-0.4-0.3c-0.2,0-0.4,0.2-0.7,0.4c-0.1,0.1-0.4,0.3-0.5,0.3c-0.1-0.1-0.2-0.2-0.2-0.3
				c-0.1-0.2-0.3-0.4-0.3-0.5c0,0,0-0.1,0.1-0.1c0.2-0.1,0.4-0.2,0.5-0.3c0.2-0.1,0.5-0.2,0.5-0.6c0-0.2-0.1-0.3-0.4-0.3
				c-0.2,0-0.4,0.1-0.6,0.1c-0.1,0-0.3,0.1-0.4,0.1c0-0.1-0.1-0.1-0.2-0.2c-0.3-0.3-0.5-0.6-0.3-0.7c0.2-0.2,0.6-0.3,0.9-0.4
				C8.2,16.2,8.5,16.1,8.5,15.8z M12.3,10.9c0.1,0.3,0.3,0.5,0.6,0.8l0.4,0.9c0,0.1,0.1,0.1,0.2,0.2c0,0,0.2,0,0.5,0.1
				c-0.2,0.3-0.3,0.7-0.3,1.1c0,0-0.1,0-0.1,0c0.1-0.3,0-0.6,0-0.8c-0.1-0.3-0.4-0.6-0.8-0.7c-0.7-0.2-1.4,0.6-1.8,1.2
				c0.1-0.3,0.2-0.6,0.2-0.8c0.1-0.1,0.2-0.1,0.2-0.2c0.1-0.1,0.1-0.3,0.1-0.4C11.3,12,11.2,12,11,12.1l0,0
				c-0.1-0.2-0.4-0.4-0.7-0.5c-0.3-0.1-0.6,0-0.9,0.2c0.3-0.4,1.1-0.5,1.4-0.5c0.1,0,0.2-0.1,0.2-0.2c0-0.1,0.5-0.5,1.2-0.7
				C12.2,10.5,12.2,10.7,12.3,10.9z M19.9,13c0,0,0,0.1,0.1,0.1c-0.9-0.2-1.8-0.5-2.7-0.9c0,0,0.1-0.1,0.1-0.1
				c0.1-0.1,0.2-0.3,0.3-0.4c0.6,0.6,1.3,0.9,2.2,0.9C19.9,12.7,19.8,12.8,19.9,13z M17,11.7c-0.1,0.1-0.2,0.2-0.2,0.3
				c0,0-0.1,0-0.1,0c-0.4-0.2-0.8-0.4-1.2-0.6l0,0c0.1,0,0.2,0,0.3,0c0.1,0,0.2-0.1,0.6-0.7c0.1-0.2,0.2-0.3,0.2-0.4
				c0.1,0.3,0.4,0.7,0.7,1.1C17.3,11.4,17.1,11.5,17,11.7z M16.3,12.7c0.2,0.1,0.4,0,0.6-0.1c0,0,0.1,0,0.1,0.1
				c-0.5,0.2-0.6,1-0.7,1.5c0,0.2-0.1,0.4-0.1,0.6c0,0,0,0,0,0c-0.1-0.1,0-0.6,0-1C16.3,13.4,16.3,13,16.3,12.7z M16.1,10.1
				c-0.3-0.2-0.6-0.4-1-0.5c0.1-0.2,0.2-0.3,0.2-0.4c0.1,0,0.2,0.1,0.3,0.1c0.2,0.1,0.5,0.3,0.7,0.4C16.2,9.8,16.1,9.9,16.1,10.1z
				 M15.7,10.5c-0.1,0.1-0.1,0.2-0.2,0.2c0,0,0,0-0.1,0c-0.3,0-0.7-0.2-0.9-0.3c0-0.1,0.1-0.2,0.1-0.4
				C15.2,10.2,15.5,10.3,15.7,10.5z M15.6,12c0,0-0.1,0-0.1,0c-0.1,0-0.1,0-0.2,0c-0.1,0-0.2,0-0.2,0c-0.3-0.1-0.5-0.2-0.8-0.3
				c-0.9-0.4-1.4-0.7-1.5-1c0-0.1,0-0.2,0-0.4C13.6,10.9,14.6,11.4,15.6,12z M13.8,12.1c0,0-0.1,0-0.1,0l0,0
				C13.7,12.1,13.8,12.1,13.8,12.1z M13.1,13.8c-0.2,0.1-0.3,0.2-0.5,0.4c-0.1-0.1-0.2-0.3-0.3-0.4c-0.2-0.1-0.4-0.2-0.6-0.3
				c0.3-0.4,0.7-0.7,0.9-0.7c0.3,0.1,0.4,0.3,0.4,0.4C13.1,13.3,13.1,13.5,13.1,13.8z M10.1,12.1c0.3,0.1,0.4,0.3,0.4,0.4
				c0.1,0.2,0.1,0.5-0.2,1c0,0,0,0,0,0c-0.7,0-1,0.5-1.2,0.9c0,0,0,0,0,0c-0.2-0.1-0.4-0.3-0.9-0.5c0,0-0.1,0-0.1,0
				c0.1,0,0.1,0,0.2,0c0.1,0,0.2-0.1,0.2-0.1C9,12.9,9.7,12,10.1,12.1z M10.9,20.4C10.9,20.3,10.9,20.3,10.9,20.4
				c0.3,0.3,0.8,0.6,1.2,0.8l-0.2,1c-0.2-0.1-0.3-0.1-0.4-0.2c-0.6-0.4-1-0.7-1.2-1.1C10.5,20.8,10.7,20.6,10.9,20.4z M11.8,24.3
				c0.1,0,0.2-0.1,0.4-0.1c0.1,0,0.1,0,0.1,0c0.1,0,0.2-0.2,0.2-0.3c0-0.1-0.2-0.2-0.3-0.2c0,0,0,0,0,0c0,0,0,0,0,0
				c0.1-0.2,0.1-0.4,0.1-0.6c0.3,0.3,1,0.7,2.2,0.7c0.2,0,0.4,0,0.6,0c0.1,0,0.2,0.1,0.2,0.1c0,0,0,0,0,0c-0.4,0.8-1.3,2-2,2.1
				c-0.2,0-0.3,0-0.5-0.1c-0.1-0.1-0.2-0.1-0.3,0c-0.8,0.3-2,0.5-2.2,0.1c0-0.1-0.1-0.2-0.1-0.2C11,25.5,11.5,24.8,11.8,24.3z
				 M14.1,16.5c0.2,0,0.4,0.1,0.6,0.2c-0.2,0.1-0.3,0.2-0.3,0.4C14.3,16.8,14.3,16.6,14.1,16.5C14.1,16.5,14.1,16.5,14.1,16.5z
				 M18.2,16.4c-0.1-0.1-0.3-0.1-0.4-0.1c-0.3,0-0.7,0.1-1,0.8c-0.1-0.1-0.1-0.2-0.2-0.3c-0.3-0.3-0.7-0.4-1.1-0.4
				c-0.6-0.3-1.2-0.6-1.8-0.6c0-0.1-0.1-0.1-0.1-0.2c-0.2-0.3-0.5-0.6-0.8-0.8c0.4-0.4,0.6-0.5,0.6-0.5c0.2,0,0.3,0.4,0.4,0.7
				c0,0.1,0,0.1,0,0.1c0,0.1,0.2,0.2,0.3,0.2c0.1,0,0.2-0.2,0.2-0.3c0,0,0,0,0-0.1c0-0.2-0.2-1.5,0.3-2.1c0.2-0.2,0.5-0.3,0.8-0.3
				c0.1,0,0.2,0.1,0.2,0.1c0.2,0.2,0.1,0.7,0,1.2c-0.1,0.5-0.2,1.1,0.1,1.4c0.1,0.1,0.2,0.2,0.5,0.2c0,0,0,0,0,0
				c0.5,0,0.5-0.5,0.6-1.1c0.1-0.6,0.2-1.1,0.5-1.1c0.1,0,0.2,0,0.3,0.1c0.2,0.1,0.3,0.2,0.4,0.4c0.1,0.6-0.5,1.6-0.9,2
				c-0.1,0.1-0.1,0.3,0,0.4s0.3,0.1,0.4,0c0.1-0.1,0.6-0.8,1.3-1.3l0,0c0,0,0.2,0,0.5,0.6c0,0,0,0,0,0c0,0.2-0.3,0.8-0.7,1.5
				C18.6,16.6,18.4,16.5,18.2,16.4z M18.5,14.3c0-0.1,0-0.2,0.1-0.4c0.1,0,0.1,0,0.2,0.1c0,0,0,0.1,0,0.2
				C18.7,14.2,18.6,14.3,18.5,14.3C18.5,14.3,18.5,14.3,18.5,14.3z M19.3,16.9c0.8-1.3,0.8-1.7,0.6-1.9l0,0
				c-0.2-0.3-0.4-0.5-0.6-0.7c0-0.2,0-0.4,0-0.5c0-0.1-0.2-0.2-0.3-0.3c-0.1,0-0.2-0.1-0.4-0.1c0,0-0.1,0-0.2,0c0,0,0-0.1-0.1-0.1
				c1.1,0.4,2.1,0.6,3,0.7c0,0-0.1,0-0.1,0.1c-0.3,0.2-0.6,0.4-0.5,0.7c0,0.1,0.1,0.2,0.4,0.2c0.1,0,0.2,0,0.3,0c0.1,0,0.2,0,0.3,0
				c0,0,0,0,0,0c0.1,0.2,0.3,0.7,0.1,0.9c0,0-0.1,0.1-0.3,0.1c0,0,0,0-0.1,0c-0.4,0-0.7-0.1-0.9-0.2c-0.1,0-0.2-0.1-0.3-0.1
				c-0.2,0-0.4,0.1-0.4,0.4C19.9,16.6,19.8,16.9,19.3,16.9z M20.4,13.2c0.1,0,0.3-0.1,0.5-0.3c0.1-0.1,0.3-0.2,0.4-0.2
				c0.1,0,0.1,0.1,0.2,0.1c0.4,0.2,0.6,0.4,0.5,0.6c0,0,0,0,0,0.1C21.5,13.4,20.9,13.3,20.4,13.2z M21.9,14.3
				c0.1-0.1,0.2-0.2,0.3-0.2c0.1,0,0.3,0,0.4,0C22.4,14.1,22.2,14.2,21.9,14.3z M22.6,13.5c0-0.1,0-0.1,0-0.2c0.1,0,0.2,0.1,0.3,0.2
				C22.8,13.5,22.7,13.5,22.6,13.5z M13.6,5.3c0.2,0,0.4,0.1,0.6,0.3c0,0,0.1,0.1,0.1,0.1c0.1,0.1,0.3,0.1,0.4,0
				c0.1-0.1,0.1-0.3,0-0.4c0,0,0,0-0.1-0.1c-0.2-0.2-1.1-1.1-1-1.9c0-0.3,0.2-0.5,0.5-0.7c0.1,0,0.1-0.1,0.2-0.1
				c0.3,0,0.5,0.5,0.7,0.9c0.3,0.6,0.6,1.1,1.1,1.1c0.1,0,0.2,0,0.3-0.1c0.4-0.2,0.1-0.8-0.1-1.2c-0.2-0.4-0.5-0.9-0.4-1.1
				C16,2.1,16.1,2,16.3,2c0.3,0,0.5,0,0.6,0.2c0.4,0.5,0.5,1.6,0.4,2.1c0,0.2,0.1,0.3,0.3,0.3c0.1,0,0.3-0.1,0.3-0.3
				c0,0,0.1-1,0.3-1.8c0,0,0,0,0.1,0c0.2,0,0.5,0.1,0.6,0.2c0,0,0,0,0,0c0.2,0.2,0.3,1.2,0.3,2.4C19.2,5,19,5,18.9,5
				c-0.2,0-0.5,0.1-0.7,0.2c-0.2,0.1-0.3,0.3-0.4,0.6c0,0,0,0,0,0c-0.4,0-0.6,0.1-0.8,0.4C17,6.1,17,6,16.9,5.9
				c-0.1-0.1-0.2-0.2-0.4-0.2c-0.1,0-0.3,0-0.4,0c-0.2,0-0.3,0-0.5,0c-0.5,0-0.7,0.2-0.8,0.5c-0.1-0.1-0.2-0.2-0.3-0.2c0,0,0,0,0,0
				c0,0-0.1,0-0.2,0c-0.2,0-0.4-0.1-0.6-0.1c-0.2,0-0.4,0-0.5,0.1C13.3,5.6,13.4,5.3,13.6,5.3z M13.2,8.3c0.1,0,0.1,0,0.2,0
				c0.3-0.1,0.2-0.5,0.1-0.9c-0.1-0.3-0.2-0.7-0.1-1c0,0,0-0.1,0.3-0.1c0.2,0,0.3,0,0.5,0.1c0.1,0,0.2,0,0.3,0
				c0,0.1,0.1,0.3,0.1,0.4c0.1,0.4,0.2,0.8,0.5,0.8c0,0,0.1,0,0.1,0c0.3-0.1,0.3-0.4,0.3-0.7c0-0.1,0-0.3,0-0.6c0-0.2,0-0.2,0.2-0.2
				c0.1,0,0.2,0,0.4,0c0.1,0,0.3,0,0.4,0c0,0.1,0,0.4,0,0.6c-0.1,0.4-0.1,0.7,0.1,0.9c0.1,0.1,0.3,0.2,0.5,0.1
				c0.3-0.1,0.3-0.4,0.4-0.7c0.1-0.5,0.2-0.8,0.4-0.8c0,0,0,0,0,0c0,0.4,0,0.9,0,1.3l-1.1,0.6c0,0-0.1,0.1-0.1,0.1
				c0,0-0.1,0.3-0.1,0.8c-0.1-0.1-0.3-0.2-0.6-0.3c-0.1-0.1-0.3-0.1-0.4-0.2c-0.1,0-0.1-0.1-0.2-0.1c-0.6,0-1.2,1.7-1.2,1.9
				c-0.4-0.2-0.7-0.5-1-0.7c0-0.1,0.1-0.2,0.1-0.3c0-0.2-0.2-0.3-0.4-0.4C12.6,9,12.3,8.8,12,8.6c-0.2-0.2-0.2-0.3-0.2-0.3
				c0.1-0.2,0.5-0.5,0.7-0.6c0.1,0,0.2,0.2,0.2,0.2C12.9,8.1,13,8.3,13.2,8.3L13.2,8.3z M12.7,7.2c-0.1,0-0.1,0-0.2,0
				c0,0-0.1,0-0.1,0c0,0,0,0,0,0c-0.1-0.1-0.1-0.2-0.2-0.3c-0.3-0.3-0.6-0.8-0.5-1c0-0.1,0.2-0.2,0.3-0.2c0.1,0,0.2-0.1,0.3-0.1
				c0.2,0,0.3,0.1,0.5,0.2c0,0.1,0,0.2,0,0.3C12.6,6.6,12.7,6.9,12.7,7.2z M10.4,4.5c0.1-0.1,0.2-0.2,0.4-0.2c0.1,0,0.2-0.1,0.2-0.1
				c0.4-0.7,1.2-1.7,1.6-1.6C13,2.7,13.1,2.8,13.1,3v0c0,0.1-0.1,0.2-0.1,0.3c0,0.1,0,0.3,0,0.4C12.9,4,12.7,4.5,12.3,5
				c0,0-0.1,0-0.1,0c-0.1,0-0.3,0-0.5,0.1c-0.4,0.1-0.6,0.3-0.7,0.6c-0.1,0.5,0.3,1,0.6,1.5c-0.1,0-0.1,0-0.2,0
				c-0.1-0.1-0.1-0.1-0.2-0.2c-0.4-0.5-0.7-1-1.2-1C10.1,5.4,10.2,4.8,10.4,4.5z M9.9,6.7c0.1-0.1,0.2-0.1,0.2-0.1
				c0.2,0,0.6,0.4,0.8,0.8c0.1,0.2,0.3,0.4,0.4,0.5c0,0.1-0.1,0.2-0.1,0.3c0,0.1,0,0.1,0,0.2C10.6,7.8,10.1,7.2,9.9,6.7
				C9.9,6.7,9.9,6.7,9.9,6.7z M12.1,9.8c-0.7,0.3-1.2,0.6-1.4,0.9c-0.2,0-0.5,0.1-0.9,0.2c-0.1-0.2-0.1-0.4-0.1-0.6
				c-0.1-0.6,0-0.8,0.1-0.9c0,0,0.1-0.1,0.2-0.1c0.2,0,0.4,0.1,0.6,0.2c0,0,0.1,0,0.1,0c0.1,0.1,0.3,0,0.4-0.1
				C11,9.4,11,9.3,10.9,9.2c0,0,0,0-0.1,0C10.6,9,9.6,8.2,9.5,7.4c0-0.1,0-0.1,0-0.2C10.1,8,11,8.9,12.1,9.8z M9.4,5.2
				C9.4,5.2,9.4,5.2,9.4,5.2C9.5,5,9.6,4.8,9.7,4.7c-0.1,0.4-0.1,1-0.1,1.5c0,0,0,0,0,0C9.4,5.8,9.3,5.5,9.4,5.2z M9.1,6.5
				c0,0.1,0.1,0.1,0.1,0.2C9,6.9,8.9,7.2,9,7.5c0,0.5,0.3,1,0.7,1.4C9.5,8.9,9.4,8.9,9.3,9C9.1,9.3,9,9.7,9.1,10.3
				c0,0.3,0.1,0.6,0.2,0.8c-0.1,0.1-0.3,0.2-0.4,0.4c-0.2,0.2-0.2,0.5-0.1,0.9c-0.3,0.3-0.5,0.7-0.6,0.9c-0.3,0-0.5,0.2-0.7,0.4
				c-0.1,0.1-0.1,0.2-0.2,0.4c0,0,0,0.1-0.1,0.1c-0.3,0.4-0.3,1.1-0.2,1.4c0,0,0,0.1,0,0.1c0,0.1,0,0.2,0,0.4
				c-0.2,0.1-0.4,0.2-0.5,0.3C7.3,13.2,8.2,9.6,9.1,6.5z M6.3,17c0.1,0.3,0.3,0.5,0.5,0.7C6.9,17.8,6.9,17.9,7,18c0,0,0,0.1,0.1,0.1
				c-0.1,0.2-0.2,0.4-0.2,0.6c0,0.2,0.1,0.3,0.2,0.4c0,0,0,0,0,0c0,0,0,0-0.1,0c-0.7,0-1.2,0.4-1.3,1c-0.1,0.4,0,0.6,0.1,0.9
				c0.3,0.3,0.7,0.4,1,0.4c0.2,0,0.4,0,0.6,0c0.2,0,0.3,0,0.5,0c0.1,0,0.1,0,0.1,0c0,0,0,0,0,0c-0.1,0.1-0.6,0.2-0.9,0.2
				c-0.6,0-1.2,0.1-1.5,0.5c-0.1,0.1-0.1,0.2-0.2,0.4c-0.1,0-0.3,0-0.4,0.1C5.2,21.6,5.7,19.5,6.3,17z M8.5,26.4
				c-2.4-1.3-3.2-2.8-3.4-3.5c0.1,0,0.2-0.1,0.4-0.1C5.7,23.6,6.2,24,7.1,24c0.2,0,0.4,0,0.6,0c0,0.1,0,0.1,0,0.2
				c0,0.4,0.3,0.8,1,1.1c0.3,0.2,0.7,0.3,1,0.3c0,0.2,0.1,0.3,0.2,0.5c0.2,0.3,0.6,0.5,1.1,0.5c0.6,0,1.3-0.2,1.6-0.3
				c0.1,0.1,0.2,0.1,0.3,0.1c0.3,0.4,0.5,0.7,0.6,0.9C12.8,27.5,11,27.8,8.5,26.4z M13.9,26.9c-0.1-0.2-0.2-0.4-0.4-0.6
				c1.1-0.4,2.1-2.1,2.2-2.3c0.1-0.2,0.1-0.4,0-0.6c1.2-0.4,1.9-1.5,2.2-2.1c0.2-0.4,0.4-0.9,0.4-1.3c0.5,0,0.9-0.1,1.2-0.4
				c0.7-0.5,0.9-1.4,1-1.8c0-0.2,0-0.5-0.2-0.6c-0.1,0-0.1-0.1-0.2-0.1c0.3-0.3,0.4-0.6,0.4-0.9c0,0,0,0,0.1,0
				c0.2,0.1,0.5,0.1,1,0.2c0.6,0,0.8-0.2,0.9-0.4c0.2-0.4,0.1-1-0.1-1.3c0.4-0.1,0.7-0.3,0.9-0.5c0,0,0.1-0.1,0.1-0.2
				c0.4,0,0.7,0,0.9-0.1L13.9,26.9z M24.8,13.3c-0.1,0.1-0.6,0.2-1.2,0.2c-0.1-0.4-0.3-0.6-0.6-0.7c0.2,0,0.4-0.1,0.5-0.2
				c0.1-0.1,0.1-0.2,0.1-0.4c0-0.1,0-0.3,0-0.5c0-0.1,0-0.2,0-0.4c0.3,0,0.6-0.1,0.9-0.2c0.2,0.2,0.3,0.4,0.3,0.6
				C25,12.3,25.1,13,24.8,13.3z"/>
		</g>
	</g>
</g>
</svg>
