<?xml version="1.0" encoding="utf-8"?>
<!-- Generator: Adobe Illustrator 21.1.0, SVG Export Plug-In . SVG Version: 6.00 Build 0)  -->
<svg version="1.1" id="Layer_1" xmlns="http://www.w3.org/2000/svg" xmlns:xlink="http://www.w3.org/1999/xlink" x="0px" y="0px"
	 viewBox="0 0 30 30" style="enable-background:new 0 0 30 30;" xml:space="preserve">
<style type="text/css">
	.st0{fill:#BFD58E;}
	.st1{fill:#4DB648;}
	.st2{fill:#010101;}
</style>
<g>
	<path class="st0" d="M8.6,3.9c-0.4,0.5-0.3,0.9,0,0.7c0,0,0,0,0,0l0,0C8.6,5,13.2,23.7,24.6,25.1c0.1,0,0.2-0.1,0.3-0.2
		C30.9,20.1,13.1-1.9,8.6,3.9z"/>
	<path class="st1" d="M24.7,25.1c0,0-11.9,5.7-18.3-2.2c-5.7-7-0.5-15.6,2.1-18.4C8.4,4,12.9,23.7,24.7,25.1z"/>
	<path class="st2" d="M26.1,18.4C23.7,11.7,15.4,2.3,10.6,2.3c-1,0-1.9,0.4-2.5,1.2C7.7,4.1,7.4,4.6,7.1,5.3
		c-2.8,3.6-6.6,11.5-1.2,18c2.4,2.9,5.7,4.4,9.9,4.4c4.8,0,9-2,9.1-2.1c0.1,0,0.1-0.1,0.2-0.2c0,0,0.1-0.1,0.2-0.1
		C26.4,24.5,27.5,22.5,26.1,18.4z M25.4,23.1l-6.5-7.8l4.6,0.4c0.6,1.1,1.1,2.1,1.4,3.1C25.4,20.2,25.8,21.8,25.4,23.1z M22.7,14.4
		L18.2,14l1.5-3.8C20.8,11.5,21.8,13,22.7,14.4z M12.7,13.5c-0.1,0-0.3,0-0.4,0.1c-1.1-2.2-1.9-4.3-2.4-6l6,6.2L12.7,13.5z
		 M16.9,15.1l1.4,6.4c-2.2-1.9-3.9-4.3-5.3-6.8L16.9,15.1z M19.5,22.5c0.1-0.1,0.1-0.3,0.1-0.5l-1.2-5.4l6.3,7.6
		c-0.1,0.1-0.1,0.1-0.2,0.2c0,0,0,0,0,0C22.7,24.2,21,23.5,19.5,22.5z M18.8,9.2l-1.5,3.7l-3.8-8.3C15.1,5.5,17,7.2,18.8,9.2z
		 M10.6,3.5c0.4,0,0.8,0.1,1.2,0.2c0,0,0,0.1,0,0.1l3.5,7.6L9.6,5.5C9.5,5.4,9.4,5.4,9.3,5.3C9.1,4.9,9.1,4.5,9.1,4.4l0,0l0,0
		c0,0,0-0.1,0-0.2C9.4,3.7,9.9,3.5,10.6,3.5z M15.8,26.5c-3.8,0-6.8-1.3-9-3.9C1.9,16.5,5.4,9.1,7.9,5.9c1.1,3.9,5.7,16.7,14.6,19.5
		C21,25.8,18.5,26.5,15.8,26.5z"/>
</g>
</svg>
