<?xml version="1.0" encoding="utf-8"?>
<!-- Generator: Adobe Illustrator 21.1.0, SVG Export Plug-In . SVG Version: 6.00 Build 0)  -->
<svg version="1.1" id="Layer_1" xmlns="http://www.w3.org/2000/svg" xmlns:xlink="http://www.w3.org/1999/xlink" x="0px" y="0px"
	 viewBox="0 0 30 30" style="enable-background:new 0 0 30 30;" xml:space="preserve">
<style type="text/css">
	.st0{fill:#FFFFFF;}
	.st1{fill:#B7B7B8;}
	.st2{fill:#010101;}
</style>
<g>
	<g>
		<path class="st0" d="M8.5,14.8c0,0,3.3-1.1,6.1-1.1s5.4,0.2,6,0.5c0.6,0.3,1.5,10.6,1.5,11.3s-6.1,4.2-11.8,2
			c-4.1-1.5-3.1-3.7-2.7-6.1C7.9,18.5,8,15.1,8.5,14.8z"/>
	</g>
	<g>
		<g>
			<g>
				<path class="st1" d="M9.5,9.1c2,1.6,8.6,1.5,10.9-0.2l0.1-1.6c0-0.6-1-2.3-1-2.3s-1-0.9-3.7-1.2c-2.7-0.3-4.8,0.7-5.6,1.3
					c0,0-1.5,0.9-1.1,2.8C9.5,10,9.5,9.1,9.5,9.1z"/>
			</g>
		</g>
		<g>
			<g>
				<path class="st2" d="M14.7,8.8c-0.2,0-0.3-0.1-0.3-0.3c0-0.2,0.2-0.3,0.3-0.3c3.1,0,4.6-0.9,4.6-0.9c0.1-0.1,0.4-0.1,0.5,0.1
					c0.1,0.1,0.1,0.3-0.1,0.4C19.6,7.8,18,8.8,14.7,8.8z"/>
			</g>
		</g>
		<g>
			<g>
				<g>
					<path class="st2" d="M14.9,6.6c0.4,0,0.4-0.5,0-0.5C14.5,6.1,14.5,6.6,14.9,6.6L14.9,6.6z"/>
				</g>
			</g>
		</g>
		<g>
			<g>
				<g>
					<path class="st2" d="M13.4,6c0.4,0,0.4-0.5,0-0.5S13.1,6,13.4,6L13.4,6z"/>
				</g>
			</g>
		</g>
		<g>
			<g>
				<g>
					<path class="st2" d="M12,6.2c0.4,0,0.4-0.5,0-0.5C11.7,5.7,11.7,6.2,12,6.2L12,6.2z"/>
				</g>
			</g>
		</g>
		<g>
			<g>
				<g>
					<path class="st2" d="M15,5.3c0.4,0,0.4-0.5,0-0.5C14.6,4.8,14.6,5.3,15,5.3L15,5.3z"/>
				</g>
			</g>
		</g>
		<g>
			<g>
				<g>
					<path class="st2" d="M16.3,5.9c0.4,0,0.4-0.5,0-0.5C15.9,5.4,15.9,5.9,16.3,5.9L16.3,5.9z"/>
				</g>
			</g>
		</g>
		<g>
			<g>
				<g>
					<path class="st2" d="M17.6,6.1c0.4,0,0.4-0.5,0-0.5C17.2,5.6,17.2,6.1,17.6,6.1L17.6,6.1z"/>
				</g>
			</g>
		</g>
		<g>
			<g>
				<g>
					<path class="st2" d="M10.9,23.6c0.4,0,0.4-0.5,0-0.5S10.5,23.6,10.9,23.6L10.9,23.6z"/>
				</g>
			</g>
		</g>
		<g>
			<g>
				<g>
					<path class="st2" d="M10,19.3c0.4,0,0.4-0.5,0-0.5C9.6,18.8,9.6,19.3,10,19.3L10,19.3z"/>
				</g>
			</g>
		</g>
		<g>
			<g>
				<g>
					<path class="st2" d="M9.3,24.9c0.4,0,0.4-0.5,0-0.5C9,24.4,9,24.9,9.3,24.9L9.3,24.9z"/>
				</g>
			</g>
		</g>
		<g>
			<g>
				<g>
					<path class="st2" d="M12.8,26.7c0.4,0,0.4-0.5,0-0.5C12.4,26.2,12.4,26.7,12.8,26.7L12.8,26.7z"/>
				</g>
			</g>
		</g>
		<g>
			<g>
				<g>
					<path class="st2" d="M14.2,23.8c0.4,0,0.4-0.5,0-0.5C13.9,23.3,13.9,23.8,14.2,23.8L14.2,23.8z"/>
				</g>
			</g>
		</g>
		<g>
			<g>
				<g>
					<path class="st2" d="M10.4,21.9c0.4,0,0.4-0.5,0-0.5C10,21.4,10,21.9,10.4,21.9L10.4,21.9z"/>
				</g>
			</g>
		</g>
		<g>
			<g>
				<g>
					<path class="st2" d="M12.6,22.4c0.4,0,0.4-0.5,0-0.5C12.2,21.9,12.2,22.4,12.6,22.4L12.6,22.4z"/>
				</g>
			</g>
		</g>
		<g>
			<g>
				<g>
					<path class="st2" d="M9.1,22.8c0.4,0,0.4-0.5,0-0.5C8.7,22.3,8.7,22.8,9.1,22.8L9.1,22.8z"/>
				</g>
			</g>
		</g>
		<path class="st2" d="M20.9,8.9c0.1-0.4,0.5-2.9-1.2-4.1c-1.3-0.9-2.8-1.3-4.5-1.3c-0.2,0-0.5,0-0.7,0c-2.3,0.1-4.2,1-5.1,2.2
			c-0.7,0.9-0.9,2-0.5,3.1c-0.5,3.8-2,15.8-1.6,16.6c0.4,0.9,3.3,3.1,7.3,3.1c1.9,0,3.7-0.4,5.3-1.1c1.4-0.6,2.5-1.4,2.7-2.2
			C23.2,24,21.2,10.7,20.9,8.9z M20.9,14.1c-1.1-0.6-3.8-0.7-6-0.7c-1.6,0.1-3.2,0.2-4.3,0.5C9.9,14,9.4,14.2,9,14.4
			c0.2-1.7,0.4-3.5,0.6-5c1.1,0.7,3,1,5,1c2.1,0,4.4-0.4,5.7-1.2C20.5,10.7,20.7,12.4,20.9,14.1z M10,6.1c0.8-1.1,2.6-1.8,4.6-1.9
			c1.8-0.1,3.3,0.3,4.7,1.2c1.1,0.7,1.1,2.4,1,3.2c0,0-0.1,0-0.1,0.1c-1,0.7-3,1.2-5.3,1.3c-2.3,0-4.2-0.4-5.1-1.1
			c0,0-0.1-0.1-0.1-0.1C9.3,7.7,9.4,6.9,10,6.1z M22.1,25.1c-0.4,1.2-3.5,2.8-7.4,2.8c-3.7,0-6.3-2.1-6.7-2.7
			c-0.1-0.5,0.3-5,0.9-9.7c0,0,0.1-0.1,0.1-0.2c0.1-0.6,2.3-1.2,6-1.3c3.2-0.1,5.4,0.3,5.8,0.7c0,0,0,0.1,0,0.1
			c-0.3,0.8-2,1.3-4.8,1.4c-0.2,0-0.3,0.1-0.3,0.3c0,0.2,0.2,0.3,0.3,0.3h0c2.7-0.1,4.4-0.6,5.2-1.3C21.8,20.1,22.3,24.5,22.1,25.1z
			"/>
	</g>
</g>
</svg>
