<?xml version="1.0" encoding="utf-8"?>
<!-- Generator: Adobe Illustrator 21.0.0, SVG Export Plug-In . SVG Version: 6.00 Build 0)  -->
<svg version="1.1" id="Layer_1" xmlns="http://www.w3.org/2000/svg" xmlns:xlink="http://www.w3.org/1999/xlink" x="0px" y="0px"
	 viewBox="0 0 14.3 14.8" style="enable-background:new 0 0 14.3 14.8;" xml:space="preserve">
<style type="text/css">
	.st0{fill:#FFFFFF;}
</style>
<g>
	<g>
		<path class="st0" d="M13.1,7.2c0,0,0.2,0,0.1,0L13.1,7.2L13.1,7.2z"/>
		<path class="st0" d="M13.4,6.8c-0.1-0.1-0.3-0.1-0.4-0.1C13.2,6.8,13.1,6.8,13.4,6.8C13.3,7,13.3,7,13.2,7c0,0,0,0.1,0.1,0.1
			c0.1-0.1,0.1-0.2,0-0.3C13.3,6.8,13.4,6.8,13.4,6.8z"/>
		<path class="st0" d="M11,1.9L11,1.9C11,1.9,11,1.9,11,1.9z"/>
		<path class="st0" d="M7.6,0.6C7.6,0.6,7.6,0.6,7.6,0.6C7.6,0.5,7.6,0.6,7.6,0.6z"/>
		<path class="st0" d="M7,0.4C7,0.4,7,0.4,7,0.4C7,0.4,7,0.3,7,0.4z"/>
		<path class="st0" d="M11,1.9l0-0.1C10.9,1.8,10.9,1.8,11,1.9z"/>
		<path class="st0" d="M12.9,6.2C12.9,6.2,12.9,6.2,12.9,6.2C12.9,6.2,12.9,6.2,12.9,6.2C12.9,6.2,12.9,6.2,12.9,6.2z"/>
		<path class="st0" d="M12.2,2.9L12.2,2.9C12.3,2.9,12.3,2.9,12.2,2.9L12.2,2.9z"/>
		<path class="st0" d="M13,3.9c0,0-0.2,0-0.2,0.1C12.8,3.9,12.9,3.9,13,3.9C12.9,3.9,13,3.9,13,3.9z"/>
		<path class="st0" d="M13.5,5.8L13.5,5.8C13.5,5.8,13.5,5.8,13.5,5.8z"/>
		<path class="st0" d="M11.6,2.2C11.7,2.2,11.7,2.2,11.6,2.2C11.7,2.2,11.6,2.2,11.6,2.2z"/>
		<path class="st0" d="M12.6,8.4C12.6,8.4,12.6,8.4,12.6,8.4C12.6,8.4,12.6,8.4,12.6,8.4z"/>
		<path class="st0" d="M13.5,7.2L13.5,7.2C13.5,7.2,13.6,7.2,13.5,7.2L13.5,7.2z"/>
		<path class="st0" d="M5.7,0.3C5.7,0.3,5.8,0.3,5.7,0.3C5.8,0.3,5.8,0.3,5.7,0.3z"/>
		<path class="st0" d="M0.4,8.7c0.1-0.1,0.2,0.2,0.3-0.1C0.6,8.7,0.4,8.5,0.4,8.7z"/>
		<path class="st0" d="M12.9,6.1C12.9,6.1,12.9,6.1,12.9,6.1C12.9,6.1,12.9,6.1,12.9,6.1z"/>
		<path class="st0" d="M0.7,8.6L0.7,8.6L0.7,8.6C0.7,8.6,0.7,8.6,0.7,8.6z"/>
		<path class="st0" d="M3.2,1.5C3.2,1.5,3.3,1.5,3.2,1.5C3.3,1.5,3.3,1.5,3.2,1.5z"/>
		<path class="st0" d="M5.1,0.8L5.1,0.8C5.1,0.8,5.1,0.8,5.1,0.8z"/>
		<path class="st0" d="M2.5,2.3C2.5,2.3,2.5,2.3,2.5,2.3C2.5,2.3,2.5,2.3,2.5,2.3C2.5,2.3,2.5,2.3,2.5,2.3z"/>
		<path class="st0" d="M1.8,3.1C1.8,3.1,1.8,3.1,1.8,3.1C1.9,3.1,1.9,3.1,1.8,3.1L1.8,3.1z"/>
		<path class="st0" d="M11.5,10.9c0,0,0.1,0,0.1,0.1C11.5,10.9,11.6,10.7,11.5,10.9z"/>
		<path class="st0" d="M13,6.1C12.9,6.1,12.9,6.1,13,6.1C12.9,6.1,12.9,6.1,13,6.1C12.9,6.2,13,6.1,13,6.1z"/>
		<path class="st0" d="M3.4,3.2L3.2,3.3C3.3,3.3,3.3,3.3,3.4,3.2z"/>
		<path class="st0" d="M5.6,12.7L5.6,12.7C5.6,12.6,5.6,12.6,5.6,12.7z"/>
		<path class="st0" d="M3,3.6c-0.1,0-0.1,0-0.1,0c0,0,0,0,0,0L3,3.6z"/>
		<path class="st0" d="M11.6,10.9L11.6,10.9L11.6,10.9z"/>
		<path class="st0" d="M11.8,9.9c-0.1,0.1,0.1,0.2,0.2,0.2c0,0.2-0.2,0-0.3,0c0,0.1,0.1,0.3,0.1,0.3c0,0-0.1,0-0.1,0
			c0.1,0.2-0.2,0.3-0.1,0.5c0,0,0,0-0.1,0c0.1,0.1,0.2,0.1,0.2,0.2c0,0.1,0,0.2-0.1,0.1c0,0,0-0.1,0-0.1l0,0.1
			c-0.2-0.1,0-0.1-0.1-0.2c0,0.1,0,0.4-0.1,0.4c-0.2-0.1,0.1-0.2-0.1-0.2l0.2-0.1c-0.3-0.1,0.1-0.1-0.2-0.2
			c-0.2,0.1-0.1,0.2-0.2,0.3c0,0.1,0.1,0.1,0.2,0.2c-0.1,0.3-0.5-0.2-0.5,0.1c0,0.1,0.2,0.3,0,0.3l-0.1-0.2
			c-0.2,0.1,0.1,0.3-0.2,0.3c0-0.1,0.1-0.1,0-0.2c-0.2-0.1,0,0.2-0.1,0.2l-0.1-0.1c-0.2,0.1-0.3,0.4-0.5,0.5c0-0.1,0-0.1-0.1-0.2
			c-0.1,0.1-0.2,0.2-0.4,0.2c-0.2,0-0.3,0-0.5,0l0,0.2c0,0-0.1-0.1,0-0.1c-0.1,0,0,0.1,0,0.2c-0.1,0-0.1-0.1-0.1-0.1
			C8.6,12.8,8.3,13,8,12.9l0-0.1c-0.2,0-0.1,0.4-0.3,0.2l0,0c-0.3,0-0.7,0.1-1-0.1c-0.1,0.2-0.3-0.1-0.4,0.2
			c-0.2-0.2-0.1-0.2-0.4-0.4c-0.1,0-0.1,0.2-0.2,0.2l0-0.2l-0.2,0.1l0-0.2l-0.1,0c0,0,0,0.1,0,0.1c-0.1,0-0.1,0-0.2-0.1
			c0-0.1-0.1-0.2-0.1-0.2l-0.3,0c0-0.1,0.1-0.1,0.1-0.1c-0.2,0.1,0-0.2-0.2-0.1c0,0,0,0.1-0.1,0.1c0-0.1-0.2-0.2-0.3-0.2l0.1-0.1
			c-0.2-0.1-0.4-0.2-0.7-0.3c0,0.1-0.1,0.3-0.2,0.2L4,11.9C3.9,12,4,12,3.9,12.1C3.8,12,3.9,11.9,4,11.9l-0.1,0c0,0,0.1-0.1,0.1-0.1
			c-0.1,0.1,0-0.3-0.2-0.1l0,0c-0.2-0.1-0.3-0.2-0.5-0.3c-0.1,0.1-0.1,0-0.3,0.1C3,11.2,3,11,2.8,10.8c-0.1,0-0.1,0.1-0.2,0.1
			c0.1-0.1,0-0.2,0.1-0.2c-0.1-0.1-0.1-0.1-0.2-0.2c-0.1,0-0.1-0.1-0.3-0.2c0,0.1,0,0.1-0.1,0.1c0,0,0-0.1,0.1-0.2l0,0
			C2.1,10.2,2.1,10,2.1,9.8c0-0.2,0-0.4-0.2-0.4l0,0L1.7,9.1c0-0.1,0.1,0,0.2-0.1C1.8,9,1.8,9,1.7,8.9c0-0.1,0-0.1,0-0.2
			c0-0.1,0-0.2-0.1-0.3C1.8,8.3,1.7,8.2,1.7,8c0-0.1-0.1-0.2-0.1-0.2c0-0.1,0-0.2,0.1-0.2l-0.1,0C1.5,7.5,1.7,7.5,1.7,7.5
			c-0.1,0-0.1,0.1-0.1,0C1.4,7.2,1.5,7,1.6,6.7c0-0.1,0.1-0.3,0.2-0.4l0.1-0.2c0-0.1,0.1-0.1,0.1-0.2C2,5.8,1.4,5.7,1.7,5.5l0.2,0.1
			C1.8,5.4,1.9,5.2,2,5.1c0.1-0.2,0.2-0.4,0.2-0.6c0,0,0.1,0.1,0.1,0.1c0.2,0,0.2-0.3,0.1-0.3c0,0,0.1,0,0.2,0c0.1,0,0-0.3,0.1-0.2
			c0,0,0,0,0,0.1c0-0.1,0.2-0.2,0-0.2c0.1-0.1,0.1-0.3,0.3-0.3C2.8,3.4,3.1,3.5,2.9,3.3c0.2,0.2,0.3-0.1,0.3-0.2
			c0,0.1,0.1,0,0.2,0.1C3.5,3.1,3.5,3,3.4,3c0.3,0.1,0.2-0.4,0.5-0.2C3.9,2.7,4,2.6,4,2.5c0-0.1,0.1-0.1,0.1-0.2
			C4.3,2.2,4.4,2.1,4.5,2c0.1,0.2-0.3,0.2-0.1,0.4C4.5,2.2,4.6,2,4.8,1.9c0.1,0,0,0.1,0,0.2C4.9,2,5.1,1.9,5.2,1.9
			c0.1,0,0.2-0.1,0.3-0.2c0,0,0,0.1,0,0.1c0,0,0.1,0,0.1-0.1l0,0C5.4,1.6,5.6,1.3,5.6,1.2c0,0.3,0.3,0,0.2,0.5c0,0,0.1-0.1,0-0.2
			c0.1,0,0.1,0.1,0,0.1C6.1,1.6,6,1.5,6.1,1.4c0,0.1,0,0.1,0,0.1c0.1-0.1,0.1-0.2,0.3-0.2c0,0,0,0.1,0,0.1C6.6,1.4,6.7,1.1,7,1.2
			C6.9,1.5,7.1,1.3,7.1,1.5c0,0,0.1,0,0.1-0.1L7.2,1.3c0.1,0,0.2-0.1,0.3-0.1L7.4,1.4l0.2,0L7.5,1.3c0.1-0.1,0-0.3,0.2-0.2
			c0,0,0.1,0,0.2,0.1l0,0C7.9,1.1,8,1.1,8.1,1.1c0,0.1-0.1,0.2,0,0.3c0.1-0.2,0.3,0,0.4-0.2c0,0-0.1,0.1-0.1,0.2l0.1-0.1
			c0,0.1,0,0.1,0,0.2c0.2,0.1,0-0.3,0.2-0.1c0,0,0,0-0.1,0c0.2,0.1,0.4,0,0.6,0.1c0,0.2-0.2,0-0.2,0.2c0.1,0,0.3,0,0.4,0
			c0.1,0,0.3,0,0.4,0.1l0,0C9.9,1.5,9.9,2,10.1,1.9c0,0-0.1,0.1-0.1,0.1c0.1,0.1,0.3,0.1,0.6,0.2l-0.1,0c0,0.1,0.2,0.2,0.3,0.3
			c0.1,0,0.1,0,0.2-0.1c0,0.3,0.1,0.3,0.3,0.4c0.2,0.1,0.3,0.1,0.3,0.4c0,0-0.1,0-0.1,0l0.2,0.1c0.1-0.1,0-0.1,0.1-0.2
			c0.1,0,0.2,0,0.2,0c-0.1,0-0.2,0.1-0.2,0.2c0,0,0.1,0,0.1-0.1c-0.1,0.3,0.2-0.1,0.2,0.1l-0.1,0c0.1,0,0.2,0,0.2,0.1
			c-0.1,0.1-0.1,0-0.2,0c0.1,0.1,0.4,0,0.3,0.2c-0.1,0-0.1-0.1-0.2-0.1c-0.1,0.2,0,0.2,0,0.3l0,0l0,0.2l0-0.1
			c0.4-0.1,0.2,0.2,0.5,0.2c-0.3,0-0.1,0-0.3,0.1c0,0.1,0,0.1-0.1,0.2c0.2,0,0,0.2,0.2,0.2c0,0,0,0.1-0.1,0.1
			c0.1,0.1,0.1-0.1,0.1-0.1c0.2,0.1-0.1,0.4,0.3,0.6c0.2,0.2,0.3,0.2,0.5,0.3c-0.1,0.1-0.2,0-0.2,0c-0.1,0.1,0,0.2,0.1,0.3
			c0,0-0.1,0-0.1,0.1c0,0.1,0.2,0,0.1,0.1c-0.1,0-0.2,0-0.2,0c0.1,0.1,0.2,0.2,0.2,0.3c-0.1,0-0.2,0-0.2-0.1
			c0.1,0.1,0.1,0.3,0.3,0.3l0-0.1c0,0-0.1,0-0.2,0c-0.1-0.1,0-0.1,0.1-0.2l0,0.1c0.3-0.1-0.1-0.3-0.1-0.4l0.2,0L13.2,6
			c0.1,0,0.2-0.1,0.2,0c0.1-0.1-0.1-0.1,0-0.2c0,0,0,0,0,0l-0.1-0.1c0.1,0,0.2-0.1,0.1,0c0.1-0.2-0.2-0.3-0.1-0.4l0,0
			c-0.2-0.2-0.2,0-0.4-0.1c0.1-0.1,0.2-0.2,0.4-0.3l-0.2,0c0,0,0-0.1,0.1-0.1c-0.1-0.1-0.1,0-0.2,0c0-0.1,0-0.2,0-0.2
			c0-0.1-0.1-0.1,0.1-0.2c-0.1,0,0,0.2-0.2,0.1c0.2-0.2-0.1-0.1,0-0.3c0.2,0,0.1,0.1,0.2-0.1C12.8,4.3,13,4,12.9,3.9
			c-0.2,0.1-0.2-0.1-0.3-0.3c0.1,0-0.1-0.3-0.1-0.5l0,0c-0.2,0.1-0.2-0.1-0.4-0.1C12.2,3,12.3,2.9,12.3,3c0,0-0.1-0.1-0.1-0.1
			c-0.1,0-0.1,0-0.2,0l0.1-0.1c-0.1-0.1-0.3-0.1-0.4-0.3c-0.1,0.1-0.2,0.4-0.4,0.3c0-0.1,0.1-0.2,0.2-0.1c0,0-0.1,0-0.1,0l0.1,0
			c0-0.1-0.1,0-0.2,0c0.1-0.1,0-0.1,0.1-0.2c0,0,0,0.1,0.1,0.1c0-0.1-0.1-0.2,0-0.3c0,0.1-0.1,0.1-0.2,0.1c-0.1-0.1,0-0.1,0-0.2
			c-0.1,0-0.1-0.1-0.2,0c0,0,0-0.1,0-0.1c-0.1,0-0.3-0.2-0.3,0l0,0c0,0,0,0,0,0l0,0l0,0c-0.3,0-0.4-0.4-0.6-0.4l0,0
			c-0.2,0-0.3-0.1-0.5-0.1c0,0-0.1-0.1,0-0.2c-0.1,0-0.2,0-0.3-0.1c0.1,0,0-0.1,0.1,0C9.6,1,9.6,0.9,9.4,1c0.1-0.1,0-0.2-0.1-0.2
			l0.1,0.1c-0.1,0-0.1,0-0.2-0.1l0.1-0.2C9.1,0.5,8.9,0.6,8.8,0.6c-0.1,0-0.3,0.1-0.4-0.1c-0.1,0.1,0.2,0.1,0,0.3
			c-0.1,0-0.2-0.3-0.3-0.3C8,0.3,8,0.6,7.8,0.5c0,0.1,0,0.2-0.1,0.3c-0.1,0-0.2-0.3-0.1-0.3c0,0,0.1,0,0,0c0,0,0.1,0,0.1-0.1l0,0.1
			C7.6,0.4,7.4,0.4,7.5,0.3c-0.1,0.1-0.1,0.1,0,0.1C7.3,0.3,7.2,0.4,7,0.4c0,0,0.1,0.1,0,0.1C6.7,0.4,6.9,0.6,6.7,0.7
			c-0.1-0.1,0-0.2-0.2-0.1c-0.1-0.1,0-0.2,0-0.2c-0.2,0.1-0.3,0-0.5-0.1l0.1-0.1c-0.1,0-0.1,0-0.1,0.1l0.1,0.1C6.1,0.3,6,0.3,6,0.3
			c0,0.1,0.1,0.2,0,0.3C5.9,0.6,5.8,0.7,5.7,0.6c0.2,0-0.1-0.2,0.1-0.2c0,0-0.1,0-0.1,0c0,0,0,0,0,0C5.5,0.2,5.7,0.5,5.5,0.6
			c0-0.1-0.1-0.2-0.1-0.1c0.1,0,0.1,0.1,0,0.2c-0.2,0-0.1,0.1-0.2,0.1l0.1,0c0,0.1-0.1,0.1-0.2,0.2c0-0.1,0.1-0.1,0-0.1
			c0,0.2-0.3-0.1-0.4,0.1c-0.1,0-0.1-0.2-0.2-0.2c-0.1,0.2-0.2,0-0.4,0.1c0.1,0.1,0.1,0.1,0,0.2l0.2-0.2L4.4,1.2
			C4.5,1.1,4.5,1,4.6,1c0,0.1,0,0.1,0,0.2C4.4,1.1,4.4,1.4,4.3,1.3L4.1,1C4,1,3.9,1.1,3.8,1.2C3.8,1.3,3.7,1.4,3.6,1.4l0.1,0
			c0,0.1-0.1,0.1-0.2,0.2C3.4,1.5,3.4,1.5,3.3,1.5c0.1,0.1-0.2,0.1-0.1,0.3L3,1.8C2.8,1.9,3,2.2,2.8,2.3c0-0.1-0.2-0.1-0.1-0.3
			C2.7,2,2.6,2.1,2.7,2.1c-0.1,0,0,0.2-0.2,0.2c0,0.1,0.1,0.1,0,0.2c0,0,0,0,0,0c0,0,0,0.1,0.1,0.2c-0.2,0-0.3,0.1-0.4,0.2
			C2.2,2.9,2.1,3,2.1,3c0,0-0.1,0.1-0.2,0.1C1.8,3.2,1.7,3.4,1.6,3.5c0,0,0,0,0,0c-0.2,0.1,0.2,0.3,0,0.4c-0.2,0,0-0.2-0.1-0.1
			C1.2,3.6,1.4,4,1.1,4l0,0C1,4,1.1,4.3,1,4.5c0,0,0,0,0,0C1.1,4.6,1.1,4.9,1,5.1C0.9,5,1,5,0.9,5C0.8,5,1.1,5,1.1,5.2
			C1,5.2,0.9,5.3,0.7,5.3c0-0.1,0-0.1,0-0.1c-0.2,0-0.1,0.2-0.1,0.3l-0.1,0c0,0.2,0.2,0.3,0.1,0.5l0.1,0c0.2,0.2-0.1,0.1,0,0.3
			l-0.2,0c0,0.1,0.2,0.3,0.2,0.5C0.5,6.5,0.5,6.3,0.4,6.2c0,0.1,0,0.3,0.1,0.4c0,0-0.1-0.1,0-0.1c0.2,0.1,0.2,0.3,0.2,0.4
			C0.3,6.8,0.6,7.3,0.2,7.5C0.3,7.6,0.3,7.8,0.3,8c0,0.2,0,0.4,0,0.5c0.3-0.2,0,0.1,0.4,0c0,0.1,0,0.1,0,0.1L0.6,8.9
			C0.5,9,0.5,8.9,0.4,8.9c0,0.2-0.1,0.1-0.2,0.3c0.1-0.1,0.2,0,0.2,0.1l0.1-0.2c0.2,0.2-0.2,0.3,0.1,0.5l-0.1,0
			c0.1,0.1,0.2,0.5,0.5,0.5c0,0-0.1,0.1-0.1,0.1c0.1,0.2,0.2,0.3,0.3,0.4c0.1,0.1,0.3,0.2,0.3,0.4l-0.1,0c0.1,0,0.2,0,0.2,0.1
			c0,0-0.1,0-0.1,0.1c0,0,0.2,0,0.2,0.1l-0.1,0c0.1,0.2,0.2,0.2,0.3,0.3c0.1,0,0.3,0.1,0.4,0.1c-0.2,0.2-0.1,0.4,0,0.5l0,0
			c0.1,0.1,0.3,0.2,0.5,0.3c0.2,0.1,0.3,0.1,0.5,0.1c0,0.2,0.1,0.3,0.3,0.4c0.2,0.1,0.4,0.2,0.5,0.4c0-0.1,0.1-0.2,0.2-0.2
			c0.1,0.1,0.3-0.1,0.2,0.1l0,0c0,0.2,0.1,0.3,0.3,0.3l0.1-0.3c0.1,0.3,0.3,0.3,0.5,0.3c0.2,0,0.4,0,0.5,0.2c0.1,0,0.2,0,0.3-0.1
			l0,0.2c0.2,0.1,0.3,0.1,0.6,0.1l-0.1,0.1c0.2,0,0.2-0.4,0.4-0.4l0,0.2c0.3,0,0.6,0.2,0.8,0c0,0,0,0.1-0.1,0.1
			c0.1,0,0.5,0.1,0.4-0.2c0,0.2,0.3,0,0.4-0.1l0,0.2c0.1-0.2,0.1-0.3,0.2-0.4c0,0,0.1,0.1,0,0.1c0.2,0,0.1-0.2,0.2-0.1l0,0.1
			c0.1,0,0.1-0.1,0.2-0.2c0.1-0.1,0.3-0.1,0.3,0.1c0-0.1,0-0.2,0.1-0.2c0,0,0,0.1,0,0.1c0.3,0,0.2-0.3,0.5-0.2c0,0,0,0.1,0.1,0.1
			c-0.2,0.1-0.3,0.1-0.3,0.1c0.1,0.1,0.2,0.1,0.2,0.3c0.1-0.2,0.2-0.5,0.3-0.5c0,0,0,0,0,0l0,0c0,0,0.1,0,0.1-0.1c0.1,0,0.1,0,0.1,0
			c0.1,0.1,0.2,0,0.3-0.1c-0.1-0.1,0-0.2-0.1-0.2c0,0,0,0,0,0.1c0,0,0,0,0,0l0,0c0,0-0.1,0.1-0.2,0.1c0-0.1,0-0.2,0.1-0.2
			c0-0.1,0-0.2,0-0.3c0.2,0.1,0.4,0.1,0.5,0.2c0.1-0.2,0.4-0.4,0.3-0.7c0-0.1,0.1,0,0.2,0c0,0,0,0.1,0,0.1c0-0.1,0.3-0.3,0.2-0.5
			c0.2,0,0.1,0.2,0.2,0l0,0.1c0.3-0.1,0.3-0.3,0.3-0.5c0-0.2,0-0.4,0.4-0.5c0,0-0.1,0-0.1,0c0.1-0.1,0.2-0.2,0.3-0.3
			c0.1-0.1,0.1-0.3,0.2-0.4c0.1-0.3,0.2-0.5,0.4-0.7c0.1-0.1,0-0.2-0.1-0.3l0.2,0c0-0.1-0.1-0.1-0.1-0.2c0-0.1,0.1-0.2,0.2-0.3
			c0.1-0.1,0.2-0.2,0.1-0.4l-0.1,0c0-0.1,0-0.3,0.1-0.3c0,0-0.1,0,0-0.1l0.1,0c0-0.1-0.1-0.2-0.1-0.3C13.7,7.6,14,7.8,14,7.5
			c0-0.1-0.2-0.3-0.3-0.3c0,0-0.1,0.1-0.1,0.1l0-0.1c-0.3,0-0.5-0.1-0.7,0.1l0.2,0.2l-0.1,0l0-0.1c-0.1,0.1,0,0.1,0.1,0.2
			c-0.1,0-0.1,0-0.1,0.1c0.1,0.1,0.2,0.1,0.2,0.2c-0.1,0-0.2-0.1-0.3,0c0.1,0.1,0.2,0,0.3,0.1c-0.1,0.1-0.2,0-0.1,0.1
			c-0.1,0-0.1,0-0.1-0.1c0.1,0.1,0,0.2,0.1,0.3c-0.2,0,0,0.3-0.2,0.2c0.1,0,0.2,0.2,0.1,0.2c-0.3-0.2-0.1,0.2-0.4,0.1
			c0.2,0.2,0,0.3,0.1,0.5c0,0-0.1,0,0-0.1c-0.1,0.1-0.1,0.1-0.2,0.1c0.2,0.1,0.2,0.2,0.3,0.4c-0.2,0-0.2-0.2-0.4-0.2
			c0.2,0.1,0.1,0.2,0.2,0.3c-0.2,0-0.1,0-0.3,0c0.2,0.1,0,0.1,0.1,0.2c-0.2,0-0.2-0.1-0.2,0.1C11.8,10.1,11.8,9.9,11.8,9.9z
			 M9.9,12.5C9.9,12.4,9.9,12.4,9.9,12.5C9.9,12.4,9.9,12.4,9.9,12.5C9.9,12.4,9.9,12.4,9.9,12.5z M9.6,12.6c0,0,0.1,0,0.1,0
			c0,0,0,0.1,0,0.1C9.7,12.6,9.7,12.6,9.6,12.6z M10.7,13.2C10.6,13.3,10.6,13.3,10.7,13.2C10.6,13.2,10.6,13.2,10.7,13.2
			C10.7,13.2,10.7,13.2,10.7,13.2C10.7,13.2,10.7,13.2,10.7,13.2z"/>
		<path class="st0" d="M10.7,13C10.7,13,10.7,13,10.7,13C10.7,13,10.6,13,10.7,13C10.6,13,10.6,13,10.7,13L10.7,13z"/>
		<path class="st0" d="M11,1.9L11,1.9C11,1.9,11,1.9,11,1.9C11,1.9,11,1.9,11,1.9z"/>
		<polygon class="st0" points="5.9,12.7 5.9,12.7 5.9,12.7 		"/>
		<path class="st0" d="M11.8,3.4C11.8,3.4,11.8,3.5,11.8,3.4C11.8,3.5,11.8,3.5,11.8,3.4z"/>
		<path class="st0" d="M12.2,4l0,0.1C12.2,4.1,12.2,4,12.2,4z"/>
		<path class="st0" d="M12.4,4.5C12.4,4.5,12.4,4.5,12.4,4.5L12.4,4.5L12.4,4.5z"/>
		<path class="st0" d="M5.5,1.8C5.5,1.8,5.5,1.8,5.5,1.8C5.4,1.8,5.5,1.8,5.5,1.8z"/>
		<path class="st0" d="M7.9,1.2C7.8,1.2,7.8,1.2,7.9,1.2C7.8,1.3,7.8,1.3,7.9,1.2z"/>
		<polygon class="st0" points="3.4,3.2 3.4,3.2 3.4,3.2 		"/>
		<path class="st0" d="M7.7,1.3c0,0,0.1,0,0.1,0C7.7,1.2,7.7,1.2,7.7,1.3z"/>
		<path class="st0" d="M12.9,6.6L12.9,6.6C12.9,6.6,13,6.6,12.9,6.6L12.9,6.6z"/>
		<path class="st0" d="M13,6.6L13,6.6C13,6.6,13,6.6,13,6.6z"/>
		<path class="st0" d="M13,6.7L13,6.7C13,6.7,13,6.7,13,6.7z"/>
		<path class="st0" d="M12.9,5.9L12.9,5.9C12.9,5.9,12.9,5.9,12.9,5.9z"/>
		<path class="st0" d="M12.8,5.7c0,0.1-0.1,0.1,0,0.2l0,0C12.7,5.9,12.9,5.8,12.8,5.7z"/>
		<path class="st0" d="M13.2,4.6c0,0.1,0,0.1,0,0.2c0-0.1,0.1-0.1,0.1,0C13.5,4.5,13.3,4.9,13.2,4.6z"/>
		<path class="st0" d="M13,4.1c0.1,0.1,0.1,0,0.1-0.1C13.1,4,13,4,13,4.1z"/>
		<path class="st0" d="M9.9,1.1L9.9,1C9.9,1,9.9,1.1,9.9,1.1z"/>
		<path class="st0" d="M8.9,1.6c0,0,0,0.1,0,0.1L9,1.5C8.9,1.5,8.9,1.5,8.9,1.6z"/>
		<polygon class="st0" points="8.7,0.4 8.7,0.4 8.6,0.5 		"/>
		<path class="st0" d="M1.8,2.8L2,2.9C2,2.9,1.8,2.7,1.8,2.8z"/>
		<path class="st0" d="M0.6,5.8C0.5,5.8,0.4,5.9,0.5,6C0.5,5.9,0.6,5.9,0.6,5.8z"/>
		<polygon class="st0" points="4.7,13.8 4.6,13.8 4.8,13.8 		"/>
	</g>
</g>
<g>
	<path class="st0" d="M9.8,5.1c0,0-0.1-0.1-0.1-0.1L9.8,5.1L9.8,5.1z"/>
	<path class="st0" d="M9.5,4.9C9.5,5,9.6,5.1,9.8,5.3C9.6,5.1,9.7,5.2,9.5,4.9C9.5,5,9.6,5,9.7,5.1c0,0,0,0,0-0.1
		C9.5,4.9,9.5,4.9,9.5,4.9C9.5,5,9.5,5,9.5,4.9z"/>
	<path class="st0" d="M8.6,5.4L8.6,5.4C8.6,5.4,8.6,5.4,8.6,5.4z"/>
	<path class="st0" d="M8.1,5.7C8.1,5.7,8.1,5.7,8.1,5.7C8.1,5.7,8.1,5.7,8.1,5.7z"/>
	<path class="st0" d="M7.9,5.7C7.9,5.7,7.9,5.7,7.9,5.7C7.9,5.7,7.9,5.7,7.9,5.7z"/>
	<path class="st0" d="M8.6,5.4L8.6,5.4C8.6,5.4,8.6,5.4,8.6,5.4z"/>
	<path class="st0" d="M9.7,5.4C9.7,5.3,9.7,5.3,9.7,5.4C9.7,5.3,9.7,5.3,9.7,5.4C9.7,5.3,9.7,5.3,9.7,5.4z"/>
	<path class="st0" d="M8.7,5.1L8.7,5.1C8.7,5.1,8.7,5.1,8.7,5.1L8.7,5.1z"/>
	<path class="st0" d="M8.8,5c0,0,0.1,0.1,0.1,0.2C8.9,5.1,8.9,5,8.8,5C8.9,5,8.8,5,8.8,5z"/>
	<path class="st0" d="M9.2,4.9L9.2,4.9C9.2,4.9,9.2,4.9,9.2,4.9z"/>
	<path class="st0" d="M8.6,5.2C8.5,5.2,8.5,5.2,8.6,5.2C8.5,5.2,8.5,5.2,8.6,5.2z"/>
	<path class="st0" d="M5.5,9.9C5.5,9.9,5.5,9.9,5.5,9.9C5.5,9.9,5.5,9.9,5.5,9.9z"/>
	<path class="st0" d="M4.8,9.5L4.8,9.5C4.8,9.5,4.7,9.5,4.8,9.5L4.8,9.5z"/>
	<path class="st0" d="M7.6,5.7C7.6,5.7,7.6,5.7,7.6,5.7C7.6,5.6,7.6,5.6,7.6,5.7z"/>
	<path class="st0" d="M6.5,6.9C6.6,7,6.6,7.1,6.8,7.2C6.7,7.1,6.6,7,6.5,6.9z"/>
	<path class="st0" d="M9.7,5.3C9.7,5.3,9.7,5.3,9.7,5.3C9.7,5.3,9.7,5.3,9.7,5.3z"/>
	<path class="st0" d="M6.8,7.2C6.8,7.2,6.8,7.2,6.8,7.2L6.8,7.2C6.8,7.2,6.8,7.2,6.8,7.2z"/>
	<path class="st0" d="M7.4,6C7.4,6,7.4,6.1,7.4,6C7.4,6.1,7.4,6,7.4,6z"/>
	<path class="st0" d="M7.8,6L7.8,6C7.8,6,7.8,6,7.8,6z"/>
	<path class="st0" d="M7.4,6.3C7.4,6.3,7.4,6.3,7.4,6.3C7.4,6.3,7.4,6.3,7.4,6.3C7.4,6.3,7.4,6.3,7.4,6.3z"/>
	<path class="st0" d="M7.3,6.4C7.3,6.4,7.3,6.4,7.3,6.4C7.4,6.4,7.4,6.4,7.3,6.4L7.3,6.4z"/>
	<path class="st0" d="M5.8,9.5c0,0-0.1-0.1-0.1-0.1C5.8,9.5,5.8,9.5,5.8,9.5z"/>
	<path class="st0" d="M9.6,5.3C9.7,5.3,9.7,5.3,9.6,5.3C9.7,5.3,9.7,5.3,9.6,5.3C9.7,5.3,9.6,5.3,9.6,5.3z"/>
	<path class="st0" d="M8.3,7.2L8.3,7.2C8.3,7.2,8.3,7.2,8.3,7.2z"/>
	<path class="st0" d="M6.6,8.6L6.6,8.6C6.7,8.7,6.7,8.7,6.6,8.6z"/>
	<path class="st0" d="M8.2,7.3C8.2,7.2,8.2,7.2,8.2,7.3C8.2,7.2,8.2,7.2,8.2,7.3L8.2,7.3z"/>
	<path class="st0" d="M5.7,9.4C5.7,9.4,5.7,9.4,5.7,9.4C5.7,9.4,5.7,9.4,5.7,9.4z"/>
	<path class="st0" d="M5.8,9.8c0,0-0.1-0.2-0.2-0.2C5.6,9.5,5.7,9.7,5.8,9.8c0-0.1-0.2-0.3-0.1-0.3c0,0,0,0,0.1,0.1
		c-0.1-0.1,0,0-0.1-0.2c0,0,0,0,0,0C5.6,9.3,5.5,9.3,5.5,9.2c0,0-0.1-0.1,0,0c0,0,0,0,0.1,0.1l0,0c0.1,0.1,0,0.1,0.1,0.2
		c0-0.1-0.1-0.2-0.1-0.2c0.1,0.1,0,0.1,0.2,0.2l-0.1,0c0.2,0.2,0,0,0.2,0.2c0.1,0,0-0.1,0-0.1C5.9,9.4,5.8,9.4,5.7,9.3
		C5.6,9.1,6.1,9.6,6,9.4C5.9,9.3,5.7,9.1,5.8,9.2L6,9.4c0,0-0.2-0.2-0.1-0.2c0.1,0.1,0,0.1,0.1,0.1c0.1,0.1-0.1-0.1-0.1-0.1L6,9.3
		C6,9.3,6,9.1,6,9.1c0,0,0.1,0.1,0.1,0.1c0-0.1,0.1-0.1,0.2,0L6.2,9.1c0,0,0.1,0,0.1,0.1c0.1,0-0.1-0.1-0.1-0.1c0,0,0.1,0.1,0.1,0.1
		C6.2,9,6.1,8.8,6.3,8.9l0,0c0.1,0-0.2-0.3-0.1-0.2l0,0c0.1,0,0-0.1,0.2,0c-0.2-0.2,0.1,0-0.1-0.2c0.1,0.1,0.2,0.1,0.3,0.2
		c0,0-0.1-0.2-0.1-0.2l0.1,0.1L6.5,8.6l0.2,0.1l0,0c0,0-0.1,0-0.1-0.1c0-0.1,0.1,0,0.2,0.1L6.7,8.5c0,0.1,0.1,0.1,0.1,0.1
		c-0.1-0.1,0.1,0.1,0,0c0,0-0.1-0.1-0.1-0.1c0.1,0.1,0.1,0,0.1,0l0.1,0.1c0.1,0,0-0.1,0.1-0.1c-0.1,0-0.2-0.2-0.2-0.2l0.1,0.1
		c-0.1-0.1-0.1,0-0.1-0.1c0,0,0.2,0.1,0.2,0.2l0-0.1c0,0,0.1,0.1,0.1,0.1c-0.1-0.1,0.2,0.1,0,0l0,0c0,0,0-0.1,0-0.1
		C7,8.3,7,8.3,6.9,8.2c0.1,0,0.2,0.1,0.2,0C7.1,8.1,7,8.1,7,8c0.1,0.1,0.1,0.1,0.2,0.2c0,0,0-0.1,0-0.2C7.1,8,7,8,7,7.9
		c0,0,0.1,0,0.1,0.1l0,0C7,7.8,7.5,8.2,7.3,8l0,0L7.3,7.8c0,0,0.1,0.1,0.1,0.1c-0.1-0.2,0.1,0,0-0.2c0.3,0.3,0.1-0.1,0.3,0.1
		L7.6,7.8c-0.1-0.1,0.1,0,0.1,0C7.6,7.8,7.6,7.8,7.6,7.7c0-0.2,0.2,0,0.4,0c0,0-0.3-0.4-0.1-0.2l0.1,0.1C7.8,7.4,8.1,7.5,8,7.3
		C8,7.3,8,7.4,8,7.4c0.1,0.1,0,0,0-0.1c0,0,0.1,0.1,0.1,0.1c0.1,0-0.1-0.1,0-0.1c0,0,0,0,0,0c0-0.1,0,0-0.1-0.1c0.1,0,0-0.1,0.1,0
		C8,7.1,8.3,7.2,8.1,7c0.2,0.2,0.2,0.1,0.1,0c0.1,0.1,0.1,0,0.1,0.1c0,0,0-0.1-0.1-0.2c0.2,0.2-0.1-0.2,0.2,0
		C8.3,6.9,8.3,6.8,8.3,6.7c0.2,0.2,0,0.1,0.2,0.2c0-0.1-0.2-0.3-0.1-0.3c0,0,0.1,0.1,0.1,0.1c0-0.1,0.1-0.1,0-0.2c0,0,0,0,0,0.1
		c0,0,0,0,0-0.1l0,0C8.4,6.6,8.3,6.4,8.2,6.3c0.2,0.2,0.1,0,0.4,0.3c0,0,0-0.1-0.1-0.1c0,0,0.1,0,0.1,0.1c0-0.1-0.1-0.1-0.1-0.2
		c0,0,0.1,0.1,0.1,0.1C8.5,6.5,8.5,6.4,8.5,6.4c0,0,0.1,0.1,0,0.1c0,0-0.2-0.3,0-0.2c0.2,0.2,0.1,0,0.2,0.2l0-0.1L8.6,6.4
		c0,0-0.1-0.1,0-0.1l0,0.1l0-0.1l-0.1,0C8.5,6.1,8.4,6,8.5,6.1c0,0,0,0,0.1,0.1c0,0,0,0,0,0c0-0.1-0.1-0.1,0-0.1
		c0.1,0,0.2,0.2,0.2,0.2C8.6,6.1,8.7,6.2,8.6,6c0,0,0.1,0.1,0.1,0.1L8.6,6.1c0,0,0.1,0,0.1,0.1c0,0-0.2-0.2-0.1-0.1c0,0,0,0,0,0
		c0.1,0,0-0.1,0.1-0.1c0.2,0.1,0,0.1,0.1,0.2c0-0.1-0.1-0.2,0-0.2l0,0C8.6,5.7,9,6,8.9,5.9C8.9,5.9,9,6,9,6c0.1,0,0-0.1,0-0.2l0,0.1
		c0.1,0,0.1,0,0.1,0c0-0.1,0-0.1-0.1-0.1c0.4,0.3-0.1-0.2,0.2,0c0,0,0,0.1,0,0.1l0-0.1C9.1,5.6,9.2,5.6,9.1,5.5C9,5.5,9,5.4,9,5.4
		c0,0.1,0.1,0.1,0.2,0.2c0,0-0.1-0.1-0.1-0.1c0.2,0.1-0.2-0.2,0-0.1l0,0c0,0-0.1-0.1,0-0.1c0.1,0.1,0,0.1,0.1,0.1
		c0,0-0.2-0.2-0.1-0.1c0,0,0,0,0,0.1c0.1,0.1,0.1,0.1,0.1,0.1l0,0l0.1,0l0,0c-0.3-0.3,0-0.1-0.2-0.3c0.1,0.2,0.1,0.1,0.2,0.2
		c0,0,0.1,0.1,0.1,0.1c-0.1-0.1,0.1,0.1,0-0.1c0,0,0,0,0.1,0.1c0,0-0.1-0.1-0.1-0.1C9.4,5.3,9.7,5.6,9.5,5.4c0-0.1-0.2-0.2-0.2-0.3
		c0.1,0.1,0.1,0.1,0.1,0.1c0.1,0,0.1,0,0,0c0,0,0.1,0.1,0.1,0.1c0,0-0.1-0.1-0.1-0.1c0,0,0.1,0.1,0.1,0.2c0,0-0.1-0.1-0.1-0.2
		c0.1,0.1,0.1,0.1,0.1,0.2c0,0,0-0.1-0.1-0.2l0,0c0,0,0.1,0.1,0.1,0.1c0.1,0.1-0.1,0-0.1-0.1l0,0c-0.2-0.2,0,0.1,0,0.1L9.3,5
		l0.1,0.2c0,0-0.1-0.1-0.2-0.2C9.2,4.9,9.3,5,9.2,5c0,0,0,0,0,0l0,0.1c0,0-0.1-0.1-0.1-0.1c-0.1-0.1,0.1,0.2,0,0l0,0
		c0,0.1,0.1,0.1,0.2,0.3L9,4.9l0.1,0.1c0,0,0,0-0.1-0.1c0.1,0.1,0.1,0.1,0.1,0.1C9.1,5,9.2,5.2,9,5c0.1,0.1,0.1,0.1,0.1,0.1
		c-0.2-0.2,0,0.1-0.1,0C9,5,9,5.1,8.9,5c0.2,0.2-0.1,0,0,0c0.1,0.1,0,0.1,0.1,0.2c0,0-0.1,0-0.2-0.1l0,0c0.1,0.1,0.1,0.1,0.1,0.2
		C8.8,5.2,8.7,5.1,8.7,5.1l0,0c0,0,0.1,0.1,0.1,0.1L8.7,5.1c0,0,0.1,0.2,0,0.1C8.7,5.3,8.9,5.5,9,5.6C8.9,5.5,8.8,5.4,8.8,5.4
		c0,0,0,0.1,0,0L8.8,5.3c-0.1,0,0.1,0.1,0.1,0.1c-0.1-0.1-0.1,0-0.1-0.1c0,0,0,0,0,0c0,0-0.1,0-0.1-0.1c0,0,0.1,0.1,0.1,0.1
		c0,0-0.1-0.1-0.2-0.1c0.1,0.1,0,0,0.1,0.1c0,0-0.1,0-0.1-0.1c0,0.1,0,0.1,0.1,0.2l0,0c0,0,0,0,0,0c0,0,0,0,0,0l0,0
		c0.1,0.1-0.1,0-0.1,0.1l0,0c0,0.1,0,0.1,0.1,0.2c0,0-0.1-0.1-0.1-0.1c0,0,0.1,0.1,0,0c-0.1-0.1-0.1-0.1,0-0.1c-0.1,0-0.1-0.1,0,0
		C8.2,5.4,8.2,5.4,8.2,5.5l0.1,0.1c0,0,0,0,0,0L8.2,5.4C8,5.3,8.4,5.8,8.1,5.5c0.1,0.1,0.1,0,0.2,0.2c0,0-0.2-0.2-0.2-0.2
		C7.9,5.5,8.2,5.7,8.1,5.7c0,0,0.2,0.2,0.2,0.2c0,0-0.2-0.2-0.2-0.2c0,0,0,0,0,0c0,0,0,0-0.1-0.1l0,0C8,5.6,8,5.7,7.9,5.6
		C7.9,5.6,8,5.7,8,5.7c-0.1,0,0,0-0.1,0c0,0,0.1,0.1,0.1,0.1c-0.1,0,0.1,0.1,0.1,0.1C8,5.8,7.9,5.7,8,5.8c-0.1,0-0.1-0.1-0.2-0.2
		c0.1,0.1-0.1,0-0.1,0l0,0c0,0,0,0,0,0l0.1,0.1c0,0,0,0-0.1,0c0.1,0.1,0.2,0.2,0.2,0.2c-0.1,0,0,0.1-0.1,0c0.1,0-0.1-0.1-0.1-0.2
		c0,0,0,0,0,0c0,0,0,0,0,0C7.5,5.6,7.8,5.8,7.7,5.8C7.7,5.8,7.6,5.7,7.6,5.7c0,0,0.1,0.1,0.2,0.2c-0.1,0,0,0.1,0,0.1l0,0
		C7.9,6,7.9,6,7.9,6.1C7.8,6,7.9,6,7.8,6c0.1,0.1-0.2-0.1-0.1,0C7.7,6,7.6,5.9,7.6,5.9c0.1,0.1-0.1-0.1-0.1,0C7.6,6,7.6,5.9,7.7,6
		l0-0.1l0.1,0.2c0,0,0-0.1,0-0.1c0.1,0.1,0,0.1,0.1,0.1C7.7,6,7.9,6.3,7.8,6.2L7.6,6c-0.1-0.1,0.1,0.2,0,0.1l0.1,0
		c0.1,0.1,0,0,0,0.1C7.5,6.1,7.5,6.1,7.5,6.1c0.1,0.1,0,0,0.1,0.2L7.5,6.2c-0.1,0,0.2,0.3,0.1,0.2C7.5,6.3,7.5,6.3,7.4,6.2
		c0,0,0,0,0,0.1c-0.1,0,0.1,0.1,0,0.1c0,0,0.1,0.1,0.1,0.1c0,0,0,0,0,0c0,0,0,0.1,0.1,0.1C7.4,6.3,7.6,6.6,7.4,6.4c0,0,0,0.1,0,0.1
		c0,0,0,0,0,0C7.2,6.5,7.5,6.7,7.4,6.7C7.3,6.6,7.4,6.6,7.3,6.6c-0.3-0.3,0,0.1-0.2-0.1l0,0C7,6.4,7.2,6.6,7.2,6.6c0,0,0,0,0,0
		c0.1,0.1,0.1,0.2,0.1,0.3c-0.1-0.1,0-0.1-0.2-0.2c0,0,0.2,0.2,0.2,0.2c-0.1,0-0.1-0.1-0.2-0.2l0,0c-0.2-0.1,0,0-0.1,0L7,6.6
		c0,0,0.1,0.2,0.1,0.2l0,0c0.1,0.2-0.1-0.1,0,0.1L7,6.8C7,6.8,7.1,7,7.1,7C7,6.9,7,6.8,6.9,6.7c0,0,0,0,0,0.1c0,0,0-0.1,0,0
		C7,7,7.1,7,7.1,7.1C6.8,6.8,6.9,7,6.7,6.8c0.1,0.1-0.1,0-0.1,0.1c0.3,0.2,0,0,0.2,0.3c0,0,0,0,0,0L6.6,7C6.5,7,6.6,7,6.5,6.9
		c0,0-0.1-0.1-0.2-0.1c0.1,0.1,0.1,0.1,0.1,0.1L6.5,7c0.1,0.2-0.2-0.2-0.1,0L6.3,6.9c0,0.1-0.1,0.1,0.1,0.3c0,0-0.1-0.1-0.1-0.1
		c-0.1,0,0.1,0.3,0,0.2L6.2,7.2c0,0,0.1,0.1,0,0.1c0,0-0.1-0.1-0.1-0.1c0,0,0.1,0.1,0,0.1L6.2,7.2c-0.1,0,0.1,0.2,0.1,0.3
		C6.1,7.3,6.1,7.3,6,7.3l0,0c-0.1,0,0.1,0.2,0.1,0.3c-0.2-0.2-0.2,0-0.3-0.1c0,0,0.1,0.1,0.1,0.2c0,0,0.1,0.1-0.1,0l0,0
		C5.7,7.5,5.7,7.6,5.7,7.6l0.2,0.2c-0.3-0.3,0,0.2-0.3,0c0,0.1,0,0.1,0.1,0.1L5.6,7.8c-0.1,0-0.1,0-0.1,0.1L5.5,7.7
		c0,0,0.3,0.3,0.3,0.4L5.6,7.9c0,0-0.2-0.1-0.1,0.1c0,0-0.1-0.1-0.1-0.1c0,0-0.2-0.1,0.1,0.2c-0.2-0.1,0,0,0,0.1L5.4,8.1
		c0.1,0.2,0.2,0.2,0.2,0.3c0,0-0.1-0.1-0.1-0.1c-0.1,0,0.1,0.1,0,0.1L5.5,8.3c0,0,0,0,0.1,0.1c0,0.1-0.1,0-0.2-0.1
		c0.1,0.1,0.1,0.2,0.1,0.1c0,0-0.1-0.1-0.1-0.1c-0.1,0,0.1,0.2,0,0.1c0,0-0.1-0.1-0.1-0.1c0,0,0,0,0.1,0C5.3,8.3,5.2,8.3,5.1,8.1
		c0.1,0.1,0.2,0.3,0.1,0.2c0,0,0,0,0,0l0,0c0,0,0,0,0,0c0,0,0,0,0,0c-0.1-0.1-0.1,0-0.1,0c0.1,0.1,0.1,0.1,0.2,0.2c0,0,0,0,0,0
		c0,0,0,0,0,0c0,0,0,0,0,0c0,0,0,0,0,0c0,0.1,0.1,0.1,0,0.1c0.1,0.1,0.1,0.2,0.2,0.2C5.3,8.6,5.2,8.5,5.1,8.4c0,0.1,0,0.1,0.2,0.3
		c0,0-0.1-0.1-0.1-0.1c0,0,0,0,0-0.1c0,0.1,0,0.1,0.1,0.2c-0.1,0-0.1-0.1-0.1-0.1l0,0C4.8,8.5,5.4,9.1,5,8.9c0,0,0,0,0.1,0
		C4.9,8.8,5.1,9.2,4.8,9c-0.1,0,0,0.1,0.1,0.2L4.7,9.1l0.1,0.2c0.1,0.1-0.3-0.2-0.2,0l0.1,0.1c0,0,0,0.1-0.1,0c0,0,0.1,0.1,0,0.1
		L4.7,9.2l0.1,0.1c-0.1,0-0.2-0.3-0.3-0.2c0,0,0.1,0.2,0.2,0.3c0,0,0.1,0,0.1,0.1l0,0C5,9.7,5.1,9.9,5.3,10L5.2,9.9L5.3,10l0,0
		c0.1,0.1,0,0,0-0.1c0,0,0.1,0.1,0.1,0.1L5.2,9.8C5.3,9.9,5.4,10,5.4,10C5.3,9.9,5.2,9.8,5.2,9.8c0.1,0.1,0.2,0.1,0.1,0.1
		c0,0,0.1,0.1,0.1,0.1c0-0.1,0,0-0.1-0.2c0.1,0.1,0-0.1,0.2,0.1c0,0-0.1-0.2-0.1-0.2c0.2,0.2,0,0,0.3,0.2c-0.2-0.2,0-0.1-0.1-0.3
		c0,0,0,0,0,0c0,0,0.1,0.1,0.1,0.1C5.5,9.7,5.5,9.6,5.4,9.5c0.2,0.1,0.2,0.2,0.3,0.3C5.6,9.7,5.6,9.7,5.5,9.6c0.1,0.1,0.1,0,0.2,0.2
		c-0.2-0.2,0,0-0.1-0.2c0.1,0.1,0.2,0.2,0.1,0.1C5.8,9.7,5.8,9.8,5.8,9.8z M5.9,9C5.9,9,5.9,9.1,5.9,9C5.9,9.1,5.9,9.1,5.9,9
		C5.9,9.1,5.9,9.1,5.9,9z M6,9C5.9,9,5.9,9,6,9C5.9,9,5.9,8.9,6,9C5.9,9,5.9,9,6,9z M5.1,8.3C5.1,8.3,5.1,8.3,5.1,8.3
		C5.1,8.3,5.1,8.3,5.1,8.3C5.2,8.4,5.2,8.4,5.1,8.3C5.1,8.4,5.1,8.3,5.1,8.3z"/>
	<path class="st0" d="M5.2,8.5C5.2,8.5,5.3,8.5,5.2,8.5C5.3,8.5,5.3,8.5,5.2,8.5C5.3,8.5,5.3,8.5,5.2,8.5C5.2,8.5,5.2,8.5,5.2,8.5z"
		/>
	<path class="st0" d="M8.6,5.4L8.6,5.4C8.6,5.4,8.6,5.4,8.6,5.4C8.6,5.4,8.6,5.4,8.6,5.4z"/>
	<polygon class="st0" points="6.7,8.7 6.6,8.7 6.7,8.7 	"/>
	<path class="st0" d="M9.2,5.6C9.2,5.6,9.2,5.6,9.2,5.6C9.2,5.6,9.2,5.6,9.2,5.6z"/>
	<path class="st0" d="M9.3,5.5L9.3,5.5C9.3,5.6,9.3,5.5,9.3,5.5z"/>
	<path class="st0" d="M9.4,5.5C9.4,5.5,9.4,5.5,9.4,5.5C9.4,5.5,9.4,5.5,9.4,5.5L9.4,5.5z"/>
	<path class="st0" d="M8.5,6.7C8.5,6.7,8.5,6.7,8.5,6.7C8.6,6.7,8.5,6.7,8.5,6.7z"/>
	<path class="st0" d="M8.6,6.1C8.6,6.2,8.6,6.2,8.6,6.1C8.6,6.2,8.6,6.2,8.6,6.1z"/>
	<polygon class="st0" points="8.3,7.2 8.3,7.2 8.3,7.2 	"/>
	<path class="st0" d="M8.6,6.2C8.6,6.2,8.6,6.2,8.6,6.2C8.6,6.2,8.6,6.2,8.6,6.2z"/>
	<path class="st0" d="M9.8,5.3L9.8,5.3C9.8,5.3,9.8,5.3,9.8,5.3L9.8,5.3z"/>
	<path class="st0" d="M9.8,5.3L9.8,5.3C9.7,5.3,9.7,5.3,9.8,5.3z"/>
	<path class="st0" d="M9.7,5.2L9.7,5.2C9.8,5.3,9.8,5.3,9.7,5.2z"/>
	<path class="st0" d="M9.6,5.3L9.6,5.3C9.7,5.4,9.6,5.4,9.6,5.3z"/>
	<path class="st0" d="M9.6,5.4C9.6,5.4,9.7,5.4,9.6,5.4L9.6,5.4C9.7,5.4,9.6,5.3,9.6,5.4z"/>
	<path class="st0" d="M9,5L9,5C9,5,9,4.9,9,4.9C8.8,4.8,9.1,5,9,5z"/>
	<path class="st0" d="M8.9,5C8.9,5,8.8,4.9,8.9,5C8.8,5,8.8,5,8.9,5z"/>
	<path class="st0" d="M8.4,5.5L8.3,5.4C8.3,5.4,8.3,5.4,8.4,5.5z"/>
	<polygon class="st0" points="8.8,6.1 8.9,6.2 8.8,6.1 	"/>
	<polygon class="st0" points="8,5.4 8,5.4 8.1,5.5 	"/>
	<path class="st0" d="M7.3,6.3l0.1,0.1C7.4,6.4,7.2,6.2,7.3,6.3z"/>
	<path class="st0" d="M7,6.8C7,6.7,6.9,6.7,7,6.8C7,6.8,7,6.8,7,6.8z"/>
	<polygon class="st0" points="5.8,7.6 5.7,7.6 5.7,7.6 	"/>
</g>
<g>
	<path class="st0" d="M5.1,4.6C5,4.6,5,4.7,5,4.7L5.1,4.6L5.1,4.6z"/>
	<path class="st0" d="M4.9,4.9c0.1-0.1,0.2-0.2,0.3-0.3C5.1,4.7,5.1,4.7,4.9,4.9C4.9,4.8,5,4.8,5,4.7c0,0,0,0-0.1,0
		C4.9,4.9,4.9,4.9,4.9,4.9C4.9,4.8,4.9,4.9,4.9,4.9z"/>
	<path class="st0" d="M5.3,5.8L5.3,5.8C5.3,5.8,5.3,5.8,5.3,5.8z"/>
	<path class="st0" d="M5.7,6.3C5.7,6.3,5.7,6.3,5.7,6.3C5.7,6.3,5.7,6.3,5.7,6.3z"/>
	<path class="st0" d="M5.6,6.5C5.6,6.5,5.6,6.5,5.6,6.5C5.6,6.5,5.6,6.5,5.6,6.5z"/>
	<path class="st0" d="M5.3,5.8L5.3,5.8C5.4,5.8,5.3,5.8,5.3,5.8z"/>
	<path class="st0" d="M5.3,4.7C5.3,4.7,5.3,4.7,5.3,4.7C5.3,4.7,5.3,4.7,5.3,4.7C5.3,4.7,5.3,4.7,5.3,4.7z"/>
	<path class="st0" d="M5,5.7L5,5.7C5,5.7,5,5.7,5,5.7L5,5.7z"/>
	<path class="st0" d="M4.9,5.6c0,0,0.1-0.1,0.2-0.1C5,5.5,5,5.5,4.9,5.6C4.9,5.5,4.9,5.5,4.9,5.6z"/>
	<path class="st0" d="M4.9,5.2L4.9,5.2C4.9,5.2,4.9,5.2,4.9,5.2z"/>
	<path class="st0" d="M5.1,5.8C5.1,5.8,5.1,5.9,5.1,5.8C5.1,5.8,5.1,5.8,5.1,5.8z"/>
	<path class="st0" d="M9.9,8.9C9.9,8.9,9.8,8.9,9.9,8.9C9.9,8.9,9.9,8.9,9.9,8.9z"/>
	<path class="st0" d="M9.5,9.6L9.5,9.6C9.4,9.6,9.4,9.6,9.5,9.6L9.5,9.6z"/>
	<path class="st0" d="M5.6,6.7C5.6,6.7,5.6,6.7,5.6,6.7C5.6,6.7,5.6,6.7,5.6,6.7z"/>
	<path class="st0" d="M6.9,7.8C6.9,7.7,7,7.7,7.1,7.6C7.1,7.7,6.9,7.8,6.9,7.8z"/>
	<path class="st0" d="M5.3,4.7C5.3,4.7,5.3,4.7,5.3,4.7C5.3,4.7,5.3,4.7,5.3,4.7z"/>
	<path class="st0" d="M7.1,7.6C7.1,7.6,7.1,7.6,7.1,7.6L7.1,7.6C7.1,7.6,7.1,7.6,7.1,7.6z"/>
	<path class="st0" d="M6,7C6,7,6,6.9,6,7C6,6.9,6,6.9,6,7z"/>
	<path class="st0" d="M5.9,6.6L5.9,6.6C5.9,6.6,5.9,6.6,5.9,6.6z"/>
	<path class="st0" d="M6.2,6.9C6.2,6.9,6.2,7,6.2,6.9C6.2,6.9,6.2,6.9,6.2,6.9C6.2,6.9,6.2,7,6.2,6.9z"/>
	<path class="st0" d="M6.3,7C6.4,7,6.4,7,6.3,7C6.4,7,6.4,7,6.3,7L6.3,7z"/>
	<path class="st0" d="M9.4,8.6c0,0-0.1,0.1-0.1,0.1C9.4,8.6,9.5,8.6,9.4,8.6z"/>
	<path class="st0" d="M5.2,4.7C5.3,4.7,5.3,4.7,5.2,4.7C5.3,4.7,5.3,4.7,5.2,4.7C5.2,4.7,5.2,4.7,5.2,4.7z"/>
	<path class="st0" d="M7.1,6.1L7.1,6.1C7.1,6.1,7.1,6.1,7.1,6.1z"/>
	<path class="st0" d="M8.6,7.7L8.6,7.7C8.6,7.7,8.6,7.7,8.6,7.7z"/>
	<path class="st0" d="M7.2,6.1C7.1,6.2,7.1,6.2,7.2,6.1C7.1,6.2,7.1,6.2,7.2,6.1L7.2,6.1z"/>
	<path class="st0" d="M9.3,8.7C9.3,8.7,9.3,8.7,9.3,8.7C9.3,8.7,9.3,8.7,9.3,8.7z"/>
	<path class="st0" d="M9.7,8.5c0,0-0.2,0.1-0.2,0.2C9.4,8.8,9.6,8.6,9.7,8.5c-0.1,0-0.3,0.2-0.3,0.1c0,0,0,0,0.1-0.1
		c-0.1,0.1,0,0-0.2,0.1c0,0,0,0,0,0C9.3,8.8,9.2,8.8,9.2,8.9c0,0-0.1,0.1,0,0c0,0,0,0,0.1-0.1l0,0c0.1-0.1,0.1,0,0.2-0.1
		c-0.1,0-0.2,0.1-0.2,0.1c0.1-0.1,0.1,0,0.2-0.2l0,0.1c0.2-0.2,0,0,0.2-0.2c0-0.1-0.1,0-0.1,0C9.3,8.5,9.3,8.6,9.2,8.6
		C9.1,8.7,9.5,8.3,9.3,8.4C9.2,8.5,9.1,8.7,9.1,8.6l0.2-0.1c0,0-0.2,0.2-0.2,0.1c0.1-0.1,0.1,0,0.1-0.1c0.1-0.1-0.1,0.1-0.1,0.1
		l0.1-0.1c0,0-0.2,0.1-0.2,0.1c0,0,0.1-0.1,0.1-0.1c-0.1,0-0.1-0.1,0-0.2L9,8.2c0,0,0-0.1,0.1-0.1C9.1,8,9,8.2,8.9,8.2
		c0,0,0.1-0.1,0.1-0.1c-0.1,0.1-0.3,0.1-0.2,0l0,0c0-0.1-0.3,0.2-0.2,0.1l0,0c0-0.1-0.1,0,0-0.2C8.6,8.1,8.8,7.8,8.5,8
		c0.1-0.1,0.1-0.2,0.2-0.3c0,0-0.2,0.1-0.2,0.1l0.1-0.1L8.5,7.9l0.1-0.2l0,0c0,0,0,0.1-0.1,0.1c-0.1,0,0-0.1,0.1-0.2L8.5,7.7
		c0.1,0,0.1-0.1,0.1-0.1c-0.1,0.1,0.1-0.1,0,0c0,0-0.1,0.1-0.1,0.1c0.1-0.1,0-0.1,0-0.1l0.1-0.1c0-0.1-0.1,0-0.1-0.1
		c0,0.1-0.2,0.2-0.2,0.2l0.1-0.1c-0.1,0.1,0,0.1-0.1,0.1c0,0,0.1-0.2,0.2-0.2l-0.1,0c0,0,0.1-0.1,0.1-0.1c-0.1,0.1,0.1-0.2,0,0l0,0
		c0,0-0.1,0-0.1,0C8.2,7.4,8.2,7.4,8.1,7.4c0-0.1,0.1-0.2,0-0.2C8.1,7.3,8.1,7.4,8,7.4C8.1,7.3,8,7.3,8.1,7.2c0,0-0.1,0-0.2,0
		c0,0-0.1,0.1-0.1,0.1c0,0,0-0.1,0.1-0.1l0,0C7.8,7.4,8.2,6.9,7.9,7l0,0L7.8,7.1c0,0,0.1-0.1,0.1-0.1c-0.2,0.1,0-0.1-0.2,0
		C8,6.6,7.6,6.9,7.8,6.7L7.7,6.8c-0.1,0.1,0-0.1,0-0.1C7.7,6.7,7.7,6.8,7.7,6.8c-0.2,0,0-0.2,0-0.4c0,0-0.4,0.3-0.2,0.1l0.1-0.1
		c-0.2,0.1-0.1-0.1-0.3,0c0,0,0.1-0.1,0.1-0.1c0.1-0.1,0,0-0.1,0c0,0,0.1-0.1,0.1-0.1c0-0.1-0.1,0.1-0.1,0c0,0,0,0,0,0
		c-0.1,0,0,0-0.1,0.1c0-0.1-0.1,0,0-0.1C7,6.3,7.1,6.1,7,6.3c0.2-0.2,0.1-0.2,0-0.1C7,6.1,7,6.1,7.1,6.1c0,0-0.1,0-0.2,0.1
		C7.1,5.9,6.7,6.3,7,6C6.9,6,6.7,6.1,6.7,6.1c0.2-0.2,0.1,0,0.2-0.2C6.8,5.9,6.6,6.1,6.6,6c0,0,0.1-0.1,0.1-0.1
		c-0.1,0-0.1-0.1-0.2,0c0,0,0,0,0.1,0c0,0,0,0-0.1,0l0,0C6.5,6,6.3,6.1,6.3,6.2c0.2-0.2,0-0.1,0.3-0.4c0,0-0.1,0-0.1,0.1
		c0,0,0-0.1,0.1-0.1c-0.1,0-0.1,0.1-0.2,0.1c0,0,0.1-0.1,0.1-0.1C6.4,5.8,6.4,5.9,6.4,5.9c0,0,0.1-0.1,0.1,0c0,0-0.3,0.2-0.2,0
		c0.2-0.2,0-0.1,0.2-0.2l-0.1,0L6.3,5.7c0,0-0.1,0.1-0.1,0l0.1,0l-0.1,0l0,0.1C6.1,5.8,6,6,6,5.9c0,0,0,0,0.1-0.1c0,0,0,0,0,0
		C6,5.8,6,5.9,6,5.8c0-0.1,0.2-0.2,0.2-0.2C6,5.8,6.1,5.6,6,5.8c0,0,0.1-0.1,0.1-0.1L6,5.7c0,0,0-0.1,0.1-0.1c0,0-0.2,0.2-0.1,0.1
		c0,0,0,0,0,0c0-0.1-0.1,0-0.1-0.1c0.1-0.2,0.1,0,0.2-0.1c-0.1,0-0.2,0.1-0.2,0l0,0c-0.2,0.2,0.1-0.1,0,0c0,0,0.1-0.1,0.1-0.1
		c0-0.1-0.1,0-0.2,0l0.1,0c0-0.1,0-0.1,0-0.1c-0.1,0-0.1,0-0.1,0.1c0.3-0.4-0.2,0.1,0-0.2c0,0,0.1,0,0.1,0l-0.1,0
		C5.5,5.3,5.5,5.2,5.5,5.3C5.4,5.4,5.4,5.4,5.3,5.4c0.1,0,0.1-0.1,0.2-0.2c0,0-0.1,0.1-0.1,0.1c0.1-0.2-0.2,0.2-0.1,0l0,0
		c0,0-0.1,0.1-0.1,0c0.1-0.1,0.1,0,0.1-0.1c0,0-0.2,0.2-0.1,0.1c0,0,0,0,0.1,0c0.1-0.1,0.1-0.1,0.1-0.1l0,0l0-0.1l0,0
		C5.2,5.3,5.4,5,5.2,5.2C5.4,5.1,5.3,5.1,5.4,5c0,0,0.1-0.1,0.1-0.1C5.4,5,5.6,4.8,5.4,4.9c0,0,0,0,0.1-0.1c0,0-0.1,0.1-0.1,0.1
		C5.2,5,5.5,4.7,5.3,4.9C5.2,4.9,5.1,5,5,5.1C5,5,5.1,4.9,5.1,4.9c0-0.1,0-0.1,0,0c0,0,0.1-0.1,0.1-0.1c0,0-0.1,0.1-0.1,0.1
		c0,0,0.1-0.1,0.2-0.1c0,0-0.1,0.1-0.2,0.1c0.1-0.1,0.1-0.1,0.2-0.1c0,0-0.1,0-0.2,0.1l0,0c0,0,0.1-0.1,0.1-0.1
		c0.1-0.1,0,0.1-0.1,0.1l0,0c-0.2,0.2,0.1,0,0.1,0L4.9,5l0.2-0.1c0,0-0.1,0.1-0.2,0.2C4.8,5.2,5,5,4.9,5.1c0,0,0,0,0,0l0.1,0
		c0,0-0.1,0.1-0.1,0.1c-0.1,0.1,0.2-0.1,0,0l0,0C4.9,5.2,5,5.1,5.1,5L4.9,5.3L5,5.2c0,0,0,0-0.1,0.1C5,5.2,5,5.2,5.1,5.2
		C5,5.3,5.2,5.2,5,5.4C5.1,5.3,5,5.3,5.1,5.2c-0.2,0.2,0.1,0,0,0.1C5,5.4,5,5.3,4.9,5.5c0.2-0.2,0,0.1,0,0c0.1-0.1,0.1,0,0.2-0.1
		c0,0,0,0.1-0.1,0.2l0,0c0.1-0.1,0.1-0.1,0.2-0.1C5.1,5.6,5.1,5.7,5,5.7l0,0c0,0,0.1-0.1,0.1-0.1L5,5.7c0,0,0.2-0.1,0.1,0
		c0.1-0.1,0.3-0.3,0.4-0.3C5.5,5.4,5.4,5.5,5.3,5.6c0,0,0.1,0,0,0L5.3,5.6c0,0.1,0.1-0.1,0.1-0.1c-0.1,0.1,0,0.1-0.1,0.1
		c0,0,0,0,0,0c0,0,0,0.1-0.1,0.1c0,0,0.1-0.1,0.1-0.1c0,0-0.1,0.1-0.1,0.2c0.1-0.1,0,0,0.1-0.1c0,0,0,0.1-0.1,0.1
		c0.1,0,0.1,0,0.2-0.1l0,0c0,0,0,0,0,0c0,0,0,0,0,0l0,0c0.1-0.1,0,0.1,0.1,0.1l0,0c0.1,0,0.1,0,0.2-0.1c0,0-0.1,0.1-0.1,0.1
		c0,0,0.1-0.1,0,0C5.4,6,5.4,6,5.4,6c0,0.1-0.1,0.1,0,0C5.4,6.1,5.4,6.2,5.4,6.2l0.1-0.1c0,0,0,0,0,0L5.3,6.2C5.2,6.4,5.7,6,5.4,6.3
		c0.1-0.1,0-0.1,0.2-0.2c0,0-0.2,0.2-0.2,0.2C5.4,6.5,5.6,6.2,5.6,6.3c0,0,0.2-0.2,0.2-0.2c0,0-0.2,0.2-0.2,0.2c0,0,0,0,0,0
		c0,0,0,0-0.1,0.1l0,0c0,0.1,0,0.1-0.1,0.1c0.1,0,0.1-0.1,0.1-0.1c0,0.1,0,0,0,0.1c0,0,0.1-0.1,0.1-0.1c0,0.1,0.1-0.1,0.1-0.1
		C5.8,6.4,5.7,6.5,5.7,6.4c0,0.1-0.1,0.1-0.2,0.2c0.1-0.1,0,0.1,0,0.1l0,0c0,0,0,0,0,0l0.1-0.1c0,0,0,0,0,0.1
		c0.1-0.1,0.2-0.2,0.2-0.2c0,0.1,0.1,0,0,0.1c0-0.1-0.1,0.1-0.2,0.1c0,0,0,0,0,0c0,0,0,0,0,0C5.5,6.9,5.7,6.6,5.8,6.6
		C5.7,6.7,5.6,6.8,5.7,6.8c0,0,0.1-0.1,0.2-0.2c0,0.1,0.1,0,0.1,0l0,0C6,6.5,6,6.5,6,6.5C6,6.6,6,6.5,5.9,6.6c0.1-0.1-0.1,0.2,0,0.1
		c0,0.1-0.1,0.1-0.2,0.2c0.1-0.1-0.1,0.1,0,0.1C5.9,6.8,5.9,6.8,6,6.7l-0.1,0L6,6.6c0,0-0.1,0-0.1,0c0.1-0.1,0.1,0,0.1-0.1
		C6,6.7,6.2,6.5,6.1,6.6L5.9,6.8C5.8,6.9,6.1,6.7,6,6.8l0-0.1c0.1-0.1,0,0,0.1,0C6.1,6.8,6,6.9,6,6.9c0.1-0.1,0,0,0.2-0.1L6.1,6.9
		c0,0.1,0.3-0.2,0.2-0.1C6.2,6.8,6.2,6.9,6.1,7c0,0,0,0,0.1,0c0,0.1,0.1-0.1,0.1,0c0,0,0.1-0.1,0.1-0.1c0,0,0,0,0,0
		c0,0,0.1,0,0.1-0.1C6.2,7,6.6,6.8,6.4,7c0,0,0.1,0,0.1,0c0,0,0,0,0,0C6.4,7.1,6.7,6.8,6.6,6.9C6.5,7.1,6.5,7,6.5,7.1
		c-0.3,0.3,0.1,0-0.1,0.2l0,0c-0.1,0.1,0.1-0.1,0.1,0c0,0,0,0,0,0c0.1-0.1,0.2-0.1,0.3-0.1c-0.1,0.1-0.1,0-0.2,0.2
		c0,0,0.2-0.2,0.2-0.2c0,0.1-0.1,0.1-0.2,0.2l0,0c-0.1,0.2,0,0,0,0.1L6.6,7.4c0,0,0.2-0.1,0.2-0.1l0,0c0.2-0.1-0.1,0.1,0.1,0
		L6.7,7.4c0,0,0.2-0.1,0.2-0.1C6.8,7.4,6.8,7.4,6.7,7.5c0,0,0,0,0.1,0c0,0-0.1,0,0,0C6.9,7.3,7,7.3,7,7.3C6.7,7.6,7,7.4,6.7,7.7
		c0.1-0.1,0,0.1,0.1,0.1c0.2-0.3,0,0,0.3-0.2c0,0,0,0,0,0L7,7.8c-0.1,0.1-0.1,0-0.1,0.1c0,0-0.1,0.1-0.1,0.2C6.8,8,6.8,8,6.8,8
		l0.1-0.1c0.2-0.1-0.2,0.2,0,0.1L6.8,8.1c0.1,0,0.1,0.1,0.3-0.1C7.1,8,7,8,7,8.1c0,0.1,0.3-0.1,0.2,0L7.1,8.1c0,0,0.1-0.1,0.1,0
		c0,0-0.1,0.1-0.1,0.1c0,0,0.1-0.1,0.1,0L7.1,8.2c0,0.1,0.2-0.1,0.3-0.1C7.2,8.2,7.2,8.3,7.2,8.4l0,0c0,0.1,0.2-0.1,0.3-0.1
		c-0.2,0.2,0,0.2-0.1,0.3c0,0,0.1-0.1,0.2-0.1c0,0,0.1-0.1,0,0.1l0,0C7.4,8.7,7.5,8.6,7.5,8.7l0.2-0.2c-0.3,0.3,0.2,0,0,0.3
		c0.1,0,0.1,0,0.1-0.1L7.7,8.8c0,0.1,0,0.1,0.1,0.1L7.7,8.9c0,0,0.3-0.3,0.4-0.3L7.9,8.8c0,0-0.1,0.2,0.1,0.1c0,0-0.1,0.1-0.1,0.1
		c0,0-0.1,0.2,0.2-0.1c-0.1,0.2,0,0,0.1,0L8,9c0.2-0.1,0.2-0.2,0.3-0.2c0,0-0.1,0.1-0.1,0.1c0,0.1,0.1-0.1,0.1,0L8.2,8.9
		c0,0,0,0,0.1-0.1c0.1,0,0,0.1-0.1,0.2c0.1-0.1,0.2-0.1,0.1-0.1c0,0-0.1,0.1-0.1,0.1c0,0.1,0.2-0.1,0.1,0c0,0-0.1,0.1-0.1,0.1
		c0,0,0,0,0-0.1C8.2,9.1,8.2,9.2,8.1,9.3c0.1-0.1,0.3-0.2,0.2-0.1c0,0,0,0,0,0l0,0c0,0,0,0,0,0c0,0,0,0,0,0c-0.1,0.1,0,0.1,0,0.1
		c0.1-0.1,0.1-0.1,0.2-0.2c0,0,0,0,0,0c0,0,0,0,0,0c0,0,0,0,0,0c0,0,0,0,0,0c0.1,0,0.1-0.1,0.1,0C8.5,9,8.6,9,8.6,8.9
		C8.5,9.1,8.4,9.2,8.3,9.3c0.1,0,0.1,0,0.3-0.2c0,0-0.1,0.1-0.1,0.1c0,0,0,0-0.1,0c0.1,0,0.1,0,0.2-0.1c0,0.1-0.1,0.1-0.1,0.1l0,0
		C8.4,9.6,9,9,8.8,9.4c0,0,0,0,0-0.1c-0.1,0.2,0.3,0,0.1,0.3c0,0.1,0.1,0,0.2-0.1L9,9.6l0.2-0.1c0.1-0.1-0.2,0.3,0,0.2l0.1-0.1
		c0,0,0.1,0,0,0.1c0,0,0.1-0.1,0.1,0L9.2,9.7l0.1-0.1c0,0.1-0.3,0.2-0.2,0.3c0,0,0.2-0.1,0.3-0.2c0,0,0-0.1,0.1-0.1l0,0
		c0.2-0.2,0.4-0.4,0.5-0.5L9.8,9.2l0.1-0.1l0,0c0.1-0.1,0,0-0.1,0c0,0,0.1-0.1,0.1-0.1L9.8,9.2C9.8,9.1,9.9,9,9.9,9
		C9.8,9,9.8,9.1,9.7,9.2C9.8,9.1,9.9,9,9.8,9.1C9.8,9,9.9,9,9.9,9c-0.1,0,0,0-0.2,0.1c0.1-0.1-0.1,0,0.1-0.2c0,0-0.2,0.1-0.2,0.1
		c0.2-0.2,0,0,0.2-0.3c-0.2,0.2-0.1,0-0.3,0.1c0,0,0,0,0,0c0,0,0.1-0.1,0.1-0.1C9.6,8.9,9.5,8.9,9.4,9c0.1-0.2,0.2-0.2,0.3-0.3
		C9.6,8.8,9.6,8.8,9.5,8.9c0.1-0.1,0-0.1,0.2-0.2c-0.2,0.2,0,0-0.2,0.1c0.1-0.1,0.2-0.2,0.1-0.1C9.7,8.6,9.7,8.5,9.7,8.5z M9,8.5
		C9,8.5,9,8.5,9,8.5C9,8.5,9,8.5,9,8.5C9,8.5,9,8.5,9,8.5z M8.9,8.4C8.9,8.4,8.9,8.4,8.9,8.4C8.9,8.5,8.9,8.5,8.9,8.4
		C8.9,8.5,8.9,8.5,8.9,8.4z M8.2,9.3C8.2,9.3,8.2,9.3,8.2,9.3C8.3,9.2,8.3,9.2,8.2,9.3C8.3,9.2,8.3,9.2,8.2,9.3
		C8.3,9.2,8.3,9.3,8.2,9.3z"/>
	<path class="st0" d="M8.4,9.1C8.4,9.1,8.4,9.1,8.4,9.1C8.4,9.1,8.4,9.1,8.4,9.1C8.4,9.1,8.4,9.1,8.4,9.1C8.4,9.1,8.4,9.1,8.4,9.1z"
		/>
	<path class="st0" d="M5.4,5.7L5.4,5.7C5.4,5.7,5.4,5.7,5.4,5.7C5.4,5.7,5.4,5.7,5.4,5.7z"/>
	<polygon class="st0" points="8.7,7.7 8.6,7.7 8.7,7.7 	"/>
	<path class="st0" d="M5.5,5.2C5.5,5.2,5.6,5.2,5.5,5.2C5.6,5.1,5.5,5.2,5.5,5.2z"/>
	<path class="st0" d="M5.5,5.1L5.5,5.1C5.5,5,5.5,5.1,5.5,5.1z"/>
	<path class="st0" d="M5.5,4.9C5.4,5,5.4,5,5.5,4.9C5.4,5,5.4,5,5.5,4.9L5.5,4.9z"/>
	<path class="st0" d="M6.6,5.8C6.6,5.8,6.6,5.8,6.6,5.8C6.7,5.8,6.7,5.8,6.6,5.8z"/>
	<path class="st0" d="M6.1,5.8C6.1,5.8,6.1,5.8,6.1,5.8C6.1,5.7,6.1,5.7,6.1,5.8z"/>
	<polygon class="st0" points="7.1,6.1 7.1,6.1 7.1,6.1 	"/>
	<path class="st0" d="M6.1,5.8C6.2,5.7,6.1,5.7,6.1,5.8C6.1,5.8,6.1,5.8,6.1,5.8z"/>
	<path class="st0" d="M5.2,4.6L5.2,4.6C5.2,4.6,5.2,4.6,5.2,4.6L5.2,4.6z"/>
	<path class="st0" d="M5.2,4.6L5.2,4.6C5.2,4.6,5.2,4.6,5.2,4.6z"/>
	<path class="st0" d="M5.2,4.7L5.2,4.7C5.2,4.6,5.2,4.6,5.2,4.7z"/>
	<path class="st0" d="M5.3,4.7L5.3,4.7C5.3,4.7,5.3,4.7,5.3,4.7z"/>
	<path class="st0" d="M5.3,4.8C5.3,4.7,5.4,4.7,5.3,4.8L5.3,4.8C5.4,4.7,5.2,4.8,5.3,4.8z"/>
	<path class="st0" d="M4.9,5.4L4.9,5.4c0,0-0.1,0.1-0.1,0.1C4.7,5.6,4.9,5.3,4.9,5.4z"/>
	<path class="st0" d="M4.9,5.5C4.9,5.5,4.9,5.6,4.9,5.5C4.9,5.6,4.9,5.5,4.9,5.5z"/>
	<path class="st0" d="M5.4,6L5.3,6.1C5.3,6.1,5.4,6.1,5.4,6z"/>
	<polygon class="st0" points="6,5.6 6.1,5.5 6,5.6 	"/>
	<polygon class="st0" points="5.4,6.3 5.3,6.3 5.4,6.3 	"/>
	<path class="st0" d="M6.2,7.1L6.3,7C6.3,7,6.2,7.2,6.2,7.1z"/>
	<path class="st0" d="M6.7,7.4C6.6,7.4,6.6,7.5,6.7,7.4C6.7,7.4,6.7,7.3,6.7,7.4z"/>
	<polygon class="st0" points="7.6,8.6 7.5,8.7 7.6,8.6 	"/>
</g>
</svg>
