<?xml version="1.0" encoding="utf-8"?>
<!-- Generator: Adobe Illustrator 21.1.0, SVG Export Plug-In . SVG Version: 6.00 Build 0)  -->
<svg version="1.1" id="Layer_1" xmlns="http://www.w3.org/2000/svg" xmlns:xlink="http://www.w3.org/1999/xlink" x="0px" y="0px"
	 viewBox="0 0 11.5 36.1" style="enable-background:new 0 0 11.5 36.1;" xml:space="preserve">
<style type="text/css">
	.st0{fill:#010101;}
</style>
<path class="st0" d="M5.7,0H5.1C5,0,4.8,0.1,4.8,0.3L4.4,4.5c-0.6,0-1.8,0.2-2.5,0.7C1.8,5.3,1.6,5.5,1.5,5.7l0,0l0,0
	c-0.3,0.7-0.1,1.4,0,1.8c-0.1,0-0.1,0.1-0.2,0.1C0.8,8,0.2,8.5,0.2,9.1l0,0l0.2,24.3l0,0.2c0,0.1,1.2,2.6,5.6,2.5
	c1.9,0,3.3-0.4,4.2-1.1c0.7-0.5,0.8-1,0.8-1s0-0.1,0-0.2c0-0.2,0.5-19.2,0-24.9c0-0.6-0.4-1.1-1.2-1.4c0-0.6,0.1-1.8-0.4-2.3
	C8.9,4.7,7.5,4.5,7,4.5L6,0.2C5.9,0.1,5.8,0,5.7,0z M10.5,9c0.5,5.5,0,23.8,0,24.8c0,0.1-0.2,0.4-0.6,0.7c-0.6,0.4-1.7,0.9-3.9,1
	c-3.7,0.1-4.8-1.8-5-2.1L0.7,9.2c0-0.3,0.4-0.7,0.9-1.1c0,0,0.1,0,0.1-0.1c0.9,1.2,3.5,1.2,3.6,1.2C7.6,9.2,9,8.4,9.4,8
	c0,0,0.1,0,0.1-0.1C10,8.2,10.4,8.5,10.5,9z M9,5.6c0.2,0.2,0.3,1.3,0.2,2C9,7.8,7.7,8.7,5.4,8.7c-0.8,0-2.8-0.2-3.3-1.2
	C2,7.4,1.9,6.9,2,6.3c1.4,1.1,3.9,0.9,4,0.9s0.1,0,0.1-0.1c0.1,0,0.2-0.1,0.2-0.2c0-0.2-0.2-0.3-0.3-0.3c0,0-2.5,0.2-3.8-0.9
	l0.1-0.1C2.8,5.3,4,5.1,4.5,5C5,5.3,5.8,5.7,6.7,5l0,0l0,0C7.2,5,8.7,5.2,9,5.6z M6.4,4.5C5.8,5,5.2,4.8,4.9,4.6l0.4-4h0.1L6.4,4.5z
	"/>
</svg>
