<?xml version="1.0" encoding="utf-8"?>
<!-- Generator: Adobe Illustrator 21.1.0, SVG Export Plug-In . SVG Version: 6.00 Build 0)  -->
<svg version="1.1" id="Layer_1" xmlns="http://www.w3.org/2000/svg" xmlns:xlink="http://www.w3.org/1999/xlink" x="0px" y="0px"
	 viewBox="0 0 30 30.2" style="enable-background:new 0 0 30 30.2;" xml:space="preserve">
<style type="text/css">
	.st0{fill:#FFFFFF;}
</style>
<g>
	<path class="st0" d="M28.7,15.1c0.1,0,0.2,0,0.2-0.1l-0.2-0.1V15.1z"/>
	<path class="st0" d="M29.1,14.3c-0.1-0.1-0.3-0.3-0.5-0.2c0.2,0.1,0.1,0.2,0.4,0.3c0,0.1-0.1,0.2-0.1,0.2c0.1,0,0,0.2,0.1,0.3
		c0.2-0.2,0.2-0.4,0-0.6C29,14.2,29,14.3,29.1,14.3z"/>
	<path class="st0" d="M23.4,3.4L23.4,3.4C23.4,3.5,23.4,3.4,23.4,3.4z"/>
	<path class="st0" d="M16,0.7C16.1,0.7,16.1,0.7,16,0.7C16.1,0.6,16,0.7,16,0.7z"/>
	<path class="st0" d="M14.7,0.4L14.7,0.4L14.7,0.4z"/>
	<path class="st0" d="M23.4,3.4l-0.1-0.2C23.2,3.3,23.3,3.3,23.4,3.4z"/>
	<path class="st0" d="M28.3,12.7C28.4,12.7,28.4,12.7,28.3,12.7C28.4,12.7,28.4,12.7,28.3,12.7C28.4,12.7,28.4,12.7,28.3,12.7z"/>
	<path class="st0" d="M26.1,5.7L26.1,5.7c0.1,0,0.1,0,0.1,0H26.1z"/>
	<path class="st0" d="M27.7,7.9c0-0.1-0.2,0-0.3,0C27.5,7.9,27.5,7.9,27.7,7.9C27.6,7.9,27.7,7.9,27.7,7.9z"/>
	<path class="st0" d="M29,11.9L29,11.9C29,12,29,12,29,11.9z"/>
	<path class="st0" d="M24.8,4.2L24.8,4.2L24.8,4.2z"/>
	<path class="st0" d="M28,18L28,18L28,18z"/>
	<path class="st0" d="M29.2,15.1L29.2,15.1l0.1,0.1L29.2,15.1z"/>
	<path class="st0" d="M12.1,0.4L12.1,0.4C12.2,0.4,12.1,0.4,12.1,0.4z"/>
	<path class="st0" d="M0.5,18.3c0.1-0.3,0.3,0.4,0.4-0.1C0.9,18.3,0.6,17.9,0.5,18.3z"/>
	<path class="st0" d="M28.4,12.6v-0.1C28.3,12.5,28.3,12.6,28.4,12.6z"/>
	<path class="st0" d="M0.9,18.2L0.9,18.2L0.9,18.2L0.9,18.2z"/>
	<path class="st0" d="M6.7,2.8C6.7,2.9,6.7,2.9,6.7,2.8C6.8,2.9,6.7,2.8,6.7,2.8z"/>
	<path class="st0" d="M10.7,1.2h-0.1C10.7,1.2,10.7,1.2,10.7,1.2z"/>
	<path class="st0" d="M5.1,4.5C5,4.5,5,4.5,5.1,4.5C5,4.6,5,4.6,5.1,4.5C5,4.5,5,4.5,5.1,4.5z"/>
	<path class="st0" d="M3.5,6.2C3.5,6.2,3.6,6.2,3.5,6.2C3.6,6.2,3.6,6.1,3.5,6.2L3.5,6.2z"/>
	<path class="st0" d="M25.2,23.7c0.1,0,0.1,0,0.2,0C25.3,23.7,25.4,23.4,25.2,23.7z"/>
	<path class="st0" d="M28.4,12.6L28.4,12.6L28.4,12.6C28.4,12.7,28.4,12.7,28.4,12.6z"/>
	<path class="st0" d="M6,5.6L5.8,5.8C5.8,5.8,5.9,5.7,6,5.6z"/>
	<path class="st0" d="M11.4,27.9L11.4,27.9L11.4,27.9z"/>
	<path class="st0" d="M5.1,6.6c-0.1,0-0.1,0-0.2,0c0,0,0,0,0,0.1L5.1,6.6z"/>
	<path class="st0" d="M25.4,23.8L25.4,23.8L25.4,23.8z"/>
	<path class="st0" d="M26.3,21.7c-0.2,0.3,0.1,0.3,0.2,0.4c-0.1,0.4-0.2,0.1-0.4,0.1c0,0.1,0,0.2,0,0.4c0,0.1,0,0.2-0.1,0.3
		c0,0-0.1,0-0.1-0.1c0,0.3-0.4,0.6-0.4,1h-0.1c0.1,0,0.2,0.1,0.3,0.2c-0.1,0.1-0.1,0.3-0.2,0.2c0.1-0.1,0-0.1,0-0.2l-0.1,0.2
		c-0.3,0,0.1-0.2,0-0.3c-0.1,0.3-0.2,0.7-0.4,0.8c-0.2-0.1,0.3-0.5,0-0.4l0.3-0.2c-0.4,0,0.2-0.1-0.3-0.2c-0.4,0.3-0.2,0.5-0.6,0.7
		c0,0.2,0.2,0.1,0.2,0.3c-0.3,0.6-0.8-0.1-0.9,0.5c0,0.2,0.1,0.4-0.2,0.5l-0.1-0.3c-0.4,0.2,0,0.4-0.5,0.6c0-0.1,0.2-0.3,0.2-0.3
		c-0.4,0-0.1,0.2-0.3,0.4l-0.2-0.2c-0.2,0.1-0.4,0.3-0.6,0.5s-0.4,0.4-0.6,0.5c0-0.1,0-0.2-0.1-0.2c-0.3,0.2-0.6,0.3-0.9,0.5
		c-0.3,0.1-0.7,0.1-1,0.2l-0.2,0.3c-0.1,0-0.1-0.1-0.1-0.1c-0.3,0,0,0.1-0.1,0.2c-0.1,0-0.2-0.1-0.1-0.1c-0.2,0.1-0.5,0.3-0.8,0.4
		c-0.1,0.1-0.3,0.1-0.5,0.1s-0.3,0-0.4,0l0.1-0.1c-0.4,0-0.4,0.5-0.7,0.3h0.1c-0.4,0-0.8,0-1.2,0c-0.1,0-0.2,0-0.3,0s-0.2,0-0.3,0
		c-0.2,0-0.3-0.1-0.5-0.2c-0.1,0.1-0.3,0.1-0.4,0.1c-0.2,0-0.4-0.1-0.4,0.1c-0.4-0.3-0.3-0.3-0.9-0.5c-0.2,0-0.3,0.2-0.5,0.2v-0.2
		l-0.3,0.1l-0.1-0.3h-0.2c0.1,0,0.1,0.1,0.1,0.2c-0.2,0-0.3-0.1-0.5-0.2c-0.1-0.1-0.2-0.2-0.2-0.3l-0.7-0.1c0-0.1,0.2-0.1,0.3-0.1
		c-0.4,0.1,0-0.2-0.4-0.2c0,0.1-0.1,0.1-0.1,0.1c-0.1-0.2-0.5-0.4-0.8-0.4l0,0.1c-0.5-0.2-1-0.5-1.5-0.8c0.1,0.2,0,0.3-0.2,0.3
		l0.1-0.2c-0.2,0.1,0.1,0.2-0.2,0.2c-0.2-0.2,0-0.3,0.2-0.3L7.4,26c0-0.1,0.1-0.1,0.2-0.1c-0.2,0-0.2-0.5-0.5-0.4v-0.1
		c-0.1-0.1-0.2-0.2-0.3-0.2c-0.1-0.1-0.2-0.1-0.3-0.2c-0.2,0-0.3-0.2-0.5-0.3c-0.1,0.1-0.2,0-0.5,0c-0.2-0.3-0.4-0.7-0.7-1
		c-0.3-0.2-0.2,0-0.4,0c0.1-0.1-0.2-0.5,0.1-0.4c-0.2-0.2-0.3-0.3-0.4-0.5C4,22.7,4,22.7,3.9,22.6c-0.1-0.1-0.2-0.2-0.3-0.3
		c0,0.1,0,0.2-0.1,0.2c-0.1-0.1-0.1-0.3,0-0.3l0,0c-0.3-0.3-0.4-0.7-0.5-1.1c0-0.2-0.1-0.4-0.1-0.6c0-0.1-0.1-0.2-0.1-0.2
		c0-0.1-0.1-0.1-0.2-0.2l0,0l-0.4-0.5c-0.1-0.3,0.2,0.1,0.2-0.1c-0.1-0.1-0.2-0.3-0.3-0.4C2.1,19,2,18.8,2,18.7
		c0-0.2-0.1-0.5-0.2-0.7c0.2-0.3,0.1-0.6,0-1c0-0.2-0.1-0.4-0.1-0.6s0-0.4,0.1-0.5H1.7c0.1,0,0.3-0.1,0.3-0.2
		c-0.1,0-0.1,0.2-0.2,0.1c-0.1-0.6,0-1.3,0.1-1.9C2,13.6,2.1,13.3,2.2,13l0.1-0.5c0.1-0.1,0.1-0.3,0.2-0.4c0.1-0.4-0.5-0.4-0.1-0.9
		l0.2,0.2c0-0.5,0.2-0.9,0.4-1.4c0.2-0.4,0.4-0.8,0.5-1.3c0,0.1,0.1,0.1,0,0.2c0.2-0.1,0.4-0.6,0.3-0.7c0.1-0.1,0.1,0,0.2,0
		c0.1-0.1,0-0.5,0.2-0.5v0.1c0-0.1,0.4-0.5,0.1-0.5c0.3-0.2,0.3-0.6,0.6-0.7c0-0.3,0.5-0.4,0.3-0.6c0.2,0.2,0.6-0.3,0.6-0.5
		C5.8,5.6,6,5.4,6,5.6c0.2-0.2,0.3-0.4,0.2-0.4c0.6,0,0.5-0.8,1-0.6c0.1-0.1,0.2-0.3,0.4-0.4C7.8,4,7.9,3.9,8,3.8
		c0.1-0.1,0.3-0.2,0.4-0.3l0.2-0.2l0.2-0.1c0.1,0.1-0.1,0.2-0.3,0.3C8.4,3.6,8.3,3.7,8.4,3.8c0.1-0.1,0.2-0.2,0.3-0.3S8.9,3.3,9,3.2
		C9.2,3,9.4,2.9,9.7,2.8c0.2,0,0,0.2-0.1,0.2c0.3-0.2,0.6-0.3,0.8-0.4c0.1-0.1,0.3-0.1,0.4-0.2c0.1-0.1,0.3-0.1,0.4-0.2
		c0,0,0,0.1-0.1,0.1c0.1,0,0.3,0,0.2-0.1l-0.1,0.1c-0.2-0.1,0.3-0.5,0.3-0.6c-0.1,0.4,0.6,0,0.4,0.5C12,2.2,12,2.1,12,2
		c0.1,0,0.2,0,0.1,0.2C12.4,2,12.4,2,12.5,1.9s0.1-0.1,0.3-0.1c0,0.1-0.1,0.1-0.1,0.2c0.2-0.2,0.3-0.3,0.6-0.3c0,0,0,0.1-0.1,0.1
		c0.5-0.1,0.9-0.4,1.5-0.3c-0.2,0.3,0.2,0.1,0.2,0.3c0.1,0,0.2-0.1,0.3-0.1l-0.1-0.1c0.3,0,0.5-0.1,0.8-0.1l-0.2,0.1h0.5l-0.3-0.1
		c0.3-0.1,0-0.3,0.4-0.2c-0.1,0,0.3,0,0.4,0.2l0,0c0.1-0.1,0.3-0.1,0.5,0c0,0.1-0.1,0.3-0.1,0.3c0.2-0.2,0.6,0,0.9-0.1
		c-0.1,0-0.1,0.2-0.1,0.2L18,1.6c0.1,0.1,0.1,0.1,0.1,0.2c0.4,0.1,0-0.3,0.4-0.1c0,0,0,0-0.1,0C18.6,1.9,18.8,1.9,19,2
		c0.2,0,0.4,0.1,0.6,0.2c0,0.3-0.4-0.1-0.3,0.2c0.3,0.1,0.6,0.1,0.9,0.2c0.3,0.1,0.6,0.2,0.9,0.3L21,2.7C21.2,2.4,21.3,3,21.7,3
		c-0.1,0-0.2,0.1-0.1,0.1c0.3,0.3,0.7,0.3,1.3,0.6h-0.1c0.1,0.2,0.5,0.4,0.7,0.6c0.1,0,0.2,0.1,0.2-0.1c0,0.1,0.1,0.2,0.1,0.3
		c0.1,0.1,0.1,0.2,0.2,0.2c0.1,0.1,0.3,0.2,0.5,0.3c0.2,0.1,0.3,0.2,0.5,0.3c0.1,0.1,0.2,0.3,0.3,0.5c-0.1-0.1-0.2-0.1-0.1,0
		l0.5,0.4c0.1-0.1,0-0.1,0-0.3c0.1,0,0.3,0.1,0.4,0.2c-0.3-0.1-0.2,0.2-0.2,0.3c0,0,0.1,0,0.1-0.1c0,0.4,0.3-0.2,0.4,0.3h-0.1
		c0.1,0.1,0.3,0.2,0.4,0.3c-0.1,0.2-0.2-0.1-0.3,0c0.2,0.2,0.6,0.2,0.5,0.5c-0.1-0.1-0.2-0.2-0.3-0.2c0,0.3,0,0.3,0.1,0.5l0,0
		l0.1,0.4V8c0.3,0,0.4,0.1,0.5,0.3c0,0.1,0.1,0.1,0.1,0.2c0.1,0.1,0.1,0.1,0.2,0.2c-0.4-0.2-0.2,0-0.4,0.1c0,0.1,0,0.3-0.1,0.3
		c0.2,0.1,0,0.3,0.4,0.5c-0.1,0,0.1,0.2-0.1,0.2c0.2,0.2,0.1-0.1,0.2-0.1c0.2,0.1,0.2,0.4,0.2,0.6c0,0.3,0.1,0.5,0.3,0.7
		c0.3,0.4,0.5,0.5,0.7,0.9c-0.1,0.2-0.3-0.1-0.3-0.1c0,0.3,0,0.4,0.1,0.6c-0.1,0-0.1,0-0.2,0.1c0,0.2,0.3,0.1,0.2,0.3
		c-0.1,0-0.2-0.1-0.3-0.1c0.1,0.2,0.2,0.4,0.3,0.6c-0.1,0.1-0.2-0.1-0.3-0.2c0.1,0.2,0.2,0.6,0.4,0.7l0.1-0.2c0,0.1-0.1,0.1-0.2,0
		c-0.2-0.2,0-0.3,0.1-0.3l0.1,0.2c0.4-0.2-0.2-0.6-0.2-1l0.3,0.1l-0.3-0.3c0.1-0.1,0.2-0.2,0.3,0c0.1-0.3-0.1-0.2,0-0.4l0,0
		l-0.1-0.2c0.1,0,0.2-0.1,0.2,0.1c0-0.5-0.4-0.6-0.2-0.8l0,0c-0.3-0.5-0.2,0-0.6-0.3c0.1-0.1,0.2-0.3,0.4-0.4h-0.2
		c0-0.1,0-0.2,0-0.2c-0.2-0.2-0.1,0.1-0.2,0c0-0.2,0-0.3-0.1-0.5s-0.1-0.3,0-0.4c-0.2,0,0,0.3-0.2,0.1C28.2,9,27.7,9,27.7,8.7
		c0.2,0,0.2,0.3,0.2-0.1c-0.2,0-0.2-0.1-0.2-0.3c0-0.1,0-0.3-0.1-0.4C27.4,8,27.3,7.5,27,7.3c0.1,0-0.3-0.7-0.4-1l0,0
		c-0.2,0.1-0.4-0.2-0.6-0.4c0.1-0.1,0.2-0.1,0.3,0c-0.1-0.1-0.1-0.1-0.2-0.2c-0.1,0-0.2,0-0.3-0.1L26,5.5c-0.2-0.2-0.6-0.4-0.8-0.7
		c-0.1,0.1-0.1,0.6-0.5,0.3C24.8,5,24.9,4.9,25,5c0,0-0.2,0-0.2-0.1H25c-0.1-0.2-0.2,0-0.3-0.1c0.1-0.1,0-0.1,0.1-0.2l0.1,0.1
		c-0.1-0.1-0.2-0.3-0.2-0.5c0,0.1-0.1,0.1-0.2,0.1c-0.3-0.2,0-0.2-0.1-0.4c-0.1,0-0.2-0.2-0.4,0c-0.1-0.1,0-0.1,0-0.2
		c-0.2,0-0.7-0.5-0.6-0.2l0,0l0,0l0,0l0,0c-0.1,0-0.3-0.1-0.4-0.2c-0.1-0.1-0.2-0.2-0.3-0.3c-0.2-0.2-0.4-0.4-0.7-0.5V2.4
		c-0.3-0.1-0.7-0.3-0.9-0.3C21,2.2,21,2.1,21,2c-0.3-0.1-0.3,0-0.6-0.2c0.3,0,0-0.1,0.3,0c-0.3-0.2-0.3-0.3-0.7-0.2
		c0.2-0.1-0.2-0.3-0.3-0.3l0.2,0.2c-0.2,0-0.3-0.1-0.5-0.2l0.1-0.2c-0.3-0.2-0.6-0.2-0.9-0.2s-0.6,0-0.8-0.2C17.6,0.8,18.2,0.8,18,1
		c-0.3-0.1-0.6-0.4-0.7-0.5c-0.4-0.2-0.4,0.2-0.9,0.1c0.1,0.1,0.1,0.3-0.3,0.4c-0.3,0-0.4-0.3-0.2-0.4c0.1,0,0.1,0,0.1,0.1
		c0.1,0,0.2-0.1,0.1-0.1v0.1c-0.1-0.1-0.6-0.1-0.5-0.2c-0.2,0.1-0.1,0.1,0.1,0.2c-0.4-0.1-0.6-0.1-1-0.1c0.1,0,0.1,0.1,0.1,0.1
		c-0.6-0.1-0.3,0.2-0.7,0.2c-0.2-0.1,0.1-0.3-0.3-0.2c-0.3-0.1-0.1-0.2,0-0.3c-0.1,0-0.2,0.1-0.3,0.1s-0.2,0-0.3,0
		c-0.2,0-0.3-0.1-0.4-0.1L13,0.3c-0.1,0.1-0.2,0.1-0.3,0.1l0.1,0.1c-0.1,0-0.2,0-0.2-0.1c-0.1,0.1,0.1,0.2-0.1,0.4
		c-0.2-0.1-0.5,0.1-0.5,0c0.5,0-0.1-0.2,0.3-0.3c-0.1,0-0.2,0.1-0.3,0c0,0,0,0,0-0.1c-0.5-0.1-0.2,0.3-0.6,0.4
		c0-0.1-0.2-0.2-0.2-0.1c0.2,0,0.1,0.2,0,0.3c-0.3,0-0.3,0.2-0.5,0.2h0.2c0,0.1-0.2,0.1-0.4,0.3c0-0.1,0.2-0.1,0.1-0.1
		c-0.2,0.3-0.6,0-0.9,0.2c-0.2,0-0.1-0.2-0.2-0.2c-0.3,0.3-0.4,0-0.8,0.3c0.2,0.1,0.2,0.1,0,0.3l0.5-0.4L9,1.9
		c0.2-0.1,0.3-0.3,0.5-0.3c-0.1,0.2-0.1,0.2,0,0.2C9.1,1.8,9,2.2,8.7,2.2L8.5,1.9C8.3,1.9,8.1,2,7.9,2.2C7.8,2.4,7.6,2.5,7.3,2.7
		h0.2c0,0.2-0.3,0.2-0.4,0.4C7,2.9,6.9,2.9,6.8,2.9C6.9,3,6.4,3.2,6.5,3.4H6.2C5.8,3.6,6,4,5.6,4.3c0-0.2-0.2-0.1,0-0.4
		C5.5,4,5.3,4.1,5.4,4.1C5.3,4.1,5.2,4.6,5,4.6c0,0.1,0.1,0.2-0.1,0.3l0,0c0,0-0.1,0.3,0.1,0.2c-0.3,0-0.5,0.3-0.7,0.5
		C4.1,5.7,4,5.9,3.9,6C3.8,6.1,3.7,6.2,3.6,6.2C3.4,6.5,3.2,6.8,3,7.1c0,0-0.1,0,0-0.1C2.7,7.3,3.2,7.4,2.8,7.8
		c-0.3,0.1,0-0.3-0.1-0.2C2.3,7.4,2.4,8.1,2.1,8.3V8.2C1.9,8.4,2,8.8,1.8,9.2c0,0,0,0-0.1,0c0.1,0.3,0,0.9-0.1,1.2
		c-0.1-0.2,0-0.2-0.2-0.2c0,0.2,0.3,0,0.2,0.4c-0.1,0.1-0.3,0.3-0.5,0.3c0-0.1,0.1-0.2,0.1-0.3c-0.1,0-0.2,0.1-0.2,0.3
		c0,0.1,0,0.2,0,0.3l-0.1-0.1c-0.1,0.5,0.2,0.6,0,1.1H1c0.2,0.3-0.2,0.2,0,0.5H0.7c0,0.2,0.1,0.7,0.2,1.1c-0.2-0.2-0.2-0.6-0.3-0.9
		c0,0.2-0.1,0.7,0,0.8c0-0.1-0.1-0.2,0-0.3c0.2,0.3,0.3,0.6,0.2,1c-0.3,0-0.3,0.2-0.3,0.5s0,0.6-0.2,0.8c0.1,0.3,0.1,0.7,0.1,1.1
		s0,0.7,0.1,1.1c0.3-0.4,0,0.2,0.4,0.1C1,18.2,1,18.2,1,18.3l-0.1,0.6c-0.1,0.2-0.1-0.2-0.2-0.1c0.1,0.4-0.1,0.2-0.2,0.5
		c0.1-0.1,0.2,0.1,0.2,0.3l0.1-0.4c0.2,0.3,0.1,0.4,0.1,0.5S0.8,20,1,20.2l-0.2-0.1c0.1,0.1,0.2,0.4,0.3,0.6
		c0.1,0.3,0.3,0.5,0.5,0.5c0,0.1-0.1,0.2-0.2,0.1c0.1,0.3,0.4,0.7,0.6,1c0.3,0.3,0.5,0.6,0.5,0.9H2.4c0.1,0.1,0.3,0.1,0.3,0.3
		c0,0-0.1,0-0.1,0.1C2.7,23.6,3,23.8,3,24l0-0.1c0.2,0.3,0.4,0.5,0.6,0.6c0.2,0.1,0.5,0.2,0.7,0.4c-0.2,0.2,0.1,0.7,0.3,0.9l0,0
		c0.3,0.3,0.6,0.5,0.9,0.7s0.6,0.3,1,0.5c0,0.1,0.1,0.3,0.3,0.4c0.1,0.1,0.3,0.2,0.5,0.4c0.3,0.2,0.7,0.5,1,0.7
		c-0.1-0.1,0.1-0.2,0.3-0.2c0.1,0.1,0.5,0,0.4,0.3H8.9c0,0.3,0.4,0.4,0.6,0.5l0.2-0.3c0.3,0.4,0.7,0.5,1.2,0.6
		c0.4,0.1,0.8,0.1,1,0.4c0.2,0,0.4,0,0.6-0.1v0.2c0.2,0.1,0.4,0.1,0.6,0.1c0.2,0,0.4,0.1,0.7,0.1l-0.1,0.1c0.4,0,0.5-0.5,0.8-0.5
		l0.1,0.3c0.6,0.1,1.2,0.2,1.8,0c0,0,0,0.1-0.1,0.1c0.3,0,1.1,0.1,1-0.3c0,0.2,0.6-0.1,0.9-0.2v0.2c0.2-0.3,0.2-0.4,0.6-0.5
		c0.1,0,0.1,0.1,0,0.1c0.3,0,0.2-0.2,0.6-0.2l-0.1,0.1c0.3-0.1,0.3-0.1,0.4-0.3c0.2-0.1,0.6-0.2,0.7,0c0-0.1,0.1-0.3,0.3-0.3
		c0,0.1,0,0.1,0,0.1c0.1,0,0.2-0.1,0.3-0.1c0.1-0.1,0.2-0.1,0.2-0.2c0.1-0.1,0.3-0.2,0.5-0.2c0,0.1,0.1,0.1,0.1,0.1
		c-0.4,0.2-0.7,0.3-0.7,0.3c0.1,0.2,0.4,0,0.2,0.4c0.2-0.2,0.5-0.7,0.8-0.8c0,0,0,0,0.1,0l0,0c0.1,0,0.1-0.1,0.2-0.1s0.2,0,0.3-0.1
		c0.1,0.1,0.4-0.1,0.5-0.2c-0.1-0.2,0.1-0.2-0.2-0.3c0,0,0,0-0.1,0.1c0,0,0,0-0.1,0.1l0,0c-0.1,0.1-0.2,0.1-0.3,0.2
		c0.1-0.2,0.1-0.3,0.3-0.3c0-0.1,0-0.3,0-0.4c0.3,0.1,0.8,0,0.9,0.1c0.2-0.2,0.4-0.4,0.6-0.6c0.1-0.1,0.2-0.2,0.2-0.3
		c0.1-0.1,0.1-0.2,0.1-0.4c0.1-0.1,0.2,0,0.3,0c0,0.1-0.1,0.1-0.1,0.2c0.2-0.3,0.6-0.6,0.5-0.8c0.3-0.2,0,0.3,0.3-0.1v0.1
		c0.5-0.2,0.6-0.6,0.8-1c0.1-0.4,0.3-0.8,0.8-1.1c-0.1,0-0.1,0.1-0.1,0.1c0.2-0.2,0.4-0.5,0.6-0.7c0.2-0.3,0.3-0.5,0.4-0.8
		s0.2-0.6,0.4-0.9c0.2-0.3,0.3-0.6,0.5-0.8c0.2-0.3,0.1-0.4,0-0.6h0.2c0-0.1-0.1-0.3-0.1-0.4c0-0.3,0.2-0.4,0.3-0.6
		c0.1-0.1,0.2-0.2,0.2-0.3c0-0.1,0-0.3,0-0.5L29.5,18c0.1-0.2,0-0.7,0.2-0.7c0,0-0.1-0.1,0-0.2h0.1c0-0.2-0.1-0.4-0.1-0.6
		c0.1-0.4,0.4,0.1,0.5-0.5c0-0.2-0.3-0.7-0.3-0.6c0,0.1-0.1,0.2-0.2,0.2v-0.2c-0.3,0-0.6-0.2-0.9,0.3l0.2,0.4l-0.2,0.1v-0.3
		c-0.1,0.2,0,0.3,0,0.4c-0.1,0-0.1,0.1-0.2,0.1l0.3,0.4c-0.1,0-0.2-0.2-0.3,0c0.1,0.2,0.3-0.1,0.3,0.1c-0.2,0.1-0.3,0.1-0.2,0.3
		c-0.1,0-0.1,0-0.2-0.1c0.1,0.2,0,0.5,0.1,0.6c-0.1,0.1-0.1,0.2-0.1,0.3c0,0.1-0.1,0.2-0.2,0.2c0.1,0.1,0.1,0.3,0.1,0.5
		c-0.3-0.4-0.2,0.6-0.5,0.4c0.3,0.3-0.1,0.8-0.1,1.2v-0.1c-0.1,0.2-0.2,0.2-0.3,0.3c0.2,0.1,0.1,0.4,0.2,0.7
		c-0.3,0.1-0.2-0.3-0.5-0.3c0.2,0.1,0,0.5,0.2,0.5c-0.2,0.1-0.1,0.1-0.4,0.1c0.3,0.2,0,0.2,0.1,0.4c-0.3,0.2-0.3-0.1-0.4,0.2
		C26.3,22,26.3,21.7,26.3,21.7z M21.3,27.2L21.3,27.2c0.1,0,0.1-0.1,0.1-0.1S21.4,27.2,21.3,27.2z M20.7,27.5c0.1,0,0.2-0.1,0.3-0.1
		c0,0,0.1,0.1,0,0.1C21,27.5,20.8,27.5,20.7,27.5z M22.6,28c-0.1,0.1-0.1,0.1-0.2,0C22.5,28,22.5,27.9,22.6,28c0-0.1,0-0.1,0-0.1
		S22.6,27.9,22.6,28z"/>
	<path class="st0" d="M22.6,27.7C22.6,27.6,22.6,27.6,22.6,27.7C22.6,27.6,22.6,27.6,22.6,27.7C22.6,27.6,22.6,27.7,22.6,27.7
		L22.6,27.7z"/>
	<path class="st0" d="M23.5,3.5L23.5,3.5L23.5,3.5L23.5,3.5z"/>
	<path class="st0" d="M12.1,28v0.1V28z"/>
	<path class="st0" d="M25.7,6.5L25.7,6.5L25.7,6.5z"/>
	<path class="st0" d="M26.6,7.8V8C26.6,7.9,26.6,7.8,26.6,7.8z"/>
	<path class="st0" d="M27.1,8.8L27.1,8.8L27.1,8.8L27.1,8.8z"/>
	<path class="st0" d="M11.2,2.4C11.2,2.4,11.1,2.4,11.2,2.4C11,2.4,11.1,2.4,11.2,2.4z"/>
	<path class="st0" d="M16.7,1.4c-0.1,0-0.1,0-0.2,0.1C16.6,1.5,16.6,1.5,16.7,1.4z"/>
	<polygon class="st0" points="6.1,5.6 6.1,5.6 6,5.6 	"/>
	<path class="st0" d="M16.2,1.5c0.1,0,0.2,0,0.3,0C16.4,1.5,16.3,1.5,16.2,1.5z"/>
	<path class="st0" d="M28.5,13.7L28.5,13.7C28.5,13.8,28.5,13.8,28.5,13.7L28.5,13.7z"/>
	<path class="st0" d="M28.5,13.8L28.5,13.8L28.5,13.8z"/>
	<path class="st0" d="M28.6,14l-0.1-0.1C28.5,13.9,28.5,13.9,28.6,14z"/>
	<path class="st0" d="M28.3,12.2L28.3,12.2L28.3,12.2z"/>
	<path class="st0" d="M28.2,11.7c0,0.1-0.1,0.3,0,0.5h0.1C28.1,12.1,28.3,11.8,28.2,11.7z"/>
	<path class="st0" d="M28.3,9.5c0,0.1,0.1,0.3,0.1,0.4c0-0.1,0.1-0.2,0.2,0C28.6,9.3,28.5,10,28.3,9.5z"/>
	<path class="st0" d="M27.8,8.3C28,8.5,27.9,8.2,28,8.2C27.8,8.1,27.8,8.1,27.8,8.3z"/>
	<path class="st0" d="M21,1.9l0.1-0.1C20.9,1.7,21,1.8,21,1.9z"/>
	<path class="st0" d="M19,2.1l0.1,0.1l0.1-0.1C19.2,2.1,19.1,2.1,19,2.1z"/>
	<polygon class="st0" points="18.3,0.7 18.4,0.7 18.1,0.6 	"/>
	<path class="st0" d="M3.6,5.8l0.2,0.1C3.9,5.7,3.7,5.6,3.6,5.8z"/>
	<path class="st0" d="M0.8,12.1c-0.1,0-0.2,0.2-0.1,0.4C0.7,12.3,0.8,12.2,0.8,12.1z"/>
	<polygon class="st0" points="9.9,29.1 9.7,29.1 10,29.2 	"/>
</g>
<g>
	<path class="st0" d="M8.9,15.3v-0.2C8.9,15.1,8.8,15.3,8.9,15.3z"/>
	<path class="st0" d="M10.8,17.4c0,0,0,0,0.1-0.1C10.8,17.3,10.8,17.4,10.8,17.4z"/>
	<path class="st0" d="M15.5,20.4C15.5,20.4,15.5,20.4,15.5,20.4c0,0,0-0.1,0-0.1C15.5,20.4,15.5,20.4,15.5,20.4z"/>
	<path class="st0" d="M15.4,20.4l0.1-0.1C15.5,20.3,15.4,20.3,15.4,20.4z"/>
	<path class="st0" d="M12.7,11.5C12.7,11.6,12.8,11.6,12.7,11.5L12.7,11.5z"/>
	<path class="st0" d="M18.8,15.6C18.8,15.5,18.8,15.5,18.8,15.6C18.8,15.5,18.8,15.5,18.8,15.6z"/>
	<path class="st0" d="M18.5,22.1c0-0.1,0-0.2,0-0.2C18.5,21.9,18.5,22,18.5,22.1z"/>
	<path class="st0" d="M18,21.9C18,21.8,18.1,21.9,18,21.9C18,21.9,18,21.9,18,21.9z"/>
	<path class="st0" d="M12.1,18.3c0,0,0,0.1,0,0.1C12.1,18.4,12.1,18.3,12.1,18.3z"/>
	<path class="st0" d="M14.7,10.1C14.7,10.1,14.7,10.1,14.7,10.1C14.7,10.1,14.7,10.1,14.7,10.1z"/>
	<path class="st0" d="M14.2,10.9C14.2,10.9,14.2,10.9,14.2,10.9C14.2,10.9,14.2,10.9,14.2,10.9z"/>
	<path class="st0" d="M19.2,13.3L19,13.4c-0.2-0.2,0.3-0.2,0.1-0.4l0.1,0.1c-0.1-0.1,0-0.4-0.3-0.5h0.2c0-0.3-0.3-0.6-0.1-0.8h0.1
		c0,0-0.2-0.1-0.1-0.1h0.1c0,0-0.2-0.1-0.1-0.2l0.1,0.1c0.1-0.1,0-0.2-0.1-0.4c-0.1-0.1-0.2-0.3-0.2-0.4c0.3-0.1,0.4-0.5,0.4-0.7
		c0-0.3,0-0.5-0.1-0.6c-0.1-0.1-0.2-0.2-0.2-0.4c0.2-0.5,0.2-1,0.2-1.5c-0.1,0-0.2,0.1-0.2,0.1c0,0.1-0.2,0.4-0.3,0.5
		c0,0-0.4,0.5-0.2,0c0.1-0.4-0.1-0.1-0.3,0l-0.2,0.6c-0.1-0.3-0.4,0-0.6,0.2s-0.4,0.4-0.5,0.2c-0.1,0.2-0.2,0.2-0.2,0.4L16,9.1
		c-0.1,0.1-0.2,0.1-0.4,0.2c-0.1,0-0.1,0.1-0.2,0.1l-0.1,0.1V9.4c-0.1,0.1,0.2,0.5,0.1,0.6l-0.2-0.2c-0.2,0.1-0.5,0.1-0.5,0.4
		c0,0,0,0,0-0.1c-0.1,0.1-0.3,0.1-0.2,0.4c-0.2-0.2-0.2,0.1-0.2,0.3l-0.1-0.2c0.1,0.3,0.1,0.3,0,0.4c0,0,0,0,0-0.1
		c0,0.1,0,0.2-0.1,0.2V11c-0.1,0.1-0.1,0.1,0,0.3c0,0.1-0.2,0.1-0.3,0c0,0.1,0.1,0.2,0,0.2v-0.1c-0.2,0-0.1,0.3-0.3,0.3l-0.1-0.1
		c0.1-0.1,0.2-0.1,0.2-0.1c-0.1-0.1-0.2-0.1-0.3-0.3c0,0.2,0,0.5-0.1,0.5c0,0,0,0,0,0.1h-0.1c-0.1-0.1-0.2,0-0.2,0.1
		c0.1,0.1,0,0.2,0.2,0.3c0,0,0,0,0-0.1l0.1-0.1c0,0.1,0,0.2-0.1,0.2c0,0.1,0,0.1,0.1,0.2l-0.1,0c-0.2-0.1-0.3-0.1-0.4-0.2
		c-0.1,0.2-0.3,0.3-0.2,0.7l-0.1,0.1c0,0-0.1-0.1-0.1-0.1v-0.1c0,0.1-0.2,0.2-0.1,0.4l0,0c-0.2,0-0.1-0.2-0.2-0.1v-0.1
		c-0.4-0.1-0.3,0.4-0.4,0.6l-0.1,0.1c0,0-0.1,0-0.1,0c-0.5,0.1-0.6,0.7-1.2,0.7c-0.1,0-0.1,0.2-0.1,0.3L10,14.5v0.2l-0.1,0.1
		c-0.2,0-0.5-0.2-0.5,0.1l0.1,0.1c0,0-0.1,0-0.1,0.1c0,0,0,0,0,0l0,0c0,0,0,0-0.1,0c0,0,0,0,0,0c0,0,0,0,0.1,0c0,0,0,0-0.1,0
		c0,0,0,0,0,0c0,0,0,0-0.1,0c0,0,0,0,0,0.1c0,0,0,0,0,0l-0.1-0.1L9,15.5c0,0,0,0,0,0c0,0,0,0,0,0c0,0,0-0.1,0-0.2c0,0,0-0.1-0.1,0
		c0,0.1,0,0.1,0,0.2c-0.1-0.1-0.2-0.3-0.3-0.2c0,0,0,0.1,0,0.1v0.1c0,0.1,0,0.2,0,0.2s0.1,0,0.2,0.1v0.1c0-0.2,0.1,0.1,0.4,0.1v-0.2
		l0.1,0.1V16c0.1,0.1,0.1-0.1,0.1-0.1c0,0,0,0,0,0l0,0.1l0.1,0c0,0,0,0,0,0l0,0l0.1-0.1c0,0.1-0.1,0.2-0.2,0.2c0,0.2,0.1,0,0.1,0.1
		h0.1c0,0,0,0.1-0.1,0.1c0.1,0.1,0.3,0,0.3,0.2c0.2,0,0.1-0.2,0.4-0.3l0,0L10,16.7l0.1-0.2v0.1c0.1-0.1,0-0.1,0.1-0.2
		c0,0.2,0.3,0.1,0.2,0.4c0,0,0,0,0-0.1c0,0,0.2-0.1,0.2,0.1c-0.1,0.1-0.2,0-0.1,0.2c0.2-0.2,0.1,0.2,0.2,0.2c0.1-0.2,0.2,0,0.4,0
		c0,0.1,0.2,0.3,0.2,0.4c0.1-0.2,0.2-0.1,0.4-0.1c-0.1,0.1-0.1,0.2-0.2,0.2h0.1c0.1-0.1,0.1-0.1,0.2-0.1L11.7,18
		c0.1,0.1,0.3-0.1,0.4,0.1c0.1-0.1,0.1-0.2,0.1-0.3h0.1l-0.1,0.1c0,0.1,0.1-0.1,0.1,0c-0.1,0.1,0,0.1-0.1,0.2c0,0,0-0.1-0.1,0
		c0,0.1,0,0.1,0,0.2c0,0,0.1,0,0.1,0c0.1,0.1,0,0.2,0,0.3c0.1-0.1,0.1,0.1,0.2-0.1c0,0,0,0.1,0,0.2c0.1,0,0.3,0.1,0.3-0.1
		c0.3-0.1,0.3,0.3,0.5,0.4v0.1c0.1,0,0.3,0.1,0.4,0c0,0,0,0.1,0,0.2c0.1,0,0.2-0.1,0.2,0.1c-0.1,0,0,0.1-0.1,0
		c0.1,0.1,0,0.2,0.3,0.1c-0.1,0.1,0,0.2,0,0.2v-0.1c0.1,0,0.1,0.1,0.2,0.1l-0.1,0.2c0.1,0.4,0.6-0.2,0.6,0.3
		c0.1-0.1-0.1-0.2,0.1-0.3c0.1,0.1,0,0.4,0.1,0.4c0.1,0.2,0.3-0.2,0.4,0c0-0.1,0.1-0.3,0.3-0.3c0.1,0.1,0,0.4-0.1,0.4
		c0,0.1,0.1,0.1,0,0.2c0.1,0,0.1-0.1,0.1-0.2c0.1,0.2,0.2,0.1,0.3,0.3c0,0,0-0.1,0.1-0.1l0.1,0.1h0.1c0,0,0.1-0.1,0.2-0.1
		c0.1,0.2-0.2,0.2,0.1,0.3c0.1,0.2,0,0.2-0.1,0.3c0.1,0,0.2,0.1,0.3,0.2c0.1,0.1,0.1,0.2,0.2,0.3h-0.1c0.1,0,0.1,0,0.2,0.1l-0.1-0.2
		c0.1,0.1,0.1,0.1,0.1,0.2c0.1-0.1,0-0.3,0.1-0.4c0.1,0.1,0.2,0,0.3,0.3c-0.3-0.2,0.1,0.3-0.2,0.2c0,0,0.1,0,0.2,0.1c0,0,0,0,0,0.1
		c0.3,0.4,0.1-0.2,0.3-0.1c0,0.1,0.1,0.4,0.2,0.3c-0.1-0.1-0.1-0.3-0.1-0.4c0.2,0.2,0.1,0,0.2,0.1l-0.1-0.1c0-0.2,0-0.1,0.1-0.1
		c0,0,0,0.1,0,0.1c0,0,0.1,0.1,0.2,0.1c0.1,0.1,0.3,0.3,0.3,0.2c0.1,0.2,0.2,0.4,0.3,0.5c0-0.2,0.2,0.1,0.1-0.3
		c-0.2-0.2-0.1-0.1-0.3-0.5l0.1,0.6c0-0.1-0.1-0.2-0.1-0.3c0,0,0,0.1,0,0.1c0,0,0-0.1,0-0.1c0,0,0,0,0,0c-0.1-0.2-0.1-0.1-0.2-0.3
		c0.1,0.1,0.1,0,0-0.1c0-0.1-0.1-0.3,0-0.2l0.4,0.6c0.1,0,0-0.2,0-0.4c-0.1-0.2-0.1-0.4-0.1-0.5c0,0,0,0-0.1,0
		c-0.2-0.2,0-0.2-0.1-0.4c0.1,0.1,0.2,0.1,0.3,0.1c-0.1-0.1,0-0.3-0.3-0.5c0.1,0,0.1,0,0.2-0.1c0.1-0.3-0.4-0.5-0.3-0.7
		c0.1,0.1,0.2,0,0.3,0.2c0-0.1,0-0.2-0.1-0.2c0,0,0-0.1,0-0.2c0-0.1-0.1-0.1,0-0.1c-0.1,0-0.2,0-0.2-0.1h0.1c-0.1,0-0.1-0.1-0.1,0
		c0.3-0.2,0-0.5,0.2-0.7c0-0.1-0.1-0.3-0.1-0.4h0.1c0.1-0.2-0.4-0.1-0.2-0.3c0.2-0.1,0.1,0.1,0.2,0c0.4,0-0.1-0.2,0.2-0.3
		c0.1-0.1-0.2-0.2-0.1-0.4c0,0,0,0,0.1,0c-0.2-0.1-0.3-0.3-0.4-0.4c0.2,0,0.1,0.1,0.3,0c0-0.1-0.3,0-0.3-0.1c0.1,0,0.2-0.1,0.4-0.1
		v0.1c0.2-0.1,0-0.2,0-0.2h0.1c0-0.2-0.3-0.2-0.3-0.4h-0.1c-0.3-0.1,0.1-0.1,0-0.2h0.3c-0.1-0.1-0.3-0.3-0.3-0.4
		c0.2,0.1,0.3,0.2,0.4,0.3c0-0.1,0-0.2-0.1-0.2c0,0,0,0,0,0c-0.2-0.1-0.3-0.2-0.3-0.4c0.5,0,0.1-0.4,0.5-0.5
		c-0.2-0.3,0.1-0.5,0.1-0.8c-0.4,0.1,0-0.1-0.4-0.1c0-0.1,0-0.1,0-0.1l0.2-0.2c0.1,0,0.1,0.1,0.2,0.1c0-0.2,0.2-0.1,0.3-0.2
		C19.3,13.4,19.2,13.3,19.2,13.3z M11.9,13.3C11.9,13.3,11.9,13.3,11.9,13.3L11.9,13.3C11.8,13.4,11.8,13.2,11.9,13.3z M9.4,15.8
		L9.4,15.8L9.4,15.8L9.4,15.8z M9.6,16C9.6,16,9.6,15.9,9.6,16l0.1,0C9.7,16,9.6,16,9.6,16z M10.4,16.7c0-0.1,0-0.1,0.1-0.1
		C10.5,16.7,10.5,16.7,10.4,16.7z M11.5,17.1C11.5,17.1,11.5,17.1,11.5,17.1L11.5,17.1C11.5,17.1,11.5,17.2,11.5,17.1z M11.7,17.2
		L11.7,17.2C11.7,17.3,11.7,17.3,11.7,17.2z M12,17.4L12,17.4C11.9,17.4,11.9,17.4,12,17.4C11.9,17.4,11.9,17.4,12,17.4z M12.2,17.8
		c0-0.1,0.1-0.1,0.1-0.2l0,0C12.4,17.7,12.3,17.8,12.2,17.8z M15.4,19.5L15.4,19.5C15.4,19.6,15.4,19.6,15.4,19.5z"/>
	<path class="st0" d="M18.6,22.2c0,0,0-0.1,0-0.1C18.6,22.2,18.6,22.2,18.6,22.2C18.6,22.2,18.6,22.2,18.6,22.2
		C18.6,22.2,18.6,22.2,18.6,22.2z"/>
	<path class="st0" d="M11.3,13.6C11.3,13.6,11.4,13.6,11.3,13.6c0.1,0,0.1,0,0.1,0H11.3z"/>
	<path class="st0" d="M9.5,16.3C9.5,16.3,9.5,16.3,9.5,16.3C9.5,16.3,9.5,16.3,9.5,16.3z"/>
	<path class="st0" d="M10.2,17C10.2,17,10.2,17,10.2,17C10.2,17.1,10.2,17,10.2,17z"/>
	<path class="st0" d="M10.3,16.8c0,0,0,0.1,0,0.1c0,0,0.1,0,0.1,0L10.3,16.8z"/>
	<path class="st0" d="M10.2,17C10.3,17,10.3,16.9,10.2,17C10.3,16.9,10.2,16.9,10.2,17z"/>
	<path class="st0" d="M10.6,17.3c0.1,0,0.1,0,0.1-0.1C10.6,17.2,10.6,17.3,10.6,17.3z"/>
</g>
</svg>
