<?xml version="1.0" encoding="utf-8"?>
<!-- Generator: Adobe Illustrator 21.0.0, SVG Export Plug-In . SVG Version: 6.00 Build 0)  -->
<svg version="1.1" id="Layer_1" xmlns="http://www.w3.org/2000/svg" xmlns:xlink="http://www.w3.org/1999/xlink" x="0px" y="0px"
	 viewBox="0 0 30 30.2" style="enable-background:new 0 0 30 30.2;" xml:space="preserve">
<style type="text/css">
	.st0{fill:#FFFFFF;}
</style>
<g>
	<path class="st0" d="M28.7,15.1c0.1,0,0.2,0,0.2-0.1l-0.2-0.1L28.7,15.1z"/>
	<path class="st0" d="M29.1,14.3c-0.1-0.1-0.3-0.3-0.5-0.2c0.2,0.1,0.1,0.2,0.4,0.3c0,0.1-0.1,0.2-0.1,0.2c0.1,0,0,0.2,0.1,0.3
		c0.2-0.2,0.2-0.4,0-0.6C29,14.2,29,14.3,29.1,14.3z"/>
	<path class="st0" d="M23.4,3.4L23.4,3.4C23.4,3.5,23.4,3.4,23.4,3.4z"/>
	<path class="st0" d="M16,0.7C16.1,0.7,16.1,0.7,16,0.7C16.1,0.6,16,0.7,16,0.7z"/>
	<path class="st0" d="M14.7,0.4C14.7,0.4,14.7,0.4,14.7,0.4C14.7,0.4,14.7,0.4,14.7,0.4z"/>
	<path class="st0" d="M23.4,3.4l-0.1-0.2C23.2,3.3,23.3,3.3,23.4,3.4z"/>
	<path class="st0" d="M28.3,12.7C28.4,12.7,28.4,12.7,28.3,12.7C28.4,12.7,28.4,12.7,28.3,12.7C28.4,12.7,28.4,12.7,28.3,12.7z"/>
	<path class="st0" d="M26.1,5.7L26.1,5.7c0.1,0,0.1,0,0.1,0L26.1,5.7z"/>
	<path class="st0" d="M27.7,7.9c0-0.1-0.2,0-0.3,0c0.1,0,0.1,0,0.2,0C27.6,7.9,27.7,7.9,27.7,7.9z"/>
	<path class="st0" d="M29,11.9L29,11.9C29,12,29,12,29,11.9z"/>
	<path class="st0" d="M24.8,4.2C24.8,4.2,24.8,4.2,24.8,4.2C24.8,4.2,24.8,4.2,24.8,4.2z"/>
	<path class="st0" d="M28,18C28,18,28,18,28,18C28,18,28,18,28,18z"/>
	<path class="st0" d="M29.2,15.1L29.2,15.1c0,0,0.1,0.1,0.1,0.1L29.2,15.1z"/>
	<path class="st0" d="M12.1,0.4C12.1,0.4,12.1,0.4,12.1,0.4C12.2,0.4,12.1,0.4,12.1,0.4z"/>
	<path class="st0" d="M0.5,18.3c0.1-0.3,0.3,0.4,0.4-0.1C0.9,18.3,0.6,17.9,0.5,18.3z"/>
	<path class="st0" d="M28.4,12.6c0,0,0-0.1,0-0.1C28.3,12.5,28.3,12.6,28.4,12.6z"/>
	<path class="st0" d="M0.9,18.2L0.9,18.2L0.9,18.2C0.9,18.2,0.9,18.2,0.9,18.2z"/>
	<path class="st0" d="M6.7,2.8C6.7,2.9,6.7,2.9,6.7,2.8C6.8,2.9,6.7,2.8,6.7,2.8z"/>
	<path class="st0" d="M10.7,1.2l-0.1,0C10.7,1.2,10.7,1.2,10.7,1.2z"/>
	<path class="st0" d="M5.1,4.5C5,4.5,5,4.5,5,4.6C5,4.6,5,4.6,5.1,4.5C5,4.5,5,4.5,5.1,4.5z"/>
	<path class="st0" d="M3.5,6.2C3.5,6.2,3.6,6.2,3.5,6.2C3.6,6.2,3.6,6.1,3.5,6.2L3.5,6.2z"/>
	<path class="st0" d="M25.2,23.7c0.1,0,0.1,0,0.2,0C25.3,23.7,25.4,23.4,25.2,23.7z"/>
	<path class="st0" d="M28.4,12.6C28.4,12.6,28.4,12.6,28.4,12.6C28.4,12.6,28.4,12.6,28.4,12.6C28.4,12.7,28.4,12.7,28.4,12.6z"/>
	<path class="st0" d="M6,5.6L5.8,5.8C5.8,5.8,5.9,5.7,6,5.6z"/>
	<path class="st0" d="M11.4,27.9L11.4,27.9C11.4,27.9,11.4,27.9,11.4,27.9z"/>
	<path class="st0" d="M5.1,6.6C5,6.6,5,6.6,4.9,6.6c0,0,0,0,0,0.1L5.1,6.6z"/>
	<path class="st0" d="M25.4,23.8L25.4,23.8L25.4,23.8z"/>
	<path class="st0" d="M26.3,21.7c-0.2,0.3,0.1,0.3,0.2,0.4c-0.1,0.4-0.2,0.1-0.4,0.1c0,0.1,0,0.2,0,0.4c0,0.1,0,0.2-0.1,0.3
		c0,0-0.1,0-0.1-0.1c0,0.3-0.4,0.6-0.4,1c0,0-0.1,0-0.1,0c0.1,0,0.2,0.1,0.3,0.2c-0.1,0.1-0.1,0.3-0.2,0.2c0.1-0.1,0-0.1,0-0.2
		l-0.1,0.2c-0.3,0,0.1-0.2,0-0.3c-0.1,0.3-0.2,0.7-0.4,0.8c-0.2-0.1,0.3-0.5,0-0.4l0.3-0.2c-0.4,0,0.2-0.1-0.3-0.2
		c-0.4,0.3-0.2,0.5-0.6,0.7c0,0.2,0.2,0.1,0.2,0.3c-0.3,0.6-0.8-0.1-0.9,0.5c0,0.2,0.1,0.4-0.2,0.5l-0.1-0.3c-0.4,0.2,0,0.4-0.5,0.6
		c0-0.1,0.2-0.3,0.2-0.3c-0.4,0-0.1,0.2-0.3,0.4l-0.2-0.2c-0.2,0.1-0.4,0.3-0.6,0.5c-0.2,0.2-0.4,0.4-0.6,0.5c0-0.1,0-0.2-0.1-0.2
		c-0.3,0.2-0.6,0.3-0.9,0.5c-0.3,0.1-0.7,0.1-1,0.2l-0.2,0.3c-0.1,0-0.1-0.1-0.1-0.1c-0.3,0,0,0.1-0.1,0.2c-0.1,0-0.2-0.1-0.1-0.1
		c-0.2,0.1-0.5,0.3-0.8,0.4c-0.1,0.1-0.3,0.1-0.5,0.1c-0.2,0-0.3,0-0.4,0l0.1-0.1c-0.4,0-0.4,0.5-0.7,0.3l0.1,0c-0.4,0-0.8,0-1.2,0
		c-0.1,0-0.2,0-0.3,0c-0.1,0-0.2,0-0.3,0c-0.2,0-0.3-0.1-0.5-0.2c-0.1,0.1-0.3,0.1-0.4,0.1c-0.2,0-0.4-0.1-0.4,0.1
		c-0.4-0.3-0.3-0.3-0.9-0.5c-0.2,0-0.3,0.2-0.5,0.2l0-0.2l-0.3,0.1l-0.1-0.3l-0.2,0c0.1,0,0.1,0.1,0.1,0.2c-0.2,0-0.3-0.1-0.5-0.2
		c-0.1-0.1-0.2-0.2-0.2-0.3l-0.7-0.1c0-0.1,0.2-0.1,0.3-0.1c-0.4,0.1,0-0.2-0.4-0.2c0,0.1-0.1,0.1-0.1,0.1c-0.1-0.2-0.5-0.4-0.8-0.4
		L9.3,27c-0.5-0.2-1-0.5-1.5-0.8c0.1,0.2,0,0.3-0.2,0.3l0.1-0.2c-0.2,0.1,0.1,0.2-0.2,0.2c-0.2-0.2,0-0.3,0.2-0.3L7.4,26
		c0-0.1,0.1-0.1,0.2-0.1c-0.2,0-0.2-0.5-0.5-0.4l0-0.1c-0.1-0.1-0.2-0.2-0.3-0.2c-0.1-0.1-0.2-0.1-0.3-0.2C6.3,25,6.2,24.8,6,24.7
		c-0.1,0.1-0.2,0-0.5,0c-0.2-0.3-0.4-0.7-0.7-1c-0.3-0.2-0.2,0-0.4,0c0.1-0.1-0.2-0.5,0.1-0.4c-0.2-0.2-0.3-0.3-0.4-0.5
		c-0.1-0.1-0.1-0.1-0.2-0.2c-0.1-0.1-0.2-0.2-0.3-0.3c0,0.1,0,0.2-0.1,0.2c-0.1-0.1-0.1-0.3,0-0.3l0,0c-0.3-0.3-0.4-0.7-0.5-1.1
		c0-0.2-0.1-0.4-0.1-0.6c0-0.1-0.1-0.2-0.1-0.2c0-0.1-0.1-0.1-0.2-0.2l0,0l-0.4-0.5c-0.1-0.3,0.2,0.1,0.2-0.1
		c-0.1-0.1-0.2-0.3-0.3-0.4c0-0.1-0.1-0.3-0.1-0.4c0-0.2-0.1-0.5-0.2-0.7c0.2-0.3,0.1-0.6,0-1c0-0.2-0.1-0.4-0.1-0.6
		c0-0.2,0-0.4,0.1-0.5l-0.1,0C1.8,15.9,2,15.8,2,15.7c-0.1,0-0.1,0.2-0.2,0.1c-0.1-0.6,0-1.3,0.1-1.9c0.1-0.3,0.2-0.6,0.3-0.9
		l0.1-0.5c0.1-0.1,0.1-0.3,0.2-0.4c0.1-0.4-0.5-0.4-0.1-0.9l0.2,0.2c0-0.5,0.2-0.9,0.4-1.4c0.2-0.4,0.4-0.8,0.5-1.3
		c0,0.1,0.1,0.1,0,0.2c0.2-0.1,0.4-0.6,0.3-0.7c0.1-0.1,0.1,0,0.2,0C4.1,8.1,4,7.7,4.2,7.7c0,0,0,0.1,0,0.1c0-0.1,0.4-0.5,0.1-0.5
		c0.3-0.2,0.3-0.6,0.6-0.7c0-0.3,0.5-0.4,0.3-0.6c0.2,0.2,0.6-0.3,0.6-0.5c0,0.1,0.2-0.1,0.2,0.1c0.2-0.2,0.3-0.4,0.2-0.4
		c0.6,0,0.5-0.8,1-0.6c0.1-0.1,0.2-0.3,0.4-0.4C7.8,4,7.9,3.9,8,3.8c0.1-0.1,0.3-0.2,0.4-0.3l0.2-0.2l0.2-0.1
		c0.1,0.1-0.1,0.2-0.3,0.3C8.4,3.6,8.3,3.7,8.4,3.8c0.1-0.1,0.2-0.2,0.3-0.3C8.8,3.4,8.9,3.3,9,3.2C9.2,3,9.4,2.9,9.7,2.8
		c0.2,0,0,0.2-0.1,0.2c0.3-0.2,0.6-0.3,0.8-0.4c0.1-0.1,0.3-0.1,0.4-0.2c0.1-0.1,0.3-0.1,0.4-0.2c0,0,0,0.1-0.1,0.1
		c0.1,0,0.3,0,0.2-0.1l-0.1,0.1c-0.2-0.1,0.3-0.5,0.3-0.6c-0.1,0.4,0.6,0,0.4,0.5c0.1,0,0.1-0.1,0.1-0.2c0.1,0,0.2,0,0.1,0.2
		C12.4,2,12.4,2,12.5,1.9c0.1-0.1,0.1-0.1,0.3-0.1c0,0.1-0.1,0.1-0.1,0.2c0.2-0.2,0.3-0.3,0.6-0.3c0,0,0,0.1-0.1,0.1
		c0.5-0.1,0.9-0.4,1.5-0.3c-0.2,0.3,0.2,0.1,0.2,0.3c0.1,0,0.2-0.1,0.3-0.1l-0.1-0.1c0.3,0,0.5-0.1,0.8-0.1l-0.2,0.1l0.5,0l-0.3-0.1
		c0.3-0.1,0-0.3,0.4-0.2c-0.1,0,0.3,0,0.4,0.2l0,0c0.1-0.1,0.3-0.1,0.5,0c0,0.1-0.1,0.3-0.1,0.3c0.2-0.2,0.6,0,0.9-0.1
		c-0.1,0-0.1,0.2-0.1,0.2L18,1.6c0.1,0.1,0.1,0.1,0.1,0.2c0.4,0.1,0-0.3,0.4-0.1c0,0,0,0-0.1,0C18.6,1.9,18.8,1.9,19,2
		c0.2,0,0.4,0.1,0.6,0.2c0,0.3-0.4-0.1-0.3,0.2c0.3,0.1,0.6,0.1,0.9,0.2c0.3,0.1,0.6,0.2,0.9,0.3L21,2.7c0.2-0.3,0.3,0.3,0.7,0.3
		c-0.1,0-0.2,0.1-0.1,0.1c0.3,0.3,0.7,0.3,1.3,0.6l-0.1,0c0.1,0.2,0.5,0.4,0.7,0.6c0.1,0,0.2,0.1,0.2-0.1c0,0.1,0.1,0.2,0.1,0.3
		c0.1,0.1,0.1,0.2,0.2,0.2c0.1,0.1,0.3,0.2,0.5,0.3c0.2,0.1,0.3,0.2,0.5,0.3c0.1,0.1,0.2,0.3,0.3,0.5c-0.1-0.1-0.2-0.1-0.1,0
		l0.5,0.4c0.1-0.1,0-0.1,0-0.3c0.1,0,0.3,0.1,0.4,0.2c-0.3-0.1-0.2,0.2-0.2,0.3c0,0,0.1,0,0.1-0.1c0,0.4,0.3-0.2,0.4,0.3l-0.1,0
		c0.1,0.1,0.3,0.2,0.4,0.3c-0.1,0.2-0.2-0.1-0.3,0c0.2,0.2,0.6,0.2,0.5,0.5c-0.1-0.1-0.2-0.2-0.3-0.2c0,0.3,0,0.3,0.1,0.5l0,0
		l0.1,0.4l0-0.1c0.3,0,0.4,0.1,0.5,0.3c0,0.1,0.1,0.1,0.1,0.2c0.1,0.1,0.1,0.1,0.2,0.2c-0.4-0.2-0.2,0-0.4,0.1c0,0.1,0,0.3-0.1,0.3
		c0.2,0.1,0,0.3,0.4,0.5c-0.1,0,0.1,0.2-0.1,0.2c0.2,0.2,0.1-0.1,0.2-0.1c0.2,0.1,0.2,0.4,0.2,0.6c0,0.3,0.1,0.5,0.3,0.7
		c0.3,0.4,0.5,0.5,0.7,0.9c-0.1,0.2-0.3-0.1-0.3-0.1c0,0.3,0,0.4,0.1,0.6c-0.1,0-0.1,0-0.2,0.1c0,0.2,0.3,0.1,0.2,0.3
		c-0.1,0-0.2-0.1-0.3-0.1c0.1,0.2,0.2,0.4,0.3,0.6c-0.1,0.1-0.2-0.1-0.3-0.2c0.1,0.2,0.2,0.6,0.4,0.7l0.1-0.2c0,0.1-0.1,0.1-0.2,0
		c-0.2-0.2,0-0.3,0.1-0.3l0.1,0.2c0.4-0.2-0.2-0.6-0.2-1l0.3,0.1l-0.3-0.3c0.1-0.1,0.2-0.2,0.3,0c0.1-0.3-0.1-0.2,0-0.4c0,0,0,0,0,0
		l-0.1-0.2c0.1,0,0.2-0.1,0.2,0.1c0-0.5-0.4-0.6-0.2-0.8l0,0c-0.3-0.5-0.2,0-0.6-0.3c0.1-0.1,0.2-0.3,0.4-0.4l-0.2,0
		c0-0.1,0-0.2,0-0.2c-0.2-0.2-0.1,0.1-0.2,0c0-0.2,0-0.3-0.1-0.5c-0.1-0.2-0.1-0.3,0-0.4c-0.2,0,0,0.3-0.2,0.1
		C28.2,9,27.7,9,27.7,8.7c0.2,0,0.2,0.3,0.2-0.1c-0.2,0-0.2-0.1-0.2-0.3c0-0.1,0-0.3-0.1-0.4c-0.2,0.1-0.3-0.4-0.6-0.6
		c0.1,0-0.3-0.7-0.4-1l0,0c-0.2,0.1-0.4-0.2-0.6-0.4c0.1-0.1,0.2-0.1,0.3,0c-0.1-0.1-0.1-0.1-0.2-0.2c-0.1,0-0.2,0-0.3-0.1L26,5.5
		c-0.2-0.2-0.6-0.4-0.8-0.7c-0.1,0.1-0.1,0.6-0.5,0.3C24.8,5,24.9,4.9,25,5c0,0-0.2,0-0.2-0.1l0.2,0c-0.1-0.2-0.2,0-0.3-0.1
		c0.1-0.1,0-0.1,0.1-0.2c0,0,0.1,0.1,0.1,0.1c-0.1-0.1-0.2-0.3-0.2-0.5c0,0.1-0.1,0.1-0.2,0.1c-0.3-0.2,0-0.2-0.1-0.4
		c-0.1,0-0.2-0.2-0.4,0c-0.1-0.1,0-0.1,0-0.2c-0.2,0-0.7-0.5-0.6-0.2l0,0c0,0,0,0,0,0l0,0l0,0c-0.1,0-0.3-0.1-0.4-0.2
		c-0.1-0.1-0.2-0.2-0.3-0.3c-0.2-0.2-0.4-0.4-0.7-0.5l0-0.1c-0.3-0.1-0.7-0.3-0.9-0.3C21,2.2,21,2.1,21,2c-0.3-0.1-0.3,0-0.6-0.2
		c0.3,0,0-0.1,0.3,0c-0.3-0.2-0.3-0.3-0.7-0.2c0.2-0.1-0.2-0.3-0.3-0.3l0.2,0.2c-0.2,0-0.3-0.1-0.5-0.2l0.1-0.2
		c-0.3-0.2-0.6-0.2-0.9-0.2c-0.3,0-0.6,0-0.8-0.2C17.6,0.8,18.2,0.8,18,1c-0.3-0.1-0.6-0.4-0.7-0.5c-0.4-0.2-0.4,0.2-0.9,0.1
		c0.1,0.1,0.1,0.3-0.3,0.4c-0.3,0-0.4-0.3-0.2-0.4c0.1,0,0.1,0,0.1,0.1c0.1,0,0.2-0.1,0.1-0.1l0,0.1c-0.1-0.1-0.6-0.1-0.5-0.2
		c-0.2,0.1-0.1,0.1,0.1,0.2c-0.4-0.1-0.6-0.1-1-0.1c0.1,0,0.1,0.1,0.1,0.1c-0.6-0.1-0.3,0.2-0.7,0.2c-0.2-0.1,0.1-0.3-0.3-0.2
		c-0.3-0.1-0.1-0.2,0-0.3c-0.1,0-0.2,0.1-0.3,0.1c-0.1,0-0.2,0-0.3,0c-0.2,0-0.3-0.1-0.4-0.1l0.2-0.1c-0.1,0.1-0.2,0.1-0.3,0.1
		l0.1,0.1c-0.1,0-0.2,0-0.2-0.1c-0.1,0.1,0.1,0.2-0.1,0.4c-0.2-0.1-0.5,0.1-0.5,0c0.5,0-0.1-0.2,0.3-0.3c-0.1,0-0.2,0.1-0.3,0
		c0,0,0,0,0-0.1c-0.5-0.1-0.2,0.3-0.6,0.4c0-0.1-0.2-0.2-0.2-0.1c0.2,0,0.1,0.2,0,0.3c-0.3,0-0.3,0.2-0.5,0.2l0.2,0
		c0,0.1-0.2,0.1-0.4,0.3c0-0.1,0.2-0.1,0.1-0.1c-0.2,0.3-0.6,0-0.9,0.2c-0.2,0-0.1-0.2-0.2-0.2c-0.3,0.3-0.4,0-0.8,0.3
		c0.2,0.1,0.2,0.1,0,0.3l0.5-0.4L9,1.9c0.2-0.1,0.3-0.3,0.5-0.3c-0.1,0.2-0.1,0.2,0,0.2C9.1,1.8,9,2.2,8.7,2.2L8.5,1.9
		C8.3,1.9,8.1,2,7.9,2.2C7.8,2.4,7.6,2.5,7.3,2.7l0.2,0c0,0.2-0.3,0.2-0.4,0.4C7,2.9,6.9,2.9,6.8,2.9c0.1,0.1-0.4,0.3-0.3,0.5
		l-0.3,0C5.8,3.6,6,4,5.6,4.3c0-0.2-0.2-0.1,0-0.4C5.5,4,5.3,4.1,5.4,4.1C5.3,4.1,5.2,4.6,5,4.6c0,0.1,0.1,0.2-0.1,0.3c0,0,0,0,0,0
		c0,0-0.1,0.3,0.1,0.2c-0.3,0-0.5,0.3-0.7,0.5C4.1,5.7,4,5.9,3.9,6C3.8,6.1,3.7,6.2,3.6,6.2C3.4,6.5,3.2,6.8,3,7.1c0,0-0.1,0,0-0.1
		C2.7,7.3,3.2,7.4,2.8,7.8c-0.3,0.1,0-0.3-0.1-0.2C2.3,7.4,2.4,8.1,2.1,8.3l0-0.1C1.9,8.4,2,8.8,1.8,9.2c0,0,0,0-0.1,0
		c0.1,0.3,0,0.9-0.1,1.2c-0.1-0.2,0-0.2-0.2-0.2c0,0.2,0.3,0,0.2,0.4c-0.1,0.1-0.3,0.3-0.5,0.3c0-0.1,0.1-0.2,0.1-0.3
		c-0.1,0-0.2,0.1-0.2,0.3c0,0.1,0,0.2,0,0.3l-0.1-0.1c-0.1,0.5,0.2,0.6,0,1.1l0.1,0c0.2,0.3-0.2,0.2,0,0.5l-0.3,0
		c0,0.2,0.1,0.7,0.2,1.1c-0.2-0.2-0.2-0.6-0.3-0.9c0,0.2-0.1,0.7,0,0.8c0-0.1-0.1-0.2,0-0.3c0.2,0.3,0.3,0.6,0.2,1
		c-0.3,0-0.3,0.2-0.3,0.5c0,0.3,0,0.6-0.2,0.8c0.1,0.3,0.1,0.7,0.1,1.1c0,0.4,0,0.7,0.1,1.1c0.3-0.4,0,0.2,0.4,0.1
		c0.1,0.2,0.1,0.2,0.1,0.3l-0.1,0.6c-0.1,0.2-0.1-0.2-0.2-0.1c0.1,0.4-0.1,0.2-0.2,0.5c0.1-0.1,0.2,0.1,0.2,0.3l0.1-0.4
		c0.2,0.3,0.1,0.4,0.1,0.5c0,0.1-0.1,0.3,0.1,0.5l-0.2-0.1c0.1,0.1,0.2,0.4,0.3,0.6c0.1,0.3,0.3,0.5,0.5,0.5c0,0.1-0.1,0.2-0.2,0.1
		c0.1,0.3,0.4,0.7,0.6,1c0.3,0.3,0.5,0.6,0.5,0.9l-0.1,0c0.1,0.1,0.3,0.1,0.3,0.3c0,0-0.1,0-0.1,0.1c0.1,0,0.4,0.2,0.4,0.4L3,23.9
		c0.2,0.3,0.4,0.5,0.6,0.6c0.2,0.1,0.5,0.2,0.7,0.4c-0.2,0.2,0.1,0.7,0.3,0.9l0,0c0.3,0.3,0.6,0.5,0.9,0.7c0.3,0.2,0.6,0.3,1,0.5
		c0,0.1,0.1,0.3,0.3,0.4c0.1,0.1,0.3,0.2,0.5,0.4C7.6,28,8,28.3,8.3,28.5c-0.1-0.1,0.1-0.2,0.3-0.2c0.1,0.1,0.5,0,0.4,0.3l-0.1,0
		c0,0.3,0.4,0.4,0.6,0.5l0.2-0.3c0.3,0.4,0.7,0.5,1.2,0.6c0.4,0.1,0.8,0.1,1,0.4c0.2,0,0.4,0,0.6-0.1l0,0.2c0.2,0.1,0.4,0.1,0.6,0.1
		c0.2,0,0.4,0.1,0.7,0.1l-0.1,0.1c0.4,0,0.5-0.5,0.8-0.5l0.1,0.3c0.6,0.1,1.2,0.2,1.8,0c0,0,0,0.1-0.1,0.1c0.3,0,1.1,0.1,1-0.3
		c0,0.2,0.6-0.1,0.9-0.2l0,0.2c0.2-0.3,0.2-0.4,0.6-0.5c0.1,0,0.1,0.1,0,0.1c0.3,0,0.2-0.2,0.6-0.2l-0.1,0.1
		c0.3-0.1,0.3-0.1,0.4-0.3c0.2-0.1,0.6-0.2,0.7,0c0-0.1,0.1-0.3,0.3-0.3c0,0.1,0,0.1,0,0.1c0.1,0,0.2-0.1,0.3-0.1
		c0.1-0.1,0.2-0.1,0.2-0.2c0.1-0.1,0.3-0.2,0.5-0.2c0,0.1,0.1,0.1,0.1,0.1c-0.4,0.2-0.7,0.3-0.7,0.3c0.1,0.2,0.4,0,0.2,0.4
		c0.2-0.2,0.5-0.7,0.8-0.8c0,0,0,0,0.1,0l0,0c0.1,0,0.1-0.1,0.2-0.1c0.1,0,0.2,0,0.3-0.1c0.1,0.1,0.4-0.1,0.5-0.2
		c-0.1-0.2,0.1-0.2-0.2-0.3c0,0,0,0-0.1,0.1c0,0,0,0-0.1,0.1c0,0,0,0,0,0c-0.1,0.1-0.2,0.1-0.3,0.2c0.1-0.2,0.1-0.3,0.3-0.3
		c0-0.1,0-0.3,0-0.4c0.3,0.1,0.8,0,0.9,0.1c0.2-0.2,0.4-0.4,0.6-0.6c0.1-0.1,0.2-0.2,0.2-0.3c0.1-0.1,0.1-0.2,0.1-0.4
		c0.1-0.1,0.2,0,0.3,0c0,0.1-0.1,0.1-0.1,0.2c0.2-0.3,0.6-0.6,0.5-0.8c0.3-0.2,0,0.3,0.3-0.1l0,0.1c0.5-0.2,0.6-0.6,0.8-1
		c0.1-0.4,0.3-0.8,0.8-1.1c-0.1,0-0.1,0.1-0.1,0.1c0.2-0.2,0.4-0.5,0.6-0.7c0.2-0.3,0.3-0.5,0.4-0.8c0.1-0.3,0.2-0.6,0.4-0.9
		c0.2-0.3,0.3-0.6,0.5-0.8c0.2-0.3,0.1-0.4,0-0.6l0.2,0c0-0.1-0.1-0.3-0.1-0.4c0-0.3,0.2-0.4,0.3-0.6c0.1-0.1,0.2-0.2,0.2-0.3
		c0-0.1,0-0.3,0-0.5l-0.1,0.1c0.1-0.2,0-0.7,0.2-0.7c0,0-0.1-0.1,0-0.2l0.1,0c0-0.2-0.1-0.4-0.1-0.6c0.1-0.4,0.4,0.1,0.5-0.5
		c0-0.2-0.3-0.7-0.3-0.6c0,0.1-0.1,0.2-0.2,0.2l0-0.2c-0.3,0-0.6-0.2-0.9,0.3l0.2,0.4l-0.2,0.1l0-0.3c-0.1,0.2,0,0.3,0,0.4
		c-0.1,0-0.1,0.1-0.2,0.1l0.3,0.4c-0.1,0-0.2-0.2-0.3,0c0.1,0.2,0.3-0.1,0.3,0.1c-0.2,0.1-0.3,0.1-0.2,0.3c-0.1,0-0.1,0-0.2-0.1
		c0.1,0.2,0,0.5,0.1,0.6c-0.1,0.1-0.1,0.2-0.1,0.3c0,0.1-0.1,0.2-0.2,0.2c0.1,0.1,0.1,0.3,0.1,0.5c-0.3-0.4-0.2,0.6-0.5,0.4
		c0.3,0.3-0.1,0.8-0.1,1.2c0,0,0-0.1,0-0.1c-0.1,0.2-0.2,0.2-0.3,0.3c0.2,0.1,0.1,0.4,0.2,0.7c-0.3,0.1-0.2-0.3-0.5-0.3
		c0.2,0.1,0,0.5,0.2,0.5c-0.2,0.1-0.1,0.1-0.4,0.1c0.3,0.2,0,0.2,0.1,0.4c-0.3,0.2-0.3-0.1-0.4,0.2C26.3,22,26.3,21.7,26.3,21.7z
		 M21.3,27.2C21.3,27.2,21.3,27.2,21.3,27.2c0.1,0,0.1-0.1,0.1-0.1C21.4,27.1,21.4,27.2,21.3,27.2z M20.7,27.5
		c0.1,0,0.2-0.1,0.3-0.1c0,0,0.1,0.1,0,0.1C21,27.5,20.8,27.5,20.7,27.5z M22.6,28c-0.1,0.1-0.1,0.1-0.2,0
		C22.5,28,22.5,27.9,22.6,28c0-0.1,0-0.1,0-0.1C22.6,27.9,22.6,27.9,22.6,28z"/>
	<path class="st0" d="M22.6,27.7C22.6,27.6,22.6,27.6,22.6,27.7C22.6,27.6,22.6,27.6,22.6,27.7C22.6,27.6,22.6,27.7,22.6,27.7
		C22.6,27.7,22.6,27.7,22.6,27.7z"/>
	<path class="st0" d="M23.5,3.5L23.5,3.5C23.5,3.5,23.5,3.5,23.5,3.5C23.5,3.5,23.5,3.5,23.5,3.5z"/>
	<polygon class="st0" points="12.1,28 12.1,28.1 12.1,28 	"/>
	<path class="st0" d="M25.7,6.5C25.7,6.5,25.7,6.5,25.7,6.5C25.7,6.5,25.7,6.5,25.7,6.5z"/>
	<path class="st0" d="M26.6,7.8L26.6,8C26.6,7.9,26.6,7.8,26.6,7.8z"/>
	<path class="st0" d="M27.1,8.8C27.1,8.8,27.1,8.8,27.1,8.8L27.1,8.8L27.1,8.8z"/>
	<path class="st0" d="M11.2,2.4C11.2,2.4,11.1,2.4,11.2,2.4C11,2.4,11.1,2.4,11.2,2.4z"/>
	<path class="st0" d="M16.7,1.4c-0.1,0-0.1,0-0.2,0.1C16.6,1.5,16.6,1.5,16.7,1.4z"/>
	<polygon class="st0" points="6.1,5.6 6.1,5.6 6,5.6 	"/>
	<path class="st0" d="M16.2,1.5c0.1,0,0.2,0,0.3,0C16.4,1.5,16.3,1.5,16.2,1.5z"/>
	<path class="st0" d="M28.5,13.7L28.5,13.7C28.5,13.8,28.5,13.8,28.5,13.7L28.5,13.7z"/>
	<path class="st0" d="M28.5,13.8L28.5,13.8C28.5,13.8,28.5,13.8,28.5,13.8z"/>
	<path class="st0" d="M28.6,14l-0.1-0.1C28.5,13.9,28.5,13.9,28.6,14z"/>
	<path class="st0" d="M28.3,12.2L28.3,12.2C28.3,12.2,28.3,12.2,28.3,12.2z"/>
	<path class="st0" d="M28.2,11.7c0,0.1-0.1,0.3,0,0.5l0.1,0C28.1,12.1,28.3,11.8,28.2,11.7z"/>
	<path class="st0" d="M28.3,9.5c0,0.1,0.1,0.3,0.1,0.4c0-0.1,0.1-0.2,0.2,0C28.6,9.3,28.5,10,28.3,9.5z"/>
	<path class="st0" d="M27.8,8.3C28,8.5,27.9,8.2,28,8.2C27.8,8.1,27.8,8.1,27.8,8.3z"/>
	<path class="st0" d="M21,1.9l0.1-0.1C20.9,1.7,21,1.8,21,1.9z"/>
	<path class="st0" d="M19,2.1c0,0,0.1,0.1,0.1,0.1l0.1-0.1C19.2,2.1,19.1,2.1,19,2.1z"/>
	<polygon class="st0" points="18.3,0.7 18.4,0.7 18.1,0.6 	"/>
	<path class="st0" d="M3.6,5.8l0.2,0.1C3.9,5.7,3.7,5.6,3.6,5.8z"/>
	<path class="st0" d="M0.8,12.1c-0.1,0-0.2,0.2-0.1,0.4C0.7,12.3,0.8,12.2,0.8,12.1z"/>
	<polygon class="st0" points="9.9,29.1 9.7,29.1 10,29.2 	"/>
</g>
<g>
	<path class="st0" d="M8.9,15.1c0,0-0.1,0.2,0,0.2L8.9,15.1L8.9,15.1z"/>
	<path class="st0" d="M9,15.6c0.1-0.1,0.3-0.2,0.3-0.4c-0.2,0.2-0.1,0.1-0.3,0.3c-0.1,0,0-0.1,0-0.2c0,0,0-0.1-0.1,0
		c0,0.2,0,0.2,0.2,0.2C9,15.6,9,15.6,9,15.6z"/>
	<path class="st0" d="M12.9,18.4L12.9,18.4C12.9,18.4,12.9,18.4,12.9,18.4z"/>
	<path class="st0" d="M15.4,20.1C15.4,20.1,15.3,20.1,15.4,20.1C15.4,20.1,15.4,20.1,15.4,20.1z"/>
	<path class="st0" d="M15.7,20.5C15.7,20.5,15.7,20.5,15.7,20.5C15.7,20.5,15.7,20.6,15.7,20.5z"/>
	<path class="st0" d="M12.9,18.4l0,0.1C13,18.5,12.9,18.5,12.9,18.4z"/>
	<path class="st0" d="M9.8,15.5C9.8,15.5,9.8,15.5,9.8,15.5C9.8,15.6,9.8,15.6,9.8,15.5C9.8,15.5,9.8,15.5,9.8,15.5z"/>
	<path class="st0" d="M11.7,17.9L11.7,17.9C11.6,17.9,11.6,17.9,11.7,17.9L11.7,17.9z"/>
	<path class="st0" d="M10.8,17.4c0,0,0.1-0.1,0.2-0.2c-0.1,0.1-0.1,0.1-0.1,0.1C10.8,17.3,10.8,17.4,10.8,17.4z"/>
	<path class="st0" d="M9.6,16.3L9.6,16.3C9.6,16.3,9.6,16.3,9.6,16.3z"/>
	<path class="st0" d="M12.3,18.3C12.3,18.3,12.3,18.4,12.3,18.3C12.3,18.3,12.3,18.3,12.3,18.3z"/>
	<path class="st0" d="M10.1,15.5C10.1,15.5,10.1,15.5,10.1,15.5C10.1,15.5,10.1,15.5,10.1,15.5z"/>
	<polygon class="st0" points="8.6,15.5 8.6,15.4 8.6,15.4 	"/>
	<path class="st0" d="M17,21.6C17,21.6,17,21.6,17,21.6C17,21.6,17,21.6,17,21.6z"/>
	<path class="st0" d="M18.5,13.5c-0.2,0.1-0.2-0.2-0.4,0C18.2,13.4,18.4,13.6,18.5,13.5z"/>
	<path class="st0" d="M9.8,15.6C9.8,15.6,9.8,15.6,9.8,15.6C9.8,15.6,9.8,15.6,9.8,15.6z"/>
	<path class="st0" d="M18.1,13.5L18.1,13.5L18.1,13.5C18.1,13.5,18.1,13.5,18.1,13.5z"/>
	<path class="st0" d="M18.5,20.5C18.5,20.5,18.5,20.4,18.5,20.5C18.5,20.5,18.5,20.5,18.5,20.5z"/>
	<path class="st0" d="M17.6,21.6L17.6,21.6C17.7,21.6,17.7,21.6,17.6,21.6z"/>
	<path class="st0" d="M18.3,19C18.3,19,18.3,19,18.3,19C18.3,19,18.3,19,18.3,19C18.3,19,18.3,19,18.3,19z"/>
	<path class="st0" d="M18.3,18.2C18.3,18.2,18.2,18.2,18.3,18.2L18.3,18.2L18.3,18.2z"/>
	<path class="st0" d="M12.2,13.9c0,0-0.1-0.1-0.1-0.1C12.1,13.9,12.1,14,12.2,13.9z"/>
	<path class="st0" d="M9.7,15.6C9.8,15.6,9.8,15.6,9.7,15.6C9.8,15.6,9.8,15.6,9.7,15.6C9.8,15.6,9.8,15.6,9.7,15.6z"/>
	<path class="st0" d="M16.8,19l0-0.1C16.8,18.9,16.8,19,16.8,19z"/>
	<path class="st0" d="M16.7,10.6L16.7,10.6C16.7,10.6,16.7,10.6,16.7,10.6z"/>
	<path class="st0" d="M16.8,18.5c0.1,0,0.1-0.1,0.1-0.1C16.9,18.4,16.9,18.4,16.8,18.5L16.8,18.5z"/>
	<path class="st0" d="M12.1,13.8L12.1,13.8L12.1,13.8z"/>
	<path class="st0" d="M11.6,14.7c0.1-0.1-0.1-0.2-0.2-0.4c0.1-0.1,0.2,0.1,0.3,0.2c0-0.1,0-0.3,0-0.4c0,0,0,0,0.1,0.1
		c0-0.2,0.2-0.2,0.2-0.5c0,0,0,0,0,0c-0.1-0.1-0.2-0.2-0.2-0.3c0,0,0-0.2,0.1-0.1c0,0,0,0.1,0,0.1l0-0.1c0.2,0.2,0,0.1,0.1,0.3
		c0.1-0.1,0.1-0.4,0.2-0.4c0.1,0.2-0.1,0.2,0.1,0.3l-0.2,0c0.3,0.2-0.1,0,0.2,0.3c0.2-0.1,0.1-0.2,0.3-0.3c0-0.1-0.1-0.1-0.2-0.3
		c0.1-0.3,0.5,0.3,0.5,0c0-0.2-0.2-0.4,0-0.4l0.1,0.2c0.2-0.1-0.1-0.4,0.1-0.3c0,0.1-0.1,0.2,0,0.2c0.2,0.1,0-0.2,0.1-0.2l0.1,0.2
		c0.1-0.1,0.2-0.4,0.4-0.6c0,0.1,0,0.1,0.1,0.2c0.2-0.2,0.5-0.3,0.8-0.4l0-0.2c0,0,0.1,0,0.1,0.1c0.1,0-0.1-0.1-0.1-0.2
		c0,0,0.1,0,0.1,0.1c0-0.2,0.2-0.6,0.5-0.5l0,0.1c0.2,0-0.1-0.4,0.1-0.4l0,0c0.3-0.1,0.5-0.5,0.9-0.4c-0.1-0.3,0.3-0.1,0.1-0.4
		c0.1,0.1,0.1,0.1,0.2,0.1c0,0,0.1,0.1,0.1,0.1c0,0,0-0.3,0-0.3l0,0.2c0-0.1,0-0.2,0-0.3c0,0.1,0,0.2,0,0.3l0-0.1c0,0,0-0.1,0-0.2
		c0-0.1,0.1-0.1,0.1,0c0,0.1,0,0.2,0,0.3c0-0.1,0.1-0.2,0.1-0.3c0,0.1-0.1,0.2-0.1,0.3c0.1-0.3-0.1,0.3,0,0c0-0.1,0.1-0.2,0.1-0.3
		c0,0.2,0,0.2,0,0.1l-0.1,0.3c0,0,0,0,0,0c0,0,0.1-0.1,0.1,0c0.1-0.1,0.3-0.5,0.3-0.5L17,10.5c0.1-0.2,0.1-0.2,0.2-0.4
		c0,0.1-0.2,0.4-0.3,0.5c0,0,0.1-0.1,0.1-0.1c-0.1,0.1-0.1,0.1-0.2,0.3c0.1-0.1,0,0,0,0.1c0,0.1-0.1,0.1,0,0l-0.1,0.1
		c0,0,0.1,0,0.1,0c0.2-0.1,0.1-0.1,0.3-0.1c-0.1,0.1-0.2,0.2-0.2,0.2c0.1,0,0.2,0,0.3,0C17,11,17,11.1,16.9,11c0,0.2,0,0.3,0.2,0.5
		c0.1,0,0.1-0.1,0.2,0c0,0-0.1,0.1-0.2,0.1l0,0c0.3,0.3-0.5,0.7-0.1,0.9l0,0l0.2,0.2c0,0.1-0.1-0.1-0.2,0c0.3,0.3,0,0.4,0.1,0.6
		c-0.5,0.2,0,0.6-0.3,0.8l0.1,0c0.1,0.1-0.1,0.1-0.1,0.1c0.1,0,0.1-0.1,0.2,0c0.1,0.5-0.2,1-0.3,1.6c0,0.2,0.6,0.1,0.3,0.3l-0.2-0.1
		c0.3,0.4,0,0.8,0.2,1.1c-0.1,0-0.1,0-0.1-0.1c-0.2,0.1,0,0.3,0.1,0.3c0,0.1-0.1,0-0.2,0c-0.1,0.1,0.2,0.2,0,0.2c0,0-0.1,0-0.1,0
		c0.1,0.1,0,0.2,0.2,0.2c-0.1,0.1,0.1,0.3,0,0.4c0.2,0.1-0.1,0.2,0.2,0.3c-0.3,0-0.2,0.2-0.1,0.3c-0.1,0-0.1,0.1-0.2,0
		c0,0.1,0,0.1,0.1,0.1c0,0,0.1,0,0.2,0c-0.2,0-0.1,0,0,0.1c0.1,0,0.1,0.1-0.1,0c0.2,0.1,0.3,0.4,0.3,0.6C17,19.6,17,19.5,17,19.5
		c0,0,0-0.1-0.2-0.2c0.1,0.2,0.4,0.6,0.3,0.6c0,0-0.1-0.2-0.2-0.3c0,0.1,0,0.1,0,0.1c0,0-0.1-0.1-0.1,0c0,0,0-0.1,0-0.1
		c0,0-0.1-0.1,0,0.1l0,0c0.1,0.2,0.1,0.3,0.1,0.4c0,0.1,0,0.2,0,0.3c-0.1-0.5-0.2-0.2-0.3-0.8c0,0,0,0.1,0,0.2c0,0,0-0.1-0.1-0.2
		c0,0.1,0,0.3-0.1,0.2c0-0.1,0-0.1,0-0.2c0,0.1-0.1,0.3-0.1,0.2c0,0,0-0.1,0-0.1c-0.1,0-0.3,0.2-0.4,0c0.2-0.2,0-0.1,0.1-0.3l-0.1,0
		l0,0.1c-0.1-0.1-0.3,0-0.3-0.1l0.1,0l-0.2-0.1l0.1,0.1c-0.2,0.1-0.2,0.3-0.2,0.1c0,0-0.1-0.1-0.1-0.2l0,0c-0.1,0-0.2,0.1-0.2,0
		c0-0.1,0.2-0.2,0.2-0.3c-0.2,0.1-0.2-0.1-0.4,0.1c0,0,0.1-0.1,0.1-0.2l-0.1,0.1c0-0.1,0-0.1,0.1-0.2C15,18.8,15,19.2,14.9,19
		c0,0,0,0,0.1,0c-0.1-0.2-0.4-0.1-0.5-0.2c0.1-0.2,0.2,0,0.2-0.2c-0.2-0.1-0.6,0-0.7-0.2l0,0c-0.2,0.3-0.1-0.2-0.2-0.2
		c0,0,0.1-0.1,0.1-0.1C13.8,18,13.6,18,13.3,18l0.1-0.1c0-0.1-0.2-0.2-0.3-0.3c-0.1,0.1-0.1,0-0.2,0.2c0-0.6-0.7-0.1-0.7-0.6
		c0,0,0.1,0,0.1,0l-0.2-0.1c-0.1,0.1,0,0.1,0,0.2c-0.1,0.1-0.2,0.1-0.2,0.1c0.1,0,0.1-0.2,0.1-0.3c0,0-0.1,0.1-0.1,0.1
		c0-0.3-0.2,0.3-0.2,0l0-0.1c-0.1,0-0.2,0.1-0.2,0c0.1-0.2,0.1,0,0.2-0.2c-0.1,0-0.3,0.2-0.3,0c0.1,0,0.1,0,0.2,0
		c0-0.2,0-0.2-0.1-0.3l0,0l-0.1-0.2l0,0.1c-0.3,0.3-0.3-0.1-0.5,0.1c0.3-0.2,0.1-0.1,0.2-0.3c0-0.1,0-0.2,0-0.2
		c-0.1,0.1,0-0.2-0.3,0c0-0.1-0.1,0,0-0.2c-0.1,0,0,0.1-0.1,0.2c-0.2,0.1-0.2-0.4-0.5-0.3c-0.2,0-0.4,0.2-0.6,0.2
		c0-0.1,0.2-0.2,0.2-0.2c0-0.1-0.1-0.2-0.2-0.1c0,0,0.1-0.1,0.1-0.2c-0.1,0-0.2,0.2-0.2,0c0.1-0.1,0.1-0.1,0.2-0.2
		c-0.1,0-0.2,0.1-0.3,0.1c0-0.1,0.1-0.1,0.2-0.2c-0.1,0-0.3,0-0.4,0.1l0,0.1c0,0,0.1-0.1,0.1-0.2c0.1-0.1,0.1,0.1,0,0.2l-0.1,0
		c-0.1,0.4,0.2,0.1,0.3,0.2L9.4,16l0.2-0.1c0,0.1-0.1,0.2-0.2,0.2c0,0.2,0.1,0,0.1,0.1c0,0,0,0,0,0l0.1,0c0,0-0.1,0.2-0.1,0.1
		c0.1,0.2,0.3,0,0.3,0.2l0,0c0.2,0,0.1-0.2,0.4-0.3l-0.2,0.5l0.1-0.2c0,0,0,0.1,0,0.1c0.1-0.1,0-0.1,0.1-0.2c0,0.2,0.3,0.1,0.2,0.4
		c0.1-0.1,0-0.2,0.1-0.2c-0.2,0.3,0.1,0,0.1,0.2c-0.1,0.1-0.2,0-0.1,0.2c0.2-0.2,0.1,0.2,0.2,0.2c0.1-0.2,0.2,0,0.4,0
		c0,0.1,0.2,0.3,0.2,0.4l0,0c0.1-0.2,0.2-0.1,0.4-0.1c-0.1,0.1-0.1,0.2-0.2,0.2l0.1,0c0.1-0.1,0.1-0.1,0.2-0.1L11.7,18
		c0.1,0.1,0.3-0.1,0.4,0.1c0.1-0.1,0.1-0.5,0.3-0.5c0,0.1-0.1,0.2-0.2,0.2c0,0,0.1,0,0.1,0l-0.1,0.1c0,0.1,0.1-0.1,0.1,0
		c-0.1,0.1,0,0.1-0.1,0.2c0,0,0-0.1-0.1,0c0,0.1,0.1,0.2,0,0.3c0-0.1,0.1-0.2,0.1-0.1c0.1,0.1,0,0.2,0,0.3c0.1-0.1,0.1,0.1,0.2-0.1
		c0,0,0,0.1,0,0.2c0.1,0,0.3,0.1,0.3-0.1l0,0c0,0,0,0,0,0l0,0l0,0c0.3-0.1,0.3,0.3,0.5,0.4l0,0.1c0.1,0,0.3,0.1,0.4,0
		c0,0,0,0.1,0,0.2c0.1,0,0.2-0.1,0.2,0.1c-0.1,0,0,0.1-0.1,0c0.1,0.1,0,0.2,0.3,0.1c-0.1,0.1,0,0.2,0,0.2l0-0.1
		c0.1,0,0.1,0.1,0.2,0.1l-0.1,0.2c0.1,0.4,0.6-0.2,0.6,0.3c0.1-0.1-0.1-0.2,0.1-0.3c0.1,0.1,0,0.4,0.1,0.4c0.1,0.2,0.3-0.2,0.4,0
		c0-0.1,0.1-0.3,0.3-0.3c0.1,0.1,0,0.4-0.1,0.4c0,0,0,0,0-0.1c0,0-0.1,0-0.1,0.1l0.1-0.1c0,0.1,0.1,0.2,0,0.3c0.1,0,0.1-0.1,0.1-0.2
		c0.1,0.2,0.2,0.1,0.3,0.3c0,0,0-0.1,0.1-0.1c0,0,0.1,0.1,0.1,0.1c0,0,0.1,0,0.1,0c0,0,0.1-0.1,0.2-0.1c0.1,0.2-0.2,0.2,0.1,0.3
		c0.1,0.2,0,0.2-0.1,0.3c0.1,0,0.2,0.1,0.3,0.2c0.1,0.1,0.1,0.2,0.2,0.3l-0.1,0c0.1,0,0.1,0,0.2,0.1l-0.1-0.2
		c0.1,0.1,0.1,0.1,0.1,0.2c0.1-0.1,0-0.3,0.1-0.4c0.1,0.1,0.2,0,0.3,0.3c-0.3-0.2,0.1,0.3-0.2,0.2c0,0,0.1,0,0.2,0.1c0,0,0,0,0,0.1
		c0.3,0.4,0.1-0.2,0.3-0.1c0,0.1,0.1,0.4,0.2,0.3c-0.1-0.1-0.1-0.3-0.1-0.4c0.2,0.2,0.1,0,0.2,0.1l-0.1-0.1c0-0.2,0-0.1,0.1-0.1
		c0.1,0.2,0,0,0,0.1c0-0.1,0.1,0,0.2,0.1c0.1,0.1,0.3,0.3,0.3,0.2c0.1,0.2,0.2,0.4,0.3,0.5c0,0,0,0,0,0c0-0.2,0.2,0.1,0.1-0.3
		c-0.2-0.2-0.1-0.1-0.3-0.5l0.1,0.6c-0.1-0.2-0.2-0.4-0.2-0.6c0,0.1,0.1,0.4,0.1,0.4c-0.1-0.3-0.1-0.2-0.2-0.4c0.1,0.1,0.1,0,0-0.1
		c0-0.1-0.1-0.3,0-0.2l0.4,0.6c0.1,0,0-0.2,0-0.4c-0.1-0.2-0.1-0.4-0.1-0.5c0,0,0,0-0.1,0c-0.2-0.2,0-0.2-0.1-0.4
		c0.1,0.1,0.2,0.1,0.3,0.1c-0.1-0.1,0-0.3-0.3-0.5c0.1,0,0.1,0,0.2-0.1c0.1-0.3-0.4-0.5-0.3-0.7c0.1,0.1,0.2,0,0.3,0.2
		c0-0.1,0-0.2-0.1-0.2c0,0,0-0.1,0-0.2c0-0.1-0.1-0.1,0-0.1c-0.1,0-0.2,0-0.2-0.1c0,0,0.1,0,0.1,0c-0.1,0-0.1-0.1-0.2,0
		c0.4-0.2,0-0.5,0.3-0.7c0-0.1-0.1-0.3-0.1-0.4c0,0,0.1,0,0.1,0c0.1-0.2-0.4-0.1-0.2-0.3c0.2-0.1,0.1,0.1,0.2,0
		c0.4,0-0.1-0.2,0.2-0.3l0,0c0.1-0.1-0.2-0.2-0.1-0.4c0,0,0,0,0.1,0c-0.2-0.1-0.3-0.3-0.4-0.4c0.2,0,0.1,0.1,0.3,0
		c0-0.1-0.3,0-0.3-0.1c0.1,0,0.2-0.1,0.4-0.1l0,0.1c0.2-0.1,0-0.2,0-0.2l0.1,0c0-0.2-0.3-0.2-0.3-0.4l-0.1,0c-0.3-0.1,0.1-0.1,0-0.2
		l0.3,0c-0.1-0.1-0.3-0.3-0.3-0.4c0.2,0.1,0.3,0.2,0.4,0.3c0-0.1,0-0.2-0.1-0.3c0,0,0.1,0.1,0,0.1c-0.2-0.1-0.3-0.2-0.3-0.4
		c0.5,0,0.1-0.4,0.5-0.5c-0.2-0.3,0.1-0.5,0.1-0.8c-0.4,0.1,0-0.1-0.4-0.1c0-0.1,0-0.1,0-0.1l0.2-0.2c0.1,0,0.1,0.1,0.2,0.1
		c0-0.2,0.2-0.1,0.3-0.2c-0.1,0-0.2-0.1-0.2-0.1l-0.2,0.1c-0.2-0.2,0.3-0.2,0.1-0.4l0.1,0.1c-0.1-0.1,0-0.4-0.3-0.5c0,0,0.2,0,0.2,0
		c0-0.3-0.3-0.6-0.1-0.8l0.1,0c0,0-0.2-0.1-0.1-0.1c0,0,0.1,0,0.1,0c0,0-0.2-0.1-0.1-0.2l0.1,0.1c0.1-0.1,0-0.2-0.1-0.4
		c-0.1-0.1-0.2-0.3-0.2-0.4c0.3-0.1,0.4-0.5,0.4-0.7l0,0c0-0.3,0-0.5-0.1-0.6c-0.1-0.1-0.2-0.2-0.2-0.4c0.2-0.5,0.2-1,0.2-1.5
		c-0.1,0-0.2,0.1-0.2,0.1c0,0.1-0.2,0.4-0.3,0.5c0,0-0.4,0.5-0.2,0l0,0c0.1-0.4-0.1-0.1-0.3,0l-0.2,0.6c-0.1-0.3-0.4,0-0.6,0.2
		c-0.2,0.2-0.4,0.4-0.5,0.2c-0.1,0.2-0.2,0.2-0.2,0.4L16,9.1c-0.1,0.1-0.2,0.1-0.4,0.2c-0.1,0-0.1,0.1-0.2,0.1c0,0-0.1,0.1-0.1,0.1
		l0-0.1c-0.1,0.1,0.2,0.5,0.1,0.6l-0.2-0.2c-0.2,0.1-0.5,0.1-0.5,0.4c0,0-0.1-0.1,0-0.1c-0.1,0.1-0.4,0.1-0.2,0.4
		c-0.2-0.2-0.2,0.1-0.2,0.3l-0.1-0.2c0.1,0.3,0.1,0.3,0,0.4c0,0-0.1-0.1,0-0.1c-0.1,0,0,0.2-0.1,0.2l0-0.1c-0.1,0.1-0.1,0.1,0,0.3
		c0,0.1-0.2,0.1-0.3,0c0,0.1,0.1,0.2,0,0.2c0,0,0-0.1,0-0.1c-0.2,0-0.1,0.3-0.3,0.3c0,0-0.1-0.1-0.1-0.1c0.1-0.1,0.2-0.1,0.2-0.1
		c-0.1-0.1-0.2-0.1-0.3-0.3c0,0.2,0,0.5-0.1,0.5c0,0,0,0,0,0l0,0c0,0,0,0,0,0.1c0,0-0.1,0-0.1,0c-0.1-0.1-0.2,0-0.2,0.1
		c0.1,0.1,0,0.2,0.2,0.3c0,0,0,0,0-0.1c0,0,0,0,0,0l0,0c0,0,0.1-0.1,0.1-0.1c0,0.1,0,0.2-0.1,0.2c0,0.1,0.1,0.2,0.1,0.3
		c-0.2-0.2-0.4-0.2-0.5-0.3c-0.1,0.2-0.3,0.3-0.2,0.7c0,0.1-0.1,0-0.2-0.1c0,0,0-0.1,0-0.1c0,0.1-0.2,0.2-0.1,0.4
		c-0.2,0-0.1-0.2-0.2-0.1l0-0.1c-0.5-0.1-0.1,0.9-0.7,0.7c0,0,0.1,0,0.1,0c-0.5,0.1-0.6,0.7-1.2,0.7c-0.1,0-0.1,0.2-0.1,0.3
		l-0.1-0.1l0,0.3c-0.1,0.2-0.6-0.2-0.6,0.2l0.1,0.1c-0.1,0-0.2,0.2-0.3,0.1c0,0,0.1,0.1,0,0.1l-0.1-0.1l-0.1,0.3
		c-0.2,0-0.2-0.4-0.4-0.2c0,0.1,0,0.4,0,0.4c0,0,0.1,0,0.2,0.1l0,0.1C8.8,15.7,8.9,16,9.2,16l0-0.2l0.1,0.1L9.3,16
		c0.1,0.1,0.1-0.1,0.1-0.1c0.1,0.1,0.1,0.1,0.1,0.1l-0.1-0.3c0.1,0.1,0.1,0.2,0.2,0.2c0-0.1-0.2-0.2-0.2-0.3c0.1,0.1,0.2,0.2,0.2,0
		c0.1,0.1,0.1,0.1,0.1,0.2c0-0.1,0.1-0.1,0.1-0.3c0.2,0.1,0.2-0.2,0.3,0.1c0-0.1,0-0.3,0-0.3c0.1,0.4,0.2-0.1,0.4,0.2
		c-0.1-0.3,0.2-0.3,0.2-0.5c0,0,0,0.1,0,0.1c0.1,0,0.2,0,0.2,0c-0.1-0.2-0.1-0.3-0.1-0.5c0.2,0.1,0.1,0.3,0.3,0.5
		c-0.1-0.2,0-0.3-0.1-0.4c0.2,0.1,0.1,0,0.3,0.2c-0.2-0.3,0-0.1,0-0.3c0.2,0.1,0.2,0.2,0.2,0.1C11.6,14.5,11.6,14.7,11.6,14.7z
		 M13.7,12.4C13.7,12.4,13.7,12.4,13.7,12.4C13.7,12.4,13.7,12.5,13.7,12.4C13.7,12.5,13.7,12.4,13.7,12.4z M13.9,12.3
		C13.9,12.3,13.9,12.3,13.9,12.3c-0.1,0-0.2,0-0.1-0.1C13.8,12.3,13.9,12.2,13.9,12.3z M12.7,11.5C12.7,11.5,12.8,11.5,12.7,11.5
		C12.8,11.6,12.8,11.6,12.7,11.5C12.8,11.6,12.8,11.6,12.7,11.5C12.8,11.6,12.7,11.6,12.7,11.5z"/>
	<path class="st0" d="M12.8,11.8C12.8,11.8,12.8,11.8,12.8,11.8C12.8,11.8,12.8,11.8,12.8,11.8C12.8,11.8,12.8,11.8,12.8,11.8
		L12.8,11.8z"/>
	<path class="st0" d="M12.9,18.4L12.9,18.4C12.9,18.4,12.9,18.4,12.9,18.4C12.9,18.4,12.9,18.4,12.9,18.4z"/>
	<polygon class="st0" points="16.6,10.7 16.6,10.7 16.6,10.7 	"/>
	<path class="st0" d="M12,17.1C12,17.1,12,17.1,12,17.1C12,17.1,12,17.1,12,17.1z"/>
	<path class="st0" d="M11.5,16.7l0-0.1C11.5,16.7,11.5,16.7,11.5,16.7z"/>
	<path class="st0" d="M11.1,16.4C11.1,16.4,11.1,16.5,11.1,16.4L11.1,16.4L11.1,16.4z"/>
	<path class="st0" d="M16.9,19.6C16.9,19.6,16.9,19.6,16.9,19.6C16.9,19.6,16.9,19.6,16.9,19.6z"/>
	<path class="st0" d="M15.5,19.3c0,0,0.1,0,0.1,0C15.6,19.3,15.6,19.2,15.5,19.3z"/>
	<polygon class="st0" points="16.8,19 16.8,19 16.8,19 	"/>
	<path class="st0" d="M15.7,19.3C15.7,19.3,15.7,19.3,15.7,19.3C15.7,19.3,15.7,19.3,15.7,19.3z"/>
	<path class="st0" d="M9.5,15.3L9.5,15.3C9.4,15.3,9.4,15.3,9.5,15.3L9.5,15.3z"/>
	<path class="st0" d="M9.4,15.3L9.4,15.3C9.4,15.3,9.4,15.3,9.4,15.3z"/>
	<path class="st0" d="M9.3,15.3L9.3,15.3C9.4,15.3,9.4,15.3,9.3,15.3z"/>
	<path class="st0" d="M9.9,15.7L9.9,15.7C10,15.6,10,15.7,9.9,15.7z"/>
	<path class="st0" d="M10.1,15.8c0,0,0-0.2-0.1-0.2l0,0C10.1,15.6,10,15.8,10.1,15.8z"/>
	<path class="st0" d="M10.4,16.9l-0.1-0.1c0,0.1,0,0.2-0.1,0.2C10.2,17.2,10.2,16.8,10.4,16.9z"/>
	<path class="st0" d="M10.7,17.2c-0.1,0-0.1,0.1-0.1,0.1C10.7,17.3,10.7,17.3,10.7,17.2z"/>
	<path class="st0" d="M13.8,19.1l-0.1,0.1C13.7,19.2,13.7,19.2,13.8,19.1z"/>
	<polygon class="st0" points="14.8,18.7 14.8,18.6 14.7,18.7 	"/>
	<polygon class="st0" points="14.5,19.9 14.5,19.9 14.6,19.9 	"/>
	<path class="st0" d="M18.4,18.3l-0.2,0C18.3,18.4,18.5,18.4,18.4,18.3z"/>
	<path class="st0" d="M18.2,15.8c0.1,0,0.2-0.1,0.1-0.1C18.3,15.7,18.2,15.7,18.2,15.8z"/>
	<polygon class="st0" points="17.4,8.1 17.5,8 17.3,8.2 	"/>
</g>
</svg>
