<svg viewBox="0 0 740 269" xmlns="http://www.w3.org/2000/svg"><g fill="#fff"><path d="m47.7 101.2c-23.6 0-41.1-18.2-41.1-41.2v-.2c0-22.8 17.2-41.4 41.8-41.4 15.1 0 24.2 5 31.6 12.4l-11.2 12.9c-6.2-5.6-12.5-9-20.5-9-13.5 0-23.2 11.2-23.2 25v.2c-.1 13.6 9.4 25.1 23.2 25.1 9.2 0 14.8-3.7 21.1-9.4l11.2 11.3c-8.3 8.8-17.4 14.3-32.9 14.3z"/><path d="m94.6 99.9v-80.2h17.6v64.1h40v16h-57.6z"/><path d="m166.3 99.9v-80.2h17.6v80.1h-17.6z"/><path d="m241.5 101.2c-23.6 0-41.1-18.2-41.1-41.2v-.2c0-22.8 17.2-41.4 41.8-41.4 15.1 0 24.2 5 31.6 12.4l-11.2 12.9c-6.2-5.6-12.5-9-20.5-9-13.5 0-23.2 11.2-23.2 25v.2c0 13.7 9.5 25.2 23.2 25.2 9.2 0 14.8-3.7 21.1-9.4l11.2 11.3c-8.3 8.7-17.4 14.2-32.9 14.2z"/><path d="m340.2 99.9-24.8-34.1-9.3 9.6v24.5h-17.6v-80.2h17.6v35l32.5-35h21.3l-32.6 34 34.1 46.1h-21.2z"/><path d="m437.4 75.8h-13.4v24h-17.6v-80.1h32.7c19.1 0 30.7 11.3 30.7 27.7v.2c0 18.6-14.4 28.2-32.4 28.2zm14.5-28c0-7.9-5.5-12.1-14.3-12.1h-13.6v24.5h14c8.8 0 14-5.3 14-12.1v-.3z"/><path d="m534.5 99.9-7.3-18h-33.9l-7.3 18h-18l34.3-80.7h16.3l34.3 80.7zm-24.3-59.6-10.6 26h21.3z"/><path d="m613.9 99.9-17.2-25.6h-13.9v25.6h-17.6v-80.2h36.6c18.9 0 30.2 10 30.2 26.4v.2c0 12.9-7 21.1-17.2 24.8l19.6 28.6h-20.5zm.4-52.8c0-7.6-5.3-11.4-13.9-11.4h-17.5v23h17.9c8.6 0 13.5-4.6 13.5-11.3z"/><path d="m707.7 99.9-7.3-18h-33.9l-7.3 18h-18l34.3-80.7h16.3l34.3 80.7zm-24.3-59.6-10.6 26h21.3z"/><path d="m70.7 237.8h-15.6l-32.4-80.7h19.5l20.9 56.4 21-56.4h19z"/><path d="m115.5 237.2v-80.1h60.4v15.7h-42.9v16.2h37.8v15.7h-37.8v16.8h43.5v15.7z"/><path d="m240.8 237.2-17.2-25.6h-13.9v25.6h-17.6v-80.1h36.6c18.9 0 30.2 10 30.2 26.4v.2c0 12.9-7 21.1-17.2 24.8l19.6 28.6h-20.5zm.4-52.7c0-7.6-5.3-11.4-13.9-11.4h-17.5v23h17.9c8.6 0 13.5-4.6 13.5-11.3z"/><path d="m326.9 173.1v17.1h38.2v16h-38.2v31h-17.6v-80.1h61v16z"/><path d="m423.3 238.6c-24.7 0-42.5-18.4-42.5-41.2v-.2c0-22.8 18-41.4 42.7-41.4s42.5 18.4 42.5 41.2v.2c0 22.8-18 41.4-42.7 41.4zm24.3-41.4c0-13.7-10.1-25.2-24.3-25.2s-24 11.2-24 25v.2c0 13.7 10.1 25.2 24.3 25.2s24-11.2 24-25z"/><path d="m514.5 173.4v63.9h-17.6v-63.9h-24.4v-16.3h66.4v16.3z"/><path d="m587.9 238.6c-24.7 0-42.5-18.4-42.5-41.2v-.2c0-22.8 18-41.4 42.7-41.4s42.5 18.4 42.5 41.2v.2c0 22.8-17.9 41.4-42.7 41.4zm24.3-41.4c0-13.7-10.1-25.2-24.3-25.2s-24 11.2-24 25v.2c0 13.7 10.1 25.2 24.3 25.2s24-11.2 24-25z"/><path d="m674.2 238.4c-12.1 0-24.4-4.2-34-12.8l10.4-12.5c7.2 6 14.8 9.7 23.9 9.7 7.2 0 11.6-2.9 11.6-7.6v-.2c0-4.5-2.7-6.8-16.1-10.2-16.1-4.1-26.6-8.6-26.6-24.5v-.2c0-14.5 11.7-24.2 28-24.2 11.7 0 21.6 3.7 29.8 10.2l-9.2 13.3c-7.1-4.9-14.1-7.9-20.8-7.9-6.8 0-10.3 3.1-10.3 7v.2c0 5.3 3.4 7 17.3 10.5 16.3 4.2 25.4 10.1 25.4 24v.2c.1 16.1-12.1 25-29.4 25z"/></g></svg>