<?xml version="1.0" encoding="utf-8"?>
<!-- Generator: Adobe Illustrator 21.0.0, SVG Export Plug-In . SVG Version: 6.00 Build 0)  -->
<svg version="1.1" id="Layer_1" xmlns="http://www.w3.org/2000/svg" xmlns:xlink="http://www.w3.org/1999/xlink" x="0px" y="0px"
	 viewBox="0 0 30 23.6" style="enable-background:new 0 0 30 23.6;" xml:space="preserve">
<style type="text/css">
	.st0{fill:#FFFFFF;}
</style>
<g>
	<g>
		<g>
			<path class="st0" d="M2.4,17c0.1,0.7-0.2,1.1-0.9,1.2c-0.6,0.1-1.2-0.2-1.3-1c0-0.1,0-0.3,0-0.4l0.6,0c0,0.1,0,0.3,0,0.4
				c0,0.3,0.3,0.5,0.6,0.4c0.4-0.1,0.5-0.3,0.5-0.6c0-0.1-0.1-0.3-0.1-0.4l0.5-0.1C2.3,16.6,2.4,16.8,2.4,17z"/>
			<path class="st0" d="M2.4,13.1l-0.3,0.1L2,13.9L2.3,14l-0.1,0.6l-2-1.1l0.1-0.8l2.2-0.5L2.4,13.1z M1.2,13.3
				c-0.1,0-0.2,0-0.3,0.1l0,0c0.1,0,0.2,0.1,0.3,0.1l0.4,0.2l0.1-0.5L1.2,13.3z"/>
			<path class="st0" d="M4.1,8.6L3.2,8.3C3.1,8.2,2.9,8.2,2.8,8.1l0,0C2.9,8.2,3,8.3,3.2,8.4l0.7,0.7L3.5,9.7L2.7,9.5
				c-0.2,0-0.4-0.1-0.5-0.1l0,0c0.1,0.1,0.3,0.2,0.4,0.3l0.7,0.5L3,10.7L1.2,9.4l0.4-0.7l1,0.2C2.7,8.9,2.8,8.9,3,9l0,0
				C2.9,8.9,2.8,8.8,2.7,8.7L2,8l0.4-0.7L4.4,8L4.1,8.6z"/>
			<path class="st0" d="M6.4,5.9C5.9,6.4,5.3,6.3,4.9,5.8C4.4,5.3,4.5,4.6,5,4.2c0.4-0.4,1-0.5,1.6,0.1C7,4.8,6.9,5.5,6.4,5.9z
				 M5.3,4.6c-0.2,0.2-0.2,0.5,0,0.7c0.2,0.3,0.5,0.3,0.7,0.1C6.2,5.3,6.3,5,6,4.7C5.8,4.4,5.5,4.4,5.3,4.6z"/>
			<path class="st0" d="M9.1,2.2l0.7,1.4L9.2,3.9L8.5,2.4L8,2.7L7.8,2.2l1.5-0.7l0.2,0.5L9.1,2.2z"/>
			<path class="st0" d="M12.1,2.8l-0.4-2.1l1.4-0.2L13.2,1l-0.7,0.1l0.1,0.3l0.7-0.1l0.1,0.5l-0.7,0.1l0.1,0.3l0.7-0.1l0.1,0.5
				L12.1,2.8z"/>
			<path class="st0" d="M19.3,2.5l-0.2,0.6L18.4,3l0.2-0.6l-0.3-1.7L19,0.9l0.1,0.5c0,0.1,0,0.3,0,0.4l0,0c0.1-0.1,0.2-0.2,0.3-0.3
				l0.4-0.4l0.6,0.2L19.3,2.5z"/>
			<path class="st0" d="M24.7,6l-0.5,0.5L23.8,6l0.5-0.5l0.5-1.6l0.5,0.5l-0.2,0.5c0,0.1-0.1,0.3-0.2,0.4l0,0
				c0.1-0.1,0.3-0.1,0.4-0.2L25.8,5l0.5,0.5L24.7,6z"/>
			<path class="st0" d="M26.2,9.4c-0.3-0.6-0.2-1,0.3-1.3l1.2-0.6L28,8l-1.1,0.6c-0.3,0.1-0.3,0.3-0.2,0.6c0.1,0.2,0.3,0.3,0.6,0.1
				l1.1-0.6l0.3,0.6l-1.2,0.6C27.1,10.1,26.6,10,26.2,9.4z"/>
			<path class="st0" d="M27.5,13.2c-0.1-0.7,0.2-1.2,0.8-1.3c0.6-0.1,1.2,0.2,1.4,1c0,0.1,0,0.3,0,0.4l-0.6,0c0-0.1,0-0.3,0-0.4
				c-0.1-0.3-0.3-0.5-0.6-0.4c-0.4,0.1-0.5,0.3-0.4,0.6c0,0.1,0.1,0.3,0.1,0.3l-0.5,0.2C27.6,13.5,27.6,13.4,27.5,13.2z"/>
			<path class="st0" d="M27.6,17.1l0.3-0.1l0.1-0.7l-0.3-0.1l0.1-0.6l2.1,1l-0.1,0.8l-2.2,0.5L27.6,17.1z M28.8,16.8
				c0.1,0,0.2,0,0.3-0.1l0,0c-0.1,0-0.2-0.1-0.3-0.1l-0.4-0.2l0,0.5L28.8,16.8z"/>
		</g>
	</g>
	<g>
		<g>
			<defs>
				<path id="SVGID_1_" d="M20.4,19.5c-0.2,0-0.4-0.2-0.6-0.4c-0.8-0.9-0.9-1.9-1-2.9c-0.1-1.1-0.1-2.3-0.1-3.5c0-0.2,0-0.3-0.1-0.3
					c0,0-0.1-0.1-0.3-0.1c-0.3,0-0.5,0-0.8-0.1c-0.1,0-0.2,0-0.3,0l-0.1,0l0-0.1c-0.1-0.4-0.1-0.5,0-0.7c0.1-0.1,0.2-0.1,0.4-0.1
					c0.1,0,0.2,0,0.3,0l0.2,0c0.2,0,0.4,0,0.5,0l0.1,0c0.1,0,0.2,0,0.2,0c0.1-0.1,0-0.5,0-0.7c0-0.3,0-0.7,0-1c0-0.4,0-0.7,0-1.1
					c0,0,0-0.1,0-0.2c0-0.1-0.1-0.4,0-0.5c0,0,0.3-0.4,0.6-0.3c0.1,0,0.2,0.1,0.3,0.3c0.1,0.4,0.1,1.5,0.1,2.7c0,0.2,0,0.4,0,0.5
					c0,0.3,0,0.4,0,0.4c0,0,0.2,0,0.3,0c0.2,0,0.4,0,0.8,0c0.1,0,0.1,0,0.2,0l0.2,0l0,0.1c0.1,0.3,0.1,0.5,0,0.6
					c-0.1,0.1-0.3,0.1-0.5,0.2c-0.1,0-0.2,0-0.3,0l-0.1,0c-0.3,0-0.5,0.1-0.6,0.1c0,0.6,0,1.2,0,1.8c0,1,0,2,0.1,2.9
					c0,0.4,0.3,0.7,0.5,1.1c0.2,0.3,0.3,0.5,0.5,0.8l0,0.1l-0.1,0.1C20.7,19.3,20.6,19.5,20.4,19.5C20.4,19.5,20.4,19.5,20.4,19.5z
					 M18.4,11.9c0.2,0,0.4,0,0.5,0.1c0.1,0.1,0.2,0.3,0.2,0.5c0,1.3,0,2.4,0.1,3.5c0.1,0.9,0.2,1.9,0.9,2.7c0.2,0.2,0.3,0.3,0.3,0.3
					c0,0,0.1-0.1,0.2-0.1c-0.1-0.2-0.3-0.5-0.4-0.7c-0.3-0.4-0.5-0.8-0.5-1.2c-0.1-1-0.1-2-0.1-2.9c0-0.6,0-1.3,0-1.9v0
					c0-0.2,0.3-0.3,0.9-0.3l0.1,0c0.1,0,0.2,0,0.3,0c0.1,0,0.3,0,0.3,0c0,0,0-0.1,0-0.2c0,0-0.1,0-0.1,0c-0.3,0-0.6,0-0.8,0
					c-0.2,0-0.4,0-0.5-0.1c-0.1-0.1-0.1-0.3-0.1-0.7c0-0.1,0-0.3,0-0.6c0-0.8,0-2.2-0.1-2.6c0,0,0-0.1,0-0.1c-0.1,0-0.2,0.1-0.3,0.2
					c0,0,0,0.1,0,0.2c0,0.1,0,0.1,0.1,0.2c0,0.4,0,0.8,0,1.2c0,0.3,0,0.7,0,1c0,0.5,0,0.8-0.1,0.9c-0.1,0.1-0.3,0.1-0.5,0.1l-0.1,0
					c-0.1,0-0.3,0-0.5,0l-0.2,0c-0.1,0-0.2,0-0.3,0c-0.1,0-0.1,0-0.2,0c0,0.1,0,0.2,0.1,0.3c0.1,0,0.1,0,0.2,0
					C17.8,11.9,18.1,12,18.4,11.9C18.3,11.9,18.4,11.9,18.4,11.9z M14,19.4c-0.2,0-0.3,0-0.5-0.1c-0.8-0.2-1.3-0.8-1.4-1.9
					c0-0.6,0-2.8,0.2-3.9c0.2-1.1,0.9-1.6,1.9-1.5c0.7,0,1.2,0.4,1.5,1l0,0c0.9,1.9,0.9,3.7-0.1,5.4C15.3,19.1,14.7,19.4,14,19.4z
					 M14,12.4c-0.8,0-1.3,0.4-1.4,1.3c-0.2,1-0.3,3.2-0.2,3.8c0.1,0.9,0.5,1.4,1.2,1.6c0.8,0.2,1.5-0.1,1.8-0.8
					c0.9-1.6,0.9-3.3,0.1-5.1l0,0c-0.2-0.5-0.7-0.8-1.2-0.8C14.1,12.4,14.1,12.4,14,12.4z M14,18.7c-0.1,0-0.1,0-0.2,0
					c-0.4-0.1-0.8-0.5-1-1c-0.2-0.7-0.1-3,0.1-3.7c0-0.2,0.1-0.4,0.2-0.5l0-0.1c0.2-0.4,0.4-0.9,1.1-0.9c0,0,0,0,0,0
					c0.8,0,1,0.6,1.2,1.1c0.1,0.4,0.2,0.9,0.3,1.3c0,0.8,0.1,1.6-0.3,2.5l0,0c-0.1,0.3-0.3,0.6-0.5,0.8C14.6,18.6,14.3,18.7,14,18.7
					z M14.2,12.9c-0.4,0-0.6,0.2-0.8,0.7l0,0.1c-0.1,0.1-0.1,0.3-0.2,0.4c-0.1,0.7-0.3,3-0.1,3.5c0.1,0.4,0.4,0.7,0.8,0.8
					c0.3,0.1,0.5,0,0.7-0.3c0.2-0.2,0.3-0.5,0.4-0.7l0,0c0.4-0.8,0.3-1.5,0.3-2.3c0-0.4-0.1-0.9-0.3-1.3
					C14.9,13.2,14.6,12.9,14.2,12.9C14.2,12.9,14.2,12.9,14.2,12.9z M8.2,19.3c-0.1,0-0.2,0-0.2,0l-0.1,0c-0.2,0-0.3-0.1-0.4-0.3
					c-0.1-0.1-0.2-0.4-0.1-0.5c0-0.1,0.1-0.1,0.2-0.1c0.1,0,1.1-0.1,1.3-0.2c0,0,0.1-0.1,0.1-0.1l0,0c0,0,0.7-0.5,0.9-1.4l0-0.1
					c0-0.1,0-0.2,0-0.3c0-0.2,0-0.3,0-0.4c0-0.1,0-0.3-0.1-0.4c0-0.2-0.1-0.3-0.1-0.5l0,0c-0.2-0.6-0.3-0.8-0.4-0.9
					c-0.1-0.2-0.3-0.3-0.5-0.5c-0.2-0.2-0.5-0.4-0.7-0.7c-0.3-0.3-0.5-0.5-0.6-0.6c0-0.1-0.1-0.1-0.2-0.2c-0.1-0.1-0.2-0.2-0.3-0.4
					c-0.1-0.2-0.2-0.5-0.3-0.8c-0.1-0.3-0.1-0.6-0.1-0.9c0-0.3,0.1-0.5,0.2-0.8C6.8,9,7.1,8.3,7.8,7.6C8,7.5,8.3,7.4,8.6,7.4l0,0
					c0.3,0,0.5,0,0.7,0c0.1,0,0.3,0.1,0.4,0.2l0.1,0.1C10,7.8,10,8,10.1,8.1c0,0.1,0,0.1,0,0.2l0,0.1l0,0C9.9,8.5,9.8,8.6,9.6,8.6
					c-0.2,0-0.3,0-0.4-0.1L9,8.4c0,0,0,0-0.1,0c0,0-0.1,0-0.2,0c-0.1,0-0.2,0-0.3,0.1c-0.1,0-0.1,0.1-0.2,0.2C8.1,8.8,8,8.9,7.9,9.1
					C7.8,9.2,7.8,9.4,7.7,9.6c-0.1,0.2-0.1,0.3-0.1,0.5c0,0.1,0,0.3,0.1,0.5c0,0.2,0.1,0.3,0.2,0.5c0.1,0.1,0.2,0.3,0.3,0.4
					c0.1,0.1,0.2,0.2,0.5,0.5c0.3,0.2,0.5,0.5,0.7,0.7c0.2,0.2,0.4,0.4,0.6,0.6c0.2,0.2,0.3,0.4,0.4,0.7c0.1,0.2,0.2,0.4,0.3,0.7
					c0.1,0.2,0.1,0.4,0.2,0.7c0,0.2,0.1,0.4,0.1,0.6c0,0.2,0,0.4,0,0.5c0,0.2,0,0.4-0.1,0.6c0,0.2-0.1,0.4-0.2,0.6
					c-0.1,0.2-0.2,0.4-0.3,0.5c-0.1,0.2-0.2,0.3-0.4,0.5c-0.1,0.1-0.2,0.2-0.3,0.3l0,0C9.5,18.9,9.4,19,9.3,19
					c-0.1,0.1-0.3,0.1-0.5,0.2c-0.2,0-0.3,0.1-0.4,0.1C8.4,19.3,8.3,19.3,8.2,19.3z M7.6,18.7C7.6,18.8,7.6,18.8,7.6,18.7
					c0.1,0.2,0.2,0.2,0.3,0.2L8,19c0.1,0,0.3,0,0.4,0c0.1,0,0.2,0,0.4-0.1c0.2,0,0.3-0.1,0.4-0.1c0.1-0.1,0.2-0.1,0.3-0.2l0,0
					c0.1-0.1,0.2-0.2,0.3-0.3c0.1-0.1,0.2-0.2,0.3-0.4c0.1-0.1,0.2-0.3,0.2-0.5c0.1-0.2,0.1-0.4,0.2-0.5c0-0.2,0.1-0.3,0.1-0.5
					c0-0.2,0-0.4,0-0.5c0-0.2,0-0.4-0.1-0.6c0-0.2-0.1-0.4-0.2-0.6c-0.1-0.2-0.2-0.4-0.3-0.6c-0.1-0.2-0.2-0.4-0.4-0.6
					c-0.2-0.2-0.3-0.4-0.6-0.6c-0.2-0.2-0.5-0.4-0.7-0.7c-0.3-0.2-0.4-0.4-0.5-0.5c-0.1-0.1-0.2-0.3-0.3-0.4
					c-0.1-0.2-0.2-0.3-0.2-0.5c-0.1-0.2-0.1-0.4-0.1-0.6c0-0.2,0-0.4,0.1-0.6c0.1-0.2,0.1-0.4,0.2-0.6C7.8,8.7,7.9,8.6,8,8.5
					c0.1-0.1,0.2-0.2,0.3-0.3c0.1-0.1,0.2-0.1,0.4-0.1c0.2,0,0.3,0,0.3,0c0.1,0,0.1,0,0.2,0.1l0.1,0.1c0.1,0,0.2,0.1,0.2,0
					c0.1,0,0.1-0.1,0.2-0.1c0,0,0,0,0,0C9.7,8.1,9.7,8,9.6,8L9.5,7.9C9.4,7.8,9.3,7.8,9.2,7.8C9,7.7,8.8,7.7,8.6,7.7l0,0
					c-0.2,0-0.4,0-0.5,0.1c-0.7,0.6-0.9,1.2-1,1.4C7,9.6,6.9,9.8,6.9,10c0,0.2,0,0.5,0.1,0.8c0.1,0.3,0.2,0.5,0.3,0.7
					c0.1,0.1,0.2,0.2,0.3,0.3c0.1,0.1,0.1,0.1,0.2,0.2c0.1,0.2,0.3,0.4,0.6,0.6c0.3,0.3,0.5,0.5,0.7,0.7c0.2,0.2,0.4,0.4,0.5,0.6
					c0.1,0.1,0.2,0.4,0.4,1l0,0c0.1,0.2,0.1,0.4,0.1,0.6c0,0.2,0.1,0.3,0.1,0.5c0,0.1,0,0.3,0,0.5c0,0.1,0,0.2,0,0.3l0,0.1
					c-0.2,1-0.9,1.6-1,1.7c-0.1,0.1-0.1,0.1-0.2,0.1C8.8,18.5,8,18.7,7.6,18.7z M10,8.4L10,8.4C10,8.4,10,8.4,10,8.4z M22.5,8.5
					c-0.1,0-0.2,0-0.3,0H22v0.5h0.2c0.1,0,0.2,0,0.2,0c0.1,0,0.1-0.1,0.1-0.2C22.6,8.6,22.5,8.6,22.5,8.5 M22.2,8.3
					c0.2,0,0.3,0,0.4,0c0.1,0.1,0.2,0.2,0.2,0.3c0,0.1,0,0.2-0.1,0.3c0,0-0.1,0-0.2,0.1c0.1,0,0.2,0.1,0.2,0.1
					c0,0.1,0.1,0.1,0.1,0.2v0.1c0,0,0,0.1,0,0.1c0,0,0,0.1,0,0.1l0,0l-0.2,0c0,0,0,0,0,0c0,0,0,0,0,0l0,0V9.4c0-0.1,0-0.3-0.1-0.3
					c0,0-0.1,0-0.3,0l-0.2,0v0.5h-0.2V8.3L22.2,8.3z M21.5,8.2c-0.2,0.2-0.3,0.4-0.3,0.7c0,0.3,0.1,0.5,0.3,0.7
					C21.7,9.9,22,10,22.2,10c0.3,0,0.5-0.1,0.7-0.3c0.2-0.2,0.3-0.4,0.3-0.7c0-0.3-0.1-0.5-0.3-0.7c-0.2-0.2-0.4-0.3-0.7-0.3
					C22,7.9,21.7,8,21.5,8.2 M23.1,9.8c-0.2,0.2-0.5,0.3-0.8,0.3c-0.3,0-0.6-0.1-0.8-0.3c-0.2-0.2-0.3-0.5-0.3-0.8
					c0-0.3,0.1-0.6,0.3-0.8c0.2-0.2,0.5-0.3,0.8-0.3c0.3,0,0.6,0.1,0.8,0.3c0.2,0.2,0.3,0.5,0.3,0.8C23.4,9.3,23.3,9.6,23.1,9.8"/>
			</defs>
			<use xlink:href="#SVGID_1_"  style="overflow:visible;fill:#FFFFFF;"/>
			<clipPath id="SVGID_2_">
				<use xlink:href="#SVGID_1_"  style="overflow:visible;"/>
			</clipPath>
		</g>
	</g>
	<g>
		<g>
			<path class="st0" d="M11.1,23C11,23,11,23,10.8,23c-0.3-0.1-0.4-0.3-0.4-0.6c0-0.3,0-0.6,0.2-0.8c0.1-0.2,0.2-0.4,0.4-0.5
				c0,0,0.1,0,0.1,0c0.1,0,0.1-0.1,0.2,0c0.1,0,0.1,0.1,0.1,0.1c0,0,0,0,0,0l0.1-0.7c0,0,0-0.1,0-0.1c0,0,0,0,0-0.1
				c0,0,0.1,0,0.1-0.1c0,0,0.1,0,0.1-0.1c0,0,0,0,0,0c0.1,0,0.1,0,0.2,0c0,0,0,0,0,0.1c0,0,0,0.1,0,0.1c0,0.1,0,0.2,0,0.2
				c0,0.1,0,0.2,0,0.3c0,0-0.1,0.3-0.1,0.3c0,0.1,0,0.2,0,0.3c0,0.1,0,0.2,0,0.3c0,0,0,0.1,0,0.1c0,0.1,0,0.1,0,0.2
				c0,0.1,0,0.2,0,0.3c0,0,0,0.1,0,0.1c0,0.1,0,0.2,0,0.3c0,0,0,0.1-0.1,0.1c0,0,0,0,0,0c0,0.1-0.1,0.1-0.1,0.1
				c-0.1,0.1-0.1,0.1-0.2,0c0,0,0,0,0,0c0,0,0,0,0,0c0,0,0,0,0-0.1C11.2,22.9,11.2,22.9,11.1,23z M10.7,22.8c0,0-0.2-0.2-0.2-0.2
				C10.5,22.7,10.6,22.8,10.7,22.8z M10.9,22.9C10.9,22.8,10.9,22.8,10.9,22.9C10.9,22.9,10.9,22.9,10.9,22.9L10.9,22.9z M11.5,21.2
				c-0.3,0.2-0.4,0.4-0.5,0.6c0,0.1-0.2,0.7-0.1,0.8c0,0,0.1,0.1,0.1,0.1c0.1,0,0.2,0,0.2-0.1c0-0.1,0-0.2,0-0.3
				c0-0.1,0-0.3,0.1-0.4c0,0,0.1-0.4,0.1-0.4c0-0.1,0-0.2,0-0.2c0,0,0,0,0,0L11.5,21.2z M11.3,22.5L11.3,22.5L11.3,22.5L11.3,22.5
				C11.3,22.5,11.3,22.5,11.3,22.5L11.3,22.5z M11.6,20.8C11.6,20.8,11.6,20.8,11.6,20.8C11.6,20.8,11.6,20.8,11.6,20.8
				C11.6,20.8,11.6,20.8,11.6,20.8C11.6,20.8,11.6,20.8,11.6,20.8z M11.7,22.5c-0.1,0,0,0.2,0,0.3c0,0,0,0,0,0
				C11.7,22.7,11.7,22.5,11.7,22.5z M11.7,22C11.7,22,11.7,22,11.7,22C11.6,22,11.6,22,11.7,22z M11.7,21C11.7,21,11.7,21,11.7,21
				L11.7,21L11.7,21L11.7,21C11.7,21,11.7,21,11.7,21L11.7,21L11.7,21C11.7,21.1,11.7,21.1,11.7,21L11.7,21L11.7,21L11.7,21
				C11.7,21.1,11.8,21.1,11.7,21L11.7,21z M11.8,20.4L11.8,20.4C11.8,20.4,11.8,20.4,11.8,20.4C11.8,20.4,11.8,20.4,11.8,20.4
				L11.8,20.4C11.7,20.4,11.7,20.4,11.8,20.4C11.7,20.4,11.7,20.4,11.8,20.4L11.8,20.4C11.7,20.4,11.8,20.4,11.8,20.4
				C11.8,20.5,11.8,20.5,11.8,20.4C11.8,20.5,11.8,20.4,11.8,20.4L11.8,20.4z M11.8,20.5L11.8,20.5C11.8,20.5,11.8,20.5,11.8,20.5
				C11.8,20.5,11.8,20.5,11.8,20.5z M11.8,20.6L11.8,20.6C11.8,20.5,11.8,20.5,11.8,20.6L11.8,20.6L11.8,20.6
				C11.8,20.6,11.8,20.6,11.8,20.6L11.8,20.6z M11.8,20.2L11.8,20.2C11.8,20.2,11.8,20.2,11.8,20.2l0,0.1c0,0,0,0,0,0l0,0.1
				c0,0,0,0,0,0v0c0,0,0,0,0,0l0,0c0,0,0,0.3,0,0.3l0,0.3c0,0,0-0.1,0-0.1v0c0,0,0-0.1,0-0.1c0,0,0,0,0,0c0,0,0,0,0,0c0,0,0,0,0,0
				c0,0,0,0,0,0l0,0l0,0c0,0,0,0,0,0l0,0h0c0,0,0,0,0,0v0c0,0,0,0,0,0h0l0,0c0,0,0,0,0,0l0,0l0,0c0,0,0,0,0,0v0l0,0l0,0l0,0v0
				c0,0,0,0,0,0L11.8,20.2L11.8,20.2C11.9,20.3,11.9,20.3,11.8,20.2L11.8,20.2C11.9,20.2,11.9,20.2,11.8,20.2
				C11.9,20.2,11.9,20.2,11.8,20.2L11.8,20.2z M11.8,20.4L11.8,20.4C11.8,20.4,11.8,20.4,11.8,20.4L11.8,20.4
				C11.8,20.4,11.8,20.4,11.8,20.4L11.8,20.4z M11.8,20.4C11.8,20.4,11.8,20.4,11.8,20.4L11.8,20.4z"/>
			<path class="st0" d="M13.3,22.6c0,0-0.1,0.1-0.1,0.1c-0.1,0.1,0,0-0.1,0c-0.1,0,0,0-0.1,0c0,0-0.1,0-0.1,0.1
				c-0.1,0.1-0.2,0.1-0.3,0l0.1,0.1l-0.1,0l0,0l0.1,0.1c-0.2,0-0.4-0.2-0.5-0.4C12,22.3,12,22.2,12,22c0-0.2,0.2-0.5,0.3-0.7
				c0.1-0.2,0.3-0.3,0.5-0.3c0.1,0,0.1,0,0.2,0c0,0,0.1,0,0.2,0c0.2,0.1,0.1,0.5,0,0.6c-0.1,0.1-0.2,0.2-0.3,0.4
				c-0.1,0.1-0.1,0.1-0.2,0.2c0,0-0.2,0.1-0.2,0.2c0.2,0.6,0.6,0.1,0.8,0C13.3,22.5,13.3,22.5,13.3,22.6z M12.2,21.7
				C12.3,21.7,12.3,21.6,12.2,21.7C12.2,21.7,12.2,21.7,12.2,21.7z M12.5,21.4C12.5,21.4,12.5,21.4,12.5,21.4c0.1-0.1,0-0.1,0.1-0.2
				c-0.1,0.1-0.1,0.1-0.2,0.2C12.5,21.5,12.5,21.4,12.5,21.4z M12.8,21.6c0-0.1,0.1-0.2,0-0.2c-0.1,0-0.2,0.2-0.2,0.2
				c-0.1,0.1-0.2,0.3-0.2,0.5C12.7,21.9,12.7,21.9,12.8,21.6z M12.7,21.2c0,0-0.1,0-0.1,0.1c0,0,0.1,0.1,0.1,0.1
				C12.7,21.3,12.7,21.2,12.7,21.2z M12.8,21.2L12.8,21.2C12.7,21.1,12.7,21.1,12.8,21.2L12.8,21.2z M12.9,22.7
				c-0.1,0-0.1,0-0.2,0.1C12.8,22.8,12.8,22.8,12.9,22.7C12.9,22.7,12.9,22.7,12.9,22.7z M12.8,22.9C12.8,22.9,12.8,22.9,12.8,22.9
				C12.8,22.9,12.8,22.9,12.8,22.9c0.1-0.1,0.2-0.1,0.2-0.1l0,0c0,0,0,0,0,0c0,0,0,0,0,0L12.8,22.9C12.7,23,12.7,23,12.8,22.9
				L12.8,22.9L12.8,22.9z M13,22.8L13,22.8C13,22.9,13,22.9,13,22.8z M13.2,22.7c0,0-0.1,0-0.1,0C13.1,22.7,13.1,22.8,13.2,22.7z
				 M13.1,21.5C13.2,21.5,13.2,21.5,13.1,21.5C13.2,21.4,13.2,21.4,13.1,21.5C13.1,21.4,13.1,21.4,13.1,21.5z"/>
			<path class="st0" d="M14.1,22.9c0,0,0-0.2,0-0.4c0-0.2,0-0.4,0-0.6c0-0.2,0-0.3,0.1-0.5c0-0.1,0-0.2,0-0.3c0,0,0-0.1,0-0.1
				c0,0,0-0.1,0.1-0.1c0.1,0,0.2,0,0.2,0.1c0.1,0.1,0.1,0.1,0.2,0c0,0,0,0,0-0.1c0.2-0.2,0.3-0.3,0.5-0.4c0,0,0.1,0,0.1-0.1
				c0,0.1,0,0.1,0,0.1c0,0,0,0,0,0.1c-0.1,0-0.2,0.1-0.2,0.2c-0.1,0.1-0.3,0.2-0.3,0.4c0,0,0,0.1-0.1,0.1c0,0.1-0.1,0.1-0.1,0.2
				c0,0.1-0.1,0.1-0.1,0.2c0,0.2-0.1,0.3-0.1,0.4c0,0.1,0,0.1,0,0.2c0,0,0,0.1,0,0.1c0,0,0,0.1,0,0.1c0,0,0,0.1,0,0.1
				c0,0.1,0,0.1-0.1,0.1c-0.1,0-0.1,0-0.1,0c0,0-0.1,0-0.1,0.1C14.2,23,14.2,22.9,14.1,22.9z M14.5,22.7c0-0.1,0-0.2,0-0.2
				c0-0.1,0-0.1-0.1-0.2C14.4,22.4,14.4,22.6,14.5,22.7C14.5,22.7,14.5,22.7,14.5,22.7z"/>
			<path class="st0" d="M16.3,22.1C16.3,22.1,16.3,22.1,16.3,22.1l-0.1,0.5c0,0,0,0,0,0c0,0,0,0,0,0c0,0.1,0.1,0.1,0,0.2
				c0,0,0,0,0,0c0,0.1,0,0.1-0.1,0.1c-0.1,0-0.1,0-0.2,0c-0.1,0-0.1-0.1-0.1-0.1c0,0-0.1,0.1-0.1,0.1c0,0,0,0,0,0
				c-0.1,0-0.2,0-0.3,0c0,0-0.1,0-0.1,0c-0.1,0-0.3-0.3-0.3-0.4c0-0.2,0-0.4,0.1-0.7c0,0,0-0.1,0-0.1c0,0,0-0.1,0-0.1
				c0,0,0-0.1,0-0.1c0.1-0.1,0.1-0.2,0.2-0.3c0,0,0.1-0.1,0.1-0.1c0,0,0,0,0,0c0-0.1,0.2-0.1,0.3-0.1c0,0,0.1,0,0.2,0c0,0,0,0,0,0
				c0,0,0,0,0,0c0,0,0,0,0,0c0-0.1,0.1-0.1,0.2-0.1l0.1,0c0.1,0,0.1,0,0.1,0.1c0,0.1,0,0.2,0,0.2c0,0.1,0,0.2,0,0.3
				c0,0.1,0,0.2,0,0.2c0,0,0,0,0,0.1L16.3,22.1C16.3,22,16.3,22,16.3,22.1C16.3,22.1,16.3,22.1,16.3,22.1z M15.4,21.5
				C15.4,21.5,15.4,21.5,15.4,21.5c-0.1,0-0.1,0-0.1,0.1c0,0-0.1,0.1-0.1,0.2c0,0,0,0,0,0.1c0,0,0,0,0,0
				C15.3,21.7,15.3,21.6,15.4,21.5C15.4,21.5,15.4,21.5,15.4,21.5z M16,21.2C16,21.2,16,21.2,16,21.2C16,21.3,16,21.3,16,21.2
				C16,21.3,16,21.3,16,21.2c-0.1,0.1-0.2,0.1-0.3,0.2c0,0.1-0.1,0.1-0.1,0.2l0,0.1c0,0.1-0.1,0.1-0.1,0.2c0,0,0,0,0,0
				c0,0,0,0,0,0.1c0,0.1,0,0.1,0,0.2c0,0.1,0,0.2,0,0.2c0,0.1,0.1,0.2,0.2,0.2c0,0,0,0,0,0c0.1,0,0.1,0,0.1,0c0,0,0,0,0,0
				c0-0.1,0-0.1,0-0.2c0,0,0,0,0,0c0.1,0,0.1-0.5,0.1-0.5c0-0.1,0-0.2,0-0.4c0,0,0-0.1,0-0.1C16,21.3,16,21.3,16,21.2z M16,22.4
				L16,22.4L16,22.4C16,22.3,16,22.3,16,22.4L16,22.4L16,22.4c0-0.1,0-0.1,0-0.1l0,0l0,0h0l0,0v0c0,0,0,0,0,0c0,0,0,0,0,0
				c0,0,0,0,0,0l0,0c0,0,0,0,0,0h0c0,0,0,0,0,0c0,0,0,0,0,0l0-0.1l0,0h0l0,0v0c0,0,0,0,0,0c0,0,0,0,0,0l0,0c0,0,0,0,0,0c0,0,0,0,0,0
				l0,0v0c0,0,0,0,0,0c0,0,0,0,0,0c0,0,0,0,0,0c0,0,0,0,0,0c0,0,0,0,0,0c0,0,0,0,0,0s0,0,0,0v0C16,22.3,16,22.3,16,22.4
				C16,22.3,16,22.3,16,22.4L16,22.4C16,22.3,16,22.3,16,22.4L16,22.4C16,22.3,16,22.3,16,22.4L16,22.4C16,22.3,16,22.3,16,22.4
				L16,22.4C16,22.4,16,22.4,16,22.4L16,22.4C16,22.4,16,22.4,16,22.4L16,22.4C16,22.4,16,22.4,16,22.4L16,22.4L16,22.4
				C16,22.4,16,22.4,16,22.4C16,22.4,16,22.4,16,22.4L16,22.4L16,22.4C16,22.4,16,22.4,16,22.4L16,22.4L16,22.4
				C16,22.4,16,22.4,16,22.4C16,22.4,16,22.4,16,22.4C16,22.4,16,22.4,16,22.4C16,22.4,16,22.4,16,22.4C16,22.4,16,22.5,16,22.4
				C16,22.5,16,22.5,16,22.4L16,22.4L16,22.4C16,22.5,16,22.5,16,22.5h0c0,0,0,0,0,0v0c0,0,0,0,0,0h0v0l0,0h0l0,0h0c0,0,0,0,0,0
				c0,0,0,0,0,0c0,0,0,0,0,0l0,0L16,22.4C16,22.5,16,22.5,16,22.4L16,22.4L16,22.4L16,22.4L16,22.4C16,22.4,16,22.4,16,22.4L16,22.4
				L16,22.4z M16,22.6L16,22.6C16,22.6,16,22.6,16,22.6C16,22.6,16,22.6,16,22.6L16,22.6z"/>
			<path class="st0" d="M16.9,22.5c0,0.1,0,0.1,0,0.2c0,0.2,0,0.2-0.2,0.2c0,0-0.1,0-0.1,0c-0.1,0,0,0-0.1-0.1c0-0.1,0-0.2,0-0.3
				c0-0.2,0.1-0.3,0.1-0.5c0-0.1,0.1-0.3,0.1-0.4c0-0.1,0-0.2,0-0.3c0,0,0-0.1,0-0.1c0.1,0,0.1-0.1,0.1-0.2c0,0,0,0,0-0.1
				c0,0,0,0,0,0c0,0,0.1,0,0.1,0c0.1-0.1,0.2,0,0.2,0c0,0,0,0,0,0c0,0.1,0,0.2,0,0.3c0,0.1-0.1,0.4-0.1,0.5c0,0.1-0.1,0.3-0.1,0.4
				C16.9,22.3,16.9,22.5,16.9,22.5z M16.7,22.4L16.7,22.4C16.7,22.4,16.7,22.4,16.7,22.4C16.7,22.4,16.7,22.4,16.7,22.4L16.7,22.4z
				 M16.7,21.3C16.7,21.3,16.8,21.3,16.7,21.3L16.7,21.3C16.7,21.3,16.7,21.3,16.7,21.3C16.7,21.3,16.7,21.2,16.7,21.3
				C16.7,21.3,16.7,21.3,16.7,21.3L16.7,21.3L16.7,21.3C16.7,21.3,16.7,21.4,16.7,21.3L16.7,21.3L16.7,21.3L16.7,21.3L16.7,21.3
				c0,0.1,0,0.1,0,0.1l0,0l0,0l0,0l0,0v0c0,0,0,0,0,0l0,0c0,0,0,0,0,0c0,0,0,0,0,0c0,0,0,0,0,0h0c0,0,0,0,0,0c0-0.1,0-0.1,0-0.1
				V21.3C16.8,21.4,16.8,21.4,16.7,21.3L16.7,21.3L16.7,21.3L16.7,21.3z M16.9,20.7C16.9,20.7,16.9,20.7,16.9,20.7
				C16.9,20.7,16.8,20.7,16.9,20.7c-0.2,0-0.2-0.1-0.2-0.1c0,0,0-0.1,0.1-0.1c0,0,0.2-0.1,0.2-0.1c0,0,0.2-0.1,0.3-0.1
				c0-0.1,0.1,0,0.2,0c0.1,0,0.1,0.1,0,0.1c0,0-0.4,0.1-0.4,0.2C17.1,20.7,17,20.7,16.9,20.7C17,20.7,16.9,20.7,16.9,20.7z
				 M16.9,20.6c0,0-0.1,0-0.2,0.1C16.7,20.6,16.8,20.6,16.9,20.6C16.8,20.6,16.8,20.6,16.9,20.6C16.9,20.6,16.9,20.6,16.9,20.6z
				 M17.1,20.4L17,20.5l-0.1,0l-0.1,0c0,0,0.1,0,0.1,0c0,0,0,0,0,0.1c0,0,0.1-0.1,0.1-0.1C17.1,20.5,17,20.5,17.1,20.4
				C17.1,20.5,17.2,20.5,17.1,20.4C17.2,20.4,17.1,20.4,17.1,20.4z M16.9,22.3L16.9,22.3L16.9,22.3C16.9,22.3,16.9,22.2,16.9,22.3
				l0-0.1l0,0c0,0,0,0,0,0v0v0l0,0l0,0v0c0,0,0,0,0,0c0,0,0,0,0,0c0,0,0,0,0,0l0,0c0,0,0,0,0,0h0c0,0,0,0,0,0c0,0,0,0,0,0l0-0.1l0,0
				h0l0,0l0,0c0,0,0,0,0,0c0,0,0,0,0,0l0,0c0,0,0,0,0,0c0,0,0,0,0,0l0,0.1v0c0,0,0,0,0,0c0,0,0,0,0,0c0,0,0,0,0,0c0,0,0,0,0,0
				c0,0,0,0,0,0c0,0,0,0,0,0s0,0,0,0v0c0,0,0,0,0,0c0,0,0,0,0,0v0c0,0,0,0,0,0L16.9,22.3C16.9,22.2,16.9,22.2,16.9,22.3L16.9,22.3
				C16.9,22.2,16.9,22.2,16.9,22.3L16.9,22.3C16.9,22.3,16.9,22.3,16.9,22.3L16.9,22.3C16.9,22.3,16.9,22.3,16.9,22.3L16.9,22.3
				C16.9,22.3,16.9,22.3,16.9,22.3L16.9,22.3L16.9,22.3C16.9,22.3,16.9,22.3,16.9,22.3C16.9,22.4,16.9,22.4,16.9,22.3L16.9,22.3
				L16.9,22.3C16.9,22.4,16.9,22.4,16.9,22.3L16.9,22.3L16.9,22.3C16.9,22.4,16.9,22.4,16.9,22.3C16.8,22.4,16.8,22.4,16.9,22.3
				C16.8,22.4,16.8,22.4,16.9,22.3C16.8,22.4,16.8,22.4,16.9,22.3C16.8,22.4,16.8,22.4,16.9,22.3c-0.1,0.1-0.1,0.1-0.1,0.1v0l0,0
				c0,0,0,0,0,0h0c0,0,0,0,0,0l0,0c0,0,0,0,0,0h0v0l0,0h0l0,0h0c0,0,0,0,0,0c0,0,0,0,0,0c0,0,0,0,0,0v0l0,0
				C16.9,22.4,16.9,22.4,16.9,22.3L16.9,22.3L16.9,22.3L16.9,22.3L16.9,22.3C16.9,22.3,16.9,22.3,16.9,22.3L16.9,22.3L16.9,22.3z"/>
			<path class="st0" d="M17.6,22.6c0.1,0,0.2,0,0.3,0c0.1,0,0.2,0,0.3,0c0,0,0.1,0,0,0v0.1c0,0,0,0.1,0,0.1c0,0.1-0.1,0.1-0.2,0.1
				c-0.2,0-0.4,0-0.6,0c-0.1,0-0.2,0-0.3-0.1c0,0,0-0.2,0-0.2c0,0,0,0,0,0c0,0,0-0.1,0-0.1c0,0,0,0,0-0.1c0,0,0.1-0.1,0.1-0.1
				c0.1-0.1,0.1-0.2,0.2-0.3c0.1-0.3,0.3-0.5,0.4-0.8c-0.1,0-0.1,0-0.2,0c-0.1,0-0.1,0-0.2-0.1c0,0-0.1-0.1-0.1-0.2
				c0,0,0.1-0.1,0.2-0.1c0.2-0.1,0.3-0.1,0.5,0c0.1,0,0.1,0,0.2,0c0.1,0,0.1,0,0.1,0c0,0.1,0,0.2-0.1,0.3c-0.1,0.1-0.2,0.4-0.3,0.5
				c0,0-0.1,0.1-0.1,0.1c0,0,0,0,0,0c0,0-0.1,0-0.1,0.1c0,0.1,0,0.1-0.1,0.2L17.6,22.6z M17.8,22.4c0,0,0,0.1-0.1,0.1
				C17.7,22.4,17.7,22.4,17.8,22.4z M17.8,22.3L17.8,22.3c0-0.1,0-0.1,0-0.1l0.1,0C17.9,22.2,17.8,22.3,17.8,22.3L17.8,22.3z M18,22
				c0.1-0.1,0.1-0.2,0.2-0.3c0,0,0,0,0,0c0,0,0,0,0,0c0,0,0,0,0,0c0,0.1-0.1,0.1-0.1,0.2c0,0,0,0,0,0C18,21.9,18,22,18,22
				C17.9,22.1,17.9,22.1,18,22C17.9,22.1,18,22,18,22z M18.1,21.5C18.1,21.5,18,21.5,18.1,21.5C18,21.5,18,21.6,18,21.7
				C18.1,21.7,18,21.6,18.1,21.5z M18.1,21.4C18.1,21.4,18.1,21.3,18.1,21.4C18.1,21.3,18.1,21.4,18.1,21.4
				C18.1,21.4,18.1,21.4,18.1,21.4C18.1,21.4,18.1,21.4,18.1,21.4z M18.1,21.3c0.1,0,0.1-0.1,0.1-0.1C18.1,21.2,18.1,21.2,18.1,21.3
				z M18.3,22.8c-0.1,0-0.1,0.1,0,0.1C18.3,22.8,18.3,22.8,18.3,22.8z"/>
		</g>
	</g>
</g>
</svg>
