<?xml version="1.0" encoding="utf-8"?>
<!-- Generator: Adobe Illustrator 21.0.0, SVG Export Plug-In . SVG Version: 6.00 Build 0)  -->
<svg version="1.1" id="Layer_1" xmlns="http://www.w3.org/2000/svg" xmlns:xlink="http://www.w3.org/1999/xlink" x="0px" y="0px"
	 viewBox="0 0 50 46.8" style="enable-background:new 0 0 50 46.8;" xml:space="preserve">
<style type="text/css">
	.st0{fill:#A01F60;}
</style>
<g>
	<g>
		<g>
			<path class="st0" d="M2.3,29.4C2.3,29.3,2.3,29.2,2.3,29.4C2.3,29.3,2.3,29.4,2.3,29.4z"/>
			<path class="st0" d="M1.6,28.9c0,0.1-0.1,0.2-0.1,0.3c0,0.3,0,0.5,0.1,0.4c0,0,0.1,0,0.1-0.1c0,0.1,0,0.2,0,0.3
				c0.1,0.7,0.2,1.3,0.2,1.2c0-0.1,0.1-0.1,0.1-0.1c0,0,0,0.1,0,0.1c0,0,0.1,0.1,0.1-0.1l0.1,0c0,0,0,0,0,0C2,31.7,2,32.2,2,32.6
				c0.1,0.4,0.1,0.8,0.2,1.5L2.2,34c0.4,1.6,1.2,3.1,2.3,4.1c0.5,0.5,1.1,1,1.6,1.4c0.6,0.4,1.1,0.8,1.7,1.1
				c2.4,1.3,4.8,2.2,7.2,2.9c0.4,0.1,0.8,0.2,1.2,0.2c0.4,0.1,0.8,0.2,1.2,0.3c0.8,0.2,1.7,0.4,2.5,0.6c1.7,0.4,3.5,0.8,5.2,1
				c1.9,0.2,3.9,0.3,5.8,0.3c1.9-0.1,3.8-0.3,5.5-0.8c0.4-0.1,0.7-0.2,1.1-0.2c0.3,0,0.7-0.1,1-0.1c1.5-0.6,3.2-1.4,4.7-2.7
				c0.8-0.6,1.5-1.4,2.1-2.2c0.3-0.4,0.6-0.8,0.9-1.3c0.1-0.2,0.3-0.5,0.4-0.7c0.1-0.2,0.2-0.5,0.3-0.7c0,0.1-0.1,0.1-0.1,0.2
				c0.2-0.5,0.4-0.9,0.6-1.4c0.2-0.4,0.3-0.9,0.4-1.3c0.3-0.9,0.5-1.7,0.5-2.7c-0.1,0,0-0.3-0.1-0.5c0.2-0.2,0.3-3.1-0.2-5.9
				c-0.4-2.8-1.2-5.5-1.2-5.8c-0.1-0.2-0.1-0.4-0.2-0.6c-0.1-0.5-0.2-1-0.3-1.5c-0.1-0.5-0.2-1-0.4-1.5l-0.2-0.8
				c-0.1-0.3-0.2-0.5-0.3-0.7c-0.2-0.5-0.4-1-0.6-1.4c-0.9-1.8-2.1-3.4-3.4-4.6C41,8.4,40.3,8,39.7,7.7c-0.2-0.2-0.3-0.3-0.5-0.4
				c-0.2-0.1-0.4-0.2-0.6-0.4c-0.6-0.8-1.1-1.3-1.5-1.4c-0.3-0.2-0.4-0.1-0.1,0.2c-0.3-0.2-0.6-0.3-0.9-0.5
				c-0.3-0.2-0.6-0.3-0.9-0.5c-0.3-0.2-0.6-0.3-0.9-0.5c-0.3-0.1-0.6-0.3-0.9-0.4c-0.5-0.2-1.1-0.4-1.7-0.5
				c-0.5-0.1-0.7-0.3-0.9-0.5c-1.3-0.3-0.8-0.4-2.2-0.8c-0.1-0.1-0.3-0.1-0.7-0.2c-0.3-0.1-0.8-0.1-1.2-0.1c-0.4,0-0.9,0-1.2,0
				c-0.3,0-0.6,0-0.7-0.1l0.2,0c-0.4-0.1-0.7-0.1-1.1-0.2c-0.3-0.1-0.7-0.1-1-0.2c-0.3-0.1-0.7-0.1-1-0.1c-0.3,0-0.7-0.1-1.1,0
				c-2.2,0.1-4.5,0.6-6.7,1.6c-2.1,1-4,2.5-5.5,4.2C8.8,7,9.2,6.1,9.5,6.2c-1.8,1.8-3.4,4-4.4,6.4C5,12.8,5,12.9,4.9,13
				c-0.1,0.1-0.1,0.2-0.2,0.3c-0.1,0.2-0.2,0.4-0.3,0.5c-0.2,0.4-0.2,0.5-0.2,0.6c0,0.1,0,0.2-0.1,0.5l-0.2,0
				C4,15.7,3.5,16,3.4,16.8c0.1,0.1,0,0.3-0.1,0.6c-0.2,0-0.2,0.8-0.4,0.7l0,0c0,0.2-0.1,0.3-0.1,0.5c0,0.2,0,1-0.1,1.9
				c0,0.9,0,1.7,0,1.9l-0.1,0.1c-0.1,0.4,0,0.7,0.1,0.4l-0.1,0.5l0-0.1l-0.1,0.5c0,0.1-0.1,0.2-0.2,0c0,0.3,0,0.7-0.1,1
				c0.3-0.8,0.6-1.9,1-2.7c0,0.4-0.3,1-0.3,1.4c-0.2,0.4-0.5,1.4-0.7,2.1c0,0.2,0.2,0.3,0,0.7c-0.2,0.2-0.1,0.4-0.2,0.7
				c0-0.4,0.1-0.7,0.1-1.1c-0.2,0-0.3,0.9-0.4,1.2c0,0.2-0.1,0.9-0.1,1.3C1.6,28.5,1.6,28.7,1.6,28.9c0,0,0,0.1,0,0.1
				C1.6,29,1.6,28.9,1.6,28.9z M1.7,29.1c0-0.2,0.1-0.4,0.1-0.3c0,0,0-0.1,0-0.1l0.1-0.2c0,0.1,0,0.3,0,0.5c0-0.1,0-0.1,0-0.2
				c-0.1,0.2-0.1,0.7-0.1,1c0.1,0,0.1-0.1,0.1-0.1c0,0.1,0,0.2,0,0.4c0,0,0,0.1,0,0.1l0,0.1c0,0.1,0,0.2,0,0.3c0,0.1,0,0.1-0.1,0.2
				c0-0.1,0-0.2,0-0.3c0,0.2-0.1-0.4-0.3-1C1.7,29.4,1.7,29.3,1.7,29.1z"/>
			<path class="st0" d="M2.7,29.7C2.7,29.6,2.7,29.6,2.7,29.7C2.7,29.6,2.7,29.7,2.7,29.7C2.7,29.7,2.7,29.7,2.7,29.7z"/>
			<path class="st0" d="M2.4,29.7C2.4,29.7,2.4,29.7,2.4,29.7c0-0.1,0-0.2,0-0.3C2.3,29.5,2.3,29.6,2.4,29.7
				C2.4,29.7,2.4,29.7,2.4,29.7z"/>
		</g>
	</g>
</g>
</svg>
