<?xml version="1.0" encoding="utf-8"?>
<!-- Generator: Adobe Illustrator 21.0.0, SVG Export Plug-In . SVG Version: 6.00 Build 0)  -->
<svg version="1.1" id="Layer_1" xmlns="http://www.w3.org/2000/svg" xmlns:xlink="http://www.w3.org/1999/xlink" x="0px" y="0px"
	 viewBox="0 0 50 46.8" style="enable-background:new 0 0 50 46.8;" xml:space="preserve">
<style type="text/css">
	.st0{fill:#7FB743;}
</style>
<g>
	<g>
		<g>
			<path class="st0" d="M33.9,45.4c0.1,0,0.3,0,0.4,0c0.3,0,0.5-0.1,0.4-0.1c0,0,0-0.1-0.1-0.1c0.1,0,0.2,0,0.3-0.1
				c0.7-0.1,1.3-0.3,1.2-0.3c-0.1,0-0.1,0-0.1-0.1c0,0,0.1,0,0,0c0,0,0.1-0.1-0.1-0.1l0-0.1c0,0,0,0,0,0c0.8,0.1,1.2,0,1.6,0
				c0.4-0.1,0.8-0.2,1.5-0.3l-0.1,0c1.6-0.5,2.9-1.4,3.9-2.4c0.5-0.5,0.9-1,1.3-1.6c0.4-0.5,0.7-1.1,1-1.7c1.1-2.2,1.7-4.5,2.2-6.8
				c0-0.4,0.1-0.8,0.1-1.1c0.1-0.4,0.1-0.7,0.2-1.1c0.1-0.8,0.3-1.6,0.4-2.4c0.2-1.6,0.5-3.3,0.5-4.9c0.1-1.8,0-3.6-0.3-5.5
				c-0.3-1.8-0.7-3.6-1.3-5.1c-0.2-0.4-0.2-0.7-0.3-1c-0.1-0.3-0.1-0.6-0.2-1c-0.7-1.4-1.8-3-3.2-4.5c-0.7-0.7-1.6-1.4-2.5-2
				c-0.5-0.3-0.9-0.6-1.5-0.8c-0.3-0.1-0.5-0.2-0.8-0.3C38.1,2,37.9,2,37.6,1.9c0.1,0,0.2,0.1,0.2,0.1c-0.6-0.2-1.1-0.4-1.5-0.5
				c-0.5-0.1-1-0.3-1.5-0.4c-1-0.2-1.9-0.4-3-0.4c0,0.1-0.3,0.1-0.5,0.1C31.1,0.6,28,0.7,25,1.3c-3,0.6-5.9,1.5-6.3,1.6
				C18.5,3,18.3,3,18.1,3.1c-0.5,0.1-1,0.3-1.6,0.4C16,3.6,15.5,3.8,14.9,4l-0.8,0.3c-0.3,0.1-0.6,0.2-0.8,0.3
				c-0.5,0.2-1,0.5-1.5,0.7C9.9,6.4,8.3,7.7,7.2,9c-0.3,0.7-0.8,1.4-0.9,2c-0.2,0.2-0.3,0.4-0.4,0.6c-0.1,0.2-0.1,0.4-0.3,0.7
				c-0.8,0.6-1.2,1.2-1.4,1.6c-0.2,0.3,0,0.4,0.3,0c-0.1,0.3-0.3,0.7-0.4,1c-0.1,0.3-0.3,0.7-0.4,1c-0.1,0.3-0.3,0.6-0.4,1
				c-0.1,0.3-0.2,0.6-0.3,0.9c-0.2,0.6-0.2,1.1-0.3,1.7c-0.1,0.5-0.2,0.7-0.4,1c-0.1,1.3-0.3,0.9-0.5,2.2c-0.1,0.1-0.1,0.3-0.1,0.7
				c0,0.3,0,0.8,0.1,1.2c0,0.4,0.1,0.9,0.1,1.2c0,0.3,0.1,0.6,0.1,0.7l0-0.2c0,0.4,0,0.7,0,1.1c0,0.3-0.1,0.7-0.1,1c0,0.3,0,0.6,0,1
				c0,0.3,0,0.7,0.1,1.1c0.4,2.1,1.4,4.3,2.8,6.2C6,38.3,7.9,40,9.9,41.2c0.2-0.1-0.9-0.5-0.7-0.7c2.2,1.5,4.7,2.8,7.5,3.4
				c0.1,0,0.2,0.1,0.4,0.1c0.1,0,0.3,0.1,0.4,0.1c0.2,0.1,0.4,0.2,0.5,0.2c0.4,0.1,0.6,0.1,0.7,0.1c0.1,0,0.2,0,0.5,0l0,0.2
				c0.9,0,1.2,0.4,2.1,0.4c0.1-0.1,0.4,0,0.6,0c0,0.2,0.9,0.1,0.8,0.3l0,0c0.2,0,0.3,0,0.5,0.1c0.2,0,1.1-0.1,1.9-0.1
				c0.9-0.1,1.8-0.1,1.9-0.2l0.1,0c0.5,0,0.7-0.1,0.4-0.1l0.6,0l-0.1,0l0.6,0c0.1,0,0.2,0.1,0,0.2c0.3,0,0.7-0.1,1,0
				c-0.9-0.2-2-0.4-2.9-0.7c0.4,0,1.1,0.1,1.5,0.1c0.5,0.2,1.5,0.3,2.3,0.4c0.2,0,0.3-0.2,0.7-0.1c0.2,0.1,0.4,0,0.8,0.1
				c-0.4,0.1-0.8,0-1.1,0c0.1,0.2,0.9,0.2,1.2,0.2c0.1-0.1,0.9,0,1.4,0C33.5,45.4,33.7,45.4,33.9,45.4c0,0,0.1,0,0.1,0
				C34,45.4,34,45.4,33.9,45.4z M34.1,45.2c-0.2,0-0.4,0-0.4-0.1c0,0-0.1,0-0.1,0l-0.2,0c0.1,0,0.3-0.1,0.5-0.1c-0.1,0-0.1,0-0.2,0
				c0.2,0.1,0.7,0,1,0c0-0.1-0.1-0.1-0.1-0.1c0.1,0,0.2,0,0.4-0.1c0,0,0.1,0,0.1,0l0.1,0c0.1,0,0.2,0,0.3,0c0.1,0,0.1,0,0.2,0
				c-0.1,0-0.2,0-0.3,0c0.2,0-0.4,0.2-1,0.3C34.4,45.2,34.3,45.2,34.1,45.2z"/>
		</g>
	</g>
</g>
</svg>
