<?xml version="1.0" encoding="utf-8"?>
<!-- Generator: Adobe Illustrator 21.0.0, SVG Export Plug-In . SVG Version: 6.00 Build 0)  -->
<svg version="1.1" id="Layer_1" xmlns="http://www.w3.org/2000/svg" xmlns:xlink="http://www.w3.org/1999/xlink" x="0px" y="0px"
	 viewBox="0 0 50 46.8" style="enable-background:new 0 0 50 46.8;" xml:space="preserve">
<style type="text/css">
	.st0{fill:#6BBF5B;}
	.st1{fill:#010101;}
</style>
<g>
	<path class="st0" d="M31.9,44.3C20.9,46.1,8.6,38.4,4.8,26.9c-4.1-12.5-3.4-21,8.6-24.3s31.7-0.3,34.7,12.5
		C50.6,25.6,41.9,42.7,31.9,44.3z"/>
	<path class="st1" d="M28.7,44.8c-4.5,0-9-1.4-13.2-4C10.3,37.5,6.4,32.6,4.6,27c-1.3-4-2-7.3-2.2-10.1C2.2,13.7,2.6,11.1,3.8,9
		c1.7-3.1,4.8-5.3,9.6-6.6c4.1-1.1,9-1.5,13.8-1.1c5.2,0.5,9.9,1.9,13.5,4c4.1,2.4,6.6,5.7,7.6,9.7c1.4,5.9-0.7,14.3-5.1,20.9
		c-3.3,4.9-7.3,7.9-11.2,8.6l0-0.2l0,0.2C30.9,44.7,29.8,44.8,28.7,44.8z M23.2,1.6c-3.4,0-6.8,0.4-9.8,1.2C8.8,4.1,5.8,6.2,4.2,9.2
		C2.1,13.1,2.4,18.7,5,26.8c1.8,5.5,5.6,10.3,10.7,13.6c4.1,2.6,8.5,3.9,12.9,3.9c1.1,0,2.2-0.1,3.2-0.2c3.8-0.6,7.7-3.6,10.9-8.4
		c4.4-6.5,6.4-14.8,5.1-20.5c-0.9-3.9-3.4-7.1-7.4-9.4c-3.6-2.1-8.2-3.5-13.3-4C25.8,1.7,24.5,1.6,23.2,1.6z"/>
</g>
</svg>
