<?xml version="1.0" encoding="utf-8"?>
<!-- Generator: Adobe Illustrator 21.0.0, SVG Export Plug-In . SVG Version: 6.00 Build 0)  -->
<svg version="1.1" id="Layer_1" xmlns="http://www.w3.org/2000/svg" xmlns:xlink="http://www.w3.org/1999/xlink" x="0px" y="0px"
	 viewBox="0 0 50 46.8" style="enable-background:new 0 0 50 46.8;" xml:space="preserve">
<style type="text/css">
	.st0{fill:#FFC626;}
	.st1{fill:#010101;}
</style>
<g>
	<path class="st0" d="M3.9,10C11,1.2,25.4-1.4,36.1,4.8c11.5,6.6,16.7,13.6,9.9,24.1s-23.6,21.6-34.6,14C2.4,36.6-2.6,17.9,3.9,10z"
		/>
	<path class="st1" d="M19.7,45.7c-3.2,0-6-0.9-8.5-2.6C6.2,39.6,2.1,31.9,1,23.9C0.2,18,1.1,13,3.7,9.8L3.9,10L3.7,9.8
		c3.5-4.3,8.8-7.3,14.9-8.3c6.2-1,12.4,0.1,17.6,3c3.7,2.1,6.5,4.1,8.5,6.1c2.3,2.2,3.7,4.5,4.3,6.9c0.8,3.5-0.1,7.2-2.8,11.4
		c-2.3,3.6-5.8,7.2-9.7,10.1c-4.3,3.2-8.7,5.3-12.9,6.1C22.2,45.5,21,45.7,19.7,45.7z M23.2,1.6c-1.5,0-3,0.1-4.5,0.4
		c-6,1-11.2,3.9-14.6,8.1c-2.5,3-3.4,7.9-2.6,13.7c1.1,7.9,5.1,15.5,10.1,18.9c3.3,2.3,7.3,3,11.9,2.1c4.1-0.8,8.5-2.9,12.7-6
		c3.9-2.9,7.3-6.4,9.6-10c2.6-4.1,3.5-7.7,2.7-11C47.5,13.4,43.5,9.3,36,5C32.1,2.8,27.7,1.6,23.2,1.6z"/>
</g>
</svg>
