<?xml version="1.0" encoding="utf-8"?>
<!-- Generator: Adobe Illustrator 21.0.0, SVG Export Plug-In . SVG Version: 6.00 Build 0)  -->
<svg version="1.1" id="Layer_1" xmlns="http://www.w3.org/2000/svg" xmlns:xlink="http://www.w3.org/1999/xlink" x="0px" y="0px"
	 viewBox="0 0 50 46.8" style="enable-background:new 0 0 50 46.8;" xml:space="preserve">
<style type="text/css">
	.st0{fill:#F9DC36;}
</style>
<g>
	<g>
		<g>
			<path class="st0" d="M48.7,17.9c0-0.1,0.1-0.3,0.1-0.3c0-0.3,0-0.5-0.1-0.4c0,0-0.1,0-0.1,0.1c0-0.1,0-0.2,0-0.3
				c-0.1-0.7-0.2-1.3-0.2-1.2c0,0.1-0.1,0.1-0.1,0.1c0,0,0-0.1,0-0.1c0,0-0.1-0.1-0.1,0.1l-0.1,0c0,0,0,0,0,0
				c0.2-0.8,0.2-1.2,0.2-1.6c-0.1-0.4-0.1-0.8-0.2-1.5L48,12.8c-0.4-1.6-1.3-3.1-2.3-4.2c-0.5-0.6-1.1-1-1.6-1.5
				c-0.6-0.4-1.2-0.8-1.7-1.1c-2.4-1.4-4.8-2.2-7.3-2.9c-0.4-0.1-0.8-0.2-1.2-0.3c-0.4-0.1-0.8-0.2-1.2-0.3C31.7,2.4,30.9,2.2,30,2
				c-1.7-0.4-3.5-0.8-5.3-1c-1.9-0.2-3.9-0.3-5.8-0.3c-1.9,0.1-3.9,0.3-5.5,0.8c-0.4,0.1-0.7,0.2-1.1,0.2c-0.3,0-0.7,0.1-1,0.1
				C9.8,2.4,8,3.3,6.5,4.6C5.7,5.2,5,5.9,4.3,6.7C4,7.2,3.7,7.6,3.5,8.1C3.3,8.3,3.2,8.5,3.1,8.8C3,9,2.9,9.2,2.8,9.5
				c0-0.1,0.1-0.1,0.1-0.2c-0.2,0.5-0.4,1-0.6,1.4C2.2,11.2,2,11.6,1.9,12c-0.3,0.9-0.5,1.7-0.6,2.7c0.1,0,0,0.3,0.1,0.5
				c-0.2,0.2-0.3,3.1,0.2,5.9C2,24,2.8,26.7,2.8,27c0.1,0.2,0.1,0.4,0.2,0.6c0.1,0.5,0.2,1,0.3,1.5c0.1,0.5,0.2,1,0.4,1.5l0.2,0.8
				c0.1,0.3,0.2,0.5,0.3,0.8c0.2,0.5,0.4,1,0.6,1.4C5.8,35.4,7,37,8.2,38.2c0.6,0.4,1.3,0.9,1.9,1.1c0.2,0.2,0.4,0.3,0.5,0.4
				c0.2,0.1,0.4,0.2,0.7,0.4c0.6,0.8,1.1,1.3,1.5,1.4c0.3,0.2,0.4,0.1,0.1-0.2c0.3,0.2,0.6,0.3,1,0.5c0.3,0.2,0.6,0.3,1,0.5
				c0.3,0.2,0.6,0.3,0.9,0.5c0.3,0.1,0.6,0.3,0.9,0.4c0.6,0.2,1.1,0.4,1.7,0.5c0.5,0.1,0.7,0.3,0.9,0.5c1.3,0.3,0.9,0.4,2.2,0.8
				c0.1,0.1,0.3,0.1,0.7,0.2c0.3,0.1,0.8,0.1,1.2,0.1c0.4,0,0.9,0,1.2,0c0.4,0,0.6,0,0.7,0.1H25c0.4,0.1,0.7,0.1,1.1,0.2
				c0.3,0.1,0.7,0.1,1,0.2c0.3,0.1,0.7,0.1,1,0.1c0.4,0,0.7,0.1,1.1,0c2.2-0.1,4.6-0.6,6.7-1.6c2.2-1,4.1-2.6,5.5-4.2
				c-0.1-0.2-0.6,0.8-0.9,0.6c1.8-1.8,3.4-4,4.4-6.5c0.1-0.1,0.1-0.2,0.2-0.3c0.1-0.1,0.1-0.2,0.2-0.3c0.1-0.2,0.2-0.4,0.3-0.5
				c0.2-0.4,0.2-0.5,0.2-0.6c0-0.1,0-0.2,0.1-0.5l0.2,0c0.1-0.9,0.5-1.1,0.6-1.9c-0.1-0.1,0-0.3,0.1-0.6c0.2,0,0.2-0.8,0.4-0.8l0,0
				c0-0.2,0.1-0.3,0.1-0.5c0-0.2,0-1,0.1-1.9c0-0.9,0-1.7,0-1.9l0.1-0.1c0.1-0.4,0-0.7-0.1-0.4l0.1-0.5v0.1l0.1-0.6
				c0-0.1,0.2-0.2,0.2,0c0-0.3,0-0.7,0.1-1c-0.3,0.8-0.6,1.9-1,2.7c0-0.4,0.3-1,0.3-1.4c0.2-0.4,0.5-1.4,0.7-2.2
				c0-0.2-0.2-0.3,0-0.7c0.2-0.2,0.1-0.4,0.2-0.7c0,0.4-0.1,0.7-0.1,1.1c0.2,0,0.3-0.9,0.4-1.2c0-0.2,0.1-0.9,0.1-1.3
				C48.6,18.4,48.6,18.2,48.7,17.9c0,0,0-0.1,0-0.1C48.7,17.9,48.7,17.9,48.7,17.9z M48.5,17.7c0,0.2-0.1,0.4-0.1,0.4
				c0,0,0,0.1,0,0.1l-0.1,0.2c0-0.1,0-0.3,0-0.5c0,0.1,0,0.1,0,0.2c0.1-0.2,0.1-0.7,0.1-1c-0.1,0-0.1,0.1-0.1,0.1c0-0.1,0-0.2,0-0.4
				c0,0,0-0.1,0-0.1l0-0.1c0-0.1,0-0.2,0-0.3c0-0.1,0-0.1,0.1-0.2c0,0.1,0,0.2,0,0.3c0-0.2,0.1,0.4,0.3,1
				C48.5,17.4,48.5,17.6,48.5,17.7z"/>
		</g>
	</g>
</g>
</svg>
