<?xml version="1.0" encoding="utf-8"?>
<!-- Generator: Adobe Illustrator 21.0.0, SVG Export Plug-In . SVG Version: 6.00 Build 0)  -->
<svg version="1.1" id="Layer_1" xmlns="http://www.w3.org/2000/svg" xmlns:xlink="http://www.w3.org/1999/xlink" x="0px" y="0px"
	 viewBox="0 0 50 46.8" style="enable-background:new 0 0 50 46.8;" xml:space="preserve">
<style type="text/css">
	.st0{fill:#711929;}
</style>
<g>
	<g>
		<g>
			<path class="st0" d="M47.8,18.5C47.8,18.7,47.8,18.7,47.8,18.5C47.8,18.6,47.8,18.6,47.8,18.5z"/>
			<path class="st0" d="M47.7,18.2c0-0.1,0-0.2,0.1-0.3c0-0.3,0-0.5-0.1-0.4c0,0-0.1,0-0.1,0.1c0-0.1,0-0.2,0-0.3
				c-0.1-0.7-0.2-1.3-0.2-1.1c0,0.1-0.1,0.1-0.1,0.1c0,0,0-0.1,0-0.1c0,0-0.1-0.1-0.1,0.1l-0.1,0c0,0,0,0,0,0
				c0.2-0.7,0.2-1.2,0.1-1.6c0-0.4-0.1-0.7-0.2-1.4l-0.1,0.1c-0.4-1.6-1.2-3-2.2-4c-0.5-0.5-1-1-1.6-1.4c-0.5-0.4-1.1-0.8-1.7-1.1
				c-2.3-1.3-4.7-2.1-7-2.8c-0.4-0.1-0.8-0.2-1.2-0.2c-0.4-0.1-0.8-0.2-1.2-0.3c-0.8-0.2-1.6-0.4-2.5-0.6c-1.7-0.4-3.4-0.7-5.1-1
				c-1.8-0.2-3.7-0.3-5.6-0.3c-1.9,0.1-3.7,0.3-5.3,0.8c-0.4,0.1-0.7,0.2-1,0.2c-0.3,0-0.6,0.1-1,0.1c-1.5,0.5-3.1,1.4-4.6,2.6
				C6.4,6,5.8,6.7,5.1,7.5C4.9,7.9,4.5,8.3,4.3,8.7C4.2,9,4.1,9.2,3.9,9.4c-0.1,0.2-0.2,0.5-0.3,0.7c0-0.1,0.1-0.1,0.1-0.2
				c-0.2,0.5-0.4,0.9-0.5,1.4c-0.2,0.4-0.3,0.9-0.4,1.3c-0.3,0.8-0.4,1.7-0.5,2.6c0.1,0,0,0.3,0.1,0.4c-0.2,0.2-0.2,3,0.2,5.7
				C2.9,24,3.7,26.7,3.7,27c0.1,0.2,0.1,0.4,0.2,0.6C3.9,28,4,28.5,4.1,29c0.1,0.5,0.2,1,0.4,1.5l0.2,0.7c0.1,0.3,0.2,0.5,0.3,0.7
				c0.2,0.5,0.4,0.9,0.6,1.4c0.9,1.8,2.1,3.3,3.3,4.4c0.6,0.4,1.3,0.8,1.8,1.1c0.2,0.2,0.3,0.3,0.5,0.4c0.2,0.1,0.3,0.2,0.6,0.4
				c0.5,0.7,1.1,1.2,1.4,1.4c0.3,0.2,0.4,0.1,0.1-0.2c0.3,0.2,0.6,0.3,0.9,0.5c0.3,0.2,0.6,0.3,0.9,0.5c0.3,0.2,0.6,0.3,0.9,0.5
				c0.3,0.1,0.6,0.3,0.9,0.4c0.5,0.2,1.1,0.4,1.6,0.5c0.5,0.1,0.7,0.3,0.9,0.5c1.2,0.3,0.8,0.4,2.1,0.7c0.1,0.1,0.3,0.1,0.6,0.2
				c0.3,0,0.7,0.1,1.2,0.1c0.4,0,0.8,0,1.2,0c0.3,0,0.6,0,0.7,0.1H25c0.4,0.1,0.7,0.1,1.1,0.2c0.3,0.1,0.6,0.1,1,0.2
				c0.3,0.1,0.6,0.1,1,0.1c0.3,0,0.7,0.1,1.1,0c2.1-0.1,4.4-0.6,6.5-1.6c2.1-1,3.9-2.5,5.3-4.1c-0.1-0.2-0.6,0.7-0.8,0.6
				c1.7-1.8,3.3-3.8,4.2-6.2c0.1-0.1,0.1-0.2,0.2-0.3c0.1-0.1,0.1-0.2,0.2-0.3c0.1-0.2,0.2-0.4,0.3-0.5c0.2-0.4,0.2-0.5,0.2-0.6
				c0-0.1,0-0.2,0.1-0.5l0.2,0c0.1-0.8,0.5-1.1,0.6-1.8c-0.1-0.1,0-0.3,0.1-0.6c0.2,0,0.2-0.8,0.3-0.7l0,0c0-0.2,0.1-0.3,0.1-0.5
				c0-0.2,0-1,0.1-1.8c0-0.8,0-1.6,0-1.8l0.1-0.1c0.1-0.4,0-0.6-0.1-0.4l0.1-0.5v0.1l0.1-0.5c0-0.1,0.1-0.2,0.2,0
				c0-0.3,0-0.6,0.1-0.9c-0.3,0.8-0.6,1.8-1,2.6c0-0.4,0.2-1,0.3-1.4c0.2-0.4,0.5-1.4,0.7-2.1c0-0.2-0.2-0.3,0-0.7
				c0.2-0.2,0.1-0.4,0.2-0.7c0,0.4-0.1,0.7-0.1,1.1c0.2,0,0.3-0.9,0.3-1.1c0-0.1,0.1-0.8,0.1-1.3C47.7,18.7,47.7,18.5,47.7,18.2
				c0,0,0-0.1,0-0.1C47.7,18.2,47.7,18.2,47.7,18.2z M47.6,18c0,0.2-0.1,0.4-0.1,0.3c0,0,0,0.1,0,0.1l-0.1,0.2c0-0.1,0-0.3,0-0.5
				c0,0.1,0,0.1,0,0.1c0.1-0.1,0.1-0.7,0.1-1c-0.1,0-0.1,0.1-0.1,0.1c0-0.1,0-0.2,0-0.4c0,0,0-0.1,0-0.1l0-0.1c0-0.1,0-0.2,0-0.3
				c0-0.1,0-0.1,0.1-0.2c0,0.1,0,0.2,0,0.3c0-0.2,0.1,0.4,0.2,1C47.6,17.7,47.6,17.9,47.6,18z"/>
			<path class="st0" d="M47.4,18.3C47.4,18.3,47.4,18.3,47.4,18.3C47.4,18.3,47.4,18.3,47.4,18.3C47.4,18.3,47.4,18.3,47.4,18.3z"/>
			<path class="st0" d="M47.7,18.2C47.7,18.2,47.8,18.2,47.7,18.2c0,0.1,0,0.2,0,0.3C47.8,18.4,47.8,18.3,47.7,18.2
				C47.7,18.2,47.7,18.2,47.7,18.2z"/>
		</g>
	</g>
</g>
</svg>
