<?xml version="1.0" encoding="utf-8"?>
<!-- Generator: Adobe Illustrator 21.0.0, SVG Export Plug-In . SVG Version: 6.00 Build 0)  -->
<svg version="1.1" id="Layer_1" xmlns="http://www.w3.org/2000/svg" xmlns:xlink="http://www.w3.org/1999/xlink" x="0px" y="0px"
	 viewBox="0 0 50 46.8" style="enable-background:new 0 0 50 46.8;" xml:space="preserve">
<style type="text/css">
	.st0{fill:#E52344;}
</style>
<g>
	<g>
		<g>
			<path class="st0" d="M48.7,22.5C48.7,22.7,48.7,22.7,48.7,22.5C48.7,22.6,48.7,22.6,48.7,22.5z"/>
			<path class="st0" d="M48.6,18.2c0-0.1,0.1-0.3,0.1-0.3c0-0.3,0-0.5-0.1-0.4c0,0-0.1,0-0.1,0.1c0-0.1,0-0.2,0-0.3
				c-0.1-0.7-0.2-1.3-0.2-1.2c0,0.1-0.1,0.1-0.1,0.1c0,0,0-0.1,0-0.1c0,0-0.1-0.1-0.1,0.1l-0.1,0c0,0,0,0,0,0
				c0.2-0.8,0.2-1.2,0.2-1.6c-0.1-0.4-0.1-0.8-0.2-1.5L48,13.1c-0.4-1.6-1.3-3.1-2.3-4.2c-0.5-0.6-1.1-1-1.6-1.5
				c-0.6-0.4-1.2-0.8-1.7-1.1C39.9,5,37.4,4.2,35,3.4c-0.4-0.1-0.8-0.2-1.2-0.3C33.3,3.1,33,3,32.5,2.9c-0.8-0.2-1.7-0.4-2.6-0.6
				c-1.7-0.4-3.5-0.8-5.3-1c-1.9-0.2-3.9-0.3-5.8-0.3c-1.9,0.1-3.8,0.3-5.5,0.8C13,2,12.7,2,12.3,2.1c-0.3,0-0.7,0.1-1,0.1
				C9.8,2.7,8,3.6,6.5,4.9C5.7,5.5,5,6.2,4.4,7C4.1,7.5,3.7,7.9,3.5,8.4C3.4,8.6,3.2,8.8,3.1,9.1C3,9.3,2.9,9.5,2.8,9.8
				c0-0.1,0.1-0.1,0.1-0.2c-0.2,0.5-0.4,1-0.6,1.4c-0.2,0.5-0.3,0.9-0.4,1.3c-0.3,0.9-0.5,1.7-0.6,2.7c0.1,0,0,0.3,0.1,0.5
				c-0.2,0.2-0.3,3.1,0.2,5.9C2,24.3,2.8,27,2.8,27.3c0.1,0.2,0.1,0.4,0.2,0.6c0.1,0.5,0.2,1,0.3,1.5c0.1,0.5,0.2,1,0.4,1.5l0.2,0.8
				c0.1,0.3,0.2,0.5,0.3,0.8c0.2,0.5,0.4,1,0.6,1.4c0.9,1.9,2.1,3.4,3.4,4.6c0.6,0.4,1.3,0.9,1.9,1.1c0.2,0.2,0.4,0.3,0.5,0.4
				c0.2,0.1,0.4,0.2,0.7,0.4c0.6,0.8,1.1,1.3,1.5,1.4c0.3,0.2,0.4,0.1,0.1-0.2c0.3,0.2,0.6,0.3,1,0.5c0.3,0.2,0.6,0.3,1,0.5
				c0.3,0.2,0.6,0.3,0.9,0.5c0.3,0.1,0.6,0.3,0.9,0.4c0.6,0.2,1.1,0.4,1.7,0.5c0.5,0.1,0.7,0.3,0.9,0.5c1.3,0.3,0.9,0.4,2.2,0.8
				c0.1,0.1,0.3,0.1,0.7,0.2c0.3,0.1,0.8,0.1,1.2,0.1c0.4,0,0.9,0,1.2,0c0.4,0,0.6,0,0.7,0.1H25c0.4,0.1,0.7,0.1,1.1,0.2
				c0.3,0.1,0.7,0.1,1,0.2c0.3,0.1,0.7,0.1,1,0.1c0.4,0,0.7,0.1,1.1,0c2.2-0.1,4.6-0.6,6.7-1.6c2.2-1,4.1-2.6,5.5-4.2
				c-0.1-0.2-0.6,0.8-0.9,0.6c1.8-1.8,3.4-4,4.4-6.5c0.1-0.1,0.1-0.2,0.2-0.3c0.1-0.1,0.1-0.2,0.2-0.3c0.1-0.2,0.2-0.4,0.3-0.5
				c0.2-0.4,0.2-0.5,0.2-0.6c0-0.1,0-0.2,0.1-0.5l0.2,0c0.1-0.9,0.5-1.1,0.6-1.9c-0.1-0.1,0-0.3,0.1-0.6c0.2,0,0.2-0.8,0.4-0.8l0,0
				c0-0.2,0.1-0.3,0.1-0.5c0-0.2,0-1,0.1-1.9c0-0.9,0-1.7,0-1.9l0.1-0.1c0.1-0.4,0-0.7-0.1-0.4l0.1-0.5v0.1l0.1-0.6
				c0-0.1,0.2-0.2,0.2,0c0-0.3,0-0.7,0.1-1c-0.3,0.8-0.6,1.9-1,2.7c0-0.4,0.3-1,0.3-1.4c0.2-0.4,0.5-1.4,0.7-2.2
				c0-0.2-0.2-0.3,0-0.7c0.2-0.2,0.1-0.4,0.2-0.7c0,0.4-0.1,0.7-0.1,1.1c0.2,0,0.3-0.9,0.4-1.2c0-0.2,0.1-0.9,0.1-1.3
				C48.6,18.7,48.6,18.5,48.6,18.2c0,0,0-0.1,0-0.1C48.6,18.1,48.6,18.2,48.6,18.2z M48.5,18c0,0.2-0.1,0.4-0.1,0.4c0,0,0,0.1,0,0.1
				l-0.1,0.2c0-0.1,0-0.3,0-0.5c0,0.1,0,0.1,0,0.2c0.1-0.2,0.1-0.7,0.1-1c-0.1,0-0.1,0.1-0.1,0.1c0-0.1,0-0.2,0-0.4c0,0,0-0.1,0-0.1
				l0-0.1c0-0.1,0-0.2,0-0.3c0-0.1,0-0.1,0.1-0.2c0,0.1,0,0.2,0,0.3c0-0.2,0.1,0.4,0.3,1C48.5,17.7,48.5,17.9,48.5,18z"/>
			<path class="st0" d="M48.3,22.2C48.3,22.3,48.3,22.3,48.3,22.2C48.3,22.3,48.3,22.2,48.3,22.2C48.3,22.2,48.3,22.2,48.3,22.2z"/>
			<path class="st0" d="M48.6,22.2C48.6,22.2,48.6,22.2,48.6,22.2c0,0.1,0,0.2,0,0.3C48.7,22.4,48.7,22.3,48.6,22.2
				C48.6,22.2,48.6,22.2,48.6,22.2z"/>
		</g>
	</g>
</g>
</svg>
