<?xml version="1.0" encoding="utf-8"?>
<!-- Generator: Adobe Illustrator 21.0.0, SVG Export Plug-In . SVG Version: 6.00 Build 0)  -->
<svg version="1.1" id="Layer_1" xmlns="http://www.w3.org/2000/svg" xmlns:xlink="http://www.w3.org/1999/xlink" x="0px" y="0px"
	 viewBox="0 0 50 46.8" style="enable-background:new 0 0 50 46.8;" xml:space="preserve">
<style type="text/css">
	.st0{fill:#55A4DB;}
	.st1{fill:#010101;}
</style>
<g>
	<path class="st0" d="M2.1,15C6.3,5.1,19.2-0.7,31.2,2.4c12.9,3.3,19.9,8.5,16.5,19.9C44.2,33.6,31.5,48,18.8,43.6
		C8.5,40-1.8,23.9,2.1,15z"/>
	<path class="st1" d="M23.6,44.7c-1.7,0-3.3-0.3-4.9-0.8c-3-1.1-6.2-3.2-9.1-6.2c-2.7-2.9-5.1-6.4-6.6-9.8
		c-2.2-4.9-2.6-9.5-1.2-12.8c2.1-4.9,6.3-8.9,11.8-11.3c5.6-2.4,11.8-3,17.6-1.5c4.2,1.1,7.5,2.3,10.1,3.7c2.9,1.6,4.8,3.4,6.1,5.5
		c1.7,3,1.9,6.6,0.5,11c-1.1,3.8-3.3,7.9-6.1,11.5c-3,3.9-6.5,6.9-10.2,8.8c-2.1,1.1-4.2,1.7-6.3,2C24.7,44.6,24.2,44.7,23.6,44.7z
		 M2.1,15l0.2,0.1c-1.4,3.2-1,7.6,1.2,12.5c1.5,3.4,3.8,6.9,6.6,9.7c2.8,3,5.9,5.1,8.9,6.1c4,1.4,8.2,1,12.5-1.2
		c3.6-1.8,7-4.8,10-8.7c2.7-3.5,4.9-7.6,6-11.3c1.3-4.3,1.1-7.8-0.5-10.6c-1.2-2.1-3.1-3.8-5.9-5.3c-2.5-1.4-5.8-2.6-10-3.6
		C25.4,1.1,19.3,1.6,13.8,4C8.4,6.4,4.3,10.4,2.3,15.1L2.1,15z"/>
</g>
</svg>
