<svg viewBox="0 0 13 32.2" xmlns="http://www.w3.org/2000/svg"><path d="m4.5 24.7c-2.6-1.8-3.7-6.5-3.4-9.2.2-2.8 1.1-5.6 2.4-8.1.9-1.8 3.8-5.9 6-6.3.3 1.1-.9 1.8-1.5 2.6-.8 1-2.8 5.4-2.9 7.5-.1 2.2.2 5.2.8 7.3.4 1.7.9 4.8-.8 6-.2 0-.1.5-.6.2z" fill="#b52126"/><path d="m9.8.9c0-.2-.3-.4-.5-.3h-.1c-2.5.6-5.5 5.1-6.2 6.6-1.4 2.8-2.2 5.7-2.4 8.3-.2 2.7.8 7.7 3.6 9.7.6.4 1 .6 1.6.7.7.9 1.2 1.1 2.4 1.9 2.5 1.7 3.7 1.6 3.1 3.2-.1.2 0 .5.3.6.2.1.5 0 .6-.3 1-2.5-1.2-2.9-3.4-4.4-2.3-1.5-3.1-2-2.5-3.4.7-1.7.3-4 0-5.2-.5-2-.8-5-.8-7.2 0-1.8 2-6.2 2.7-7.1.1-.2.3-.4.5-.5.7-.7 1.5-1.5 1.1-2.6zm-.9.8c-.1.3-.4.6-.8 1-.2.2-.4.5-.6.7-.8 1-2.9 5.6-3 7.8-.1 2.3.3 5.3.8 7.4s.6 4.6-.7 5.5c0 0-.1 0-.1.1-2.3-1.8-3.2-6.1-3-8.6s1-5.3 2.3-7.9c.9-1.9 3.2-5.1 5.1-6z" fill="#221f1f"/></svg>