<?xml version="1.0" encoding="utf-8"?>
<!-- Generator: Adobe Illustrator 21.1.0, SVG Export Plug-In . SVG Version: 6.00 Build 0)  -->
<svg version="1.1" id="Layer_1" xmlns="http://www.w3.org/2000/svg" xmlns:xlink="http://www.w3.org/1999/xlink" x="0px" y="0px"
	 viewBox="0 0 30 27.8" style="enable-background:new 0 0 30 27.8;" xml:space="preserve">
<style type="text/css">
	.st0{fill:#BFD58F;}
	.st1{fill:#4BB649;}
</style>
<g>
	<path class="st0" d="M8.5,2.7c-0.4,0.5-0.3,1,0,0.7c0,0,0,0,0,0l0,0c0.1,0.5,4.8,19.5,16.6,20.9c0.1,0,0.2-0.1,0.3-0.2
		C31.6,19.3,13.1-3.2,8.5,2.7z"/>
	<path class="st1" d="M25.1,24.4c0,0-12.2,5.8-18.9-2.2C0.3,15,5.7,6.3,8.4,3.4C8.3,2.9,13,23,25.1,24.4z"/>
	<path d="M26.6,17.6c-2.5-6.9-11-16.4-16-16.4c-1.1,0-2,0.4-2.6,1.2C7.6,2.9,7.2,3.5,7,4.2C4.2,7.9,0.2,15.9,5.8,22.5
		c2.5,3,5.9,4.5,10.2,4.5c5,0,9.2-2,9.4-2.1c0.1,0,0.1-0.1,0.2-0.2c0,0,0.1-0.1,0.2-0.1C27,23.7,28.1,21.7,26.6,17.6z M25.9,22.3
		l-6.7-7.9l4.8,0.4c0.6,1.1,1.1,2.2,1.5,3.2C25.9,19.3,26.2,21,25.9,22.3z M23.1,13.5L18.4,13L20,9.2C21.1,10.5,22.2,12,23.1,13.5z
		 M12.7,12.5c-0.1,0-0.3,0-0.4,0.1c-1.2-2.2-2-4.4-2.5-6.1l6.2,6.3L12.7,12.5z M17,14.2l1.4,6.5c-2.3-1.9-4.1-4.4-5.5-6.9L17,14.2z
		 M19.8,21.7c0.1-0.1,0.1-0.3,0.1-0.5l-1.2-5.5l6.5,7.7c-0.1,0.1-0.1,0.1-0.2,0.2c0,0,0,0,0,0C23.1,23.4,21.4,22.7,19.8,21.7z
		 M19,8.1l-1.5,3.8l-3.9-8.5C15.3,4.4,17.2,6.1,19,8.1z M10.6,2.4c0.4,0,0.8,0.1,1.2,0.2c0,0,0,0.1,0,0.1l3.6,7.7l-5.9-6
		C9.4,4.3,9.3,4.3,9.2,4.2C9.1,3.8,9,3.4,9.1,3.3l0,0l0,0c0,0,0-0.1,0-0.2C9.4,2.6,9.9,2.4,10.6,2.4z M16,25.8c-3.9,0-7-1.4-9.2-4
		c-5.1-6.2-1.5-13.7,1.1-17c1.2,4,5.9,17,15.1,19.8C21.3,25.1,18.7,25.8,16,25.8z"/>
</g>
</svg>
