<svg viewBox="0 0 30 27.8" xmlns="http://www.w3.org/2000/svg"><path d="m8.5 2.7c-.4.5-.3 1 0 .7.1.5 4.8 19.5 16.6 20.9.1 0 .2-.1.3-.2 6.2-4.8-12.3-27.3-16.9-21.4z" fill="#bfd58f"/><path d="m25.1 24.4s-12.2 5.8-18.9-2.2c-5.9-7.2-.5-15.9 2.2-18.8-.1-.5 4.6 19.6 16.7 21z" fill="#4bb649"/><path d="m26.6 17.6c-2.5-6.9-11-16.4-16-16.4-1.1 0-2 .4-2.6 1.2-.4.5-.8 1.1-1 1.8-2.8 3.7-6.8 11.7-1.2 18.3 2.5 3 5.9 4.5 10.2 4.5 5 0 9.2-2 9.4-2.1.1 0 .1-.1.2-.2 0 0 .1-.1.2-.1 1.2-.9 2.3-2.9.8-7zm-.7 4.7-6.7-7.9 4.8.4c.6 1.1 1.1 2.2 1.5 3.2.4 1.3.7 3 .4 4.3zm-2.8-8.8-4.7-.5 1.6-3.8c1.1 1.3 2.2 2.8 3.1 4.3zm-10.4-1c-.1 0-.3 0-.4.1-1.2-2.2-2-4.4-2.5-6.1l6.2 6.3zm4.3 1.7 1.4 6.5c-2.3-1.9-4.1-4.4-5.5-6.9zm2.8 7.5c.1-.1.1-.3.1-.5l-1.2-5.5 6.5 7.7c-.1.1-.1.1-.2.2-1.9-.2-3.6-.9-5.2-1.9zm-.8-13.6-1.5 3.8-3.9-8.5c1.7 1 3.6 2.7 5.4 4.7zm-8.4-5.7c.4 0 .8.1 1.2.2v.1l3.6 7.7-5.9-6c-.1-.1-.2-.1-.3-.2-.1-.4-.2-.8-.1-.9s0-.1 0-.2c.3-.5.8-.7 1.5-.7zm5.4 23.4c-3.9 0-7-1.4-9.2-4-5.1-6.2-1.5-13.7 1.1-17 1.2 4 5.9 17 15.1 19.8-1.7.5-4.3 1.2-7 1.2z"/></svg>