<?xml version="1.0" encoding="utf-8"?>
<!-- Generator: Adobe Illustrator 22.0.1, SVG Export Plug-In . SVG Version: 6.00 Build 0)  -->
<svg version="1.1" id="Layer_1" xmlns="http://www.w3.org/2000/svg" xmlns:xlink="http://www.w3.org/1999/xlink" x="0px" y="0px"
	 viewBox="0 0 30 31.2" style="enable-background:new 0 0 30 31.2;" xml:space="preserve">
<style type="text/css">
	.st0{fill:#FFCD16;}
	.st1{fill:#231F20;}
</style>
<g>
	<path class="st0" d="M15.3,29.3c-3.7-0.3-5.4-2.5-5.4-9.9C9.9,12,6,10.2,7.2,6.4s7-6.5,10.9-2.7s5.9,10.4,4.5,15.9
		S17.9,29.5,15.3,29.3z"/>
	<path class="st1" d="M17.8,2.8C18,3,18.2,3.2,18.4,3.4c4.1,4,6,10.8,4.6,16.3c-1.5,5.8-4.9,10.2-7.8,10l0,0
		c-4.2-0.3-5.8-3.1-5.8-10.4c0-3.8-1-6-1.9-7.9C6.8,9.8,6.1,8.3,6.7,6.3c0.7-2.1,2.8-4,5.3-4.6C14.1,1.1,16.1,1.6,17.8,2.8z
		 M15.3,28.8c2.4,0.2,5.5-4.1,6.8-9.3c1.3-5.2-0.5-11.7-4.4-15.4c-1.5-1.5-3.5-2-5.6-1.5c-2.2,0.5-4,2.2-4.6,4
		c-0.5,1.6,0,2.8,0.8,4.5c0.9,1.9,1.9,4.3,1.9,8.3C10.4,27,12.2,28.6,15.3,28.8L15.3,28.8z"/>
</g>
</svg>
