<?xml version="1.0" encoding="utf-8"?>
<!-- Generator: Adobe Illustrator 22.0.1, SVG Export Plug-In . SVG Version: 6.00 Build 0)  -->
<svg version="1.1" id="Layer_1" xmlns="http://www.w3.org/2000/svg" xmlns:xlink="http://www.w3.org/1999/xlink" x="0px" y="0px"
	 viewBox="0 0 19.8 27.8" style="enable-background:new 0 0 19.8 27.8;" xml:space="preserve">
<style type="text/css">
	.st0{fill:#F68D2F;}
	.st1{fill:#231F20;}
</style>
<g>
	<path class="st0" d="M11.2,8c-1-1.4-3.2-4.6-5.7-2.3s-0.8,5-1.4,7.7c-0.6,2.7-1.9,2.9-1.4,5.2c0.6,2.9,3.5,3.4,4.2,4.6
		c0.9,1.7,1.3,3.3,1.2,3.3c-0.1,0.1,1-2.7,3.6-3.5c2.7-0.8,2.8-0.2,4.4-2.2c1.6-2-1.9-4.4-0.2-7.5s1.6-6-0.8-6.3
		C12.8,6.8,11.2,8,11.2,8z"/>
	<g>
		<path class="st1" d="M16.4,13.5c1.2-2.2,1.6-4.3,0.9-5.6c-0.4-0.8-1.1-1.2-2-1.3c-1-0.1-1.9,0-2.6,0.2c0.6-0.5,1.3-0.9,1.6-1.1
			c0.2-0.1,0.3-0.4,0.2-0.6c-0.1-0.2-0.4-0.3-0.6-0.2c0,0-0.6,0.4-1.3,0.9c1.1-2,2.8-3.8,4-4.2c0.2-0.1,0.3-0.3,0.2-0.5
			c-0.1-0.2-0.3-0.3-0.5-0.2c-1.4,0.5-3.4,2.6-4.6,4.9c0-0.9-0.1-1.8-0.3-2.2c-0.1-0.2-0.4-0.3-0.6-0.2c-0.2,0.1-0.3,0.4-0.2,0.6
			c0.2,0.3,0.2,1.5,0.2,2.9c-0.8-1-2-2.2-3.3-2.3C6.7,4.4,5.9,4.7,5.2,5.4C3.4,7,3.6,8.8,3.7,10.6c0.1,0.9,0.2,1.8,0,2.7
			c-0.2,1-0.6,1.7-0.9,2.3c-0.5,0.9-0.9,1.6-0.5,3.1c0.4,2,1.8,2.9,3,3.7c0.6,0.4,1.1,0.7,1.3,1.1c0.8,1.5,1.2,2.8,1.2,3.1
			c0,0,0,0,0,0c0,0.2,0.1,0.3,0.3,0.4c0.1,0,0.1,0,0.2,0c0.1,0,0.2,0,0.3-0.1c0.1-0.1,0.1-0.1,0.1-0.3c0.2-0.5,1.3-2.5,3.3-3.2
			c0.7-0.2,1.3-0.3,1.7-0.4c1.2-0.3,1.7-0.4,2.9-1.9c0.9-1.1,0.5-2.4,0-3.5C16.1,16.3,15.6,15,16.4,13.5z M15.9,20.6
			c-1.1,1.3-1.4,1.4-2.4,1.6c-0.5,0.1-1,0.2-1.8,0.4c-1.7,0.5-2.8,1.8-3.4,2.7c-0.2-0.4-0.5-1.3-1-2.3c-0.3-0.6-0.9-0.9-1.6-1.4
			c-1.1-0.7-2.3-1.5-2.6-3.1c-0.3-1.2,0-1.8,0.5-2.6c0.3-0.6,0.7-1.3,1-2.5c0.2-1,0.1-2,0-2.9C4.4,8.8,4.3,7.3,5.7,6
			c0.5-0.5,1-0.7,1.5-0.7c0.1,0,0.1,0,0.2,0C8.7,5.5,9.9,7.1,10.7,8l0.2,0.3c0,0,0,0,0,0c0,0,0,0,0,0c0,0,0,0,0.1,0.1c0,0,0,0,0,0
			c0,0,0,0,0,0c0,0,0,0,0,0c0,0,0,0,0,0c0,0,0,0,0.1,0c0,0,0,0,0,0c0,0,0,0,0.1,0c0,0,0,0,0,0c0,0,0,0,0,0c0,0,0,0,0,0c0,0,0,0,0,0
			c0,0,0,0,0,0c0,0,0.1,0,0.1,0c0,0,0,0,0,0c0,0,0,0,0,0c0,0,0.1,0,0.1,0c0,0,0,0,0,0c0,0,1.3-0.9,2-0.2c0.6,0.6,0.5,1.8-0.6,3.7
			c-0.1,0.2,0,0.5,0.2,0.6c0.1,0,0.1,0,0.2,0c0.2,0,0.3-0.1,0.4-0.2c0.9-1.7,1.6-3.5,0.4-4.7c0,0-0.1,0-0.1-0.1c0.4,0,0.8-0.1,1.2,0
			c0.6,0.1,1.1,0.4,1.4,0.8c0.5,1,0.2,2.9-0.9,4.8c-1,1.8-0.4,3.4,0.1,4.7C16.2,19.1,16.4,19.8,15.9,20.6z"/>
		<path class="st1" d="M6.3,11.9c-0.2,0.1-0.2,0.4-0.1,0.6c0.5,0.7,1,2.4-0.4,4.2c-0.1,0.2-0.1,0.5,0.1,0.6c0.1,0.1,0.2,0.1,0.3,0.1
			c0.1,0,0.3-0.1,0.3-0.2c1.5-1.9,1.3-4.1,0.5-5.2C6.7,11.8,6.5,11.8,6.3,11.9z"/>
		<path class="st1" d="M13.4,17.5c-0.7,0.2-2.1,1.2-3,3.3c-0.1,0.2,0,0.5,0.2,0.6c0.1,0,0.1,0,0.2,0c0.2,0,0.3-0.1,0.4-0.3
			c0.7-1.7,1.9-2.6,2.5-2.8c0.2-0.1,0.3-0.3,0.3-0.5C13.9,17.5,13.7,17.4,13.4,17.5z"/>
	</g>
</g>
</svg>
