<svg viewBox="0 0 30 31.2" xmlns="http://www.w3.org/2000/svg"><path d="m15.3 29.3c-3.7-.3-5.4-2.5-5.4-9.9s-3.9-9.2-2.7-13 7-6.5 10.9-2.7 5.9 10.4 4.5 15.9-4.7 9.9-7.3 9.7z" fill="#ffcd16"/><path d="m17.8 2.8c.2.2.4.4.6.6 4.1 4 6 10.8 4.6 16.3-1.5 5.8-4.9 10.2-7.8 10-4.2-.3-5.8-3.1-5.8-10.4 0-3.8-1-6-1.9-7.9-.7-1.6-1.4-3.1-.8-5.1.7-2.1 2.8-4 5.3-4.6 2.1-.6 4.1-.1 5.8 1.1zm-2.5 26c2.4.2 5.5-4.1 6.8-9.3s-.5-11.7-4.4-15.4c-1.5-1.5-3.5-2-5.6-1.5-2.2.5-4 2.2-4.6 4-.5 1.6 0 2.8.8 4.5.9 1.9 1.9 4.3 1.9 8.3.2 7.6 2 9.2 5.1 9.4z" fill="#231f20"/></svg>