<svg viewBox="0 0 19.8 27.8" xmlns="http://www.w3.org/2000/svg"><path d="m11.2 8c-1-1.4-3.2-4.6-5.7-2.3s-.8 5-1.4 7.7-1.9 2.9-1.4 5.2c.6 2.9 3.5 3.4 4.2 4.6.9 1.7 1.3 3.3 1.2 3.3-.1.1 1-2.7 3.6-3.5 2.7-.8 2.8-.2 4.4-2.2s-1.9-4.4-.2-7.5 1.6-6-.8-6.3c-2.3-.2-3.9 1-3.9 1z" fill="#f68d2f"/><g fill="#231f20"><path d="m16.4 13.5c1.2-2.2 1.6-4.3.9-5.6-.4-.8-1.1-1.2-2-1.3-1-.1-1.9 0-2.6.2.6-.5 1.3-.9 1.6-1.1.2-.1.3-.4.2-.6s-.4-.3-.6-.2c0 0-.6.4-1.3.9 1.1-2 2.8-3.8 4-4.2.2-.1.3-.3.2-.5s-.3-.3-.5-.2c-1.4.5-3.4 2.6-4.6 4.9 0-.9-.1-1.8-.3-2.2-.1-.2-.4-.3-.6-.2s-.3.4-.2.6c.2.3.2 1.5.2 2.9-.8-1-2-2.2-3.3-2.3-.8-.2-1.6.1-2.3.8-1.8 1.6-1.6 3.4-1.5 5.2.1.9.2 1.8 0 2.7-.2 1-.6 1.7-.9 2.3-.5.9-.9 1.6-.5 3.1.4 2 1.8 2.9 3 3.7.6.4 1.1.7 1.3 1.1.8 1.5 1.2 2.8 1.2 3.1 0 .2.1.3.3.4h.2c.1 0 .2 0 .3-.1s.1-.1.1-.3c.2-.5 1.3-2.5 3.3-3.2.7-.2 1.3-.3 1.7-.4 1.2-.3 1.7-.4 2.9-1.9.9-1.1.5-2.4 0-3.5-.5-1.3-1-2.6-.2-4.1zm-.5 7.1c-1.1 1.3-1.4 1.4-2.4 1.6-.5.1-1 .2-1.8.4-1.7.5-2.8 1.8-3.4 2.7-.2-.4-.5-1.3-1-2.3-.3-.6-.9-.9-1.6-1.4-1.1-.7-2.3-1.5-2.6-3.1-.3-1.2 0-1.8.5-2.6.3-.6.7-1.3 1-2.5.2-1 .1-2 0-2.9-.2-1.7-.3-3.2 1.1-4.5.5-.5 1-.7 1.5-.7h.2c1.3.2 2.5 1.8 3.3 2.7l.2.3s0 0 .1.1h.1.1.1.1s1.3-.9 2-.2c.6.6.5 1.8-.6 3.7-.1.2 0 .5.2.6h.2c.2 0 .3-.1.4-.2.9-1.7 1.6-3.5.4-4.7 0 0-.1 0-.1-.1.4 0 .8-.1 1.2 0 .6.1 1.1.4 1.4.8.5 1 .2 2.9-.9 4.8-1 1.8-.4 3.4.1 4.7s.7 2 .2 2.8z"/><path d="m6.3 11.9c-.2.1-.2.4-.1.6.5.7 1 2.4-.4 4.2-.1.2-.1.5.1.6.1.1.2.1.3.1s.3-.1.3-.2c1.5-1.9 1.3-4.1.5-5.2-.3-.2-.5-.2-.7-.1z"/><path d="m13.4 17.5c-.7.2-2.1 1.2-3 3.3-.1.2 0 .5.2.6h.2c.2 0 .3-.1.4-.3.7-1.7 1.9-2.6 2.5-2.8.2-.1.3-.3.3-.5-.1-.3-.3-.4-.6-.3z"/></g></svg>