<?xml version="1.0" encoding="utf-8"?>
<!-- Generator: Adobe Illustrator 22.0.1, SVG Export Plug-In . SVG Version: 6.00 Build 0)  -->
<svg version="1.1" id="Layer_1" xmlns="http://www.w3.org/2000/svg" xmlns:xlink="http://www.w3.org/1999/xlink" x="0px" y="0px"
	 viewBox="0 0 13 32.2" style="enable-background:new 0 0 13 32.2;" xml:space="preserve">
<style type="text/css">
	.st0{fill:#B52126;}
	.st1{fill:#221F1F;}
</style>
<g>
	<path class="st0" d="M4.5,24.7c-2.6-1.8-3.7-6.5-3.4-9.2c0.2-2.8,1.1-5.6,2.4-8.1c0.9-1.8,3.8-5.9,6-6.3c0.3,1.1-0.9,1.8-1.5,2.6
		c-0.8,1-2.8,5.4-2.9,7.5c-0.1,2.2,0.2,5.2,0.8,7.3c0.4,1.7,0.9,4.8-0.8,6C4.9,24.5,5,25,4.5,24.7z"/>
	<path class="st1" d="M9.8,0.9C9.8,0.7,9.5,0.5,9.3,0.6c0,0-0.1,0-0.1,0C6.7,1.2,3.7,5.7,3,7.2c-1.4,2.8-2.2,5.7-2.4,8.3
		c-0.2,2.7,0.8,7.7,3.6,9.7c0.6,0.4,1,0.6,1.6,0.7c0.7,0.9,1.2,1.1,2.4,1.9c2.5,1.7,3.7,1.6,3.1,3.2c-0.1,0.2,0,0.5,0.3,0.6
		c0.2,0.1,0.5,0,0.6-0.3c1-2.5-1.2-2.9-3.4-4.4c-2.3-1.5-3.1-2-2.5-3.4c0,0,0,0,0,0c0.7-1.7,0.3-4,0-5.2c-0.5-2-0.8-5-0.8-7.2
		C5.5,9.3,7.5,4.9,8.2,4c0.1-0.2,0.3-0.4,0.5-0.5C9.4,2.8,10.2,2,9.8,0.9z M8.9,1.7C8.8,2,8.5,2.3,8.1,2.7C7.9,2.9,7.7,3.2,7.5,3.4
		c-0.8,1-2.9,5.6-3,7.8c-0.1,2.3,0.3,5.3,0.8,7.4c0.5,2.1,0.6,4.6-0.7,5.5c0,0-0.1,0-0.1,0.1c-2.3-1.8-3.2-6.1-3-8.6
		c0.2-2.5,1-5.3,2.3-7.9C4.7,5.8,7,2.6,8.9,1.7z"/>
</g>
</svg>
