<?xml version="1.0" encoding="utf-8"?>
<!-- Generator: Adobe Illustrator 21.1.0, SVG Export Plug-In . SVG Version: 6.00 Build 0)  -->
<svg version="1.1" id="Layer_1" xmlns="http://www.w3.org/2000/svg" xmlns:xlink="http://www.w3.org/1999/xlink" x="0px" y="0px"
	 viewBox="0 0 30 32.2" style="enable-background:new 0 0 30 32.2;" xml:space="preserve">
<style type="text/css">
	.st0{fill:#FFCF42;}
</style>
<g>
	<path class="st0" d="M24.2,25.4c-0.1-0.5-0.4-1.1-0.8-1.7c2.1-0.8,1.7-2.1,0-2.3c-0.1,0-0.3,0-0.4,0c0.7-0.7,0.6-1.5-0.1-2
		c1.7-0.4,1.8-1.4,0.2-1.8c0.6-0.8,0.3-1.6-0.6-2c0-0.6-0.4-1.2-1.3-1.3c0,0,0,0,0,0c1.1-0.7,1.5-1.9,1.3-3c1.5-0.9,1-2.4-0.6-2.6
		c-0.7-0.1-1.3,0.1-1.9,0.4c0,0,0,0,0.1,0c0,0-0.5,0.3-0.1,0c-0.3,0.2,2.3-2.2,0.1-2.6c1.3-0.9,1.2-1.8-0.2-2.1
		c0.1-0.6-0.3-1.4-1.3-2.2c-1.2-1.1-2.9-0.5-4.2,0.5c-0.5-0.3-1.4-0.4-3-0.2c-1.3,0.2-2,0.8-2.4,1.6c-2.6,0-3.8,3-2.9,4.8
		C6.2,8.9,6,8.9,5.8,9c-1.7,0.4-1.5,3.1,0.8,2.8c-0.4,0.6-0.1,1.2,0.5,1.5c-0.2,0.3-0.3,0.6-0.2,1c0.2,0.6,0.5,1,1.5,1.1
		c-1,0.8-1.1,2.1-0.4,2.7C8,18,8,18,8,18c-0.2,1.2,0.8,1.1,2.1,1.1c-1.4,0.7-1.5,1.1-1.5,1.1c-0.3,1,1.9,0.4,1.9,0.4
		c-0.5,0.6,0,0.8,1.3,0.8c-1.2,0.3-1.3,0.6-1.3,0.6c-0.4,0.4,0.1,0.7,0.9,0.9c-0.9,1-0.4,2.2,1.1,2.2c0,0,0,0,0.1,0
		c0.1,0.2,0.2,0.4,0.4,0.6c-0.6,0.9-0.5,2,0.3,2.5c0.1,0.1,0.2,0.1,0.3,0.2c0.3,0.6,0.9,1,1.7,1.2c0.3,0.5,0.6,0.9,0.8,0.9
		c1,0.4,3.3-1.1,5.9-2.3c0.4-0.1,0.7-0.2,1.1-0.3C24.9,27.3,25.1,26,24.2,25.4z M12.4,10.9C12.4,10.9,12.4,10.9,12.4,10.9
		C12.3,11,12.2,11,12.1,11C12.2,11,12.3,10.9,12.4,10.9z"/>
	<path d="M26,27.1C26,27.1,26,27.1,26,27.1C26,27.1,26,27.1,26,27.1C26,27.1,26,27.1,26,27.1L24.8,5.9c0-0.1,0-0.2-0.1-0.2
		c0-0.8-0.7-1.5-1.4-1.9C22.7,3.5,21.7,3.1,20,3c-0.2-0.3-0.6-0.7-1-1.1c-0.5-0.4-1.1-0.7-1.8-0.7c-0.9,0-1.9,0.4-2.7,1
		C14.2,2.1,13.7,2,13.1,2c-0.4,0-1,0-1.5,0.1C10.3,2.4,9.5,3,9,3.7C7.5,3.8,6.5,4.9,6,6C5.9,6.3,5.8,6.6,5.8,6.9
		c-1.6,0.9-2.7,2-3.2,3c-0.3,0.6-0.3,1.2-0.1,1.7c0.1,0.3,0.2,0.5,0.4,0.7c0.8,1.4,2.7,5.1,4.7,8.7c5.2,9.5,5.4,9.6,5.6,9.7l0,0
		c1.4,0.9,2.9,1.2,4.3,1.2c0.9,0,1.8-0.1,2.5-0.3C24.7,30.4,25.9,27.3,26,27.1C25.9,27.2,25.9,27.2,26,27.1C26,27.2,26,27.1,26,27.1
		z M25.3,26.6c-0.1,0-0.1,0-0.2,0c0-0.1,0-0.3,0-0.4c0-0.4-0.3-0.7-0.6-1c-0.1-0.4-0.3-0.9-0.6-1.3c0.7-0.3,1-0.6,1.2-0.9L25.3,26.6
		z M11.6,10.8c-2,0.5-3.4,1-4.2,1.7c-0.2,0-0.4,0-0.6,0.1c0,0,0-0.1,0-0.1c-0.1-0.3,0.1-0.6,0.6-0.8c1.4-0.7,2.8-1.1,4.2-1.1
		c0.2,0,0.4,0,0.6,0c0,0,0,0.1,0,0.1c0,0-0.1,0-0.1,0.1C11.9,10.7,11.8,10.7,11.6,10.8z M11.9,11.4c0,0,0,0.1,0,0.1
		c-0.8,0.2-1.5,0.4-2.2,0.5C10.3,11.8,11,11.6,11.9,11.4C11.9,11.4,11.9,11.4,11.9,11.4z M7.8,13.1c1.3-0.2,2.8-0.5,4.3-0.9
		c0.1,0.3,0.3,0.5,0.5,0.7c0.6,0.5,1.5,0.8,2.4,0.8c0.7,0,1.4-0.2,2-0.6c0.3-0.2,0.6-0.6,1-1c0.2,0.1,0.5,0.2,1,0.2c0,0.5,0,1,0,1.6
		c0,0.6,0,1.2,0,1.7c-0.2,2-1,2.2-1.6,2.2l0,0c-0.1,0-0.2,0-0.4,0c-0.7-0.1-1.2-0.6-1.9-1.1c-0.9-0.8-1.8-1.7-3.7-1.7
		c-0.1,0-0.1,0-0.2,0c-0.4,0-0.8,0-1.1,0c-2.3,0-2.6-0.4-2.7-1C7.2,13.8,7.4,13.4,7.8,13.1z M23.1,23.4c-1.4,0.5-2.8,0.5-3.5,0.5
		c0,0,0,0,0,0c1.1,0,2.2-0.2,2.6-1c0.1-0.2,0.2-0.4,0.2-0.7c0,0,0-0.2,0.1-0.4c0.3-0.1,0.5-0.1,0.8-0.1c0.8,0.1,1.1,0.4,1.2,0.6
		C24.5,22.6,24.1,23,23.1,23.4z M23.6,24.8c-0.1,0-0.2,0-0.3,0c-0.3,0-0.5,0-0.8,0c0.1-0.2,0.2-0.3,0.3-0.5c0.1,0,0.3-0.1,0.4-0.1
		C23.4,24.3,23.5,24.5,23.6,24.8z M17.4,23.2c-0.5,0-1,0.2-1.5,0.3c0.3-0.4,0.5-0.7,0.7-1.1c0.4-0.6,0.8-1.2,1.1-1.5c0,0,0,0,0,0
		c0.5,0.1,1,0.2,1.3,0.2c0.2,0,0.3,0,0.5-0.1c0.3-0.1,0.5-0.3,0.7-0.6c0.4,0.1,0.8,0.2,1.1,0.5c0.4,0.3,0.8,0.8,0.4,1.6
		c-0.3,0.7-1.5,0.7-2.7,0.6C18.4,23.2,17.9,23.2,17.4,23.2z M18.7,23.8c0,0-0.1,0.1-0.1,0.1c-0.1,0.1-0.3,0.3-0.4,0.4
		c-0.5,0.6-1,1.1-1.4,1.4c-1.1,0.8-2.7,0.6-3.5-0.1c0,0-0.1-0.1-0.2-0.2c0.5-0.1,1-0.3,1.4-0.6c1-0.6,1.9-0.9,2.9-1
		C17.8,23.8,18.3,23.8,18.7,23.8z M20.4,19.8L20.4,19.8c0.5-0.3,1-0.4,1.5-0.3c0.6,0.1,1.1,0.4,1.1,0.8c0,0.2-0.1,0.5-0.3,0.8
		c-0.2,0-0.3,0-0.5,0.1c-0.1-0.3-0.3-0.6-0.6-0.8C21.4,20.1,20.9,19.9,20.4,19.8z M23,19c-0.3-0.1-0.6-0.2-0.9-0.3c0,0,0,0-0.1,0
		c0.5-0.2,0.9-0.5,1.2-0.7c0.5,0.1,0.7,0.3,0.7,0.4C23.9,18.6,23.7,18.9,23,19z M21.7,18.1c-0.4,0.1-0.8,0.2-1.2,0.3
		c0-0.2-0.1-0.4-0.3-0.7c0.3-0.1,0.5-0.1,0.8-0.2c1-0.3,1.5-0.9,1.8-1.4c0.2,0.1,0.3,0.3,0.3,0.5C23.1,17.1,22.8,17.8,21.7,18.1z
		 M20.8,16.9c-0.4,0.1-0.8,0.2-1.1,0.3c-0.1-0.1-0.2-0.1-0.3-0.2c0.1-0.4,0.2-0.8,0.3-1.2c0.5-0.3,1.1-0.7,1.7-1.1
		c0.5,0.1,0.8,0.4,0.9,0.8C22.3,15.9,21.9,16.5,20.8,16.9z M21.1,14c-0.5,0.3-1,0.6-1.5,0.9c0-0.3,0-0.6,0-1c0-0.4,0-1.1,0-1.6
		c0.6,0,1.4-0.1,2.3-0.4c0.1,0,0.2-0.1,0.3-0.1C22.3,12.7,21.9,13.5,21.1,14z M21.8,11.3c-1.7,0.6-2.9,0.3-3.4,0.2
		c0.6-0.8,1.2-1.6,2-2.1l0,0c0,0,0,0,0.1,0c0.5-0.3,1-0.4,1.5-0.3c0.6,0.1,1.1,0.4,1.1,0.8C23.3,10.3,22.9,11,21.8,11.3z M17.8,11.2
		c-0.4,0.6-0.8,1.1-1.2,1.4c-1.1,0.8-2.7,0.6-3.5-0.1c-0.1-0.1-0.2-0.2-0.3-0.4c1.9-0.5,3.8-1.2,5.5-1.8c0.1,0,0.3-0.1,0.4-0.1
		C18.3,10.5,18.1,10.8,17.8,11.2z M12.6,11.4c0-0.2,0.1-0.4,0.2-0.6c0.2-0.4,0.8-0.5,1.5-0.5c0.4,0,0.8,0,1.2,0.1c0.1,0,0.2,0,0.4,0
		C14.9,10.7,13.7,11,12.6,11.4z M8.6,15.7c0.4,0.1,0.9,0.1,1.5,0.1c0.3,0,0.7,0,1.2,0c1.4,0,2.2,0.5,3,1.1c-1.9,0.4-3.1,1.2-4.4,1.2
		l0,0C9,18.1,8.7,18,8.6,18C8.2,17.8,8,17.5,8,17.1C7.9,16.7,8.1,16.1,8.6,15.7z M8.6,18.7c0.3,0.1,0.7,0.1,1.2,0.1l0,0
		c0.1,0,0.2,0,0.3,0c-0.2,0.1-0.4,0.2-0.6,0.3c-0.4,0-0.8-0.1-1-0.2c0,0-0.1-0.1-0.1-0.2C8.5,18.7,8.5,18.7,8.6,18.7z M12.5,18.5
		c0.9-0.3,1.8-0.6,2.5-0.8c0.5,0.4,1.1,0.8,1.8,0.9c0.2,0,0.3,0,0.5,0l0,0c0.7,0,1.2-0.3,1.5-0.6c0.2,0,0.4,0,0.6,0
		c0.2,0.2,0.3,0.4,0.4,0.7c0.2,0.9-0.3,1.7-0.5,1.8c0,0-0.1,0-0.2,0c-0.5,0-1.4-0.3-2.4-0.5c-1.2-0.3-2.4-0.6-3.2-0.6
		c-0.2,0-0.4,0-0.5,0c-0.4,0.1-1,0.3-1.5,0.4c-0.9,0.3-1.8,0.6-2.3,0.6c0,0-0.1,0-0.1,0C9.1,20.2,9.6,19.6,12.5,18.5z M14.3,20.3
		c0.3,0,0.5,0,0.7,0c0.4,0.1,0.9,0.2,1.4,0.4c0,0,0,0.1,0.1,0.1c0,0.2-0.1,0.5-0.3,0.8c-0.4-0.1-1.2-0.2-2.3,0
		c-0.4-0.2-0.9-0.3-1.5-0.4c-0.1,0-0.3,0-0.4,0c-0.4,0-0.7,0-1,0c-0.1,0-0.2,0-0.4,0C10.9,21,11.7,20.6,14.3,20.3z M10.8,22.3
		C10.8,22.3,10.9,22.2,10.8,22.3c0.1-0.1,0.3-0.3,1.1-0.5c0.1,0,0.3,0,0.4,0c0.1,0,0.2,0,0.3,0c-0.1,0-0.2,0.1-0.3,0.1
		c-0.5,0.2-0.8,0.4-1,0.6C11,22.5,10.8,22.4,10.8,22.3C10.8,22.3,10.8,22.3,10.8,22.3z M12.6,22.5c1-0.4,1.8-0.5,2.4-0.5
		c0.4,0,0.8,0.1,1,0.1c-0.5,0.8-1.1,1.7-1.9,2.2l0,0c0,0,0,0,0,0c-0.4,0.3-0.9,0.5-1.5,0.4c-0.6,0-1.1-0.3-1.2-0.8
		C11.3,23.7,11.5,23,12.6,22.5z M13,26.3c0.6,0.4,1.4,0.7,2.2,0.7c0.7,0,1.4-0.2,2-0.6c0.4-0.3,0.9-0.9,1.5-1.5
		c0.1-0.1,0.2-0.2,0.3-0.3c0.5,0.1,1.5,0.2,2.9-0.1c-0.4,0.5-1.4,1.1-3.3,1.7c-1.4,0.4-2.2,1.1-2.9,1.6c-0.5,0.4-0.9,0.7-1.3,0.7
		c-0.3,0-0.6-0.1-1.1-0.4c-0.4-0.2-0.6-0.6-0.5-1C12.9,26.7,12.9,26.5,13,26.3z M14.7,29c0.6-0.1,1-0.4,1.5-0.8
		c0.6-0.5,1.3-1.1,2.6-1.5c0.2,0,0.3-0.1,0.5-0.2c0.2,0,0.3-0.1,0.5-0.1c-0.3,0.3-0.5,0.7-0.8,1c-0.4,0.6-0.8,1.1-1.2,1.4
		C16.9,29.5,15.5,29.5,14.7,29z M16.2,30.1c0.7,0,1.4-0.2,2-0.6c0.3-0.2,0.6-0.6,1-1c0.2,0.1,0.6,0.2,1.2,0.3
		c-0.2,0.1-0.4,0.2-0.5,0.3c-1.4,0.7-2.6,1.3-3.3,1.3l0,0c-0.1,0-0.2,0-0.3,0c-0.1,0-0.1-0.1-0.2-0.2C16,30.1,16.1,30.1,16.2,30.1z
		 M19.6,27.8c0.6-0.8,1.2-1.6,2-2.1l0,0c0,0,0,0,0,0c0.5-0.3,1-0.4,1.5-0.3c0.6,0.1,1.1,0.4,1.1,0.8c0,0.4-0.3,1.1-1.4,1.4
		C21.3,28.2,20.1,28,19.6,27.8z M24.2,7.1L25,21.8c-0.3-0.3-0.7-0.6-1.4-0.7c0.2-0.3,0.2-0.6,0.2-0.9c0-0.2-0.1-0.5-0.2-0.6
		c0.8-0.3,1-0.8,1-1.2c0-0.4-0.4-0.7-1-1c0.1-0.3,0.2-0.6,0.1-0.8c-0.1-0.5-0.4-0.9-0.9-1.2c0,0,0,0,0,0c-0.1-0.5-0.4-0.9-0.9-1.2
		c0.7-0.6,1.1-1.6,1-2.6c0,0,0-0.1,0-0.1c0.7-0.5,0.9-1.1,0.9-1.7c-0.1-0.7-0.6-1.2-1.4-1.4C23.3,8,23.9,7.6,24.2,7.1z M23,4.4
		c0.5,0.3,1.1,0.9,1,1.5l0,0c-0.1,0.6-0.3,1.2-2.3,2.1c0.1-0.2,0.1-0.4,0.1-0.6c0-0.2-0.2-0.7-0.8-0.9c0.4-0.4,0.6-0.8,0.5-1.2
		c0-0.3-0.2-0.8-1.1-1.1c0-0.2,0-0.3-0.1-0.5C21.8,3.8,22.6,4.2,23,4.4z M20.3,4.9C20.3,4.9,20.3,4.9,20.3,4.9
		c0.4,0.1,0.5,0.2,0.6,0.4c0,0.2-0.1,0.5-0.5,0.8c0-0.1,0-0.3,0-0.4c0-0.1-0.1-0.3-0.2-0.4C20.2,5.2,20.3,5,20.3,4.9z M20,6.9
		c0.8,0.1,1.2,0.3,1.2,0.6C21.3,8,20.1,9,17.4,9.7c-0.1,0-0.2,0-0.3,0c-0.5,0-1,0-1.5-0.1c-1-0.1-2.1-0.2-2.8,0.2
		c-0.5-0.1-0.9-0.3-1.3-0.5c-0.1,0-0.1,0-0.2-0.1C12,9,12.8,8.7,13.6,8.4c0.2-0.1,0.4-0.2,0.5-0.2c1.7-0.6,3.1-0.4,3.1-0.4
		c0.1,0,1.5-0.1,2-0.3C19.5,7.3,19.8,7.1,20,6.9z M15.2,6.3C15.7,6,16.6,5.5,18,5.4c1-0.1,1.6,0.2,1.7,0.5c0.1,0.2-0.2,0.7-0.8,1
		C18,7.3,16.6,6.9,15.2,6.3z M17.2,2c0.5,0,1,0.2,1.3,0.5c1,0.8,1.4,1.6,1.1,2.2c0,0.1-0.1,0.1-0.1,0.2c-0.4-0.1-0.9-0.2-1.6-0.2
		c-1.9,0.1-3.1,0.9-3.5,1.3c-0.5-0.2-1-0.5-1.5-0.8C13.5,3.9,15.5,2,17.2,2z M11.7,2.8c0.5-0.1,1-0.1,1.4-0.1c0.3,0,0.6,0,0.8,0.1
		c-0.7,0.7-1.3,1.4-1.6,2.1c-1-0.5-1.9-1-2.5-1.1C10.4,3.1,11.3,2.9,11.7,2.8z M6.7,6.2C7,5.3,7.9,4.4,9.2,4.4c0.1,0,0.2,0,0.3,0
		c0.5,0,1.6,0.6,2.7,1.2C12.9,6,15.1,7,15.4,7.2c-0.5,0.1-1,0.2-1.5,0.4c-0.2,0.1-0.3,0.1-0.5,0.2C11.9,8.3,8,9.9,7.2,9.3
		C6.4,8.7,6.2,7.4,6.7,6.2z M6.3,9.2c0.1,0.2,0.3,0.4,0.5,0.6c0.2,0.2,0.6,0.3,1,0.3c0.6,0,1.5-0.2,2.4-0.5c0.2,0.1,0.4,0.1,0.5,0.2
		C9.5,9.9,8.3,10.3,7,10.9c-0.3,0.1-0.5,0.3-0.6,0.5c-0.1,0-0.1,0-0.2,0l0,0c-0.8,0-1.1-0.5-1.2-0.9C5,10,5.3,9.5,5.9,9.3
		C6,9.3,6.1,9.3,6.3,9.2z M3.5,11.8c-0.1-0.2-0.2-0.4-0.3-0.6C3,10.9,3,10.5,3.2,10.1c0.3-0.7,1.1-1.5,2.5-2.4
		c0,0.3,0.1,0.6,0.2,0.9c-0.1,0-0.1,0-0.2,0c-1,0.2-1.4,1.2-1.3,1.9C4.5,11.3,5,12,6.1,12.1c0,0.1,0,0.3,0,0.4
		c-0.9,0-1.6-0.1-2.2-0.3C3.8,12.1,3.6,12,3.5,11.8z M4.1,12.9c0.5,0.2,1.2,0.2,1.9,0.2c0.2,0,0.3,0,0.5,0c0.1,0.1,0.1,0.1,0.2,0.2
		c-0.1,0.3-0.1,0.6-0.1,0.9c0.2,0.7,0.6,1,1.2,1.2c-0.4,0.5-0.6,1-0.5,1.6c0,0.4,0.2,0.8,0.5,1.1v0c-0.1,0.4,0,0.8,0.2,1
		c0.2,0.2,0.4,0.3,0.7,0.4c-0.2,0.2-0.3,0.4-0.4,0.5c-0.1,0.3,0,0.5,0.1,0.6C8.5,20.9,8.8,21,9.1,21l0,0c0.2,0,0.5,0,0.8-0.1
		c-0.1,0.1-0.2,0.4-0.1,0.6c0.1,0.2,0.4,0.3,0.5,0.3c0,0,0,0.1-0.1,0.1c-0.3,0.3-0.2,0.6-0.1,0.7c0,0.1,0.2,0.3,0.7,0.5
		c-0.2,0.4-0.3,0.7-0.2,1.1c0.1,0.7,0.8,1.2,1.7,1.3c0,0.1,0.1,0.2,0.2,0.3c-0.2,0.3-0.3,0.7-0.3,1.1c0,0.7,0.3,1.3,0.9,1.6
		c0.1,0.1,0.2,0.1,0.3,0.2c0.1,0.2,0.3,0.4,0.5,0.6c0,0,0,0,0,0c-0.2,0.2-0.3,0.3-0.4,0.5C12.2,27.9,7.6,19.5,4.1,12.9z M24.2,28.5
		c-0.7,0.8-2.1,1.8-4.3,2.4c-2.3,0.6-4.3,0.3-6-0.6c0.1-0.1,0.3-0.3,0.6-0.6c0.2,0.1,0.4,0.2,0.6,0.2c0.3,0.5,0.7,0.9,0.9,1
		c0.2,0.1,0.3,0.1,0.5,0.1l0,0c0.9,0,2.1-0.6,3.6-1.4c0.6-0.3,1.3-0.6,2-1c0.4-0.1,0.7-0.2,1.1-0.3c0.8-0.3,1.3-0.7,1.6-1.1
		c0.1,0,0.3,0,0.4,0.1C25,27.6,24.7,28,24.2,28.5z"/>
</g>
</svg>
