<svg viewBox="0 0 30 27.8" xmlns="http://www.w3.org/2000/svg"><path d="m21.6 6.2c-.3-.5-.7-.7-1.1-.7.2-.7.1-1.3-.4-1.8.5-.3.5-.6.5-.8-.1-.4-.6-1.1-3.2-1.1-1.3 0-2.3.4-3 .9 0-.3-.1-.7-.3-1.1-.2-.5-1.4-.6-2.8 1-.5.5-.8.9-.9 1.3 0-1 .1-1.8-.7-2.1-1.6-.5-1.6 1.6-1.6 2.3 0 .5.3 2.8 1 3.8-1 1.6-.2 4.9-.1 5.2.1.2.3.6.6.8-.3.3-.6.6-.6.9 0 .6.4 1.1 1.2 1.3-.1.3-.1.7-.1 1.2v.5c-.4.4-.6.9-.4 1.4.1.3.4.5.7.6.2.9.5 1.4.9 1.5h.2c.1.1.3.2.5.3-.6-.1-1.1-.2-1.3.1-.7.6.3 1.7 1.3 2.2s2.5 1.6 5 .7c1.7-.6 1.7-1.2 1.5-1.7 1.1-.4 2-2.7 1.5-3.3s-.9-.7-1.3-.6c0-.1 0-.3 0-.4.7.6 1.1.2 1.1.2.7-.3.9-2 .2-3.1.8-.2 1.5-1.3.8-2 .7-1 1.1-2.3 1.2-3.1 0-.4 0-.8-.1-1 .6-1 .2-2.6-.3-3.4z" fill="#f16a26"/><path d="m23.3 7.9c-.2-.2-.5-.5-1-.8-.1-.4-.2-.8-.4-1.1-.3-.5-.7-.7-1-.8 0-.1 0-.2 0-.3 0-.5-.1-.9-.4-1.2.1 0 .1-.1.2-.1.2-.2.3-.5.2-.7-.1-.4-.5-1.3-3.2-1.3-.1 0-.2 0-.2 0-1.2 0-2 .3-2.7.7 0-.2-.1-.5-.2-.7-.1-.3-.5-.5-.9-.5s-1.3.2-2.4 1.4c-.2.2-.4.4-.5.6 0-.7-.2-1.3-.9-1.5-.3-.1-.4-.1-.6-.1-.7 0-1.4.4-1.4 2.6 0 .2.1 1 .2 1.8-.4.2-.8.4-1.1.7-.4.4-.6.8-.5 1.3 0 .1 0 .2.1.3.2 1 .8 4.4 1.5 7.7 1.6 8.1 1.7 8.3 1.8 8.4 1.4 1.6 3.3 2.1 4.7 2.2h.6c3.2 0 4.5-1.7 4.6-1.8s4.2-15 4.2-15.1c.1-.6-.3-1.2-.7-1.7zm-2.6-2.1c.3.1.5.2.7.5.4.7.7 1.8.5 2.7-.1-.1-.2-.2-.3-.3-.2-.2-.3-.4-.5-.4.4-.3.6-.7.5-1.2-.2-.6-.5-.9-.9-1.1 0-.1 0-.2 0-.2zm-9.9 16.4c0-.1 0-.2.1-.3s.2-.1.4-.1.5.1.8.1c.2.1.4.1.5.1s.2.1.3.1c.5.2 1 .3 1.4.4h.4c.6 0 1.2-.1 1.6-.1.3 0 .6-.1.8-.1.3 0 .4.1.5.1.3.3.6.6.6 1-.1.2-.3.6-1.4 1-.6.2-1.2.3-1.7.3-1.2 0-2-.5-2.7-.8-.1-.1-.2-.1-.3-.1-.6-.5-1.2-1.1-1.3-1.6zm.3-10.4v.2c.1.7.2 1.2-.5 1.6-.2.1-.4.1-.5.1-.4 0-.7-.4-.9-.8v-.1c-.1-.2-.5-1.7-.4-3.1.6.2 1.3.3 2.1.4 0 .8.1 1.3.2 1.7zm7.1-6.1c-.4-.5-.8-.7-1.3-.7-.6 0-1.3.6-1.7 1.2-.2 0-.3 0-.5 0-.8 0-1.3.1-1.7.2-.2.1-.4.1-.5.1h-.1c-.6 0-1-.3-1.1-.7-.1-.2 0-.4.2-.6.4-.6 1.6-1 2.6-1h.3.3c1.3.1 3 .3 3.3.7 0 .2.2.5.2.8zm-.2-1.3h.4c0 .1-.1.1-.1.2-.1-.1-.2-.2-.3-.2zm1.2 5.8c0 .1-.1.2-.1.2-1.6 0-2.5 0-2.9-.1-.1-.1-.1-.1-.2-.2-.4-.3-.9-.5-1.6-.7-.9-.3-1.9-.6-1.9-1.3 0-.3.3-.5.9-.8.1-.1.2-.1.4-.2h.1c.4 0 1.4.4 2.5 1 1 .5 2 1.2 2.4 1.5.1.3.3.4.4.6zm-.2-1c.1 0 .2-.1.3-.1s.1 0 .2-.1c0 .1-.1.3-.1.5-.1-.1-.2-.2-.2-.3-.1.1-.1.1-.2 0zm-3.6 8c.7-.1 1.4-.2 2-.4 1.1 1.2 1.3 2.4.6 3.5-.1.2-.2.3-.4.3-.1 0-.2 0-.2-.1-.1-.4-.3-.7-.6-1-.1-.1-.2-.1-.3-.2 0-.1-.1-.2-.1-.3.1-.7-.5-1.4-1-1.8zm.6 1.5c-1-.7-1.6-1-1.7-1 0 0 0 0-.1 0 .1-.2.1-.3.2-.5h.3c.5.4 1.1 1.1 1.3 1.5zm-1.3-2c-.4 0-.8 0-1.1-.1-.7-.1-1.1-.4-1.3-.9-.1-.4 0-.8.1-.9h.1c.2 0 .4 0 .7.1.5.1 1.1.2 1.6.2.4 0 .7 0 1-.1.2-.1.5-.2.9-.4.6-.3 1.5-.8 1.9-.8h.2c.1.1.2.2.3.4.1.4-.2 1-.6 1.4-.7.7-2.7 1.1-3.8 1.1zm-.9.4c0 .1-.1.3-.1.4-.4-.1-.7-.2-1.1-.3v-.1c0-.1 0-.2 0-.3.2.1.5.2.8.3zm-.1-2.7c.2 0 .4-.1.7-.2.7-.3 1.1-.5 1.4-.6.1-.1.2-.1.3-.1-.3.5-.5.8-.6 1-.2 0-.4.1-.7.1-.4-.1-.8-.1-1.1-.2zm2.7-.3c0-.1.1-.1.1-.2.1-.2.2-.4.3-.5h.2c-.1.1-.1.3-.1.4-.1.1-.2.1-.4.2-.1 0-.1.1-.1.1zm.1-1.3c-.3 0-.6.1-.9.3s-.7.4-1.4.6c-.1 0-.2.1-.3.1.2-.8.7-1.8.9-2.2.5-.1 1.1-.2 1.8-.2.4.3 1 .7 1.5.9-.2.2-.3.4-.5.5-.1.1-.2.1-.3.2-.4-.1-.6-.2-.8-.2zm-1.7-2.5s-.1-.1-.1-.1c.2.1.3.1.5.2-.2-.1-.3-.1-.4-.1zm.8.6h.3c-.3 0-.7.1-1 .1 0-.1 0-.1 0-.2.3 0 .5 0 .7.1zm1.2 0h2c-.2.3-.3.6-.5.9-.4-.1-1-.5-1.5-.9zm-4.4-3.5c0-.1 0-.2-.1-.3h.1.2c.2 0 .4-.1.6-.1-.3.1-.6.2-.8.4zm1.8-.6h.5.2c0 .1-.1.1-.1.2-.2-.1-.4-.2-.6-.2zm3.8.8c-.1.4-.2.6-.4.7-.7-.4-1.6-.9-2.3-1.2.1-.2.2-.5.5-.9.4-.4.8-.7 1.1-.7s.6.2.8.4c.3.5.4 1.1.3 1.7zm-4 2.3c-.2 0-.4.1-.7.2-.7-.1-1.3-.2-1.8-.2 0-.2.1-.4.2-.6.1-.3.2-.5.3-.8.2.7 1.1 1.1 2 1.4zm-1.4.6c-.4.3-.7.6-1 1-.1-.3-.1-.7-.1-1.1.3 0 .7.1 1.1.1zm-.9 1.7c.5-.8 1.2-1.3 1.7-1.6.3 0 .7.1 1 .1v.5c-.1.2-.7 1.6-1 2.6 0 .1-.1.3-.2.5-.3 0-.5-.1-.6-.1s-.2 0-.4.1c-.2.2-.5.8-.3 1.4v.1c-.3.2-.5.4-.7.4-.1 0-.1 0-.1-.1-.1-.1-.2-.3-.2-1 0-.3 0-.7.1-1 .9-.5.8-1.3.7-1.9zm.5 4.3c-.1.2-.1.4-.1.6-.1 0-.3 0-.4 0-.5 0-.8.1-1.1.3 0 0 0 0-.1 0 0 0 0 0 0-.1 0-.3 0-.6 0-.9h.1c.1.1.3.2.5.2.3 0 .6-.2.9-.4.1.2.1.2.2.3zm-2.5-2.3c.1.1.3.1.5.1h.2c0 .3-.1.5-.1.8v.2c-.1.1-.1.3-.2.5-.5-.2-.7-.5-.7-1-.1-.2.1-.4.3-.6zm1.1 3.6c.2-.1.5-.2.9-.2.7 0 1.5.2 2.4.6s.9.3 2.4 1.6c.4.3.5.7.4 1.1-.1.3-.5.6-1 .6-.3 0-.7-.1-1-.5-.4-.4-.7-.7-1-1-.2-.2-.4-.5-.8-.6-.1-.1-.3-.1-.5-.1s-.4 0-.6.1c-.1 0-.3 0-.4.1-.4.1-.7.1-.9.1-.4 0-.6-.1-.7-.4-.2-.7.5-1.2.8-1.4zm1.5 3.6c-.5-.2-.7-.5-.6-.8.1-.4.5-.8 1-.8h.3c.6.2.8.8.7 1.1-.1.4-.3.6-.7.6h-.1c-.2 0-.4 0-.6-.1zm3.5.6c-.3 0-.6.1-.9.1-.1 0-.3 0-.4 0-.2 0-.4-.1-.7-.2.2-.2.4-.4.5-.8 0-.1 0-.1 0-.2.1.1.2.2.3.4.3.4.7.6 1.2.7zm-4.4-1.9c-.1.1-.1.3-.2.4v.4c-.1-.1-.2-.4-.3-.7.1-.1.3-.1.5-.1zm6.7 2c-.3-.3-.6-.3-.8-.3s-.5 0-.8.1c.4-.1.7-.4.9-.8 0 0 0 0 0-.1.1 0 .2.1.3.1.2 0 .6-.1.8-.5.3-.4.4-.9.5-1.3.2 0 .5.2.8.6.1.2.1.7-.2 1.4-.3.6-.7 1.1-1 1.3-.2-.2-.3-.4-.5-.5zm1.6-3.4s-.1 0-.2 0-.3 0-.5-.2c-.1-.8-.5-1.5-1-2 .4-.2.7-.4 1-.6.1-.1.1-.1.2-.2.2.2.5.3.8.3.3.7.4 1.5.2 2-.2.4-.3.6-.5.7zm.3-3.2c-.2 0-.5 0-.6-.2s0-.1.1-.1c.5-.1 1-.5 1.5-1 .2.4 0 .9-.2 1.1-.3.1-.5.2-.8.2zm-.4-.9c0-.2 0-.3 0-.5 0-.4-.2-.6-.5-.8-.1-.1-.3-.1-.5-.1-.3 0-.8.1-1.2.3.1-.1.2-.2.4-.3.6-.4 1.2-1.3 1.6-2.2h1 .3 1c-.1 1-.9 3-2.1 3.6zm.9-4.2c-.3 0-.6 0-.8 0 .2-.6.3-1.1.3-1.2 0-.2.3-.5.6-.5.2 0 .4.1.5.4 0 0 .1.1.1.1s.5.3.5 1.3c-.3-.1-.7 0-1.2-.1zm.6-3.1c.1.4-.4.8-1.9 1.4-.2.1-.5.2-.7.2-.1-.1-.2-.2-.4-.2.2-.2.3-.5.4-.8v-.1h.3c.2 0 .4 0 .6-.1.4-.1.7-.6 1-1.1.3-.1.5.2.7.7zm-2.5-2.2c0-.1 0-.1 0 0 .6-1.1.9-1.3 1.1-1.3.4.2.7.6.7 1.2 0 .9-.7 1.9-1.1 2.1-.1 0-.3.1-.4.1-.1 0-.2 0-.2 0 0-.2 0-.4-.1-.6v-.1c.2-.5.1-1 0-1.4zm-1.2-3c2.2 0 2.9.5 2.9.9 0 .1 0 .2-.1.3 0 0-.1.1-.1.1-.1-.1-.2-.1-.3-.2-.1 0-.2-.1-.2-.1-.3 0-.6.2-.9.6-.3 0-.6.1-1 .1-.5 0-.9 0-1.3.1-.5-.1-1.1-.2-1.8-.2h-.3c-.1 0-.2 0-.4 0 0 0 0 0-.1 0 .7-.7 1.7-1.6 3.6-1.6zm-5.8.7c1-1.1 1.7-1.2 2-1.2.2 0 .4.1.4.2.1.3.2.6.2.9-.4.4-.8.8-1 1.1-.9.2-1.8.6-2.2 1.2 0-.1 0 0-.1 0 0-.1 0-.2-.1-.2-.1-.3-.1-.5-.1-.8.2-.3.5-.7.9-1.2zm-1 5.4c.3-.3.4-.7.4-1.2.1-.1.2-.1.3-.1.1.1.2.1.3.2 0 0 0 .1.1.1.2.4.1.5-.1 1-.1.2-.3.5-.4 1-.1.1-.2.3-.2.6-.9-.1-1.5-.3-2.1-.4.1-.4.1-.7.2-.9 0-.1 0-.1.1-.2.1.1.3.2.5.3h.3c.2 0 .5-.1.6-.4zm-1.3-6.2c.1 0 .2 0 .4.1.5.2.5.6.6 1.5 0 .4 0 .9.1 1.4.3 1 .3 2.5-.1 3-.2.1-.3.1-.4.1h-.1c-1-.3-1.4-3.3-1.4-4 0-1 .1-2.1.9-2.1zm-2.3 5.8c0-.3.1-.5.4-.8.2-.2.5-.4.8-.6.2.6.4 1.1.6 1.5-.1.1-.1.3-.2.4-.1.3-.1.6-.2.9-.9-.3-1.2-.7-1.4-1.1 0-.1 0-.2 0-.3zm3.2 15.9c-.4-1.6-1.8-8.9-2.9-14.6.3.2.6.4 1.1.5-.1 1.5.3 3.2.4 3.5v.1c.1.2.2.4.4.7-.3.3-.4.6-.4.9 0 .7.4 1.2 1.1 1.5 0 .3-.1.7 0 1.1v.4c-.5.5-.6 1.1-.4 1.6.2.4.4.6.7.7.2.6.4 1 .6 1.3-.1 0-.2.1-.3.2-.2.2-.4.5-.3.8 0 .4.3.8.6 1.1-.2 0-.5.1-.6.2zm8 1.6c-.7.4-1.9.8-3.6.7-1.8-.1-3.2-.7-4.2-1.8.2-.1.5-.3 1-.4.2.1.4.3.6.4.1 0 .2.1.3.1.7.4 1.7.9 3 .9.6 0 1.3-.1 1.9-.3.5-.2.9-.4 1.2-.6.4.2.6.3.8.4-.2.1-.5.4-1 .6zm1.2-1.1c-.2-.1-.4-.2-.7-.3.1-.1.1-.2.1-.3 0-.2 0-.4 0-.5.5-.3 1-1 1.3-1.6.1-.3.6-1.4.1-2-.1-.1-.2-.2-.3-.3h.1c.3-.1.5-.4.7-.9.2-.6.2-1.5-.2-2.3.2-.1.4-.2.6-.4.5-.5.7-1.3.2-1.9 0-.1.1-.2.1-.2.5-.8.8-1.8.9-2.6.4-.1.6-.2.8-.3zm3.9-14.6c-.1.3-.3.5-1 .7 0-.3-.1-.5-.1-.7.2-.4.3-1 .3-1.6v-.1c.2.2.4.3.5.4.2.3.5.9.3 1.3z"/></svg>