<svg viewBox="0 0 30 29.1" xmlns="http://www.w3.org/2000/svg"><path d="m8.2 16s2.4-2.6 4.9-3.9 4.9-2.2 5.7-2.2c.7 0 7 10.3 7.3 11s-3.2 7.1-9.5 7.5c-4.5.3-4.7-2.4-5.7-5-1.2-3.4-2.9-6.9-2.7-7.4" fill="#fff"/><path d="m5.8 9.8c2.6.8 8.5-2.4 9.6-5.2l-.7-1.7c-.4-.6-2.2-1.9-2.2-1.9s-1.4-.5-3.9.5c-2.6 1-3.9 3-4.3 4 0 0-.8 1.7.5 3.4 1.3 1.8 1 .9 1 .9" fill="#b6b6b7"/><g fill="#221f1f"><path d="m20.7 27.5c-3.6 1.9-7.4.9-8.2.1-.8-.6-5.8-13.7-7.4-17.8-.9-1-1.4-2.1-1.2-3.4.2-1.7 1.5-3.5 3.4-4.6 1.7-1 3.5-1.4 5.3-1 2.1.4 3.1 3.2 3.2 3.7 1.2 1.5 10.1 14.3 10.3 15.9.4 1.9-1.9 5.3-5.4 7.1zm-7.8-.4c.7.5 4.1 1.5 7.4-.2 3.5-1.8 5.4-4.9 5.1-6.3-.2-1.1-6.2-10.1-10.2-15.8v-.1s-.9-2.9-2.7-3.2c-1.7-.3-3.2 0-4.8.9-1.8 1-3 2.5-3.1 4-.1 1.1.2 2 1.1 2.9 0 0 .1.1.1.1 2.4 6.5 6.5 17 7.1 17.7zm-2.7-20c-.2.1-.4 0-.5-.2s0-.4.2-.5c2.8-1.4 3.6-3.1 3.6-3.1.1-.2.3-.2.5-.2.2.1.2.3.2.5-.1.2-1 2-4 3.5z"/><path d="m9.2 4.6c.3-.2.1-.7-.3-.5-.3.2 0 .7.3.5"/><path d="m7.6 4.8c.3-.2.1-.7-.3-.5-.3.1 0 .6.3.5"/><path d="m6.4 5.6c.4-.2.1-.7-.2-.6-.4.2-.1.7.2.6"/><path d="m8.6 3.3c.4-.1.1-.7-.2-.5-.4.2-.1.7.2.5"/><path d="m10.1 3.3c.3-.2.1-.7-.3-.5-.3.2-.1.7.3.5"/><path d="m11.4 2.9c.3-.2.1-.7-.3-.5-.3.2-.1.7.3.5"/><path d="m15.6 14.8c-.2.1-.4 0-.5-.1-.1-.2 0-.4.1-.5 2.4-1.4 3.7-2.7 3.6-3.7 0 0 0-.1-.1-.1-.6-.3-2.8.4-5.6 1.9-3.2 1.8-4.9 3.5-4.7 4.1.1.2 0 .4-.2.5s-.4 0-.5-.2c-.6-1.7 3.6-4.2 5-5 2.2-1.2 5.2-2.5 6.2-2 .3.1.4.3.5.6.3 1.4-1 2.9-3.8 4.5z"/><path d="m14.7 24.1c.3-.2.1-.7-.3-.5-.3.2-.1.7.3.5"/><path d="m11.5 20c.3-.2.1-.7-.3-.5-.3.2 0 .7.3.5"/><path d="m14 26.2c.3-.2.1-.7-.3-.5-.4.1-.1.7.3.5"/><path d="m18 26.4c.3-.2.1-.7-.3-.5s-.1.7.3.5"/><path d="m17.8 22.8c.3-.2.1-.7-.3-.5-.3.2-.1.7.3.5"/><path d="m13.3 22.6c.3-.2.1-.7-.3-.5-.4.1-.1.7.3.5"/><path d="m21 17.7c.3-.2.1-.7-.3-.5-.3.2-.1.7.3.5"/><path d="m12.6 24.1c.3-.2.1-.7-.3-.5-.3.1 0 .6.3.5"/><path d="m10.9 8.8c-1.9 1-4 1.5-5.4 1.2-.2-.1-.3-.3-.2-.5s.3-.3.4-.2c2.5.7 8.2-2.3 9.2-5 .1-.2.3-.3.5-.2s.3.3.2.5c-.6 1.5-2.6 3.1-4.7 4.2z"/></g></svg>