<?xml version="1.0" encoding="utf-8"?>
<!-- Generator: Adobe Illustrator 21.1.0, SVG Export Plug-In . SVG Version: 6.00 Build 0)  -->
<svg version="1.1" id="Layer_1" xmlns="http://www.w3.org/2000/svg" xmlns:xlink="http://www.w3.org/1999/xlink" x="0px" y="0px"
	 viewBox="0 0 30 27.8" style="enable-background:new 0 0 30 27.8;" xml:space="preserve">
<style type="text/css">
	.st0{fill:#F16A26;}
</style>
<g>
	<path class="st0" d="M21.6,6.2c-0.3-0.5-0.7-0.7-1.1-0.7c0.2-0.7,0.1-1.3-0.4-1.8c0.5-0.3,0.5-0.6,0.5-0.8
		c-0.1-0.4-0.6-1.1-3.2-1.1c-1.3,0-2.3,0.4-3,0.9c0-0.3-0.1-0.7-0.3-1.1c-0.2-0.5-1.4-0.6-2.8,1c-0.5,0.5-0.8,0.9-0.9,1.3
		c0-1,0.1-1.8-0.7-2.1C8.1,1.3,8.1,3.4,8.1,4.1c0,0.5,0.3,2.8,1,3.8c-1,1.6-0.2,4.9-0.1,5.2c0.1,0.2,0.3,0.6,0.6,0.8
		c-0.3,0.3-0.6,0.6-0.6,0.9c0,0.6,0.4,1.1,1.2,1.3c-0.1,0.3-0.1,0.7-0.1,1.2c0,0.2,0,0.4,0,0.5c-0.4,0.4-0.6,0.9-0.4,1.4
		c0.1,0.3,0.4,0.5,0.7,0.6c0.2,0.9,0.5,1.4,0.9,1.5c0.1,0,0.1,0,0.2,0c0.1,0.1,0.3,0.2,0.5,0.3c0,0,0,0,0,0
		c-0.6-0.1-1.1-0.2-1.3,0.1c-0.7,0.6,0.3,1.7,1.3,2.2c1,0.5,2.5,1.6,5,0.7c1.7-0.6,1.7-1.2,1.5-1.7c1.1-0.4,2-2.7,1.5-3.3
		c-0.5-0.6-0.9-0.7-1.3-0.6c0-0.1,0-0.3,0-0.4c0.7,0.6,1.1,0.2,1.1,0.2c0.7-0.3,0.9-2,0.2-3.1c0.8-0.2,1.5-1.3,0.8-2
		c0.7-1,1.1-2.3,1.2-3.1c0-0.4,0-0.8-0.1-1C22.5,8.6,22.1,7,21.6,6.2z"/>
	<path d="M23.3,7.9c-0.2-0.2-0.5-0.5-1-0.8c-0.1-0.4-0.2-0.8-0.4-1.1c-0.3-0.5-0.7-0.7-1-0.8c0-0.1,0-0.2,0-0.3
		c0-0.5-0.1-0.9-0.4-1.2c0.1,0,0.1-0.1,0.2-0.1c0.2-0.2,0.3-0.5,0.2-0.7c-0.1-0.4-0.5-1.3-3.2-1.3c-0.1,0-0.2,0-0.2,0
		c-1.2,0-2,0.3-2.7,0.7c0-0.2-0.1-0.5-0.2-0.7c-0.1-0.3-0.5-0.5-0.9-0.5c-0.4,0-1.3,0.2-2.4,1.4c-0.2,0.2-0.4,0.4-0.5,0.6
		c0-0.7-0.2-1.3-0.9-1.5C9.6,1.5,9.5,1.5,9.3,1.5c-0.7,0-1.4,0.4-1.4,2.6c0,0.2,0.1,1,0.2,1.8C7.7,6.1,7.3,6.3,7,6.6
		C6.6,7,6.4,7.4,6.5,7.9c0,0.1,0,0.2,0.1,0.3c0.2,1,0.8,4.4,1.5,7.7c1.6,8.1,1.7,8.3,1.8,8.4l0,0c1.4,1.6,3.3,2.1,4.7,2.2
		c0.2,0,0.4,0,0.6,0c3.2,0,4.5-1.7,4.6-1.8l0,0c0,0,0,0,0,0c0,0,0,0,0,0c0,0,0,0,0,0v0c0,0,4.2-15,4.2-15.1
		C24.1,9,23.7,8.4,23.3,7.9z M20.7,5.8C21,5.9,21.2,6,21.4,6.3C21.8,7,22.1,8.1,21.9,9c-0.1-0.1-0.2-0.2-0.3-0.3
		c-0.2-0.2-0.3-0.4-0.5-0.4c0.4-0.3,0.6-0.7,0.5-1.2c-0.2-0.6-0.5-0.9-0.9-1.1C20.7,5.9,20.7,5.8,20.7,5.8z M10.8,22.2
		c0-0.1,0-0.2,0.1-0.3c0.1-0.1,0.2-0.1,0.4-0.1c0.2,0,0.5,0.1,0.8,0.1c0,0,0,0,0,0c0.2,0.1,0.4,0.1,0.5,0.1c0.1,0,0.2,0.1,0.3,0.1
		c0.5,0.2,1,0.3,1.4,0.4c0.1,0,0.3,0,0.4,0c0.6,0,1.2-0.1,1.6-0.1c0.3,0,0.6-0.1,0.8-0.1c0.3,0,0.4,0.1,0.5,0.1
		c0.3,0.3,0.6,0.6,0.6,1c-0.1,0.2-0.3,0.6-1.4,1c-0.6,0.2-1.2,0.3-1.7,0.3c-1.2,0-2-0.5-2.7-0.8c-0.1-0.1-0.2-0.1-0.3-0.1
		C11.5,23.3,10.9,22.7,10.8,22.2z M11.1,11.8c0,0.1,0,0.1,0,0.2l0,0c0.1,0.7,0.2,1.2-0.5,1.6c-0.2,0.1-0.4,0.1-0.5,0.1
		c-0.4,0-0.7-0.4-0.9-0.8l0-0.1c-0.1-0.2-0.5-1.7-0.4-3.1c0.6,0.2,1.3,0.3,2.1,0.4C10.9,10.9,11,11.4,11.1,11.8z M18.2,5.7
		C18.2,5.7,18.1,5.7,18.2,5.7C17.8,5.2,17.4,5,16.9,5c-0.6,0-1.3,0.6-1.7,1.2c-0.2,0-0.3,0-0.5,0c-0.8,0-1.3,0.1-1.7,0.2
		c-0.2,0.1-0.4,0.1-0.5,0.1c0,0-0.1,0-0.1,0c-0.6,0-1-0.3-1.1-0.7c-0.1-0.2,0-0.4,0.2-0.6c0.4-0.6,1.6-1,2.6-1c0.1,0,0.2,0,0.3,0
		l0.3,0c1.3,0.1,3,0.3,3.3,0.7C18,5.1,18.2,5.4,18.2,5.7z M18,4.4c0.1,0,0.3,0,0.4,0c0,0.1-0.1,0.1-0.1,0.2
		C18.2,4.5,18.1,4.4,18,4.4z M19.2,10.2c0,0.1-0.1,0.2-0.1,0.2c-1.6,0-2.5,0-2.9-0.1c-0.1-0.1-0.1-0.1-0.2-0.2
		c-0.4-0.3-0.9-0.5-1.6-0.7c-0.9-0.3-1.9-0.6-1.9-1.3c0-0.3,0.3-0.5,0.9-0.8c0.1-0.1,0.2-0.1,0.4-0.2c0,0,0,0,0.1,0
		c0.4,0,1.4,0.4,2.5,1c1,0.5,2,1.2,2.4,1.5C18.9,9.9,19.1,10,19.2,10.2z M19,9.2c0.1,0,0.2-0.1,0.3-0.1c0.1,0,0.1,0,0.2-0.1
		c0,0,0,0,0,0c0,0.1-0.1,0.3-0.1,0.5c-0.1-0.1-0.2-0.2-0.2-0.3C19.1,9.3,19.1,9.3,19,9.2z M15.4,17.2c0.7-0.1,1.4-0.2,2-0.4
		c1.1,1.2,1.3,2.4,0.6,3.5c-0.1,0.2-0.2,0.3-0.4,0.3c-0.1,0-0.2,0-0.2-0.1c-0.1-0.4-0.3-0.7-0.6-1c-0.1-0.1-0.2-0.1-0.3-0.2
		c0-0.1-0.1-0.2-0.1-0.3C16.5,18.3,15.9,17.6,15.4,17.2z M16,18.7c-1-0.7-1.6-1-1.7-1c0,0,0,0-0.1,0c0.1-0.2,0.1-0.3,0.2-0.5
		c0.1,0,0.2,0,0.3,0l0,0c0,0,0,0,0,0C15.2,17.6,15.8,18.3,16,18.7z M14.7,16.7c-0.4,0-0.8,0-1.1-0.1c-0.7-0.1-1.1-0.4-1.3-0.9
		c-0.1-0.4,0-0.8,0.1-0.9c0,0,0,0,0.1,0c0.2,0,0.4,0,0.7,0.1c0.5,0.1,1.1,0.2,1.6,0.2l0,0c0.4,0,0.7,0,1-0.1
		c0.2-0.1,0.5-0.2,0.9-0.4c0.6-0.3,1.5-0.8,1.9-0.8c0.1,0,0.1,0,0.2,0c0.1,0.1,0.2,0.2,0.3,0.4c0.1,0.4-0.2,1-0.6,1.4
		C17.8,16.3,15.8,16.7,14.7,16.7z M13.8,17.1c0,0.1-0.1,0.3-0.1,0.4c-0.4-0.1-0.7-0.2-1.1-0.3c0,0,0-0.1,0-0.1c0-0.1,0-0.2,0-0.3
		c0.2,0.1,0.5,0.2,0.8,0.3C13.6,17.1,13.7,17.1,13.8,17.1z M13.7,14.4C13.7,14.4,13.7,14.4,13.7,14.4c0.2,0,0.4-0.1,0.7-0.2
		c0.7-0.3,1.1-0.5,1.4-0.6c0.1-0.1,0.2-0.1,0.3-0.1c-0.3,0.5-0.5,0.8-0.6,1c-0.2,0-0.4,0.1-0.7,0.1C14.4,14.5,14,14.5,13.7,14.4z
		 M16.4,14.1c0-0.1,0.1-0.1,0.1-0.2c0.1-0.2,0.2-0.4,0.3-0.5c0.1,0,0.1,0,0.2,0c-0.1,0.1-0.1,0.3-0.1,0.4c-0.1,0.1-0.2,0.1-0.4,0.2
		C16.4,14,16.4,14.1,16.4,14.1z M16.5,12.8c-0.3,0-0.6,0.1-0.9,0.3c-0.3,0.2-0.7,0.4-1.4,0.6c-0.1,0-0.2,0.1-0.3,0.1
		c0.2-0.8,0.7-1.8,0.9-2.2c0.5-0.1,1.1-0.2,1.8-0.2c0.4,0.3,1,0.7,1.5,0.9c-0.2,0.2-0.3,0.4-0.5,0.5c-0.1,0.1-0.2,0.1-0.3,0.2
		C16.9,12.9,16.7,12.8,16.5,12.8z M14.8,10.3c0,0-0.1-0.1-0.1-0.1c0.2,0.1,0.3,0.1,0.5,0.2C15,10.3,14.9,10.3,14.8,10.3z M15.6,10.9
		C15.6,10.9,15.6,10.9,15.6,10.9c0,0,0.1,0,0.3,0c0,0,0,0,0,0c-0.3,0-0.7,0.1-1,0.1c0-0.1,0-0.1,0-0.2
		C15.2,10.8,15.4,10.8,15.6,10.9z M16.8,10.9c0.5,0,1.1,0,2,0c-0.2,0.3-0.3,0.6-0.5,0.9C17.9,11.7,17.3,11.3,16.8,10.9z M12.4,7.4
		c0-0.1,0-0.2-0.1-0.3c0,0,0,0,0.1,0c0.1,0,0.1,0,0.2,0c0.2,0,0.4-0.1,0.6-0.1C12.9,7.1,12.6,7.2,12.4,7.4z M14.2,6.8
		c0.2,0,0.3,0,0.5,0c0,0,0.1,0,0.2,0c0,0.1-0.1,0.1-0.1,0.2C14.6,6.9,14.4,6.8,14.2,6.8z M18,7.6c-0.1,0.4-0.2,0.6-0.4,0.7
		c-0.7-0.4-1.6-0.9-2.3-1.2c0.1-0.2,0.2-0.5,0.5-0.9c0.4-0.4,0.8-0.7,1.1-0.7c0.3,0,0.6,0.2,0.8,0.4C18,6.4,18.1,7,18,7.6z M14,9.9
		c-0.2,0-0.4,0.1-0.7,0.2c-0.7-0.1-1.3-0.2-1.8-0.2c0-0.2,0.1-0.4,0.2-0.6c0.1-0.3,0.2-0.5,0.3-0.8C12.2,9.2,13.1,9.6,14,9.9z
		 M12.6,10.5c-0.4,0.3-0.7,0.6-1,1c-0.1-0.3-0.1-0.7-0.1-1.1C11.8,10.4,12.2,10.5,12.6,10.5z M11.7,12.2c0.5-0.8,1.2-1.3,1.7-1.6
		c0.3,0,0.7,0.1,1,0.1c0,0.2,0,0.4,0,0.5c-0.1,0.2-0.7,1.6-1,2.6c0,0.1-0.1,0.3-0.2,0.5c-0.3,0-0.5-0.1-0.6-0.1
		c-0.1,0-0.2,0-0.4,0.1c-0.2,0.2-0.5,0.8-0.3,1.4c0,0,0,0.1,0,0.1c-0.3,0.2-0.5,0.4-0.7,0.4l0,0c-0.1,0-0.1,0-0.1-0.1
		c-0.1-0.1-0.2-0.3-0.2-1c0-0.3,0-0.7,0.1-1C11.9,13.6,11.8,12.8,11.7,12.2z M12.2,16.5c-0.1,0.2-0.1,0.4-0.1,0.6c0,0,0,0,0,0
		c-0.1,0-0.3,0-0.4,0c-0.5,0-0.8,0.1-1.1,0.3c0,0,0,0-0.1,0c0,0,0,0,0-0.1c0-0.3,0-0.6,0-0.9c0,0,0.1,0,0.1,0c0,0,0,0,0,0
		c0.1,0.1,0.3,0.2,0.5,0.2l0,0c0.3,0,0.6-0.2,0.9-0.4C12.1,16.4,12.1,16.4,12.2,16.5z M9.7,14.2c0.1,0.1,0.3,0.1,0.5,0.1
		c0.1,0,0.1,0,0.2,0c0,0.3-0.1,0.5-0.1,0.8c0,0.1,0,0.1,0,0.2c-0.1,0.1-0.1,0.3-0.2,0.5c-0.5-0.2-0.7-0.5-0.7-1
		C9.3,14.6,9.5,14.4,9.7,14.2z M10.8,17.8c0.2-0.1,0.5-0.2,0.9-0.2c0.7,0,1.5,0.2,2.4,0.6c0,0,0,0,0,0s0.9,0.3,2.4,1.6
		c0.4,0.3,0.5,0.7,0.4,1.1c-0.1,0.3-0.5,0.6-1,0.6l0,0c-0.3,0-0.7-0.1-1-0.5c-0.4-0.4-0.7-0.7-1-1c-0.2-0.2-0.4-0.5-0.8-0.6
		c-0.1-0.1-0.3-0.1-0.5-0.1c-0.2,0-0.4,0-0.6,0.1c-0.1,0-0.3,0-0.4,0.1c-0.4,0.1-0.7,0.1-0.9,0.1c-0.4,0-0.6-0.1-0.7-0.4
		C9.8,18.5,10.5,18,10.8,17.8z M12.3,21.4c-0.5-0.2-0.7-0.5-0.6-0.8c0.1-0.4,0.5-0.8,1-0.8c0.1,0,0.2,0,0.3,0
		c0.6,0.2,0.8,0.8,0.7,1.1c-0.1,0.4-0.3,0.6-0.7,0.6l0,0c0,0-0.1,0-0.1,0C12.7,21.5,12.5,21.5,12.3,21.4z M15.8,22
		c-0.3,0-0.6,0.1-0.9,0.1c-0.1,0-0.3,0-0.4,0c-0.2,0-0.4-0.1-0.7-0.2c0.2-0.2,0.4-0.4,0.5-0.8c0-0.1,0-0.1,0-0.2
		c0.1,0.1,0.2,0.2,0.3,0.4C14.9,21.7,15.3,21.9,15.8,22z M11.4,20.1c-0.1,0.1-0.1,0.3-0.2,0.4c0,0.1,0,0.2,0,0.4
		c-0.1-0.1-0.2-0.4-0.3-0.7C11,20.1,11.2,20.1,11.4,20.1z M18.1,22.1c-0.3-0.3-0.6-0.3-0.8-0.3c-0.2,0-0.5,0-0.8,0.1
		c0.4-0.1,0.7-0.4,0.9-0.8c0,0,0,0,0-0.1c0.1,0,0.2,0.1,0.3,0.1l0,0c0.2,0,0.6-0.1,0.8-0.5c0.3-0.4,0.4-0.9,0.5-1.3l0,0
		c0.2,0,0.5,0.2,0.8,0.6c0.1,0.2,0.1,0.7-0.2,1.4c-0.3,0.6-0.7,1.1-1,1.3C18.4,22.4,18.3,22.2,18.1,22.1z M19.7,18.7
		c0,0-0.1,0-0.2,0c-0.1,0-0.3,0-0.5-0.2c-0.1-0.8-0.5-1.5-1-2c0.4-0.2,0.7-0.4,1-0.6c0.1-0.1,0.1-0.1,0.2-0.2
		c0.2,0.2,0.5,0.3,0.8,0.3c0.3,0.7,0.4,1.5,0.2,2C20,18.4,19.9,18.6,19.7,18.7C19.7,18.7,19.7,18.7,19.7,18.7z M20,15.5
		c-0.2,0-0.5,0-0.6-0.2c0,0,0,0,0,0c0,0,0-0.1,0.1-0.1c0.5-0.1,1-0.5,1.5-1c0.2,0.4,0,0.9-0.2,1.1C20.5,15.4,20.3,15.5,20,15.5z
		 M19.6,14.6c0-0.2,0-0.3,0-0.5c0-0.4-0.2-0.6-0.5-0.8c-0.1-0.1-0.3-0.1-0.5-0.1c-0.3,0-0.8,0.1-1.2,0.3c0.1-0.1,0.2-0.2,0.4-0.3
		c0.6-0.4,1.2-1.3,1.6-2.2c0.3,0,0.7,0,1,0c0.1,0,0.2,0,0.3,0c0.4,0,0.7,0,1,0C21.6,12,20.8,14,19.6,14.6z M20.5,10.4
		c-0.3,0-0.6,0-0.8,0C19.9,9.8,20,9.3,20,9.2c0-0.2,0.3-0.5,0.6-0.5c0.2,0,0.4,0.1,0.5,0.4c0,0,0.1,0.1,0.1,0.1c0,0,0.5,0.3,0.5,1.3
		C21.4,10.4,21,10.5,20.5,10.4z M21.1,7.3c0.1,0.4-0.4,0.8-1.9,1.4c-0.2,0.1-0.5,0.2-0.7,0.2c-0.1-0.1-0.2-0.2-0.4-0.2
		c0.2-0.2,0.3-0.5,0.4-0.8c0,0,0-0.1,0-0.1c0.1,0,0.2,0,0.3,0l0,0c0.2,0,0.4,0,0.6-0.1c0.4-0.1,0.7-0.6,1-1.1
		C20.7,6.5,20.9,6.8,21.1,7.3z M18.6,5.1C18.6,5,18.6,5,18.6,5.1c0.6-1.1,0.9-1.3,1.1-1.3c0,0,0,0,0,0C20.1,4,20.4,4.4,20.4,5
		c0,0.9-0.7,1.9-1.1,2.1c-0.1,0-0.3,0.1-0.4,0.1l0,0c-0.1,0-0.2,0-0.2,0c0-0.2,0-0.4-0.1-0.6c0,0,0-0.1,0-0.1
		C18.8,6,18.7,5.5,18.6,5.1z M17.4,2.1c2.2,0,2.9,0.5,2.9,0.9c0,0.1,0,0.2-0.1,0.3c0,0-0.1,0.1-0.1,0.1c-0.1-0.1-0.2-0.1-0.3-0.2
		c-0.1,0-0.2-0.1-0.2-0.1c-0.3,0-0.6,0.2-0.9,0.6c-0.3,0-0.6,0.1-1,0.1c-0.5,0-0.9,0-1.3,0.1c-0.5-0.1-1.1-0.2-1.8-0.2l-0.3,0
		c-0.1,0-0.2,0-0.4,0c0,0,0,0-0.1,0C14.5,3,15.5,2.1,17.4,2.1z M11.6,2.8c1-1.1,1.7-1.2,2-1.2c0.2,0,0.4,0.1,0.4,0.2
		c0.1,0.3,0.2,0.6,0.2,0.9c-0.4,0.4-0.8,0.8-1,1.1c-0.9,0.2-1.8,0.6-2.2,1.2C11,4.9,11,5,10.9,5c0-0.1,0-0.2-0.1-0.2
		c-0.1-0.3-0.1-0.5-0.1-0.8C10.9,3.7,11.2,3.3,11.6,2.8z M10.6,8.2C10.9,7.9,11,7.5,11,7c0.1-0.1,0.2-0.1,0.3-0.1
		c0.1,0.1,0.2,0.1,0.3,0.2c0,0,0,0.1,0.1,0.1c0.2,0.4,0.1,0.5-0.1,1c-0.1,0.2-0.3,0.5-0.4,1C11.1,9.3,11,9.5,11,9.8
		c-0.9-0.1-1.5-0.3-2.1-0.4C9,9,9,8.7,9.1,8.5c0-0.1,0-0.1,0.1-0.2c0.1,0.1,0.3,0.2,0.5,0.3c0.1,0,0.2,0,0.3,0
		C10.2,8.6,10.5,8.5,10.6,8.2z M9.3,2c0.1,0,0.2,0,0.4,0.1c0.5,0.2,0.5,0.6,0.6,1.5c0,0.4,0,0.9,0.1,1.4c0.3,1,0.3,2.5-0.1,3
		C10.1,8.1,10,8.1,9.9,8.1c0,0-0.1,0-0.1,0c-1-0.3-1.4-3.3-1.4-4C8.4,3.1,8.5,2,9.3,2z M7,7.8C7,7.5,7.1,7.3,7.4,7
		c0.2-0.2,0.5-0.4,0.8-0.6C8.4,7,8.6,7.5,8.8,7.9C8.7,8,8.7,8.2,8.6,8.3C8.5,8.6,8.5,8.9,8.4,9.2C7.5,8.9,7.2,8.5,7,8.1
		C7,8,7,7.9,7,7.8z M10.2,23.7c-0.4-1.6-1.8-8.9-2.9-14.6c0.3,0.2,0.6,0.4,1.1,0.5c-0.1,1.5,0.3,3.2,0.4,3.5l0,0.1
		c0.1,0.2,0.2,0.4,0.4,0.7c-0.3,0.3-0.4,0.6-0.4,0.9c0,0.7,0.4,1.2,1.1,1.5c0,0.3-0.1,0.7,0,1.1c0,0.1,0,0.3,0,0.4
		c-0.5,0.5-0.6,1.1-0.4,1.6c0.2,0.4,0.4,0.6,0.7,0.7c0.2,0.6,0.4,1,0.6,1.3c-0.1,0-0.2,0.1-0.3,0.2c-0.2,0.2-0.4,0.5-0.3,0.8
		c0,0.4,0.3,0.8,0.6,1.1C10.6,23.5,10.3,23.6,10.2,23.7z M18.2,25.3c-0.7,0.4-1.9,0.8-3.6,0.7c-1.8-0.1-3.2-0.7-4.2-1.8
		c0.2-0.1,0.5-0.3,1-0.4c0.2,0.1,0.4,0.3,0.6,0.4c0.1,0,0.2,0.1,0.3,0.1c0.7,0.4,1.7,0.9,3,0.9c0.6,0,1.3-0.1,1.9-0.3
		c0.5-0.2,0.9-0.4,1.2-0.6c0.4,0.2,0.6,0.3,0.8,0.4C19,24.8,18.7,25.1,18.2,25.3z M19.4,24.2c-0.2-0.1-0.4-0.2-0.7-0.3
		c0.1-0.1,0.1-0.2,0.1-0.3c0-0.2,0-0.4,0-0.5c0.5-0.3,1-1,1.3-1.6c0.1-0.3,0.6-1.4,0.1-2c-0.1-0.1-0.2-0.2-0.3-0.3c0,0,0,0,0.1,0
		c0.3-0.1,0.5-0.4,0.7-0.9c0.2-0.6,0.2-1.5-0.2-2.3c0.2-0.1,0.4-0.2,0.6-0.4c0.5-0.5,0.7-1.3,0.2-1.9c0-0.1,0.1-0.2,0.1-0.2
		c0.5-0.8,0.8-1.8,0.9-2.6c0.4-0.1,0.6-0.2,0.8-0.3L19.4,24.2z M23.3,9.6c-0.1,0.3-0.3,0.5-1,0.7c0-0.3-0.1-0.5-0.1-0.7
		c0.2-0.4,0.3-1,0.3-1.6c0,0,0-0.1,0-0.1c0.2,0.2,0.4,0.3,0.5,0.4C23.2,8.6,23.5,9.2,23.3,9.6z"/>
</g>
</svg>
