<svg viewBox="0 0 30 27.8" xmlns="http://www.w3.org/2000/svg"><g fill="#216975"><path d="m27.7 2.2c0-.2-.1-.3-.1-.3 0 .1 0 .2.1.3 0 .1 0 .1.1.2 0 .1 0 .1-.1.1s-.1-.1-.1-.1v-.1c-.1-.1-.1-.3-.2-.3-.1.2 0 .3.1.4 0 .1.1.1.1.2 0 0 .1.1.1.1v.1h-.1c-.1-.1-.2-.2-.2-.3-.1-.1-.1-.3-.2-.4s-.1-.1-.2 0c-.1 0-.1.1-.2 0 0-.1 0-.1.1-.2 0 0 .1-.1.1-.1.1 0 .1 0 .2-.1.3-.2.5-.4.4-.7 0-.1 0-.1 0-.2.1 0 .1-.1.2 0s.2.1.2.2c0 0 .1.1.1.1.1 0 .2.1.3.1.2.2.3.4.3.6v.1c0 .1 0 .1.1.1.2 0 .3 0 .4.2 0 .1.1.2.2.3.2.1.2.3.1.4 0 0-.1.1-.1.1-.1.1-.1.2 0 .4 0 .1.1.1.1.2.1.2.2.3.1.5 0 .1-.1.2-.1.3 0 .5-.1 1.1-.2 1.6-.2.7-.2 1.5-.3 2.2-.1.6-.1 1.3-.1 1.9 0 .7 0 1.5.1 2.2 0 .5.1.9.1 1.4 0 .4 0 .8-.1 1.2-.1.2-.1.4-.2.5-.2.6-.4 1.2-.7 1.8 0 .1-.1.1-.1.2-.4.8-.8 1.6-1.4 2.3-.7.9-1.5 1.7-2.5 2.4-.1.1-.3.2-.4.3-.2.2-.5.4-.7.6-.6.4-1.3.8-2 1.2-.8.5-1.7.9-2.7 1.2-.4.1-.8.2-1.2.4-.6.2-1.2.4-1.9.5-.5.1-1 .1-1.5.2h-.1c-.4 0-.8.1-1.2.1-.3 0-.6.1-1 .1-1 .3-1.8.3-2.7.3-.8 0-1.6 0-2.4-.1-.9 0-1.8-.2-2.6-.4-.3-.1-.5-.1-.7-.3-.2-.1-.3-.1-.5-.2-.2 0-.3-.1-.5-.2s-.4-.2-.6-.3c-.1-.1-.2-.1-.4-.1-.1-.1-.1-.2-.2-.3 0-.1 0-.2 0-.3s0-.1-.1-.2-.1-.1-.1-.2c0-.3.1-.5.3-.7.1-.1.2-.2.4-.2.1 0 .2 0 .3-.1.3-.1.6-.2.8-.3s.4-.2.6-.4c.4-.3.7-.6 1-1 .1-.1.1-.2.2-.2.2-.2.4-.3.7-.5.2-.1.4-.2.6-.3.3-.1.7-.2 1-.3.4-.1.9-.1 1.3-.1.8 0 1.6 0 2.3-.1.1 0 .3 0 .4-.1.2 0 .3-.1.5-.1s.3 0 .5-.1c.2 0 .4-.1.5-.1.4-.1.8-.1 1.3-.1h.3c.4-.2.8-.2 1.2-.3.6-.1 1.1-.4 1.6-.6.4-.2.8-.4 1.2-.7.2-.1.5-.3.7-.5.3-.2.5-.4.8-.6.2-.2.5-.4.7-.6s.4-.4.7-.6c.4-.4.8-.8 1.2-1.2s.7-.8 1.2-1c.5-.3.9-.8 1.3-1.2.2-.2.4-.4.6-.6.3-.2.6-.5.9-.7.1-.1.3-.2.4-.4.3-.4.5-.8.7-1.2.2-.7.4-1.4.6-2.1.1-.3.1-.6.1-.9s0-.6.1-.9c.1-.5.1-.9.1-1.4s.1-.4-.4-.6c-.1 0-.2-.1-.2-.2-.2-.3-.3-.7-.2-1 0-.1.1-.2.2-.3h.1v.1c.1.1.1.2.1.3 0 .2.1.3.2.4s.1.2.2.2c0 0 .1.1.1.1h.1v-.1c0-.1-.1-.1-.1-.2v-.1h.1c.1 0 .1.1.1.1v-.1c0-.1.1-.1.1 0 0 0 0 .1.1.1 0 0 0 0 0-.1 0-.2 0-.4-.2-.6-.2.1-.2.1-.3 0zm-.9.9s0 .1 0 0c.1.2.1.3.2.3h.1v-.1s-.1-.1-.3-.2zm1.1-1c0-.1-.1-.2-.1-.4 0 0 0-.1-.1 0v.1c.1 0 .1.2.2.3zm.2 0s0 .1-.1.1c-.2.1-.1.2 0 .4s.1-.1.1 0 .1.1.1.2 0 .2.1.3c0-.1 0-.2 0-.3s0-.2.1-.3 0-.1 0-.2 0-.2 0-.3c.1-.3 0-.5-.2-.7 0 .3.1.6.1.8v.1c0 .1.1.2 0 .2s-.1-.1-.1-.1c0-.1-.1-.2-.1-.2 0-.1 0-.1 0 0 0-.3-.1-.5-.1-.8 0 0 0-.1-.1-.1 0 0 0 0-.1 0v.1c0 .1.1.3.1.4.1.1.1.2.2.4 0-.1 0-.1 0 0zm-25.8 21.4c.3-.1.7-.2 1-.2h.1v.1s-.1 0-.2.1c-.4.1-.9.2-1.3.4-.2.1-.3.1-.5.2 0 0-.1 0-.1.1h.1.3v.1c-.1 0-.2 0-.3.1-.2.1-.4.4-.4.6 0 .1 0 .1.1.1.2.2.5.4.8.5.2.1.4.2.5.3.6.4 1.2.5 1.8.7.4.1.9.1 1.4.2.5 0 1 .1 1.5.1h.7 1.6c.6 0 1.2 0 1.8-.1.1 0 .2 0 .3-.1 0 0 .1 0 .1-.1s0-.1.1-.2c.4-.2.8-.3 1.2-.4h.1v.1c-.1 0-.2.1-.2.1-.3.1-.6.2-.8.3-.1 0-.1.1-.1.1v.1h.2c.5 0 1.1-.1 1.6-.2s1-.2 1.5-.2c.3 0 .6-.1 1-.2.7-.2 1.4-.4 2-.6.9-.3 1.7-.6 2.5-1.2.5-.3 1-.6 1.5-.9.4-.2.7-.5 1-.8.2-.1.4-.3.5-.4.6-.4 1.1-.9 1.5-1.4.5-.6 1-1.2 1.4-1.9.3-.4.5-.8.7-1.3.1-.2.2-.4.3-.6 0-.1.1-.1.1-.2.2-.6.4-1.2.6-1.8.1-.4.1-.7.1-1.1 0-.7-.1-1.5-.1-2.2-.1-.9 0-1.8 0-2.8s.2-1.9.4-2.9c.1-.5.2-1 .3-1.5 0-.1 0-.1 0-.2-.1 0-.2-.1-.3-.1 0 0 0 0-.1.1v.2c-.1.5-.1.9-.2 1.4-.1.6-.2 1.1-.2 1.7 0 .3-.1.7-.2 1v.4c0 .6-.2 1.2-.2 1.8-.1.6-.2 1.1-.4 1.7 0 .2-.1.3-.2.5-.3.5-.5 1-.8 1.6-.1.3-.3.5-.5.8-.3.4-.6.9-1 1.3-.2.2-.3.4-.5.5-.5.5-.9 1.1-1.5 1.6 0 0-.1.1-.1.1-.1.2-.2.2-.3.3-.5.3-.9.7-1.4 1-.1.1-.2.1-.3.1 0 0-.1 0-.1-.1v-.1c.2-.1.4-.2.5-.3.3-.2.6-.4.9-.6.2-.2.4-.3.6-.5.6-.7 1.3-1.4 1.9-2.1.3-.4.6-.8.9-1.1.5-.6.8-1.4 1.2-2.1.1-.1.1-.2.2-.3.2-.4.3-.8.4-1.2v-.1c.2-.6.3-1.2.3-1.8 0-.2.1-.4.1-.6 0-.4.1-.8.2-1.2s.1-.7.1-1.1c.1-.5.1-.9.2-1.4s.2-1 .2-1.4c0-.1-.1-.2-.1-.3-.1-.2-.1-.2-.3-.2-.1 0-.2 0-.3 0-.1-.1-.2 0-.3 0-.2 0-.2.1-.2.2v1.5c0 .4-.1.9-.1 1.3.3.7.1 1.5-.1 2.2-.1.6-.4 1.1-.6 1.6-.2.3-.4.6-.7.8s-.6.5-.9.7c-.2.2-.4.4-.6.6-.3.4-.7.7-1 1 0 0 0 0-.1.1-.3.2-.7.4-.9.7-.3.1-.4.4-.6.6s-.3.3-.4.5-.3.2-.4.4c-.3.3-.7.7-1 1-.6.5-1.3 1.1-2 1.5-.5.3-.9.5-1.4.8-.6.3-1.2.5-1.8.6-.2 0-.4.1-.6.2s-.4.1-.6.1c-.6 0-1.1.1-1.7.2-.2 0-.3.1-.5.1-.1 0-.3 0-.4 0-.8.2-1.7.2-2.6.2-.2 0-.5 0-.7 0-.4 0-.9.1-1.3.2-.5.1-.9.3-1.2.6-.2.1-.3.2-.5.4s-.4.4-.5.6c0 .1-.1.1-.2.1s-.1.1-.2.1c-.2.2-.5.4-.8.5s-.7.3-1 .4c-.1 0-.1.1-.2.1.1 0 .4-.1.7-.2zm26.4-21.1c.1 0 .1 0 .1.1 0 .2-.1.5-.1.7v.1h.1c.1 0 .1-.1.1-.1-.1-.1 0-.3.1-.4 0-.1.1-.1.1-.1.1 0 0 .1 0 .1v.1h.1c.1-.1.1-.2 0-.2-.2-.1-.2-.2-.2-.3s0-.2-.2-.1c-.1 0-.1 0-.2 0 0 0-.1 0-.1.1.1-.1.1 0 .2 0zm-.1.4c0 .1 0 .1 0 0v.2s0-.1 0-.2c0 .1 0 .1 0 0zm.5 1.2c.1 0 .1 0 0 0 .1-.1.1-.1.1-.1s-.1 0-.1.1c0-.1 0-.1 0 0zm-2.4-1.4s.1 0 0 0c.1-.1.1-.1 0 0z"/><path d="m27 2.5c0 .2.1.4.2.6h.1v-.1c-.1-.2-.1-.4-.2-.5 0-.1 0-.1-.1 0z"/><path d="m15.4 22.6c.3 0 .5-.1.8-.2 0 0 .1 0 .1-.1s0 0-.1-.1c-.1 0-.2-.1-.1-.2 0-.2 0-.2.1-.2h.3c.2 0 .4 0 .7-.1s.6-.2.9-.2c.1 0 .2-.1.3-.1s.2-.2.4-.1c-.1.2-.2.2-.4.2-.2.1-.4.2-.5.2-.2.1-.5.1-.6.3 0 0-.1.1-.2.1-.2.1-.4.2-.6.3-.1.1-.3.1-.4.1-.3.1-.6.1-.9.2-.1 0-.2 0-.2 0s0-.1-.1 0c-.1.2-.4.1-.6.2-.1 0-.2 0-.3.1-.1 0-.2 0-.3 0s-.2 0-.2-.1-.1-.1-.1-.1c-.1 0-.1 0-.1.1s-.1.1-.2.1c-.2.1-.5.1-.7.1-.3 0-.6.1-.9.1-.2 0-.4.1-.6.1-.3 0-.7 0-1 .1-.2.1-.5.1-.7.1s-.4 0-.6.1h-.1s-.1 0-.1-.1c0 0 0 0 0-.1.1 0 .1-.1.2-.1.2-.1.5-.1.7-.1.4 0 .8-.2 1.2-.2h.1c.1 0 .3-.1.4-.1.3-.1.7-.2 1-.4.2-.1.5-.1.7-.2h.1c.2.1.4.1.6.2h.3c.2 0 .5-.1.7-.1s.4-.1.5-.2c.2-.1.3-.3.5-.4 0 0 .1-.1.2 0 .1 0 0 .1 0 .1-.1.1-.1.1-.2.2.2.4.1.4 0 .5zm1-.4s.1 0 0 0zm-3.8.8c.1 0 .3-.1.4-.1-.2-.1-.3 0-.4.1-.1 0 0 0 0 0z"/><path d="m5.1 24.5h.7 1.3c.4 0 .8-.1 1.3-.1h.3c.4.1.8 0 1.2-.1.3-.1.6-.2 1-.2h.3c.3-.1.6-.1.9-.2h.2.1s0 0-.1 0c-.4 0-.8 0-1.2.1-.1 0-.2 0-.3 0-.4 0-.8.1-1.1.2-.2.1-.5.1-.8.1 0 0 0 0-.1 0-.3-.1-.7 0-1 0-.2 0-.4.1-.7 0-.2 0-.3 0-.5 0-.3 0-.6 0-.9 0-.2 0-.4 0-.6.1-.1 0-.1 0 0 .1-.1 0-.1 0 0 0z"/><path d="m27.6 8.9c.1-.5.2-1 .3-1.5 0-.1 0-.3 0-.4 0-.5 0-.9.1-1.4 0-.3 0-.7.1-1 0-.2.1-.4.1-.7v-.1h-.1c-.1.3-.1.4-.2.5 0 .3-.1.6-.1.9 0 .4 0 .7-.1 1v.5c0 .5-.1 1.1-.2 1.6s-.2 1-.4 1.5c-.1.2-.2.4-.2.6v.1.1h.1s0 0 .1-.1c0-.1.1-.1.1-.2.1-.3.3-.8.4-1.4z"/><path d="m22.2 14.6c-.1.1-.2.1-.2.1-.2.3-.5.6-.7.9-.2.4-.5.8-.8 1.1 0 .1-.1.1-.1.2s.1 0 .2-.1c.2-.2.4-.5.6-.7.1-.1.1-.2.1-.2.2-.4.5-.7.7-1 .2-.1.2-.2.2-.3z"/><path d="m3.1 24.1c.3.1.6.1.9 0 .4-.1.9-.1 1.3-.1.2 0 .4-.1.6-.1 0 0 0 0 0-.1 0 0 0 0-.1-.1-.1 0-.2 0-.3 0-.2 0-.3 0-.5.1-.1 0-.3 0-.4 0-.2 0-.3 0-.5 0-.1.2-.4.2-.7.2-.1 0-.1 0-.3.1 0-.1 0-.1 0 0 .1 0 .1 0 0 0z"/><path d="m23.1 18.3c-.7.4-1.3.8-1.8 1.3 0 0-.1.1-.1.1v.1h.1c.1 0 .1 0 .2-.1.3-.2.7-.5 1-.7.2-.1.3-.2.5-.3 0-.1.1-.2.1-.4 0 .1 0 .1 0 0z"/><path d="m5.8 22.9h.5c.4-.1.9-.2 1.3-.2.2 0 .4-.1.5-.2 0 0 .1 0 .1-.1s-.1-.1-.1 0c-.3.1-.5.1-.8.2h-.1c-.2 0-.4.1-.5.2s0 0-.1 0c-.2-.1-.5 0-.8.1z"/><path d="m1.4 24.7c.1 0 .3 0 .4.1 0 .1.1.1.2.1h.5c.2 0 .3-.1.5 0 .1.1.3 0 .5.1 0 0 .1 0 .1-.1 0 0 0-.1-.1-.1h-.1c-.1 0-.2 0-.2 0-.2-.1-.5-.1-.7-.1s-.4 0-.6 0c-.1-.1-.2-.1-.4 0-.1-.1-.2-.1-.1 0-.1-.1 0 0 0 0z"/><path d="m18.8 18c-.2.2-.4.3-.5.4-.2.2-.5.3-.7.5-.1.1-.1.1-.2.2v.1h.1.1c.4-.3.9-.5 1.3-.9-.1-.1-.1-.2-.1-.3.1 0 .1 0 0 0z"/><path d="m17 19.3h-.1c-.3.2-.7.4-1.1.6 0 0-.1 0-.1.1v.1h.1.1c.3-.2.7-.3 1-.5 0-.1 0-.2.1-.3z"/><path d="m5.9 22.6h.1l1.5-.3c.1 0 .2 0 .1-.1 0-.1-.1 0-.2 0-.3 0-.5.1-.8.1-.2 0-.4.1-.7.3 0-.1 0-.1 0 0z"/><path d="m10.1 21.8c-.3 0-.6 0-.9.1-.1 0-.2.1-.2.1s-.1.1 0 .1c0 0 0 .1.1.1h.3c.1-.2.4-.2.6-.3 0 0 .1 0 .1-.1z"/><path d="m6.6 21.5c-.2-.1-.4 0-.6 0 0 0-.1.1 0 .1.1.1.2.2.2.3.1.1.2.1.2 0s0-.1 0-.1-.1 0 0-.1h.1c.2.1.4.1.6 0 0 0 .1 0 .1-.1-.4 0-.5 0-.6-.1z"/><path d="m26.6 11.1c-.1 0-.1.1-.2.1-.2.2-.4.5-.6.8v.1h.1s.1-.1.1-.1c.1-.1.2-.2.2-.3.1-.1.2-.3.3-.4s.1-.2.1-.2z"/><path d="m10.5 26.4c-.1.1-.1.1-.1.1s.1.1.1.1c.1 0 .2 0 .3-.1h.2.1c.1 0 .1-.1.2-.1l.2-.2v-.1s0 0-.1 0-.1 0-.2.1c-.2.1-.4.2-.7.2z"/><path d="m26.6 11.7v.1h.1s.1-.1.1-.1c.1-.2.2-.4.4-.7v-.1s0 0 0-.1c0 0 0 0-.1 0-.2.4-.4.6-.5.9z"/><path d="m10.5 26.4c.1-.1.2-.1.3-.1s.2-.1.2-.1v-.1c-.3.1-.6.1-.8.2 0 0-.1.1 0 .1h.1z"/><path d="m11.1 26.5c0 .1 0 .2.1.2.3 0 .5-.1.7-.3 0 0 0 0 0-.1-.1 0-.2 0-.3.1-.1 0-.2.1-.3.1 0-.1-.1-.1-.2 0 0-.1 0 0 0 0z"/><path d="m15 20.2c-.1 0-.1 0 0 0-.2.1-.5.1-.6.2v.1s0 .1.1 0c.2-.1.5-.1.7-.2-.2 0-.2 0-.2-.1z"/><path d="m24 19.9v-.1c0-.1 0-.1 0-.2-.1 0-.1 0-.1.1-.1.2-.2.4-.2.6v.1h.1c.1-.2.2-.4.2-.5z"/><path d="m24.2 19.6v.1.1h.1c.1-.1.1-.3.1-.4 0 0 0-.1-.1-.1h-.1c.1.1 0 .2 0 .3z"/><path d="m5.4 22.1c.2 0 .4 0 .6-.1v-.1h-.1c-.2.1-.3.1-.5.2 0-.1 0-.1 0 0z"/><path d="m24 20.3v.1h.1c.1-.1.1-.1.2-.2v-.1h-.1c-.2 0-.2.1-.2.2z"/><path d="m23.2 20.6c0 .1-.1.2-.1.2s.1 0 .2-.1c0-.1.1-.1 0-.2 0 0 0 0-.1 0 .1 0 .1 0 0 .1.1-.1.1 0 0 0z"/><path d="m5.4 21.7s.1.1.1.1c.1 0 .2-.1.3-.1v-.1c-.1 0-.3 0-.4.1z"/><path d="m7.3 21.3c-.1 0-.1.1-.1.1 0 .1.1.1.2.1s.1 0 .2-.1c0-.1 0-.1-.1-.1s-.1 0-.2 0c.1 0 .1 0 0 0z"/><path d="m13.1 20.8c0 .1 0 .1 0 0 .2.1.3.1.4 0v-.1c-.1 0-.3 0-.4.1z"/><path d="m26.3 16.5v.1c.1 0 .1 0 .2-.1v-.1c-.1 0-.1 0-.2.1z"/><path d="m25.9 17.1c-.1 0-.1 0 0 0-.2.1-.2.2-.2.3.1 0 .2-.1.2-.3 0 .1 0 .1 0 0z"/><path d="m23.3 20.5c.1-.1.1-.2 0-.2s-.1 0-.2.1c0 0 0 .1-.1.1 0 .1 0 .1.1.1z"/><path d="m4.7 22.2c-.2 0-.3 0-.3.1.1.1.2.1.3-.1 0 .1 0 .1 0 0z"/><path d="m25.8 18.2c-.1 0-.1 0-.1.1v.1c.1 0 .1 0 .1-.1.1 0 0 0 0-.1z"/><path d="m25.2 19.1s0 .1 0 0c.1.1.2 0 .2 0v-.1c-.1-.1-.2 0-.2.1z"/><path d="m26.4 17.3c-.1 0-.1 0-.1.1s0 .1.1.1.1 0 .1-.1c-.1 0-.1-.1-.1-.1z"/><path d="m24.6 19.7c0 .1 0 .1 0 0 .1.1.2.1.2 0v-.1c-.2 0-.2 0-.2.1z"/><path d="m26.5 17.5v.1c.1 0 .1 0 .1-.1 0 0 0-.1-.1-.1.1.1.1.1 0 .1z"/><path d="m22.6 20.8c-.1 0-.1 0-.1.1 0 0 0 .1.1.1 0 0 .1-.1 0-.2.1 0 .1 0 0 0z"/><path d="m25.6 17.9s.1 0 .1-.1c0 0 0-.1-.1-.1 0 0-.1.1 0 .2-.1-.1-.1 0 0 0z"/><path d="m26 18.6c.1 0 .1 0 .1-.1v-.1c-.1.1-.2.1-.1.2-.1 0-.1 0 0 0z"/><path d="m25.1 18.1c.1.1.1.1.2 0v-.1c-.2 0-.2 0-.2.1z"/><path d="m25 18.7c0 .1 0 .1 0 0 .1.1.1.1.1 0 0 0 0 0-.1 0z"/><path d="m24.6 19.1c0 .1 0 .1 0 0 .1.1.1.1.1 0 0 0 0 0-.1 0z"/><path d="m26 17.8c0 .1 0 .1 0 0 .1.1.1.1.1 0 0 0 0 0-.1 0z"/><path d="m25.7 18.9s0 .1 0 0c.1.1.1.1.1 0 0 0 0 0-.1 0 0-.1 0 0 0 0z"/><path d="m25.4 18.5c-.1 0-.1 0 0 0-.1.1-.1.1-.1.1s.1 0 .1-.1z"/><path d="m4.4 23.1c-.1 0-.1 0-.1.1h.1s0 0 0-.1z"/><path d="m5.8 22.9c-.1 0-.1 0-.2 0 .1.1.2.1.2 0z"/><path d="m19.3 21.2c.1 0 .1-.1 0 0 0-.1 0-.1 0 0 0-.1 0 0 0 0z"/><path d="m6.8 22.7c-.1 0-.1 0 0 0z"/></g></svg>