<svg viewBox="0 0 30 31.2" xmlns="http://www.w3.org/2000/svg"><g fill="#f39f4e"><path d="m8.1 1.5c0 .3-.1.5-.4.7-.1 0-.2.1-.3.1-.6.2-1.1.5-1.7.9-.1 0-.1.1-.1.2.2 0 .4-.1.6-.2s.5-.2.7-.2h.2c.7.1 1.3 0 1.9-.2.5-.1 1-.2 1.5-.2s1 .1 1.5.3c.3.1.5.1.7.3.5.3 1.1.5 1.6.7s.9.5 1.3.8c.3.2.6.4.9.7.5.3.9.7 1.3 1.1.4.3.7.6 1.1 1 .1.1.2.1.3 0s.3-.3.4-.4c0-.1.1-.1.2-.1-.1.2-.3.4-.4.6-.2.2-.2.2 0 .4.1.1.3.2.5.2s.3.1.5.1l.6.3c.2.2.5.4.7.6 0 .1.1.1.2.1.2.1.3.2.3.5 0 .1 0 .2.1.3.2.2.3.4.4.6s.2.4.4.6c.3.4.6.8.9 1.2.4.5.7 1 1 1.5.1.1.2.3.2.4.3.7.6 1.4.9 2.1.1.2.1.5.1.8v.2c.2.6.2 1.1.2 1.7 0 .2.1.5.1.7.1.3.2.6.2.9 0 .2.1.3.2.4.3.4.6.9.8 1.3.3.7.5 1.5.4 2.3 0 .2 0 .3-.1.4s0 .2.1.3c.2.1.4.3.5.5.3.2.4.6.4.9.1 1 .3 1.8.9 2.6v.1c-.2-.1-.3-.2-.3-.4-.1-.2-.2-.4-.3-.7 0-.1 0-.2-.2-.2-.1 0-.1-.2-.1-.2 0-.3-.1-.6-.2-.9s-.3-.6-.5-.8-.3-.4-.5-.6c0 0-.1-.1-.1-.1-.1 0 0 .1 0 .2.4.6.5 1.3.5 2 0 .1 0 .3-.1.4 0-.5-.1-1-.2-1.5-.1-.3-.2-.6-.4-.8 0 0-.1-.1-.1 0v.1c0 .1 0 .1.1.2.1.3.1.7 0 1-.1.4-.1.9-.3 1.3 0 .1 0 .1-.1.2 0 0 0 .1-.1.1s-.1-.1-.1-.1c0-.1 0-.2 0-.2.1-.5.2-1 .3-1.6 0-.2 0-.5-.1-.7 0-.1-.1-.1-.2-.1-.7.3-1.3.1-1.9-.2-.4-.2-.8-.5-1-.9-.2-.2-.4-.4-.5-.6-.2-.2-.4-.3-.7-.3-.4 0-.8-.1-1.3 0-.1 0-.1 0-.2 0-.6 0-1.3-.1-1.9-.1-.3 0-.7-.1-.9-.4-.2-.2-.4-.2-.5-.4 0-.1-.1 0-.2 0-.4 0-.7-.1-1-.3-.2-.1-.4-.2-.6-.3h-.1c-.5 0-.9-.2-1.4-.4s-.8-.4-1.1-.8c-.1-.2-.3-.3-.5-.3s-.3-.2-.6-.2c.1.6.2 1.1.1 1.7 0-.2 0-.3 0-.5v-.1c.1-1.1.1-1.1-.6-1.4-1-.4-1.8-1.1-2.4-2-.1-.1-.1-.2-.1-.3-.1-.3-.3-.4-.5-.5-.1 0-.2-.1-.2-.1-.5-.3-.8-.5-1.2-.8-.3-.2-.5-.5-.6-.8s-.2-.5-.4-.8c-.3-.7-.6-1.4-1-2.1s-.7-1.4-1-2.1-.7-1.5-1-2.2c0-.2-.1-.4-.2-.5 0 0-.1-.1-.1-.2-.2-.5-.5-1-.6-1.6 0 0 0 0-.1-.1-.2.3-.5.5-.8.7-.2.2-.4.3-.7.4 0 .1-.1.1-.1.1h-.1v-.1c.1-.2.3-.3.5-.4.5-.2.9-.5 1.2-1 .1-.1.2-.3.3-.5-.4 0-.6.2-.8.3s-.4.3-.5.5c-.1.1-.2.2-.5.2.3-.2.4-.5.5-.7.2-.3.6-.5.9-.5.2 0 .4-.1.6-.3 0-.1-.2-.1-.3-.1-.6-.1-1.1-.4-1.6-.8-.4-.4-.8-.7-1.2-1.1.2.1.4.3.6.5.4.4.8.7 1.2 1 .5.1.9.2 1.4.3.2 0 .3-.1.5-.1.1 0 .2-.5.1-.6-.2-.3-.4-.4-.6-.4s-.4-.1-.5-.2c-.1 0-.1-.1-.2-.2.5.2 1.1.2 1.5.7.1.1.2.1.3 0s.3-.3.5-.4c0 0 .1-.1.1-.1 0-.2.2-.3.3-.4.8-.6 1.6-1 2.5-1.3.1-.2.3-.4.4-.6zm13.1 22.4c.3.1 1.1.1 1.3-.1-.3-.2-.3-.5-.7-.5.1-.1.1-.2 0-.3s-.1-.2-.2-.3c-.2-.2-.2-.4-.2-.6 0-.3 0-.6.1-.9 0-.2 0-.3.1-.5v.9c0 .5.1.9.4 1.2.4.4.7.8 1.2 1 .4.1.6.4.9.7.1.2.3.3.4.5.4.5.9.8 1.4 1 .3.1.5.2.8.1.1 0 .3 0 .4-.1 0-.1-.1-.2-.2-.3s-.2-.2-.2-.3c.2 0 .3.1.3.2.1.1.2.2.2.3 0 0 .1.1.1 0s0-.2.2-.2c.1 0 .1-.1.1-.2s-.1-.1-.2-.2c0-.1-.1-.1 0-.2s.1 0 .2 0c.1.1.1.2.2.2s.1-.1.1-.1c.1-.3.1-.7.1-1-.1-.7-.3-1.4-.7-2-.1-.2-.2-.3-.3-.4-.4-.2-.8-.3-1.2-.1-.8.3-1.6.7-2.1 1.5 0 .1-.1.1-.2.2 0 0 0 0-.1 0 .2-.4.5-.7.8-1s.7-.5 1.1-.7.8-.2 1.3-.2c-.1-.4-.3-.8-.4-1.2 0 0 0-.1-.1-.1-.4-.4-.8-.5-1.4-.5-.4 0-.6.2-.9.4-.1 0-.1.1-.2 0 .1-.2.3-.3.5-.4s.4-.2.6-.2h.7c.2 0 .4.2.6.2-.2-.3-.4-.5-.7-.5-.6-.1-1.2-.1-1.7.1-.2.1-.3.1-.6.1.3-.3.7-.4 1-.5.7-.1 1.4-.1 2 .3 0-.2 0-.4 0-.6-.1-.7-.3-1.3-.4-2 0-.1-.1-.2-.1-.2-.1-.1-.2-.3-.3-.4-.3-.3-.7-.6-1.1-.7-.2 0-.4-.1-.5-.1-.3-.1-.6-.1-.9 0-.4.1-.7.3-1 .6-.1.1-.2.1-.3.1 0 0 0-.1.1-.1.3-.3.7-.6 1.1-.8s.7-.2 1.1-.1c.2.1.3.1.5.1s.4.1.6.3c.2.1.4.3.6.4-.3-.8-.7-1.5-1.1-2.1-.2-.3-.4-.5-.6-.8-.7-.9-1.4-1.9-2-2.9-.2-.2-.4-.4-.7-.4-.3-.1-.5-.1-.8-.1-.4 0-.8 0-1.2.2-1 .4-1.7 1.1-2.2 2.1-.1.2-.2.4-.3.5-.4.6-.7 1.2-.8 1.9-.1.3-.1.6-.2.9s-.1.5-.2.8c0-.1 0-.2 0-.3.1-.4.1-.7.2-1.1.1-.5.1-.9.3-1.3s.4-.8.7-1.2c.1-.2.2-.4.3-.7-.9.9-1.8 1.9-2.3 3.1 0-.1 0-.1 0-.2.2-.5.4-1 .8-1.5.3-.4.7-.9 1-1.3.4-.5.9-.9 1.3-1.3.3-.3.6-.5 1-.6.4-.3.9-.4 1.4-.4.2 0 .5 0 .8-.1-.2-.2-.5-.3-.7-.4-.3-.1-.5-.1-.7-.3s-.4-.4-.8-.3c-.2.1-.4 0-.6-.1-.1 0-.1-.1 0-.1h.4c.1.1.3.1.5.1-.2-.2-.3-.4-.4-.5-.5-.3-.8-.5-1.1-.9-.1-.1-.2-.2-.3-.2-.1-.2-.3-.2-.4-.3s-.2-.2-.4-.1h-.1c-.2-.2-.5-.1-.8-.1-.2 0-.5 0-.7 0-.4 0-.7 0-1.1.1-.8.2-1.5.7-2.2 1.1-.5.3-.8.7-1.1 1.1-.1.1-.1.2-.2.1.2-.6.6-1 1-1.4.5-.4 1.1-.6 1.6-1 .6-.4 1.3-.5 2-.5h1.3.1c-.1-.1-.2-.2-.3-.3-.2-.2-.4-.4-.6-.5s-.4-.3-.7-.2h-.1c-.4-.1-.7-.3-1-.4-.5-.3-.9-.3-1.4-.3-.8.2-1.4.5-2 .8-.2.2-.5.3-.7.5-.4.4-.9.7-1.3 1.1-.2.1-.4.3-.5.5-.4.6-.8 1.3-1.2 1.9-.3.4-.5.9-.5 1.3v.9c0 .2 0 .3-.1.5 0-.2 0-.4 0-.5 0-.8.1-1.5.5-2.2.4-.6.8-1.2 1.2-1.8 0-.3.3-.6.6-.9.3-.2.7-.5 1-.8.2-.1.3-.3.5-.4.3-.2.6-.4 1-.6s.9-.4 1.3-.4c.2 0 .4 0 .6-.1 0-.1-.1-.1-.1-.1-1.1-.4-2.2-.4-3.3-.1-.4.1-.7.2-1 .2-.1 0-.2 0-.3.1-.4.2-.9.4-1.2.8-.1 0-.2.1-.2.2.2-.2.4-.5.6-.7-.3-.1-.5.1-.7.2-.1.1-.3.2-.5.3.1-.2.3-.3.4-.4.2-.1.3-.2.5-.3s.4-.1.5-.2c-.1 0-.1 0-.2 0s-.1 0-.2 0c-.7.2-1.4.4-2 .9-.1.2-.3.3-.5.5-.1 0-.1.1-.2.2 0 .1 0 .2-.1.3-.3.2-.5.6-.7.9-.3.6-.3 1.3.2 1.8.1-.3.2-.7.5-1-.1.2 0 .4-.1.6-.1.3-.1.6-.1 1 0 .1 0 .2.1.3.5 1.1 1 2.2 1.5 3.3.2.5.5.9.7 1.4 0 .1 0 .2.2.2-.2-.5-.2-.8-.3-1.2s0-.7.2-1.1c.2-.3.3-.7.4-1.1 0-.1 0-.1.1-.2-.1.4-.1.8-.3 1.1-.2.5-.3.9-.2 1.4s.2 1 .4 1.5c0 .1.1.3.1.4.1.3.1.6.3.9.1.2.2.4.3.6.1.4.4.6.7.8.4.3.8.5 1.3.7-.2-.5-.2-.7-.1-1 0 .4.1.7.3.9v.1c.1.4.4.8.6 1.1.6 1 1.5 1.5 2.6 1.9h.2c-.5-.8-.6-1.6-.7-2.5-.1-.8 0-2.3.2-2.6v.2c-.3 1.4-.3 2.6.1 3.9.1.4.3.7.5 1.1.1.1.2.2.4.2-.5-.9-.8-1.6-.9-2.3-.1-.6.1-2.1.3-2.3 0 .2-.1.5-.1.7-.1.6-.2 1.1 0 1.7.2.9.6 1.6 1.1 2.3.2.3.4.6.7.8.5.3 1 .5 1.6.7-.1-.2-.2-.4-.4-.5-.3-.3-.5-.6-.7-1-.3-.7-.4-1.4-.3-2.2 0-.1.1-.2.1-.4v.1.4c0 .6 0 1.3.3 1.9l.6.9c.4.6 1 1.1 1.6 1.4.2.1.4.2.7.2-.1-.2-.1-.4-.2-.5-.1-.3-.2-.5-.2-.8-.1-.7 0-1.3 0-2 .1.1.1.1.1.2v1.2c0 .8.3 1.5.8 2.1.2.3.5.4.8.6.1.1.3.1.4.1s0-.1 0-.1c0-.1 0-.2.1-.2s.1 0 .2.1v.1c0 .1 0 .1.1.1.3-.3.8-.2 1.2-.2z"/><path d="m19.7 23.2h-.1c-.1 0-.1.1-.1.1s0 .1.1.1.1 0 .1-.1v-.1c0-.1.1-.2 0-.2 0 0 0-.1-.1 0 0 0-.1 0-.1.1.1 0 .2 0 .2.1zm-3.3-16.4c-.1 0-.2-.1-.2.1 0 .1 0 .3.2.4.1-.1 0-.1 0-.2-.1-.1-.1-.2 0-.3 0 0 0-.1.1-.1 0-.1 0-.1-.1-.2h-.1c-.1.1 0 .2.1.3-.1 0 0 0 0 0zm-7.7 5.8c.1 0 .2 0 .2-.1 0-.2-.2-.1-.2-.2.3-.1.2.3.3.5.1 0 .1 0 .1-.1 0-.3 0-.7-.2-1-.1-.1-.2-.1-.3 0s-.1.2-.3.2c-.1 0-.1 0-.1 0-.1 0-.1.1 0 .1.2.1.1.2.2.3 0 .1 0 .1.1.1 0 .1.1.2.2.2 0 0 0 .1 0 0v.2h.1s-.1-.1-.1-.2zm16.5 4.6c-.1-.2-.3-.3-.5-.3-.1 0-.2-.1-.3-.1-.2-.2-.4-.3-.6-.5s-.6-.4-.9-.3c-.2.1-.4.1-.6.2-.5.2-.9.4-1.2.9-.2.3-.3.6-.4.9 0 0-.1.1 0 .2.1-.1.1-.3.2-.4.1-.3.3-.5.5-.7.5-.5 1.2-.7 1.9-.7.3 0 .4.2.6.3-.4.1-.7.3-1.1.4-.1 0-.3.1-.4.2-.5.3-.8.8-1 1.4-.1.2-.1.4-.1.6.1-.2.2-.4.3-.6.2-.6.7-1.1 1.3-1.3.3-.1.6-.2.9-.2h.1c.1-.1.2-.1.2 0 .4-.2.8-.1 1.1 0zm-7.3 2.2c.1-.1.1-.3.1-.4 0-.2 0-.3 0-.5 0-.4.1-.8.3-1.1.1-.2.2-.5.4-.7 0-.1.1-.1 0-.2-.2.2-.3.5-.5.7-.2.3-.4.7-.4 1 .1.4.1.8.1 1.2zm6.7 4.4c.2-.2.3-.4.4-.6.2-.4.4-.7.8-1h.1c.1 0 .1-.1.1-.2s-.1-.1-.2 0c-.1 0-.2.1-.3.2-.6.4-.8 1-.9 1.6zm-10.3-6.6c.1-.3.1-.6.2-.9.1-.6.2-1.2.5-1.7v-.1h-.1c-.1.1-.1.2-.2.3-.2.7-.4 1.5-.4 2.2-.1.1-.1.2 0 .2zm-.5.8c.1-.8.1-1.5.3-2.1v-.1c-.1 0-.1 0-.1.1-.1.3-.2.6-.2.9-.2.4-.1.7 0 1.2zm1.5-11.9c0-.1-.1-.1-.2-.1s-.1 0-.1.1.1.1.2.1c0 0 .1-.1.1-.1zm-6.3 9.3c-.1 0-.1-.1 0 0-.1 0-.2 0-.2.1 0 0-.1.1 0 .1h.1c-.1-.1.1-.1.1-.2zm7.6-9.2c0-.1-.1-.1-.2-.2h-.1v.1c.1.1.1.3.3.1zm3.4 9.4c.1-.1.1-.2.1-.2 0-.1 0-.1-.1-.1s-.1 0-.1.1c0 0 0 .1.1.2zm.4 0c0-.1 0-.1-.1-.1s-.1.1-.1.1c0 .1 0 .1.1.1s.1 0 .1-.1zm-1.8-4.7c.1 0 .1-.1.1-.2 0 0 0-.1-.1-.1s-.1 0-.1.1c0 .2.1.2.1.2zm1.1 2.2c-.1.1 0 .2 0 .3 0 0 0 .1.1.1s.1-.1.1-.1c-.1-.1-.1-.2-.2-.3zm-1.1.1c.1 0 .1-.1.1-.1 0-.1-.1-.1-.1-.1-.1 0-.1.1-.1.1 0 .1 0 .1.1.1zm2.6 9.9c-.1-.1-.1-.1 0 0-.1 0-.2 0-.2.1s.1.1.1.1c.1-.1.1-.2.1-.2zm-1.6-8.7c0-.1-.1-.1-.1-.1-.1 0-.1.1-.1.1 0 .1.1.1.1.1s.1 0 .1-.1zm-3.5-8c-.1-.1-.2-.1-.2 0 0 0 0 .1.1.1 0 0 .1 0 .1-.1zm3.7 9.6c-.1.1-.1.2-.2.2v.1h.1c.1 0 .1-.1.1-.3zm-5-9.2c0-.1-.1-.1-.1-.1s-.1.1 0 .1c0 .1.1.1.1.1zm4.2 7.3c-.1 0-.1-.1 0 0-.2 0-.2 0-.2.1 0 0 0 .1.1.1 0-.1.1-.1.1-.2zm-4.3-7.8c0 .1.1.1.1.1.1 0 .1-.1.1-.1s0-.1-.1-.1-.1.1-.1.1zm5.3 10.2c0 .1.1.1 0 0 .1.1.2 0 .2 0s0-.1-.2 0c.1-.1 0 0 0 0zm-10.7-.6c0-.1 0-.2 0-.2 0-.1-.1-.1-.1 0 0 0-.1.1 0 .1 0-.1.1 0 .1.1zm12.3-3s-.1-.1 0 0c-.1 0-.2 0-.1.1 0 0 0 .1.1.1 0-.1 0-.2 0-.2zm-8.8-6.3c0-.1 0-.1 0 0-.1-.1-.2 0-.2 0 0 .1 0 .1.1.1s.1-.1.1-.1zm2.3-.2c-.1 0-.1.1 0 0-.1.1 0 .2 0 .2s.1 0 0-.2zm5.6 17.3c.1 0 .1-.1.1-.1 0-.1 0-.1-.1-.1s-.1.1-.1.1c.1.1.1.1.1.1zm-.8-.4c.2.1.2 0 .2 0s0-.1-.1-.1-.1 0-.1.1zm-.8.1c.1 0 .1-.1.1-.1s0-.1-.1-.1-.1 0-.1.1 0 .1.1.1zm-.5-5.4c-.2 0-.2 0-.2.1 0 0 0 .1.1.1s.1-.1.1-.2zm-1.2-11c-.1 0-.1 0-.1.1 0 0 .1.1.1.1s.1-.1.1-.1c0-.1-.1-.1-.1-.1zm-2.5.8c.1 0 .1-.1.1-.1s0-.1-.1-.1zm5.1 8.1c.1 0 .1-.1.1-.1s0-.1-.1-.1zm-10.4-.5c0-.1 0-.1 0 0-.1 0-.1 0-.1 0s0 .1.1.1zm9.8 1.3c.1 0 .1-.1.1-.1s0-.1-.1-.1c0 0-.1 0 0 .2-.1-.1 0 0 0 0zm-2.6-9.8c-.1 0-.2 0-.1 0 0 0 0 .1.1.1 0 0 0 0 0-.1zm-3 .6c0-.1-.1-.1-.1-.1s-.1 0-.1.1.1.1.2 0c0 .1 0 .1 0 0zm5.9 9.3c0-.1 0-.1 0 0-.1 0-.2 0-.2.1 0 0 0 .1.1.1.1-.1.1-.2.1-.2zm-10-1.9c0-.1-.1-.1-.1-.1s-.1 0-.1.1.1.1.2 0c0 .1-.1 0 0 0zm9.4 1c-.1-.1-.2 0-.2 0 0 .1 0 .1.1.1 0 0 .1 0 .1-.1zm1.5-.8c.1 0 .1-.1.1-.1s0-.1-.1-.1zm-5.3-7c-.1-.1-.1-.1 0 0-.1-.1-.2 0-.1 0-.1 0-.1.1.1 0-.1 0 0 0 0 0zm3.6 7.1c-.1-.1-.1-.1 0 0-.1-.1-.2 0-.2 0s0 .1.1.1c0 0 0 0 .1-.1zm.4-1.5s.1-.1.1-.1c0-.1-.1-.1-.1 0-.1-.1-.1 0 0 .1-.1 0-.1 0 0 0zm1.6.7c0-.1 0-.1 0 0-.1-.1-.2 0-.2 0 0 .1 0 .1.1.1s.1-.1.1-.1zm-1.2.2c0 .1.1.1 0 0 .1 0 .2 0 .2-.1 0 0-.1-.1-.1-.1-.1.1-.1.2-.1.2zm-12.7-3.9c-.1 0-.1.1-.1.1 0 .1 0 .1.1.1v-.1c.1 0 .1-.1 0-.1zm12.8 3.3s-.1-.1-.1-.1c-.1 0-.1 0 0 .1 0 .1.1.1.1.1s0 0 0-.1zm.3-.2c-.1-.1-.1-.1 0 0-.1 0-.2 0-.2.1 0 0 0 .1.1.1.1-.1.1-.2.1-.2zm.8-.5c-.1-.1-.1 0-.1 0 0 .1 0 .1.1 0 0 .1 0 .1 0 0zm-.4 9.9c-.1 0-.2 0-.1.1 0 0 0 .1.1.1 0 0 0-.1 0-.2zm-1.2-11.3s-.1.1 0 0c-.1.1 0 .2 0 .2.1 0 .1 0 0-.2.1.1.1 0 0 0zm.5-.7c-.1-.1-.1-.1 0 0-.2-.1-.2 0-.2 0s0 .1.1.1c0 0 0-.1.1-.1zm-.3 11.8c0-.1-.1-.1 0 0-.1-.1-.2-.1-.2 0 0 0 .1.1.2 0zm-2.5-16.4c0-.1-.1-.1-.1-.1s-.1 0 0 .1c-.1 0-.1.1.1 0zm2 11.3c.1-.2 0-.2 0-.1-.1 0-.1 0 0 .1-.1 0-.1 0 0 0zm1-5.1s.1-.1.1-.1c0-.1-.1-.1-.1 0-.1-.1-.1 0 0 .1-.1 0 0 0 0 0zm-4.7-6.1s-.1 0-.1.1.1.1.1.1c.1 0 .1-.1 0-.2zm3.2 13.9c0-.1 0-.1-.1-.1s-.1.1 0 .1c0 0 0 .1.1 0zm.9-8c0-.1-.1-.1-.1-.1s-.1 0-.1.1.1.2.2 0c0 .1 0 .1 0 0zm1 9.6c-.1-.1-.2 0-.2 0s0 .1.1.1.1 0 .1-.1zm-1.3-11.2c0 .1.1.1 0 0 .2 0 .2 0 .2-.1h-.1c-.1 0-.1.1-.1.1zm-.7.1c-.1 0-.1.1-.1.1s0 .1.1.1.1 0 0-.2c.1.1.1 0 0 0zm-8.9 3.3c-.1-.1-.1 0-.1 0-.1.1 0 .1.1 0 0 .1 0 .1 0 0zm9.5-1.5c0-.1 0-.1 0 0 .1-.1 0-.2 0-.2-.1 0-.1.1 0 .2-.1-.1-.1 0 0 0zm-9.9 2c0-.1 0-.1 0 0-.1 0-.1 0-.1 0 0 .1 0 .1.1.1zm-.3-.4c.1 0 .1-.1 0 0 .1-.1 0-.2 0-.2s-.1.1 0 .2c-.1 0 0 0 0 0zm11.3-2.8c-.1 0-.1 0 0 0 0 .1 0 .2 0 .1.1 0 .1-.1 0-.1.1 0 0-.1 0 0zm-1.5.3c0-.1-.1-.1 0 0-.1-.1-.2 0-.1 0-.1 0 0 .1.1 0zm-9.6 1.9c0-.1 0-.1 0 0-.1-.1-.1 0-.1 0 0 .1 0 .1.1 0zm12.3 9.1c0 .1 0 .1 0 0 .1.1.2 0 .2 0-.1-.1-.1-.1-.2 0zm-1.4-.6s0 .1 0 0v.2c.1 0 .1-.1 0-.2.1 0 .1 0 0 0zm-.8.3c0-.1 0-.1 0 0-.1-.1-.1 0-.1 0s0 .1.1 0zm.4-.2c-.1-.1-.2 0-.2 0s0 .1.1.1.1 0 .1-.1zm-.6-4.1c-.1-.1-.2 0-.2.1v.1c.2-.1.2-.1.2-.2zm.5-.9s.1-.1.1-.1c0-.1 0-.1-.1-.1s-.1 0 0 .2c-.1-.1-.1 0 0 0zm-.5-.2s.1 0 0 0c.1.1.2 0 .2 0 0-.1-.1-.1-.2 0 .1-.1 0-.1 0 0zm.5-1.5c-.1 0-.2 0-.2.1 0 0 0 .1.1.1.1-.1.1-.1.1-.2zm.1-.7c0-.1 0-.1-.1-.1 0 0-.1 0-.1.1h.2c-.1 0-.1 0 0 0zm1-.5c0-.1 0-.1 0 0-.1 0-.2 0-.2.1 0 0 0 .1.1.1.1-.1.1-.2.1-.2zm-1.1-.6s.1-.1.1-.1 0 0-.1 0-.1 0 0 .1c-.1 0-.1 0 0 0zm.5-.4c.1 0 .1 0 0 0 .1-.1 0-.2 0-.1 0 0-.1 0 0 .1-.1 0 0 0 0 0zm-4.2-7.3c.1 0 .1-.1.1-.1s0-.1-.1-.1-.1 0 0 .2c-.1-.1-.1 0 0 0zm-1.9.2c-.1 0-.1 0 0 0v.2c.1-.1.1-.1 0-.2zm.5.4v.2c.1 0 .1-.1 0-.2.1 0 .1 0 0 0zm-7.2 5.2c.1-.1 0-.2 0-.1-.1 0-.1 0 0 .1-.1 0 0 0 0 0zm.6-.4c0-.1 0-.2 0-.2-.1.1-.1.1 0 .2-.1 0-.1 0 0 0zm7.3-4.5c0-.1 0-.1-.1-.1s-.1 0-.1.1c.1.1.1.1.2 0zm-.7.3c-.1-.1-.2 0-.2 0s0 .1.1.1.1 0 .1-.1zm1.6-.3c-.2-.1-.2 0-.2 0s0 .1.1.1.1 0 .1-.1zm2.8 4.1c0 .1 0 .1 0 0 .1.1.1 0 .1-.1 0 0 0-.1-.1-.1zm-10 2.2c0-.1 0-.1 0 0-.1 0-.2 0-.1 0 0 .1 0 .1.1 0zm-1.7-3.9c.1.1.1 0 .1 0 0-.1 0-.1-.1 0 0-.1 0-.1 0 0zm11.8 9.9c0-.1-.1-.1 0 0-.1 0-.2 0-.1.1-.1 0 0 0 .1-.1zm-3.2-12.1c0-.1 0-.1 0 0-.1-.1-.1-.1-.1 0zm4.7 16.3c0-.1 0-.1 0 0-.1 0-.1 0-.1 0s0 .1.1 0zm1.2-.3c-.1 0-.1 0-.1 0s0 .1.1.1.1-.1 0-.1zm-8.1-17.1c0-.1 0-.1 0-.1-.1 0-.1 0 0 .1-.1 0-.1 0 0 0zm.9-.2c0-.1 0-.1 0 0-.1-.1-.1-.1-.1-.1 0 .1 0 .1.1.1zm5.8 16.8c.1 0 .1 0 0 0 .1-.1.1-.1 0-.1.1 0 0 0 0 .1zm.6-.3c.1 0 .1 0 0 0 .1-.1.1-.2 0-.2zm.4-.5c0-.1 0-.1 0 0-.1-.1-.1-.1-.1 0zm-2.1.2c-.1-.1-.1-.1-.1 0-.1.1 0 .1.1 0 0 .1 0 .1 0 0zm.4-.7c0-.1 0-.1-.1-.1 0 0 0 0-.1.1 0-.1.1 0 .2 0-.1 0 0-.1 0 0zm-11.4-10.9c-.1 0-.1 0-.1.1 0 0 0 .1.1 0 0 0 0 0 0-.1zm13.4 3.1c-.1 0-.2 0-.1.1 0 0 .1.1.1 0 0 0 0 0 0-.1zm-2-.7c-.1.1-.1.1 0 0v.1c0 .1 0 0 0-.1zm-11.6-1c-.1 0-.1 0-.1 0 0 .1 0 .1.1 0 0 .1 0 .1 0 0zm.2.4c0-.1 0-.1 0 0-.1 0-.1 0-.1 0 0 .1.1.1.1 0zm11.4-2.3c-.1 0-.1 0-.1.1 0 0 0 .1.1 0zm-11.7 2.7c0-.1 0-.1 0 0-.1-.1-.1 0-.1 0-.1 0 0 0 .1 0zm.3-1.1c-.1.1-.1.1 0 0v.2c.1 0 .1-.1 0-.2.1.1 0 0 0 0zm11.7.5c0-.1 0-.1 0 0-.1 0-.1 0-.1.1 0 0 0 .1.1 0zm-12.1-2.4c-.1 0-.1.1-.1.1s0 .1.1 0c.1 0 .1 0 0-.1zm.9 4.4c-.1 0-.1.1 0 .1 0 0 0 .1.1.1 0-.1 0-.1-.1-.2zm.8-.7c.1 0 .1-.1 0 0 .1-.1 0-.2 0-.1zm8.4-5.9c0-.1-.1-.1 0 0-.1 0-.1 0-.1.1-.1 0 0 0 .1-.1zm-10.1 3.6c0-.1 0-.1 0 0-.1-.1-.1 0-.1 0zm9.4-3.6c0-.1 0-.2-.1-.2 0 .1 0 .1.1.2-.1 0-.1 0 0 0zm2.5 7.7c0-.1 0-.1 0 0-.1 0-.2 0-.1 0 0 0 0 .1.1.1zm-.5-5.7c.1 0 .1 0 0 0 .1-.1.1-.2 0-.2zm1 12.5c0-.1-.1-.1 0 0-.1 0-.1 0-.1 0-.1 0 0 0 .1 0zm-1.6.4v.1s.1 0 .1-.1c0 0 0 0-.1 0zm-9.2-7.4c-.1 0-.1 0-.1.1 0 0 0 .1.1 0zm11.9 8.3c0-.1 0-.1 0 0-.1 0-.1 0-.1.1 0-.1 0 0 .1-.1zm-12.9-10.5c0-.1 0-.1 0 0-.1-.1-.2-.1-.1 0 0 0 0 .1.1 0zm0 .4c-.1 0-.1 0 0 0v.1c0 .1 0 0 0-.1zm13.8 10.3s-.1-.1 0 0c-.1-.1-.1 0-.1 0 0 .1 0 .1.1 0zm-3-11.9c-.1 0-.1 0-.1 0s0 .1.1 0zm-3.3-5.1c0-.1-.1-.1 0 0-.1 0-.1 0-.1 0h.1c-.1.1-.1 0 0 0zm3.9 10.9c-.1 0-.1 0 0 0v.1s.1-.1 0-.1zm-11.5-6.1s0 .1 0 0h.1c0-.1 0-.1-.1 0 0-.1 0 0 0 0zm12 10.2v.1c.1 0 .1 0 0-.1.1 0 .1 0 0 0zm-.7.2s-.1-.1 0 0c-.1 0-.1 0-.1 0 0 .1 0 .1.1 0zm1.2-.3v-.1s0-.1-.1 0c.1 0 0 .1.1.1zm-12.1-10.5c-.1 0-.1 0-.1 0s0 .1.1.1c0 0 0 0 0-.1zm11.5 10.1c0-.1-.1-.1 0 0-.1 0-.1 0-.1 0 0 .1 0 .1.1 0zm-12.7-12.8c-.1-.1-.1-.1-.1 0-.1 0 0 .1.1 0-.1.1 0 .1 0 0zm11.9 6.1c0-.1 0-.1 0-.1-.1 0-.1 0 0 .1-.1 0-.1 0 0 0zm-11.9-4c0-.1 0-.1 0 0-.1-.1-.1-.1 0 0zm12.7 3.8c-.1 0-.1 0-.1.1 0 0 0 .1.1 0 0 0 0 0 0-.1z"/><path d="m17.1 6.2c.1.1 0 .1 0 .2-.1 0-.2 0 0-.2-.1 0 0 0 0 0z"/><path d="m25.2 17.2c-.4-.1-.7-.2-1.1-.3-.1 0-.2-.1-.2 0s-.1 0-.1 0c-.3 0-.6.1-.9.2-.7.2-1.1.7-1.3 1.3-.1.2-.2.4-.3.6 0-.2 0-.4.1-.6.2-.6.5-1.1 1-1.4.1-.1.2-.2.4-.2.4-.1.7-.2 1.1-.4-.2-.2-.3-.3-.6-.3-.7 0-1.3.2-1.9.7-.2.2-.4.5-.5.7-.1.1-.1.3-.2.4-.1-.1 0-.1 0-.2.1-.3.2-.7.4-.9.3-.4.7-.7 1.2-.9.2-.1.4-.1.6-.2.4-.1.7 0 .9.3.2.2.4.4.6.5.1.1.2.1.3.1.2.3.4.4.5.6z"/><path d="m8.7 12.6c-.1 0-.1-.1-.2-.1-.1.1-.1 0-.1-.1s0-.3-.2-.3c-.1 0 0-.1 0-.1h.1c.1 0 .2-.1.3-.2.1-.2.2-.2.3 0s.2.6.1.9c0 0 0 .1-.1.1-.1-.2 0-.5-.4-.4 0 .1.2 0 .2.2z"/><path d="m17.9 19.4c-.1-.4-.1-.8-.1-1.2s.1-.7.4-1c.2-.2.3-.5.5-.7.1.1 0 .1 0 .2-.1.2-.2.5-.4.7-.2.3-.3.7-.3 1.1v.5c.1.2 0 .3-.1.4z"/><path d="m24.6 23.8c.1-.6.3-1.2.8-1.7.1-.1.2-.1.3-.2h.2c0 .1 0 .1-.1.2 0 0 0 0-.1 0-.4.2-.6.6-.8 1 0 .4-.1.6-.3.7z"/><path d="m14.3 17.2c-.1-.1-.1-.1-.1-.2.1-.8.2-1.5.4-2.2 0-.1.1-.2.2-.3h.1s.1.1 0 .1c-.3.5-.4 1.1-.5 1.7 0 .3 0 .6-.1.9z"/><path d="m13.8 18c-.1-.4-.2-.8-.1-1.2.1-.3.2-.6.2-.9 0 0 0-.1.1-.1 0 0 .1.1 0 .1-.1.6-.1 1.3-.2 2.1z"/><path d="m16.4 6.8c-.1.1-.1.2 0 .3 0 .1.1.1 0 .2-.1-.1-.1-.3-.2-.4 0-.2.1-.1.2-.1z"/><path d="m15.3 6.1c0 .1 0 .1-.1.1s-.2 0-.2-.1 0-.1.1-.2c.1 0 .1.1.2.2z"/><path d="m9 15.4c0 .1-.1.1-.2.2 0 0-.1.1-.1 0v-.1c.1-.1.1-.1.3-.1-.1-.1-.1 0 0 0z"/><path d="m16.6 6.2s0 .1 0 0c-.1.1-.2 0-.3 0 0 0-.1-.1 0-.1 0 0 0-.1.1 0 0 0 .1 0 .2.1z"/><path d="m20 15.6c-.1-.1 0-.2 0-.3s0-.1.1-.1.1.1.1.1c-.1.2-.1.2-.2.3z"/><path d="m20.4 15.6c0 .1 0 .1-.1.1s-.1-.1-.1-.1c0-.1 0-.1.1-.1.1-.1.1 0 .1.1z"/><path d="m19.7 23.2v.1c0 .1 0 .1-.1.1 0 0-.1 0-.1-.1s0-.1.1-.1z"/><path d="m18.6 10.9c-.1 0-.1 0-.1-.1s.1-.1.1-.1.1 0 .1.1c0 0 0 .1-.1.1z"/><path d="m19.7 13.1c.1.1.1.1.1.2 0 0 0 .1-.1.1 0 0-.1 0-.1-.1 0 0 0-.1.1-.2z"/><path d="m16.4 6.8c-.1-.1-.2-.2-.2-.2h.1c.1 0 .1.1.1.2.1-.1 0 0 0 0z"/><path d="m18.6 13.2c-.1 0-.1 0-.1-.1s0-.1.1-.1.1 0 .1.1c0 0 0 .1-.1.1z"/><path d="m21.2 23.1c0 .1 0 .1-.1.2 0 0-.1 0-.1-.1s0-.2.2-.1c-.1-.1-.1-.1 0 0z"/><path d="m19.6 14.4c0 .1 0 .1-.1.1s-.1 0-.1-.1 0-.1.1-.1c0 0 0 .1.1.1z"/><path d="m16.1 6.4c0 .1-.1.1-.1.1s-.1 0-.1-.1 0-.1.2 0c0-.1 0 0 0 0z"/><path d="m19.8 16c0 .2-.1.2-.1.3h-.1v-.1c.1 0 .1-.1.2-.2z"/><path d="m14.8 6.8c0 .1 0 .1-.1.1s-.1 0-.1-.1v-.1c.2 0 .2 0 .2.1z"/><path d="m19 14.1c0 .1 0 .1-.1.1s-.1 0-.1-.1h.2c-.1-.1-.1 0 0 0z"/><path d="m14.7 6.3c0-.1 0-.1.1-.1s.1 0 .1.1 0 .1-.1.1c0 0-.1 0-.1-.1z"/><path d="m20 16.5s.1-.1 0 0c.1-.1.2-.1.2 0s0 .1-.2 0c.1.1 0 .1 0 0z"/><path d="m9.3 15.9c-.1-.1-.1-.1-.2-.2v-.1h.1c.1.1.1.2.1.3z"/><path d="m21.6 12.9c0 .1 0 .1-.1.2 0 0-.1 0-.1-.1s0-.1.2-.1c-.1-.1 0 0 0 0z"/><path d="m12.8 6.6c0 .1 0 .1-.1.1s-.1 0-.1-.1.1-.1.2 0c0-.1 0-.1 0 0z"/><path d="m15.1 6.4s0 .1 0 0c.1.1.1.2 0 .2s-.1 0 0-.2c-.1.1-.1 0 0 0z"/><path d="m20.7 23.7c-.1 0-.1 0-.1-.1s0-.1.1-.1.1 0 .1.1 0 .1-.1.1z"/><path d="m19.9 23.3c0-.1.1-.1.1-.1.1 0 .1 0 .1.1 0 0-.1.1-.2 0z"/><path d="m19.1 23.4c-.1 0-.1 0-.1-.1s0-.1.1-.1c0 0 .1 0 .1.1 0 0 0 .1-.1.1z"/><path d="m18.6 18c0 .1 0 .1-.1.1 0 0-.1 0-.1-.1h.2c-.1 0 0 0 0 0z"/><path d="m17.4 7c.1 0 .1 0 .1.1 0 0 0 .1-.1.1s-.1 0-.1-.1c0 0 0-.1.1-.1z"/><path d="m14.9 7.8c-.1-.1-.1-.2 0-.2 0 0 .1 0 .1.1 0 0 0 .1-.1.1z"/><path d="m20 15.9c-.1-.1-.1-.2 0-.2s.1 0 .1.1 0 .1-.1.1z"/><path d="m9.6 15.4v.1c-.1 0-.1 0-.1-.1 0 0 0-.1.1 0 0-.1 0-.1 0 0z"/><path d="m19.4 16.7s-.1-.1 0 0c0-.1 0-.2 0-.2s.1 0 .1.1c0 0 0 0-.1.1z"/><path d="m16.8 6.9c0 .1 0 .1-.1.1 0 0-.1 0-.1-.1h.2c-.1 0 0 0 0 0z"/><path d="m13.8 7.5c0 .1 0 .1 0 0-.1.1-.1 0-.2 0 0 0 0-.1.1-.1 0 .1.1.1.1.1z"/><path d="m19.7 16.8c0 .1 0 .1-.1.1 0 0-.1 0-.1-.1.1 0 .1-.1.2 0 0-.1 0-.1 0 0z"/><path d="m9.7 14.9c-.1 0 0 .1 0 0-.1.1-.2.1-.2 0 0 0 0-.1.1-.1 0 0 0 0 .1.1z"/><path d="m19.1 15.9c0 .1 0 .1-.1.1s-.1 0-.1-.1h.2c-.1 0 0 0 0 0z"/><path d="m20.6 15.1c-.1-.1 0-.2 0-.2s.1 0 .1.1 0 .1-.1.1z"/><path d="m15.3 8.1c-.1.1-.1.1-.1 0-.1-.1-.1-.1.1 0-.1-.1-.1-.1 0 0z"/><path d="m18.9 15.2c0 .1 0 .1-.1.1 0 0-.1 0-.1-.1 0 0 0-.1.2 0-.1-.1-.1-.1 0 0z"/><path d="m19.3 13.7c-.1 0-.1 0 0 0-.1-.1-.1-.2 0-.2h.1c0 .1-.1.2-.1.2z"/><path d="m20.9 14.4s0 .1-.1.1c0 0-.1 0-.1-.1.1-.1.1-.1.2 0 0-.1 0-.1 0 0z"/><path d="m19.7 14.6c0-.1 0-.1.1-.1 0 0 .1 0 .1.1 0 0 0 .1-.2 0 .1.1 0 .1 0 0z"/><path d="m7 10.7c.1 0 .1.1.1.1v.1c-.1.1-.1 0-.1 0-.1-.1 0-.1 0-.2z"/><path d="m19.8 14v.1c-.1 0-.1 0-.1-.1v-.1s0 .1.1.1z"/><path d="m20.1 13.8c0 .1 0 .1-.1.1s-.1 0-.1-.1c0 0 0-.1.2 0-.1-.1-.1-.1 0 0z"/><path d="m20.9 13.3c0 .1 0 .1 0 0-.1.1-.1.1-.1 0h.1s.1 0 0 0z"/><path d="m20.5 23.2c0 .1 0 .1-.1.1 0 0-.1 0-.1-.1.1.1.1 0 .2 0z"/><path d="m19.3 11.9c.1 0 .1.1 0 0 .1.1.1.2 0 .2 0 0 0 0 0-.2-.1.1 0 0 0 0z"/><path d="m19.8 11.2s0 .1-.1.1-.1 0-.1-.1 0-.1.2 0c-.1-.1-.1-.1 0 0z"/><path d="m19.5 23s0 .1 0 0c-.1.1-.2.1-.2 0s0-.1.2 0c-.1-.1 0-.1 0 0z"/><path d="m17 6.6s0 .1 0 0c-.1.1-.2.1-.2 0v-.1c.1 0 .1 0 .2.1z"/><path d="m19 17.9c-.1 0-.1 0 0 0-.1-.1-.1-.1 0-.1z"/><path d="m20 12.8c-.1-.1-.1-.1-.1-.2h.1c.1.1.1.2 0 .2z"/><path d="m15.3 6.7s.1 0 0 0c.1.1.1.2 0 .2s-.1 0-.1-.1c0 0 .1-.1.1-.1z"/><path d="m18.5 20.6s0 .1 0 0c-.1.1-.1.1-.1 0v-.1c.1 0 .1 0 .1.1z"/><path d="m19.4 12.6c0 .1 0 .1 0 0-.1.1-.2.1-.2 0s0-.1.1-.1c0 .1.1.1.1.1z"/><path d="m20.4 22.2c0 .1 0 .1-.1.1 0 0-.1 0-.1-.1.1 0 .1-.1.2 0 0-.1 0 0 0 0z"/><path d="m19.1 11c0-.1 0-.1.1-.1h.1c0 .1 0 .1-.2.1.1.1 0 .1 0 0z"/><path d="m18.4 11.1c.1 0 .1.1 0 0 .1.1.1.2 0 .2 0 0-.1 0-.1-.1 0 0 0-.1.1-.1z"/><path d="m9.5 14.4c0 .1 0 .1 0 0-.1.1-.1.1-.1 0-.1 0 0-.1.1 0 0-.1 0 0 0 0z"/><path d="m19 12.9c-.1 0-.1-.1 0 0-.1-.1-.1-.2 0-.2v.2c0-.1 0-.1 0 0z"/><path d="m9.1 14.9v.1c-.1 0-.1 0-.1-.1 0 0 0-.1.1 0 0-.1 0-.1 0 0z"/><path d="m8.8 14.5c-.1-.1 0-.2 0-.2.1 0 .1 0 0 .2.1-.1.1 0 0 0z"/><path d="m20.1 11.7c0-.1.1 0 0 0 .1.1.1.1 0 .1 0 0-.1 0 0-.1-.1 0-.1 0 0 0z"/><path d="m18.6 12s0 .1 0 0c-.1.1-.1.1-.1 0-.1-.1 0-.1.1 0-.1-.1 0-.1 0 0z"/><path d="m9 13.9s0 .1 0 0c-.1.1-.1.1-.1 0 0 0 0-.1.1 0 0-.1 0-.1 0 0z"/><path d="m21.3 23c.1-.1.2-.1.2 0 0 0-.1.1-.2 0 0 .1 0 .1 0 0z"/><path d="m19.7 23.2c0-.1-.1-.1-.1-.2 0 0 0-.1.1-.1h.1c0 .1-.1.2-.1.3z"/><path d="m19.9 22.4c.1 0 .1 0 0 0 .1.1.1.2 0 .2 0 0 0-.1 0-.2z"/><path d="m19.1 22.7s0 .1 0 0c-.1.1-.1.1-.1 0s0-.1.1 0c0-.1 0-.1 0 0z"/><path d="m19.5 22.5c0 .1 0 .1-.1.1s-.1 0-.1-.1h.2c0-.1 0 0 0 0z"/><path d="m18.9 18.4c0 .1 0 .1-.1.1 0 0 0 0 0-.1z"/><path d="m19.4 17.5c-.1 0-.1-.1 0 0-.1-.1 0-.2 0-.2s.1 0 .1.1c0 0-.1 0-.1.1z"/><path d="m18.9 17.3c0-.1.1-.1 0 0 .1-.1.2-.1.2 0 0 0 0 0-.2 0z"/><path d="m19.4 15.8c0 .1 0 .1-.1.1 0 0-.1 0-.1-.1z"/><path d="m19.5 15.1c-.1 0-.1 0 0 0-.1.1-.2.1-.2 0 0 0 0-.1.1-.1 0 0 0 0 .1.1z"/><path d="m20.5 14.6c0 .1 0 .1-.1.1 0 0-.1 0-.1-.1h.2c0-.1 0-.1 0 0z"/><path d="m19.4 14c-.1 0-.1 0 0 0-.1-.1 0-.1 0-.2h.1c-.1.2-.1.2-.1.2z"/><path d="m19.9 13.6c-.1-.1-.1-.1 0-.1 0 0 .1 0 0 .1.1 0 .1 0 0 0z"/><path d="m15.7 6.3c-.1 0-.1-.1 0 0-.1-.1-.1-.2 0-.2 0 0 .1 0 .1.1 0 0-.1 0-.1.1z"/><path d="m13.8 6.5c.1.1.1.1 0 .2 0-.1-.1-.1 0-.2-.1 0-.1 0 0 0z"/><path d="m14.3 6.9c.1 0 .1 0 0 0 .1.1.1.2 0 .2 0 0 0-.1 0-.2-.1 0 0 0 0 0z"/><path d="m7.1 12.1c-.1-.1-.1-.1 0-.1 0-.1.1 0 0 .1z"/><path d="m7.7 11.7c-.1 0-.1 0 0 0-.1-.1-.1-.2 0-.2z"/><path d="m15 7.2s0 .1 0 0c-.1.1-.1 0-.2 0 0-.1 0-.1.1-.1s.1 0 .1.1z"/><path d="m14.3 7.5s0 .1-.1.1-.1 0-.1-.1z"/><path d="m15.9 7.2s0 .1-.1.1c0 0-.1 0-.1-.1z"/><path d="m18.7 11.3c0-.1 0-.1.1-.1 0 0 .1 0 .1.1-.1 0-.1.1-.2 0 0 .1 0 .1 0 0z"/><path d="m8.7 13.5s0 .1 0 0c-.1.1-.1.1-.1 0 0 0 0-.1.1 0 0-.1 0 0 0 0z"/><path d="m7 9.6c0-.1 0-.1 0 0 .1-.1.1 0 .1 0s0 0-.1 0z"/><path d="m18.8 19.5s0 .1 0 0c-.1.1-.1.1-.1.1-.1-.1-.1-.2.1-.1-.1-.1 0-.1 0 0z"/><path d="m15.6 7.4c-.1.1-.1 0-.1 0 0-.1 0-.1.1 0 0-.1 0-.1 0 0z"/><path d="m21.2 23.9c0-.1 0-.2 0-.2.2.1.2.2 0 .2.1 0 .1 0 0 0z"/><path d="m20.3 23.7c-.1.1-.1.1-.1 0 0 0 0-.1.1 0 0-.1 0-.1 0 0z"/><path d="m21.5 23.4v.1s-.1 0-.1-.1h.1c0-.1 0 0 0 0z"/><path d="m13.4 6.3c-.1 0-.1 0 0 0-.1-.1-.1-.1 0-.1v.1c0-.1 0 0 0 0z"/><path d="m14.3 6.1c-.1 0-.1 0-.1 0 0-.1 0-.1.1 0 0-.1 0-.1 0 0z"/><path d="m20.1 22.9c0-.1 0-.1 0-.1.1 0 .1 0 0 .1.1 0 .1 0 0 0z"/><path d="m20.7 22.6c-.1-.1 0-.2 0-.2.1.1.1.1 0 .2.1 0 .1 0 0 0z"/><path d="m21.1 22.1c-.1.1-.1 0-.1 0 0-.1 0-.1.1 0 0-.1 0-.1 0 0z"/><path d="m19 22.3c0 .1 0 .1 0 0-.1.1-.1 0-.1 0-.1 0 0-.1.1 0 0-.1 0 0 0 0z"/><path d="m19.4 21.6c0-.1-.1 0 0 0-.1 0-.1 0-.1-.1 0 0 0-.1.1-.1-.1 0 0 0 0 .2z"/><path d="m8 10.7v.1h-.1c0-.1 0-.1.1-.1z"/><path d="m21.4 13.8v.1h-.1c-.1-.1-.1-.1.1-.1-.1 0 0 0 0 0z"/><path d="m19.4 13.1s0 .1 0 0c.1.1.1.1 0 .1-.1.1-.1.1 0-.1-.1.1-.1.1 0 0z"/><path d="m7.8 12.1c0 .1 0 .1 0 0-.1.1-.1.1-.1 0z"/><path d="m8 12.5s0 .1 0 0c-.1.1-.1.1-.1 0 0 0 0-.1.1 0 0-.1 0-.1 0 0z"/><path d="m19.4 10.2v.1h-.1c0-.1 0-.1.1-.1 0-.1 0 0 0 0z"/><path d="m7.7 12.9c-.1.1-.1.1-.1 0-.1-.1 0-.1.1 0 0-.1 0-.1 0 0z"/><path d="m8 11.8s.1.1 0 0c.1.1.1.2 0 .2 0 0 0 0 0-.2-.1.1-.1.1 0 0z"/><path d="m19.7 12.3s0 .1-.1.1h-.1c.1-.1.1-.2.2-.1 0-.1 0-.1 0 0z"/><path d="m7.6 9.9c.1.1.1.1 0 .1h-.1s0-.1.1-.1z"/><path d="m8.5 14.3c.1.1.1.1 0 .2-.1 0-.1 0-.1-.1 0 0 0-.1.1-.1z"/><path d="m9.3 13.6c-.1-.1-.1-.1 0-.1.1-.1.1 0 0 .1.1-.1.1 0 0 0z"/><path d="m17.7 7.7c-.1.1-.1.1-.1.1-.1-.1 0-.2.1-.1-.1-.1 0-.1 0 0z"/><path d="m7.6 11.3c-.1.1-.1 0-.1 0 0-.1 0-.1.1 0 0-.1 0-.1 0 0z"/><path d="m17 7.7c-.1 0-.1 0 0 0-.1-.1-.1-.1-.1-.2.1 0 .1.1.1.2 0-.1 0 0 0 0z"/><path d="m19.5 15.4s0 .1-.1.1c0 0-.1 0-.1-.1.1 0 .1-.1.2 0 0-.1 0-.1 0 0z"/><path d="m19 9.7c-.1-.1 0-.1 0-.2.1.1.1.1 0 .2.1 0 .1 0 0 0z"/><path d="m20 22.2c-.1.1-.1.1-.1 0-.1-.1 0-.1.1 0-.1-.1 0-.1 0 0z"/><path d="m18.4 22.6c.1 0 .1 0 .1.1s0 .1-.1.1c0-.1 0-.1 0-.2z"/><path d="m9.2 15.2v.1h-.1c0-.1 0-.1.1-.1z"/><path d="m8.7 12.6s0 .1 0 0c.1.1.1.2.1.2s0 0-.1 0-.1-.1 0-.2z"/><path d="m21.1 23.5c-.1.1-.1 0-.1 0s0-.1.1 0c0-.1 0-.1 0 0z"/><path d="m8.2 13c-.1.1-.1 0-.1 0s0-.1.1 0c0-.1 0-.1 0 0z"/><path d="m8.2 13.4s0 .1 0 0c0 .1 0 .2 0 .1-.1 0-.1 0 0-.1-.1 0-.1 0 0 0z"/><path d="m22 23.7s0 .1 0 0c-.1 0-.1 0-.1 0h.1c-.1-.1 0 0 0 0z"/><path d="m19 11.8s0 .1 0 0c-.1.1-.1.1-.1 0h.1c0-.1 0 0 0 0z"/><path d="m15.7 6.7c-.1 0-.1.1 0 0-.1.1-.1 0-.1 0s0-.1.1 0c-.1-.1 0-.1 0 0z"/><path d="m19.6 17.6c.1.1.1.1 0 .1 0 0-.1 0 0-.1-.1 0-.1 0 0 0z"/><path d="m8.1 11.5c.1-.1.1-.1.1 0 0 0 0 0-.1 0z"/><path d="m20.1 21.7c.1 0 .1 0 0 0 .1.1 0 .1 0 .1s0 0 0-.1z"/><path d="m19.4 21.9s0 .1 0 0c-.1.1-.1.1-.1 0h.1c-.1-.1 0 0 0 0z"/><path d="m20.6 21.6c-.1-.1-.1-.1 0-.1h.1c0 .1 0 .1-.1.1z"/><path d="m8.5 11.1v.1s-.1 0-.1-.1h.1c-.1 0 0 0 0 0z"/><path d="m20 21.2s0 .1 0 0c-.1.1-.1.1-.1 0-.1 0 0 0 .1 0-.1-.1 0-.1 0 0z"/><path d="m7.3 8.4c0 .1-.1.1 0 0-.1.1-.1 0-.1 0s0-.1.1 0c0-.1 0 0 0 0z"/><path d="m19.2 14.5c-.1 0-.1 0 0 0-.1-.1-.1-.1 0-.1z"/><path d="m7.3 10.5c-.1-.1-.1-.1 0 0 0-.1 0-.1 0 0z"/><path d="m20 14.3v.1h-.1c0-.1 0-.1.1-.1z"/></g></svg>