<?xml version="1.0" encoding="utf-8"?>
<!-- Generator: Adobe Illustrator 22.0.1, SVG Export Plug-In . SVG Version: 6.00 Build 0)  -->
<svg version="1.1" id="Layer_1" xmlns="http://www.w3.org/2000/svg" xmlns:xlink="http://www.w3.org/1999/xlink" x="0px" y="0px"
	 viewBox="0 0 30 29.1" style="enable-background:new 0 0 30 29.1;" xml:space="preserve">
<style type="text/css">
	.st0{fill:#F39F4E;}
</style>
<g>
	<g>
		<path id="SVGID_1_" class="st0" d="M21.7,8.9c-0.3,0-0.5,0.3-0.6,0.5C21,9.6,20.9,9.8,20.9,10c-0.1,0.2-0.1,0.5-0.3,0.7
			c0.1,0,0.2,0,0.2-0.1c0.2-0.2,0.5-0.2,0.7-0.4c0.1,0,0.1-0.1,0.2-0.1c0.4-0.1,0.8-0.3,1.1-0.5c0.3-0.2,0.6-0.3,1-0.4
			c0.4-0.1,0.5-0.2,0.5-0.6c0-0.3,0.1-0.7,0.3-1c0.1-0.1,0.2-0.2,0.3-0.3c0.5-0.2,1-0.6,1.4-0.9c0.2-0.1,0.3-0.3,0.5-0.4
			c0.1,0,0.1-0.1,0.3-0.1c-0.4,0.2-0.7,0.4-0.9,0.7c-0.3,0.3-0.6,0.5-1,0.7c-0.1,0.1-0.2,0.1-0.3,0.2c-0.2,0.1-0.3,0.2-0.3,0.4
			c0,0.1-0.1,0.3-0.1,0.4c-0.1,0.1,0.1,0.2,0,0.4c0.2,0,0.3-0.1,0.5-0.1c0.3-0.1,0.6-0.2,0.9-0.3c0.1-0.1,0.3-0.1,0.4,0
			c0.2,0.1,0.2,0.1,0.4,0c0.4-0.2,0.5-0.6,0.7-0.9c0.1-0.4,0.3-0.8,0.5-1.1C28.2,6,28.6,5.7,29,5.5c0.3-0.1,0.6-0.2,0.9-0.2
			c0,0,0.1,0,0.1,0c-0.3,0-0.6,0.1-0.9,0.3c-0.6,0.3-1.1,0.8-1.4,1.5c-0.1,0.3-0.2,0.6-0.4,0.9c-0.2,0.3-0.4,0.5-0.6,0.6
			c-0.2,0.1-0.4,0.4-0.5,0.6c-0.1,0.1-0.1,0.2,0,0.3c0.5,0,0.9-0.1,1.3-0.2c0.3-0.1,0.6,0,0.9,0.1c-0.1,0.1-0.2,0-0.3,0
			c-0.4-0.1-0.7,0-1,0.1c-0.2,0.1-0.5,0.1-0.7,0.1c-0.2,0-0.3,0.1-0.3,0.2c-0.1,0.2-0.2,0.4-0.3,0.7c0,0.2-0.1,0.3-0.2,0.5
			c-0.3,0.4-0.5,0.9-0.8,1.3c-0.1,0.1-0.2,0.3-0.2,0.5c-0.1,0.4-0.3,0.7-0.6,1c-0.2,0.2-0.4,0.4-0.7,0.7c0.3,0,0.5-0.1,0.7-0.1
			c0.1,0,0.2,0,0.3,0c0.3,0.1,0.6,0.2,0.9,0.2c0.1,0,0.1,0,0.2,0.1c0.3,0.2,0.6,0.2,1,0.1c0.1,0,0.1-0.1,0.2,0
			c-0.2,0.3-0.9,0.3-1.2,0.2c-0.1,0-0.2-0.1-0.3-0.1c-0.3,0-0.5-0.1-0.8-0.1c-0.3,0-0.5,0-0.8,0c-0.2,0-0.3,0.2-0.4,0.4
			c-0.1,0.1-0.1,0.3-0.2,0.4c-0.3,0.4-0.4,0.8-0.7,1.1c-0.5,0.7-1,1.2-1.7,1.6c-0.2,0.1-0.3,0.2-0.4,0.3c-0.2,0.2-0.5,0.4-0.6,0.7
			c0,0,0,0.1-0.1,0.1c-0.1,0-0.2,0.1-0.2,0.2c-0.2,0.4-0.6,0.8-0.9,1.1c-0.2,0.2-0.4,0.4-0.6,0.6c-0.3,0.4-0.7,0.6-1.1,0.8
			c-0.7,0.3-1.4,0.6-2.2,0.7c0,0-0.1,0-0.1,0c-0.5,0.1-1,0.2-1.5,0.3c-0.1,0-0.2,0-0.3,0.1c-0.4,0.2-0.9,0.2-1.3,0.3
			c-0.2,0-0.4,0.1-0.6,0.3c-0.1,0.1-0.3,0.2-0.5,0.2c-0.2,0-0.4,0.2-0.6,0.2c-0.4,0.1-0.8,0.2-1.2,0.2c-0.3,0-0.5-0.1-0.7-0.2
			c-0.2-0.1-0.3-0.1-0.5-0.1c-0.4,0-0.8,0.1-1.3,0.1c-0.5,0-1.1-0.1-1.6-0.3C3.8,23.2,3.4,23,2.9,23c-0.1,0.1,0.1,0.3-0.1,0.3
			c0,0,0,0,0,0c0-0.3-0.1-0.5-0.4-0.6c-0.2-0.1-0.4-0.2-0.6-0.4c-0.2-0.1-0.3-0.2-0.4-0.4c0-0.1-0.2-0.1-0.3-0.2
			c-0.2-0.1-0.4-0.3-0.5-0.6c0-0.2-0.1-0.4-0.2-0.5c0-0.1-0.1-0.2,0-0.3c0,0,0-0.1,0.1-0.1c0.1,0,0.1,0,0.1,0.1c0,0,0,0.1,0,0.1
			c0,0.3,0.2,0.4,0.4,0.6c0-0.1,0-0.2,0-0.3C1,20.6,1,20.4,0.9,20.2c0,0,0-0.1,0-0.1c0-0.1-0.1-0.1-0.1-0.1c-0.1,0-0.1,0.1-0.1,0.1
			c0,0,0,0.1-0.1,0.1c0-0.1,0-0.3,0.1-0.4c0.1-0.1,0.1-0.1,0-0.3c0-0.2,0-0.5,0.2-0.6c0.2-0.2,0.3-0.5,0.2-0.8
			c-0.1-0.5,0.1-0.9,0.4-1.3c0,0,0.1-0.1,0.1,0c0.1,0,0,0.1,0,0.1c-0.2,0.3-0.3,0.5-0.3,0.8c0,0.1,0,0.3,0,0.4
			c0.1,0.3,0,0.6-0.2,0.8C1,19,0.9,19.1,0.9,19.3c0.2-0.2,0.4-0.4,0.6-0.6c0.3-0.4,0.7-0.7,1-1.1c0.2-0.2,0.3-0.3,0.5-0.5
			c0.3-0.4,0.8-0.7,1.2-0.9c0.3-0.2,0.6-0.4,0.8-0.6c0.1-0.1,0.2-0.2,0.4-0.2c0.2-0.1,0.4-0.1,0.5-0.3C6,15.1,6.1,15,6.2,15
			c0.9-0.3,1.7-0.6,2.6-0.8c0.5-0.1,0.9-0.3,1.3-0.5c0.2-0.1,0.4-0.2,0.6-0.3c0.4-0.2,0.9-0.2,1.3-0.3c0.2,0,0.3-0.1,0.5,0
			c0,0,0.1,0,0.1,0c0.3-0.2,0.7-0.3,1.1-0.4c0.6-0.1,1.2-0.1,1.8-0.2c0.4-0.1,0.8-0.1,1.2-0.1c0.1,0,0.2-0.1,0.2-0.2
			c0.1-0.2,0.2-0.4,0.3-0.5c0.2-0.3,0.4-0.5,0.6-0.7c0.1-0.1,0.2-0.1,0.3-0.1c-0.5,0.3-0.8,0.8-1.1,1.4c0.4,0,0.7-0.1,1-0.2
			c0.4-0.1,0.7-0.3,1.1-0.5c0.2-0.1,0.4-0.2,0.5-0.2c0.3-0.1,0.5-0.2,0.6-0.5c0-0.1,0.1-0.2,0.2-0.2c0.1-0.1,0.2-0.3,0.3-0.5
			c0.1-0.3,0.2-0.6,0.4-0.9C21.3,9,21.5,8.9,21.7,8.9z M19.6,11.6L19.6,11.6c-0.2-0.1-0.3,0-0.5,0.1c-0.6,0.3-1.2,0.6-1.8,0.7
			c-0.4,0-0.6,0.3-0.9,0.5c0.2,0.2,0.1,0.5,0,0.6c0-0.1,0-0.1,0-0.1c0-0.2-0.1-0.3-0.3-0.3c-0.1,0-0.3,0-0.4,0c0,0-0.1,0-0.1,0
			c0,0,0,0,0-0.1c0.1-0.1,0.1-0.1,0.2-0.1c0.2,0,0.5-0.2,0.5-0.3c-0.4,0-0.7,0.1-1.1,0.1c-0.7,0.1-1.3,0.2-2,0.3
			c-0.2,0-0.3,0.1-0.5,0.2c0.2,0.1,0.4,0.1,0.6,0c0,0,0.1,0,0.1,0c0.2,0.1,0.4,0.1,0.6,0.3c0.3,0.2,0.5,0.5,0.8,0.7
			c0.2,0.2,0.4,0.4,0.6,0.6c-0.3-0.3-0.7-0.6-1.1-0.9c0,0.1,0.1,0.2,0.1,0.3c0.2,0.2,0.4,0.4,0.6,0.7c0.2,0.3,0.4,0.5,0.6,0.8
			c0.2,0.2,0.3,0.4,0.2,0.7c0,0.1,0,0.2,0,0.3c0.1,0.2,0.1,0.3,0.1,0.5C16.1,17.1,16,17,16,16.9c-0.1-0.2-0.2-0.4-0.4-0.6
			c-0.3-0.3-0.5-0.6-0.7-1c-0.2-0.4-0.4-0.8-0.5-1.1c-0.1-0.3-0.4-0.6-0.7-0.7c-0.5-0.1-1-0.2-1.6-0.2c-0.4,0.1-0.8,0.1-1.1,0.2
			c-0.4,0.1-0.8,0.4-1.2,0.5c0,0,0,0,0,0.1c0.3,0.1,0.6,0.3,1,0.4c0.2,0.1,0.4,0.2,0.5,0.3c0.2,0.2,0.4,0.3,0.7,0.5
			c0.2,0.1,0.4,0.2,0.5,0.3c0.2,0.3,0.6,0.6,0.8,0.9c0.1,0.2,0.3,0.3,0.3,0.5c0,0.3,0.1,0.6,0.1,0.8c0,0.2,0,0.4,0.1,0.6
			c0,0.1,0.1,0.2,0,0.3c0-0.1-0.1-0.1-0.1-0.1c-0.2-0.4-0.2-0.9-0.2-1.3c0-0.3-0.1-0.6-0.3-0.8c-0.3-0.3-0.5-0.5-0.8-0.8
			c0-0.1-0.1-0.1-0.2-0.1c-0.4-0.3-0.8-0.5-1.2-0.8c-0.1-0.1-0.1-0.1-0.2-0.1c-0.3-0.1-0.7-0.3-1-0.4c-0.1,0-0.2-0.1-0.3-0.1
			c-0.3,0-0.6,0-0.8,0.1c-0.7,0.2-1.4,0.4-2.1,0.6c-0.1,0-0.1,0-0.2,0.1c0.2,0,0.4,0,0.6,0c0.7,0.1,1.3,0.3,1.8,0.7
			c0.3,0.3,0.6,0.6,1,0.9c0.1,0,0.1,0.1,0.1,0.2c-0.3-0.1-0.6-0.3-0.8-0.5C9,16.2,8.7,16,8.5,15.9c-0.4-0.3-0.9-0.4-1.4-0.5
			c-0.4-0.1-0.7,0-1.1,0.1c0,0.1,0.1,0.1,0.2,0.2c0.1,0.1,0.2,0.1,0.3,0.2c0.4,0.3,0.7,0.7,1,1.1c0.2,0.3,0.3,0.5,0.4,0.8
			C8,18,8,18.3,8.1,18.5c0,0.1,0.1,0.2,0,0.3c-0.1,0-0.1-0.1-0.1-0.1c-0.1-0.3-0.2-0.5-0.2-0.8c0-0.2-0.1-0.4-0.2-0.5
			c-0.3-0.5-0.7-1-1.2-1.4c-0.1-0.1-0.3-0.2-0.4-0.3c-0.2-0.1-0.5-0.2-0.7,0c-0.4,0.3-0.9,0.6-1.3,0.9c0,0-0.1,0-0.1,0.1
			c0.3,0.2,0.5,0.4,0.7,0.6c0.2,0.2,0.3,0.3,0.4,0.6c0.1,0.3,0.3,0.5,0.4,0.8c0.1,0.2,0.2,0.4,0.3,0.6c0,0.1,0,0.1,0,0.1
			c-0.1-0.2-0.2-0.4-0.3-0.6c-0.1-0.2-0.3-0.4-0.5-0.7c-0.3-0.5-0.8-0.8-1.4-1c-0.1,0-0.3,0-0.4,0c-0.3,0.2-0.5,0.4-0.7,0.7
			c0.1,0.1,0.2,0.1,0.2,0.1c0.2,0,0.5,0.1,0.7,0.2c0.2,0.2,0.5,0.4,0.6,0.6c0,0.1,0.1,0.2,0.2,0.3c0.3,0.4,0.5,0.9,0.4,1.4
			c0,0.2,0.1,0.4,0.1,0.7c0.1,0.3,0,0.6-0.1,0.9c0-0.2,0-0.4,0-0.6c-0.1-0.3-0.1-0.6-0.1-1c0-0.3-0.1-0.7-0.2-1
			c-0.1-0.2-0.2-0.4-0.3-0.6c-0.2-0.3-0.4-0.6-0.8-0.8c-0.5-0.2-1-0.1-1.2,0.4c0,0.1,0.1,0,0.1,0.1c0.2,0.1,0.3,0.2,0.3,0.3
			c0,0.2,0.1,0.2,0.3,0.1c0,0,0.1-0.1,0.1-0.1c0-0.1,0.1-0.2,0.1-0.3c0-0.1,0-0.2,0.1-0.2c0.1,0,0.1,0.1,0.1,0.2
			c0,0.2,0,0.4-0.2,0.5c-0.2,0.2-0.2,0.3-0.1,0.5c0.1,0.2,0.2,0.5,0.2,0.7c0,0.2,0.1,0.2,0.2,0.1c0.1,0,0.1,0,0.2-0.1
			c0.1-0.1,0.2-0.1,0.3-0.2C3.7,20,3.8,20,4,20c-0.2,0-0.3,0.1-0.4,0.2c-0.1,0.2-0.3,0.2-0.5,0.3C3,20.5,3,20.6,3,20.7
			c0,0.2,0,0.4,0,0.6c0,0.1,0,0.2-0.1,0.2c0,0,0-0.1-0.1-0.1c0-0.2,0-0.4,0-0.7c0-0.1-0.1-0.1-0.2-0.1c-0.1,0-0.3,0-0.4,0
			c-0.2,0-0.2,0-0.2,0.2c0,0.1,0.1,0.2,0.1,0.3C2,21.1,2,21,1.8,20.9c0,0.1,0,0.3,0,0.4c0,0.1,0,0.2,0.1,0.2c0.1,0,0.2,0.1,0.3,0.2
			c0.2,0.1,0.3,0.3,0.5,0.4c0.1,0,0.1,0.1,0.1,0.2c0,0.1,0,0.2,0,0.3c0,0.2,0,0.3,0.3,0.3c0.3,0,0.6,0.1,0.9,0.3
			c0.2,0.1,0.4,0,0.5-0.1c0.1-0.1,0.1-0.1,0.2-0.2C5,22.5,5.3,22.3,5.5,22c0.1-0.1,0.2-0.3,0.2-0.4c0.1-0.5,0.1-0.9-0.1-1.4
			c-0.2-0.5-0.4-0.9-0.8-1.3c0-0.1-0.1-0.1-0.1-0.2c0.4,0.4,0.7,0.8,1,1.3c0.1,0.2,0.2,0.5,0.2,0.8c0,0.2,0.1,0.5,0,0.7
			c-0.1,0.4-0.4,0.7-0.6,1c-0.2,0.3-0.4,0.6-0.7,0.8c0.1,0.1,0.1,0.1,0.2,0.1c0.2,0.1,0.5,0.1,0.7,0.1c0.1,0,0.3,0,0.4,0
			c0.1,0,0.1,0,0.2-0.1c0.2-0.2,0.3-0.4,0.5-0.6c0.3-0.3,0.5-0.7,0.6-1.2c0-0.5,0.1-1,0.1-1.5c0-0.4,0-0.9-0.2-1.3
			c-0.1-0.2-0.2-0.4-0.3-0.7c-0.1-0.4-0.4-0.7-0.7-1C6,17,5.9,17,5.8,16.8C6,16.9,6.1,17,6.2,17.1c0.4,0.3,0.6,0.6,0.8,1
			c0,0.1,0.1,0.3,0.2,0.4c0.2,0.5,0.3,1.1,0.3,1.7c0,0.5-0.1,0.9-0.1,1.4c0,0.5-0.2,1-0.6,1.3c-0.2,0.1-0.3,0.3-0.5,0.5
			c0.2,0,0.5,0,0.6-0.1c0.4-0.1,0.7,0,1,0.2c0.1,0.1,0.2,0.1,0.3,0.1c0.2-0.1,0.4-0.1,0.6-0.2c0,0,0.1-0.1,0.2-0.1
			c0.4-0.2,0.7-0.5,0.9-0.9c0.3-0.5,0.5-1.1,0.7-1.7c0.1-0.4,0.2-0.7,0.2-1.1c0-0.2,0-0.3,0-0.5c0.1,0.4,0.2,0.8,0.1,1.2
			c-0.1,0.5-0.2,0.9-0.4,1.4c-0.2,0.5-0.5,1-0.9,1.4c-0.2,0.1-0.3,0.3-0.5,0.5c0.1,0,0.1,0,0.2,0c0.4-0.1,0.9-0.3,1.3-0.4
			c0.1,0,0.2-0.1,0.2-0.1c0.1-0.2,0.3-0.2,0.5-0.2c0.1,0,0.1,0,0.2,0c0.6-0.2,1.1-0.3,1.7-0.4c0.2,0,0.4-0.1,0.5-0.2
			c0.2-0.2,0.4-0.4,0.6-0.6c0.3-0.3,0.5-0.8,0.6-1.2c0.1-0.3,0.1-0.3,0.2-0.4c0,0.4-0.2,0.9-0.3,1.1c-0.1,0.2-0.2,0.5-0.4,0.6
			c-0.2,0.1-0.3,0.3-0.5,0.4c0,0-0.1,0.1-0.1,0.1c0,0,0.1,0,0.1,0c0.9-0.2,1.7-0.4,2.6-0.8c0.2-0.1,0.4-0.1,0.6-0.3
			c0.2-0.3,0.5-0.5,0.6-0.8c0.1-0.1,0.1-0.2,0.2-0.2c0.1,0,0.1-0.1,0.1-0.2c-0.1-0.1,0-0.2,0.1-0.2c0,0,0-0.1,0.1-0.1
			c0.1-0.4,0.2-0.8,0.2-1.2c0-0.3,0-0.6,0-1c0-0.7-0.3-1.3-0.7-1.8c-0.2-0.2-0.3-0.3-0.5-0.5c-0.1-0.1-0.2-0.2-0.3-0.2
			c-0.3-0.1-0.5-0.3-0.7-0.5c-0.1-0.1,0-0.1,0-0.2c0-0.1,0.1,0,0.1,0c0.1,0,0.1,0.1,0.1,0.1c0.1,0.1,0.2,0.2,0.4,0.3
			c0.2,0.1,0.3,0.2,0.4,0.3c0.1,0.1,0.3,0.3,0.4,0.4c0.2,0.2,0.4,0.4,0.5,0.7c0.2,0.3,0.3,0.6,0.3,1c0,0.1,0,0.2,0,0.3
			c0,0.5,0,0.9,0,1.4c0,0.2-0.1,0.4-0.1,0.6c0.3-0.3,0.4-0.7,0.4-1.1c0-0.4,0-0.7,0-1.1c0-0.1,0-0.1,0.1-0.2c0,0.3,0.1,0.6,0.1,0.9
			c0,0.5,0,1-0.3,1.5c-0.2,0.2-0.3,0.5-0.4,0.8c0.2-0.1,0.3-0.2,0.5-0.4c0.1-0.1,0.2-0.2,0.3-0.4c0.1-0.2,0.2-0.4,0.4-0.5
			c0.3-0.3,0.3-0.7,0.3-1c-0.1-0.5-0.1-0.9-0.2-1.4c0,0,0-0.1,0-0.2c0.2,0.3,0.2,0.7,0.3,1.1c0.1,0.3,0.1,0.7,0.1,1.1
			c0.5-0.3,0.6-0.7,0.8-1.1c0,0,0-0.1,0-0.1c0-0.2-0.1-0.4-0.2-0.5c-0.1-0.2-0.2-0.3-0.2-0.5c-0.1-0.4-0.2-0.7-0.4-1
			c-0.1-0.2-0.3-0.3-0.5-0.4c0,0-0.1,0-0.1-0.1c0.6,0.2,0.9,0.6,1.1,1.2c0,0.2,0.1,0.3,0.1,0.5c0,0.1,0.1,0.3,0.2,0.4
			c0.1-0.4,0-0.6-0.3-2c0.2,0.1,0.2,0.3,0.3,0.4c0,0.2,0.1,0.5,0.2,0.7c0,0.1,0.1,0.2,0.1,0.4c0,0.5,0,1.1-0.2,1.6
			c0.1,0,0.1,0,0.2-0.1c0.3-0.1,0.5-0.3,0.7-0.5c0.3-0.3,0.6-0.5,0.8-0.9c0.1-0.1,0.1-0.2,0.1-0.3c0-0.2,0.2-0.1,0.2-0.2
			c0-0.2,0.2-0.4,0.3-0.6c0.1-0.2,0.1-0.5,0.3-0.6c0.1-0.1,0.1-0.2,0-0.2c-0.1,0-0.2-0.1-0.2-0.2c0.1-0.1,0.2,0,0.3,0
			c0.2,0.1,0.2,0.1,0.4-0.1c0.2-0.2,0.4-0.4,0.6-0.7c0.4-0.4,0.6-0.9,0.4-1.4c0-0.1,0-0.1-0.1-0.2c-0.2-0.5-0.3-0.9-0.8-1.2
			c0.2,0,0.3,0,0.5,0.2c0.2,0.3,0.4,0.6,0.5,0.9c0,0.2,0.1,0.3,0.1,0.5c0.3-0.2,0.3-0.4,0.3-0.8c0-0.4-0.2-0.8-0.7-0.9
			c0.3-0.1,0.5,0,0.7,0.3c0.1,0.2,0.2,0.5,0.2,0.8c0.3-0.4,0.4-0.6,0.2-1c0,0,0-0.1-0.1-0.1C25.1,10,25,9.8,24.6,9.8
			c0.4-0.1,0.6,0,0.7,0.4c0.1,0.2,0.1,0.4,0.3,0.6c0.1-0.3,0.2-0.6,0-0.9c-0.1-0.2-0.2-0.4-0.2-0.6c0.2,0.2,0.3,0.5,0.5,0.7
			C26,9.8,26,9.7,26,9.5c0-0.1,0-0.3,0-0.4c0-0.1,0-0.2,0.2-0.3c0.1-0.1,0.1-0.1,0.1-0.2c-0.1-0.1-0.2-0.1-0.2-0.1
			c-0.4,0.3-0.9,0.3-1.3,0.5c0,0-0.1,0-0.1,0c-0.1,0-0.2,0.1-0.2,0.2c0,0.2-0.1,0.3-0.3,0.3c-0.1-0.1,0.1-0.1,0-0.2c0,0-0.1,0-0.1,0
			c-0.5,0.1-0.9,0.3-1.3,0.5c-0.2,0.1-0.4,0.2-0.6,0.3c-0.6,0.2-1.2,0.5-1.7,0.9c-0.1,0-0.2,0.1-0.2,0.2c0.2,0,0.4,0,0.5,0
			c0.4,0.1,0.8,0.1,1.2,0.2c0.2,0,0.4,0.1,0.5,0.2c0.2,0.2,0.4,0.5,0.7,0.7c0.2,0.2,0.2,0.4,0.3,0.6c0,0,0,0.1,0,0.1
			c-0.1,0-0.1,0-0.1-0.1c-0.1-0.1-0.1-0.3-0.2-0.4c-0.3-0.3-0.5-0.6-0.8-0.8c-0.1-0.1-0.1-0.1-0.2,0c0,0.1-0.1,0.1-0.1,0
			c0-0.1,0-0.1-0.1-0.1c-0.1,0-0.2,0-0.3,0c-0.1,0-0.2,0-0.3,0.1c0,0-0.1,0.1-0.1,0c0,0,0-0.1,0-0.1c0-0.1,0-0.1-0.1-0.1
			c-0.1,0-0.2-0.1-0.2,0c-0.1,0.1-0.1,0.1-0.2,0c0-0.1-0.1-0.1-0.1-0.1c-0.2,0-0.5,0-0.7,0C19.8,11.4,19.7,11.5,19.6,11.6z
			 M2.4,19.4c-0.2,0.2-0.3,0.3-0.5,0.3c-0.2,0.1-0.2,0.1-0.1,0.3c0,0.1,0.1,0.1,0.2,0.1c0.1,0,0.2,0.1,0.3,0.2
			c-0.1,0.1-0.2-0.1-0.4,0c0,0.2,0,0.2,0.2,0.3c0.2,0,0.3,0,0.4,0c0.1,0,0.1-0.1,0.1-0.2C2.7,20,2.5,19.7,2.4,19.4z M2.7,22.6
			c0-0.3-0.1-0.6-0.4-0.7c-0.1,0-0.1-0.1-0.2-0.2c-0.1-0.1-0.2-0.1-0.2-0.1c-0.1,0-0.1-0.1-0.2,0c0,0.1-0.1,0.2-0.1,0.3
			C1.7,22,1.8,22.2,2,22.3c0.2,0.1,0.3,0.2,0.5,0.3C2.6,22.6,2.6,22.7,2.7,22.6z M1.1,19.4c0.1,0,0.1,0,0.1,0.1
			c0.2,0.2,0.5,0.1,0.7,0c0.1-0.1,0.2-0.1,0.3-0.2c0,0,0-0.1,0-0.1C2.2,19.1,2.1,19,1.9,19C1.6,19,1.3,19,1.1,19.4z M15.9,16.2
			c0-0.3-0.1-0.5-0.2-0.6c-0.2-0.3-0.5-0.6-0.7-0.9C15.1,15.2,15.5,16,15.9,16.2z M3.5,17c0.5,0.1,0.9,0.4,1.3,0.7
			c-0.2-0.4-0.6-0.7-0.9-0.9c-0.1,0-0.1,0-0.2,0C3.6,16.8,3.6,16.9,3.5,17z M1.4,21.1c0,0.1,0,0.1,0,0.2c0,0.1,0.1,0.1,0.1,0.1
			c0.1,0,0.1,0,0.1-0.1c0-0.2,0-0.3,0-0.4c0,0,0-0.1-0.1-0.1c0,0-0.1,0-0.1,0.1C1.4,20.9,1.4,21,1.4,21.1z M1.2,20.4
			c0.1-0.1,0.2-0.2,0.3-0.3c0.1,0,0.1-0.1,0-0.1c0,0,0-0.1-0.1-0.1c-0.1,0-0.1,0-0.1,0.1c0,0,0,0.1,0,0.1
			C1.2,20.2,1.2,20.3,1.2,20.4z M1.3,20.6c0.1,0,0.2,0,0.3,0c0.1,0,0.1,0,0.1-0.1c0-0.1,0-0.1,0-0.1c0,0-0.1,0-0.1,0
			C1.5,20.4,1.4,20.5,1.3,20.6z M1.3,19.8c0-0.1-0.1-0.1-0.2-0.1c-0.1,0-0.1,0-0.1,0.1c0,0.1,0.1,0.2,0.2,0.1
			C1.2,19.9,1.3,19.9,1.3,19.8z M2.1,18.8c-0.1-0.1-0.2-0.1-0.3-0.1c0,0-0.1,0.1-0.1,0.1c0,0,0.1,0.1,0.1,0.1
			C1.9,18.8,1.9,18.8,2.1,18.8z M1.1,21.5c0-0.1,0-0.1-0.1-0.1C1,21.4,1.1,21.4,1.1,21.5z M0.2,19.1c0-0.1,0-0.2-0.1-0.3
			c0-0.1-0.1-0.1-0.1-0.1c-0.1,0-0.1,0.1,0,0.1c0,0.2,0.1,0.4,0.1,0.6c0,0.2,0.2,0.3,0.3,0.4c0,0,0.1,0,0.1,0c0,0,0-0.1,0-0.1
			C0.3,19.6,0.3,19.4,0.2,19.1C0.2,19.2,0.2,19.1,0.2,19.1C0.2,19.1,0.2,19.1,0.2,19.1z M21.8,9C21.9,9,22,9,22.1,9
			C22,9,21.9,8.9,21.8,9z M15.6,21c0.1-0.2,0.1-0.4,0.2-0.5c0.1-0.1,0.1-0.3,0-0.5c-0.1-0.3,0-0.6,0-0.9c0.1-0.4,0.2-0.9,0.2-1.3
			c0,0,0-0.1,0-0.1c0-0.1,0-0.1,0.1-0.1c0.1,0,0.1,0,0.1,0.1c0.1,0.2,0.2,0.3,0.2,0.5c0.1,0.5,0,1-0.1,1.5c-0.1,0.3-0.3,0.5-0.4,0.8
			c-0.1,0.1-0.2,0.2-0.2,0.4c0,0.1-0.1,0.1,0,0.2c0.1,0,0,0.1,0,0.1C15.7,21,15.6,21,15.6,21z M16.2,17.9c-0.1,0.2-0.1,0.4-0.2,0.6
			c0,0.3-0.1,0.6-0.2,0.9c-0.1,0.3,0,0.6,0,0.9C16.5,19.6,16.5,18.3,16.2,17.9z M15.2,18.1c-0.1-0.4-0.3-0.8-0.5-1.1
			c-0.4-0.4-0.6-0.9-1-1.3c-0.3-0.3-0.5-0.5-0.9-0.8c-0.3-0.2-0.6-0.3-0.8-0.6c-0.2-0.2-0.4-0.3-0.7-0.3c0.2,0.2,0.4,0.2,0.6,0.4
			c0.1,0.1,0.3,0.2,0.4,0.3c0.3,0.2,0.7,0.4,0.9,0.7c0.4,0.4,0.7,0.7,1,1.2c0.1,0.2,0.2,0.3,0.4,0.5c0.3,0.3,0.5,0.7,0.5,1.1
			c0,0.1,0,0.2-0.1,0.3c0,0-0.1,0.1-0.1,0.1C15.3,18.5,15.3,18.4,15.2,18.1z M20.9,16c0.2-0.2,0.2-0.5,0.2-0.8c0-0.2,0-0.4,0-0.6
			c-0.1-0.3-0.1-0.7-0.2-1c-0.1-0.3-0.3-0.6-0.5-0.8c0,0-0.1-0.1-0.1,0c0,0,0,0,0,0c0,0,0,0.1,0.1,0.1c0.3,0.3,0.4,0.7,0.5,1.1
			c0.1,0.4,0.2,0.8,0.1,1.1c0,0.1,0,0.1,0,0.2c0,0.2,0,0.3-0.1,0.4c-0.1,0.1-0.2,0.3-0.1,0.5C20.9,16.2,20.9,16.1,20.9,16z
			 M11.8,16.6c0.2,0.6,0.4,1.1,0.8,1.6c0.1,0.1,0.2,0.2,0.2,0.4c0.1,0.2,0.1,0.5,0.2,0.7c0,0.1,0,0.2,0,0.3c0,0.2-0.1,0.3-0.2,0.4
			c-0.1,0.1-0.1,0.2,0,0.4c0.1-0.3,0.3-0.5,0.4-0.7c0-0.1,0.1-0.2,0-0.4c-0.1-0.3-0.2-0.5-0.2-0.8c0-0.1-0.1-0.3-0.2-0.4
			c-0.3-0.3-0.5-0.7-0.6-1.1C12.1,16.8,12,16.6,11.8,16.6C11.8,16.5,11.8,16.5,11.8,16.6z M11.1,19.8c0.1,0.3,0.1,0.6,0,0.9
			c-0.1,0.4-0.2,0.7-0.3,1.1c-0.1,0.3-0.3,0.5-0.5,0.7c-0.1,0.1-0.2,0.1-0.1,0.2c0.1,0.1,0.2,0,0.3-0.1c0,0,0.1,0,0.1-0.1
			c0.1-0.2,0.3-0.4,0.4-0.6c0.2-0.5,0.3-1,0.4-1.6c0-0.1,0-0.2,0-0.3c-0.1-0.2-0.2-0.4-0.3-0.7C11.1,19.6,11.1,19.7,11.1,19.8z
			 M9.7,17.5c0.3,0.5,0.3,1,0.3,1.5c0,0.5-0.2,1-0.3,1.5C10.3,19.9,10.4,18.2,9.7,17.5z M13,17.7c-0.2-0.4-0.4-0.6-0.6-0.7
			c0.4,0.5,0.6,1,0.8,1.6C13.3,18.2,13.1,18,13,17.7z M18.3,15.6c-0.2-0.2-0.5-0.3-0.7-0.5c-0.1-0.1-0.1-0.1-0.3-0.1
			c0.4,0.4,0.9,0.6,1.3,1C18.5,15.8,18.4,15.7,18.3,15.6z M20.8,11.8c0,0.1,0,0.2,0,0.2c0,0,0,0,0,0c0,0,0,0,0.1,0
			c0-0.1,0-0.2,0.1-0.2c0.1,0,0.1,0,0.1-0.1c0-0.1-0.1,0-0.1,0C20.9,11.7,20.8,11.7,20.8,11.8z M15.5,21.3c0,0.2-0.1,0.3-0.3,0.5
			C15.5,21.8,15.6,21.6,15.5,21.3z M19.6,11.6C19.6,11.6,19.6,11.6,19.6,11.6c0,0.1,0.1,0.2,0.1,0.1c0.1,0,0.1-0.1,0-0.2
			C19.8,11.5,19.7,11.6,19.6,11.6C19.7,11.6,19.6,11.6,19.6,11.6C19.6,11.6,19.6,11.6,19.6,11.6z M19.9,12.5
			C19.9,12.5,19.9,12.6,19.9,12.5c0.1,0.1,0.2,0,0.2,0C20,12.4,20,12.4,19.9,12.5C19.9,12.4,19.9,12.4,19.9,12.5z M20.5,11.7
			c0.1,0,0.1-0.1,0.1-0.1c0,0,0-0.1-0.1-0.1C20.4,11.5,20.4,11.5,20.5,11.7C20.4,11.6,20.4,11.7,20.5,11.7z M16.7,20.3
			C16.7,20.3,16.6,20.3,16.7,20.3c0,0.1,0,0.1,0.1,0.1c0,0,0,0,0,0C16.8,20.3,16.8,20.3,16.7,20.3z M17.2,20.4
			C17.2,20.5,17.2,20.5,17.2,20.4c0.1,0,0.2,0,0.2,0C17.3,20.4,17.3,20.3,17.2,20.4C17.2,20.4,17.2,20.4,17.2,20.4z M16.5,20.6
			C16.5,20.6,16.5,20.6,16.5,20.6c0.1,0.1,0.1,0,0.1,0C16.6,20.5,16.6,20.5,16.5,20.6C16.5,20.5,16.5,20.5,16.5,20.6z M16.3,21.4
			C16.4,21.4,16.4,21.4,16.3,21.4c0.1,0,0.2,0,0.2,0c0,0,0-0.1-0.1-0.1C16.4,21.3,16.3,21.3,16.3,21.4z M17.7,18.8
			C17.7,18.8,17.7,18.8,17.7,18.8c0-0.1,0-0.1-0.1-0.1C17.6,18.7,17.5,18.7,17.7,18.8C17.6,18.8,17.6,18.8,17.7,18.8z M22.3,12.1
			C22.3,12.1,22.3,12.2,22.3,12.1c0.1,0,0.1,0,0.2,0C22.4,12,22.4,12,22.3,12.1C22.3,12,22.3,12,22.3,12.1z M17.3,18.9
			C17.3,18.9,17.4,19,17.3,18.9c0.1,0.1,0.1,0.1,0.1,0C17.5,18.9,17.4,18.9,17.3,18.9C17.4,18.8,17.3,18.9,17.3,18.9z M17.5,19.7
			C17.5,19.7,17.5,19.7,17.5,19.7c0-0.1,0-0.1,0-0.1C17.4,19.6,17.4,19.6,17.5,19.7C17.4,19.7,17.4,19.7,17.5,19.7z M17.4,20.1
			C17.4,20.1,17.4,20.1,17.4,20.1c0.1,0.1,0.1,0,0.1,0C17.6,20,17.5,20,17.4,20.1C17.4,20,17.4,20,17.4,20.1z M21.7,11.8
			c0.1,0,0.1,0,0.1-0.1c0,0,0,0,0,0C21.7,11.7,21.7,11.7,21.7,11.8C21.7,11.8,21.7,11.8,21.7,11.8z M16.6,21.1
			C16.7,21.1,16.7,21.1,16.6,21.1c0-0.1,0-0.1,0-0.1C16.6,21,16.5,21,16.6,21.1C16.6,21.1,16.6,21.1,16.6,21.1z M16.1,20.7
			C16.1,20.8,16.1,20.8,16.1,20.7c0.1,0.1,0.1,0,0.1,0C16.2,20.7,16.1,20.7,16.1,20.7C16.1,20.7,16,20.7,16.1,20.7z M17.4,18.5
			C17.4,18.5,17.4,18.5,17.4,18.5c0.1,0.1,0.1,0,0.1,0C17.5,18.4,17.5,18.4,17.4,18.5C17.4,18.4,17.4,18.4,17.4,18.5z M17.5,19.2
			C17.6,19.2,17.6,19.2,17.5,19.2c0.1,0,0.1,0,0.1,0C17.7,19.1,17.6,19.1,17.5,19.2C17.6,19.1,17.5,19.1,17.5,19.2z M19.2,11.9
			C19.2,11.9,19.3,12,19.2,11.9c0.1,0,0.1,0,0.1,0C19.4,11.9,19.4,11.8,19.2,11.9C19.3,11.8,19.2,11.9,19.2,11.9z M19.7,12.7
			c0.1,0,0.1,0,0.1-0.1c0,0,0,0-0.1,0C19.7,12.6,19.6,12.6,19.7,12.7C19.7,12.7,19.7,12.7,19.7,12.7z M19.9,12
			C19.9,12,19.9,12,19.9,12c0.1,0,0.1,0,0.1-0.1c0,0,0,0-0.1,0C19.9,11.9,19.8,11.9,19.9,12z M20.1,11.6
			C20.1,11.6,20.1,11.7,20.1,11.6c0.1,0.1,0.1,0,0.1,0C20.2,11.6,20.2,11.5,20.1,11.6C20.1,11.5,20.1,11.6,20.1,11.6z M20.6,11.9
			c0.1,0,0.1-0.1,0.1-0.1c0,0,0,0,0,0C20.5,11.7,20.5,11.8,20.6,11.9C20.5,11.9,20.5,11.9,20.6,11.9z M17.1,19.6
			C17.1,19.6,17.1,19.6,17.1,19.6c0-0.1,0-0.1,0-0.1C17,19.5,17,19.5,17.1,19.6C17,19.6,17,19.6,17.1,19.6z M17.1,19.9
			C17.1,19.9,17,20,17.1,19.9c-0.1,0.1,0,0.1,0,0.1C17.1,20.1,17.2,20,17.1,19.9C17.1,20,17.1,19.9,17.1,19.9z M18.6,12.2
			C18.6,12.3,18.6,12.3,18.6,12.2c0.1,0,0.1,0,0.1,0C18.7,12.2,18.7,12.2,18.6,12.2C18.6,12.2,18.6,12.2,18.6,12.2z M18.1,12.6
			C18.1,12.6,18.1,12.7,18.1,12.6c-0.1,0.1-0.1,0.1,0,0.1C18.2,12.8,18.2,12.7,18.1,12.6C18.2,12.7,18.2,12.6,18.1,12.6z M19.5,12.1
			C19.6,12.1,19.6,12,19.5,12.1c0.1-0.1,0.1-0.1,0-0.1C19.5,12,19.5,12,19.5,12.1C19.5,12.1,19.5,12.1,19.5,12.1z M19.8,12.2
			C19.8,12.2,19.8,12.2,19.8,12.2c0.1-0.1,0.1-0.1,0-0.1C19.7,12.1,19.7,12.1,19.8,12.2C19.7,12.2,19.7,12.2,19.8,12.2z M20.2,12
			C20.2,12.1,20.2,12.1,20.2,12c0.1,0,0.1,0,0.1-0.1c0,0,0,0,0,0C20.2,12,20.2,12,20.2,12z M22.7,14.7
			C22.7,14.8,22.7,14.8,22.7,14.7c0.1,0,0.1,0,0.1,0C22.8,14.6,22.8,14.6,22.7,14.7C22.7,14.6,22.7,14.7,22.7,14.7z M17.8,19.1
			C17.8,19.1,17.8,19.1,17.8,19.1c0.1,0,0.1,0,0.1,0C17.9,19,17.9,19,17.8,19.1C17.8,19,17.8,19.1,17.8,19.1z M16.9,20.9
			C16.9,20.9,16.9,20.9,16.9,20.9c0.1-0.1,0-0.1,0-0.1C16.8,20.8,16.8,20.8,16.9,20.9C16.8,20.9,16.8,20.9,16.9,20.9z M21.1,12.6
			C21.1,12.6,21.1,12.6,21.1,12.6c0.1,0,0.1,0,0.1,0C21.2,12.5,21.1,12.5,21.1,12.6C21.1,12.5,21.1,12.5,21.1,12.6z M17.9,12.4
			C17.9,12.4,17.9,12.4,17.9,12.4c-0.1,0.1-0.1,0.1,0,0.1C17.9,12.5,18,12.5,17.9,12.4C18,12.4,18,12.4,17.9,12.4z M21.2,12.1
			C21.2,12.1,21.3,12.1,21.2,12.1c0.1,0,0.1,0,0.1-0.1C21.4,12,21.3,12,21.2,12.1C21.3,12,21.2,12,21.2,12.1z M20.9,12.3
			C20.9,12.4,20.9,12.4,20.9,12.3c0.1,0.1,0.1,0,0.1,0C21,12.3,21,12.3,20.9,12.3C20.9,12.3,20.9,12.3,20.9,12.3z M21.7,12.2
			C21.7,12.2,21.6,12.2,21.7,12.2c-0.1,0.1-0.1,0.1,0,0.1C21.7,12.3,21.7,12.3,21.7,12.2C21.7,12.2,21.7,12.2,21.7,12.2z M22.4,15.3
			C22.5,15.3,22.5,15.3,22.4,15.3c0-0.1,0-0.1,0-0.1C22.4,15.2,22.4,15.3,22.4,15.3C22.4,15.3,22.4,15.3,22.4,15.3z M22,12.2
			C22.1,12.2,22.1,12.2,22,12.2c0.1-0.1,0.1-0.1,0-0.1C22,12.1,22,12.1,22,12.2C22,12.2,22,12.2,22,12.2z M22.7,14.4
			C22.7,14.4,22.7,14.4,22.7,14.4C22.7,14.5,22.7,14.5,22.7,14.4C22.7,14.5,22.8,14.5,22.7,14.4C22.8,14.5,22.8,14.4,22.7,14.4z
			 M19.2,12.4C19.3,12.4,19.3,12.3,19.2,12.4c0.1-0.1,0-0.1,0-0.1C19.2,12.3,19.2,12.3,19.2,12.4C19.2,12.4,19.2,12.4,19.2,12.4z
			 M20.2,11.8C20.2,11.8,20.3,11.9,20.2,11.8C20.3,11.8,20.3,11.8,20.2,11.8c0.1-0.1,0.1-0.1,0.1-0.1C20.2,11.8,20.2,11.8,20.2,11.8
			z M20.4,12.3C20.5,12.3,20.5,12.3,20.4,12.3c0.1-0.1,0.1-0.1,0-0.1C20.4,12.2,20.4,12.2,20.4,12.3C20.4,12.3,20.4,12.3,20.4,12.3z
			 M17.7,19.3C17.7,19.3,17.7,19.3,17.7,19.3c-0.1,0.1,0,0.1,0,0.1C17.8,19.4,17.8,19.4,17.7,19.3C17.8,19.3,17.8,19.3,17.7,19.3z
			 M16.5,19.9C16.5,19.9,16.6,19.9,16.5,19.9c0.1,0,0.1,0,0.1,0C16.6,19.8,16.6,19.8,16.5,19.9C16.5,19.8,16.5,19.8,16.5,19.9z
			 M20.3,12.7C20.3,12.7,20.3,12.7,20.3,12.7C20.3,12.7,20.4,12.7,20.3,12.7C20.3,12.6,20.3,12.6,20.3,12.7
			C20.3,12.6,20.2,12.7,20.3,12.7z M22.1,15.5C22.1,15.5,22.1,15.6,22.1,15.5c0.1,0.1,0.1,0.1,0.1,0C22.2,15.5,22.2,15.5,22.1,15.5
			C22.1,15.5,22.1,15.5,22.1,15.5z M17.9,18.7C17.9,18.7,17.9,18.7,17.9,18.7c0.1,0,0.1,0,0.1,0C18,18.7,18,18.6,17.9,18.7
			C17.9,18.6,17.9,18.7,17.9,18.7z M15.8,21.5C15.8,21.5,15.8,21.5,15.8,21.5c0.1,0,0.1,0,0.1,0C15.9,21.4,15.9,21.4,15.8,21.5
			C15.8,21.4,15.8,21.4,15.8,21.5z M17.9,18.3C18,18.3,18,18.3,17.9,18.3c0-0.1,0-0.1,0-0.1C17.9,18.2,17.9,18.2,17.9,18.3
			C17.9,18.3,17.9,18.3,17.9,18.3z M18,17.6C18,17.7,18,17.7,18,17.6C18.1,17.7,18.1,17.7,18,17.6C18.1,17.6,18.1,17.6,18,17.6
			C18,17.6,18,17.6,18,17.6z M21.5,12C21.5,12,21.5,12,21.5,12c0.1,0,0.1,0,0.1-0.1C21.6,11.9,21.6,11.9,21.5,12
			C21.5,11.9,21.5,12,21.5,12z"/>
	</g>
</g>
</svg>
