<?xml version="1.0" encoding="utf-8"?>
<!-- Generator: Adobe Illustrator 22.0.1, SVG Export Plug-In . SVG Version: 6.00 Build 0)  -->
<svg version="1.1" id="Layer_1" xmlns="http://www.w3.org/2000/svg" xmlns:xlink="http://www.w3.org/1999/xlink" x="0px" y="0px"
	 viewBox="0 0 30 22.1" style="enable-background:new 0 0 30 22.1;" xml:space="preserve">
<style type="text/css">
	.st0{fill:#821A5F;}
</style>
<g>
	<path class="st0" d="M7.8,6.4C7.9,6.4,7.9,6.4,7.8,6.4C8.3,6.6,8.7,6.7,9.1,7c0.3,0.2,0.5,0.4,0.6,0.7C9.8,7.8,9.9,7.8,10,7.8
		c0.2,0,0.3,0,0.4,0.1C10.6,7.9,10.9,8,11.2,8c0.1,0,0.1,0,0.2,0c0.2,0,0.4,0,0.6-0.1c0,0,0.1,0,0.1,0c0.4,0,0.6-0.2,1-0.3
		c0.2,0,0.4-0.1,0.7-0.1c0.2,0,0.3,0,0.5-0.2c0.2,0,0.3-0.2,0.4-0.3c0.1-0.1,0.2-0.3,0.3-0.4c0,0,0,0,0,0c0.4-0.3,0.9-0.5,1.4-0.5
		c0.3,0,0.6,0,0.9,0c0.3,0,0.7,0,1,0.1c0.1,0,0.2,0.1,0.3,0.1c0.1,0,0.3,0,0.4,0.1c0.3,0.1,0.6,0.3,1,0.3c0.1,0,0.1,0,0.2,0
		c0.4-0.1,0.9,0,1.3,0.1c0.1,0,0.2,0.1,0.4,0.1c0.1,0,0.2,0,0.2,0c0.4,0.1,0.7,0.1,1.1,0.1c0.4,0,0.7,0.1,1.1,0.3
		c0.4,0.2,0.8,0.3,1.1,0.3c0.5,0.1,0.9,0.3,1.3,0.6c0.3,0.2,0.6,0.4,0.9,0.5c0,0,0.1,0.1,0.2,0c-0.3-0.5-0.6-0.9-1-1.4
		c0.1,0,0.1,0.1,0.2,0.1c0.3,0.3,0.5,0.6,0.7,0.9c0.2,0.3,0.4,0.5,0.8,0.6c0.1,0,0.2,0.1,0.3,0.1c0-0.1,0-0.1-0.1-0.1
		c-0.2-0.4-0.4-0.7-0.5-1.1c-0.1-0.2,0-0.4,0-0.7c0.1,0.1,0.1,0.2,0,0.3c0,0.3,0.1,0.5,0.1,0.8c0.1,0.4,0.4,0.7,0.6,1.1
		c0,0.1,0.1,0.1,0.2,0.2c0.3,0.3,0.5,0.7,0.5,1.1c0,0.2,0.1,0.4,0.2,0.6c0.1,0.2,0.1,0.4,0,0.7c-0.1,0.1,0,0.3,0,0.4
		c0.1,0.2,0.1,0.3,0.2,0.5c-0.1,0-0.1-0.1-0.2-0.2c-0.1-0.2-0.2-0.3-0.2-0.5c0-0.1-0.1-0.1-0.1-0.1c-0.1,0-0.2,0.1-0.3,0.2
		c0,0.1-0.1,0.2-0.1,0.3c-0.1,0.1-0.1,0.3-0.3,0.3c-0.1,0-0.1,0.1-0.1,0.1c0,0.1-0.1,0.2-0.2,0.2c-0.3,0.1-0.6,0.2-0.8,0.5
		c-0.1,0.1-0.3,0.2-0.4,0.3c-0.2,0.2-0.4,0.3-0.7,0.4c-0.1,0-0.2,0.1-0.3,0.2c-0.1,0.1-0.2,0.1-0.3,0.1c-0.1,0-0.2,0-0.2,0.1
		c-0.2,0.2-0.4,0.4-0.7,0.5c-0.2,0.2-0.5,0.3-0.8,0.4c-0.2,0-0.3,0.2-0.5,0.2c-0.3,0.1-0.5,0.2-0.8,0.3c-0.1,0-0.3,0-0.4,0
		c-0.2,0-0.5,0.1-0.7,0c-0.3,0-0.6-0.1-0.9-0.3c-0.1-0.1-0.2-0.1-0.3-0.1c-0.2,0-0.3,0-0.5-0.1c-0.3-0.2-0.6-0.1-0.9,0
		c-0.5,0.2-1,0.3-1.5,0.2c-0.1,0-0.2-0.1-0.3-0.2c0.5,0.1,1,0,1.5-0.1c-0.4,0-0.7,0-1.1-0.1c-0.6-0.1-1.3-0.2-1.9-0.4
		c0,0-0.1,0-0.1,0c-0.5,0-0.9-0.1-1.3-0.1c-0.2,0-0.4,0-0.5,0.1c-0.1,0-0.2,0-0.3,0c-0.2-0.1-0.5,0-0.7,0.1
		c-0.2,0.1-0.5,0.1-0.7,0.1c-0.5-0.1-1-0.2-1.5-0.4c-0.5-0.2-0.9-0.4-1.2-0.9c-0.1-0.2-0.2-0.2-0.4-0.1c-0.3,0.1-0.6,0-0.9,0
		c-0.3,0-0.6,0-0.9,0.1c-0.4,0.1-0.7,0-1-0.4c0.1,0.1,0.2,0.1,0.3,0.2c0.2,0.1,0.3,0.1,0.5,0.1c0.5-0.1,1-0.1,1.5-0.1
		c0.1,0,0.2,0,0.3-0.1c0-0.1-0.1-0.1-0.2-0.1c-0.3-0.1-0.7-0.3-1-0.4c-0.4-0.2-0.8-0.4-1.1-0.6c-0.2-0.2-0.5-0.3-0.7-0.4
		c-0.2-0.1-0.3-0.2-0.4-0.4c-0.2-0.3-0.5-0.5-0.8-0.6c-0.4-0.1-0.7-0.3-1-0.6c-0.5-0.4-1-0.6-1.6-0.7c-0.4-0.1-0.7,0-1.1,0
		c-0.4,0-0.8,0-1.1-0.2c0.3,0,0.5,0.1,0.8,0.1c0.3,0,0.5,0,0.8-0.1C1.5,9.4,1.2,9.4,1.1,9.2C0.9,9.1,0.7,9,0.6,8.8
		C0.8,8.9,0.9,9,1.1,9.1c0.4,0.2,0.8,0.3,1.2,0.5C2.6,9.7,3,9.8,3.4,9.8c0.2,0,0.3,0,0.5,0c0.3-0.1,0.7-0.1,1-0.1
		c0.6-0.1,1.3-0.2,1.9-0.4C7,9.1,7.3,9,7.5,8.9c0.4-0.3,0.9-0.3,1.4-0.4c0.2,0,0.4-0.1,0.6-0.3C9.5,8.1,9.6,8,9.6,7.9
		c0.1-0.1,0.1-0.1,0-0.3C9.4,7.3,9.2,7.1,8.8,6.9C8.5,6.8,8.3,6.7,8,6.6C8,6.5,7.9,6.5,7.8,6.4L7.8,6.4z M9.2,8.6L9.2,8.6
		C8.9,8.7,8.8,8.8,8.6,9C8.4,9.3,8.3,9.6,8,9.9c-0.2,0.3-0.2,0.6-0.1,1C8,11,8,11.1,8.1,11.2c0-0.2,0.1-0.3,0.1-0.5
		c0-0.2,0-0.4,0.1-0.5c0.1,0,0.1,0,0.1,0.1c0,0.2,0,0.5-0.1,0.7c-0.1,0.2-0.1,0.5,0,0.7c0.1,0.5,0.2,0.9,0.4,1.3
		c-0.1-0.1-0.2-0.1-0.3-0.2c-0.1-0.3-0.2-0.5-0.3-0.8c0-0.2-0.1-0.5-0.2-0.7c-0.1-0.3-0.2-0.6-0.2-0.9c0-0.2,0-0.3,0.1-0.5
		C8,9.7,8.2,9.4,8.3,9.2c0.1-0.1,0.2-0.3,0.2-0.4c-0.6,0.4-1,0.9-1.2,1.7c-0.1-0.1-0.1-0.2,0-0.3c0-0.2,0.1-0.5,0.3-0.6
		c0.2-0.2,0.3-0.4,0.5-0.6c0,0,0.1,0,0-0.1C7.9,9,7.7,9.2,7.5,9.5c-0.2,0.3-0.3,0.6-0.3,0.9c-0.1-0.1-0.1-0.2-0.1-0.3
		c0-0.2,0.1-0.5,0.2-0.7c0,0,0.1-0.1,0.1-0.1C7.5,9.3,7.6,9.1,7.7,9C7.5,9,7.4,9.1,7.4,9.3c0,0,0,0,0,0c-0.5,0.4-0.7,1-0.5,1.6
		c0,0,0,0.1,0,0.1c-0.1-0.2-0.2-0.3-0.2-0.6c0-0.2,0-0.4,0.1-0.6C6.8,9.7,6.8,9.6,7,9.4c0.1-0.1,0.1-0.1,0.2-0.2
		C7,9.3,6.8,9.4,6.6,9.5c0,0,0,0-0.1,0.1C6.3,9.8,6.1,10.1,6,10.4c-0.1,0.3-0.1,0.5,0.1,0.8c0.1,0.1,0.2,0.2,0.3,0.3
		c0,0,0.1,0,0.1,0.1c-0.5-0.3-0.7-0.7-0.5-1.4c-0.2,0.2-0.3,0.4-0.5,0.6c0,0,0,0.1,0,0.2c0,0.1,0.1,0.2,0.2,0.3
		c0.1,0.1,0.1,0.1,0.2,0.2c0.1,0.2,0.3,0.3,0.4,0.4c0.2,0.1,0.4,0.2,0.5,0.3c0.3,0.2,0.6,0.4,0.9,0.6c0.5,0.2,1,0.4,1.5,0.6
		c0.1,0,0.2,0,0.2,0c0.1-0.1,0.2-0.1,0.3-0.1c0.2,0,0.3-0.1,0.4-0.3c0-0.1,0.1-0.1,0.1-0.2c0,0,0,0,0.1,0c0,0,0,0,0,0.1
		c0,0.1,0,0.1,0,0.2c-0.1,0.2-0.1,0.2,0.1,0.4c0,0,0.1,0.1,0.1,0.1c0,0,0.1,0,0.1,0.1c-0.1,0-0.2-0.1-0.3-0.1
		c-0.1-0.1-0.3-0.2-0.5-0.1c0,0-0.1,0-0.2,0c-0.1,0-0.1,0-0.1,0.1c0.2,0.2,0.3,0.4,0.5,0.6c0.3,0.3,0.6,0.4,0.9,0.5
		c0.4,0.1,0.8,0.2,1.2,0.3c0.2,0,0.4,0,0.6-0.1c-0.1-0.1-0.2-0.1-0.3-0.2c-0.3-0.3-0.5-0.6-0.8-0.9c-0.3-0.4-0.4-0.9-0.4-1.4
		c0-0.3,0-0.5-0.1-0.7c0,0,0-0.1,0-0.1c0.1,0.3,0.2,0.5,0.2,0.8c-0.1,0.3,0,0.7,0.2,1c0.2,0.4,0.5,0.8,0.8,1.1
		c0.1,0.1,0.2,0.2,0.3,0.2c0.1,0,0.2,0.1,0.3,0c0.2-0.1,0.4-0.1,0.5,0c0.2,0.1,0.4,0,0.7,0c-0.2-0.1-0.3-0.1-0.4-0.1
		c-0.3-0.1-0.6-0.2-0.7-0.6c0,0,0,0,0,0c-0.1-0.3-0.2-0.6-0.3-0.8c0-0.1,0-0.2-0.1-0.2c0.1,0.2,0.3,0.3,0.3,0.5
		c0.1,0.2,0.1,0.4,0.2,0.6c0.1,0.2,0.2,0.3,0.4,0.3c0.3,0.1,0.6,0.2,0.9,0.3c0.2,0.1,0.4,0.1,0.7,0.1c0.1,0,0.3,0.1,0.4,0.1
		c0.2,0,0.5,0,0.7,0.1c0,0,0.1,0,0.1,0c-0.1-0.2-0.3-0.3-0.4-0.5c-0.2-0.2-0.4-0.4-0.5-0.6c0-0.1-0.1-0.1,0-0.2
		c0.1,0.2,0.3,0.4,0.4,0.5c0.2,0.3,0.5,0.5,0.7,0.7c0,0,0.1,0.1,0.1,0.1c0.1,0,0.3,0.1,0.4,0.1c0,0,0-0.1,0-0.1
		c-0.2-0.2-0.4-0.4-0.5-0.6c-0.1-0.3-0.3-0.5-0.5-0.8c-0.1-0.1-0.1-0.2-0.2-0.3c-0.2-0.3-0.3-0.6-0.4-0.9c-0.2-0.5-0.3-1.1-0.3-1.6
		c0-0.1,0-0.1,0-0.2c0,0,0-0.1,0.1-0.1c0,0,0,0,0,0.1c0,0.2,0,0.4,0.1,0.6c0.1,0.3,0.3,0.5,0.4,0.8c0.2,0.6,0.4,1.1,0.6,1.7
		c0.1,0.4,0.3,0.8,0.6,1.1c0.1,0.1,0.2,0.3,0.5,0.3c0.6,0.1,1.1,0.2,1.7,0.1c0.1,0,0.2,0,0.2,0c-0.1-0.1-0.1-0.1-0.2-0.2
		c-0.3-0.1-0.5-0.3-0.8-0.5c-0.1-0.1-0.1-0.1-0.2-0.2c-0.2-0.3-0.4-0.7-0.5-1.1c-0.1-0.2-0.1-0.3-0.2-0.5c0-0.2-0.1-0.3-0.2-0.4
		c-0.2-0.4-0.4-0.7-0.6-1.1c-0.1-0.3-0.1-0.5-0.2-0.8c0-0.1,0-0.2,0-0.4c0-0.2,0-0.3,0-0.5c0-0.2,0-0.4,0-0.6c0-0.2-0.1-0.4-0.1-0.6
		c0-0.2,0.1-0.4,0.3-0.6c0,0,0,0.1,0,0.1c-0.1,0.2-0.2,0.4-0.2,0.6c0,0.1,0,0.2,0.1,0.4c0,0.3,0,0.6,0,0.9c0,0.3,0,0.6,0,0.9
		c0.1,0.5,0.3,0.9,0.5,1.3c0.2,0.3,0.4,0.5,0.4,0.8c0.2,0.4,0.3,0.9,0.6,1.3c0.2,0.4,0.6,0.6,1,0.7c0,0,0.1,0,0.1,0.1
		c0,0.1,0.1,0.2,0.2,0.2c0.3,0,0.5,0.1,0.7,0.2c0.1,0,0.2,0.1,0.3,0.1c-0.4-0.3-0.7-0.8-1-1.2c-0.2-0.3-0.3-0.5-0.5-0.8
		c-0.2-0.2-0.4-0.5-0.5-0.8c-0.2-0.3-0.3-0.6-0.2-0.9c0.1,0,0.1,0.1,0.1,0.1c0.1,0.1,0,0.2,0.1,0.3c0.1,0.4,0.3,0.7,0.6,1
		c0.3,0.3,0.4,0.6,0.6,0.9c0.2,0.2,0.4,0.4,0.6,0.5c0.2,0,0.3,0.1,0.5,0.1c0,0,0.1,0,0.1,0.1c0,0,0,0.1-0.1,0c-0.1,0-0.2,0-0.2-0.1
		c-0.2-0.1-0.3-0.1-0.5-0.2c0.2,0.3,0.4,0.6,0.7,0.8c0.4,0.2,0.7,0.4,1.2,0.5c0.2,0,0.4,0,0.6,0c0.4,0,0.8-0.2,1.2-0.3
		c0,0,0.1,0,0.1-0.1c-0.9-0.2-1.7-1-1.9-1.6c0,0,0,0.1,0.1,0.1c0.3,0.4,0.6,0.8,1,1c0.3,0.2,0.6,0.3,0.9,0.3c0.1,0,0.1,0,0.2,0
		c0,0,0.1,0,0.1-0.1c0-0.1,0-0.1-0.1-0.1c-0.2-0.1-0.3-0.2-0.5-0.4c-0.3-0.3-0.7-0.6-0.9-1c-0.3-0.4-0.6-0.9-0.8-1.4
		c0-0.1-0.1-0.3-0.1-0.4c0,0,0,0,0,0c0.1,0.2,0.2,0.5,0.3,0.7c0.2,0.4,0.4,0.8,0.6,1.1c0.3,0.4,0.7,0.7,1,1c0.2,0.2,0.4,0.3,0.6,0.3
		c0.2,0.1,0.4,0,0.5-0.2c-0.8-0.4-1.5-0.8-1.9-1.6c-0.4-0.7-0.8-1.5-0.6-2.4c0.1,0.1,0.1,0.3,0.1,0.5c0,0.2,0,0.3,0,0.5
		c0.2,0.6,0.4,1.1,0.7,1.6c0.2,0.2,0.3,0.5,0.6,0.6c0.3,0.2,0.6,0.4,0.9,0.6c0.2,0.1,0.5,0.2,0.8,0c0.1-0.1,0.2-0.2,0.3-0.4
		c-0.2-0.2-0.4-0.4-0.6-0.6c-0.4-0.2-0.7-0.5-0.9-0.9c-0.1-0.1-0.2-0.3-0.2-0.5c0.3,0.4,0.6,0.9,1.1,1.1c-0.1-0.2-0.2-0.4-0.3-0.6
		c0,0,0.1,0.1,0.1,0.1c0.3,0.4,0.6,0.8,0.9,1.2c0.2,0.2,0.4,0.2,0.6,0c0.1-0.1,0.3-0.2,0.5-0.3c0.1,0,0.1,0,0.2-0.1
		c0.1-0.1,0.1-0.1,0-0.2c-0.1,0-0.2-0.1-0.2-0.1c-0.4-0.4-0.8-0.7-1-1.3c0-0.1,0-0.1-0.1-0.2c-0.1-0.2-0.1-0.3-0.1-0.5
		c0.1,0.1,0.1,0.3,0.1,0.4c0.1,0.2,0.1,0.5,0.3,0.7c0.2,0.2,0.3,0.5,0.6,0.7c0.1,0.1,0.3,0.2,0.4,0.3c0,0,0.1,0,0.1,0
		c0.3-0.1,0.5-0.3,0.6-0.5c-0.1-0.1-0.3-0.1-0.4-0.2c-0.3-0.1-0.4-0.3-0.6-0.6c-0.2-0.3-0.3-0.7-0.5-1c-0.2-0.4-0.3-0.8-0.3-1.2
		c0-0.2,0-0.3,0.2-0.5c0,0,0,0.1,0,0.1c-0.1,0.5,0,1.1,0.2,1.5c0.2,0.3,0.3,0.7,0.5,1c0.2,0.3,0.4,0.6,0.8,0.7c0.1,0,0.2,0.1,0.3,0
		c0.1,0,0.2-0.1,0.3-0.1c0,0,0.1,0,0.1-0.1c-0.2,0-0.3-0.2-0.4-0.3c-0.3-0.3-0.5-0.7-0.6-1.1c-0.1-0.3-0.2-0.6-0.2-1
		c0-0.3,0-0.6,0-0.9c0-0.3,0.2-0.4,0.5-0.5c0,0.1-0.1,0.2-0.1,0.2c-0.1,0.1-0.1,0.2-0.2,0.3c-0.1,0.6-0.1,1.1,0.1,1.7
		c0.1,0.5,0.4,0.9,0.7,1.3c0,0.1,0.1,0.1,0.2,0.2c0.1,0,0.2,0.1,0.2,0c0,0,0.1-0.1,0.1-0.1c0.1,0,0.2,0,0.2-0.2
		c0-0.1,0.1-0.1,0.1-0.2c0.1-0.2,0.1-0.3-0.1-0.5c-0.2,0.1-0.3,0.3-0.4,0.5c0-0.1,0-0.1,0-0.1c0.1-0.1,0.1-0.2,0.2-0.3
		c0,0,0.1-0.1,0.1-0.2c0-0.1-0.1,0-0.2,0c-0.1,0-0.1,0-0.2,0c0,0-0.1,0-0.1-0.1c0.1,0,0.2,0,0.3,0c0.1,0,0.1,0,0.1-0.1
		c0-0.1,0-0.1-0.1-0.1c0,0-0.1,0-0.1,0c-0.1,0-0.1-0.1-0.1-0.1c0.1,0.1,0.2,0.1,0.3,0.1c0.1,0,0.1,0,0.1-0.1
		c-0.1-0.2-0.1-0.4-0.3-0.5c-0.3-0.2-0.4-0.5-0.5-0.9c0,0,0-0.1,0.1-0.1c0,0,0,0.1,0,0.1c0.1,0.2,0.2,0.5,0.4,0.7
		c0,0,0.1,0.1,0.2,0.1c0.1,0,0.1-0.1,0.1-0.1c0-0.1,0-0.2-0.1-0.3c-0.1-0.1-0.2-0.3-0.2-0.4c0-0.1,0-0.1,0.1-0.2
		c0.1,0,0.1-0.1,0.2-0.2c0,0,0,0-0.1-0.1C28.4,9,28,8.9,27.7,8.8c-0.1,0-0.3,0-0.4,0.1c-0.3,0.2-0.4,0.5-0.5,0.8c0,0.1,0,0.1,0,0.2
		c0,0,0,0.1,0,0.1c-0.1-0.2-0.1-0.5,0-0.7c0.1-0.3,0.3-0.5,0.6-0.7c-0.1-0.1-0.1-0.1-0.2-0.1c-0.2-0.1-0.5-0.3-0.7-0.4
		c-0.1-0.1-0.2-0.1-0.3-0.2c-0.1-0.1-0.2-0.1-0.4,0c-0.2,0.1-0.3,0.2-0.4,0.4c-0.2,0.4-0.4,0.7-0.5,1.1c-0.2,0.3-0.2,0.7-0.2,1.1
		c0,0.2,0.1,0.3,0.1,0.5c0,0.1,0,0.3,0,0.4c0.1,0.3,0.1,0.7,0.1,1c-0.1-0.1-0.1-0.3-0.1-0.5c0-0.2,0-0.3-0.1-0.5
		c0-0.1-0.1-0.3-0.1-0.4c0-0.1,0-0.2-0.1-0.4c0-0.1-0.1-0.3-0.1-0.4c0-0.4,0.1-0.8,0.3-1.1C25,9,25.1,8.8,25.2,8.6
		c0.1-0.3,0.3-0.6,0.6-0.8c0,0,0.1,0,0.1-0.1c0,0,0,0,0,0c0,0-0.1,0-0.1,0c-0.4-0.1-0.9-0.2-1.3-0.3c-0.1,0-0.2,0-0.3,0.1
		c-0.1,0.1-0.2,0.3-0.2,0.4c-0.1,0.3-0.1,0.6-0.1,0.8c0,0.1,0,0.2,0,0.3c0-0.2,0-0.4-0.1-0.6c0-0.4,0.1-0.8,0.4-1.1
		c0,0,0.1,0,0.1-0.1c-0.3-0.1-0.6-0.2-1-0.1c-0.2,0.1-0.4,0.2-0.5,0.3c-0.2,0.4-0.4,0.8-0.5,1.2c0,0.2,0,0.5,0,0.7
		c0,0.1,0,0.1,0,0.2C22,9.3,22,9.1,22,8.9c0-0.4,0.1-0.7,0.2-1c0.1-0.2,0.2-0.5,0.4-0.7c0,0,0.1,0,0.1-0.1c-0.2,0-0.4-0.1-0.6-0.1
		c-0.2,0-0.4,0-0.6-0.1c-0.2,0-0.4-0.1-0.6,0c-0.3,0-0.5,0.1-0.7,0.3c-0.2,0.2-0.2,0.4-0.2,0.7c0,0.4,0.1,0.9,0.2,1.3
		c0,0.2,0.1,0.3,0.1,0.5c-0.1-0.1-0.1-0.3-0.2-0.5C20.1,8.7,20,8.3,20,7.9c0-0.4,0.1-0.8,0.5-1c0,0,0,0,0-0.1c0,0-0.1,0-0.1,0
		c-0.4,0.1-0.7-0.1-1-0.2c-0.2-0.1-0.5-0.2-0.7-0.2c-0.2,0-0.4-0.1-0.6-0.1c-0.3-0.1-0.6-0.1-0.8-0.1c-0.2,0-0.4,0-0.7,0
		c-0.2,0-0.3,0-0.4,0.2c-0.1,0.1-0.2,0.2-0.4,0.1c-0.3,0-0.6,0.1-0.7,0.4c-0.1,0.2-0.3,0.5-0.4,0.7c-0.1,0.2-0.2,0.4-0.3,0.6
		c0,0,0,0.1-0.1,0.1c0,0,0-0.1-0.1-0.1c-0.1,0.2-0.3,0.4-0.4,0.6c0,0,0,0.1-0.1,0.1c-0.2,0.2-0.4,0.5-0.6,0.7
		c-0.1,0.1-0.1,0.1-0.2,0.2c-0.2,0.3-0.3,0.6-0.4,0.9c-0.1-0.1,0-0.2,0-0.2c0.1-0.3,0.1-0.5,0.3-0.7c0.2-0.3,0.5-0.6,0.7-0.9
		c0.3-0.3,0.5-0.6,0.7-1c0.1-0.1,0.1-0.3,0.1-0.5c-0.1,0-0.2,0-0.3,0.1c0,0-0.1,0-0.1,0.1c0,0.1-0.2,0.2-0.3,0.3
		c-0.2,0.1-0.3,0.2-0.5,0.3c-0.2,0.1-0.2,0.3-0.4,0.4c-0.1,0.1-0.2,0.2-0.2,0.3c0,0.2,0,0.4-0.1,0.5c-0.1,0.2-0.1,0.3-0.1,0.5
		c0,0.1,0,0.1-0.1,0.1c0-0.2,0-0.4,0.1-0.6c0.1-0.1,0.1-0.3,0.1-0.4c0-0.2,0.1-0.4,0.2-0.5c0.1-0.1,0.1-0.1,0.2-0.1
		C13,8,13.3,7.9,13.6,7.7c0.1,0,0.2-0.1,0.2-0.2c-0.4,0-0.7,0.1-1.1,0.2c-0.1,0.1-0.3,0.1-0.4,0.1c-0.1,0-0.3,0.1-0.4,0.1
		c-0.1,0.1-0.3,0.1-0.4,0.1c-0.1,0-0.2,0-0.4,0c-0.3,0-0.5,0-0.7-0.1c-0.3-0.2-0.5-0.1-0.8,0.2C9.5,8.3,9.4,8.4,9.2,8.5
		C9.2,8.5,9.2,8.6,9.2,8.6z M4.5,9.8C4,9.8,3.7,10,3.3,9.9c0,0.1,0,0.1,0,0.1c0.3,0.2,0.5,0.4,0.8,0.6c0.2,0.1,0.3,0.2,0.5,0.2
		c0,0,0-0.1,0-0.1c0-0.3,0-0.5,0.2-0.7c0,0,0.1-0.1,0.1-0.1C5,9.8,5.1,9.7,5.2,9.9c0,0,0,0,0,0c0,0,0.1,0,0.1,0c0,0,0,0.1,0,0.1
		c-0.2,0.2-0.3,0.4-0.4,0.6c0,0.1,0,0.2,0.1,0.2c0.1,0.1,0.2,0.1,0.2,0.2c0-0.1,0-0.1,0-0.2c0.2-0.2,0.3-0.5,0.5-0.6
		c0,0,0.1-0.1,0.1,0C6,10.1,6,10.1,6,10c0.1-0.2,0.1-0.3,0.3-0.4c0,0,0.1-0.1,0-0.1c-0.1,0-0.1,0-0.2,0C5.7,9.7,5.3,9.7,4.9,9.8
		c-0.1,0-0.2,0.1-0.2,0.1c-0.1,0.1-0.2,0.2-0.3,0.4C4.2,10.1,4.4,10,4.5,9.8z M16.2,13.6c-0.2-0.6-0.4-1.3-0.7-1.9
		C15.5,12.4,15.8,13,16.2,13.6z M29.5,11c-0.1,0.2-0.2,0.3-0.3,0.5c0,0.1-0.1,0.2-0.1,0.3c0,0.1,0,0.2,0.1,0.2
		c0.1,0,0.2-0.1,0.2-0.2c0-0.1,0-0.2,0.1-0.3c0,0,0-0.1,0-0.1C29.6,11.2,29.6,11.1,29.5,11z M29,11.5c0.1-0.1,0.1-0.2,0.2-0.3
		c0.1-0.1,0.1-0.3,0.2-0.4c0.1-0.1,0-0.1,0-0.2c0-0.1-0.1,0-0.1,0c-0.1,0-0.2,0.1-0.2,0.1c-0.1,0-0.1,0.1-0.1,0.1c0,0.2,0,0.3,0,0.5
		C29,11.4,29,11.5,29,11.5z M29.1,10.2c-0.2,0-0.2,0-0.2,0.2c0,0.1,0,0.2-0.1,0.2c0,0,0,0.1,0,0.1c0,0,0.1,0,0.1,0
		c0.1-0.1,0.3-0.2,0.4-0.2c0.1,0,0.1-0.1,0.1-0.1C29.4,10.2,29.3,10.2,29.1,10.2z M28.6,9.6C28.6,9.6,28.6,9.6,28.6,9.6
		c0,0.1,0,0.2,0.1,0.2c0.2,0.3,0.2,0.3,0.5,0.2c0,0,0,0,0,0C29.1,9.9,28.8,9.8,28.6,9.6z M15.5,6.3c0.3,0.1,0.5,0,0.5-0.2
		C15.9,6.1,15.8,6.2,15.5,6.3z M14.8,6.9c-0.2,0.3-0.4,0.5-0.4,0.8c0.1-0.2,0.2-0.3,0.3-0.5C14.8,7.2,14.8,7.1,14.8,6.9z M29,9.7
		c0-0.1-0.1-0.2-0.1-0.2c0,0-0.1,0-0.1,0c0,0,0,0.1,0,0.1C28.9,9.6,28.9,9.7,29,9.7z"/>
	<path class="st0" d="M15.1,13.2c-0.2-0.2-0.3-0.5-0.4-0.7c-0.1-0.2-0.1-0.4-0.2-0.7c-0.1-0.3-0.1-0.6-0.1-0.8c0-0.1,0-0.2,0-0.3
		c0.1-0.4,0.1-0.8,0.1-1.3c0-0.1,0-0.1,0-0.2c0,0.1,0,0.2,0.1,0.3c0-0.1,0.1-0.1,0.1-0.2c0-0.4,0.1-0.7,0.1-1.1c0-0.3,0-0.5,0-0.8
		c0-0.2,0.1-0.4,0.3-0.6c0,0,0.1-0.1,0.1-0.1c0,0,0.1,0,0.1,0c0,0,0,0.1,0,0.1c-0.2,0.2-0.3,0.5-0.3,0.8c0,0.4,0,0.7,0,1.1
		c0,0.3,0,0.6-0.1,0.9c-0.1,0.3,0,0.6,0,0.9c0,0.4,0,0.7-0.1,1.1c-0.2,0.4,0,0.8,0.2,1.1C15.1,12.9,15.1,13.1,15.1,13.2L15.1,13.2z
		 M14.6,11.6c0.1-0.1,0.2-0.3,0.2-0.4c0-0.4,0-0.7-0.1-1.1c0,0.2,0,0.4-0.1,0.6C14.5,11,14.6,11.2,14.6,11.6z"/>
	<path class="st0" d="M14.6,14.7c-0.2-0.2-0.4-0.4-0.6-0.6c-0.1-0.2-0.2-0.4-0.4-0.5c-0.1-0.2-0.2-0.4-0.2-0.6
		c-0.1-0.5-0.1-1-0.3-1.5c-0.1-0.2-0.1-0.5,0-0.7c0-0.3,0.1-0.6,0.2-0.9c0.1-0.1,0.1-0.2,0.3-0.3c0,0,0,0,0,0.1
		c-0.2,0.1-0.2,0.3-0.3,0.5c-0.1,0.3-0.1,0.6-0.1,1c0,0.1,0,0.2,0,0.3c0.1,0.3,0.1,0.6,0.2,0.9c0.1,0.4,0.1,0.8,0.4,1.2
		c0.2,0.3,0.4,0.7,0.7,1C14.5,14.5,14.6,14.6,14.6,14.7z"/>
	<path class="st0" d="M15.8,9.7c-0.1-0.3-0.1-0.6,0-0.9c0.1-0.2,0.1-0.5,0.2-0.7C16,8,16.1,7.8,16.1,7.7c0-0.2,0.2-0.3,0.3-0.4
		c0.2-0.1,0.4-0.3,0.5-0.4c0.1-0.1,0.3-0.2,0.5-0.3c0.1-0.1,0.3-0.1,0.4-0.2c0,0,0.1,0,0.1,0c0,0,0.1,0,0.1,0c0,0,0,0-0.1,0.1
		c-0.2,0.1-0.5,0.2-0.7,0.3c-0.1,0.1-0.3,0.2-0.4,0.3c-0.1,0.1-0.3,0.2-0.4,0.3c-0.2,0.1-0.3,0.3-0.3,0.5c0,0.1,0,0.2-0.1,0.3
		c-0.1,0.2-0.1,0.4-0.2,0.6C15.9,9,15.8,9.4,15.8,9.7z"/>
	<path class="st0" d="M19.3,11c0,0,0,0.1,0.1,0.1c0.2,0.6,0.5,1.2,0.8,1.8c0.1,0.3,0.3,0.6,0.4,0.8c0.1,0.3,0.4,0.5,0.7,0.7
		c0.3,0.3,0.7,0.4,1.1,0.7c0,0,0,0,0,0c-0.6-0.3-1.1-0.6-1.5-1c-0.2-0.2-0.3-0.5-0.4-0.7c-0.2-0.4-0.4-0.8-0.6-1.2
		C19.5,11.9,19.3,11.5,19.3,11C19.2,11.1,19.2,11.1,19.3,11z"/>
	<path class="st0" d="M16.1,8.9c0,0,0,0.1,0,0.1c0,0.5,0.1,1,0.3,1.5c0.1,0.4,0.2,0.8,0.3,1.2c0.1,0.4,0.2,0.8,0.4,1.2
		c0.1,0.1,0.2,0.2,0.3,0.3c-0.1,0-0.2-0.1-0.2-0.2c-0.2-0.3-0.3-0.6-0.4-0.9c-0.2-0.6-0.3-1.2-0.4-1.7c0-0.2-0.1-0.4-0.1-0.5
		c-0.1-0.3-0.1-0.6-0.1-0.8C16.1,9,16.1,8.9,16.1,8.9C16.1,8.9,16.1,8.9,16.1,8.9z"/>
	<path class="st0" d="M17.7,15c-0.3-0.2-0.6-0.5-0.8-0.9c-0.1-0.3-0.2-0.7-0.3-1.1c0-0.2-0.1-0.4-0.2-0.6c-0.2-0.5-0.2-1.1-0.4-1.6
		c0-0.1,0-0.3,0-0.5c0.1,0.1,0.1,0.2,0.1,0.2c0.1,0.4,0.2,0.8,0.3,1.2c0.1,0.5,0.3,1,0.4,1.5c0.1,0.3,0.2,0.7,0.3,1
		c0.1,0.2,0.2,0.4,0.4,0.6C17.5,14.8,17.6,14.9,17.7,15z"/>
	<path class="st0" d="M20.6,8.2c0,0.3,0,0.5,0.1,0.8c0,0.1,0,0.2,0,0.3c0,0.1,0,0.2,0,0.4c0,0.4,0,0.9-0.1,1.3c0,0.1,0,0.2,0,0.4
		c0,0.1,0,0.1,0,0.2c-0.1-0.2-0.2-0.4-0.1-0.6c0.1-0.6,0.1-1.3,0-1.9c0-0.1,0-0.1,0-0.2C20.4,8.7,20.5,8.4,20.6,8.2z"/>
	<path class="st0" d="M19,8.3c0,0.1-0.1,0.2-0.1,0.2c0,0.1-0.1,0.1-0.1,0.2c-0.1,0.4-0.2,0.8-0.2,1.2c0,0.2,0,0.3-0.1,0.5
		c0,0.2,0,0.4,0,0.6c-0.1-0.1-0.1-0.3-0.1-0.5c0.1-0.4,0.1-0.7,0.1-1.1C18.6,9,18.6,8.6,19,8.3z"/>
	<path class="st0" d="M27.8,11.1c-0.1,0-0.1-0.1-0.2-0.2c-0.1-0.2-0.1-0.4-0.1-0.7c0,0,0-0.1,0-0.1c-0.1-0.2,0-0.4,0.1-0.7
		c0-0.1,0.1-0.2,0.2-0.3c0,0,0.1,0,0.1,0c0,0,0,0.1,0,0.1c-0.2,0.2-0.3,0.4-0.3,0.7C27.7,10.3,27.7,10.7,27.8,11.1z"/>
	<path class="st0" d="M17.8,12.3c0.1,0.5,0.3,0.9,0.6,1.3c0.3,0.4,0.5,0.8,1,1.1c-0.1,0-0.2-0.1-0.3-0.1c-0.2-0.2-0.3-0.4-0.5-0.6
		c-0.2-0.3-0.4-0.5-0.6-0.8c-0.1-0.2-0.3-0.5-0.3-0.8C17.7,12.4,17.7,12.4,17.8,12.3z"/>
	<path class="st0" d="M9.6,11.2c0-0.1,0-0.2,0.1-0.3c0-0.1,0.1-0.3,0.1-0.4c0.1-0.4,0.2-0.9,0.4-1.2c0.1-0.1,0.1-0.1,0.2-0.1
		c-0.1,0.2-0.2,0.3-0.3,0.4c-0.2,0.3-0.2,0.7-0.3,1C9.8,10.8,9.7,11,9.6,11.2z"/>
	<path class="st0" d="M9.2,8.6c0.2-0.2,0.5-0.2,0.7-0.2c0.2,0,0.4,0,0.6-0.1c0.1,0,0.2,0,0.3,0.1c-0.3,0-0.6,0-0.9,0.1
		c-0.3,0-0.5,0.2-0.8,0.3C9.1,8.7,9.2,8.7,9.2,8.6L9.2,8.6z"/>
	<path class="st0" d="M17.4,8.9c0.1,0.1,0.1,0.1,0,0.2c0,0.3,0,0.6,0,0.9c0.1,0.4,0.1,0.8,0.3,1.2c-0.1-0.1-0.1-0.2-0.2-0.3
		c0-0.1-0.1-0.3-0.1-0.4c0-0.2-0.1-0.4-0.1-0.6C17.3,9.5,17.4,9.2,17.4,8.9z"/>
	<path class="st0" d="M12.1,9.1c-0.3,0.5-0.6,0.9-0.7,1.5C11.2,10.3,11.7,9.4,12.1,9.1z"/>
	<path class="st0" d="M15.1,13.2c0.1,0,0.1,0.1,0.1,0.1C15.1,13.3,15.1,13.3,15.1,13.2L15.1,13.2z"/>
</g>
</svg>
