<svg viewBox="0 0 30 27.8" xmlns="http://www.w3.org/2000/svg"><path d="m4.8 17.7c.1-.1.1-.1 0 0 .6-.3 1-.5 1.6-.6.5-.1.8-.1 1.1.1.2 0 .3-.1.3-.2.2-.2.3-.3.4-.3.2-.2.5-.3.8-.6.2-.1.2-.1.3-.1.2-.2.3-.3.4-.6l.1-.1c.3-.3.3-.7.6-1.1.2-.2.3-.4.5-.7.2-.2.3-.3.3-.6.2-.2.1-.4.1-.6s-.1-.4-.1-.6c.1-.6.3-1.2.8-1.6l.8-.8c.3-.3.6-.6.9-.8.1-.1.3-.1.3-.2.1-.1.3-.3.4-.3.3-.2.8-.3 1.1-.6.1-.1.1-.1.2-.2.3-.4.8-.8 1.2-1 .1 0 .2 0 .4-.2.1-.1.2-.2.2-.2.4-.3.7-.5 1-.9.3-.3.7-.5 1.2-.7s.9-.4 1.2-.7c.5-.3 1-.5 1.6-.6.4-.1.9-.2 1.2-.3 0 0 .2 0 .2-.2-.7-.2-1.3-.3-2.1-.3.1-.1.2 0 .3-.1.5 0 .9.1 1.4.2.4.1.8.1 1.2-.2.1 0 .2 0 .3-.1-.1-.1-.1-.1-.2 0-.5-.2-.9-.3-1.4-.5-.3-.1-.3-.3-.6-.6.2 0 .3.1.3.3.3.3.5.3.8.6.4.3.9.3 1.5.4.1.1.2 0 .3 0 .5 0 1 .2 1.4.5.2.2.4.3.7.3.2.1.4.3.6.6 0 .2.3.3.3.3.3.2.4.2.6.3-.1.1-.2 0-.3 0-.3-.1-.5-.1-.6-.2s-.2 0-.2 0c-.1.1-.1.3-.1.4.1.1.1.3.2.3 0 .2.2.3 0 .5-.1.1 0 .2 0 .2.1.1.1.3 0 .3-.2.4-.4.8-.3 1.2 0 .2-.1.4-.1.6 0 .3-.1.6-.3.9-.1.1-.1.3-.1.4 0 .2-.1.3-.2.3-.1.1-.2.2-.1.3 0 .3 0 .7-.2 1 0 .3-.2.7-.3 1-.2.2-.1.4-.3.6-.2.3-.3.6-.4.9-.1.1-.3.3-.3.3-.2.2-.3.5-.6.6-.3.3-.6.4-1 .5-.2 0-.3.1-.3.2-.2.2-.3.3-.5.3-.4.1-.6.4-.8.8-.3.6-.6 1.1-1.1 1.5-.1.1-.3.1-.4.1.5-.3.9-.9 1.2-1.4-.3.3-.6.6-1 .9-.6.4-1.3.9-2 1.3l-.1.1c-.4.4-.9.7-1.2 1-.2.2-.3.3-.3.5-.1.1-.2.2-.3.3-.3.1-.4.4-.5.7s-.3.5-.5.7c-.5.3-1 .7-1.6.9-.6.3-1.1.4-1.8.3-.3-.1-.3 0-.4.3-.2.3-.5.5-.8.8s-.5.5-.7.9c-.3.4-.6.6-1.2.5.2 0 .3-.1.4-.1.3-.1.3-.2.5-.3.3-.5.8-.9 1.2-1.4.1-.1.2-.2.2-.3-.1-.1-.2 0-.3.1-.3.2-.9.3-1.2.5-.5.2-1 .3-1.5.4-.3 0-.7.2-.9.3-.3.1-.4.1-.7 0-.4-.1-.9 0-1.2.2-.4.3-.9.3-1.4.3-.8.1-1.4.3-2 .8-.4.3-.6.6-.9.9s-.7.7-1.1.8c.3-.3.5-.3.8-.6s.4-.4.6-.8c-.3 0-.6.3-.9.2-.3.1-.5.2-.8.1.3-.1.4-.1.7-.2.5-.2.9-.4 1.5-.6.3-.2.8-.4 1.1-.8.2-.2.3-.3.4-.4.2-.3.5-.7.8-.9.4-.6.9-1.3 1.3-2 0-.3.2-.7.3-.9.1-.6.5-1 .9-1.5.2-.2.3-.4.3-.8-.1-.1-.1-.3-.2-.3 0-.2 0-.2-.3-.3-.4-.1-.8-.1-1.3.1-.3.2-.6.3-.9.4-.1-.2-.2-.1-.4-.1zm3.1.7c-.2.3-.2.5-.2.9.1.3.3.7.3 1.2.1.4.3.7.8.9.2 0 .3.1.4.1-.2-.1-.2-.3-.4-.5s-.3-.3-.3-.5c.1-.1.1-.1.2 0 .2.2.4.4.5.7s.3.5.6.6c.5.3.9.6 1.5.8-.2 0-.3.1-.4.1-.3-.2-.6-.3-.9-.4-.2-.2-.5-.3-.8-.4-.3-.2-.7-.3-.9-.6-.3-.3-.4-.4-.5-.6 0-.3-.1-.8-.2-1 0-.2-.1-.4-.2-.5-.2.9-.1 1.6.4 2.5-.2 0-.3-.1-.3-.3-.2-.2-.3-.5-.3-.8s-.1-.6-.1-.9c0 0 .1-.1-.1-.1-.1.3-.1.6 0 1s.3.8.5 1c-.2 0-.3-.1-.3-.2-.2-.2-.3-.5-.4-.8v-.2c.1-.1 0-.3 0-.5-.2.2-.2.3 0 .5-.1.8.3 1.5.9 1.8l.3.2c-.3-.1-.4-.1-.7-.3-.2-.2-.3-.3-.4-.6-.1-.1-.2-.2-.2-.5 0-.2 0-.2 0-.3-.1.3-.2.5-.3.8v.2c0 .3.1.8.3 1.1.2.2.3.4.8.4h.5s.1-.1.2 0c-.7.2-1.2 0-1.6-.8 0 .3.1.6.1.9 0 0 .1.1.2.2s.3.1.4.1h.3c.3.1.5 0 .7 0 .3-.1.5-.2.7-.2.4-.1.9-.2 1.3-.3.6-.3 1.2-.5 1.8-.8.1-.1.2-.2.2-.2 0-.2.1-.3.2-.3.2-.2.2-.3.1-.6-.1-.1 0-.2-.1-.3 0 0 0 0 .1-.1 0 0 0 0 .1.1s.1.1.2.2c.1.3.1.3.4.3h.2s.1-.1.2 0c-.1.1-.3.1-.3.2-.2 0-.4.1-.5.3 0 0-.1.1-.2.2s-.1.1 0 .2c.3 0 .6.1.9.1.5 0 .9-.2 1.2-.3.4-.3.9-.5 1.3-.8.2-.2.3-.3.4-.6-.2 0-.3.1-.4.1-.5 0-.9-.1-1.5-.1-.6-.1-1.1-.4-1.5-.9-.3-.3-.4-.4-.7-.5l-.1-.1c.3.2.6.3.9.5.2.3.6.6 1 .7.5.2 1.1.3 1.6.3.2 0 .3 0 .4-.1s.3-.1.3-.3c.1-.3.3-.4.4-.4.3-.1.3-.3.6-.6-.3.1-.3.2-.4.3-.3.2-.7.3-1.1.1-.3-.2-.7-.3-.9-.4-.1-.1-.2-.2-.3-.1.3.1.5 0 .7.2.3.1.4.3.7.3.3.1.4.1.6-.1.3-.2.7-.3 1-.5.3-.1.4-.3.7-.5.1-.1.3-.2.4-.3.2-.2.4-.4.7-.5l.1-.1c-.3-.1-.5 0-.8-.1-.3 0-.7 0-.9-.1-.1-.1-.2 0-.2-.2.3.1.6.1.8.1.4.1.9 0 1.2 0h.2c.1-.1.3-.2.4-.3l-.1-.1c-.3 0-.7 0-.9-.1-.3-.2-.7-.2-1.1-.3-.2 0-.3-.1-.4-.1-.4-.1-.8-.3-1.1-.4-.6-.3-1.2-.7-1.6-1.1-.1-.1-.1-.1-.2-.2 0 0-.1-.1 0-.2 0 0 0 0 .1.1.2.2.3.3.6.4.3.2.7.2 1 .3.7.3 1.3.6 2 .9.4.3.9.4 1.5.4.2 0 .4.1.7-.2.6-.4 1.1-.8 1.5-1.4.1-.1.2-.2.2-.2-.2 0-.2 0-.3 0-.3.2-.7.2-1.1.3-.2 0-.2 0-.3 0-.4-.1-.9-.3-1.4-.5-.3-.1-.3-.2-.6-.3-.2-.2-.3-.2-.5-.2-.5-.2-.9-.3-1.5-.4-.3-.2-.5-.3-.9-.5-.1-.1-.2-.2-.3-.3-.2-.2-.3-.3-.4-.4-.2-.2-.3-.3-.5-.5s-.4-.3-.6-.4c-.2-.2-.3-.4-.3-.8l.1.1c.1.3.2.5.3.7.1.1.2.2.4.3l.8.8c.3.3.5.5.8.8.5.3 1 .5 1.5.7.4.1.8.1 1 .3.5.2 1 .5 1.6.6.5.2 1 0 1.5-.3 0 0 .1-.1.2 0s.3.1.3 0c.3-.3.5-.3.8-.4.1-.1.3-.1.3-.2-.6.1-1.3-.1-1.9-.2-.4-.1-.7-.2-1.1-.3-.3 0-.8-.1-1.1-.3-.4-.1-.8-.3-.9-.6.1-.1.2 0 .2 0 .2 0 .2.2.3.2.4.3.9.3 1.4.3s.9.2 1.3.3c.3 0 .7 0 .9-.1.2-.2.3-.2.5-.3 0 0 .1-.1.2 0 0 0 .1.1-.1.1-.1.1-.2.2-.3.1-.3.1-.3.2-.6.3.4.1.9.2 1.3.1.5-.2.9-.3 1.5-.6.2-.2.3-.3.5-.5.3-.3.5-.9.8-1.3 0 0 .1-.1 0-.2-.9.6-2.3.6-3 .3 0 0 .1.1.2 0 .6.1 1.2.2 1.7 0 .4-.1.8-.3 1-.5.1-.1.1-.1.2-.2 0 0 .1-.1 0-.2s-.1-.1-.2 0c-.3.1-.4.1-.8.1-.5 0-1.1.1-1.6-.1-.6-.1-1.3-.3-1.9-.5-.1-.1-.3-.2-.4-.3.3.1.6.3.9.3.5.2 1 .3 1.5.4.6.1 1.2 0 1.7 0 .3 0 .6-.1.8-.3.3-.1.3-.3.3-.6-1 .3-2 .6-3 .3-.9-.3-2-.6-2.6-1.5.2 0 .3.2.5.3l.4.4c.7.3 1.3.6 2 .8.3 0 .7.2 1 0 .4-.1.9-.2 1.3-.3.3-.1.6-.3.7-.7 0-.2 0-.3-.1-.6-.3 0-.7 0-1 0-.5.2-1 .2-1.5 0-.2 0-.4-.1-.6-.3.6.1 1.3.3 1.9 0-.3-.1-.5-.2-.8-.3h.2c.6.1 1.2.2 1.8.3.3 0 .5-.2.5-.5 0-.2.1-.4.2-.7.1-.1.1-.1.1-.3s-.6.4-.8.4c-.1 0-.3 0-.3 0-.7 0-1.3.1-2-.3-.1-.1-.1-.1-.3-.1-.3-.1-.3-.2-.5-.3.2 0 .3.2.4.3.4.1.6.4 1 .4.3 0 .7.1 1.1 0h.6l.1-.1c.2-.3.2-.7.1-.9-.2 0-.3.2-.5.2-.3.2-.6.1-1 0s-.9-.3-1.3-.4c-.5-.2-.9-.4-1.3-.8-.2-.2-.3-.3-.3-.6l.1.1c.3.5.9.9 1.5 1.1.4.1.9.3 1.3.4s.9.2 1.3-.1c.1-.1.3-.1.3-.3.1-.1.1-.3.2-.3 0 0 .1-.1 0-.2-.2.2-.4.1-.6.1-.5 0-1-.2-1.5-.4-.3-.2-.7-.3-1-.7-.3-.3-.5-.5-.8-.8s-.2-.5 0-.9c.1.1.1.3.1.3 0 .2.1.3.1.4.4.6.9 1 1.5 1.4.5.3 1.1.4 1.7.5.1.1.2 0 .3 0 .1-.1.3-.1.2-.2v-.2c.1-.1.2-.2 0-.3-.1-.1 0-.2-.1-.3-.1-.3-.2-.3-.5-.3-.1.3 0 .5.1.8-.1-.1-.1-.1-.1-.1 0-.2-.1-.3-.1-.4 0 0 0-.2-.1-.3s-.1.1-.2.2-.1.1-.2.1c0 0-.1.1-.2 0 .1-.1.2-.2.3-.3s.1-.1 0-.2-.1-.1-.2 0l-.1.1c-.1.1-.2 0-.2 0 .2 0 .3-.1.3-.2.1-.1.1-.1 0-.2-.3-.1-.4-.3-.7-.2-.4.1-.8-.1-1.2-.3 0 0-.1-.1 0-.2l.1.1c.4.2.7.4 1.1.4 0 0 .2 0 .3-.1s0-.2 0-.2c-.1-.1-.2-.2-.3-.2s-.4-.1-.5-.2-.1-.1-.1-.3c.1-.1 0-.2 0-.3 0 0 0 0-.2 0 .1.4-.3.7-.7.9-.1.1-.3.3-.3.4-.1.4.1.8.3 1.1 0 .2 0 .2.1.3l.1.1c-.3-.1-.5-.3-.6-.6-.2-.3-.2-.7-.1-1.1-.2 0-.2 0-.3.1-.2 0-.7.1-.9.2-.2 0-.3.1-.4.1-.2 0-.3.1-.3.3-.1.3-.1.4 0 .7.2.5.3.9.5 1.4.1.4.4.8.8 1.1.1.2.2.2.4.3.1.1.3.3.3.3.3.2.7.5.9.8-.2 0-.3-.2-.5-.3-.2-.2-.3-.3-.5-.3-.1-.1-.3-.2-.4-.3 0-.1-.1-.2-.4-.2-.1-.1-.3-.2-.4-.3-.3-.3-.6-.8-.7-1.2.2-.3.1-.6 0-.9-.2-.3-.3-.8-.2-1.2 0 0 .1-.1 0-.2l-.1.1c-.4.3-.9.7-1.3.9-.1.1-.2.2-.2.3 0 .2.1.4.2.5.2.3.4.6.6.8.1.1.2.2.3.3-.2-.2-.3-.3-.6-.4-.3-.3-.6-.8-.6-1.3 0 0 .1-.1 0-.2-.3.2-.7.3-.9.8-.1.3-.2.5-.2.7.2.5.3 1 .6 1.5.2.2.4.4.6.6.1.1.1.1.2.2-.4.1-.6-.1-.8-.3-.3-.3-.5-.7-.7-1-.1-.3-.3-.6-.3-.9 0 0 .1-.1 0-.2-.2.2-.4.3-.6.4-.2.2-.3.3-.6.4-.2.2-.4.3-.5.5-.3.3-.3.5-.3.9 0 .3.2.5.4.8.3.3.9.7 1.3.9.2.2.3.2.5.3-.2 0-.3-.2-.6-.3-.4-.4-.9-.7-1.2-1s-.6-.8-.4-1.3c0 0 0 0-.1-.1l-.1.1c-.3.4-.7.5-1 .7-.3.1-.6.3-.8.4s-.4.3-.6.4c-.3.2-.6.4-.8.6s-.3.3-.6.6c-.2.2-.3.3-.2.5 0 .2 0 .3-.3.4-.3.3-.4.6-.3.9s.2.7.3.9c.1.3.2.5.3.8 0 0 .1.1 0 .2 0 0-.1-.1-.2 0 .1.3.1.6.2.9 0 0 .1.1 0 .2 0 .3.1.8.1 1.1v.3c.1.4.3.8.4 1.1-.2 0-.2-.2-.2-.2-.2-.3-.3-.5-.3-.9-.1-.4-.1-.9-.2-1.4 0-.5-.1-.9-.3-1.5 0-.2-.2-.3-.3-.5-.1.1-.2.2-.2.3 0 0-.1.1 0 .2s0 .3 0 .5c-.1.3-.1.4-.2.7s.1.4 0 .7c0 .2 0 .3.1.4.2.2.3.3.3.5.1.3.2.3.3.5.1.1.1.1 0 .2-.2-.2-.3-.3-.4-.6 0-.2-.2-.3-.3-.4-.2-.2-.3-.4-.3-.6s0-.2.1-.3c-.2-.5 0-.9.1-1.3.1-.1.1-.3 0-.3-.3.3-.5.7-.8 1.1 0 .2-.2.3-.3.4s-.2.3-.3.4c0 .2-.2.3-.3.4.3.5.2.5 0 .7-.3.3-.4.4-.7.5-.4.1-.5.3-.5.9.1.2.1.4.1.8zm-3 5c-.4.4-.5.9-.9 1.1v.1c.4-.1.8-.1 1.2-.2.3-.1.4-.1.6-.3l-.1-.1c-.3-.3-.4-.4-.4-.8v-.2c0-.2 0-.3.3-.3l.1-.1.1.1c0 .3.1.6.2.9.1.1.2.2.3.1.2 0 .3-.1.3 0-.1-.1-.1-.1-.2-.2 0-.3-.2-.7-.1-.9 0 0 0-.2.1-.1.1-.3.1-.3 0-.3-.1-.2-.2-.2-.1-.5 0 0 0-.2-.1-.1s-.1.1-.2.2c-.2.5-.5.9-.8 1.3-.1.1-.1.3-.1.3 0 .2 0 .3.1.6-.3-.1-.2-.3-.3-.6zm13.3-6.8c-.7-.3-1.5-.8-2.2-1 .5.6 1.3.9 2.2 1zm9.1-13.6c.1.3.1.4.2.7.1.1.1.3.2.3.1.1.2.2.3.1 0-.1 0-.2-.1-.3s-.2-.2-.2-.3l-.1-.1c0-.3-.1-.4-.3-.4zm0 .9c0-.2-.1-.3-.1-.4s-.2-.3-.2-.5-.1-.1-.2-.2-.1.1-.1.1c-.1.1-.1.3-.1.3-.1.1 0 .2 0 .2.2.2.3.3.4.4.3 0 .3.1.3.1zm-1-1.2c-.2.2-.2.2 0 .3.1.1.2.2.1.3l.1.1.1-.1c0-.2.1-.4.2-.5s0-.2 0-.2c-.2-.2-.3-.1-.5.1zm-.9-.1c.1.1.2.2.3.1.4.1.4.1.6-.3-.2 0-.6.2-.9.2zm-14.1 8.4c.3-.2.4-.4.3-.6-.1.1-.1.2-.3.6zm-.1 1.1c.1.4.1.8.3 1-.1-.3-.1-.4-.2-.7.2 0 .1-.1-.1-.3zm14.6-9.8c-.1-.1-.3-.1-.3-.1l-.1.1.1.1c.1-.1.2 0 .3-.1zm-8.9 14.9c-.3 0-.7-.2-.9-.3-.3-.1-.4-.3-.8-.4s-.6-.4-.8-.6c-.1-.1-.2-.2-.3-.3-.3-.4-.6-.8-1-1.2-.1-.1-.1-.1-.2-.2.1.1.2.2.3.2-.1-.1 0-.2-.1-.3-.3-.3-.5-.7-.9-1-.3-.3-.4-.4-.7-.7-.2-.2-.3-.4-.3-.8v-.2l.1-.1.1.1c0 .3.2.7.4.9l.9.9c.3.3.5.5.7.9.2.3.5.5.8.8s.6.6.9 1c.2.5.7.7 1.1.8.4.3.6.5.7.5zm-1.8-.9c0-.2-.1-.4-.2-.5-.3-.3-.6-.6-1-.9.2.2.3.3.4.6.2.4.4.5.8.8zm2.6 2.7c-.3 0-.7 0-1 0-.3-.1-.5-.2-.8-.1-.3-.1-.5-.2-.7-.3-.5-.3-.9-.8-1.5-1-.3-.1-.5-.3-.6-.6-.3-.3-.4-.6-.6-.9 0-.2-.1-.3 0-.5 0 0 0 0 .1.1-.1.3.1.4.2.7.2.3.4.6.8.9l.3.3c.3.2.6.4.9.6.4.3.8.6 1.4.7.4.1.9.3 1.5.3-.2-.3 0-.3 0-.2zm-3.2-5.4c-.3-.2-.6-.4-.8-.8-.1-.3-.3-.5-.4-.8-.1-.1-.2-.3-.3-.4-.2-.2-.1-.4-.1-.6.1-.3.1-.6.1-.8s.1-.4.2-.7c0-.2.2-.3.2-.5h.1l.1-.1v.2c-.1.3-.3.6-.3.9 0 .2-.1.4-.1.6s-.2.4-.2.6c-.1.3 0 .5.2.7.1.1.2.2.2.3.1.3.3.4.3.7.3.1.5.5.8.7zm4.1-1.8s.1.1.2 0c.7.3 1.5.6 2.2.9.3.2.8.3 1 .3.3.2.8.1 1.2 0 .5 0 .9-.3 1.5-.3-.7.2-1.4.3-2.1.3-.3 0-.7-.2-.9-.3-.5-.2-1-.3-1.5-.5-.7.2-1.2 0-1.6-.4 0 .1 0 .1 0 0zm-4.5.9c.5.5 1 .9 1.6 1.1.4.3.9.5 1.3.8s.9.5 1.4.7h.5c-.1.1-.3.1-.3 0-.4-.1-.8-.3-1.1-.4-.7-.3-1.3-.8-1.8-1.1-.2-.2-.4-.3-.5-.3-.3-.2-.6-.4-.8-.6-.3-.1-.3-.2-.3-.2zm6.6 3.9c-.4.1-.9.1-1.5-.1-.3-.2-.8-.4-1.2-.7-.2-.2-.4-.3-.7-.3-.6-.3-1.1-.8-1.7-1-.1-.1-.3-.3-.4-.4.2 0 .3.1.3.1.4.3.9.5 1.3.8.5.3 1.1.6 1.6.9.3.2.8.4 1.1.6.3.1.5.2.9.2-.1-.1.1-.1.3-.1zm-3.4-8.4c.3.3.4.4.8.6.1.1.2.2.3.3s.2.2.3.3c.3.3.8.8 1 1.2.1.1.2.2.3.3s.1.1.2.2c-.3-.1-.5-.2-.6-.4-.4-.6-1-1.2-1.6-1.6-.1-.1-.1-.1-.2-.2-.2-.1-.4-.4-.5-.7zm-1.3 1.5c.1.1.1.3.1.3.1.1 0 .2.1.3.3.4.5.9.9 1.2.2.2.3.3.3.5l.5.5c-.2 0-.3-.2-.5-.3-.3-.4-.5-.7-.9-1-.2-.6-.6-.9-.5-1.5zm10-5.1c-.1.1-.2 0-.3 0-.3-.1-.4-.3-.7-.5l-.1-.1c-.3-.1-.3-.3-.5-.7-.1-.1-.1-.3-.1-.4l.1-.1.1.1c0 .3.1.6.3.9.4.2.7.5 1.2.8zm-7.6 9.6c.5.3 1 .5 1.6.6s1.1.3 1.8.1c-.1.1-.3.1-.3.2-.3 0-.6-.1-.9-.1-.4-.1-.8-.1-1.2-.2-.3-.1-.7-.2-.9-.4-.1-.1-.1-.1-.1-.2zm-7.9 6c-.1-.1-.2-.2-.2-.3-.1-.1-.2-.3-.3-.4-.3-.4-.6-.9-.7-1.4 0-.2 0-.2.1-.3.1.3.1.4.1.6.1.4.4.8.6 1.1.2.2.3.5.4.7zm-2.6-1.8c0-.3.3-.6.4-.8.2-.2.3-.3.4-.6.1-.1.2-.2.3-.2-.3.3-.5.5-.7.9-.3.3-.3.6-.4.9 0-.1.1-.2 0-.2zm7.3-6.8c.2 0 .2 0 .2.2l.8.8c.4.3.8.6 1.3.8-.2 0-.3-.1-.4-.1-.1-.1-.3-.2-.4-.3-.2-.2-.4-.3-.6-.4-.5-.4-.7-.8-.9-1zm-4.4 4.7c.2.7.3 1.3.7 1.9-.4-.1-.8-1.3-.7-1.9zm6.1.9c.1-.1.2 0 .2 0-.1.1-.1.1-.2 0z" fill="#821a5f"/></svg>