<?xml version="1.0" encoding="utf-8"?>
<!-- Generator: Adobe Illustrator 21.0.0, SVG Export Plug-In . SVG Version: 6.00 Build 0)  -->
<svg version="1.1" id="Layer_1" xmlns="http://www.w3.org/2000/svg" xmlns:xlink="http://www.w3.org/1999/xlink" x="0px" y="0px"
	 viewBox="0 0 30 29.1" style="enable-background:new 0 0 30 29.1;" xml:space="preserve">
<style type="text/css">
	.st0{fill:#FFFFFF;}
	.st1{fill:#B28E36;}
</style>
<g>
	<g>
		<path class="st0" d="M11,22.7c0.1,0,0.1,0,0.1-0.1c0,0,0-0.1,0-0.1c0-0.1,0.1-0.1,0.1-0.1c0.1,0,0.1,0.1,0.1,0.2c0,0,0,0.1,0,0.1
			c0.1,0,0.3,0,0.3-0.1c0.2-0.2,0.5-0.3,0.7-0.5c0.4-0.5,0.7-1.1,0.7-1.9c0-0.4,0-0.7,0-1.1c0-0.1,0-0.1,0.1-0.2
			c0,0.6,0.1,1.2,0,1.8c0,0.3-0.1,0.5-0.2,0.7c-0.1,0.1-0.1,0.3-0.2,0.5c0.3,0,0.5,0,0.7-0.1c0.6-0.3,1.1-0.7,1.5-1.2
			c0.2-0.2,0.4-0.5,0.5-0.8c0.3-0.5,0.3-1.1,0.3-1.7c0-0.1,0-0.2,0-0.3c0,0,0,0,0.1-0.1c0,0.1,0.1,0.2,0.1,0.3
			c0.1,0.7,0,1.3-0.3,1.9c-0.2,0.3-0.3,0.6-0.6,0.9c-0.1,0.1-0.2,0.3-0.3,0.5c0.5-0.1,1-0.3,1.4-0.6c0.3-0.2,0.5-0.4,0.7-0.7
			c0.5-0.6,0.9-1.3,1-2.1c0.1-0.5,0.1-1,0-1.5c0-0.2-0.1-0.4-0.1-0.6c0.2,0.2,0.4,1.5,0.3,2.1c-0.1,0.6-0.4,1.2-0.9,2
			c0.2,0,0.3,0,0.4-0.2c0.2-0.3,0.4-0.6,0.5-0.9c0.3-1.1,0.4-2.2,0.2-3.4c0-0.1,0-0.1,0-0.2c0,0,0,0,0,0c0.2,0.2,0.3,1.6,0.2,2.3
			c-0.1,0.8-0.2,1.6-0.7,2.3c0.1,0.1,0.1,0.1,0.2,0c0.9-0.4,1.8-0.9,2.3-1.7c0.2-0.3,0.4-0.7,0.6-1c0,0,0-0.1,0-0.1
			c0.2-0.2,0.3-0.5,0.3-0.8c0.1,0.3,0.1,0.5-0.1,0.9c0.4-0.2,0.8-0.3,1.2-0.6c0.3-0.2,0.5-0.4,0.6-0.7c0.1-0.2,0.1-0.4,0.2-0.5
			c0.2-0.3,0.2-0.6,0.2-0.8c0-0.1,0.1-0.2,0.1-0.3c0.2-0.4,0.3-0.9,0.3-1.4c0.1-0.4,0-0.9-0.2-1.3c-0.1-0.3-0.2-0.6-0.2-1
			c0.1,0,0.1,0.1,0.1,0.2c0.1,0.3,0.2,0.7,0.3,1c0.1,0.3,0.2,0.6,0.1,1c-0.1,0.4-0.1,0.7-0.2,1.1c0.1,0,0.1-0.1,0.1-0.2
			c0.2-0.4,0.5-0.8,0.7-1.2c0.4-1,0.9-2,1.3-3c0-0.1,0.1-0.2,0-0.2c0-0.3,0-0.6,0-0.9c0-0.2,0-0.4-0.1-0.6c0.2,0.2,0.3,0.6,0.4,0.9
			c0.4-0.5,0.5-1.1,0.2-1.6c-0.2-0.3-0.3-0.6-0.6-0.8c-0.1-0.1,0-0.2-0.1-0.3c0-0.1-0.1-0.2-0.1-0.2c-0.2-0.1-0.3-0.3-0.5-0.4
			c-0.5-0.4-1.2-0.7-1.8-0.9c0,0-0.1,0-0.1,0c0,0-0.1,0-0.2,0c0.1,0.2,0.3,0.2,0.4,0.2c0.1,0.1,0.3,0.2,0.4,0.3
			C23.7,4.9,23.9,5,24,5.1c-0.2-0.1-0.3-0.2-0.5-0.3c-0.2-0.1-0.3-0.2-0.6-0.3c0.2,0.3,0.4,0.5,0.6,0.7c0,0,0,0,0,0
			c-0.1-0.1-0.1-0.1-0.2-0.2c-0.3-0.3-0.7-0.5-1.1-0.8c-0.1-0.1-0.2-0.1-0.3-0.1c-0.3,0-0.6-0.1-0.9-0.2c-1-0.3-2-0.2-3,0.1
			c0,0-0.1,0-0.1,0.1c0.2,0,0.4,0,0.5,0.1c0.4,0,0.8,0.2,1.2,0.4c0.3,0.2,0.6,0.4,0.9,0.5c0.2,0.1,0.3,0.3,0.5,0.4
			c0.3,0.3,0.6,0.5,0.9,0.7c0.3,0.2,0.5,0.5,0.7,0.8c0.3,0.6,0.7,1.1,1,1.7c0.4,0.6,0.5,1.3,0.4,2c0,0.1,0,0.3,0,0.5
			c-0.1-0.2-0.1-0.3-0.1-0.5c0-0.3,0-0.6,0-0.8c0-0.4-0.2-0.8-0.4-1.2c-0.4-0.6-0.8-1.2-1.1-1.8c-0.1-0.2-0.3-0.3-0.4-0.5
			c-0.4-0.3-0.8-0.6-1.1-0.9c-0.2-0.2-0.5-0.3-0.7-0.5c-0.5-0.3-1-0.6-1.6-0.6c-0.5,0-0.9,0-1.3,0.2c-0.3,0.2-0.6,0.3-0.9,0.4
			c0,0-0.1,0-0.1,0c-0.3-0.1-0.5,0.1-0.7,0.2s-0.4,0.2-0.6,0.4c-0.1,0.1-0.2,0.2-0.3,0.3c0,0,0.1,0,0.1,0c0.4,0,0.8,0,1.2,0
			c0.6,0,1.2,0.1,1.8,0.4c0.5,0.3,1,0.5,1.4,0.9c0.4,0.3,0.7,0.7,0.9,1.2c-0.1,0-0.2-0.1-0.2-0.1c-0.3-0.4-0.6-0.8-1-1
			c-0.6-0.4-1.2-0.8-2-1c-0.3-0.1-0.6-0.1-1-0.1c-0.2,0-0.4,0-0.7,0c-0.2,0-0.5,0-0.7,0.1c0,0-0.1,0-0.1,0c-0.1-0.1-0.3,0-0.3,0.1
			c-0.1,0.1-0.3,0.2-0.4,0.4l0,0c-0.1,0-0.2,0.1-0.3,0.2c-0.2,0.3-0.6,0.5-0.8,0.7c-0.1,0.1-0.3,0.3-0.4,0.4c0.2,0.1,0.3,0.1,0.4,0
			c0.1-0.1,0.2,0,0.4,0c0.1,0,0,0.1,0,0.1c-0.2,0.1-0.3,0.2-0.5,0.1c-0.3-0.1-0.5,0-0.7,0.2c-0.2,0.2-0.4,0.2-0.7,0.3
			c-0.2,0-0.5,0.1-0.7,0.3c0.3,0,0.5,0.1,0.7,0.1c0.5,0,0.9,0.1,1.3,0.3c0.4,0.1,0.6,0.3,0.9,0.6c0.4,0.4,0.8,0.8,1.2,1.2
			c0.3,0.4,0.6,0.8,0.9,1.2c0.3,0.4,0.5,0.9,0.7,1.3c0,0,0,0.1,0,0.1c-0.5-1.1-1.3-1.9-2.1-2.8c0.1,0.2,0.1,0.4,0.3,0.6
			c0.2,0.4,0.4,0.7,0.6,1.1c0.2,0.4,0.2,0.8,0.3,1.2c0,0.3,0.1,0.6,0.1,1c0,0.1,0,0.2,0,0.3c-0.1-0.3-0.1-0.5-0.2-0.7
			c-0.1-0.3-0.1-0.6-0.1-0.9c-0.1-0.6-0.4-1.2-0.7-1.7c-0.1-0.2-0.2-0.3-0.3-0.5c-0.4-0.9-1.1-1.5-2-1.9c-0.3-0.2-0.7-0.1-1.1-0.2
			c-0.2,0-0.5,0-0.7,0C9.9,9.6,9.7,9.7,9.5,10c-0.6,0.8-1.2,1.7-1.9,2.5c-0.2,0.2-0.4,0.5-0.5,0.7c-0.4,0.6-0.8,1.2-1,1.9
			c0.2-0.1,0.4-0.3,0.6-0.4c0.2-0.1,0.3-0.2,0.5-0.2c0.2,0,0.3-0.1,0.5-0.1c0.4-0.1,0.7-0.1,1,0.1c0.4,0.2,0.7,0.4,1,0.7
			c0,0,0,0.1,0,0.1c-0.1,0-0.2,0-0.3-0.1c-0.3-0.3-0.6-0.4-0.9-0.5c-0.2-0.1-0.5-0.1-0.8,0c-0.2,0-0.3,0.1-0.5,0.1
			c-0.4,0.1-0.7,0.3-1,0.6c-0.1,0.1-0.2,0.2-0.3,0.4c-0.1,0.1-0.1,0.1-0.1,0.2c-0.1,0.6-0.2,1.2-0.4,1.8c0,0.2,0,0.3,0,0.5
			c0.6-0.4,1.2-0.4,1.8-0.3c0.3,0.1,0.7,0.2,0.9,0.5c-0.2,0-0.4-0.1-0.5-0.1c-0.5-0.2-1-0.2-1.6-0.1c-0.3,0-0.5,0.2-0.7,0.5
			c0.2-0.1,0.4-0.2,0.6-0.2c0.2,0,0.4,0,0.6,0c0.2,0,0.4,0.1,0.5,0.2c0.2,0.1,0.3,0.2,0.4,0.4c-0.1,0.1-0.1,0-0.2,0
			c-0.3-0.1-0.5-0.3-0.8-0.3c-0.5-0.1-0.9,0.1-1.2,0.4c0,0-0.1,0.1-0.1,0.1c-0.1,0.4-0.3,0.7-0.4,1.1c0.4,0,0.8,0,1.1,0.2
			c0.3,0.2,0.7,0.3,1,0.7c0.3,0.3,0.5,0.6,0.7,0.9c0,0,0,0-0.1,0c-0.1-0.1-0.1-0.1-0.1-0.2c-0.4-0.7-1.1-1.1-1.9-1.4
			c-0.3-0.1-0.7-0.1-1.1,0.1c-0.1,0.1-0.2,0.2-0.3,0.4c-0.3,0.5-0.6,1.1-0.6,1.8c0,0.3-0.1,0.6,0.1,0.9c0,0,0,0.1,0.1,0.1
			c0.1,0,0.1-0.1,0.2-0.2c0.1,0,0.1-0.1,0.1,0c0,0,0,0.1,0,0.2C4.1,24,4,24,4,24.1c-0.1,0.1,0,0.2,0.1,0.2c0.1,0,0.2,0,0.2,0.2
			c0,0,0.1,0,0.1,0c0.1-0.1,0.1-0.2,0.2-0.2C4.6,24.1,4.7,24,4.9,24c0,0.2-0.1,0.2-0.2,0.3c-0.1,0.1-0.2,0.2-0.2,0.3
			s0.2,0.1,0.3,0.1c0.3,0,0.5,0,0.8-0.1c0.5-0.2,0.9-0.4,1.3-0.9c0.1-0.1,0.2-0.3,0.3-0.4c0.2-0.3,0.4-0.5,0.8-0.6
			c0.5-0.2,0.8-0.5,1.1-0.9c0.3-0.3,0.4-0.7,0.4-1.1c0-0.3,0-0.5,0-0.8c0.1,0.1,0.1,0.3,0.1,0.5c0,0.3,0,0.6,0,0.8
			c0,0.2,0,0.4-0.2,0.5c-0.1,0.1-0.1,0.2-0.2,0.2c-0.1,0.1-0.1,0.2,0,0.3c-0.4,0-0.4,0.3-0.7,0.4c0.2,0.1,0.9,0.1,1.2,0.1l0,0
			C10.2,22.8,10.6,22.7,11,22.7z"/>
	</g>
	<path class="st1" d="M22.3,3.1c0.8,0.3,1.5,0.7,2.2,1.2c0.1,0.1,0.3,0.2,0.3,0.4c0,0,0,0.1,0.1,0.1C25,5,25.1,5.1,25.3,5.2
		c0.1,0.1,0.2,0.1,0.3,0c0.3-0.4,0.9-0.4,1.4-0.5c-0.1,0.1-0.1,0.1-0.2,0.2c-0.2,0.1-0.3,0.1-0.5,0.1c-0.2,0-0.4,0.1-0.6,0.3
		c-0.1,0.1,0,0.6,0.1,0.6C26,5.8,26.1,6,26.3,6c0.4-0.1,0.8-0.1,1.2-0.3c0.4-0.2,0.8-0.6,1.1-0.9c0.2-0.2,0.3-0.3,0.6-0.4
		c-0.3,0.4-0.7,0.7-1.1,1c-0.4,0.4-0.9,0.6-1.5,0.7c-0.1,0-0.2,0-0.3,0.1c0.1,0.2,0.3,0.2,0.5,0.2c0.4,0.1,0.6,0.2,0.9,0.5
		c0.1,0.2,0.3,0.4,0.5,0.6c-0.2,0-0.3-0.1-0.4-0.2c-0.1-0.2-0.2-0.3-0.4-0.4c-0.2-0.1-0.4-0.3-0.7-0.2c0,0.2,0.1,0.3,0.2,0.4
		c0.3,0.4,0.7,0.7,1.1,0.9c0.2,0.1,0.3,0.2,0.4,0.3c0,0,0,0.1,0,0.1c0,0.1-0.1,0-0.1,0c-0.1,0-0.1,0-0.2-0.1
		c-0.2-0.1-0.4-0.2-0.6-0.3c-0.3-0.2-0.6-0.4-0.8-0.7c0,0-0.1,0-0.1,0.1c0,0.6-0.3,1-0.5,1.5c0,0.1,0,0.1-0.1,0.1
		c-0.1,0.1-0.2,0.2-0.2,0.3c-0.3,0.7-0.6,1.3-0.9,2c-0.3,0.7-0.6,1.3-0.9,1.9c-0.3,0.6-0.7,1.2-0.9,1.9c-0.1,0.2-0.2,0.5-0.3,0.7
		c-0.1,0.3-0.3,0.6-0.6,0.7c-0.3,0.2-0.7,0.5-1.1,0.6c-0.1,0-0.2,0.1-0.2,0.1c-0.2,0.1-0.4,0.2-0.4,0.5c0,0.1-0.1,0.2-0.1,0.2
		c-0.5,0.8-1.3,1.4-2.2,1.8c-0.6,0.3-0.7,0.3-0.8,1.1c0,0,0,0.1,0,0.1c0,0.2,0,0.3,0,0.4c-0.1-0.5,0-1,0.1-1.5
		c-0.2,0-0.3,0.2-0.5,0.2c-0.2,0-0.3,0.1-0.4,0.3c-0.3,0.3-0.6,0.6-1,0.7c-0.4,0.1-0.8,0.3-1.2,0.3c0,0-0.1,0-0.1,0
		c-0.2,0.1-0.4,0.2-0.5,0.3c-0.3,0.2-0.6,0.3-0.9,0.3c-0.1,0-0.1,0-0.2,0c-0.1,0.2-0.3,0.2-0.5,0.4c-0.2,0.2-0.5,0.3-0.8,0.3
		c-0.6,0-1.1,0.1-1.7,0.1c0,0-0.1,0-0.1,0c-0.4,0-0.8,0-1.2,0c-0.2,0-0.4,0.1-0.6,0.3c-0.2,0.2-0.4,0.4-0.5,0.6
		c-0.2,0.4-0.6,0.6-1,0.8C5.6,25,5,25.2,4.4,24.9c-0.1,0-0.1,0-0.2,0.1c-0.1,0.2-0.1,0.4-0.1,0.6c0.1,0.5,0.1,0.9,0.2,1.4
		c0,0.1,0,0.1,0,0.2c0,0.1,0,0.1-0.1,0.1c-0.1,0-0.1,0-0.1-0.1c0-0.1,0-0.1,0-0.2c-0.1-0.4-0.1-0.8-0.2-1.2c-0.1-0.3,0-0.6,0.1-0.9
		c0-0.1,0-0.1,0.1-0.2c0,0,0-0.1,0-0.1c0,0-0.1,0-0.1,0c-0.2,0.2-0.3,0.5-0.4,0.8c-0.1,0.4-0.1,0.8-0.2,1.3
		c-0.1-0.1-0.1-0.2-0.1-0.4c0-0.6,0.1-1.3,0.5-1.8c0,0,0,0,0,0c0-0.1,0.1-0.1,0-0.1c-0.1-0.1-0.1,0-0.1,0.1
		c-0.1,0.2-0.3,0.4-0.4,0.5c-0.2,0.2-0.3,0.5-0.4,0.7c-0.1,0.2-0.1,0.5-0.2,0.8c0,0.1,0,0.2-0.1,0.2c-0.1,0-0.1,0.1-0.2,0.2
		c-0.1,0.2-0.2,0.4-0.3,0.6C2.1,27.7,2,27.9,1.8,28c0,0,0-0.1,0-0.1c0.5-0.7,0.8-1.5,0.9-2.4c0-0.3,0.1-0.6,0.4-0.8
		c0.2-0.1,0.3-0.3,0.5-0.4c0.1-0.1,0.1-0.1,0.1-0.2c-0.1-0.1-0.1-0.3-0.1-0.4c-0.1-0.7,0.1-1.4,0.4-2c0.2-0.4,0.5-0.8,0.8-1.2
		c0.1-0.1,0.2-0.2,0.2-0.4c0.1-0.3,0.1-0.5,0.2-0.8c0.1-0.2,0.1-0.4,0.1-0.6c0-0.5,0.1-1,0.2-1.5c0-0.1,0-0.1,0-0.2
		c0-0.2,0-0.5,0.1-0.7c0.2-0.7,0.5-1.3,0.8-1.9c0.1-0.1,0.1-0.3,0.2-0.4c0.3-0.4,0.6-0.9,0.9-1.3c0.3-0.4,0.6-0.7,0.9-1.1
		c0.1-0.2,0.3-0.3,0.3-0.5c0.1-0.2,0.2-0.4,0.3-0.5c0.1-0.1,0.1-0.1,0.1-0.2c0-0.2,0.1-0.3,0.3-0.4c0.1,0,0.1,0,0.2-0.1
		c0.2-0.2,0.4-0.3,0.6-0.6c0.2-0.2,0.4-0.2,0.6-0.3c0.2,0,0.3-0.1,0.5-0.1c0.2,0,0.3-0.1,0.4-0.2c0.2-0.2,0.2-0.1,0-0.4
		c-0.2-0.2-0.3-0.3-0.4-0.5c0.1,0,0.1,0.1,0.2,0.1c0.1,0.1,0.2,0.3,0.4,0.4c0.1,0.1,0.2,0.1,0.3,0c0.3-0.3,0.6-0.6,1-0.9
		c0.4-0.3,0.7-0.7,1.2-1c0,0,0,0,0,0c0.2-0.2,0.5-0.4,0.8-0.6c0.3-0.3,0.7-0.6,1.2-0.7c0.5-0.2,1-0.4,1.5-0.6
		C17.9,4.1,18.1,4,18.3,4c0.4-0.1,0.9-0.2,1.4-0.2c0.5,0,0.9,0,1.4,0.2c0.6,0.2,1.1,0.3,1.7,0.2c0.1,0,0.1,0,0.2,0
		c0.2,0,0.4,0.1,0.6,0.2c0.2,0.1,0.3,0.1,0.5,0.2c0-0.1-0.1-0.1-0.1-0.2c-0.5-0.3-1-0.6-1.5-0.8c-0.1,0-0.2-0.1-0.3-0.1
		C22,3.2,21.9,3,21.9,2.8C22,2.9,22.1,3,22.3,3.1z M11,22.7c0.1,0,0.1,0,0.1-0.1c0,0,0-0.1,0-0.1c0-0.1,0.1-0.1,0.1-0.1
		c0.1,0,0.1,0.1,0.1,0.2c0,0,0,0.1,0,0.1c0.1,0,0.3,0,0.3-0.1c0.2-0.2,0.5-0.3,0.7-0.5c0.4-0.5,0.7-1.1,0.7-1.9c0-0.4,0-0.7,0-1.1
		c0-0.1,0-0.1,0.1-0.2c0,0.6,0.1,1.2,0,1.8c0,0.3-0.1,0.5-0.2,0.7c-0.1,0.1-0.1,0.3-0.2,0.5c0.3,0,0.5,0,0.7-0.1
		c0.6-0.3,1.1-0.7,1.5-1.2c0.2-0.2,0.4-0.5,0.5-0.8c0.3-0.5,0.3-1.1,0.3-1.7c0-0.1,0-0.2,0-0.3c0,0,0,0,0.1-0.1
		c0,0.1,0.1,0.2,0.1,0.3c0.1,0.7,0,1.3-0.3,1.9c-0.2,0.3-0.3,0.6-0.6,0.9c-0.1,0.1-0.2,0.3-0.3,0.5c0.5-0.1,1-0.3,1.4-0.6
		c0.3-0.2,0.5-0.4,0.7-0.7c0.5-0.6,0.9-1.3,1-2.1c0.1-0.5,0.1-1,0-1.5c0-0.2-0.1-0.4-0.1-0.6c0.2,0.2,0.4,1.5,0.3,2.1
		c-0.1,0.6-0.4,1.2-0.9,2c0.2,0,0.3,0,0.4-0.2c0.2-0.3,0.4-0.6,0.5-0.9c0.3-1.1,0.4-2.2,0.2-3.4c0-0.1,0-0.1,0-0.2c0,0,0,0,0,0
		c0.2,0.2,0.3,1.6,0.2,2.3c-0.1,0.8-0.2,1.6-0.7,2.3c0.1,0.1,0.1,0.1,0.2,0c0.9-0.4,1.8-0.9,2.3-1.7c0.2-0.3,0.4-0.7,0.6-1
		c0,0,0-0.1,0-0.1c0.2-0.2,0.3-0.5,0.3-0.8c0.1,0.3,0.1,0.5-0.1,0.9c0.4-0.2,0.8-0.3,1.2-0.6c0.3-0.2,0.5-0.4,0.6-0.7
		c0.1-0.2,0.1-0.4,0.2-0.5c0.2-0.3,0.2-0.6,0.2-0.8c0-0.1,0.1-0.2,0.1-0.3c0.2-0.4,0.3-0.9,0.3-1.4c0.1-0.4,0-0.9-0.2-1.3
		c-0.1-0.3-0.2-0.6-0.2-1c0.1,0,0.1,0.1,0.1,0.2c0.1,0.3,0.2,0.7,0.3,1c0.1,0.3,0.2,0.6,0.1,1c-0.1,0.4-0.1,0.7-0.2,1.1
		c0.1,0,0.1-0.1,0.1-0.2c0.2-0.4,0.5-0.8,0.7-1.2c0.4-1,0.9-2,1.3-3c0-0.1,0.1-0.2,0-0.2c0-0.3,0-0.6,0-0.9c0-0.2,0-0.4-0.1-0.6
		c0.2,0.2,0.3,0.6,0.4,0.9c0.4-0.5,0.5-1.1,0.2-1.6c-0.2-0.3-0.3-0.6-0.6-0.8c-0.1-0.1,0-0.2-0.1-0.3c0-0.1-0.1-0.2-0.1-0.2
		c-0.2-0.1-0.3-0.3-0.5-0.4c-0.5-0.4-1.2-0.7-1.8-0.9c0,0-0.1,0-0.1,0c0,0-0.1,0-0.2,0c0.1,0.2,0.3,0.2,0.4,0.2
		c0.1,0.1,0.3,0.2,0.4,0.3C23.7,4.9,23.9,5,24,5.1c-0.2-0.1-0.3-0.2-0.5-0.3c-0.2-0.1-0.3-0.2-0.6-0.3c0.2,0.3,0.4,0.5,0.6,0.7
		c0,0,0,0,0,0c-0.1-0.1-0.1-0.1-0.2-0.2c-0.3-0.3-0.7-0.5-1.1-0.8c-0.1-0.1-0.2-0.1-0.3-0.1c-0.3,0-0.6-0.1-0.9-0.2
		c-1-0.3-2-0.2-3,0.1c0,0-0.1,0-0.1,0.1c0.2,0,0.4,0,0.5,0.1c0.4,0,0.8,0.2,1.2,0.4c0.3,0.2,0.6,0.4,0.9,0.5
		c0.2,0.1,0.3,0.3,0.5,0.4c0.3,0.3,0.6,0.5,0.9,0.7c0.3,0.2,0.5,0.5,0.7,0.8c0.3,0.6,0.7,1.1,1,1.7c0.4,0.6,0.5,1.3,0.4,2
		c0,0.1,0,0.3,0,0.5c-0.1-0.2-0.1-0.3-0.1-0.5c0-0.3,0-0.6,0-0.8c0-0.4-0.2-0.8-0.4-1.2c-0.4-0.6-0.8-1.2-1.1-1.8
		c-0.1-0.2-0.3-0.3-0.4-0.5c-0.4-0.3-0.8-0.6-1.1-0.9c-0.2-0.2-0.5-0.3-0.7-0.5c-0.5-0.3-1-0.6-1.6-0.6c-0.5,0-0.9,0-1.3,0.2
		c-0.3,0.2-0.6,0.3-0.9,0.4c0,0-0.1,0-0.1,0c-0.3-0.1-0.5,0.1-0.7,0.2s-0.4,0.2-0.6,0.4c-0.1,0.1-0.2,0.2-0.3,0.3c0,0,0.1,0,0.1,0
		c0.4,0,0.8,0,1.2,0c0.6,0,1.2,0.1,1.8,0.4c0.5,0.3,1,0.5,1.4,0.9c0.4,0.3,0.7,0.7,0.9,1.2c-0.1,0-0.2-0.1-0.2-0.1
		c-0.3-0.4-0.6-0.8-1-1c-0.6-0.4-1.2-0.8-2-1c-0.3-0.1-0.6-0.1-1-0.1c-0.2,0-0.4,0-0.7,0c-0.2,0-0.5,0-0.7,0.1c0,0-0.1,0-0.1,0
		c-0.1-0.1-0.3,0-0.3,0.1c-0.1,0.1-0.3,0.2-0.4,0.4l0,0c-0.1,0-0.2,0.1-0.3,0.2c-0.2,0.3-0.6,0.5-0.8,0.7c-0.1,0.1-0.3,0.3-0.4,0.4
		c0.2,0.1,0.3,0.1,0.4,0c0.1-0.1,0.2,0,0.4,0c0.1,0,0,0.1,0,0.1c-0.2,0.1-0.3,0.2-0.5,0.1c-0.3-0.1-0.5,0-0.7,0.2
		c-0.2,0.2-0.4,0.2-0.7,0.3c-0.2,0-0.5,0.1-0.7,0.3c0.3,0,0.5,0.1,0.7,0.1c0.5,0,0.9,0.1,1.3,0.3c0.4,0.1,0.6,0.3,0.9,0.6
		c0.4,0.4,0.8,0.8,1.2,1.2c0.3,0.4,0.6,0.8,0.9,1.2c0.3,0.4,0.5,0.9,0.7,1.3c0,0,0,0.1,0,0.1c-0.5-1.1-1.3-1.9-2.1-2.8
		c0.1,0.2,0.1,0.4,0.3,0.6c0.2,0.4,0.4,0.7,0.6,1.1c0.2,0.4,0.2,0.8,0.3,1.2c0,0.3,0.1,0.6,0.1,1c0,0.1,0,0.2,0,0.3
		c-0.1-0.3-0.1-0.5-0.2-0.7c-0.1-0.3-0.1-0.6-0.1-0.9c-0.1-0.6-0.4-1.2-0.7-1.7c-0.1-0.2-0.2-0.3-0.3-0.5c-0.4-0.9-1.1-1.5-2-1.9
		c-0.3-0.2-0.7-0.1-1.1-0.2c-0.2,0-0.5,0-0.7,0C9.9,9.6,9.7,9.7,9.5,10c-0.6,0.8-1.2,1.7-1.9,2.5c-0.2,0.2-0.4,0.5-0.5,0.7
		c-0.4,0.6-0.8,1.2-1,1.9c0.2-0.1,0.4-0.3,0.6-0.4c0.2-0.1,0.3-0.2,0.5-0.2c0.2,0,0.3-0.1,0.5-0.1c0.4-0.1,0.7-0.1,1,0.1
		c0.4,0.2,0.7,0.4,1,0.7c0,0,0,0.1,0,0.1c-0.1,0-0.2,0-0.3-0.1c-0.3-0.3-0.6-0.4-0.9-0.5c-0.2-0.1-0.5-0.1-0.8,0
		c-0.2,0-0.3,0.1-0.5,0.1c-0.4,0.1-0.7,0.3-1,0.6c-0.1,0.1-0.2,0.2-0.3,0.4c-0.1,0.1-0.1,0.1-0.1,0.2c-0.1,0.6-0.2,1.2-0.4,1.8
		c0,0.2,0,0.3,0,0.5c0.6-0.4,1.2-0.4,1.8-0.3c0.3,0.1,0.7,0.2,0.9,0.5c-0.2,0-0.4-0.1-0.5-0.1c-0.5-0.2-1-0.2-1.6-0.1
		c-0.3,0-0.5,0.2-0.7,0.5c0.2-0.1,0.4-0.2,0.6-0.2c0.2,0,0.4,0,0.6,0c0.2,0,0.4,0.1,0.5,0.2c0.2,0.1,0.3,0.2,0.4,0.4
		c-0.1,0.1-0.1,0-0.2,0c-0.3-0.1-0.5-0.3-0.8-0.3c-0.5-0.1-0.9,0.1-1.2,0.4c0,0-0.1,0.1-0.1,0.1c-0.1,0.4-0.3,0.7-0.4,1.1
		c0.4,0,0.8,0,1.1,0.2c0.3,0.2,0.7,0.3,1,0.7c0.3,0.3,0.5,0.6,0.7,0.9c0,0,0,0-0.1,0c-0.1-0.1-0.1-0.1-0.1-0.2
		c-0.4-0.7-1.1-1.1-1.9-1.4c-0.3-0.1-0.7-0.1-1.1,0.1c-0.1,0.1-0.2,0.2-0.3,0.4c-0.3,0.5-0.6,1.1-0.6,1.8c0,0.3-0.1,0.6,0.1,0.9
		c0,0,0,0.1,0.1,0.1c0.1,0,0.1-0.1,0.2-0.2c0.1,0,0.1-0.1,0.1,0c0,0,0,0.1,0,0.2C4.1,24,4,24,4,24.1c-0.1,0.1,0,0.2,0.1,0.2
		c0.1,0,0.2,0,0.2,0.2c0,0,0.1,0,0.1,0c0.1-0.1,0.1-0.2,0.2-0.2C4.6,24.1,4.7,24,4.9,24c0,0.2-0.1,0.2-0.2,0.3
		c-0.1,0.1-0.2,0.2-0.2,0.3s0.2,0.1,0.3,0.1c0.3,0,0.5,0,0.8-0.1c0.5-0.2,0.9-0.4,1.3-0.9c0.1-0.1,0.2-0.3,0.3-0.4
		c0.2-0.3,0.4-0.5,0.8-0.6c0.5-0.2,0.8-0.5,1.1-0.9c0.3-0.3,0.4-0.7,0.4-1.1c0-0.3,0-0.5,0-0.8c0.1,0.1,0.1,0.3,0.1,0.5
		c0,0.3,0,0.6,0,0.8c0,0.2,0,0.4-0.2,0.5c-0.1,0.1-0.1,0.2-0.2,0.2c-0.1,0.1-0.1,0.2,0,0.3c-0.4,0-0.4,0.3-0.7,0.4
		c0.2,0.1,0.9,0.1,1.2,0.1l0,0C10.2,22.8,10.6,22.7,11,22.7z M11.2,21.9C11.2,21.9,11.2,21.9,11.2,21.9c-0.1-0.1-0.1,0-0.1,0
		c0,0.1,0.1,0.1,0,0.2c0,0,0,0.1,0,0.1c0,0.1,0,0.1,0.1,0.1c0,0,0.1,0,0.1-0.1c0-0.1,0-0.1-0.1-0.1c0,0-0.1,0-0.1,0
		C11.1,22,11.2,22,11.2,21.9z M14.4,7.3c0,0,0.1-0.1,0.1-0.1c0,0-0.1,0-0.1,0c-0.1,0-0.1,0.1-0.1,0.1C14.3,7.3,14.3,7.3,14.4,7.3
		c0,0.1,0,0.2-0.1,0.3c0,0.1-0.1,0.1,0,0.2c0.1-0.1,0.1-0.2,0.1-0.4c0-0.1-0.1-0.1-0.2-0.1C14.3,7.4,14.4,7.3,14.4,7.3z M21.2,12.8
		c0,0-0.1,0.1,0,0.1c0,0,0,0,0.1,0C21.3,12.8,21.3,12.8,21.2,12.8C21.2,12.7,21.2,12.7,21.2,12.8c0.1-0.1,0.2-0.2,0.3-0.1
		c0.1,0.1,0.1,0,0.1-0.1c0-0.1,0-0.2,0.2-0.3c0.1,0,0-0.1,0-0.1c0,0-0.1,0-0.1,0c-0.1,0-0.2-0.1-0.2-0.2c-0.1-0.1-0.2-0.1-0.2,0
		c-0.1,0.3-0.2,0.6-0.2,0.9c0,0,0,0,0.1,0.1c0.1-0.2,0-0.5,0.3-0.4c0,0.1-0.2,0-0.2,0.2C21.1,12.7,21.2,12.7,21.2,12.8
		C21.2,12.7,21.2,12.7,21.2,12.8z M7.2,16.4c0.1,0,0.2-0.1,0.2,0c0,0,0.1,0,0.1,0c0.3,0,0.5,0.1,0.8,0.1c0.6,0.2,1,0.6,1.2,1.2
		c0.1,0.2,0.1,0.4,0.2,0.6c0-0.2,0-0.4-0.1-0.6c-0.1-0.5-0.4-1-0.9-1.3c-0.1-0.1-0.2-0.1-0.4-0.2c-0.3-0.1-0.7-0.2-1-0.3
		c0.1-0.2,0.3-0.3,0.5-0.3c0.6,0,1.2,0.2,1.7,0.6c0.2,0.2,0.3,0.4,0.4,0.7c0.1,0.1,0.1,0.3,0.2,0.4c0.1-0.1,0-0.1,0-0.2
		c-0.1-0.3-0.2-0.6-0.3-0.9c-0.2-0.4-0.6-0.6-1-0.8c-0.2-0.1-0.4-0.1-0.6-0.1c-0.3-0.1-0.6,0-0.8,0.2C7.4,16,7.2,16.1,7,16.3
		c-0.1,0.1-0.2,0.1-0.3,0.1c-0.2,0-0.3,0.1-0.4,0.3C6.5,16.6,6.9,16.5,7.2,16.4z M12.8,18.7c0-0.3,0-0.7,0-1c0-0.4-0.1-0.7-0.3-0.9
		c-0.1-0.2-0.2-0.4-0.4-0.6c-0.1,0.1,0,0.1,0,0.2c0.1,0.2,0.2,0.4,0.3,0.6c0.2,0.3,0.3,0.7,0.3,1c0,0.1,0,0.3,0,0.4
		C12.6,18.5,12.7,18.6,12.8,18.7C12.8,18.7,12.8,18.7,12.8,18.7z M6,21.1c-0.1-0.1-0.2-0.1-0.2-0.1c-0.1,0-0.1,0-0.1,0
		c0,0.1,0,0.1,0.1,0.2c0,0,0,0,0.1,0c0.3,0.2,0.6,0.5,0.7,0.9c0.1,0.2,0.2,0.4,0.3,0.6C6.6,22.1,6.5,21.5,6,21.1z M16.2,16.6
		c-0.1-0.7-0.2-1.4-0.4-2c0-0.1-0.1-0.2-0.1-0.2c0,0-0.1,0-0.1,0s-0.1,0.1,0,0.1c0.3,0.5,0.3,1,0.4,1.6c0.1,0.3,0.1,0.5,0.1,0.8
		C16.2,16.7,16.2,16.7,16.2,16.6z M16.6,16.4c-0.1-0.3-0.1-0.5-0.2-0.8c0-0.1,0-0.1-0.1-0.1c0,0-0.1,0,0,0.1
		c0.2,0.6,0.2,1.2,0.2,1.9C16.6,17.1,16.7,16.8,16.6,16.4z M15.4,6.8c0.1,0,0.2,0,0.2-0.1c0-0.1,0-0.1-0.1-0.1c-0.1,0-0.1,0-0.2,0.1
		C15.3,6.8,15.4,6.8,15.4,6.8z M21.1,15.4C21.1,15.4,21.1,15.4,21.1,15.4c0.1,0,0.1-0.1,0.1-0.1c0,0-0.1-0.1-0.1-0.1
		c0,0-0.1,0-0.1,0C20.9,15.3,21,15.3,21.1,15.4z M14.2,6.9c0.1,0.1,0.1-0.1,0.2-0.1c0,0,0.1-0.1,0-0.1c0,0,0-0.1-0.1,0
		C14.3,6.7,14.2,6.8,14.2,6.9C14.2,6.9,14.2,6.9,14.2,6.9z M11,15.1C11,15,11,15,11,15.1c-0.1-0.1-0.2,0-0.2,0c0,0.1,0,0.1,0.1,0.2
		C11,15.2,11,15.1,11,15.1z M10.7,15.4c0.1,0,0.1-0.1,0.1-0.1c0-0.1,0-0.1-0.1-0.1c-0.1,0-0.1,0.1-0.1,0.1
		C10.6,15.3,10.6,15.4,10.7,15.4z M12.4,11c0-0.1-0.1-0.1-0.1-0.1c0,0-0.1,0-0.1,0.1c0,0.1,0,0.1,0.1,0.1C12.3,11,12.4,11,12.4,11z
		 M11.2,13.3C11.2,13.3,11.2,13.3,11.2,13.3c0.1,0.1,0.1,0.1,0.1,0c0-0.1,0-0.1,0-0.2C11.2,13.1,11.2,13.2,11.2,13.3z M12.4,13
		c0-0.1,0-0.1-0.1-0.1c-0.1,0-0.1,0-0.1,0.1c0,0.1,0,0.1,0.1,0.1C12.3,13.1,12.3,13.1,12.4,13z M9.9,22.1c0.1,0,0.1,0,0.1-0.1
		C10,22,10,22,9.9,22c-0.1,0-0.1,0-0.1,0.1C9.8,22.1,9.8,22.1,9.9,22.1z M11.4,14.3C11.5,14.3,11.5,14.3,11.4,14.3
		c0.1-0.1,0.1-0.2,0-0.2c-0.1,0-0.1,0-0.1,0.1C11.4,14.3,11.4,14.3,11.4,14.3z M14.7,7.1C14.7,7.1,14.8,7.1,14.7,7.1
		c0.1-0.1,0-0.1,0-0.2C14.6,6.9,14.6,7,14.7,7.1C14.6,7.1,14.6,7.1,14.7,7.1z M11.2,15.9C11.2,16,11.3,16,11.2,15.9
		C11.3,15.9,11.3,15.9,11.2,15.9c0-0.1,0-0.2-0.1-0.3C11.1,15.8,11.2,15.9,11.2,15.9z M15.8,7.5C15.8,7.5,15.9,7.4,15.8,7.5
		c0.1-0.1,0.1-0.1,0.1-0.2c0,0-0.1,0-0.1,0.1C15.7,7.4,15.7,7.4,15.8,7.5z M12,14.1C12,14.1,12.1,14.1,12,14.1
		c0.1-0.1,0.1-0.2,0-0.2c0,0-0.1,0-0.1,0.1C11.9,14,11.9,14.1,12,14.1z M15.8,6.9C15.7,6.9,15.7,6.9,15.8,6.9
		c-0.1,0.1-0.1,0.2,0,0.2c0.1,0,0.1,0,0.1-0.1C15.8,6.9,15.8,6.9,15.8,6.9z M10.8,16C10.8,16,10.8,16,10.8,16
		c-0.1,0.1-0.1,0.2,0,0.2C10.9,16.2,10.9,16.2,10.8,16C10.9,16.1,10.9,16,10.8,16z M20.7,15.5C20.7,15.4,20.7,15.4,20.7,15.5
		c-0.1-0.1-0.1-0.1-0.1-0.1c0,0.1,0,0.1,0,0.2C20.7,15.6,20.7,15.5,20.7,15.5z M9.6,12.9C9.7,13,9.7,12.9,9.6,12.9
		c0.1-0.1,0.1-0.2,0-0.2c0,0-0.1,0-0.1,0C9.6,12.9,9.6,12.9,9.6,12.9z M17.6,7.3C17.7,7.3,17.7,7.3,17.6,7.3c0.1-0.1,0-0.2,0-0.2
		C17.6,7.1,17.6,7.2,17.6,7.3C17.6,7.3,17.6,7.3,17.6,7.3z M15.4,7.1C15.4,7.2,15.5,7.2,15.4,7.1c0.1,0.1,0.1,0.1,0.1,0
		C15.6,7.1,15.6,7.1,15.4,7.1C15.5,7,15.4,7.1,15.4,7.1z M10.3,22.5c0-0.1,0-0.1-0.1-0.1c-0.1,0-0.1,0-0.1,0.1S10.1,22.6,10.3,22.5
		C10.2,22.6,10.3,22.6,10.3,22.5z M10.9,22.1C10.8,22.1,10.8,22.1,10.9,22.1c-0.1,0.1-0.1,0.2,0,0.2c0,0,0.1,0,0.1-0.1
		C11,22.1,10.9,22.1,10.9,22.1z M11.8,22.2C11.8,22.2,11.8,22.2,11.8,22.2c-0.1-0.1-0.1-0.1-0.1,0C11.6,22.2,11.6,22.3,11.8,22.2
		C11.7,22.3,11.8,22.3,11.8,22.2z M12.3,17.6C12.3,17.6,12.4,17.6,12.3,17.6c0.1-0.1,0.1-0.2,0-0.2c0,0-0.1,0-0.1,0.1
		C12.2,17.6,12.2,17.6,12.3,17.6z M13.3,7.6C13.3,7.7,13.3,7.7,13.3,7.6c0.1,0.1,0.1,0.1,0.2,0C13.5,7.6,13.5,7.6,13.3,7.6
		C13.4,7.6,13.3,7.6,13.3,7.6z M15.7,8.2C15.7,8.2,15.7,8.1,15.7,8.2c-0.1-0.1-0.1-0.1-0.2,0C15.5,8.2,15.6,8.3,15.7,8.2
		C15.7,8.3,15.7,8.3,15.7,8.2z M11,15.5C11,15.4,11,15.4,11,15.5c-0.1-0.1-0.1-0.1-0.2,0C10.8,15.5,10.9,15.5,11,15.5
		C11,15.6,11,15.5,11,15.5z M20.4,15.3C20.4,15.3,20.4,15.2,20.4,15.3c0.1-0.1,0.1-0.1,0-0.1C20.4,15.1,20.3,15.1,20.4,15.3
		C20.3,15.2,20.3,15.3,20.4,15.3z M11.5,16.2C11.5,16.1,11.5,16.1,11.5,16.2c-0.1-0.1-0.1-0.1-0.2,0C11.4,16.2,11.4,16.2,11.5,16.2
		C11.5,16.2,11.5,16.2,11.5,16.2z M14,7.6C14.1,7.6,14.1,7.6,14,7.6c0.1-0.1,0.1-0.1,0-0.1c0,0-0.1,0-0.1,0C14,7.5,14,7.6,14,7.6z
		 M16.7,8.1c0.1,0,0.1,0,0.1-0.1c0,0,0-0.1-0.1-0.1C16.7,8,16.7,8,16.7,8.1C16.7,8.1,16.7,8.1,16.7,8.1z M11.3,16.4
		C11.3,16.5,11.3,16.4,11.3,16.4c0.1-0.1,0.1-0.1,0-0.1c0,0-0.1,0-0.1,0C11.2,16.4,11.2,16.4,11.3,16.4z M20.4,14.8
		c0.1,0,0.1,0,0.1-0.1c0,0,0-0.1,0-0.1C20.4,14.7,20.3,14.7,20.4,14.8C20.3,14.8,20.3,14.8,20.4,14.8z M11.9,15.7
		C11.9,15.7,11.9,15.7,11.9,15.7c0.1-0.1,0.1-0.2,0-0.2c0,0-0.1,0-0.1,0.1C11.8,15.6,11.8,15.7,11.9,15.7z M10.5,14.8
		c0-0.1,0-0.1-0.1-0.1c0,0-0.1,0-0.1,0.1C10.3,14.8,10.4,14.8,10.5,14.8C10.4,14.9,10.4,14.8,10.5,14.8z M15.4,8.6
		C15.4,8.6,15.5,8.6,15.4,8.6c0.1-0.1,0.1-0.1,0-0.1C15.3,8.5,15.3,8.5,15.4,8.6C15.3,8.6,15.3,8.6,15.4,8.6z M12.1,15
		C12.1,15,12.2,15,12.1,15c0.1-0.1,0-0.2,0-0.2c0,0-0.1,0-0.1,0.1C12,15,12,15,12.1,15z M11.7,13.5c0-0.1,0-0.1-0.1-0.1
		c0,0-0.1,0-0.1,0C11.6,13.5,11.6,13.5,11.7,13.5C11.7,13.6,11.7,13.5,11.7,13.5z M10.2,14.2C10.3,14.2,10.3,14.2,10.2,14.2
		c0.1-0.1,0-0.1,0-0.1c0,0-0.1,0-0.1,0.1C10.2,14.2,10.2,14.2,10.2,14.2z M11.2,14.3C11.1,14.3,11.1,14.3,11.2,14.3
		c-0.1,0.1-0.1,0.1,0,0.2C11.2,14.5,11.2,14.4,11.2,14.3C11.2,14.3,11.2,14.3,11.2,14.3z M22.7,11.1C22.7,11.1,22.7,11.2,22.7,11.1
		c0.1,0.1,0.1,0.1,0.1,0C22.8,11.1,22.8,11,22.7,11.1C22.7,11,22.7,11.1,22.7,11.1z M11.2,13.9c0.1,0,0.1,0,0.1-0.1c0,0,0-0.1,0-0.1
		c-0.1,0-0.1,0-0.1,0.1C11.2,13.9,11.2,13.9,11.2,13.9z M11,13.7C11,13.7,11,13.7,11,13.7c0.1-0.1,0.1-0.2,0-0.2c0,0-0.1,0-0.1,0
		C10.9,13.7,10.9,13.7,11,13.7z M10.2,13.3C10.2,13.3,10.3,13.3,10.2,13.3c0.1-0.1,0.1-0.1,0-0.1C10.2,13.2,10.1,13.2,10.2,13.3
		C10.1,13.2,10.1,13.3,10.2,13.3z M10.4,22.3C10.5,22.3,10.5,22.3,10.4,22.3c0.1-0.1,0.1-0.1,0-0.2c0,0-0.1,0-0.1,0
		C10.4,22.2,10.4,22.3,10.4,22.3z M11.5,12.1C11.5,12.1,11.5,12.1,11.5,12.1c0.1,0.1,0.1,0,0.1,0C11.7,12,11.7,12,11.5,12.1
		C11.6,12,11.5,12,11.5,12.1z M11.3,11.4C11.4,11.4,11.4,11.3,11.3,11.4c0.1-0.1,0.1-0.2,0-0.2C11.3,11.2,11.2,11.2,11.3,11.4
		C11.2,11.3,11.2,11.4,11.3,11.4z M11.4,22c0,0,0.1,0,0.1-0.1c0-0.1,0-0.1-0.1-0.1C11.4,21.8,11.4,21.9,11.4,22
		C11.3,22,11.4,22,11.4,22z M13.8,7.2c0.1,0,0.1,0,0.1-0.1c0,0,0-0.1,0-0.1C13.9,7.1,13.8,7.1,13.8,7.2C13.8,7.2,13.8,7.2,13.8,7.2z
		 M11.9,17.3C12,17.3,11.9,17.3,11.9,17.3c-0.1-0.1-0.1-0.1-0.1,0C11.8,17.3,11.8,17.3,11.9,17.3C11.9,17.4,11.9,17.4,11.9,17.3z
		 M11.1,12.7c0-0.1,0-0.1,0-0.1c0,0-0.1,0-0.1,0C10.9,12.7,10.9,12.7,11.1,12.7C11,12.7,11,12.7,11.1,12.7z M15.2,7.3
		c0,0.1,0,0.1,0.1,0.1c0,0,0.1,0,0.1-0.1C15.4,7.3,15.3,7.3,15.2,7.3C15.3,7.3,15.2,7.3,15.2,7.3z M12.3,19.9
		C12.3,19.9,12.4,19.8,12.3,19.9c0.1-0.1,0.1-0.1,0.1-0.2C12.3,19.7,12.3,19.7,12.3,19.9C12.3,19.8,12.2,19.9,12.3,19.9z M11.6,12.7
		c0.1,0,0.1,0,0.1-0.1c0-0.1,0-0.1-0.1-0.1C11.6,12.5,11.5,12.5,11.6,12.7C11.5,12.6,11.5,12.7,11.6,12.7z M10.5,21.3
		C10.6,21.3,10.6,21.3,10.5,21.3c0.1-0.1,0.1-0.1,0-0.2C10.5,21.2,10.5,21.2,10.5,21.3C10.5,21.3,10.5,21.3,10.5,21.3z M11.8,11
		C11.7,11,11.7,11,11.8,11c-0.1,0.1-0.1,0.1,0,0.2c0,0,0.1,0,0.1,0C11.8,11.1,11.8,11.1,11.8,11z M12.4,11.3c0,0.1,0,0.1,0.1,0.1
		c0,0,0.1,0,0.1-0.1C12.5,11.3,12.5,11.3,12.4,11.3C12.4,11.2,12.4,11.3,12.4,11.3z M20.5,14.4C20.6,14.4,20.6,14.4,20.5,14.4
		c0.1-0.1,0.1-0.1,0-0.2C20.5,14.2,20.5,14.3,20.5,14.4C20.5,14.4,20.5,14.4,20.5,14.4z M12,12.8C12,12.7,12,12.7,12,12.8
		c-0.1-0.1-0.1-0.1-0.1,0C11.8,12.8,11.9,12.8,12,12.8C12,12.8,12,12.8,12,12.8z M20.8,14.8C20.9,14.8,20.9,14.8,20.8,14.8
		c0.1-0.1,0.1-0.1,0.1-0.1C20.8,14.7,20.8,14.7,20.8,14.8C20.8,14.8,20.8,14.8,20.8,14.8z M21.1,14.3C21.1,14.3,21.1,14.2,21.1,14.3
		c-0.1-0.1-0.1-0.1-0.1,0C21,14.3,21,14.4,21.1,14.3C21.1,14.4,21.1,14.4,21.1,14.3z M10.9,11.8C10.8,11.8,10.9,11.8,10.9,11.8
		c0.1,0.1,0.1,0.1,0.1,0C11,11.8,11,11.7,10.9,11.8C10.9,11.7,10.9,11.7,10.9,11.8z M12.3,12.1C12.4,12.1,12.4,12.1,12.3,12.1
		c0.1-0.1,0.1-0.1,0-0.1C12.3,12,12.3,12,12.3,12.1C12.3,12,12.3,12.1,12.3,12.1z M20.9,13.9C21,13.9,21,13.9,20.9,13.9
		c0.1-0.1,0.1-0.1,0-0.2c-0.1,0-0.1,0-0.1,0.1C20.9,13.9,20.9,13.9,20.9,13.9z M9.7,21.9C9.6,21.9,9.6,21.9,9.7,21.9
		C9.6,22,9.6,22,9.6,22C9.7,22,9.7,22,9.7,21.9C9.7,21.9,9.7,21.9,9.7,21.9z M10.9,21.5C10.9,21.5,10.9,21.6,10.9,21.5
		c0.1,0.1,0.1,0.1,0.1,0C11,21.5,11,21.4,10.9,21.5C10.9,21.4,10.9,21.4,10.9,21.5z M11.7,21.7C11.8,21.8,11.8,21.7,11.7,21.7
		c0.1-0.1,0.1-0.2,0-0.2C11.7,21.6,11.7,21.6,11.7,21.7C11.7,21.7,11.7,21.7,11.7,21.7z M11.4,21.6C11.4,21.6,11.4,21.6,11.4,21.6
		c0.1-0.1,0.1-0.2,0-0.2c-0.1,0-0.1,0-0.1,0.1C11.3,21.6,11.3,21.6,11.4,21.6z M12,18C12,18,12,17.9,12,18c0-0.1,0-0.2-0.1-0.2
		c0,0-0.1,0-0.1,0.1C11.9,17.9,11.9,17.9,12,18z M11.6,16.9C11.6,16.8,11.6,16.8,11.6,16.9c-0.1-0.1-0.2-0.1-0.2,0
		C11.4,16.9,11.5,16.9,11.6,16.9C11.6,16.9,11.6,16.9,11.6,16.9z M11.8,16.7C11.8,16.7,11.8,16.7,11.8,16.7c-0.1,0.1-0.1,0.1,0,0.1
		C11.9,16.9,11.9,16.8,11.8,16.7C11.9,16.8,11.9,16.7,11.8,16.7z M11.5,15.6C11.6,15.6,11.6,15.5,11.5,15.6c0.1-0.1,0.1-0.1,0-0.1
		c0,0-0.1,0-0.1,0C11.5,15.5,11.5,15.6,11.5,15.6z M11.5,14.9C11.6,14.9,11.6,14.8,11.5,14.9c0.1-0.1,0.1-0.1,0-0.1
		C11.5,14.7,11.5,14.7,11.5,14.9C11.5,14.8,11.5,14.9,11.5,14.9z M10.6,14.5C10.6,14.5,10.6,14.5,10.6,14.5c0.1-0.1,0.1-0.1,0-0.1
		c0,0-0.1,0-0.1,0C10.5,14.4,10.5,14.5,10.6,14.5z M11.6,13.8C11.6,13.8,11.6,13.7,11.6,13.8c-0.1-0.1-0.1-0.1-0.1-0.1
		C11.5,13.8,11.5,13.8,11.6,13.8C11.6,13.9,11.6,13.8,11.6,13.8z M11.1,13.4C11.1,13.4,11.1,13.4,11.1,13.4c-0.1-0.1-0.1-0.1-0.1,0
		C11,13.4,11,13.5,11.1,13.4C11.1,13.5,11.1,13.5,11.1,13.4z M15,6.8c0-0.1,0-0.1-0.1-0.1c0,0-0.1,0-0.1,0.1
		C14.9,6.8,14.9,6.9,15,6.8C15,6.9,15,6.9,15,6.8z M16.6,7.1c0,0,0,0.1,0,0.1c0,0,0.1,0,0.1-0.1C16.7,7.2,16.7,7.1,16.6,7.1
		C16.7,7.1,16.6,7.1,16.6,7.1z M16.1,7.5c0,0.1,0,0.1,0.1,0.1c0,0,0.1,0,0.1-0.1C16.3,7.5,16.2,7.5,16.1,7.5
		C16.2,7.5,16.1,7.5,16.1,7.5z M22.7,12.2C22.7,12.2,22.7,12.1,22.7,12.2c-0.1-0.1-0.1-0.1-0.1,0C22.6,12.2,22.6,12.2,22.7,12.2
		C22.7,12.2,22.7,12.2,22.7,12.2z M22.2,11.8C22.2,11.8,22.2,11.8,22.2,11.8c-0.1-0.1-0.1-0.1-0.1,0C22.1,11.8,22.1,11.9,22.2,11.8
		C22.2,11.9,22.2,11.9,22.2,11.8z M15.6,7.8C15.6,7.8,15.7,7.8,15.6,7.8c0.1-0.1,0.1-0.2,0-0.2C15.5,7.7,15.5,7.7,15.6,7.8
		C15.5,7.8,15.5,7.8,15.6,7.8z M16.2,8.1C16.3,8.1,16.3,8.1,16.2,8.1C16.3,8,16.3,8,16.2,8c-0.1,0-0.1,0-0.1,0.1
		C16.2,8.1,16.2,8.1,16.2,8.1z M14.8,7.9C14.8,7.9,14.9,7.8,14.8,7.9c0.1-0.1,0.1-0.1,0-0.1C14.8,7.7,14.7,7.7,14.8,7.9
		C14.7,7.8,14.7,7.9,14.8,7.9z M12.1,11.3C12.1,11.3,12.1,11.3,12.1,11.3c-0.1,0.1-0.1,0.2,0,0.2c0,0,0.1,0,0.1-0.1
		C12.2,11.4,12.2,11.3,12.1,11.3z M21.2,13.6C21.2,13.6,21.3,13.6,21.2,13.6c0.1-0.1,0.1-0.1,0-0.1C21.2,13.4,21.2,13.5,21.2,13.6
		C21.1,13.5,21.2,13.6,21.2,13.6z M22.7,9.9C22.7,9.9,22.6,9.9,22.7,9.9c-0.1,0.1-0.1,0.2,0,0.2C22.7,10,22.8,10,22.7,9.9
		C22.8,9.9,22.7,9.9,22.7,9.9z M12.1,18.9C12.1,18.9,12.1,18.9,12.1,18.9c0.1-0.1,0.1-0.1,0-0.1C12.1,18.7,12,18.7,12.1,18.9
		C12,18.8,12,18.9,12.1,18.9z M15,8C15.1,8,15.1,7.9,15,8c0.1-0.1,0.1-0.1,0-0.1C15,7.9,15,7.9,15,8C15,7.9,15,8,15,8z M10.6,22.6
		C10.7,22.6,10.7,22.6,10.6,22.6c0.1-0.1,0.1-0.1,0-0.1C10.6,22.5,10.6,22.5,10.6,22.6C10.6,22.6,10.6,22.6,10.6,22.6z M9.5,22.4
		C9.5,22.4,9.6,22.4,9.5,22.4c0.1-0.1,0.1-0.1,0-0.1C9.5,22.2,9.5,22.3,9.5,22.4C9.5,22.3,9.5,22.4,9.5,22.4z M17.1,6.9
		C17.1,6.9,17.1,6.8,17.1,6.9c-0.1-0.1-0.1-0.1-0.1,0C17,6.9,17,6.9,17.1,6.9C17.1,7,17.1,6.9,17.1,6.9z M16.3,6.8
		C16.3,6.8,16.3,6.7,16.3,6.8c0.1-0.1,0-0.1,0-0.1C16.2,6.6,16.2,6.7,16.3,6.8C16.2,6.8,16.2,6.8,16.3,6.8z M10.8,21.8
		C10.8,21.8,10.7,21.7,10.8,21.8C10.7,21.7,10.7,21.8,10.8,21.8C10.7,21.8,10.7,21.9,10.8,21.8C10.8,21.9,10.8,21.8,10.8,21.8z
		 M10.3,21.5C10.3,21.5,10.3,21.5,10.3,21.5c-0.1-0.1-0.1-0.1-0.1,0S10.2,21.6,10.3,21.5C10.3,21.6,10.3,21.6,10.3,21.5z M9.9,21.2
		C9.9,21.2,10,21.1,9.9,21.2c0.1-0.1,0-0.1,0-0.1C9.9,21,9.9,21.1,9.9,21.2C9.9,21.1,9.9,21.2,9.9,21.2z M11.9,21.4
		C11.9,21.4,11.9,21.4,11.9,21.4c0.1-0.1,0.1-0.2,0-0.1C11.8,21.3,11.8,21.3,11.9,21.4C11.8,21.4,11.8,21.4,11.9,21.4z M11.5,20.6
		C11.6,20.6,11.6,20.6,11.5,20.6c0.1-0.1,0-0.1,0-0.1C11.5,20.5,11.5,20.5,11.5,20.6C11.5,20.6,11.5,20.7,11.5,20.6z M21.9,11.1
		C21.9,11.1,21.9,11.1,21.9,11.1C22,11,22,11,21.9,11C21.9,11,21.8,11,21.9,11.1C21.9,11,21.8,11.1,21.9,11.1z M9.8,13.8
		C9.8,13.8,9.9,13.8,9.8,13.8c0.1-0.1,0.1-0.1,0-0.1C9.8,13.6,9.7,13.6,9.8,13.8C9.8,13.7,9.7,13.8,9.8,13.8z M11.5,13.1
		C11.5,13.1,11.5,13.2,11.5,13.1c0.1,0.1,0.1,0.1,0.1,0C11.6,13.1,11.6,13.1,11.5,13.1C11.5,13.1,11.5,13.1,11.5,13.1z M22,12.4
		C22.1,12.4,22.1,12.3,22,12.4c0.1-0.1,0.1-0.1,0-0.1C22,12.2,22,12.2,22,12.4C22,12.3,22,12.4,22,12.4z M21.8,12.7
		C21.9,12.7,21.9,12.7,21.8,12.7c0.1-0.1,0.1-0.1,0-0.1C21.8,12.5,21.8,12.6,21.8,12.7C21.8,12.6,21.8,12.7,21.8,12.7z M11.6,10.5
		C11.6,10.5,11.7,10.5,11.6,10.5c0.1-0.1,0.1-0.1,0.1-0.1C11.6,10.3,11.6,10.4,11.6,10.5C11.6,10.4,11.6,10.5,11.6,10.5z M22.2,13
		C22.2,13,22.2,13,22.2,13c0.1-0.1,0.1-0.2,0-0.2C22.1,12.9,22.1,12.9,22.2,13C22.1,13,22.1,13,22.2,13z M21.8,12.1
		C21.8,12.1,21.8,12.1,21.8,12.1c0.1,0.1,0.1,0.1,0.1,0C21.9,12.1,21.9,12,21.8,12.1C21.8,12,21.8,12,21.8,12.1z M11.3,12.4
		C11.3,12.4,11.4,12.4,11.3,12.4c0.1-0.1,0.1-0.1,0-0.1C11.3,12.2,11.2,12.2,11.3,12.4C11.2,12.3,11.3,12.4,11.3,12.4z M22.2,10.3
		c0,0,0,0.1,0,0.1c0,0,0.1,0,0.1,0C22.3,10.3,22.3,10.3,22.2,10.3C22.2,10.2,22.2,10.2,22.2,10.3z M21.3,14.3
		C21.3,14.3,21.3,14.3,21.3,14.3c0.1,0.1,0.1,0.1,0.1,0C21.4,14.3,21.4,14.2,21.3,14.3C21.3,14.2,21.3,14.2,21.3,14.3z M20.7,13.5
		C20.7,13.5,20.7,13.5,20.7,13.5c-0.1-0.1-0.1-0.1-0.1,0C20.6,13.5,20.6,13.6,20.7,13.5C20.6,13.6,20.7,13.6,20.7,13.5z M13.2,8.2
		C13.2,8.2,13.3,8.2,13.2,8.2c0.1-0.1,0.1-0.1,0-0.1c0,0-0.1,0-0.1,0C13.2,8.2,13.2,8.2,13.2,8.2z M22.2,11.5
		C22.3,11.6,22.3,11.5,22.2,11.5c0.1-0.1,0.1-0.1,0-0.1C22.2,11.4,22.2,11.5,22.2,11.5C22.2,11.5,22.2,11.5,22.2,11.5z M13.9,8.1
		C13.9,8.1,13.9,8.1,13.9,8.1c-0.1-0.1-0.1-0.1-0.1,0C13.7,8.1,13.8,8.2,13.9,8.1C13.8,8.2,13.9,8.2,13.9,8.1z M11.5,15.2
		C11.5,15.2,11.5,15.1,11.5,15.2c0.1-0.1,0-0.1,0-0.1c0,0-0.1,0-0.1,0C11.4,15.1,11.4,15.2,11.5,15.2z M11.9,9.9
		C11.9,9.8,11.9,9.8,11.9,9.9c-0.1-0.1-0.1,0-0.1,0C11.8,9.9,11.8,10,11.9,9.9C11.9,10,11.9,9.9,11.9,9.9z M11,21.3
		C11,21.3,11,21.2,11,21.3c0.1-0.1,0.1-0.1,0-0.1C10.9,21.1,10.9,21.1,11,21.3C10.9,21.2,10.9,21.3,11,21.3z M12.2,21.6
		C12.2,21.7,12.3,21.7,12.2,21.6c0.1,0.1,0.1,0,0.1,0C12.3,21.6,12.3,21.6,12.2,21.6C12.2,21.6,12.2,21.6,12.2,21.6z M20.7,15.1
		C20.8,15.2,20.8,15.1,20.7,15.1c0.1-0.1,0.1-0.1,0-0.1C20.7,15,20.7,15,20.7,15.1C20.7,15.1,20.7,15.1,20.7,15.1z M9.9,22.4
		C10,22.5,10,22.4,9.9,22.4c0.1-0.1,0.1-0.1,0-0.1C9.9,22.3,9.9,22.3,9.9,22.4C9.9,22.4,9.9,22.4,9.9,22.4z M21.7,13.1
		C21.7,13.1,21.7,13.1,21.7,13.1c0.1-0.1,0.1-0.1,0-0.1C21.7,13,21.6,13,21.7,13.1C21.6,13.1,21.6,13.1,21.7,13.1z M21.6,13.5
		C21.7,13.5,21.7,13.6,21.6,13.5C21.7,13.5,21.7,13.5,21.6,13.5c0.1-0.1,0.1-0.1,0-0.1C21.6,13.4,21.6,13.5,21.6,13.5z M9.1,22.6
		C9.1,22.7,9.2,22.6,9.1,22.6c0.1-0.1,0.1-0.1,0-0.1C9.1,22.5,9.1,22.5,9.1,22.6C9.1,22.6,9.1,22.6,9.1,22.6z M11.9,11.9
		C12,11.9,12,11.9,11.9,11.9c0.1-0.1,0-0.1,0-0.1C11.9,11.8,11.9,11.8,11.9,11.9C11.9,11.9,11.9,11.9,11.9,11.9z M15.1,7.3
		C15.1,7.3,15.1,7.3,15.1,7.3C15.1,7.3,15,7.2,15.1,7.3C15,7.2,15,7.2,15.1,7.3C15,7.3,15,7.3,15.1,7.3z M11.3,17.1
		C11.2,17.1,11.3,17.2,11.3,17.1c0.1,0.1,0.1,0.1,0.1,0.1C11.4,17.1,11.4,17.1,11.3,17.1C11.3,17.1,11.3,17.1,11.3,17.1z M21.7,11.6
		C21.7,11.6,21.7,11.6,21.7,11.6c-0.1,0.1-0.1,0.1-0.1,0.1C21.7,11.8,21.7,11.7,21.7,11.6C21.8,11.7,21.8,11.6,21.7,11.6z
		 M10.7,20.8C10.7,20.9,10.8,20.9,10.7,20.8C10.8,20.9,10.8,20.8,10.7,20.8C10.8,20.8,10.8,20.8,10.7,20.8
		C10.8,20.8,10.7,20.8,10.7,20.8z M11.5,21C11.5,21.1,11.6,21,11.5,21c0.1-0.1,0.1-0.1,0-0.1C11.5,20.9,11.5,20.9,11.5,21
		C11.5,21,11.5,21,11.5,21z M10.4,20.7C10.4,20.6,10.4,20.6,10.4,20.7C10.3,20.6,10.3,20.6,10.4,20.7C10.3,20.6,10.3,20.7,10.4,20.7
		C10.3,20.7,10.4,20.7,10.4,20.7z M21.4,11.4C21.5,11.4,21.5,11.4,21.4,11.4c0.1-0.1,0.1-0.1,0.1-0.1C21.5,11.3,21.4,11.3,21.4,11.4
		C21.4,11.4,21.4,11.4,21.4,11.4z M11,20.4C11,20.4,11,20.4,11,20.4c0.1-0.1,0.1-0.1,0-0.1C11,20.3,10.9,20.3,11,20.4
		C10.9,20.4,10.9,20.4,11,20.4z M22.6,9C22.6,9,22.6,8.9,22.6,9c0-0.1,0-0.1,0-0.1C22.5,8.8,22.5,8.9,22.6,9C22.5,9,22.6,9,22.6,9z
		 M11.8,14.3C11.8,14.2,11.8,14.2,11.8,14.3c-0.1-0.1-0.1-0.1-0.1-0.1C11.6,14.3,11.7,14.3,11.8,14.3C11.7,14.3,11.8,14.3,11.8,14.3
		z M22.5,10.8C22.5,10.8,22.5,10.8,22.5,10.8C22.5,10.8,22.5,10.7,22.5,10.8C22.5,10.7,22.5,10.7,22.5,10.8
		C22.5,10.8,22.5,10.8,22.5,10.8z M11,14.2C11,14.2,11,14.2,11,14.2c0.1-0.1,0.1-0.1,0-0.1S11,14.1,11,14.2
		C10.9,14.2,10.9,14.2,11,14.2z M13.7,6.9c-0.1,0.1,0,0.1,0,0.2C13.8,7,13.8,7,13.7,6.9C13.8,6.8,13.7,6.8,13.7,6.9L13.7,6.9z
		 M6.2,16.7c0.3-0.1,0.6-0.2,1-0.2c0.1,0,0.2-0.1,0.2,0c0,0,0.1,0,0.1,0c0.3,0,0.5,0.1,0.8,0.1c0.6,0.2,1,0.6,1.2,1.2
		c0.1,0.2,0.1,0.4,0.2,0.6c0-0.2,0-0.4-0.1-0.6c-0.1-0.5-0.4-1-0.9-1.3c-0.1-0.1-0.2-0.1-0.4-0.2c-0.3-0.1-0.7-0.2-1-0.3
		c0.1-0.2,0.3-0.3,0.5-0.3c0.6,0,1.2,0.2,1.7,0.6c0.2,0.2,0.3,0.4,0.4,0.7c0.1,0.1,0.1,0.3,0.2,0.4c0.1-0.1,0-0.1,0-0.2
		c-0.1-0.3-0.2-0.6-0.3-0.9c-0.2-0.4-0.6-0.6-1-0.8c-0.2-0.1-0.4-0.1-0.6-0.1c-0.3-0.1-0.6,0-0.8,0.2C7.4,16,7.2,16.1,7,16.3
		c-0.1,0.1-0.2,0.1-0.3,0.1C6.5,16.4,6.3,16.5,6.2,16.7z M21.2,12.7c0.1,0,0.1-0.1,0.2-0.1c0.1,0.1,0.1,0,0.1-0.1
		c0-0.1,0-0.2,0.2-0.3c0.1,0,0-0.1,0-0.1c0,0-0.1,0-0.1,0c-0.1,0-0.2-0.1-0.2-0.2c-0.1-0.1-0.2-0.1-0.2,0c-0.1,0.3-0.2,0.6-0.2,0.9
		c0,0,0,0,0.1,0.1c0.1-0.2,0-0.5,0.3-0.4c0,0.1-0.2,0-0.2,0.2C21.1,12.7,21.2,12.7,21.2,12.7L21.2,12.7z M12.8,18.7
		C12.8,18.7,12.8,18.7,12.8,18.7c0.1-0.4,0.1-0.7,0.1-1.1c0-0.4-0.1-0.7-0.3-0.9c-0.1-0.2-0.2-0.4-0.4-0.6c-0.1,0.1,0,0.1,0,0.2
		c0.1,0.2,0.2,0.4,0.3,0.6c0.2,0.3,0.3,0.7,0.3,1c0,0.1,0,0.3,0,0.4C12.7,18.5,12.7,18.6,12.8,18.7z M6.7,22.7
		c-0.1-0.6-0.3-1.1-0.7-1.5c-0.1-0.1-0.2-0.1-0.2-0.1c-0.1,0-0.1,0-0.1,0c0,0.1,0,0.1,0.1,0.2c0,0,0,0,0.1,0
		c0.3,0.2,0.6,0.5,0.7,0.9C6.5,22.3,6.6,22.5,6.7,22.7z M16.1,16.8c0.1-0.1,0.1-0.1,0-0.2c-0.1-0.7-0.2-1.4-0.4-2
		c0-0.1-0.1-0.2-0.1-0.2c0,0-0.1,0-0.1,0c0,0-0.1,0.1,0,0.1c0.3,0.5,0.3,1,0.4,1.6C16,16.3,16,16.5,16.1,16.8z M16.5,17.5
		c0.1-0.4,0.2-0.7,0.1-1.1c-0.1-0.3-0.1-0.5-0.2-0.8c0-0.1,0-0.1-0.1-0.1c0,0-0.1,0,0,0.1C16.5,16.2,16.4,16.8,16.5,17.5z M14.3,7.4
		c0.1,0.1,0,0.2,0,0.2c0,0.1-0.1,0.1,0,0.2c0.1-0.1,0.1-0.2,0.1-0.4C14.5,7.3,14.4,7.4,14.3,7.4L14.3,7.4z M15.3,6.7
		c0,0.1,0,0.1,0.1,0.1c0.1,0,0.2,0,0.2-0.1c0-0.1,0-0.1-0.1-0.1C15.4,6.6,15.4,6.7,15.3,6.7z M20.9,15.2c0,0.1,0.1,0.1,0.1,0.2
		c0,0,0.1,0.1,0.1,0c0,0,0-0.1,0-0.1c0,0-0.1-0.1-0.1-0.1C21,15.2,21,15.2,20.9,15.2z M14.2,6.8C14.2,6.9,14.2,6.9,14.2,6.8
		c0.1,0.1,0.2,0,0.2,0c0,0,0.1-0.1,0-0.1c0,0,0-0.1-0.1,0C14.3,6.7,14.2,6.8,14.2,6.8z M11,15.3c0.1-0.1,0-0.2,0-0.2
		c0-0.1,0-0.1-0.1-0.1c-0.1,0-0.1,0-0.1,0.1C10.9,15.2,10.9,15.2,11,15.3z M10.6,15.3c0,0.1,0,0.1,0.1,0.1c0.1,0,0.1-0.1,0.1-0.1
		c0-0.1,0-0.1-0.1-0.1C10.6,15.1,10.6,15.2,10.6,15.3z M11.1,22.1C11.1,22.1,11.1,22.2,11.1,22.1c0,0.1,0.1,0.2,0.1,0.2
		c0,0,0.1,0,0.1-0.1c0-0.1,0-0.1-0.1-0.1C11.2,22.1,11.2,22.1,11.1,22.1L11.1,22.1z M12.3,11C12.3,11,12.4,11,12.3,11
		c0.1-0.2,0-0.2,0-0.2c0,0-0.1,0-0.1,0.1C12.2,11,12.2,11,12.3,11z M11.3,13.1c-0.1,0.1-0.1,0.1-0.1,0.2c0,0,0,0.1,0.1,0.1
		c0,0,0.1,0,0.1-0.1C11.3,13.2,11.3,13.1,11.3,13.1z M14.3,7.4C14.3,7.3,14.4,7.3,14.3,7.4c0.1-0.1,0.2-0.2,0.1-0.2c0,0-0.1,0-0.1,0
		c-0.1,0-0.1,0.1-0.1,0.1C14.2,7.3,14.3,7.3,14.3,7.4C14.3,7.4,14.3,7.4,14.3,7.4z M12.3,13.1c0.1,0,0.1,0,0.1-0.1
		c0-0.1,0-0.1-0.1-0.1c-0.1,0-0.1,0-0.1,0.1S12.2,13.1,12.3,13.1z M9.8,22c0,0.1,0,0.1,0.1,0.1c0.1,0,0.1,0,0.1-0.1
		C10,22,10,22,9.8,22C9.9,21.9,9.8,22,9.8,22z M11.4,14.2c0,0.1,0,0.1,0.1,0.1c0.1,0,0.1,0,0.1-0.1C11.5,14.2,11.5,14.1,11.4,14.2
		C11.4,14.1,11.4,14.2,11.4,14.2z M14.6,7C14.6,7.1,14.6,7.1,14.6,7c0.1,0.1,0.2,0,0.2,0C14.7,6.9,14.7,6.9,14.6,7
		C14.6,6.9,14.6,7,14.6,7z M11.1,15.7c0,0.1,0,0.2,0.1,0.3c0,0,0.1,0,0.1,0c0,0,0-0.1,0-0.1C11.3,15.8,11.2,15.8,11.1,15.7z
		 M15.7,7.3c0,0.1,0,0.1,0.1,0.1c0.1,0,0.1,0,0.1-0.1c0,0,0-0.1,0-0.1C15.8,7.3,15.8,7.3,15.7,7.3z M11.9,13.9c0,0.1,0,0.1,0.1,0.1
		c0.1,0,0.1,0,0.1-0.1C12.1,14,12,13.9,11.9,13.9C12,13.9,11.9,13.9,11.9,13.9z M15.8,7C15.8,6.9,15.8,6.9,15.8,7
		c-0.1-0.1-0.1-0.1-0.1,0C15.7,7,15.7,7,15.8,7C15.8,7.1,15.8,7,15.8,7z M10.9,16.1C10.9,16.1,10.9,16,10.9,16.1
		c-0.1-0.1-0.1-0.1-0.1,0C10.8,16.1,10.8,16.2,10.9,16.1C10.9,16.2,10.9,16.2,10.9,16.1z M20.6,15.6c0.1-0.1,0.1-0.1,0.1-0.2
		c0,0,0-0.1,0-0.1c0,0-0.1,0-0.1,0C20.6,15.5,20.6,15.6,20.6,15.6z M9.6,12.8c0,0.1,0,0.1,0.1,0.1c0,0,0.1,0,0.1-0.1
		C9.7,12.8,9.7,12.8,9.6,12.8C9.6,12.8,9.6,12.8,9.6,12.8z M17.6,7.2c0,0.1,0,0.1,0.1,0.1c0,0,0.1,0,0.1-0.1
		C17.7,7.2,17.7,7.2,17.6,7.2C17.6,7.1,17.6,7.2,17.6,7.2z M15.5,7C15.5,7,15.4,7.1,15.5,7c-0.1,0.1-0.1,0.2,0,0.2
		C15.5,7.2,15.6,7.2,15.5,7C15.6,7.1,15.6,7.1,15.5,7z M10.2,22.6c0.1,0,0.1,0,0.1-0.1c0-0.1,0-0.1-0.1-0.1c-0.1,0-0.1,0-0.1,0.1
		C10.1,22.5,10.1,22.6,10.2,22.6z M11,22.2c0-0.1,0-0.1-0.1-0.1c-0.1,0-0.1,0-0.1,0.1C10.8,22.2,10.8,22.3,11,22.2
		C11,22.3,11,22.2,11,22.2z M11.7,22.3c0.1,0,0.1,0,0.1-0.1c0-0.1,0-0.1-0.1-0.1c-0.1,0-0.1,0-0.1,0.1
		C11.6,22.2,11.6,22.3,11.7,22.3z M12.2,17.5c0,0.1,0,0.1,0.1,0.1c0,0,0.1,0,0.1-0.1C12.4,17.5,12.3,17.5,12.2,17.5
		C12.2,17.4,12.2,17.4,12.2,17.5z M13.4,7.6C13.4,7.5,13.3,7.6,13.4,7.6c-0.1,0.1-0.1,0.1,0,0.2c0.1,0,0.1,0,0.1-0.1
		C13.5,7.6,13.5,7.6,13.4,7.6z M15.6,8.3C15.7,8.3,15.7,8.3,15.6,8.3c0.1-0.1,0.1-0.2,0-0.2C15.6,8.1,15.5,8.1,15.6,8.3
		C15.5,8.2,15.6,8.3,15.6,8.3z M10.9,15.6C11,15.6,11,15.5,10.9,15.6c0.1-0.1,0.1-0.1,0-0.2C10.9,15.4,10.8,15.4,10.9,15.6
		C10.8,15.5,10.9,15.5,10.9,15.6z M20.3,15.2C20.3,15.2,20.3,15.3,20.3,15.2c0.1,0.1,0.1,0.1,0.1,0C20.4,15.2,20.4,15.1,20.3,15.2
		C20.4,15.1,20.3,15.1,20.3,15.2z M11.5,16.2C11.5,16.2,11.5,16.2,11.5,16.2c0-0.1,0-0.2,0-0.2c0,0-0.1,0-0.1,0.1
		C11.4,16.2,11.4,16.2,11.5,16.2z M14,7.5c0,0.1,0,0.1,0.1,0.1c0,0,0.1,0,0.1-0.1C14.1,7.5,14.1,7.5,14,7.5C14,7.4,14,7.4,14,7.5z
		 M16.7,8.1C16.7,8.1,16.7,8.1,16.7,8.1c0.1,0.1,0.1,0,0.2,0c0,0,0-0.1-0.1-0.1C16.7,8,16.7,8,16.7,8.1z M11.2,16.3
		c0,0.1,0,0.1,0.1,0.1c0,0,0.1,0,0.1,0C11.3,16.3,11.3,16.3,11.2,16.3C11.2,16.3,11.2,16.3,11.2,16.3z M20.3,14.7
		C20.3,14.8,20.3,14.8,20.3,14.7c0.1,0.1,0.1,0.1,0.2,0c0,0,0-0.1,0-0.1C20.4,14.7,20.3,14.7,20.3,14.7z M11.8,15.6
		c0,0,0,0.1,0.1,0.1s0.1,0,0.1-0.1C12,15.5,11.9,15.5,11.8,15.6C11.8,15.5,11.8,15.5,11.8,15.6z M10.4,14.8
		C10.4,14.9,10.4,14.8,10.4,14.8c0.1-0.1,0-0.1,0-0.2c0,0-0.1,0-0.1,0.1C10.3,14.8,10.3,14.8,10.4,14.8z M15.3,8.5
		C15.3,8.5,15.3,8.6,15.3,8.5c0.1,0.1,0.1,0.1,0.1,0C15.5,8.5,15.5,8.5,15.3,8.5C15.4,8.5,15.3,8.5,15.3,8.5z M12,14.9
		c0,0.1,0,0.1,0.1,0.1c0,0,0.1,0,0.1-0.1C12.2,14.9,12.1,14.9,12,14.9C12,14.9,12,14.9,12,14.9z M11.6,13.6
		C11.7,13.6,11.7,13.5,11.6,13.6c0.1-0.1,0.1-0.1,0-0.2c0,0-0.1,0-0.1,0C11.5,13.5,11.6,13.5,11.6,13.6z M10.1,14.1
		C10.2,14.2,10.2,14.2,10.1,14.1c0.1,0.1,0.2,0,0.2,0C10.3,14.1,10.3,14.1,10.1,14.1C10.2,14.1,10.1,14.1,10.1,14.1z M11.2,14.4
		c0-0.1,0-0.1-0.1-0.1c0,0-0.1,0-0.1,0C11.1,14.4,11.1,14.4,11.2,14.4C11.2,14.5,11.2,14.4,11.2,14.4z M22.7,11
		C22.7,11,22.7,11.1,22.7,11c-0.1,0.1-0.1,0.2,0,0.2c0.1,0,0.1,0,0.1-0.1C22.8,11.1,22.8,11,22.7,11z M11.2,13.8
		C11.2,13.9,11.2,13.9,11.2,13.8c0.1,0.1,0.1,0.1,0.1,0c0,0,0-0.1,0-0.1C11.2,13.8,11.2,13.8,11.2,13.8z M10.9,13.6
		c0,0.1,0,0.1,0.1,0.1c0.1,0,0.1,0,0.1-0.1C11.1,13.6,11,13.6,10.9,13.6C11,13.5,10.9,13.6,10.9,13.6z M10.1,13.2
		C10.1,13.3,10.1,13.3,10.1,13.2c0.1,0.1,0.1,0.1,0.1,0C10.2,13.2,10.2,13.2,10.1,13.2C10.2,13.2,10.1,13.2,10.1,13.2z M10.4,22.2
		c0,0.1,0,0.1,0.1,0.1c0,0,0.1,0,0.1-0.1C10.5,22.2,10.5,22.1,10.4,22.2C10.4,22.1,10.4,22.1,10.4,22.2z M11.6,12
		C11.6,12,11.5,12,11.6,12c-0.1,0.1-0.1,0.2,0,0.2C11.6,12.1,11.6,12.1,11.6,12C11.7,12,11.7,12,11.6,12z M11.2,11.3
		c0,0.1,0,0.1,0.1,0.1c0.1,0,0.1,0,0.1-0.1C11.4,11.3,11.4,11.2,11.2,11.3C11.3,11.2,11.2,11.2,11.2,11.3z M11.4,21.9
		C11.3,22,11.4,22,11.4,21.9c0.1,0.1,0.1,0.1,0.2,0S11.5,21.9,11.4,21.9C11.4,21.9,11.4,21.9,11.4,21.9z M13.8,7.2
		C13.8,7.2,13.8,7.2,13.8,7.2c0.1,0.1,0.1,0.1,0.2,0c0,0,0-0.1,0-0.1C13.9,7.1,13.8,7.1,13.8,7.2z M11.9,17.4
		C11.9,17.4,11.9,17.4,11.9,17.4c0.1-0.1,0.1-0.1,0.1-0.1C11.9,17.2,11.8,17.2,11.9,17.4C11.8,17.3,11.8,17.4,11.9,17.4z M11,12.7
		C11,12.7,11.1,12.7,11,12.7c0.1-0.1,0.1-0.1,0.1-0.2c0,0-0.1,0-0.1,0C10.9,12.7,10.9,12.7,11,12.7z M15.3,7.3
		C15.3,7.3,15.2,7.3,15.3,7.3c-0.1,0.1-0.1,0.1,0,0.2C15.3,7.5,15.4,7.4,15.3,7.3C15.4,7.3,15.3,7.3,15.3,7.3z M12.3,19.8
		C12.3,19.8,12.2,19.9,12.3,19.8c0.1,0.1,0.1,0.1,0.1,0C12.4,19.8,12.4,19.7,12.3,19.8C12.3,19.7,12.3,19.7,12.3,19.8z M11.5,12.6
		C11.5,12.6,11.5,12.7,11.5,12.6c0.1,0.1,0.2,0.1,0.2,0c0-0.1,0-0.1-0.1-0.1C11.6,12.5,11.6,12.6,11.5,12.6z M10.5,21.2
		c0,0,0,0.1,0.1,0.1c0,0,0.1,0,0.1-0.1C10.6,21.2,10.6,21.2,10.5,21.2C10.5,21.2,10.5,21.2,10.5,21.2z M11.8,11.1
		c0-0.1,0-0.1-0.1-0.1c0,0-0.1,0-0.1,0C11.6,11.1,11.7,11.1,11.8,11.1C11.7,11.2,11.8,11.2,11.8,11.1z M12.4,11.2
		C12.4,11.2,12.4,11.3,12.4,11.2c-0.1,0.1-0.1,0.2,0,0.2c0,0,0.1,0,0.1-0.1C12.5,11.3,12.5,11.3,12.4,11.2z M20.5,14.3
		C20.5,14.4,20.5,14.4,20.5,14.3c0.1,0.1,0.1,0.1,0.1,0C20.6,14.3,20.6,14.3,20.5,14.3C20.5,14.2,20.5,14.3,20.5,14.3z M11.9,12.8
		C12,12.8,12,12.8,11.9,12.8c0.1-0.1,0.1-0.1,0-0.1C11.9,12.7,11.9,12.7,11.9,12.8C11.8,12.8,11.9,12.8,11.9,12.8z M20.8,14.7
		C20.8,14.8,20.8,14.8,20.8,14.7c0.1,0.1,0.1,0.1,0.1,0.1C20.9,14.7,20.9,14.7,20.8,14.7C20.8,14.7,20.8,14.7,20.8,14.7z M21.1,14.4
		C21.1,14.4,21.1,14.3,21.1,14.4c0.1-0.1,0-0.1,0-0.1S21,14.2,21.1,14.4C21,14.3,21,14.4,21.1,14.4z M10.9,11.7
		C10.9,11.7,10.9,11.7,10.9,11.7c-0.1,0.1-0.1,0.1,0,0.1C10.9,11.9,11,11.8,10.9,11.7C11,11.8,11,11.7,10.9,11.7z M12.3,12
		C12.3,12,12.3,12.1,12.3,12c0.1,0.1,0.1,0.1,0.1,0C12.4,12,12.4,12,12.3,12C12.3,12,12.3,12,12.3,12z M20.9,13.8
		C20.9,13.9,20.9,13.9,20.9,13.8c0.1,0.1,0.1,0.1,0.1,0C21,13.8,21,13.8,20.9,13.8C20.9,13.8,20.9,13.8,20.9,13.8z M9.7,22
		C9.7,21.9,9.7,21.9,9.7,22c-0.1-0.1-0.1-0.1-0.1,0C9.6,22,9.6,22,9.7,22C9.7,22,9.7,22,9.7,22z M11.1,22.1c0-0.1,0.1-0.1,0.1-0.2
		c0,0,0,0-0.1-0.1c0,0-0.1,0-0.1,0C11,22,11.1,22,11.1,22.1L11.1,22.1z M11,21.4C10.9,21.4,10.9,21.4,11,21.4
		c-0.1,0.1-0.1,0.1,0,0.1C11,21.6,11,21.5,11,21.4C11,21.5,11,21.4,11,21.4z M11.7,21.7C11.7,21.7,11.7,21.7,11.7,21.7
		c0.1,0.1,0.1,0.1,0.1,0C11.8,21.6,11.8,21.6,11.7,21.7C11.7,21.6,11.7,21.6,11.7,21.7z M11.3,21.5c0,0.1,0,0.1,0.1,0.1
		c0,0,0.1,0,0.1-0.1C11.5,21.5,11.4,21.5,11.3,21.5C11.3,21.5,11.3,21.5,11.3,21.5z M11.9,17.8c0,0.1,0,0.1,0.1,0.1c0,0,0,0,0-0.1
		C12,17.8,12,17.8,11.9,17.8C11.9,17.8,11.9,17.8,11.9,17.8z M11.5,17C11.5,16.9,11.6,16.9,11.5,17c0.1-0.1,0-0.1,0-0.2
		c0,0-0.1,0-0.1,0.1C11.4,16.9,11.5,16.9,11.5,17z M11.9,16.8C11.9,16.8,11.9,16.7,11.9,16.8c-0.1-0.1-0.1-0.1-0.1,0
		C11.8,16.8,11.8,16.8,11.9,16.8C11.9,16.9,11.9,16.8,11.9,16.8z M11.5,15.5c0,0.1,0,0.1,0.1,0.1c0,0,0.1,0,0.1-0.1
		C11.6,15.5,11.6,15.5,11.5,15.5C11.5,15.4,11.5,15.4,11.5,15.5z M11.5,14.8C11.5,14.8,11.5,14.9,11.5,14.8c0.1,0.1,0.1,0.1,0.2,0
		c0,0,0-0.1-0.1-0.1C11.5,14.7,11.5,14.7,11.5,14.8z M10.5,14.4c0,0.1,0,0.1,0.1,0.1c0,0,0.1,0,0.1-0.1
		C10.6,14.4,10.6,14.3,10.5,14.4C10.6,14.3,10.5,14.3,10.5,14.4z M11.5,13.9C11.6,13.9,11.6,13.8,11.5,13.9c0.1-0.1,0.1-0.1,0-0.1
		c0,0-0.1,0-0.1,0C11.5,13.8,11.5,13.8,11.5,13.9z M11.1,13.5C11.1,13.5,11.1,13.5,11.1,13.5c0.1-0.1,0.1-0.1,0-0.1
		C11,13.3,11,13.4,11.1,13.5C11,13.4,11,13.5,11.1,13.5z M15,6.9C15,6.9,15,6.9,15,6.9C15,6.8,15,6.7,15,6.7c0,0-0.1,0-0.1,0.1
		C14.9,6.8,14.9,6.9,15,6.9z M16.7,7.1C16.7,7.1,16.6,7.1,16.7,7.1c-0.1,0.1-0.1,0.1-0.1,0.1C16.7,7.3,16.7,7.2,16.7,7.1
		C16.7,7.2,16.7,7.1,16.7,7.1z M16.2,7.5C16.1,7.5,16.1,7.5,16.2,7.5c-0.1,0.1-0.1,0.1,0,0.2C16.2,7.6,16.2,7.6,16.2,7.5
		C16.2,7.5,16.2,7.5,16.2,7.5z M22.7,12.2C22.7,12.2,22.7,12.2,22.7,12.2c0.1-0.1,0.1-0.1,0-0.1S22.6,12.1,22.7,12.2
		C22.6,12.2,22.6,12.2,22.7,12.2z M22.1,11.9C22.2,11.9,22.2,11.9,22.1,11.9c0.1-0.1,0.1-0.1,0-0.1C22.1,11.7,22.1,11.8,22.1,11.9
		C22.1,11.8,22.1,11.9,22.1,11.9z M15.5,7.8C15.5,7.8,15.5,7.8,15.5,7.8c0.1,0.1,0.1,0,0.1,0c0-0.1,0-0.1-0.1-0.1
		C15.5,7.7,15.5,7.7,15.5,7.8z M16.1,8C16.1,8.1,16.2,8.1,16.1,8c0.1,0.1,0.1,0.1,0.1,0C16.3,8,16.3,8,16.1,8C16.2,8,16.2,8,16.1,8z
		 M14.7,7.8C14.7,7.8,14.7,7.9,14.7,7.8c0.1,0.1,0.1,0.1,0.1,0C14.9,7.8,14.9,7.7,14.7,7.8C14.8,7.7,14.7,7.7,14.7,7.8z M12.2,11.4
		c0-0.1,0-0.1-0.1-0.1c0,0,0,0-0.1,0.1C12,11.4,12,11.5,12.2,11.4C12.2,11.5,12.2,11.5,12.2,11.4z M21.1,13.5
		C21.1,13.5,21.2,13.6,21.1,13.5c0.1,0.1,0.1,0.1,0.1,0C21.3,13.5,21.3,13.5,21.1,13.5C21.2,13.4,21.2,13.4,21.1,13.5z M22.8,10
		C22.8,9.9,22.7,9.9,22.8,10c-0.1-0.1-0.1,0-0.1,0C22.6,10,22.6,10,22.8,10C22.7,10,22.8,10,22.8,10z M12,18.8
		C12,18.8,12,18.9,12,18.8c0.1,0.1,0.1,0.1,0.1,0.1C12.2,18.8,12.2,18.7,12,18.8C12.1,18.7,12,18.7,12,18.8z M15,7.9
		C15,7.9,15,8,15,7.9c0.1,0.1,0.1,0,0.1,0C15.1,7.9,15.1,7.8,15,7.9C15,7.8,15,7.9,15,7.9z M9.7,22.8C9.7,22.7,9.7,22.7,9.7,22.8
		c0-0.1,0-0.1,0-0.2c0,0,0,0,0,0C9.6,22.7,9.6,22.7,9.7,22.8C9.7,22.8,9.7,22.8,9.7,22.8C9.8,22.8,9.7,22.8,9.7,22.8z M10.6,22.5
		C10.6,22.6,10.6,22.6,10.6,22.5c0.1,0.1,0.1,0.1,0.1,0C10.7,22.6,10.7,22.5,10.6,22.5C10.6,22.5,10.6,22.5,10.6,22.5z M9.5,22.3
		C9.5,22.3,9.5,22.4,9.5,22.3c0.1,0.1,0.1,0.1,0.1,0C9.6,22.3,9.6,22.3,9.5,22.3C9.5,22.2,9.5,22.3,9.5,22.3z M17.1,7
		C17.1,7,17.1,6.9,17.1,7c0.1-0.1,0.1-0.1,0-0.1C17.1,6.8,17,6.8,17.1,7C17,6.9,17,6.9,17.1,7z M16.2,6.7
		C16.2,6.8,16.2,6.8,16.2,6.7c0.1,0,0.1,0,0.1,0C16.3,6.7,16.3,6.6,16.2,6.7C16.2,6.6,16.2,6.7,16.2,6.7z M10.7,21.9
		C10.8,21.8,10.8,21.8,10.7,21.9c0-0.1,0-0.1,0-0.1C10.7,21.7,10.7,21.8,10.7,21.9C10.7,21.8,10.7,21.9,10.7,21.9z M10.2,21.6
		C10.3,21.6,10.3,21.6,10.2,21.6c0.1-0.1,0-0.1,0-0.2C10.2,21.4,10.1,21.5,10.2,21.6C10.2,21.6,10.2,21.6,10.2,21.6z M9.9,21.1
		C9.9,21.1,9.9,21.2,9.9,21.1c0.1,0.1,0.1,0,0.1,0C10,21.1,9.9,21,9.9,21.1C9.9,21,9.9,21.1,9.9,21.1z M11.8,21.4
		C11.8,21.4,11.8,21.4,11.8,21.4c0.1,0.1,0.1,0,0.1,0C11.9,21.3,11.9,21.3,11.8,21.4C11.8,21.3,11.8,21.3,11.8,21.4z M11.5,20.6
		C11.5,20.6,11.5,20.7,11.5,20.6c0.1,0,0.1,0,0.1-0.1c0,0,0-0.1-0.1-0.1C11.5,20.5,11.5,20.5,11.5,20.6z M21.9,11c0,0,0,0.1,0,0.1
		C21.9,11.1,21.9,11.1,21.9,11C22,11,22,11,21.9,11C21.9,10.9,21.9,11,21.9,11z M9.7,13.7C9.8,13.7,9.7,13.8,9.7,13.7
		c0.1,0.1,0.1,0.1,0.1,0.1C9.9,13.7,9.8,13.6,9.7,13.7C9.8,13.6,9.7,13.6,9.7,13.7z M11.6,13.1C11.5,13.1,11.5,13.1,11.6,13.1
		c-0.1,0.1-0.1,0.1,0,0.1S11.6,13.2,11.6,13.1C11.6,13.1,11.6,13.1,11.6,13.1z M22,12.3C22,12.3,22,12.4,22,12.3
		c0.1,0.1,0.1,0.1,0.1,0C22.1,12.3,22.1,12.2,22,12.3C22,12.2,22,12.2,22,12.3z M21.8,12.6C21.8,12.6,21.8,12.7,21.8,12.6
		c0.1,0.1,0.1,0.1,0.1,0C21.9,12.6,21.9,12.5,21.8,12.6C21.8,12.5,21.8,12.6,21.8,12.6z M11.6,10.4C11.6,10.4,11.5,10.5,11.6,10.4
		c0.1,0.1,0.1,0.1,0.1,0.1C11.7,10.4,11.7,10.4,11.6,10.4C11.6,10.4,11.6,10.4,11.6,10.4z M22.1,12.9C22.1,13,22.1,13,22.1,12.9
		c0.1,0.1,0.1,0.1,0.1,0C22.3,12.9,22.2,12.8,22.1,12.9C22.1,12.9,22.1,12.9,22.1,12.9z M21.8,12C21.8,12,21.8,12,21.8,12
		c-0.1,0.1-0.1,0.1,0,0.1C21.8,12.1,21.9,12.1,21.8,12C21.9,12,21.9,12,21.8,12z M11.2,12.3c0,0,0,0.1,0.1,0.1c0,0,0.1,0,0.1,0
		C11.4,12.3,11.4,12.3,11.2,12.3C11.3,12.2,11.2,12.2,11.2,12.3z M22.2,10.2C22.2,10.2,22.2,10.2,22.2,10.2c-0.1,0.1-0.1,0.1,0,0.1
		c0,0,0.1,0,0.1,0C22.3,10.3,22.3,10.3,22.2,10.2z M21.4,14.2C21.4,14.2,21.3,14.2,21.4,14.2c-0.1,0.1-0.1,0.1,0,0.1
		C21.4,14.4,21.4,14.3,21.4,14.2C21.4,14.3,21.4,14.2,21.4,14.2z M20.6,13.6C20.6,13.6,20.7,13.6,20.6,13.6c0.1-0.1,0.1-0.1,0-0.1
		C20.6,13.4,20.6,13.4,20.6,13.6C20.6,13.5,20.6,13.5,20.6,13.6z M13.2,8.1C13.2,8.2,13.2,8.2,13.2,8.1c0.1,0.1,0.1,0.1,0.1,0
		C13.3,8.1,13.3,8.1,13.2,8.1C13.2,8.1,13.2,8.1,13.2,8.1z M22.2,11.5C22.2,11.5,22.2,11.6,22.2,11.5c0.1,0.1,0.1,0,0.1,0
		C22.3,11.5,22.3,11.4,22.2,11.5C22.2,11.4,22.2,11.5,22.2,11.5z M13.8,8.2C13.8,8.2,13.9,8.2,13.8,8.2c0.1-0.1,0.1-0.1,0.1-0.1
		C13.8,8,13.8,8.1,13.8,8.2C13.7,8.1,13.7,8.2,13.8,8.2z M11.4,15.1C11.4,15.1,11.4,15.2,11.4,15.1c0.1,0.1,0.1,0.1,0.1,0
		C11.5,15.1,11.5,15,11.4,15.1C11.4,15,11.4,15,11.4,15.1z M11.9,10C11.9,10,11.9,10,11.9,10c0.1-0.1,0-0.1,0-0.1
		C11.8,9.8,11.8,9.9,11.9,10C11.8,9.9,11.8,10,11.9,10z M10.9,21.2C10.9,21.2,10.9,21.3,10.9,21.2c0.1,0.1,0.1,0.1,0.1,0
		C11,21.2,11,21.1,10.9,21.2C10.9,21.1,10.9,21.2,10.9,21.2z M12.3,21.6C12.2,21.6,12.2,21.6,12.3,21.6c-0.1,0.1-0.1,0.1,0,0.1
		C12.3,21.7,12.3,21.7,12.3,21.6C12.3,21.6,12.3,21.6,12.3,21.6z M20.7,15C20.7,15.1,20.7,15.1,20.7,15C20.8,15.1,20.8,15.1,20.7,15
		C20.8,15.1,20.8,15,20.7,15C20.7,15,20.7,15,20.7,15z M21.2,12.7C21.2,12.7,21.2,12.7,21.2,12.7c-0.1,0.1-0.1,0.2-0.1,0.2
		c0,0,0,0,0.1,0C21.3,12.8,21.3,12.8,21.2,12.7C21.2,12.8,21.2,12.7,21.2,12.7L21.2,12.7z M9.9,22.3C9.9,22.4,9.9,22.4,9.9,22.3
		C9.9,22.4,10,22.4,9.9,22.3C10,22.4,10,22.3,9.9,22.3C9.9,22.3,9.9,22.3,9.9,22.3z M21.6,13.1C21.6,13.1,21.6,13.1,21.6,13.1
		c0.1,0.1,0.1,0,0.1,0C21.7,13,21.7,13,21.6,13.1C21.7,13,21.6,13,21.6,13.1z M21.7,13.4C21.6,13.4,21.6,13.5,21.7,13.4
		c0,0.1,0,0.1,0,0.1C21.7,13.5,21.7,13.5,21.7,13.4C21.7,13.5,21.7,13.4,21.7,13.4z M9.1,22.6C9.1,22.6,9.1,22.6,9.1,22.6
		c0.1,0.1,0.1,0,0.1,0C9.2,22.6,9.2,22.5,9.1,22.6C9.1,22.5,9.1,22.5,9.1,22.6z M11.9,11.8C11.9,11.9,11.9,11.9,11.9,11.8
		c0.1,0.1,0.1,0.1,0.1,0C12,11.8,12,11.8,11.9,11.8C11.9,11.8,11.9,11.8,11.9,11.8z M15,7.3C15,7.3,15,7.3,15,7.3c0.1,0,0.1,0,0.1,0
		C15.1,7.2,15,7.2,15,7.3C15,7.2,15,7.2,15,7.3z M11.3,17.1C11.3,17.1,11.3,17.1,11.3,17.1c-0.1,0.1-0.1,0.1,0,0.1c0,0,0.1,0,0.1,0
		C11.4,17.1,11.4,17.1,11.3,17.1z M21.8,11.7C21.8,11.7,21.8,11.6,21.8,11.7c-0.1-0.1-0.1-0.1-0.1,0C21.7,11.7,21.7,11.7,21.8,11.7
		C21.7,11.8,21.7,11.7,21.8,11.7z M10.8,20.8C10.7,20.8,10.7,20.8,10.8,20.8c-0.1,0.1,0,0.1,0,0.1C10.8,20.9,10.8,20.9,10.8,20.8
		C10.8,20.8,10.8,20.8,10.8,20.8z M11.5,21C11.5,21,11.5,21,11.5,21c0.1,0.1,0.1,0.1,0.1,0S11.6,20.9,11.5,21
		C11.5,20.9,11.5,20.9,11.5,21z M10.3,20.7C10.3,20.7,10.4,20.7,10.3,20.7c0.1-0.1,0.1-0.1,0.1-0.1C10.3,20.6,10.3,20.6,10.3,20.7
		C10.3,20.6,10.3,20.7,10.3,20.7z M21.4,11.3C21.4,11.4,21.4,11.4,21.4,11.3c0.1,0.1,0.1,0.1,0.1,0C21.5,11.4,21.5,11.3,21.4,11.3
		C21.4,11.3,21.4,11.3,21.4,11.3z M10.9,20.3C10.9,20.4,10.9,20.4,10.9,20.3c0.1,0.1,0.1,0.1,0.1,0C11,20.3,11,20.3,10.9,20.3
		C11,20.3,10.9,20.3,10.9,20.3z M22.5,8.9C22.5,9,22.6,9,22.5,8.9c0.1,0,0.1,0,0.1,0C22.6,8.9,22.6,8.9,22.5,8.9
		C22.6,8.9,22.5,8.9,22.5,8.9z M11.7,14.3C11.7,14.3,11.8,14.3,11.7,14.3c0.1-0.1,0.1-0.1,0-0.1S11.7,14.2,11.7,14.3
		C11.6,14.3,11.7,14.3,11.7,14.3z M22.4,10.8C22.5,10.8,22.5,10.8,22.4,10.8C22.5,10.8,22.5,10.8,22.4,10.8
		C22.5,10.8,22.5,10.7,22.4,10.8C22.5,10.7,22.5,10.7,22.4,10.8z M10.9,14.1C10.9,14.1,11,14.2,10.9,14.1C11,14.2,11,14.2,10.9,14.1
		C11.1,14.1,11,14.1,10.9,14.1C11,14.1,11,14.1,10.9,14.1z"/>
</g>
</svg>
