<svg viewBox="0 0 30 29.1" xmlns="http://www.w3.org/2000/svg"><path d="m21.7 8.9c-.3 0-.5.3-.6.5s-.2.4-.2.6c-.1.2-.1.5-.3.7.1 0 .2 0 .2-.1.2-.2.5-.2.7-.4.1 0 .1-.1.2-.1.4-.1.8-.3 1.1-.5s.6-.3 1-.4.5-.2.5-.6c0-.3.1-.7.3-1 .1-.1.2-.2.3-.3.5-.2 1-.6 1.4-.9.2-.1.3-.3.5-.4.1 0 .1-.1.3-.1-.4.2-.7.4-.9.7-.3.3-.6.5-1 .7-.1.1-.2.1-.3.2-.2.1-.3.2-.3.4 0 .1-.1.3-.1.4-.1.1.1.2 0 .4.2 0 .3-.1.5-.1.3-.1.6-.2.9-.3.1-.1.3-.1.4 0 .2.1.2.1.4 0 .4-.2.5-.6.7-.9.1-.4.3-.8.5-1.1.3-.3.7-.6 1.1-.8.3-.1.6-.2.9-.2h.1c-.3 0-.6.1-.9.3-.6.3-1.1.8-1.4 1.5-.1.3-.2.6-.4.9s-.4.5-.6.6-.4.4-.5.6c-.1.1-.1.2 0 .3.5 0 .9-.1 1.3-.2.3-.1.6 0 .9.1-.1.1-.2 0-.3 0-.4-.1-.7 0-1 .1-.2.1-.5.1-.7.1s-.3.1-.3.2c-.1.2-.2.4-.3.7 0 .2-.1.3-.2.5-.3.4-.5.9-.8 1.3-.1.1-.2.3-.2.5-.1.4-.3.7-.6 1-.2.2-.4.4-.7.7.3 0 .5-.1.7-.1h.3c.3.1.6.2.9.2.1 0 .1 0 .2.1.3.2.6.2 1 .1.1 0 .1-.1.2 0-.2.3-.9.3-1.2.2-.1 0-.2-.1-.3-.1-.3 0-.5-.1-.8-.1s-.5 0-.8 0c-.2 0-.3.2-.4.4-.1.1-.1.3-.2.4-.3.4-.4.8-.7 1.1-.5.7-1 1.2-1.7 1.6-.2.1-.3.2-.4.3-.2.2-.5.4-.6.7 0 0 0 .1-.1.1s-.2.1-.2.2c-.2.4-.6.8-.9 1.1-.2.2-.4.4-.6.6-.3.4-.7.6-1.1.8-.7.3-1.4.6-2.2.7h-.1c-.5.1-1 .2-1.5.3-.1 0-.2 0-.3.1-.4.2-.9.2-1.3.3-.2 0-.4.1-.6.3-.1.1-.3.2-.5.2s-.4.2-.6.2c-.4.1-.8.2-1.2.2-.3 0-.5-.1-.7-.2s-.3-.1-.5-.1c-.4 0-.8.1-1.3.1s-1.1-.1-1.6-.3c-.4-.7-.8-.9-1.3-.9-.1.1.1.3-.1.3 0-.3-.1-.5-.4-.6-.2-.1-.4-.2-.6-.4-.2-.1-.3-.2-.4-.4 0-.1-.2-.1-.3-.2-.2-.1-.4-.3-.5-.6 0-.2-.1-.4-.2-.5 0-.1-.1-.2 0-.3 0 0 0-.1.1-.1s.1 0 .1.1v.1c0 .3.2.4.4.6 0-.1 0-.2 0-.3s0-.3-.1-.5v-.1c0-.1-.1-.1-.1-.1-.1 0-.1.1-.1.1s0 .1-.1.1c0-.1 0-.3.1-.4s.1-.1 0-.3c0-.2 0-.5.2-.6.2-.2.3-.5.2-.8-.1-.5.1-.9.4-1.3 0 0 .1-.1.1 0 .1 0 0 .1 0 .1-.2.3-.3.5-.3.8v.4c.1.3 0 .6-.2.8-.1.1-.2.2-.2.4.2-.2.4-.4.6-.6.3-.4.7-.7 1-1.1l.5-.5c.3-.4.8-.7 1.2-.9.3-.2.6-.4.8-.6.1-.1.2-.2.4-.2.2-.1.4-.1.5-.3.1 0 .2-.1.3-.1.9-.3 1.7-.6 2.6-.8.5-.1.9-.3 1.3-.5.2-.1.4-.2.6-.3.4-.2.9-.2 1.3-.3.2 0 .3-.1.5 0h.1c.3-.2.7-.3 1.1-.4.6-.1 1.2-.1 1.8-.2.4-.1.8-.1 1.2-.1.1 0 .2-.1.2-.2.1-.2.2-.4.3-.5.2-.3.4-.5.6-.7.1-.1.2-.1.3-.1-.5.3-.8.8-1.1 1.4.4 0 .7-.1 1-.2.4-.1.7-.3 1.1-.5.2-.1.4-.2.5-.2.3-.1.5-.2.6-.5 0-.1.1-.2.2-.2.1-.1.2-.3.3-.5.1-.3.2-.6.4-.9s.4-.4.6-.4zm-2.1 2.7c-.2-.1-.3 0-.5.1-.6.3-1.2.6-1.8.7-.4 0-.6.3-.9.5.2.2.1.5 0 .6 0-.1 0-.1 0-.1 0-.2-.1-.3-.3-.3-.1 0-.3 0-.4 0h-.1s0 0 0-.1c.1-.1.1-.1.2-.1.2 0 .5-.2.5-.3-.4 0-.7.1-1.1.1-.7.1-1.3.2-2 .3-.2 0-.3.1-.5.2.2.1.4.1.6 0h.1c.2.1.4.1.6.3.3.2.5.5.8.7l.6.6c-.3-.3-.7-.6-1.1-.9 0 .1.1.2.1.3.2.2.4.4.6.7s.4.5.6.8c.2.2.3.4.2.7v.3c.1.2.1.3.1.5.2-.1.1-.2.1-.3-.1-.2-.2-.4-.4-.6-.3-.3-.5-.6-.7-1s-.4-.8-.5-1.1-.4-.6-.7-.7c-.5-.1-1-.2-1.6-.2-.4.1-.8.1-1.1.2-.4.1-.8.4-1.2.5v.1c.3.1.6.3 1 .4.2.1.4.2.5.3.2.2.4.3.7.5.2.1.4.2.5.3.2.3.6.6.8.9.1.2.3.3.3.5 0 .3.1.6.1.8s0 .4.1.6c0 .1.1.2 0 .3 0-.1-.1-.1-.1-.1-.2-.4-.2-.9-.2-1.3 0-.3-.1-.6-.3-.8-.3-.3-.5-.5-.8-.8 0-.1-.1-.1-.2-.1-.4-.3-.8-.5-1.2-.8-.1-.1-.1-.1-.2-.1-.3-.1-.7-.3-1-.4-.1 0-.2-.1-.3-.1-.3 0-.6 0-.8.1-.7.2-1.4.4-2.1.6-.1 0-.1 0-.2.1h.6c.7.1 1.3.3 1.8.7.3.3.6.6 1 .9.1 0 .1.1.1.2-.3-.1-.6-.3-.8-.5-.1-.1-.4-.3-.6-.4-.4-.3-.9-.4-1.4-.5-.4-.1-.7 0-1.1.1 0 .1.1.1.2.2s.2.1.3.2c.4.3.7.7 1 1.1.2.3.3.5.4.8.1.2.1.5.2.7 0 .1.1.2 0 .3-.1 0-.1-.1-.1-.1-.1-.3-.2-.5-.2-.8 0-.2-.1-.4-.2-.5-.3-.5-.7-1-1.2-1.4-.1-.1-.3-.2-.4-.3-.2-.1-.5-.2-.7 0-.4.3-.9.6-1.3.9 0 0-.1 0-.1.1.3.2.5.4.7.6s.3.3.4.6.3.5.4.8l.3.6v.1c-.1-.2-.2-.4-.3-.6s-.3-.4-.5-.7c-.3-.5-.8-.8-1.4-1-.1 0-.3 0-.4 0-.3.2-.5.4-.7.7.1.1.2.1.2.1.2 0 .5.1.7.2.2.2.5.4.6.6 0 .1.1.2.2.3.3.4.5.9.4 1.4 0 .2.1.4.1.7.1.3 0 .6-.1.9 0-.2 0-.4 0-.6-.1-.3-.1-.6-.1-1 0-.3-.1-.7-.2-1-.1-.2-.2-.4-.3-.6-.2-.3-.4-.6-.8-.8-.5-.2-1-.1-1.2.4 0 .1.1 0 .1.1.2.1.3.2.3.3 0 .2.1.2.3.1 0 0 .1-.1.1-.1 0-.1.1-.2.1-.3s0-.2.1-.2.1.1.1.2c0 .2 0 .4-.2.5-.2.2-.2.3-.1.5s.2.5.2.7.1.2.2.1c.1 0 .1 0 .2-.1s.2-.1.3-.2h.4c-.2 0-.3.1-.4.2-.1.2-.3.2-.5.3-.1 0-.1.1-.1.2v.6c0 .1 0 .2-.1.2 0 0 0-.1-.1-.1 0-.2 0-.4 0-.7 0-.1-.1-.1-.2-.1s-.3 0-.4 0c-.2 0-.2 0-.2.2 0 .1.1.2.1.3-.1 0-.1-.1-.3-.2v.4c0 .1 0 .2.1.2s.2.1.3.2c.2.1.3.3.5.4.1 0 .1.1.1.2v.3c0 .2 0 .3.3.3s.6.1.9.3c.2.1.4 0 .5-.1l.2-.2c.3-.4.6-.6.8-.9.1-.1.2-.3.2-.4.1-.5.1-.9-.1-1.4s-.4-.9-.8-1.3c0-.1-.1-.1-.1-.2.4.4.7.8 1 1.3.1.2.2.5.2.8 0 .2.1.5 0 .7-.1.4-.4.7-.6 1s-.4.6-.7.8c.1.1.1.1.2.1.2.1.5.1.7.1h.4c.1 0 .1 0 .2-.1.2-.2.3-.4.5-.6.3-.3.5-.7.6-1.2 0-.5.1-1 .1-1.5 0-.4 0-.9-.2-1.3-.1-.2-.2-.4-.3-.7-.1-.4-.4-.7-.7-1-.1-.1-.2-.1-.3-.3.2.1.3.2.4.3.4.3.6.6.8 1 0 .1.1.3.2.4.2.5.3 1.1.3 1.7 0 .5-.1.9-.1 1.4s-.2 1-.6 1.3c-.2.1-.3.3-.5.5.2 0 .5 0 .6-.1.4-.1.7 0 1 .2.1.1.2.1.3.1.2-.1.4-.1.6-.2 0 0 .1-.1.2-.1.4-.2.7-.5.9-.9.3-.5.5-1.1.7-1.7.1-.4.2-.7.2-1.1 0-.2 0-.3 0-.5.1.4.2.8.1 1.2-.1.5-.2.9-.4 1.4s-.5 1-.9 1.4c-.2.1-.3.3-.5.5h.2c.4-.1.9-.3 1.3-.4.1 0 .2-.1.2-.1.1-.2.3-.2.5-.2h.2c.6-.2 1.1-.3 1.7-.4.2 0 .4-.1.5-.2.2-.2.4-.4.6-.6.3-.3.5-.8.6-1.2.1-.3.1-.3.2-.4 0 .4-.2.9-.3 1.1s-.2.5-.4.6-.3.3-.5.4c0 0-.1.1-.1.1h.1c.9-.2 1.7-.4 2.6-.8.2-.1.4-.1.6-.3.2-.3.5-.5.6-.8.1-.1.1-.2.2-.2s.1-.1.1-.2c-.1-.1 0-.2.1-.2 0 0 0-.1.1-.1.1-.4.2-.8.2-1.2 0-.3 0-.6 0-1 0-.7-.3-1.3-.7-1.8-.2-.2-.3-.3-.5-.5-.1-.1-.2-.2-.3-.2-.3-.1-.5-.3-.7-.5-.1-.1 0-.1 0-.2s.1 0 .1 0c.1 0 .1.1.1.1.1.1.2.2.4.3s.3.2.4.3.3.3.4.4c.2.2.4.4.5.7.2.3.3.6.3 1v.3 1.4c0 .2-.1.4-.1.6.3-.3.4-.7.4-1.1s0-.7 0-1.1c0-.1 0-.1.1-.2 0 .3.1.6.1.9 0 .5 0 1-.3 1.5-.2.2-.3.5-.4.8.2-.1.3-.2.5-.4.1-.1.2-.2.3-.4s.2-.4.4-.5c.3-.3.3-.7.3-1-.1-.5-.1-.9-.2-1.4 0 0 0-.1 0-.2.2.3.2.7.3 1.1.1.3.1.7.1 1.1.5-.3.6-.7.8-1.1v-.1c0-.2-.1-.4-.2-.5-.1-.2-.2-.3-.2-.5-.1-.4-.2-.7-.4-1-.1-.2-.3-.3-.5-.4 0 0-.1 0-.1-.1.6.2.9.6 1.1 1.2 0 .2.1.3.1.5 0 .1.1.3.2.4.1-.4 0-.6-.3-2 .2.1.2.3.3.4 0 .2.1.5.2.7 0 .1.1.2.1.4 0 .5 0 1.1-.2 1.6.1 0 .1 0 .2-.1.3-.1.5-.3.7-.5.3-.3.6-.5.8-.9.1-.1.1-.2.1-.3 0-.2.2-.1.2-.2 0-.2.2-.4.3-.6s.1-.5.3-.6c.1-.1.1-.2 0-.2s-.2-.1-.2-.2c.1-.1.2 0 .3 0 .2.1.2.1.4-.1s.4-.4.6-.7c.4-.4.6-.9.4-1.4 0-.1 0-.1-.1-.2-.2-.5-.3-.9-.8-1.2.2 0 .3 0 .5.2.2.3.4.6.5.9 0 .2.1.3.1.5.3-.2.3-.4.3-.8s-.2-.8-.7-.9c.3-.1.5 0 .7.3.1.2.2.5.2.8.3-.4.4-.6.2-1 0 0 0-.1-.1-.1-.6-.7-.7-.9-1.1-.9.4-.1.6 0 .7.4.1.2.1.4.3.6.1-.3.2-.6 0-.9-.1-.2-.2-.4-.2-.6.2.2.3.5.5.7.1-.2.1-.3.1-.5 0-.1 0-.3 0-.4s0-.2.2-.3c.1-.1.1-.1.1-.2-.1-.1-.2-.1-.2-.1-.4.3-.9.3-1.3.5h-.1c-.1 0-.2.1-.2.2 0 .2-.1.3-.3.3-.1-.1.1-.1 0-.2h-.1c-.5.1-.9.3-1.3.5-.2.1-.4.2-.6.3-.6.2-1.2.5-1.7.9-.1 0-.2.1-.2.2h.5c.4.1.8.1 1.2.2.2 0 .4.1.5.2.2.2.4.5.7.7.2.2.2.4.3.6v.1c-.1 0-.1 0-.1-.1-.1-.1-.1-.3-.2-.4-.3-.3-.5-.6-.8-.8-.1-.1-.1-.1-.2 0 0 .1-.1.1-.1 0s0-.1-.1-.1-.2 0-.3 0-.2 0-.3.1c0 0-.1.1-.1 0v-.1c0-.1 0-.1-.1-.1s-.2-.1-.2 0c-.1.1-.1.1-.2 0 0-.1-.1-.1-.1-.1-.2 0-.5 0-.7 0s-.3.1-.4.2zm-17.2 7.8c-.2.2-.3.3-.5.3-.2.1-.2.1-.1.3 0 .1.1.1.2.1s.2.1.3.2c-.1.1-.2-.1-.4 0 0 .2 0 .2.2.3h.4c.1 0 .1-.1.1-.2.1-.4-.1-.7-.2-1zm.3 3.2c0-.3-.1-.6-.4-.7-.1 0-.1-.1-.2-.2s-.2-.1-.2-.1c-.1 0-.1-.1-.2 0 0 .1-.1.2-.1.3.1.1.2.3.4.4s.3.2.5.3c.1 0 .1.1.2 0zm-1.6-3.2c.1 0 .1 0 .1.1.2.2.5.1.7 0 .1-.1.2-.1.3-.2v-.1c0-.1-.1-.2-.3-.2-.3 0-.6 0-.8.4zm14.8-3.2c0-.3-.1-.5-.2-.6-.2-.3-.5-.6-.7-.9.1.5.5 1.3.9 1.5zm-12.4.8c.5.1.9.4 1.3.7-.2-.4-.6-.7-.9-.9-.1 0-.1 0-.2 0s-.1.1-.2.2zm-2.1 4.1v.2c0 .1.1.1.1.1.1 0 .1 0 .1-.1 0-.2 0-.3 0-.4 0 0 0-.1-.1-.1 0 0-.1 0-.1.1zm-.2-.7.3-.3c.1 0 .1-.1 0-.1 0 0 0-.1-.1-.1s-.1 0-.1.1v.1c-.1.1-.1.2-.1.3zm.1.2h.3c.1 0 .1 0 .1-.1s0-.1 0-.1h-.1c-.1 0-.2.1-.3.2zm0-.8c0-.1-.1-.1-.2-.1s-.1 0-.1.1.1.2.2.1c0 0 .1 0 .1-.1zm.8-1c-.1-.1-.2-.1-.3-.1 0 0-.1.1-.1.1s.1.1.1.1c.1-.1.1-.1.3-.1zm-1 2.7c0-.1 0-.1-.1-.1 0 0 .1 0 .1.1zm-.9-2.4c0-.1 0-.2-.1-.3 0-.1-.1-.1-.1-.1-.1 0-.1.1 0 .1 0 .2.1.4.1.6s.2.3.3.4h.1v-.1c-.2-.1-.2-.3-.3-.6zm21.6-10.1h.3c-.1 0-.2-.1-.3 0zm-6.2 12c.1-.2.1-.4.2-.5s.1-.3 0-.5c-.1-.3 0-.6 0-.9.1-.4.2-.9.2-1.3v-.1c0-.1 0-.1.1-.1s.1 0 .1.1c.1.2.2.3.2.5.1.5 0 1-.1 1.5-.1.3-.3.5-.4.8-.1.1-.2.2-.2.4 0 .1-.1.1 0 .2.1 0 0 .1 0 .1 0-.2-.1-.2-.1-.2zm.6-3.1c-.1.2-.1.4-.2.6 0 .3-.1.6-.2.9s0 .6 0 .9c.7-.7.7-2 .4-2.4zm-1 .2c-.1-.4-.3-.8-.5-1.1-.4-.4-.6-.9-1-1.3-.3-.3-.5-.5-.9-.8-.3-.2-.6-.3-.8-.6-.2-.2-.4-.3-.7-.3.2.2.4.2.6.4.1.1.3.2.4.3.3.2.7.4.9.7.4.4.7.7 1 1.2.1.2.2.3.4.5.3.3.5.7.5 1.1 0 .1 0 .2-.1.3 0 0-.1.1-.1.1.4-.1.4-.2.3-.5zm5.7-2.1c.2-.2.2-.5.2-.8 0-.2 0-.4 0-.6-.1-.3-.1-.7-.2-1s-.3-.6-.5-.8c0 0-.1-.1-.1 0s0 .1.1.1c.3.3.4.7.5 1.1s.2.8.1 1.1v.2c0 .2 0 .3-.1.4s-.2.3-.1.5c.1 0 .1-.1.1-.2zm-9.1.6c.2.6.4 1.1.8 1.6.1.1.2.2.2.4.1.2.1.5.2.7v.3c0 .2-.1.3-.2.4s-.1.2 0 .4c.1-.3.3-.5.4-.7 0-.1.1-.2 0-.4-.1-.3-.2-.5-.2-.8 0-.1-.1-.3-.2-.4-.3-.3-.5-.7-.6-1.1-.1-.2-.2-.4-.4-.4 0-.1 0-.1 0 0zm-.7 3.2c.1.3.1.6 0 .9-.1.4-.2.7-.3 1.1-.1.3-.3.5-.5.7-.1.1-.2.1-.1.2s.2 0 .3-.1c0 0 .1 0 .1-.1.1-.2.3-.4.4-.6.2-.5.3-1 .4-1.6 0-.1 0-.2 0-.3-.1-.2-.2-.4-.3-.7zm-1.4-2.3c.3.5.3 1 .3 1.5s-.2 1-.3 1.5c.6-.6.7-2.3 0-3zm3.3.2c-.2-.4-.4-.6-.6-.7.4.5.6 1 .8 1.6.1-.4-.1-.6-.2-.9zm5.3-2.1c-.2-.2-.5-.3-.7-.5-.1-.1-.1-.1-.3-.1.4.4.9.6 1.3 1-.1-.2-.2-.3-.3-.4zm2.5-3.8v.2h.1c0-.1 0-.2.1-.2s.1 0 .1-.1-.1 0-.1 0c-.1 0-.2 0-.2.1zm-5.3 9.5c0 .2-.1.3-.3.5.3 0 .4-.2.3-.5zm4.1-9.7c0 .1.1.2.1.1.1 0 .1-.1 0-.2.1 0 0 .1-.1.1zm.3.9s0 .1 0 0c.1.1.2 0 .2 0-.1-.1-.1-.1-.2 0 0-.1 0-.1 0 0zm.6-.8c.1 0 .1-.1.1-.1s0-.1-.1-.1-.1 0 0 .2c-.1-.1-.1 0 0 0zm-3.8 8.6c0 .1 0 .1.1.1 0-.1 0-.1-.1-.1zm.5.1c0 .1 0 .1 0 0h.2c-.1 0-.1-.1-.2 0zm-.7.2c.1.1.1 0 .1 0 0-.1 0-.1-.1 0 0-.1 0-.1 0 0zm-.2.8c.1 0 .1 0 0 0h.2s0-.1-.1-.1c0 0-.1 0-.1.1zm1.4-2.6c0-.1 0-.1-.1-.1 0 0-.1 0 .1.1-.1 0-.1 0 0 0zm4.6-6.7s0 .1 0 0h.2c-.1-.1-.1-.1-.2 0 0-.1 0-.1 0 0zm-5 6.8s.1.1 0 0c.1.1.1.1.1 0 .1 0 0 0-.1 0 .1-.1 0 0 0 0zm.2.8c0-.1 0-.1 0-.1-.1 0-.1 0 0 .1-.1 0-.1 0 0 0zm-.1.4c.1.1.1 0 .1 0 .1-.1 0-.1-.1 0 0-.1 0-.1 0 0zm4.3-8.3c.1 0 .1 0 .1-.1-.1 0-.1 0-.1.1zm-5.1 9.3c.1 0 .1 0 0 0 0-.1 0-.1 0-.1s-.1 0 0 .1zm-.5-.4c0 .1 0 .1 0 0 .1.1.1 0 .1 0zm1.3-2.2c.1.1.1 0 .1 0 0-.1 0-.1-.1 0 0-.1 0-.1 0 0zm.1.7c.1 0 .1 0 0 0h.1c.1-.1 0-.1-.1 0 .1-.1 0-.1 0 0zm1.7-7.3s.1.1 0 0h.1c.1 0 .1-.1-.1 0 .1-.1 0 0 0 0zm.5.8c.1 0 .1 0 .1-.1 0 0 0 0-.1 0 0 0-.1 0 0 .1zm.2-.7c.1 0 .1 0 .1-.1 0 0 0 0-.1 0 0 0-.1 0 0 .1zm.2-.4s0 .1 0 0c.1.1.1 0 .1 0s0-.1-.1 0c0-.1 0 0 0 0zm.5.3c.1 0 .1-.1.1-.1-.2-.1-.2 0-.1.1-.1 0-.1 0 0 0zm-3.5 7.7c0-.1 0-.1 0-.1-.1 0-.1 0 0 .1-.1 0-.1 0 0 0zm0 .3s-.1.1 0 0c-.1.1 0 .1 0 .1 0 .1.1 0 0-.1zm1.5-7.7c0 .1 0 .1 0 0h.1s0 0-.1 0zm-.5.4s0 .1 0 0c-.1.1-.1.1 0 .1.1.1.1 0 0-.1.1.1.1 0 0 0zm1.4-.5c.1 0 .1-.1 0 0 .1-.1.1-.1 0-.1zm.3.1c.1-.1.1-.1 0-.1s-.1 0 0 .1c-.1 0-.1 0 0 0zm.4-.2c0 .1 0 .1 0 0 .1 0 .1 0 .1-.1-.1.1-.1.1-.1.1zm2.5 2.7c0 .1 0 .1 0 0h.1c0-.1 0-.1-.1 0 0-.1 0 0 0 0zm-4.9 4.4h.1c0-.1 0-.1-.1 0 0-.1 0 0 0 0zm-.9 1.8c.1-.1 0-.1 0-.1-.1 0-.1 0 0 .1-.1 0-.1 0 0 0zm4.2-8.3h.1c0-.1-.1-.1-.1 0 0-.1 0-.1 0 0zm-3.2-.2c-.1.1-.1.1 0 .1 0 0 .1 0 0-.1.1 0 .1 0 0 0zm3.3-.3s.1 0 0 0c.1 0 .1 0 .1-.1.1 0 0 0-.1.1.1-.1 0-.1 0 0zm-.3.2c0 .1 0 .1 0 0 .1.1.1 0 .1 0s0 0-.1 0zm.8-.1c-.1.1-.1.1 0 .1 0 0 0 0 0-.1zm.7 3.1c.1 0 .1 0 0 0 0-.1 0-.1 0-.1zm-.4-3.1c.1 0 .1 0 0 0 .1-.1.1-.1 0-.1zm.7 2.2c0 .1 0 .1 0 0 0 .1.1.1 0 0 .1.1.1 0 0 0zm-3.5-2c.1 0 .1-.1 0 0 .1-.1 0-.1 0-.1zm1-.6s.1.1 0 0c.1 0 .1 0 0 0 .1-.1.1-.1.1-.1-.1.1-.1.1-.1.1zm.2.5c.1 0 .1 0 0 0 .1-.1.1-.1 0-.1zm-2.7 7c-.1.1 0 .1 0 .1.1 0 .1 0 0-.1.1 0 .1 0 0 0zm-1.2.6s.1 0 0 0h.1c0-.1 0-.1-.1 0 0-.1 0-.1 0 0zm3.8-7.2s.1 0 0 0c0-.1 0-.1 0 0 0-.1-.1 0 0 0zm1.8 2.8s0 .1 0 0c.1.1.1.1.1 0 0 0 0 0-.1 0zm-4.2 3.2h.1s0-.1-.1 0c0-.1 0 0 0 0zm-2.1 2.8h.1c0-.1 0-.1-.1 0 0-.1 0-.1 0 0zm2.1-3.2c.1 0 .1 0 0 0 0-.1 0-.1 0-.1zm.1-.7c0 .1 0 .1 0 0 .1.1.1.1 0 0 .1 0 .1 0 0 0zm3.5-5.6c.1 0 .1 0 .1-.1 0 0 0 0-.1.1 0-.1 0 0 0 0z" fill="#f39f4e"/></svg>