<?xml version="1.0" encoding="utf-8"?>
<!-- Generator: Adobe Illustrator 22.0.1, SVG Export Plug-In . SVG Version: 6.00 Build 0)  -->
<svg version="1.1" id="Layer_1" xmlns="http://www.w3.org/2000/svg" xmlns:xlink="http://www.w3.org/1999/xlink" x="0px" y="0px"
	 viewBox="0 0 30 32.2" style="enable-background:new 0 0 30 32.2;" xml:space="preserve">
<style type="text/css">
	.st0{fill:#AA2335;}
</style>
<g>
	<path class="st0" d="M25.9,2.6c-0.1,0-0.2-0.1-0.3,0c0.2,0.1,0.3,0.1,0.5,0.1c0.1,0,0.1,0,0.1-0.1c0,0,0.1,0,0.1,0
		c0,0,0.1-0.1,0.1-0.1c0.1-0.1,0.1-0.1,0.3,0c0.1,0.1,0.1,0.1,0.2,0.1c0.1,0,0.2,0,0.2,0c0.1,0,0.2,0,0.3-0.1c0,0,0-0.1,0.1-0.1
		c0,0.2-0.2,0.4-0.4,0.3c-0.1,0-0.1,0-0.2,0c0,0.1,0.1,0.1,0.1,0.1c0.3,0,0.4,0.2,0.6,0.4c0.1,0.1,0.2,0.2,0.4,0.3
		c0.2,0.1,0.4,0.2,0.5,0.4c0,0.1,0.1,0.2,0.2,0.3c0.1,0.1,0.1,0.1,0.2,0C29,4.1,29.1,4,29.1,3.9c0,0.1,0,0.2,0,0.2
		c-0.1,0.1-0.3,0.2-0.5,0.2c-0.1,0.2-0.1,0.5,0.1,0.6c0.1,0.1,0.1,0.1,0.2,0.2c0.1,0.1,0.2,0.2,0.3,0.3c0.2,0.2,0.3,0.5,0.5,0.8
		c0.1,0.2,0.1,0.4,0,0.6c0,0,0,0,0,0c0,0,0-0.1,0-0.1c0-0.2,0-0.3-0.1-0.5c-0.1-0.2-0.2-0.4-0.3-0.5c-0.1-0.2-0.3-0.4-0.6-0.5
		c0,0,0,0,0,0.1c-0.1,0.3-0.1,0.6-0.2,0.9c-0.1,0.1-0.1,0.3-0.1,0.4c0,0.1,0,0.2,0,0.3c0,0.4,0.1,0.8,0.2,1.1c0,0,0.1,0,0,0.1
		c-0.1,0-0.1-0.1-0.1-0.1c-0.1-0.1-0.1-0.2-0.1-0.3c-0.1-0.2-0.1-0.5-0.1-0.7c0-0.3,0-0.7,0.1-1c0-0.1,0-0.2,0-0.3
		c-0.1,0.1-0.1,0.2-0.1,0.2c-0.1,0.5-0.4,1-0.7,1.4c-0.1,0.1-0.1,0.2-0.2,0.3C27.3,7.7,27.1,8,27,8.2c0,0,0,0.1-0.1,0.1
		c-0.1,0.2-0.2,0.4-0.3,0.6c-0.2,0.4-0.5,0.7-0.9,1c-0.2,0.1-0.3,0.3-0.4,0.4c-0.1,0.2-0.3,0.3-0.4,0.4c-0.2,0.2-0.4,0.3-0.6,0.4
		c-0.2,0.1-0.3,0.3-0.5,0.4c-0.2,0.1-0.3,0.2-0.5,0.3c-0.1,0.1-0.2,0.2-0.4,0.3c-0.2,0.2-0.4,0.3-0.6,0.5c-0.2,0.2-0.4,0.4-0.6,0.7
		c-0.1,0.2-0.2,0.4-0.4,0.5c-0.1,0.1-0.1,0.2-0.2,0.3c-0.2,0.4-0.4,0.7-0.6,1c-0.2,0.2-0.3,0.4-0.4,0.6c-0.2,0.3-0.5,0.5-0.8,0.8
		c0,0-0.1,0.1-0.1,0.1c-0.2,0.3-0.5,0.5-0.7,0.8c-0.3,0.4-1.5,2.2-1.7,2.4c-0.3,0.2-2.3,1.7-2.4,1.8c-0.3,0.1-0.5,0.3-0.7,0.5
		c-0.1,0-0.1,0.1-0.2,0.1c-0.2,0.1-0.3,0.2-0.5,0.3c-0.1,0.1-0.2,0.2-0.4,0.4c-0.2,0.1-0.3,0.3-0.5,0.3c-0.1,0-0.1,0.1-0.1,0.1
		c-0.3,0.3-0.7,0.6-1.1,0.8c-0.1,0-0.2,0.1-0.2,0.1c-0.1,0.1-0.1,0.2-0.2,0.2c0,0,0,0,0,0c-0.3,0.4-0.7,0.6-1.1,0.8
		c-0.1,0.1-0.3,0.1-0.4,0.2c-0.2,0.1-0.4,0.2-0.6,0.3c-0.3,0.1-0.6,0.2-0.9,0.3c-0.3,0.2-0.6,0.3-0.9,0.4c-0.1,0.1-0.2,0.1-0.3,0.2
		c-0.3,0.2-0.5,0.3-0.8,0.4c-0.3,0.2-0.6,0.3-0.9,0.5c-0.2,0.1-0.4,0.3-0.7,0.4c-0.3,0.1-0.5,0.4-0.6,0.7c0,0.1-0.1,0.2-0.1,0.3
		c-0.1,0.2-0.2,0.5-0.3,0.8c0,0.1-0.1,0.3-0.1,0.4c0,0.1,0,0.1,0,0.2c0,0,0-0.1,0-0.1c0-0.2,0-0.4,0.1-0.6c0.1-0.2,0.1-0.4,0.3-0.6
		C3,29.2,3,29.1,3,29c0-0.2,0.1-0.4,0.2-0.5c0,0,0.1-0.1,0.1-0.1c-0.1,0-0.2,0-0.3,0.1c-0.1,0.1-0.2,0.1-0.3,0.2
		c-0.1,0-0.2,0.1-0.2,0.1c-0.2,0.2-0.4,0.4-0.5,0.7c-0.1,0.2-0.1,0.4-0.2,0.6c0,0.1,0,0.1-0.1,0.2c0.1-0.7,0.3-1.3,0.9-1.7
		c-0.1,0-0.1,0-0.2,0c0,0-0.1,0-0.1,0c-0.2,0-0.3,0.1-0.4,0.2c-0.4,0.5-0.8,1-1.1,1.5c0,0,0,0.1-0.1,0.1c0-0.1,0-0.1,0-0.2
		c0.3-0.4,0.6-0.9,0.9-1.3c0,0,0.1-0.1,0.1-0.2c-0.2,0.1-0.4,0.2-0.6,0.3c-0.5,0.3-0.8,0.7-1,1.1c0,0,0-0.1,0-0.1
		c0.1-0.3,0.3-0.6,0.6-0.9c0.3-0.3,0.7-0.5,1.1-0.6c0.1,0,0.2-0.1,0.3-0.2c0.2-0.2,0.4-0.4,0.5-0.7c0,0,0.1-0.1,0-0.1
		c0,0-0.1,0-0.1,0c-0.3,0.1-0.6,0.3-0.8,0.5c-0.2,0.1-0.4,0.3-0.6,0.4c-0.1,0-0.2,0-0.3,0c0,0,0,0,0,0c0.3-0.1,0.6-0.3,0.8-0.5
		c0.3-0.3,0.6-0.5,1-0.7c0.1,0,0.1-0.1,0.2-0.2c0.1-0.2,0.2-0.4,0.3-0.5c0,0,0-0.1,0.1-0.1c-0.2,0.1-0.3,0.2-0.4,0.3
		c-0.3,0.2-0.6,0.5-1,0.6c-0.1,0-0.2,0.1-0.3,0.2c0,0-0.1,0.1-0.1,0.1c0.1-0.2,0.2-0.3,0.4-0.3c0.2-0.1,0.5-0.2,0.6-0.3
		c0.2-0.1,0.3-0.3,0.5-0.4c0.1-0.1,0.2-0.2,0.3-0.3c0.1-0.1,0.2-0.2,0.3-0.3c0.2-0.1,0.3-0.3,0.5-0.4c0.2-0.1,0.3-0.3,0.4-0.5
		c0.2-0.3,0.3-0.6,0.5-0.9c0,0,0-0.1,0.1-0.1c0.4-0.3,0.7-0.7,1-1.1c0.2-0.3,0.4-0.6,0.5-1C6.8,22,6.9,21.8,7,21.5
		c0.1-0.2,0.2-0.4,0.3-0.6c0-0.1,0.1-0.3,0.2-0.4c0.1-0.2,0.2-0.3,0.3-0.5c0.1-0.4,0.3-0.7,0.5-1.1c0.1-0.2,0.2-0.3,0.3-0.5
		c0.2-0.2,0.3-0.4,0.4-0.6c0-0.1,0.1-0.1,0.1-0.2c0.1-0.1,0.2-0.2,0.3-0.4c0-0.1,0.1-0.1,0.1-0.2c0.1-0.1,0.2-0.2,0.3-0.3
		c0.1-0.1,0.2-0.2,0.4-0.3c0.2-0.1,0.5-0.3,0.6-0.5c0.1-0.1,0.1-0.2,0.2-0.2c0.1-0.1,0.1-0.2,0.1-0.3c0-0.1,0.1-0.2,0.1-0.3
		c0-0.2,0.2-0.3,0.3-0.4c0.1-0.1,0.1-0.1,0.2-0.2c0.1-0.1,0.1-0.2,0.1-0.3c0-0.1,0.1-0.1,0.1-0.1c0.1-0.1,0.2-0.2,0.2-0.3
		c0.2-0.3,0.3-0.5,0.5-0.8c0.1-0.2,0.3-0.4,0.4-0.5c0.1-0.1,0.2-0.2,0.2-0.3c0.1-0.2,0.2-0.3,0.3-0.4c0.2-0.2,0.1-0.9,0.6-1.2
		c0.1-0.1,0.9-0.7,1.2-1c0.1-0.2,0.3-0.3,0.4-0.5c0.2-0.2,0.4-0.4,0.5-0.6c0.3-0.3,0.5-0.6,0.8-0.8c0.1,0,0.1-0.1,0.2-0.2
		c0.1-0.1,0.1-0.1,0.2-0.2c0.1-0.1,0.2-0.1,0.3-0.2C18,7,18.2,6.9,18.4,6.8c0.2-0.1,0.4-0.2,0.5-0.3c0.1-0.1,0.2-0.2,0.4-0.3
		c0.1,0,0.1-0.1,0.2-0.2c0.1-0.1,0.2-0.2,0.3-0.3c0.2-0.2,0.4-0.4,0.6-0.6c0.2-0.2,0.4-0.4,0.6-0.6c0.1-0.1,0.2-0.2,0.4-0.3
		c0.1-0.1,0.2-0.2,0.3-0.3c0.3-0.3,0.7-0.5,1-0.8c0,0,0.1-0.1,0.2-0.1c0.3-0.1,0.6-0.2,0.9-0.3c0.1,0,0.2-0.1,0.2-0.1
		c0.3,0,0.5-0.1,0.8-0.1c0.1,0,0.3,0,0.4-0.1c-0.1-0.1-0.2-0.2-0.3-0.3c-0.1-0.1-0.1-0.1-0.3-0.2c0,0-0.1,0-0.1,0
		c-0.3,0-0.6-0.1-0.9-0.1c-0.1,0-0.3,0-0.4-0.1c-0.1,0-0.2,0-0.3-0.1c0.3,0.1,0.5,0.1,0.8,0.1c0.1,0,0.1,0,0.2,0
		c0.2,0,0.5,0.1,0.7,0.1c0.1,0,0.2,0.1,0.3,0.2c0.1,0.1,0.1,0.2,0.2,0.3c0.1,0.1,0.1,0.1,0.2,0.1c0.3,0,0.6,0.1,0.9,0.1c0,0,0,0,0,0
		C26.1,2.6,26,2.6,25.9,2.6z M23.2,3.5c-0.5,0.1-0.8,0.4-1.2,0.7c-0.3,0.3-0.7,0.7-0.9,1c-0.1,0.2-0.3,0.4-0.5,0.5
		c-0.3,0.2-0.6,0.5-0.9,0.7c-0.3,0.2-0.5,0.4-0.8,0.6c-0.2,0.1-0.3,0.2-0.5,0.4c-0.3,0.2-0.7,0.4-1,0.7c0,0,0,0,0,0
		c-0.2,0.1-0.2,0.2,0,0.3c0.1,0.1,0.1,0.1,0.2,0.2c0.1,0.1,0.1,0.1,0.2,0C18,8.5,18,8.4,18,8.3c0.1-0.2,0.2-0.4,0.4-0.6
		c0.4-0.4,0.7-0.7,1.2-0.9c0.3-0.2,0.5-0.3,0.8-0.5c0.2-0.1,0.3-0.2,0.5-0.3C20.9,6,21,5.9,21,5.8c0.3-0.5,0.6-0.9,0.9-1.3
		c0.1-0.1,0.2-0.2,0.4-0.3c0.4-0.3,0.9-0.5,1.3-0.7c0.1,0,0.2,0,0.2,0c0.1,0,0.1,0,0.2-0.2c-0.1,0.1-0.3,0.1-0.4,0.2
		C23.5,3.5,23.3,3.5,23.2,3.5z M16.9,13C16.9,12.9,16.9,12.9,16.9,13c0.2-0.2,0.3-0.4,0.5-0.6c0.1-0.1,0.2-0.3,0.4-0.4
		c0.3-0.2,0.5-0.5,0.8-0.7c0.2-0.1,0.3-0.3,0.4-0.5c0.1-0.1,0.1-0.2,0.1-0.3c0,0,0-0.1,0-0.1c-0.1-0.2-0.1-0.4-0.3-0.5
		c-0.2,0.3-0.4,0.5-0.6,0.8c-0.2,0.2-0.4,0.4-0.6,0.6c-0.3,0.2-0.6,0.4-0.8,0.7c0,0,0,0-0.1,0c0.1-0.1,0.1-0.1,0.2-0.2
		c0.2-0.2,0.5-0.4,0.7-0.6c0.2-0.2,0.5-0.5,0.7-0.7c0.1-0.2,0.2-0.3,0.3-0.4c0.1-0.1,0.1-0.2,0.1-0.3c0-0.1,0-0.2-0.1-0.2
		c-0.1,0-0.1,0-0.1,0c-0.3,0.4-0.7,0.9-1.1,1.3c-0.2,0.3-0.5,0.5-0.8,0.7c-0.1,0.1-0.1,0.1-0.2,0.2c-0.1,0.1-0.1,0.1-0.2,0.2
		c0.2-0.2,0.3-0.4,0.5-0.6c0.3-0.3,0.7-0.6,1-1c0.2-0.3,0.5-0.6,0.7-0.9c0,0,0.1-0.1,0-0.1c-0.1,0-0.1,0-0.1,0
		c-0.2,0.3-0.4,0.6-0.6,0.9c-0.2,0.3-0.4,0.5-0.6,0.7c-0.3,0.3-0.7,0.6-1,0.9c0.1-0.3,0.3-0.4,0.5-0.6c0.2-0.2,0.5-0.4,0.7-0.7
		c0.1-0.1,0.3-0.3,0.4-0.4c0.2-0.2,0.3-0.4,0.5-0.7c0.1-0.1,0.1-0.2,0-0.3c0,0-0.1-0.1-0.1-0.1c-0.1,0-0.1-0.1-0.1-0.2
		c0-0.1,0-0.1-0.1-0.1c-0.1,0-0.1,0-0.2,0.1c-0.2,0.2-0.3,0.4-0.5,0.5c-0.2,0.2-0.4,0.4-0.6,0.7c0,0.1-0.1,0.1-0.2,0.2
		c-0.2,0.1-0.5,0.3-0.7,0.4c-0.1,0-0.1,0.1-0.2,0.1c-0.3,0.1-0.5,0.2-0.7,0.4c-0.2,0.2-0.4,0.9-0.6,1.1c-0.1,0.2-0.3,0.3-0.4,0.5
		c-0.3,0.4-0.6,0.8-0.8,1.3c-0.1,0.2-0.2,0.3-0.3,0.5c0,0.1-0.1,0.1-0.2,0.1c0-0.1,0-0.1,0-0.1c0.1-0.1,0.2-0.3,0.3-0.5
		c0.1-0.1,0.2-0.3,0.2-0.4c0.2-0.3,0.5-0.6,0.7-1c0.1-0.2,0.3-0.4,0.5-0.6c0.3-0.4,0.2-0.6,0.2-0.7c0.1-0.1,0.2-0.2,0.3-0.3
		c0.1-0.2,0.3-0.3,0.5-0.4c0.4-0.1,0.7-0.3,1-0.5c0.1,0,0.1-0.1,0.2-0.2c0.1-0.2,0.3-0.4,0.5-0.5c0.2-0.2,0.5-0.4,0.7-0.7
		c0,0,0,0,0.1-0.1c-0.1-0.1-0.2-0.1-0.3-0.1c-0.1,0-0.1,0-0.2-0.1c-0.2-0.1-0.2-0.1-0.1-0.3c0,0,0,0,0,0c0,0-0.1,0-0.1,0
		C16.5,8.5,16.2,8.7,16,9c-0.2,0.2-0.4,0.5-0.6,0.7c-0.2,0.2-0.9,0.8-1.1,0.9c-0.1,0.1-0.1,0.3,0.1,0.2c0.2-0.1,0.6-0.5,0.7-0.6
		c0.3-0.3,0.7-0.6,1-0.9c0.2-0.2,0.5-0.4,0.6-0.6c0,0,0.1-0.1,0.1-0.1c0.1,0.1,0,0.1-0.1,0.1c-0.2,0.2-0.4,0.4-0.6,0.5
		c-0.2,0.2-0.5,0.4-0.7,0.6c-0.2,0.2-0.3,0.3-0.5,0.5c-0.2,0.2-0.2,0.3-0.5,0.4c-0.4,0.2-0.8,0.9-0.9,1c-0.1,0.1-0.1,0.2-0.2,0.3
		c-0.1,0.2-0.2,0.3-0.3,0.5c-0.3,0.3-0.5,0.6-0.7,1c-0.1,0.2-0.3,0.4-0.4,0.5c0,0-0.1,0.1-0.1,0.1c-0.1,0.3-0.3,0.6-0.5,0.8
		c0,0-0.1,0.1-0.1,0.2c-0.1,0.3-0.2,0.5-0.4,0.7c-0.2,0.3-0.6,0.5-0.9,0.7c-0.3,0.2-0.6,0.4-0.7,0.7c0,0.1-0.1,0.1-0.1,0.2
		C9,17.8,8.9,18,8.7,18.3c-0.1,0.1-0.1,0.2,0,0.3c0.2,0.1,0.3,0.2,0.4,0.4c0,0.1,0.1,0,0.1,0c0.1-0.1,0.2-0.3,0.2-0.4
		c0.2-0.4,0.4-0.8,0.6-1.1c0.2-0.3,0.4-0.5,0.7-0.7c0.2-0.2,0.5-0.3,0.7-0.6c0.1-0.2,0.3-0.3,0.4-0.5c0-0.1-0.1-0.1-0.1-0.1
		c0,0,0-0.1,0-0.1c0.1,0,0.2,0.2,0.3,0.2c0.1-0.3,0.3-0.6,0.5-0.8c0.4-0.4,0.7-0.8,0.9-1.3c0.2-0.5,1-0.5,0.7-0.3
		c-0.3,0.2-0.5,0.5-0.8,0.7c-0.2,0.2-0.4,0.4-0.5,0.6c-0.2,0.2-0.4,0.4-0.6,0.7c-0.1,0.1-0.2,0.3-0.3,0.5c0,0,0,0.1,0,0.1
		c0,0.1,0.1,0.1,0.1,0.2c0,0.2,0.1,0.3,0.2,0.4c0.1,0.1,0.1,0.2,0.2,0.3c0,0.1,0.1,0.1,0.2,0c0.3-0.2,0.4-0.6,0.7-0.8
		c0.3-0.2,0.4-0.7,0.7-0.9c0.1-0.1,0.2-0.1,0.3-0.2c0,0.1-0.1,0.1-0.2,0.2c-0.3,0.3-0.6,0.8-0.9,1.1c-0.2,0.1-0.3,0.5-0.5,0.7
		c-0.1,0-0.1,0.1-0.1,0.1c0,0.1-0.1,0.1-0.2,0c0,0-0.1-0.1-0.1-0.1c-0.1-0.1-0.1-0.2-0.3-0.3c-0.1-0.1-0.2-0.2-0.2-0.3
		c0-0.1-0.1-0.3-0.2-0.4c-0.1,0.1-0.2,0.2-0.3,0.3c0,0-0.1,0.1-0.1,0.2c-0.2,0.3-0.4,0.5-0.7,0.6c-0.3,0.2-0.6,0.4-0.8,0.7
		C10,17.7,9.9,18,9.7,18.2c-0.1,0.2-0.2,0.4-0.3,0.7c0,0,0,0.1-0.1,0.1c-0.1,0.2-0.3,0.4-0.4,0.5c0,0,0-0.1,0-0.1
		c0-0.1,0.1-0.2,0.1-0.2c0.1-0.1,0.1-0.2,0-0.3c-0.1-0.1-0.1-0.1-0.2-0.2c-0.1,0-0.2-0.1-0.2-0.2c-0.1,0.1-0.1,0.1-0.2,0.2
		c-0.2,0.4-0.4,0.8-0.5,1.2c-0.1,0.2-0.1,0.4-0.3,0.5c-0.1,0.1-0.1,0.2-0.1,0.3c-0.1,0.3-0.2,0.6-0.4,0.8C7,21.8,6.9,22,6.8,22.2
		c-0.2,0.5-0.4,0.9-0.7,1.3c-0.2,0.3-0.5,0.6-0.8,0.8c-0.2,0.1-0.2,0.3-0.3,0.5c-0.2,0.3-0.3,0.5-0.5,0.8c-0.1,0.2-0.3,0.3-0.4,0.5
		C4,26.1,4,26.2,3.9,26.2c-0.1,0.1-0.2,0.2-0.3,0.4c-0.1,0.2-0.3,0.3-0.4,0.5c0,0,0,0,0,0.1c0,0,0.1,0,0.1,0
		c0.1-0.1,0.3-0.1,0.4-0.2c0.4-0.2,0.6-0.4,0.8-0.8c0-0.1,0.1-0.1,0.1-0.2c0,0,0-0.1,0.1-0.1c0,0,0.1,0,0.1,0c0,0,0,0.1,0,0.1
		c0,0.1-0.1,0.1-0.1,0.2c-0.1,0.2-0.2,0.3-0.4,0.5C4.2,26.9,4,27,3.8,27.1c-0.2,0.1-0.5,0.2-0.7,0.4C3,27.5,3,27.5,3,27.6
		c-0.1,0.2-0.2,0.5-0.4,0.6c0,0,0,0.1-0.1,0.1c0.1,0,0.2,0,0.3-0.1c0.1-0.3,0.4-0.5,0.6-0.7c0.2-0.1,0.3-0.2,0.5-0.3
		c0.2-0.1,0.3-0.2,0.4-0.4c0.2-0.2,0.4-0.4,0.5-0.6C4.9,26.1,5,26,5,25.9c0-0.1,0.1-0.2,0.1-0.3c0-0.1,0.1-0.1,0.1-0.2
		c0.2-0.4,0.4-0.8,0.7-1.2c0.2-0.2,0.4-0.5,0.6-0.8c0.1-0.1,0.1-0.2,0.1-0.3c0,0,0-0.1,0-0.1c0,0,0,0,0.1,0.1c0.1,0.1,0,0.3-0.1,0.4
		c-0.2,0.3-0.5,0.6-0.7,0.9c-0.2,0.2-0.2,0.4-0.4,0.6c0,0,0.1,0,0.1,0c0.3-0.3,0.6-0.6,0.8-0.9c0.2-0.3,0.3-0.5,0.5-0.8
		C7,23.2,7.1,23.1,7.1,23c0.2-0.2,0.4-0.5,0.5-0.7c0.2-0.3,0.5-0.6,0.7-0.9c0.1-0.2,0.2-0.4,0.3-0.6c0.1-0.2,0.2-0.3,0.3-0.4
		c0,0,0,0,0.1-0.1c0,0,0.1,0,0.1,0c0,0,0,0-0.1,0.1c0,0-0.1,0-0.1,0.1c-0.1,0.1-0.1,0.2-0.2,0.3c-0.1,0.3-0.3,0.6-0.5,0.9
		c-0.3,0.3-0.5,0.6-0.7,1c-0.1,0.2-0.2,0.3-0.3,0.4c0,0-0.1,0.1-0.1,0.1c0,0.2-0.2,0.2-0.3,0.4c-0.1,0.3-0.4,0.5-0.5,0.8
		c-0.2,0.3-0.5,0.6-0.7,0.8c-0.1,0.1-0.2,0.2-0.2,0.3c-0.1,0.2-0.2,0.3-0.2,0.5c0.3-0.3,0.7-0.5,0.9-0.8c0.2-0.3,0.4-0.5,0.6-0.8
		c0.1-0.1,0.1-0.3,0.2-0.5C7,23.6,7,23.4,7.2,23.3c0.1-0.1,0.2-0.3,0.3-0.4c0.2-0.1,0.3-0.3,0.5-0.4c0.1-0.1,0.2-0.2,0.3-0.3
		c0.1-0.1,0.2-0.2,0.3-0.3c0.2-0.2,0.4-0.5,0.6-0.7c0-0.1,0.1-0.1,0.2-0.2c-0.2,0.4-0.5,0.7-0.8,1c-0.1,0.1-0.2,0.3-0.3,0.4
		c-0.2,0.2-0.4,0.4-0.6,0.6c-0.1,0.1-0.3,0.3-0.4,0.5c0,0.1-0.1,0.1,0,0.2c0,0.1,0,0.1-0.1,0.2c-0.1-0.1,0-0.1,0-0.2
		c-0.1,0-0.1,0.1-0.1,0.2C7,23.8,7,23.9,7,24c-0.1,0.3-0.2,0.5-0.4,0.7c-0.1,0.2-0.3,0.3-0.4,0.5c-0.1,0.2-0.3,0.3-0.5,0.5
		c-0.2,0.2-0.4,0.3-0.6,0.5c-0.1,0.1-0.2,0.2-0.3,0.3c-0.2,0.1-0.3,0.3-0.4,0.4c-0.1,0.2-0.3,0.3-0.5,0.4C3.5,27.6,3.2,27.8,3,28
		c-0.1,0.1-0.1,0.1-0.1,0.2c0,0,0.1,0,0.1,0c0,0,0.1,0,0.1,0c0.4-0.1,0.4-0.1,0.8-0.4c0.1-0.1,0.2-0.2,0.3-0.3
		c0.2-0.2,0.5-0.4,0.7-0.5c0.2-0.1,0.4-0.2,0.6-0.3c0,0,0,0,0.1,0c0,0,0.1,0,0,0.1c0,0-0.1,0.1-0.1,0.1c-0.3,0.2-0.5,0.3-0.8,0.5
		C4.3,27.5,4,27.7,3.8,28c0.2,0,0.3-0.1,0.4-0.2c0.3-0.2,0.7-0.4,1-0.6c0.3-0.2,0.6-0.3,0.9-0.5c0.3-0.2,0.6-0.3,0.8-0.5
		c0.1-0.1,0.3-0.2,0.5-0.3c0.3-0.2,0.6-0.3,0.9-0.5c0.3-0.2,0.6-0.4,1-0.6c0.2-0.1,0.4-0.2,0.6-0.3c0.1,0,0.1-0.1,0.2-0.2
		c0.1-0.1,0.2-0.2,0.3-0.3c0.1-0.1,0.2-0.2,0.3-0.3c0-0.1,0.1-0.1,0.2-0.2c0.2-0.2,0.5-0.4,0.7-0.6c0.1-0.1,0.3-0.2,0.4-0.3
		c0.1,0,0.2-0.1,0.2-0.2c0,0,0,0,0,0c0.1-0.3,0.3-0.4,0.5-0.5c0.1,0,0.2-0.1,0.2-0.2c0,0,0-0.1,0-0.1c-0.1-0.1-0.2-0.2-0.3-0.3
		c-0.1-0.1-0.3-0.1-0.4,0c-0.2,0.2-0.4,0.3-0.5,0.5c-0.1,0.1-0.2,0.2-0.4,0.3c-0.1,0-0.1,0.1-0.2,0.2c0-0.1,0-0.1,0.1-0.2
		c0.1,0,0.1-0.1,0-0.1c-0.1-0.1-0.2-0.3-0.3-0.4c-0.1-0.1-0.2-0.2-0.3-0.3c-0.1-0.1-0.2-0.2-0.3-0.3c0.1,0,0.1,0,0.1,0
		c0.1,0.1,0.2,0.2,0.3,0.3c0.1,0,0.1,0.1,0.2,0.2c0.1,0.1,0.1,0.2,0.2,0.3c0,0,0.1,0.1,0.1,0.1c0.1,0.1,0.2,0.1,0.2,0
		c0.2-0.2,0.5-0.4,0.7-0.6c0,0,0.1-0.1,0.1-0.1c0-0.1-0.1-0.1-0.1-0.1c0-0.1,0.1,0,0.2,0c-0.1-0.1-0.3-0.1-0.5-0.2
		c0.2-0.1,0.3,0,0.4,0c0.1,0,0.2,0.1,0.2,0.1c0,0,0.1,0,0.1,0c0,0,0,0,0.1,0c0.2-0.1,0.4-0.2,0.6-0.3c0.2-0.1,0.4-0.3,0.6-0.5
		c0.2-0.2,0.4-0.4,0.6-0.6c0.1-0.1,0.2-0.2,0.3-0.3c0,0,0-0.1,0.1,0c0,0,0,0.1,0,0.1c-0.1,0.2-0.3,0.3-0.4,0.4
		c-0.2,0.2-0.4,0.4-0.6,0.5c-0.1,0.1-0.3,0.2-0.4,0.4c-0.2,0.2-0.4,0.3-0.7,0.5c0.2,0.1,0.3,0.2,0.5,0.3c0.1,0,0.1,0.1,0.2,0.1
		c0.2,0.1,0.5,0.1,0.7,0.1c0,0,0.1,0,0.1,0c0.1-0.1,0.3-0.1,0.4-0.2c0.1-0.1,0.2-0.1,0.3-0.3c0.1-0.1,0.2-0.2,0.3-0.2
		c0.1-0.1,0.2-0.2,0.3-0.3c0.1-0.1,0.1-0.2,0.2-0.3c0,0,0.1-0.1,0.1-0.1c0,0-0.1,0-0.1,0c-0.3,0.1-0.5,0.2-0.8,0.4
		c-0.2,0.1-0.4,0.2-0.5,0.4c0,0-0.1,0.1-0.2,0.1l0,0c0.3-0.2,0.5-0.5,0.9-0.6c0.1-0.1,0.2-0.1,0.4-0.2c0.1,0,0.1-0.1,0.2-0.1
		c0-0.1,0-0.1-0.1-0.1c0,0,0,0-0.1,0c-0.2,0.1-0.5,0.3-0.7,0.4c-0.4,0.2-0.8,0.5-1.1,0.8c0,0,0,0,0,0c0.1-0.1,0.2-0.2,0.3-0.3
		c0.3-0.2,0.6-0.4,1-0.6c0.1-0.1,0.3-0.2,0.4-0.2c0.1-0.1,0.1-0.1,0.1-0.2c-0.1-0.2-0.1-0.2-0.3-0.1c-0.3,0.1-0.5,0.3-0.7,0.5
		c-0.3,0.2-0.5,0.4-0.8,0.6c0,0,0,0-0.1,0c0-0.1,0.1-0.1,0.1-0.2c0.4-0.3,0.7-0.6,1.1-0.9c0.2-0.1,0.3-0.2,0.5-0.3
		c0-0.1-0.1-0.2-0.2-0.2c-0.1-0.1-0.2-0.1-0.3-0.2c-0.1-0.1-0.2-0.2-0.3-0.3c-0.1-0.1-0.1-0.2-0.1-0.3c0.2,0.3,0.4,0.4,0.6,0.7
		c0,0,0,0,0,0c0.3,0.2,0.4,0.4,0.6,0.7c0.1,0.1,0.2,0.2,0.3,0.3c0.1,0,0.1,0,0.2,0c0,0,0.1-0.1,0.1-0.1c0.2-0.2,0.4-0.3,0.7-0.4
		c0,0,0.1,0,0.1-0.1c0.1-0.2,0.3-0.3,0.4-0.4c0.2-0.2,1.1-1.5,1.3-1.8c0.2-0.3,0.4-0.6,0.7-0.8c0.2-0.2,0.4-0.4,0.6-0.5
		c0.1-0.1,0.3-0.3,0.4-0.4c0.1-0.2,0.3-0.4,0.4-0.6c0.2-0.3,0.3-0.5,0.5-0.8c0.1-0.1,0.1-0.2,0.2-0.3c0.1-0.1,0.2-0.3,0.3-0.4
		c0.1-0.1,0.2-0.3,0.3-0.4c0,0,0-0.1,0-0.1c0-0.1,0-0.1,0-0.1c0.2-0.1,0.3-0.3,0.4-0.5c0.2-0.2,0.4-0.5,0.6-0.7
		c0.2-0.2,0.5-0.4,0.7-0.5c0.2-0.1,0.4-0.3,0.6-0.4c0.2-0.1,0.3-0.3,0.5-0.4c0.2-0.1,0.4-0.2,0.5-0.4c0,0,0.1,0,0.1-0.1
		c0.1-0.1,0.1-0.2,0.2-0.4c0,0,0-0.1,0-0.1c-0.1,0-0.2,0.1-0.3,0.2c-0.1,0.1-0.3,0.2-0.4,0.3c-0.3,0.3-0.7,0.6-1,0.9
		c-0.1,0.1-0.3,0.2-0.4,0.4c-0.1,0.1-0.1,0.1-0.2,0.1c-0.3,0.1-0.5,0.3-0.7,0.5c-0.1,0.1-0.2,0.2-0.3,0.3c-0.2,0.2-0.4,0.5-0.6,0.8
		c-0.1,0.2-0.2,0.4-0.3,0.5c-0.1,0.1-0.2,0.3-0.3,0.4c-0.1,0.2-0.3,0.5-0.5,0.7c-0.3,0.4-0.6,0.9-0.9,1.3c-0.2,0.2-0.3,0.5-0.5,0.7
		c-0.2,0.3-0.5,0.5-0.7,0.8c-0.3,0.3-0.6,0.4-0.3,0.2c0.3-0.2,0.6-0.6,0.8-0.8c0.2-0.2,0.4-0.4,0.6-0.7c0.1-0.1,0.1-0.2,0.2-0.3
		c0.2-0.3,0.4-0.5,0.6-0.8c0.1-0.2,0.3-0.4,0.4-0.6c0.2-0.3,0.4-0.7,0.7-1c0.1-0.2,0.2-0.3,0.3-0.5c0.1-0.2,0.3-0.4,0.4-0.6
		c0.1-0.1,0.2-0.3,0.4-0.4c0.2-0.3,0.5-0.5,0.8-0.6c0.2-0.1,0.3-0.2,0.4-0.3c0.3-0.2,0.5-0.4,0.8-0.7c0.1,0,0.1-0.1,0.2-0.2
		c-0.2-0.1-0.3,0-0.4,0.1c-0.5,0.5-1.1,0.9-1.6,1.4c-0.1,0.1-0.2,0.2-0.3,0.3c-0.2,0.2-0.4,0.4-0.5,0.6c-0.2,0.2-0.4,0.4-0.6,0.6
		c0,0,0-0.1-0.1-0.1c-0.1,0-0.2-0.1-0.3-0.2c-0.1-0.1-0.1-0.1-0.2,0c-0.3,0.2-0.5,0.4-0.8,0.6c-0.2,0.2-0.4,0.4-0.6,0.6
		c-0.1,0.1-0.2,0.2-0.3,0.4c-0.1,0.2-0.3,0.3-0.4,0.5c-0.1,0.1-0.2,0.1-0.4,0.1c-0.1,0-0.2,0-0.3,0c0,0-0.1,0-0.1,0
		c-0.2,0.1-0.3,0.2-0.5,0.3c-0.4,0.3-0.6,0.5-0.4,0.3c0.3-0.2,0.5-0.5,0.8-0.7c0.1-0.1,0.1-0.1,0.1-0.2c-0.1-0.2-0.2-0.2-0.4-0.3
		c0,0-0.1,0-0.1,0c-0.2,0.1-0.4,0.3-0.5,0.4c-0.4,0.4-0.5,0.4-0.2,0.1c0.2-0.2,0.4-0.3,0.6-0.5c0.1-0.1,0.1-0.1,0.1-0.2
		c0-0.1,0-0.1,0-0.2c0.2-0.2,0.4-0.5,0.6-0.7c0.1-0.1,0.1-0.1,0.2-0.2c0.2-0.2,0.3-0.4,0.5-0.5c0.3-0.3,0.6-0.7,0.8-1
		c0.1-0.1,0.2-0.2,0.3-0.2c0.1,0,0.2-0.1,0.2-0.2c0-0.1,0.1-0.1,0.1-0.1c0,0,0.1-0.1,0.1-0.1c0.1-0.2,0.2-0.3,0.4-0.5
		c0.5-0.3,0.9-0.6,1.4-1c0.1,0,0.1-0.1,0.2-0.1c0.4-0.3,0.8-0.6,1.1-0.8c0.1-0.1,0.1-0.1,0.2,0c0.1,0.1,0.2,0.2,0.3,0.3
		c0,0,0.1,0,0.1-0.1c0.2-0.4,0.4-0.6,0.7-0.9c0.1-0.1,0.3-0.2,0.5-0.3c0.3-0.2,0.5-0.4,0.7-0.6c0.1-0.1,0.2-0.2,0.3-0.3
		c0.2-0.2,0.4-0.4,0.5-0.6c0.1-0.2,0.3-0.4,0.4-0.6c0.2-0.2,0.4-0.5,0.6-0.8c0.1-0.1,0.2-0.2,0.3-0.4c0.1-0.1,0.2-0.2,0.3-0.4
		c0,0,0-0.1,0-0.1c-0.1-0.1-0.1-0.1-0.2-0.2c-0.1,0-0.3-0.1-0.4-0.1c0,0-0.1,0-0.1,0c-0.2,0.1-0.3,0.2-0.5,0.3
		c-0.2,0.1-0.4,0.2-0.6,0.4c-0.1,0.1-0.2,0.2-0.3,0.3c0,0-0.1,0.1-0.1,0c0,0,0-0.1,0-0.1c0.2-0.1,0.3-0.2,0.4-0.4
		c0.2-0.2,0.4-0.3,0.6-0.4c0.2-0.1,0.3-0.2,0.4-0.2c0,0,0,0,0,0c0-0.1-0.1-0.1-0.1-0.2c0,0,0,0-0.1,0c0,0-0.1,0-0.1,0
		c-0.4,0.2-0.8,0.4-1.2,0.6c-0.1,0.1-0.2,0.2-0.3,0.2c-0.1,0.1-0.1,0.1,0,0.2c0.1,0.1,0.2,0.2,0.2,0.3c0,0.1,0.1,0.1,0.2,0.2
		c0,0,0.1,0,0.1,0C25.9,4.7,26,4.8,26,5C26,5,26,5,25.9,5c-0.1,0-0.1,0-0.1,0.1c0,0.1-0.1,0.2-0.2,0.3c-0.2,0.1-0.3,0.2-0.4,0.4
		c0,0-0.1,0.1-0.1,0.1c-0.3,0.2-0.5,0.5-0.8,0.7c-0.1,0.1-0.1,0.1-0.2,0.2c0,0,0.1,0,0.1-0.1c0.2-0.1,0.3-0.2,0.5-0.3
		c0.2-0.1,0.4-0.2,0.6-0.3c0.1,0,0.1-0.1,0.2-0.2c0.1-0.2,0.3-0.3,0.4-0.4c0,0,0.1-0.1,0.1-0.1c0,0,0.1-0.1,0.1,0
		c0,0.1,0,0.1-0.1,0.1C26,5.6,25.8,5.8,25.7,6c-0.1,0.1-0.1,0.2-0.2,0.2c-0.2,0.1-0.5,0.2-0.7,0.3C24.4,6.6,24.2,6.8,24,7
		c-0.1,0.1-0.2,0.2-0.3,0.3c0,0-0.1,0.1-0.1,0.1c-0.1,0.1-0.2,0.3-0.4,0.4c-0.1,0-0.1,0.1-0.2,0.2c-0.2,0.2-0.5,0.4-0.8,0.6
		c-0.2,0.1-0.4,0.2-0.6,0.4c0,0,0,0-0.1,0c0.1-0.1,0.1-0.1,0.2-0.2c0.2-0.1,0.4-0.2,0.6-0.3c0.2-0.1,0.4-0.2,0.5-0.4
		c0.2-0.2,0.4-0.4,0.6-0.6c-0.2,0.1-0.3,0.2-0.5,0.2c0-0.1,0.1-0.1,0.1-0.1c0.2-0.1,0.3-0.2,0.5-0.3C23.7,7,24,6.9,24.1,6.6
		c0,0,0.1-0.1,0.1-0.1C24.5,6.2,24.7,6,25,5.8c0.1-0.1,0.2-0.1,0.3-0.2c0.1-0.1,0.3-0.2,0.4-0.3c0.1-0.1,0.1-0.1,0.1-0.2
		c0-0.1,0.1-0.1,0.1-0.2c-0.1-0.1-0.3-0.1-0.4-0.1c-0.1,0-0.1,0.1-0.2,0.1c-0.2,0.2-0.4,0.5-0.6,0.7c-0.1,0.1-0.3,0.3-0.4,0.4
		C24,6,23.9,6.1,23.8,6.2c-0.1,0.1-0.2,0.2-0.4,0.3c-0.2,0.1-0.4,0.3-0.5,0.5c-0.1,0.2-0.3,0.4-0.4,0.5c0-0.2,0.1-0.3,0.2-0.4
		c0-0.1,0.1-0.1,0.1-0.2c0.2-0.3,0.4-0.4,0.7-0.6c0.1-0.1,0.3-0.2,0.4-0.3c0.1-0.2,0.3-0.3,0.5-0.4c0.2-0.2,0.4-0.5,0.7-0.8
		c0.1,0,0.1-0.1,0.1-0.1c0,0,0.1-0.1,0-0.1c-0.1-0.2-0.2-0.2-0.4-0.1c-0.1,0.1-0.3,0.2-0.4,0.3c-0.2,0.2-0.4,0.3-0.6,0.4
		c-0.1,0.1-0.2,0.2-0.3,0.2c0.1-0.1,0.1-0.2,0.2-0.3c0.3-0.2,0.5-0.4,0.8-0.6c0.1-0.1,0.2-0.2,0.3-0.2c-0.1-0.1-0.2-0.1-0.3-0.2
		c-0.2-0.1-0.2-0.1-0.4,0.1c-0.2,0.1-0.4,0.3-0.5,0.5c-0.2,0.2-0.3,0.4-0.4,0.5c-0.1,0.2-0.3,0.2-0.5,0.4c-0.3,0.2-0.7,0.5-0.9,0.8
		c-0.1,0.1-0.2,0.2-0.4,0.3c0-0.1,0-0.2,0.1-0.2c0.1-0.1,0.2-0.2,0.4-0.4c0.1-0.1,0.2-0.1,0.2-0.2c0.3-0.2,0.5-0.4,0.8-0.6
		c0.1-0.1,0.2-0.2,0.3-0.3c0-0.1,0.1-0.1,0.2-0.2c0.2-0.2,0.4-0.5,0.6-0.7C24,4.2,24.1,4.1,24.2,4c0.1,0,0.1-0.1,0.1-0.1
		c0,0,0-0.1,0-0.1c0,0,0.1,0,0.1,0c0.2,0.1,0.3,0.2,0.5,0.3c0.1,0,0.1,0,0.2,0c0.2-0.3,0.5-0.4,0.8-0.5c0.3-0.1,0.5-0.3,0.7-0.4
		c0,0,0.1,0,0.1-0.1c0,0,0.1,0,0.1-0.1c0-0.1,0-0.2-0.1-0.2c-0.1,0-0.1-0.1-0.2-0.2c0-0.1-0.1-0.1-0.1,0c0,0-0.1,0.1-0.1,0.1
		c-0.1,0.1-0.3,0.2-0.5,0.1c-0.1,0-0.1,0-0.1,0.1c0,0,0,0,0,0c-0.1,0-0.2,0.1-0.3,0.2c-0.2,0.2-0.4,0.4-0.7,0.6c0,0-0.1,0.1-0.2,0.1
		c-0.1-0.1,0.1-0.1,0.1-0.1c0.2-0.1,0.4-0.2,0.5-0.4c0.1-0.2,0.3-0.3,0.5-0.5c-0.1,0-0.2-0.1-0.3-0.1c-0.1,0-0.1,0-0.1,0.1
		C25.1,2.8,25,3,24.8,3.1c-0.1,0.1-0.2,0.2-0.4,0.3c-0.1,0-0.1,0-0.2,0.1c-0.1,0.1-0.2,0.1-0.3,0.1c0,0,0,0,0,0
		c-0.1,0-0.3,0-0.4,0.1c-0.4,0.2-0.8,0.4-1.2,0.6c-0.1,0.1-0.3,0.2-0.4,0.4c-0.2,0.3-0.4,0.5-0.6,0.8C21.2,5.6,21.2,5.8,21,6
		c0,0,0,0.1,0,0.1c0,0,0,0,0,0c0.3,0.1,0.3,0.1,0.5-0.2c0,0,0.1-0.1,0.1-0.2c0.1-0.3,0.3-0.5,0.6-0.7c0.3-0.2,0.6-0.5,0.9-0.6
		c0.2-0.1,0.4-0.2,0.6-0.4C23.8,4.1,23.9,4,24,4c0,0,0,0,0.1,0c0,0,0,0,0,0.1c0,0-0.1,0.1-0.1,0.1c-0.4,0.3-0.9,0.5-1.3,0.8
		C22.4,5,22.2,5.2,22,5.3c-0.2,0.2-0.3,0.4-0.4,0.6c-0.1,0.1-0.1,0.2-0.2,0.3c-0.1,0.1-0.1,0.1-0.2,0.1c-0.1,0-0.2,0-0.3,0
		c-0.2,0-0.4,0-0.5,0.2c0,0-0.1-0.1-0.1,0c-0.6,0.4-1.2,0.8-1.7,1.3c-0.2,0.2-0.3,0.4-0.4,0.6c0,0.1-0.1,0.2-0.1,0.3
		c0,0-0.1,0.1-0.1,0.2c0,0.1,0,0.1-0.1,0.2C17.9,9,18,9,18,9.1C18.3,8.7,18.6,8.3,19,8c0.2-0.2,0.4-0.4,0.7-0.5
		c0.2-0.1,0.4-0.3,0.7-0.4c0.2-0.1,0.4-0.2,0.5-0.3c0,0,0.1,0,0.1,0c0.1-0.1,0.3-0.1,0.4,0c0,0-0.1,0.1-0.1,0.1
		c-0.2,0.1-0.4,0.3-0.6,0.5c-0.4,0.5-0.8,0.9-1.3,1.2c-0.3,0.2-0.6,0.4-0.9,0.6c0,0,0,0,0,0c-0.1,0.1-0.1,0.1,0,0.1
		c0.1,0.1,0.2,0.2,0.3,0.2c0,0,0.1,0.1,0.1,0C19,9.2,19.3,9,19.7,8.7c0.1-0.1,0.2-0.2,0.4-0.3c0.1,0,0.2-0.1,0.2-0.2
		c0.3-0.3,0.7-0.6,1.1-0.8c0.1-0.1,0.3-0.2,0.3-0.3c0,0,0,0,0.1,0c0.1,0,0.2,0,0.3-0.1c0.3-0.2,0.6-0.4,0.9-0.7
		c0.1-0.1,0.2-0.2,0.3-0.2c0,0,0.1,0,0.1-0.1c0.1-0.1,0.2-0.1,0.3-0.2c0.1-0.1,0.2-0.2,0.3-0.3c0-0.1,0.1-0.1,0.1-0.1c0,0,0,0,0,0
		C24,5.6,23.8,5.9,23.5,6c-0.3,0.2-0.6,0.4-0.8,0.6c-0.1,0.1-0.2,0.1-0.3,0.2c-0.2,0.1-0.3,0.3-0.4,0.4c0,0,0,0.1,0,0.1
		C22,7.4,22,7.5,22.1,7.5c0.1,0,0.1,0.1,0.2,0.1c0.1,0,0.1,0.1,0.1,0.1c0,0.1,0,0.1-0.1,0.1c-0.1,0-0.2,0.1-0.3,0.1
		c-0.3,0.2-0.6,0.5-1,0.7c0,0,0,0,0,0c-0.4,0.4-0.8,0.7-1.2,1c-0.2,0.2-0.4,0.4-0.6,0.6c-0.1,0.1-0.1,0.2-0.1,0.3
		c0,0.2-0.2,0.4-0.3,0.6c-0.3,0.3-0.6,0.6-0.9,0.9c-0.2,0.2-0.4,0.3-0.5,0.5c-0.1,0.1-0.2,0.2-0.3,0.4C17,13,17,13,16.9,13
		C17,13.1,16.9,13.1,16.9,13C16.9,13,16.9,13,16.9,13L16.9,13z M18.4,13.8c0.1-0.1,0.2-0.2,0.3-0.4c0.3-0.3,0.5-0.6,0.9-0.9
		c0.1-0.1,0.3-0.2,0.4-0.3c0.2-0.2,0.4-0.3,0.7-0.4c0.4-0.1,0.7-0.3,1-0.5c0.3-0.2,0.5-0.4,0.8-0.5c0.3-0.2,0.5-0.4,0.8-0.7
		c0.1-0.1,0.2-0.1,0.2-0.2c0.1-0.1,0.2-0.2,0.3-0.3c0-0.1,0.1-0.1,0-0.2c-0.1-0.1-0.1-0.1-0.2,0c-0.2,0.1-0.4,0.2-0.6,0.4
		c-0.1,0.1-0.1,0.1-0.2,0.1c0,0,0-0.1,0-0.1c0.2-0.1,0.4-0.3,0.6-0.4c0,0,0,0,0.1,0c0.2-0.1,0.2-0.2,0-0.3c0,0-0.1,0-0.1,0
		c-0.1,0.1-0.2,0.2-0.3,0.2c-0.3,0.2-0.6,0.4-0.9,0.6c-0.3,0.2-0.5,0.4-0.8,0.5c-0.3,0.3-0.7,0.6-1,0.8c-0.1,0.1-0.1,0.1-0.2,0.2
		c0,0.1-0.1,0.2-0.2,0.2c-0.2,0.2-0.4,0.4-0.6,0.6c-0.1,0.1-0.3,0.2-0.4,0.3c-0.3,0.3-0.6,0.6-0.9,0.9c-0.2,0.2-0.4,0.4-0.6,0.7
		c0,0-0.1,0.1,0,0.1c0.1,0.1,0.1,0.3,0.2,0.4c0,0.1,0.1,0.1,0.2,0.1c0.2,0,0.4,0,0.6-0.2c0.1-0.1,0.2-0.2,0.3-0.3
		c0.2-0.3,0.4-0.5,0.6-0.7c0.1,0,0.1-0.1,0.1-0.2c0.1-0.1,0.2-0.2,0.3-0.3c0.2-0.2,0.4-0.4,0.7-0.5c0.2-0.1,0.2-0.1,0.4,0
		c0,0,0.1,0.1,0.1,0.1c0.1,0.1,0.2,0.1,0.3,0c0.3-0.3,0.5-0.6,0.8-0.8c0.1-0.1,0.2-0.2,0.3-0.3c0.3-0.3,0.6-0.5,0.8-0.8
		c0.3-0.3,0.7-0.6,1-0.9c0.1-0.1,0.1-0.1,0-0.1c-0.1,0-0.1,0-0.2-0.1c0,0-0.1,0-0.1,0c-0.3,0.3-0.6,0.6-1,0.9
		c-0.1,0.1-0.3,0.2-0.4,0.3c-0.3,0.2-0.6,0.4-1,0.6c-0.3,0.2-0.7,0.4-1.1,0.5c-0.1,0-0.2,0.1-0.3,0.1c-0.2,0.2-0.4,0.3-0.5,0.5
		c-0.4,0.3-0.7,0.8-1.1,1.1c-0.2,0.2-0.3,0.3-0.5,0.4C18.1,14,18.2,13.9,18.4,13.8z M18.8,12.6c0.2-0.1,0.4-0.3,0.5-0.4
		c0.2-0.1,0.3-0.3,0.5-0.4c0,0,0.1-0.1,0.1-0.1c0.1,0,0.1-0.1,0.1-0.1c0.1-0.2,0.3-0.3,0.5-0.5c0.1-0.1,0.3-0.2,0.4-0.4
		c0.4-0.4,0.9-0.7,1.4-1c0.3-0.2,0.5-0.3,0.7-0.6c0,0,0.1-0.1,0.1-0.1c0.1-0.1,0.1-0.1,0-0.2c-0.1-0.1-0.1-0.2-0.2-0.3
		c-0.1-0.1-0.1,0-0.1,0c-0.1,0.1-0.2,0.1-0.3,0.2c-0.5,0.4-1,0.8-1.6,1.1c-0.3,0.2-0.6,0.4-0.9,0.6c-0.1,0.1-0.2,0.1-0.2,0.2
		c-0.1,0.2-0.2,0.3-0.3,0.5c-0.1,0.1-0.2,0.2-0.3,0.3c-0.1,0-0.2,0.1-0.2,0.2c-0.1,0.1-0.2,0.2-0.4,0.4c-0.2,0.2-0.4,0.5-0.6,0.7
		c-0.2,0.2-0.4,0.4-0.6,0.6c-0.1,0.1-0.3,0.2-0.4,0.4c-0.1,0.1-0.1,0.1,0,0.2c0.1,0.2,0.1,0.2,0.3,0c0.2-0.2,0.4-0.4,0.6-0.6
		C18.4,13,18.6,12.8,18.8,12.6z M24.1,2.6c-0.2,0-0.5,0.1-0.7,0.2c-0.2,0.1-0.4,0.1-0.6,0.2c-0.1,0-0.2,0.1-0.3,0.2
		c-0.3,0.2-0.5,0.4-0.8,0.6c-0.2,0.1-0.3,0.3-0.5,0.5c-0.1,0.1-0.2,0.2-0.3,0.3c-0.1,0.1-0.2,0.2-0.2,0.2c-0.2,0.3-0.4,0.5-0.7,0.8
		c0,0-0.1,0.1-0.1,0.1c-0.2,0.1-0.3,0.3-0.5,0.4c0,0,0,0,0,0c-0.3,0.3-0.6,0.6-1,0.8C18.2,7,18,7.1,17.9,7.3
		c-0.3,0.2-0.5,0.5-0.8,0.7c0,0-0.1,0.1-0.1,0.1c0.1,0.1,0.2,0,0.2,0.1c0,0,0.1,0,0.1,0C17.3,8.1,17.4,8,17.4,8
		c0.2-0.1,0.3-0.2,0.5-0.3c0.3-0.2,0.7-0.4,1-0.7c0,0,0,0,0.1-0.1c0.4-0.3,0.8-0.6,1.2-0.8c0.2-0.1,0.3-0.3,0.4-0.4
		c0.2-0.2,0.4-0.5,0.6-0.7c0.3-0.3,0.5-0.6,0.8-0.9c0.1-0.1,0.2-0.2,0.3-0.3c0.2-0.2,0.5-0.3,0.8-0.4c0.1,0,0.2,0,0.3,0
		c0.2,0,0.5-0.1,0.6-0.3c0,0,0-0.1,0.1-0.1c0.1,0,0.1-0.1,0.2-0.1c0-0.1,0.1-0.2,0.1-0.3C24.3,2.6,24.2,2.6,24.1,2.6z M20.5,9.1
		c0.2-0.2,0.4-0.4,0.6-0.5c0.3-0.2,0.7-0.5,1-0.7c0.1-0.1,0.1-0.1,0-0.1c-0.2-0.1-0.3-0.2-0.4-0.4c0-0.1-0.1-0.1-0.1,0
		c-0.1,0.1-0.3,0.2-0.4,0.3c-0.5,0.3-1,0.8-1.5,1.1c-0.3,0.2-0.6,0.5-0.8,0.8c-0.2,0.2-0.2,0.2,0,0.4C19,10,19,10.1,19,10.2
		c0,0.1,0.1,0.1,0.2,0.1c0.1-0.1,0.2-0.2,0.4-0.4C19.9,9.6,20.2,9.4,20.5,9.1z M24.5,8.7c-0.2,0.1-0.4,0.3-0.6,0.4
		c-0.1,0.1-0.1,0.1,0,0.2c0,0,0.1,0.1,0.1,0.1c0,0.1,0.1,0.1,0.1,0.1c0,0,0.1,0,0.1,0c0.1,0.1,0.1,0.1,0.2,0.1c0,0,0.1,0,0.1,0
		c0.1,0,0.2,0,0.3,0c0.4-0.3,0.8-0.6,1.1-1c0.2-0.3,0.4-0.6,0.6-0.9c0.2-0.3,0.3-0.5,0.4-0.8c0.2-0.2,0.3-0.5,0.5-0.7
		c0.1-0.1,0.2-0.3,0.3-0.4c0.2-0.4,0.3-0.8,0.4-1.2c0-0.1,0-0.1,0-0.2c0,0,0-0.1,0-0.1c0,0-0.1,0-0.1,0c-0.2,0.1-0.3,0.3-0.3,0.5
		c-0.1,0.3-0.2,0.5-0.3,0.7C27.3,6,27.1,6.3,27,6.5c-0.1,0.2-0.2,0.4-0.3,0.7c-0.1,0.3-0.3,0.5-0.5,0.7c-0.2,0.2-0.4,0.4-0.6,0.7
		C25.3,8.8,25,9,24.8,9.3c0,0,0,0,0,0c0,0-0.1,0-0.1,0c0,0,0-0.1,0.1-0.1C24.8,9.1,24.9,9,25,9c0,0,0,0,0-0.1c0-0.2,0.1-0.3,0.2-0.5
		C25,8.5,24.7,8.6,24.5,8.7z M28,4.2C28,4.1,28,4.1,27.9,4c0-0.1-0.1-0.1-0.1,0c0,0,0,0.1-0.1,0.1c-0.1,0.1-0.2,0.2-0.2,0.3
		c-0.1,0.1-0.1,0.2-0.2,0.3c-0.2,0.4-0.5,0.7-0.8,1c-0.1,0.1-0.2,0.2-0.3,0.4c-0.1,0.2-0.3,0.5-0.5,0.7c-0.1,0.1-0.3,0.3-0.4,0.4
		c-0.2,0.3-0.5,0.5-0.9,0.7c-0.3,0.2-0.5,0.4-0.7,0.7c0,0.1-0.1,0.1-0.1,0.2c-0.1,0.2-0.1,0.3,0,0.4c0.1,0.1,0.2,0.1,0.3,0
		c0,0,0-0.1,0-0.1c0.2-0.1,0.2-0.3,0.4-0.4c0.1-0.1,0.2-0.2,0.3-0.3c0.1-0.2,0.3-0.4,0.5-0.5c0.4-0.3,0.7-0.6,0.9-0.9
		c0.3-0.3,0.5-0.7,0.8-0.9c0.3-0.3,0.5-0.6,0.8-0.9c0.1-0.2,0.3-0.3,0.4-0.4C28.1,4.4,28.1,4.3,28,4.2z M25.5,9.8
		c0.3-0.2,0.6-0.5,0.9-0.9c0-0.1,0.1-0.1,0.1-0.2C26.7,8.4,26.8,8.2,27,8c0.1-0.2,0.2-0.3,0.3-0.5c0.1-0.1,0.1-0.2,0.2-0.3
		c0.3-0.3,0.5-0.6,0.6-1c0.1-0.4,0.3-0.7,0.4-1.1c0-0.1,0-0.1,0-0.2c0-0.1,0-0.1,0-0.2c0-0.1,0-0.1-0.1-0.1c-0.1,0-0.1,0-0.1,0.1
		c0,0.2-0.1,0.4-0.2,0.5c-0.1,0.3-0.2,0.7-0.4,1c-0.1,0.4-0.3,0.7-0.5,1.1C27.1,7.5,27,7.7,26.8,8c-0.1,0.1-0.2,0.2-0.3,0.3
		c-0.2,0.2-0.4,0.4-0.7,0.7c-0.2,0.2-0.3,0.4-0.4,0.7c0,0.1-0.1,0.2-0.1,0.2C25.4,9.8,25.5,9.8,25.5,9.8z M26.8,5.9
		c-0.3,0.3-0.5,0.6-0.8,1c-0.2,0.3-0.5,0.6-0.8,0.8c-0.2,0.1-0.4,0.3-0.5,0.6c0,0.1-0.1,0.2-0.2,0.2c-0.1,0.1-0.2,0.2-0.2,0.3
		c0,0,0,0,0.1,0c0.3-0.2,0.6-0.3,0.9-0.5c0.1-0.1,0.2-0.1,0.2-0.3c0,0,0-0.1,0.1-0.1c0.3-0.2,0.5-0.5,0.7-0.8
		c0.2-0.2,0.4-0.4,0.6-0.6C27,6.3,27,6.1,27.1,5.8C26.9,5.8,26.9,5.9,26.8,5.9z M20.1,7.2c-0.2,0.2-0.5,0.3-0.7,0.4
		c-0.3,0.2-0.6,0.5-0.8,0.8c-0.1,0.1-0.2,0.2-0.3,0.3c0,0.1-0.1,0.1-0.1,0.2c0.2-0.1,0.3-0.2,0.5-0.3c0.1-0.1,0.2-0.1,0.3-0.2
		c0.4-0.2,0.6-0.5,0.9-0.7c0.3-0.2,0.5-0.5,0.7-0.8c0.1-0.1,0.3-0.2,0.4-0.3C20.8,6.9,20.4,7,20.1,7.2z M13.5,22.1
		c-0.2,0.1-0.2-0.1-0.4-0.1c-0.1,0.3-0.3,0.4-0.5,0.5c-0.1,0.1-0.3,0.1-0.4,0.2c-0.2,0.1-0.3,0.2-0.4,0.4c0.1,0,0.2,0,0.3,0
		c0.2,0.1,0.3,0,0.4-0.1c0.1-0.1,0.2-0.2,0.3-0.3c0.1-0.2,0.3-0.3,0.4-0.4c0.2-0.1,0.3-0.3,0.5-0.4c0-0.1-0.1,0-0.1,0
		c-0.3,0-0.5-0.1-0.7-0.3c-0.1-0.1-0.3-0.2-0.5-0.3C12.8,21.5,13.1,21.8,13.5,22.1z M25.2,10.1c-0.1,0.1-0.3,0.2-0.4,0.3
		c-0.3,0.2-0.6,0.4-0.9,0.6c0,0-0.1,0.1-0.1,0.1c-0.2,0.1-0.4,0.2-0.6,0.4c-0.3,0.2-0.4,0.4-0.6,0.7c0,0,0,0,0,0
		c0.1-0.1,0.2-0.2,0.4-0.2c0.2-0.2,0.4-0.3,0.6-0.4c0.2-0.1,0.3-0.3,0.5-0.4c0.2-0.1,0.3-0.2,0.5-0.3C24.8,10.6,25,10.4,25.2,10.1
		C25.2,10.1,25.2,10.1,25.2,10.1C25.2,10,25.2,10,25.2,10.1z M14,13.4c0.3-0.3-0.1-0.4-0.4,0.3C13.7,13.6,13.9,13.5,14,13.4z
		 M26.2,7.2c-0.3,0.4-0.5,0.7-0.8,1.1c-0.1,0.1-0.2,0.3-0.3,0.4c0.1,0,0.2-0.1,0.2-0.2c0.2-0.2,0.4-0.4,0.6-0.6
		c0.3-0.2,0.4-0.5,0.6-0.8c0.1-0.1,0.1-0.2,0.2-0.4C26.5,6.8,26.4,7,26.2,7.2z M28.1,4.1c0.1,0.1,0.1,0.2,0.2,0.3c0,0,0,0,0.1,0
		c0.1,0,0.1,0,0.1-0.1c0-0.1,0-0.1,0-0.2c0-0.1-0.1-0.2-0.1-0.2c0-0.1-0.1-0.2-0.2-0.2c-0.1-0.1-0.2-0.1-0.3-0.2
		c-0.1,0-0.1-0.1-0.2-0.1c-0.1-0.1-0.2-0.2-0.3-0.3c-0.1-0.1-0.2-0.1-0.4-0.1c0,0,0,0,0,0.1c0,0.2,0.1,0.3,0.3,0.4
		c0.1,0,0.2,0.1,0.2,0.1c0.2,0,0.3,0.1,0.5,0.2C28,3.8,28.1,3.9,28.1,4.1z M10,24.7c-0.1,0-0.1,0-0.2,0.1c-0.3,0.1-0.6,0.3-0.8,0.5
		c-0.3,0.2-0.6,0.4-1,0.5c-0.1,0-0.1,0.1-0.2,0.1c0,0,0.1,0,0.1,0c0.3-0.1,0.7-0.2,1-0.4c0.1-0.1,0.3-0.1,0.4-0.2
		c0.3-0.1,0.5-0.3,0.8-0.5c0.1-0.1,0.1-0.1,0.2-0.2C10.1,24.6,10.1,24.7,10,24.7z M24.7,3.1C24.8,3,24.9,2.9,25,2.8
		c0.1-0.1,0-0.2,0.1-0.2c0,0,0,0,0,0c0,0-0.1,0-0.1,0c-0.1,0-0.3,0-0.4,0.1c0,0,0,0-0.1,0c-0.1,0.3-0.2,0.5-0.3,0.7
		C24.4,3.3,24.6,3.2,24.7,3.1z M26.9,7.7c0.2-0.3,0.3-0.6,0.5-0.9c0.1-0.1,0.1-0.2,0.1-0.3c-0.1,0-0.1,0-0.1,0.1
		c-0.2,0.3-0.5,0.6-0.6,1c-0.1,0.2-0.2,0.4-0.3,0.5c-0.1,0.1-0.1,0.2-0.2,0.3c0,0,0,0.1,0,0.1C26.5,8.3,26.7,8,26.9,7.7z M11.9,23.2
		c-0.1,0-0.1,0-0.2,0.1c-0.3,0.2-0.7,0.4-0.9,0.8C11.2,24,11.8,23.5,11.9,23.2z M12.9,22.2C13,22.1,13,22,13,21.9c0,0,0,0,0,0
		c0,0-0.1,0-0.1,0c-0.1,0.2-0.4,0.3-0.5,0.4c-0.1,0.1-0.2,0.2-0.2,0.3C12.4,22.4,12.7,22.3,12.9,22.2z M16.6,19.8
		C16.6,19.7,16.6,19.8,16.6,19.8c-0.3,0-0.4,0.1-0.6,0.3c-0.2,0.2-0.4,0.4-0.6,0.5c0,0-0.1,0.1-0.1,0.1
		C15.9,20.4,16.2,20.1,16.6,19.8z M27.2,6c0.1-0.1,0.4-0.6,0.4-0.9C27.3,5.3,27.1,5.6,27.2,6z M10.8,23.9c-0.3,0.1-0.5,0.3-0.6,0.5
		C10.4,24.4,10.4,24.4,10.8,23.9z M17.3,8.5c-0.1-0.1-0.2-0.1-0.2-0.2c0-0.1-0.1,0-0.1,0c0,0-0.1,0-0.1,0.1c0,0,0,0.1,0,0.1
		c0,0,0.1,0.1,0.1,0.1c0.1,0.1,0.3,0.1,0.4,0.2C17.5,8.5,17.4,8.5,17.3,8.5z M10.7,23.8C10.7,23.8,10.7,23.8,10.7,23.8
		c0.2,0,0.2-0.1,0.3-0.2c0.1-0.1,0.2-0.2,0.3-0.3c0.1-0.1,0.2-0.2,0.3-0.3c0,0,0,0,0,0C11.3,23.3,11,23.5,10.7,23.8z M17.2,13.9
		C17.1,13.9,17.1,13.9,17.2,13.9C17.1,13.9,17.1,14,17.2,13.9c0,0.1,0,0.2,0.2,0.3C17.3,14.1,17.2,14,17.2,13.9z"/>
	<path class="st0" d="M14.2,16.1c0.1-0.1,0.3-0.2,0.4-0.3c0.2-0.1,0.3-0.3,0.5-0.5c0.3-0.4,0.6-0.6,0.8-0.8c0.2-0.1,0.2-0.3,0.4-0.5
		c0.1-0.2,0.3-0.4,0.4-0.5c0.1,0.1,0.1,0.2,0.3,0.1c0-0.1,0-0.1-0.1-0.1c-0.1,0-0.1-0.1-0.1-0.2c0-0.1-0.2-0.2-0.3-0.2
		c-0.1,0-0.2,0-0.3-0.1c-0.1,0-0.3-0.1-0.4-0.2c0,0,0,0-0.1,0c0,0,0,0.1,0,0.1c0,0,0.1,0.1,0.1,0.1c0.1,0.1,0.3,0.2,0.5,0.2
		c0.1,0,0.1,0,0.2,0c0.1,0,0.1,0.1,0.1,0.2c0,0.1-0.1,0.2-0.1,0.3c-0.1,0.2-0.3,0.3-0.4,0.5c-0.1,0.2-0.8,0.7-0.9,0.8
		c-0.2,0.2-0.3,0.4-0.4,0.5c-0.1,0.1-0.2,0.2-0.3,0.2C14.3,15.8,14.2,15.9,14.2,16.1z"/>
	<path class="st0" d="M10.2,23.1c-0.1,0-0.1,0-0.1,0c-0.4,0.2-0.8,0.5-1.1,0.8c-0.2,0.2-0.5,0.4-0.8,0.6C8,24.7,8,24.7,7.9,24.5
		c-0.1-0.2-0.2-0.3-0.3-0.4c-0.1-0.2-0.3-0.2-0.4-0.3c-0.1,0.1,0,0.1,0,0.2c0.1,0.1,0.2,0.2,0.3,0.3c0,0.1,0,0.1,0,0.2
		c-0.1,0.1-0.3,0.3-0.4,0.4C7.1,25,7,25.1,6.9,25.2c-0.3,0.3-0.6,0.5-1,0.8c-0.3,0.2-0.6,0.4-0.8,0.6c-0.1,0.1-0.2,0.1-0.2,0.3
		c0.1,0,0.1-0.1,0.2-0.1c0.4-0.3,0.7-0.5,1.1-0.8c0.3-0.2,0.6-0.5,0.9-0.7c0.2-0.2,0.4-0.4,0.7-0.6c0.1-0.1,0.1-0.1,0.2,0
		c0,0,0,0.1,0.1,0.1C8,24.8,8.2,24.9,8.4,25c0,0,0.1,0,0.1,0c0,0,0.1,0,0.1-0.1c0.2-0.1,0.5-0.3,0.7-0.4c0.3-0.2,0.6-0.4,0.8-0.7
		c0.1-0.1,0.2-0.2,0.4-0.3c0,0,0.1-0.1,0.1-0.1c-0.2,0.1-0.4,0.2-0.5,0.3c-0.2,0.1-0.4,0.2-0.5,0.4c-0.1,0.1-0.3,0.2-0.4,0.3
		c-0.2,0.1-0.3,0.2-0.5,0.3c0,0-0.1,0-0.1,0.1c0,0,0,0,0,0c-0.1,0-0.2-0.1-0.3-0.2c0,0,0-0.1,0-0.1c0,0,0,0,0.1,0
		C8.5,24.5,8.8,24.3,9,24c0.2-0.3,0.5-0.5,0.8-0.6C9.9,23.3,10,23.2,10.2,23.1L10.2,23.1z"/>
	<path class="st0" d="M16.6,16.9c-0.2,0.2-0.7,0.8-0.9,1c-0.2,0.2-0.3,0.3-0.5,0.5c-0.1,0.1-0.2,0.3-0.3,0.4c0,0-0.1,0.1,0,0.1
		c0,0,0,0,0.1,0c0.3-0.4,0.6-0.7,0.9-1c1.4-1.3,1.3-1.7,0.1-0.6c-0.1,0.1-0.2,0.2-0.3,0.3c-0.1,0-0.1,0.1-0.2,0.2
		c-0.2,0.2-0.4,0.4-0.6,0.7c-0.1,0.1-0.1,0.1-0.1,0.2c0,0,0,0.1,0,0.1c0,0,0.1,0,0.1,0c0.2-0.3,0.5-0.5,0.7-0.8c0.2-0.3,0.7-0.8,1-1
		C16.6,16.9,16.7,16.8,16.6,16.9z"/>
	<path class="st0" d="M11.9,20.5c0.1-0.1,0.2-0.2,0.3-0.2c0.5-0.3,0.8-0.7,1.2-1.2c0.1-0.1,0.2-0.2,0.3-0.3c0,0,0,0,0.1,0
		c0,0,0.1,0,0.1-0.1c0-0.1,0-0.1-0.1-0.1c0,0-0.1-0.1-0.1-0.1c-0.1-0.1-0.1-0.2-0.2-0.2c-0.1-0.1-0.2-0.1-0.3-0.2c0,0-0.1-0.1-0.1,0
		c0,0,0,0.1,0,0.1c0.1,0.1,0.2,0.1,0.3,0.2c0.1,0,0.2,0.1,0.2,0.2c-0.1,0-0.1,0.1-0.2,0.1c-0.1,0-0.2,0.1-0.2,0.1
		c-0.3,0.2-0.6,0.5-0.9,0.7c-0.3,0.3-0.6,0.5-0.9,0.8c-0.2,0.2-0.4,0.3-0.5,0.5c-0.1,0.1-0.1,0.1-0.1,0.2c0,0,0,0,0,0
		c0.2-0.3,0.5-0.4,0.7-0.7c0.2-0.2,0.3-0.3,0.5-0.5c0.3-0.2,0.5-0.5,0.8-0.7c0.2-0.2,0.4-0.4,0.7-0.4c0,0,0.1,0,0.1,0
		c-0.1,0.2-0.3,0.3-0.4,0.5c-0.1,0.2-0.3,0.3-0.4,0.5c-0.2,0.1-0.3,0.3-0.5,0.4C12.2,20.2,12,20.3,11.9,20.5z"/>
	<path class="st0" d="M10.7,19.6c0.4-0.4,0.7-0.7,1.1-1.1c0.3-0.3,0.7-0.6,1.1-0.8c0,0,0,0,0.1,0c0,0,0,0.1,0,0.1
		c-0.1,0.1-0.1,0.2-0.2,0.3c-0.5,0.5-1,1.1-1.5,1.6c-0.2,0.2-0.4,0.4-0.6,0.6c-0.1,0.2-0.3,0.3-0.5,0.4c-0.1,0-0.2,0.1-0.1,0.1
		c0.1,0.1,0.1,0,0.2-0.1c0.3-0.2,0.5-0.4,0.7-0.6c0.4-0.4,0.7-0.8,1-1.1c0.2-0.2,0.5-0.5,0.7-0.7c0.1-0.1,0.3-0.3,0.4-0.4
		c0-0.1,0.1-0.1,0.1-0.2c0,0,0-0.1,0-0.1c0,0-0.1,0-0.1,0c-0.1,0-0.2,0.1-0.3,0.2c-0.3,0.2-0.5,0.4-0.7,0.6
		c-0.2,0.2-0.4,0.4-0.6,0.7C11,19.1,10.8,19.3,10.7,19.6z"/>
	<path class="st0" d="M10.8,22.4c0-0.1,0-0.1,0-0.2c-0.1-0.1-0.2-0.2-0.2-0.3c-0.1-0.1-0.2-0.3-0.4-0.4C10,21.4,9.9,21.2,9.7,21
		c0,0-0.1-0.1-0.2-0.1c0,0,0,0.1,0.1,0.2c0.2,0.2,0.3,0.3,0.5,0.5c-0.3,0.1-0.4,0.2-0.6,0.4c-0.2,0.2-0.4,0.4-0.7,0.6
		c-0.2,0.2-0.4,0.3-0.5,0.5c-0.1,0.1-0.1,0.2-0.2,0.3c0.1-0.1,0.2-0.1,0.2-0.2c0.2-0.2,0.5-0.4,0.7-0.7c0.2-0.2,0.4-0.4,0.6-0.6
		c0,0,0.1-0.1,0.1-0.1c0.2-0.1,0.3-0.1,0.5,0.1c0.1,0.1,0.1,0.1,0.2,0.2C10.6,22.2,10.7,22.3,10.8,22.4z"/>
	<path class="st0" d="M17.5,17.2c0.2-0.2,0.4-0.4,0.6-0.6c0.1-0.1,0.2-0.3,0.4-0.4c0.1-0.1,0.2-0.3,0.3-0.4c0,0,0,0,0,0
		c-0.1,0.2-0.2,0.3-0.3,0.4c-0.2,0.1-0.3,0.3-0.4,0.5C17.8,16.9,17.6,17,17.5,17.2C17.1,17.4,17.3,17.3,17.5,17.2z"/>
	<path class="st0" d="M13.8,11.9c-0.1,0.1-0.2,0.3-0.3,0.4c-0.3,0.3-0.5,0.6-0.6,1c-0.1,0.1-0.1,0.2-0.2,0.3
		c-0.2,0.3-0.4,0.6-0.5,0.9c0,0,0,0,0,0c0,0,0.1-0.1,0.1-0.1c0.2-0.4,0.5-0.7,0.7-1.1c0-0.1,0.1-0.1,0.1-0.2
		c0.1-0.3,0.3-0.6,0.6-0.8C13.8,12.1,14,11.7,13.8,11.9z"/>
	<path class="st0" d="M15,19.3c0.2-0.1,0.3-0.2,0.5-0.4c0.4-0.5,0.9-0.9,1.3-1.4c0.4-0.4-0.3,0.2-0.4,0.3c-0.3,0.3-0.6,0.7-0.9,1
		c-0.1,0.1-0.3,0.2-0.4,0.3C15,19.2,15,19.2,15,19.3z"/>
	<path class="st0" d="M16.9,13c0-0.2-0.2-0.2-0.3-0.3c-0.1,0-0.2,0-0.3,0c-0.2,0-0.4-0.1-0.6-0.3c-0.2-0.2-0.2-0.2-0.4,0
		c-0.2,0.1-0.4,0.5-0.3,0.4c0.1-0.1,0.2-0.2,0.3-0.3c0.1,0,0.1,0,0.2,0c0,0,0.1,0.1,0.1,0.1c0.2,0.1,0.5,0.2,0.8,0.3
		c0.1,0,0.3,0,0.4,0.1C16.8,13,16.8,13,16.9,13C16.9,13,16.9,13,16.9,13z"/>
	<path class="st0" d="M6.5,23.1C6.5,23.1,6.5,23.1,6.5,23.1c0.1-0.2,0.3-0.3,0.4-0.4c0.1-0.2,0.3-0.3,0.4-0.6
		c0.1-0.1,0.1-0.2,0.2-0.3c0.2-0.3,0.3-0.7,0.4-1C8,20.5,8.2,20.2,8.4,20c0.1-0.1,0.2-0.2,0.3-0.2c0,0,0,0,0,0
		c0.1,0,0.1-0.1,0.1-0.1c0-0.1-0.1,0-0.2,0c-0.2,0.1-0.4,0.2-0.5,0.4c-0.1,0.1-0.2,0.3-0.3,0.4c-0.1,0.1-0.1,0.2-0.2,0.4
		c-0.2,0.4-0.3,0.8-0.5,1.2c-0.1,0.2-0.2,0.4-0.4,0.6c-0.1,0.1-0.2,0.2-0.3,0.4C6.5,23,6.5,23,6.5,23.1z"/>
	<path class="st0" d="M15.8,16.3c-0.2,0.2-0.5,0.5-0.7,0.7c-0.1,0.1-0.2,0.2-0.3,0.3c-0.2,0.2-0.3,0.3-0.5,0.4
		c-0.1,0-0.1,0.1-0.1,0.2c0.2-0.1,0.3-0.2,0.5-0.3c0.3-0.3,0.5-0.5,0.7-0.8c0.1-0.2,0.3-0.3,0.4-0.4C16.2,16,16,16,15.8,16.3z"/>
	<path class="st0" d="M13.5,17.4c0.1,0,0.1-0.1,0.1-0.1c0.2-0.3,0.5-0.7,0.7-1c0.2-0.3,0.5-0.5,0.7-0.7c0,0,0.1-0.1,0.1-0.1
		c0.3-0.3,0.4-0.5,0.2-0.3c-0.2,0.2-0.4,0.5-0.6,0.7c-0.2,0.2-0.5,0.5-0.7,0.7c-0.2,0.2-0.4,0.5-0.6,0.7
		C13.5,17.3,13.5,17.4,13.5,17.4z"/>
	<path class="st0" d="M8.9,18.4c0.2-0.3,0.4-0.5,0.5-0.7c0.2-0.3,0.4-0.5,0.7-0.7c0,0,0.1-0.1,0.1-0.1c0.1-0.1,0.3-0.2,0.4-0.3
		c0.1-0.1,0.3-0.2,0.4-0.3c0.2-0.3,0.5-0.5,0.6-0.9c0-0.1,0.1-0.2,0.1-0.3c-0.1,0-0.1,0.1-0.1,0.1c-0.2,0.5-0.6,0.9-1,1.3
		c-0.4,0.3-0.7,0.6-1,0.9c-0.2,0.2-0.3,0.4-0.5,0.6C9.1,18.1,9,18.2,8.9,18.4z"/>
	<path class="st0" d="M7.9,24.2C7.9,24.2,8,24.1,8,24c0.2-0.3,0.5-0.5,0.8-0.7c0.4-0.3,0.7-0.6,1.1-0.9c0.2-0.2,0.3-0.2,0.5,0
		c0.1,0,0.1,0.1,0.2,0.2c0.1,0.1,0.1,0.1,0.2,0.2c0,0,0.1,0,0.1,0c0,0,0,0,0-0.1c-0.2-0.2-0.4-0.5-0.7-0.5c-0.1,0-0.1,0-0.1,0
		c-0.2,0.1-0.3,0.3-0.5,0.4C9.4,22.7,9.2,22.9,9,23c-0.3,0.3-0.6,0.5-0.8,0.8C8.1,23.9,7.9,24,7.9,24.2z"/>
	<path class="st0" d="M17.5,16.7c0.2-0.2,0.3-0.3,0.5-0.5c0,0,0.1,0,0-0.1c0,0-0.1,0-0.1,0c-0.1,0.1-0.3,0.2-0.4,0.4
		C17.3,16.8,17.1,17.1,17.5,16.7z"/>
	<path class="st0" d="M12.1,16.7c-0.1,0-0.1,0-0.1,0.1c-0.2,0.3-0.4,0.5-0.6,0.7c-0.4,0.4-0.9,0.9-1.3,1.3c0,0-0.1,0.1-0.1,0.1
		c-0.2,0.2-0.4,0.5-0.5,0.7c-0.1,0.1-0.2,0.3-0.3,0.4c0.1,0,0.1,0,0.1-0.1c0.1-0.2,0.3-0.4,0.4-0.5c0.1-0.1,0.2-0.2,0.3-0.4
		c0.2-0.2,0.4-0.4,0.6-0.6c0.3-0.3,0.6-0.6,0.9-0.9c0.1-0.1,0.3-0.3,0.4-0.4C12,17,12,16.9,12.1,16.7z"/>
	<path class="st0" d="M17.3,16.3c0.1-0.1,0.3-0.2,0.4-0.3c0.1-0.1,0.3-0.2,0.4-0.3c0.2-0.1,0.4-0.3,0.5-0.5c0.1-0.2,0.3-0.4,0.5-0.7
		c0.1-0.1,0.2-0.2,0.3-0.2c0.2-0.2,0.3-0.4,0.5-0.5c0.1-0.1,0.3-0.2,0.4-0.3c0,0,0,0,0,0c0,0,0.1,0,0-0.1c0,0-0.1,0-0.1,0
		c-0.1,0.1-0.2,0.1-0.2,0.2c-0.2,0.1-0.3,0.3-0.4,0.4c-0.1,0.1-0.3,0.3-0.4,0.4c-0.1,0.1-0.2,0.2-0.3,0.4c-0.1,0.2-0.3,0.4-0.4,0.6
		c-0.1,0.1-0.2,0.3-0.4,0.4c-0.1,0-0.1,0.1-0.2,0.2C17.6,15.9,17.5,16.1,17.3,16.3C17.3,16.3,17.3,16.3,17.3,16.3z"/>
	<path class="st0" d="M17.6,9.5c-0.1,0-0.1,0.1-0.1,0.1c-0.2,0.3-0.5,0.6-0.8,0.8c-0.4,0.3-0.7,0.5-1.1,0.7
		c-0.2,0.1-0.3,0.2-0.5,0.3c0,0-0.1,0.1-0.1,0.1c0,0,0.1,0,0.1,0c0.2-0.2,0.4-0.3,0.6-0.4c0.4-0.2,0.8-0.4,1.2-0.7
		c0.2-0.2,0.4-0.3,0.5-0.5C17.5,9.9,17.5,9.7,17.6,9.5z"/>
	<path class="st0" d="M15.9,13c-0.1,0-0.1,0.1-0.1,0.1c-0.2,0.3-0.5,0.6-0.8,0.8c-0.4,0.3-0.7,0.5-1.1,0.7c-0.2,0.1-0.3,0.2-0.5,0.3
		c0,0-0.1,0.1-0.1,0.1c0,0,0.1,0,0.1,0c0.2-0.2,0.4-0.3,0.6-0.4c0.4-0.2,0.8-0.4,1.2-0.7c0.2-0.2,0.4-0.3,0.5-0.5
		C15.8,13.3,15.8,13.2,15.9,13z"/>
	<path class="st0" d="M16.8,18.2c-0.2,0.2-0.3,0.3-0.5,0.5c-0.1,0.1-0.2,0.2-0.3,0.3c-0.1,0.1-0.1,0.1-0.2,0.1
		c-0.1,0-0.2,0.1-0.3,0.2c0,0-0.1,0,0,0.1c0,0.1,0.1,0,0.1,0c0.1,0,0.1-0.1,0.2-0.1c0.2-0.1,0.3-0.2,0.4-0.3
		c0.1-0.1,0.2-0.2,0.4-0.3c0.1-0.1,0.2-0.2,0.3-0.3C16.9,18.1,16.9,18,16.8,18.2z"/>
	<path class="st0" d="M7.6,23.6c0.1-0.2,0.3-0.3,0.4-0.4c0.3-0.4,0.7-0.7,1.1-1.1c0.2-0.2,0.4-0.3,0.6-0.4c0,0,0,0,0-0.1
		c0,0,0,0-0.1,0c0,0,0,0,0,0c-0.2,0.1-0.4,0.2-0.5,0.4c-0.2,0.2-0.5,0.5-0.7,0.7c-0.2,0.2-0.4,0.4-0.6,0.6
		C7.6,23.4,7.6,23.5,7.6,23.6z"/>
	<path class="st0" d="M5.7,26.7c0.3-0.1,0.5-0.3,0.8-0.4C6.8,26.2,7,26,7.2,25.9c0.2-0.2,0.4-0.3,0.7-0.5c0.1-0.1,0.2-0.1,0.2-0.2
		c0,0,0.1-0.1,0-0.1c-0.1,0-0.2,0.1-0.2,0.2c-0.2,0.2-0.4,0.3-0.5,0.4C7.2,25.7,7,25.9,6.8,26c-0.1,0.1-0.2,0.1-0.3,0.2
		c-0.3,0.1-0.5,0.3-0.7,0.4C5.7,26.5,5.7,26.6,5.7,26.7z"/>
	<path class="st0" d="M15.7,15.7c-0.1,0-0.1,0-0.2,0.1c-0.1,0.1-0.3,0.3-0.4,0.4c-0.1,0.1-0.3,0.3-0.4,0.4c-0.3,0.3-0.6,0.6-0.8,0.9
		c0,0-0.1,0.1,0,0.1C14.5,16.9,15.1,16.4,15.7,15.7z"/>
	<path class="st0" d="M19,15.8C19,15.8,19,15.8,19,15.8c0.2-0.4,0.3-0.6,0.6-0.9c0.3-0.4,0.6-0.8,0.9-1.1c0.1-0.1,0.1-0.1,0.1-0.2
		c-0.1,0-0.1,0.1-0.1,0.1c-0.2,0.3-0.4,0.5-0.6,0.7c-0.2,0.3-0.5,0.6-0.7,1C19.1,15.5,19,15.6,19,15.8C19,15.7,19,15.8,19,15.8z"/>
	<path class="st0" d="M13.7,13.2C13.8,13.2,13.8,13.1,13.7,13.2c0.2-0.4,0.3-0.6,0.6-0.9c0.3-0.4,0.6-0.8,0.9-1.1
		c0.1-0.1,0.1-0.1,0.1-0.2c-0.1,0-0.1,0.1-0.1,0.1c-0.2,0.3-0.4,0.5-0.6,0.7c-0.2,0.3-0.5,0.6-0.7,1C13.8,12.8,13.7,13,13.7,13.2
		C13.7,13.1,13.7,13.2,13.7,13.2z"/>
	<path class="st0" d="M8.2,24.2c0.2-0.2,0.4-0.4,0.6-0.5c0.2-0.2,0.4-0.4,0.7-0.6c0.2-0.2,0.4-0.3,0.6-0.4c0,0,0.1,0,0.1-0.1
		c0,0,0,0,0-0.1c0,0,0,0-0.1,0c-0.2,0.1-0.3,0.2-0.4,0.3C9.4,23,9.2,23.2,9,23.4c-0.2,0.2-0.4,0.4-0.6,0.5C8.3,23.9,8.2,24,8.2,24.2
		z"/>
	<path class="st0" d="M27,4c-0.1,0.1-0.3,0.3-0.5,0.4c-0.1,0.1-0.2,0.2-0.4,0.2c0,0,0,0,0,0c0,0,0,0.1,0,0.1c0,0,0,0,0.1,0
		c0.1,0,0.1-0.1,0.1-0.1c0.4-0.2,0.7-0.5,1-0.8c0,0,0.1-0.1,0.1-0.1c0,0,0-0.1,0-0.1c0,0-0.1,0-0.1,0C27.2,3.7,27.1,3.8,27,4z"/>
	<path class="st0" d="M10.2,23.1c0.1-0.1,0.1-0.1,0.2-0.2c0,0,0,0,0,0C10.3,23,10.2,23,10.2,23.1C10.2,23.1,10.2,23.1,10.2,23.1z"/>
	<path class="st0" d="M13.2,21C13.2,21.1,13.2,21.1,13.2,21C13.2,21.1,13.2,21.1,13.2,21C13.2,21.1,13.2,21.1,13.2,21
		C13.2,21.1,13.2,21.1,13.2,21z"/>
	<path class="st0" d="M14.1,21.1C14.1,21.2,14,21.2,14.1,21.1C14,21.2,14.1,21.2,14.1,21.1L14.1,21.1z"/>
</g>
</svg>
