<?xml version="1.0" encoding="utf-8"?>
<!-- Generator: Adobe Illustrator 21.0.0, SVG Export Plug-In . SVG Version: 6.00 Build 0)  -->
<svg version="1.1" id="Layer_1" xmlns="http://www.w3.org/2000/svg" xmlns:xlink="http://www.w3.org/1999/xlink" x="0px" y="0px"
	 viewBox="0 0 18 27.8" style="enable-background:new 0 0 18 27.8;" xml:space="preserve">
<style type="text/css">
	.st0{fill:#FFFFFF;}
	.st1{fill:#BF1D70;}
</style>
<g>
	<path class="st0" d="M16,5.6c-0.2,0.1-0.4,0-0.5-0.1c-0.1,0-0.1-0.1-0.2-0.2c-0.3-0.3-0.6-0.6-1-0.9c0,0-0.1-0.1-0.1-0.1
		c0.1,0.1,0.2,0.2,0.3,0.3c0.1,0.1,0.2,0.3,0.3,0.4c0,0,0,0.1,0.1,0.1c0.1,0.5,0.3,0.9,0.6,1.2c0.2,0.3,0.4,0.6,0.5,1
		C16,7.8,16,8.2,16.1,8.5c0,0.2,0,0.3,0,0.5c-0.1,0.4-0.1,0.8-0.1,1.3c0,0.4-0.1,0.7-0.2,1c-0.1,0.2-0.2,0.5-0.3,0.7c0,0,0,0,0,0
		c-0.1,0.4-0.3,0.7-0.4,1.1c-0.1,0.3-0.3,0.6-0.4,0.9c-0.1,0.1,0,0.2,0.1,0.2c0.1,0.1,0.3,0.1,0.4,0.2c0,0,0.1,0,0.1,0.1
		c-0.2,0-0.3-0.1-0.5-0.2c-0.2-0.1-0.2-0.1-0.3,0.1c-0.1,0.1-0.1,0.2,0,0.4c0,0.1,0,0.3,0,0.4c0,0.2,0,0.3-0.1,0.5
		c-0.1,0.2-0.1,0.4-0.2,0.6c0,0,0,0.1,0,0.2c0,0.1-0.1,0.3-0.2,0.3c-0.1,0-0.1,0.1-0.2,0.1c-0.1,0.1-0.2,0.3-0.3,0.4
		c-0.1,0.1-0.2,0.2-0.3,0.4c-0.2,0.3-0.4,0.6-0.6,0.9c-0.2,0.4-0.5,0.7-0.7,1c-0.1,0.1-0.1,0.2-0.2,0.3c-0.4,0.4-0.8,0.8-1.2,1.1
		c-0.1,0.1-0.3,0.2-0.5,0.2c-0.1,0-0.1,0-0.2,0.1c-0.3,0.2-0.7,0.4-1.1,0.6c-0.1,0.1-0.3,0.2-0.4,0.2c-0.2,0.1-0.3,0.2-0.5,0.4
		c-0.1,0.1-0.2,0.1-0.2,0.2c-0.2,0.3-0.4,0.6-0.7,0.9c-0.4,0.4-0.9,0.7-1.4,0.8c-0.1,0-0.2,0-0.3,0c-0.1,0-0.1,0-0.2,0.1
		c0,0.2-0.1,0.3-0.2,0.5c-0.1,0.2-0.3,0.4-0.5,0.5c-0.6,0.3-1.1,0.7-1.5,1.2c0,0,0,0,0,0c0-0.1,0.1-0.2,0.2-0.3
		c0.1-0.1,0.2-0.3,0.4-0.4c0.1,0,0.1-0.1,0.1-0.2c0-0.1,0.1-0.1,0.2-0.1c0.2-0.1,0.4-0.2,0.5-0.3C4,25.3,4.2,25.2,4.3,25
		c0.1-0.2,0.2-0.3,0.3-0.5c0,0,0.1-0.1,0-0.1c0,0-0.1,0-0.1,0c0,0,0,0,0,0c-0.3,0.4-0.7,0.6-1.2,0.8c-0.1,0-0.2,0-0.3,0
		c0.3-0.1,0.6-0.3,0.9-0.5c0.2-0.1,0.3-0.3,0.5-0.5c0,0,0,0,0-0.1c0,0-0.1,0-0.1,0c0,0-0.1,0.1-0.1,0.1c-0.2,0.1-0.4,0.2-0.7,0.3
		c-0.3,0-0.6,0.1-1,0.1c0,0-0.1,0-0.1,0c0,0-0.1,0-0.1,0c0,0,0-0.1,0.1-0.1c0.1,0,0.1,0,0.2,0c0.4-0.1,0.7-0.1,1.1-0.2
		c0.2,0,0.3-0.1,0.4-0.2c0.1,0,0.1-0.1,0-0.2c-0.4-0.4-0.4-0.8-0.3-1.3c0-0.3,0.1-0.6,0.3-0.9c0.1-0.2,0.2-0.3,0.3-0.5
		c0.1-0.2,0.1-0.3,0-0.5c-0.1-0.3-0.2-0.6-0.3-0.8c0,0,0-0.1,0-0.1c-0.1-0.4-0.2-0.9-0.4-1.3c-0.1-0.2-0.1-0.5,0-0.7
		c0.1-0.1,0-0.3,0.1-0.5c0,0,0-0.1,0-0.1c-0.1-0.2-0.1-0.5-0.1-0.7c0-0.2,0-0.3,0.1-0.5c0,0,0-0.1,0-0.1c-0.1-0.3,0-0.7-0.1-1
		c0-0.3,0.1-0.7,0.3-0.9c0.1-0.1,0.1-0.2,0.1-0.4c0-0.1,0.1-0.3,0-0.4c-0.4,0.2-0.7,0.4-1.1,0.4c0.1,0,0.2-0.1,0.3-0.1
		c0,0,0.1,0,0.1,0c0.6-0.3,0.6-0.3,0.6-0.9c0.1-0.8,0.3-1.4,0.8-2.1c0-0.1,0.1-0.1,0.2-0.2c0.2-0.1,0.2-0.2,0.2-0.4
		c0-0.1,0-0.1,0-0.2c0-0.3,0.1-0.6,0.2-1C5.7,8.6,5.8,8.4,6,8.3C6.2,8.1,6.3,8,6.5,7.8c0.4-0.4,0.8-0.7,1.2-1.1
		C8,6.3,8.4,5.9,8.8,5.5C9.2,5.1,9.6,4.7,10,4.3c0.1-0.1,0.2-0.1,0.2-0.2c0,0,0-0.1,0.1-0.1c0.3-0.3,0.6-0.6,1-0.8c0,0,0,0,0-0.1
		c-0.3-0.1-0.5-0.3-0.7-0.4c-0.1-0.1-0.3-0.2-0.4-0.3c0,0-0.1-0.1-0.1-0.1c0,0,0-0.1,0-0.1c0,0,0,0,0.1,0c0.1,0.1,0.3,0.1,0.4,0.2
		c0.3,0.3,0.6,0.5,0.9,0.6c0.1,0,0.2,0.1,0.4,0.1c0-0.2-0.2-0.3-0.4-0.5c-0.1-0.1-0.3-0.1-0.4-0.2c-0.1,0-0.2-0.1-0.3-0.2
		c0.2,0.1,0.4,0.1,0.6,0.2c0.3,0.1,0.5,0.3,0.6,0.5C12,3,12.1,3.1,12.3,3.2c0-0.1,0-0.2,0-0.3c-0.1-0.4,0-0.9,0.2-1.3
		c0.1-0.4,0.3-0.7,0.5-1.1c0,0.2-0.1,0.4-0.2,0.5c-0.1,0.3-0.3,0.7-0.3,1.1c-0.1,0.3,0,0.6,0.1,1c0,0.1,0.1,0.2,0.2,0.3
		c0,0.1,0.4,0,0.4-0.1c0.1-0.1,0.1-0.3,0.1-0.5c0-0.1,0-0.2,0-0.4c0-0.1,0-0.1,0.1-0.2c0,0.4,0.2,0.8-0.1,1.1
		c-0.1,0.1,0,0.2,0.1,0.2c0.1,0.1,0.3,0.1,0.4,0.2c0,0,0.1,0,0.1,0c0.1,0,0.2,0,0.3,0.1c0.6,0.4,1,0.8,1.5,1.3
		C15.7,5.5,15.9,5.5,16,5.6z"/>
	<g>
		<path class="st1" d="M16,5.6c-0.2,0.1-0.4,0-0.5-0.1c-0.1,0-0.1-0.1-0.2-0.2c-0.3-0.3-0.6-0.6-1-0.9c0,0-0.1-0.1-0.1-0.1
			c0.1,0.1,0.2,0.2,0.3,0.3c0.1,0.1,0.2,0.3,0.3,0.4c0,0,0,0.1,0.1,0.1c0.1,0.5,0.3,0.9,0.6,1.2c0.2,0.3,0.4,0.6,0.5,1
			C16,7.8,16,8.2,16.1,8.5c0,0.2,0,0.3,0,0.5c-0.1,0.4-0.1,0.8-0.1,1.3c0,0.4-0.1,0.7-0.2,1c-0.1,0.2-0.2,0.5-0.3,0.7c0,0,0,0,0,0
			c-0.1,0.4-0.3,0.7-0.4,1.1c-0.1,0.3-0.3,0.6-0.4,0.9c-0.1,0.1,0,0.2,0.1,0.2c0.1,0.1,0.3,0.1,0.4,0.2c0,0,0.1,0,0.1,0.1
			c-0.2,0-0.3-0.1-0.5-0.2c-0.2-0.1-0.2-0.1-0.3,0.1c-0.1,0.1-0.1,0.2,0,0.4c0,0.1,0,0.3,0,0.4c0,0.2,0,0.3-0.1,0.5
			c-0.1,0.2-0.1,0.4-0.2,0.6c0,0,0,0.1,0,0.2c0,0.1-0.1,0.3-0.2,0.3c-0.1,0-0.1,0.1-0.2,0.1c-0.1,0.1-0.2,0.3-0.3,0.4
			c-0.1,0.1-0.2,0.2-0.3,0.4c-0.2,0.3-0.4,0.6-0.6,0.9c-0.2,0.4-0.5,0.7-0.7,1c-0.1,0.1-0.1,0.2-0.2,0.3c-0.4,0.4-0.8,0.8-1.2,1.1
			c-0.1,0.1-0.3,0.2-0.5,0.2c-0.1,0-0.1,0-0.2,0.1c-0.3,0.2-0.7,0.4-1.1,0.6c-0.1,0.1-0.3,0.2-0.4,0.2c-0.2,0.1-0.3,0.2-0.5,0.4
			c-0.1,0.1-0.2,0.1-0.2,0.2c-0.2,0.3-0.4,0.6-0.7,0.9c-0.4,0.4-0.9,0.7-1.4,0.8c-0.1,0-0.2,0-0.3,0c-0.1,0-0.1,0-0.2,0.1
			c0,0.2-0.1,0.3-0.2,0.5c-0.1,0.2-0.3,0.4-0.5,0.5c-0.6,0.3-1.1,0.7-1.5,1.2c0,0,0,0,0,0c0-0.1,0.1-0.2,0.2-0.3
			c0.1-0.1,0.2-0.3,0.4-0.4c0.1,0,0.1-0.1,0.1-0.2c0-0.1,0.1-0.1,0.2-0.1c0.2-0.1,0.4-0.2,0.5-0.3C4,25.3,4.2,25.2,4.3,25
			c0.1-0.2,0.2-0.3,0.3-0.5c0,0,0.1-0.1,0-0.1c0,0-0.1,0-0.1,0c0,0,0,0,0,0c-0.3,0.4-0.7,0.6-1.2,0.8c-0.1,0-0.2,0-0.3,0
			c0.3-0.1,0.6-0.3,0.9-0.5c0.2-0.1,0.3-0.3,0.5-0.5c0,0,0,0,0-0.1c0,0-0.1,0-0.1,0c0,0-0.1,0.1-0.1,0.1c-0.2,0.1-0.4,0.2-0.7,0.3
			c-0.3,0-0.6,0.1-1,0.1c0,0-0.1,0-0.1,0c0,0-0.1,0-0.1,0c0,0,0-0.1,0.1-0.1c0.1,0,0.1,0,0.2,0c0.4-0.1,0.7-0.1,1.1-0.2
			c0.2,0,0.3-0.1,0.4-0.2c0.1,0,0.1-0.1,0-0.2c-0.4-0.4-0.4-0.8-0.3-1.3c0-0.3,0.1-0.6,0.3-0.9c0.1-0.2,0.2-0.3,0.3-0.5
			c0.1-0.2,0.1-0.3,0-0.5c-0.1-0.3-0.2-0.6-0.3-0.8c0,0,0-0.1,0-0.1c-0.1-0.4-0.2-0.9-0.4-1.3c-0.1-0.2-0.1-0.5,0-0.7
			c0.1-0.1,0-0.3,0.1-0.5c0,0,0-0.1,0-0.1c-0.1-0.2-0.1-0.5-0.1-0.7c0-0.2,0-0.3,0.1-0.5c0,0,0-0.1,0-0.1c-0.1-0.3,0-0.7-0.1-1
			c0-0.3,0.1-0.7,0.3-0.9c0.1-0.1,0.1-0.2,0.1-0.4c0-0.1,0.1-0.3,0-0.4c-0.4,0.2-0.7,0.4-1.1,0.4c0.1,0,0.2-0.1,0.3-0.1
			c0,0,0.1,0,0.1,0c0.6-0.3,0.6-0.3,0.6-0.9c0.1-0.8,0.3-1.4,0.8-2.1c0-0.1,0.1-0.1,0.2-0.2c0.2-0.1,0.2-0.2,0.2-0.4
			c0-0.1,0-0.1,0-0.2c0-0.3,0.1-0.6,0.2-1C5.7,8.6,5.8,8.4,6,8.3C6.2,8.1,6.3,8,6.5,7.8c0.4-0.4,0.8-0.7,1.2-1.1
			C8,6.3,8.4,5.9,8.8,5.5C9.2,5.1,9.6,4.7,10,4.3c0.1-0.1,0.2-0.1,0.2-0.2c0,0,0-0.1,0.1-0.1c0.3-0.3,0.6-0.6,1-0.8c0,0,0,0,0-0.1
			c-0.3-0.1-0.5-0.3-0.7-0.4c-0.1-0.1-0.3-0.2-0.4-0.3c0,0-0.1-0.1-0.1-0.1c0,0,0-0.1,0-0.1c0,0,0,0,0.1,0c0.1,0.1,0.3,0.1,0.4,0.2
			c0.3,0.3,0.6,0.5,0.9,0.6c0.1,0,0.2,0.1,0.4,0.1c0-0.2-0.2-0.3-0.4-0.5c-0.1-0.1-0.3-0.1-0.4-0.2c-0.1,0-0.2-0.1-0.3-0.2
			c0.2,0.1,0.4,0.1,0.6,0.2c0.3,0.1,0.5,0.3,0.6,0.5C12,3,12.1,3.1,12.3,3.2c0-0.1,0-0.2,0-0.3c-0.1-0.4,0-0.9,0.2-1.3
			c0.1-0.4,0.3-0.7,0.5-1.1c0,0.2-0.1,0.4-0.2,0.5c-0.1,0.3-0.3,0.7-0.3,1.1c-0.1,0.3,0,0.6,0.1,1c0,0.1,0.1,0.2,0.2,0.3
			c0,0.1,0.4,0,0.4-0.1c0.1-0.1,0.1-0.3,0.1-0.5c0-0.1,0-0.2,0-0.4c0-0.1,0-0.1,0.1-0.2c0,0.4,0.2,0.8-0.1,1.1
			c-0.1,0.1,0,0.2,0.1,0.2c0.1,0.1,0.3,0.1,0.4,0.2c0,0,0.1,0,0.1,0c0.1,0,0.2,0,0.3,0.1c0.6,0.4,1,0.8,1.5,1.3
			C15.7,5.5,15.9,5.5,16,5.6z M4.3,19.6L4.3,19.6c0,0.2,0.2,0.7,0.4,0.9c0-0.2,0.3-0.4,0.1-0.6c0.1,0,0.2,0,0.2-0.1
			c0-0.1,0.1-0.1,0.1-0.2c0.1-0.1,0.2-0.2,0.3-0.3c0.2-0.1,0.4-0.1,0.6-0.2c0.1,0,0.2-0.1,0.4,0c-0.2,0.1-0.4,0.1-0.6,0.2
			c-0.3,0.1-0.6,0.3-0.7,0.5c-0.2,0.3-0.4,0.7-0.4,1.1c0,0.3-0.1,0.5-0.2,0.7c-0.1,0.1-0.1,0.2-0.2,0.4C4.1,22.3,4,22.7,4,23.2
			c0,0.2,0,0.4,0.1,0.6c0,0.1,0.1,0.2,0.2,0.2c0.1,0,0.1-0.1,0.2-0.2c0-0.1,0.1-0.2,0.2-0.2c0,0.1,0,0.2-0.1,0.3
			c0,0.1-0.1,0.1-0.1,0.2c0,0,0,0.1,0,0.1c0.1,0,0.1,0,0.2,0.1c0,0,0.1,0.1,0.1,0c0,0,0.1-0.1,0.1-0.1c0,0,0.1-0.1,0.1,0
			c0.1,0,0,0.1,0,0.1c0,0.1-0.1,0.1-0.1,0.2c0,0,0.1,0,0.1,0c0.3,0,0.5-0.1,0.7-0.2c0.4-0.2,0.8-0.5,1.2-0.9C7,23.1,7.1,23,7.1,22.9
			c0.1-0.3,0-0.6-0.2-0.8c-0.4-0.5-0.9-0.9-1.5-1c-0.1,0-0.1,0-0.2-0.1c0,0,0,0,0,0c0.3,0,0.6,0.1,0.9,0.3c0.3,0.1,0.5,0.4,0.7,0.6
			c0.3,0.2,0.3,0.5,0.4,0.8C7.6,22.4,7.8,22.2,8,22c0,0,0,0,0-0.1c0.2-0.3,0.2-0.7,0-1c-0.1-0.2-0.3-0.4-0.5-0.5
			c0,0-0.1-0.1-0.1-0.1c0.1,0.1,0.3,0.1,0.4,0.2c0.1,0.1,0.2,0.2,0.3,0.3c0.1,0.1,0.1,0.3,0.2,0.4c0,0.1,0,0.3,0,0.5
			c0.2-0.2,0.2-0.4,0.2-0.6c-0.1-0.4-0.2-0.8-0.5-1.1C8,20,7.9,19.9,7.9,19.7c0.3,0.1,0.4,0.3,0.6,0.6c0.2,0.4,0.4,0.9,0.3,1.4
			c0.1,0,0.3-0.1,0.4-0.1c0.4-0.2,0.8-0.5,1.2-0.7c0.1,0,0.1-0.1,0.1-0.1c0.1-0.1,0.1-0.2,0.2-0.3c0.1-0.3,0.2-0.6,0.2-0.9
			c0-0.1,0-0.3,0-0.4c0-0.2-0.1-0.4-0.2-0.6c-0.2-0.2-0.4-0.4-0.6-0.6c-0.1,0-0.1-0.1-0.2-0.2c0,0,0.1,0,0.1,0
			c0.3,0.1,0.6,0.3,0.8,0.5c0.2,0.2,0.3,0.4,0.3,0.7c0,0.1,0,0.2,0,0.4c0,0.2,0,0.3,0,0.5c-0.1,0.2-0.1,0.3-0.1,0.5
			c0.5-0.4,0.8-0.8,1.1-1.3c0.1-0.2,0.3-0.4,0.4-0.6c0.4-0.7,0.9-1.4,1.4-2c0.1-0.2,0.1-0.3,0.1-0.5c0-0.2-0.1-0.4-0.1-0.5
			c-0.1-0.2-0.2-0.5-0.4-0.7c-0.5-0.5-1.2-0.9-1.9-1c-0.1,0-0.3,0-0.4-0.1c-0.5-0.1-1-0.2-1.5-0.1c-0.2,0-0.5,0.1-0.7,0.1
			c-0.2,0-0.4,0.1-0.6,0.1c0.1-0.1,0.2-0.1,0.2-0.1c0.3,0,0.5-0.1,0.8-0.2c0.3-0.1,0.6-0.1,1-0.1c0.3,0,0.7,0.1,1,0.1
			c0.2,0,0.3,0,0.5,0c-0.8-0.4-1.7-0.7-2.6-0.8c0,0,0.1,0,0.1,0c0.4,0,0.8,0,1.1,0.2c0.4,0.1,0.7,0.3,1.1,0.4
			c0.4,0.1,0.8,0.4,1.2,0.5c0.2,0.1,0.5,0.3,0.7,0.5c0.2,0.3,0.4,0.6,0.5,0.9c0.1,0.2,0.1,0.3,0.2,0.5c0.1-0.2,0.1-0.4,0.1-0.6
			c0-0.2-0.1-0.4,0-0.6c0.1-0.2,0.1-0.4,0-0.6c-0.1-0.1-0.1-0.3,0-0.4c0-0.1,0.1-0.1,0.1-0.1c0,0.1,0.1,0.2,0.1,0.3
			c-0.1,0.1,0,0.2,0.1,0.3c0.1-0.1,0.2-0.3,0.2-0.4c0.1-0.3,0.2-0.6,0.3-0.8c0-0.1,0.1-0.2,0-0.3l0,0c0.1-0.1,0.1-0.2,0.2-0.4
			c0-0.1,0.1-0.2,0-0.3c0,0,0,0,0-0.1c0-0.2,0-0.4-0.1-0.6c-0.1-0.2-0.1-0.3-0.2-0.5c-0.1-0.2-0.2-0.5-0.4-0.7
			c-0.3-0.5-0.8-0.8-1.3-1.2c-0.3-0.2-0.7-0.4-1-0.4c-0.1,0-0.1,0-0.1-0.1c0.4,0,0.8,0.1,1.2,0.4c0.4,0.2,0.7,0.5,1,0.8
			c0.4,0.3,0.6,0.7,0.8,1.2c0.1,0.3,0.2,0.6,0.3,0.9c0,0,0,0,0,0.1c0-0.1,0.1-0.2,0.1-0.3c0.1-0.2,0.1-0.4,0.2-0.5
			c0-0.2,0.1-0.4,0-0.5c0,0,0,0,0-0.1c0-0.3,0-0.5,0.1-0.8c0.1-0.4,0-0.7-0.2-1c-0.2-0.4-0.5-0.8-0.9-1c-0.2-0.1-0.3-0.3-0.5-0.4
			c-0.4-0.2-0.7-0.4-1-0.6c-0.1-0.1-0.3-0.2-0.5-0.2C12.1,6.2,11.5,6.1,11,6c-0.3-0.1-0.6-0.1-1,0C9.8,6,9.6,6.1,9.4,6.2
			c-0.1,0-0.2,0.1-0.4,0C9.2,6.1,9.3,6.1,9.4,6c0.5-0.2,1-0.3,1.6-0.2c0.5,0.1,1,0.3,1.5,0.3c0.3,0,0.5,0.1,0.7,0.3
			c0.3,0.2,0.5,0.3,0.8,0.5c0.1,0.1,0.3,0.1,0.4,0.2c0.2,0.2,0.4,0.3,0.6,0.5c0.3,0.2,0.4,0.5,0.6,0.8c0.1,0.1,0.1,0.3,0.2,0.4
			c0,0,0,0,0-0.1c0-0.8-0.2-1.6-0.7-2.2c-0.1-0.2-0.3-0.4-0.4-0.6c0-0.1-0.1-0.1-0.1-0.2c-0.3-0.2-0.5-0.5-0.8-0.6
			c-0.1,0-0.1-0.1-0.2-0.1c0,0,0,0,0,0c0.2,0.1,0.4,0.2,0.6,0.2C14.2,5.1,14.1,5,14,4.9c-0.1-0.1-0.3-0.1-0.4-0.3
			c0.1,0.1,0.3,0.1,0.4,0.2c0.1,0.1,0.2,0.2,0.3,0.2c0.1,0.1,0.1,0.2,0.3,0.3c0,0,0-0.1,0-0.1c0,0,0-0.1,0-0.1
			c-0.3-0.4-0.6-0.8-1.1-1.1c-0.1-0.1-0.3-0.2-0.4-0.3c-0.1,0-0.1,0-0.2,0c-0.1,0-0.2,0.1-0.2,0c-0.2-0.2-0.5-0.2-0.8-0.2
			c-0.5-0.1-0.9,0.1-1.1,0.5c0.3,0,0.5,0,0.8,0.1c-0.2,0-0.3,0.1-0.4,0.1c-0.2,0-0.4,0.1-0.7,0.2c-0.1,0-0.1,0.1-0.2,0.1
			C9.5,5,9,5.6,8.3,6.2C8,6.4,7.8,6.8,7.6,7c0,0-0.1,0.1-0.1,0.2C7.7,7,8,6.9,8.2,6.8c0.2-0.1,0.5-0.2,0.7-0.1c0.3,0,0.5,0,0.8,0
			c0,0,0.1,0,0.1,0C9.6,6.7,9.4,6.8,9.1,6.7c-0.4,0-0.7,0-1,0.2C7.8,7.1,7.5,7.3,7.2,7.5C7.1,7.6,7,7.6,7,7.7
			C6.8,7.8,6.6,7.9,6.4,8.1C6.3,8.2,6.2,8.3,6.1,8.4C5.9,8.5,5.8,8.8,5.7,9c-0.1,0.3-0.1,0.7-0.2,1c0.3-0.3,0.4-0.3,0.6-0.3
			C6,9.8,5.8,9.9,5.7,10.1c0,0,0,0,0,0c-0.2,0.2-0.4,0.4-0.6,0.7c-0.5,0.6-0.6,1.4-0.7,2.2c0,0,0,0.1,0.1,0.1c0.4-0.5,1-0.8,1.5-1.1
			c0.5-0.3,1.6-0.6,1.8-0.5c0,0,0,0,0,0c0,0-0.1,0-0.1,0c-0.9,0.2-1.7,0.5-2.4,1c-0.2,0.2-0.4,0.3-0.6,0.6c-0.1,0.1-0.1,0.2,0,0.3
			c0.5-0.5,0.9-0.9,1.3-1.2c0.4-0.2,1.4-0.4,1.6-0.3c-0.2,0.1-0.3,0.1-0.5,0.1c-0.4,0.1-0.8,0.2-1.1,0.4c-0.5,0.3-0.9,0.8-1.3,1.3
			c-0.1,0.2-0.3,0.4-0.3,0.7C4,14.9,4,15.3,4.1,15.7c0.1-0.1,0.2-0.3,0.3-0.4c0.1-0.3,0.3-0.5,0.5-0.7c0.4-0.4,0.8-0.6,1.3-0.7
			c0.1,0,0.2,0,0.3,0c0,0,0,0,0,0.1C6.3,14,6.3,14,6.2,14c-0.4,0.1-0.8,0.3-1.2,0.7c-0.2,0.2-0.3,0.4-0.4,0.6
			c-0.3,0.4-0.5,0.9-0.5,1.4c0,0.2,0,0.3,0.1,0.5c0.1-0.1,0.2-0.1,0.3-0.2c0.1-0.2,0.3-0.3,0.5-0.4c0.4-0.2,0.9-0.3,1.3-0.5
			c0,0.1-0.1,0.1-0.1,0.1c-0.3,0.1-0.5,0.2-0.8,0.3c-0.5,0.2-0.9,0.5-1.2,1C4,17.7,4,17.9,3.9,18.2c0,0.1,0,0.2,0,0.3
			c0,0,0.1,0,0.1,0c0,0,0.1-0.1,0.1,0c0,0.1,0,0.1,0,0.1c0,0,0,0-0.1,0C4,18.6,4,18.6,4,18.7C4.1,19,4.2,19.3,4.3,19.6z"/>
		<path class="st1" d="M4.4,18.5C4.4,18.4,4.4,18.4,4.4,18.5c0-0.1-0.1-0.1-0.1-0.1c0,0,0,0,0,0.1C4.2,18.5,4.3,18.5,4.4,18.5
			C4.4,18.5,4.4,18.5,4.4,18.5c0.1,0,0.1,0,0.2,0c0,0,0,0,0-0.1c0,0,0,0-0.1,0C4.5,18.4,4.5,18.4,4.4,18.5z M14.5,12.3
			c0,0,0-0.2-0.1-0.1c-0.1,0-0.2,0.1-0.2,0.2c0.1,0,0.1,0,0.1,0C14.4,12.3,14.4,12.3,14.5,12.3C14.5,12.3,14.5,12.4,14.5,12.3
			c0.1,0,0.2,0,0.2-0.1c0,0,0-0.1,0-0.1C14.5,12.2,14.5,12.2,14.5,12.3C14.5,12.3,14.5,12.3,14.5,12.3z M8.8,8.6
			C8.8,8.6,8.8,8.7,8.8,8.6C9,8.6,8.9,8.5,9,8.5c0.1,0.2-0.1,0.2-0.2,0.3c0,0,0,0,0.1,0c0.2-0.1,0.4-0.2,0.6-0.3
			c0.1-0.1,0.1-0.2-0.1-0.2c-0.1,0-0.2,0-0.2-0.1c0,0,0-0.1-0.1-0.1c0,0-0.1,0-0.1,0c0,0.1-0.1,0.1-0.2,0.2c0,0-0.1,0,0,0.1
			C8.9,8.5,8.8,8.5,8.8,8.6C8.8,8.6,8.8,8.6,8.8,8.6c-0.1,0-0.1,0-0.2,0.1c0,0,0,0,0,0C8.7,8.7,8.7,8.7,8.8,8.6
			C8.8,8.6,8.8,8.6,8.8,8.6z M9.7,20.7c0.1-0.1,0.1-0.2,0.1-0.4c0-0.1,0-0.2,0-0.3c0.1-0.2,0.1-0.4,0.2-0.6c0.1-0.2,0.1-0.5,0-0.7
			c-0.1-0.1-0.2-0.3-0.3-0.4c-0.2-0.3-0.5-0.5-0.8-0.6c-0.2,0-0.5-0.1-0.7,0c0,0-0.1,0-0.1,0.1c0.1,0,0.2,0,0.3,0
			c0.2,0,0.4,0,0.6,0.1c0.4,0.2,0.7,0.6,0.9,1.1c0.1,0.2,0,0.3-0.1,0.5c-0.2-0.2-0.4-0.4-0.5-0.6c0-0.1-0.1-0.2-0.2-0.2
			c-0.3-0.3-0.8-0.4-1.2-0.3c-0.1,0-0.3,0-0.4,0.1c0.2,0,0.3,0,0.5,0c0.5,0,0.9,0.2,1.2,0.6c0.1,0.2,0.3,0.4,0.3,0.6
			c0,0,0,0.1,0,0.1c0.1,0,0.1,0.1,0.1,0.2C9.6,20.2,9.7,20.4,9.7,20.7z M6.5,16.4c0.1,0,0.2,0,0.3,0c0.1,0,0.2-0.1,0.3-0.1
			c0.3-0.1,0.5-0.1,0.8-0.1c0.2,0,0.4,0.1,0.5,0.1c0.1,0,0.1,0,0.1,0c-0.2-0.1-0.4-0.1-0.6-0.2C7.8,16,7.5,16,7.3,16
			C7,16.1,6.8,16.2,6.5,16.4C6.5,16.3,6.5,16.3,6.5,16.4z M5.1,21.8c0.2,0.1,0.3,0.1,0.5,0.1c0.3,0,0.6,0.1,0.8,0.3c0,0,0,0,0,0
			c0,0.1,0.1,0,0.1,0c0,0,0-0.1,0-0.1c0-0.1-0.1-0.1-0.2-0.1C6,21.7,5.6,21.8,5.1,21.8z M7.1,13.4c0.2,0,0.4-0.1,0.6-0.1
			c0.4,0,0.8-0.1,1.3-0.1c0,0,0.1,0,0.1,0c0,0,0-0.1,0-0.1c-0.1,0-0.1,0-0.2,0c-0.5,0-1.1,0.1-1.6,0.2C7.1,13.3,7.1,13.3,7.1,13.4z
			 M6.4,13.3C7,13.2,7.4,13,7.9,13c0,0,0.1,0,0.1,0c0,0,0-0.1-0.1,0c-0.2,0-0.4,0-0.7,0.1C6.9,12.9,6.7,13.1,6.4,13.3z M14.7,11.4
			c0,0,0.1-0.1,0-0.1c0,0-0.1,0-0.1,0c-0.1,0-0.1,0.1,0,0.2C14.6,11.4,14.7,11.4,14.7,11.4z M7,9.5C7,9.4,7,9.4,7,9.5
			c0-0.1-0.1-0.1-0.1-0.2c0,0-0.1,0-0.1,0c0,0,0,0.1,0,0.1C6.9,9.4,6.9,9.5,7,9.5z M14.9,12.3c0-0.1,0-0.1,0.1-0.2c0,0,0,0,0,0
			c0,0-0.1,0-0.1,0.1C14.9,12.2,14.8,12.3,14.9,12.3C14.9,12.3,14.9,12.3,14.9,12.3z M9.5,16.8c0.1,0,0.1,0,0.2,0c0,0,0.1,0,0-0.1
			c0,0,0-0.1-0.1,0C9.6,16.8,9.5,16.7,9.5,16.8z M9.6,17.1c0,0,0.1-0.1,0.1-0.1c0,0-0.1-0.1-0.1,0c0,0-0.1,0.1-0.1,0.1
			C9.5,17.1,9.6,17.1,9.6,17.1z M12.3,14.8c0,0.1,0.1,0.1,0.1,0c0,0,0,0,0-0.1C12.4,14.7,12.4,14.7,12.3,14.8
			C12.3,14.7,12.3,14.7,12.3,14.8z M11.1,16c-0.1,0-0.1,0-0.2,0.1c0,0,0,0,0,0.1c0,0,0,0,0.1,0C11,16.1,11,16.1,11.1,16z M10.8,15.3
			c0,0,0.1,0,0.1,0c0,0,0-0.1,0-0.1c0,0-0.1,0-0.1,0C10.8,15.2,10.7,15.3,10.8,15.3z M4.8,19.4C4.8,19.3,4.9,19.3,4.8,19.4
			C4.8,19.3,4.8,19.2,4.8,19.4c-0.1-0.1-0.1,0-0.1,0C4.7,19.4,4.8,19.4,4.8,19.4z M10.2,16.2C10.2,16.2,10.2,16.2,10.2,16.2
			c0-0.1,0-0.1-0.1-0.1C10.1,16.1,10.1,16.2,10.2,16.2C10.1,16.3,10.2,16.3,10.2,16.2z M14.7,12C14.7,12,14.7,12,14.7,12
			c0-0.1,0-0.1,0-0.1C14.6,11.9,14.6,12,14.7,12C14.6,12,14.6,12,14.7,12z M9.2,16.8c-0.1,0-0.1-0.1-0.2-0.1c0,0,0,0,0,0
			c0,0,0,0,0,0C9,16.8,9.1,16.8,9.2,16.8z M14.1,11.3C14.2,11.3,14.2,11.2,14.1,11.3c0-0.1,0-0.1-0.1-0.1C14,11.2,14,11.2,14.1,11.3
			C14.1,11.3,14.1,11.3,14.1,11.3z M10.2,15.8C10.3,15.7,10.3,15.7,10.2,15.8C10.2,15.7,10.2,15.7,10.2,15.8c-0.1-0.1-0.1-0.1-0.1,0
			C10.2,15.8,10.2,15.8,10.2,15.8z M14.4,11.1C14.4,11.1,14.3,11.2,14.4,11.1C14.4,11.2,14.4,11.2,14.4,11.1
			C14.5,11.2,14.5,11.2,14.4,11.1C14.5,11.1,14.4,11.1,14.4,11.1z M8.9,17.1C8.9,17.1,8.9,17.1,8.9,17.1C8.9,17.2,8.9,17.2,8.9,17.1
			C9,17.2,9,17.1,8.9,17.1C9,17.1,8.9,17.1,8.9,17.1z M6.8,9.8c0.1,0,0.1,0,0.2-0.1c0,0,0-0.1,0-0.1c0,0-0.1,0-0.1,0
			C6.9,9.7,6.8,9.8,6.8,9.8z M11.7,17.2C11.7,17.2,11.7,17.2,11.7,17.2C11.7,17.1,11.6,17.1,11.7,17.2c-0.1-0.1-0.1,0-0.1,0
			C11.6,17.2,11.6,17.2,11.7,17.2z M13.8,9.9C13.8,9.9,13.8,9.9,13.8,9.9c0-0.1,0-0.1,0-0.1C13.7,9.8,13.7,9.8,13.8,9.9
			C13.7,9.9,13.7,9.9,13.8,9.9z M14.4,11.4C14.4,11.3,14.4,11.3,14.4,11.4c-0.1,0-0.1,0-0.1,0.1C14.3,11.5,14.3,11.5,14.4,11.4
			C14.4,11.4,14.4,11.4,14.4,11.4z M4.3,19.3C4.3,19.3,4.3,19.3,4.3,19.3c0.1,0,0.2,0,0.1-0.1C4.4,19.1,4.4,19.1,4.3,19.3
			C4.3,19.2,4.3,19.2,4.3,19.3z M4.4,18.6C4.4,18.6,4.4,18.6,4.4,18.6c0,0.1,0,0.1,0.1,0.1c0,0,0,0,0-0.1
			C4.5,18.6,4.4,18.6,4.4,18.6z M4.1,18.1C4.2,18.1,4.2,18.1,4.1,18.1c0.1,0,0.1,0,0.1-0.1C4.2,18,4.2,18,4.1,18.1
			C4.1,18,4.1,18,4.1,18.1z M7.6,16.5C7.6,16.5,7.6,16.4,7.6,16.5c0-0.1,0-0.1-0.1-0.1c0,0,0,0,0,0.1C7.5,16.5,7.5,16.5,7.6,16.5z
			 M14.6,13C14.6,13,14.5,13,14.6,13c-0.1,0-0.1,0-0.1,0.1C14.5,13.2,14.5,13.2,14.6,13C14.6,13.1,14.6,13.1,14.6,13z M13.5,11.6
			C13.5,11.6,13.6,11.7,13.5,11.6c0.1,0,0.1,0,0.1,0C13.6,11.5,13.6,11.5,13.5,11.6C13.5,11.5,13.5,11.6,13.5,11.6z M9.3,16.9
			C9.3,17,9.4,17,9.3,16.9c0.1,0,0.1,0,0.1,0S9.4,16.8,9.3,16.9C9.3,16.9,9.3,16.9,9.3,16.9z M7.2,9.9C7.2,9.9,7.2,9.8,7.2,9.9
			C7.2,9.8,7.2,9.8,7.2,9.9C7.1,9.8,7.1,9.9,7.2,9.9C7.1,9.9,7.2,9.9,7.2,9.9z M8.7,16.7c0,0.1,0.1,0.1,0.1,0.1c0,0,0,0,0-0.1
			C8.8,16.6,8.7,16.6,8.7,16.7C8.7,16.6,8.7,16.7,8.7,16.7z M14.5,12.6C14.5,12.6,14.5,12.6,14.5,12.6
			C14.5,12.5,14.5,12.5,14.5,12.6C14.4,12.5,14.4,12.6,14.5,12.6C14.4,12.6,14.5,12.6,14.5,12.6z M13.4,10.8
			C13.4,10.7,13.4,10.7,13.4,10.8c0-0.1,0-0.1,0-0.1C13.3,10.7,13.3,10.7,13.4,10.8C13.3,10.8,13.4,10.8,13.4,10.8z M8.7,16.9
			C8.7,16.9,8.7,16.9,8.7,16.9C8.6,16.8,8.6,16.8,8.7,16.9c-0.1-0.1-0.1,0-0.1,0C8.6,16.9,8.6,16.9,8.7,16.9z M7.5,9.8
			C7.6,9.8,7.6,9.7,7.5,9.8c0-0.1,0-0.1-0.1-0.1C7.4,9.7,7.4,9.7,7.5,9.8C7.5,9.8,7.5,9.8,7.5,9.8z M9.1,16.3
			C9.1,16.3,9.1,16.2,9.1,16.3c0-0.1,0-0.1-0.1-0.1C9,16.2,9,16.2,9.1,16.3C9,16.3,9,16.3,9.1,16.3z M10,17.1
			C10,17.2,10,17.2,10,17.1c0.1,0,0.1,0,0.1,0C10.1,17.1,10,17.1,10,17.1C10,17.1,10,17.1,10,17.1z M13.4,11.9
			C13.4,11.9,13.4,11.8,13.4,11.9C13.4,11.8,13.4,11.8,13.4,11.9C13.3,11.8,13.3,11.8,13.4,11.9C13.3,11.9,13.4,11.9,13.4,11.9z
			 M9.5,16C9.5,15.9,9.5,15.9,9.5,16c0-0.1,0-0.1-0.1-0.1C9.4,15.9,9.4,15.9,9.5,16C9.4,16,9.5,16,9.5,16z M10.6,15.9
			c0,0,0.1,0,0.1,0c0,0,0-0.1,0-0.1C10.7,15.8,10.7,15.8,10.6,15.9C10.6,15.8,10.6,15.9,10.6,15.9z M10.5,17.1
			C10.6,17.1,10.6,17.1,10.5,17.1c0-0.1,0-0.1,0-0.1S10.4,17.1,10.5,17.1C10.5,17.1,10.5,17.1,10.5,17.1z M10.1,16.4
			C10.1,16.4,10,16.5,10.1,16.4c0,0.1,0,0.1,0.1,0.1C10.2,16.5,10.2,16.5,10.1,16.4C10.1,16.4,10.1,16.4,10.1,16.4z M9.6,7
			C9.6,7,9.6,7,9.6,7c-0.1,0-0.1,0-0.1,0.1C9.6,7.2,9.6,7.1,9.6,7C9.6,7.1,9.7,7.1,9.6,7z M10.5,16.3C10.5,16.3,10.5,16.2,10.5,16.3
			C10.5,16.2,10.5,16.2,10.5,16.3C10.4,16.2,10.4,16.2,10.5,16.3C10.4,16.3,10.5,16.3,10.5,16.3z M10.7,16.4
			C10.8,16.4,10.8,16.4,10.7,16.4C10.7,16.3,10.7,16.3,10.7,16.4c-0.1-0.1-0.1-0.1-0.1,0C10.7,16.5,10.7,16.4,10.7,16.4z M11.2,16.9
			C11.3,16.9,11.3,16.9,11.2,16.9C11.3,16.8,11.2,16.8,11.2,16.9C11.2,16.8,11.1,16.9,11.2,16.9C11.2,16.9,11.2,16.9,11.2,16.9z
			 M4.6,19C4.6,19,4.6,18.9,4.6,19C4.6,18.9,4.5,18.9,4.6,19c-0.1-0.1-0.1,0-0.1,0C4.5,19,4.5,19,4.6,19z M11.8,15.5
			C11.8,15.5,11.7,15.5,11.8,15.5c-0.1,0-0.1,0-0.1,0.1C11.7,15.6,11.7,15.6,11.8,15.5C11.8,15.6,11.8,15.5,11.8,15.5z M12.4,15.6
			C12.4,15.6,12.4,15.6,12.4,15.6C12.4,15.5,12.4,15.5,12.4,15.6C12.3,15.5,12.3,15.6,12.4,15.6C12.3,15.6,12.4,15.6,12.4,15.6z
			 M4.5,18.2C4.5,18.2,4.5,18.2,4.5,18.2c0-0.1,0-0.1,0-0.1C4.4,18.1,4.4,18.2,4.5,18.2C4.4,18.2,4.5,18.2,4.5,18.2z M14.8,12.7
			c0,0,0-0.1,0-0.1c0,0,0,0-0.1,0C14.7,12.6,14.7,12.6,14.8,12.7C14.7,12.7,14.7,12.7,14.8,12.7z M7.7,16.7
			C7.7,16.7,7.8,16.7,7.7,16.7C7.8,16.7,7.8,16.7,7.7,16.7C7.8,16.6,7.8,16.6,7.7,16.7C7.7,16.6,7.7,16.7,7.7,16.7z M11.4,16.2
			C11.4,16.2,11.4,16.2,11.4,16.2C11.5,16.1,11.5,16.1,11.4,16.2C11.5,16.1,11.4,16,11.4,16.2C11.4,16.1,11.4,16.1,11.4,16.2z
			 M14.3,11.6C14.3,11.6,14.2,11.5,14.3,11.6c-0.1,0-0.1,0-0.1,0.1C14.2,11.7,14.3,11.7,14.3,11.6C14.3,11.6,14.3,11.6,14.3,11.6z
			 M5.8,17C5.9,17,5.9,17,5.8,17C5.9,16.9,5.8,16.9,5.8,17C5.8,16.9,5.8,17,5.8,17C5.8,17,5.8,17,5.8,17z M11.3,15.7
			C11.4,15.7,11.4,15.7,11.3,15.7c0-0.1,0-0.1,0-0.1C11.2,15.6,11.2,15.7,11.3,15.7C11.3,15.7,11.3,15.7,11.3,15.7z M5.2,18.7
			C5.3,18.7,5.3,18.7,5.2,18.7C5.2,18.6,5.2,18.6,5.2,18.7C5.1,18.6,5.1,18.6,5.2,18.7C5.2,18.7,5.2,18.7,5.2,18.7z M12.3,15.1
			C12.3,15.2,12.3,15.2,12.3,15.1C12.4,15.3,12.4,15.3,12.3,15.1C12.5,15.2,12.5,15.2,12.3,15.1C12.4,15.1,12.4,15.1,12.3,15.1z
			 M12.1,14.7C12.1,14.7,12,14.7,12.1,14.7c-0.1,0-0.1,0-0.1,0C12,14.8,12,14.8,12.1,14.7C12.1,14.8,12.1,14.7,12.1,14.7z M7.8,9.6
			C7.8,9.5,7.8,9.5,7.8,9.6C7.8,9.5,7.8,9.5,7.8,9.6C7.7,9.5,7.7,9.5,7.8,9.6C7.7,9.6,7.8,9.6,7.8,9.6z M11.1,15.5
			C11.1,15.5,11.1,15.5,11.1,15.5c0.1,0,0.1,0,0.1,0C11.2,15.4,11.1,15.4,11.1,15.5C11.1,15.4,11.1,15.5,11.1,15.5z M7.4,9.4
			C7.4,9.4,7.4,9.4,7.4,9.4C7.4,9.3,7.4,9.3,7.4,9.4C7.3,9.4,7.3,9.4,7.4,9.4C7.3,9.5,7.4,9.4,7.4,9.4z M7.6,9.1
			C7.6,9.2,7.6,9.2,7.6,9.1c0.1,0,0.1,0,0.1,0C7.7,9.1,7.7,9.1,7.6,9.1C7.6,9.1,7.6,9.1,7.6,9.1z M12.1,15.9
			C12.1,15.9,12.1,15.9,12.1,15.9C12,15.9,12,16,12.1,15.9C12.1,16,12.1,16,12.1,15.9C12.2,16,12.2,16,12.1,15.9z M11.6,15
			C11.6,15,11.6,15,11.6,15C11.6,14.9,11.6,14.9,11.6,15C11.5,14.9,11.5,15,11.6,15C11.5,15,11.5,15,11.6,15z M8,9.1
			C8.1,9.1,8.1,9.1,8,9.1C8,9,8,9,8,9.1C8,9,7.9,9.1,8,9.1C8,9.1,8,9.1,8,9.1z M4.9,19.4C4.9,19.5,4.8,19.5,4.9,19.4
			C4.9,19.5,4.9,19.6,4.9,19.4C5,19.5,5,19.5,4.9,19.4C4.9,19.4,4.9,19.4,4.9,19.4z M5,18.4C4.9,18.4,4.9,18.4,5,18.4
			C4.9,18.4,4.8,18.4,5,18.4C4.9,18.5,4.9,18.5,5,18.4C5,18.4,5,18.4,5,18.4z M4.6,17.9C4.6,17.9,4.7,17.9,4.6,17.9
			C4.6,17.8,4.6,17.8,4.6,17.9C4.5,17.9,4.5,17.9,4.6,17.9C4.5,17.9,4.6,17.9,4.6,17.9z M4.8,18.2C4.8,18.1,4.9,18.1,4.8,18.2
			C4.8,18,4.8,18,4.8,18.2c-0.1-0.1-0.1-0.1-0.1,0C4.7,18.2,4.8,18.2,4.8,18.2z M7.4,16.8C7.4,16.8,7.4,16.8,7.4,16.8
			C7.4,16.7,7.3,16.7,7.4,16.8c-0.1-0.1-0.1-0.1-0.1,0C7.3,16.8,7.3,16.8,7.4,16.8z M8.1,16.8C8.1,16.9,8.2,16.9,8.1,16.8
			c0.1,0,0.1,0,0.1,0C8.2,16.8,8.2,16.7,8.1,16.8C8.1,16.8,8.1,16.8,8.1,16.8z M8.1,16.5C8.1,16.5,8.1,16.6,8.1,16.5
			C8.1,16.6,8.2,16.6,8.1,16.5C8.2,16.6,8.2,16.5,8.1,16.5C8.2,16.5,8.2,16.5,8.1,16.5z M9.2,16.5C9.3,16.5,9.2,16.4,9.2,16.5
			C9.2,16.4,9.2,16.4,9.2,16.5C9.1,16.4,9.1,16.4,9.2,16.5C9.2,16.5,9.2,16.5,9.2,16.5z M9.7,16.3C9.8,16.3,9.8,16.3,9.7,16.3
			c0-0.1,0-0.1,0-0.1C9.7,16.2,9.7,16.3,9.7,16.3C9.7,16.3,9.7,16.3,9.7,16.3z M10.3,16.9C10.3,16.9,10.3,16.9,10.3,16.9
			C10.3,16.8,10.3,16.8,10.3,16.9c-0.1-0.1-0.1,0-0.1,0C10.2,16.9,10.3,17,10.3,16.9z M10.4,16C10.4,16,10.5,16.1,10.4,16
			c0.1,0,0.1,0,0.1,0C10.5,16,10.5,15.9,10.4,16C10.4,16,10.4,16,10.4,16z M10.8,16.3C10.8,16.3,10.8,16.3,10.8,16.3
			C10.9,16.3,10.9,16.3,10.8,16.3C10.9,16.2,10.8,16.2,10.8,16.3C10.8,16.2,10.8,16.3,10.8,16.3z M14.7,11.7c0,0,0.1,0,0.1,0
			c0,0,0,0,0-0.1C14.8,11.6,14.7,11.6,14.7,11.7C14.7,11.7,14.7,11.7,14.7,11.7z M14.1,10.5C14.1,10.5,14,10.5,14.1,10.5
			C14,10.5,14,10.6,14.1,10.5C14,10.6,14.1,10.6,14.1,10.5C14.1,10.6,14.1,10.5,14.1,10.5z M13.9,11C13.9,10.9,13.9,10.9,13.9,11
			c-0.1,0-0.1,0-0.1,0.1C13.8,11.1,13.9,11.1,13.9,11C13.9,11,13.9,11,13.9,11z M8.8,7.4C8.8,7.4,8.8,7.5,8.8,7.4
			C8.9,7.4,8.9,7.4,8.8,7.4C8.8,7.3,8.8,7.3,8.8,7.4C8.8,7.4,8.8,7.4,8.8,7.4z M9.2,7.7C9.2,7.7,9.2,7.7,9.2,7.7
			C9.3,7.7,9.3,7.7,9.2,7.7C9.2,7.6,9.2,7.6,9.2,7.7C9.2,7.6,9.1,7.7,9.2,7.7z M13.9,11.5C13.9,11.5,14,11.5,13.9,11.5
			c0-0.1,0-0.1,0-0.1C13.8,11.5,13.8,11.5,13.9,11.5C13.8,11.5,13.9,11.5,13.9,11.5z M13.5,11.1C13.5,11.1,13.6,11.1,13.5,11.1
			C13.5,11,13.5,11,13.5,11.1C13.4,11.1,13.4,11.1,13.5,11.1C13.4,11.2,13.5,11.2,13.5,11.1z M14.1,12.1
			C14.1,12.1,14.1,12.1,14.1,12.1C14.1,12,14,12,14.1,12.1C14,12.1,14,12.1,14.1,12.1C14,12.1,14,12.1,14.1,12.1z M12,14.9
			C12,14.9,12,15,12,14.9C12,15.1,12.1,15,12,14.9c0.1,0.1,0.1,0,0.1,0C12.1,14.9,12.1,14.9,12,14.9z M8.2,8.8
			C8.3,8.8,8.3,8.8,8.2,8.8C8.2,8.7,8.2,8.7,8.2,8.8C8.2,8.8,8.1,8.8,8.2,8.8C8.2,8.9,8.2,8.9,8.2,8.8z M10.4,6.8
			C10.4,6.8,10.4,6.8,10.4,6.8C10.4,6.9,10.4,6.9,10.4,6.8C10.5,6.8,10.5,6.8,10.4,6.8C10.5,6.8,10.5,6.8,10.4,6.8z M6.6,16.9
			C6.7,16.9,6.7,16.9,6.6,16.9C6.6,16.8,6.6,16.8,6.6,16.9C6.6,16.9,6.5,16.9,6.6,16.9C6.6,16.9,6.6,16.9,6.6,16.9z M13.9,12
			C14,12,14,11.9,13.9,12c0-0.1,0-0.1,0-0.1C13.9,11.9,13.9,11.9,13.9,12C13.9,12,13.9,12,13.9,12z M4.2,18.9
			C4.3,18.9,4.3,18.9,4.2,18.9C4.2,18.9,4.2,18.9,4.2,18.9C4.2,18.9,4.1,18.9,4.2,18.9C4.2,19,4.2,19,4.2,18.9z M4.7,19.7
			C4.7,19.7,4.8,19.7,4.7,19.7C4.7,19.6,4.7,19.6,4.7,19.7C4.6,19.7,4.6,19.7,4.7,19.7C4.6,19.7,4.7,19.7,4.7,19.7z M14.1,10.2
			C14.1,10.2,14.2,10.2,14.1,10.2C14.2,10.2,14.2,10.2,14.1,10.2C14.2,10.1,14.1,10.1,14.1,10.2C14.1,10.2,14.1,10.2,14.1,10.2z
			 M14.5,10.8C14.5,10.8,14.5,10.7,14.5,10.8C14.5,10.7,14.5,10.7,14.5,10.8C14.4,10.7,14.4,10.7,14.5,10.8
			C14.4,10.8,14.5,10.8,14.5,10.8z M4.7,18.7C4.7,18.7,4.7,18.7,4.7,18.7C4.8,18.7,4.8,18.7,4.7,18.7C4.8,18.6,4.7,18.6,4.7,18.7
			C4.7,18.6,4.7,18.6,4.7,18.7z M5,19C5,19,5.1,19,5,19c0.1,0,0.1,0,0.1,0C5.1,18.9,5.1,18.9,5,19C5,18.9,5,19,5,19z M5.5,19.1
			C5.5,19.1,5.5,19.1,5.5,19.1C5.5,19,5.5,19,5.5,19.1C5.4,19,5.4,19.1,5.5,19.1C5.4,19.1,5.5,19.1,5.5,19.1z M4.8,17.7
			C4.8,17.7,4.8,17.7,4.8,17.7C4.8,17.7,4.8,17.6,4.8,17.7C4.7,17.7,4.7,17.7,4.8,17.7C4.8,17.8,4.8,17.7,4.8,17.7z M5.4,17.8
			C5.5,17.8,5.5,17.8,5.4,17.8c0.1-0.1,0.1-0.1,0-0.1C5.4,17.7,5.4,17.7,5.4,17.8C5.4,17.8,5.4,17.8,5.4,17.8z M9.9,7.7
			C9.9,7.7,9.9,7.7,9.9,7.7C9.9,7.6,9.9,7.6,9.9,7.7C9.8,7.7,9.8,7.7,9.9,7.7C9.8,7.7,9.9,7.7,9.9,7.7z M11,17.3
			C11,17.3,11,17.3,11,17.3C11,17.2,11,17.2,11,17.3C10.9,17.3,10.9,17.3,11,17.3C10.9,17.3,11,17.3,11,17.3z M11,15.8
			C11,15.8,10.9,15.8,11,15.8C10.9,15.8,10.9,15.8,11,15.8C10.9,15.9,11,15.9,11,15.8C11,15.9,11,15.8,11,15.8z M8.9,7.9
			C8.9,7.9,9,7.9,8.9,7.9C8.9,7.8,8.9,7.8,8.9,7.9C8.9,7.9,8.8,7.9,8.9,7.9C8.9,7.9,8.9,7.9,8.9,7.9z M8.7,8.1
			C8.8,8.1,8.8,8.1,8.7,8.1C8.7,8.1,8.7,8.1,8.7,8.1C8.7,8.1,8.6,8.1,8.7,8.1C8.7,8.2,8.7,8.2,8.7,8.1z M13,15.1
			C13,15.1,13,15.1,13,15.1C12.9,15.1,12.9,15.1,13,15.1C12.9,15.1,12.8,15.1,13,15.1C12.9,15.2,12.9,15.2,13,15.1z M8.4,8
			C8.4,8,8.5,8,8.4,8C8.4,7.9,8.4,7.9,8.4,8C8.3,7.9,8.3,7.9,8.4,8C8.3,8,8.4,8,8.4,8z M9.2,7.9C9.1,7.9,9.1,7.9,9.2,7.9
			C9.1,8,9.1,8,9.2,7.9C9.1,8.1,9.1,8,9.2,7.9C9.2,8,9.2,8,9.2,7.9z M11.7,15.8C11.7,15.8,11.7,15.8,11.7,15.8
			C11.6,15.8,11.6,15.8,11.7,15.8C11.6,15.8,11.5,15.8,11.7,15.8C11.6,15.9,11.6,15.9,11.7,15.8z M10.4,7.2
			C10.3,7.2,10.3,7.2,10.4,7.2C10.2,7.2,10.2,7.3,10.4,7.2C10.3,7.3,10.3,7.3,10.4,7.2C10.3,7.3,10.4,7.2,10.4,7.2z M7.6,8.9
			C7.6,8.8,7.6,8.8,7.6,8.9C7.5,8.9,7.5,8.9,7.6,8.9C7.5,8.9,7.6,8.9,7.6,8.9C7.6,8.9,7.6,8.9,7.6,8.9z M8.3,9.3
			C8.3,9.3,8.4,9.3,8.3,9.3C8.4,9.3,8.4,9.2,8.3,9.3C8.4,9.2,8.3,9.2,8.3,9.3C8.3,9.2,8.3,9.3,8.3,9.3z M14.2,13.4
			C14.2,13.4,14.2,13.4,14.2,13.4C14.2,13.3,14.2,13.3,14.2,13.4C14.1,13.3,14.1,13.4,14.2,13.4C14.2,13.4,14.2,13.4,14.2,13.4z
			 M9.4,7.6C9.5,7.6,9.5,7.5,9.4,7.6C9.5,7.5,9.4,7.5,9.4,7.6C9.4,7.5,9.4,7.5,9.4,7.6C9.4,7.6,9.4,7.6,9.4,7.6z M14,12.9
			C14.1,12.9,14.1,12.9,14,12.9C14.1,12.9,14.1,12.9,14,12.9C14.1,12.8,14.1,12.8,14,12.9C14,12.9,14,12.9,14,12.9z M9.6,16.4
			C9.6,16.4,9.6,16.4,9.6,16.4C9.6,16.3,9.5,16.3,9.6,16.4C9.5,16.4,9.5,16.4,9.6,16.4C9.5,16.4,9.5,16.4,9.6,16.4z M13.2,14.8
			C13.2,14.8,13.2,14.8,13.2,14.8c0.1,0,0.1,0,0.1,0C13.3,14.7,13.3,14.7,13.2,14.8C13.2,14.7,13.2,14.8,13.2,14.8z M5.1,18.4
			C5.2,18.3,5.2,18.3,5.1,18.4C5.1,18.3,5.1,18.3,5.1,18.4C5.1,18.3,5.1,18.3,5.1,18.4C5.1,18.4,5.1,18.4,5.1,18.4z M4.5,17.4
			C4.5,17.4,4.5,17.4,4.5,17.4C4.4,17.4,4.4,17.5,4.5,17.4C4.4,17.5,4.5,17.5,4.5,17.4C4.5,17.5,4.5,17.5,4.5,17.4z M7.2,9.6
			C7.2,9.5,7.2,9.5,7.2,9.6C7.2,9.5,7.2,9.5,7.2,9.6C7.1,9.5,7.1,9.5,7.2,9.6C7.2,9.6,7.2,9.6,7.2,9.6z M4.6,19.4
			C4.6,19.4,4.6,19.4,4.6,19.4C4.5,19.3,4.5,19.3,4.6,19.4C4.5,19.4,4.5,19.4,4.6,19.4C4.5,19.4,4.5,19.4,4.6,19.4z M8.4,8.4
			C8.5,8.4,8.5,8.3,8.4,8.4C8.5,8.3,8.4,8.3,8.4,8.4C8.4,8.3,8.4,8.3,8.4,8.4C8.4,8.4,8.4,8.4,8.4,8.4z M8.1,8.4
			C8.1,8.4,8.1,8.4,8.1,8.4C8.1,8.4,8,8.4,8.1,8.4C8,8.5,8.1,8.5,8.1,8.4C8.1,8.5,8.1,8.5,8.1,8.4z M4.6,20.1
			C4.6,20,4.6,20,4.6,20.1C4.6,20,4.6,20,4.6,20.1C4.5,20,4.5,20,4.6,20.1C4.6,20.1,4.6,20.1,4.6,20.1z M11.8,15.3
			C11.8,15.3,11.8,15.2,11.8,15.3C11.8,15.2,11.8,15.2,11.8,15.3C11.7,15.2,11.7,15.2,11.8,15.3C11.7,15.3,11.8,15.3,11.8,15.3z
			 M14.4,11.8C14.4,11.8,14.4,11.8,14.4,11.8C14.4,11.8,14.4,11.8,14.4,11.8C14.3,11.7,14.3,11.8,14.4,11.8
			C14.3,11.8,14.4,11.8,14.4,11.8z M8.1,17C8.1,17,8,17,8.1,17C8,17,8,17,8.1,17C8,17.1,8.1,17.1,8.1,17C8.1,17.1,8.1,17,8.1,17z
			 M9.4,7.9C9.4,8,9.4,8,9.4,7.9C9.4,8,9.4,8,9.4,7.9C9.5,8,9.5,8,9.4,7.9C9.4,7.9,9.4,7.9,9.4,7.9z M5.5,18.3
			C5.5,18.3,5.5,18.3,5.5,18.3C5.4,18.3,5.4,18.3,5.5,18.3C5.4,18.4,5.4,18.4,5.5,18.3C5.5,18.4,5.5,18.4,5.5,18.3z M5.2,17.9
			C5.2,17.9,5.2,17.9,5.2,17.9C5.2,17.8,5.1,17.8,5.2,17.9C5.1,17.9,5.1,17.9,5.2,17.9C5.1,17.9,5.2,17.9,5.2,17.9z M5.7,18.7
			C5.7,18.7,5.7,18.7,5.7,18.7C5.7,18.6,5.8,18.6,5.7,18.7C5.7,18.6,5.7,18.6,5.7,18.7C5.7,18.6,5.7,18.7,5.7,18.7z M9.7,8.1
			C9.8,8.1,9.8,8.1,9.7,8.1C9.7,8,9.7,8,9.7,8.1C9.7,8.1,9.6,8.1,9.7,8.1C9.7,8.1,9.7,8.1,9.7,8.1z M5.8,18.1
			C5.8,18.1,5.8,18.1,5.8,18.1C5.8,18,5.8,18,5.8,18.1C5.7,18.1,5.7,18.1,5.8,18.1C5.7,18.2,5.8,18.1,5.8,18.1z M11.2,6.7
			C11.3,6.7,11.3,6.6,11.2,6.7C11.3,6.6,11.3,6.6,11.2,6.7C11.2,6.6,11.2,6.6,11.2,6.7C11.2,6.7,11.2,6.7,11.2,6.7z M10,16
			C10,16,10.1,16.1,10,16C10.1,16,10.1,16,10,16C10.1,16,10.1,15.9,10,16C10,16,10,16,10,16z M9.9,7.2C10,7.2,9.9,7.2,9.9,7.2
			C9.9,7.1,9.9,7.1,9.9,7.2C9.8,7.1,9.8,7.2,9.9,7.2C9.9,7.2,9.9,7.2,9.9,7.2z M10.4,16.5C10.4,16.5,10.4,16.5,10.4,16.5
			C10.3,16.5,10.3,16.5,10.4,16.5C10.3,16.5,10.3,16.5,10.4,16.5C10.3,16.6,10.3,16.6,10.4,16.5z"/>
		<path class="st1" d="M15,12.7c0,0.1-0.1,0.1-0.1,0.1C14.9,12.6,14.9,12.6,15,12.7C15,12.6,15,12.6,15,12.7L15,12.7z"/>
		<path class="st1" d="M9.7,20.7c0-0.3-0.1-0.5-0.1-0.8c0-0.1,0-0.1-0.1-0.2c0,0,0-0.1,0-0.1c-0.1-0.2-0.2-0.4-0.3-0.6
			c-0.3-0.4-0.7-0.6-1.2-0.6c-0.2,0-0.3,0-0.5,0c0.1-0.1,0.3-0.1,0.4-0.1c0.4,0,0.8,0,1.2,0.3c0.1,0.1,0.2,0.1,0.2,0.2
			c0.1,0.2,0.3,0.4,0.5,0.6c0.1-0.2,0.1-0.3,0.1-0.5c-0.1-0.5-0.5-0.8-0.9-1.1c-0.2-0.1-0.4-0.1-0.6-0.1c-0.1,0-0.2,0-0.3,0
			c0-0.1,0.1-0.1,0.1-0.1c0.2,0,0.5,0,0.7,0c0.4,0.1,0.6,0.3,0.8,0.6c0.1,0.1,0.2,0.3,0.3,0.4c0.1,0.2,0.1,0.4,0,0.7
			c-0.1,0.2-0.1,0.4-0.2,0.6c0,0.1,0,0.2,0,0.3C9.8,20.4,9.8,20.6,9.7,20.7z"/>
		<path class="st1" d="M8.8,8.6c0-0.1,0.1-0.1,0-0.2c-0.1,0,0-0.1,0-0.1C8.9,8.3,9,8.3,9,8.1c0,0,0.1-0.1,0.1,0c0,0,0,0.1,0.1,0.1
			c0,0.1,0.1,0.1,0.2,0.1c0.1,0,0.1,0.1,0.1,0.2C9.3,8.7,9.1,8.8,8.8,8.8c0,0,0,0-0.1,0C8.9,8.7,9.1,8.7,9,8.5c-0.1,0,0,0.2-0.1,0.2
			C8.8,8.7,8.8,8.6,8.8,8.6L8.8,8.6z"/>
		<path class="st1" d="M6.5,16.4C6.5,16.3,6.5,16.3,6.5,16.4C6.8,16.2,7,16.1,7.3,16c0.3-0.1,0.5-0.1,0.8,0c0.2,0.1,0.4,0.1,0.6,0.2
			c0,0.1-0.1,0.1-0.1,0c-0.2,0-0.4,0-0.5-0.1c-0.3-0.1-0.6,0-0.8,0.1c-0.1,0-0.2,0.1-0.3,0.1C6.7,16.4,6.6,16.4,6.5,16.4z"/>
		<path class="st1" d="M5.1,21.8C5.6,21.8,6,21.7,6.4,22c0.1,0,0.1,0.1,0.2,0.1c0,0,0,0.1,0,0.1c0,0-0.1,0.1-0.1,0c0,0,0,0,0,0
			c-0.2-0.2-0.5-0.3-0.8-0.3C5.5,21.9,5.3,21.9,5.1,21.8z"/>
		<path class="st1" d="M7.1,13.4c0-0.1,0.1-0.1,0.1-0.1c0.5-0.1,1.1-0.2,1.6-0.2c0.1,0,0.1,0,0.2,0c0,0,0,0,0,0.1c0,0,0,0.1-0.1,0
			c-0.4-0.1-0.8,0-1.3,0.1C7.5,13.3,7.3,13.4,7.1,13.4z"/>
		<path class="st1" d="M6.4,13.3c0.3-0.2,0.5-0.3,0.8-0.4c0.2,0,0.4,0,0.7-0.1c0,0,0.1,0,0.1,0c0,0,0,0.1-0.1,0
			C7.4,13,7,13.2,6.4,13.3z"/>
		<path class="st1" d="M14.5,12.3c-0.1-0.1-0.1,0-0.2,0.1c0,0-0.1,0.1-0.1,0c0-0.1,0.1-0.2,0.2-0.2C14.5,12.2,14.5,12.3,14.5,12.3
			L14.5,12.3z"/>
		<path class="st1" d="M14.7,11.4c0,0-0.1,0-0.1,0c0-0.1,0-0.1,0-0.2c0,0,0.1,0,0.1,0C14.8,11.3,14.7,11.4,14.7,11.4z"/>
		<path class="st1" d="M7,9.5C6.9,9.5,6.9,9.4,6.9,9.4c0,0,0,0,0-0.1c0,0,0.1,0,0.1,0C7,9.3,7,9.3,7,9.5C7,9.4,7,9.4,7,9.5z"/>
		<path class="st1" d="M14.9,12.3C14.9,12.3,14.9,12.3,14.9,12.3c-0.1,0,0-0.1-0.1-0.2c0,0,0-0.1,0.1-0.1c0,0,0,0,0,0
			C15,12.2,15,12.3,14.9,12.3z"/>
		<path class="st1" d="M9.5,16.8c0-0.1,0.1-0.1,0.2-0.1c0,0,0.1,0,0.1,0c0,0,0,0.1,0,0.1C9.6,16.9,9.6,16.9,9.5,16.8z"/>
		<path class="st1" d="M9.6,17.1c0,0-0.1,0-0.1,0c0-0.1,0-0.1,0.1-0.1c0,0,0.1,0,0.1,0C9.7,17,9.7,17.1,9.6,17.1z"/>
		<path class="st1" d="M4.4,18.5C4.4,18.5,4.4,18.5,4.4,18.5c-0.1,0-0.2,0-0.2-0.1c0,0,0-0.1,0-0.1C4.3,18.3,4.4,18.3,4.4,18.5
			C4.4,18.4,4.4,18.4,4.4,18.5L4.4,18.5z"/>
		<path class="st1" d="M12.3,14.8C12.3,14.7,12.3,14.7,12.3,14.8c0.1-0.1,0.1-0.1,0.1,0c0,0,0,0.1,0,0.1
			C12.4,14.8,12.3,14.8,12.3,14.8z"/>
		<path class="st1" d="M11.1,16c0,0.1-0.1,0.1-0.1,0.2c0,0-0.1,0-0.1,0c0,0,0-0.1,0-0.1C10.9,16,11,16,11.1,16z"/>
		<path class="st1" d="M14.5,12.3C14.5,12.3,14.5,12.3,14.5,12.3c0.1-0.1,0.1-0.2,0.1-0.2c0,0,0,0,0,0.1
			C14.7,12.3,14.6,12.3,14.5,12.3C14.5,12.4,14.5,12.3,14.5,12.3L14.5,12.3z"/>
		<path class="st1" d="M10.8,15.3c0,0,0-0.1,0-0.1c0,0,0.1,0,0.1,0c0,0,0,0.1,0,0.1C10.8,15.4,10.8,15.3,10.8,15.3z"/>
		<path class="st1" d="M4.8,19.4c0,0-0.1,0-0.1,0c0,0,0-0.1,0-0.1C4.8,19.2,4.8,19.3,4.8,19.4C4.9,19.3,4.8,19.4,4.8,19.4z"/>
		<path class="st1" d="M10.2,16.2C10.2,16.3,10.1,16.3,10.2,16.2c-0.1-0.1-0.1-0.1-0.1-0.1C10.2,16.1,10.2,16.1,10.2,16.2
			C10.2,16.2,10.2,16.2,10.2,16.2z"/>
		<path class="st1" d="M14.7,12C14.6,12,14.6,12,14.7,12c-0.1-0.1-0.1-0.1,0-0.1C14.7,11.9,14.7,11.9,14.7,12
			C14.7,12,14.7,12,14.7,12z"/>
		<path class="st1" d="M9.2,16.8c-0.1,0-0.2,0-0.2,0c0,0,0,0,0,0c0,0,0,0,0,0C9,16.7,9.1,16.8,9.2,16.8z"/>
		<path class="st1" d="M14.1,11.3C14.1,11.3,14.1,11.3,14.1,11.3C14,11.2,14,11.2,14.1,11.3C14.1,11.2,14.1,11.2,14.1,11.3
			C14.2,11.2,14.2,11.3,14.1,11.3z"/>
		<path class="st1" d="M10.2,15.8c0,0-0.1,0-0.1,0C10.1,15.7,10.1,15.7,10.2,15.8C10.2,15.7,10.2,15.7,10.2,15.8
			C10.3,15.7,10.3,15.7,10.2,15.8z"/>
		<path class="st1" d="M14.4,11.1C14.4,11.1,14.5,11.1,14.4,11.1c0.1,0.1,0.1,0.1,0.1,0.1C14.4,11.2,14.4,11.2,14.4,11.1
			C14.3,11.2,14.4,11.1,14.4,11.1z"/>
		<path class="st1" d="M8.9,17.1C8.9,17.1,9,17.1,8.9,17.1C9,17.1,9,17.2,8.9,17.1C8.9,17.2,8.9,17.2,8.9,17.1
			C8.8,17.1,8.9,17.1,8.9,17.1z"/>
		<path class="st1" d="M6.8,9.8c0-0.1,0.1-0.1,0.1-0.1c0,0,0,0,0.1,0c0,0,0,0.1,0,0.1C6.9,9.8,6.8,9.8,6.8,9.8z"/>
		<path class="st1" d="M11.7,17.2c0,0-0.1,0-0.1,0C11.5,17.2,11.6,17.1,11.7,17.2C11.6,17.1,11.7,17.1,11.7,17.2
			C11.7,17.2,11.7,17.2,11.7,17.2z"/>
		<path class="st1" d="M13.8,9.9C13.7,9.9,13.7,9.9,13.8,9.9c-0.1-0.1-0.1-0.1,0-0.1C13.8,9.8,13.8,9.8,13.8,9.9
			C13.8,9.9,13.8,9.9,13.8,9.9z"/>
		<path class="st1" d="M14.4,11.4C14.4,11.4,14.4,11.4,14.4,11.4c-0.1,0.1-0.1,0.1-0.1,0.1C14.3,11.4,14.3,11.4,14.4,11.4
			C14.4,11.3,14.4,11.3,14.4,11.4z"/>
		<path class="st1" d="M4.3,19.3C4.3,19.2,4.3,19.2,4.3,19.3c0.1-0.1,0.1-0.1,0.1-0.1C4.4,19.2,4.4,19.3,4.3,19.3
			C4.3,19.3,4.3,19.3,4.3,19.3z"/>
		<path class="st1" d="M4.4,18.6c0,0,0.1,0,0.1,0.1c0,0,0,0.1,0,0.1C4.4,18.7,4.4,18.7,4.4,18.6C4.3,18.6,4.4,18.6,4.4,18.6z"/>
		<path class="st1" d="M4.1,18.1C4.1,18,4.1,18,4.1,18.1C4.2,17.9,4.2,18,4.2,18C4.3,18,4.2,18.1,4.1,18.1
			C4.2,18.1,4.2,18.1,4.1,18.1z"/>
		<path class="st1" d="M7.6,16.5c0,0-0.1,0-0.1,0c0,0,0-0.1,0-0.1C7.5,16.3,7.6,16.4,7.6,16.5C7.6,16.4,7.6,16.5,7.6,16.5z"/>
		<path class="st1" d="M14.6,13C14.6,13.1,14.6,13.1,14.6,13c-0.1,0.1-0.1,0.1-0.1,0.1C14.4,13.1,14.5,13,14.6,13
			C14.5,13,14.5,13,14.6,13z"/>
		<path class="st1" d="M13.5,11.6C13.5,11.6,13.5,11.5,13.5,11.6c0.1-0.1,0.1-0.1,0.1-0.1C13.6,11.6,13.6,11.6,13.5,11.6
			C13.5,11.7,13.5,11.6,13.5,11.6z"/>
		<path class="st1" d="M9.3,16.9C9.3,16.9,9.3,16.9,9.3,16.9c0.1-0.1,0.1-0.1,0.1,0S9.4,16.9,9.3,16.9C9.4,17,9.3,17,9.3,16.9z"/>
		<path class="st1" d="M7.2,9.9C7.2,9.9,7.1,9.9,7.2,9.9C7.1,9.9,7.1,9.8,7.2,9.9C7.2,9.8,7.2,9.8,7.2,9.9C7.2,9.8,7.2,9.9,7.2,9.9z
			"/>
		<path class="st1" d="M8.7,16.7C8.7,16.7,8.7,16.6,8.7,16.7c0.1-0.1,0.1,0,0.1,0c0,0,0,0.1,0,0.1C8.7,16.7,8.7,16.7,8.7,16.7z"/>
		<path class="st1" d="M14.5,12.6C14.5,12.6,14.4,12.6,14.5,12.6C14.4,12.6,14.4,12.5,14.5,12.6C14.5,12.5,14.5,12.5,14.5,12.6
			C14.5,12.6,14.5,12.6,14.5,12.6z"/>
		<path class="st1" d="M13.4,10.8C13.4,10.8,13.3,10.8,13.4,10.8c-0.1,0-0.1-0.1,0-0.1C13.4,10.7,13.4,10.7,13.4,10.8
			C13.4,10.7,13.4,10.7,13.4,10.8z"/>
		<path class="st1" d="M8.7,16.9c0,0-0.1,0-0.1,0C8.5,16.9,8.6,16.9,8.7,16.9C8.6,16.8,8.7,16.8,8.7,16.9
			C8.7,16.9,8.7,16.9,8.7,16.9z"/>
		<path class="st1" d="M7.5,9.8C7.5,9.8,7.5,9.8,7.5,9.8C7.4,9.7,7.4,9.7,7.5,9.8C7.5,9.7,7.5,9.7,7.5,9.8C7.6,9.7,7.6,9.8,7.5,9.8z
			"/>
		<path class="st1" d="M9.1,16.3C9,16.3,9,16.3,9.1,16.3C9,16.2,9,16.2,9,16.2C9.1,16.2,9.1,16.2,9.1,16.3
			C9.1,16.2,9.1,16.3,9.1,16.3z"/>
		<path class="st1" d="M10,17.1C10,17.1,10,17.1,10,17.1c0.1-0.1,0.1-0.1,0.1,0C10.1,17.1,10.1,17.2,10,17.1
			C10,17.2,10,17.2,10,17.1z"/>
		<path class="st1" d="M13.4,11.9C13.4,11.9,13.3,11.9,13.4,11.9C13.3,11.8,13.3,11.8,13.4,11.9C13.4,11.8,13.4,11.8,13.4,11.9
			C13.4,11.8,13.4,11.9,13.4,11.9z"/>
		<path class="st1" d="M9.5,16c0,0-0.1,0-0.1,0C9.4,15.9,9.4,15.9,9.5,16C9.5,15.9,9.5,15.9,9.5,16C9.5,15.9,9.5,15.9,9.5,16z"/>
		<path class="st1" d="M10.6,15.9C10.6,15.9,10.6,15.8,10.6,15.9c0.1-0.1,0.1-0.1,0.1-0.1c0,0,0,0.1,0,0.1
			C10.7,15.9,10.6,15.9,10.6,15.9z"/>
		<path class="st1" d="M10.5,17.1C10.5,17.1,10.5,17.1,10.5,17.1c-0.1-0.1-0.1-0.1,0-0.1C10.5,17,10.5,17,10.5,17.1
			C10.6,17.1,10.6,17.1,10.5,17.1z"/>
		<path class="st1" d="M10.1,16.4C10.1,16.4,10.1,16.4,10.1,16.4C10.2,16.5,10.2,16.5,10.1,16.4C10.1,16.5,10.1,16.5,10.1,16.4
			C10,16.5,10.1,16.4,10.1,16.4z"/>
		<path class="st1" d="M9.6,7C9.7,7.1,9.6,7.1,9.6,7C9.6,7.1,9.5,7.2,9.5,7.1c0,0,0-0.1,0-0.1C9.6,7,9.6,7,9.6,7z"/>
		<path class="st1" d="M10.5,16.3C10.5,16.3,10.4,16.3,10.5,16.3c-0.1,0-0.1-0.1-0.1-0.1c0,0,0.1,0,0.1,0
			C10.5,16.2,10.5,16.3,10.5,16.3z"/>
		<path class="st1" d="M10.7,16.4c0,0-0.1,0-0.1,0C10.6,16.4,10.6,16.4,10.7,16.4C10.7,16.3,10.7,16.3,10.7,16.4
			C10.8,16.4,10.8,16.4,10.7,16.4z"/>
		<path class="st1" d="M11.2,16.9C11.2,16.9,11.2,16.9,11.2,16.9C11.1,16.9,11.2,16.8,11.2,16.9C11.2,16.8,11.3,16.8,11.2,16.9
			C11.3,16.9,11.3,16.9,11.2,16.9z"/>
		<path class="st1" d="M4.6,19C4.5,19,4.5,19,4.6,19C4.5,18.9,4.5,18.9,4.6,19C4.5,18.9,4.6,18.9,4.6,19C4.6,18.9,4.6,19,4.6,19z"/>
		<path class="st1" d="M11.8,15.5C11.8,15.5,11.8,15.6,11.8,15.5c-0.1,0.1-0.1,0.1-0.1,0.1C11.6,15.5,11.7,15.5,11.8,15.5
			C11.7,15.5,11.8,15.5,11.8,15.5z"/>
		<path class="st1" d="M12.4,15.6C12.4,15.6,12.3,15.6,12.4,15.6C12.3,15.5,12.3,15.5,12.4,15.6C12.4,15.5,12.4,15.5,12.4,15.6
			C12.4,15.6,12.4,15.6,12.4,15.6z"/>
		<path class="st1" d="M4.5,18.2C4.5,18.2,4.4,18.2,4.5,18.2c-0.1-0.1-0.1-0.1,0-0.1C4.5,18.1,4.5,18.1,4.5,18.2
			C4.5,18.2,4.5,18.2,4.5,18.2z"/>
		<path class="st1" d="M14.8,12.7C14.7,12.7,14.7,12.7,14.8,12.7c-0.1-0.1-0.1-0.1-0.1-0.1c0,0,0,0,0.1,0
			C14.8,12.6,14.8,12.6,14.8,12.7z"/>
		<path class="st1" d="M7.7,16.7C7.7,16.7,7.7,16.6,7.7,16.7C7.8,16.6,7.8,16.6,7.7,16.7C7.8,16.7,7.9,16.7,7.7,16.7
			C7.8,16.7,7.7,16.7,7.7,16.7z"/>
		<path class="st1" d="M11.4,16.2C11.4,16.1,11.4,16.1,11.4,16.2c0-0.1,0.1-0.1,0.1-0.1s0,0.1,0,0.1C11.4,16.2,11.4,16.2,11.4,16.2z
			"/>
		<path class="st1" d="M14.3,11.6C14.3,11.6,14.3,11.7,14.3,11.6c0,0.1-0.1,0.1-0.1,0.1C14.2,11.6,14.2,11.6,14.3,11.6
			C14.2,11.5,14.3,11.6,14.3,11.6z"/>
		<path class="st1" d="M5.8,17C5.8,17,5.8,17,5.8,17C5.8,17,5.8,16.9,5.8,17C5.8,16.9,5.9,16.9,5.8,17C5.9,17,5.9,17,5.8,17z"/>
		<path class="st1" d="M11.3,15.7C11.3,15.7,11.3,15.7,11.3,15.7c-0.1-0.1-0.1-0.1-0.1-0.1c0,0,0.1,0,0.1,0
			C11.4,15.7,11.4,15.7,11.3,15.7z"/>
		<path class="st1" d="M5.2,18.7C5.2,18.7,5.2,18.7,5.2,18.7C5.1,18.6,5.1,18.6,5.2,18.7C5.2,18.6,5.2,18.6,5.2,18.7
			C5.3,18.7,5.3,18.7,5.2,18.7z"/>
		<path class="st1" d="M12.3,15.1C12.4,15.1,12.4,15.1,12.3,15.1C12.5,15.2,12.5,15.2,12.3,15.1C12.4,15.3,12.4,15.3,12.3,15.1
			C12.3,15.2,12.3,15.2,12.3,15.1z"/>
		<path class="st1" d="M12.1,14.7C12.1,14.7,12.1,14.8,12.1,14.7c-0.1,0.1-0.1,0.1-0.1,0C11.9,14.7,12,14.7,12.1,14.7
			C12,14.7,12.1,14.7,12.1,14.7z"/>
		<path class="st1" d="M7.8,9.6C7.8,9.6,7.7,9.6,7.8,9.6c-0.1,0-0.1-0.1,0-0.1C7.8,9.5,7.8,9.5,7.8,9.6C7.8,9.5,7.8,9.5,7.8,9.6z"/>
		<path class="st1" d="M11.1,15.5C11.1,15.5,11.1,15.4,11.1,15.5C11.1,15.4,11.2,15.4,11.1,15.5C11.2,15.5,11.2,15.5,11.1,15.5
			C11.1,15.5,11.1,15.5,11.1,15.5z"/>
		<path class="st1" d="M7.4,9.4C7.4,9.4,7.4,9.4,7.4,9.4C7.3,9.4,7.3,9.4,7.4,9.4C7.4,9.3,7.4,9.3,7.4,9.4C7.4,9.4,7.4,9.4,7.4,9.4z
			"/>
		<path class="st1" d="M7.6,9.1C7.6,9.1,7.6,9.1,7.6,9.1c0.1-0.1,0.1-0.1,0.1,0C7.7,9.1,7.7,9.2,7.6,9.1C7.6,9.2,7.6,9.2,7.6,9.1z"
			/>
		<path class="st1" d="M12.1,15.9C12.2,16,12.2,16,12.1,15.9C12.1,16,12.1,16,12.1,15.9C12,16,12,15.9,12.1,15.9
			C12.1,15.9,12.1,15.9,12.1,15.9z"/>
		<path class="st1" d="M11.6,15C11.5,15,11.5,15,11.6,15C11.5,15,11.5,14.9,11.6,15C11.6,14.9,11.6,14.9,11.6,15
			C11.6,15,11.6,15,11.6,15z"/>
		<path class="st1" d="M8,9.1C8,9.1,8,9.1,8,9.1C7.9,9.1,8,9,8,9.1C8,9,8,9,8,9.1C8.1,9.1,8.1,9.1,8,9.1z"/>
		<path class="st1" d="M4.9,19.4C4.9,19.4,4.9,19.4,4.9,19.4C5,19.5,5,19.5,4.9,19.4C4.9,19.6,4.9,19.6,4.9,19.4
			C4.9,19.5,4.9,19.5,4.9,19.4z"/>
		<path class="st1" d="M4.4,18.5c0.1,0,0.1-0.1,0.1-0.1c0,0,0,0,0.1,0c0,0,0,0,0,0.1C4.5,18.5,4.5,18.4,4.4,18.5L4.4,18.5z"/>
		<path class="st1" d="M5,18.4C5,18.4,5,18.4,5,18.4C4.9,18.5,4.9,18.5,5,18.4C4.8,18.4,4.9,18.4,5,18.4C4.9,18.4,4.9,18.4,5,18.4z"
			/>
		<path class="st1" d="M4.6,17.9C4.6,17.9,4.6,17.9,4.6,17.9c-0.1-0.1-0.1-0.1,0-0.1C4.6,17.8,4.6,17.8,4.6,17.9
			C4.7,17.9,4.6,17.9,4.6,17.9z"/>
		<path class="st1" d="M4.8,18.2C4.8,18.2,4.7,18.2,4.8,18.2C4.7,18.1,4.7,18.1,4.8,18.2C4.8,18,4.8,18,4.8,18.2
			C4.8,18.1,4.8,18.1,4.8,18.2z"/>
		<path class="st1" d="M7.4,16.8c0,0-0.1,0-0.1-0.1C7.2,16.7,7.3,16.7,7.4,16.8C7.4,16.7,7.4,16.7,7.4,16.8
			C7.4,16.8,7.4,16.8,7.4,16.8z"/>
		<path class="st1" d="M8.1,16.8C8.1,16.8,8.1,16.8,8.1,16.8c0.1-0.1,0.1-0.1,0.1,0C8.2,16.8,8.2,16.8,8.1,16.8
			C8.2,16.9,8.1,16.9,8.1,16.8z"/>
		<path class="st1" d="M8.1,16.5C8.2,16.5,8.2,16.5,8.1,16.5C8.2,16.6,8.2,16.6,8.1,16.5C8.2,16.6,8.1,16.6,8.1,16.5
			C8.1,16.6,8.1,16.5,8.1,16.5z"/>
		<path class="st1" d="M9.2,16.5C9.2,16.5,9.2,16.5,9.2,16.5C9.1,16.4,9.1,16.4,9.2,16.5C9.2,16.4,9.2,16.4,9.2,16.5
			C9.2,16.4,9.3,16.5,9.2,16.5z"/>
		<path class="st1" d="M9.7,16.3C9.7,16.3,9.7,16.3,9.7,16.3c-0.1-0.1-0.1-0.1,0-0.1C9.7,16.2,9.8,16.2,9.7,16.3
			C9.8,16.3,9.8,16.3,9.7,16.3z"/>
		<path class="st1" d="M10.3,16.9C10.3,16.9,10.2,16.9,10.3,16.9C10.2,16.9,10.2,16.9,10.3,16.9C10.3,16.8,10.3,16.8,10.3,16.9
			C10.3,16.9,10.3,16.9,10.3,16.9z"/>
		<path class="st1" d="M10.4,16C10.4,16,10.4,16,10.4,16c0.1-0.1,0.1-0.1,0.1,0C10.5,16,10.5,16,10.4,16
			C10.5,16.1,10.4,16.1,10.4,16z"/>
		<path class="st1" d="M10.8,16.3C10.8,16.3,10.8,16.2,10.8,16.3C10.8,16.2,10.9,16.2,10.8,16.3C10.9,16.3,10.9,16.3,10.8,16.3
			C10.9,16.3,10.8,16.3,10.8,16.3z"/>
		<path class="st1" d="M14.7,11.7C14.7,11.7,14.7,11.7,14.7,11.7c0.1-0.1,0.1-0.1,0.1-0.1C14.8,11.7,14.8,11.7,14.7,11.7
			C14.8,11.8,14.7,11.8,14.7,11.7z"/>
		<path class="st1" d="M14.1,10.5C14.1,10.5,14.1,10.6,14.1,10.5C14,10.6,14,10.6,14.1,10.5C14,10.6,14,10.5,14.1,10.5
			C14,10.5,14.1,10.5,14.1,10.5z"/>
		<path class="st1" d="M13.9,11C13.9,11,14,11,13.9,11C13.9,11.1,13.8,11.1,13.9,11C13.8,11,13.8,11,13.9,11
			C13.9,10.9,13.9,10.9,13.9,11z"/>
		<path class="st1" d="M8.8,7.4C8.8,7.4,8.8,7.4,8.8,7.4C8.8,7.3,8.8,7.3,8.8,7.4C8.9,7.4,8.9,7.4,8.8,7.4C8.8,7.4,8.8,7.4,8.8,7.4z
			"/>
		<path class="st1" d="M9.2,7.7C9.2,7.7,9.2,7.6,9.2,7.7C9.2,7.6,9.2,7.6,9.2,7.7C9.3,7.7,9.3,7.7,9.2,7.7C9.2,7.7,9.2,7.7,9.2,7.7z
			"/>
		<path class="st1" d="M13.9,11.5C13.9,11.6,13.8,11.6,13.9,11.5c-0.1-0.1,0-0.1,0-0.1C13.9,11.4,13.9,11.4,13.9,11.5
			C14,11.5,13.9,11.5,13.9,11.5z"/>
		<path class="st1" d="M13.5,11.1C13.5,11.2,13.4,11.2,13.5,11.1C13.4,11.1,13.4,11.1,13.5,11.1C13.5,11,13.5,11.1,13.5,11.1
			C13.6,11.1,13.5,11.1,13.5,11.1z"/>
		<path class="st1" d="M14.1,12.1C14,12.1,14,12.1,14.1,12.1C14,12.1,14,12,14.1,12.1C14,12,14.1,12,14.1,12.1
			C14.1,12.1,14.1,12.1,14.1,12.1z"/>
		<path class="st1" d="M12,14.9c0,0,0.1,0,0.1,0C12.2,15,12.1,15,12,14.9C12.1,15,12,15,12,14.9C12,15,12,14.9,12,14.9z"/>
		<path class="st1" d="M8.2,8.8C8.2,8.8,8.2,8.9,8.2,8.8C8.1,8.8,8.2,8.8,8.2,8.8C8.2,8.7,8.2,8.8,8.2,8.8C8.3,8.8,8.3,8.8,8.2,8.8z
			"/>
		<path class="st1" d="M10.4,6.8C10.5,6.8,10.5,6.8,10.4,6.8C10.5,6.8,10.5,6.8,10.4,6.8C10.4,6.9,10.4,6.9,10.4,6.8
			C10.4,6.8,10.4,6.8,10.4,6.8z"/>
		<path class="st1" d="M6.6,16.9C6.6,16.9,6.6,16.9,6.6,16.9C6.5,16.9,6.6,16.9,6.6,16.9C6.6,16.8,6.6,16.8,6.6,16.9
			C6.7,16.9,6.7,16.9,6.6,16.9z"/>
		<path class="st1" d="M13.9,12C13.9,12,13.9,12,13.9,12C13.9,11.9,13.9,11.9,13.9,12C13.9,11.9,13.9,11.9,13.9,12
			C14,11.9,13.9,12,13.9,12z"/>
		<path class="st1" d="M4.3,19.6C4.3,19.6,4.3,19.6,4.3,19.6c0.1,0,0.1,0,0.1,0c0,0,0,0,0,0C4.4,19.7,4.4,19.7,4.3,19.6
			C4.3,19.7,4.3,19.6,4.3,19.6L4.3,19.6z"/>
		<path class="st1" d="M4.2,18.9C4.2,19,4.2,19,4.2,18.9C4.1,18.9,4.2,18.9,4.2,18.9C4.2,18.9,4.2,18.9,4.2,18.9
			C4.3,18.9,4.3,18.9,4.2,18.9z"/>
		<path class="st1" d="M4.7,19.7C4.7,19.7,4.6,19.7,4.7,19.7C4.6,19.7,4.6,19.7,4.7,19.7C4.7,19.6,4.7,19.6,4.7,19.7
			C4.8,19.7,4.7,19.7,4.7,19.7z"/>
		<path class="st1" d="M14.1,10.2C14.1,10.2,14.1,10.2,14.1,10.2C14.1,10.1,14.2,10.1,14.1,10.2C14.2,10.2,14.2,10.2,14.1,10.2
			C14.2,10.2,14.1,10.2,14.1,10.2z"/>
		<path class="st1" d="M14.5,10.8C14.5,10.8,14.4,10.8,14.5,10.8C14.4,10.7,14.4,10.7,14.5,10.8C14.5,10.7,14.5,10.7,14.5,10.8
			C14.5,10.7,14.5,10.8,14.5,10.8z"/>
		<path class="st1" d="M4.7,18.7C4.7,18.6,4.7,18.6,4.7,18.7c0.1-0.1,0.1,0,0.1,0C4.8,18.7,4.8,18.7,4.7,18.7
			C4.7,18.7,4.7,18.7,4.7,18.7z"/>
		<path class="st1" d="M5,19C5,18.9,5,18.9,5,19c0.1-0.1,0.1-0.1,0.1,0C5.1,19,5.1,19,5,19C5.1,19,5,19,5,19z"/>
		<path class="st1" d="M5.5,19.1C5.5,19.1,5.4,19.1,5.5,19.1C5.4,19.1,5.4,19,5.5,19.1C5.5,19,5.5,19,5.5,19.1
			C5.5,19.1,5.5,19.1,5.5,19.1z"/>
		<path class="st1" d="M4.8,17.7C4.8,17.7,4.8,17.8,4.8,17.7C4.7,17.7,4.8,17.7,4.8,17.7C4.8,17.6,4.8,17.7,4.8,17.7
			C4.8,17.7,4.8,17.7,4.8,17.7z"/>
		<path class="st1" d="M5.4,17.8C5.4,17.8,5.4,17.8,5.4,17.8c0-0.1,0-0.1,0-0.1C5.4,17.7,5.5,17.7,5.4,17.8
			C5.5,17.8,5.5,17.8,5.4,17.8z"/>
		<path class="st1" d="M9.9,7.7C9.9,7.7,9.8,7.7,9.9,7.7C9.8,7.7,9.8,7.7,9.9,7.7C9.9,7.6,9.9,7.6,9.9,7.7C9.9,7.7,9.9,7.7,9.9,7.7z
			"/>
		<path class="st1" d="M11,17.3C11,17.3,10.9,17.3,11,17.3C10.9,17.3,10.9,17.3,11,17.3C11,17.2,11,17.2,11,17.3
			C11,17.3,11,17.3,11,17.3z"/>
		<path class="st1" d="M11,15.8C11,15.8,11,15.9,11,15.8C11,15.9,10.9,15.9,11,15.8C10.9,15.8,10.9,15.8,11,15.8
			C10.9,15.8,11,15.8,11,15.8z"/>
		<path class="st1" d="M8.9,7.9C8.9,7.9,8.9,7.9,8.9,7.9C8.8,7.9,8.8,7.9,8.9,7.9C8.9,7.8,8.9,7.8,8.9,7.9C9,7.9,8.9,7.9,8.9,7.9z"
			/>
		<path class="st1" d="M8.7,8.1C8.7,8.2,8.7,8.2,8.7,8.1C8.6,8.1,8.7,8.1,8.7,8.1C8.7,8.1,8.7,8.1,8.7,8.1C8.8,8.1,8.8,8.1,8.7,8.1z
			"/>
		<path class="st1" d="M13,15.1C12.9,15.2,12.9,15.2,13,15.1C12.8,15.1,12.9,15.1,13,15.1C12.9,15.1,12.9,15.1,13,15.1
			C13,15.1,13,15.1,13,15.1z"/>
		<path class="st1" d="M8.4,8C8.4,8,8.3,8,8.4,8C8.3,7.9,8.3,7.9,8.4,8C8.4,7.9,8.4,7.9,8.4,8C8.4,8,8.4,8,8.4,8z"/>
		<path class="st1" d="M9.2,7.9C9.2,8,9.2,8,9.2,7.9C9.1,8,9.1,8,9.2,7.9C9.1,8,9.1,8,9.2,7.9C9.1,7.9,9.1,7.9,9.2,7.9z"/>
		<path class="st1" d="M11.7,15.8C11.6,15.9,11.6,15.9,11.7,15.8C11.6,15.8,11.6,15.8,11.7,15.8C11.6,15.8,11.6,15.8,11.7,15.8
			C11.7,15.8,11.7,15.8,11.7,15.8z"/>
		<path class="st1" d="M10.4,7.2C10.4,7.2,10.3,7.3,10.4,7.2C10.3,7.3,10.3,7.3,10.4,7.2C10.2,7.3,10.2,7.2,10.4,7.2
			C10.3,7.2,10.3,7.2,10.4,7.2z"/>
		<path class="st1" d="M7.6,8.9C7.6,8.9,7.6,8.9,7.6,8.9C7.6,8.9,7.6,9,7.6,8.9C7.5,8.9,7.5,8.9,7.6,8.9C7.6,8.8,7.6,8.8,7.6,8.9z"
			/>
		<path class="st1" d="M8.3,9.3C8.3,9.3,8.3,9.2,8.3,9.3C8.3,9.2,8.4,9.2,8.3,9.3C8.4,9.2,8.4,9.3,8.3,9.3C8.4,9.3,8.3,9.3,8.3,9.3z
			"/>
		<path class="st1" d="M14.2,13.4C14.2,13.4,14.2,13.4,14.2,13.4C14.1,13.4,14.1,13.3,14.2,13.4C14.2,13.3,14.2,13.3,14.2,13.4
			C14.2,13.4,14.2,13.4,14.2,13.4z"/>
		<path class="st1" d="M9.4,7.6C9.4,7.6,9.4,7.6,9.4,7.6C9.4,7.5,9.4,7.5,9.4,7.6C9.4,7.5,9.5,7.5,9.4,7.6C9.5,7.5,9.5,7.6,9.4,7.6z
			"/>
		<path class="st1" d="M14,12.9C14,12.9,14,12.9,14,12.9C14.1,12.8,14.1,12.8,14,12.9C14.2,12.9,14.1,12.9,14,12.9
			C14.1,12.9,14,12.9,14,12.9z"/>
		<path class="st1" d="M9.6,16.4C9.5,16.4,9.5,16.4,9.6,16.4C9.4,16.4,9.5,16.4,9.6,16.4C9.5,16.3,9.5,16.3,9.6,16.4
			C9.6,16.4,9.6,16.4,9.6,16.4z"/>
		<path class="st1" d="M13.2,14.8C13.2,14.8,13.2,14.7,13.2,14.8C13.3,14.7,13.3,14.7,13.2,14.8C13.3,14.8,13.3,14.8,13.2,14.8
			C13.2,14.8,13.2,14.8,13.2,14.8z"/>
		<path class="st1" d="M5.1,18.4C5.1,18.4,5.1,18.4,5.1,18.4C5.1,18.3,5.1,18.3,5.1,18.4C5.1,18.3,5.2,18.3,5.1,18.4
			C5.2,18.3,5.2,18.3,5.1,18.4z"/>
		<path class="st1" d="M4.5,17.4C4.5,17.5,4.5,17.5,4.5,17.4C4.4,17.5,4.4,17.5,4.5,17.4C4.4,17.5,4.4,17.4,4.5,17.4
			C4.5,17.4,4.5,17.4,4.5,17.4z"/>
		<path class="st1" d="M7.2,9.6C7.2,9.6,7.2,9.6,7.2,9.6C7.1,9.5,7.1,9.5,7.2,9.6C7.2,9.5,7.2,9.5,7.2,9.6C7.2,9.5,7.2,9.5,7.2,9.6z
			"/>
		<path class="st1" d="M8.8,8.6C8.8,8.6,8.8,8.6,8.8,8.6C8.7,8.7,8.7,8.7,8.7,8.7c0,0,0,0,0,0C8.7,8.6,8.7,8.6,8.8,8.6
			C8.8,8.6,8.8,8.6,8.8,8.6L8.8,8.6z"/>
		<path class="st1" d="M4.6,19.4C4.5,19.4,4.5,19.4,4.6,19.4C4.5,19.4,4.5,19.4,4.6,19.4C4.5,19.3,4.5,19.3,4.6,19.4
			C4.6,19.4,4.6,19.4,4.6,19.4z"/>
		<path class="st1" d="M8.4,8.4C8.4,8.4,8.4,8.4,8.4,8.4C8.4,8.3,8.4,8.3,8.4,8.4C8.4,8.3,8.5,8.3,8.4,8.4C8.5,8.3,8.5,8.4,8.4,8.4z
			"/>
		<path class="st1" d="M8.1,8.4C8.1,8.5,8.1,8.5,8.1,8.4C8.1,8.5,8,8.5,8.1,8.4C8,8.4,8.1,8.4,8.1,8.4C8.1,8.4,8.1,8.4,8.1,8.4z"/>
		<path class="st1" d="M4.6,20.1C4.6,20.1,4.5,20.1,4.6,20.1C4.5,20,4.5,20,4.6,20.1C4.6,20,4.6,20,4.6,20.1C4.6,20,4.6,20,4.6,20.1
			z"/>
		<path class="st1" d="M11.8,15.3C11.8,15.3,11.7,15.3,11.8,15.3C11.7,15.2,11.7,15.2,11.8,15.3C11.8,15.2,11.8,15.2,11.8,15.3
			C11.8,15.2,11.8,15.3,11.8,15.3z"/>
		<path class="st1" d="M14.4,11.8C14.4,11.8,14.3,11.8,14.4,11.8C14.3,11.8,14.3,11.7,14.4,11.8C14.4,11.8,14.4,11.8,14.4,11.8
			C14.4,11.8,14.4,11.8,14.4,11.8z"/>
		<path class="st1" d="M8.1,17C8.1,17,8.1,17.1,8.1,17C8.1,17.1,8,17.1,8.1,17C8,17,8,17,8.1,17C8,17,8.1,17,8.1,17z"/>
		<path class="st1" d="M9.4,7.9C9.4,7.9,9.4,7.9,9.4,7.9C9.5,8,9.5,8,9.4,7.9C9.4,8,9.4,8,9.4,7.9C9.4,8,9.4,8,9.4,7.9z"/>
		<path class="st1" d="M5.5,18.3C5.5,18.4,5.5,18.4,5.5,18.3C5.4,18.4,5.4,18.4,5.5,18.3C5.4,18.4,5.4,18.3,5.5,18.3
			C5.5,18.3,5.5,18.3,5.5,18.3z"/>
		<path class="st1" d="M5.2,17.9C5.2,17.9,5.1,17.9,5.2,17.9C5.1,17.9,5.1,17.8,5.2,17.9C5.2,17.8,5.2,17.8,5.2,17.9
			C5.2,17.9,5.2,17.9,5.2,17.9z"/>
		<path class="st1" d="M5.7,18.7C5.6,18.7,5.7,18.6,5.7,18.7C5.7,18.6,5.7,18.6,5.7,18.7C5.8,18.6,5.7,18.7,5.7,18.7
			C5.7,18.7,5.7,18.7,5.7,18.7z"/>
		<path class="st1" d="M9.7,8.1C9.7,8.1,9.7,8.2,9.7,8.1C9.6,8.1,9.7,8.1,9.7,8.1C9.7,8,9.7,8,9.7,8.1C9.8,8.1,9.8,8.1,9.7,8.1z"/>
		<path class="st1" d="M5.8,18.1C5.8,18.1,5.7,18.2,5.8,18.1C5.7,18.1,5.7,18.1,5.8,18.1C5.7,18.1,5.8,18,5.8,18.1
			C5.8,18.1,5.8,18.1,5.8,18.1z"/>
		<path class="st1" d="M11.2,6.7C11.2,6.7,11.2,6.7,11.2,6.7C11.2,6.6,11.2,6.6,11.2,6.7C11.3,6.6,11.3,6.6,11.2,6.7
			C11.3,6.6,11.3,6.7,11.2,6.7z"/>
		<path class="st1" d="M10,16C10,16,10,16,10,16C10.1,16,10.1,16,10,16C10.1,16,10.1,16,10,16C10.1,16.1,10,16,10,16z"/>
		<path class="st1" d="M9.9,7.2C9.9,7.2,9.9,7.2,9.9,7.2C9.8,7.2,9.9,7.2,9.9,7.2C9.9,7.1,9.9,7.1,9.9,7.2C9.9,7.2,10,7.2,9.9,7.2z"
			/>
		<path class="st1" d="M10.4,16.5C10.3,16.6,10.3,16.6,10.4,16.5C10.3,16.5,10.3,16.5,10.4,16.5C10.3,16.5,10.4,16.5,10.4,16.5
			C10.4,16.5,10.4,16.5,10.4,16.5z"/>
	</g>
</g>
</svg>
