<svg viewBox="0 0 30 32.2" xmlns="http://www.w3.org/2000/svg"><g fill="#aa2335"><path d="m25.9 2.6c-.1 0-.2-.1-.3 0 .2.1.3.1.5.1.1 0 .1 0 .1-.1h.1s.1-.1.1-.1c.1-.1.1-.1.3 0 .1.1.1.1.2.1h.2c.1 0 .2 0 .3-.1 0 0 0-.1.1-.1 0 .2-.2.4-.4.3-.1 0-.1 0-.2 0 0 .1.1.1.1.1.3 0 .4.2.6.4.1.1.2.2.4.3s.4.2.5.4c0 .1.1.2.2.3s.1.1.2 0 .2-.2.2-.3v.2c-.1.1-.3.2-.5.2-.1.2-.1.5.1.6.1.1.1.1.2.2s.2.2.3.3c.2.2.3.5.5.8.1.2.1.4 0 .6v-.1c0-.2 0-.3-.1-.5s-.2-.4-.3-.5c-.1-.2-.3-.4-.6-.5v.1c-.1.3-.1.6-.2.9-.1.1-.1.3-.1.4v.3c0 .4.1.8.2 1.1 0 0 .1 0 0 .1-.1 0-.1-.1-.1-.1-.1-.1-.1-.2-.1-.3-.1-.2-.1-.5-.1-.7 0-.3 0-.7.1-1 0-.1 0-.2 0-.3-.1.1-.1.2-.1.2-.1.5-.4 1-.7 1.4-.1.1-.1.2-.2.3s-.3.4-.4.6c0 0 0 .1-.1.1-.1.2-.2.4-.3.6-.2.4-.5.7-.9 1-.2.1-.3.3-.4.4-.1.2-.3.3-.4.4-.2.2-.4.3-.6.4s-.3.3-.5.4-.3.2-.5.3c-.1.1-.2.2-.4.3-.2.2-.4.3-.6.5s-.4.4-.6.7c-.1.2-.2.4-.4.5-.1.1-.1.2-.2.3-.2.4-.4.7-.6 1-.2.2-.3.4-.4.6-.2.3-.5.5-.8.8 0 0-.1.1-.1.1-.2.3-.5.5-.7.8-.3.4-1.5 2.2-1.7 2.4-.3.2-2.3 1.7-2.4 1.8-.3.1-.5.3-.7.5-.1 0-.1.1-.2.1-.2.1-.3.2-.5.3-.1.1-.2.2-.4.4-.2.1-.3.3-.5.3-.1 0-.1.1-.1.1-.3.3-.7.6-1.1.8-.1 0-.2.1-.2.1-.1.1-.1.2-.2.2-.3.4-.7.6-1.1.8-.1.1-.3.1-.4.2-.2.1-.4.2-.6.3-.3.1-.6.2-.9.3-.3.2-.6.3-.9.4-.1.1-.2.1-.3.2-.3.2-.5.3-.8.4-.3.2-.6.3-.9.5-.2.1-.4.3-.7.4s-.5.4-.6.7c0 .1-.1.2-.1.3-.1.2-.2.5-.3.8 0 .1-.1.3-.1.4v.2-.1c0-.2 0-.4.1-.6s.1-.4.3-.6c-.2.2-.2.1-.2 0 0-.2.1-.4.2-.5 0 0 .1-.1.1-.1-.1 0-.2 0-.3.1s-.2.1-.3.2c-.1 0-.2.1-.2.1-.2.2-.4.4-.5.7-.1.2-.1.4-.2.6 0 .1 0 .1-.1.2.1-.7.3-1.3.9-1.7-.1 0-.1 0-.2 0h-.1c-.2 0-.3.1-.4.2-.4.5-.8 1-1.1 1.5 0 0 0 .1-.1.1 0-.1 0-.1 0-.2.3-.4.6-.9.9-1.3 0 0 .1-.1.1-.2-.2.1-.4.2-.6.3-.5.3-.8.7-1 1.1v-.1c.1-.3.3-.6.6-.9s.7-.5 1.1-.6c.1 0 .2-.1.3-.2.2-.2.4-.4.5-.7 0 0 .1-.1 0-.1h-.1c-.3.1-.6.3-.8.5-.2.1-.4.3-.6.4-.1 0-.2 0-.3 0 .3-.1.6-.3.8-.5.3-.3.6-.5 1-.7.1 0 .1-.1.2-.2.1-.2.2-.4.3-.5 0 0 0-.1.1-.1-.2.1-.3.2-.4.3-.3.2-.6.5-1 .6-.1 0-.2.1-.3.2 0 0-.1.1-.1.1.1-.2.2-.3.4-.3.2-.1.5-.2.6-.3.2-.1.3-.3.5-.4l.3-.3.3-.3c.2-.1.3-.3.5-.4s.3-.3.4-.5c.2-.3.3-.6.5-.9 0 0 0-.1.1-.1.4-.3.7-.7 1-1.1.2-.3.4-.6.5-1 .3 0 .4-.2.5-.5.1-.2.2-.4.3-.6 0-.1.1-.3.2-.4.1-.2.2-.3.3-.5.1-.4.3-.7.5-1.1.1-.2.2-.3.3-.5.2-.2.3-.4.4-.6 0-.1.1-.1.1-.2.1-.1.2-.2.3-.4 0-.1.1-.1.1-.2.1-.1.2-.2.3-.3s.2-.2.4-.3.5-.3.6-.5c.1-.1.1-.2.2-.2.1-.1.1-.2.1-.3s.1-.2.1-.3c0-.2.2-.3.3-.4l.2-.2c.1-.1.1-.2.1-.3s.1-.1.1-.1c.1-.1.2-.2.2-.3.2-.3.3-.5.5-.8.1-.2.3-.4.4-.5s.2-.2.2-.3c.1-.2.2-.3.3-.4.2-.2.1-.9.6-1.2.1-.1.9-.7 1.2-1 .1-.2.3-.3.4-.5.2-.2.4-.4.5-.6.3-.3.5-.6.8-.8.1 0 .1-.1.2-.2s.1-.1.2-.2.2-.1.3-.2c.3-.1.5-.2.7-.3s.4-.2.5-.3.2-.2.4-.3c.1 0 .1-.1.2-.2s.2-.2.3-.3c.2-.2.4-.4.6-.6s.4-.4.6-.6c.1-.1.2-.2.4-.3.1-.1.2-.2.3-.3.3-.3.7-.5 1-.8 0 0 .1-.1.2-.1.3-.1.6-.2.9-.3.1 0 .2-.1.2-.1.3 0 .5-.1.8-.1.1 0 .3 0 .4-.1-.1-.1-.2-.2-.3-.3s-.1-.1-.3-.2h-.1c-.3 0-.6-.1-.9-.1-.1 0-.3 0-.4-.1-.1 0-.2 0-.3-.1.3.1.5.1.8.1h.2c.2 0 .5.1.7.1.1 0 .2.1.3.2s.1.2.2.3.1.1.2.1c.3 0 .6.1.9.1-.1.1-.2.1-.3.1zm-2.7.9c-.5.1-.8.4-1.2.7-.3.3-.7.7-.9 1-.1.2-.3.4-.5.5-.3.2-.6.5-.9.7s-.5.4-.8.6c-.2.1-.3.2-.5.4-.3.2-.7.4-1 .7-.2.1-.2.2 0 .3.1.1.1.1.2.2s.1.1.2 0c.2-.1.2-.2.2-.3.1-.2.2-.4.4-.6.4-.4.7-.7 1.2-.9.3-.2.5-.3.8-.5.2-.1.3-.2.5-.3 0 0 .1-.1.1-.2.3-.5.6-.9.9-1.3.1-.1.2-.2.4-.3.4-.3.9-.5 1.3-.7h.2c.1 0 .1 0 .2-.2-.1.1-.3.1-.4.2-.1 0-.3 0-.4 0zm-6.3 9.5c0-.1 0-.1 0 0 .2-.2.3-.4.5-.6.1-.1.2-.3.4-.4.3-.2.5-.5.8-.7.2-.1.3-.3.4-.5.1-.1.1-.2.1-.3v-.1c-.1-.2-.1-.4-.3-.5-.2.3-.4.5-.6.8-.2.2-.4.4-.6.6-.3.2-.6.4-.8.7 0 0 0 0-.1 0 .1-.1.1-.1.2-.2.2-.2.5-.4.7-.6s.5-.5.7-.7c.1-.2.2-.3.3-.4s.1-.2.1-.3 0-.2-.1-.2-.1 0-.1 0c-.3.4-.7.9-1.1 1.3-.2.3-.5.5-.8.7-.1.1-.1.1-.2.2s-.1.1-.2.2c.2-.2.3-.4.5-.6.3-.3.7-.6 1-1 .2-.3.5-.6.7-.9 0 0 .1-.1 0-.1s-.1 0-.1 0c-.2.3-.4.6-.6.9s-.4.5-.6.7c-.3.3-.7.6-1 .9.1-.3.3-.4.5-.6s.5-.4.7-.7c.1-.1.3-.3.4-.4.2-.2.3-.4.5-.7.1-.1.1-.2 0-.3 0 0-.1-.1-.1-.1-.1 0-.1-.1-.1-.2s0-.1-.1-.1-.1 0-.2.1c-.2.2-.3.4-.5.5-.2.2-.4.4-.6.7 0 .1-.1.1-.2.2-.2.1-.5.3-.7.4-.1 0-.1.1-.2.1-.3.1-.5.2-.7.4s-.4.9-.6 1.1c-.1.2-.3.3-.4.5-.3.4-.6.8-.8 1.3-.1.2-.2.3-.3.5 0 .1-.1.1-.2.1 0-.1 0-.1 0-.1.1-.1.2-.3.3-.5.1-.1.2-.3.2-.4.2-.3.5-.6.7-1 .1-.2.3-.4.5-.6.3-.4.2-.6.2-.7l.3-.3c.1-.2.3-.3.5-.4.4-.1.7-.3 1-.5.1 0 .1-.1.2-.2.1-.2.3-.4.5-.5.2-.2.5-.4.7-.7 0 0 0 0 .1-.1-.1-.1-.2-.1-.3-.1s-.1 0-.2-.1c-.2-.1-.2-.1-.1-.3h-.1c-.5.3-.8.5-1 .8-.2.2-.4.5-.6.7s-.9.8-1.1.9c-.1.1-.1.3.1.2s.6-.5.7-.6c.3-.3.7-.6 1-.9.2-.2.5-.4.6-.6 0 0 .1-.1.1-.1.1.1 0 .1-.1.1-.2.2-.4.4-.6.5-.2.2-.5.4-.7.6s-.3.3-.5.5-.2.3-.5.4c-.4.2-.8.9-.9 1s-.1.2-.2.3c-.1.2-.2.3-.3.5-.3.3-.5.6-.7 1-.1.2-.3.4-.4.5 0 0-.1.1-.1.1-.1.3-.3.6-.5.8 0 0-.1.1-.1.2-.1.3-.2.5-.4.7-.2.3-.6.5-.9.7s-.6.4-.7.7c0 .1-.1.1-.1.2-.1.4-.2.6-.4.9-.1.1-.1.2 0 .3.2.1.3.2.4.4 0 .1.1 0 .1 0 .1-.1.2-.3.2-.4.2-.4.4-.8.6-1.1s.4-.5.7-.7c.2-.2.5-.3.7-.6.1-.2.3-.3.4-.5 0-.1-.1-.1-.1-.1v-.1c.1 0 .2.2.3.2.1-.3.3-.6.5-.8.4-.4.7-.8.9-1.3s1-.5.7-.3-.5.5-.8.7c-.2.2-.4.4-.5.6-.2.2-.4.4-.6.7-.1.1-.2.3-.3.5v.1c0 .1.1.1.1.2 0 .2.1.3.2.4s.1.2.2.3c0 .1.1.1.2 0 .3-.2.4-.6.7-.8s.4-.7.7-.9c.1-.1.2-.1.3-.2 0 .1-.1.1-.2.2-.3.3-.6.8-.9 1.1-.2.1-.3.5-.5.7-.1 0-.1.1-.1.1 0 .1-.1.1-.2 0 0 0-.1-.1-.1-.1-.1-.1-.1-.2-.3-.3-.1-.1-.2-.2-.2-.3s-.1-.3-.2-.4c-.1.1-.2.2-.3.3 0 0-.1.1-.1.2-.2.3-.4.5-.7.6-.3.2-.6.4-.8.7.3 0 .2.3 0 .5-.1.2-.2.4-.3.7 0 0 0 .1-.1.1-.1.2-.3.4-.4.5v-.1c0-.1.1-.2.1-.2.1-.1.1-.2 0-.3s-.1-.1-.2-.2c-.1 0-.2-.1-.2-.2-.1.1-.1.1-.2.2-.2.4-.4.8-.5 1.2-.1.2-.1.4-.3.5-.1.1-.1.2-.1.3-.1.3-.2.6-.4.8-.1.3-.2.5-.3.7-.2.5-.4.9-.7 1.3-.2.3-.5.6-.8.8-.2.1-.2.3-.3.5-.2.3-.3.5-.5.8-.1.2-.3.3-.4.5-.1 0-.1.1-.2.1-.1.1-.2.2-.3.4s-.3.3-.4.5v.1h.1c.1-.1.3-.1.4-.2.4-.2.6-.4.8-.8 0-.1.1-.1.1-.2 0 0 0-.1.1-.1h.1v.1c0 .1-.1.1-.1.2-.1.2-.2.3-.4.5-.1.2-.3.3-.5.4s-.5.2-.7.4c-.1 0-.1 0-.1.1-.1.2-.2.5-.4.6 0 0 0 .1-.1.1.1 0 .2 0 .3-.1.1-.3.4-.5.6-.7.2-.1.3-.2.5-.3s.3-.2.4-.4c.2-.2.4-.4.5-.6.1-.1.2-.2.2-.3s.1-.2.1-.3.1-.1.1-.2c.2-.4.4-.8.7-1.2.2-.2.4-.5.6-.8.1-.1.1-.2.1-.3v-.1s0 0 .1.1 0 .3-.1.4c-.2.3-.5.6-.7.9-.2.2-.2.4-.4.6h.1c.3-.3.6-.6.8-.9s.3-.5.5-.8c.1-.1.2-.2.2-.3.2-.2.4-.5.5-.7.2-.3.5-.6.7-.9l.3-.6c.1-.2.2-.3.3-.4 0 0 0 0 .1-.1h.1s0 0-.1.1c0 0-.1 0-.1.1-.1.1-.1.2-.2.3-.1.3-.3.6-.5.9-.3.3-.5.6-.7 1-.1.2-.2.3-.3.4 0 0-.1.1-.1.1 0 .2-.2.2-.3.4-.1.3-.4.5-.5.8-.2.3-.5.6-.7.8-.1.1-.2.2-.2.3-.1.2-.2.3-.2.5.3-.3.7-.5.9-.8s.4-.5.6-.8c.1-.1.1-.3.2-.5.1-.3.1-.5.3-.6.1-.1.2-.3.3-.4.2-.1.3-.3.5-.4.1-.1.2-.2.3-.3l.3-.3c.2-.2.4-.5.6-.7 0-.1.1-.1.2-.2-.2.4-.5.7-.8 1-.1.1-.2.3-.3.4-.2.2-.4.4-.6.6-.1.1-.3.3-.4.5 0 .1-.1.1 0 .2 0 .1 0 .1-.1.2-.1-.1 0-.1 0-.2-.1 0-.1.1-.1.2-.1-.1-.1 0-.1.1-.1.3-.2.5-.4.7-.1.2-.3.3-.4.5s-.3.3-.5.5-.4.3-.6.5c-.1.1-.2.2-.3.3-.2.1-.3.3-.4.4-.1.2-.3.3-.5.4-.4.3-.7.5-.9.7-.1.1-.1.1-.1.2h.1.1c.4-.1.4-.1.8-.4.1-.1.2-.2.3-.3.2-.2.5-.4.7-.5s.4-.2.6-.3h.1s.1 0 0 .1c0 0-.1.1-.1.1-.3.2-.5.3-.8.5-.4.1-.7.3-.9.6.2 0 .3-.1.4-.2.3-.2.7-.4 1-.6s.6-.3.9-.5.6-.3.8-.5c.1-.1.3-.2.5-.3.3-.2.6-.3.9-.5s.6-.4 1-.6c.2-.1.4-.2.6-.3.1 0 .1-.1.2-.2s.2-.2.3-.3.2-.2.3-.3c0-.1.1-.1.2-.2.2-.2.5-.4.7-.6.1-.1.3-.2.4-.3.1 0 .2-.1.2-.2.1-.3.3-.4.5-.5.1 0 .2-.1.2-.2v-.1c-.1-.1-.2-.2-.3-.3s-.3-.1-.4 0c-.2.2-.4.3-.5.5-.1.1-.2.2-.4.3-.1 0-.1.1-.2.2 0-.1 0-.1.1-.2.1 0 .1-.1 0-.1-.1-.1-.2-.3-.3-.4s-.2-.2-.3-.3-.2-.2-.3-.3h.1l.3.3c.1 0 .1.1.2.2s.1.2.2.3c0 0 .1.1.1.1.1.1.2.1.2 0 .2-.2.5-.4.7-.6 0 0 .1-.1.1-.1 0-.1-.1-.1-.1-.1 0-.1.1 0 .2 0-.1-.1-.3-.1-.5-.2.2-.1.3 0 .4 0s.2.1.2.1h.1.1c.2-.1.4-.2.6-.3s.4-.3.6-.5.4-.4.6-.6l.3-.3s0-.1.1 0v.1c-.1.2-.3.3-.4.4-.2.2-.4.4-.6.5-.1.1-.3.2-.4.4-.2.2-.4.3-.7.5.2.1.3.2.5.3.1 0 .1.1.2.1.2.1.5.1.7.1h.1c.1-.1.3-.1.4-.2s.2-.1.3-.3c.1-.1.2-.2.3-.2.1-.1.2-.2.3-.3s.1-.2.2-.3c0 0 .1-.1.1-.1h-.1c-.3.1-.5.2-.8.4-.2.1-.4.2-.5.4 0 0-.1.1-.2.1.3-.2.5-.5.9-.6.1-.1.2-.1.4-.2.1 0 .1-.1.2-.1 0-.1 0-.1-.1-.1 0 0 0 0-.1 0-.2.1-.5.3-.7.4-.4.2-.8.5-1.1.8.1-.1.2-.2.3-.3.3-.2.6-.4 1-.6.1-.1.3-.2.4-.2.1-.1.1-.1.1-.2-.1-.2-.1-.2-.3-.1-.3.1-.5.3-.7.5-.3.2-.5.4-.8.6 0 0 0 0-.1 0 0-.1.1-.1.1-.2.4-.3.7-.6 1.1-.9.2-.1.3-.2.5-.3 0-.1-.1-.2-.2-.2-.1-.1-.2-.1-.3-.2s-.2-.2-.3-.3-.1-.2-.1-.3c.2.3.4.4.6.7.3.2.4.4.6.7.1.1.2.2.3.3h.2s.1-.1.1-.1c.2-.2.4-.3.7-.4 0 0 .1 0 .1-.1.1-.2.3-.3.4-.4.2-.2 1.1-1.5 1.3-1.8s.4-.6.7-.8c.2-.2.4-.4.6-.5.1-.1.3-.3.4-.4.1-.2.3-.4.4-.6.2-.3.3-.5.5-.8.1-.1.1-.2.2-.3s.2-.3.3-.4.2-.3.3-.4v-.1c0-.1 0-.1 0-.1.2-.1.3-.3.4-.5.2-.2.4-.5.6-.7s.5-.4.7-.5.4-.3.6-.4.3-.3.5-.4.4-.2.5-.4c0 0 .1 0 .1-.1.1-.1.1-.2.2-.4v-.1c-.1 0-.2.1-.3.2s-.3.2-.4.3c-.3.3-.7.6-1 .9-.1.1-.3.2-.4.4-.1.1-.1.1-.2.1-.3.1-.5.3-.7.5-.1.1-.2.2-.3.3-.2.2-.4.5-.6.8-.1.2-.2.4-.3.5s-.2.3-.3.4c-.1.2-.3.5-.5.7-.3.4-.6.9-.9 1.3-.2.2-.3.5-.5.7-.2.3-.5.5-.7.8-.3.3-.6.4-.3.2s.6-.6.8-.8.4-.4.6-.7c.1-.1.1-.2.2-.3.2-.3.4-.5.6-.8.1-.2.3-.4.4-.6.2-.3.4-.7.7-1 .1-.2.2-.3.3-.5s.3-.4.4-.6c.1-.1.2-.3.4-.4.2-.3.5-.5.8-.6.2-.1.3-.2.4-.3.3-.2.5-.4.8-.7.1 0 .1-.1.2-.2-.2-.1-.3 0-.4.1-.5.5-1.1.9-1.6 1.4-.1.1-.2.2-.3.3-.2.2-.4.4-.5.6-.2.2-.4.4-.6.6 0 0 0-.1-.1-.1s-.2-.1-.3-.2-.1-.1-.2 0c-.3.2-.5.4-.8.6-.2.2-.4.4-.6.6-.1.1-.2.2-.3.4s-.3.3-.4.5c-.1.1-.2.1-.4.1-.1 0-.2 0-.3 0h-.1c-.2.1-.3.2-.5.3-.4.3-.6.5-.4.3.3-.2.5-.5.8-.7.1-.1.1-.1.1-.2-.1-.2-.2-.2-.4-.3h-.1c-.2.1-.4.3-.5.4-.4.4-.5.4-.2.1.2-.2.4-.3.6-.5.1-.1.1-.1.1-.2s0-.1 0-.2c.2-.2.4-.5.6-.7.1-.1.1-.1.2-.2.2-.2.3-.4.5-.5.3-.3.6-.7.8-1 .1-.1.2-.2.3-.2s.2-.1.2-.2.1-.1.1-.1.1-.1.1-.1c.1-.2.2-.3.4-.5.5-.3.9-.6 1.4-1 .1 0 .1-.1.2-.1.4-.3.8-.6 1.1-.8.1-.1.1-.1.2 0s.2.2.3.3c0 0 .1 0 .1-.1.2-.4.4-.6.7-.9.1-.1.3-.2.5-.3.3-.2.5-.4.7-.6.1-.1.2-.2.3-.3.2-.2.4-.4.5-.6s.3-.4.4-.6c.2-.2.4-.5.6-.8.1-.1.2-.2.3-.4.1-.1.2-.2.3-.4v-.1c-.1-.1-.1-.1-.2-.2-.1 0-.3-.1-.4-.1h-.1c-.2.1-.3.2-.5.3s-.4.2-.6.4c-.1.1-.2.2-.3.3 0 0-.1.1-.1 0v-.1c.2-.1.3-.2.4-.4.2-.2.4-.3.6-.4s.3-.2.4-.2c0-.1-.1-.1-.1-.2 0 0 0 0-.1 0h-.1c-.4.2-.8.4-1.2.6-.1.1-.2.2-.3.2-.1.1-.1.1 0 .2s.2.2.2.3.1.1.2.2h.1c-.3-.2-.2-.1-.2.1 0 0 0 0-.1 0s-.1 0-.1.1-.1.2-.2.3c-.2.1-.3.2-.4.4 0 0-.1.1-.1.1-.3.2-.5.5-.8.7-.1.1-.1.1-.2.2 0 0 .1 0 .1-.1.2-.1.3-.2.5-.3s.4-.2.6-.3c.1 0 .1-.1.2-.2.1-.2.3-.3.4-.4 0 0 .1-.1.1-.1s.1-.1.1 0 0 .1-.1.1c0 .1-.2.3-.3.5-.1.1-.1.2-.2.2-.2.1-.5.2-.7.3-.4.1-.6.3-.8.5-.1.1-.2.2-.3.3 0 0-.1.1-.1.1-.1.1-.2.3-.4.4-.1 0-.1.1-.2.2-.2.2-.5.4-.8.6-.2.1-.4.2-.6.4 0 0 0 0-.1 0 .1-.1.1-.1.2-.2l.6-.3c.2-.1.4-.2.5-.4.2-.2.4-.4.6-.6-.2.1-.3.2-.5.2 0-.1.1-.1.1-.1.2-.1.3-.2.5-.3.2-.3.5-.4.6-.7 0 0 .1-.1.1-.1.3-.3.5-.5.8-.7.1-.1.2-.1.3-.2s.3-.2.4-.3.1-.1.1-.2.1-.1.1-.2c-.1-.1-.3-.1-.4-.1s-.1.1-.2.1c-.2.2-.4.5-.6.7-.1.1-.3.3-.4.4-.3 0-.4.1-.5.2s-.2.2-.4.3-.4.3-.5.5-.3.4-.4.5c0-.2.1-.3.2-.4 0-.1.1-.1.1-.2.2-.3.4-.4.7-.6.1-.1.3-.2.4-.3.1-.2.3-.3.5-.4.2-.2.4-.5.7-.8.1 0 .1-.1.1-.1s.1-.1 0-.1c-.1-.2-.2-.2-.4-.1-.1.1-.3.2-.4.3-.2.2-.4.3-.6.4-.1.1-.2.2-.3.2.1-.1.1-.2.2-.3.3-.2.5-.4.8-.6.1-.1.2-.2.3-.2-.1-.1-.2-.1-.3-.2-.2-.1-.2-.1-.4.1-.2.1-.4.3-.5.5-.2.2-.3.4-.4.5-.1.2-.3.2-.5.4-.3.2-.7.5-.9.8-.1.1-.2.2-.4.3 0-.1 0-.2.1-.2.1-.1.2-.2.4-.4.1-.1.2-.1.2-.2.3-.2.5-.4.8-.6.1-.1.2-.2.3-.3 0-.1.1-.1.2-.2.2-.2.4-.5.6-.7 0 .1.1 0 .2-.1.1 0 .1-.1.1-.1v-.1h.1c.2.1.3.2.5.3h.2c.2-.3.5-.4.8-.5s.5-.3.7-.4c0 0 .1 0 .1-.1 0 0 .1 0 .1-.1s0-.2-.1-.2-.1-.1-.2-.2c0-.1-.1-.1-.1 0 0 0-.1.1-.1.1-.1.1-.3.2-.5.1-.1 0-.1 0-.1.1-.1 0-.2.1-.3.2-.2.2-.4.4-.7.6 0 0-.1.1-.2.1-.1-.1.1-.1.1-.1.2-.1.4-.2.5-.4s.3-.3.5-.5c-.1 0-.2-.1-.3-.1s-.1 0-.1.1c-.1 0-.2.2-.4.3-.1.1-.2.2-.4.3-.1 0-.1 0-.2.1s-.2.1-.3.1c-.1 0-.3 0-.4.1-.4.2-.8.4-1.2.6-.1.1-.3.2-.4.4-.2.3-.4.5-.6.8-.1.1-.1.3-.3.5v.1c.3.1.3.1.5-.2 0 0 .1-.1.1-.2.1-.3.3-.5.6-.7s.6-.5.9-.6c.2-.1.4-.2.6-.4.1.1.2 0 .3 0h.1v.1s-.1.1-.1.1c-.4.3-.9.5-1.3.8-.3 0-.5.2-.7.3-.2.2-.3.4-.4.6-.1.1-.1.2-.2.3s-.1.1-.2.1-.2 0-.3 0c-.2 0-.4 0-.5.2 0 0-.1-.1-.1 0-.6.4-1.2.8-1.7 1.3-.2.2-.3.4-.4.6 0 .1-.1.2-.1.3 0 0-.1.1-.1.2s0 .1-.1.2c0-.1.1-.1.1 0 .3-.4.6-.8 1-1.1.2-.2.4-.4.7-.5.2-.1.4-.3.7-.4.2-.1.4-.2.5-.3h.1c.1-.1.3-.1.4 0 0 0-.1.1-.1.1-.2.1-.4.3-.6.5-.4.5-.8.9-1.3 1.2-.3.2-.6.4-.9.6-.1.1-.1.1 0 .1.1.1.2.2.3.2 0 0 .1.1.1 0 .1-.3.4-.5.8-.8.1-.1.2-.2.4-.3.1 0 .2-.1.2-.2.3-.3.7-.6 1.1-.8.1-.1.3-.2.3-.3h.1c.1 0 .2 0 .3-.1.3-.2.6-.4.9-.7.1-.1.2-.2.3-.2 0 0 .1 0 .1-.1.1-.1.2-.1.3-.2s.2-.2.3-.3c0-.1.1-.1.1-.1-.1.2-.3.5-.6.6-.3.2-.6.4-.8.6-.1.1-.2.1-.3.2-.2.1-.3.3-.4.4v.1c0 .1 0 .2.1.2s.1.1.2.1.1.1.1.1c0 .1 0 .1-.1.1s-.2.1-.3.1c-.3.2-.6.5-1 .7-.4.4-.8.7-1.2 1-.2.2-.4.4-.6.6-.1.1-.1.2-.1.3 0 .2-.2.4-.3.6-.3.3-.6.6-.9.9-.2.2-.4.3-.5.5-.1.1-.2.2-.3.4-.1.1-.1.1-.2.1.1.1 0 .1 0 0zm1.5.8c.1-.1.2-.2.3-.4.3-.3.5-.6.9-.9.1-.1.3-.2.4-.3.2-.2.4-.3.7-.4.4-.1.7-.3 1-.5s.5-.4.8-.5c.3-.2.5-.4.8-.7.1-.1.2-.1.2-.2.1-.1.2-.2.3-.3 0-.1.1-.1 0-.2s-.1-.1-.2 0c-.2.1-.4.2-.6.4-.1.1-.1.1-.2.1v-.1c.2-.1.4-.3.6-.4h.1c.2-.1.2-.2 0-.3h-.1c-.1.1-.2.2-.3.2-.3.2-.6.4-.9.6s-.5.4-.8.5c-.3.3-.7.6-1 .8-.1.1-.1.1-.2.2 0 .1-.1.2-.2.2-.2.2-.4.4-.6.6-.1.1-.3.2-.4.3-.3.3-.6.6-.9.9-.2.2-.4.4-.6.7 0 0-.1.1 0 .1.1.1.1.3.2.4 0 .1.1.1.2.1.2 0 .4 0 .6-.2.1-.1.2-.2.3-.3.2-.3.4-.5.6-.7.1 0 .1-.1.1-.2.1-.1.2-.2.3-.3.2-.2.4-.4.7-.5.2-.1.2-.1.4 0 0 0 .1.1.1.1.1.1.2.1.3 0 .3-.3.5-.6.8-.8.1-.1.2-.2.3-.3.3-.3.6-.5.8-.8.3-.3.7-.6 1-.9.1-.1.1-.1 0-.1s-.1 0-.2-.1h-.1c-.3.3-.6.6-1 .9-.1.1-.3.2-.4.3-.3.2-.6.4-1 .6-.3.2-.7.4-1.1.5-.1 0-.2.1-.3.1-.2.2-.4.3-.5.5-.4.3-.7.8-1.1 1.1-.2.2-.3.3-.5.4.1 0 .2-.1.4-.2zm.4-1.2c.2-.1.4-.3.5-.4.2-.1.3-.3.5-.4 0 0 .1-.1.1-.1.1 0 .1-.1.1-.1.1-.2.3-.3.5-.5.1-.1.3-.2.4-.4.4-.4.9-.7 1.4-1 .3-.2.5-.3.7-.6 0 0 .1-.1.1-.1.1-.1.1-.1 0-.2s-.1-.2-.2-.3-.1 0-.1 0c-.1.1-.2.1-.3.2-.5.4-1 .8-1.6 1.1-.3.2-.6.4-.9.6-.1.1-.2.1-.2.2-.1.2-.2.3-.3.5-.1.1-.2.2-.3.3-.1 0-.2.1-.2.2-.1.1-.2.2-.4.4s-.4.5-.6.7-.4.4-.6.6c-.1.1-.3.2-.4.4-.1.1-.1.1 0 .2.1.2.1.2.3 0s.4-.4.6-.6c.5-.3.7-.5.9-.7zm5.3-10c-.2 0-.5.1-.7.2s-.4.1-.6.2c-.1 0-.2.1-.3.2-.3.2-.5.4-.8.6-.2.1-.3.3-.5.5-.1.1-.2.2-.3.3s-.2.2-.2.2c-.2.3-.4.5-.7.8 0 0-.1.1-.1.1-.2.1-.3.3-.5.4-.3.3-.6.6-1 .8-.2.1-.4.2-.5.4-.3.2-.5.5-.8.7 0 0-.1.1-.1.1.1.1.2 0 .2.1h.1c0-.1.1-.2.1-.2.2-.1.3-.2.5-.3.3-.2.7-.4 1-.7 0 0 0 0 .1-.1.4-.3.8-.6 1.2-.8.2-.1.3-.3.4-.4.2-.2.4-.5.6-.7.3-.3.5-.6.8-.9.1-.1.2-.2.3-.3.2-.2.5-.3.8-.4h.3c.2 0 .5-.1.6-.3 0 0 0-.1.1-.1s.1-.1.2-.1c0-.1.1-.2.1-.3-.1 0-.2 0-.3 0zm-3.6 6.5c.2-.2.4-.4.6-.5.3-.2.7-.5 1-.7.1-.1.1-.1 0-.1-.2-.1-.3-.2-.4-.4 0-.1-.1-.1-.1 0-.1.1-.3.2-.4.3-.5.3-1 .8-1.5 1.1-.3.2-.6.5-.8.8-.2.2-.2.2 0 .4.1 0 .1.1.1.2s.1.1.2.1c.1-.1.2-.2.4-.4.3-.3.6-.5.9-.8zm4-.4c-.2.1-.4.3-.6.4-.1.1-.1.1 0 .2 0 0 .1.1.1.1 0 .1.1.1.1.1h.1c.1.1.1.1.2.1h.1.3c.4-.3.8-.6 1.1-1 .2-.3.4-.6.6-.9s.3-.5.4-.8c.2-.2.3-.5.5-.7.1-.1.2-.3.3-.4.2-.4.3-.8.4-1.2 0-.1 0-.1 0-.2v-.1h-.1c-.2.1-.3.3-.3.5-.1.3-.2.5-.3.7-.1.5-.3.8-.4 1s-.2.4-.3.7-.3.5-.5.7-.4.4-.6.7c-.3.2-.6.4-.8.7h-.1s0-.1.1-.1c0-.1.1-.2.2-.2 0 0 0 0 0-.1 0-.2.1-.3.2-.5-.2.1-.5.2-.7.3zm3.5-4.5c0-.1 0-.1-.1-.2 0-.1-.1-.1-.1 0 0 0 0 .1-.1.1-.1.1-.2.2-.2.3-.1.1-.1.2-.2.3-.2.4-.5.7-.8 1-.1.1-.2.2-.3.4s-.3.5-.5.7c-.1.1-.3.3-.4.4-.2.3-.5.5-.9.7-.3.2-.5.4-.7.7 0 .1-.1.1-.1.2-.1.2-.1.3 0 .4s.2.1.3 0v-.1c.2-.1.2-.3.4-.4.1-.1.2-.2.3-.3.1-.2.3-.4.5-.5.4-.3.7-.6.9-.9.3-.3.5-.7.8-.9.3-.3.5-.6.8-.9.1-.2.3-.3.4-.4.1-.4.1-.5 0-.6zm-2.5 5.6c.3-.2.6-.5.9-.9 0-.1.1-.1.1-.2.2-.3.3-.5.5-.7.1-.2.2-.3.3-.5.1-.1.1-.2.2-.3.3-.3.5-.6.6-1s.3-.7.4-1.1c0-.1 0-.1 0-.2s0-.1 0-.2 0-.1-.1-.1-.1 0-.1.1c0 .2-.1.4-.2.5-.1.3-.2.7-.4 1-.1.4-.3.7-.5 1.1-.1.2-.2.4-.4.7-.1.1-.2.2-.3.3-.2.2-.4.4-.7.7-.2.2-.3.4-.4.7 0 .1-.1.2-.1.2.1-.1.2-.1.2-.1zm1.3-3.9c-.3.3-.5.6-.8 1-.2.3-.5.6-.8.8-.2.1-.4.3-.5.6 0 .1-.1.2-.2.2-.1.1-.2.2-.2.3h.1c.3-.2.6-.3.9-.5.1-.1.2-.1.2-.3 0 0 0-.1.1-.1.3-.2.5-.5.7-.8.2-.2.4-.4.6-.6.1-.2.1-.4.2-.7-.2 0-.2.1-.3.1zm-6.7 1.3c-.2.2-.5.3-.7.4-.3.2-.6.5-.8.8-.1.1-.2.2-.3.3 0 .1-.1.1-.1.2.2-.1.3-.2.5-.3.1-.1.2-.1.3-.2.4-.2.6-.5.9-.7s.5-.5.7-.8c.1-.1.3-.2.4-.3-.2.3-.6.4-.9.6zm-6.6 14.9c-.2.1-.2-.1-.4-.1-.1.3-.3.4-.5.5-.1.1-.3.1-.4.2-.2.1-.3.2-.4.4h.3c.2.1.3 0 .4-.1s.2-.2.3-.3c.1-.2.3-.3.4-.4.2-.1.3-.3.5-.4 0-.1-.1 0-.1 0-.3 0-.5-.1-.7-.3-.1-.1-.3-.2-.5-.3.4.2.7.5 1.1.8zm11.7-12c-.1.1-.3.2-.4.3-.3.2-.6.4-.9.6 0 0-.1.1-.1.1-.2.1-.4.2-.6.4-.3.2-.4.4-.6.7.1-.1.2-.2.4-.2.2-.2.4-.3.6-.4s.3-.3.5-.4.3-.2.5-.3c.2-.3.4-.5.6-.8 0-.1 0-.1 0 0zm-11.2 3.3c.3-.3-.1-.4-.4.3.1-.1.3-.2.4-.3zm12.2-6.2c-.3.4-.5.7-.8 1.1-.1.1-.2.3-.3.4.1 0 .2-.1.2-.2.2-.2.4-.4.6-.6.3-.2.4-.5.6-.8.1-.1.1-.2.2-.4-.2.1-.3.3-.5.5zm1.9-3.1c.1.1.1.2.2.3h.1c.1 0 .1 0 .1-.1s0-.1 0-.2-.1-.2-.1-.2c0-.1-.1-.2-.2-.2-.1-.1-.2-.1-.3-.2-.1 0-.1-.1-.2-.1-.1-.1-.2-.2-.3-.3s-.2-.1-.4-.1v.1c0 .2.1.3.3.4.1 0 .2.1.2.1.2 0 .3.1.5.2 0 0 .1.1.1.3zm-18.1 20.6c-.1 0-.1 0-.2.1-.3.1-.6.3-.8.5-.3.2-.6.4-1 .5-.1 0-.1.1-.2.1h.1c.3-.1.7-.2 1-.4.1-.1.3-.1.4-.2.3-.1.5-.3.8-.5.1-.1.1-.1.2-.2-.2 0-.2.1-.3.1zm14.7-21.6c.1-.1.2-.2.3-.3s0-.2.1-.2h-.1c-.1 0-.3 0-.4.1 0 0 0 0-.1 0-.1.3-.2.5-.3.7.2-.1.4-.2.5-.3zm2.2 4.6c.2-.3.3-.6.5-.9.1-.1.1-.2.1-.3-.1 0-.1 0-.1.1-.2.3-.5.6-.6 1-.1.2-.2.4-.3.5s-.1.2-.2.3v.1c.2-.2.4-.5.6-.8zm-15 15.5c-.1 0-.1 0-.2.1-.3.2-.7.4-.9.8.4-.1 1-.6 1.1-.9zm1-1c.1-.1.1-.2.1-.3h-.1c-.1.2-.4.3-.5.4s-.2.2-.2.3c.2-.2.5-.3.7-.4zm3.7-2.4c0-.1 0 0 0 0-.3 0-.4.1-.6.3s-.4.4-.6.5c0 0-.1.1-.1.1.6-.3.9-.6 1.3-.9zm10.6-13.8c.1-.1.4-.6.4-.9-.3.2-.5.5-.4.9zm-16.4 17.9c-.3.1-.5.3-.6.5.2 0 .2 0 .6-.5zm6.5-15.4c-.1-.1-.2-.1-.2-.2s-.1 0-.1 0-.1 0-.1.1v.1s.1.1.1.1c.1.1.3.1.4.2.1-.3 0-.3-.1-.3zm-6.6 15.3c.2 0 .2-.1.3-.2l.3-.3c.1-.1.2-.2.3-.3-.3.3-.6.5-.9.8zm6.5-9.9c-.1 0-.1 0 0 0-.1 0-.1.1 0 0 0 .1 0 .2.2.3-.1-.1-.2-.2-.2-.3z"/><path d="m14.2 16.1c.1-.1.3-.2.4-.3.2-.1.3-.3.5-.5.3-.4.6-.6.8-.8.2-.1.2-.3.4-.5.1-.2.3-.4.4-.5.1.1.1.2.3.1 0-.1 0-.1-.1-.1s-.1-.1-.1-.2-.2-.2-.3-.2-.2 0-.3-.1c-.1 0-.3-.1-.4-.2 0 0 0 0-.1 0v.1s.1.1.1.1c.1.1.3.2.5.2h.2c.1 0 .1.1.1.2s-.1.2-.1.3c-.1.2-.3.3-.4.5s-.8.7-.9.8c-.2.2-.3.4-.4.5s-.2.2-.3.2c-.2.1-.3.2-.3.4z"/><path d="m10.2 23.1c-.1 0-.1 0-.1 0-.4.2-.8.5-1.1.8-.2.2-.5.4-.8.6-.2.2-.2.2-.3 0s-.2-.3-.3-.4c-.1-.2-.3-.2-.4-.3-.1.1 0 .1 0 .2.1.1.2.2.3.3v.2c-.1.1-.3.3-.4.4 0 .1-.1.2-.2.3-.3.3-.6.5-1 .8-.3.2-.6.4-.8.6-.1.1-.2.1-.2.3.1 0 .1-.1.2-.1.4-.3.7-.5 1.1-.8.3-.2.6-.5.9-.7.2-.2.4-.4.7-.6.1-.1.1-.1.2 0 0 0 0 .1.1.1-.1 0 .1.1.3.2h.1s.1 0 .1-.1c.2-.1.5-.3.7-.4.3-.2.6-.4.8-.7.1-.1.2-.2.4-.3 0 0 .1-.1.1-.1-.2.1-.4.2-.5.3-.2.1-.4.2-.5.4-.1.1-.3.2-.4.3-.2.1-.3.2-.5.3 0 0-.1 0-.1.1-.1 0-.2-.1-.3-.2v-.1h.1c.1 0 .4-.2.6-.5s.5-.5.8-.6c.1-.1.2-.2.4-.3z"/><path d="m16.6 16.9c-.2.2-.7.8-.9 1s-.3.3-.5.5c-.1.1-.2.3-.3.4 0 0-.1.1 0 .1h.1c.3-.4.6-.7.9-1 1.4-1.3 1.3-1.7.1-.6-.1.1-.2.2-.3.3-.1 0-.1.1-.2.2-.2.2-.4.4-.6.7-.1.1-.1.1-.1.2v.1h.1c.2-.3.5-.5.7-.8s.7-.8 1-1c0-.1.1-.2 0-.1z"/><path d="m11.9 20.5c.1-.1.2-.2.3-.2.5-.3.8-.7 1.2-1.2.1-.1.2-.2.3-.3h.1s.1 0 .1-.1 0-.1-.1-.1c0 0-.1-.1-.1-.1-.1-.1-.1-.2-.2-.2-.1-.1-.2-.1-.3-.2 0 0-.1-.1-.1 0v.1c.1.1.2.1.3.2.1 0 .2.1.2.2-.1 0-.1.1-.2.1s-.2.1-.2.1c-.3.2-.6.5-.9.7-.3.3-.6.5-.9.8-.2.2-.4.3-.5.5-.1.1-.1.1-.1.2.2-.3.5-.4.7-.7l.5-.5c.3-.2.5-.5.8-.7.2-.2.4-.4.7-.4h.1c-.1.2-.3.3-.4.5s-.3.3-.4.5c-.2.1-.3.3-.5.4-.1.1-.3.2-.4.4z"/><path d="m10.7 19.6 1.1-1.1c.3-.3.7-.6 1.1-.8h.1v.1c-.1.1-.1.2-.2.3-.5.5-1 1.1-1.5 1.6-.2.2-.4.4-.6.6-.1.2-.3.3-.5.4-.1 0-.2.1-.1.1.1.1.1 0 .2-.1.3-.2.5-.4.7-.6.4-.4.7-.8 1-1.1.2-.2.5-.5.7-.7.1-.1.3-.3.4-.4 0-.1.1-.1.1-.2v-.1h-.1c-.1 0-.2.1-.3.2-.3.2-.5.4-.7.6s-.4.4-.6.7c-.5 0-.7.2-.8.5z"/><path d="m10.8 22.4c0-.1 0-.1 0-.2-.1-.1-.2-.2-.2-.3-.1-.1-.2-.3-.4-.4s-.3-.3-.5-.5c0 0-.1-.1-.2-.1 0 0 0 .1.1.2l.5.5c-.3.1-.4.2-.6.4s-.4.4-.7.6c-.2.2-.4.3-.5.5-.1.1-.1.2-.2.3.1-.1.2-.1.2-.2.2-.2.5-.4.7-.7.2-.2.4-.4.6-.6 0 0 .1-.1.1-.1.2-.1.3-.1.5.1l.2.2c.2.1.3.2.4.3z"/><path d="m17.5 17.2c.2-.2.4-.4.6-.6.1-.1.2-.3.4-.4.1-.1.2-.3.3-.4-.1.2-.2.3-.3.4-.2.1-.3.3-.4.5-.3.2-.5.3-.6.5-.4.2-.2.1 0 0z"/><path d="m13.8 11.9c-.1.1-.2.3-.3.4-.3.3-.5.6-.6 1-.1.1-.1.2-.2.3-.2.3-.4.6-.5.9s.1-.1.1-.1c.2-.4.5-.7.7-1.1 0-.1.1-.1.1-.2.1-.3.3-.6.6-.8.1-.2.3-.6.1-.4z"/><path d="m15 19.3c.2-.1.3-.2.5-.4.4-.5.9-.9 1.3-1.4.4-.4-.3.2-.4.3-.3.3-.6.7-.9 1-.1.1-.3.2-.4.3s-.1.1-.1.2z"/><path d="m16.9 13c0-.2-.2-.2-.3-.3-.1 0-.2 0-.3 0-.2 0-.4-.1-.6-.3s-.2-.2-.4 0c-.2.1-.4.5-.3.4s.2-.2.3-.3h.2s.1.1.1.1c.2.1.5.2.8.3.1 0 .3 0 .4.1z"/><path d="m6.5 23.1c.1-.2.3-.3.4-.4.1-.2.3-.3.4-.6.1-.1.1-.2.2-.3.2-.3.3-.7.4-1s.3-.6.5-.8c.1-.1.2-.2.3-.2.1 0 .1-.1.1-.1 0-.1-.1 0-.2 0-.2.1-.4.2-.5.4-.1.1-.2.3-.3.4s-.1.2-.2.4c-.2.4-.3.8-.5 1.2-.1.2-.2.4-.4.6-.1.1-.2.2-.3.4.1-.1.1-.1.1 0z"/><path d="m15.8 16.3c-.2.2-.5.5-.7.7-.1.1-.2.2-.3.3-.2.2-.3.3-.5.4-.1 0-.1.1-.1.2.2-.1.3-.2.5-.3.3-.3.5-.5.7-.8.1-.2.3-.3.4-.4.4-.4.2-.4 0-.1z"/><path d="m13.5 17.4c.1 0 .1-.1.1-.1.2-.3.5-.7.7-1s.5-.5.7-.7c0 0 .1-.1.1-.1.3-.3.4-.5.2-.3s-.4.5-.6.7-.5.5-.7.7-.4.5-.6.7c.1 0 .1.1.1.1z"/><path d="m8.9 18.4c.2-.3.4-.5.5-.7.2-.3.4-.5.7-.7 0 0 .1-.1.1-.1.1-.1.3-.2.4-.3s.3-.2.4-.3c.2-.3.5-.5.6-.9 0-.1.1-.2.1-.3-.1 0-.1.1-.1.1-.2.5-.6.9-1 1.3-.4.3-.7.6-1 .9-.2.2-.3.4-.5.6 0 .1-.1.2-.2.4z"/><path d="m7.9 24.2s.1-.1.1-.2c.2-.3.5-.5.8-.7.4-.3.7-.6 1.1-.9.2-.2.3-.2.5 0 .1 0 .1.1.2.2l.2.2h.1s0 0 0-.1c-.2-.2-.4-.5-.7-.5-.1 0-.1 0-.1 0-.2.1-.3.3-.5.4s-.4.3-.6.4c-.3.3-.6.5-.8.8-.1.1-.3.2-.3.4z"/><path d="m17.5 16.7c.2-.2.3-.3.5-.5 0 0 .1 0 0-.1h-.1c-.1.1-.3.2-.4.4-.2.3-.4.6 0 .2z"/><path d="m12.1 16.7c-.1 0-.1 0-.1.1-.2.3-.4.5-.6.7-.4.4-.9.9-1.3 1.3 0 0-.1.1-.1.1-.2.2-.4.5-.5.7-.1.1-.2.3-.3.4.1 0 .1 0 .1-.1.1-.2.3-.4.4-.5s.2-.2.3-.4c.2-.2.4-.4.6-.6.3-.3.6-.6.9-.9.1-.1.3-.3.4-.4s.1-.2.2-.4z"/><path d="m17.3 16.3c.1-.1.3-.2.4-.3s.3-.2.4-.3c.2-.1.4-.3.5-.5s.3-.4.5-.7c.1-.1.2-.2.3-.2.2-.2.3-.4.5-.5.1-.1.3-.2.4-.3s.1 0 0-.1h-.1c-.1.1-.2.1-.2.2-.2.1-.3.3-.4.4s-.3.3-.4.4-.2.2-.3.4-.3.4-.4.6c-.1.1-.2.3-.4.4-.1 0-.1.1-.2.2-.3-.1-.4.1-.6.3z"/><path d="m17.6 9.5c-.1 0-.1.1-.1.1-.2.3-.5.6-.8.8-.4.3-.7.5-1.1.7-.2.1-.3.2-.5.3 0 0-.1.1-.1.1h.1c.2-.2.4-.3.6-.4.4-.2.8-.4 1.2-.7.2-.2.4-.3.5-.5.1 0 .1-.2.2-.4z"/><path d="m15.9 13c-.1 0-.1.1-.1.1-.2.3-.5.6-.8.8-.4.3-.7.5-1.1.7-.2.1-.3.2-.5.3 0 0-.1.1-.1.1h.1c.2-.2.4-.3.6-.4.4-.2.8-.4 1.2-.7.2-.2.4-.3.5-.5.1-.1.1-.2.2-.4z"/><path d="m16.8 18.2c-.2.2-.3.3-.5.5-.1.1-.2.2-.3.3s-.1.1-.2.1-.2.1-.3.2c0 0-.1 0 0 .1 0 .1.1 0 .1 0 .1 0 .1-.1.2-.1.2-.1.3-.2.4-.3s.2-.2.4-.3l.3-.3c0-.3 0-.4-.1-.2z"/><path d="m7.6 23.6c.1-.2.3-.3.4-.4.3-.4.7-.7 1.1-1.1.2-.2.4-.3.6-.4 0 0 0 0 0-.1 0 0 0 0-.1 0-.2.1-.4.2-.5.4-.2.2-.5.5-.7.7s-.4.4-.6.6c-.2.1-.2.2-.2.3z"/><path d="m5.7 26.7c.3-.1.5-.3.8-.4s.5-.3.7-.4c.2-.2.4-.3.7-.5.1-.1.2-.1.2-.2 0 0 .1-.1 0-.1s-.2.1-.2.2c-.2.2-.4.3-.5.4-.2 0-.4.2-.6.3-.1.1-.2.1-.3.2-.3.1-.5.3-.7.4-.1-.1-.1 0-.1.1z"/><path d="m15.7 15.7c-.1 0-.1 0-.2.1s-.3.3-.4.4-.3.3-.4.4c-.3.3-.6.6-.8.9 0 0-.1.1 0 .1.6-.7 1.2-1.2 1.8-1.9z"/><path d="m19 15.8c.2-.4.3-.6.6-.9.3-.4.6-.8.9-1.1.1-.1.1-.1.1-.2-.1 0-.1.1-.1.1-.2.3-.4.5-.6.7-.2.3-.5.6-.7 1-.1.1-.2.2-.2.4 0-.1 0 0 0 0z"/><path d="m13.7 13.2c.1 0 .1-.1 0 0 .2-.4.3-.6.6-.9.3-.4.6-.8.9-1.1.1-.1.1-.1.1-.2-.1 0-.1.1-.1.1-.2.3-.4.5-.6.7-.2.3-.5.6-.7 1-.1 0-.2.2-.2.4 0-.1 0 0 0 0z"/><path d="m8.2 24.2c.2-.2.4-.4.6-.5.2-.2.4-.4.7-.6.2-.2.4-.3.6-.4 0 0 .1 0 .1-.1 0 0 0 0 0-.1 0 0 0 0-.1 0-.2.1-.3.2-.4.3-.3.2-.5.4-.7.6s-.4.4-.6.5c-.1 0-.2.1-.2.3z"/><path d="m27 4c-.1.1-.3.3-.5.4-.1.1-.2.2-.4.2v.1h.1c.1 0 .1-.1.1-.1.4-.2.7-.5 1-.8 0 0 .1-.1.1-.1v-.1h-.1c-.1.1-.2.2-.3.4z"/><path d="m10.2 23.1.2-.2c-.1.1-.2.1-.2.2z"/><path d="m13.2 21c0 .1 0 .1 0 0z"/><path d="m14.1 21.1c0 .1-.1.1 0 0-.1.1 0 .1 0 0z"/></g></svg>