<?xml version="1.0" encoding="utf-8"?>
<!-- Generator: Adobe Illustrator 22.0.1, SVG Export Plug-In . SVG Version: 6.00 Build 0)  -->
<svg version="1.1" id="Layer_1" xmlns="http://www.w3.org/2000/svg" xmlns:xlink="http://www.w3.org/1999/xlink" x="0px" y="0px"
	 viewBox="0 0 30 31.2" style="enable-background:new 0 0 30 31.2;" xml:space="preserve">
<style type="text/css">
	.st0{fill:#F39F4E;}
</style>
<g>
	<path class="st0" d="M8.1,1.5C8.1,1.8,8,2,7.7,2.2C7.6,2.2,7.5,2.3,7.4,2.3C6.8,2.5,6.3,2.8,5.7,3.2c-0.1,0-0.1,0.1-0.1,0.2
		c0.2,0,0.4-0.1,0.6-0.2C6.4,3.1,6.7,3,6.9,3C7,3,7,3,7.1,3C7.8,3.1,8.4,3,9,2.8c0.5-0.1,1-0.2,1.5-0.2c0.5,0,1,0.1,1.5,0.3
		C12.3,3,12.5,3,12.7,3.2c0.5,0.3,1.1,0.5,1.6,0.7c0.5,0.2,0.9,0.5,1.3,0.8c0.3,0.2,0.6,0.4,0.9,0.7c0,0,0,0,0,0
		c0.5,0.3,0.9,0.7,1.3,1.1c0.4,0.3,0.7,0.6,1.1,1c0.1,0.1,0.2,0.1,0.3,0c0.1-0.1,0.3-0.3,0.4-0.4c0-0.1,0.1-0.1,0.2-0.1
		c-0.1,0.2-0.3,0.4-0.4,0.6c-0.2,0.2-0.2,0.2,0,0.4c0.1,0.1,0.3,0.2,0.5,0.2c0.2,0,0.3,0.1,0.5,0.1c0.2,0.1,0.4,0.2,0.6,0.3
		c0.2,0.2,0.5,0.4,0.7,0.6c0,0.1,0.1,0.1,0.2,0.1c0.2,0.1,0.3,0.2,0.3,0.5c0,0.1,0,0.2,0.1,0.3c0.2,0.2,0.3,0.4,0.4,0.6
		c0.1,0.2,0.2,0.4,0.4,0.6c0.3,0.4,0.6,0.8,0.9,1.2c0.4,0.5,0.7,1,1,1.5c0.1,0.1,0.2,0.3,0.2,0.4c0.3,0.7,0.6,1.4,0.9,2.1
		c0.1,0.2,0.1,0.5,0.1,0.8c0,0.1,0,0.2,0,0.2c0.2,0.6,0.2,1.1,0.2,1.7c0,0.2,0.1,0.5,0.1,0.7c0.1,0.3,0.2,0.6,0.2,0.9
		c0,0.2,0.1,0.3,0.2,0.4c0.3,0.4,0.6,0.9,0.8,1.3c0.3,0.7,0.5,1.5,0.4,2.3c0,0.2,0,0.3-0.1,0.4c-0.1,0.1,0,0.2,0.1,0.3
		c0.2,0.1,0.4,0.3,0.5,0.5c0.3,0.2,0.4,0.6,0.4,0.9c0.1,1,0.3,1.8,0.9,2.6c0,0,0,0,0,0.1c-0.2-0.1-0.3-0.2-0.3-0.4
		c-0.1-0.2-0.2-0.4-0.3-0.7c0-0.1,0-0.2-0.2-0.2c-0.1,0-0.1-0.2-0.1-0.2c0-0.3-0.1-0.6-0.2-0.9c-0.1-0.3-0.3-0.6-0.5-0.8
		c-0.2-0.2-0.3-0.4-0.5-0.6c0,0-0.1-0.1-0.1-0.1c-0.1,0,0,0.1,0,0.2c0,0,0,0,0,0c0.4,0.6,0.5,1.3,0.5,2c0,0.1,0,0.3-0.1,0.4
		c0-0.5-0.1-1-0.2-1.5c-0.1-0.3-0.2-0.6-0.4-0.8c0,0-0.1-0.1-0.1,0c0,0,0,0.1,0,0.1c0,0.1,0,0.1,0.1,0.2c0.1,0.3,0.1,0.7,0,1
		c-0.1,0.4-0.1,0.9-0.3,1.3c0,0.1,0,0.1-0.1,0.2c0,0,0,0.1-0.1,0.1c-0.1,0-0.1-0.1-0.1-0.1c0-0.1,0-0.2,0-0.2c0.1-0.5,0.2-1,0.3-1.6
		c0-0.2,0-0.5-0.1-0.7c0-0.1-0.1-0.1-0.2-0.1c-0.7,0.3-1.3,0.1-1.9-0.2c-0.4-0.2-0.8-0.5-1-0.9c-0.2-0.2-0.4-0.4-0.5-0.6
		c-0.2-0.2-0.4-0.3-0.7-0.3c-0.4,0-0.8-0.1-1.3,0c-0.1,0-0.1,0-0.2,0c-0.6,0-1.3-0.1-1.9-0.1c-0.3,0-0.7-0.1-0.9-0.4
		c-0.2-0.2-0.4-0.2-0.5-0.4c0-0.1-0.1,0-0.2,0c-0.4,0-0.7-0.1-1-0.3c-0.2-0.1-0.4-0.2-0.6-0.3c0,0-0.1,0-0.1,0
		c-0.5,0-0.9-0.2-1.4-0.4c-0.5-0.2-0.8-0.4-1.1-0.8c-0.1-0.2-0.3-0.3-0.5-0.3c-0.2,0-0.3-0.2-0.6-0.2c0.1,0.6,0.2,1.1,0.1,1.7
		c0-0.2,0-0.3,0-0.5c0,0,0-0.1,0-0.1C12.7,21,12.7,21,12,20.7c-1-0.4-1.8-1.1-2.4-2c-0.1-0.1-0.1-0.2-0.1-0.3
		C9.4,18.1,9.2,18,9,17.9c-0.1,0-0.2-0.1-0.2-0.1C8.3,17.5,8,17.3,7.6,17c-0.3-0.2-0.5-0.5-0.6-0.8c-0.1-0.3-0.2-0.5-0.4-0.8
		c-0.3-0.7-0.6-1.4-1-2.1c-0.4-0.7-0.7-1.4-1-2.1c-0.3-0.7-0.7-1.5-1-2.2C3.6,8.8,3.5,8.6,3.4,8.5c0,0-0.1-0.1-0.1-0.2
		C3.1,7.8,2.8,7.3,2.7,6.7c0,0,0,0-0.1-0.1C2.4,6.9,2.1,7.1,1.8,7.3C1.6,7.5,1.4,7.6,1.1,7.7C1.1,7.8,1,7.8,1,7.8c0,0-0.1,0-0.1,0
		c0,0,0-0.1,0-0.1C1,7.5,1.2,7.4,1.4,7.3c0.5-0.2,0.9-0.5,1.2-1c0.1-0.1,0.2-0.3,0.3-0.5C2.5,5.8,2.3,6,2.1,6.1
		C1.9,6.2,1.7,6.4,1.6,6.6C1.5,6.7,1.4,6.8,1.1,6.8c0.3-0.2,0.4-0.5,0.5-0.7c0.2-0.3,0.6-0.5,0.9-0.5c0.2,0,0.4-0.1,0.6-0.3
		C3.1,5.2,2.9,5.2,2.8,5.2C2.2,5.1,1.7,4.8,1.2,4.4C0.8,4,0.4,3.7,0,3.3c0.2,0.1,0.4,0.3,0.6,0.5c0.4,0.4,0.8,0.7,1.2,1
		C2.3,4.9,2.7,5,3.2,5.1C3.4,5.1,3.5,5,3.7,5c0.1,0,0.2-0.5,0.1-0.6C3.6,4.1,3.4,4,3.2,4C3,4,2.8,3.9,2.7,3.8
		c-0.1,0-0.1-0.1-0.2-0.2C3,3.8,3.6,3.8,4,4.3c0.1,0.1,0.2,0.1,0.3,0C4.4,4.2,4.6,4,4.8,3.9c0,0,0.1-0.1,0.1-0.1
		c0-0.2,0.2-0.3,0.3-0.4c0.8-0.6,1.6-1,2.5-1.3C7.8,1.9,8,1.7,8.1,1.5z M21.2,23.9L21.2,23.9c0.3,0.1,1.1,0.1,1.3-0.1
		c-0.3-0.2-0.3-0.5-0.7-0.5c0.1-0.1,0.1-0.2,0-0.3c-0.1-0.1-0.1-0.2-0.2-0.3c-0.2-0.2-0.2-0.4-0.2-0.6c0-0.3,0-0.6,0.1-0.9
		c0-0.2,0-0.3,0.1-0.5c0,0.3,0,0.6,0,0.9c0,0.5,0.1,0.9,0.4,1.2c0.4,0.4,0.7,0.8,1.2,1c0.4,0.1,0.6,0.4,0.9,0.7
		c0.1,0.2,0.3,0.3,0.4,0.5c0.4,0.5,0.9,0.8,1.4,1c0.3,0.1,0.5,0.2,0.8,0.1c0.1,0,0.3,0,0.4-0.1c0-0.1-0.1-0.2-0.2-0.3
		c-0.1-0.1-0.2-0.2-0.2-0.3c0.2,0,0.3,0.1,0.3,0.2c0.1,0.1,0.2,0.2,0.2,0.3c0,0,0.1,0.1,0.1,0c0-0.1,0-0.2,0.2-0.2
		c0.1,0,0.1-0.1,0.1-0.2c0-0.1-0.1-0.1-0.2-0.2c0-0.1-0.1-0.1,0-0.2c0.1-0.1,0.1,0,0.2,0c0.1,0.1,0.1,0.2,0.2,0.2
		c0.1,0,0.1-0.1,0.1-0.1c0.1-0.3,0.1-0.7,0.1-1c-0.1-0.7-0.3-1.4-0.7-2c-0.1-0.2-0.2-0.3-0.3-0.4c-0.4-0.2-0.8-0.3-1.2-0.1
		c-0.8,0.3-1.6,0.7-2.1,1.5c0,0.1-0.1,0.1-0.2,0.2c0,0,0,0-0.1,0c0.2-0.4,0.5-0.7,0.8-1c0.3-0.3,0.7-0.5,1.1-0.7
		c0.4-0.2,0.8-0.2,1.3-0.2c-0.1-0.4-0.3-0.8-0.4-1.2c0,0,0-0.1-0.1-0.1c-0.4-0.4-0.8-0.5-1.4-0.5c-0.4,0-0.6,0.2-0.9,0.4
		c-0.1,0-0.1,0.1-0.2,0c0.1-0.2,0.3-0.3,0.5-0.4c0.2-0.1,0.4-0.2,0.6-0.2c0.2,0,0.5,0,0.7,0c0.2,0,0.4,0.2,0.6,0.2
		c-0.2-0.3-0.4-0.5-0.7-0.5c-0.6-0.1-1.2-0.1-1.7,0.1c-0.2,0.1-0.3,0.1-0.6,0.1c0.3-0.3,0.7-0.4,1-0.5c0.7-0.1,1.4-0.1,2,0.3
		c0-0.2,0-0.4,0-0.6c-0.1-0.7-0.3-1.3-0.4-2c0-0.1-0.1-0.2-0.1-0.2c-0.1-0.1-0.2-0.3-0.3-0.4c-0.3-0.3-0.7-0.6-1.1-0.7
		c-0.2,0-0.4-0.1-0.5-0.1c-0.3-0.1-0.6-0.1-0.9,0c-0.4,0.1-0.7,0.3-1,0.6c-0.1,0.1-0.2,0.1-0.3,0.1c0,0,0-0.1,0.1-0.1
		c0.3-0.3,0.7-0.6,1.1-0.8c0.4-0.2,0.7-0.2,1.1-0.1c0.2,0.1,0.3,0.1,0.5,0.1c0.2,0,0.4,0.1,0.6,0.3c0.2,0.1,0.4,0.3,0.6,0.4
		c-0.3-0.8-0.7-1.5-1.1-2.1c-0.2-0.3-0.4-0.5-0.6-0.8c-0.7-0.9-1.4-1.9-2-2.9c-0.2-0.2-0.4-0.4-0.7-0.4c-0.3-0.1-0.5-0.1-0.8-0.1
		c-0.4,0-0.8,0-1.2,0.2c-1,0.4-1.7,1.1-2.2,2.1c-0.1,0.2-0.2,0.4-0.3,0.5c-0.4,0.6-0.7,1.2-0.8,1.9c-0.1,0.3-0.1,0.6-0.2,0.9
		c-0.1,0.3-0.1,0.5-0.2,0.8c0-0.1,0-0.2,0-0.3c0.1-0.4,0.1-0.7,0.2-1.1c0.1-0.5,0.1-0.9,0.3-1.3c0.2-0.4,0.4-0.8,0.7-1.2
		c0.1-0.2,0.2-0.4,0.3-0.7c-0.9,0.9-1.8,1.9-2.3,3.1c0-0.1,0-0.1,0-0.2c0.2-0.5,0.4-1,0.8-1.5c0.3-0.4,0.7-0.9,1-1.3
		c0.4-0.5,0.9-0.9,1.3-1.3c0.3-0.3,0.6-0.5,1-0.6C19,9.1,19.5,9,20,9c0.2,0,0.5,0,0.8-0.1c-0.2-0.2-0.5-0.3-0.7-0.4
		c-0.3-0.1-0.5-0.1-0.7-0.3c-0.2-0.2-0.4-0.4-0.8-0.3c-0.2,0.1-0.4,0-0.6-0.1c-0.1,0-0.1-0.1,0-0.1c0.1,0,0.3,0,0.4,0
		c0.1,0.1,0.3,0.1,0.5,0.1c-0.2-0.2-0.3-0.4-0.4-0.5C18,7,17.7,6.8,17.4,6.4c-0.1-0.1-0.2-0.2-0.3-0.2l0,0C17,6,16.8,6,16.7,5.9
		c-0.1-0.1-0.2-0.2-0.4-0.1c0,0-0.1,0-0.1,0c-0.2-0.2-0.5-0.1-0.8-0.1c-0.2,0-0.5,0-0.7,0c-0.4,0-0.7,0-1.1,0.1
		c-0.8,0.2-1.5,0.7-2.2,1.1c-0.5,0.3-0.8,0.7-1.1,1.1c-0.1,0.1-0.1,0.2-0.2,0.1c0.2-0.6,0.6-1,1-1.4c0.5-0.4,1.1-0.6,1.6-1
		c0.6-0.4,1.3-0.5,2-0.5c0.4,0,0.9,0,1.3,0c0,0,0.1,0,0.1,0c-0.1-0.1-0.2-0.2-0.3-0.3c-0.2-0.2-0.4-0.4-0.6-0.5
		c-0.2-0.1-0.4-0.3-0.7-0.2c0,0-0.1,0-0.1,0c-0.4-0.1-0.7-0.3-1-0.4c-0.5-0.3-0.9-0.3-1.4-0.3C11.2,3.7,10.6,4,10,4.3
		C9.8,4.5,9.5,4.6,9.3,4.8C8.9,5.2,8.4,5.5,8,5.9C7.8,6,7.6,6.2,7.5,6.4C7.1,7,6.7,7.7,6.3,8.3C6,8.7,5.8,9.2,5.8,9.6
		c0,0.3,0,0.6,0,0.9c0,0.2,0,0.3-0.1,0.5c0-0.2,0-0.4,0-0.5c0-0.8,0.1-1.5,0.5-2.2c0.4-0.6,0.8-1.2,1.2-1.8C7.4,6.2,7.7,5.9,8,5.6
		c0.3-0.2,0.7-0.5,1-0.8c0.2-0.1,0.3-0.3,0.5-0.4c0.3-0.2,0.6-0.4,1-0.6c0.4-0.2,0.9-0.4,1.3-0.4c0.2,0,0.4,0,0.6-0.1
		c0-0.1-0.1-0.1-0.1-0.1C11.2,2.8,10.1,2.8,9,3.1C8.6,3.2,8.3,3.3,8,3.3c-0.1,0-0.2,0-0.3,0.1C7.3,3.6,6.8,3.8,6.5,4.2
		C6.4,4.2,6.3,4.3,6.3,4.4c0,0,0,0,0,0c0.2-0.2,0.4-0.5,0.6-0.7C6.6,3.6,6.4,3.8,6.2,3.9C6.1,4,5.9,4.1,5.7,4.2C5.8,4,6,3.9,6.1,3.8
		c0.2-0.1,0.3-0.2,0.5-0.3C6.8,3.4,7,3.4,7.1,3.3c-0.1,0-0.1,0-0.2,0c-0.1,0-0.1,0-0.2,0C6,3.5,5.3,3.7,4.7,4.2
		C4.6,4.4,4.4,4.5,4.2,4.7C4.1,4.7,4.1,4.8,4,4.9C4,5,4,5.1,3.9,5.2C3.6,5.4,3.4,5.8,3.2,6.1C2.9,6.7,2.9,7.4,3.4,7.9
		c0.1-0.3,0.2-0.7,0.5-1c-0.1,0.2,0,0.4-0.1,0.6c-0.1,0.3-0.1,0.6-0.1,1c0,0.1,0,0.2,0.1,0.3c0.5,1.1,1,2.2,1.5,3.3
		c0.2,0.5,0.5,0.9,0.7,1.4c0,0.1,0,0.2,0.2,0.2C6,13.2,6,12.9,5.9,12.5c-0.1-0.4,0-0.7,0.2-1.1c0.2-0.3,0.3-0.7,0.4-1.1
		c0-0.1,0-0.1,0.1-0.2c-0.1,0.4-0.1,0.8-0.3,1.1c-0.2,0.5-0.3,0.9-0.2,1.4c0.1,0.5,0.2,1,0.4,1.5c0,0.1,0.1,0.3,0.1,0.4
		c0.1,0.3,0.1,0.6,0.3,0.9c0.1,0.2,0.2,0.4,0.3,0.6c0.1,0.4,0.4,0.6,0.7,0.8c0.4,0.3,0.8,0.5,1.3,0.7c-0.2-0.5-0.2-0.7-0.1-1
		c0,0.4,0.1,0.7,0.3,0.9c0,0,0,0.1,0,0.1c0.1,0.4,0.4,0.8,0.6,1.1c0.6,1,1.5,1.5,2.6,1.9c0,0,0.1,0,0.2,0c-0.5-0.8-0.6-1.6-0.7-2.5
		c-0.1-0.8,0-2.3,0.2-2.6c0,0,0,0,0,0c0,0.1,0,0.1,0,0.2C12,17,12,18.2,12.4,19.5c0.1,0.4,0.3,0.7,0.5,1.1c0.1,0.1,0.2,0.2,0.4,0.2
		c-0.5-0.9-0.8-1.6-0.9-2.3c-0.1-0.6,0.1-2.1,0.3-2.3c0,0.2-0.1,0.5-0.1,0.7c-0.1,0.6-0.2,1.1,0,1.7c0.2,0.9,0.6,1.6,1.1,2.3
		c0.2,0.3,0.4,0.6,0.7,0.8c0.5,0.3,1,0.5,1.6,0.7c-0.1-0.2-0.2-0.4-0.4-0.5c-0.3-0.3-0.5-0.6-0.7-1c-0.3-0.7-0.4-1.4-0.3-2.2
		c0-0.1,0.1-0.2,0.1-0.4c0,0.1,0,0.1,0,0.1c0,0.1,0,0.2,0,0.4c0,0.6,0,1.3,0.3,1.9c0.2,0.3,0.4,0.6,0.6,0.9c0.4,0.6,1,1.1,1.6,1.4
		c0.2,0.1,0.4,0.2,0.7,0.2c-0.1-0.2-0.1-0.4-0.2-0.5c-0.1-0.3-0.2-0.5-0.2-0.8c-0.1-0.7,0-1.3,0-2c0.1,0.1,0.1,0.1,0.1,0.2
		c0,0.4,0,0.8,0,1.2c0,0.8,0.3,1.5,0.8,2.1c0.2,0.3,0.5,0.4,0.8,0.6c0.1,0.1,0.3,0.1,0.4,0.1c0.1,0,0-0.1,0-0.1c0-0.1,0-0.2,0.1-0.2
		c0.1,0,0.1,0,0.2,0.1c0,0,0,0.1,0,0.1c0,0.1,0,0.1,0.1,0.1C20.3,23.8,20.8,23.9,21.2,23.9z"/>
	<path class="st0" d="M19.7,23.2c0,0-0.1,0-0.1,0c-0.1,0-0.1,0.1-0.1,0.1c0,0,0,0.1,0.1,0.1c0.1,0,0.1,0,0.1-0.1
		C19.7,23.3,19.7,23.2,19.7,23.2c0-0.1,0.1-0.2,0-0.2c0,0,0-0.1-0.1,0c0,0-0.1,0-0.1,0.1C19.6,23.1,19.7,23.1,19.7,23.2z M16.4,6.8
		c-0.1,0-0.2-0.1-0.2,0.1c0,0.1,0,0.3,0.2,0.4c0.1-0.1,0-0.1,0-0.2C16.3,7,16.3,6.9,16.4,6.8c0,0,0-0.1,0.1-0.1c0-0.1,0-0.1-0.1-0.2
		c0,0-0.1,0-0.1,0C16.2,6.6,16.3,6.7,16.4,6.8C16.3,6.8,16.4,6.8,16.4,6.8z M8.7,12.6c0.1,0,0.2,0,0.2-0.1c0-0.2-0.2-0.1-0.2-0.2
		C9,12.2,8.9,12.6,9,12.8c0.1,0,0.1,0,0.1-0.1c0-0.3,0-0.7-0.2-1c-0.1-0.1-0.2-0.1-0.3,0c-0.1,0.1-0.1,0.2-0.3,0.2
		c-0.1,0-0.1,0-0.1,0c-0.1,0-0.1,0.1,0,0.1c0.2,0.1,0.1,0.2,0.2,0.3c0,0.1,0,0.1,0.1,0.1C8.5,12.5,8.6,12.6,8.7,12.6
		C8.7,12.6,8.7,12.7,8.7,12.6c0,0.1,0,0.2,0,0.2c0,0,0,0,0.1,0C8.8,12.8,8.7,12.7,8.7,12.6C8.7,12.7,8.7,12.6,8.7,12.6z M25.2,17.2
		c-0.1-0.2-0.3-0.3-0.5-0.3c-0.1,0-0.2-0.1-0.3-0.1c-0.2-0.2-0.4-0.3-0.6-0.5c-0.2-0.2-0.6-0.4-0.9-0.3c-0.2,0.1-0.4,0.1-0.6,0.2
		c-0.5,0.2-0.9,0.4-1.2,0.9c-0.2,0.3-0.3,0.6-0.4,0.9c0,0-0.1,0.1,0,0.2c0.1-0.1,0.1-0.3,0.2-0.4c0.1-0.3,0.3-0.5,0.5-0.7
		c0.5-0.5,1.2-0.7,1.9-0.7c0.3,0,0.4,0.2,0.6,0.3c-0.4,0.1-0.7,0.3-1.1,0.4c-0.1,0-0.3,0.1-0.4,0.2c-0.5,0.3-0.8,0.8-1,1.4
		c-0.1,0.2-0.1,0.4-0.1,0.6c0.1-0.2,0.2-0.4,0.3-0.6c0.2-0.6,0.7-1.1,1.3-1.3c0.3-0.1,0.6-0.2,0.9-0.2c0.1,0,0.1,0,0.1,0
		c0.1-0.1,0.2-0.1,0.2,0C24.5,17,24.9,17.1,25.2,17.2z M17.9,19.4c0.1-0.1,0.1-0.3,0.1-0.4c0-0.2,0-0.3,0-0.5c0-0.4,0.1-0.8,0.3-1.1
		c0.1-0.2,0.2-0.5,0.4-0.7c0-0.1,0.1-0.1,0-0.2c-0.2,0.2-0.3,0.5-0.5,0.7c-0.2,0.3-0.4,0.7-0.4,1C17.9,18.6,17.9,19,17.9,19.4
		C17.9,19.4,17.9,19.4,17.9,19.4z M24.6,23.8c0.2-0.2,0.3-0.4,0.4-0.6c0.2-0.4,0.4-0.7,0.8-1c0,0,0,0,0.1,0c0.1,0,0.1-0.1,0.1-0.2
		c0-0.1-0.1-0.1-0.2,0c-0.1,0-0.2,0.1-0.3,0.2C24.9,22.6,24.7,23.2,24.6,23.8z M14.3,17.2c0.1-0.3,0.1-0.6,0.2-0.9
		c0.1-0.6,0.2-1.2,0.5-1.7c0,0,0-0.1,0-0.1c0,0-0.1,0-0.1,0c-0.1,0.1-0.1,0.2-0.2,0.3c-0.2,0.7-0.4,1.5-0.4,2.2
		C14.2,17.1,14.2,17.2,14.3,17.2z M13.8,18c0.1-0.8,0.1-1.5,0.3-2.1c0,0,0-0.1,0-0.1c-0.1,0-0.1,0-0.1,0.1c-0.1,0.3-0.2,0.6-0.2,0.9
		C13.6,17.2,13.7,17.5,13.8,18z M15.3,6.1c0-0.1-0.1-0.1-0.2-0.1C15,6,15,6,15,6.1c0,0.1,0.1,0.1,0.2,0.1
		C15.2,6.2,15.3,6.1,15.3,6.1z M9,15.4C8.9,15.4,8.9,15.3,9,15.4c-0.1,0-0.2,0-0.2,0.1c0,0-0.1,0.1,0,0.1c0,0,0.1,0,0.1,0
		C8.8,15.5,9,15.5,9,15.4z M16.6,6.2c0-0.1-0.1-0.1-0.2-0.2c0,0-0.1,0-0.1,0c0,0.1,0,0.1,0,0.1C16.4,6.2,16.4,6.4,16.6,6.2
		C16.6,6.3,16.6,6.2,16.6,6.2z M20,15.6c0.1-0.1,0.1-0.2,0.1-0.2c0-0.1,0-0.1-0.1-0.1c-0.1,0-0.1,0-0.1,0.1
		C19.9,15.4,19.9,15.5,20,15.6z M20.4,15.6c0-0.1,0-0.1-0.1-0.1c-0.1,0-0.1,0.1-0.1,0.1c0,0.1,0,0.1,0.1,0.1
		C20.4,15.7,20.4,15.7,20.4,15.6z M18.6,10.9c0.1,0,0.1-0.1,0.1-0.2c0,0,0-0.1-0.1-0.1c-0.1,0-0.1,0-0.1,0.1
		C18.5,10.9,18.6,10.9,18.6,10.9z M19.7,13.1c-0.1,0.1,0,0.2,0,0.3c0,0,0,0.1,0.1,0.1c0.1,0,0.1-0.1,0.1-0.1
		C19.8,13.3,19.8,13.2,19.7,13.1z M18.6,13.2c0.1,0,0.1-0.1,0.1-0.1c0-0.1-0.1-0.1-0.1-0.1c-0.1,0-0.1,0.1-0.1,0.1
		C18.5,13.2,18.5,13.2,18.6,13.2z M21.2,23.1C21.1,23,21.1,23,21.2,23.1c-0.1,0-0.2,0-0.2,0.1c0,0.1,0.1,0.1,0.1,0.1
		C21.2,23.2,21.2,23.1,21.2,23.1z M19.6,14.4c0-0.1-0.1-0.1-0.1-0.1c-0.1,0-0.1,0.1-0.1,0.1c0,0.1,0.1,0.1,0.1,0.1
		C19.5,14.5,19.6,14.5,19.6,14.4z M16.1,6.4C16.1,6.4,16.1,6.3,16.1,6.4c-0.1-0.1-0.2-0.1-0.2,0c0,0,0,0.1,0.1,0.1
		C16,6.5,16.1,6.5,16.1,6.4z M19.8,16c-0.1,0.1-0.1,0.2-0.2,0.2c0,0,0,0.1,0,0.1c0,0,0.1,0,0.1,0C19.8,16.3,19.8,16.2,19.8,16z
		 M14.8,6.8c0-0.1-0.1-0.1-0.1-0.1c0,0-0.1,0.1,0,0.1c0,0.1,0.1,0.1,0.1,0.1C14.8,6.9,14.8,6.8,14.8,6.8z M19,14.1
		C18.9,14.1,18.9,14,19,14.1c-0.2,0-0.2,0-0.2,0.1c0,0,0,0.1,0.1,0.1C18.9,14.2,19,14.2,19,14.1z M14.7,6.3c0,0.1,0.1,0.1,0.1,0.1
		c0.1,0,0.1-0.1,0.1-0.1c0,0,0-0.1-0.1-0.1C14.7,6.2,14.7,6.3,14.7,6.3z M20,16.5C20,16.6,20.1,16.6,20,16.5c0.1,0.1,0.2,0,0.2,0
		C20.2,16.5,20.2,16.4,20,16.5C20.1,16.4,20,16.5,20,16.5z M9.3,15.9c0-0.1,0-0.2,0-0.2c0-0.1-0.1-0.1-0.1,0c0,0-0.1,0.1,0,0.1
		C9.2,15.7,9.3,15.8,9.3,15.9z M21.6,12.9C21.6,12.9,21.5,12.8,21.6,12.9c-0.1,0-0.2,0-0.1,0.1c0,0,0,0.1,0.1,0.1
		C21.6,13,21.6,12.9,21.6,12.9z M12.8,6.6C12.8,6.5,12.8,6.5,12.8,6.6c-0.1-0.1-0.2,0-0.2,0c0,0.1,0,0.1,0.1,0.1
		C12.8,6.7,12.8,6.6,12.8,6.6z M15.1,6.4C15,6.4,15,6.5,15.1,6.4c-0.1,0.1,0,0.2,0,0.2C15.1,6.6,15.2,6.6,15.1,6.4
		C15.1,6.5,15.1,6.4,15.1,6.4z M20.7,23.7c0.1,0,0.1-0.1,0.1-0.1c0-0.1,0-0.1-0.1-0.1c-0.1,0-0.1,0.1-0.1,0.1
		C20.7,23.7,20.7,23.7,20.7,23.7z M19.9,23.3C19.9,23.3,19.9,23.3,19.9,23.3c0.2,0.1,0.2,0,0.2,0c0,0,0-0.1-0.1-0.1
		C19.9,23.2,19.9,23.2,19.9,23.3z M19.1,23.4c0.1,0,0.1-0.1,0.1-0.1c0,0,0-0.1-0.1-0.1c-0.1,0-0.1,0-0.1,0.1
		C19,23.4,19,23.4,19.1,23.4z M18.6,18C18.6,18,18.5,18,18.6,18c-0.2,0-0.2,0-0.2,0.1c0,0,0,0.1,0.1,0.1
		C18.6,18.2,18.6,18.1,18.6,18z M17.4,7c-0.1,0-0.1,0-0.1,0.1c0,0,0.1,0.1,0.1,0.1c0,0,0.1-0.1,0.1-0.1C17.5,7,17.4,7,17.4,7z
		 M14.9,7.8C15,7.8,15,7.7,15,7.7c0,0,0-0.1-0.1-0.1C14.9,7.6,14.9,7.7,14.9,7.8C14.9,7.8,14.9,7.8,14.9,7.8z M20,15.9
		c0.1,0,0.1-0.1,0.1-0.1c0,0,0-0.1-0.1-0.1C20,15.7,20,15.8,20,15.9C20,15.9,20,15.9,20,15.9z M9.6,15.4C9.6,15.3,9.6,15.3,9.6,15.4
		c-0.1,0-0.1,0-0.1,0c0,0,0,0.1,0.1,0.1C9.6,15.5,9.6,15.4,9.6,15.4z M19.4,16.7c0.1,0,0.1-0.1,0.1-0.1c0,0,0-0.1-0.1-0.1
		C19.4,16.5,19.3,16.5,19.4,16.7C19.3,16.6,19.4,16.7,19.4,16.7z M16.8,6.9C16.8,6.9,16.7,6.9,16.8,6.9c-0.1,0-0.2,0-0.1,0
		c0,0,0,0.1,0.1,0.1C16.8,7,16.8,7,16.8,6.9z M13.8,7.5c0-0.1-0.1-0.1-0.1-0.1c0,0-0.1,0-0.1,0.1C13.6,7.6,13.7,7.6,13.8,7.5
		C13.8,7.6,13.8,7.6,13.8,7.5z M19.7,16.8C19.7,16.7,19.7,16.7,19.7,16.8c-0.1,0-0.2,0-0.2,0.1c0,0,0,0.1,0.1,0.1
		C19.7,16.9,19.7,16.8,19.7,16.8z M9.7,14.9c0-0.1-0.1-0.1-0.1-0.1c0,0-0.1,0-0.1,0.1C9.5,15,9.6,15,9.7,14.9
		C9.7,15,9.6,14.9,9.7,14.9z M19.1,15.9C19.1,15.9,19,15.9,19.1,15.9c-0.1-0.1-0.2,0-0.2,0c0,0.1,0,0.1,0.1,0.1
		C19,16,19.1,16,19.1,15.9z M20.6,15.1c0.1,0,0.1-0.1,0.1-0.1c0,0,0-0.1-0.1-0.1C20.6,15,20.6,15,20.6,15.1
		C20.6,15.1,20.6,15.1,20.6,15.1z M15.3,8.1C15.2,8,15.2,8,15.3,8.1c-0.1-0.1-0.2,0-0.1,0C15.1,8.1,15.1,8.2,15.3,8.1
		C15.2,8.1,15.3,8.1,15.3,8.1z M18.9,15.2C18.8,15.1,18.8,15.1,18.9,15.2c-0.1-0.1-0.2,0-0.2,0c0,0,0,0.1,0.1,0.1
		C18.8,15.3,18.8,15.3,18.9,15.2z M19.3,13.7c0,0,0.1-0.1,0.1-0.1c0-0.1-0.1-0.1-0.1,0C19.2,13.5,19.2,13.6,19.3,13.7
		C19.2,13.7,19.2,13.7,19.3,13.7z M20.9,14.4C20.9,14.3,20.9,14.3,20.9,14.4c-0.1-0.1-0.2,0-0.2,0c0,0.1,0,0.1,0.1,0.1
		C20.9,14.5,20.9,14.4,20.9,14.4z M19.7,14.6C19.7,14.7,19.8,14.7,19.7,14.6c0.1,0,0.2,0,0.2-0.1c0,0-0.1-0.1-0.1-0.1
		C19.7,14.5,19.7,14.6,19.7,14.6z M7,10.7c-0.1,0-0.1,0.1-0.1,0.1c0,0.1,0,0.1,0.1,0.1c0,0,0-0.1,0-0.1C7.1,10.8,7.1,10.7,7,10.7z
		 M19.8,14c0,0-0.1-0.1-0.1-0.1c-0.1,0-0.1,0,0,0.1c0,0.1,0.1,0.1,0.1,0.1C19.8,14.1,19.8,14.1,19.8,14z M20.1,13.8
		C20,13.7,20,13.7,20.1,13.8c-0.1,0-0.2,0-0.2,0.1c0,0,0,0.1,0.1,0.1C20.1,13.9,20.1,13.8,20.1,13.8z M20.9,13.3
		C21,13.3,20.9,13.3,20.9,13.3c-0.1-0.1-0.1,0-0.1,0C20.8,13.4,20.8,13.4,20.9,13.3C20.9,13.4,20.9,13.4,20.9,13.3z M20.5,23.2
		C20.5,23.2,20.5,23.2,20.5,23.2c-0.1,0-0.2,0-0.1,0.1c0,0,0,0.1,0.1,0.1C20.5,23.4,20.5,23.3,20.5,23.2z M19.3,11.9
		C19.3,11.9,19.2,12,19.3,11.9c-0.1,0.1,0,0.2,0,0.2C19.4,12.1,19.4,12.1,19.3,11.9C19.4,12,19.4,11.9,19.3,11.9z M19.8,11.2
		C19.7,11.1,19.7,11.1,19.8,11.2c-0.2-0.1-0.2,0-0.2,0c0,0,0,0.1,0.1,0.1C19.7,11.3,19.7,11.2,19.8,11.2z M19.5,23
		C19.5,22.9,19.4,22.9,19.5,23c-0.1-0.1-0.2-0.1-0.2,0C19.3,23,19.4,23.1,19.5,23C19.5,23.1,19.5,23,19.5,23z M17,6.6
		c0-0.1-0.1-0.1-0.1-0.1c0,0-0.1,0,0,0.1C16.8,6.6,16.8,6.7,17,6.6C17,6.7,17,6.6,17,6.6z M19,17.9C19,17.9,19,17.9,19,17.9
		c0.1-0.2,0-0.2,0-0.1C18.9,17.8,18.9,17.8,19,17.9C18.9,17.9,18.9,17.9,19,17.9z M20,12.8c0,0,0.1-0.1,0.1-0.1c0-0.1-0.1-0.1-0.1,0
		C19.9,12.6,19.9,12.7,20,12.8C19.9,12.8,20,12.8,20,12.8z M15.3,6.7c0,0-0.1,0-0.1,0.1c0,0.1,0.1,0.1,0.1,0.1
		C15.4,6.9,15.4,6.8,15.3,6.7C15.4,6.7,15.3,6.7,15.3,6.7z M18.5,20.6c0-0.1,0-0.1-0.1-0.1c-0.1,0-0.1,0.1,0,0.1
		C18.4,20.6,18.4,20.7,18.5,20.6C18.5,20.7,18.5,20.6,18.5,20.6z M19.4,12.6c0-0.1-0.1-0.1-0.1-0.1c0,0-0.1,0-0.1,0.1
		C19.2,12.7,19.3,12.8,19.4,12.6C19.4,12.7,19.4,12.7,19.4,12.6z M20.4,22.2C20.4,22.2,20.4,22.1,20.4,22.2c-0.1-0.1-0.2,0-0.2,0
		c0,0,0,0.1,0.1,0.1C20.4,22.3,20.4,22.3,20.4,22.2z M19.1,11C19.1,11.1,19.2,11.1,19.1,11c0.2,0,0.2,0,0.2-0.1c0,0-0.1,0-0.1,0
		C19.1,10.9,19.1,11,19.1,11z M18.4,11.1c-0.1,0-0.1,0.1-0.1,0.1c0,0,0,0.1,0.1,0.1C18.5,11.3,18.5,11.3,18.4,11.1
		C18.5,11.2,18.5,11.1,18.4,11.1z M9.5,14.4C9.5,14.4,9.5,14.3,9.5,14.4c-0.1-0.1-0.1,0-0.1,0C9.3,14.5,9.4,14.5,9.5,14.4
		C9.5,14.5,9.5,14.5,9.5,14.4z M19,12.9C19,12.8,19,12.8,19,12.9c0.1-0.1,0-0.2,0-0.2C18.9,12.7,18.9,12.8,19,12.9
		C18.9,12.8,18.9,12.9,19,12.9z M9.1,14.9C9.1,14.8,9.1,14.8,9.1,14.9c-0.1,0-0.1,0-0.1,0C9,15,9,15,9.1,15
		C9.1,15,9.1,14.9,9.1,14.9z M8.8,14.5C8.9,14.5,8.9,14.4,8.8,14.5c0.1-0.1,0-0.2,0-0.2C8.8,14.3,8.7,14.4,8.8,14.5
		C8.7,14.5,8.8,14.5,8.8,14.5z M20.1,11.7C20,11.7,20,11.7,20.1,11.7c0,0.1,0,0.2,0,0.1C20.2,11.8,20.2,11.7,20.1,11.7
		C20.2,11.7,20.1,11.6,20.1,11.7z M18.6,12C18.6,11.9,18.5,11.9,18.6,12c-0.1-0.1-0.2,0-0.1,0C18.4,12,18.5,12.1,18.6,12
		C18.6,12.1,18.6,12,18.6,12z M9,13.9C9,13.8,9,13.8,9,13.9c-0.1-0.1-0.1,0-0.1,0C8.9,14,8.9,14,9,13.9C9,14,9,13.9,9,13.9z
		 M21.3,23C21.3,23.1,21.3,23.1,21.3,23c0.1,0.1,0.2,0,0.2,0C21.4,22.9,21.4,22.9,21.3,23C21.3,23,21.3,23,21.3,23z M19.9,22.4
		C19.9,22.4,19.9,22.5,19.9,22.4c0,0.1,0,0.2,0,0.2C20,22.6,20,22.5,19.9,22.4C20,22.4,20,22.4,19.9,22.4z M19.1,22.7
		C19.1,22.6,19.1,22.6,19.1,22.7c-0.1-0.1-0.1,0-0.1,0C19,22.7,19,22.8,19.1,22.7C19.1,22.8,19.1,22.7,19.1,22.7z M19.5,22.5
		C19.5,22.5,19.5,22.4,19.5,22.5c-0.1-0.1-0.2,0-0.2,0c0,0,0,0.1,0.1,0.1C19.5,22.6,19.5,22.6,19.5,22.5z M18.9,18.4
		C18.9,18.4,18.9,18.4,18.9,18.4c-0.1-0.1-0.2,0-0.2,0.1c0,0,0,0.1,0,0.1C18.9,18.5,18.9,18.5,18.9,18.4z M19.4,17.5
		c0,0,0.1-0.1,0.1-0.1c0-0.1,0-0.1-0.1-0.1C19.3,17.3,19.3,17.3,19.4,17.5C19.3,17.4,19.3,17.5,19.4,17.5z M18.9,17.3
		C18.9,17.3,19,17.3,18.9,17.3c0.1,0.1,0.2,0,0.2,0C19.1,17.2,19,17.2,18.9,17.3C19,17.2,18.9,17.2,18.9,17.3z M19.4,15.8
		C19.4,15.8,19.4,15.8,19.4,15.8c-0.1,0-0.2,0-0.2,0.1c0,0,0,0.1,0.1,0.1C19.4,15.9,19.4,15.9,19.4,15.8z M19.5,15.1
		c0-0.1,0-0.1-0.1-0.1c0,0-0.1,0-0.1,0.1C19.3,15.1,19.3,15.1,19.5,15.1C19.4,15.1,19.4,15.1,19.5,15.1z M20.5,14.6
		C20.5,14.5,20.5,14.5,20.5,14.6c-0.1,0-0.2,0-0.2,0.1c0,0,0,0.1,0.1,0.1C20.5,14.7,20.5,14.6,20.5,14.6z M19.4,14
		c0,0,0.1-0.1,0.1-0.1c0,0,0,0-0.1,0C19.3,13.9,19.3,13.9,19.4,14C19.3,14,19.3,14,19.4,14z M19.9,13.6C20,13.6,20,13.6,19.9,13.6
		c0.1-0.1,0-0.2,0-0.1C19.9,13.5,19.8,13.5,19.9,13.6C19.8,13.6,19.9,13.6,19.9,13.6z M15.7,6.3c0.1,0,0.1-0.1,0.1-0.1
		c0,0,0-0.1-0.1-0.1C15.6,6.1,15.6,6.1,15.7,6.3C15.6,6.2,15.6,6.3,15.7,6.3z M13.8,6.5C13.7,6.5,13.7,6.5,13.8,6.5
		c0,0.1,0,0.2,0,0.2C13.9,6.6,13.9,6.6,13.8,6.5C13.8,6.5,13.8,6.5,13.8,6.5z M14.3,6.9C14.3,6.9,14.2,6.9,14.3,6.9
		c0,0.1,0,0.2,0,0.2C14.4,7.1,14.4,7,14.3,6.9C14.4,6.9,14.4,6.9,14.3,6.9z M7.1,12.1C7.1,12.1,7.1,12.1,7.1,12.1
		c0.1-0.1,0-0.2,0-0.1C7,12,7,12,7.1,12.1C7,12.1,7.1,12.1,7.1,12.1z M7.7,11.7C7.7,11.7,7.7,11.7,7.7,11.7c0-0.1,0-0.2,0-0.2
		C7.6,11.6,7.6,11.6,7.7,11.7C7.6,11.7,7.6,11.7,7.7,11.7z M15,7.2c0-0.1,0-0.1-0.1-0.1c-0.1,0-0.1,0-0.1,0.1
		C14.9,7.3,14.9,7.3,15,7.2C15,7.3,15,7.2,15,7.2z M14.3,7.5C14.3,7.5,14.3,7.5,14.3,7.5c-0.1-0.1-0.2,0-0.2,0c0,0,0,0.1,0.1,0.1
		C14.3,7.6,14.3,7.6,14.3,7.5z M15.9,7.2C15.9,7.2,15.9,7.2,15.9,7.2c-0.2-0.1-0.2,0-0.2,0c0,0,0,0.1,0.1,0.1
		C15.9,7.3,15.9,7.3,15.9,7.2z M18.7,11.3C18.7,11.4,18.7,11.4,18.7,11.3c0.1,0.1,0.1,0,0.1-0.1c0,0,0-0.1-0.1-0.1
		C18.7,11.2,18.7,11.3,18.7,11.3z M8.7,13.5C8.7,13.4,8.7,13.4,8.7,13.5c-0.1,0-0.2,0-0.1,0C8.6,13.6,8.6,13.6,8.7,13.5
		C8.7,13.6,8.7,13.5,8.7,13.5z M7,9.6C7,9.6,7,9.6,7,9.6c0.1,0.1,0.1,0,0.1,0C7.1,9.5,7.1,9.5,7,9.6C7,9.5,7,9.5,7,9.6z M18.8,19.5
		C18.8,19.4,18.7,19.4,18.8,19.5c-0.1,0-0.2,0-0.1,0.1C18.6,19.6,18.7,19.6,18.8,19.5C18.8,19.6,18.8,19.5,18.8,19.5z M15.6,7.4
		C15.6,7.3,15.6,7.3,15.6,7.4c-0.1-0.1-0.1-0.1-0.1,0C15.5,7.4,15.5,7.4,15.6,7.4C15.6,7.4,15.6,7.4,15.6,7.4z M20.3,23.7
		C20.3,23.6,20.3,23.6,20.3,23.7c-0.1,0-0.1,0-0.1,0C20.2,23.7,20.2,23.8,20.3,23.7C20.3,23.7,20.3,23.7,20.3,23.7z M21.5,23.4
		C21.5,23.4,21.5,23.3,21.5,23.4c-0.1,0-0.1,0-0.1,0c0,0,0,0.1,0.1,0.1C21.6,23.5,21.6,23.4,21.5,23.4z M13.4,6.3
		C13.4,6.3,13.4,6.2,13.4,6.3c0-0.1,0-0.1,0-0.1C13.3,6.2,13.3,6.2,13.4,6.3C13.3,6.3,13.3,6.3,13.4,6.3z M14.3,6.1
		C14.3,6,14.3,6,14.3,6.1C14.2,6,14.2,6,14.2,6C14.2,6.1,14.2,6.1,14.3,6.1C14.3,6.1,14.3,6.1,14.3,6.1z M20.1,22.9
		C20.2,22.9,20.2,22.9,20.1,22.9c0.1-0.1,0.1-0.1,0-0.1C20.2,22.8,20.1,22.8,20.1,22.9C20.1,22.9,20.1,22.9,20.1,22.9z M20.7,22.6
		C20.8,22.6,20.8,22.6,20.7,22.6c0.1-0.1,0.1-0.2,0-0.2C20.7,22.5,20.7,22.5,20.7,22.6C20.7,22.6,20.7,22.6,20.7,22.6z M21.1,22.1
		C21.1,22,21.1,22,21.1,22.1C21,22,21,22,21,22.1C21,22.1,21.1,22.1,21.1,22.1C21.1,22.1,21.1,22.1,21.1,22.1z M19,22.3
		C19,22.3,19,22.2,19,22.3c-0.1-0.1-0.1-0.1-0.1,0C18.8,22.4,18.9,22.4,19,22.3C19,22.4,19,22.4,19,22.3z M19.4,21.6
		c0-0.1,0-0.1-0.1-0.1c0,0,0,0-0.1,0.1C19.2,21.5,19.3,21.6,19.4,21.6C19.3,21.6,19.4,21.5,19.4,21.6z M8,10.7C8,10.7,8,10.7,8,10.7
		c-0.1,0-0.1,0-0.1,0.1c0,0,0,0.1,0.1,0C8,10.8,8,10.8,8,10.7z M21.4,13.8C21.4,13.8,21.3,13.8,21.4,13.8c-0.1,0-0.2,0-0.1,0.1
		c0,0,0.1,0.1,0.1,0C21.4,13.9,21.4,13.9,21.4,13.8z M19.4,13.1C19.3,13.2,19.3,13.2,19.4,13.1c0,0.1,0,0.1,0,0.1
		C19.4,13.3,19.4,13.2,19.4,13.1C19.4,13.2,19.4,13.1,19.4,13.1z M7.8,12.1C7.8,12.1,7.8,12.1,7.8,12.1c-0.1,0-0.1,0-0.1,0
		C7.7,12.2,7.7,12.2,7.8,12.1C7.8,12.2,7.8,12.2,7.8,12.1z M8,12.5C8,12.4,8,12.4,8,12.5c-0.1,0-0.1,0-0.1,0C7.9,12.6,8,12.6,8,12.5
		C8,12.6,8,12.5,8,12.5z M19.4,10.2C19.4,10.2,19.4,10.1,19.4,10.2c-0.1,0-0.1,0-0.1,0.1c0,0,0,0.1,0.1,0
		C19.4,10.3,19.4,10.2,19.4,10.2z M7.7,12.9C7.7,12.8,7.7,12.8,7.7,12.9c-0.1-0.1-0.1,0-0.1,0C7.5,12.9,7.6,12.9,7.7,12.9
		C7.7,12.9,7.7,12.9,7.7,12.9z M8,11.8C7.9,11.9,7.9,11.9,8,11.8C8,12,8,12,8,12C8.1,12,8.1,11.9,8,11.8C8.1,11.9,8,11.8,8,11.8z
		 M19.7,12.3C19.7,12.2,19.7,12.2,19.7,12.3c-0.1,0-0.1,0-0.1,0.1c0,0,0,0.1,0.1,0C19.7,12.4,19.7,12.3,19.7,12.3z M7.6,9.9
		C7.5,9.9,7.5,10,7.5,10c0,0,0,0.1,0.1,0C7.7,10,7.7,10,7.6,9.9C7.6,9.9,7.6,9.9,7.6,9.9z M8.5,14.3c-0.1,0-0.1,0.1,0,0.1
		c0,0,0,0.1,0.1,0.1C8.6,14.4,8.6,14.4,8.5,14.3C8.5,14.3,8.5,14.3,8.5,14.3z M9.3,13.6C9.4,13.6,9.4,13.5,9.3,13.6
		c0.1-0.1,0-0.2,0-0.1C9.3,13.5,9.3,13.5,9.3,13.6C9.3,13.6,9.3,13.6,9.3,13.6z M17.7,7.7C17.7,7.6,17.6,7.6,17.7,7.7
		c-0.1,0-0.1,0-0.1,0.1C17.5,7.8,17.6,7.8,17.7,7.7C17.7,7.7,17.7,7.7,17.7,7.7z M7.6,11.3C7.6,11.2,7.6,11.2,7.6,11.3
		c-0.1-0.1-0.1,0-0.1,0C7.5,11.3,7.5,11.3,7.6,11.3C7.6,11.3,7.6,11.3,7.6,11.3z M17,7.7C17,7.7,17,7.6,17,7.7c0-0.1,0-0.2-0.1-0.2
		C16.9,7.6,16.9,7.6,17,7.7C16.9,7.7,16.9,7.7,17,7.7z M19.5,15.4C19.5,15.3,19.5,15.3,19.5,15.4c-0.1,0-0.2,0-0.1,0
		c0,0,0,0.1,0.1,0.1C19.5,15.5,19.5,15.4,19.5,15.4z M19,9.7C19.1,9.7,19.1,9.7,19,9.7c0.1-0.1,0.1-0.2,0-0.2C19,9.6,19,9.6,19,9.7
		C19,9.7,19,9.7,19,9.7z M20,22.2C20,22.1,19.9,22.1,20,22.2c-0.1,0-0.1,0-0.1,0C19.8,22.2,19.9,22.2,20,22.2
		C20,22.2,20,22.2,20,22.2z M18.4,22.6C18.4,22.6,18.4,22.6,18.4,22.6c0,0.1,0,0.1,0,0.1c0,0,0.1,0,0.1-0.1
		C18.5,22.6,18.5,22.6,18.4,22.6z M9.2,15.2C9.2,15.2,9.2,15.2,9.2,15.2c-0.1,0-0.1,0-0.1,0.1c0,0,0,0.1,0.1,0
		C9.2,15.3,9.2,15.2,9.2,15.2z M21.1,23.5C21.1,23.4,21.1,23.4,21.1,23.5c-0.1,0-0.1,0-0.1,0.1C21,23.5,21,23.6,21.1,23.5
		C21.1,23.5,21.1,23.5,21.1,23.5z M8.2,13C8.2,12.9,8.2,12.9,8.2,13c-0.1-0.1-0.2-0.1-0.1,0C8.1,13,8.1,13.1,8.2,13
		C8.2,13,8.2,13,8.2,13z M8.2,13.4C8.1,13.4,8.1,13.4,8.2,13.4c0,0.1,0,0.1,0,0.1C8.2,13.6,8.2,13.5,8.2,13.4
		C8.2,13.5,8.2,13.4,8.2,13.4z M22,23.7C22,23.7,21.9,23.6,22,23.7c-0.1-0.1-0.1,0-0.1,0C21.9,23.8,21.9,23.8,22,23.7
		C22,23.8,22,23.7,22,23.7z M19,11.8C19,11.8,19,11.7,19,11.8c-0.1,0-0.1,0-0.1,0C18.9,11.8,18.9,11.9,19,11.8
		C19,11.9,19,11.8,19,11.8z M15.7,6.7C15.7,6.6,15.6,6.6,15.7,6.7c-0.1,0-0.1,0-0.1,0C15.5,6.7,15.5,6.7,15.7,6.7
		C15.6,6.8,15.6,6.7,15.7,6.7z M19.6,17.6C19.5,17.6,19.5,17.6,19.6,17.6c0,0.1,0,0.1,0,0.1C19.6,17.7,19.7,17.6,19.6,17.6
		C19.6,17.6,19.6,17.6,19.6,17.6z M8.1,11.5C8.1,11.5,8.1,11.6,8.1,11.5c0.1,0,0.1,0,0.1,0C8.2,11.4,8.2,11.4,8.1,11.5
		C8.1,11.4,8.1,11.5,8.1,11.5z M20.1,21.7C20.1,21.7,20.1,21.7,20.1,21.7c0,0.1,0,0.1,0,0.1C20.2,21.8,20.2,21.8,20.1,21.7
		C20.2,21.7,20.2,21.7,20.1,21.7z M19.4,21.9C19.4,21.9,19.3,21.8,19.4,21.9c-0.1,0-0.1,0-0.1,0C19.3,22,19.3,22,19.4,21.9
		C19.4,22,19.4,21.9,19.4,21.9z M20.6,21.6c0,0,0-0.1,0-0.1c0,0,0-0.1-0.1,0C20.6,21.5,20.5,21.6,20.6,21.6
		C20.6,21.6,20.6,21.6,20.6,21.6z M8.5,11.1C8.5,11.1,8.4,11.1,8.5,11.1c-0.1,0-0.1,0-0.1,0c0,0,0,0.1,0.1,0.1
		C8.5,11.2,8.5,11.2,8.5,11.1z M20,21.2C20,21.1,19.9,21.1,20,21.2c-0.1,0-0.1,0-0.1,0C19.9,21.3,19.9,21.3,20,21.2
		C20,21.3,20,21.2,20,21.2z M7.3,8.4C7.3,8.4,7.3,8.3,7.3,8.4c-0.1-0.1-0.1-0.1-0.1,0C7.1,8.4,7.2,8.5,7.3,8.4
		C7.2,8.5,7.3,8.5,7.3,8.4z M19.2,14.5C19.2,14.5,19.2,14.5,19.2,14.5c0-0.1,0-0.1,0-0.1C19.1,14.4,19.1,14.4,19.2,14.5
		C19.1,14.5,19.1,14.5,19.2,14.5z M7.3,10.5C7.3,10.4,7.3,10.4,7.3,10.5C7.2,10.4,7.2,10.4,7.3,10.5C7.3,10.5,7.3,10.5,7.3,10.5
		C7.3,10.5,7.3,10.5,7.3,10.5z M20,14.3C20,14.3,20,14.3,20,14.3c-0.1,0-0.1,0-0.1,0.1c0,0,0,0.1,0.1,0C20,14.4,20,14.4,20,14.3z"/>
	<path class="st0" d="M17.1,6.2c0.1,0.1,0,0.1,0,0.2C17,6.4,16.9,6.4,17.1,6.2C17,6.2,17.1,6.2,17.1,6.2L17.1,6.2z"/>
	<path class="st0" d="M25.2,17.2c-0.4-0.1-0.7-0.2-1.1-0.3c-0.1,0-0.2-0.1-0.2,0c0,0.1-0.1,0-0.1,0c-0.3,0-0.6,0.1-0.9,0.2
		c-0.7,0.2-1.1,0.7-1.3,1.3c-0.1,0.2-0.2,0.4-0.3,0.6c0-0.2,0-0.4,0.1-0.6c0.2-0.6,0.5-1.1,1-1.4c0.1-0.1,0.2-0.2,0.4-0.2
		c0.4-0.1,0.7-0.2,1.1-0.4c-0.2-0.2-0.3-0.3-0.6-0.3c-0.7,0-1.3,0.2-1.9,0.7c-0.2,0.2-0.4,0.5-0.5,0.7c-0.1,0.1-0.1,0.3-0.2,0.4
		c-0.1-0.1,0-0.1,0-0.2c0.1-0.3,0.2-0.7,0.4-0.9c0.3-0.4,0.7-0.7,1.2-0.9c0.2-0.1,0.4-0.1,0.6-0.2c0.4-0.1,0.7,0,0.9,0.3
		c0.2,0.2,0.4,0.4,0.6,0.5c0.1,0.1,0.2,0.1,0.3,0.1C24.9,16.9,25.1,17,25.2,17.2z"/>
	<path class="st0" d="M8.7,12.6c-0.1,0-0.1-0.1-0.2-0.1c-0.1,0.1-0.1,0-0.1-0.1c0-0.1,0-0.3-0.2-0.3c-0.1,0,0-0.1,0-0.1
		c0,0,0.1,0,0.1,0c0.1,0,0.2-0.1,0.3-0.2c0.1-0.2,0.2-0.2,0.3,0C9,12,9.1,12.4,9,12.7c0,0,0,0.1-0.1,0.1c-0.1-0.2,0-0.5-0.4-0.4
		c0,0.1,0.2,0,0.2,0.2C8.8,12.6,8.7,12.6,8.7,12.6L8.7,12.6z"/>
	<path class="st0" d="M17.9,19.4C17.9,19.4,17.9,19.4,17.9,19.4c-0.1-0.4-0.1-0.8-0.1-1.2c0-0.4,0.1-0.7,0.4-1
		c0.2-0.2,0.3-0.5,0.5-0.7c0.1,0.1,0,0.1,0,0.2c-0.1,0.2-0.2,0.5-0.4,0.7c-0.2,0.3-0.3,0.7-0.3,1.1c0,0.2,0,0.3,0,0.5
		C18.1,19.2,18,19.3,17.9,19.4z"/>
	<path class="st0" d="M24.6,23.8c0.1-0.6,0.3-1.2,0.8-1.7c0.1-0.1,0.2-0.1,0.3-0.2c0.1,0,0.1,0,0.2,0c0,0.1,0,0.1-0.1,0.2
		c0,0,0,0-0.1,0c-0.4,0.2-0.6,0.6-0.8,1C24.9,23.5,24.8,23.7,24.6,23.8z"/>
	<path class="st0" d="M14.3,17.2c-0.1-0.1-0.1-0.1-0.1-0.2c0.1-0.8,0.2-1.5,0.4-2.2c0-0.1,0.1-0.2,0.2-0.3c0,0,0.1,0,0.1,0
		c0,0,0.1,0.1,0,0.1c-0.3,0.5-0.4,1.1-0.5,1.7C14.4,16.6,14.4,16.9,14.3,17.2z"/>
	<path class="st0" d="M13.8,18c-0.1-0.4-0.2-0.8-0.1-1.2c0.1-0.3,0.2-0.6,0.2-0.9c0,0,0-0.1,0.1-0.1c0,0,0.1,0.1,0,0.1
		C13.9,16.5,13.9,17.2,13.8,18z"/>
	<path class="st0" d="M16.4,6.8c-0.1,0.1-0.1,0.2,0,0.3c0,0.1,0.1,0.1,0,0.2c-0.1-0.1-0.1-0.3-0.2-0.4C16.2,6.7,16.3,6.8,16.4,6.8
		L16.4,6.8z"/>
	<path class="st0" d="M15.3,6.1c0,0.1,0,0.1-0.1,0.1c-0.1,0-0.2,0-0.2-0.1C15,6,15,6,15.1,5.9C15.2,5.9,15.2,6,15.3,6.1z"/>
	<path class="st0" d="M9,15.4c0,0.1-0.1,0.1-0.2,0.2c0,0-0.1,0.1-0.1,0c0,0,0-0.1,0-0.1C8.8,15.4,8.8,15.4,9,15.4
		C8.9,15.3,8.9,15.4,9,15.4z"/>
	<path class="st0" d="M16.6,6.2C16.6,6.2,16.6,6.3,16.6,6.2c-0.1,0.1-0.2,0-0.3,0c0,0-0.1-0.1,0-0.1c0,0,0-0.1,0.1,0
		C16.4,6.1,16.5,6.1,16.6,6.2z"/>
	<path class="st0" d="M20,15.6c-0.1-0.1,0-0.2,0-0.3c0-0.1,0-0.1,0.1-0.1c0.1,0,0.1,0.1,0.1,0.1C20.1,15.5,20.1,15.5,20,15.6z"/>
	<path class="st0" d="M20.4,15.6c0,0.1,0,0.1-0.1,0.1c-0.1,0-0.1-0.1-0.1-0.1c0-0.1,0-0.1,0.1-0.1C20.4,15.4,20.4,15.5,20.4,15.6z"
		/>
	<path class="st0" d="M19.7,23.2c0,0,0,0.1,0,0.1c0,0.1,0,0.1-0.1,0.1c0,0-0.1,0-0.1-0.1c0-0.1,0-0.1,0.1-0.1
		C19.7,23.2,19.7,23.2,19.7,23.2L19.7,23.2z"/>
	<path class="st0" d="M18.6,10.9c-0.1,0-0.1,0-0.1-0.1c0-0.1,0.1-0.1,0.1-0.1c0,0,0.1,0,0.1,0.1C18.7,10.8,18.7,10.9,18.6,10.9z"/>
	<path class="st0" d="M19.7,13.1c0.1,0.1,0.1,0.1,0.1,0.2c0,0,0,0.1-0.1,0.1c0,0-0.1,0-0.1-0.1C19.6,13.3,19.6,13.2,19.7,13.1z"/>
	<path class="st0" d="M16.4,6.8C16.4,6.8,16.3,6.8,16.4,6.8c-0.1-0.1-0.2-0.2-0.2-0.2c0,0,0.1,0,0.1,0c0.1,0,0.1,0.1,0.1,0.2
		C16.5,6.7,16.4,6.8,16.4,6.8C16.4,6.8,16.4,6.8,16.4,6.8z"/>
	<path class="st0" d="M18.6,13.2c-0.1,0-0.1,0-0.1-0.1c0-0.1,0-0.1,0.1-0.1c0.1,0,0.1,0,0.1,0.1C18.7,13.1,18.7,13.2,18.6,13.2z"/>
	<path class="st0" d="M21.2,23.1c0,0.1,0,0.1-0.1,0.2c0,0-0.1,0-0.1-0.1C21,23.1,21,23,21.2,23.1C21.1,23,21.1,23,21.2,23.1z"/>
	<path class="st0" d="M19.6,14.4c0,0.1,0,0.1-0.1,0.1c-0.1,0-0.1,0-0.1-0.1c0-0.1,0-0.1,0.1-0.1C19.5,14.3,19.5,14.4,19.6,14.4z"/>
	<path class="st0" d="M16.1,6.4c0,0.1-0.1,0.1-0.1,0.1c0,0-0.1,0-0.1-0.1C15.9,6.3,15.9,6.3,16.1,6.4C16.1,6.3,16.1,6.4,16.1,6.4z"
		/>
	<path class="st0" d="M19.8,16c0,0.2-0.1,0.2-0.1,0.3c0,0-0.1,0-0.1,0c0,0,0-0.1,0-0.1C19.7,16.2,19.7,16.1,19.8,16z"/>
	<path class="st0" d="M14.8,6.8c0,0.1,0,0.1-0.1,0.1c-0.1,0-0.1,0-0.1-0.1c0,0,0-0.1,0-0.1C14.8,6.7,14.8,6.7,14.8,6.8z"/>
	<path class="st0" d="M19,14.1c0,0.1,0,0.1-0.1,0.1c-0.1,0-0.1,0-0.1-0.1C18.8,14.1,18.8,14.1,19,14.1C18.9,14,18.9,14.1,19,14.1z"
		/>
	<path class="st0" d="M14.7,6.3c0-0.1,0-0.1,0.1-0.1c0.1,0,0.1,0,0.1,0.1c0,0.1,0,0.1-0.1,0.1C14.8,6.4,14.7,6.4,14.7,6.3z"/>
	<path class="st0" d="M20,16.5C20,16.5,20.1,16.4,20,16.5c0.1-0.1,0.2-0.1,0.2,0C20.2,16.6,20.2,16.6,20,16.5
		C20.1,16.6,20,16.6,20,16.5z"/>
	<path class="st0" d="M9.3,15.9c-0.1-0.1-0.1-0.1-0.2-0.2c0,0,0-0.1,0-0.1c0,0,0.1,0,0.1,0C9.3,15.7,9.3,15.8,9.3,15.9z"/>
	<path class="st0" d="M21.6,12.9c0,0.1,0,0.1-0.1,0.2c0,0-0.1,0-0.1-0.1C21.4,12.9,21.4,12.9,21.6,12.9
		C21.5,12.8,21.6,12.9,21.6,12.9z"/>
	<path class="st0" d="M12.8,6.6c0,0.1,0,0.1-0.1,0.1c-0.1,0-0.1,0-0.1-0.1C12.6,6.5,12.7,6.5,12.8,6.6C12.8,6.5,12.8,6.5,12.8,6.6z"
		/>
	<path class="st0" d="M15.1,6.4C15.1,6.4,15.1,6.5,15.1,6.4c0.1,0.1,0.1,0.2,0,0.2C15,6.6,15,6.6,15.1,6.4C15,6.5,15,6.4,15.1,6.4z"
		/>
	<path class="st0" d="M20.7,23.7c-0.1,0-0.1,0-0.1-0.1c0-0.1,0-0.1,0.1-0.1c0.1,0,0.1,0,0.1,0.1C20.8,23.7,20.8,23.7,20.7,23.7z"/>
	<path class="st0" d="M19.9,23.3c0-0.1,0.1-0.1,0.1-0.1c0.1,0,0.1,0,0.1,0.1C20.1,23.3,20,23.4,19.9,23.3
		C19.9,23.3,19.9,23.3,19.9,23.3z"/>
	<path class="st0" d="M19.1,23.4c-0.1,0-0.1,0-0.1-0.1c0-0.1,0-0.1,0.1-0.1c0,0,0.1,0,0.1,0.1C19.2,23.3,19.2,23.4,19.1,23.4z"/>
	<path class="st0" d="M18.6,18c0,0.1,0,0.1-0.1,0.1c0,0-0.1,0-0.1-0.1C18.4,18,18.4,18,18.6,18C18.5,18,18.6,18,18.6,18z"/>
	<path class="st0" d="M17.4,7c0.1,0,0.1,0,0.1,0.1c0,0,0,0.1-0.1,0.1c-0.1,0-0.1,0-0.1-0.1C17.3,7.1,17.3,7,17.4,7z"/>
	<path class="st0" d="M14.9,7.8C14.9,7.8,14.9,7.8,14.9,7.8c-0.1-0.1-0.1-0.2,0-0.2c0,0,0.1,0,0.1,0.1C15,7.7,15,7.8,14.9,7.8z"/>
	<path class="st0" d="M20,15.9C20,15.9,20,15.9,20,15.9c-0.1-0.1-0.1-0.2,0-0.2c0.1,0,0.1,0,0.1,0.1C20.1,15.9,20.1,15.9,20,15.9z"
		/>
	<path class="st0" d="M9.6,15.4c0,0,0,0.1,0,0.1c-0.1,0-0.1,0-0.1-0.1C9.5,15.4,9.5,15.3,9.6,15.4C9.6,15.3,9.6,15.3,9.6,15.4z"/>
	<path class="st0" d="M19.4,16.7C19.4,16.7,19.3,16.6,19.4,16.7c0-0.1,0-0.2,0-0.2c0,0,0.1,0,0.1,0.1C19.5,16.6,19.5,16.6,19.4,16.7
		z"/>
	<path class="st0" d="M16.8,6.9c0,0.1,0,0.1-0.1,0.1c0,0-0.1,0-0.1-0.1C16.6,6.9,16.6,6.9,16.8,6.9C16.7,6.9,16.8,6.9,16.8,6.9z"/>
	<path class="st0" d="M13.8,7.5C13.8,7.6,13.8,7.6,13.8,7.5c-0.1,0.1-0.1,0-0.2,0c0,0,0-0.1,0.1-0.1C13.7,7.5,13.8,7.5,13.8,7.5z"/>
	<path class="st0" d="M19.7,16.8c0,0.1,0,0.1-0.1,0.1c0,0-0.1,0-0.1-0.1C19.6,16.8,19.6,16.7,19.7,16.8
		C19.7,16.7,19.7,16.7,19.7,16.8z"/>
	<path class="st0" d="M9.7,14.9C9.6,14.9,9.7,15,9.7,14.9c-0.1,0.1-0.2,0.1-0.2,0c0,0,0-0.1,0.1-0.1C9.6,14.8,9.6,14.8,9.7,14.9z"/>
	<path class="st0" d="M19.1,15.9c0,0.1,0,0.1-0.1,0.1c-0.1,0-0.1,0-0.1-0.1C18.9,15.9,18.9,15.9,19.1,15.9
		C19,15.9,19.1,15.9,19.1,15.9z"/>
	<path class="st0" d="M20.6,15.1C20.6,15.1,20.6,15.1,20.6,15.1c-0.1-0.1,0-0.2,0-0.2c0,0,0.1,0,0.1,0.1
		C20.7,15.1,20.7,15.1,20.6,15.1z"/>
	<path class="st0" d="M15.3,8.1C15.3,8.1,15.2,8.1,15.3,8.1c-0.1,0.1-0.1,0.1-0.1,0C15.1,8,15.1,8,15.3,8.1C15.2,8,15.2,8,15.3,8.1z
		"/>
	<path class="st0" d="M18.9,15.2c0,0.1,0,0.1-0.1,0.1c0,0-0.1,0-0.1-0.1C18.7,15.2,18.7,15.1,18.9,15.2
		C18.8,15.1,18.8,15.1,18.9,15.2z"/>
	<path class="st0" d="M19.3,13.7C19.2,13.7,19.2,13.7,19.3,13.7c-0.1-0.1-0.1-0.2,0-0.2c0,0,0.1,0,0.1,0
		C19.4,13.6,19.3,13.7,19.3,13.7z"/>
	<path class="st0" d="M20.9,14.4c0,0,0,0.1-0.1,0.1c0,0-0.1,0-0.1-0.1C20.8,14.3,20.8,14.3,20.9,14.4C20.9,14.3,20.9,14.3,20.9,14.4
		z"/>
	<path class="st0" d="M19.7,14.6c0-0.1,0-0.1,0.1-0.1c0,0,0.1,0,0.1,0.1C19.9,14.6,19.9,14.7,19.7,14.6
		C19.8,14.7,19.7,14.7,19.7,14.6z"/>
	<path class="st0" d="M7,10.7c0.1,0,0.1,0.1,0.1,0.1c0,0,0,0.1,0,0.1C7,11,7,10.9,7,10.9C6.9,10.8,7,10.8,7,10.7z"/>
	<path class="st0" d="M19.8,14c0,0,0,0.1,0,0.1c-0.1,0-0.1,0-0.1-0.1c0,0,0-0.1,0-0.1C19.7,13.9,19.7,14,19.8,14z"/>
	<path class="st0" d="M20.1,13.8c0,0.1,0,0.1-0.1,0.1c-0.1,0-0.1,0-0.1-0.1C19.9,13.8,19.9,13.7,20.1,13.8
		C20,13.7,20,13.7,20.1,13.8z"/>
	<path class="st0" d="M20.9,13.3C20.9,13.4,20.9,13.4,20.9,13.3c-0.1,0.1-0.1,0.1-0.1,0C20.8,13.3,20.8,13.3,20.9,13.3
		C20.9,13.3,21,13.3,20.9,13.3z"/>
	<path class="st0" d="M20.5,23.2c0,0.1,0,0.1-0.1,0.1c0,0-0.1,0-0.1-0.1C20.4,23.3,20.4,23.2,20.5,23.2
		C20.5,23.2,20.5,23.2,20.5,23.2z"/>
	<path class="st0" d="M19.3,11.9C19.4,11.9,19.4,12,19.3,11.9c0.1,0.1,0.1,0.2,0,0.2C19.3,12.1,19.3,12.1,19.3,11.9
		C19.2,12,19.3,11.9,19.3,11.9z"/>
	<path class="st0" d="M19.8,11.2c0,0,0,0.1-0.1,0.1c-0.1,0-0.1,0-0.1-0.1C19.6,11.1,19.6,11.1,19.8,11.2
		C19.7,11.1,19.7,11.1,19.8,11.2z"/>
	<path class="st0" d="M19.5,23C19.5,23,19.5,23.1,19.5,23c-0.1,0.1-0.2,0.1-0.2,0C19.3,22.9,19.3,22.9,19.5,23
		C19.4,22.9,19.5,22.9,19.5,23z"/>
	<path class="st0" d="M17,6.6C17,6.6,17,6.7,17,6.6c-0.1,0.1-0.2,0.1-0.2,0c0,0,0-0.1,0-0.1C16.9,6.5,16.9,6.5,17,6.6z"/>
	<path class="st0" d="M19,17.9C18.9,17.9,18.9,17.9,19,17.9c-0.1-0.1-0.1-0.1,0-0.1C19,17.8,19,17.8,19,17.9
		C19,17.9,19,17.9,19,17.9z"/>
	<path class="st0" d="M20,12.8C20,12.8,19.9,12.8,20,12.8c-0.1-0.1-0.1-0.1-0.1-0.2c0,0,0.1,0,0.1,0C20.1,12.7,20.1,12.8,20,12.8z"
		/>
	<path class="st0" d="M15.3,6.7C15.3,6.7,15.4,6.7,15.3,6.7c0.1,0.1,0.1,0.2,0,0.2c-0.1,0-0.1,0-0.1-0.1C15.2,6.8,15.3,6.7,15.3,6.7
		z"/>
	<path class="st0" d="M18.5,20.6C18.5,20.6,18.5,20.7,18.5,20.6c-0.1,0.1-0.1,0.1-0.1,0c0,0,0-0.1,0-0.1
		C18.5,20.5,18.5,20.5,18.5,20.6z"/>
	<path class="st0" d="M19.4,12.6C19.4,12.7,19.4,12.7,19.4,12.6c-0.1,0.1-0.2,0.1-0.2,0c0-0.1,0-0.1,0.1-0.1
		C19.3,12.6,19.4,12.6,19.4,12.6z"/>
	<path class="st0" d="M20.4,22.2c0,0.1,0,0.1-0.1,0.1c0,0-0.1,0-0.1-0.1C20.3,22.2,20.3,22.1,20.4,22.2
		C20.4,22.1,20.4,22.2,20.4,22.2z"/>
	<path class="st0" d="M19.1,11c0-0.1,0-0.1,0.1-0.1c0,0,0.1,0,0.1,0C19.3,11,19.3,11,19.1,11C19.2,11.1,19.1,11.1,19.1,11z"/>
	<path class="st0" d="M18.4,11.1C18.5,11.1,18.5,11.2,18.4,11.1c0.1,0.1,0.1,0.2,0,0.2c0,0-0.1,0-0.1-0.1
		C18.3,11.2,18.3,11.1,18.4,11.1z"/>
	<path class="st0" d="M9.5,14.4C9.5,14.5,9.5,14.5,9.5,14.4c-0.1,0.1-0.1,0.1-0.1,0C9.3,14.4,9.4,14.3,9.5,14.4
		C9.5,14.3,9.5,14.4,9.5,14.4z"/>
	<path class="st0" d="M19,12.9C18.9,12.9,18.9,12.8,19,12.9c-0.1-0.1-0.1-0.2,0-0.2C19,12.7,19,12.7,19,12.9
		C19,12.8,19,12.8,19,12.9z"/>
	<path class="st0" d="M9.1,14.9c0,0,0,0.1,0,0.1C9,15,9,15,9,14.9C9,14.9,9,14.8,9.1,14.9C9.1,14.8,9.1,14.8,9.1,14.9z"/>
	<path class="st0" d="M8.8,14.5C8.8,14.5,8.7,14.5,8.8,14.5c-0.1-0.1,0-0.2,0-0.2C8.9,14.3,8.9,14.3,8.8,14.5
		C8.9,14.4,8.9,14.5,8.8,14.5z"/>
	<path class="st0" d="M20.1,11.7C20.1,11.6,20.2,11.7,20.1,11.7c0.1,0.1,0.1,0.1,0,0.1C20.1,11.8,20,11.8,20.1,11.7
		C20,11.7,20,11.7,20.1,11.7z"/>
	<path class="st0" d="M18.6,12C18.6,12,18.6,12.1,18.6,12c-0.1,0.1-0.1,0.1-0.1,0C18.4,11.9,18.5,11.9,18.6,12
		C18.5,11.9,18.6,11.9,18.6,12z"/>
	<path class="st0" d="M9,13.9C9,13.9,9,14,9,13.9c-0.1,0.1-0.1,0.1-0.1,0C8.9,13.9,8.9,13.8,9,13.9C9,13.8,9,13.8,9,13.9z"/>
	<path class="st0" d="M21.3,23C21.3,23,21.3,23,21.3,23c0.1-0.1,0.2-0.1,0.2,0C21.5,23,21.4,23.1,21.3,23
		C21.3,23.1,21.3,23.1,21.3,23z"/>
	<path class="st0" d="M19.7,23.2c0-0.1-0.1-0.1-0.1-0.2c0,0,0-0.1,0.1-0.1c0,0,0.1,0,0.1,0C19.8,23,19.7,23.1,19.7,23.2L19.7,23.2z"
		/>
	<path class="st0" d="M19.9,22.4C20,22.4,20,22.4,19.9,22.4c0.1,0.1,0.1,0.2,0,0.2C19.9,22.6,19.9,22.5,19.9,22.4
		C19.9,22.5,19.9,22.4,19.9,22.4z"/>
	<path class="st0" d="M19.1,22.7C19.1,22.7,19.1,22.8,19.1,22.7c-0.1,0.1-0.1,0.1-0.1,0C19,22.6,19,22.6,19.1,22.7
		C19.1,22.6,19.1,22.6,19.1,22.7z"/>
	<path class="st0" d="M19.5,22.5c0,0.1,0,0.1-0.1,0.1c-0.1,0-0.1,0-0.1-0.1C19.4,22.5,19.4,22.5,19.5,22.5
		C19.5,22.4,19.5,22.5,19.5,22.5z"/>
	<path class="st0" d="M18.9,18.4c0,0.1,0,0.1-0.1,0.1c0,0,0,0,0-0.1C18.8,18.4,18.8,18.4,18.9,18.4C18.9,18.4,18.9,18.4,18.9,18.4z"
		/>
	<path class="st0" d="M19.4,17.5C19.3,17.5,19.3,17.4,19.4,17.5c-0.1-0.1,0-0.2,0-0.2c0,0,0.1,0,0.1,0.1
		C19.5,17.4,19.4,17.4,19.4,17.5z"/>
	<path class="st0" d="M18.9,17.3C18.9,17.2,19,17.2,18.9,17.3c0.1-0.1,0.2-0.1,0.2,0C19.1,17.3,19.1,17.3,18.9,17.3
		C19,17.3,18.9,17.3,18.9,17.3z"/>
	<path class="st0" d="M19.4,15.8c0,0.1,0,0.1-0.1,0.1c0,0-0.1,0-0.1-0.1C19.3,15.8,19.3,15.8,19.4,15.8
		C19.4,15.8,19.4,15.8,19.4,15.8z"/>
	<path class="st0" d="M19.5,15.1C19.4,15.1,19.4,15.1,19.5,15.1c-0.1,0.1-0.2,0.1-0.2,0c0,0,0-0.1,0.1-0.1
		C19.4,15,19.4,15,19.5,15.1z"/>
	<path class="st0" d="M20.5,14.6c0,0.1,0,0.1-0.1,0.1c0,0-0.1,0-0.1-0.1C20.4,14.6,20.4,14.6,20.5,14.6
		C20.5,14.5,20.5,14.5,20.5,14.6z"/>
	<path class="st0" d="M19.4,14C19.3,14,19.3,14,19.4,14c-0.1-0.1,0-0.1,0-0.2c0,0,0.1,0,0.1,0C19.4,14,19.4,14,19.4,14z"/>
	<path class="st0" d="M19.9,13.6C19.9,13.6,19.8,13.6,19.9,13.6c-0.1-0.1-0.1-0.1,0-0.1C19.9,13.5,20,13.5,19.9,13.6
		C20,13.6,20,13.6,19.9,13.6z"/>
	<path class="st0" d="M15.7,6.3C15.6,6.3,15.6,6.2,15.7,6.3c-0.1-0.1-0.1-0.2,0-0.2c0,0,0.1,0,0.1,0.1C15.8,6.2,15.7,6.2,15.7,6.3z"
		/>
	<path class="st0" d="M13.8,6.5C13.8,6.5,13.8,6.5,13.8,6.5c0.1,0.1,0.1,0.1,0,0.2C13.8,6.6,13.7,6.6,13.8,6.5
		C13.7,6.5,13.7,6.5,13.8,6.5z"/>
	<path class="st0" d="M14.3,6.9C14.4,6.9,14.4,6.9,14.3,6.9c0.1,0.1,0.1,0.2,0,0.2C14.3,7.1,14.3,7,14.3,6.9
		C14.2,6.9,14.3,6.9,14.3,6.9z"/>
	<path class="st0" d="M7.1,12.1C7.1,12.1,7,12.1,7.1,12.1C7,12,7,12,7.1,12C7.1,11.9,7.2,12,7.1,12.1C7.1,12.1,7.1,12.1,7.1,12.1z"
		/>
	<path class="st0" d="M7.7,11.7C7.6,11.7,7.6,11.7,7.7,11.7c-0.1-0.1-0.1-0.2,0-0.2C7.7,11.5,7.7,11.6,7.7,11.7
		C7.7,11.7,7.7,11.7,7.7,11.7z"/>
	<path class="st0" d="M15,7.2C15,7.2,15,7.3,15,7.2c-0.1,0.1-0.1,0-0.2,0c0-0.1,0-0.1,0.1-0.1C15,7.1,15,7.1,15,7.2z"/>
	<path class="st0" d="M14.3,7.5c0,0,0,0.1-0.1,0.1c-0.1,0-0.1,0-0.1-0.1C14.2,7.5,14.2,7.5,14.3,7.5C14.3,7.5,14.3,7.5,14.3,7.5z"/>
	<path class="st0" d="M15.9,7.2c0,0,0,0.1-0.1,0.1c0,0-0.1,0-0.1-0.1C15.8,7.2,15.8,7.2,15.9,7.2C15.9,7.2,15.9,7.2,15.9,7.2z"/>
	<path class="st0" d="M18.7,11.3c0-0.1,0-0.1,0.1-0.1c0,0,0.1,0,0.1,0.1C18.8,11.3,18.8,11.4,18.7,11.3
		C18.7,11.4,18.7,11.4,18.7,11.3z"/>
	<path class="st0" d="M8.7,13.5C8.7,13.5,8.7,13.6,8.7,13.5c-0.1,0.1-0.1,0.1-0.1,0C8.6,13.5,8.6,13.4,8.7,13.5
		C8.7,13.4,8.7,13.5,8.7,13.5z"/>
	<path class="st0" d="M7,9.6C7,9.5,7,9.5,7,9.6c0.1-0.1,0.1,0,0.1,0C7.1,9.6,7.1,9.6,7,9.6C7,9.6,7,9.6,7,9.6z"/>
	<path class="st0" d="M18.8,19.5C18.8,19.5,18.8,19.6,18.8,19.5c-0.1,0.1-0.1,0.1-0.1,0.1C18.6,19.5,18.6,19.4,18.8,19.5
		C18.7,19.4,18.8,19.4,18.8,19.5z"/>
	<path class="st0" d="M15.6,7.4C15.6,7.4,15.6,7.4,15.6,7.4c-0.1,0.1-0.1,0-0.1,0C15.5,7.3,15.5,7.3,15.6,7.4
		C15.6,7.3,15.6,7.3,15.6,7.4z"/>
	<path class="st0" d="M21.2,23.9C21.2,23.9,21.2,23.9,21.2,23.9c0-0.1,0-0.2,0-0.2c0,0,0,0,0,0C21.4,23.8,21.4,23.9,21.2,23.9
		C21.3,23.9,21.3,23.9,21.2,23.9C21.2,23.9,21.2,23.9,21.2,23.9z"/>
	<path class="st0" d="M20.3,23.7C20.3,23.7,20.3,23.7,20.3,23.7c-0.1,0.1-0.1,0.1-0.1,0C20.2,23.7,20.2,23.6,20.3,23.7
		C20.3,23.6,20.3,23.6,20.3,23.7z"/>
	<path class="st0" d="M21.5,23.4c0,0,0,0.1,0,0.1c0,0-0.1,0-0.1-0.1C21.4,23.4,21.4,23.4,21.5,23.4C21.5,23.3,21.5,23.4,21.5,23.4z"
		/>
	<path class="st0" d="M13.4,6.3C13.3,6.3,13.3,6.3,13.4,6.3c-0.1-0.1-0.1-0.1,0-0.1C13.4,6.2,13.4,6.2,13.4,6.3
		C13.4,6.2,13.4,6.3,13.4,6.3z"/>
	<path class="st0" d="M14.3,6.1C14.3,6.1,14.3,6.1,14.3,6.1c-0.1,0-0.1,0-0.1,0C14.2,6,14.2,6,14.3,6.1C14.3,6,14.3,6,14.3,6.1z"/>
	<path class="st0" d="M20.1,22.9C20.1,22.9,20.1,22.9,20.1,22.9c0-0.1,0-0.1,0-0.1C20.2,22.8,20.2,22.8,20.1,22.9
		C20.2,22.9,20.2,22.9,20.1,22.9z"/>
	<path class="st0" d="M20.7,22.6C20.7,22.6,20.7,22.6,20.7,22.6c-0.1-0.1,0-0.2,0-0.2C20.8,22.5,20.8,22.5,20.7,22.6
		C20.8,22.6,20.8,22.6,20.7,22.6z"/>
	<path class="st0" d="M21.1,22.1C21.1,22.1,21.1,22.1,21.1,22.1c-0.1,0.1-0.1,0-0.1,0C21,22,21,22,21.1,22.1
		C21.1,22,21.1,22,21.1,22.1z"/>
	<path class="st0" d="M19,22.3C19,22.4,19,22.4,19,22.3c-0.1,0.1-0.1,0-0.1,0C18.8,22.3,18.9,22.2,19,22.3C19,22.2,19,22.3,19,22.3z
		"/>
	<path class="st0" d="M19.4,21.6C19.4,21.5,19.3,21.6,19.4,21.6c-0.1,0-0.1,0-0.1-0.1c0,0,0-0.1,0.1-0.1
		C19.3,21.4,19.4,21.4,19.4,21.6z"/>
	<path class="st0" d="M8,10.7c0,0,0,0.1,0,0.1c0,0-0.1,0-0.1,0C7.9,10.7,7.9,10.7,8,10.7C8,10.7,8,10.7,8,10.7z"/>
	<path class="st0" d="M21.4,13.8c0,0,0,0.1,0,0.1c0,0-0.1,0-0.1,0C21.2,13.8,21.2,13.8,21.4,13.8C21.3,13.8,21.4,13.8,21.4,13.8z"/>
	<path class="st0" d="M19.4,13.1C19.4,13.1,19.4,13.2,19.4,13.1c0.1,0.1,0.1,0.1,0,0.1C19.3,13.3,19.3,13.3,19.4,13.1
		C19.3,13.2,19.3,13.2,19.4,13.1z"/>
	<path class="st0" d="M7.8,12.1C7.8,12.2,7.8,12.2,7.8,12.1c-0.1,0.1-0.1,0.1-0.1,0C7.7,12.1,7.7,12.1,7.8,12.1
		C7.8,12.1,7.8,12.1,7.8,12.1z"/>
	<path class="st0" d="M8,12.5C8,12.5,8,12.6,8,12.5c-0.1,0.1-0.1,0.1-0.1,0C7.9,12.5,7.9,12.4,8,12.5C8,12.4,8,12.4,8,12.5z"/>
	<path class="st0" d="M19.4,10.2c0,0,0,0.1,0,0.1c0,0-0.1,0-0.1,0C19.3,10.2,19.3,10.2,19.4,10.2C19.4,10.1,19.4,10.2,19.4,10.2z"/>
	<path class="st0" d="M7.7,12.9C7.7,12.9,7.7,12.9,7.7,12.9c-0.1,0.1-0.1,0.1-0.1,0C7.5,12.8,7.6,12.8,7.7,12.9
		C7.7,12.8,7.7,12.8,7.7,12.9z"/>
	<path class="st0" d="M8,11.8C8,11.8,8.1,11.9,8,11.8C8.1,11.9,8.1,12,8,12C8,12,8,12,8,11.8C7.9,11.9,7.9,11.9,8,11.8z"/>
	<path class="st0" d="M19.7,12.3c0,0,0,0.1-0.1,0.1c0,0-0.1,0-0.1,0C19.6,12.3,19.6,12.2,19.7,12.3C19.7,12.2,19.7,12.2,19.7,12.3z"
		/>
	<path class="st0" d="M7.6,9.9C7.6,9.9,7.6,9.9,7.6,9.9C7.7,10,7.7,10,7.6,10c0,0-0.1,0-0.1,0C7.5,10,7.5,9.9,7.6,9.9z"/>
	<path class="st0" d="M8.5,14.3C8.5,14.3,8.5,14.3,8.5,14.3c0.1,0.1,0.1,0.1,0,0.2c-0.1,0-0.1,0-0.1-0.1C8.4,14.4,8.4,14.3,8.5,14.3
		z"/>
	<path class="st0" d="M9.3,13.6C9.3,13.6,9.3,13.6,9.3,13.6c-0.1-0.1-0.1-0.1,0-0.1C9.4,13.4,9.4,13.5,9.3,13.6
		C9.4,13.5,9.4,13.6,9.3,13.6z"/>
	<path class="st0" d="M17.7,7.7C17.7,7.7,17.7,7.7,17.7,7.7c-0.1,0.1-0.1,0.1-0.1,0.1C17.5,7.7,17.6,7.6,17.7,7.7
		C17.6,7.6,17.7,7.6,17.7,7.7z"/>
	<path class="st0" d="M7.6,11.3C7.6,11.3,7.6,11.3,7.6,11.3c-0.1,0.1-0.1,0-0.1,0C7.5,11.2,7.5,11.2,7.6,11.3
		C7.6,11.2,7.6,11.2,7.6,11.3z"/>
	<path class="st0" d="M17,7.7C16.9,7.7,16.9,7.7,17,7.7c-0.1-0.1-0.1-0.1-0.1-0.2C17,7.5,17,7.6,17,7.7C17,7.6,17,7.7,17,7.7z"/>
	<path class="st0" d="M19.5,15.4c0,0,0,0.1-0.1,0.1c0,0-0.1,0-0.1-0.1C19.4,15.4,19.4,15.3,19.5,15.4C19.5,15.3,19.5,15.3,19.5,15.4
		z"/>
	<path class="st0" d="M19,9.7C19,9.7,19,9.7,19,9.7c-0.1-0.1,0-0.1,0-0.2C19.1,9.6,19.1,9.6,19,9.7C19.1,9.7,19.1,9.7,19,9.7z"/>
	<path class="st0" d="M20,22.2C20,22.2,20,22.2,20,22.2c-0.1,0.1-0.1,0.1-0.1,0C19.8,22.1,19.9,22.1,20,22.2
		C19.9,22.1,20,22.1,20,22.2z"/>
	<path class="st0" d="M18.4,22.6c0.1,0,0.1,0,0.1,0.1c0,0.1,0,0.1-0.1,0.1C18.4,22.7,18.4,22.7,18.4,22.6
		C18.4,22.6,18.4,22.6,18.4,22.6z"/>
	<path class="st0" d="M9.2,15.2c0,0,0,0.1,0,0.1c0,0-0.1,0-0.1,0C9.1,15.2,9.1,15.2,9.2,15.2C9.2,15.2,9.2,15.2,9.2,15.2z"/>
	<path class="st0" d="M8.7,12.6C8.7,12.6,8.7,12.7,8.7,12.6c0.1,0.1,0.1,0.2,0.1,0.2c0,0,0,0-0.1,0C8.6,12.8,8.6,12.7,8.7,12.6
		C8.7,12.7,8.7,12.6,8.7,12.6L8.7,12.6z"/>
	<path class="st0" d="M21.1,23.5C21.1,23.5,21.1,23.5,21.1,23.5C21,23.6,21,23.5,21,23.5C21,23.5,21,23.4,21.1,23.5
		C21.1,23.4,21.1,23.4,21.1,23.5z"/>
	<path class="st0" d="M8.2,13C8.2,13,8.2,13,8.2,13c-0.1,0.1-0.1,0-0.1,0C8.1,13,8.1,12.9,8.2,13C8.2,12.9,8.2,12.9,8.2,13z"/>
	<path class="st0" d="M8.2,13.4C8.2,13.4,8.2,13.5,8.2,13.4c0,0.1,0,0.2,0,0.1C8.1,13.5,8.1,13.5,8.2,13.4
		C8.1,13.4,8.1,13.4,8.2,13.4z"/>
	<path class="st0" d="M22,23.7C22,23.7,22,23.8,22,23.7c-0.1,0-0.1,0-0.1,0C21.9,23.7,21.9,23.7,22,23.7C21.9,23.6,22,23.7,22,23.7z
		"/>
	<path class="st0" d="M19,11.8C19,11.8,19,11.9,19,11.8c-0.1,0.1-0.1,0.1-0.1,0C18.9,11.8,18.9,11.8,19,11.8
		C19,11.7,19,11.8,19,11.8z"/>
	<path class="st0" d="M15.7,6.7C15.6,6.7,15.6,6.8,15.7,6.7c-0.1,0.1-0.1,0-0.1,0C15.6,6.7,15.6,6.6,15.7,6.7
		C15.6,6.6,15.7,6.6,15.7,6.7z"/>
	<path class="st0" d="M19.6,17.6C19.6,17.6,19.6,17.6,19.6,17.6c0.1,0.1,0.1,0.1,0,0.1C19.6,17.7,19.5,17.7,19.6,17.6
		C19.5,17.6,19.5,17.6,19.6,17.6z"/>
	<path class="st0" d="M8.1,11.5C8.1,11.5,8.1,11.4,8.1,11.5c0.1-0.1,0.1-0.1,0.1,0C8.2,11.5,8.2,11.5,8.1,11.5
		C8.1,11.6,8.1,11.5,8.1,11.5z"/>
	<path class="st0" d="M20.1,21.7C20.2,21.7,20.2,21.7,20.1,21.7c0.1,0.1,0,0.1,0,0.1C20.1,21.8,20.1,21.8,20.1,21.7
		C20.1,21.7,20.1,21.7,20.1,21.7z"/>
	<path class="st0" d="M19.4,21.9C19.4,21.9,19.4,22,19.4,21.9c-0.1,0.1-0.1,0.1-0.1,0C19.3,21.9,19.2,21.9,19.4,21.9
		C19.3,21.8,19.4,21.9,19.4,21.9z"/>
	<path class="st0" d="M20.6,21.6C20.6,21.6,20.6,21.6,20.6,21.6c-0.1-0.1-0.1-0.1,0-0.1c0,0,0.1,0,0.1,0
		C20.7,21.6,20.7,21.6,20.6,21.6z"/>
	<path class="st0" d="M8.5,11.1c0,0,0,0.1,0,0.1c0,0-0.1,0-0.1-0.1C8.4,11.1,8.4,11.1,8.5,11.1C8.4,11.1,8.5,11.1,8.5,11.1z"/>
	<path class="st0" d="M20,21.2C20,21.2,20,21.3,20,21.2c-0.1,0.1-0.1,0.1-0.1,0C19.8,21.2,19.9,21.2,20,21.2
		C19.9,21.1,20,21.1,20,21.2z"/>
	<path class="st0" d="M7.3,8.4C7.3,8.5,7.2,8.5,7.3,8.4c-0.1,0.1-0.1,0-0.1,0C7.2,8.4,7.2,8.3,7.3,8.4C7.3,8.3,7.3,8.4,7.3,8.4z"/>
	<path class="st0" d="M19.2,14.5C19.1,14.5,19.1,14.5,19.2,14.5c-0.1-0.1-0.1-0.1,0-0.1C19.2,14.4,19.2,14.4,19.2,14.5
		C19.2,14.5,19.2,14.5,19.2,14.5z"/>
	<path class="st0" d="M7.3,10.5C7.3,10.5,7.3,10.5,7.3,10.5C7.3,10.5,7.3,10.5,7.3,10.5C7.2,10.4,7.2,10.4,7.3,10.5
		C7.3,10.4,7.3,10.4,7.3,10.5z"/>
	<path class="st0" d="M20,14.3c0,0,0,0.1,0,0.1c0,0-0.1,0-0.1,0C19.9,14.3,19.9,14.3,20,14.3C20,14.3,20,14.3,20,14.3z"/>
</g>
</svg>
