<?xml version="1.0" encoding="utf-8"?>
<!-- Generator: Adobe Illustrator 22.0.1, SVG Export Plug-In . SVG Version: 6.00 Build 0)  -->
<svg version="1.1" id="Layer_1" xmlns="http://www.w3.org/2000/svg" xmlns:xlink="http://www.w3.org/1999/xlink" x="0px" y="0px"
	 viewBox="0 0 30 27.8" style="enable-background:new 0 0 30 27.8;" xml:space="preserve">
<style type="text/css">
	.st0{fill:#216975;}
</style>
<g>
	<path class="st0" d="M27.7,2.2C27.7,2.2,27.7,2.2,27.7,2.2c0-0.2-0.1-0.3-0.1-0.3C27.6,2,27.6,2.1,27.7,2.2
		C27.7,2.2,27.7,2.2,27.7,2.2c0,0.1,0,0.1,0.1,0.2c0,0.1,0,0.1-0.1,0.1c-0.1,0-0.1-0.1-0.1-0.1c0,0,0-0.1,0-0.1
		C27.5,2.2,27.5,2,27.4,2c-0.1,0.2,0,0.3,0.1,0.4c0,0.1,0.1,0.1,0.1,0.2c0,0,0.1,0.1,0.1,0.1c0,0,0,0.1,0,0.1c0,0-0.1,0-0.1,0
		c-0.1-0.1-0.2-0.2-0.2-0.3c-0.1-0.1-0.1-0.3-0.2-0.4C27.1,2,27.1,2,27,2.1c-0.1,0-0.1,0.1-0.2,0c0-0.1,0-0.1,0.1-0.2
		c0,0,0.1-0.1,0.1-0.1c0.1,0,0.1,0,0.2-0.1c0.3-0.2,0.5-0.4,0.4-0.7c0,0,0,0,0,0c0-0.1,0-0.1,0-0.2c0.1,0,0.1-0.1,0.2,0
		C27.9,0.9,28,0.9,28,1c0,0,0.1,0.1,0.1,0.1c0.1,0,0.2,0.1,0.3,0.1c0.2,0.2,0.3,0.4,0.3,0.6c0,0,0,0.1,0,0.1c0,0.1,0,0.1,0.1,0.1
		c0.2,0,0.3,0,0.4,0.2c0,0.1,0.1,0.2,0.2,0.3c0.2,0.1,0.2,0.3,0.1,0.4c0,0-0.1,0.1-0.1,0.1c-0.1,0.1-0.1,0.2,0,0.4
		c0,0.1,0.1,0.1,0.1,0.2c0.1,0.2,0.2,0.3,0.1,0.5c0,0.1-0.1,0.2-0.1,0.3c0,0.5-0.1,1.1-0.2,1.6c-0.2,0.7-0.2,1.5-0.3,2.2
		c-0.1,0.6-0.1,1.3-0.1,1.9c0,0.7,0,1.5,0.1,2.2c0,0.5,0.1,0.9,0.1,1.4c0,0.4,0,0.8-0.1,1.2c-0.1,0.2-0.1,0.4-0.2,0.5
		c-0.2,0.6-0.4,1.2-0.7,1.8c0,0.1-0.1,0.1-0.1,0.2c-0.4,0.8-0.8,1.6-1.4,2.3c-0.7,0.9-1.5,1.7-2.5,2.4c-0.1,0.1-0.3,0.2-0.4,0.3
		c-0.2,0.2-0.5,0.4-0.7,0.6c-0.6,0.4-1.3,0.8-2,1.2c-0.8,0.5-1.7,0.9-2.7,1.2c-0.4,0.1-0.8,0.2-1.2,0.4c-0.6,0.2-1.2,0.4-1.9,0.5
		c-0.5,0.1-1,0.1-1.5,0.2c0,0-0.1,0-0.1,0c-0.4,0-0.8,0.1-1.2,0.1c-0.3,0-0.6,0.1-1,0.1C10.4,27,9.6,27,8.7,27c-0.8,0-1.6,0-2.4-0.1
		c-0.9,0-1.8-0.2-2.6-0.4c-0.3-0.1-0.5-0.1-0.7-0.3c-0.2-0.1-0.3-0.1-0.5-0.2c-0.2,0-0.3-0.1-0.5-0.2c-0.2-0.1-0.4-0.2-0.6-0.3
		c-0.1-0.1-0.2-0.1-0.4-0.1c-0.1-0.1-0.1-0.2-0.2-0.3c0-0.1,0-0.2,0-0.3c0-0.1,0-0.1-0.1-0.2c-0.1-0.1-0.1-0.1-0.1-0.2
		c0-0.3,0.1-0.5,0.3-0.7c0.1-0.1,0.2-0.2,0.4-0.2c0.1,0,0.2,0,0.3-0.1c0.3-0.1,0.6-0.2,0.8-0.3C2.6,23,2.8,22.9,3,22.7
		c0.4-0.3,0.7-0.6,1-1c0.1-0.1,0.1-0.2,0.2-0.2c0.2-0.2,0.4-0.3,0.7-0.5c0.2-0.1,0.4-0.2,0.6-0.3c0.3-0.1,0.7-0.2,1-0.3
		c0.4-0.1,0.9-0.1,1.3-0.1c0.8,0,1.6,0,2.3-0.1c0.1,0,0.3,0,0.4-0.1c0.2,0,0.3-0.1,0.5-0.1c0.2,0,0.3,0,0.5-0.1
		c0.2,0,0.4-0.1,0.5-0.1c0.4-0.1,0.8-0.1,1.3-0.1c0.1,0,0.2,0,0.3,0c0.4-0.2,0.8-0.2,1.2-0.3c0.6-0.1,1.1-0.4,1.6-0.6
		c0.4-0.2,0.8-0.4,1.2-0.7c0.2-0.1,0.5-0.3,0.7-0.5c0.3-0.2,0.5-0.4,0.8-0.6c0.2-0.2,0.5-0.4,0.7-0.6c0.2-0.2,0.4-0.4,0.7-0.6
		c0.4-0.4,0.8-0.8,1.2-1.2c0.4-0.4,0.7-0.8,1.2-1c0.5-0.3,0.9-0.8,1.3-1.2c0.2-0.2,0.4-0.4,0.6-0.6c0.3-0.2,0.6-0.5,0.9-0.7
		c0.1-0.1,0.3-0.2,0.4-0.4c0.3-0.4,0.5-0.8,0.7-1.2c0.2-0.7,0.4-1.4,0.6-2.1c0.1-0.3,0.1-0.6,0.1-0.9c0-0.3,0-0.6,0.1-0.9
		c0.1-0.5,0.1-0.9,0.1-1.4c0-0.5,0.1-0.4-0.4-0.6c-0.1,0-0.2-0.1-0.2-0.2c-0.2-0.3-0.3-0.7-0.2-1c0-0.1,0.1-0.2,0.2-0.3
		c0,0,0.1,0,0.1,0c0,0,0,0.1,0,0.1l0,0c0.1,0.1,0.1,0.2,0.1,0.3c0,0.2,0.1,0.3,0.2,0.4c0.1,0.1,0.1,0.2,0.2,0.2c0,0,0.1,0.1,0.1,0.1
		c0,0,0.1,0,0.1,0c0,0,0-0.1,0-0.1c0-0.1-0.1-0.1-0.1-0.2c0,0,0-0.1,0-0.1c0,0,0.1,0,0.1,0c0.1,0,0.1,0.1,0.1,0.1c0,0,0,0,0,0
		c0,0,0,0,0,0c0,0,0,0,0,0c0,0,0-0.1,0-0.1c0-0.1,0.1-0.1,0.1,0c0,0,0,0.1,0.1,0.1c0,0,0,0,0-0.1c0-0.2,0-0.4-0.2-0.6
		C27.8,2.3,27.8,2.3,27.7,2.2z M26.8,3.1L26.8,3.1C26.8,3.1,26.8,3.2,26.8,3.1c0.1,0.2,0.1,0.3,0.2,0.3c0,0,0.1,0,0.1,0
		c0,0,0-0.1,0-0.1C27.1,3.3,27,3.2,26.8,3.1C26.8,3.2,26.8,3.1,26.8,3.1L26.8,3.1z M27.9,2.1c0-0.1-0.1-0.2-0.1-0.4c0,0,0-0.1-0.1,0
		c0,0,0,0,0,0.1C27.8,1.8,27.8,2,27.9,2.1L27.9,2.1z M28.1,2.1c0,0,0,0.1-0.1,0.1c-0.2,0.1-0.1,0.2,0,0.4c0,0,0,0,0,0
		c0,0,0.1-0.1,0.1,0c0,0.1,0.1,0.1,0.1,0.2c0,0.1,0,0.2,0.1,0.3l0,0l0,0c0-0.1,0-0.2,0-0.3c0-0.1,0-0.2,0.1-0.3c0.1-0.1,0-0.1,0-0.2
		c0-0.1,0-0.2,0-0.3c0.1-0.3,0-0.5-0.2-0.7l0,0l0,0c0,0.3,0.1,0.6,0.1,0.8c0,0,0,0.1,0,0.1c0,0.1,0.1,0.2,0,0.2
		c-0.1,0-0.1-0.1-0.1-0.1C28.2,2.2,28.1,2.1,28.1,2.1C28.1,2,28.1,2,28.1,2.1c0-0.3-0.1-0.5-0.1-0.8c0,0,0-0.1-0.1-0.1
		c0,0,0,0-0.1,0c0,0,0,0,0,0.1c0,0.1,0.1,0.3,0.1,0.4C28,1.8,28,1.9,28.1,2.1C28.1,2,28.1,2,28.1,2.1z M2.3,23.5
		c0.3-0.1,0.7-0.2,1-0.2c0,0,0.1,0,0.1,0c0,0,0,0,0,0c0,0,0,0,0,0.1c0,0-0.1,0-0.2,0.1c-0.4,0.1-0.9,0.2-1.3,0.4
		c-0.2,0.1-0.3,0.1-0.5,0.2c0,0-0.1,0-0.1,0.1c0,0,0,0,0.1,0c0.1,0,0.2,0,0.3,0c0,0,0,0,0,0.1c0,0,0,0,0,0c-0.1,0-0.2,0-0.3,0.1
		c-0.2,0.1-0.4,0.4-0.4,0.6c0,0.1,0,0.1,0.1,0.1c0.2,0.2,0.5,0.4,0.8,0.5c0.2,0.1,0.4,0.2,0.5,0.3c0.6,0.4,1.2,0.5,1.8,0.7
		c0.4,0.1,0.9,0.1,1.4,0.2c0.5,0,1,0.1,1.5,0.1c0.2,0,0.5,0,0.7,0c0.5,0,1.1,0,1.6,0c0.6,0,1.2,0,1.8-0.1c0.1,0,0.2,0,0.3-0.1
		c0,0,0.1,0,0.1-0.1c0-0.1,0-0.1,0.1-0.2c0.4-0.2,0.8-0.3,1.2-0.4c0,0,0.1,0,0.1,0c0,0,0,0,0,0.1c0,0,0,0,0,0
		c-0.1,0-0.2,0.1-0.2,0.1c-0.3,0.1-0.6,0.2-0.8,0.3c-0.1,0-0.1,0.1-0.1,0.1c0,0,0,0.1,0,0.1c0.1,0,0.1,0,0.2,0
		c0.5,0,1.1-0.1,1.6-0.2c0.5-0.1,1-0.2,1.5-0.2c0.3,0,0.6-0.1,1-0.2c0.7-0.2,1.4-0.4,2-0.6c0.9-0.3,1.7-0.6,2.5-1.2
		c0.5-0.3,1-0.6,1.5-0.9c0.4-0.2,0.7-0.5,1-0.8c0.2-0.1,0.4-0.3,0.5-0.4c0.6-0.4,1.1-0.9,1.5-1.4c0.5-0.6,1-1.2,1.4-1.9
		c0.3-0.4,0.5-0.8,0.7-1.3c0.1-0.2,0.2-0.4,0.3-0.6c0-0.1,0.1-0.1,0.1-0.2c0.2-0.6,0.4-1.2,0.6-1.8c0.1-0.4,0.1-0.7,0.1-1.1
		c0-0.7-0.1-1.5-0.1-2.2c-0.1-0.9,0-1.8,0-2.8c0-1,0.2-1.9,0.4-2.9c0.1-0.5,0.2-1,0.3-1.5c0-0.1,0-0.1,0-0.2c-0.1,0-0.2-0.1-0.3-0.1
		c0,0,0,0-0.1,0.1c0,0.1,0,0.1,0,0.2c-0.1,0.5-0.1,0.9-0.2,1.4c-0.1,0.6-0.2,1.1-0.2,1.7c0,0.3-0.1,0.7-0.2,1c0,0.1,0,0.3,0,0.4
		c0,0.6-0.2,1.2-0.2,1.8c0,0,0,0,0,0c-0.1,0.6-0.2,1.1-0.4,1.7c0,0.2-0.1,0.3-0.2,0.5c-0.3,0.5-0.5,1-0.8,1.6
		c-0.1,0.3-0.3,0.5-0.5,0.8c-0.3,0.4-0.6,0.9-1,1.3c-0.2,0.2-0.3,0.4-0.5,0.5c-0.5,0.5-0.9,1.1-1.5,1.6c0,0-0.1,0.1-0.1,0.1
		c-0.1,0.2-0.2,0.2-0.3,0.3c-0.5,0.3-0.9,0.7-1.4,1c-0.1,0.1-0.2,0.1-0.3,0.1c0,0-0.1,0-0.1-0.1c0,0,0-0.1,0-0.1
		c0.2-0.1,0.4-0.2,0.5-0.3c0.3-0.2,0.6-0.4,0.9-0.6c0.2-0.2,0.4-0.3,0.6-0.5c0.6-0.7,1.3-1.4,1.9-2.1c0.3-0.4,0.6-0.8,0.9-1.1
		c0.5-0.6,0.8-1.4,1.2-2.1c0.1-0.1,0.1-0.2,0.2-0.3c0.2-0.4,0.3-0.8,0.4-1.2c0,0,0-0.1,0-0.1c0.2-0.6,0.3-1.2,0.3-1.8
		c0-0.2,0.1-0.4,0.1-0.6c0-0.4,0.1-0.8,0.2-1.2c0.1-0.4,0.1-0.7,0.1-1.1c0.1-0.5,0.1-0.9,0.2-1.4c0.1-0.5,0.2-1,0.2-1.4
		c0-0.1-0.1-0.2-0.1-0.3c-0.1-0.2-0.1-0.2-0.3-0.2c-0.1,0-0.2,0-0.3,0c-0.1-0.1-0.2,0-0.3,0c-0.2,0-0.2,0.1-0.2,0.2c0,0.5,0,1,0,1.5
		c0,0.4-0.1,0.9-0.1,1.3C27.4,7.5,27.2,8.3,27,9c-0.1,0.6-0.4,1.1-0.6,1.6c-0.2,0.3-0.4,0.6-0.7,0.8c-0.3,0.2-0.6,0.5-0.9,0.7
		c-0.2,0.2-0.4,0.4-0.6,0.6c-0.3,0.4-0.7,0.7-1,1c0,0,0,0-0.1,0.1c-0.3,0.2-0.7,0.4-0.9,0.7c-0.3,0.1-0.4,0.4-0.6,0.6
		c-0.2,0.2-0.3,0.3-0.4,0.5c-0.1,0.2-0.3,0.2-0.4,0.4c-0.3,0.3-0.7,0.7-1,1c-0.6,0.5-1.3,1.1-2,1.5c-0.5,0.3-0.9,0.5-1.4,0.8
		c-0.6,0.3-1.2,0.5-1.8,0.6c-0.2,0-0.4,0.1-0.6,0.2c-0.2,0.1-0.4,0.1-0.6,0.1c-0.6,0-1.1,0.1-1.7,0.2c-0.2,0-0.3,0.1-0.5,0.1
		c-0.1,0-0.3,0-0.4,0c-0.8,0.2-1.7,0.2-2.6,0.2c-0.2,0-0.5,0-0.7,0c-0.4,0-0.9,0.1-1.3,0.2c-0.5,0.1-0.9,0.3-1.2,0.6
		c-0.2,0.1-0.3,0.2-0.5,0.4c-0.2,0.2-0.4,0.4-0.5,0.6c0,0.1-0.1,0.1-0.2,0.1c-0.1,0-0.1,0.1-0.2,0.1c-0.2,0.2-0.5,0.4-0.8,0.5
		c-0.3,0.1-0.7,0.3-1,0.4c-0.1,0-0.1,0.1-0.2,0.1l0,0l0,0C1.7,23.7,2,23.6,2.3,23.5z M28.7,2.4c0.1,0,0.1,0,0.1,0.1
		c0,0.2-0.1,0.5-0.1,0.7c0,0,0,0.1,0,0.1c0,0,0.1,0,0.1,0c0.1,0,0.1-0.1,0.1-0.1c-0.1-0.1,0-0.3,0.1-0.4c0-0.1,0.1-0.1,0.1-0.1
		c0.1,0,0,0.1,0,0.1c0,0,0,0.1,0,0.1c0,0,0.1,0,0.1,0c0.1-0.1,0.1-0.2,0-0.2C29,2.6,29,2.5,29,2.4c0-0.1,0-0.2-0.2-0.1
		c-0.1,0-0.1,0-0.2,0c0,0-0.1,0-0.1,0.1C28.6,2.3,28.6,2.4,28.7,2.4z M28.6,2.8C28.6,2.8,28.6,2.8,28.6,2.8
		C28.6,2.8,28.6,2.8,28.6,2.8C28.6,2.9,28.6,2.9,28.6,2.8C28.6,2.9,28.6,3,28.6,3C28.6,3,28.6,2.9,28.6,2.8
		C28.6,2.9,28.6,2.9,28.6,2.8z M29.1,4C29.1,4,29.1,4,29.1,4C29.2,4,29.2,4,29.1,4c0.1-0.1,0.1-0.1,0.1-0.1
		C29.2,3.9,29.1,3.9,29.1,4C29.1,3.9,29.1,3.9,29.1,4C29.1,4,29.1,4,29.1,4z M26.7,2.6C26.7,2.6,26.8,2.6,26.7,2.6
		C26.8,2.5,26.8,2.5,26.7,2.6C26.7,2.6,26.7,2.6,26.7,2.6z"/>
	<path class="st0" d="M27,2.5C27,2.5,27,2.5,27,2.5c0,0.2,0.1,0.4,0.2,0.6c0,0,0.1,0,0.1,0c0,0,0-0.1,0-0.1
		c-0.1-0.2-0.1-0.4-0.2-0.5C27.1,2.4,27.1,2.4,27,2.5C27,2.5,27,2.5,27,2.5z"/>
	<path class="st0" d="M15.4,22.6C15.4,22.6,15.4,22.6,15.4,22.6c0.3,0,0.5-0.1,0.8-0.2c0,0,0.1,0,0.1-0.1c0-0.1,0,0-0.1-0.1
		c-0.1,0-0.2-0.1-0.1-0.2c0-0.2,0-0.2,0.1-0.2c0.1,0,0.2,0,0.3,0c0.2,0,0.4,0,0.7-0.1c0.3-0.1,0.6-0.2,0.9-0.2
		c0.1,0,0.2-0.1,0.3-0.1c0.1,0,0.2-0.2,0.4-0.1c-0.1,0.2-0.2,0.2-0.4,0.2c-0.2,0.1-0.4,0.2-0.5,0.2c-0.2,0.1-0.5,0.1-0.6,0.3
		c0,0-0.1,0.1-0.2,0.1c-0.2,0.1-0.4,0.2-0.6,0.3c-0.1,0.1-0.3,0.1-0.4,0.1c-0.3,0.1-0.6,0.1-0.9,0.2c-0.1,0-0.2,0-0.2,0
		c0,0,0-0.1-0.1,0c-0.1,0.2-0.4,0.1-0.6,0.2c-0.1,0-0.2,0-0.3,0.1c-0.1,0-0.2,0-0.3,0c-0.1,0-0.2,0-0.2-0.1c0-0.1-0.1-0.1-0.1-0.1
		c-0.1,0-0.1,0-0.1,0.1c0,0.1-0.1,0.1-0.2,0.1c-0.2,0.1-0.5,0.1-0.7,0.1c-0.3,0-0.6,0.1-0.9,0.1c-0.2,0-0.4,0.1-0.6,0.1
		c-0.3,0-0.7,0-1,0.1c-0.2,0.1-0.5,0.1-0.7,0.1c-0.2,0-0.4,0-0.6,0.1c0,0-0.1,0-0.1,0c0,0-0.1,0-0.1-0.1c0,0,0,0,0-0.1
		c0.1,0,0.1-0.1,0.2-0.1c0.2-0.1,0.5-0.1,0.7-0.1c0.4,0,0.8-0.2,1.2-0.2c0,0,0.1,0,0.1,0c0.1,0,0.3-0.1,0.4-0.1
		c0.3-0.1,0.7-0.2,1-0.4c0.2-0.1,0.5-0.1,0.7-0.2c0,0,0.1,0,0.1,0c0.2,0.1,0.4,0.1,0.6,0.2c0.1,0,0.2,0,0.3,0c0.2,0,0.5-0.1,0.7-0.1
		c0.2,0,0.4-0.1,0.5-0.2c0.2-0.1,0.3-0.3,0.5-0.4c0,0,0.1-0.1,0.2,0c0.1,0,0,0.1,0,0.1c-0.1,0.1-0.1,0.1-0.2,0.2
		C15.6,22.5,15.5,22.5,15.4,22.6C15.4,22.6,15.4,22.6,15.4,22.6z M16.4,22.2C16.4,22.2,16.4,22.2,16.4,22.2
		C16.4,22.2,16.4,22.2,16.4,22.2C16.4,22.2,16.5,22.2,16.4,22.2L16.4,22.2C16.5,22.2,16.4,22.2,16.4,22.2z M12.6,23
		c0.1,0,0.3-0.1,0.4-0.1c0,0,0,0,0,0c0,0,0,0,0,0C12.8,22.8,12.7,22.9,12.6,23C12.6,23,12.5,23,12.6,23C12.5,23,12.6,23,12.6,23z"/>
	<path class="st0" d="M5.1,24.5c0.2,0,0.4,0,0.7,0c0.4,0,0.8,0,1.3,0c0.4,0,0.8-0.1,1.3-0.1c0.1,0,0.2,0,0.3,0
		c0.4,0.1,0.8,0,1.2-0.1c0.3-0.1,0.6-0.2,1-0.2c0.1,0,0.2,0,0.3,0c0.3-0.1,0.6-0.1,0.9-0.2c0.1,0,0.2,0,0.2,0c0,0,0,0,0.1,0
		c0,0,0,0-0.1,0c-0.4,0-0.8,0-1.2,0.1c-0.1,0-0.2,0-0.3,0c-0.4,0-0.8,0.1-1.1,0.2c-0.2,0.1-0.5,0.1-0.8,0.1c0,0,0,0-0.1,0
		c-0.3-0.1-0.7,0-1,0c-0.2,0-0.4,0.1-0.7,0c-0.2,0-0.3,0-0.5,0c-0.3,0-0.6,0-0.9,0c-0.2,0-0.4,0-0.6,0.1c0,0,0,0,0,0
		C5,24.4,5,24.4,5.1,24.5C5,24.5,5,24.5,5.1,24.5z"/>
	<path class="st0" d="M27.6,8.9c0.1-0.5,0.2-1,0.3-1.5c0-0.1,0-0.3,0-0.4c0-0.5,0-0.9,0.1-1.4c0-0.3,0-0.7,0.1-1
		c0-0.2,0.1-0.4,0.1-0.7c0,0,0-0.1,0-0.1c0,0-0.1,0-0.1,0C28,4.1,28,4.2,27.9,4.3c0,0.3-0.1,0.6-0.1,0.9c0,0.4,0,0.7-0.1,1
		c0,0.2,0,0.3,0,0.5c0,0.5-0.1,1.1-0.2,1.6c-0.1,0.5-0.2,1-0.4,1.5c-0.1,0.2-0.2,0.4-0.2,0.6c0,0,0,0.1,0,0.1c0,0,0,0,0,0.1
		c0,0,0,0,0.1,0c0,0,0,0,0.1-0.1c0-0.1,0.1-0.1,0.1-0.2C27.3,10,27.5,9.5,27.6,8.9z"/>
	<path class="st0" d="M22.2,14.6C22.2,14.6,22.1,14.6,22.2,14.6c-0.1,0.1-0.2,0.1-0.2,0.1c-0.2,0.3-0.5,0.6-0.7,0.9
		c-0.2,0.4-0.5,0.8-0.8,1.1c0,0.1-0.1,0.1-0.1,0.2c0,0.1,0.1,0,0.2-0.1c0.2-0.2,0.4-0.5,0.6-0.7c0.1-0.1,0.1-0.2,0.1-0.2
		c0.2-0.4,0.5-0.7,0.7-1C22.2,14.8,22.2,14.7,22.2,14.6C22.2,14.6,22.2,14.6,22.2,14.6z"/>
	<path class="st0" d="M3.1,24.1c0.3,0.1,0.6,0.1,0.9,0C4.4,24,4.9,24,5.3,24c0.2,0,0.4-0.1,0.6-0.1c0,0,0,0,0-0.1c0,0,0,0-0.1-0.1
		c-0.1,0-0.2,0-0.3,0c-0.2,0-0.3,0-0.5,0.1c-0.1,0-0.3,0-0.4,0c-0.2,0-0.3,0-0.5,0C4,24,3.7,24,3.4,24C3.3,24,3.3,24,3.1,24.1
		C3.1,24,3.1,24,3.1,24.1C3.1,24.1,3.1,24.1,3.1,24.1C3.2,24.1,3.2,24.1,3.1,24.1z"/>
	<path class="st0" d="M23.1,18.3C23.1,18.3,23,18.3,23.1,18.3c-0.7,0.4-1.3,0.8-1.8,1.3c0,0-0.1,0.1-0.1,0.1c0,0,0,0.1,0,0.1
		c0,0,0,0,0.1,0c0.1,0,0.1,0,0.2-0.1c0.3-0.2,0.7-0.5,1-0.7c0.2-0.1,0.3-0.2,0.5-0.3C23,18.6,23.1,18.5,23.1,18.3
		C23.1,18.4,23.1,18.4,23.1,18.3z"/>
	<path class="st0" d="M5.8,22.9c0.2,0,0.4,0,0.5,0c0.4-0.1,0.9-0.2,1.3-0.2c0.2,0,0.4-0.1,0.5-0.2c0,0,0.1,0,0.1-0.1
		c0-0.1-0.1-0.1-0.1,0c-0.3,0.1-0.5,0.1-0.8,0.2c0,0-0.1,0-0.1,0c-0.2,0-0.4,0.1-0.5,0.2l0,0c0,0,0,0-0.1,0l0,0
		C6.4,22.7,6.1,22.8,5.8,22.9L5.8,22.9z"/>
	<path class="st0" d="M1.4,24.7c0.1,0,0.3,0,0.4,0.1c0,0.1,0.1,0.1,0.2,0.1c0.2,0,0.3,0,0.5,0c0.2,0,0.3-0.1,0.5,0
		c0.1,0.1,0.3,0,0.5,0.1c0,0,0.1,0,0.1-0.1c0,0,0-0.1-0.1-0.1c0,0-0.1,0-0.1,0c-0.1,0-0.2,0-0.2,0c-0.2-0.1-0.5-0.1-0.7-0.1
		c-0.2,0-0.4,0-0.6,0c-0.1-0.1-0.2-0.1-0.4,0C1.4,24.6,1.3,24.6,1.4,24.7C1.3,24.6,1.4,24.7,1.4,24.7z"/>
	<path class="st0" d="M18.8,18C18.8,18,18.8,18,18.8,18c-0.2,0.2-0.4,0.3-0.5,0.4c-0.2,0.2-0.5,0.3-0.7,0.5
		c-0.1,0.1-0.1,0.1-0.2,0.2c0,0,0,0.1,0,0.1c0,0,0.1,0,0.1,0c0,0,0.1,0,0.1,0c0.4-0.3,0.9-0.5,1.3-0.9C18.8,18.2,18.8,18.1,18.8,18
		C18.9,18,18.9,18,18.8,18z"/>
	<path class="st0" d="M17,19.3c0,0-0.1,0-0.1,0c-0.3,0.2-0.7,0.4-1.1,0.6c0,0-0.1,0-0.1,0.1c0,0,0,0,0,0.1c0,0,0,0,0.1,0
		c0,0,0.1,0,0.1,0c0.3-0.2,0.7-0.3,1-0.5C16.9,19.5,16.9,19.4,17,19.3C17,19.3,17,19.3,17,19.3z"/>
	<path class="st0" d="M5.9,22.6C5.9,22.6,5.9,22.6,5.9,22.6C6,22.6,6,22.6,6,22.6c0.5-0.1,1-0.2,1.5-0.3c0.1,0,0.2,0,0.1-0.1
		c0-0.1-0.1,0-0.2,0c-0.3,0-0.5,0.1-0.8,0.1C6.4,22.3,6.2,22.4,5.9,22.6C5.9,22.5,5.9,22.5,5.9,22.6z"/>
	<path class="st0" d="M10.1,21.8C10.1,21.8,10.1,21.7,10.1,21.8c-0.3,0-0.6,0-0.9,0.1c-0.1,0-0.2,0.1-0.2,0.1c0,0-0.1,0.1,0,0.1
		c0,0,0,0.1,0.1,0.1c0.1,0,0.2,0,0.3,0C9.5,22,9.8,22,10,21.9C10,21.9,10.1,21.9,10.1,21.8C10.1,21.8,10.1,21.8,10.1,21.8z"/>
	<path class="st0" d="M6.6,21.5c-0.2-0.1-0.4,0-0.6,0c0,0-0.1,0.1,0,0.1c0.1,0.1,0.2,0.2,0.2,0.3c0.1,0.1,0.2,0.1,0.2,0
		c0-0.1,0-0.1,0-0.1c0,0-0.1,0,0-0.1c0,0,0,0,0.1,0c0.2,0.1,0.4,0.1,0.6,0c0,0,0.1,0,0.1-0.1c0,0,0,0,0,0
		C6.8,21.6,6.7,21.6,6.6,21.5z"/>
	<path class="st0" d="M26.6,11.1C26.6,11.1,26.6,11.1,26.6,11.1c-0.1,0-0.1,0.1-0.2,0.1c-0.2,0.2-0.4,0.5-0.6,0.8c0,0,0,0.1,0,0.1
		c0,0,0.1,0,0.1,0c0,0,0.1-0.1,0.1-0.1c0.1-0.1,0.2-0.2,0.2-0.3c0.1-0.1,0.2-0.3,0.3-0.4C26.6,11.2,26.6,11.1,26.6,11.1z"/>
	<path class="st0" d="M10.5,26.4C10.5,26.4,10.5,26.4,10.5,26.4c-0.1,0.1-0.1,0.1-0.1,0.1c0,0,0.1,0.1,0.1,0.1c0.1,0,0.2,0,0.3-0.1
		c0.1,0,0.2,0,0.2,0l0,0c0,0,0,0,0.1,0l0,0c0.1,0,0.1-0.1,0.2-0.1l0,0c0.1-0.1,0.1-0.1,0.2-0.2c0,0,0-0.1,0-0.1c0,0,0,0-0.1,0
		c-0.1,0-0.1,0-0.2,0.1C11,26.3,10.8,26.4,10.5,26.4L10.5,26.4z"/>
	<path class="st0" d="M26.6,11.7c0,0.1,0,0.1,0,0.1c0,0,0,0,0,0c0,0,0,0,0.1,0c0,0,0.1-0.1,0.1-0.1c0.1-0.2,0.2-0.4,0.4-0.7
		c0,0,0-0.1,0-0.1c0,0,0,0,0-0.1c0,0,0,0-0.1,0c0,0,0,0,0,0C26.9,11.2,26.7,11.4,26.6,11.7z"/>
	<path class="st0" d="M10.5,26.4c0.1-0.1,0.2-0.1,0.3-0.1c0.1,0,0.2-0.1,0.2-0.1c0,0,0-0.1,0-0.1c0,0,0,0,0,0
		c-0.3,0.1-0.6,0.1-0.8,0.2c0,0-0.1,0.1,0,0.1c0,0,0,0,0.1,0C10.3,26.4,10.4,26.4,10.5,26.4L10.5,26.4z"/>
	<path class="st0" d="M11.1,26.5c0,0.1,0,0.2,0.1,0.2c0.3,0,0.5-0.1,0.7-0.3c0,0,0,0,0-0.1c0,0,0,0,0,0c-0.1,0-0.2,0-0.3,0.1
		c-0.1,0-0.2,0.1-0.3,0.1l0,0C11.3,26.4,11.2,26.4,11.1,26.5L11.1,26.5C11.1,26.4,11.1,26.5,11.1,26.5L11.1,26.5z"/>
	<path class="st0" d="M15,20.2C14.9,20.2,14.9,20.2,15,20.2c-0.2,0.1-0.5,0.1-0.6,0.2c0,0,0,0,0,0c0,0,0,0.1,0,0.1c0,0,0,0.1,0.1,0
		c0.2-0.1,0.5-0.1,0.7-0.2C15,20.3,15,20.3,15,20.2C15,20.2,15,20.2,15,20.2z"/>
	<path class="st0" d="M24,19.9c0,0,0-0.1,0-0.1c0-0.1,0-0.1,0-0.2c-0.1,0-0.1,0-0.1,0.1c-0.1,0.2-0.2,0.4-0.2,0.6c0,0,0,0.1,0,0.1
		c0.1,0,0.1,0,0.1,0C23.9,20.2,24,20,24,19.9z"/>
	<path class="st0" d="M24.2,19.6c0,0,0,0.1,0,0.1c0,0,0,0.1,0,0.1c0,0,0.1,0,0.1,0c0.1-0.1,0.1-0.3,0.1-0.4c0,0,0-0.1-0.1-0.1
		c0,0-0.1,0-0.1,0C24.3,19.4,24.2,19.5,24.2,19.6z"/>
	<path class="st0" d="M5.4,22.1C5.4,22.1,5.4,22.1,5.4,22.1c0.2,0,0.4,0,0.6-0.1c0,0,0,0,0,0c0,0,0-0.1,0-0.1c0,0-0.1,0-0.1,0
		C5.7,22,5.6,22,5.4,22.1C5.4,22,5.4,22,5.4,22.1z"/>
	<path class="st0" d="M24,20.3C24,20.3,24,20.3,24,20.3c0,0.1,0,0.1,0,0.1c0,0,0.1,0,0.1,0c0.1-0.1,0.1-0.1,0.2-0.2c0,0,0-0.1,0-0.1
		c0,0-0.1,0-0.1,0C24,20.1,24,20.2,24,20.3z"/>
	<path class="st0" d="M23.2,20.6C23.2,20.6,23.2,20.6,23.2,20.6c0,0.1-0.1,0.2-0.1,0.2c0,0,0.1,0,0.2-0.1c0-0.1,0.1-0.1,0-0.2
		c0,0,0,0-0.1,0C23.3,20.5,23.3,20.5,23.2,20.6C23.3,20.5,23.3,20.6,23.2,20.6L23.2,20.6z"/>
	<path class="st0" d="M5.4,21.7c0,0,0.1,0.1,0.1,0.1c0.1,0,0.2-0.1,0.3-0.1c0,0,0-0.1,0-0.1C5.7,21.6,5.5,21.6,5.4,21.7
		C5.4,21.7,5.4,21.7,5.4,21.7z"/>
	<path class="st0" d="M7.3,21.3C7.3,21.3,7.3,21.3,7.3,21.3c-0.1,0-0.1,0.1-0.1,0.1c0,0.1,0.1,0.1,0.2,0.1c0.1,0,0.1,0,0.2-0.1
		c0-0.1,0-0.1-0.1-0.1C7.4,21.3,7.4,21.3,7.3,21.3C7.4,21.3,7.4,21.3,7.3,21.3z"/>
	<path class="st0" d="M13.1,20.8C13.1,20.9,13.1,20.9,13.1,20.8c0.2,0.1,0.3,0.1,0.4,0c0,0,0-0.1,0-0.1
		C13.4,20.7,13.2,20.7,13.1,20.8C13.1,20.8,13.1,20.8,13.1,20.8z"/>
	<path class="st0" d="M26.3,16.5c0,0,0,0.1,0,0.1c0.1,0,0.1,0,0.2-0.1c0,0,0-0.1,0-0.1C26.4,16.4,26.4,16.4,26.3,16.5z"/>
	<path class="st0" d="M25.9,17.1C25.9,17.1,25.9,17.1,25.9,17.1C25.8,17.1,25.8,17.1,25.9,17.1c-0.2,0.1-0.2,0.2-0.2,0.3
		c0,0,0,0,0,0C25.8,17.4,25.9,17.3,25.9,17.1C25.9,17.2,25.9,17.2,25.9,17.1C25.9,17.1,25.9,17.1,25.9,17.1z"/>
	<path class="st0" d="M23.3,20.5C23.3,20.5,23.3,20.5,23.3,20.5c0.1-0.1,0.1-0.2,0-0.2c-0.1,0-0.1,0-0.2,0.1c0,0,0,0.1-0.1,0.1
		c0,0.1,0,0.1,0.1,0.1L23.3,20.5C23.3,20.6,23.3,20.5,23.3,20.5C23.3,20.5,23.3,20.5,23.3,20.5z"/>
	<path class="st0" d="M4.7,22.2C4.7,22.2,4.7,22.2,4.7,22.2c-0.2,0-0.3,0-0.3,0.1c0,0,0,0,0,0C4.5,22.4,4.6,22.4,4.7,22.2
		C4.7,22.3,4.7,22.3,4.7,22.2C4.7,22.3,4.7,22.3,4.7,22.2z"/>
	<path class="st0" d="M25.8,18.2c-0.1,0-0.1,0-0.1,0.1c0,0,0,0.1,0,0.1c0.1,0,0.1,0,0.1-0.1C25.9,18.3,25.8,18.3,25.8,18.2z"/>
	<path class="st0" d="M25.2,19.1C25.2,19.1,25.2,19.2,25.2,19.1c0.1,0.1,0.2,0,0.2,0c0,0,0-0.1,0-0.1C25.3,18.9,25.2,19,25.2,19.1z"
		/>
	<path class="st0" d="M26.4,17.3c-0.1,0-0.1,0-0.1,0.1c0,0.1,0,0.1,0.1,0.1c0.1,0,0.1,0,0.1-0.1C26.4,17.4,26.4,17.3,26.4,17.3z"/>
	<path class="st0" d="M24.6,19.7C24.6,19.8,24.6,19.8,24.6,19.7c0.1,0.1,0.2,0.1,0.2,0c0,0,0-0.1,0-0.1
		C24.6,19.6,24.6,19.6,24.6,19.7z"/>
	<path class="st0" d="M26.5,17.5c0,0,0,0.1,0,0.1c0.1,0,0.1,0,0.1-0.1c0,0,0-0.1-0.1-0.1C26.6,17.5,26.6,17.5,26.5,17.5z"/>
	<path class="st0" d="M22.6,20.8c-0.1,0-0.1,0-0.1,0.1c0,0,0,0.1,0.1,0.1C22.6,21,22.7,20.9,22.6,20.8
		C22.7,20.8,22.7,20.8,22.6,20.8z"/>
	<path class="st0" d="M25.6,17.9c0,0,0.1,0,0.1-0.1c0,0,0-0.1-0.1-0.1C25.6,17.7,25.5,17.8,25.6,17.9C25.5,17.8,25.5,17.9,25.6,17.9
		z"/>
	<path class="st0" d="M26,18.6c0.1,0,0.1,0,0.1-0.1c0,0,0-0.1,0-0.1C26,18.5,25.9,18.5,26,18.6C25.9,18.6,25.9,18.6,26,18.6z"/>
	<path class="st0" d="M25.1,18.1C25.1,18.1,25.1,18.1,25.1,18.1c0.1,0.1,0.1,0.1,0.2,0c0,0,0-0.1,0-0.1C25.1,18,25.1,18,25.1,18.1z"
		/>
	<path class="st0" d="M25,18.7C25,18.8,25,18.8,25,18.7c0.1,0.1,0.1,0.1,0.1,0C25.1,18.7,25.1,18.7,25,18.7C25,18.7,25,18.7,25,18.7
		z"/>
	<path class="st0" d="M24.6,19.1C24.6,19.2,24.6,19.2,24.6,19.1c0.1,0.1,0.1,0.1,0.1,0C24.7,19.1,24.7,19.1,24.6,19.1
		C24.6,19.1,24.6,19.1,24.6,19.1z"/>
	<path class="st0" d="M26,17.8C26,17.9,26,17.9,26,17.8c0.1,0.1,0.1,0.1,0.1,0C26.1,17.8,26.1,17.8,26,17.8C26,17.8,26,17.8,26,17.8
		z"/>
	<path class="st0" d="M25.7,18.9C25.7,18.9,25.7,19,25.7,18.9c0.1,0.1,0.1,0.1,0.1,0C25.8,18.9,25.8,18.9,25.7,18.9
		C25.7,18.8,25.7,18.9,25.7,18.9z"/>
	<path class="st0" d="M25.4,18.5C25.3,18.5,25.3,18.5,25.4,18.5c-0.1,0.1-0.1,0.1-0.1,0.1C25.3,18.6,25.4,18.6,25.4,18.5
		C25.4,18.6,25.4,18.5,25.4,18.5z"/>
	<path class="st0" d="M4.4,23.1C4.4,23.1,4.4,23.1,4.4,23.1c-0.1,0-0.1,0-0.1,0.1c0,0,0,0,0.1,0C4.4,23.2,4.4,23.2,4.4,23.1
		L4.4,23.1z"/>
	<path class="st0" d="M5.8,22.9c-0.1,0-0.1,0-0.2,0c0,0,0,0,0,0C5.7,23,5.8,23,5.8,22.9L5.8,22.9z"/>
	<path class="st0" d="M19.3,21.2C19.3,21.2,19.3,21.2,19.3,21.2C19.4,21.2,19.4,21.1,19.3,21.2C19.3,21.1,19.3,21.1,19.3,21.2
		C19.3,21.1,19.3,21.2,19.3,21.2z"/>
	<path class="st0" d="M6.8,22.7C6.7,22.7,6.7,22.7,6.8,22.7L6.8,22.7C6.7,22.7,6.7,22.7,6.8,22.7L6.8,22.7z"/>
	<polygon class="st0" points="4.4,23.1 4.4,23.1 4.4,23.1 	"/>
	<polygon class="st0" points="5.7,21.8 5.7,21.8 5.7,21.8 	"/>
</g>
</svg>
