<?xml version="1.0" encoding="utf-8"?>
<!-- Generator: Adobe Illustrator 22.0.1, SVG Export Plug-In . SVG Version: 6.00 Build 0)  -->
<svg version="1.1" id="Layer_1" xmlns="http://www.w3.org/2000/svg" xmlns:xlink="http://www.w3.org/1999/xlink" x="0px" y="0px"
	 viewBox="0 0 30 27.8" style="enable-background:new 0 0 30 27.8;" xml:space="preserve">
<style type="text/css">
	.st0{fill:#821A5F;}
</style>
<path class="st0" d="M4.8,17.7C4.9,17.6,4.9,17.6,4.8,17.7c0.6-0.3,1-0.5,1.6-0.6C6.9,17,7.2,17,7.5,17.2c0.2,0,0.3-0.1,0.3-0.2
	c0.2-0.2,0.3-0.3,0.4-0.3c0.2-0.2,0.5-0.3,0.8-0.6C9.2,16,9.2,16,9.3,16c0.2-0.2,0.3-0.3,0.4-0.6l0.1-0.1c0.3-0.3,0.3-0.7,0.6-1.1
	c0.2-0.2,0.3-0.4,0.5-0.7c0.2-0.2,0.3-0.3,0.3-0.6c0.2-0.2,0.1-0.4,0.1-0.6c0-0.2-0.1-0.4-0.1-0.6l0,0c0.1-0.6,0.3-1.2,0.8-1.6
	c0.3-0.3,0.5-0.5,0.8-0.8c0.3-0.3,0.6-0.6,0.9-0.8c0.1-0.1,0.3-0.1,0.3-0.2c0.1-0.1,0.3-0.3,0.4-0.3c0.3-0.2,0.8-0.3,1.1-0.6
	c0.1-0.1,0.1-0.1,0.2-0.2c0.3-0.4,0.8-0.8,1.2-1C17,6.2,17.1,6.2,17.3,6c0.1-0.1,0.2-0.2,0.2-0.2c0.4-0.3,0.7-0.5,1-0.9
	c0.3-0.3,0.7-0.5,1.2-0.7c0.5-0.2,0.9-0.4,1.2-0.7c0.5-0.3,1-0.5,1.6-0.6c0.4-0.1,0.9-0.2,1.2-0.3c0,0,0.2,0,0.2-0.2
	c-0.7-0.2-1.3-0.3-2.1-0.3c0.1-0.1,0.2,0,0.3-0.1c0.5,0,0.9,0.1,1.4,0.2c0.4,0.1,0.8,0.1,1.2-0.2C24.8,2,24.9,2,25,1.9
	c-0.1-0.1-0.1-0.1-0.2,0c-0.5-0.2-0.9-0.3-1.4-0.5c-0.3-0.1-0.3-0.3-0.6-0.6c0.2,0,0.3,0.1,0.3,0.3c0.3,0.3,0.5,0.3,0.8,0.6
	c0.4,0.3,0.9,0.3,1.5,0.4c0.1,0.1,0.2,0,0.3,0c0.5,0,1,0.2,1.4,0.5c0.2,0.2,0.4,0.3,0.7,0.3C28,3,28.2,3.2,28.4,3.5
	c0,0.2,0.3,0.3,0.3,0.3C29,4,29.1,4,29.3,4.1c-0.1,0.1-0.2,0-0.3,0C28.7,4,28.5,4,28.4,3.9c-0.1-0.1-0.2,0-0.2,0
	c-0.1,0.1-0.1,0.3-0.1,0.4c0.1,0.1,0.1,0.3,0.2,0.3c0,0.2,0.2,0.3,0,0.5c-0.1,0.1,0,0.2,0,0.2c0.1,0.1,0.1,0.3,0,0.3
	C28.1,6,27.9,6.4,28,6.8c0,0.2-0.1,0.4-0.1,0.6c0,0.3-0.1,0.6-0.3,0.9c-0.1,0.1-0.1,0.3-0.1,0.4c0,0.2-0.1,0.3-0.2,0.3
	c-0.1,0.1-0.2,0.2-0.1,0.3c0,0.3,0,0.7-0.2,1c0,0.3-0.2,0.7-0.3,1c-0.2,0.2-0.1,0.4-0.3,0.6c-0.2,0.3-0.3,0.6-0.4,0.9
	c-0.1,0.1-0.3,0.3-0.3,0.3c-0.2,0.2-0.3,0.5-0.6,0.6c-0.3,0.3-0.6,0.4-1,0.5c-0.2,0-0.3,0.1-0.3,0.2c-0.2,0.2-0.3,0.3-0.5,0.3
	c-0.4,0.1-0.6,0.4-0.8,0.8c-0.3,0.6-0.6,1.1-1.1,1.5c-0.1,0.1-0.3,0.1-0.4,0.1c0.5-0.3,0.9-0.9,1.2-1.4c-0.3,0.3-0.6,0.6-1,0.9
	c-0.6,0.4-1.3,0.9-2,1.3l-0.1,0.1c-0.4,0.4-0.9,0.7-1.2,1c-0.2,0.2-0.3,0.3-0.3,0.5c-0.1,0.1-0.2,0.2-0.3,0.3
	c-0.3,0.1-0.4,0.4-0.5,0.7s-0.3,0.5-0.5,0.7c-0.5,0.3-1,0.7-1.6,0.9c-0.6,0.3-1.1,0.4-1.8,0.3c-0.3-0.1-0.3,0-0.4,0.3
	c-0.2,0.3-0.5,0.5-0.8,0.8c-0.3,0.3-0.5,0.5-0.7,0.9c-0.3,0.4-0.6,0.6-1.2,0.5c0.2,0,0.3-0.1,0.4-0.1c0.3-0.1,0.3-0.2,0.5-0.3
	c0.3-0.5,0.8-0.9,1.2-1.4c0.1-0.1,0.2-0.2,0.2-0.3c-0.1-0.1-0.2,0-0.3,0.1c-0.3,0.2-0.9,0.3-1.2,0.5c-0.5,0.2-1,0.3-1.5,0.4
	c-0.3,0-0.7,0.2-0.9,0.3c-0.3,0.1-0.4,0.1-0.7,0c-0.4-0.1-0.9,0-1.2,0.2c-0.4,0.3-0.9,0.3-1.4,0.3c-0.8,0.1-1.4,0.3-2,0.8
	c-0.4,0.3-0.6,0.6-0.9,0.9c-0.3,0.3-0.7,0.7-1.1,0.8c0.3-0.3,0.5-0.3,0.8-0.6s0.4-0.4,0.6-0.8c-0.3,0-0.6,0.3-0.9,0.2
	c-0.3,0.1-0.5,0.2-0.8,0.1c0.3-0.1,0.4-0.1,0.7-0.2c0.5-0.2,0.9-0.4,1.5-0.6c0.3-0.2,0.8-0.4,1.1-0.8c0.2-0.2,0.3-0.3,0.4-0.4
	c0.2-0.3,0.5-0.7,0.8-0.9c0.4-0.6,0.9-1.3,1.3-2c0-0.3,0.2-0.7,0.3-0.9c0.1-0.6,0.5-1,0.9-1.5c0.2-0.2,0.3-0.4,0.3-0.8
	c-0.1-0.1-0.1-0.3-0.2-0.3c0-0.2,0-0.2-0.3-0.3c-0.4-0.1-0.8-0.1-1.3,0.1c-0.3,0.2-0.6,0.3-0.9,0.4C5.1,17.6,5,17.7,4.8,17.7
	L4.8,17.7z M7.9,18.4L7.9,18.4c-0.2,0.3-0.2,0.5-0.2,0.9C7.8,19.6,8,20,8,20.5c0.1,0.4,0.3,0.7,0.8,0.9c0.2,0,0.3,0.1,0.4,0.1
	C9,21.4,9,21.2,8.8,21c-0.2-0.2-0.3-0.3-0.3-0.5c0.1-0.1,0.1-0.1,0.2,0c0.2,0.2,0.4,0.4,0.5,0.7c0.1,0.3,0.3,0.5,0.6,0.6
	c0.5,0.3,0.9,0.6,1.5,0.8c-0.2,0-0.3,0.1-0.4,0.1c-0.3-0.2-0.6-0.3-0.9-0.4c-0.2-0.2-0.5-0.3-0.8-0.4c-0.3-0.2-0.7-0.3-0.9-0.6
	C8,21,7.9,20.9,7.8,20.7c0-0.3-0.1-0.8-0.2-1c0-0.2-0.1-0.4-0.2-0.5c-0.2,0.9-0.1,1.6,0.4,2.5c-0.2,0-0.3-0.1-0.3-0.3
	c-0.2-0.2-0.3-0.5-0.3-0.8c0-0.3-0.1-0.6-0.1-0.9c0,0,0.1-0.1-0.1-0.1c-0.1,0.3-0.1,0.6,0,1s0.3,0.8,0.5,1c-0.2,0-0.3-0.1-0.3-0.2
	c-0.2-0.2-0.3-0.5-0.4-0.8l0-0.2c0.1-0.1,0-0.3,0-0.5c-0.2,0.2-0.2,0.3,0,0.5l0,0c-0.1,0.8,0.3,1.5,0.9,1.8L8,22.4
	c-0.3-0.1-0.4-0.1-0.7-0.3c-0.2-0.2-0.3-0.3-0.4-0.6c-0.1-0.1-0.2-0.2-0.2-0.5c0-0.2,0-0.2,0-0.3c-0.1,0.3-0.2,0.5-0.3,0.8
	c0,0,0,0,0,0.2c0,0.3,0.1,0.8,0.3,1.1C6.9,23,7,23.2,7.5,23.2c0.2,0,0.3,0,0.5,0c0,0,0.1-0.1,0.2,0c-0.7,0.2-1.2,0-1.6-0.8
	c0,0.3,0.1,0.6,0.1,0.9c0,0,0.1,0.1,0.2,0.2c0.1,0.1,0.3,0.1,0.4,0.1c0.2,0,0.2,0,0.3,0c0.3,0.1,0.5,0,0.7,0
	c0.3-0.1,0.5-0.2,0.7-0.2c0.4-0.1,0.9-0.2,1.3-0.3c0.6-0.3,1.2-0.5,1.8-0.8c0.1-0.1,0.2-0.2,0.2-0.2c0-0.2,0.1-0.3,0.2-0.3
	c0.2-0.2,0.2-0.3,0.1-0.6c-0.1-0.1,0-0.2-0.1-0.3c0,0,0,0,0.1-0.1c0,0,0,0,0.1,0.1c0.1,0.1,0.1,0.1,0.2,0.2c0.1,0.3,0.1,0.3,0.4,0.3
	h0.2c0,0,0.1-0.1,0.2,0c-0.1,0.1-0.3,0.1-0.3,0.2c-0.2,0-0.4,0.1-0.5,0.3c0,0-0.1,0.1-0.2,0.2c-0.1,0.1-0.1,0.1,0,0.2
	c0.3,0,0.6,0.1,0.9,0.1c0.5,0,0.9-0.2,1.2-0.3c0.4-0.3,0.9-0.5,1.3-0.8c0.2-0.2,0.3-0.3,0.4-0.6c-0.2,0-0.3,0.1-0.4,0.1
	c-0.5,0-0.9-0.1-1.5-0.1c-0.6-0.1-1.1-0.4-1.5-0.9c-0.3-0.3-0.4-0.4-0.7-0.5l-0.1-0.1c0.3,0.2,0.6,0.3,0.9,0.5
	c0.2,0.3,0.6,0.6,1,0.7c0.5,0.2,1.1,0.3,1.6,0.3c0.2,0,0.3,0,0.4-0.1c0.1-0.1,0.3-0.1,0.3-0.3c0.1-0.3,0.3-0.4,0.4-0.4
	c0.3-0.1,0.3-0.3,0.6-0.6c-0.3,0.1-0.3,0.2-0.4,0.3c-0.3,0.2-0.7,0.3-1.1,0.1l0,0c-0.3-0.2-0.7-0.3-0.9-0.4
	c-0.1-0.1-0.2-0.2-0.3-0.1c0.3,0.1,0.5,0,0.7,0.2c0.3,0.1,0.4,0.3,0.7,0.3c0.3,0.1,0.4,0.1,0.6-0.1c0.3-0.2,0.7-0.3,1-0.5
	c0.3-0.1,0.4-0.3,0.7-0.5c0.1-0.1,0.3-0.2,0.4-0.3c0.2-0.2,0.4-0.4,0.7-0.5l0.1-0.1c-0.3-0.1-0.5,0-0.8-0.1c-0.3,0-0.7,0-0.9-0.1
	c-0.1-0.1-0.2,0-0.2-0.2c0.3,0.1,0.6,0.1,0.8,0.1c0.4,0.1,0.9,0,1.2,0h0.2c0.1-0.1,0.3-0.2,0.4-0.3l-0.1-0.1c-0.3,0-0.7,0-0.9-0.1
	c-0.3-0.2-0.7-0.2-1.1-0.3c-0.2,0-0.3-0.1-0.4-0.1c-0.4-0.1-0.8-0.3-1.1-0.4c-0.6-0.3-1.2-0.7-1.6-1.1c-0.1-0.1-0.1-0.1-0.2-0.2
	c0,0-0.1-0.1,0-0.2c0,0,0,0,0.1,0.1c0.2,0.2,0.3,0.3,0.6,0.4c0.3,0.2,0.7,0.2,1,0.3c0.7,0.3,1.3,0.6,2,0.9c0.4,0.3,0.9,0.4,1.5,0.4
	c0.2,0,0.4,0.1,0.7-0.2c0.6-0.4,1.1-0.8,1.5-1.4c0.1-0.1,0.2-0.2,0.2-0.2c-0.2,0-0.2,0-0.3,0c-0.3,0.2-0.7,0.2-1.1,0.3
	c-0.2,0-0.2,0-0.3,0c-0.4-0.1-0.9-0.3-1.4-0.5c-0.3-0.1-0.3-0.2-0.6-0.3c-0.2-0.2-0.3-0.2-0.5-0.2c-0.5-0.2-0.9-0.3-1.5-0.4
	c-0.3-0.2-0.5-0.3-0.9-0.5c-0.1-0.1-0.2-0.2-0.3-0.3c-0.2-0.2-0.3-0.3-0.4-0.4c-0.2-0.2-0.3-0.3-0.5-0.5c-0.2-0.2-0.4-0.3-0.6-0.4
	c-0.2-0.2-0.3-0.4-0.3-0.8l0.1,0.1c0.1,0.3,0.2,0.5,0.3,0.7c0.1,0.1,0.2,0.2,0.4,0.3c0.3,0.3,0.5,0.5,0.8,0.8
	c0.3,0.3,0.5,0.5,0.8,0.8c0.5,0.3,1,0.5,1.5,0.7c0.4,0.1,0.8,0.1,1,0.3c0.5,0.2,1,0.5,1.6,0.6c0.5,0.2,1,0,1.5-0.3
	c0,0,0.1-0.1,0.2,0c0.1,0.1,0.3,0.1,0.3,0c0.3-0.3,0.5-0.3,0.8-0.4c0.1-0.1,0.3-0.1,0.3-0.2c-0.6,0.1-1.3-0.1-1.9-0.2
	c-0.4-0.1-0.7-0.2-1.1-0.3c-0.3,0-0.8-0.1-1.1-0.3c-0.4-0.1-0.8-0.3-0.9-0.6c0.1-0.1,0.2,0,0.2,0c0.2,0,0.2,0.2,0.3,0.2
	c0.4,0.3,0.9,0.3,1.4,0.3c0.5,0,0.9,0.2,1.3,0.3c0.3,0,0.7,0,0.9-0.1c0.2-0.2,0.3-0.2,0.5-0.3c0,0,0.1-0.1,0.2,0
	c0,0,0.1,0.1-0.1,0.1c-0.1,0.1-0.2,0.2-0.3,0.1c-0.3,0.1-0.3,0.2-0.6,0.3c0.4,0.1,0.9,0.2,1.3,0.1c0.5-0.2,0.9-0.3,1.5-0.6
	c0.2-0.2,0.3-0.3,0.5-0.5c0.3-0.3,0.5-0.9,0.8-1.3c0,0,0.1-0.1,0-0.2c-0.9,0.6-2.3,0.6-3,0.3c0,0,0.1,0.1,0.2,0
	c0.6,0.1,1.2,0.2,1.7,0c0.4-0.1,0.8-0.3,1-0.5c0.1-0.1,0.1-0.1,0.2-0.2c0,0,0.1-0.1,0-0.2c-0.1-0.1-0.1-0.1-0.2,0
	c-0.3,0.1-0.4,0.1-0.8,0.1c-0.5,0-1.1,0.1-1.6-0.1c-0.6-0.1-1.3-0.3-1.9-0.5c-0.1-0.1-0.3-0.2-0.4-0.3l0,0c0.3,0.1,0.6,0.3,0.9,0.3
	c0.5,0.2,1,0.3,1.5,0.4c0.6,0.1,1.2,0,1.7,0c0.3,0,0.6-0.1,0.8-0.3c0.3-0.1,0.3-0.3,0.3-0.6c-1,0.3-2,0.6-3,0.3
	c-0.9-0.3-2-0.6-2.6-1.5c0.2,0,0.3,0.2,0.5,0.3c0.2,0.2,0.3,0.3,0.4,0.4c0.7,0.3,1.3,0.6,2,0.8c0.3,0,0.7,0.2,1,0
	c0.4-0.1,0.9-0.2,1.3-0.3c0.3-0.1,0.6-0.3,0.7-0.7c0-0.2,0-0.3-0.1-0.6c-0.3,0-0.7,0-1,0c-0.5,0.2-1,0.2-1.5,0
	c-0.2,0-0.4-0.1-0.6-0.3c0.6,0.1,1.3,0.3,1.9,0c-0.3-0.1-0.5-0.2-0.8-0.3h0.2c0.6,0.1,1.2,0.2,1.8,0.3c0.3,0,0.5-0.2,0.5-0.5
	c0-0.2,0.1-0.4,0.2-0.7c0.1-0.1,0.1-0.1,0.1-0.3S27.2,7,27,7C26.9,7,26.7,7,26.7,7c-0.7,0-1.3,0.1-2-0.3c-0.1-0.1-0.1-0.1-0.3-0.1
	c-0.3-0.1-0.3-0.2-0.5-0.3c0.2,0,0.3,0.2,0.4,0.3C24.7,6.7,24.9,7,25.3,7C25.6,7,26,7.1,26.4,7C26.6,7,26.8,7,27,7l0.1-0.1
	c0.2-0.3,0.2-0.7,0.1-0.9c-0.2,0-0.3,0.2-0.5,0.2c-0.3,0.2-0.6,0.1-1,0c-0.4-0.1-0.9-0.3-1.3-0.4c-0.5-0.2-0.9-0.4-1.3-0.8
	c-0.2-0.2-0.3-0.3-0.3-0.6l0.1,0.1c0.3,0.5,0.9,0.9,1.5,1.1c0.4,0.1,0.9,0.3,1.3,0.4c0.4,0.1,0.9,0.2,1.3-0.1
	c0.1-0.1,0.3-0.1,0.3-0.3c0.1-0.1,0.1-0.3,0.2-0.3c0,0,0.1-0.1,0-0.2c-0.2,0.2-0.4,0.1-0.6,0.1c-0.5,0-1-0.2-1.5-0.4
	c-0.3-0.2-0.7-0.3-1-0.7c-0.3-0.3-0.5-0.5-0.8-0.8c-0.3-0.3-0.2-0.5,0-0.9c0.1,0.1,0.1,0.3,0.1,0.3c0,0.2,0.1,0.3,0.1,0.4
	c0.4,0.6,0.9,1,1.5,1.4c0.5,0.3,1.1,0.4,1.7,0.5c0.1,0.1,0.2,0,0.3,0c0.1-0.1,0.3-0.1,0.2-0.2V4.6c0.1-0.1,0.2-0.2,0-0.3
	c-0.1-0.1,0-0.2-0.1-0.3c-0.1-0.3-0.2-0.3-0.5-0.3c-0.1,0.3,0,0.5,0.1,0.8c-0.1-0.1-0.1-0.1-0.1-0.1c0-0.2-0.1-0.3-0.1-0.4
	c0,0,0-0.2-0.1-0.3c-0.1-0.1-0.1,0.1-0.2,0.2C26.4,4,26.4,4,26.3,4c0,0-0.1,0.1-0.2,0c0.1-0.1,0.2-0.2,0.3-0.3
	c0.1-0.1,0.1-0.1,0-0.2c-0.1-0.1-0.1-0.1-0.2,0l-0.1,0.1c-0.1,0.1-0.2,0-0.2,0c0.2,0,0.3-0.1,0.3-0.2c0.1-0.1,0.1-0.1,0-0.2
	c-0.3-0.1-0.4-0.3-0.7-0.2c-0.4,0.1-0.8-0.1-1.2-0.3c0,0-0.1-0.1,0-0.2l0.1,0.1C24.8,2.8,25.1,3,25.5,3c0,0,0.2,0,0.3-0.1
	c0.1-0.1,0-0.2,0-0.2c-0.1-0.1-0.2-0.2-0.3-0.2s-0.4-0.1-0.5-0.2c-0.1-0.1-0.1-0.1-0.1-0.3c0.1-0.1,0-0.2,0-0.3c0,0,0,0-0.2,0
	c0.1,0.4-0.3,0.7-0.7,0.9c-0.1,0.1-0.3,0.3-0.3,0.4c-0.1,0.4,0.1,0.8,0.3,1.1C24,4.3,24,4.3,24.1,4.4l0.1,0.1
	c-0.3-0.1-0.5-0.3-0.6-0.6c-0.2-0.3-0.2-0.7-0.1-1.1c-0.2,0-0.2,0-0.3,0.1C23,2.9,22.5,3,22.3,3.1c-0.2,0-0.3,0.1-0.4,0.1
	c-0.2,0-0.3,0.1-0.3,0.3c-0.1,0.3-0.1,0.4,0,0.7c0.2,0.5,0.3,0.9,0.5,1.4c0.1,0.4,0.4,0.8,0.8,1.1C23,6.9,23.1,6.9,23.3,7
	c0.1,0.1,0.3,0.3,0.3,0.3c0.3,0.2,0.7,0.5,0.9,0.8c-0.2,0-0.3-0.2-0.5-0.3c-0.2-0.2-0.3-0.3-0.5-0.3c-0.1-0.1-0.3-0.2-0.4-0.3
	C23.1,7.1,23,7,22.7,7c-0.1-0.1-0.3-0.2-0.4-0.3c-0.3-0.3-0.6-0.8-0.7-1.2c0.2-0.3,0.1-0.6,0-0.9c-0.2-0.3-0.3-0.8-0.2-1.2
	c0,0,0.1-0.1,0-0.2l0,0l-0.1,0.1C20.9,3.6,20.4,4,20,4.2c-0.1,0.1-0.2,0.2-0.2,0.3c0,0.2,0.1,0.4,0.2,0.5c0.2,0.3,0.4,0.6,0.6,0.8
	c0.1,0.1,0.2,0.2,0.3,0.3c-0.2-0.2-0.3-0.3-0.6-0.4c-0.3-0.3-0.6-0.8-0.6-1.3c0,0,0.1-0.1,0-0.2c-0.3,0.2-0.7,0.3-0.9,0.8
	c-0.1,0.3-0.2,0.5-0.2,0.7c0.2,0.5,0.3,1,0.6,1.5c0.2,0.2,0.4,0.4,0.6,0.6c0.1,0.1,0.1,0.1,0.2,0.2c-0.4,0.1-0.6-0.1-0.8-0.3
	c-0.3-0.3-0.5-0.7-0.7-1c-0.1-0.3-0.3-0.6-0.3-0.9c0,0,0.1-0.1,0-0.2c-0.2,0.2-0.4,0.3-0.6,0.4c-0.2,0.2-0.3,0.3-0.6,0.4
	c-0.2,0.2-0.4,0.3-0.5,0.5c-0.3,0.3-0.3,0.5-0.3,0.9c0,0.3,0.2,0.5,0.4,0.8c0.3,0.3,0.9,0.7,1.3,0.9c0.2,0.2,0.3,0.2,0.5,0.3
	c-0.2,0-0.3-0.2-0.6-0.3c-0.4-0.4-0.9-0.7-1.2-1c-0.3-0.3-0.6-0.8-0.4-1.3c0,0,0,0-0.1-0.1l-0.1,0.1c-0.3,0.4-0.7,0.5-1,0.7
	c-0.3,0.1-0.6,0.3-0.8,0.4s-0.4,0.3-0.6,0.4c-0.3,0.2-0.6,0.4-0.8,0.6c-0.2,0.2-0.3,0.3-0.6,0.6c-0.2,0.2-0.3,0.3-0.2,0.5
	c0,0.2,0,0.3-0.3,0.4c-0.3,0.3-0.4,0.6-0.3,0.9c0.1,0.3,0.2,0.7,0.3,0.9c0.1,0.3,0.2,0.5,0.3,0.8c0,0,0.1,0.1,0,0.2
	c0,0-0.1-0.1-0.2,0c0.1,0.3,0.1,0.6,0.2,0.9c0,0,0.1,0.1,0,0.2c0,0.3,0.1,0.8,0.1,1.1c0,0.2,0,0.2,0,0.3c0.1,0.4,0.3,0.8,0.4,1.1
	c-0.2,0-0.2-0.2-0.2-0.2c-0.2-0.3-0.3-0.5-0.3-0.9c-0.1-0.4-0.1-0.9-0.2-1.4c0-0.5-0.1-0.9-0.3-1.5c0-0.2-0.2-0.3-0.3-0.5
	c-0.1,0.1-0.2,0.2-0.2,0.3c0,0-0.1,0.1,0,0.2c0.1,0.1,0,0.3,0,0.5c-0.1,0.3-0.1,0.4-0.2,0.7s0.1,0.4,0,0.7c0,0.2,0,0.3,0.1,0.4
	c0.2,0.2,0.3,0.3,0.3,0.5c0.1,0.3,0.2,0.3,0.3,0.5c0.1,0.1,0.1,0.1,0,0.2c-0.2-0.2-0.3-0.3-0.4-0.6c0-0.2-0.2-0.3-0.3-0.4
	c-0.2-0.2-0.3-0.4-0.3-0.6c0-0.2,0-0.2,0.1-0.3c-0.2-0.5,0-0.9,0.1-1.3c0.1-0.1,0.1-0.3,0-0.3c-0.3,0.3-0.5,0.7-0.8,1.1
	c0,0.2-0.2,0.3-0.3,0.4c-0.1,0.1-0.2,0.3-0.3,0.4c0,0.2-0.2,0.3-0.3,0.4C9.3,16,9.2,16,9,16.2c-0.3,0.3-0.4,0.4-0.7,0.5
	c-0.4,0.1-0.5,0.3-0.5,0.9C7.9,17.8,7.9,18,7.9,18.4L7.9,18.4z M4.9,23.4c-0.4,0.4-0.5,0.9-0.9,1.1C4,24.6,4,24.6,4,24.6
	c0.4-0.1,0.8-0.1,1.2-0.2c0.3-0.1,0.4-0.1,0.6-0.3l-0.1-0.1c-0.3-0.3-0.4-0.4-0.4-0.8l0-0.2c0-0.2,0-0.3,0.3-0.3l0,0l0.1-0.1
	l0.1,0.1c0,0.3,0.1,0.6,0.2,0.9c0.1,0.1,0.2,0.2,0.3,0.1c0.2,0,0.3-0.1,0.3,0c-0.1-0.1-0.1-0.1-0.2-0.2c0-0.3-0.2-0.7-0.1-0.9
	c0,0,0-0.2,0.1-0.1c0.1-0.3,0.1-0.3,0-0.3C6.3,22,6.2,22,6.3,21.7c0,0,0-0.2-0.1-0.1c-0.1,0.1-0.1,0.1-0.2,0.2
	c-0.2,0.5-0.5,0.9-0.8,1.3c-0.1,0.1-0.1,0.3-0.1,0.3c0,0.2,0,0.3,0.1,0.6C4.9,23.9,5,23.7,4.9,23.4z M18.2,16.6
	c-0.7-0.3-1.5-0.8-2.2-1C16.5,16.2,17.3,16.5,18.2,16.6z M27.3,3c0.1,0.3,0.1,0.4,0.2,0.7C27.6,3.8,27.6,4,27.7,4
	c0.1,0.1,0.2,0.2,0.3,0.1C28,4,28,3.9,27.9,3.8c-0.1-0.1-0.2-0.2-0.2-0.3l-0.1-0.1C27.6,3.1,27.5,3,27.3,3z M27.3,3.9
	c0-0.2-0.1-0.3-0.1-0.4s-0.2-0.3-0.2-0.5c0-0.2-0.1-0.1-0.2-0.2c-0.1-0.1-0.1,0.1-0.1,0.1c-0.1,0.1-0.1,0.3-0.1,0.3
	c-0.1,0.1,0,0.2,0,0.2c0.2,0.2,0.3,0.3,0.4,0.4C27.3,3.8,27.3,3.9,27.3,3.9z M26.3,2.7c-0.2,0.2-0.2,0.2,0,0.3
	c0.1,0.1,0.2,0.2,0.1,0.3l0.1,0.1l0.1-0.1c0-0.2,0.1-0.4,0.2-0.5c0.1-0.1,0-0.2,0-0.2C26.6,2.4,26.5,2.5,26.3,2.7z M25.4,2.6
	L25.4,2.6c0.1,0.1,0.2,0.2,0.3,0.1c0.4,0.1,0.4,0.1,0.6-0.3l0,0C26.1,2.4,25.7,2.6,25.4,2.6z M11.3,11c0.3-0.2,0.4-0.4,0.3-0.6
	C11.5,10.5,11.5,10.6,11.3,11z M11.2,12.1c0.1,0.4,0.1,0.8,0.3,1c-0.1-0.3-0.1-0.4-0.2-0.7C11.5,12.4,11.4,12.3,11.2,12.1z
	 M25.8,2.3c-0.1-0.1-0.3-0.1-0.3-0.1l-0.1,0.1l0.1,0.1C25.6,2.3,25.7,2.4,25.8,2.3z M16.9,17.2c-0.3,0-0.7-0.2-0.9-0.3
	c-0.3-0.1-0.4-0.3-0.8-0.4s-0.6-0.4-0.8-0.6c-0.1-0.1-0.2-0.2-0.3-0.3c-0.3-0.4-0.6-0.8-1-1.2c-0.1-0.1-0.1-0.1-0.2-0.2
	c0.1,0.1,0.2,0.2,0.3,0.2c-0.1-0.1,0-0.2-0.1-0.3c-0.3-0.3-0.5-0.7-0.9-1c-0.3-0.3-0.4-0.4-0.7-0.7c-0.2-0.2-0.3-0.4-0.3-0.8v-0.2
	l0.1-0.1l0.1,0.1c0,0.3,0.2,0.7,0.4,0.9c0.3,0.3,0.6,0.6,0.9,0.9c0.3,0.3,0.5,0.5,0.7,0.9c0.2,0.3,0.5,0.5,0.8,0.8
	c0.3,0.3,0.6,0.6,0.9,1c0.2,0.5,0.7,0.7,1.1,0.8C16.6,17,16.8,17.2,16.9,17.2L16.9,17.2z M15.1,16.3c0-0.2-0.1-0.4-0.2-0.5
	c-0.3-0.3-0.6-0.6-1-0.9c0.2,0.2,0.3,0.3,0.4,0.6C14.5,15.9,14.7,16,15.1,16.3z M17.7,19c-0.3,0-0.7,0-1,0c-0.3-0.1-0.5-0.2-0.8-0.1
	c-0.3-0.1-0.5-0.2-0.7-0.3c-0.5-0.3-0.9-0.8-1.5-1c-0.3-0.1-0.5-0.3-0.6-0.6c-0.3-0.3-0.4-0.6-0.6-0.9c0-0.2-0.1-0.3,0-0.5
	c0,0,0,0,0.1,0.1c-0.1,0.3,0.1,0.4,0.2,0.7c0.2,0.3,0.4,0.6,0.8,0.9c0.1,0.1,0.2,0.2,0.3,0.3c0.3,0.2,0.6,0.4,0.9,0.6
	c0.4,0.3,0.8,0.6,1.4,0.7c0.4,0.1,0.9,0.3,1.5,0.3C17.5,18.9,17.7,18.9,17.7,19z M14.5,13.6c-0.3-0.2-0.6-0.4-0.8-0.8
	c-0.1-0.3-0.3-0.5-0.4-0.8c-0.1-0.1-0.2-0.3-0.3-0.4c-0.2-0.2-0.1-0.4-0.1-0.6c0.1-0.3,0.1-0.6,0.1-0.8c0-0.2,0.1-0.4,0.2-0.7
	c0-0.2,0.2-0.3,0.2-0.5L13.5,9l0.1-0.1c0,0,0,0,0,0.2c-0.1,0.3-0.3,0.6-0.3,0.9c0,0.2-0.1,0.4-0.1,0.6S13,11,13,11.2
	c-0.1,0.3,0,0.5,0.2,0.7c0.1,0.1,0.2,0.2,0.2,0.3c0.1,0.3,0.3,0.4,0.3,0.7C14,13,14.2,13.4,14.5,13.6z M18.6,11.8c0,0,0.1,0.1,0.2,0
	c0.7,0.3,1.5,0.6,2.2,0.9c0.3,0.2,0.8,0.3,1,0.3c0.3,0.2,0.8,0.1,1.2,0c0.5,0,0.9-0.3,1.5-0.3l0,0C24,12.9,23.3,13,22.6,13
	c-0.3,0-0.7-0.2-0.9-0.3c-0.5-0.2-1-0.3-1.5-0.5C19.5,12.4,19,12.2,18.6,11.8C18.6,11.9,18.6,11.9,18.6,11.8z M14.1,12.7L14.1,12.7
	c0.5,0.5,1,0.9,1.6,1.1c0.4,0.3,0.9,0.5,1.3,0.8c0.4,0.3,0.9,0.5,1.4,0.7c0.2,0,0.3,0,0.5,0c-0.1,0.1-0.3,0.1-0.3,0
	c-0.4-0.1-0.8-0.3-1.1-0.4c-0.7-0.3-1.3-0.8-1.8-1.1c-0.2-0.2-0.4-0.3-0.5-0.3c-0.3-0.2-0.6-0.4-0.8-0.6
	C14.1,12.8,14.1,12.7,14.1,12.7L14.1,12.7z M20.7,16.6c-0.4,0.1-0.9,0.1-1.5-0.1c-0.3-0.2-0.8-0.4-1.2-0.7c-0.2-0.2-0.4-0.3-0.7-0.3
	c-0.6-0.3-1.1-0.8-1.7-1c-0.1-0.1-0.3-0.3-0.4-0.4c0.2,0,0.3,0.1,0.3,0.1c0.4,0.3,0.9,0.5,1.3,0.8c0.5,0.3,1.1,0.6,1.6,0.9
	c0.3,0.2,0.8,0.4,1.1,0.6c0.3,0.1,0.5,0.2,0.9,0.2C20.3,16.6,20.5,16.6,20.7,16.6z M17.3,8.2c0.3,0.3,0.4,0.4,0.8,0.6
	c0.1,0.1,0.2,0.2,0.3,0.3c0.1,0.1,0.2,0.2,0.3,0.3c0.3,0.3,0.8,0.8,1,1.2c0.1,0.1,0.2,0.2,0.3,0.3c0.1,0.1,0.1,0.1,0.2,0.2
	c-0.3-0.1-0.5-0.2-0.6-0.4c-0.4-0.6-1-1.2-1.6-1.6C17.9,9,17.9,9,17.8,8.9C17.6,8.8,17.4,8.5,17.3,8.2z M16,9.7
	c0.1,0.1,0.1,0.3,0.1,0.3c0.1,0.1,0,0.2,0.1,0.3c0.3,0.4,0.5,0.9,0.9,1.2c0.2,0.2,0.3,0.3,0.3,0.5c0.2,0.2,0.3,0.3,0.5,0.5
	c-0.2,0-0.3-0.2-0.5-0.3c-0.3-0.4-0.5-0.7-0.9-1C16.3,10.6,15.9,10.3,16,9.7z M26,4.6c-0.1,0.1-0.2,0-0.3,0
	c-0.3-0.1-0.4-0.3-0.7-0.5L24.9,4c-0.3-0.1-0.3-0.3-0.5-0.7c-0.1-0.1-0.1-0.3-0.1-0.4l0.1-0.1l0.1,0.1c0,0.3,0.1,0.6,0.3,0.9
	C25.2,4,25.5,4.3,26,4.6z M18.4,14.2c0.5,0.3,1,0.5,1.6,0.6c0.6,0.1,1.1,0.3,1.8,0.1c-0.1,0.1-0.3,0.1-0.3,0.2
	c-0.3,0-0.6-0.1-0.9-0.1c-0.4-0.1-0.8-0.1-1.2-0.2c-0.3-0.1-0.7-0.2-0.9-0.4C18.4,14.3,18.4,14.3,18.4,14.2z M10.5,20.2
	c-0.1-0.1-0.2-0.2-0.2-0.3c-0.1-0.1-0.2-0.3-0.3-0.4c-0.3-0.4-0.6-0.9-0.7-1.4c0-0.2,0-0.2,0.1-0.3c0.1,0.3,0.1,0.4,0.1,0.6
	c0.1,0.4,0.4,0.8,0.6,1.1C10.3,19.7,10.4,20,10.5,20.2z M7.9,18.4c0-0.3,0.3-0.6,0.4-0.8c0.2-0.2,0.3-0.3,0.4-0.6
	c0.1-0.1,0.2-0.2,0.3-0.2c-0.3,0.3-0.5,0.5-0.7,0.9c-0.3,0.3-0.3,0.6-0.4,0.9C7.9,18.5,8,18.4,7.9,18.4L7.9,18.4z M15.2,11.6
	c0.2,0,0.2,0,0.2,0.2c0.3,0.3,0.5,0.5,0.8,0.8c0.4,0.3,0.8,0.6,1.3,0.8c-0.2,0-0.3-0.1-0.4-0.1c-0.1-0.1-0.3-0.2-0.4-0.3
	c-0.2-0.2-0.4-0.3-0.6-0.4C15.6,12.2,15.4,11.8,15.2,11.6z M10.8,16.3c0.2,0.7,0.3,1.3,0.7,1.9C11.1,18.1,10.7,16.9,10.8,16.3z
	 M16.9,17.2c0.1-0.1,0.2,0,0.2,0C17,17.3,17,17.3,16.9,17.2L16.9,17.2z"/>
</svg>
