<?xml version="1.0" encoding="utf-8"?>
<!-- Generator: Adobe Illustrator 22.0.1, SVG Export Plug-In . SVG Version: 6.00 Build 0)  -->
<svg version="1.1" id="Layer_1" xmlns="http://www.w3.org/2000/svg" xmlns:xlink="http://www.w3.org/1999/xlink" x="0px" y="0px"
	 viewBox="0 0 36.2 27.8" style="enable-background:new 0 0 36.2 27.8;" xml:space="preserve">
<style type="text/css">
	.st0{fill:#216975;}
</style>
<g>
	<path class="st0" d="M3.5,17.2C3.4,17,3.2,17,3,16.9c0,0,0,0,0-0.1c0,0,0-0.1,0.1-0.1c0.3,0,0.6,0,0.9,0.1c0.3,0.1,0.7,0.2,1,0.2
		c0.2,0,0.3,0.1,0.5,0.1c0.2,0.1,0.5,0.2,0.7,0.3c0.3,0.1,0.6,0.2,0.8,0.5c0.5,0.7,1.2,1.3,1.8,1.8c0.5,0.5,1.1,0.9,1.8,1.1
		c1,0.3,1.9,0.2,2.7-0.4c0.4-0.3,0.8-0.6,1.3-0.8c0.3-0.2,0.7-0.3,1.1-0.3c0.4,0,0.9-0.1,1.3-0.3c0.1-0.1,0.3-0.1,0.4,0
		c0.1,0,0.2,0,0.3,0c0.6-0.2,1.1-0.3,1.7-0.5c0.2,0,0.3-0.1,0.5-0.2c0.4-0.2,0.8-0.4,1.2-0.6c0.9-0.4,1.7-0.9,2.4-1.6
		c0.6-0.5,1-1.1,1.5-1.7c0.5-0.6,0.8-1.2,1.2-1.9c0.2-0.4,0.4-0.8,0.6-1.3c0.4-0.7,0.6-1.5,0.9-2.3c0.2-0.4,0.3-0.9,0.5-1.3
		c0.2-0.7,0.4-1.3,0.7-1.9c0.2-0.4,0.3-0.8,0.5-1.1c0.4-0.7,0.9-1.4,1.5-1.9c0.1-0.1,0.1-0.1,0.2-0.2c0.2-0.2,0.4-0.5,0.4-0.8
		c0-0.1,0-0.2,0-0.2c0.1-0.3,0.2-0.4,0.5-0.5c0.1,0,0.1,0,0.1,0c0.3-0.3,0.6-0.1,1,0c0.1,0,0.2,0,0.3,0c0.2,0,0.4-0.1,0.6,0.1
		c0,0,0,0,0.1,0c0.4,0,0.4,0.4,0.4,0.7c0,0.2,0.1,0.5,0.2,0.7c0.3,0.9,0.6,1.7,0.6,2.6c0,0.2,0,0.4,0.1,0.5c0.1,0.5,0.1,0.9,0.1,1.4
		c0,0.7,0,1.4,0,2.1c0,0.7,0,1.4-0.2,2c-0.2,0.9-0.4,1.9-0.8,2.8c-0.2,0.6-0.5,1.1-0.7,1.7c-0.2,0.4-0.3,0.8-0.6,1.1
		c-0.4,0.5-0.7,1.1-1.1,1.6c-0.4,0.5-0.8,1.1-1.1,1.7c-0.5,0.8-1.1,1.5-1.7,2.2c-0.4,0.4-0.8,0.8-1.2,1.1c-0.2,0.2-0.5,0.3-0.7,0.4
		c-0.4,0.3-0.8,0.5-1.1,0.8c-0.1,0.1-0.2,0.1-0.2,0.1c-0.4,0.1-0.8,0.4-1.2,0.6c-0.6,0.4-1.3,0.6-2,0.8c-0.4,0.1-0.8,0.3-1.2,0.4
		c-0.8,0.1-1.6,0.3-2.4,0.2c-0.2,0-0.4,0-0.7,0.1c-0.4,0-0.8,0-1.2,0c-0.1,0-0.1,0-0.2,0c-0.4-0.1-0.8-0.2-1.2-0.3
		c-0.4-0.1-0.7-0.2-1-0.3c-0.2-0.1-0.5-0.2-0.7-0.3c-0.7-0.2-1.3-0.5-1.9-0.9c-0.4-0.3-0.9-0.6-1.3-1c-0.4-0.4-0.8-0.7-1.3-1.1
		c-0.4-0.3-0.8-0.7-1.2-1C7.8,21.5,7,21.2,6,21c-0.8-0.1-1.7-0.2-2.5-0.4c-0.3-0.1-0.6-0.1-0.9-0.3c-0.1,0-0.1-0.1-0.2-0.1
		C2.2,20.3,2,20.2,2,20c0-0.1-0.1-0.1-0.1-0.1c-0.2-0.1-0.3-0.3-0.4-0.4c-0.2-0.2-0.3-0.4-0.2-0.6c0-0.1,0-0.2,0-0.2
		c-0.1-0.2-0.1-0.4,0-0.6c0.1-0.1,0-0.2-0.1-0.3C1,17.4,1,17.3,1.2,17.3c0.2-0.1,0.5-0.1,0.7-0.1c0.1,0,0.2,0.1,0.4,0
		C2.7,17.2,3.1,17.2,3.5,17.2C3.6,17.1,3.6,17.2,3.5,17.2C3.6,17.1,3.6,17.1,3.5,17.2z M2,19.4L2,19.4c0,0,0.1,0,0.1,0
		c0,0,0.1,0,0.1,0c0,0,0.1,0,0.1,0c0,0,0.1,0,0.1,0c0,0,0.1,0,0.1,0c0,0,0.1,0,0.1,0c0,0,0.1,0,0.1,0l0,0l0,0c0,0-0.1,0-0.1,0
		c0,0-0.1,0-0.1,0c0,0-0.1,0-0.1,0c0,0-0.1,0-0.1,0c0,0-0.1,0-0.1,0c0,0-0.1,0-0.1,0C2,19.4,2,19.4,2,19.4z M3.3,19.4
		c0,0-0.1,0-0.1,0c0,0-0.1,0-0.1,0c0,0-0.1,0-0.1,0c0,0-0.1,0-0.1,0c0,0-0.1,0-0.1,0c0,0-0.1,0-0.1,0l0,0l0,0c0,0,0.1,0,0.1,0
		c0,0,0.1,0,0.1,0c0,0,0.1,0,0.1,0c0,0,0.1,0,0.1,0c0,0,0.1,0,0.1,0C3.2,19.4,3.3,19.4,3.3,19.4c0,0,0.1,0,0.1,0c0,0,0.1,0,0.1,0
		c0,0-0.1,0-0.1,0C3.4,19.4,3.4,19.4,3.3,19.4z M3.8,19.5L3.8,19.5L3.8,19.5c0,0,0.1,0,0.1,0c0,0,0.1,0,0.1,0c0,0,0.1,0,0.1,0
		c0,0,0,0,0,0c0,0,0,0,0,0c0,0-0.1,0-0.1,0c0,0-0.1,0-0.1,0C3.9,19.5,3.8,19.5,3.8,19.5z M2.3,19.6L2.3,19.6L2.3,19.6L2.3,19.6z
		 M2.8,18.5c0.1,0,0.1,0.1,0.2,0c0.1,0,0.1,0.1,0.2,0.1c0.1,0.1,0.2,0.1,0.2,0.1c0.1,0,0.2,0.1,0.3,0.1c0,0,0,0,0,0
		c-0.1,0-0.2-0.1-0.3-0.1c-0.1,0-0.1-0.1-0.2-0.1c-0.1,0-0.1-0.1-0.2-0.1C3,18.5,2.9,18.5,2.8,18.5c0,0-0.1-0.1-0.1,0c0,0,0,0,0,0
		C2.8,18.5,2.8,18.5,2.8,18.5z M4.3,18.9C4.3,18.9,4.3,18.9,4.3,18.9C4.3,18.9,4.3,18.9,4.3,18.9C4.3,18.9,4.2,18.8,4.3,18.9
		c-0.1,0-0.1,0-0.1,0c0,0,0,0,0,0C4.2,18.9,4.3,18.9,4.3,18.9z M4.1,18.1C4.1,18.1,4,18.1,4.1,18.1C4,18.1,4.1,18.1,4.1,18.1
		C4.1,18.1,4.1,18.1,4.1,18.1c0.1,0,0.1,0,0.2,0.1C4.2,18.1,4.2,18.1,4.1,18.1C4.1,18.1,4.1,18.1,4.1,18.1z M2.3,18.3
		c0,0,0.1,0.1,0.1,0c0,0,0,0,0,0C2.4,18.3,2.3,18.3,2.3,18.3c-0.1-0.1-0.2-0.1-0.3-0.1c0,0,0-0.1-0.1,0c0,0,0,0,0.1,0
		C2.1,18.3,2.2,18.3,2.3,18.3z M2.5,20.1L2.5,20.1c0.3,0.2,0.6,0.2,0.9,0.2c0.1,0,0.3,0.1,0.4,0c-0.1-0.2-0.2-0.1-0.3-0.2
		c-0.3-0.2-0.5-0.2-0.8-0.1C2.6,20,2.5,20,2.5,20.1z M3.3,18.9L3.3,18.9L3.3,18.9c-0.4-0.1-0.9-0.3-1.3-0.4c-0.1,0-0.2-0.1-0.3-0.1
		c0,0-0.1,0-0.1,0.1c0,0,0,0.1,0,0.1c0.1,0.1,0.3,0.1,0.4,0.2c0.2,0.1,0.5,0.1,0.7,0.2C2.9,18.9,3.1,18.9,3.3,18.9z M30.7,19.9
		c0.4-0.6,0.9-1.2,1.1-1.9c0,0,0-0.1,0-0.1c0,0,0,0.1-0.1,0.1c-0.1,0.2-0.3,0.5-0.4,0.7c-0.1,0.2-0.3,0.4-0.5,0.6c0,0-0.1,0-0.1,0
		c0,0,0,0,0-0.1c0-0.1,0.1-0.1,0.1-0.2c0.2-0.3,0.3-0.5,0.5-0.8c0.4-0.8,0.9-1.4,1.3-2.1c0,0,0.1-0.1,0.1-0.1c0.1,0.2,0.2,0,0.2-0.1
		c0.2-0.3,0.4-0.7,0.6-1.1c0.2-0.5,0.5-1.1,0.6-1.7c0.2-0.7,0.3-1.4,0.5-2.1c0.2-0.7,0.2-1.4,0.2-2c0-0.6,0-1.3,0-1.9
		c0-0.5,0-1-0.1-1.5c0-0.1,0-0.3-0.1-0.4c-0.1-0.5-0.2-1-0.4-1.4c-0.3-0.6-0.5-1.1-0.5-1.8c0-0.1,0-0.2-0.1-0.3
		c-0.1-0.1-0.1,0-0.2,0c0,0-0.1,0-0.1,0.1c0.1,0.3,0,0.7,0,1c0,0.1,0,0.2,0,0.3c0,0.1-0.1,0.1-0.1,0.1c0,0-0.1,0-0.1-0.1
		c0-0.2-0.1-0.5-0.1-0.7c0-0.1,0-0.3,0-0.4c0-0.1,0-0.1-0.1-0.1c-0.1,0-0.1,0-0.1,0.1c0,0,0,0,0,0.1c0,0.3-0.1,0.6-0.1,1
		c0,0.2,0,0.5-0.1,0.7c0,0.1,0,0.1-0.1,0.1c-0.1,0-0.1-0.1-0.1-0.1c0-0.1,0-0.3,0-0.4c0-0.3,0.1-0.6,0.1-0.9c0-0.2,0-0.4,0-0.6
		c0,0,0-0.1,0-0.1c0,0-0.1,0-0.1,0.1c0,0.1-0.1,0.2-0.1,0.2c-0.2,0-0.2,0.1-0.2,0.3c0,0.1-0.1,0.3-0.1,0.4c-0.1,0.5-0.1,1-0.2,1.5
		c-0.1,0.7-0.3,1.4-0.4,2.1c-0.1,0.4-0.2,0.8-0.3,1.2C31,8.1,30.8,8.5,30.7,9c-0.1,0.3-0.2,0.6-0.4,0.9c0,0-0.1,0.1-0.1,0.1
		c-0.1,0-0.1-0.1,0-0.1c0.2-0.5,0.3-1,0.5-1.5c0.2-0.5,0.4-1,0.5-1.5c0.1-0.6,0.3-1.2,0.4-1.8c0.1-0.3,0.1-0.6,0.2-1
		c0.1-0.6,0.1-1.3,0.2-1.9c0-0.1,0-0.1,0-0.2c0-0.1-0.1-0.1-0.1-0.1c-0.2-0.1-0.2,0-0.3,0.1c-0.1,0.1-0.1,0.3-0.2,0.4
		c-0.2,0.2-0.4,0.4-0.7,0.6c-0.6,0.5-1,1.1-1.4,1.8c-0.2,0.4-0.4,0.9-0.6,1.3c-0.1,0.2-0.1,0.3-0.2,0.5c-0.2,0.5-0.3,1-0.4,1.4
		c-0.1,0.4-0.2,0.7-0.4,1.1c-0.2,0.5-0.4,1-0.6,1.5c-0.1,0.3-0.2,0.6-0.3,0.8c-0.3,0.6-0.5,1.2-0.9,1.7c-0.3,0.4-0.5,0.8-0.8,1.2
		c-0.3,0.4-0.6,0.8-0.9,1.1c-0.4,0.6-1,1.1-1.6,1.5c-0.7,0.4-1.4,0.9-2.1,1.2c-0.1,0-0.3,0.1-0.4,0.2c-0.2,0.1-0.4,0.3-0.6,0.3
		c-0.9,0.3-1.8,0.6-2.7,0.7c-0.1,0-0.2,0-0.3,0.1c-0.3,0.1-0.6,0.1-0.9,0.2c-0.3,0-0.6,0.1-0.9,0.3c-0.5,0.3-0.9,0.6-1.4,0.9
		c-0.5,0.4-1,0.6-1.6,0.6c-1,0.1-1.8-0.3-2.5-0.8c-0.7-0.5-1.3-1.1-2-1.8c-0.1-0.1-0.3-0.3-0.4-0.5c-0.1-0.3-0.4-0.4-0.6-0.5
		c0,0-0.1,0-0.1,0c0,0,0,0.1,0,0.1c0.1,0.4,0,0.5-0.4,0.5c-0.2,0-0.4,0-0.6,0c0,0-0.1,0-0.1,0c0,0,0,0,0,0.1
		c0.2,0.1,0.2,0.3,0.3,0.5c0,0.2,0.2,0.3,0.4,0.4c0.2,0,0.5,0.1,0.7,0.2c0,0,0.1,0,0.1,0c0,0,0-0.1,0-0.1c-0.1-0.2-0.2-0.4-0.4-0.5
		c-0.1,0-0.1-0.1,0-0.2c0-0.1,0.1-0.1,0.2,0c0.2,0.1,0.3,0.3,0.5,0.5c0.2,0.3,0.4,0.5,0.6,0.7c0.2,0.2,0.5,0.4,0.8,0.6
		c0.6,0.4,1.3,0.8,2,1.1c0.5,0.2,1,0.3,1.5,0.5c0.4,0.1,0.8,0.3,1.2,0.3c0.9,0.1,1.8,0.3,2.6,0.6c0.3,0.1,0.7,0.2,1,0.2
		c0.7,0.1,1.5,0.1,2.2,0.2c0.6,0,1.1,0,1.6-0.2c0.4-0.2,0.9-0.3,1.3-0.6c0.2-0.1,0.4-0.1,0.6-0.2c0,0,0.1,0,0.1,0c0,0,0,0.1,0,0.1
		c0,0-0.1,0.1-0.1,0.1c-0.5,0.3-1,0.5-1.6,0.8c-0.4,0.2-0.8,0.3-1.2,0.3c-0.4,0-0.8,0-1.3,0c-0.7-0.1-1.4-0.1-2.2-0.2
		c-0.6-0.1-1.1-0.2-1.7-0.3c-0.5-0.1-0.9-0.2-1.4-0.4c-0.6-0.2-1.1-0.4-1.7-0.6c-0.5-0.2-1-0.3-1.5-0.6c-0.6-0.4-1.3-0.7-1.9-1.1
		c-0.5-0.3-0.9-0.6-1.4-0.8c-0.2-0.1-0.3-0.1-0.5-0.2c-0.1-0.1-0.2,0-0.3,0.1c-0.1,0.1-0.2,0.2,0,0.4c0.1,0.1,0.2,0.2,0.2,0.4
		c0,0.3,0,0.3,0.3,0.3c0.1,0,0.2,0,0.2,0C7.2,21,8,21.4,8.7,22c0.3,0.3,0.6,0.5,0.9,0.8c0.7,0.6,1.3,1.1,2,1.6
		c0.8,0.6,1.6,1.1,2.6,1.4c0.2,0,0.3,0.1,0.5,0.2c0.4,0.2,0.8,0.3,1.3,0.4c0.3,0.1,0.7,0,1,0.2c0,0,0.1,0,0.2,0c0.5,0,1,0.1,1.5,0
		c0.2,0,0.4,0,0.7,0c0.3,0,0.5,0,0.8,0c0.4,0,0.8-0.1,1.3-0.2c0.2,0,0.3,0,0.5-0.1c0.7-0.3,1.5-0.5,2.2-0.8c0.1,0,0.3-0.1,0.4-0.2
		c0.4-0.3,0.8-0.5,1.3-0.7c0.1,0,0.2-0.1,0.3-0.2c0.5-0.4,1-0.7,1.5-1c0.2-0.1,0.3-0.2,0.5-0.4c0.2-0.2,0.5-0.4,0.7-0.6
		c0.5-0.5,0.9-0.9,1.3-1.5C30.2,20.6,30.4,20.2,30.7,19.9z M3.9,19.9c-0.1,0-0.1-0.1-0.2-0.1c0,0-0.1,0-0.1,0c0,0,0,0.1,0.1,0.1
		C3.7,19.9,3.8,19.9,3.9,19.9C3.9,20,3.9,20,3.9,19.9C3.9,20,3.9,20,3.9,19.9z M1.6,19.1c0,0,0.1,0.1,0.1,0
		C1.7,19.1,1.7,19.1,1.6,19.1C1.6,19,1.6,19,1.6,19.1C1.5,19.1,1.6,19.1,1.6,19.1z M4.5,17.6C4.5,17.6,4.6,17.6,4.5,17.6
		C4.6,17.6,4.6,17.6,4.5,17.6C4.5,17.5,4.5,17.5,4.5,17.6C4.5,17.5,4.5,17.5,4.5,17.6z M5,17.8c0,0,0.1,0,0.1,0
		C5.1,17.8,5,17.8,5,17.8C5,17.7,5,17.7,5,17.8C4.9,17.7,5,17.8,5,17.8z M5.3,17.6c0.1,0,0.1,0.1,0.2,0.1
		C5.5,17.7,5.4,17.6,5.3,17.6C5.3,17.6,5.3,17.6,5.3,17.6C5.2,17.6,5.3,17.6,5.3,17.6z M5.3,19.5C5.3,19.5,5.3,19.5,5.3,19.5
		C5.3,19.5,5.3,19.6,5.3,19.5C5.3,19.6,5.3,19.6,5.3,19.5C5.3,19.5,5.3,19.5,5.3,19.5z M4.8,20.1C4.8,20.1,4.9,20.2,4.8,20.1
		C4.9,20.1,4.9,20.1,4.8,20.1C4.8,20.1,4.8,20.1,4.8,20.1C4.8,20.1,4.8,20.1,4.8,20.1z M32.7,16.4L32.7,16.4L32.7,16.4L32.7,16.4z
		 M4.6,18.9L4.6,18.9L4.6,18.9L4.6,18.9z M1.7,18.1L1.7,18.1L1.7,18.1L1.7,18.1z"/>
	<path class="st0" d="M27.9,16.2c0.1-0.1,0.2-0.3,0.2-0.4c0.1-0.3,0.3-0.5,0.5-0.7c0,0,0.1-0.1,0.1,0c0,0,0,0.1,0,0.1
		c-0.3,0.3-0.4,0.8-0.6,1.1c-0.1,0.2-0.3,0.4-0.5,0.6c-0.2,0.3-0.4,0.6-0.6,0.9c-0.2,0.3-0.5,0.5-0.7,0.8c0,0-0.1,0-0.1,0
		c0,0,0-0.1,0-0.1c0.4-0.5,0.7-1,1-1.6C27.4,16.7,27.7,16.5,27.9,16.2z"/>
	<path class="st0" d="M23.3,21.6c0,0,0.1-0.1,0.2-0.1c0.6-0.5,1.2-1,1.6-1.6c0.2-0.3,0.5-0.4,0.7-0.6c0,0,0.1,0,0.1,0
		c0,0,0,0.1,0,0.1c0,0,0,0.1,0,0.1c-0.5,0.4-0.8,0.9-1.2,1.4c-0.3,0.3-0.6,0.6-1,0.9c-0.1,0.1-0.2,0.1-0.2,0.1c-0.1,0-0.1,0-0.2,0
		C23.2,21.7,23.2,21.6,23.3,21.6z"/>
	<path class="st0" d="M29,20.3c0.3-0.4,0.6-0.7,0.9-1.1c0.1-0.1,0.1-0.1,0.2-0.1c0.1,0.1,0.1,0.2,0.1,0.2c-0.1,0.2-0.2,0.5-0.4,0.7
		c-0.1,0.1-0.2,0.3-0.4,0.2c-0.1,0-0.1,0-0.2,0.1c-0.1,0-0.1,0.1-0.2,0.1c0,0-0.1,0-0.1,0C28.9,20.5,28.9,20.5,29,20.3
		C29,20.4,29,20.3,29,20.3z"/>
	<path class="st0" d="M33.4,14.9c0,0.1,0,0.1-0.1,0.1c0,0-0.1,0.1-0.1,0c-0.1,0-0.1-0.1,0-0.1c0.1-0.2,0.2-0.4,0.2-0.5
		c0.3-0.5,0.5-1.1,0.6-1.6c0-0.2,0.1-0.3,0.1-0.5c0,0,0.1-0.1,0.1-0.1c0,0,0.1,0.1,0.1,0.1c0,0.3-0.1,0.5-0.2,0.8
		C33.9,13.8,33.7,14.4,33.4,14.9z"/>
	<path class="st0" d="M32.9,15.2c-0.1,0.1-0.1,0.2-0.2,0.2c-0.1-0.1-0.1-0.2,0-0.3c0.3-0.5,0.5-1,0.7-1.6c0.1-0.2,0.1-0.3,0.3-0.5
		c0,0,0.1,0,0.1,0c0,0,0,0,0,0.1c0,0,0,0.1,0,0.1c-0.3,0.5-0.4,1.1-0.6,1.6C33.1,14.9,33,15.1,32.9,15.2z"/>
	<path class="st0" d="M33.5,12C33.5,12,33.5,12,33.5,12c0.2,0,0.2,0,0.2,0.1c0,0.2-0.1,0.3-0.1,0.5c-0.2,0.5-0.4,1-0.6,1.5
		c0,0-0.1,0-0.1,0.1c0,0,0-0.1-0.1-0.1c0,0,0,0,0,0c0-0.1,0-0.3,0.1-0.4c0.2-0.5,0.3-1,0.5-1.5C33.4,12.1,33.5,12,33.5,12z"/>
	<path class="st0" d="M31.9,16.7c-0.2,0.3-0.3,0.5-0.5,0.7c0,0-0.1,0-0.1,0c0,0,0,0,0-0.1c0-0.2,0.1-0.3,0.2-0.4
		c0.2-0.4,0.5-0.7,0.6-1.1c0-0.1,0.1-0.1,0.1-0.2c0,0,0.1,0,0.1,0c0,0,0.1,0.1,0.1,0.1c0,0.1-0.1,0.2-0.1,0.3
		C32.2,16.2,32.1,16.5,31.9,16.7z"/>
	<path class="st0" d="M13.2,21.7c-0.1-0.1-0.1-0.3-0.3-0.2c0,0-0.1,0-0.1-0.1c0,0,0-0.1,0-0.1c0.1-0.1,0.3-0.2,0.4-0.2
		c0,0,0.1,0,0.1,0.1c0,0.2,0.1,0.2,0.2,0.2c0,0,0.1,0,0.1,0.1c0,0.1,0,0.1-0.1,0.1C13.5,21.6,13.3,21.6,13.2,21.7L13.2,21.7z"/>
	<path class="st0" d="M12.8,21.7C12.8,21.7,12.8,21.7,12.8,21.7c-0.1,0.1-0.5,0.1-0.7,0c0,0-0.1-0.1,0-0.1c0.1-0.1,0.5-0.1,0.6,0
		C12.8,21.6,12.8,21.6,12.8,21.7z"/>
	<path class="st0" d="M13.7,20.8c0.1,0,0.1-0.1,0.2-0.1c0.1-0.1,0.3-0.1,0.3,0c0,0.1-0.1,0.1-0.2,0.2c0,0-0.1,0.1-0.2,0.1
		c-0.1,0-0.1,0-0.1,0C13.7,20.9,13.7,20.8,13.7,20.8z"/>
	<path class="st0" d="M34,10.8C34,10.8,34,10.8,34,10.8c0-0.2-0.1-0.4,0-0.6c0,0,0,0,0.1,0c0,0,0.1,0,0.1,0c0,0.2,0.1,0.4,0,0.5
		C34.1,10.8,34,10.9,34,10.8z"/>
	<path class="st0" d="M14.5,21C14.5,21,14.5,21,14.5,21c-0.1,0.1-0.2,0.1-0.3,0.2c-0.1,0-0.2,0.1-0.2,0c0-0.1,0-0.2,0.1-0.2
		C14.2,20.9,14.3,20.9,14.5,21C14.5,20.9,14.5,21,14.5,21z"/>
	<path class="st0" d="M14.9,20.4c0,0,0-0.1,0-0.1c0.1-0.1,0.4-0.1,0.4,0c0,0,0,0,0,0C15.3,20.3,15.1,20.4,14.9,20.4
		C14.9,20.4,14.9,20.4,14.9,20.4z"/>
	<path class="st0" d="M24.1,24C24.1,24,24.1,24,24.1,24c-0.1,0.1-0.2,0.1-0.2,0.1c0,0,0-0.1,0-0.1c0,0,0-0.1,0.1-0.1
		c0,0,0.1,0,0.1,0C24.2,23.9,24.1,23.9,24.1,24z"/>
	<path class="st0" d="M17.3,25c-0.1,0-0.1-0.1,0-0.2c0-0.1,0.1-0.1,0.2,0c0.1,0,0.1,0.1,0.1,0.2C17.5,25,17.4,25,17.3,25z"/>
	<path class="st0" d="M20.4,25.5c0.1-0.1,0.2-0.1,0.2,0c0,0,0.1,0.1,0,0.1c-0.1,0.1-0.2,0.1-0.2,0C20.3,25.6,20.3,25.5,20.4,25.5z"
		/>
	<path class="st0" d="M19.1,25.1c0,0.1-0.1,0.1-0.2,0c-0.1,0-0.1-0.1-0.1-0.2c0-0.1,0.1-0.1,0.2-0.1C19.1,25,19.1,25,19.1,25.1z"/>
	<path class="st0" d="M15.2,21C15.2,21,15.2,21.1,15.2,21c-0.1,0.1-0.2,0.1-0.3,0c0,0,0-0.1,0-0.1c0.1-0.1,0.2-0.1,0.2,0
		C15.3,20.9,15.3,21,15.2,21z"/>
	<path class="st0" d="M13.2,21.7c0,0,0.1,0.1,0.1,0.1c0.1,0.1,0,0.2-0.1,0.2c0,0-0.1,0-0.1,0c-0.1,0-0.1-0.1,0-0.2
		C13.1,21.7,13.1,21.7,13.2,21.7L13.2,21.7z"/>
	<path class="st0" d="M14,21.8c0,0-0.1-0.1,0-0.1c0-0.1,0.2-0.1,0.3-0.1c0,0,0,0.1,0,0.1C14.1,21.8,14,21.9,14,21.8z"/>
	<path class="st0" d="M20.2,24.6c0-0.1,0-0.1,0.1-0.2c0,0,0.1,0,0.1,0c0.1,0.1,0,0.1,0,0.2C20.3,24.7,20.3,24.7,20.2,24.6z"/>
	<path class="st0" d="M18.5,24.6c0.1,0,0.1,0.1,0,0.2c0,0-0.1,0.1-0.1,0c-0.1,0-0.1-0.1,0-0.2C18.4,24.6,18.4,24.5,18.5,24.6z"/>
	<path class="st0" d="M22.4,23.8c0.1,0,0.1-0.1,0.2,0c0.1,0,0.1,0.1,0,0.2c0,0.1-0.1,0-0.2,0C22.4,23.9,22.4,23.9,22.4,23.8z"/>
	<path class="st0" d="M24.2,22.6c-0.1-0.1,0-0.1,0-0.2c0,0,0.1-0.1,0.2,0c0.1,0,0.1,0.1,0,0.2C24.3,22.6,24.3,22.6,24.2,22.6z"/>
	<path class="st0" d="M21.6,25.1c0-0.1,0.1-0.1,0.2,0c0,0,0.1,0.1,0,0.1c0,0.1-0.1,0.1-0.2,0.1C21.5,25.2,21.5,25.2,21.6,25.1z"/>
	<path class="st0" d="M16.2,20c0-0.1,0-0.1,0-0.2c0,0,0.1-0.1,0.1,0c0.1,0.1,0,0.1,0,0.2C16.3,20,16.3,20,16.2,20z"/>
	<path class="st0" d="M16.7,25.5c0,0-0.1-0.1,0-0.1c0,0,0.1-0.1,0.1,0c0.1,0,0.1,0.1,0,0.2C16.8,25.5,16.8,25.5,16.7,25.5z"/>
	<path class="st0" d="M19.6,25.6c-0.1,0-0.1-0.1,0-0.1c0.1-0.1,0.1,0,0.2,0c0.1,0,0.1,0.1,0,0.1C19.8,25.7,19.7,25.6,19.6,25.6z"/>
	<path class="st0" d="M19.7,24.7c0,0-0.1-0.1,0-0.1c0-0.1,0.1-0.1,0.2,0c0.1,0,0,0.1,0,0.2C19.9,24.8,19.8,24.8,19.7,24.7z"/>
	<path class="st0" d="M22.2,24.5c0,0,0-0.1,0-0.1c0-0.1,0.1-0.1,0.2-0.1c0,0,0.1,0.1,0,0.1C22.4,24.5,22.3,24.5,22.2,24.5z"/>
	<path class="st0" d="M22.3,25.1c0,0-0.1-0.1,0-0.1c0,0,0.1-0.1,0.1,0c0,0,0.1,0.1,0,0.1C22.4,25.1,22.4,25.1,22.3,25.1z"/>
	<path class="st0" d="M22.9,23.3c-0.1,0-0.1-0.1,0-0.2c0,0,0.1-0.1,0.1,0c0.1,0,0.1,0.1,0,0.2C23,23.3,22.9,23.3,22.9,23.3z"/>
	<path class="st0" d="M23.1,24.5c0-0.1,0.1-0.1,0.2-0.1c0,0,0.1,0.1,0,0.1c0,0.1-0.1,0.1-0.2,0.1C23.1,24.6,23.1,24.6,23.1,24.5z"/>
	<path class="st0" d="M23.4,23.4c0.1,0,0.1,0,0.2,0c0,0,0,0.1,0,0.1c-0.1,0-0.1,0.1-0.2,0C23.3,23.5,23.3,23.4,23.4,23.4z"/>
	<path class="st0" d="M21.1,24.8c0,0.1-0.1,0.1-0.2,0c-0.1,0,0-0.1,0-0.1c0-0.1,0.1-0.1,0.2,0C21.1,24.7,21.1,24.8,21.1,24.8z"/>
	<path class="st0" d="M18,25.6c-0.1,0-0.1-0.1,0-0.2c0,0,0.1-0.1,0.1,0c0.1,0,0.1,0.1,0,0.2C18.1,25.6,18,25.7,18,25.6z"/>
	<path class="st0" d="M21.5,24.4c0,0-0.1-0.1,0-0.1c0,0,0.1-0.1,0.1,0c0,0,0.1,0.1,0,0.1C21.6,24.4,21.5,24.4,21.5,24.4z"/>
	<path class="st0" d="M16,24.8c0,0,0.1,0,0.1,0c0,0,0,0.1,0,0.1c0,0.1-0.1,0-0.1,0C16,24.9,16,24.8,16,24.8z"/>
	<path class="st0" d="M19.8,25.2C19.7,25.1,19.7,25.1,19.8,25.2c0-0.1,0-0.2,0.1-0.2c0.1,0,0.1,0.1,0.1,0.1
		C19.9,25.2,19.9,25.2,19.8,25.2z"/>
	<path class="st0" d="M24.3,23.2c-0.1,0-0.1-0.1,0-0.2c0,0,0.1,0,0.1,0C24.4,23,24.4,23.1,24.3,23.2C24.4,23.2,24.3,23.2,24.3,23.2z
		"/>
</g>
</svg>
