<svg viewBox="0 0 30 22.1" xmlns="http://www.w3.org/2000/svg"><g fill="#821a5f"><path d="m7.8 6.4c.1 0 .1 0 0 0 .5.2.9.3 1.3.6.3.2.5.4.6.7.1.1.2.1.3.1.2 0 .3 0 .4.1.2 0 .5.1.8.1h.2c.2 0 .4 0 .6-.1h.1c.4 0 .6-.2 1-.3.2 0 .4-.1.7-.1.2 0 .3 0 .5-.2.2 0 .3-.2.4-.3s.2-.3.3-.4c.4-.3.9-.5 1.4-.5h.9c.3 0 .7 0 1 .1.1 0 .2.1.3.1s.3 0 .4.1c.3.1.6.3 1 .3h.2c.4-.1.9 0 1.3.1.1 0 .2.1.4.1h.2c.4.1.7.1 1.1.1s.7.1 1.1.3.8.3 1.1.3c.5.1.9.3 1.3.6.3.2.6.4.9.5 0 0 .1.1.2 0-.3-.5-.6-.9-1-1.4.1 0 .1.1.2.1.3.3.5.6.7.9s.4.5.8.6c.1 0 .2.1.3.1 0-.1 0-.1-.1-.1-.2-.4-.4-.7-.5-1.1-.1-.2 0-.4 0-.7.1.1.1.2 0 .3 0 .3.1.5.1.8.1.4.4.7.6 1.1 0 .1.1.1.2.2.3.3.5.7.5 1.1 0 .2.1.4.2.6s.1.4 0 .7c-.1.1 0 .3 0 .4.1.2.1.3.2.5-.1 0-.1-.1-.2-.2-.1-.2-.2-.3-.2-.5 0-.1-.1-.1-.1-.1-.1 0-.2.1-.3.2 0 .1-.1.2-.1.3-.1.1-.1.3-.3.3-.1 0-.1.1-.1.1 0 .1-.1.2-.2.2-.3.1-.6.2-.8.5-.1.1-.3.2-.4.3-.2.2-.4.3-.7.4-.1 0-.2.1-.3.2s-.2.1-.3.1-.2 0-.2.1c-.2.2-.4.4-.7.5-.2.2-.5.3-.8.4-.2 0-.3.2-.5.2-.3.1-.5.2-.8.3-.1 0-.3 0-.4 0-.2 0-.5.1-.7 0-.3 0-.6-.1-.9-.3-.1-.1-.2-.1-.3-.1-.2 0-.3 0-.5-.1-.3-.2-.6-.1-.9 0-.5.2-1 .3-1.5.2-.1 0-.2-.1-.3-.2.5.1 1 0 1.5-.1-.4 0-.7 0-1.1-.1-.6-.1-1.3-.2-1.9-.4h-.1c-.5 0-.9-.1-1.3-.1-.2 0-.4 0-.5.1-.1 0-.2 0-.3 0-.2-.1-.5 0-.7.1s-.5.1-.7.1c-.5-.1-1-.2-1.5-.4s-.9-.4-1.2-.9c-.1-.2-.2-.2-.4-.1-.3.1-.6 0-.9 0s-.6 0-.9.1c-.4.1-.7 0-1-.4.1.1.2.1.3.2.2.1.3.1.5.1.5-.1 1-.1 1.5-.1.1 0 .2 0 .3-.1 0-.1-.1-.1-.2-.1-.3-.1-.7-.3-1-.4-.4-.2-.8-.4-1.1-.6-.2-.2-.5-.3-.7-.4s-.3-.2-.4-.4c-.2-.3-.5-.5-.8-.6-.4-.1-.7-.3-1-.6-.5-.4-1-.6-1.6-.7-.4-.1-.7 0-1.1 0s-.8 0-1.1-.2c.3 0 .5.1.8.1s.5 0 .8-.1c-.2-.2-.5-.2-.6-.4-.2-.1-.4-.2-.5-.4.2.1.3.2.5.3.4.2.8.3 1.2.5.3.1.7.2 1.1.2h.5c.3-.1.7-.1 1-.1.6-.1 1.3-.2 1.9-.4.2-.2.5-.3.7-.4.4-.3.9-.3 1.4-.4.2 0 .4-.1.6-.3 0-.1.1-.2.1-.3.1-.1.1-.1 0-.3-.2-.3-.4-.5-.8-.7-.3-.1-.5-.2-.8-.3 0-.1-.1-.1-.2-.2zm1.4 2.2c-.3.1-.4.2-.6.4-.2.3-.3.6-.6.9-.2.3-.2.6-.1 1 .1.1.1.2.2.3 0-.2.1-.3.1-.5s0-.4.1-.5c.1 0 .1 0 .1.1 0 .2 0 .5-.1.7s-.1.5 0 .7c.1.5.2.9.4 1.3-.1-.1-.2-.1-.3-.2-.1-.3-.2-.5-.3-.8 0-.2-.1-.5-.2-.7-.1-.3-.2-.6-.2-.9 0-.2 0-.3.1-.5.2-.2.4-.5.5-.7.1-.1.2-.3.2-.4-.6.4-1 .9-1.2 1.7-.1-.1-.1-.2 0-.3 0-.2.1-.5.3-.6.2-.2.3-.4.5-.6 0 0 .1 0 0-.1-.2.1-.4.3-.6.6s-.3.6-.3.9c-.1-.1-.1-.2-.1-.3 0-.2.1-.5.2-.7 0 0 .1-.1.1-.1.1 0 .2-.2.3-.3-.2 0-.3.1-.3.3-.5.4-.7 1-.5 1.6v.1c-.1-.2-.2-.3-.2-.6 0-.2 0-.4.1-.6 0-.1 0-.2.2-.4l.2-.2c-.2.1-.4.2-.6.3 0 0 0 0-.1.1-.2.2-.4.5-.5.8s-.1.5.1.8c.1.1.2.2.3.3 0 0 .1 0 .1.1-.5-.3-.7-.7-.5-1.4-.2.2-.3.4-.5.6v.2c0 .1.1.2.2.3s.1.1.2.2c.1.2.3.3.4.4.2.1.4.2.5.3.3.2.6.4.9.6l1.5.6h.2c.1-.1.2-.1.3-.1.2 0 .3-.1.4-.3 0-.1.1-.1.1-.2h.1v.1.2c-.1.2-.1.2.1.4 0 0 .1.1.1.1s.1 0 .1.1c-.1 0-.2-.1-.3-.1-.1-.1-.3-.2-.5-.1 0 0-.1 0-.2 0s-.1 0-.1.1c.2.2.3.4.5.6.3.3.6.4.9.5l1.2.3c.2 0 .4 0 .6-.1-.1-.1-.2-.1-.3-.2-.3-.3-.5-.6-.8-.9-.3-.4-.4-.9-.4-1.4 0-.3 0-.5-.1-.7v-.1c.1.3.2.5.2.8-.1.3 0 .7.2 1 .2.4.5.8.8 1.1.1.1.2.2.3.2s.2.1.3 0c.2-.1.4-.1.5 0 .2.1.4 0 .7 0-.2-.1-.3-.1-.4-.1-.3-.1-.6-.2-.7-.6-.1-.3-.2-.6-.3-.8 0-.1 0-.2-.1-.2.1.2.3.3.3.5.1.2.1.4.2.6s.2.3.4.3c.3.1.6.2.9.3.2.1.4.1.7.1.1 0 .3.1.4.1.2 0 .5 0 .7.1h.1c-.1-.2-.3-.3-.4-.5-.2-.2-.4-.4-.5-.6 0-.1-.1-.1 0-.2.1.2.3.4.4.5.2.3.5.5.7.7 0 0 .1.1.1.1.1 0 .3.1.4.1v-.1c-.2-.2-.4-.4-.5-.6-.1-.3-.3-.5-.5-.8-.1-.1-.1-.2-.2-.3-.2-.3-.3-.6-.4-.9-.2-.5-.3-1.1-.3-1.6 0-.1 0-.1 0-.2 0 0 0-.1.1-.1v.1c0 .2 0 .4.1.6.1.3.3.5.4.8.2.6.4 1.1.6 1.7.1.4.3.8.6 1.1.1.1.2.3.5.3.6.1 1.1.2 1.7.1h.2c-.1-.1-.1-.1-.2-.2-.3-.1-.5-.3-.8-.5-.1-.1-.1-.1-.2-.2-.2-.3-.4-.7-.5-1.1-.1-.2-.1-.3-.2-.5 0-.2-.1-.3-.2-.4-.2-.4-.4-.7-.6-1.1-.1-.3-.1-.5-.2-.8 0-.1 0-.2 0-.4s0-.3 0-.5 0-.4 0-.6-.1-.4-.1-.6.1-.4.3-.6v.1c-.1.2-.2.4-.2.6 0 .1 0 .2.1.4v.9.9c.1.5.3.9.5 1.3.2.3.4.5.4.8.2.4.3.9.6 1.3.2.4.6.6 1 .7 0 0 .1 0 .1.1s.1.2.2.2c.3 0 .5.1.7.2.1 0 .2.1.3.1-.4-.3-.7-.8-1-1.2-.2-.3-.3-.5-.5-.8-.2-.2-.4-.5-.5-.8-.2-.3-.3-.6-.2-.9.1 0 .1.1.1.1.1.1 0 .2.1.3.1.4.3.7.6 1s.4.6.6.9c.2.2.4.4.6.5.2 0 .3.1.5.1 0 0 .1 0 .1.1 0 0 0 .1-.1 0-.1 0-.2 0-.2-.1-.2-.1-.3-.1-.5-.2.2.3.4.6.7.8.4.2.7.4 1.2.5h.6c.4 0 .8-.2 1.2-.3 0 0 .1 0 .1-.1-.9-.2-1.7-1-1.9-1.6 0 0 0 .1.1.1.3.4.6.8 1 1 .3.2.6.3.9.3h.2s.1 0 .1-.1 0-.1-.1-.1c-.2-.1-.3-.2-.5-.4-.3-.3-.7-.6-.9-1-.3-.4-.6-.9-.8-1.4 0-.1-.1-.3-.1-.4.1.2.2.5.3.7.2.4.4.8.6 1.1.3.4.7.7 1 1 .2.2.4.3.6.3.2.1.4 0 .5-.2-.8-.4-1.5-.8-1.9-1.6-.4-.7-.8-1.5-.6-2.4.1.1.1.3.1.5v.5c.2.6.4 1.1.7 1.6.2.2.3.5.6.6.3.2.6.4.9.6.2.1.5.2.8 0 .1-.1.2-.2.3-.4-.2-.2-.4-.4-.6-.6-.4-.2-.7-.5-.9-.9-.1-.1-.2-.3-.2-.5.3.4.6.9 1.1 1.1-.1-.2-.2-.4-.3-.6 0 0 .1.1.1.1.3.4.6.8.9 1.2.2.2.4.2.6 0 .1-.1.3-.2.5-.3.1 0 .1 0 .2-.1s.1-.1 0-.2c-.1 0-.2-.1-.2-.1-.4-.4-.8-.7-1-1.3 0-.1 0-.1-.1-.2-.1-.2-.1-.3-.1-.5.1.1.1.3.1.4.1.2.1.5.3.7s.3.5.6.7c.1.1.3.2.4.3h.1c.3-.1.5-.3.6-.5-.1-.1-.3-.1-.4-.2-.3-.1-.4-.3-.6-.6s-.3-.7-.5-1c-.2-.4-.3-.8-.3-1.2 0-.2 0-.3.2-.5v.1c-.1.5 0 1.1.2 1.5.2.3.3.7.5 1s.4.6.8.7c.1 0 .2.1.3 0 .1 0 .2-.1.3-.1 0 0 .1 0 .1-.1-.2 0-.3-.2-.4-.3-.3-.3-.5-.7-.6-1.1-.1-.3-.2-.6-.2-1 0-.3 0-.6 0-.9s.2-.4.5-.5c0 .1-.1.2-.1.2-.1.1-.1.2-.2.3-.1.6-.1 1.1.1 1.7.1.5.4.9.7 1.3 0 .1.1.1.2.2.1 0 .2.1.2 0 0 0 .1-.1.1-.1.1 0 .2 0 .2-.2 0-.1.1-.1.1-.2.1-.2.1-.3-.1-.5-.2.1-.3.3-.4.5 0-.1 0-.1 0-.1.1-.1.1-.2.2-.3 0 0 .1-.1.1-.2s-.1 0-.2 0-.1 0-.2 0c0 0-.1 0-.1-.1h.3c.1 0 .1 0 .1-.1s0-.1-.1-.1h-.1c-.1 0-.1-.1-.1-.1.1.1.2.1.3.1s.1 0 .1-.1c-.1-.2-.1-.4-.3-.5-.3-.2-.4-.5-.5-.9 0 0 0-.1.1-.1v.1c.1.2.2.5.4.7 0 0 .1.1.2.1s.1-.1.1-.1c0-.1 0-.2-.1-.3s-.2-.3-.2-.4 0-.1.1-.2c.1 0 .1-.1.2-.2 0 0 0 0-.1-.1-.2.3-.6.2-.9.1-.1 0-.3 0-.4.1-.3.2-.4.5-.5.8v.2.1c-.1-.2-.1-.5 0-.7.1-.3.3-.5.6-.7-.1-.1-.1-.1-.2-.1-.2-.1-.5-.3-.7-.4-.1-.1-.2-.1-.3-.2s-.2-.1-.4 0-.3.2-.4.4c-.2.4-.4.7-.5 1.1-.2.3-.2.7-.2 1.1 0 .2.1.3.1.5v.4c.1.3.1.7.1 1-.1-.1-.1-.3-.1-.5s0-.3-.1-.5c0-.1-.1-.3-.1-.4s0-.2-.1-.4c0-.1-.1-.3-.1-.4 0-.4.1-.8.3-1.1.3-.1.4-.3.5-.5.1-.3.3-.6.6-.8 0 0 .1 0 .1-.1h-.1c-.4-.1-.9-.2-1.3-.3-.1 0-.2 0-.3.1s-.2.3-.2.4c-.1.3-.1.6-.1.8v.3c0-.2 0-.4-.1-.6 0-.4.1-.8.4-1.1 0 0 .1 0 .1-.1-.3-.1-.6-.2-1-.1-.2.1-.4.2-.5.3-.2.4-.4.8-.5 1.2v.7.2c-.3-.2-.3-.4-.3-.6 0-.4.1-.7.2-1 .1-.2.2-.5.4-.7 0 0 .1 0 .1-.1-.2 0-.4-.1-.6-.1s-.4 0-.6-.1c-.2 0-.4-.1-.6 0-.3 0-.5.1-.7.3s-.2.4-.2.7c0 .4.1.9.2 1.3 0 .2.1.3.1.5-.1-.1-.1-.3-.2-.5 0-.5-.1-.9-.1-1.3s.1-.8.5-1c0 0 0 0 0-.1h-.1c-.4.1-.7-.1-1-.2-.2-.1-.5-.2-.7-.2s-.4-.1-.6-.1c-.3-.1-.6-.1-.8-.1s-.4 0-.7 0c-.2 0-.3 0-.4.2-.1.1-.2.2-.4.1-.3 0-.6.1-.7.4-.1.2-.3.5-.4.7s-.2.4-.3.6c0 0 0 .1-.1.1 0 0 0-.1-.1-.1-.1.2-.3.4-.4.6 0 0 0 .1-.1.1-.2.2-.4.5-.6.7-.1.1-.1.1-.2.2-.2.3-.3.6-.4.9-.1-.1 0-.2 0-.2.1-.3.1-.5.3-.7.2-.3.5-.6.7-.9.3-.3.5-.6.7-1 .1-.1.1-.3.1-.5-.1 0-.2 0-.3.1 0 0-.1 0-.1.1s-.2.2-.3.3c-.2.1-.3.2-.5.3s-.2.3-.4.4c-.1.1-.2.2-.2.3 0 .2 0 .4-.1.5-.1.2-.1.3-.1.5 0 .1 0 .1-.1.1 0-.2 0-.4.1-.6.1-.1.1-.3.1-.4 0-.2.1-.4.2-.5s.1-.1.2-.1c.2-.4.5-.5.8-.7.1 0 .2-.1.2-.2-.4 0-.7.1-1.1.2-.1.1-.3.1-.4.1s-.3.1-.4.1c-.1.1-.3.1-.4.1s-.2 0-.4 0c-.3 0-.5 0-.7-.1-.3-.2-.5-.1-.8.2-.1.2-.2.3-.4.4zm-4.7 1.2c-.5 0-.8.2-1.2.1v.1c.3.2.5.4.8.6.2.1.3.2.5.2v-.1c0-.3 0-.5.2-.7 0 0 .1-.1.1-.1.1-.1.2-.2.3 0h.1v.1c-.2.2-.3.4-.4.6 0 .1 0 .2.1.2.1.1.2.1.2.2 0-.1 0-.1 0-.2.2-.2.3-.5.5-.6 0 0 .1-.1.1 0 .2-.1.2-.1.2-.2.1-.2.1-.3.3-.4 0 0 .1-.1 0-.1s-.1 0-.2 0c-.4.2-.8.2-1.2.3-.1 0-.2.1-.2.1-.1.1-.2.2-.3.4-.2-.2 0-.3.1-.5zm11.7 3.8c-.2-.6-.4-1.3-.7-1.9 0 .7.3 1.3.7 1.9zm13.3-2.6c-.1.2-.2.3-.3.5 0 .1-.1.2-.1.3s0 .2.1.2.2-.1.2-.2 0-.2.1-.3v-.1c.1-.2.1-.3 0-.4zm-.5.5c.1-.1.1-.2.2-.3s.1-.3.2-.4 0-.1 0-.2-.1 0-.1 0c-.1 0-.2.1-.2.1-.1 0-.1.1-.1.1v.5zm.1-1.3c-.2 0-.2 0-.2.2 0 .1 0 .2-.1.2v.1h.1c.1-.1.3-.2.4-.2s.1-.1.1-.1c0-.2-.1-.2-.3-.2zm-.5-.6c0 .1 0 .2.1.2.2.3.2.3.5.2-.1-.1-.4-.2-.6-.4zm-13.1-3.3c.3.1.5 0 .5-.2-.1 0-.2.1-.5.2zm-.7.6c-.2.3-.4.5-.4.8.1-.2.2-.3.3-.5.1 0 .1-.1.1-.3zm14.2 2.8c0-.1-.1-.2-.1-.2h-.1v.1c.1 0 .1.1.2.1z"/><path d="m15.1 13.2c-.2-.2-.3-.5-.4-.7s-.1-.4-.2-.7-.1-.6-.1-.8c0-.1 0-.2 0-.3.1-.4.1-.8.1-1.3 0-.1 0-.1 0-.2 0 .1 0 .2.1.3 0-.1.1-.1.1-.2 0-.4.1-.7.1-1.1 0-.3 0-.5 0-.8 0-.2.1-.4.3-.6 0 0 .1-.1.1-.1h.1v.1c-.2.2-.3.5-.3.8v1.1c0 .3 0 .6-.1.9s0 .6 0 .9c0 .4 0 .7-.1 1.1-.2.4 0 .8.2 1.1.1.2.1.4.1.5zm-.5-1.6c.1-.1.2-.3.2-.4 0-.4 0-.7-.1-1.1 0 .2 0 .4-.1.6-.1.3 0 .5 0 .9z"/><path d="m14.6 14.7c-.2-.2-.4-.4-.6-.6-.1-.2-.2-.4-.4-.5-.1-.2-.2-.4-.2-.6-.1-.5-.1-1-.3-1.5-.1-.2-.1-.5 0-.7 0-.3.1-.6.2-.9.1-.1.1-.2.3-.3v.1c-.2.1-.2.3-.3.5-.1.3-.1.6-.1 1v.3c.1.3.1.6.2.9.1.4.1.8.4 1.2.2.3.4.7.7 1 0-.1.1 0 .1.1z"/><path d="m15.8 9.7c-.1-.3-.1-.6 0-.9.1-.2.1-.5.2-.7 0-.1.1-.3.1-.4 0-.2.2-.3.3-.4.2-.1.4-.3.5-.4s.3-.2.5-.3c.1-.1.3-.1.4-.2h.1.1s0 0-.1.1c-.2.1-.5.2-.7.3-.1.1-.3.2-.4.3s-.3.2-.4.3c-.2.1-.3.3-.3.5 0 .1 0 .2-.1.3-.1.2-.1.4-.2.6.1.2 0 .6 0 .9z"/><path d="m19.3 11s0 .1.1.1c.2.6.5 1.2.8 1.8.1.3.3.6.4.8.1.3.4.5.7.7.3.3.7.4 1.1.7-.6-.3-1.1-.6-1.5-1-.2-.2-.3-.5-.4-.7-.2-.4-.4-.8-.6-1.2-.4-.3-.6-.7-.6-1.2-.1.1-.1.1 0 0z"/><path d="m16.1 8.9v.1c0 .5.1 1 .3 1.5.1.4.2.8.3 1.2s.2.8.4 1.2c.1.1.2.2.3.3-.1 0-.2-.1-.2-.2-.2-.3-.3-.6-.4-.9-.2-.6-.3-1.2-.4-1.7 0-.2-.1-.4-.1-.5-.1-.3-.1-.6-.1-.8-.1-.1-.1-.2-.1-.2z"/><path d="m17.7 15c-.3-.2-.6-.5-.8-.9-.1-.3-.2-.7-.3-1.1 0-.2-.1-.4-.2-.6-.2-.5-.2-1.1-.4-1.6 0-.1 0-.3 0-.5.1.1.1.2.1.2.1.4.2.8.3 1.2.1.5.3 1 .4 1.5.1.3.2.7.3 1 .1.2.2.4.4.6 0 0 .1.1.2.2z"/><path d="m20.6 8.2c0 .3 0 .5.1.8v.3.4c0 .4 0 .9-.1 1.3v.4.2c-.1-.2-.2-.4-.1-.6.1-.6.1-1.3 0-1.9 0-.1 0-.1 0-.2-.1-.2 0-.5.1-.7z"/><path d="m19 8.3c0 .1-.1.2-.1.2 0 .1-.1.1-.1.2-.1.4-.2.8-.2 1.2 0 .2 0 .3-.1.5v.6c-.1-.1-.1-.3-.1-.5.1-.4.1-.7.1-1.1.1-.4.1-.8.5-1.1z"/><path d="m27.8 11.1c-.1 0-.1-.1-.2-.2-.1-.2-.1-.4-.1-.7v-.1c-.1-.2 0-.4.1-.7 0-.1.1-.2.2-.3h.1v.1c-.2.2-.3.4-.3.7.1.4.1.8.2 1.2z"/><path d="m17.8 12.3c.1.5.3.9.6 1.3s.5.8 1 1.1c-.1 0-.2-.1-.3-.1-.2-.2-.3-.4-.5-.6-.2-.3-.4-.5-.6-.8-.1-.2-.3-.5-.3-.8 0 0 0 0 .1-.1z"/><path d="m9.6 11.2c0-.1 0-.2.1-.3 0-.1.1-.3.1-.4.1-.4.2-.9.4-1.2.1-.1.1-.1.2-.1-.1.2-.2.3-.3.4-.2.3-.2.7-.3 1 0 .2-.1.4-.2.6z"/><path d="m9.2 8.6c.2-.2.5-.2.7-.2s.4 0 .6-.1c.1 0 .2 0 .3.1-.3 0-.6 0-.9.1-.3 0-.5.2-.8.3 0-.1.1-.1.1-.2z"/><path d="m17.4 8.9c.1.1.1.1 0 .2v.9c.1.4.1.8.3 1.2-.1-.1-.1-.2-.2-.3 0-.1-.1-.3-.1-.4 0-.2-.1-.4-.1-.6 0-.4.1-.7.1-1z"/><path d="m12.1 9.1c-.3.5-.6.9-.7 1.5-.2-.3.3-1.2.7-1.5z"/><path d="m15.1 13.2c.1 0 .1.1.1.1-.1 0-.1 0-.1-.1z"/></g></svg>