<svg viewBox="0 0 30 27.8" xmlns="http://www.w3.org/2000/svg"><path d="m6.9 19.5c.1 0 .3 0 .4.1.2.1.4.1.6.2 1.1.4 2.2 1.1 3.3.3.2.2.4.3.5.5.3.5.8.6 1.2 1 .1.3.3.6.4.9.2.6.2 1.7.8 1.5.6-.1 1.8.4 1.8-1 .4-.7.7-1.8 1.8-.5.3.3.8-.1 1.1-.3 2.3-.8 4.7-1.1 6.7-2.7 1.5-1.2 2-4.2.2-5.8-1.1-1-2.5-2.1-3.7-2.7-1.4-.8-3.2-2.2-3.8-2.7-.4-.3-.7-.6-1.1-1-.5-.5-.8-1-.7-1.8.1-.3.2-.7-.3-.8-.4-.1-.7.1-.8.5-.5 2.4-2.1 3.4-4 3.9-2.2.6-4 1.6-5.8 2.7-2 1.2-2.7 2.9-2.2 5.4.3 1.2.8 2.1 2.1 2.2.5.5 1 .4 1.5.1z" fill="#c05885"/><path d="m18.1 8.3c-.3-.1-.3 1.3-.9.6-.3-.4-.6-.1-.6.3s-.1.7-.5.7c-.5.1-.6-.4-.8-.7-.2-.4-.2-1.1-.8-1.1-.8 0-.5.8-.6 1.2-.1.6-.5 1-1 1-.7 0-2.6-.8-1.7-1.3 1.9-1 3.5-1.5 4-3.9.1-.3.3-.5.8-.5.5.1.6.6.5.9-.1.7 0 1.2.5 1.7.4.4 1 .5 1.1 1.1z" fill="#d9455c"/><path d="m19.5 23.8c.1.5.5.5.7.7s.4.4.3.8-.4.2-.7.2c-.5 0-1 0-1.4-.2-1.2-.7-1.6 0-1.8 1.1-.1.5.1 1.1-.6 1.1-.6 0-.8-.4-1-.9-.4-.9-.8-1.5-1.6-.5-.3.3-.9.7-1.2.2-.4-.6-1.1-1.3-.6-2.2.7-1.3 0-1.7-1-1.9-1.4-.3-2.8-.5-4.3-.8-2.5-.5-4.3-2-4.9-4.7-.5-2.3.3-4.2 1.7-5.8 1.9-2.1 4.5-2.8 7.2-3.3 2.6-.5 2.6-1.4 2.3-3.7-.1-.7-.3-1.2.7-1.1.8.1.3-.6.2-.9-.1-.5-.6-1.1-.1-1.5s1 .2 1.4.6c.8.7 1.6 1.4 2.7 1 .6-.2 1.4-.2 1.8.4s0 1.4-.3 1.9c-.9 1.2-.4 2 .6 2.7 1.9 1.3 3.9 2.5 5.7 3.8 4.5 3.2 4.2 7.3 1.2 10.2-1.5 1.4-3.6 2.3-5.7 2.4-.4.1-.9 0-1.3.4zm-12.7-4.3c.1 0 .3 0 .4.1.2.1.4.1.6.2 1.1.4 2.2 1.1 3.3.3.2.2.4.3.5.5.3.5.8.6 1.2 1 .1.3.3.6.4.9.2.6.2 1.7.8 1.5.6-.1 1.8.4 1.8-1 .4-.7.7-1.8 1.8-.5.3.3.8-.1 1.1-.3 2.3-.8 4.7-1.1 6.7-2.7 1.5-1.2 2-4.2.2-5.8-1.1-1-2.5-2.1-3.7-2.7-1.4-.8-3.2-2.2-3.8-2.7-.4-.3-.7-.6-1.1-1-.5-.5-.8-1-.7-1.8.1-.3.2-.7-.3-.8-.4-.1-.7.1-.8.5-.5 2.4-2.1 3.4-4 3.9-2.2.6-4 1.6-5.8 2.7-2 1.2-2.7 2.9-2.2 5.4.3 1.2.8 2.1 2.1 2.2.5.5 1 .4 1.5.1z" fill="#381c1b"/><g fill="#f0f4d5"><path d="m20.9 19.7c.5.2.8-.3 1-.7.7-1.4.7-2.9 0-4.3-.6-1.2-2.6-4.3-3-4.5.3.7.4 1.3.7 1.8 1.3 2.1 1.2 4.4 1.3 6.7 0 .4-.5.8 0 1z"/><path d="m17.8 19.9c1.1-2 .6-5.9-1-7.7.7 2.7.3 5.1 1 7.7z"/><path d="m6.8 19.5c.3.4.8.2 1 .3-.2-1.1-.5-2.2-.8-3.3-.7.3 0 2.6-.2 3z"/><path d="m16 15.9c-.3-1.6-.1-3.1-.8-4.9-1.1 2.1-.9 5.9 0 8.3.1.4.3.8.7.7.5-.1.4-.6.3-1-.2-1 0-2.1-.2-3.1z"/><path d="m11.5 20.3c.7-.1.8-.6.3-1.2-.7-.9-.8-2-1.1-3-.3-1.1.1-2.1 0-3.3-1.7 2.4-1.6 5.5.4 7.3.2.2 0 0 .4.2z"/><path d="m5.4 14.3c-.2.9-.4 1.8.1 3 .5-1 .5-1.9.6-2.8 0-.2.1-.6-.2-.6s-.4.2-.5.4z"/></g><path d="m12.7 21.5c.1 0 .3-.1.4-.1.2-1.7 1.3-.8 2.1-.9 1.2 0 2.5.9 3.7-.4.6-.7 1.5.4 2.4.4-.6 1.3-2.4 0-2.6 1.7-.3.2-.8.6-1.1.3-1.1-1.2-1.3-.1-1.8.5-.3-.4.1-1.5-.8-1.4-.7.1-1.3.5-1.9.8-.1-.3-.3-.6-.4-.9z" fill="#d9455c"/></svg>