<?xml version="1.0" encoding="utf-8"?>
<!-- Generator: Adobe Illustrator 22.0.1, SVG Export Plug-In . SVG Version: 6.00 Build 0)  -->
<svg version="1.1" id="Layer_1" xmlns="http://www.w3.org/2000/svg" xmlns:xlink="http://www.w3.org/1999/xlink" x="0px" y="0px"
	 viewBox="0 0 30 38.9" style="enable-background:new 0 0 30 38.9;" xml:space="preserve">
<style type="text/css">
	.st0{fill:#D8B783;}
	.st1{fill:#BD8D5A;}
	.st2{fill:#C9A170;}
	.st3{fill:#381C1B;}
</style>
<g>
	<g>
		<path class="st0" d="M5.1,7.9c-1,2.8-1.6,4.5,0.4,7.2c0,0.2,0.3,2.3,0.2,3.2c0,0.3,0.2,0.4,0.4,0.4c0.4,0,0.7,0.2,0.9,0.6
			c0.2,0.3,0.4,0.6,0.1,1c-0.2,0.4-0.6,0.4-0.8,0.3c-0.8-0.3-1,0.3-1,0.9c0.1,1.2-0.6,2.4-0.3,3.6c0.8-0.3,1.7-0.2,2.1-1.4
			c0,0,0.1,0,0.1,0c0.6-0.2,1-0.7,1.3-1.2C8.9,21.7,8.9,21,8,20.8c-0.1,0-0.3-0.1-0.2-0.3c0-0.1,2.3-1.3,2.5-1.7
			c0.3-0.4,1.1-0.6,0.7-1.4c-0.2-0.5,0.1-0.9,0.2-1.2c1.3-1.1,0.7-3,0.3-4.4c-0.2,0-0.3-0.1-0.4-0.3c-0.1-0.4-0.2-0.9-0.3-1.3
			c-0.4-0.1-0.8-0.3-1-0.7c-0.2-0.3-0.3-0.6,0-0.9c0.3-0.3,0.6-0.4,1-0.2c0.1,0.1,0.3,0.1,0.4,0.1c0.4-0.4,1.1-1.4,1.2-1.7
			c0.9-2.6-1.6-3.4-2-2.7c0,0-1.7-0.2-2.3,0.1C8,4.3,7.3,4.8,7,5.1C6.4,5.6,5.5,7.3,5.1,7.9z M6.5,8.2c0.8-0.1,0.9,0.1,1.1,0.3
			c0.1,0.1,0.3,0.3,0.3,0.4c0,0.5-1.1,1.5-1.6,1.2C6.1,9.9,5.8,9.7,5.7,9.5C5.3,8.8,5.7,8.3,6.5,8.2z"/>
		<path class="st0" d="M13,17.3c0.1,0.7,0.5,1.2,1.1,1.5c-0.2,0.7-0.9,0-1.2,0.4c-0.1-0.1-0.1-0.1-0.2-0.2c0.1-0.3,0.1-0.6-0.2-0.9
			C12,17.6,12.3,17.3,13,17.3z"/>
	</g>
	<g>
		<path class="st1" d="M15.9,13.1c-0.6-0.3-1.1-0.1-1.6,0.3c0.2-0.3-0.2-0.5-0.2-0.8c0-0.2-0.1-0.4,0.2-0.4
			C15,12.3,15.7,12.3,15.9,13.1z"/>
		<path class="st1" d="M5.8,27.7c0.6-1.6,3.3-4.6,3.1-5.1c0.5-0.9,1.6-0.2,2.2-0.9c0,0,0.5,0.2,0.2,0.4c-0.7,0.5-0.2,1.5-0.8,2.1
			c-0.2,0.2,0,0.6,0.2,0.7c0.2,0.2,0.9,1.5,1.1,1.5c0.5-0.4,3.2,0.9,3.4,0.2c0.2-0.8-0.9-3-1.6-3.8c-0.6-0.7-2.5-2-3.1-2
			c-0.3,0-0.4-0.1-0.4-0.4c0-0.3,0.3-0.3,0.5-0.3c0.4-0.1,0.7,0.4,1.1,0.1c0.3,0.1,0.6-0.1,0.9-0.1c0.7-0.2,0.7-0.5,0.4-1
			c0.3-0.4,1,0.3,1.2-0.4c0.1,0,0.3,0.1,0.4,0.1c0.4-0.2,0.7-0.5,0.8-1c0.3,0.2,1.8,0.2,2.2,0c0.9-0.4,2.4,0.2,2.6,1.2
			c0.1,0.4-0.1,0.8,0.4,1.2c0.2,0.2,1.2,0.8,1.3,0.4c0.4-1.2-0.5-4.6-1.6-5.9c-0.2-0.3-0.4-0.5-0.7-0.3c-0.6,0.3-1.1,0.1-1.3-0.5
			c-0.1-0.4-0.3-0.6-0.8-0.6c-0.2,0-0.4,0.2-0.5-0.1c0.3-0.1-0.2-0.8,0-1c0.2-0.2,0.9,0,1.3-0.2c0.3-0.2,0.5,0,0.7,0.1
			c-0.5,0.3-0.6,0.8-0.3,1.3c0.4,0.6,1,0.5,1.6,0.5c0.6-0.1,0.7-0.7,0.6-1c-0.2-0.3-0.8-0.6-1.3-0.8c0-0.1,0-0.1,0.1-0.2
			c-0.3-0.1-2-0.8-2.2-1.3c-0.2-0.4,0.7-0.7,1-0.7c-0.2-0.3-0.1-0.7-0.5-1c0.5-0.1,0.6-0.6,0.6-0.8c0-0.1,0-0.4-0.1-0.5
			c-0.2-0.3-1-0.1-1.4-0.4c-0.6-0.5-2-0.7-2-0.7s-0.2-0.9-0.6-1.2c-0.1-0.1-0.3-0.1-0.4-0.2c0.2-0.1,0.3-0.2,0.3-0.4
			C14,4.4,14.7,4.7,15,4.9c-0.2-0.5-0.2-0.8-0.1-1c0.1-0.4,2,0.8,2.5,1.2c0.8,0.7,3.3,4,3.5,4.2C20.6,9.1,20.4,9,20.2,9
			c-0.4-0.2-0.6,0.2-0.9,0.2c-0.4,0.5-0.1,0.9,0.3,1.3c0.6,0.2,1.2,0.6,1.8,0.1c0.4-0.3,0.6,0.1,0.8,0.4c0.9,1.6,1.7,3.3,2,5.3
			c0.1,0.1,0.8,6.5,0.1,8.6c-0.7,1.9-1.2,4-2.4,5.8c-1,1.6-2.5,2.7-4.2,3.2c-1.5,0.4-3,0.9-4.6,0.8c0-0.1,0.1-0.3,0.1-0.4
			c-0.5-0.3-0.9-0.6-1.3-1c-0.2-0.2-0.7-0.6-0.8,0.1c-0.2,0.9-0.6,0.4-0.9,0.3c-0.9-0.3-1.4-1.5-2.4-1.5c-1.2-0.9-1.7-2.3-2.1-3.8
			C5.8,28.2,5.8,27.9,5.8,27.7z"/>
	</g>
	<g>
		<path class="st2" d="M10,33.6c0.3,0.1,0.7,0.6,0.9-0.3c0.2-0.7,0.6-0.3,0.8-0.1c0.4,0.4,0.8,0.7,1.3,1c0,0.1-0.1,0.3-0.1,0.4
			c-0.9,0-1.9-0.1-2.7-0.6c-0.1-0.1-0.9-0.5-0.9-0.5s-1.7-1.1-1.7-1.4C8.7,32.2,9.1,33.3,10,33.6z"/>
		<path class="st2" d="M5.1,25.1c0.1,1.1-0.6,2.4,0.4,3.2c0.3-0.1,0.2-0.4,0.3-0.6c0.6-1.6,3.3-4.6,3.1-5.1c0.5-0.9,1.6-0.2,2.2-0.9
			c0,0,0.5,0.2,0.2,0.4c-0.7,0.5-0.2,1.5-0.8,2.1c-0.2,0.2,0,0.6,0.2,0.7c0.2,0.2,0.9,1.5,1.1,1.5c0.5-0.4,3.2,0.9,3.4,0.2
			c0.2-0.8-0.9-3-1.6-3.8c-0.6-0.7-2.5-2-3.1-2c-0.3,0-0.4-0.1-0.4-0.4c0-0.3,0.3-0.3,0.5-0.3c0.4-0.1,0.7,0.4,1.1,0.1
			c-0.5-0.2-0.6-0.7-0.8-1.1c0.8-1.1,1.1-1.1,1.9-0.2c0.1-0.3,0.1-0.6-0.2-0.9c-0.5-0.6-0.2-0.8,0.5-0.8c0.9-0.7,1.8-0.5,2.4,0.6
			c0.3,0.2,1.8,0.2,2.2,0c0.9-0.4,2.4,0.2,2.6,1.2c0.1,0.4-0.1,0.8,0.4,1.2c0.2,0.2,1.2,0.8,1.3,0.4c0.4-1.2-0.5-4.6-1.6-5.9
			c-0.2-0.3-0.4-0.5-0.7-0.3c-0.6,0.3-1.1,0.1-1.3-0.5c-0.1-0.4-0.3-0.6-0.8-0.6c-0.2,0-0.4,0.2-0.5-0.1c0.3-0.1-0.2-0.8,0-1
			c0.2-0.2,0.9,0,1.3-0.2c0.3-0.2,0.5,0,0.7,0.1c0.2,0,0.4,0.1,0.6,0c0-0.1,0-0.1,0.1-0.2c-0.3-0.1-2-0.8-2.2-1.3
			c-0.2-0.4,0.7-0.7,1-0.7c-0.2-0.3-0.1-0.7-0.5-1c-1.3-0.2-1.3-0.5-1.3-0.8c0-0.3,0.4-0.8,0.4-0.9c0.1-0.3-1.1-0.6-1.3-0.6
			c-0.3-0.1-0.7,0-0.7,0S14.2,7,13.7,6.9c-0.6-0.1-0.6-0.5-0.6-0.9c0-0.4,0.3-0.6,0.8-0.7c0.2-0.1,0.3-0.2,0.3-0.4c-0.1-0.7,1,0,1,0
			s1.2-0.4,1.3-0.5c0.1-0.1-0.8-0.6-1.1-0.7c-0.4-0.2-1.2-0.5-1.9-0.5c-0.6,0-2.5,0.7-2.5,0.7s1.2,1.2,0.4,4.6
			c0.2,0.3,0.5,0.5,0.5,0.8c0,0.3-0.4,0.8-0.9,0.9c0.1,0.4,0.2,0.9,0.3,1.3c0,0.2,0.2,0.3,0.4,0.3c0.4,1.4,1.1,3.3-0.3,4.4
			c-0.1,0.4-0.4,0.8-0.2,1.2c0.4,0.8-0.4,1-0.7,1.4c-0.3,0.4-2.5,1.6-2.5,1.7c0,0.2,0.1,0.2,0.2,0.3c1,0.2,0.9,0.9,0.6,1.7
			c-0.3,0.5-0.6,1.1-1.3,1.2c0,0-0.1,0-0.1,0C6.9,24.8,5.9,24.7,5.1,25.1z M14.3,12.2c0.6,0.1,1.4,0,1.6,0.9
			c0.2,0.4,0.7,0.6,0.6,1.1c-0.2,0.9-1.7,0.6-2,0.2c-0.2-0.2-0.2-0.9-0.2-0.9c0.2-0.3-0.2-0.5-0.2-0.8C14.1,12.5,14,12.2,14.3,12.2z
			 M13.9,10.1c0.2-0.4,0.7-0.6,1.2-0.3c0.5,0.3,0.7,0.8,0.5,1.3c-0.2,0.6-0.8,0.4-1.3,0.2C13.6,11,13.7,10.5,13.9,10.1z"/>
	</g>
	<path class="st3" d="M12.4,5.5c0.2,0.3,0.1,0.7-0.1,1c-0.1,0.2-0.4,0.2-0.6,0.2c-0.5-0.2-1.2-0.4-1.4-0.6C10.2,5.7,10.8,5.3,11,5
		C11.1,4.8,12.3,5.2,12.4,5.5z"/>
	<path class="st3" d="M14.9,6.7c-0.2,0.6-0.7,0.3-1.1,0.2c-0.6-0.1-0.6-0.5-0.6-0.9c0-0.4,0.3-0.6,0.8-0.7c0.1,0.1,0.7,0.3,0.8,0.4
		C14.9,6,14.9,6.6,14.9,6.7z"/>
	<path class="st3" d="M3.3,8.1C2.8,9.7,2.8,11.4,3.2,13c0.2,0.9,0.5,1.9,0.6,2.9c-0.3,2.4-0.2,5-0.5,7.7c-0.2,1.3-0.5,2.5-0.1,3.7
		c0.6,3,2.1,5.2,4.4,7c1.7,1.3,3.4,2.3,5.4,2.6c1.8,0.2,3.5-0.1,5.2-0.6c1.1-0.3,2.2-0.4,3.2-1.1c2.2-1.7,3.5-4.1,4.3-6.7
		c0.6-2.1,1.1-4.1,1.3-6.1c0.1-1.8-0.1-3.5-0.5-5.1c-0.8-3.8-2.5-7-4.7-9.8c-0.7-0.8-3.3-3.5-3.5-3.9C17.2,2.2,15.7,2,14,1.9
		c-2-0.1-3.7,0.2-5.5,0.7C7.4,2.7,6.7,3.3,6,4C4.9,5.2,3.8,6.4,3.3,8.1z M24.6,27.6C24.6,27.6,24.6,27.6,24.6,27.6
		C24.6,27.6,24.6,27.6,24.6,27.6C24.6,27.6,24.7,27.6,24.6,27.6C24.7,27.6,24.6,27.6,24.6,27.6C24.6,27.6,24.6,27.6,24.6,27.6
		C24.6,27.6,24.6,27.6,24.6,27.6z M5.1,7.9C5.5,7.3,6.4,5.6,7,5.1C7.3,4.8,8,4.3,8.3,4.2c0.6-0.4,2.3-0.1,2.3-0.1l0.4-0.2
		c0,0,1.8-0.7,2.5-0.7c0.8,0,1.5,0.3,1.9,0.5c0.3,0.1,1.1,0.6,1.1,0.7c0,0,0.6,0.4,0.9,0.7c0.8,0.7,3.3,4,3.5,4.2
		C20.6,9.2,20.4,9,20.2,9c-0.4-0.2-0.6,0.2-0.9,0.2c-0.4,0.5-0.1,0.9,0.3,1.3c0.6,0.2,1.2,0.6,1.8,0.1c0.4-0.3,0.6,0.1,0.8,0.4
		c0.9,1.6,1.7,3.3,2,5.3c0.1,0.1,0.8,6.5,0.1,8.6c-0.7,1.9-1.2,4-2.4,5.8c-1,1.6-2.5,2.7-4.2,3.2c-1.5,0.4-3,0.9-4.6,0.8
		c-0.9,0-1.9-0.1-2.7-0.6c-0.1-0.1-0.9-0.5-0.9-0.5s-1.7-1.1-1.7-1.4c-1.2-0.9-1.7-2.3-2.1-3.8c-1-0.9-0.4-2.1-0.4-3.2
		c-0.3-1.2,0.4-2.4,0.3-3.6c0-0.5,0.2-1.2,1-0.9c0.3,0.1,0.6,0.1,0.8-0.3c0.2-0.4,0-0.7-0.1-1c-0.2-0.3-0.5-0.5-0.9-0.6
		c-0.3,0-0.5-0.1-0.4-0.4c0.1-0.9-0.2-2.9-0.2-3.2C3.5,12.4,4.1,10.7,5.1,7.9z"/>
	<path class="st3" d="M16.7,6c-0.2-0.1-0.5-0.2-0.7-0.2c-0.2,0-0.3-0.5-0.3-0.7c0-0.1,0.2-0.3,0.4-0.3C16.4,4.8,17.3,6,16.7,6z"/>
	<path class="st3" d="M8.5,7.3C7.9,7.5,7.2,7.1,7.1,6.7c-0.1-0.2,0-0.5,0-0.8C7.4,5.8,7.7,5.7,8,5.5C8.7,6.2,9.5,7,8.5,7.3z"/>
	<path class="st3" d="M11,14.4c0.1,0.5-0.5,0.5-0.8,0.7c-0.4-0.1-0.8-0.1-1.1-0.4c-0.3-0.4,0.1-1.3,0.5-1.5C10.2,13,11,14.1,11,14.4
		z"/>
	<path class="st3" d="M6.1,11.8c0.2-0.3,1.4,0,1.6,0.1c0.2,0.2,0,1-0.2,1.3c-0.2,0.1-1,0.2-1.4-0.2C5.8,12.7,6,12,6.1,11.8z"/>
	<path class="st3" d="M6.2,10.1C6.1,9.9,5.8,9.7,5.7,9.5C5.3,8.8,5.7,8.3,6.5,8.2c0.8-0.1,0.9,0.1,1.1,0.3c0.1,0.1,0.3,0.3,0.3,0.4
		C7.9,9.4,6.8,10.4,6.2,10.1z"/>
	<path class="st3" d="M10.9,8.3c0.1,0.1,0.3,0.1,0.4,0.1c0.2,0.3,0.5,0.5,0.5,0.8c0,0.3-0.4,0.8-0.9,0.9c-0.4-0.1-0.8-0.3-1-0.7
		c-0.2-0.3-0.3-0.6,0-0.9C10.1,8.2,10.4,8.1,10.9,8.3z"/>
	<path class="st3" d="M18.3,7.8C18.3,7.8,18.3,7.8,18.3,7.8C18.3,7.8,18.3,7.8,18.3,7.8C18.3,7.8,18.3,7.8,18.3,7.8z"/>
	<path class="st3" d="M16.5,8.3c0-0.3,0.3-0.9,0.4-0.9c0.5-0.1,1.2,0.2,1.4,0.4c0.1,0.1,0.1,0.4,0.1,0.5c0,0.2,0,0.8-0.6,0.8
		C16.5,9,16.4,8.6,16.5,8.3z"/>
	<path class="st3" d="M19.5,12.3c0.5,0.2,1.1,0.5,1.3,0.8c0.1,0.3,0,1-0.6,1c-0.6,0.1-1.2,0.2-1.6-0.5c-0.3-0.5-0.2-1,0.3-1.3
		C19.1,12.3,19.3,12.4,19.5,12.3z"/>
	<path class="st3" d="M14.5,14.3c-0.2-0.2-0.2-0.9-0.2-0.9c0.5-0.4,1-0.6,1.6-0.3c0.2,0.4,0.7,0.6,0.6,1.1
		C16.4,15.1,14.9,14.8,14.5,14.3z"/>
	<path class="st3" d="M14.3,11.3c-0.6-0.2-0.6-0.8-0.4-1.2c0.2-0.4,0.7-0.6,1.2-0.3c0.5,0.3,0.7,0.8,0.5,1.3
		C15.3,11.6,14.8,11.4,14.3,11.3z"/>
	<path class="st3" d="M15.4,17.9c-0.1,0.4-0.4,0.8-0.8,1c-0.1,0-0.3-0.1-0.4-0.1c-0.6-0.3-1-0.8-1.1-1.5
		C14,16.6,14.8,16.8,15.4,17.9z"/>
	<path class="st3" d="M12.7,19.1c0.1,0.1,0.1,0.1,0.2,0.2c0.3,0.5,0.4,0.9-0.4,1c-0.3,0.1-0.6,0.2-0.9,0.1c-0.5-0.2-0.6-0.7-0.8-1.1
		C11.6,18.2,11.9,18.1,12.7,19.1z"/>
</g>
</svg>
