<?xml version="1.0" encoding="utf-8"?>
<!-- Generator: Adobe Illustrator 21.1.0, SVG Export Plug-In . SVG Version: 6.00 Build 0)  -->
<svg version="1.1" id="Layer_1" xmlns="http://www.w3.org/2000/svg" xmlns:xlink="http://www.w3.org/1999/xlink" x="0px" y="0px"
	 viewBox="0 0 30 32.2" style="enable-background:new 0 0 30 32.2;" xml:space="preserve">
<style type="text/css">
	.st0{fill:#FABC2E;}
	.st1{fill:#F5AB39;}
	.st2{fill:#C6864C;}
	.st3{fill:#381C1B;}
	.st4{fill:#F6A146;}
</style>
<g>
	<path class="st0" d="M13.6,26.1c0.4,0.1,0.7-0.1,0.8-0.4c0.2-0.3,0.1-0.6-0.3-0.7c-0.3-0.1-0.4-0.4-0.6-0.6
		c0.1-0.3,0.1-0.6,0.2-0.8c0.1-0.3,0.3-0.5,0.7-0.5c0.8,0.1,1.6,0.3,2.5,0.5c0.4,0.1,0.5,0.5,0.8,0.7c-0.1,0.5-0.2,1-0.4,1.4
		c-0.4,0.6-0.9,1.2,0.1,1.8c0.3,0.2,0.1,0.5,0.1,0.8c-0.1,0.5,0.1,0.8,0.7,0.9c1.7,0.4,3.4,0.5,5.2,0.3c0.9-0.1,1.6-0.5,2.2-1
		c0.4-0.3,0.6-0.7,0.4-1.2c0.3-1.6,0-3.3,0.1-4.9c0-0.2-0.2-0.5-0.2-0.7c0.7-0.3,0.2-0.9,0.3-1.4c0.3-1.3,0.3-2.6,0.3-3.8
		c-0.2-0.2-0.4-0.1-0.6-0.1c-1,0.1-1.3-0.1-1.3-0.8c0-0.8,0.4-1.1,1.3-1c0.7,0.1,0.7-0.4,0.7-0.8c0.1-1.1,0.1-2.3,0.1-3.4
		c0-0.5,0.3-1-0.1-1.4c-0.1,0-0.2,0.1-0.2,0.1c-1,1.8-2.1,3.5-3,5.3c-0.6,1.2-1.3,2.3-1.7,3.6c-0.6,0.2-1.1,0.8-1.8,0.2
		c-0.5-0.4-0.5-1.2-0.1-2c0.1-0.2,0.2-0.4,0.2-0.6c0.9-1.6,1.8-3.2,2.7-4.9c0.3-0.6,0.7-1.2,1.1-1.8c0.3-0.7,0-0.9-0.7-0.9
		c-0.2-0.1-0.3-0.2-0.5-0.2c-1-0.4-1.4-0.1-1.2,0.9c0,0.2,0.1,0.3,0.2,0.5c-0.7,0.7-1.5,0.7-2,0c-0.2-0.3-0.3-0.7-0.5-1
		c0-0.2,0-0.3,0.1-0.5c0.2-1.7,0.8-2.2,2.6-2c0.2,0,0.5,0.2,0.7,0c-0.5-0.6-3.3-1.7-4.7-2c-0.7-0.4-0.7-0.5-1.4-0.4
		c-0.2,0.4,0.2,0.6,0.3,0.9c0.2,0.4,0.1,0.8-0.2,1.2c-0.3,0.3-0.8,0.3-1.1,0.1c-0.7-0.4-0.9-0.1-1.2,0.4c-1.3,1.9-2.3,4-3.8,5.9
		c-0.5,0.7,0.1,1,0.3,1.4c-0.3,0.6-0.3,1.5-1.4,1.5c-0.3-0.3-0.7-0.4-1,0.1c-0.8,1.2-1.7,2.4-2.5,3.6c-0.4,0.6,0.2,0.8,0.6,1
		c0.1,0.2,0.2,0.3,0.3,0.5c0.1,0.4-0.1,1.1-1,1.1c-0.3-0.3-0.7-0.6-1-0.8c-0.1,0-0.2,0-0.2,0.1c-1.4,1.7-1.2,2.6,1.3,3.5
		c2,0.7,4.1,1.5,6.2,1.9C12.6,25.9,13.1,25.9,13.6,26.1z"/>
	<g>
		<path class="st1" d="M20.1,15.5c-0.2,0-0.4,0.1-0.6,0.3c-0.8,1.3-2.2,2.2-2.7,3.7c-0.2,0.5-0.7,0.8-1.3,0.7c-0.3,0-0.2-2-0.5-2
			c-0.1,0.5-6-1-3.5,4l2.2-1c0.3,0.1,0.7,0.1,1,0.2c0.4,0.2,0.5,0.6,0.2,1s-0.6,0.1-0.9-0.1c-0.4-0.2-0.5-0.6-0.5-1
			c-0.4,0.3-0.3,0.8-0.5,1.2c0.4,0.1,0.5,0.4,0.4,0.7c-0.1,0.3-0.2,0.6,0.1,0.9c0.1-0.3,0.1-0.6,0.2-0.8c0.1-0.3,0.3-0.5,0.7-0.5
			c0.8,0.1,1.7,0.3,2.6,0.5c0.4,0.1,0.5,0.5,0.8,0.6c0.7,0.1,1.4,0.1,2.2,0.6c-0.6,0.5-0.8,1-0.5,1.6s0.8,0.7,1.5,0.6
			c0.3-0.1,0.6,0,0.8,0.3c0.7,0.9,0.8,0.8,2,0.5c0.7-0.2,1.5-0.6,2.4-0.5c0.3-1.6,0-3.3,0.1-5c0-0.2-0.2-0.5-0.2-0.7
			c-0.7-0.1,0.1-0.8-0.6-1c-0.2,0.4-0.4,0.9-0.6,1.3c-0.2,0.6-0.7,0.8-1.2,1c0.2,0.4,0.3,0.8,0.1,1.3c-0.2,0.4-0.4,0.6-0.9,0.6
			c-0.4,0-0.7-0.2-0.9-0.6c-0.2-0.5-0.1-0.9,0.1-1.3c0.2-0.4,0.6-0.3,0.9-0.3c0.1-0.1,0.2-0.1,0.3-0.2c-0.3-0.4,0-0.9-0.2-1.4
			c-0.6,0.1-0.3,0.8-0.9,0.8c-0.1-0.3-0.2-0.5-0.3-0.8c-0.7-1-0.1-2.1,0.9-3.1v-0.1c-0.6,0.2-2.1,0.8-2.9,0.2
			C19.2,17.4,20,15.7,20.1,15.5z"/>
		<path class="st1" d="M11.8,17.2c-0.2-0.3-0.6-0.6-0.1-0.9c0.3-0.2,0.4-0.5,0.4-0.8c0.1-0.4,0.1-0.7-0.4-0.9
			c-0.7-0.3-0.9-0.7-0.5-1.4c0.2-0.4,0-0.6-0.4-0.3c-0.3,0.6-0.3,1.5-1.4,1.5c-0.3,1.4-0.7,2.9-2.4,3.7c0.3,0.2,0.4,0.3,0.5,0.3
			c0.3,0.1,0.5,0.3,0.4,0.6c-0.2,0.6-0.4-0.2-0.7,0c-0.2,0.1-0.5,0-0.8,0c0.1,0.2,0.2,0.3,0.3,0.5c0.2,1.3,0.2,1.3,1.7,1.6
			c0.2,0.1,0.4,0.1,0.6,0.2c0.2-0.7,0.3-1.4,0.5-2.1c0.1-0.3,0.1-0.7,0.5-0.8l0,0c0.1-0.1,0.2-0.2,0.2-0.2
			C10.7,17.9,11.1,17.4,11.8,17.2z"/>
		<path class="st1" d="M5.6,20.8c-0.3-0.3-0.7-0.6-1-0.8c-0.1,0-0.2,0-0.2,0.1c-1.3,1.8-1.1,2.8,1.4,3.7c2,0.7,4.3,1.6,6.4,2
			c0.4,0,0.8,0.3,1.5-0.1c-0.9,0.1-1.3-0.4-1.8-0.9c-0.6-0.9,0.2-1.1,0.6-1.6c0.1-0.1,0.1-0.2,0.2-0.3c-1.1-0.3-2.1-1.1-3.3-0.8
			c-0.1,0-0.2-0.1-0.3-0.2c-0.5,0.4-0.2,1.1-0.7,1.6c-0.2,0.2-0.4,0.3-0.7,0.2C6.7,23.2,5.8,22,5.6,20.8z"/>
		<path class="st1" d="M18.1,3.8c0,0.4-0.2,0.7-0.3,1c-0.2,0.6,0,1,0.8,1.2c0.5,0.1,0.7,0.3,0.4,0.7c-0.5,0.7-0.1,1.1,0.4,1.6
			c0-0.2,0-0.3,0.1-0.5c0.2-1.7,0.8-2.2,2.7-2c0.2,0,0.5,0.2,0.7,0C22.3,5.3,19.5,4.1,18.1,3.8z"/>
		<path class="st2" d="M24.9,6.7c-0.2-0.8-0.8-0.7-1.2-0.9C23.9,6.3,24.3,6.4,24.9,6.7z"/>
		<path class="st3" d="M13.8,9.7c-0.4-0.1-0.7,0-0.9,0.3c-0.5,0.9-0.1,2.9,1.5,3.1c2,0.2,3.7-0.4,4-2.3c0.2-1.5-0.5-2.1-2.1-1.6
			c0,0.2,0,0.3,0,0.5c0,0.7-0.5,1-1.1,1.2c-0.7,0.2-0.7-0.4-1-0.7C14,10,13.9,9.9,13.8,9.7z"/>
		<path class="st3" d="M11.8,17.2c-0.6,0.2-1,0.6-1.4,1c0,0.1-0.1,0.2-0.2,0.2l0,0c-0.1,0.5-0.3,1-0.4,1.6c-0.1,1.2,0.8,1.9,2.1,1.6
			c0.1-0.4,0.1-0.7,0.1-1.1c0-1,0.7-1.3,1.6-0.9c0.3,0.2,0.6,0.3,0.9,0.5c0.3,0,0.6,0.1,1,0.1c0.9-1.2,0.8-1.5-0.6-2.2
			C13.9,17.6,12.9,17.4,11.8,17.2z"/>
		<path class="st3" d="M16.3,15.1c-0.5-0.1-1,0.3-1.1,0.8c-0.1,0.6,0.3,1.3,0.9,1.4c0.5,0.1,1.1-0.4,1.2-1
			C17.3,15.7,16.9,15.2,16.3,15.1z"/>
		<path class="st4" d="M11.9,21.6c-1.3,0.3-2.2-0.3-2.1-1.6c0-0.5,0.3-1.1,0.4-1.6c-0.4,0.1-0.4,0.5-0.5,0.8
			c-0.2,0.7-0.4,1.4-0.5,2.1c0,0.2,0,0.3-0.1,0.5C9.2,21.9,9.3,22,9.4,22c1.2-0.3,2.2,0.5,3.3,0.8c0.1-0.1,0.2-0.1,0.3-0.2
			c0.2-0.4,0.1-0.9,0.5-1.2c0-0.1,0.1-0.1,0.1-0.2l-0.1-0.1C13,21.3,12.6,21.8,11.9,21.6z"/>
		<path class="st3" d="M23.4,22.9c-0.2-0.1-0.5-0.2-0.7-0.3c-0.3,0.1-0.7-0.1-0.9,0.3s-0.3,0.9-0.1,1.3c0.2,0.4,0.5,0.6,0.9,0.6
			c0.5,0,0.7-0.2,0.9-0.6C23.8,23.8,23.6,23.3,23.4,22.9z"/>
		<path class="st3" d="M28.7,6.6c0.4,2.4,0.1,4.7,0.1,7.1c0,2.5-0.2,5-0.3,7.5c-0.1,2.1,0,4.2,0,6.4c0,0.9-0.2,1.6-0.8,2.3
			c-0.7,0.8-1.6,1.2-2.6,1.5c-2.2,0.8-4.4,0.4-6.6,0.1c-1.6-0.2-3.1-0.9-4.1-2.1c-0.2-0.2-0.4-0.4-0.7-0.5c-1.2-0.3-2.2-0.8-3.3-1.3
			c-0.3-0.2-0.7-0.4-1.1-0.4c-1.4-0.3-2.7-0.8-4-1.4C3.8,25,2.2,24.3,1.2,23c-0.4-0.5-0.5-0.9-0.3-1.4c0.2-0.6,0.5-1.3,0.9-1.8
			c1.2-1.6,2.3-3.4,3.5-5C7,12.3,9,9.9,10.6,7.3c1.3-2,2.5-4.1,4-5.9c0.8-1,0.9-1.1,2.2-0.6c0.1,0,0.2,0.1,0.4,0.2
			c2.4,1,4.8,2,7.2,3c0.8,0.4,1.7,0.5,2.3,0.8C28.2,4.9,28.5,5.2,28.7,6.6z M13.6,26.1c0.4,0.1,0.7-0.1,0.8-0.4
			c0.2-0.3,0.1-0.6-0.3-0.7c-0.3-0.1-0.4-0.4-0.6-0.6c0.1-0.3,0.1-0.6,0.2-0.8c0.1-0.3,0.3-0.5,0.7-0.5c0.8,0.1,1.6,0.3,2.5,0.5
			c0.4,0.1,0.5,0.5,0.8,0.7c-0.1,0.5-0.2,1-0.4,1.4c-0.4,0.6-0.9,1.2,0.1,1.8c0.3,0.2,0.1,0.5,0.1,0.8c-0.1,0.5,0.1,0.8,0.7,0.9
			c1.7,0.4,3.4,0.5,5.2,0.3c0.9-0.1,1.6-0.5,2.2-1c0.4-0.3,0.6-0.7,0.4-1.2c0.3-1.6,0-3.3,0.1-4.9c0-0.2-0.2-0.5-0.2-0.7
			c0.7-0.3,0.2-0.9,0.3-1.4c0.3-1.3,0.3-2.6,0.3-3.8c-0.2-0.2-0.4-0.1-0.6-0.1c-1,0.1-1.3-0.1-1.3-0.8c0-0.8,0.4-1.1,1.3-1
			c0.7,0.1,0.7-0.4,0.7-0.8c0.1-1.1,0.1-2.3,0.1-3.4c0-0.5,0.3-1-0.1-1.4c-0.1,0-0.2,0.1-0.2,0.1c-1,1.8-2.1,3.5-3,5.3
			c-0.6,1.2-1.3,2.3-1.7,3.6c-0.6,0.2-1.1,0.8-1.8,0.2c-0.5-0.4-0.5-1.2-0.1-2c0.1-0.2,0.2-0.4,0.2-0.6c0.9-1.6,1.8-3.2,2.7-4.9
			c0.3-0.6,0.7-1.2,1.1-1.8c0.3-0.7,0-0.9-0.7-0.9c-0.2-0.1-0.3-0.2-0.5-0.2c-1-0.4-1.4-0.1-1.2,0.9c0,0.2,0.1,0.3,0.2,0.5
			c-0.7,0.7-1.5,0.7-2,0c-0.2-0.3-0.3-0.7-0.5-1c0-0.2,0-0.3,0.1-0.5c0.2-1.7,0.8-2.2,2.6-2c0.2,0,0.5,0.2,0.7,0
			c-0.5-0.6-3.3-1.7-4.7-2c-0.7-0.4-0.7-0.5-1.4-0.4c-0.2,0.4,0.2,0.6,0.3,0.9c0.2,0.4,0.1,0.8-0.2,1.2c-0.3,0.3-0.8,0.3-1.1,0.1
			c-0.7-0.4-0.9-0.1-1.2,0.4c-1.3,1.9-2.3,4-3.8,5.9c-0.5,0.7,0.1,1,0.3,1.4c-0.3,0.6-0.3,1.5-1.4,1.5c-0.3-0.3-0.7-0.4-1,0.1
			c-0.8,1.2-1.7,2.4-2.5,3.6c-0.4,0.6,0.2,0.8,0.6,1c0.1,0.2,0.2,0.3,0.3,0.5c0.1,0.4-0.1,1.1-1,1.1c-0.3-0.3-0.7-0.6-1-0.8
			c-0.1,0-0.2,0-0.2,0.1c-1.4,1.7-1.2,2.6,1.3,3.5c2,0.7,4.1,1.5,6.2,1.9C12.6,25.9,13.1,25.9,13.6,26.1z M23.7,5.8
			c0.2,0.5,0.6,0.6,1.2,0.9C24.6,5.9,24.1,6,23.7,5.8z"/>
	</g>
</g>
</svg>
