<?xml version="1.0" encoding="utf-8"?>
<!-- Generator: Adobe Illustrator 21.1.0, SVG Export Plug-In . SVG Version: 6.00 Build 0)  -->
<svg version="1.1" id="Layer_1" xmlns="http://www.w3.org/2000/svg" xmlns:xlink="http://www.w3.org/1999/xlink" x="0px" y="0px"
	 viewBox="0 0 30 22.1" style="enable-background:new 0 0 30 22.1;" xml:space="preserve">
<style type="text/css">
	.st0{fill:#381C1B;}
	.st1{fill:#37803F;}
	.st2{fill:#7FB743;}
</style>
<path class="st0" d="M13.5,21.5c-2.6-0.3-5-1.2-6.9-3.2c-1.1-1.1-1.9-2.6-3.3-3.6c-0.4-0.3-0.7-0.5-1.2-0.7
	c-2.9-1.3-2.5-3.8-0.8-5.2C3.4,7,5,4.8,7.1,3c1.5-1.3,3.3-2,5.2-2.3c3.6-0.5,6.8,0.6,9.8,2.6c1.3,0.9,2.4,2.1,3,3.7
	c0.2,0.6,0.5,1,1.2,1.1s1.2,0.6,1.8,0.9c2,1,1.8,4.3-0.3,5c-0.4,0.1-0.8,0.3-1.1,0.5c-0.8,0.3-1.6,0.7-2,1.5c-0.9,1.8-2.4,2.8-4,3.7
	C18.5,20.9,16.2,21.6,13.5,21.5z"/>
<path class="st1" d="M22.7,8.7c0-0.2-0.1-0.4-0.2-0.6c-2.2-3-5.3-4.4-8.9-4.7c-1.4-0.1-2.9,0.4-4,1.3c-2.3,1.8-3.9,4.3-6.3,6
	c-0.4,0.3,0,0.6,0.3,0.7c0.8,0.1,1.3,0.7,1.8,1.1C6,12.9,6.3,13.6,6.9,14c0.9,1,1.8,2.1,2.9,2.9c0.2,0.7,0.8,0.8,1.4,0.9
	c0.3,0.1,0.5,0.2,0.8,0.3c1.9,0.7,3.7,0.7,5.6,0.1c0.2-0.1,0.4-0.1,0.5-0.2c1.8-0.2,3-1.3,4.1-2.6c1.2-1.3,2.3-2.7,4.1-3.2
	c0.2-0.1,0.6-0.1,0.5-0.6c-0.1-0.1-0.2-0.2-0.3-0.3c-1.3-0.5-2.5-1.3-3.3-2.4C23.1,8.9,22.9,8.8,22.7,8.7L22.7,8.7z"/>
<path class="st2" d="M9.9,16.9C8.7,16.1,7.9,15,7,14c0.1-0.2,0.2-0.4,0.4-0.6c1-0.7,1.1-1.5,0.6-2.5c-0.1-0.3-0.1-0.6,0.2-0.8
	C8.4,9.8,8.5,9.4,8.5,9c0-0.5,0.3-0.9,0.6-1c0.9-0.2,1.5-0.6,2.2-1.2c0,0,0.1-0.1,0.1,0c0.8,0.6,1.3-0.1,2-0.2
	c0.8-0.1,1.6-0.5,2.3,0.2C15.8,7,16.3,7,16.5,6.9c0.6-0.2,1.1,0.1,1.6,0C18.8,6.8,19,7.2,19,7.6c0.1,1.5,0.6,3.1-0.4,4.5
	c0.4,0.5,1.1,0.1,1.4,0.6c-0.4,0.4-0.9,0.6-1.3,0.9C18.2,14,17.5,14,17,14.5c-0.4,0.5-0.9,0.6-1.5,0.2c-0.3-0.2-0.7-0.3-1,0.1
	c0.2,0.2,0.4,0.4,0.5,0.5c0.1,0.2,0.2,0.4,0.3,0.6c0.6,0.8,0.9,0.8,1.4-0.2c0-0.1,0.1-0.1,0.2-0.1c1.3,0.8,1.3,0.8,1.2,2.2
	C18,18,17.8,18,17.6,18.1c-0.6-0.4-1.2-0.4-1.8-0.2c-0.6,0.1-1.1,0.2-1.6,0c-0.8-0.3-1.5-0.1-2.2,0.2c-0.3-0.1-0.5-0.2-0.8-0.3
	C11.2,16.9,10.4,17,9.9,16.9z M17.4,16.9c0,0,0.1,0,0.1,0.1c0,0,0-0.1,0.1-0.1C17.5,16.9,17.5,16.8,17.4,16.9
	C17.4,16.8,17.4,16.9,17.4,16.9z"/>
<path class="st2" d="M21.5,10.1c0.1-0.6,0-1.2,0-1.8c0.6-0.1,0.8,0.6,1.3,0.5l0,0C22.7,9.5,22.4,10,21.5,10.1L21.5,10.1z"/>
<path class="st2" d="M21.5,10.1c-0.1,0.7-0.8,0.7-1.2,1.1C20.4,10.1,20.4,10.1,21.5,10.1L21.5,10.1z"/>
</svg>
