<?xml version="1.0" encoding="utf-8"?>
<!-- Generator: Adobe Illustrator 21.1.0, SVG Export Plug-In . SVG Version: 6.00 Build 0)  -->
<svg version="1.1" id="Layer_1" xmlns="http://www.w3.org/2000/svg" xmlns:xlink="http://www.w3.org/1999/xlink" x="0px" y="0px"
	 viewBox="0 0 30 27.8" style="enable-background:new 0 0 30 27.8;" xml:space="preserve">
<style type="text/css">
	.st0{fill:#381C1B;}
	.st1{fill:#E52344;}
	.st2{fill:#EC3459;}
	.st3{fill:#25592F;}
	.st4{fill:#EA486F;}
	.st5{fill:#37803F;}
	.st6{fill:#F0F4D5;}
</style>
<path class="st0" d="M15.5,4.7c0.3-0.8,0.9-1.4,1.7-1.9c0.1,0,0.2-0.1,0.3-0.1l0,0c-0.6,0.2-0.8,0.6-1.1,1c0,0.1-0.1,0.2-0.1,0.2
	c-0.1,0.2-0.3,0.3-0.4,0.5C15.7,4.5,15.6,4.6,15.5,4.7z"/>
<g>
	<g>
		<path class="st0" d="M26.4,11.6c-0.1-0.1-0.3-0.3-0.4-0.5c-0.4-0.4-0.7-0.8-1-1.2c-0.3-0.5-0.8-0.8-1.2-1c-0.3-0.2-1.6-1-1.8-1.2
			c-0.8-0.9-1.8-1.4-2.7-1.8L19,5.7c-0.2-0.1-0.5-0.2-0.7-0.4h-0.1c0,0,0,0,0-0.1c0.5-0.5,1-1,1.5-1.4c0.3-0.2,0.5-0.5,0.7-0.9
			c0.2-0.5,0.2-0.9-0.2-1.3c-0.5-0.5-1.1-0.8-1.7-1.2l-0.2-0.1c-0.7-0.4-1.4-0.3-2.2,0.1c-1.2,0.7-2,1.6-2.6,2.7
			c-0.1,0.2-0.1,0.1-0.2,0.1c-0.7-0.1-1.3,0-1.9,0.2c-0.3,0.1-0.5,0.1-0.8,0.1C8.7,3.9,7.1,4.9,6,5.7C5.4,6.2,5,6.6,4.6,7.1v0.1
			c-0.5,0.3-0.9,0.6-1.3,1C3.2,8.3,3,8.5,2.9,8.6C2.8,8.7,2.7,8.8,2.5,8.8c-0.4,0.3-0.9,0.7-1.2,1.3c-0.1,0.2-0.2,0.3-0.2,0.5
			c-0.3,0.6-0.6,1.3-0.7,2v0.3c0,0.5-0.1,1-0.2,1.4c-0.1,0.7-0.2,1.3,0,2c0.1,0.4,0.2,0.8,0.4,1.2c0.1,0.2,0.2,0.5,0.3,0.8
			c0.1,0.5,0.3,1,0.7,1.5L2,20.2c0.8,1,1.7,2,2.8,2.8c0.3,0.2,0.7,0.5,1,0.7c0.4,0.3,0.9,0.7,1.4,1L7.5,25c0.5,0.3,1,0.6,1.5,0.9
			c0.7,0.3,1.3,0.6,2,0.8c0.5,0.2,1,0.4,1.5,0.6c0.1,0,0.2,0.1,0.4,0.1h0.4c1.4,0.1,2.7,0.3,4.2,0.1s3.2-0.5,4.7-1.6
			c0.7-0.6,1.6-1.3,2.5-2c0.6-0.5,1.1-1.1,1.5-1.6c0.7-1.2,1.2-2.2,1.5-3.1C28.7,16.3,28.3,13.8,26.4,11.6z"/>
		<path class="st1" d="M26.3,17.9c-0.2,1.2-0.7,2.3-1.4,3.3c0,0,0,0,0,0c-0.3,0.7-0.9,1.1-1.4,1.5c-1.2,1-2.4,2-3.9,2.5
			c-0.9,0.3-3.3,0.5-4.8,0.4c-1.1,0.1-2.1-0.3-3.1-0.7c-1.9-0.7-3.3-1.9-4.9-3.1c-1.1-0.8-2.1-1.6-2.9-2.6c-1.7-3-1.5-3.3-1.5-4.9
			c0-1.3,0.2-2.6,1.2-3.5c0-0.1,0.6-0.5,0.8-0.7C5,9.3,5.1,9.2,6,9.7C6.6,10,7.2,10,7.9,9.8c0.3-0.1,0.6-0.2,1-0.3c0,0,0,0,0,0
			C9.2,9.4,9.4,9,9.7,9.3c0.3,0.2,0,0.5-0.1,0.8c-0.1,0.2-0.1,0.5-0.2,0.8c0,0.1,0,0.1,0.1,0.1c-0.2,0.6-0.2,1.4,0.8,2.1
			c0.2,0.1,0.9,0.6,1.8,0.6c0.8-0.2,1.4-0.6,2-1.2c0.7-0.8,0.8-0.7,1.4,0.1c0.7,1.1,1.8,1.7,2.9,2.3c0.5,0.3,1.1,0.1,1.4-0.4
			s0.5-1,0.4-1.6c0-0.4,0.1-0.5,0.4-0.5c0.4,0,0.7-0.1,1.1-0.2c0.5-0.1,0.8-0.3,1.1-0.7c0.2-0.4,0.3-0.4,0.7-0.1
			c1.6,1.1,2.4,2.7,2.9,4.5C26.6,16.6,26.4,17.3,26.3,17.9z"/>
		<polygon class="st0" points="23.7,16.3 23.7,16.3 23.7,16.3 		"/>
	</g>
	<path class="st0" d="M7.9,7.7C7.7,7.8,7.5,7.8,7.3,7.8l0,0c0.2-0.1,0.6-0.2,0.8-0.6c0.3-0.4,0.7-0.7,1.3-0.8l0.4-0.1
		c0.8-0.2,1.7-0.4,2.5-0.5l0,0c0,0.7,0.1,1.2,0.3,1.8c0,0,0,0.1-0.1,0.2l-0.3,0.3l0.6,0.4v0.1L13.5,9c0.2,0.1,0.4,0.2,0.6,0.2
		c0.1,0,0.2,0.1,0.3,0.1c-0.2,0.1-0.5,0.2-0.7,0.5c-0.1,0.2-0.3,0.3-0.5,0.4c-0.4,0.4-0.8,0.8-1.4,1.1c-0.2,0.1-0.4,0.1-0.6,0
		c0,0,0-0.2,0-0.3c0-0.2,0.1-0.3,0.2-0.5l0.1-0.1c0.1-0.3,0.3-0.6,0.2-1.1c0-0.1,0.1-0.2,0.2-0.3C12,8.9,12,8.7,12.1,8.6l0.1-0.2
		L12,8.1l-0.2-0.2C11.5,7.5,11.1,7,10.3,7h-0.1C9.4,7.1,8.6,7.2,7.9,7.7z"/>
	<path class="st0" d="M20,9.8c-0.3-0.2-0.6-0.3-0.9-0.4l-0.2-0.1c-0.6-0.3-1.1-0.2-1.4,0c-0.7,0.4-0.6,0.9-0.5,1.2
		c0,0.1,0.1,0.2,0.1,0.3c0.2,0.5,0.3,1,0.9,1.4c0,0.1,0.1,0.3,0,0.4c-0.3-0.1-0.5-0.3-0.5-0.5c-0.1-0.2-0.2-0.3-0.3-0.5
		c-0.2-0.3-0.3-0.5-0.3-0.8s-0.2-0.6-0.5-0.7c0,0-0.1,0-0.2-0.2c0-0.1-0.1-0.1-0.2-0.2c-0.2-0.2-0.5-0.4-0.8-0.5
		c0.3-0.1,0.6-0.4,0.8-0.8c0.1-0.1,0.1-0.3,0.2-0.4c0.1-0.2,0.2-0.3,0.2-0.5c0.1-0.2,0.3-0.3,0.4-0.4c0.1,0,0.2,0,0.3,0.1
		c0.3,0.2,0.7,0.4,1.1,0.5c0.5,0.2,1,0.4,1.4,0.8c0.4,0.3,0.6,0.8,0.9,1.2l0.1,0.1C20.5,10,20.3,9.9,20,9.8z"/>
	<g>
		<path class="st2" d="M9.5,12.7c-0.1,0-0.3-0.1-0.4,0.1C9,13,8.9,13.2,8.6,13.1c-0.3-0.1-0.7-0.3-1-0.5c-0.1-0.1-0.1-0.2,0-0.3
			c0.3-0.8-0.1-1.3-0.8-1.5c0,0-0.1,0-0.1-0.1s0-0.1,0-0.1s0,0,0,0.1c-0.1,0.1-0.1,0.2-0.2,0.4c-0.4,0.7-0.4,0.7,0.3,1.1
			c0.3,0.2,0.4,0.4,0.2,0.7c-0.3,0.4-0.4,0.9-0.8,1.3c-0.1,0.1-0.3,0.4-0.1,0.5C6.7,15,6.4,15.6,6.6,16s0.6,0.9,1,0.8
			c0.3,0,0.7-0.7,0.5-1c-0.3-0.5,0-0.5,0.4-0.7s0.7-0.3,1.1,0c0.3,0.2,0.5,0.1,0.6-0.2c0.3-0.7,0.3-0.7,1-0.4
			c0.2,0.1,0.5,0.3,0.7-0.1c0.1-0.1,0.2-0.1,0.3-0.1c0.5-0.1,1.1,0.1,1.6-0.2c0.2-0.1,0.4,0,0.4,0.4c-0.1,0.3,0.1,0.6-0.2,0.9
			c-0.2,0.1-0.1,0.3-0.1,0.5c0.1,0.7,0,0.8-0.7,1c-0.3,0.1-0.4,0.3-0.5,0.5c-0.2,0.4-0.5,0.8-0.8,1.2c-0.2,0.3-0.4,0.4-0.7,0.2
			c-0.1-0.1-0.1,0-0.2,0.1c-0.2,0.5-0.3,0.6-0.7,0.3C10.2,19,10,19,9.7,19c-0.4,0.1-0.8,0-1.2-0.2c-0.3-0.2-0.7-0.3-0.7-0.7
			c-0.1-0.4-0.4-0.2-0.5-0.1c-0.3,0.3-0.4,0.7-0.7,1c-0.2,0.3-0.4,0.3-0.6,0s-0.5-0.4-0.8-0.5c-0.7-0.1-0.6-0.8-0.8-1.2
			c-0.1-0.2,0.1-0.2,0.2-0.2c0.2-0.2,0.2-0.4-0.1-0.4c-0.4-0.1-0.7-0.3-1,0.2c-0.2,0.3-0.6,0.1-0.9,0v-0.1c0-0.1,0-0.1,0-0.2l0,0
			c0.1-0.3,0.6-0.6,0-0.9c0,0,0-0.2,0-0.3c0.1-0.3-0.1-0.4-0.3-0.5c0-0.2,0.1-0.4,0.1-0.6c0.1,0.1,0.3,0.1,0.4,0.2
			c0.2,0.1,0.3,0.1,0.5-0.1c0.5,0.2,0.9,0.3,1.3-0.2c0.1-0.1,0.3-0.1,0.4,0c0.2,0.1,0.3,0.2,0.5,0.1c0.1-0.4,0.1-1,0.6-1.2
			c0.2-0.1,0.3-0.4,0.2-0.6c-0.1-0.2-0.4-0.2-0.6,0c-0.4,0.3-0.7,0.1-1.1-0.1c-0.1-0.1-0.1-0.2,0-0.4c0.2-0.6,0.2-0.8-0.4-1.1
			c-0.1-0.1-0.3-0.1-0.4-0.2c0.1-0.2,0.3-0.4,0.5-0.6C4.9,9.3,5,9.2,5.9,9.7C6.5,10,7.1,10,7.8,9.8c0.3-0.1,0.7-0.2,1.1-0.3
			c0.2,0.3-0.5,0.9,0.4,0.9c0,0.1,0,0.2,0,0.2c0,0.1,0,0.3,0.1,0.4C9.2,11.6,9.4,12.2,9.5,12.7z"/>
		<path class="st2" d="M8.2,12.7C8.2,12.7,8.2,12.6,8.2,12.7C8.2,12.6,8.1,12.6,8.2,12.7C8.1,12.6,8.1,12.7,8.2,12.7L8.2,12.7z"/>
		<path class="st2" d="M14.9,25.6c-0.3-0.2-0.7-0.2-0.5-0.7c0-0.1-0.2-0.3-0.3-0.5c-0.2-0.1-0.2,0.2-0.3,0.2
			c-0.3,0.2-0.8-0.1-0.8-0.5s-0.3-0.6-0.6-0.7C12,23.2,11.5,23,11,22.7c0.2,0.4,0.7,0.4,0.9,0.8c-1.1-0.5-2.1,0.2-3-0.5
			c-0.1-0.1-0.2-0.1-0.2-0.2s0.1-0.1,0.2-0.1c0.8,0.1,1.1-0.2,1-1c0-0.1-0.1-0.3,0-0.4c0.1-0.2,0.3-0.4,0.5-0.2
			c0.5,0.5,0.9,0.3,1.3,0c0.2-0.1,0.4-0.3,0.7-0.3c0.6-0.2,0.6-0.2,0.9,0.3c0.1,0.3,0.9,0.4,1.1,0.1c0-0.1,0.1-0.1,0.1-0.2
			c0.1-0.2,0.2-0.5,0.5-0.6s0.4,0.2,0.6,0.3c0.3,0.2,0.5,0.1,0.6-0.2c0.1-0.3,0.4-0.6,0.1-0.9c-0.2-0.2-0.4-0.2-0.7-0.2
			s-0.5,0-0.5-0.3s0.1-0.4,0.4-0.5c0.4-0.1,0.7-0.6,0.8-1c0.2-0.6,0.2-0.5,0.8-0.3c0.7,0.2,1.3,0.7,2,1c0.2,0.1,0.5,0.3,0.5-0.2
			c0-0.1,0.1-0.2,0.1-0.1c0.1,0,0.2,0.1,0.2,0.1c0,0.3,0.2,0.6,0,0.9c-0.1,0.2-0.2,0.4-0.1,0.6c0.1,0.3,0,0.3-0.3,0.3
			c-0.2,0-0.3,0.2-0.4,0.4c-0.2,1-0.8,1.6-1.8,1.8c-0.4,0.1-0.5,0.4-0.5,1.1c-0.3,0.5-0.5,0.9-0.9,1.3c-0.3,0.3-0.2,0.4,0.1,0.6
			c0.1,0.1,0.3,0.1,0.4,0.1c0.3,0.1,0.2,0.3,0.1,0.4C16,25.6,15.4,25.7,14.9,25.6z"/>
		<path class="st3" d="M13.4,8.5c0.3,0.1,0.5,0.2,0.8,0.4c0.7,0.3,1.1,0.1,1.5-0.5c0.2-0.4,0.3-0.7,0.5-1c0.3-0.5,0.9-0.7,1.4-0.4
			c0.8,0.5,1.8,0.7,2.6,1.4c0.4,0.4,0.8,0.9,1.1,1.4c0.2,0.3,0,0.6-0.4,0.6c-0.3,0-0.6-0.1-0.9-0.2c-0.3-0.2-0.7-0.4-1.1-0.5
			c-0.3-0.2-0.7-0.2-1,0c-0.2,0.1-0.4,0.3-0.3,0.6c0.2,0.5,0.3,1.2,0.9,1.5c0.3,0.2,0.3,0.8,0.1,1.1c-0.1,0.2-0.3,0.2-0.5,0.1
			c-0.3-0.2-0.6-0.4-0.8-0.7c-0.2-0.5-0.7-0.8-0.7-1.5c0-0.1-0.1-0.2-0.2-0.2c-0.3-0.1-0.4-0.3-0.6-0.5c-0.6-0.6-1.1-0.6-1.7,0
			c-0.6,0.6-1.1,1.2-1.9,1.6c-0.4,0.2-0.6,0.2-1,0c-0.3-0.2-0.3-0.5-0.2-0.8c0-0.2,0.1-0.4,0.2-0.6c0.1-0.3,0.3-0.6,0.2-1
			c-0.1-0.3,0.2-0.6,0.4-0.9c0.2,0,0.3-0.4,0.6-0.1C12.7,8.9,12.8,8.9,13.4,8.5z"/>
		<path class="st3" d="M11.6,8.3c-0.3-0.4-0.6-0.9-1.2-0.8C9.6,7.5,8.7,7.6,8.1,8C7.7,8.3,7.3,8.3,6.9,8.3c-0.2,0-0.3-0.1-0.2-0.4
			C6.8,7.6,7,7.5,7.3,7.4c0.1,0,0.3-0.1,0.5-0.4c0.3-0.6,0.9-0.9,1.5-1c1-0.2,2-0.5,3-0.6c0.3,0,0.5,0,0.5,0.4c0,0.6,0,1.1,0.2,1.6
			c0.1,0.2,0,0.4-0.1,0.6C12.1,7.7,12,7.7,11.6,8.3z"/>
		<path class="st4" d="M16.5,25.6c0.1-0.2,0.2-0.3-0.1-0.4c-0.1,0-0.2-0.1-0.4-0.1c-0.3-0.1-0.4-0.3-0.1-0.6
			c0.4-0.4,0.7-0.8,0.9-1.3c0.3,0.2,0.6,0.3,1,0.1c0,0.1,0.1,0.2,0.2,0.2c0.3,0.2,0.7-0.1,1,0c-0.5,0.4-1,0.8-1.7,1.4
			c0.9-0.1,1.6-0.4,2.2-0.7c1.3-0.6,2.3-1.5,3.3-2.5c0.1,0.1,0.3,0.2,0.4,0.1c0.3-0.4,1-0.3,1.3-0.8c0,0,0.1,0,0.2,0.1
			c-0.3,0.7-0.9,1.1-1.4,1.6c-1.2,1-2.4,2-3.9,2.5C18.5,25.5,17.5,25.6,16.5,25.6z"/>
		<path class="st3" d="M14.8,5.8c0.1-1.6,0.9-2.6,2.1-3.4c0.2-0.1,0.4-0.2,0.7-0.3c0.2,0,0.3-0.1,0.4,0.1c0.1,0.2,0,0.3-0.1,0.4
			c-0.1,0.1-0.2,0.3-0.4,0.4c-0.5,0.2-0.7,0.7-1,1.1c-0.4,0.5-0.9,0.8-1.1,1.4C15.4,5.8,15.1,5.8,14.8,5.8z"/>
		<path class="st5" d="M11.6,8.3C12,7.7,12.1,7.7,13,8c0.1,0.1,0.2,0.1,0.3,0.2c0,0.1,0.1,0.1,0.1,0.2l0.1,0.1
			c-0.7,0.4-0.7,0.4-1.1-0.1c-0.3-0.3-0.4,0.1-0.6,0.1C11.7,8.4,11.7,8.3,11.6,8.3z"/>
		<path class="st1" d="M9.3,11c0-0.1-0.1-0.3-0.1-0.4c0-0.1,0-0.2,0-0.2c-0.8,0-0.2-0.6-0.4-0.9C9.1,9.4,9.3,9,9.6,9.3
			c0.3,0.2,0,0.5-0.1,0.8C9.4,10.3,9.4,10.7,9.3,11z"/>
		<path class="st2" d="M11.9,13.7c-0.4,0.5-0.6,0.6-1.1,0.2c-0.1-0.1-0.3-0.2-0.4-0.4c0.2-0.1,0.3,0.1,0.5,0
			C11.2,13.6,11.6,13.7,11.9,13.7z"/>
		<path class="st2" d="M10.1,13.1c-0.1,0.2-0.2,0.4-0.5,0.2s-0.2-0.4-0.1-0.6C9.7,12.8,9.9,12.9,10.1,13.1z"/>
		<path class="st3" d="M13.3,8.4c0-0.1-0.1-0.1-0.1-0.2C13.3,8.2,13.3,8.3,13.3,8.4z"/>
		<path class="st6" d="M22.7,21.7c-1,1-2.1,1.9-3.3,2.5c-0.6,0.3-1.3,0.6-2.2,0.7c0.7-0.5,1.2-1,1.7-1.4c0.9-0.8,1.9-1.6,2.7-2.5
			c0.6-0.7,1-1.5,1.4-2.4c0.1,0,0.1-0.1,0.1-0.1c0-0.1,0.1-0.2,0.1-0.3c0.3-0.6,0.5-1.2,0.4-1.8v-0.1c0.2-0.6,0.3-1.2,0.3-1.9
			c0.1-0.2-0.2-0.6,0.1-0.7c0.3-0.1,0.4,0.4,0.4,0.6c0.3,1.2,0.6,2.5,0.3,3.8C24.4,19.6,23.7,20.7,22.7,21.7z"/>
		<path class="st2" d="M23.6,16.4c0,0.6-0.1,1.3-0.4,1.8c-0.5-0.2-0.8-0.8-1.6-0.8c0.4-0.3,0.7-0.1,0.9,0c0.3,0.1,0.5,0,0.4-0.3
			c-0.1-0.4,0.1-0.5,0.4-0.5C23.4,16.6,23.5,16.5,23.6,16.4z"/>
		<path class="st2" d="M23.9,14.4c0,0.6,0,1.3-0.3,1.9c-0.5-0.2-0.6-0.6-0.4-1.1C23.3,14.9,23.4,14.5,23.9,14.4z"/>
		<path class="st2" d="M17.8,23.6c-0.1,0-0.2-0.1-0.2-0.2c0.1-0.2,0.1-0.4,0.4-0.5C18.2,23.1,17.9,23.3,17.8,23.6z"/>
		<path class="st2" d="M23,18.5c0,0.1,0,0.1-0.1,0.1C23,18.6,23,18.6,23,18.5L23,18.5z"/>
		<path class="st4" d="M3.2,14.4c-0.3-0.3,0.1-0.4,0.1-0.6c0.1,0,0.2-0.1,0.3-0.2c0.1,0,0.2-0.1,0.2-0.2c0-0.5,0.4-0.8,0.8-1.1
			c0.4,0.2,0.7,0.4,1.1,0.1c0.2-0.1,0.4-0.2,0.6,0s0,0.5-0.2,0.6c-0.5,0.3-0.5,0.8-0.6,1.2c-0.2,0.2-0.4,0-0.5-0.1
			c-0.2-0.1-0.3-0.1-0.4,0C4.1,14.7,3.7,14.6,3.2,14.4z"/>
		<path class="st1" d="M8.2,12.7L8.2,12.7C8.1,12.7,8.1,12.6,8.2,12.7C8.1,12.6,8.2,12.6,8.2,12.7C8.2,12.6,8.2,12.7,8.2,12.7z"/>
		<path class="st1" d="M6.6,10.8C6.6,10.7,6.6,10.7,6.6,10.8C6.6,10.6,6.6,10.7,6.6,10.8L6.6,10.8z"/>
		<path class="st2" d="M3.6,13.5c-0.1,0.1-0.1,0.2-0.3,0.2c-0.1-0.1-0.2-0.2-0.1-0.3C3.4,13.3,3.5,13.5,3.6,13.5z"/>
	</g>
</g>
</svg>
