<svg viewBox="0 0 30 22.1" xmlns="http://www.w3.org/2000/svg"><path d="m14.8 15.8c-.1-.3-.3-.5-.4-.7s-.1-.3.2-.3c.9.1 1.7.2 2.6.3.2 0 .2.1.3.3.1.3.1.6.1.9-.1 0-.2.1-.4 0-.8-.2-1.6-.4-2.4-.5z" fill="#d87526"/><path d="m10.8 11.1c.2-.3.2-.7.5-1 .3.2.7.3 1 .5.1 0 .2.1.3.1.4.1.7.1 1.1.3.3.1.4 0 .6-.2-.2.5-.3.9-.5 1.4-.5-.3-1.9-.7-2-.7-.4-.2-.7-.3-1-.4z" fill="#8c4422"/><path d="m3.6 5.2c.2-.3.5-.7 1-.8.5 0 1-.1 1.5-.1.3 0 .3.1.2.3-.2.3-.4.7-.7 1 0 .1-.1.2-.3.2-.4 0-.9 0-1.3 0-.3-.1-.6-.2-.4-.6z" fill="#efd23b"/><path d="m14.7 12.2c.1-.5.2-1 .4-1.4-.1.5.5.7.5.7s1.7.4 2.4.7c-.1.3-.2.6-.3.9-.7-.2-1.4-.6-2.2-.5-.2-.3-.5-.2-.8-.4z" fill="#8c4422"/><path d="m9 5.8c-.3.5-.6.6-1.1.5-.4-.1-.7-.2-1.1-.3-.3 0-.3-.1-.1-.3.3-.2.4-.5.5-.7.3-.5.6-.6 1.2-.4.3.1.6.1.9.1-.1.1-.3.2-.4.4-.2.2-.3.4-.5.6.2 0 .4.1.6.1z" fill="#d87526"/><path d="m10.7 15.1c-.1 0-.3.1-.4-.1-.1-1.1-.1-1.1 1-.9.5.1 1 .3 1.5.3s.7.3.6.8c0 .1 0 .2-.1.3-.5 0-2.3-.4-2.6-.4z" fill="#d87526"/><path d="m11.8 11.4c.1 0 1.5.4 2 .7-.1.2-.2.4-.2.6 0 .5-.4.6-.7.4-.4-.2-.9-.2-1.4-.3 0-.5-.1-1 .3-1.4z" fill="#efd23b"/><path d="m10.4 9.7c-.2.4-.3.7-.5 1.1-.1-.1-1-.7-1.4-.4-.4-.2-.7-.4-1.1-.1.3-.5.4-1.1.9-1.5.1.1.2.1.3.2.5.3 1.1.7 1.8.7z" fill="#8c4422"/><path d="m18.1 12.1c-.7-.3-2.4-.7-2.4-.7s.3-.7.5-1c.7.3 1.4.5 2 .8.2.3.1.7-.1.9z" fill="#de912a"/><path d="m15.6 12.5c.8 0 1.5.3 2.2.5-.3.8-.3.8-1.1.7-.4-.1-.8-.1-1.3-.2 0-.2 0-.5 0-.7 0-.1 0-.3.2-.3z" fill="#e8ad2e"/><path d="m8.5 10.4c.4-.2 1.2.4 1.4.4 0 .5-.3.8-.4 1.3 0 .2-.2.2-.4.1s-.5-.2-.7-.3c.2-.5-.2-1 .1-1.5z" fill="#efd23b"/><path d="m10.4 9.7c-.7 0-1.3-.4-1.8-.7-.1-.1-.2-.1-.3-.2.1-.2.3-1 .3-1s.3.6.3.6c.5.2 1.6.5 1.8.6 0 .1-.3.6-.3.7z" fill="#de912a"/><path d="m8.5 10.4c-.3.5.1 1.1-.1 1.6-.5 0-.8-.4-1.3-.4-.1-.1-.1-.2-.1-.3 0-.4.2-.7.4-1 .4-.4.7-.2 1.1.1z" fill="#de912a"/><path d="m2.3 8.4c.1-.5.2-1 .6-1.4 0 .1-.1.2 0 .3.2.3 1.2.5 1.6.3-.2.5-.3 1-.6 1.5 0-.2-.1-.3-.3-.3-.4 0-.9-.2-1.3-.4z" fill="#8c4422"/><path d="m7.1 7.4c.6 0 .6 0 .4.6-.1.2-.4.7-.4.7s-1.3-.1-1.9-.4c.2-.3.4-.7.6-1 .1-.2.3-.2.4 0 0 .1-.4.5-.3.7s1 .4 1 .3c-.1-.3.1-.8.2-.9z" fill="#d87526"/><path d="m19.7 9.2s0 .1.1.1c-.1.3-.3.5-.6.7.1-.2 0-.3-.1-.4-.5-.4-.8-.3-1.3-.8-.1-.1-.4.4-.6.6 0 0-.1.1 0 .2-.1 0-.8-.2-.8-.5.1-.3.3-.5.6-.7.6-.2.9-.2 1.2-.1.4.2 1.2.6 1.5.9z" fill="#934a2b"/><path d="m5.2 8.3c.6.2 1.9.4 1.9.4s-.4.9-.6 1.3c0 0 0 0-.1-.1-.1-.4-.9-.4-1.1-.4-.3-.1-.2-.1-.5-.2.1-.3.2-.6.4-1z" fill="#8c4422"/><path d="m18.7 16.3c0-.1-.1-.1-.1-.2-.3-.7-.1-.9.6-.8.3 0 .5.1.8.1.7.1.7.1.7.9-.7.2-1.3 0-2 0z" fill="#d87526"/><path d="m8 14.4c-.1-.1-.2-.1-.2-.2-.2-.4-.3-.7-.5-1.1.3.1.7.2 1 .2.1 0 .2.1.3.1.7.2.8.4.6 1 0 .1 0 .2-.1.3-.3 0-.7-.1-1.1-.3z" fill="#d87526"/><path d="m21.3 13c0 .3-.2.6-.3.9-.2-.1-.7-.2-1-.3-.5-.1-.7-.2-1.2-.3 0-.3.2-.6.3-.9.1 0 1.5.5 2.2.6z" fill="#8c4422"/><path d="m10.7 15.1c.4 0 2.1.4 2.6.4.1.3.4.5.4.8-.9-.2-1.8-.4-2.7-.6-.3-.1-.4-.3-.3-.6z" fill="#8c4422"/><path d="m17.2 9.6c-.1-.1 0-.2 0-.2.2-.1.5-.6.6-.6.5.5.8.4 1.3.8.2.1.3.2.1.4-.2.3-.4.2-.6.1-.4-.1-1.3-.5-1.4-.5z" fill="#e8ad2e"/><path d="m12.3 10.5c-.3-.2-.7-.3-1-.5.1-.2.2-.4.4-.6.4-.6.8-.7 1.4-.1-.2.4-.3 1-.8 1.2z" fill="#d87526"/><path d="m6.5 9.9c0 .1 0 .1 0 0-.1.3-.3.6-.3.9 0 .2-.2.3-.4.2-.4-.2-.8-.4-1.1-.5-.2-.1-.2-.3-.1-.5s.1-.5.2-.7c.3.1.2.1.5.2-.2.3-.3.5-.3.7 0 .1.7.5.9.5.2.1.5-.5.6-.8z" fill="#d87526"/><path d="m13.1 7.3c0-.1.3-.7.5-.8.3.2 1.3.7 1.3.7l-.6.6c-.1.1-1.2-.1-1.2-.5z" fill="#efd23b"/><path d="m4.8 13.3c-.1-.3-.1-.6-.2-.9 0-.1-.1-.2-.1-.3.1-.1.6.2.8.2.6.2.9.6.8 1.2-.4.1-1-.1-1.3-.2z" fill="#d87526"/><path d="m24.1 14.8c-.5.3-2-.3-2.3-.4-.2-.1.2-.6.3-.8.1-.3.3-.3.5-.1.5.4 1 .7 1.5 1.1.1 0 .1.1 0 .2z" fill="#8c4422"/><path d="m14.8 15.8c.8.2 1.6.3 2.3.5h.4c.2.1.1.4.2.5-.1 0-.2.1-.3.1-.6-.1-1.2-.2-1.9-.2-.1-.4-.6-.5-.7-.9z" fill="#8c4422"/><path d="m10.7 5.8s1.1-.3 1.7.2c.1.1.1.2.1.3-.1.2-.4.6-.4.6-.1-.1-1.1-.4-1.1-.4z" fill="#efd23b"/><path d="m11.8 11.4c-.3.4-.3.9-.3 1.4-.1 0-.1 0-.2 0-1-.2-1.1-.4-.7-1.4 0-.1.1-.2.2-.4.3.2.6.3 1 .4z" fill="#e8ad2e"/><path d="m4.5 7.7c-.4.2-1.4 0-1.6-.3-.1-.1 0-.2 0-.3.4-.3.8-.1 1.2-.2h.1c.7.1.7.1.3.8z" fill="#de912a"/><path d="m13.6 6.6c.2-.2.4-.2.7 0 .6.3 1.1.5 1.7.7.5.2.4.3.1.6-.1 0-.2.1-.2.1l-1-.8c0 .1-1-.4-1.3-.6z" fill="#8c4422"/><path d="m21.8 16.5c-.1-.1-.1-.3-.1-.5s.1-.4.3-.3l1.5.3c.2.1.5 0 .5.1 0 .3-2.2.5-2.2.4z" fill="#d87526"/><path d="m12.3 10.5c.5-.2.6-.8.8-1.2.4 0 .7.2 1 .3.4.1.5.4.3.7-.1 0-1.3.3-1.8.3-.1 0-.2-.1-.3-.1z" fill="#e8ad2e"/><path d="m2.3 8.4c.4.2.9.3 1.3.4.2 0 .3.1.3.3 0 .1-.3.6-.3.7-.1.4-1.2-.5-1.5-.7-.1-.1.1-.5.2-.7z" fill="#de912a"/><path d="m13.1 7.3c.1.3 1.1.6 1.1.6l1.2.4s-.5.4-.9.2-.9-.4-1.4-.6c-.4-.2-.4-.3 0-.6z" fill="#de912a"/><path d="m22.2 11.7s-.2.2-.3.1c-.5-.2-1-.4-1.5-.7-.4-.2-.4-.4.1-.7.5.3 1.7 1.3 1.7 1.3z" fill="#d87526"/><path d="m22.2 11.7s-1.1-.9-1.7-1.3c.1-.1.3-.4.3-.4.4 0 1.5.8 1.7 1.1.1.1.1.3.1.3 0 .1-.4.3-.4.3z" fill="#8c4422"/><path d="m4.8 13.3c.4.2.9.3 1.3.2.2.3.5.6.5 1.1-.4-.3-.8-.3-1.3-.5-.4-.1-.7-.4-.5-.8z" fill="#8c4422"/><path d="m15.6 12.5c-.2 0-.2.1-.2.3v.7c-.3.1-.6-.2-.9-.1-.2 0-.1-.2-.1-.3 0-.3.2-.6.3-.9.3.2.6.1.9.3z" fill="#d87526"/><path d="m10.7 9c-.2-.1-1.3-.4-1.8-.6 0 0-.3-.6-.3-.6.8 0 1.7.3 2.3.6.3.2-.1.4-.2.6z" fill="#e8ad2e"/><path d="m3.4 13.1c-.5-.5-1-1-1.2-1.7-.2-.2-.2-.4-.3-.7.3-.1.3 0 .5.1 0 .7 1.1 1.6 1.1 1.6s0 .3.1.5c0 .3-.1.3-.2.2z" fill="#934a2b"/><path d="m12.6 10.6c.4 0 1.6-.3 1.8-.3 0 0-.1.4-.1.4-.2.2-.3.3-.6.2-.4-.1-.8-.2-1.1-.3z" fill="#e8ad2e"/><path d="m21.3 13c-.6-.1-2.1-.5-2.1-.6 0-.5.1-.6.6-.4.4.2.9.4 1.3.6 0 .1.2.1.2.4z" fill="#d87526"/><path d="m18.8 13.3c.5.1.7.2 1.2.3-.1.2-.2.3-.2.5-.2 0-.4 0-.5 0-.9-.1-.9-.2-.5-.8z" fill="#d87526"/><path d="m18.7 16.3c.7 0 1.3.2 2 0 0 0 0 .4-.1.5-.2.1-.4 0-.7 0-.2 0-.5 0-.7 0-.2-.2-.7.2-.6-.4.1 0 .1 0 .1-.1z" fill="#8c4422"/><path d="m16.2 10.5c-.2.3-.5 1-.5 1s-.7-.2-.5-.7c0-.1.1-.1.1-.2.1-.1.2-.3.3-.4.1 0 .4.1.6.3z" fill="#d87526"/><path d="m9 5.8c-.2 0-.4-.1-.6-.1.2-.2.3-.4.5-.6.1-.2.3-.3.5-.4.5.4-.4 1.1-.4 1.1z" fill="#efd23b"/><path d="m3.5 12.4s-1.1-.9-1.1-1.6c.4 0 .5.5.8.7.2.1.3.9.3.9z" fill="#e8ad2e"/><path d="m11 6.5s1 .3 1.1.4c-.2.5-.4.6-.9.3 0-.1-.2-.1-.3-.2s.1-.5.1-.5z" fill="#de912a"/><path d="m11 6.5s-.2.4-.1.5c-.3.1-.6-.2-.9-.2-.3-.1-.3-.3 0-.4.2-.1.8-.6.8-.6z" fill="#d87526"/><path d="m7.1 7.4c-.1.1-.3.6-.2.9 0 .1-.9-.1-1-.3s.3-.6.3-.7c.3 0 .6-.1.9.1z" fill="#e8ad2e"/><path d="m8 14.4c.4.2.8.3 1.2.4 0 .1.2.3 0 .5-.2.1-.9-.1-1-.4-.1-.2-.1-.4-.2-.5z" fill="#8c4422"/><path d="m19.7 14.1c.1-.2.2-.3.2-.5.3.1.7.1 1 .3-.1.4-.3.5-.7.4-.1-.1-.3-.1-.5-.2z" fill="#de912a"/><path d="m15.4 8.3-1.2-.4.7-.6 1 .7z" fill="#e8ad2e"/><path d="m6.5 9.9c-.1.2-.4.9-.5.8-.2 0-.9-.4-.9-.5-.1-.2 0-.4.2-.7.2 0 1 0 1.2.4z" fill="#e8ad2e"/><path d="m2.9 4.1c-1 .7-2.1 3.7-2.3 4.8-.2 1.6.8 3.9 1.6 5 .7 1 9.3 3.3 9.4 3.3.3 0 .5.2.8.2 1.5.2 2.9.5 4.4.5.9 0 4-.1 4.2-.1 1-.2 2-.3 3-.5.5-.1.8-.5 1.3-.6.1 0 .2-.1.4 0 .4.5 1 .9 1.3 1.5.2.4.5.4.8.2s.3-.7 0-1c-.1-.2-.3-.3-.4-.5-.3-.4-.2-.5.2-.6s.7-.1 1.1-.1c.3 0 .4-.2.5-.4.1-.3-.1-.4-.3-.5-.3-.2-.6-.1-.9-.1-.1 0-.3.1-.3 0-.1-.1.1-.2.2-.3.3-.3.7-.4.8-.8.1-.3.3-.6 0-.9-.3-.2-.5.2-.7.4-.4.5-.9.7-1.4 1.1-.1.1-.4.2-.5 0-.3-1-1.1-1.8-1.6-2.7-.6-.9-1.3-1.8-2.1-2.4-1-.8-2-1.4-3.1-2-.9-.5-1.8-.9-2.6-1.4-.5-.3-1.1-.4-1.7-.7-.2-.1-3.3-1.4-3.5-1.4-1.7-.6-6.7-1.1-8.6 0zm16.8 5.1s0 .1.1.1c-.1.3-.3.5-.6.7-.2.3-.4.2-.6.1-.4-.2-1.4-.5-1.4-.6-.1 0-.8-.2-.8-.5.1-.3.3-.5.6-.7.6-.2.9-.2 1.2-.1.4.3 1.2.7 1.5 1zm4.3 6.9c0 .2-2.2.4-2.2.4-.1-.1-.1-.3-.1-.5s.1-.4.3-.3l1.5.3c.1.1.4 0 .5.1zm-2.7-3.1c0 .3-.2.6-.3.9-.1.4-.3.5-.7.4-.2-.1-.4-.1-.5-.1-.2 0-.4 0-.5 0-.8-.1-.8-.2-.4-.8 0-.3.2-.6.3-.9 0-.5.1-.6.6-.4.4.2.9.4 1.3.6 0 0 .2 0 .2.3zm2.8 1.8c-.5.3-2-.3-2.3-.4-.2-.1.2-.6.3-.8.1-.3.3-.3.5-.1.5.4 1 .7 1.5 1.1.1 0 .1.1 0 .2zm.3-1.1c-.5-.1-1.2-.9-1.4-1-.1 0 .1-.1.2-.3.1-.3.2-.2.4 0 .3.3.9 1.3.8 1.3zm-6.3-1.6c-.1.3-.2.6-.3.9-.3.8-.3.8-1.1.7-.4-.1-.8-.1-1.3-.2-.3.1-.6-.2-.9-.1-.2 0-.1-.2-.1-.3 0-.3.2-.6.3-.9.1-.5.2-1 .4-1.4 0-.1.1-.1.1-.2.1-.1.2-.3.3-.4.2-.1.5.1.6.2.7.3 1.4.5 2 .8.3.3.2.7 0 .9zm-11-.6c-.1 0-.1-.1-.1-.2 0-.4.2-.7.4-1 .3-.5.4-1.1.9-1.5.1-.2.3-1 .3-1 .8 0 1.7.3 2.3.6.3.1-.2.4-.2.6 0 .1-.3.6-.3.7-.2.4-.3.7-.5 1.1 0 .5-.3.8-.4 1.3 0 .2-.2.2-.4.1s-.5-.2-.7-.3c-.5.1-.9-.3-1.3-.4zm-4.9-2.3c-.2-.2 0-.6.1-.8.1-.5.2-1 .6-1.4.4-.3.8-.1 1.2-.2h.1c.7.2.7.2.3.9-.2.5-.3 1-.6 1.5 0 .1-.3.6-.3.7-.1.4-1.2-.5-1.4-.7zm2.3.9c.1-.2.1-.5.2-.7.2-.4.3-.7.5-1.1.2-.3.4-.7.6-1 .1-.2.3-.2.4 0 .3 0 .6-.1.9.1.6 0 .6 0 .4.6-.1.2-.4.7-.4.7s-.4.9-.6 1.3c-.1.3-.3.6-.3.9 0 .2-.2.3-.4.2-.4-.2-.8-.4-1.1-.5-.3-.2-.2-.4-.2-.5zm1.6-5.8c.3 0 .3.1.2.3-.2.3-.4.7-.7 1 0 .1-.1.2-.3.2-.4 0-.9 0-1.3 0-.3 0-.6-.1-.3-.5.2-.3.5-.7 1-.8.4-.1.9-.2 1.4-.2zm4.5 7.1c0-.1.1-.2.2-.4.2-.3.2-.7.5-1 .1-.2.2-.4.4-.6.4-.6.8-.7 1.4-.1.4 0 .7.2 1 .3.4.1.5.4.3.7 0 0-.1.4-.1.4-.2.5-.3.9-.5 1.4-.1.2-.2.4-.2.6 0 .5-.4.6-.7.4-.4-.2-.9-.2-1.4-.3-.1 0-.1 0-.2 0-1-.3-1.1-.4-.7-1.4zm-3.9-5.7c.3-.2.4-.5.5-.7.3-.5.6-.6 1.2-.4.3.1.6.1.9.1.6.4-.3 1.1-.3 1.1-.3.5-.6.6-1.1.5-.4-.1-.7-.2-1.1-.3-.3 0-.3-.1-.1-.3zm3.2.7c.2-.1.8-.6.8-.6s1.1-.3 1.7.2c.1.1.1.2.1.3-.1.2-.4.6-.4.6-.2.5-.4.6-.9.3 0-.1-.2-.1-.3-.2-.3.1-.6-.2-.9-.2-.3-.1-.3-.3-.1-.4zm3.2 1.5c-.4-.2-.5-.3 0-.5 0-.1.3-.7.5-.8.2-.2.4-.2.7 0 .6.3 1.1.5 1.7.7.5.2.4.3.1.6-.1 0-.2.1-.2.1l-.5.3s-.5.4-.9.2c-.4-.3-.9-.4-1.4-.6zm-3.9 7.3c-.2.1-.9-.1-1-.4-.1-.1-.1-.3-.2-.5-.1-.1-.2-.1-.2-.2-.2-.4-.3-.7-.5-1.1.3.1.7.2 1 .2.1 0 .2.1.3.1.7.2.8.4.6 1 0 .1 0 .2-.1.3 0 .3.3.5.1.6zm-7.3-4.5c.3-.1.3 0 .5.1.4 0 .5.5.8.7.2.1.3.9.3.9s0 .3.1.5c0 .2-.1.2-.2.2-.5-.5-1-1-1.2-1.7-.2-.2-.2-.4-.3-.7zm4.7 3.9c-.4-.3-.8-.3-1.3-.4-.4-.2-.7-.5-.5-.9-.1-.3-.1-.6-.2-.9 0-.1-.1-.2-.1-.3.1-.1.6.2.8.2.6.2.9.6.8 1.2.2.3.5.6.5 1.1zm4.1.5c-.1 0-.1 0-.2 0s-.1 0-.1-.1c-.1-1.1-.1-1.1.9-.9.5.1 1 .3 1.5.3s.7.3.6.8c0 .1 0 .2-.1.3.1.3.4.5.4.8.1 0 .2.1.2.1-.1 0-.2-.1-.2-.1-.9-.2-1.8-.4-2.7-.6-.3-.1-.4-.3-.3-.6zm4.1.7c-.1-.3-.3-.5-.4-.7s-.1-.3.2-.3c.9.1 1.7.2 2.6.3.2 0 .2.1.3.3.1.3.1.6.1.9.2.1.1.4.2.5-.1 0-.2.1-.3.1-.6-.1-1.2-.2-1.9-.2-.2-.4-.7-.5-.8-.9zm5.1 1c-.2 0-.5 0-.7 0-.2-.2-.7.2-.6-.4 0-.1.1-.1.1-.2s-.1-.1-.1-.2c-.3-.7-.1-.9.6-.8.3 0 .5.1.8.1.7.1.7.1.7.9 0 0 0 .4-.1.5-.2.2-.4.1-.7.1zm2.6-5.8c.1.1.1.3.1.3 0 .1-.5.3-.5.3s-.2.2-.3.1c-.5-.2-1-.4-1.5-.7-.4-.2-.4-.4.1-.7.1-.1.3-.4.3-.4.5 0 1.6.9 1.8 1.1z" fill="#381c1b"/><path d="m24.4 13.7c-.5-.1-1.2-.9-1.4-1-.1 0 .1-.1.2-.3.1-.3.2-.2.4 0 .3.3.9 1.3.8 1.3z" fill="#8c4422"/></svg>