<svg viewBox="0 0 30 27.8" xmlns="http://www.w3.org/2000/svg"><path d="m15.5 4.7c.3-.8.9-1.4 1.7-1.9.1 0 .2-.1.3-.1-.6.2-.8.6-1.1 1 0 .1-.1.2-.1.2-.1.2-.3.3-.4.5-.2.1-.3.2-.4.3z" fill="#381c1b"/><path d="m26.4 11.6c-.1-.1-.3-.3-.4-.5-.4-.4-.7-.8-1-1.2-.3-.5-.8-.8-1.2-1-.3-.2-1.6-1-1.8-1.2-.8-.9-1.8-1.4-2.7-1.8l-.3-.2c-.2-.1-.5-.2-.7-.4h-.1s0 0 0-.1c.5-.5 1-1 1.5-1.4.3-.2.5-.5.7-.9.2-.5.2-.9-.2-1.3-.5-.5-1.1-.8-1.7-1.2l-.2-.1c-.7-.4-1.4-.3-2.2.1-1.2.7-2 1.6-2.6 2.7-.1.2-.1.1-.2.1-.7-.1-1.3 0-1.9.2-.3.1-.5.1-.8.1-1.9.4-3.5 1.4-4.6 2.2-.6.5-1 .9-1.4 1.4v.1c-.5.3-.9.6-1.3 1-.1.1-.3.3-.4.4s-.2.2-.4.2c-.4.3-.9.7-1.2 1.3-.1.2-.2.3-.2.5-.3.6-.6 1.3-.7 2v.3c0 .5-.1 1-.2 1.4-.1.7-.2 1.3 0 2 .1.4.2.8.4 1.2.1.2.2.5.3.8.1.5.3 1 .7 1.5l.4.4c.8 1 1.7 2 2.8 2.8.3.2.7.5 1 .7.4.3.9.7 1.4 1l.3.3 1.5.9c.7.3 1.3.6 2 .8.5.2 1 .4 1.5.6.1 0 .2.1.4.1h.4c1.4.1 2.7.3 4.2.1s3.2-.5 4.7-1.6c.7-.6 1.6-1.3 2.5-2 .6-.5 1.1-1.1 1.5-1.6.7-1.2 1.2-2.2 1.5-3.1 1-2.9.6-5.4-1.3-7.6z" fill="#381c1b"/><path d="m26.3 17.9c-.2 1.2-.7 2.3-1.4 3.3-.3.7-.9 1.1-1.4 1.5-1.2 1-2.4 2-3.9 2.5-.9.3-3.3.5-4.8.4-1.1.1-2.1-.3-3.1-.7-1.9-.7-3.3-1.9-4.9-3.1-1.1-.8-2.1-1.6-2.9-2.6-1.7-3-1.5-3.3-1.5-4.9 0-1.3.2-2.6 1.2-3.5 0-.1.6-.5.8-.7.6-.8.7-.9 1.6-.4.6.3 1.2.3 1.9.1.3-.1.6-.2 1-.3.3-.1.5-.5.8-.2.3.2 0 .5-.1.8-.1.2-.1.5-.2.8 0 .1 0 .1.1.1-.2.6-.2 1.4.8 2.1.2.1.9.6 1.8.6.8-.2 1.4-.6 2-1.2.7-.8.8-.7 1.4.1.7 1.1 1.8 1.7 2.9 2.3.5.3 1.1.1 1.4-.4s.5-1 .4-1.6c0-.4.1-.5.4-.5.4 0 .7-.1 1.1-.2.5-.1.8-.3 1.1-.7.2-.4.3-.4.7-.1 1.6 1.1 2.4 2.7 2.9 4.5.2.7 0 1.4-.1 2z" fill="#e52344"/><path d="m7.9 7.7c-.2.1-.4.1-.6.1.2-.1.6-.2.8-.6.3-.4.7-.7 1.3-.8l.4-.1c.8-.2 1.7-.4 2.5-.5 0 .7.1 1.2.3 1.8 0 0 0 .1-.1.2l-.3.3.6.4v.1l.7.4c.2.1.4.2.6.2.1 0 .2.1.3.1-.2.1-.5.2-.7.5-.1.2-.3.3-.5.4-.4.4-.8.8-1.4 1.1-.2.1-.4.1-.6 0 0 0 0-.2 0-.3 0-.2.1-.3.2-.5l.1-.1c.1-.3.3-.6.2-1.1 0-.1.1-.2.2-.3s.1-.3.2-.4l.1-.2-.2-.3-.2-.2c-.3-.4-.7-.9-1.5-.9h-.1c-.8.1-1.6.2-2.3.7z" fill="#381c1b"/><path d="m20 9.8c-.3-.2-.6-.3-.9-.4l-.2-.1c-.6-.3-1.1-.2-1.4 0-.7.4-.6.9-.5 1.2 0 .1.1.2.1.3.2.5.3 1 .9 1.4 0 .1.1.3 0 .4-.3-.1-.5-.3-.5-.5-.1-.2-.2-.3-.3-.5-.2-.3-.3-.5-.3-.8s-.2-.6-.5-.7c0 0-.1 0-.2-.2 0-.1-.1-.1-.2-.2-.2-.2-.5-.4-.8-.5.3-.1.6-.4.8-.8.1-.1.1-.3.2-.4.1-.2.2-.3.2-.5.1-.2.3-.3.4-.4.1 0 .2 0 .3.1.3.2.7.4 1.1.5.5.2 1 .4 1.4.8.4.3.6.8.9 1.2l.1.1c-.1.2-.3.1-.6 0z" fill="#381c1b"/><path d="m9.5 12.7c-.1 0-.3-.1-.4.1s-.2.4-.5.3-.7-.3-1-.5c-.1-.1-.1-.2 0-.3.3-.8-.1-1.3-.8-1.5 0 0-.1 0-.1-.1s0-.1 0-.1 0 0 0 .1c-.1.1-.1.2-.2.4-.4.7-.4.7.3 1.1.3.2.4.4.2.7-.3.4-.4.9-.8 1.3-.1.1-.3.4-.1.5.6.3.3.9.5 1.3s.6.9 1 .8c.3 0 .7-.7.5-1-.3-.5 0-.5.4-.7s.7-.3 1.1 0c.3.2.5.1.6-.2.3-.7.3-.7 1-.4.2.1.5.3.7-.1.1-.1.2-.1.3-.1.5-.1 1.1.1 1.6-.2.2-.1.4 0 .4.4-.1.3.1.6-.2.9-.2.1-.1.3-.1.5.1.7 0 .8-.7 1-.3.1-.4.3-.5.5-.2.4-.5.8-.8 1.2-.2.3-.4.4-.7.2-.1-.1-.1 0-.2.1-.2.5-.3.6-.7.3-.1-.2-.3-.2-.6-.2-.4.1-.8 0-1.2-.2-.3-.2-.7-.3-.7-.7-.1-.4-.4-.2-.5-.1-.3.3-.4.7-.7 1-.2.3-.4.3-.6 0s-.5-.4-.8-.5c-.7-.1-.6-.8-.8-1.2-.1-.2.1-.2.2-.2.2-.2.2-.4-.1-.4-.4-.1-.7-.3-1 .2-.2.3-.6.1-.9 0v-.1c0-.1 0-.1 0-.2.1-.3.6-.6 0-.9 0 0 0-.2 0-.3.1-.3-.1-.4-.3-.5 0-.2.1-.4.1-.6.1.1.3.1.4.2.2.1.3.1.5-.1.5.2.9.3 1.3-.2.1-.1.3-.1.4 0 .2.1.3.2.5.1.1-.4.1-1 .6-1.2.2-.1.3-.4.2-.6s-.4-.2-.6 0c-.4.3-.7.1-1.1-.1-.1-.1-.1-.2 0-.4.2-.6.2-.8-.4-1.1-.1-.1-.3-.1-.4-.2.1-.2.3-.4.5-.6.6-.8.7-.9 1.6-.4.6.3 1.2.3 1.9.1.3-.1.7-.2 1.1-.3.2.3-.5.9.4.9v.2c0 .1 0 .3.1.4-.2.6 0 1.2.1 1.7z" fill="#ec3459"/><path d="m8.2 12.7c0-.1-.1-.1 0 0-.1-.1-.1 0 0 0z" fill="#ec3459"/><path d="m14.9 25.6c-.3-.2-.7-.2-.5-.7 0-.1-.2-.3-.3-.5-.2-.1-.2.2-.3.2-.3.2-.8-.1-.8-.5s-.3-.6-.6-.7c-.4-.2-.9-.4-1.4-.7.2.4.7.4.9.8-1.1-.5-2.1.2-3-.5-.1-.1-.2-.1-.2-.2s.1-.1.2-.1c.8.1 1.1-.2 1-1 0-.1-.1-.3 0-.4.1-.2.3-.4.5-.2.5.5.9.3 1.3 0 .2-.1.4-.3.7-.3.6-.2.6-.2.9.3.1.3.9.4 1.1.1 0-.1.1-.1.1-.2.1-.2.2-.5.5-.6s.4.2.6.3c.3.2.5.1.6-.2s.4-.6.1-.9c-.2-.2-.4-.2-.7-.2s-.5 0-.5-.3.1-.4.4-.5c.4-.1.7-.6.8-1 .2-.6.2-.5.8-.3.7.2 1.3.7 2 1 .2.1.5.3.5-.2 0-.1.1-.2.1-.1.1 0 .2.1.2.1 0 .3.2.6 0 .9-.1.2-.2.4-.1.6.1.3 0 .3-.3.3-.2 0-.3.2-.4.4-.2 1-.8 1.6-1.8 1.8-.4.1-.5.4-.5 1.1-.3.5-.5.9-.9 1.3-.3.3-.2.4.1.6.1.1.3.1.4.1.3.1.2.3.1.4-.5 0-1.1.1-1.6 0z" fill="#ec3459"/><path d="m13.4 8.5c.3.1.5.2.8.4.7.3 1.1.1 1.5-.5.2-.4.3-.7.5-1 .3-.5.9-.7 1.4-.4.8.5 1.8.7 2.6 1.4.4.4.8.9 1.1 1.4.2.3 0 .6-.4.6-.3 0-.6-.1-.9-.2-.3-.2-.7-.4-1.1-.5-.3-.2-.7-.2-1 0-.2.1-.4.3-.3.6.2.5.3 1.2.9 1.5.3.2.3.8.1 1.1-.1.2-.3.2-.5.1-.3-.2-.6-.4-.8-.7-.2-.5-.7-.8-.7-1.5 0-.1-.1-.2-.2-.2-.3-.1-.4-.3-.6-.5-.6-.6-1.1-.6-1.7 0s-1.1 1.2-1.9 1.6c-.4.2-.6.2-1 0-.3-.2-.3-.5-.2-.8 0-.2.1-.4.2-.6.1-.3.3-.6.2-1-.1-.3.2-.6.4-.9.2 0 .3-.4.6-.1.3.6.4.6 1 .2z" fill="#25592f"/><path d="m11.6 8.3c-.3-.4-.6-.9-1.2-.8-.8 0-1.7.1-2.3.5-.4.3-.8.3-1.2.3-.2 0-.3-.1-.2-.4s.3-.4.6-.5c.1 0 .3-.1.5-.4.3-.6.9-.9 1.5-1 1-.2 2-.5 3-.6.3 0 .5 0 .5.4 0 .6 0 1.1.2 1.6.1.2 0 .4-.1.6-.8-.3-.9-.3-1.3.3z" fill="#25592f"/><path d="m16.5 25.6c.1-.2.2-.3-.1-.4-.1 0-.2-.1-.4-.1-.3-.1-.4-.3-.1-.6.4-.4.7-.8.9-1.3.3.2.6.3 1 .1 0 .1.1.2.2.2.3.2.7-.1 1 0-.5.4-1 .8-1.7 1.4.9-.1 1.6-.4 2.2-.7 1.3-.6 2.3-1.5 3.3-2.5.1.1.3.2.4.1.3-.4 1-.3 1.3-.8 0 0 .1 0 .2.1-.3.7-.9 1.1-1.4 1.6-1.2 1-2.4 2-3.9 2.5-.9.3-1.9.4-2.9.4z" fill="#ea486f"/><path d="m14.8 5.8c.1-1.6.9-2.6 2.1-3.4.2-.1.4-.2.7-.3.2 0 .3-.1.4.1s0 .3-.1.4-.2.3-.4.4c-.5.2-.7.7-1 1.1-.4.5-.9.8-1.1 1.4 0 .3-.3.3-.6.3z" fill="#25592f"/><path d="m11.6 8.3c.4-.6.5-.6 1.4-.3.1.1.2.1.3.2 0 .1.1.1.1.2l.1.1c-.7.4-.7.4-1.1-.1-.3-.3-.4.1-.6.1-.1-.1-.1-.2-.2-.2z" fill="#37803f"/><path d="m9.3 11c0-.1-.1-.3-.1-.4s0-.2 0-.2c-.8 0-.2-.6-.4-.9.3-.1.5-.5.8-.2.3.2 0 .5-.1.8-.1.2-.1.6-.2.9z" fill="#e52344"/><path d="m11.9 13.7c-.4.5-.6.6-1.1.2-.1-.1-.3-.2-.4-.4.2-.1.3.1.5 0 .3.1.7.2 1 .2z" fill="#ec3459"/><path d="m10.1 13.1c-.1.2-.2.4-.5.2s-.2-.4-.1-.6c.2.1.4.2.6.4z" fill="#ec3459"/><path d="m13.3 8.4c0-.1-.1-.1-.1-.2.1 0 .1.1.1.2z" fill="#25592f"/><path d="m22.7 21.7c-1 1-2.1 1.9-3.3 2.5-.6.3-1.3.6-2.2.7.7-.5 1.2-1 1.7-1.4.9-.8 1.9-1.6 2.7-2.5.6-.7 1-1.5 1.4-2.4.1 0 .1-.1.1-.1 0-.1.1-.2.1-.3.3-.6.5-1.2.4-1.8v-.1c.2-.6.3-1.2.3-1.9.1-.2-.2-.6.1-.7s.4.4.4.6c.3 1.2.6 2.5.3 3.8-.3 1.5-1 2.6-2 3.6z" fill="#f0f4d5"/><g fill="#ec3459"><path d="m23.6 16.4c0 .6-.1 1.3-.4 1.8-.5-.2-.8-.8-1.6-.8.4-.3.7-.1.9 0 .3.1.5 0 .4-.3-.1-.4.1-.5.4-.5.1 0 .2-.1.3-.2z"/><path d="m23.9 14.4c0 .6 0 1.3-.3 1.9-.5-.2-.6-.6-.4-1.1.1-.3.2-.7.7-.8z"/><path d="m17.8 23.6c-.1 0-.2-.1-.2-.2.1-.2.1-.4.4-.5.2.2-.1.4-.2.7z"/><path d="m23 18.5c0 .1 0 .1-.1.1.1 0 .1 0 .1-.1z"/></g><path d="m3.2 14.4c-.3-.3.1-.4.1-.6.1 0 .2-.1.3-.2.1 0 .2-.1.2-.2 0-.5.4-.8.8-1.1.4.2.7.4 1.1.1.2-.1.4-.2.6 0s0 .5-.2.6c-.5.3-.5.8-.6 1.2-.2.2-.4 0-.5-.1-.2-.1-.3-.1-.4 0-.5.6-.9.5-1.4.3z" fill="#ea486f"/><path d="m8.2 12.7c-.1 0-.1-.1 0 0-.1-.1 0-.1 0 0 0-.1 0 0 0 0z" fill="#e52344"/><path d="m6.6 10.8c0-.1 0-.1 0 0 0-.2 0-.1 0 0z" fill="#e52344"/><path d="m3.6 13.5c-.1.1-.1.2-.3.2-.1-.1-.2-.2-.1-.3.2-.1.3.1.4.1z" fill="#ec3459"/></svg>