<svg viewBox="0 0 30 38.9" xmlns="http://www.w3.org/2000/svg"><path d="m5.1 7.9c-1 2.8-1.6 4.5.4 7.2 0 .2.3 2.3.2 3.2 0 .3.2.4.4.4.4 0 .7.2.9.6.2.3.4.6.1 1-.2.4-.6.4-.8.3-.8-.3-1 .3-1 .9.1 1.2-.6 2.4-.3 3.6.8-.3 1.7-.2 2.1-1.4h.1c.6-.2 1-.7 1.3-1.2.4-.8.4-1.5-.5-1.7-.1 0-.3-.1-.2-.3 0-.1 2.3-1.3 2.5-1.7.3-.4 1.1-.6.7-1.4-.2-.5.1-.9.2-1.2 1.3-1.1.7-3 .3-4.4-.2 0-.3-.1-.4-.3-.1-.4-.2-.9-.3-1.3-.4-.1-.8-.3-1-.7-.2-.3-.3-.6 0-.9s.6-.4 1-.2c.1.1.3.1.4.1.4-.4 1.1-1.4 1.2-1.7.9-2.6-1.6-3.4-2-2.7 0 0-1.7-.2-2.3.1-.1.1-.8.6-1.1.9-.6.5-1.5 2.2-1.9 2.8zm1.4.3c.8-.1.9.1 1.1.3.1.1.3.3.3.4 0 .5-1.1 1.5-1.6 1.2-.2-.2-.5-.4-.6-.6-.4-.7 0-1.2.8-1.3z" fill="#d8b783"/><path d="m13 17.3c.1.7.5 1.2 1.1 1.5-.2.7-.9 0-1.2.4-.1-.1-.1-.1-.2-.2.1-.3.1-.6-.2-.9-.5-.5-.2-.8.5-.8z" fill="#d8b783"/><path d="m15.9 13.1c-.6-.3-1.1-.1-1.6.3.2-.3-.2-.5-.2-.8 0-.2-.1-.4.2-.4.7.1 1.4.1 1.6.9z" fill="#bd8d5a"/><path d="m5.8 27.7c.6-1.6 3.3-4.6 3.1-5.1.5-.9 1.6-.2 2.2-.9 0 0 .5.2.2.4-.7.5-.2 1.5-.8 2.1-.2.2 0 .6.2.7.2.2.9 1.5 1.1 1.5.5-.4 3.2.9 3.4.2.2-.8-.9-3-1.6-3.8-.6-.7-2.5-2-3.1-2-.3 0-.4-.1-.4-.4s.3-.3.5-.3c.4-.1.7.4 1.1.1.3.1.6-.1.9-.1.7-.2.7-.5.4-1 .3-.4 1 .3 1.2-.4.1 0 .3.1.4.1.4-.2.7-.5.8-1 .3.2 1.8.2 2.2 0 .9-.4 2.4.2 2.6 1.2.1.4-.1.8.4 1.2.2.2 1.2.8 1.3.4.4-1.2-.5-4.6-1.6-5.9-.2-.3-.4-.5-.7-.3-.6.3-1.1.1-1.3-.5-.1-.4-.3-.6-.8-.6-.2 0-.4.2-.5-.1.3-.1-.2-.8 0-1s.9 0 1.3-.2c.3-.2.5 0 .7.1-.5.3-.6.8-.3 1.3.4.6 1 .5 1.6.5.6-.1.7-.7.6-1-.2-.3-.8-.6-1.3-.8 0-.1 0-.1.1-.2-.3-.1-2-.8-2.2-1.3-.2-.4.7-.7 1-.7-.2-.3-.1-.7-.5-1 .5-.1.6-.6.6-.8 0-.1 0-.4-.1-.5-.2-.3-1-.1-1.4-.4-.6-.5-2-.7-2-.7s-.2-.9-.6-1.2c-.1-.1-.3-.1-.4-.2.2-.1.3-.2.3-.4-.4-.3.3 0 .6.2-.2-.5-.2-.8-.1-1 .1-.4 2 .8 2.5 1.2.8.7 3.3 4 3.5 4.2-.3-.2-.5-.3-.7-.3-.4-.2-.6.2-.9.2-.4.5-.1.9.3 1.3.6.2 1.2.6 1.8.1.4-.3.6.1.8.4.9 1.6 1.7 3.3 2 5.3.1.1.8 6.5.1 8.6-.7 1.9-1.2 4-2.4 5.8-1 1.6-2.5 2.7-4.2 3.2-1.5.4-3 .9-4.6.8 0-.1.1-.3.1-.4-.5-.3-.9-.6-1.3-1-.2-.2-.7-.6-.8.1-.2.9-.6.4-.9.3-.9-.3-1.4-1.5-2.4-1.5-1.2-.9-1.7-2.3-2.1-3.8.1-.2.1-.5.1-.7z" fill="#bd8d5a"/><path d="m10 33.6c.3.1.7.6.9-.3.2-.7.6-.3.8-.1.4.4.8.7 1.3 1 0 .1-.1.3-.1.4-.9 0-1.9-.1-2.7-.6-.1-.1-.9-.5-.9-.5s-1.7-1.1-1.7-1.4c1.1.1 1.5 1.2 2.4 1.5z" fill="#c9a170"/><path d="m5.1 25.1c.1 1.1-.6 2.4.4 3.2.3-.1.2-.4.3-.6.6-1.6 3.3-4.6 3.1-5.1.5-.9 1.6-.2 2.2-.9 0 0 .5.2.2.4-.7.5-.2 1.5-.8 2.1-.2.2 0 .6.2.7.2.2.9 1.5 1.1 1.5.5-.4 3.2.9 3.4.2.2-.8-.9-3-1.6-3.8-.6-.7-2.5-2-3.1-2-.3 0-.4-.1-.4-.4s.3-.3.5-.3c.4-.1.7.4 1.1.1-.5-.2-.6-.7-.8-1.1.8-1.1 1.1-1.1 1.9-.2.1-.3.1-.6-.2-.9-.5-.6-.2-.8.5-.8.9-.7 1.8-.5 2.4.6.3.2 1.8.2 2.2 0 .9-.4 2.4.2 2.6 1.2.1.4-.1.8.4 1.2.2.2 1.2.8 1.3.4.4-1.2-.5-4.6-1.6-5.9-.2-.3-.4-.5-.7-.3-.6.3-1.1.1-1.3-.5-.1-.4-.3-.6-.8-.6-.2 0-.4.2-.5-.1.3-.1-.2-.8 0-1s.9 0 1.3-.2c.3-.2.5 0 .7.1.2 0 .4.1.6 0 0-.1 0-.1.1-.2-.3-.1-2-.8-2.2-1.3-.2-.4.7-.7 1-.7-.2-.3-.1-.7-.5-1-1.3-.2-1.3-.5-1.3-.8s.4-.8.4-.9c.1-.3-1.1-.6-1.3-.6-.3-.1-.7 0-.7 0s-1 .4-1.5.3c-.6-.1-.6-.5-.6-.9s.3-.6.8-.7c.2-.1.3-.2.3-.4-.1-.7 1 0 1 0s1.2-.4 1.3-.5-.8-.6-1.1-.7c-.4-.2-1.2-.5-1.9-.5-.6 0-2.5.7-2.5.7s1.2 1.2.4 4.6c.2.3.5.5.5.8s-.4.8-.9.9c.1.4.2.9.3 1.3 0 .2.2.3.4.3.4 1.4 1.1 3.3-.3 4.4-.1.4-.4.8-.2 1.2.4.8-.4 1-.7 1.4s-2.5 1.6-2.5 1.7c0 .2.1.2.2.3 1 .2.9.9.6 1.7-.3.5-.6 1.1-1.3 1.2h-.1c-.5 1.1-1.5 1-2.3 1.4zm9.2-12.9c.6.1 1.4 0 1.6.9.2.4.7.6.6 1.1-.2.9-1.7.6-2 .2-.2-.2-.2-.9-.2-.9.2-.3-.2-.5-.2-.8 0-.2-.1-.5.2-.5zm-.4-2.1c.2-.4.7-.6 1.2-.3s.7.8.5 1.3c-.2.6-.8.4-1.3.2-.7-.3-.6-.8-.4-1.2z" fill="#c9a170"/><g fill="#381c1b"><path d="m12.4 5.5c.2.3.1.7-.1 1-.1.2-.4.2-.6.2-.5-.2-1.2-.4-1.4-.6-.1-.4.5-.8.7-1.1.1-.2 1.3.2 1.4.5z"/><path d="m14.9 6.7c-.2.6-.7.3-1.1.2-.6-.1-.6-.5-.6-.9s.3-.6.8-.7c.1.1.7.3.8.4.1.3.1.9.1 1z"/><path d="m3.3 8.1c-.5 1.6-.5 3.3-.1 4.9.2.9.5 1.9.6 2.9-.3 2.4-.2 5-.5 7.7-.2 1.3-.5 2.5-.1 3.7.6 3 2.1 5.2 4.4 7 1.7 1.3 3.4 2.3 5.4 2.6 1.8.2 3.5-.1 5.2-.6 1.1-.3 2.2-.4 3.2-1.1 2.2-1.7 3.5-4.1 4.3-6.7.6-2.1 1.1-4.1 1.3-6.1.1-1.8-.1-3.5-.5-5.1-.8-3.8-2.5-7-4.7-9.8-.7-.8-3.3-3.5-3.5-3.9-1.1-1.4-2.6-1.6-4.3-1.7-2-.1-3.7.2-5.5.7-1.1.1-1.8.7-2.5 1.4-1.1 1.2-2.2 2.4-2.7 4.1zm21.3 19.5s.1 0 0 0zm-19.5-19.7c.4-.6 1.3-2.3 1.9-2.8.3-.3 1-.8 1.3-.9.6-.4 2.3-.1 2.3-.1l.4-.2s1.8-.7 2.5-.7c.8 0 1.5.3 1.9.5.3.1 1.1.6 1.1.7 0 0 .6.4.9.7.8.7 3.3 4 3.5 4.2-.3-.1-.5-.3-.7-.3-.4-.2-.6.2-.9.2-.4.5-.1.9.3 1.3.6.2 1.2.6 1.8.1.4-.3.6.1.8.4.9 1.6 1.7 3.3 2 5.3.1.1.8 6.5.1 8.6-.7 1.9-1.2 4-2.4 5.8-1 1.6-2.5 2.7-4.2 3.2-1.5.4-3 .9-4.6.8-.9 0-1.9-.1-2.7-.6-.1-.1-.9-.5-.9-.5s-1.7-1.1-1.7-1.4c-1.2-.9-1.7-2.3-2.1-3.8-1-.9-.4-2.1-.4-3.2-.3-1.2.4-2.4.3-3.6 0-.5.2-1.2 1-.9.3.1.6.1.8-.3s0-.7-.1-1c-.2-.3-.5-.5-.9-.6-.3 0-.5-.1-.4-.4.1-.9-.2-2.9-.2-3.2-2.3-2.8-1.7-4.5-.7-7.3z"/><path d="m16.7 6c-.2-.1-.5-.2-.7-.2s-.3-.5-.3-.7c0-.1.2-.3.4-.3.3 0 1.2 1.2.6 1.2z"/><path d="m8.5 7.3c-.6.2-1.3-.2-1.4-.6-.1-.2 0-.5 0-.8.3-.1.6-.2.9-.4.7.7 1.5 1.5.5 1.8z"/><path d="m11 14.4c.1.5-.5.5-.8.7-.4-.1-.8-.1-1.1-.4-.3-.4.1-1.3.5-1.5.6-.2 1.4.9 1.4 1.2z"/><path d="m6.1 11.8c.2-.3 1.4 0 1.6.1.2.2 0 1-.2 1.3-.2.1-1 .2-1.4-.2-.3-.3-.1-1 0-1.2z"/><path d="m6.2 10.1c-.1-.2-.4-.4-.5-.6-.4-.7 0-1.2.8-1.3s.9.1 1.1.3c.1.1.3.3.3.4 0 .5-1.1 1.5-1.7 1.2z"/><path d="m10.9 8.3c.1.1.3.1.4.1.2.3.5.5.5.8s-.4.8-.9.9c-.4-.1-.8-.3-1-.7-.2-.3-.3-.6 0-.9.2-.3.5-.4 1-.2z"/><path d="m16.5 8.3c0-.3.3-.9.4-.9.5-.1 1.2.2 1.4.4.1.1.1.4.1.5 0 .2 0 .8-.6.8-1.3-.1-1.4-.5-1.3-.8z"/><path d="m19.5 12.3c.5.2 1.1.5 1.3.8.1.3 0 1-.6 1-.6.1-1.2.2-1.6-.5-.3-.5-.2-1 .3-1.3.2 0 .4.1.6 0z"/><path d="m14.5 14.3c-.2-.2-.2-.9-.2-.9.5-.4 1-.6 1.6-.3.2.4.7.6.6 1.1-.1.9-1.6.6-2 .1z"/><path d="m14.3 11.3c-.6-.2-.6-.8-.4-1.2s.7-.6 1.2-.3.7.8.5 1.3c-.3.5-.8.3-1.3.2z"/><path d="m15.4 17.9c-.1.4-.4.8-.8 1-.1 0-.3-.1-.4-.1-.6-.3-1-.8-1.1-1.5.9-.7 1.7-.5 2.3.6z"/><path d="m12.7 19.1.2.2c.3.5.4.9-.4 1-.3.1-.6.2-.9.1-.5-.2-.6-.7-.8-1.1.8-1.1 1.1-1.2 1.9-.2z"/></g></svg>