<?xml version="1.0" encoding="utf-8"?>
<!-- Generator: Adobe Illustrator 21.1.0, SVG Export Plug-In . SVG Version: 6.00 Build 0)  -->
<svg version="1.1" id="Layer_1" xmlns="http://www.w3.org/2000/svg" xmlns:xlink="http://www.w3.org/1999/xlink" x="0px" y="0px"
	 viewBox="0 0 30 27.8" style="enable-background:new 0 0 30 27.8;" xml:space="preserve">
<style type="text/css">
	.st0{fill:#F0F4D5;}
	.st1{fill:#E1EAA2;}
	.st2{fill:#B8D372;}
	.st3{fill:#381C1B;}
</style>
<path class="st0" d="M18.3,18.1c0.1-0.5,0.3-2.5,0.3-3c0-0.3,0-0.8,0.4-0.8s0.5,0.4,0.6,0.8c0,0.2,0.1,0.5,0.1,0.7
	c0.1,0.7,0,1.3,0,2c-0.2,1.2-0.5,2.4-0.9,3.5c-0.3,0.7-0.9,1.2-1.6,1.8c1.1-0.2,1.9-0.6,3.4-1.6c0.3-0.2,0.6-0.9,0.6-0.9
	s0.4-0.5,0.5-0.8c0.6-0.8,0.5-1.8,0.5-2.8c0-0.9,0-1.8-0.1-2.6c-0.2-2.1-1.1-3.8-2.7-5.1c-0.3-0.2-0.4-0.5-0.6-0.8
	c0.4-0.3,0.8-0.5,1.3-0.4C20.4,8.4,20.7,8.7,21,9c0.8,0.8,1.5,1.6,1.9,2.6c0.7,2,1.1,4,0.7,6.2c-0.1,0.3-0.2,0.5-0.1,0.8
	c2.8-3.5,1.5-8.8-2.4-11c-0.5-0.4-1.1-0.7-1.7-0.9c-0.6-0.3-1.2-0.5-1.8-0.6c-1.1-0.1-1.5-0.8-1.8-1.6c-0.2-0.5-0.3-1.1-0.5-1.8
	c-0.4,0.8-1,1.3-1.1,2.1c-0.1,0.4-0.4,0.7-0.9,0.7c-0.8,0-1.6,0.2-2.4,0.2c-2,0-4.5,2.5-4.5,2.5S6,8.6,5.9,8.8c-0.9,1.6-1,3.3-0.8,5
	c0,0.9,0.3,1.7,0.6,2.5c0.4,1.5,1,2.8,2.3,3.8c0.1-0.4-0.1-0.6-0.1-0.9c-0.3-0.9-0.7-1.7-0.6-2.7c0.4-0.4,0.7-0.3,1,0.2
	c0.3,0.6,0.6,1.1,1,1.6c0.2,0.8,0.8,1.4,1.1,2.1c0.2,0.8,0.8,1.4,1.2,2c0.2,0.3,0.6,0.9,1.1,0.7c0.4-0.2,0.1-0.8,0.1-1.2v-0.1
	c0.1-1,0.1-2,0.2-3c0.1-0.3,0.1-0.6,0.2-0.9c0.2-0.7,0.3-1.4,0.8-1.9c0.1-0.1,0.3-0.2,0.4-0.2c0.2,0.1,0.2,0.2,0.2,0.4
	c0.1,0.5-0.1,1.1,0,1.6c-0.1,0.9-0.2,1.7-0.1,2.6c0,0.3,0,2.6-0.2,3.4c0.7,0,1.5-0.1,1.8-0.5c0.5-0.5,1.1-1.9,1.1-1.9
	S18.1,19.2,18.3,18.1z"/>
<g>
	<g>
		<path class="st1" d="M9.4,18.2c0.3,0.3,0.6,0.7,1.1,0.8c0.3,0.1,0.5,0.4,0.7,0.6c0.3,0.3,0.5,0.6,0.9,0.8c0.1-0.4-0.1-0.6-0.2-0.9
			c-0.1-0.3-0.2-0.6,0-0.8c0.3-0.3,0.5-0.2,0.8,0c0.1,0.1,0.2,0,0.3,0.1c-0.1,1-0.1,2-0.2,3c-0.8-0.4-1.5-0.8-2.3-1.3
			c-0.1,0-0.1-0.1-0.1-0.1C10.2,19.5,9.6,19,9.4,18.2z"/>
		<path class="st2" d="M6.7,15.8c0.2,0.2,0.4,0.5,0.6,0.7c-0.1,1,0.4,1.8,0.6,2.7C8,19.5,8.2,19.7,8,20.1c-1.3-1-1.9-2.3-2.3-3.8
			C6.1,16.1,6.3,15.7,6.7,15.8z"/>
		<path class="st2" d="M10.4,20.4l0.1,0.1c0.8,0.4,1.5,0.8,2.3,1.3v0.1c0,0.4,0.3,1-0.1,1.2c-0.5,0.2-0.9-0.3-1.1-0.7
			C11.2,21.8,10.6,21.2,10.4,20.4z"/>
		<path class="st1" d="M6.7,15.8c-0.5-0.1-0.6,0.4-0.9,0.6c-0.3-0.8-0.6-1.6-0.6-2.5c0.3,0,0.7,0,0.8,0.4c0.1,0.4,0.4,0.6,0.7,0.9
			C6.8,15.3,6.9,15.5,6.7,15.8z"/>
		<g>
			<path class="st3" d="M5.6,6.5C7.1,4.9,9,3.9,11.2,3.8c0.2,0,0.3,0,0.5,0c0.5-0.1,1.2,0.1,1.6-0.2c0.4-0.3,0.2-0.9,0.4-1.4V2.1
				c0.2-0.7,0.5-1.4,1.3-1.5s1.3,0.5,1.6,1.2c0.3,0.6,0.6,1.3,0.8,2c0.1,0.5,0.3,0.6,0.8,0.8c2.7,0.6,5,1.9,6.7,4.1
				c2,2.6,2.8,5.5,1.5,8.8c-0.7,1.9-1.8,3.6-3.4,4.8c-2.1,1.7-4.5,3.1-7.3,3.4c-0.5,0-0.9,0.1-1,0.8c-0.1,0.7-0.9,1.1-1.4,0.9
				c-0.7-0.2-1-0.6-0.8-1.5c0.1-0.7-0.3-0.9-0.7-1.2c-1.5-1-3-2-4.5-2.9c-1.7-1.1-2.7-2.8-3.4-4.7C3.4,15.7,3,14.3,3,12.9
				c0-2.4,0.6-4.5,2.4-6.2C5.5,6.6,5.5,6.6,5.6,6.5z M18.3,18.1c0.1-0.5,0.3-2.5,0.3-3c0-0.3,0-0.8,0.4-0.8s0.5,0.4,0.6,0.8
				c0,0.2,0.1,0.5,0.1,0.7c0.1,0.7,0,1.3,0,2c-0.2,1.2-0.5,2.4-0.9,3.5c-0.3,0.7-0.9,1.2-1.6,1.8c1.1-0.2,1.9-0.6,3.4-1.6
				c0.3-0.2,0.6-0.9,0.6-0.9s0.4-0.6,0.5-0.8c0.3-0.7,0.5-1.8,0.5-2.8c0-0.9,0-1.8-0.1-2.6c-0.2-2.1-1.1-3.8-2.7-5.1
				c-0.3-0.2-0.4-0.5-0.6-0.8c0.4-0.3,0.8-0.5,1.3-0.4C20.4,8.4,20.7,8.7,21,9c0.8,0.8,1.5,1.6,1.9,2.6c0.7,2,1.1,4,0.7,6.2
				c-0.1,0.3-0.2,0.5-0.1,0.8c2.8-3.5,1.5-8.8-2.4-11c-0.5-0.4-1.1-0.7-1.7-0.9c-0.6-0.3-1.2-0.5-1.8-0.6c-1.1-0.1-1.5-0.8-1.8-1.6
				c-0.2-0.5-0.3-1.1-0.5-1.8c-0.4,0.8-1,1.3-1.1,2.1c-0.1,0.4-0.4,0.7-0.9,0.7c-0.8,0-1.6,0.2-2.4,0.2c-2,0-4.5,2.5-4.5,2.5
				S6,8.6,5.9,8.8c-0.9,1.6-1,3.3-0.8,5c0,0.9,0.3,1.7,0.6,2.5c0.4,1.5,1,2.8,2.3,3.8c0.1-0.4-0.1-0.6-0.1-0.9
				c-0.3-0.9-0.7-1.7-0.6-2.7c0.4-0.4,0.7-0.3,1,0.2c0.3,0.6,0.6,1.1,1,1.6c0.2,0.8,0.8,1.4,1.1,2.1c0.2,0.8,0.8,1.4,1.2,2
				c0.2,0.3,0.6,0.9,1.1,0.7c0.4-0.2,0.1-0.8,0.1-1.2v-0.1c0.1-1,0.1-2,0.2-3c0.1-0.3,0.1-0.6,0.2-0.9c0.2-0.7,0.3-1.4,0.8-1.9
				c0.1-0.1,0.3-0.2,0.4-0.2c0.2,0.1,0.2,0.2,0.2,0.4c0.1,0.5-0.1,1.1,0,1.6c-0.1,0.9-0.2,1.7-0.1,2.6c0,0.3,0,2.6-0.2,3.4
				c0.7,0,1.5-0.1,1.8-0.5c0.5-0.5,1.1-1.9,1.1-1.9S18.1,19.2,18.3,18.1z"/>
			<path class="st2" d="M13.9,9.2c0.1-0.6,0-1.2,0.2-1.8c0.1-0.3,0-0.5-0.2-0.7c-0.3-0.2-0.4,0-0.6,0.2c-0.3-0.3-0.7-0.1-1,0
				c-0.5,0.1-0.8,0.6-1.2,0.8c-0.5,0-0.8,0.2-1.1,0.6c-0.5,0.6-1,1-1.5,1.4C8,8.9,8.1,8.7,8.6,8.1C8.8,7.9,9,7.7,9.2,7.4
				C9.3,7.2,9.6,7,9.4,6.8C9.1,6.6,9,6.9,8.8,7C8.3,7.4,7.9,7.9,7.4,8.3c-0.5,0.4-1-0.1-1-0.1s2.4-2.6,4.5-2.6
				c0.8,0,1.6-0.1,2.4-0.2c0.5,0,0.8-0.3,0.9-0.7c0.2-0.8,0.8-1.3,1.1-2.1c0.2,0.7,0.3,1.2,0.5,1.8c0.3,0.9,0.8,1.5,1.8,1.6
				c0.6,0.1,1.3,0.3,1.8,0.6c0,0.1-0.1,0.1-0.1,0.2C19,7.7,19,7.7,18.1,7.6c-0.3,0-0.5,0.1-0.7,0.3c-0.2-0.5-0.4-1-0.7-1.4
				c-0.2-0.3-0.5-0.7-0.9-0.4c-0.4,0.2-0.5,0.6-0.2,1c0.1,0.2,0.1,0.4,0.2,0.6c-0.5,0.3-0.5,1-0.9,1.4c-0.3,0.2-0.2,0.7-0.6,1
				C14,9.9,14.2,9.4,13.9,9.2z"/>
			<path class="st1" d="M14.5,21.2c0-0.4,0-0.7,0-1c0.3,0.1,0.5-0.1,0.5-0.4c0-0.6,0.3-1.1,0.5-1.7c0.1-0.4,0.3-0.3,0.6-0.1l0,0
				c-0.2,0.5,0.1,0.8,0.6,1.1c0.2-0.4,0.3-0.7,0.5-1c0.1-0.2,0.1-0.3,0.4-0.3c0.1,0,0.2,0.2,0.2,0.3c0.1,0.2,0.1,0.4,0,0.6
				c-0.4,0.5-0.1,0.7,0.2,1l0,0c0,0.1-0.1,0.2-0.1,0.3c-0.1,0.5-0.5,1.4-0.5,1.4s-0.9-0.9-1.7-0.5C15.1,20.9,14.8,21,14.5,21.2z"/>
			<path class="st1" d="M20.9,7.5c-0.3,0.3-0.5,0.3-0.8,0.6c-0.5-0.1-0.9,0.1-1.3,0.4c-0.2,0-0.4-0.2-0.6-0.2
				c-0.3,0-0.5,0.1-0.3,0.5c0.4,0.7,0.6,1.4,0.8,2.1c-0.3,0.4-0.3,0.8,0,1.2l0,0c-0.1,0.1-0.3,0.3-0.4,0.4c-0.2-0.3-0.4-0.4-0.3-0.9
				s-0.4-0.7-0.6-1c-0.3-0.4-0.6-0.8-0.2-1.3c0.5-0.4,0.4-0.9,0.2-1.4c0.2-0.2,0.4-0.3,0.7-0.3c0.9,0.1,0.9,0,1.2-0.8
				c0-0.1,0.1-0.1,0.1-0.2C19.9,6.8,20.4,7.2,20.9,7.5z"/>
			<path class="st2" d="M14.5,21.2c0.3-0.2,0.6-0.3,0.9-0.3c0.8-0.4,1.8,0.5,1.8,0.5s-0.5,1.4-1.1,1.9c-0.4,0.4-1.1,0.6-1.8,0.5
				c0.2-0.8,0.1-1.6,0.2-2.3C14.5,21.4,14.5,21.2,14.5,21.2z"/>
			<path class="st1" d="M19.7,17.8c0.3,0.1,0.4-0.2,0.6-0.2c0.3,0,0.5,0.2,0.4,0.4c-0.5,0.8-0.2,1.8-0.6,2.6
				c0.3,0.3,1.2-0.1,1.2-0.1s-0.3,0.7-0.6,0.9c-0.6-0.6-1.2,0.1-1.9,0C19.2,20.2,19.5,19,19.7,17.8z"/>
			<path class="st2" d="M18.8,21.3c0.6,0.1,1.3-0.5,1.9,0.1c-1.5,1-2.4,1.5-3.5,1.7C17.8,22.5,18.5,22,18.8,21.3z"/>
			<path class="st3" d="M11.1,7.7c0.4-0.3,0.7-0.7,1.2-0.8c0.3-0.1,0.7-0.3,1,0c0.2,0.6-0.4,0.8-0.7,1c-0.9,0.6-1.5,1.4-1.9,2.4
				c-0.5,1.1-0.4,2.2-0.3,3.4c0.1,0.4,0.1,0.7,0.1,1.1c-0.1,0.4-0.3,0.5-0.6,0.2c-0.5-0.4-0.7-0.9-0.8-1.5c-0.4-1.7,0.2-3.2,1-4.6
				C10.4,8.4,10.8,8.1,11.1,7.7z"/>
			<path class="st3" d="M17.4,7.8c0.2,0.5,0.3,1.1-0.2,1.5c-0.2-0.2-0.5-0.4-0.7-0.5l0,0c-0.3-0.4-0.6-0.6-0.7-1.1
				c-0.1-0.2-0.2-0.4-0.3-0.6c-0.2-0.4-0.1-0.9,0.3-1.1c0.4-0.2,0.7,0.2,0.9,0.4C17,6.9,17.2,7.4,17.4,7.8z"/>
			<path class="st1" d="M13.9,9.2c0.3,0.2,0.1,0.6,0.4,0.9c0.4-0.2,0.3-0.7,0.6-1c0.2,0.9-0.1,1.7-0.5,2.4c-0.2,0.3-0.7,0.1-0.7-0.2
				C13.7,10.6,13.3,9.9,13.9,9.2z"/>
			<polygon class="st1" points="16.5,8.9 16.5,8.9 16.4,8.9 			"/>
		</g>
	</g>
</g>
</svg>
