<?xml version="1.0" encoding="utf-8"?>
<!-- Generator: Adobe Illustrator 22.0.1, SVG Export Plug-In . SVG Version: 6.00 Build 0)  -->
<svg version="1.1" id="Layer_1" xmlns="http://www.w3.org/2000/svg" xmlns:xlink="http://www.w3.org/1999/xlink" x="0px" y="0px"
	 viewBox="0 0 30 22.1" style="enable-background:new 0 0 30 22.1;" xml:space="preserve">
<style type="text/css">
	.st0{fill:#D87526;}
	.st1{fill:#8C4422;}
	.st2{fill:#EFD23B;}
	.st3{fill:#DE912A;}
	.st4{fill:#E8AD2E;}
	.st5{fill:#934A2B;}
	.st6{fill:#381C1B;}
</style>
<g>
	<path class="st0" d="M14.8,15.8c-0.1-0.3-0.3-0.5-0.4-0.7c-0.1-0.2-0.1-0.3,0.2-0.3c0.9,0.1,1.7,0.2,2.6,0.3c0.2,0,0.2,0.1,0.3,0.3
		c0.1,0.3,0.1,0.6,0.1,0.9c-0.1,0-0.2,0.1-0.4,0C16.4,16.1,15.6,15.9,14.8,15.8z"/>
	<path class="st1" d="M10.8,11.1c0.2-0.3,0.2-0.7,0.5-1c0.3,0.2,0.7,0.3,1,0.5c0.1,0,0.2,0.1,0.3,0.1c0.4,0.1,0.7,0.1,1.1,0.3
		c0.3,0.1,0.4,0,0.6-0.2c-0.2,0.5-0.3,0.9-0.5,1.4c-0.5-0.3-1.9-0.7-2-0.7C11.4,11.3,11.1,11.2,10.8,11.1z"/>
	<path class="st2" d="M3.6,5.2c0.2-0.3,0.5-0.7,1-0.8c0.5,0,1-0.1,1.5-0.1c0.3,0,0.3,0.1,0.2,0.3c-0.2,0.3-0.4,0.7-0.7,1
		C5.6,5.7,5.5,5.8,5.3,5.8c-0.4,0-0.9,0-1.3,0C3.7,5.7,3.4,5.6,3.6,5.2z"/>
	<path class="st1" d="M14.7,12.2c0.1-0.5,0.2-1,0.4-1.4c-0.1,0.5,0.5,0.7,0.5,0.7s1.7,0.4,2.4,0.7c-0.1,0.3-0.2,0.6-0.3,0.9
		c-0.7-0.2-1.4-0.6-2.2-0.5C15.3,12.3,15,12.4,14.7,12.2z"/>
	<path class="st0" d="M9,5.8C8.7,6.3,8.4,6.4,7.9,6.3C7.5,6.2,7.2,6.1,6.8,6C6.5,6,6.5,5.9,6.7,5.7C7,5.5,7.1,5.2,7.2,5
		c0.3-0.5,0.6-0.6,1.2-0.4c0.3,0.1,0.6,0.1,0.9,0.1C9.2,4.8,9,4.9,8.9,5.1C8.7,5.3,8.6,5.5,8.4,5.7C8.6,5.7,8.8,5.8,9,5.8z"/>
	<path class="st0" d="M10.7,15.1c-0.1,0-0.3,0.1-0.4-0.1c-0.1-1.1-0.1-1.1,1-0.9c0.5,0.1,1,0.3,1.5,0.3c0.5,0,0.7,0.3,0.6,0.8
		c0,0.1,0,0.2-0.1,0.3C12.8,15.5,11,15.1,10.7,15.1z"/>
	<path class="st2" d="M11.8,11.4c0.1,0,1.5,0.4,2,0.7c-0.1,0.2-0.2,0.4-0.2,0.6c0,0.5-0.4,0.6-0.7,0.4c-0.4-0.2-0.9-0.2-1.4-0.3
		C11.5,12.3,11.4,11.8,11.8,11.4z"/>
	<path class="st1" d="M10.4,9.7c-0.2,0.4-0.3,0.7-0.5,1.1c-0.1-0.1-1-0.7-1.4-0.4c-0.4-0.2-0.7-0.4-1.1-0.1c0.3-0.5,0.4-1.1,0.9-1.5
		C8.4,8.9,8.5,8.9,8.6,9C9.1,9.3,9.7,9.7,10.4,9.7z"/>
	<path class="st3" d="M18.1,12.1c-0.7-0.3-2.4-0.7-2.4-0.7s0.3-0.7,0.5-1c0.7,0.3,1.4,0.5,2,0.8C18.4,11.5,18.3,11.9,18.1,12.1z"/>
	<path class="st4" d="M15.6,12.5c0.8,0,1.5,0.3,2.2,0.5c-0.3,0.8-0.3,0.8-1.1,0.7c-0.4-0.1-0.8-0.1-1.3-0.2c0-0.2,0-0.5,0-0.7
		C15.4,12.7,15.4,12.5,15.6,12.5z"/>
	<path class="st2" d="M8.5,10.4c0.4-0.2,1.2,0.4,1.4,0.4c0,0.5-0.3,0.8-0.4,1.3c0,0.2-0.2,0.2-0.4,0.1c-0.2-0.1-0.5-0.2-0.7-0.3
		C8.6,11.4,8.2,10.9,8.5,10.4z"/>
	<path class="st3" d="M10.4,9.7C9.7,9.7,9.1,9.3,8.6,9C8.5,8.9,8.4,8.9,8.3,8.8c0.1-0.2,0.3-1,0.3-1c0,0,0.3,0.6,0.3,0.6
		c0.5,0.2,1.6,0.5,1.8,0.6C10.7,9.1,10.4,9.6,10.4,9.7z"/>
	<path class="st3" d="M8.5,10.4c-0.3,0.5,0.1,1.1-0.1,1.6c-0.5,0-0.8-0.4-1.3-0.4C7,11.5,7,11.4,7,11.3c0-0.4,0.2-0.7,0.4-1
		C7.8,9.9,8.1,10.1,8.5,10.4z"/>
	<path class="st1" d="M2.3,8.4c0.1-0.5,0.2-1,0.6-1.4c0,0.1-0.1,0.2,0,0.3c0.2,0.3,1.2,0.5,1.6,0.3c-0.2,0.5-0.3,1-0.6,1.5
		c0-0.2-0.1-0.3-0.3-0.3C3.2,8.8,2.7,8.6,2.3,8.4z"/>
	<path class="st0" d="M7.1,7.4c0.6,0,0.6,0,0.4,0.6C7.4,8.2,7.1,8.7,7.1,8.7S5.8,8.6,5.2,8.3C5.4,8,5.6,7.6,5.8,7.3
		c0.1-0.2,0.3-0.2,0.4,0c0,0.1-0.4,0.5-0.3,0.7c0.1,0.2,1,0.4,1,0.3C6.8,8,7,7.5,7.1,7.4z"/>
	<path class="st5" d="M19.7,9.2c0,0,0,0.1,0.1,0.1c-0.1,0.3-0.3,0.5-0.6,0.7c0.1-0.2,0-0.3-0.1-0.4c-0.5-0.4-0.8-0.3-1.3-0.8
		c-0.1-0.1-0.4,0.4-0.6,0.6c0,0-0.1,0.1,0,0.2c-0.1,0-0.8-0.2-0.8-0.5c0.1-0.3,0.3-0.5,0.6-0.7c0.6-0.2,0.9-0.2,1.2-0.1
		C18.6,8.5,19.4,8.9,19.7,9.2z"/>
	<path class="st1" d="M5.2,8.3c0.6,0.2,1.9,0.4,1.9,0.4S6.7,9.6,6.5,10c0,0,0,0-0.1-0.1C6.3,9.5,5.5,9.5,5.3,9.5
		C5,9.4,5.1,9.4,4.8,9.3C4.9,9,5,8.7,5.2,8.3z"/>
	<path class="st0" d="M18.7,16.3c0-0.1-0.1-0.1-0.1-0.2c-0.3-0.7-0.1-0.9,0.6-0.8c0.3,0,0.5,0.1,0.8,0.1c0.7,0.1,0.7,0.1,0.7,0.9
		C20,16.5,19.4,16.3,18.7,16.3z"/>
	<path class="st0" d="M8,14.4c-0.1-0.1-0.2-0.1-0.2-0.2c-0.2-0.4-0.3-0.7-0.5-1.1c0.3,0.1,0.7,0.2,1,0.2c0.1,0,0.2,0.1,0.3,0.1
		c0.7,0.2,0.8,0.4,0.6,1c0,0.1,0,0.2-0.1,0.3C8.8,14.7,8.4,14.6,8,14.4z"/>
	<path class="st1" d="M21.3,13c0,0.3-0.2,0.6-0.3,0.9c-0.2-0.1-0.7-0.2-1-0.3c-0.5-0.1-0.7-0.2-1.2-0.3c0-0.3,0.2-0.6,0.3-0.9
		C19.2,12.4,20.6,12.9,21.3,13z"/>
	<path class="st1" d="M10.7,15.1c0.4,0,2.1,0.4,2.6,0.4c0.1,0.3,0.4,0.5,0.4,0.8c-0.9-0.2-1.8-0.4-2.7-0.6
		C10.7,15.6,10.6,15.4,10.7,15.1z"/>
	<path class="st4" d="M17.2,9.6c-0.1-0.1,0-0.2,0-0.2c0.2-0.1,0.5-0.6,0.6-0.6c0.5,0.5,0.8,0.4,1.3,0.8c0.2,0.1,0.3,0.2,0.1,0.4
		c-0.2,0.3-0.4,0.2-0.6,0.1C18.2,10,17.3,9.6,17.2,9.6z"/>
	<path class="st0" d="M12.3,10.5c-0.3-0.2-0.7-0.3-1-0.5c0.1-0.2,0.2-0.4,0.4-0.6c0.4-0.6,0.8-0.7,1.4-0.1
		C12.9,9.7,12.8,10.3,12.3,10.5z"/>
	<path class="st0" d="M6.5,9.9C6.5,10,6.5,10,6.5,9.9c-0.1,0.3-0.3,0.6-0.3,0.9c0,0.2-0.2,0.3-0.4,0.2c-0.4-0.2-0.8-0.4-1.1-0.5
		c-0.2-0.1-0.2-0.3-0.1-0.5c0.1-0.2,0.1-0.5,0.2-0.7C5.1,9.4,5,9.4,5.3,9.5C5.1,9.8,5,10,5,10.2c0,0.1,0.7,0.5,0.9,0.5
		C6.1,10.8,6.4,10.2,6.5,9.9z"/>
	<path class="st2" d="M13.1,7.3c0-0.1,0.3-0.7,0.5-0.8c0.3,0.2,1.3,0.7,1.3,0.7l-0.6,0.6C14.2,7.9,13.1,7.7,13.1,7.3z"/>
	<path class="st0" d="M4.8,13.3c-0.1-0.3-0.1-0.6-0.2-0.9c0-0.1-0.1-0.2-0.1-0.3c0.1-0.1,0.6,0.2,0.8,0.2c0.6,0.2,0.9,0.6,0.8,1.2
		C5.7,13.6,5.1,13.4,4.8,13.3z"/>
	<path class="st1" d="M24.1,14.8c-0.5,0.3-2-0.3-2.3-0.4c-0.2-0.1,0.2-0.6,0.3-0.8c0.1-0.3,0.3-0.3,0.5-0.1c0.5,0.4,1,0.7,1.5,1.1
		C24.2,14.6,24.2,14.7,24.1,14.8z"/>
	<path class="st1" d="M14.8,15.8c0.8,0.2,1.6,0.3,2.3,0.5c0.1,0,0.2,0,0.4,0c0.2,0.1,0.1,0.4,0.2,0.5c-0.1,0-0.2,0.1-0.3,0.1
		c-0.6-0.1-1.2-0.2-1.9-0.2C15.4,16.3,14.9,16.2,14.8,15.8z"/>
	<path class="st2" d="M10.7,5.8c0,0,1.1-0.3,1.7,0.2c0.1,0.1,0.1,0.2,0.1,0.3c-0.1,0.2-0.4,0.6-0.4,0.6C12,6.8,11,6.5,11,6.5
		L10.7,5.8z"/>
	<path class="st4" d="M11.8,11.4c-0.3,0.4-0.3,0.9-0.3,1.4c-0.1,0-0.1,0-0.2,0c-1-0.2-1.1-0.4-0.7-1.4c0-0.1,0.1-0.2,0.2-0.4
		C11.1,11.2,11.4,11.3,11.8,11.4z"/>
	<path class="st3" d="M4.5,7.7C4.1,7.9,3.1,7.7,2.9,7.4c-0.1-0.1,0-0.2,0-0.3c0.4-0.3,0.8-0.1,1.2-0.2c0,0,0.1,0,0.1,0
		C4.9,7,4.9,7,4.5,7.7z"/>
	<path class="st1" d="M13.6,6.6c0.2-0.2,0.4-0.2,0.7,0c0.6,0.3,1.1,0.5,1.7,0.7c0.5,0.2,0.4,0.3,0.1,0.6C16,7.9,15.9,8,15.9,8
		l-1-0.8C14.9,7.3,13.9,6.8,13.6,6.6z"/>
	<path class="st0" d="M21.8,16.5c-0.1-0.1-0.1-0.3-0.1-0.5c0-0.2,0.1-0.4,0.3-0.3c0.5,0.1,1,0.2,1.5,0.3c0.2,0.1,0.5,0,0.5,0.1
		C24,16.4,21.8,16.6,21.8,16.5z"/>
	<path class="st4" d="M12.3,10.5c0.5-0.2,0.6-0.8,0.8-1.2c0.4,0,0.7,0.2,1,0.3c0.4,0.1,0.5,0.4,0.3,0.7c-0.1,0-1.3,0.3-1.8,0.3
		C12.5,10.6,12.4,10.5,12.3,10.5z"/>
	<path class="st3" d="M2.3,8.4c0.4,0.2,0.9,0.3,1.3,0.4c0.2,0,0.3,0.1,0.3,0.3c0,0.1-0.3,0.6-0.3,0.7c-0.1,0.4-1.2-0.5-1.5-0.7
		C2,9,2.2,8.6,2.3,8.4z"/>
	<path class="st3" d="M13.1,7.3c0.1,0.3,1.1,0.6,1.1,0.6l1.2,0.4c0,0-0.5,0.4-0.9,0.2c-0.4-0.2-0.9-0.4-1.4-0.6
		C12.7,7.7,12.7,7.6,13.1,7.3z"/>
	<path class="st0" d="M22.2,11.7c0,0-0.2,0.2-0.3,0.1c-0.5-0.2-1-0.4-1.5-0.7c-0.4-0.2-0.4-0.4,0.1-0.7C21,10.7,22.2,11.7,22.2,11.7
		z"/>
	<path class="st1" d="M22.2,11.7c0,0-1.1-0.9-1.7-1.3c0.1-0.1,0.3-0.4,0.3-0.4c0.4,0,1.5,0.8,1.7,1.1c0.1,0.1,0.1,0.3,0.1,0.3
		C22.6,11.5,22.2,11.7,22.2,11.7z"/>
	<path class="st1" d="M4.8,13.3c0.4,0.2,0.9,0.3,1.3,0.2c0.2,0.3,0.5,0.6,0.5,1.1l0,0c-0.4-0.3-0.8-0.3-1.3-0.5
		C4.9,14,4.6,13.7,4.8,13.3z"/>
	<path class="st0" d="M15.6,12.5c-0.2,0-0.2,0.1-0.2,0.3c0,0.2,0,0.4,0,0.7c-0.3,0.1-0.6-0.2-0.9-0.1c-0.2,0-0.1-0.2-0.1-0.3
		c0-0.3,0.2-0.6,0.3-0.9C15,12.4,15.3,12.3,15.6,12.5z"/>
	<path class="st4" d="M10.7,9c-0.2-0.1-1.3-0.4-1.8-0.6c0,0-0.3-0.6-0.3-0.6c0.8,0,1.7,0.3,2.3,0.6C11.2,8.6,10.8,8.8,10.7,9z"/>
	<path class="st5" d="M3.4,13.1c-0.5-0.5-1-1-1.2-1.7C2,11.2,2,11,1.9,10.7c0.3-0.1,0.3,0,0.5,0.1c0,0.7,1.1,1.6,1.1,1.6
		s0,0.3,0.1,0.5C3.6,13.2,3.5,13.2,3.4,13.1z"/>
	<path class="st4" d="M12.6,10.6c0.4,0,1.6-0.3,1.8-0.3c0,0-0.1,0.4-0.1,0.4c-0.2,0.2-0.3,0.3-0.6,0.2
		C13.3,10.8,12.9,10.7,12.6,10.6z"/>
	<path class="st0" d="M21.3,13c-0.6-0.1-2.1-0.5-2.1-0.6c0-0.5,0.1-0.6,0.6-0.4c0.4,0.2,0.9,0.4,1.3,0.6
		C21.1,12.7,21.3,12.7,21.3,13z"/>
	<path class="st0" d="M18.8,13.3c0.5,0.1,0.7,0.2,1.2,0.3c-0.1,0.2-0.2,0.3-0.2,0.5c-0.2,0-0.4,0-0.5,0C18.4,14,18.4,13.9,18.8,13.3
		z"/>
	<path class="st1" d="M18.7,16.3c0.7,0,1.3,0.2,2,0c0,0,0,0.4-0.1,0.5c-0.2,0.1-0.4,0-0.7,0c-0.2,0-0.5,0-0.7,0
		c-0.2-0.2-0.7,0.2-0.6-0.4C18.7,16.4,18.7,16.4,18.7,16.3z"/>
	<path class="st0" d="M16.2,10.5c-0.2,0.3-0.5,1-0.5,1s-0.7-0.2-0.5-0.7c0-0.1,0.1-0.1,0.1-0.2c0.1-0.1,0.2-0.3,0.3-0.4
		C15.7,10.2,16,10.3,16.2,10.5z"/>
	<path class="st2" d="M9,5.8C8.8,5.8,8.6,5.7,8.4,5.7c0.2-0.2,0.3-0.4,0.5-0.6C9,4.9,9.2,4.8,9.4,4.7C9.9,5.1,9,5.8,9,5.8z"/>
	<path class="st4" d="M3.5,12.4c0,0-1.1-0.9-1.1-1.6c0.4,0,0.5,0.5,0.8,0.7C3.4,11.6,3.5,12.4,3.5,12.4z"/>
	<path class="st3" d="M11,6.5c0,0,1,0.3,1.1,0.4c-0.2,0.5-0.4,0.6-0.9,0.3C11.2,7.1,11,7.1,10.9,7C10.8,6.9,11,6.5,11,6.5z"/>
	<path class="st0" d="M11,6.5c0,0-0.2,0.4-0.1,0.5c-0.3,0.1-0.6-0.2-0.9-0.2c-0.3-0.1-0.3-0.3,0-0.4c0.2-0.1,0.8-0.6,0.8-0.6L11,6.5
		z"/>
	<path class="st4" d="M7.1,7.4C7,7.5,6.8,8,6.9,8.3c0,0.1-0.9-0.1-1-0.3C5.8,7.8,6.2,7.4,6.2,7.3C6.5,7.3,6.8,7.2,7.1,7.4z"/>
	<path class="st1" d="M8,14.4c0.4,0.2,0.8,0.3,1.2,0.4c0,0.1,0.2,0.3,0,0.5c-0.2,0.1-0.9-0.1-1-0.4C8.1,14.7,8.1,14.5,8,14.4z"/>
	<path class="st3" d="M19.7,14.1c0.1-0.2,0.2-0.3,0.2-0.5c0.3,0.1,0.7,0.1,1,0.3c-0.1,0.4-0.3,0.5-0.7,0.4
		C20.1,14.2,19.9,14.2,19.7,14.1z"/>
	<polygon class="st4" points="15.4,8.3 14.2,7.9 14.9,7.3 15.9,8 	"/>
	<path class="st4" d="M6.5,9.9c-0.1,0.2-0.4,0.9-0.5,0.8c-0.2,0-0.9-0.4-0.9-0.5C5,10,5.1,9.8,5.3,9.5C5.5,9.5,6.3,9.5,6.5,9.9z"/>
	<path class="st6" d="M2.9,4.1C1.9,4.8,0.8,7.8,0.6,8.9c-0.2,1.6,0.8,3.9,1.6,5c0.7,1,9.3,3.3,9.4,3.3c0.3,0,0.5,0.2,0.8,0.2
		c1.5,0.2,2.9,0.5,4.4,0.5c0.9,0,4-0.1,4.2-0.1c1-0.2,2-0.3,3-0.5c0.5-0.1,0.8-0.5,1.3-0.6c0.1,0,0.2-0.1,0.4,0
		c0.4,0.5,1,0.9,1.3,1.5c0.2,0.4,0.5,0.4,0.8,0.2c0.3-0.2,0.3-0.7,0-1c-0.1-0.2-0.3-0.3-0.4-0.5c-0.3-0.4-0.2-0.5,0.2-0.6
		c0.4-0.1,0.7-0.1,1.1-0.1c0.3,0,0.4-0.2,0.5-0.4c0.1-0.3-0.1-0.4-0.3-0.5c-0.3-0.2-0.6-0.1-0.9-0.1c-0.1,0-0.3,0.1-0.3,0
		c-0.1-0.1,0.1-0.2,0.2-0.3c0.3-0.3,0.7-0.4,0.8-0.8c0.1-0.3,0.3-0.6,0-0.9c-0.3-0.2-0.5,0.2-0.7,0.4c-0.4,0.5-0.9,0.7-1.4,1.1
		c-0.1,0.1-0.4,0.2-0.5,0c-0.3-1-1.1-1.8-1.6-2.7c-0.6-0.9-1.3-1.8-2.1-2.4c-1-0.8-2-1.4-3.1-2c-0.9-0.5-1.8-0.9-2.6-1.4
		c-0.5-0.3-1.1-0.4-1.7-0.7c-0.2-0.1-3.3-1.4-3.5-1.4C9.8,3.5,4.8,3,2.9,4.1z M19.7,9.2c0,0,0,0.1,0.1,0.1c-0.1,0.3-0.3,0.5-0.6,0.7
		c-0.2,0.3-0.4,0.2-0.6,0.1c-0.4-0.2-1.4-0.5-1.4-0.6c-0.1,0-0.8-0.2-0.8-0.5c0.1-0.3,0.3-0.5,0.6-0.7c0.6-0.2,0.9-0.2,1.2-0.1
		C18.6,8.5,19.4,8.9,19.7,9.2z M24,16.1c0,0.2-2.2,0.4-2.2,0.4c-0.1-0.1-0.1-0.3-0.1-0.5c0-0.2,0.1-0.4,0.3-0.3
		c0.5,0.1,1,0.2,1.5,0.3C23.6,16.1,23.9,16,24,16.1z M21.3,13c0,0.3-0.2,0.6-0.3,0.9c-0.1,0.4-0.3,0.5-0.7,0.4
		c-0.2-0.1-0.4-0.1-0.5-0.1c-0.2,0-0.4,0-0.5,0c-0.8-0.1-0.8-0.2-0.4-0.8c0-0.3,0.2-0.6,0.3-0.9c0-0.5,0.1-0.6,0.6-0.4
		c0.4,0.2,0.9,0.4,1.3,0.6C21.1,12.7,21.3,12.7,21.3,13z M24.1,14.8c-0.5,0.3-2-0.3-2.3-0.4c-0.2-0.1,0.2-0.6,0.3-0.8
		c0.1-0.3,0.3-0.3,0.5-0.1c0.5,0.4,1,0.7,1.5,1.1C24.2,14.6,24.2,14.7,24.1,14.8z M24.4,13.7c-0.5-0.1-1.2-0.9-1.4-1
		c-0.1,0,0.1-0.1,0.2-0.3c0.1-0.3,0.2-0.2,0.4,0C23.9,12.7,24.5,13.7,24.4,13.7z M18.1,12.1c-0.1,0.3-0.2,0.6-0.3,0.9
		c-0.3,0.8-0.3,0.8-1.1,0.7c-0.4-0.1-0.8-0.1-1.3-0.2c-0.3,0.1-0.6-0.2-0.9-0.1c-0.2,0-0.1-0.2-0.1-0.3c0-0.3,0.2-0.6,0.3-0.9
		c0.1-0.5,0.2-1,0.4-1.4c0-0.1,0.1-0.1,0.1-0.2c0.1-0.1,0.2-0.3,0.3-0.4c0.2-0.1,0.5,0.1,0.6,0.2c0.7,0.3,1.4,0.5,2,0.8
		C18.4,11.5,18.3,11.9,18.1,12.1z M7.1,11.5C7,11.5,7,11.4,7,11.3c0-0.4,0.2-0.7,0.4-1c0.3-0.5,0.4-1.1,0.9-1.5c0.1-0.2,0.3-1,0.3-1
		c0.8,0,1.7,0.3,2.3,0.6c0.3,0.1-0.2,0.4-0.2,0.6c0,0.1-0.3,0.6-0.3,0.7c-0.2,0.4-0.3,0.7-0.5,1.1c0,0.5-0.3,0.8-0.4,1.3
		c0,0.2-0.2,0.2-0.4,0.1c-0.2-0.1-0.5-0.2-0.7-0.3C7.9,12,7.5,11.6,7.1,11.5z M2.2,9.2C2,9,2.2,8.6,2.3,8.4c0.1-0.5,0.2-1,0.6-1.4
		c0.4-0.3,0.8-0.1,1.2-0.2c0,0,0.1,0,0.1,0C4.9,7,4.9,7,4.5,7.7c-0.2,0.5-0.3,1-0.6,1.5c0,0.1-0.3,0.6-0.3,0.7
		C3.5,10.3,2.4,9.4,2.2,9.2z M4.5,10.1c0.1-0.2,0.1-0.5,0.2-0.7C4.9,9,5,8.7,5.2,8.3C5.4,8,5.6,7.6,5.8,7.3c0.1-0.2,0.3-0.2,0.4,0
		c0.3,0,0.6-0.1,0.9,0.1c0.6,0,0.6,0,0.4,0.6C7.4,8.2,7.1,8.7,7.1,8.7S6.7,9.6,6.5,10c-0.1,0.3-0.3,0.6-0.3,0.9
		c0,0.2-0.2,0.3-0.4,0.2c-0.4-0.2-0.8-0.4-1.1-0.5C4.4,10.4,4.5,10.2,4.5,10.1z M6.1,4.3c0.3,0,0.3,0.1,0.2,0.3
		c-0.2,0.3-0.4,0.7-0.7,1C5.6,5.7,5.5,5.8,5.3,5.8c-0.4,0-0.9,0-1.3,0c-0.3,0-0.6-0.1-0.3-0.5c0.2-0.3,0.5-0.7,1-0.8
		C5.1,4.4,5.6,4.3,6.1,4.3z M10.6,11.4c0-0.1,0.1-0.2,0.2-0.4c0.2-0.3,0.2-0.7,0.5-1c0.1-0.2,0.2-0.4,0.4-0.6
		c0.4-0.6,0.8-0.7,1.4-0.1c0.4,0,0.7,0.2,1,0.3c0.4,0.1,0.5,0.4,0.3,0.7c0,0-0.1,0.4-0.1,0.4c-0.2,0.5-0.3,0.9-0.5,1.4
		c-0.1,0.2-0.2,0.4-0.2,0.6c0,0.5-0.4,0.6-0.7,0.4c-0.4-0.2-0.9-0.2-1.4-0.3c-0.1,0-0.1,0-0.2,0C10.3,12.5,10.2,12.4,10.6,11.4z
		 M6.7,5.7C7,5.5,7.1,5.2,7.2,5c0.3-0.5,0.6-0.6,1.2-0.4c0.3,0.1,0.6,0.1,0.9,0.1C9.9,5.1,9,5.8,9,5.8C8.7,6.3,8.4,6.4,7.9,6.3
		C7.5,6.2,7.2,6.1,6.8,6C6.5,6,6.5,5.9,6.7,5.7z M9.9,6.4c0.2-0.1,0.8-0.6,0.8-0.6s1.1-0.3,1.7,0.2c0.1,0.1,0.1,0.2,0.1,0.3
		c-0.1,0.2-0.4,0.6-0.4,0.6c-0.2,0.5-0.4,0.6-0.9,0.3C11.2,7.1,11,7.1,10.9,7c-0.3,0.1-0.6-0.2-0.9-0.2C9.7,6.7,9.7,6.5,9.9,6.4z
		 M13.1,7.9c-0.4-0.2-0.5-0.3,0-0.5c0-0.1,0.3-0.7,0.5-0.8c0.2-0.2,0.4-0.2,0.7,0c0.6,0.3,1.1,0.5,1.7,0.7c0.5,0.2,0.4,0.3,0.1,0.6
		C16,7.9,15.9,8,15.9,8l-0.5,0.3c0,0-0.5,0.4-0.9,0.2C14.1,8.2,13.6,8.1,13.1,7.9z M9.2,15.2c-0.2,0.1-0.9-0.1-1-0.4
		c-0.1-0.1-0.1-0.3-0.2-0.5c-0.1-0.1-0.2-0.1-0.2-0.2c-0.2-0.4-0.3-0.7-0.5-1.1c0.3,0.1,0.7,0.2,1,0.2c0.1,0,0.2,0.1,0.3,0.1
		c0.7,0.2,0.8,0.4,0.6,1c0,0.1,0,0.2-0.1,0.3C9.1,14.9,9.4,15.1,9.2,15.2z M1.9,10.7c0.3-0.1,0.3,0,0.5,0.1c0.4,0,0.5,0.5,0.8,0.7
		c0.2,0.1,0.3,0.9,0.3,0.9s0,0.3,0.1,0.5c0,0.2-0.1,0.2-0.2,0.2c-0.5-0.5-1-1-1.2-1.7C2,11.2,2,11,1.9,10.7z M6.6,14.6L6.6,14.6
		c-0.4-0.3-0.8-0.3-1.3-0.4c-0.4-0.2-0.7-0.5-0.5-0.9c-0.1-0.3-0.1-0.6-0.2-0.9c0-0.1-0.1-0.2-0.1-0.3c0.1-0.1,0.6,0.2,0.8,0.2
		c0.6,0.2,0.9,0.6,0.8,1.2C6.3,13.8,6.6,14.1,6.6,14.6z M10.7,15.1c-0.1,0-0.1,0-0.2,0c-0.1,0-0.1,0-0.1-0.1
		c-0.1-1.1-0.1-1.1,0.9-0.9c0.5,0.1,1,0.3,1.5,0.3c0.5,0,0.7,0.3,0.6,0.8c0,0.1,0,0.2-0.1,0.3c0.1,0.3,0.4,0.5,0.4,0.8
		c0.1,0,0.2,0.1,0.2,0.1c-0.1,0-0.2-0.1-0.2-0.1c-0.9-0.2-1.8-0.4-2.7-0.6C10.7,15.6,10.6,15.4,10.7,15.1z M14.8,15.8
		c-0.1-0.3-0.3-0.5-0.4-0.7c-0.1-0.2-0.1-0.3,0.2-0.3c0.9,0.1,1.7,0.2,2.6,0.3c0.2,0,0.2,0.1,0.3,0.3c0.1,0.3,0.1,0.6,0.1,0.9
		c0.2,0.1,0.1,0.4,0.2,0.5c-0.1,0-0.2,0.1-0.3,0.1c-0.6-0.1-1.2-0.2-1.9-0.2C15.4,16.3,14.9,16.2,14.8,15.8z M19.9,16.8
		c-0.2,0-0.5,0-0.7,0c-0.2-0.2-0.7,0.2-0.6-0.4l0,0c0-0.1,0.1-0.1,0.1-0.2c0-0.1-0.1-0.1-0.1-0.2c-0.3-0.7-0.1-0.9,0.6-0.8
		c0.3,0,0.5,0.1,0.8,0.1c0.7,0.1,0.7,0.1,0.7,0.9c0,0,0,0.4-0.1,0.5C20.4,16.9,20.2,16.8,19.9,16.8z M22.5,11
		c0.1,0.1,0.1,0.3,0.1,0.3c0,0.1-0.5,0.3-0.5,0.3s-0.2,0.2-0.3,0.1c-0.5-0.2-1-0.4-1.5-0.7c-0.4-0.2-0.4-0.4,0.1-0.7
		c0.1-0.1,0.3-0.4,0.3-0.4C21.2,9.9,22.3,10.8,22.5,11z"/>
	<path class="st1" d="M24.4,13.7c-0.5-0.1-1.2-0.9-1.4-1c-0.1,0,0.1-0.1,0.2-0.3c0.1-0.3,0.2-0.2,0.4,0
		C23.9,12.7,24.5,13.7,24.4,13.7z"/>
</g>
</svg>
