<?xml version="1.0" encoding="utf-8"?>
<!-- Generator: Adobe Illustrator 21.0.0, SVG Export Plug-In . SVG Version: 6.00 Build 0)  -->
<svg version="1.1" id="Layer_1" xmlns="http://www.w3.org/2000/svg" xmlns:xlink="http://www.w3.org/1999/xlink" x="0px" y="0px"
	 viewBox="0 0 14.6 14.8" style="enable-background:new 0 0 14.6 14.8;" xml:space="preserve">
<style type="text/css">
	.st0{fill:#FFFFFF;}
	.st1{fill:#490E0E;}
</style>
<g>
	<g>
		<path class="st0" d="M14,7.1C14,7.1,14,7,14,7.1s0,0.2-0.1,0.3c-0.1,0,0-0.1-0.1-0.1C13.9,7.2,14,7.2,14,7.1
			c-0.2,0-0.1-0.1-0.2-0.1C13.9,6.9,14,7,14,7.1z M7.8,0.6C7.8,0.6,7.8,0.5,7.8,0.6C7.8,0.5,7.8,0.6,7.8,0.6z M7.1,0.4
			C7.2,0.4,7.2,0.4,7.1,0.4C7.2,0.4,7.1,0.4,7.1,0.4z M11.3,1.9l-0.1-0.1C11.2,1.8,11.3,1.8,11.3,1.9z M13.7,6.3L13.7,6.3L13.7,6.3
			L13.7,6.3z M12.6,2.9L12.6,2.9C12.6,3,12.7,3,12.6,2.9L12.6,2.9z M13.4,4h-0.1C13.3,4,13.3,4,13.4,4C13.3,4,13.4,4,13.4,4z
			 M14,5.9L14,5.9C14,6,14,5.9,14,5.9z M13.5,8.8L13.5,8.8L13.5,8.8z M14.1,7.5L14.1,7.5L14.1,7.5L14.1,7.5z M5.9,0.5L5.9,0.5
			C5.9,0.4,5.9,0.5,5.9,0.5z M0.4,9c0.1-0.1,0.1,0.2,0.2,0C0.6,9,0.4,8.8,0.4,9z M13.7,6.3C13.7,6.2,13.7,6.2,13.7,6.3
			C13.7,6.2,13.7,6.2,13.7,6.3z M3.4,1.6C3.4,1.6,3.3,1.6,3.4,1.6C3.3,1.6,3.4,1.6,3.4,1.6z M2.6,2.4C2.5,2.4,2.5,2.4,2.6,2.4
			L2.6,2.4C2.5,2.4,2.5,2.4,2.6,2.4z M1.8,3.2C1.9,3.2,1.9,3.2,1.8,3.2C1.9,3.2,1.9,3.2,1.8,3.2L1.8,3.2z M12.2,11.6h0.1
			C12.2,11.6,12.3,11.4,12.2,11.6z M13.7,6.3L13.7,6.3L13.7,6.3L13.7,6.3z M3,2.9L3,2.9L3,2.9z M5.6,13.6L5.6,13.6L5.6,13.6z
			 M2.6,3.4C2.5,3.4,2.5,3.4,2.6,3.4L2.6,3.4L2.6,3.4z M14.4,7.8c0,0.3-0.2,0.1-0.2,0.2c0,0.1,0.1,0.2,0.1,0.3h-0.1
			c-0.1,0,0,0.1,0,0.1c-0.1,0-0.1,0.2-0.1,0.3h0.1c0,0.1,0,0.2,0,0.2c0,0.1-0.1,0.1-0.1,0.2C14,9.2,13.9,9.3,14,9.4
			c0,0.1,0.1,0.1,0.1,0.2H14c0,0.1,0.1,0.2,0,0.3s-0.1,0.2-0.2,0.4c-0.1,0.1-0.1,0.3-0.2,0.4c-0.1,0.1-0.1,0.3-0.2,0.4
			s-0.2,0.2-0.3,0.4c0,0,0,0,0.1,0c-0.2,0.1-0.3,0.3-0.4,0.5c-0.1,0.2-0.2,0.4-0.4,0.5v-0.1c-0.2,0.2,0-0.1-0.2,0
			c0.1,0.1-0.2,0.3-0.2,0.4c0,0,0-0.1,0.1-0.1c0,0-0.1-0.1-0.1,0s0,0.1-0.1,0.2c0,0.1-0.1,0.1-0.1,0.1c-0.1,0.1-0.2,0.2-0.3,0.3
			c-0.1-0.1-0.3,0-0.4,0c0,0,0,0.1,0,0.2c-0.1,0-0.1,0.1-0.2,0.1c0.1-0.1,0.1-0.1,0.2-0.1l0,0l0,0c0.1,0,0.1-0.1,0.1-0.1
			c0.1,0,0,0.1,0.1,0.1c-0.1,0-0.2,0.2-0.2,0.1c-0.1,0-0.1,0-0.1,0.1l-0.1,0.1l0,0l0,0c-0.2,0-0.3,0.2-0.4,0.4
			c0.1-0.2-0.1-0.1-0.1-0.2c0,0,0.1-0.1,0.3-0.1c0,0,0,0-0.1,0S10.4,14,10.4,14l-0.1,0.1c-0.1,0-0.1,0-0.2,0.1v-0.1
			c-0.1,0-0.1,0.1-0.1,0.1C9.7,14,9.5,14,9.4,14c-0.1,0.1,0,0.1-0.2,0.1L9.3,14c-0.2,0-0.1,0.1-0.3,0.1c0.1,0,0.1-0.1,0-0.1
			c-0.2,0.1-0.2,0.1-0.3,0.2v-0.1c-0.1,0.1-0.4,0.2-0.4,0.1c0.1,0.2-0.3,0.2-0.5,0.1c0.1,0,0.1-0.1,0.1-0.1c-0.3,0.1-0.6,0.1-0.9,0
			v0.2c-0.1,0-0.2,0.2-0.4,0.2l0.1-0.1c-0.1,0-0.2,0-0.4,0c-0.1,0-0.2,0-0.3-0.1v-0.1c-0.1,0-0.2,0-0.3,0c-0.1-0.1-0.2-0.1-0.5-0.2
			c-0.2,0-0.4-0.1-0.6-0.3l-0.1,0.1c-0.1-0.1-0.3-0.1-0.3-0.2l0,0c0.1-0.1-0.1-0.1-0.2-0.1c-0.1,0-0.2,0-0.1,0.1
			c-0.1-0.1-0.3-0.2-0.5-0.4c-0.1-0.1-0.2-0.1-0.2-0.2C3.1,13,3.1,13,3.1,12.9C3,13,2.8,13,2.7,12.9s-0.3-0.2-0.4-0.3l0,0
			c-0.1-0.1-0.2-0.3-0.1-0.4C2,12,1.9,12,1.8,11.9s-0.2-0.2-0.3-0.3h0.1c0-0.1-0.2-0.2-0.2-0.2l0,0c0-0.1-0.1-0.1-0.1-0.1h0.1
			c0-0.1-0.1-0.3-0.2-0.4c-0.1-0.1-0.2-0.3-0.3-0.5c0.1,0.1,0.1,0,0.1,0c-0.1,0-0.2-0.1-0.2-0.2C0.7,10.1,0.7,10,0.7,9.9L0.8,10
			C0.5,9.8,0.5,9.7,0.6,9.7c0-0.1,0-0.1-0.1-0.2v0.1c0-0.1-0.1-0.2-0.1-0.2c0-0.1,0.1-0.1,0.1-0.2c0.1,0,0.1,0.1,0.1,0.1L0.7,9l0,0
			l0,0l0,0V8.9c-0.3,0-0.2-0.3-0.4-0.1c0-0.2,0-0.4-0.1-0.6c0-0.2,0-0.3-0.1-0.5c0.1-0.1,0.1-0.2,0.1-0.4c0-0.1,0-0.3,0.2-0.2
			c0-0.2,0-0.3-0.1-0.5v0.1c-0.1-0.1,0-0.3,0-0.4c0,0.1,0.1,0.3,0.1,0.4c0-0.2-0.1-0.4-0.1-0.5h0.1C0.5,6.1,0.7,6.1,0.6,6H0.5
			c0.1-0.2-0.1-0.3,0-0.5h0.1V5.4c0,0,0-0.1,0.1-0.1c0,0.1,0,0.1-0.1,0.2c0.1,0,0.2-0.1,0.2-0.1c0-0.2-0.1-0.1-0.1-0.2
			c0.1,0,0.1,0,0.1,0.1c0-0.2,0.1-0.4,0.1-0.6l0,0C1.1,4.5,1,4.2,1.1,4.2v0.1C1.3,4.2,1.2,3.9,1.4,4c0.1-0.2-0.1,0,0.1,0
			c0.2-0.2-0.1-0.2,0.1-0.4l0,0c0.1-0.1,0.2-0.3,0.3-0.4c0,0,0.1,0,0.1-0.1c0.1,0,0.1-0.1,0.2-0.2c0.1-0.1,0.2-0.2,0.4-0.2
			c-0.1,0,0-0.1,0-0.1l0,0c0.1-0.1,0-0.1,0-0.1c0.1,0,0.1-0.2,0.2-0.2c0,0,0-0.1,0.1-0.1c-0.1,0.1,0,0.1,0,0.2C3,2.2,2.9,2,3.1,1.9
			h0.2C3.2,1.8,3.5,1.7,3.4,1.6c0.1,0,0.1,0,0.1,0.1c0.1-0.1,0.2-0.1,0.2-0.2H3.6c0.2,0,0.3-0.1,0.4-0.2c0,0,0.1-0.1,0.3-0.1
			l0.1,0.2c0.2,0,0.2-0.2,0.4-0.2c-0.1,0-0.1,0,0-0.1c-0.1,0-0.1,0.1-0.2,0.1l0-0.2L4.4,1.2c0.1-0.1,0.1-0.1,0-0.1
			C4.6,1,4.6,1.1,4.8,1c0.1,0,0,0.1,0.1,0.1C5,1,5.2,1.1,5.3,1c0.1,0-0.1,0,0,0.1C5.4,1,5.5,1,5.5,1H5.3c0.1,0,0.1-0.1,0.2-0.1
			c0.1-0.1,0.1-0.2,0-0.1c0,0,0.1,0,0.1,0.1c0.2-0.1,0.1-0.2,0.3-0.2l0,0c0.1,0,0.1,0,0.1,0C5.9,0.6,6.2,0.6,5.9,0.6
			c0.1,0.1,0.2,0,0.2,0c0.1-0.1,0-0.1,0-0.2h0.1v0c0.1,0,0.1,0,0.2-0.1L6.3,0.4c0.1,0,0.1,0,0.2,0h0.1c0.1,0,0.1,0,0.1,0
			c-0.1,0-0.1,0.1,0,0.1c0.2-0.1,0.1,0,0.2,0.1c0.2,0,0-0.1,0.3-0.1V0.4c0.2,0,0.3,0,0.5,0.1c-0.1,0-0.1-0.1,0-0.1
			C7.6,0.5,7.8,0.5,7.9,0.6l0,0c0.1,0.1,0,0.1-0.1,0.1c0,0,0,0-0.1,0S7.6,0.9,7.8,0.9C8,0.7,8,0.6,8,0.6c0.2,0.1,0.2-0.1,0.4-0.1
			c0.1,0,0.2,0.2,0.3,0.2c0.1-0.1-0.2-0.1-0.1-0.2C8.8,0.7,8.9,0.7,9,0.7s0.3,0,0.4,0.1v0.1C9.5,0.9,9.5,1,9.6,1l0-0.2
			c0.1,0,0.2,0.1,0.2,0.1c0.2,0,0.2,0,0.4,0.1c-0.2-0.1,0,0-0.1,0c0.1,0.1,0.2,0.1,0.3,0.1c0,0,0,0.1,0.1,0.1s0.3,0.1,0.5,0.1l0,0
			c0.1,0.1,0.2,0.1,0.3,0.2s0.1,0.1,0.2,0.1c0.1,0.1,0.1,0.1,0.2,0.1l0,0l0,0c0-0.1,0.2,0.1,0.3,0.1v0.1c0.1-0.1,0.1,0,0.2,0
			c0.1,0.1-0.1,0.1,0,0.2c0.1,0,0.1,0,0.1,0c0,0.1,0.1,0.2,0.1,0.2l-0.1-0.1c-0.1,0,0,0.1,0,0.1c0.1,0.1,0.1-0.1,0.1,0.1H12l0.1,0.1
			c-0.1,0-0.1,0-0.1,0.1c0.2,0.1,0.2-0.1,0.2-0.2c0.1,0.2,0.3,0.2,0.4,0.4h-0.1C12.6,3,12.7,3,12.7,3l0.1,0.1c-0.1,0-0.1,0-0.2,0
			c0.1,0.1,0.2,0.2,0.3,0.2l0,0c0.1,0.2,0.2,0.5,0.2,0.5c0.1,0.1,0.2,0.4,0.3,0.3c0,0.1,0.1,0.1,0.1,0.2s0,0.1,0.1,0.1
			c0,0.1,0,0-0.1,0c0,0.1,0.2,0.2,0.1,0.3c0.1,0.1,0-0.1,0.1,0c-0.1,0.1-0.1,0.1,0,0.2c0,0.1,0.1,0.2,0.1,0.2c0.1,0,0-0.1,0.1,0
			c-0.1,0,0,0.1,0,0.1H14c-0.1,0.1-0.1,0.1-0.2,0.2c0.2,0.2,0.1-0.1,0.3,0.2l0,0C14,5.7,14.2,5.8,14.2,6c0-0.1-0.1,0-0.1,0l0.1,0.1
			l0,0c-0.1,0.1,0.1,0.1,0,0.2c0-0.1-0.1,0-0.1,0l0.1,0.1l-0.1-0.1c0,0.2,0.2,0.4,0.1,0.5V6.7c0,0-0.1,0.1,0,0.2c0,0,0.1,0.1,0.1,0
			V7c-0.1,0-0.1-0.2-0.2-0.3c0.1,0,0.1,0.1,0.1,0.1c-0.1-0.1-0.1-0.2-0.2-0.3c0.1,0,0.1,0.1,0.1,0.1c0-0.1-0.1-0.1-0.1-0.2l0.1-0.1
			C14,6.2,14,6.1,14,6c0,0,0.1,0.1,0.1,0c-0.1-0.2-0.2-0.2-0.3-0.4c-0.1-0.1-0.1-0.2-0.2-0.4c0-0.1,0-0.2-0.1-0.3
			c-0.1,0,0,0.1-0.1,0.1c0.1,0,0-0.1,0.1-0.1c-0.2-0.1-0.1-0.2-0.2-0.2V4.6c0.1,0,0-0.1,0.2,0c-0.1,0-0.1-0.1-0.1-0.1l-0.1-0.1
			c-0.1-0.1-0.1-0.1-0.2-0.1v0.1L13,4l0,0c0,0-0.1,0-0.1-0.2C13,3.8,13,3.9,13,3.9c0-0.1-0.2-0.1-0.2-0.2c0.1,0,0.1,0.1,0.1,0
			c-0.1-0.1-0.1-0.1-0.2-0.2l0,0c-0.1-0.2-0.2,0.1-0.2-0.1c0,0-0.1,0-0.1,0.1c0-0.1-0.1-0.2,0.1-0.1c-0.1-0.1-0.1-0.1-0.2-0.1
			c0,0.1,0,0.1,0,0.1l-0.2-0.2h0.1c0-0.1-0.1-0.2-0.1-0.2S12,2.8,11.9,2.8s-0.2-0.1-0.2-0.2l-0.1-0.1l-0.1-0.1c0,0.1-0.1,0-0.1,0
			c-0.1-0.1-0.2-0.2-0.3-0.3h0.1c-0.3-0.1-0.5-0.2-0.6-0.3c0,0,0-0.1,0.1-0.1c-0.2,0-0.2-0.3-0.3-0.2h0.1c-0.3,0-0.5,0-0.6,0
			c-0.2,0-0.3-0.1-0.4-0.1c0-0.1,0.2,0.1,0.1-0.1C9.5,1.2,9.4,1.2,9.3,1.2c-0.1,0-0.2,0-0.3-0.1c0,0,0,0,0.1,0C8.9,1,9,1.2,8.9,1.1
			c0-0.1,0-0.1,0-0.1L8.8,1.1V1C8.7,1.1,8.5,0.9,8.4,1c0,0,0.1-0.1,0-0.2s-0.2,0-0.2,0l0,0H8c-0.1-0.1,0,0-0.1,0.1H8L7.8,1l0.1-0.1
			c-0.1-0.1-0.2,0-0.4,0V1H7.4c0-0.1-0.2,0-0.1-0.2C7,0.8,6.8,1,6.6,1c0.1,0,0,0,0-0.1C6.5,1,6.4,1,6.3,1.1c0,0,0.1-0.1,0-0.1
			c0,0-0.1,0-0.1,0.1L6.1,1.2c0.1-0.1,0-0.1,0-0.1c0,0.1,0,0.1-0.1,0.1c0.1-0.3-0.2,0-0.2-0.2c0,0.1-0.3,0.2-0.2,0.3h0.1
			c0,0.1-0.1,0.1-0.1,0.1s0.1,0,0.1-0.1c-0.1,0-0.1,0.1-0.2,0.1S5.4,1.5,5.3,1.5c-0.2,0-0.3,0-0.4,0.1c0,0,0.1-0.1,0-0.1
			S4.6,1.6,4.6,1.7C4.5,1.8,4.5,1.8,4.4,1.8S4.3,1.9,4.3,2c-0.1-0.1,0-0.1,0.1-0.2s0.1-0.1,0.1-0.2L4.4,1.7L4.3,1.8
			c0,0.1-0.1,0.1-0.2,0.2c0,0-0.1,0.1-0.2,0.1S3.8,2.3,3.8,2.3C3.5,2.2,3.6,2.6,3.3,2.6c0.1,0.1,0,0.1-0.1,0.2c0-0.1-0.1,0-0.1-0.1
			c0,0.1-0.2,0.4-0.3,0.2C2.9,3,2.6,3.1,2.7,3.2C2.5,3.4,2.5,3.6,2.3,3.7c0.1,0-0.1,0.2-0.1,0.2V3.8C2.1,3.8,2.1,4,2.1,4
			C2,4,2,3.9,2,4c0.1,0,0,0.3-0.1,0.3V4.2C1.8,4.6,1.7,4.8,1.6,5c0,0.2-0.1,0.4-0.1,0.6L1.4,5.5C1.2,5.8,1.5,5.7,1.5,5.9
			C1.5,6,1.4,6,1.4,6.1L1.3,6.4c0,0.1-0.1,0.3-0.1,0.4c-0.1,0.3-0.1,0.6,0,0.9c0,0.1,0,0,0.1,0c0,0.1-0.1,0.1,0,0.1h0.1
			C1.4,7.9,1.3,8,1.3,8c0,0.1,0,0.2,0.1,0.3c0.1,0.2,0.1,0.4,0,0.5C1.3,8.9,1.3,9,1.3,9.1s0,0.1,0.1,0.2c0,0.1,0.1,0.1,0.1,0.2
			c0,0.1-0.1-0.1-0.1,0.1l0.2,0.2l0,0l0.1,0.1L1.8,10c0,0.1,0.1,0.2,0.1,0.3c0,0.2,0.1,0.4,0.2,0.5l0,0v0.1c0,0,0,0,0-0.1
			c0.1,0.1,0.1,0.1,0.1,0.1c0.1,0,0.1,0.1,0.1,0.1c0.1,0.1,0.1,0.1,0.2,0.2c-0.1-0.1,0,0.1,0,0.2c0.1,0,0.1-0.1,0.2,0
			c0.1,0.1,0.2,0.3,0.3,0.5c0.1,0,0.2,0.1,0.2,0C3.3,12,3.4,12,3.4,12.1l0.1,0.1c0.1,0,0.1,0.1,0.2,0.1l0,0c0.1-0.1,0.2,0.2,0.2,0.2
			s-0.1,0-0.1,0.1l0.1,0.1c-0.1,0-0.2,0.1-0.1,0.1c0.1,0,0-0.1,0.1-0.1v0.1c0.1,0,0.2-0.1,0.1-0.1c0.2,0.1,0.5,0.2,0.7,0.4l-0.1,0.1
			c0.1,0,0.3,0.1,0.4,0.2c0,0,0.1,0,0.1-0.1c0.2,0,0,0.1,0.1,0.1c-0.1,0-0.1,0-0.1,0l0.4,0.1c0,0,0,0.1,0.1,0.1
			c0.1,0.1,0.1,0.1,0.2,0.1c0,0,0-0.1-0.1-0.1h0.1l0.1,0.1l0.2-0.1v0.1c0.1,0,0.2-0.1,0.2-0.1c0.3,0.1,0.2,0.1,0.4,0.2
			c0-0.1,0.1-0.1,0.2-0.1s0.2,0,0.2,0c0.1,0,0.1,0.1,0.2,0.1s0.1,0,0.1,0h0.1c0.2,0,0.4,0,0.6,0l0,0c0.2,0.1,0.2-0.2,0.3-0.2l0,0
			c0.1,0,0.1,0,0.2,0c0.1,0,0.1,0,0.2-0.1c0.1-0.1,0.3-0.1,0.4-0.2c0,0,0,0.1,0.1,0.1c0.1-0.1-0.1-0.1,0-0.1v0.1l0.1-0.1
			c0.2,0,0.3-0.1,0.5-0.1c0.2-0.1,0.3-0.1,0.4-0.2c0.1,0,0.1,0.1,0.1,0.1c0.1-0.1,0.2-0.2,0.3-0.2c0.1-0.1,0.2-0.2,0.3-0.2l0.1,0.1
			c0.1-0.1,0-0.2,0.1-0.2l-0.1,0.1c0.2-0.1,0.1-0.2,0.2-0.3v0.1c0.2-0.1,0.1-0.2,0.1-0.2c0.1-0.2,0.3,0.1,0.4-0.2
			c0-0.1-0.1-0.1-0.1-0.1c0.2-0.1,0.1-0.2,0.3-0.4c0.2,0-0.1,0.1,0.1,0.1L12,11.8c0.2-0.1-0.1,0.1,0,0.2c0.1-0.1,0.1-0.2,0.2-0.4
			c0.1,0.1-0.1,0.1,0,0.2v-0.1v0.1c0.1,0,0.1-0.1,0.1-0.1l-0.1-0.1l0,0c0-0.2,0.2-0.3,0.2-0.5c0,0,0,0,0.1,0V11c0-0.1,0-0.1,0-0.2
			c0.1,0,0.1,0.1,0.2-0.1c-0.1-0.1-0.2-0.1-0.1-0.2c0,0,0,0.1,0.1,0.1c0-0.2,0.1,0,0.2-0.1c0-0.1,0.1-0.1,0-0.2c0.1,0,0.1,0,0.2-0.1
			c-0.1,0,0-0.2-0.1-0.2c0.1,0,0.1,0.2,0.2,0.1c0-0.1,0-0.3-0.1-0.3c0.1-0.1,0.1-0.1,0.1-0.2c0,0,0,0,0,0.1c0-0.2,0.2-0.4,0-0.6
			c0.2,0.1,0.1-0.4,0.2-0.2c0-0.1,0-0.2-0.1-0.2c0.1,0,0.1,0,0.1-0.1s0-0.1,0.1-0.2c-0.1-0.1,0-0.2-0.1-0.3c0,0,0,0.1,0.1,0.1
			c-0.1-0.1,0-0.1,0.1-0.1c0-0.1-0.1,0-0.2-0.1c0.1-0.1,0.1,0,0.2,0l-0.1-0.2l0.1-0.1c0-0.1-0.1-0.1,0-0.2v0.1l0.1-0.1l-0.1-0.2
			c0.1-0.1,0.1-0.1,0.2-0.2l0,0V7l0.1,0.1c0,0,0,0,0,0.1c0.1,0,0.1,0,0.2,0v0.1c0.1,0,0.1-0.1,0.1-0.1C14.2,7.4,14.3,7.6,14.4,7.8z
			 M10.2,13.3c-0.1,0-0.1,0.1-0.1,0.1C10.1,13.4,10.2,13.3,10.2,13.3C10.2,13.4,10.2,13.4,10.2,13.3z M10.4,13.2
			C10.3,13.2,10.3,13.2,10.4,13.2L10.4,13.2C10.3,13.2,10.4,13.2,10.4,13.2z M10.9,13.6L10.9,13.6C10.9,13.7,10.9,13.7,10.9,13.6
			L10.9,13.6C10.9,13.5,10.9,13.6,10.9,13.6z M5.1,13.4L5.1,13.4L5.1,13.4z M10.9,13.5C10.9,13.5,10.9,13.4,10.9,13.5
			C10.9,13.4,10.9,13.4,10.9,13.5L10.9,13.5L10.9,13.5z M11.3,1.9L11.3,1.9L11.3,1.9L11.3,1.9z M5.9,13.6L5.9,13.6L5.9,13.6
			L5.9,13.6z M12.4,3.3L12.4,3.3C12.4,3.4,12.4,3.4,12.4,3.3z M12.8,3.9L12.8,3.9C12.8,4,12.8,4,12.8,3.9z M13.1,4.5L13.1,4.5
			L13.1,4.5L13.1,4.5z M5.5,1.4L5.5,1.4C5.4,1.4,5.5,1.4,5.5,1.4z M8.1,0.9H8C8,1,8.1,1,8.1,0.9z M3,2.9L3,2.9L3,2.9L3,2.9z
			 M7.9,0.9C7.9,1,8,1,7.9,0.9L7.9,0.9z M13.8,6.8L13.8,6.8L13.8,6.8L13.8,6.8z M13.8,6.8L13.8,6.8L13.8,6.8z M13.8,6.8
			C13.8,6.9,13.8,6.9,13.8,6.8L13.8,6.8z M13.6,5.8c0,0.1,0,0.1,0,0.2l0,0C13.6,6,13.7,5.9,13.6,5.8z M13.8,4.9
			c0-0.3-0.1,0.1-0.1-0.2C13.7,4.8,13.7,4.9,13.8,4.9C13.7,4.9,13.8,4.9,13.8,4.9z M13.5,4.2C13.5,4.1,13.4,4.1,13.5,4.2
			C13.5,4.3,13.5,4.2,13.5,4.2z M10.2,1.1C10.1,1.1,10.2,1.1,10.2,1.1L10.2,1.1z M9.3,1.3H9.2C9.3,1.3,9.3,1.3,9.3,1.3L9.3,1.3z
			 M8.9,0.6L8.9,0.6L8.9,0.6L8.9,0.6z M1.9,3L2,3.1C2,3,1.9,2.9,1.9,3z M0.5,6c0,0-0.1,0.1,0,0.2C0.5,6.1,0.5,6.1,0.5,6z M4.8,14.2
			L4.8,14.2L4.8,14.2L4.8,14.2z"/>
	</g>
	<path class="st0" d="M9,5.7c0,0-0.5-0.1-0.6-0.1c-0.5,0-0.6,0.2-0.6,0.5v0.8h1.1L8.7,8.1h-1v3.2H6.5V8.1h-1V6.9h1V6.1
		c0-1,0.6-1.7,1.5-1.7c0,0,0.8,0.2,0.9,0.2L9,5.7L9,5.7z"/>
</g>
<path class="st1" d="M-22.5,27.8L-22.5,27.8c-0.1,0.1-0.2,0.1-0.2,0.1C-22.8,28-22.7,27.9-22.5,27.8z"/>
<path class="st1" d="M26.7,13C26.7,13,26.7,13.1,26.7,13C26.7,13.1,26.7,13.1,26.7,13C26.7,13,26.7,13,26.7,13z"/>
</svg>
