<?xml version="1.0" encoding="utf-8"?>
<!-- Generator: Adobe Illustrator 21.0.0, SVG Export Plug-In . SVG Version: 6.00 Build 0)  -->
<svg version="1.1" id="Layer_2" xmlns="http://www.w3.org/2000/svg" xmlns:xlink="http://www.w3.org/1999/xlink" x="0px" y="0px"
	 viewBox="0 0 14.6 14.8" style="enable-background:new 0 0 14.6 14.8;" xml:space="preserve">
<style type="text/css">
	.st0{fill:#490E0E;}
</style>
<g>
	<path class="st0" d="M12.5,12.5l-0.2,0C12.3,12.5,12.4,12.6,12.5,12.5z"/>
	<polygon class="st0" points="12.3,12.5 12.3,12.5 12.3,12.5 	"/>
	<path class="st0" d="M1.5,3.6C1.5,3.6,1.5,3.6,1.5,3.6C1.5,3.6,1.5,3.6,1.5,3.6z"/>
	<path class="st0" d="M14.4,7.6c0,0-0.1,0.1-0.1,0.1l0-0.1c0,0-0.1,0-0.1,0c0-0.1,0-0.1,0-0.2c0,0,0,0.1,0,0.1
		c0.1-0.1,0.1-0.2,0-0.3c0,0,0.1,0,0.1,0c0,0-0.1-0.1-0.1-0.1c0-0.1,0-0.1,0-0.2l0-0.1c0,0,0,0,0,0c0-0.1,0-0.1,0-0.1l0,0
		c0.1-0.1,0-0.2-0.1-0.4c0,0,0,0,0-0.1c0,0,0,0,0-0.1l0.1,0.1L14,6.3c0,0,0.1-0.1,0.1,0c0.1-0.1-0.1-0.1,0-0.2c0,0,0,0,0,0L14.1,6
		c0,0,0.1,0,0.1,0c0-0.2-0.2-0.3-0.1-0.4l0,0c-0.1-0.2-0.1,0-0.3-0.2c0.1-0.1,0.1-0.1,0.2-0.2h-0.1c0,0,0-0.1,0-0.1
		c-0.1-0.1,0,0-0.1,0c0-0.1,0-0.2-0.1-0.2c-0.1-0.1-0.1-0.1,0-0.2c-0.1,0,0,0.1-0.1,0c0.1-0.1-0.1-0.1-0.1-0.3c0.1,0,0.1,0.1,0.1,0
		c-0.1,0-0.1-0.1-0.1-0.1c0-0.1,0-0.1-0.1-0.2c-0.1,0.1-0.2-0.2-0.3-0.3c0.1,0-0.1-0.3-0.2-0.5c0.1,0,0.2,0,0.1-0.1
		c0.1-0.1,0.1-0.1,0.2,0c0,0-0.1-0.1-0.1-0.1c-0.1,0-0.1,0-0.1-0.1l0.1,0c-0.1-0.1-0.3-0.2-0.4-0.4c-0.1,0.1-0.2-0.1-0.3-0.1
		c0-0.1,0.1-0.1,0.1-0.1c0,0-0.1,0-0.1-0.1h0.1c-0.1-0.1-0.1,0-0.1-0.1c0.1-0.1,0-0.1,0-0.1c0,0,0,0.1,0.1,0.1
		c-0.1-0.1-0.1-0.2-0.1-0.2c0,0-0.1,0.1-0.1,0c-0.1-0.1,0-0.1,0-0.2c-0.1,0-0.1-0.1-0.2,0c0,0,0-0.1,0-0.1c-0.1,0-0.2-0.1-0.3-0.1
		l0,0.1c0,0,0,0-0.1,0c0,0,0,0,0,0l0,0h0c-0.1,0-0.1-0.1-0.2-0.1c-0.1-0.1-0.4-0.3-0.5-0.3l0,0c-0.2-0.1-0.4,0-0.4,0
		c-0.1,0-0.1,0-0.3-0.1c0.1,0,0-0.1,0.1,0C10.3,1.1,10.3,1,10.1,1C10.2,1,9.7,0.8,9.6,0.8l0.1,0.1c-0.1,0-0.2-0.1-0.2-0.1l0.1-0.1
		C9.4,0.6,9.2,0.6,9.1,0.6c-0.2,0-0.3,0-0.4-0.1C8.6,0.6,8.8,0.6,8.8,0.7C8.6,0.6,8.5,0.5,8.4,0.5C8.2,0.4,8.2,0.6,8,0.5
		c0,0.1,0,0.1-0.1,0.2c-0.1,0-0.2-0.2-0.1-0.2c0,0,0.1,0,0.1,0c0.1,0,0.1,0,0.1-0.1l0,0C7.8,0.5,7.6,0.5,7.7,0.4
		c-0.1,0-0.1,0.1,0,0.1c-0.2,0-0.2,0-0.4,0c0,0,0.1,0.1,0,0.1c-0.3,0-0.1,0.1-0.3,0.1c-0.1-0.1,0-0.1-0.2-0.1c-0.1,0,0-0.1,0-0.1
		c-0.1,0-0.1,0-0.1,0c-0.1,0-0.1,0-0.1,0c-0.1,0-0.2,0-0.2,0l0.1-0.1c-0.1,0-0.1,0.1-0.2,0.1l0.1,0.1c-0.1,0-0.1,0-0.1,0
		c-0.1,0.1,0.1,0.1,0,0.2c-0.1,0-0.2,0.1-0.2,0c0.2,0-0.1-0.1,0.1-0.1c0,0-0.1,0-0.1,0c0,0,0,0,0,0c-0.2,0-0.1,0.1-0.3,0.2
		c0-0.1-0.1-0.1-0.1-0.1c0.1,0,0.1,0.1,0,0.1c-0.2,0-0.1,0.1-0.2,0.1h0.1c0,0.1-0.1,0.1-0.2,0.1c0,0,0.1-0.1,0-0.1
		C5.2,1,5,0.9,4.8,1c-0.1,0,0-0.1-0.1-0.1C4.6,1,4.5,0.9,4.4,1c0.1,0,0.1,0,0,0.1L4.6,1L4.5,1.2C4.6,1.1,4.6,1,4.7,1
		c-0.1,0.1-0.1,0.1,0,0.1C4.5,1.1,4.5,1.3,4.3,1.3L4.2,1.1C4.1,1.2,4,1.2,3.9,1.3C3.8,1.4,3.8,1.5,3.6,1.5l0.1,0
		c0,0.1-0.1,0.1-0.2,0.2c0-0.1-0.1-0.1-0.1-0.1c0,0-0.2,0.1-0.1,0.2l-0.2,0C2.9,2,3,2.2,2.8,2.3c0-0.1-0.1-0.1,0-0.2
		C2.7,2.2,2.6,2.2,2.7,2.2c-0.1,0-0.1,0.2-0.2,0.2c0,0,0,0.1,0,0.1c0,0,0,0,0,0c0,0-0.1,0.1,0,0.1c-0.1,0-0.2,0.1-0.4,0.2
		C2.1,3,2,3,2,3.1c0,0,0,0-0.1,0.1C1.9,3.2,1.8,3.2,1.8,3.2C1.7,3.4,1.6,3.5,1.5,3.7c0,0,0,0,0,0C1.4,3.8,1.6,3.9,1.4,4
		c-0.1,0.1,0-0.1-0.1-0.1C1.1,3.8,1.2,4.2,1,4.2V4.2C0.9,4.3,1,4.5,0.9,4.7l0,0c0,0.2,0,0.4-0.1,0.6c-0.1-0.1,0-0.1-0.1-0.1
		c0,0.1,0.1,0,0.1,0.2c-0.1,0-0.1,0.1-0.2,0.1c0-0.1,0-0.1,0.1-0.2c-0.1,0-0.1,0.1-0.1,0.1c0,0.1,0,0.1,0,0.1l-0.1,0
		c-0.1,0.2,0.1,0.3,0,0.5l0.1,0c0.1,0.2-0.1,0.1,0,0.2l-0.1,0c0,0.1,0.1,0.4,0.1,0.5C0.3,6.7,0.3,6.5,0.3,6.4c0,0.1,0,0.3,0,0.4
		c0-0.1,0-0.1,0-0.1C0.4,6.8,0.4,7,0.4,7.1c-0.1,0-0.1,0.1-0.2,0.2c0,0.1,0,0.3-0.1,0.4c0.1,0.2,0.1,0.3,0.1,0.5
		c0,0.2,0,0.4,0.1,0.6c0.2-0.2,0,0.1,0.2,0.1C0.5,9,0.5,9,0.5,9v0c0,0,0.1,0,0.1,0c0,0.1-0.1,0.1-0.1,0.1l0,0.2
		c0,0.1-0.1-0.1-0.1-0.1c0,0.2-0.1,0.1-0.1,0.2c0.1-0.1,0.1,0.1,0.1,0.2l0.1-0.2c0.1,0.1,0.1,0.2,0.1,0.2c0,0.1,0,0.1,0.1,0.2
		L0.4,10c0,0.1,0.1,0.2,0.1,0.3c0.1,0.1,0.2,0.2,0.2,0.2c0,0,0,0.1-0.1,0C0.8,10.7,0.9,10.9,1,11c0.1,0.1,0.2,0.3,0.2,0.4H1.2
		c0.1,0.1,0.1,0.1,0.1,0.1c0,0-0.1,0,0,0s0.2,0.1,0.2,0.2l-0.1,0c0.1,0.1,0.2,0.2,0.3,0.3c0.1,0.1,0.2,0.1,0.3,0.2
		c-0.1,0.1,0.1,0.3,0.1,0.4l0,0c0.1,0.1,0.3,0.2,0.4,0.3c0.1,0.1,0.3,0.1,0.5,0.2c0,0.1,0.1,0.1,0.1,0.2c0.1,0.1,0.2,0.1,0.2,0.2
		c0.2,0.1,0.4,0.2,0.5,0.4c0-0.1,0.1-0.1,0.1-0.1c0.1,0.1,0.2,0,0.2,0.1l0,0c0,0.1,0.2,0.2,0.3,0.2l0.1-0.1c0.1,0.2,0.4,0.2,0.6,0.3
		c0.2,0,0.5-0.1,0.5,0c0.1,0,0.2,0,0.3,0l0,0.1c0.1,0,0.2,0.1,0.3,0.1c0.1,0,0.2,0.1,0.4,0l-0.1,0.1c0.2,0,0.2-0.2,0.4-0.2L7,14.5
		c0.3,0,0.6,0.1,0.9,0c0,0,0,0.1-0.1,0.1c0.1,0,0.5,0,0.5-0.1c0,0.1,0.3,0.2,0.4,0.1l0-0.1c0.1-0.1,0.1,0,0.2,0c0.1,0,0.1,0.1,0,0.1
		c0.2,0,0.1-0.1,0.3-0.1l-0.1,0.1c0.1,0,0.1-0.1,0.2-0.1c0.1-0.1,0.5-0.1,0.5,0C9.9,14.1,10,14,10,14c0,0,0,0.1,0,0.1
		c0.1,0,0.1,0,0.2-0.1s0.1-0.1,0.1-0.1c0.1-0.1,0.1-0.1,0.2-0.1c0,0,0,0,0.1,0c-0.2,0.1-0.3,0.1-0.3,0.1c0,0.1,0.2,0,0.1,0.2
		c0.1-0.1,0.2-0.3,0.4-0.4c0,0,0,0,0,0l0,0c0,0,0.1,0,0.1-0.1c0.1,0,0.1,0,0.1-0.1c0,0,0,0,0.1,0c0,0,0,0,0,0c0,0,0.1,0,0.1-0.1
		c0,0,0,0,0,0.1c0.1,0,0.1-0.1,0.1-0.1c-0.1-0.1,0.1-0.1-0.1-0.1c0,0,0,0-0.1,0.1c0,0,0,0,0,0c0,0,0,0,0,0c0,0-0.1,0.1-0.2,0.1
		c0-0.1,0.1-0.1,0.2-0.1c0-0.1,0-0.1,0-0.2c0.2,0.1,0.4,0,0.4,0c0.1-0.1,0-0.1,0.1-0.3c0.1-0.1,0.1-0.1,0.1-0.1
		c0-0.1,0.1-0.1,0.1-0.2c0-0.1,0.1,0,0.1,0c0,0-0.1,0.1-0.1,0.1c0.1-0.1,0.3-0.3,0.2-0.4c0.1,0,0.1,0,0.2,0c0.2-0.1,0.4-0.3,0.5-0.5
		c0.1-0.2,0.1-0.3,0.3-0.4h0c0.1-0.1,0.2-0.2,0.3-0.4c0.1-0.1,0.2-0.2,0.2-0.4c0.1-0.1,0.1-0.3,0.2-0.4c0.1-0.1,0.1-0.2,0.2-0.4
		s0-0.2,0-0.3h0.1C14,9.7,14,9.6,14,9.5c0-0.1,0-0.3,0-0.4c0-0.1,0.1-0.1,0.1-0.2c0-0.1,0-0.1,0-0.2l-0.1,0c0-0.1,0-0.4,0.1-0.3
		c0,0-0.1-0.1,0-0.1h0.1c0-0.1,0-0.2-0.1-0.3c0.1-0.2,0.2,0.1,0.2-0.2C14.6,7.9,14.5,7.7,14.4,7.6z M8.4,5.6c-0.5,0-0.6,0.2-0.6,0.5
		v0.8h1.1L8.7,8.1h-1v3.2H6.5V8.1h-1V6.8h1V6.1c0-1,0.6-1.7,1.5-1.7c0,0,0.8,0.2,0.9,0.2L9,5.6C9,5.6,8.5,5.6,8.4,5.6z"/>
</g>
</svg>
