<?xml version="1.0" encoding="utf-8"?>
<!-- Generator: Adobe Illustrator 21.0.0, SVG Export Plug-In . SVG Version: 6.00 Build 0)  -->
<svg version="1.1" id="Layer_2" xmlns="http://www.w3.org/2000/svg" xmlns:xlink="http://www.w3.org/1999/xlink" x="0px" y="0px"
	 viewBox="0 0 14.6 14.8" style="enable-background:new 0 0 14.6 14.8;" xml:space="preserve">
<style type="text/css">
	.st0{fill:#FFFFFF;}
</style>
<g>
	<path class="st0" d="M7.3,6.4c-0.6,0-1,0.5-1,1c0,0.6,0.5,1,1,1s1-0.5,1-1C8.3,6.8,7.9,6.4,7.3,6.4z"/>
	<path class="st0" d="M8.9,5C7.8,4.9,6.8,4.9,5.8,5C5.3,5,5,5.4,4.9,5.8c-0.1,1.1-0.1,2.1,0,3.1C5,9.3,5.4,9.7,5.8,9.7
		c0.5,0,1,0.1,1.5,0.1s1,0,1.5-0.1c0.4,0,0.8-0.4,0.8-0.8c0.2-1,0.2-2,0-3.1C9.6,5.4,9.2,5,8.9,5z M8.7,7.3c0,0.8-0.7,1.5-1.5,1.5
		c-0.7,0-1.4-0.7-1.4-1.5c0-0.7,0.7-1.4,1.5-1.4S8.8,6.6,8.7,7.3z M8.9,6.1C8.7,6.1,8.6,6,8.6,5.8s0.1-0.3,0.3-0.3s0.3,0.1,0.3,0.3
		S9.1,6.1,8.9,6.1z"/>
	<path class="st0" d="M1.4,3.4L1.4,3.4L1.4,3.4z"/>
	<path class="st0" d="M14.4,7.4l-0.1,0.1V7.4l0,0V7.3c0.1-0.1,0.1-0.2,0-0.2l0,0h0.1c0,0,0,0-0.1-0.1c0-0.1,0-0.3-0.1-0.4
		c0-0.1,0-0.1,0-0.1c0-0.1,0-0.2-0.1-0.2h0.1l-0.1-0.1V6.1h0.1c0.1-0.1-0.1-0.1,0-0.2l0,0l-0.1-0.1h0.1c0-0.2-0.2-0.3-0.1-0.4l0,0
		c-0.1-0.2-0.1,0-0.2-0.1V5.2C14,5.1,14,5.1,14.1,5H14V4.9c-0.1-0.1,0,0-0.1,0c0-0.1,0-0.2-0.1-0.2c-0.1-0.1-0.1-0.1,0-0.2
		c-0.1,0,0,0.1-0.1,0c0.1-0.1-0.1-0.1-0.1-0.3c0.1,0,0.1,0.1,0.1,0c-0.1,0-0.1-0.1-0.1-0.1c0-0.1,0-0.1-0.1-0.2
		c-0.1,0.1-0.2-0.2-0.3-0.3c0.1,0-0.1-0.3-0.2-0.5c-0.1,0-0.2-0.1-0.3-0.2c0.1-0.1,0.1-0.1,0.2,0l-0.1-0.1c-0.1,0-0.1,0-0.1-0.1h0.1
		c-0.1-0.1-0.3-0.2-0.4-0.4c-0.1,0.1-0.1,0.2-0.2,0.2c0,0,0,0-0.1-0.1l0.1-0.1c0,0-0.1,0-0.1-0.1h0.1c-0.1-0.1-0.1,0-0.1-0.1
		c0.1-0.1,0-0.1,0-0.1s0,0.1,0.1,0.1C12.1,2.2,12,2.1,12,2c0,0-0.1,0.1-0.1,0c-0.1-0.1,0-0.1,0-0.2c-0.1,0-0.1-0.1-0.2,0V1.7
		c-0.1,0-0.2-0.1-0.3-0.1v0.1c0,0,0,0-0.1,0l0,0l0,0l0,0c-0.1,0-0.1-0.1-0.2-0.1C11,1.5,11,1.5,10.9,1.5c-0.1-0.1-0.2-0.2-0.3-0.2
		l0,0c-0.2-0.1-0.3-0.1-0.5-0.1C10,1.2,10,1.1,10,1.1c-0.1,0-0.1,0-0.3-0.1c0.1,0,0-0.1,0.1,0c0.1-0.3,0.1-0.3-0.1-0.3
		c0.1-0.1-0.1-0.1-0.2-0.1l0.1,0.1c-0.1,0-0.2-0.1-0.2-0.1l0.1-0.1C9.3,0.4,9.2,0.4,9,0.4s-0.3,0-0.4-0.1C8.5,0.4,8.8,0.4,8.7,0.5
		C8.6,0.4,8.4,0.3,8.4,0.3C8.2,0.2,8.2,0.4,8,0.3c0,0.1,0,0.1-0.1,0.2c-0.1,0-0.2-0.2-0.1-0.2h0.1C8,0.3,8,0.3,8,0.2l0,0
		c-0.2,0-0.4,0-0.4,0c-0.1,0-0.1,0.1,0,0.1c-0.2,0-0.2,0-0.4,0c0,0,0.1,0.1,0,0.1C6.9,0.2,7,0.3,6.8,0.4c-0.1-0.1,0-0.1-0.2-0.1
		c-0.1,0,0-0.1,0-0.1c-0.1,0-0.1,0-0.1,0c-0.1,0-0.1,0-0.1,0c-0.1,0-0.2,0-0.2,0l0.1-0.1c-0.1,0-0.1,0.1-0.2,0.1l0.1,0.1
		c-0.1,0-0.1,0-0.1,0c-0.1-0.1,0.1,0,0,0.1c-0.1,0-0.2,0.1-0.2,0c0.2,0-0.1-0.1,0.1-0.1H5.9l0,0c-0.2,0-0.1,0.1-0.3,0.2
		c0-0.1-0.1-0.1-0.1-0.1c0.1,0,0.1,0.1,0,0.1c-0.2,0-0.1,0.1-0.2,0.1h0.1c0,0.1-0.1,0.1-0.2,0.1c0,0,0.1-0.1,0-0.1
		c-0.1,0.1-0.3,0-0.4,0.1c-0.1,0,0-0.1-0.1-0.1c-0.1,0.1-0.2,0-0.4,0.1c0.1,0,0.1,0,0,0.1l0.2-0.2L4.4,0.9c0.1-0.1,0.2-0.1,0.2-0.1
		c-0.1,0.1-0.1,0.1,0,0.1c-0.1,0-0.2,0.2-0.4,0.2L4.1,0.9C4,0.9,3.9,1,3.8,1.1c0,0.1-0.1,0.1-0.3,0.2h0.1c0,0.1-0.1,0.1-0.2,0.2
		c0-0.1-0.1-0.1-0.1-0.1S3.1,1.5,3.2,1.6L3,1.7C2.8,1.8,2.9,2,2.7,2.1c0-0.1-0.1-0.1,0-0.2C2.6,1.9,2.6,2,2.6,2
		C2.5,2,2.5,2.2,2.4,2.2v0.1l0,0c0,0-0.1,0.1,0,0.1C2.2,2.5,2.1,2.6,2,2.7c0,0.1-0.1,0.1-0.1,0.1s0,0-0.1,0.1c0,0-0.1,0.1-0.1,0.1
		C1.6,3.1,1.5,3.3,1.4,3.4l0,0C1.3,3.6,1.5,3.6,1.3,3.8c-0.1,0.1,0-0.1-0.1-0.1C1,3.6,1.1,3.9,0.9,4l0,0c-0.1,0,0,0.3-0.1,0.5l0,0
		c0,0.2,0,0.4-0.1,0.6C0.6,5,0.7,5,0.6,5c0,0.1,0.1,0,0.1,0.2c-0.1,0-0.1,0.1-0.2,0.1c0-0.1,0-0.1,0.1-0.2c-0.1,0-0.1,0.1-0.1,0.1
		c0,0.1,0,0.1,0,0.1H0.4c-0.1,0.2,0.1,0.3,0,0.5h0.1C0.6,6,0.4,5.9,0.5,6H0.4c0,0.1,0.1,0.4,0.1,0.5c-0.3,0-0.3-0.2-0.3-0.3
		c0,0.1,0,0.3,0,0.4c0-0.1,0-0.1,0-0.1C0.3,6.6,0.3,6.8,0.3,7C0.2,6.9,0.2,7,0.1,7.2c0,0.1,0,0.3-0.1,0.4c0.1,0.2,0.1,0.3,0.1,0.5
		c0,0.2,0,0.4,0.1,0.6c0.2-0.2,0,0.1,0.2,0.1c0,0.1,0.1,0.1,0,0.1l0,0h0.1C0.4,9,0.4,9,0.3,8.9v0.2C0.3,9.2,0.2,9,0.2,9
		c0,0.2-0.1,0.1-0.1,0.2c0.1-0.1,0.1,0.1,0.1,0.2l0.1-0.2c0.1,0.1,0.1,0.2,0.1,0.2c0,0.1,0,0.1,0.1,0.2L0.3,9.8
		c0,0.1,0.1,0.2,0.1,0.3c0.1,0.1,0.2,0.2,0.2,0.2s0,0.1-0.1,0c0.1,0.2,0.2,0.3,0.3,0.5C1,11,1.1,11.1,1.1,11.3l0,0
		c0.1,0.1,0.1,0.1,0.1,0.1s-0.1,0,0,0c0,0,0.2,0.1,0.2,0.2H1.3c0.1,0.1,0.2,0.2,0.3,0.3s0.2,0.1,0.3,0.2C1.8,12.2,2,12.4,2,12.5l0,0
		c0.1,0.1,0.3,0.2,0.4,0.3C2.6,13,2.8,13,3,13.1c0,0.1,0.1,0.1,0.1,0.2c0.1,0.1,0.2,0.1,0.2,0.2c0.2,0.1,0.4,0.2,0.5,0.4
		c0-0.1,0.1-0.1,0.1-0.1c0.1,0.1,0.2,0,0.2,0.1l0,0c0,0.1,0.2,0.2,0.3,0.2L4.5,14c0.1,0.2,0.4,0.2,0.6,0.3s0.4,0.1,0.5,0.2
		c0.1,0,0.2,0,0.3,0v0.1c0.1,0,0.2,0.1,0.3,0.1c0.1,0,0.2,0.1,0.4,0l-0.1,0.1c0.2,0,0.2-0.2,0.4-0.2L7,14.5c0.3,0,0.6,0.1,0.9,0
		c0,0,0,0.1-0.1,0.1c0.1,0,0.6,0,0.5-0.1c0,0.1,0.3,0,0.4-0.1v0.1c0.1-0.1,0.1-0.2,0.3-0.2c0.1,0,0.1,0.1,0,0.1
		c0.2,0,0.1-0.1,0.3-0.1l-0.1,0.1c0.1,0,0.1-0.1,0.2-0.1c0.1-0.1,0.3-0.1,0.3,0c0-0.1,0.1-0.1,0.1-0.1v0.1c0.1,0,0.1,0,0.2-0.1
		c0.1,0,0.1-0.1,0.1-0.1c0.1-0.1,0.1-0.1,0.2-0.1c0,0,0,0,0.1,0c-0.2,0.1-0.3,0.1-0.3,0.1c0,0.1,0.2,0,0.1,0.2
		c0.1-0.1,0.2-0.3,0.4-0.4l0,0l0,0c0,0,0.1,0,0.1-0.1c0.1,0,0.1,0,0.1-0.1c0,0,0,0,0.1,0l0,0c0,0,0.1,0,0.1-0.1c0,0,0,0,0,0.1
		c0.1,0,0.1-0.1,0.1-0.1c-0.1-0.1,0.1-0.1-0.1-0.1c0,0,0,0-0.1,0.1l0,0l0,0c0,0-0.1,0.1-0.2,0.1c0-0.1,0.1-0.1,0.2-0.1
		c0-0.1,0-0.1,0-0.2c0.2,0.1,0.4,0,0.4,0c0.1-0.1,0.2-0.2,0.3-0.3s0.1-0.1,0.1-0.1c0-0.1,0.1-0.1,0.1-0.2c0-0.1,0.1,0,0.1,0
		l-0.1,0.1c0.1-0.1,0.3-0.3,0.2-0.4c0.2-0.1,0,0.1,0.2,0v0.1c0.2-0.1,0.3-0.3,0.4-0.5c0.1-0.2,0.1-0.4,0.3-0.5l0,0
		c0.1-0.1,0.2-0.2,0.3-0.4c0.1-0.1,0.2-0.2,0.2-0.4c0.1-0.1,0.1-0.3,0.2-0.4c0.1-0.1,0.1-0.2,0.2-0.4s0-0.2,0-0.3H14
		c0-0.1-0.1-0.1-0.1-0.2c0-0.1,0.1-0.2,0.1-0.3s0.1-0.1,0.1-0.2c0-0.1,0-0.1,0-0.2H14c0-0.1,0-0.4,0.1-0.3c0,0-0.1-0.1,0-0.1h0.1
		c0-0.1,0-0.2-0.1-0.3c0.1-0.2,0.2,0.1,0.2-0.2C14.7,7.7,14.6,7.5,14.4,7.4z M10.2,8.7c0,0.5-0.2,1-0.6,1.3c-0.3,0.2-0.6,0.3-1,0.3
		c-0.5,0-0.9,0-1.3,0c-0.5,0-0.9,0-1.3,0c-0.5-0.1-1-0.2-1.2-0.6C4.6,9.5,4.6,9.3,4.5,9.1C4.3,8.7,4.4,8.4,4.4,8c0-0.7,0-1.3,0-1.9
		c0.1-0.4,0.2-0.7,0.4-1C5.1,4.7,5.5,4.5,6,4.5c0.9,0,1.8,0,2.7,0c0.4,0,0.9,0.2,1.2,0.6c0.2,0.3,0.3,0.6,0.3,1
		C10.2,6.9,10.2,7.8,10.2,8.7z"/>
</g>
</svg>
