<?xml version="1.0" encoding="utf-8"?>
<!-- Generator: Adobe Illustrator 21.0.0, SVG Export Plug-In . SVG Version: 6.00 Build 0)  -->
<svg version="1.1" id="Layer_2" xmlns="http://www.w3.org/2000/svg" xmlns:xlink="http://www.w3.org/1999/xlink" x="0px" y="0px"
	 viewBox="0 0 14.6 14.8" style="enable-background:new 0 0 14.6 14.8;" xml:space="preserve">
<style type="text/css">
	.st0{fill:#490E0E;}
</style>
<g>
	<path class="st0" d="M7.3,6.4c-0.6,0-1,0.5-1,1c0,0.6,0.5,1,1,1s1-0.5,1-1C8.3,6.8,7.9,6.4,7.3,6.4z"/>
	<path class="st0" d="M8.9,5C7.8,4.9,6.8,4.9,5.8,5C5.3,5,5,5.4,4.9,5.8c-0.1,1.1-0.1,2.1,0,3.1C5,9.3,5.4,9.7,5.8,9.7
		c0.5,0,1,0.1,1.5,0.1s1,0,1.5-0.1c0.4,0,0.8-0.4,0.8-0.8c0.2-1,0.2-2,0-3.1C9.6,5.4,9.2,5,8.9,5z M8.7,7.3c0,0.8-0.7,1.5-1.5,1.5
		c-0.7,0-1.4-0.7-1.4-1.5c0-0.7,0.7-1.4,1.5-1.4S8.8,6.6,8.7,7.3z M8.9,6.1C8.7,6.1,8.6,6,8.6,5.8s0.1-0.3,0.3-0.3
		c0.2,0,0.3,0.1,0.3,0.3S9.1,6.1,8.9,6.1z"/>
	<path class="st0" d="M1.4,3.4C1.4,3.4,1.4,3.4,1.4,3.4C1.4,3.4,1.4,3.4,1.4,3.4z"/>
	<path class="st0" d="M14.4,7.4c0,0-0.1,0.1-0.1,0.1l0-0.1c0,0,0,0,0,0c0,0,0-0.1,0-0.1c0.1-0.1,0.1-0.2,0-0.2v0c0,0,0.1,0,0.1,0
		c0,0,0,0-0.1-0.1c0-0.1,0-0.3-0.1-0.4c0-0.1,0-0.1,0-0.1c0-0.1,0-0.2-0.1-0.2l0.1,0l-0.1-0.1c0,0,0-0.1,0-0.1c0,0,0.1,0,0.1,0
		c0.1-0.1-0.1-0.1,0-0.2c0,0,0,0,0,0l-0.1-0.1c0,0,0.1,0,0.1,0c0-0.2-0.2-0.3-0.1-0.4l0,0C14,5.2,14,5.4,13.9,5.3c0,0,0-0.1,0-0.1
		c0.1-0.1,0.1-0.1,0.2-0.2h-0.1c0,0,0-0.1,0-0.1c-0.1-0.1,0,0-0.1,0c0-0.1,0-0.2-0.1-0.2c-0.1-0.1-0.1-0.1,0-0.2c-0.1,0,0,0.1-0.1,0
		c0.1-0.1-0.1-0.1-0.1-0.3c0.1,0,0.1,0.1,0.1,0c-0.1,0-0.1-0.1-0.1-0.1c0-0.1,0-0.1-0.1-0.2c-0.1,0.1-0.2-0.2-0.3-0.3
		c0.1,0-0.1-0.3-0.2-0.5c-0.1,0-0.2-0.1-0.3-0.2c0.1-0.1,0.1-0.1,0.2,0c0,0-0.1-0.1-0.1-0.1c-0.1,0-0.1,0-0.1-0.1l0.1,0
		c-0.1-0.1-0.3-0.2-0.4-0.4c-0.1,0.1-0.1,0.2-0.2,0.2c0,0,0,0-0.1-0.1c0,0,0.1-0.1,0.1-0.1c0,0-0.1,0-0.1-0.1h0.1
		c-0.1-0.1-0.1,0-0.1-0.1c0.1-0.1,0-0.1,0-0.1c0,0,0,0.1,0.1,0.1C12.1,2.2,12,2.1,12,2c0,0-0.1,0.1-0.1,0c-0.1-0.1,0-0.1,0-0.2
		c-0.1,0-0.1-0.1-0.2,0c0,0,0-0.1,0-0.1c-0.1,0-0.2-0.1-0.3-0.1l0,0.1c0,0,0,0-0.1,0c0,0,0,0,0,0l0,0h0c-0.1,0-0.1-0.1-0.2-0.1
		c-0.1-0.1-0.1-0.1-0.2-0.1c-0.1-0.1-0.2-0.2-0.3-0.2l0,0c-0.2-0.1-0.3-0.1-0.5-0.1c-0.1,0-0.1-0.1-0.1-0.1c-0.1,0-0.1,0-0.3-0.1
		c0.1,0,0-0.1,0.1,0C9.9,0.7,9.9,0.7,9.7,0.7c0.1-0.1-0.1-0.1-0.2-0.1l0.1,0.1c-0.1,0-0.2-0.1-0.2-0.1l0.1-0.1
		C9.3,0.4,9.2,0.4,9,0.4c-0.2,0-0.3,0-0.4-0.1C8.5,0.4,8.8,0.4,8.7,0.5C8.6,0.4,8.4,0.3,8.4,0.3C8.2,0.2,8.2,0.4,8,0.3
		c0,0.1,0,0.1-0.1,0.2c-0.1,0-0.2-0.2-0.1-0.2c0,0,0.1,0,0.1,0c0.1,0,0.1,0,0.1-0.1l0,0C7.8,0.2,7.6,0.2,7.6,0.2
		c-0.1,0-0.1,0.1,0,0.1c-0.2,0-0.2,0-0.4,0c0,0,0.1,0.1,0,0.1C6.9,0.2,7,0.3,6.8,0.4c-0.1-0.1,0-0.1-0.2-0.1c-0.1,0,0-0.1,0-0.1
		c-0.1,0-0.1,0-0.1,0c-0.1,0-0.1,0-0.1,0c-0.1,0-0.2,0-0.2,0l0.1-0.1c-0.1,0-0.1,0.1-0.2,0.1l0.1,0.1c-0.1,0-0.1,0-0.1,0
		C6,0.2,6.2,0.3,6.1,0.4c-0.1,0-0.2,0.1-0.2,0c0.2,0-0.1-0.1,0.1-0.1c0,0-0.1,0-0.1,0c0,0,0,0,0,0c-0.2,0-0.1,0.1-0.3,0.2
		c0-0.1-0.1-0.1-0.1-0.1c0.1,0,0.1,0.1,0,0.1c-0.2,0-0.1,0.1-0.2,0.1h0.1c0,0.1-0.1,0.1-0.2,0.1c0,0,0.1-0.1,0-0.1
		c-0.1,0.1-0.3,0-0.4,0.1c-0.1,0,0-0.1-0.1-0.1c-0.1,0.1-0.2,0-0.4,0.1c0.1,0,0.1,0,0,0.1l0.2-0.2L4.4,0.9c0.1-0.1,0.2-0.1,0.2-0.1
		c-0.1,0.1-0.1,0.1,0,0.1C4.5,0.9,4.4,1.1,4.2,1.1L4.1,0.9C4,0.9,3.9,1,3.8,1.1C3.8,1.2,3.7,1.2,3.5,1.3l0.1,0
		c0,0.1-0.1,0.1-0.2,0.2c0-0.1-0.1-0.1-0.1-0.1c0,0-0.2,0.1-0.1,0.2L3,1.7C2.8,1.8,2.9,2,2.7,2.1c0-0.1-0.1-0.1,0-0.2
		C2.6,1.9,2.6,2,2.6,2C2.5,2,2.5,2.2,2.4,2.2c0,0,0,0.1,0,0.1c0,0,0,0,0,0c0,0-0.1,0.1,0,0.1C2.2,2.5,2.1,2.6,2,2.7
		c0,0.1-0.1,0.1-0.1,0.1c0,0,0,0-0.1,0.1C1.8,2.9,1.7,3,1.7,3C1.6,3.1,1.5,3.3,1.4,3.4c0,0,0,0,0,0C1.3,3.6,1.5,3.6,1.3,3.8
		c-0.1,0.1,0-0.1-0.1-0.1C1,3.6,1.1,3.9,0.9,4V4C0.8,4,0.9,4.3,0.8,4.5l0,0c0,0.2,0,0.4-0.1,0.6c-0.1-0.1,0-0.1-0.1-0.1
		c0,0.1,0.1,0,0.1,0.2c-0.1,0-0.1,0.1-0.2,0.1c0-0.1,0-0.1,0.1-0.2c-0.1,0-0.1,0.1-0.1,0.1c0,0.1,0,0.1,0,0.1l-0.1,0
		c-0.1,0.2,0.1,0.3,0,0.5l0.1,0c0.1,0.2-0.1,0.1,0,0.2l-0.1,0c0,0.1,0.1,0.4,0.1,0.5C0.2,6.5,0.2,6.3,0.2,6.2c0,0.1,0,0.3,0,0.4
		c0-0.1,0-0.1,0-0.1c0.1,0.1,0.1,0.3,0.1,0.5C0.2,6.9,0.2,7,0.1,7.2c0,0.1,0,0.3-0.1,0.4c0.1,0.2,0.1,0.3,0.1,0.5
		c0,0.2,0,0.4,0.1,0.6c0.2-0.2,0,0.1,0.2,0.1c0,0.1,0.1,0.1,0,0.1v0c0,0,0.1,0,0.1,0C0.4,9,0.4,9,0.3,8.9l0,0.2
		c0,0.1-0.1-0.1-0.1-0.1c0,0.2-0.1,0.1-0.1,0.2c0.1-0.1,0.1,0.1,0.1,0.2l0.1-0.2c0.1,0.1,0.1,0.2,0.1,0.2c0,0.1,0,0.1,0.1,0.2
		L0.3,9.8c0,0.1,0.1,0.2,0.1,0.3c0.1,0.1,0.2,0.2,0.2,0.2c0,0,0,0.1-0.1,0c0.1,0.2,0.2,0.3,0.3,0.5C1,11,1.1,11.1,1.1,11.3H1.1
		c0.1,0.1,0.1,0.1,0.1,0.1c0,0-0.1,0,0,0c0,0,0.2,0.1,0.2,0.2l-0.1,0c0.1,0.1,0.2,0.2,0.3,0.3s0.2,0.1,0.3,0.2
		c-0.1,0.1,0.1,0.3,0.1,0.4l0,0c0.1,0.1,0.3,0.2,0.4,0.3C2.6,13,2.8,13,3,13.1c0,0.1,0.1,0.1,0.1,0.2c0.1,0.1,0.2,0.1,0.2,0.2
		c0.2,0.1,0.4,0.2,0.5,0.4c0-0.1,0.1-0.1,0.1-0.1c0.1,0.1,0.2,0,0.2,0.1l0,0c0,0.1,0.2,0.2,0.3,0.2l0.1-0.1c0.1,0.2,0.4,0.2,0.6,0.3
		s0.4,0.1,0.5,0.2c0.1,0,0.2,0,0.3,0l0,0.1c0.1,0,0.2,0.1,0.3,0.1c0.1,0,0.2,0.1,0.4,0l-0.1,0.1c0.2,0,0.2-0.2,0.4-0.2L7,14.5
		c0.3,0,0.6,0.1,0.9,0c0,0,0,0.1-0.1,0.1c0.1,0,0.6,0,0.5-0.1c0,0.1,0.3,0,0.4-0.1v0.1c0.1-0.1,0.1-0.2,0.3-0.2c0.1,0,0.1,0.1,0,0.1
		c0.2,0,0.1-0.1,0.3-0.1l-0.1,0.1c0.1,0,0.1-0.1,0.2-0.1c0.1-0.1,0.3-0.1,0.3,0c0-0.1,0.1-0.1,0.1-0.1c0,0,0,0.1,0,0.1
		c0.1,0,0.1,0,0.2-0.1c0.1,0,0.1-0.1,0.1-0.1c0.1-0.1,0.1-0.1,0.2-0.1c0,0,0,0,0.1,0c-0.2,0.1-0.3,0.1-0.3,0.1c0,0.1,0.2,0,0.1,0.2
		c0.1-0.1,0.2-0.3,0.4-0.4c0,0,0,0,0,0l0,0c0,0,0.1,0,0.1-0.1c0.1,0,0.1,0,0.1-0.1c0,0,0,0,0.1,0c0,0,0,0,0,0c0,0,0.1,0,0.1-0.1
		c0,0,0,0,0,0.1c0.1,0,0.1-0.1,0.1-0.1c-0.1-0.1,0.1-0.1-0.1-0.1c0,0,0,0-0.1,0.1c0,0,0,0,0,0c0,0,0,0,0,0c0,0-0.1,0.1-0.2,0.1
		c0-0.1,0.1-0.1,0.2-0.1c0-0.1,0-0.1,0-0.2c0.2,0.1,0.4,0,0.4,0c0.1-0.1,0.2-0.2,0.3-0.3c0.1-0.1,0.1-0.1,0.1-0.1
		c0-0.1,0.1-0.1,0.1-0.2c0-0.1,0.1,0,0.1,0c0,0-0.1,0.1-0.1,0.1c0.1-0.1,0.3-0.3,0.2-0.4c0.2-0.1,0,0.1,0.2,0v0.1
		c0.2-0.1,0.3-0.3,0.4-0.5c0.1-0.2,0.1-0.4,0.3-0.5h0c0.1-0.1,0.2-0.2,0.3-0.4c0.1-0.1,0.2-0.2,0.2-0.4c0.1-0.1,0.1-0.3,0.2-0.4
		c0.1-0.1,0.1-0.2,0.2-0.4s0-0.2,0-0.3H14c0-0.1-0.1-0.1-0.1-0.2c0-0.1,0.1-0.2,0.1-0.3c0-0.1,0.1-0.1,0.1-0.2c0-0.1,0-0.1,0-0.2
		l-0.1,0c0-0.1,0-0.4,0.1-0.3c0,0-0.1-0.1,0-0.1h0.1c0-0.1,0-0.2-0.1-0.3c0.1-0.2,0.2,0.1,0.2-0.2C14.7,7.7,14.6,7.5,14.4,7.4z
		 M10.2,8.7c0,0.5-0.2,1-0.6,1.3c-0.3,0.2-0.6,0.3-1,0.3c-0.5,0-0.9,0-1.3,0c-0.5,0-0.9,0-1.3,0c-0.5-0.1-1-0.2-1.2-0.6
		C4.6,9.5,4.6,9.3,4.5,9.1C4.3,8.7,4.4,8.4,4.4,8c0-0.7,0-1.3,0-1.9c0.1-0.4,0.2-0.7,0.4-1C5.1,4.7,5.5,4.5,6,4.5c0.9,0,1.8,0,2.7,0
		c0.4,0,0.9,0.2,1.2,0.6c0.2,0.3,0.3,0.6,0.3,1C10.2,6.9,10.2,7.8,10.2,8.7z"/>
</g>
</svg>
