<?xml version="1.0" encoding="utf-8"?>
<!-- Generator: Adobe Illustrator 21.0.0, SVG Export Plug-In . SVG Version: 6.00 Build 0)  -->
<svg version="1.1" id="Layer_1" xmlns="http://www.w3.org/2000/svg" xmlns:xlink="http://www.w3.org/1999/xlink" x="0px" y="0px"
	 viewBox="0 0 14.6 14.8" style="enable-background:new 0 0 14.6 14.8;" xml:space="preserve">
<style type="text/css">
	.st0{fill:#FFFFFF;}
</style>
<g>
	<path class="st0" d="M14.1,6.9C14,6.9,14,6.8,14.1,6.9c0,0.1,0,0.2-0.1,0.3C14,7.1,14,7.1,14,7C14,7.1,14,7,14.1,6.9
		c-0.2,0-0.1-0.1-0.2-0.1C13.9,6.7,14,6.8,14.1,6.9z M7.8,0.3C7.8,0.3,7.9,0.3,7.8,0.3C7.8,0.3,7.8,0.3,7.8,0.3z M7.2,0.2
		C7.2,0.2,7.2,0.2,7.2,0.2C7.2,0.2,7.2,0.1,7.2,0.2z M11.4,1.6l-0.1-0.1C11.3,1.6,11.3,1.6,11.4,1.6z M13.7,6.1
		C13.7,6.1,13.7,6.1,13.7,6.1C13.7,6.1,13.7,6.1,13.7,6.1L13.7,6.1z M12.7,2.7L12.7,2.7C12.7,2.7,12.7,2.7,12.7,2.7L12.7,2.7z
		 M13.4,3.8c0,0-0.1,0-0.1,0C13.3,3.8,13.3,3.8,13.4,3.8C13.4,3.8,13.4,3.8,13.4,3.8z M14,5.7L14,5.7C14,5.8,14,5.7,14,5.7z
		 M13.5,8.7C13.5,8.7,13.6,8.7,13.5,8.7C13.6,8.6,13.5,8.6,13.5,8.7z M14.1,7.3L14.1,7.3C14.2,7.3,14.2,7.3,14.1,7.3L14.1,7.3z
		 M5.9,0.2C5.9,0.2,5.9,0.2,5.9,0.2C6,0.2,5.9,0.2,5.9,0.2z M0.4,8.8c0.1-0.1,0.1,0.2,0.2,0C0.6,8.8,0.4,8.6,0.4,8.8z M13.7,6.1
		C13.7,6,13.7,6,13.7,6.1C13.7,6,13.7,6,13.7,6.1z M3.4,1.3C3.4,1.3,3.3,1.3,3.4,1.3C3.3,1.3,3.3,1.3,3.4,1.3z M2.6,2.1
		C2.5,2.2,2.5,2.2,2.6,2.1L2.6,2.1C2.5,2.2,2.5,2.1,2.6,2.1z M1.8,3C1.8,3,1.8,3,1.8,3C1.8,2.9,1.9,2.9,1.8,3L1.8,3z M12.2,11.4
		c0,0,0.1,0,0.1,0C12.2,11.4,12.3,11.3,12.2,11.4z M13.7,6.1C13.7,6.1,13.7,6.1,13.7,6.1C13.8,6.1,13.8,6.1,13.7,6.1
		C13.7,6.1,13.7,6.1,13.7,6.1z M3,2.7L2.9,2.8C2.9,2.8,3,2.7,3,2.7z M5.6,13.4L5.6,13.4L5.6,13.4z M2.6,3.1c-0.1,0-0.1,0-0.1,0
		c0,0,0,0,0,0L2.6,3.1z M14.4,7.6c0,0.3-0.2,0.1-0.2,0.2c0,0.1,0.1,0.2,0.1,0.3h-0.1c-0.1,0,0,0.1,0,0.1c-0.1,0-0.1,0.2-0.1,0.3
		l0.1,0c0,0.1,0,0.2,0,0.2s-0.1,0.1-0.1,0.2C14,9,13.9,9,13.9,9.2C14,9.2,14,9.3,14,9.4h-0.1c0,0.1,0.1,0.2,0,0.3
		c-0.1,0.1-0.1,0.2-0.2,0.4c-0.1,0.1-0.1,0.3-0.2,0.4c-0.1,0.1-0.1,0.3-0.2,0.4c-0.1,0.1-0.2,0.2-0.3,0.4c0,0,0,0,0.1,0
		c-0.2,0.1-0.3,0.3-0.4,0.5c-0.1,0.2-0.2,0.4-0.4,0.5v-0.1c-0.2,0.2,0-0.1-0.2,0c0.1,0.1-0.2,0.3-0.2,0.4c0,0,0-0.1,0.1-0.1
		c0,0-0.1-0.1-0.1,0c0,0.1,0,0.1-0.1,0.2c0,0.1-0.1,0.1-0.1,0.1c-0.1,0.1-0.2,0.2-0.3,0.3c-0.1-0.1-0.3,0-0.4,0c0,0,0,0.1,0,0.2
		c-0.1,0-0.1,0.1-0.2,0.1c0.1-0.1,0.1-0.1,0.2-0.1c0,0,0,0,0,0c0,0,0,0,0,0c0.1,0,0.1-0.1,0.1-0.1c0.1,0,0,0.1,0.1,0.1
		c-0.1,0-0.2,0.2-0.2,0.1c-0.1,0-0.1,0-0.1,0.1c0,0-0.1,0.1-0.1,0.1l0,0c0,0,0,0,0,0c-0.2,0-0.3,0.2-0.4,0.4
		c0.1-0.2-0.1-0.1-0.1-0.2c0,0,0.1-0.1,0.3-0.1c0,0,0,0-0.1,0c-0.1,0-0.2,0.1-0.2,0.1c0,0-0.1,0.1-0.1,0.1c-0.1,0-0.1,0-0.2,0.1
		c0,0,0-0.1,0-0.1c-0.1,0-0.1,0.1-0.1,0.1c-0.1-0.1-0.2-0.1-0.3,0C9.3,14,9.4,14,9.2,14L9.3,14c-0.2,0-0.1,0.1-0.3,0.1
		c0.1,0,0.1-0.1,0-0.1c-0.2,0.1-0.2,0.1-0.3,0.2v-0.1c-0.1,0.1-0.4,0.2-0.4,0.1c0.1,0.2-0.3,0.2-0.5,0.1c0.1,0,0.1-0.1,0.1-0.1
		c-0.3,0.1-0.6,0.1-0.9,0L7,14.3c-0.1,0-0.2,0.2-0.4,0.2l0.1-0.1c-0.1,0-0.2,0-0.4,0c-0.1,0-0.2,0-0.3-0.1l0-0.1c-0.1,0-0.2,0-0.3,0
		c-0.1-0.1-0.2-0.1-0.5-0.2c-0.2,0-0.4-0.1-0.6-0.3L4.6,14c-0.1-0.1-0.3-0.1-0.3-0.2l0,0c0.1-0.1-0.1-0.1-0.2-0.1
		c-0.1,0-0.2,0-0.1,0.1c-0.1-0.1-0.3-0.2-0.5-0.4c-0.1-0.1-0.2-0.1-0.2-0.2c-0.1-0.1-0.1-0.1-0.1-0.2c-0.2-0.1-0.3-0.1-0.5-0.2
		s-0.3-0.2-0.4-0.3l0,0C2.2,12.3,2,12.1,2.1,12c-0.1-0.1-0.2-0.1-0.3-0.2c-0.1-0.1-0.2-0.2-0.3-0.3l0.1,0c0-0.1-0.2-0.2-0.2-0.2
		c0,0,0,0,0,0c0-0.1-0.1-0.1-0.1-0.1h0.1c0-0.1-0.1-0.3-0.2-0.4c-0.1-0.1-0.2-0.3-0.3-0.5c0.1,0.1,0.1,0,0.1,0
		c-0.1,0-0.2-0.1-0.2-0.2C0.6,9.9,0.5,9.8,0.5,9.7l0.1,0.1C0.5,9.6,0.5,9.6,0.5,9.5c0-0.1,0-0.1-0.1-0.2L0.4,9.4
		c0-0.1-0.1-0.2-0.1-0.2c0-0.1,0.1-0.1,0.1-0.2c0.1,0,0.1,0.1,0.1,0.1l0.1-0.3l0,0v0v0c0,0,0-0.1,0-0.1C0.3,8.7,0.5,8.4,0.3,8.6
		c0-0.2,0-0.4-0.1-0.6c0-0.2,0-0.3-0.1-0.5c0.1-0.1,0.1-0.2,0.1-0.4c0-0.1,0-0.3,0.2-0.2c0-0.2,0-0.3-0.1-0.5c0,0,0,0.1,0,0.1
		c-0.1-0.1,0-0.3,0-0.4c0,0.1,0.1,0.3,0.1,0.4c0-0.2-0.1-0.4-0.1-0.5l0.1,0c-0.1-0.2,0.1-0.1,0-0.2l-0.1,0c0.1-0.2-0.1-0.3,0-0.5
		l0.1,0c0,0,0-0.1,0-0.1c0,0,0-0.1,0.1-0.1c0,0.1,0,0.1-0.1,0.2c0.1,0,0.2-0.1,0.2-0.1c0-0.2-0.1-0.1-0.1-0.2c0.1,0,0.1,0,0.1,0.1
		c0-0.2,0.1-0.4,0.1-0.6c0,0,0,0,0,0C1,4.3,1,4,1.1,3.9V4c0.2-0.1,0.1-0.4,0.3-0.3c0.1-0.1-0.1,0.1,0.1,0.1c0.2-0.2-0.1-0.2,0.1-0.4
		c0,0,0,0,0,0C1.6,3.3,1.7,3.1,1.8,3C1.9,3,1.9,2.9,2,2.9s0.1-0.1,0.1-0.2c0.1-0.1,0.2-0.2,0.4-0.2c-0.1,0,0-0.1,0-0.1s0,0,0,0
		c0.1-0.1,0-0.1,0-0.1C2.6,2.2,2.6,2,2.7,2c0,0,0-0.1,0.1-0.1C2.7,2,2.8,2,2.8,2.1C3,2,2.9,1.8,3.1,1.7l0.2,0
		C3.2,1.5,3.4,1.4,3.4,1.4c0.1,0,0.1,0,0.1,0.1c0.1-0.1,0.2-0.1,0.2-0.2l-0.1,0c0.1-0.1,0.2-0.1,0.3-0.2C4,1,4.1,1,4.2,0.9l0.1,0.2
		c0.2,0,0.2-0.2,0.4-0.2c-0.1,0-0.1,0,0-0.1C4.7,0.8,4.6,0.9,4.5,1l0.1-0.2L4.4,1c0.1-0.1,0.1-0.1,0-0.1c0.2-0.1,0.2,0,0.4-0.1
		c0.1,0,0,0.1,0.1,0.1c0.1-0.1,0.3,0,0.4-0.1c0.1,0-0.1,0,0,0.1c0.1-0.1,0.2-0.1,0.2-0.1H5.3c0.1,0,0.1-0.1,0.2-0.1
		c0.1-0.1,0.1-0.2,0-0.1c0,0,0.1,0,0.1,0.1c0.2-0.1,0.1-0.2,0.3-0.2c0,0,0,0,0,0c0.1,0,0.1,0,0.1,0C5.8,0.3,6.1,0.4,5.9,0.4
		c0.1,0.1,0.2,0,0.2,0c0.1-0.1,0-0.1,0-0.2c0,0,0.1,0,0.1,0L6.2,0.2c0.1,0,0.1,0,0.2-0.1L6.3,0.2c0.1,0,0.1,0,0.2,0c0,0,0.1,0,0.1,0
		c0.1,0,0.1,0,0.1,0c-0.1,0-0.1,0.1,0,0.1c0.2-0.1,0.1,0,0.2,0.1c0.2,0,0-0.1,0.3-0.1c0,0,0-0.1,0-0.1c0.2,0,0.3,0,0.5,0.1
		c-0.1,0-0.1-0.1,0-0.1C7.6,0.2,7.8,0.2,7.9,0.3l0,0c0.1,0.1,0,0.1-0.1,0.1c0,0,0,0-0.1,0c-0.1,0-0.1,0.2,0.1,0.2C8,0.5,8,0.4,8,0.3
		c0.2,0.1,0.2-0.1,0.4-0.1c0.1,0,0.2,0.2,0.3,0.2c0.1-0.1-0.2-0.1-0.1-0.2c0.1,0.1,0.2,0.1,0.4,0.1c0.1,0,0.3,0,0.4,0.1L9.4,0.6
		c0.1,0,0.1,0.1,0.2,0.1L9.6,0.6c0.1,0,0.2,0.1,0.2,0.1c0.2,0,0.2,0,0.4,0.1c-0.2-0.1,0,0-0.1,0c0.1,0.1,0.2,0.1,0.3,0.1
		c0,0,0,0.1,0.1,0.1c0.1,0,0.3,0.1,0.5,0.1l0,0c0.1,0.1,0.2,0.1,0.3,0.2c0.1,0.1,0.1,0.1,0.2,0.1c0.1,0.1,0.1,0.1,0.2,0.1h0l0,0
		c0-0.1,0.2,0.1,0.3,0.1c0,0,0,0.1,0,0.1c0.1-0.1,0.1,0,0.2,0c0.1,0.1-0.1,0.1,0,0.2c0.1,0,0.1,0,0.1,0c0,0.1,0.1,0.2,0.1,0.2
		c0,0-0.1-0.1-0.1-0.1c-0.1,0,0,0.1,0,0.1c0.1,0.1,0.1-0.1,0.1,0.1h-0.1c0,0,0.1,0.1,0.1,0.1c-0.1,0-0.1,0-0.1,0.1
		c0.2,0.1,0.2-0.1,0.2-0.2c0.1,0.2,0.3,0.2,0.4,0.4l-0.1,0c0.1,0.1,0.1,0.1,0.1,0.1c0,0,0.1,0.1,0.1,0.1c-0.1,0-0.1,0-0.2,0
		c0.1,0.1,0.2,0.2,0.3,0.2h0c0.1,0.2,0.2,0.5,0.2,0.5c0.1,0.1,0.2,0.4,0.3,0.3c0,0.1,0.1,0.1,0.1,0.2c0,0.1,0,0.1,0.1,0.1
		c0,0.1,0,0-0.1,0c0,0.1,0.2,0.2,0.1,0.3c0.1,0.1,0-0.1,0.1,0c-0.1,0.1-0.1,0.1,0,0.2c0,0.1,0.1,0.2,0.1,0.2c0.1,0,0-0.1,0.1,0
		c-0.1,0,0,0.1,0,0.1h0.1c-0.1,0.1-0.1,0.1-0.2,0.2c0.2,0.2,0.1-0.1,0.3,0.2l0,0c-0.1,0.1,0.1,0.2,0.1,0.4c0-0.1-0.1,0-0.1,0
		l0.1,0.1c0,0,0,0,0,0C14,6,14.1,6,14.1,6.1c0-0.1-0.1,0-0.1,0l0.1,0.1l-0.1-0.1c0,0.2,0.2,0.4,0.1,0.5l0-0.1c0,0-0.1,0.1,0,0.2
		c0,0,0.1,0.1,0.1,0l0,0.1c-0.1,0-0.1-0.2-0.2-0.3C14,6.5,14,6.6,14,6.5c-0.1-0.1-0.1-0.2-0.2-0.3c0.1,0,0.1,0.1,0.1,0.1
		c0-0.1-0.1-0.1-0.1-0.2c0,0,0.1-0.1,0.1-0.1c-0.1-0.1-0.1-0.2-0.1-0.3c0,0,0.1,0.1,0.1,0c-0.1-0.2-0.2-0.2-0.3-0.4
		c-0.1-0.1-0.1-0.2-0.2-0.4s0-0.2-0.1-0.3c-0.1,0,0,0.1-0.1,0.1c0.1,0,0-0.1,0.1-0.1c-0.2-0.1-0.1-0.2-0.2-0.2c0,0,0-0.1,0-0.1
		c0.1,0,0-0.1,0.2,0c-0.1,0-0.1-0.1-0.1-0.1c0,0-0.1-0.1-0.1-0.1c-0.1-0.1-0.1-0.1-0.2-0.1V4L13,3.8v0C13,3.7,13,3.7,13,3.6
		c0.1,0,0.1,0.1,0.1,0.1c0-0.1-0.2-0.1-0.2-0.2c0.1,0,0.1,0.1,0.1,0c-0.1-0.1-0.1-0.1-0.2-0.2l0,0c-0.1-0.2-0.2,0.1-0.2-0.1
		c0,0-0.1,0-0.1,0.1c0-0.1-0.1-0.2,0.1-0.1C12.6,3,12.5,3,12.5,3c0,0.1,0,0.1,0,0.1l-0.2-0.2c0,0,0.1,0,0.1,0c0-0.1-0.1-0.2-0.1-0.2
		c-0.1-0.1-0.1-0.1-0.2-0.1c-0.1,0-0.2-0.1-0.2-0.2c0,0-0.1-0.1-0.1-0.1c0,0-0.1-0.1-0.1-0.1c0,0.1-0.1,0-0.1,0
		c-0.1-0.1-0.2-0.2-0.3-0.3l0.1,0c-0.3-0.1-0.5-0.2-0.6-0.3c0,0,0-0.1,0.1-0.1c-0.2,0-0.2-0.3-0.3-0.2l0.1,0
		c-0.1-0.1-0.3-0.1-0.4-0.1c-0.2,0-0.3-0.1-0.4-0.1C9.5,1,9.6,1.2,9.6,1C9.5,1,9.4,1,9.3,0.9c-0.1,0-0.2,0-0.3-0.1c0,0,0,0,0.1,0
		c-0.2-0.1,0,0.1-0.2,0.1c0-0.1,0-0.1,0-0.1L8.8,0.8c0,0,0-0.1,0-0.1c-0.1,0.1-0.3,0-0.4,0.1c0,0,0.1-0.1,0-0.2
		c-0.1-0.1-0.2,0-0.2,0l0,0C8.2,0.5,8,0.5,8,0.5C7.9,0.5,8,0.6,7.9,0.6L8,0.7l-0.2,0l0.1-0.1c-0.1-0.1-0.2,0-0.4,0l0.1,0.1
		c-0.1,0-0.1,0-0.1,0c0-0.1-0.2,0-0.1-0.2C7,0.5,6.8,0.7,6.6,0.8c0.1,0,0,0,0-0.1c-0.1,0-0.2,0.1-0.3,0.1c0,0,0.1-0.1,0-0.1
		c-0.1,0-0.1,0-0.1,0.1c0,0-0.1,0.1-0.1,0.1c0.1-0.1,0-0.1,0-0.1c0,0.1,0,0.1-0.1,0.1c0.1-0.3-0.2,0-0.2-0.2c0,0.1-0.3,0.2-0.2,0.3
		l0.1,0C5.7,1,5.6,1,5.6,1c0,0,0.1,0,0.1-0.1C5.6,1,5.5,1,5.4,1.1S5.3,1.1,5.3,1.1C5.1,1.2,5,1.2,4.8,1.3c0,0,0.1-0.1,0-0.1
		C4.7,1.3,4.6,1.4,4.5,1.4C4.5,1.5,4.4,1.5,4.4,1.6C4.4,1.6,4.3,1.7,4.3,1.7c-0.1-0.1,0-0.1,0.1-0.2c0.1-0.1,0.1-0.1,0.1-0.2
		L4.4,1.5L4.3,1.6C4.2,1.6,4.2,1.7,4.1,1.7S4,1.8,3.9,1.9S3.8,2,3.8,2.1C3.5,2,3.5,2.4,3.3,2.4c0.1,0.1,0,0.1-0.1,0.2
		c0-0.1-0.1,0-0.1-0.1c0,0.1-0.2,0.4-0.3,0.2C2.8,2.9,2.6,3,2.6,3.1C2.5,3.2,2.5,3.4,2.3,3.5c0.1,0-0.1,0.2-0.1,0.2c0,0,0-0.1,0-0.1
		c-0.1,0-0.1,0.2-0.1,0.2c-0.1,0-0.1-0.1-0.1,0c0.1,0,0,0.3-0.1,0.3c0,0,0-0.1,0-0.1C1.8,4.3,1.7,4.5,1.6,4.8C1.5,5,1.4,5.2,1.4,5.4
		L1.4,5.3C1.2,5.5,1.5,5.5,1.4,5.7c0,0.1-0.1,0.1-0.1,0.2L1.3,6.2C1.2,6.3,1.2,6.5,1.2,6.6C1.1,6.9,1,7.2,1.1,7.5c0,0.1,0,0,0.1,0
		c0,0.1-0.1,0.1,0,0.1l0.1,0c0,0.1-0.1,0.2-0.1,0.2c0,0.1,0,0.2,0.1,0.3c0.1,0.2,0.1,0.4,0,0.5C1.3,8.7,1.3,8.8,1.3,9
		c0,0.1,0,0.1,0.1,0.2c0,0.1,0.1,0.1,0.1,0.2c0,0.1-0.1-0.1-0.1,0.1l0.2,0.2l0,0c0,0,0.1,0.1,0.1,0.1c0,0,0.1,0.1,0.1,0.1
		c0,0.1,0.1,0.2,0.1,0.3c0,0.2,0.1,0.4,0.2,0.5l0,0c0,0,0,0.1,0,0.1c0,0,0,0,0-0.1c0.1,0.1,0.1,0.1,0.1,0.1c0.1,0,0.1,0.1,0.1,0.1
		c0.1,0.1,0.1,0.1,0.2,0.2c-0.1-0.1,0,0.1,0,0.2c0.1,0,0.1-0.1,0.2,0c0.1,0.1,0.2,0.3,0.3,0.5c0.1,0,0.2,0.1,0.2,0
		c0.1,0.1,0.2,0.1,0.2,0.2c0,0,0.1,0.1,0.1,0.1c0.1,0,0.1,0.1,0.2,0.1l0,0c0.1-0.1,0.2,0.2,0.2,0.2c0,0-0.1,0-0.1,0.1l0.1,0.1
		c-0.1,0-0.2,0.1-0.1,0.1c0.1,0,0-0.1,0.1-0.1l0,0.1c0.1,0,0.2-0.1,0.1-0.1c0.2,0.1,0.5,0.2,0.7,0.4L4.7,13c0.1,0,0.3,0.1,0.4,0.2
		c0,0,0.1,0,0.1-0.1c0.2,0,0,0.1,0.1,0.1c-0.1,0-0.1,0-0.1,0l0.4,0.1c0,0,0,0.1,0.1,0.1c0.1,0.1,0.1,0.1,0.2,0.1c0,0,0-0.1-0.1-0.1
		h0.1l0.1,0.1l0.2-0.1l0,0.1c0.1,0,0.2-0.1,0.2-0.1c0.3,0.1,0.2,0.1,0.4,0.2c0-0.1,0.1-0.1,0.2-0.1c0.1,0,0.2,0,0.2,0
		c0.1,0,0.1,0.1,0.2,0.1c0.1,0,0.1,0,0.1,0s0.1,0,0.1,0c0.2,0,0.4,0,0.6,0l0,0c0.2,0.1,0.2-0.2,0.3-0.2l0,0c0.1,0,0.1,0,0.2,0
		c0.1,0,0.1,0,0.2-0.1c0.1-0.1,0.3-0.1,0.4-0.2c0,0,0,0.1,0.1,0.1c0.1-0.1-0.1-0.1,0-0.1c0,0,0,0.1,0,0.1l0.1-0.1
		c0.2,0,0.3-0.1,0.5-0.1c0.2-0.1,0.3-0.1,0.4-0.2c0.1,0,0.1,0.1,0.1,0.1c0.1-0.1,0.2-0.2,0.3-0.2c0.1-0.1,0.2-0.2,0.3-0.2l0.1,0.1
		c0.1-0.1,0-0.2,0.1-0.2c0,0-0.1,0.1-0.1,0.1c0.2-0.1,0.1-0.2,0.2-0.3l0,0.1c0.2-0.1,0.1-0.2,0.1-0.2c0.1-0.2,0.3,0.1,0.4-0.2
		c0-0.1-0.1-0.1-0.1-0.1c0.2-0.1,0.1-0.2,0.3-0.4c0.2,0-0.1,0.1,0.1,0.1l-0.1,0.1c0.2-0.1-0.1,0.1,0,0.2c0.1-0.1,0.1-0.2,0.2-0.4
		c0.1,0.1-0.1,0.1,0,0.2l0-0.1c0,0,0,0.1,0,0.1c0.1,0,0.1-0.1,0.1-0.1c0,0-0.1-0.1-0.1-0.1c0,0,0,0,0,0c0-0.2,0.2-0.3,0.2-0.5
		c0,0,0,0,0.1,0c0,0,0-0.1,0-0.1c0-0.1,0-0.1,0-0.2c0.1,0,0.1,0.1,0.2-0.1c-0.1-0.1-0.2-0.1-0.1-0.2c0,0,0,0.1,0.1,0.1
		c0-0.2,0.1,0,0.2-0.1c0-0.1,0.1-0.1,0-0.2c0.1,0,0.1,0,0.2-0.1c-0.1,0,0-0.2-0.1-0.2c0.1,0,0.1,0.2,0.2,0.1c0-0.1,0-0.3-0.1-0.3
		c0.1-0.1,0.1-0.1,0.1-0.2c0,0,0,0,0,0.1c0-0.2,0.2-0.4,0-0.6c0.2,0.1,0.1-0.4,0.2-0.2c0-0.1,0-0.2-0.1-0.2c0.1,0,0.1,0,0.1-0.1
		c0-0.1,0-0.1,0.1-0.2c-0.1-0.1,0-0.2-0.1-0.3c0,0,0,0.1,0.1,0.1c-0.1-0.1,0-0.1,0.1-0.1c0-0.1-0.1,0-0.2-0.1c0.1-0.1,0.1,0,0.2,0
		l-0.1-0.2c0,0,0.1-0.1,0.1-0.1c0-0.1-0.1-0.1,0-0.2v0.1l0.1-0.1l-0.1-0.2C13.9,7.3,14,7.2,14,7.2l0,0l0-0.1l0.1,0.1c0,0,0,0,0,0.1
		c0.1,0,0.1,0,0.2,0l0,0.1c0.1,0,0.1-0.1,0.1-0.1C14.3,7.2,14.4,7.5,14.4,7.6z M10.2,13.2c-0.1,0-0.1,0.1-0.1,0.1
		C10.1,13.2,10.2,13.2,10.2,13.2C10.2,13.3,10.2,13.2,10.2,13.2z M10.4,13.1C10.4,13.1,10.4,13.1,10.4,13.1L10.4,13.1
		C10.4,13.1,10.4,13.1,10.4,13.1z M11,13.4C10.9,13.5,10.9,13.5,11,13.4C10.9,13.5,10.9,13.5,11,13.4C11,13.4,11,13.4,11,13.4
		C11,13.4,11,13.4,11,13.4z M5.1,13.3C5.1,13.3,5.1,13.3,5.1,13.3C5.1,13.3,5.1,13.3,5.1,13.3z M11,13.3C11,13.3,11,13.3,11,13.3
		C11,13.3,11,13.3,11,13.3C11,13.3,11,13.3,11,13.3C11,13.3,11,13.3,11,13.3z M11.4,1.7L11.4,1.7L11.4,1.7L11.4,1.7z M5.9,13.5
		L5.9,13.5L5.9,13.5L5.9,13.5z M12.4,3.1L12.4,3.1C12.4,3.1,12.4,3.1,12.4,3.1z M12.9,3.7l0,0.1C12.9,3.8,12.9,3.7,12.9,3.7z
		 M13.1,4.2C13.2,4.2,13.2,4.2,13.1,4.2L13.1,4.2L13.1,4.2z M5.5,1.1L5.5,1.1C5.4,1.1,5.4,1.1,5.5,1.1z M8.1,0.7c0,0-0.1,0-0.1,0
		C8.1,0.7,8.1,0.7,8.1,0.7z M3,2.7L3,2.7L3,2.7L3,2.7z M7.9,0.7c0.1,0,0.1,0,0.1,0C8,0.7,7.9,0.7,7.9,0.7z M13.8,6.6
		C13.8,6.6,13.8,6.6,13.8,6.6L13.8,6.6L13.8,6.6z M13.8,6.6C13.8,6.6,13.8,6.6,13.8,6.6L13.8,6.6z M13.8,6.6
		C13.8,6.7,13.8,6.7,13.8,6.6L13.8,6.6z M13.6,5.6c0,0.1,0,0.1,0,0.2h0C13.6,5.8,13.7,5.7,13.6,5.6z M13.8,4.7
		c0-0.3-0.1,0.1-0.1-0.2C13.7,4.6,13.7,4.7,13.8,4.7C13.8,4.7,13.8,4.6,13.8,4.7z M13.6,3.9C13.5,3.9,13.5,3.9,13.6,3.9
		C13.5,4,13.5,3.9,13.6,3.9z M10.2,0.8C10.1,0.8,10.2,0.8,10.2,0.8L10.2,0.8z M9.4,1c0,0-0.1,0-0.1,0C9.3,1,9.3,1,9.4,1L9.4,1z
		 M8.9,0.3H8.8H8.9L8.9,0.3z M1.9,2.8L2,2.8C2,2.7,1.9,2.7,1.9,2.8z M0.5,5.8C0.5,5.8,0.4,5.9,0.5,6C0.5,5.9,0.5,5.8,0.5,5.8z
		 M4.8,14l0.1,0L4.8,14L4.8,14z"/>
	<path class="st0" d="M10.4,5.2L7.3,7.8L4.1,5.2H10.4z M3.9,5.4l2.3,1.9L3.9,9.1V5.4z M4,9.4l2.4-1.9l0.8,0.7l0.8-0.7l2.4,1.9H4z
		 M10.7,9.1L8.4,7.3l2.3-1.9V9.1z"/>
</g>
</svg>
