<?xml version="1.0" encoding="utf-8"?>
<!-- Generator: Adobe Illustrator 21.0.0, SVG Export Plug-In . SVG Version: 6.00 Build 0)  -->
<svg version="1.1" id="Layer_2" xmlns="http://www.w3.org/2000/svg" xmlns:xlink="http://www.w3.org/1999/xlink" x="0px" y="0px"
	 viewBox="0 0 14.6 14.8" style="enable-background:new 0 0 14.6 14.8;" xml:space="preserve">
<style type="text/css">
	.st0{fill:#490E0E;}
</style>
<path class="st0" d="M11.2,13.5L11.2,13.5L11.2,13.5L11.2,13.5z"/>
<polygon class="st0" points="5.8,0.9 5.8,0.9 5.8,0.9 "/>
<g>
	<path class="st0" d="M4.5,0.8C4.6,0.8,4.6,0.8,4.5,0.8L4.5,0.8L4.5,0.8z"/>
	<path class="st0" d="M9,14.2C9,14.2,9,14.3,9,14.2C9.1,14.3,9.1,14.2,9,14.2z"/>
	<path class="st0" d="M4.4,0.9l0.1-0.1C4.5,0.8,4.5,0.8,4.4,0.9C4.5,0.8,4.5,0.8,4.4,0.9z"/>
	<path class="st0" d="M5.7,0.6C5.7,0.6,5.7,0.7,5.7,0.6C5.7,0.6,5.7,0.6,5.7,0.6z"/>
	<path class="st0" d="M5.6,0.6C5.6,0.6,5.7,0.6,5.6,0.6C5.6,0.6,5.6,0.6,5.6,0.6z"/>
	<path class="st0" d="M11.8,12.5C11.8,12.5,11.8,12.5,11.8,12.5C11.8,12.5,11.7,12.6,11.8,12.5L11.8,12.5z"/>
	<path class="st0" d="M14.3,7.4l-0.1,0.1L14.3,7.4c-0.2,0-0.2,0-0.2,0c0-0.1,0-0.1,0-0.2c0-0.1,0-0.1,0-0.2c0,0,0,0.1,0.1,0.1
		c0,0.1,0,0.1-0.1,0.1C14.1,7.2,14.1,7.3,14.3,7.4c0-0.2,0-0.3-0.1-0.4h0.1c-0.2,0-0.2-0.1-0.3-0.1c0-0.1,0-0.1,0-0.2
		c0.1-0.1,0-0.2-0.1-0.4c0,0,0,0-0.1,0V6.2c0,0,0,0,0.1,0c0,0,0,0,0-0.1L14,6.2L13.9,6H14c0-0.1-0.1,0,0-0.2l-0.1-0.1H14
		c0-0.2-0.2-0.3-0.1-0.4c-0.1-0.2-0.1,0-0.3-0.2C13.7,5,13.7,5,13.8,4.9h-0.1V4.8c-0.1-0.1,0,0-0.1,0c0-0.1,0-0.2-0.1-0.2
		c-0.1-0.1-0.1-0.1,0-0.2c-0.1,0,0,0.1-0.1,0c0.1-0.1,0-0.1,0-0.2c-0.1-0.1-0.1-0.1-0.1-0.1c-0.1-0.1-0.1-0.2-0.1-0.2
		c0.1,0,0.1,0.1,0.1,0.1s0,0.1,0.1,0.1l0.1,0.1V4.1c0.1,0,0.1,0.1,0.1,0c-0.1,0-0.1-0.1-0.1-0.1c0-0.1,0-0.1-0.1-0.2
		c-0.1,0.1-0.2-0.2-0.3-0.3c0.1,0-0.1-0.3-0.2-0.5c-0.1,0-0.2-0.1-0.3-0.2c0.1-0.1,0.1-0.1,0.2,0l-0.1-0.1c-0.1,0-0.1,0-0.1-0.1h0.1
		c-0.1-0.1-0.3-0.2-0.4-0.4c-0.1,0.1-0.1,0.2-0.2,0.2c-0.1,0-0.1,0-0.1,0s-0.1,0-0.1-0.1H12c0,0,0,0,0,0c0,0,0,0,0.1,0
		c0,0,0,0-0.1-0.1c0,0,0,0,0,0c-0.1-0.1-0.1-0.1-0.1-0.2c0,0-0.1,0.1-0.1,0c-0.1-0.1,0-0.1,0-0.2c-0.1,0-0.1-0.1-0.2,0V1.7
		c-0.1,0-0.2-0.1-0.3-0.1v0.1c0,0,0,0-0.1,0c-0.1,0-0.1-0.1-0.2-0.1c0.1-0.1,0-0.1,0-0.2c-0.1-0.1-0.2-0.2-0.3-0.2
		C10.5,1.1,10.4,1,10.2,1c-0.1,0-0.1-0.1-0.1-0.1c-0.1,0-0.1,0-0.3-0.1c0.1,0,0-0.1,0.1,0c0-0.1-0.1-0.1-0.2-0.1
		c0.1-0.1-0.1-0.1-0.2-0.1l0.1,0.1c-0.1,0-0.2-0.1-0.2-0.1l0.1-0.1C9.3,0.4,9.1,0.4,9,0.4c-0.2,0-0.3,0-0.4-0.1
		C8.5,0.4,8.8,0.4,8.7,0.5C8.6,0.4,8.4,0.2,8.4,0.2C8.2,0.2,8.2,0.4,8,0.3c0,0.1,0,0.1-0.1,0.2c-0.1,0-0.2-0.2-0.1-0.2h0.1
		C8,0.3,8,0.3,8,0.2c-0.2,0-0.4,0-0.4,0c-0.1,0-0.1,0.1,0,0.1c-0.2,0-0.2,0-0.4,0c0,0,0.1,0.1,0,0.1c-0.3,0-0.1,0.1-0.3,0.1
		c-0.1-0.1,0-0.1-0.2-0.1c-0.1,0,0-0.1,0-0.1c-0.1,0-0.1,0-0.1,0c-0.1,0-0.1,0-0.1,0c-0.1,0-0.2,0-0.2,0l0.1-0.1
		c-0.1,0-0.1,0.1-0.2,0.1l0.1,0.1c-0.1,0-0.1,0-0.1,0c-0.1,0.1,0.1,0.1,0,0.2C6.1,0.6,6,0.7,6,0.6c0.2,0-0.1-0.1,0.1-0.1H6
		c-0.2,0-0.1,0.1-0.3,0.2c0,0,0,0,0,0c0,0,0,0-0.1,0c-0.2,0-0.1,0.1-0.2,0.1h0.1c0,0.1-0.1,0.1-0.2,0.1c0,0,0.1-0.1,0-0.1
		c-0.1,0-0.3-0.1-0.4,0c-0.1,0,0-0.1-0.1-0.1c-0.1,0.1-0.1,0-0.2,0.1L4.5,0.9c0.1-0.1,0.2-0.1,0.2-0.1c-0.1,0.1-0.1,0.1,0,0.1
		C4.5,0.8,4.5,1.1,4.3,1.1L4.2,0.9C4.1,0.9,4,1,4,1.1c0,0.1-0.2,0.1-0.3,0.2h0.1c0,0.1-0.1,0.1-0.2,0.2c0-0.1-0.1-0.1-0.1-0.1
		S3.3,1.5,3.4,1.6H3.2C2.9,1.7,3,1.9,2.8,2.1c0-0.1-0.1-0.1,0-0.2C2.7,1.9,2.7,2,2.7,2S2.6,2.2,2.5,2.2v0.1c0,0-0.1,0.1,0,0.1
		c-0.1,0-0.2,0.1-0.3,0.2c0,0.1-0.1,0.1-0.1,0.1s0,0-0.1,0.1S1.9,3,1.8,3c0,0.1-0.1,0.3-0.2,0.4c-0.2,0.1,0,0.2-0.1,0.4
		c-0.1,0.1,0-0.1-0.1-0.1C1.2,3.6,1.3,3.9,1.1,4V3.9C1,4,1.1,4.2,1,4.4C1,4.6,1,4.8,0.9,5c-0.1-0.1,0-0.1-0.1-0.1
		c0,0.1,0.1,0,0.1,0.2c-0.1,0-0.1,0.1-0.2,0.1H0.6c-0.1,0.2,0.1,0.3,0,0.5h0.1C0.7,6,0.5,5.9,0.6,6H0.5c0,0.1,0.1,0.4,0.1,0.5
		c-0.2,0-0.2-0.2-0.2-0.4c0,0.1,0,0.2,0,0.3c0.1,0.1,0.1,0.3,0.1,0.5C0.4,6.8,0.4,7,0.3,7.1c0,0.1,0,0.3-0.1,0.4
		C0.3,7.6,0.3,7.8,0.3,8s0,0.4,0.1,0.6c0.2-0.2,0,0.1,0.2,0.1c0,0.1,0.1,0.1,0,0.1h0.1c0,0.1-0.1,0.1-0.1,0.1v0.2
		C0.5,9.2,0.5,9,0.4,9c0,0.2-0.1,0.1-0.1,0.2c0.1-0.1,0.1,0.1,0.1,0.2l0.1-0.2c0.1,0.1,0.1,0.2,0.1,0.2c0,0.1,0,0.1,0.1,0.2L0.5,9.7
		c0,0.1,0.1,0.2,0.1,0.3c0.1,0.1,0.2,0.2,0.2,0.2s0,0.1-0.1,0c0.1,0.2,0.2,0.3,0.3,0.5c0.1,0.1,0.2,0.3,0.2,0.4h0.1
		c0.1,0.1,0.1,0.1,0.1,0.1s0.2,0.1,0.2,0.2H1.5c0.1,0.1,0.2,0.2,0.3,0.3C1.9,11.8,2,11.9,2.1,12c-0.1,0.1,0.1,0.3,0.1,0.4
		c0.1,0.1,0.3,0.2,0.4,0.3c0.1,0.1,0.3,0.1,0.5,0.2c0,0.1,0.1,0.1,0.1,0.2c0.1,0.1,0.2,0.1,0.2,0.2c0.2,0.1,0.4,0.2,0.5,0.4
		c0-0.1,0.1-0.1,0.1-0.1c0.1,0.1,0.2,0,0.2,0.1c0,0.1,0.2,0.2,0.3,0.2l0.1-0.1C4.8,14,5,14.1,5.2,14.1s0.4,0.1,0.5,0.2
		c0.1,0,0.2,0,0.3,0v0.1c0.1,0,0.2,0.1,0.3,0.1c0.1,0,0.2,0.1,0.3,0l-0.1,0.1c0.2,0,0.2-0.2,0.4-0.2H7c0.3,0,0.6,0.1,0.9,0
		c0,0,0,0.1-0.1,0.1c0.1,0,0.5,0,0.5-0.1c0,0.1,0.3,0,0.4-0.1v0.1c0.1-0.1,0.1-0.2,0.3-0.2c0,0,0,0,0,0c0-0.1,0-0.2,0.2-0.2
		l-0.1,0.1c0.1,0,0.1-0.1,0.2-0.1c0.1-0.1,0.3-0.1,0.3,0c0-0.1,0.1-0.1,0.1-0.1V14c0.1,0,0.1,0,0.2-0.1c0.1,0,0.1-0.1,0.1-0.1
		c0.1-0.1,0.1-0.1,0.2-0.1c0,0,0,0,0.1,0c-0.2,0.1-0.3,0.1-0.3,0.1c0,0.1,0.2,0,0.1,0.2c0.1-0.1,0.2-0.3,0.4-0.4c0,0,0.1,0,0.1-0.1
		c0.1,0,0.1,0,0.1-0.1c0,0,0,0,0.1,0c0,0,0.1,0,0.1-0.1c0,0,0,0,0,0.1c0.1,0,0.1-0.1,0.1-0.1c-0.1-0.1,0.1-0.1-0.1-0.1
		c0,0,0,0-0.1,0.1c0,0-0.1,0.1-0.2,0.1c0-0.1,0.1-0.1,0.2-0.1c0-0.1,0-0.1,0-0.2c0.2,0.1,0.4,0,0.4,0c0.1-0.1,0.2-0.2,0.3-0.3
		s0.1-0.1,0.1-0.1c0-0.1,0.1-0.1,0.1-0.2c0-0.1,0.1,0,0.1,0c0.1-0.1,0.2-0.2,0.1-0.3c0.2-0.1,0,0.1,0.2,0v0.1
		c0.2-0.1,0.3-0.3,0.4-0.5s0.1-0.4,0.3-0.5c0.1-0.1,0.2-0.2,0.3-0.4c0.1-0.1,0.2-0.2,0.2-0.4c0.1-0.1,0.1-0.3,0.2-0.4
		c0.1-0.1,0.1-0.2,0.2-0.4c0.1-0.2,0-0.2,0-0.3h0.1c0-0.1-0.1-0.1-0.1-0.2c0-0.1,0.1-0.2,0.1-0.3c0-0.1,0.1-0.1,0.1-0.2
		c0-0.1,0-0.1,0-0.2h-0.1c0-0.1,0-0.4,0.1-0.3c0,0-0.1-0.1,0-0.1H14c0-0.1,0-0.2,0-0.3c0.1-0.2,0.2,0.1,0.2-0.2
		C14.5,7.6,14.4,7.4,14.3,7.4z M10.1,9.9H4.5C4.2,9.9,4,9.7,4,9.4s0.2-0.5,0.5-0.5h5.6c0.3,0,0.5,0.2,0.5,0.5S10.4,9.9,10.1,9.9z
		 M10.1,7.9H4.5C4.2,7.9,4,7.7,4,7.4s0.2-0.5,0.5-0.5h5.6c0.3,0,0.5,0.2,0.5,0.5S10.4,7.9,10.1,7.9z M10.1,5.9H4.5
		C4.2,5.9,4,5.7,4,5.4s0.2-0.5,0.5-0.5h5.6c0.3,0,0.5,0.2,0.5,0.5S10.4,5.9,10.1,5.9z"/>
	<path class="st0" d="M14.1,6.7C14.1,6.8,14,6.7,14.1,6.7C14,6.7,14,6.7,14.1,6.7L14.1,6.7z"/>
	<path class="st0" d="M0.7,5.1v0.1C0.7,5.1,0.7,5.1,0.7,5.1C0.7,5,0.7,5.1,0.7,5.1z"/>
</g>
</svg>
