<?xml version="1.0" encoding="utf-8"?>
<!-- Generator: Adobe Illustrator 21.1.0, SVG Export Plug-In . SVG Version: 6.00 Build 0)  -->
<svg version="1.1" id="Layer_2" xmlns="http://www.w3.org/2000/svg" xmlns:xlink="http://www.w3.org/1999/xlink" x="0px" y="0px"
	 viewBox="0 0 14.6 14.8" style="enable-background:new 0 0 14.6 14.8;" xml:space="preserve">
<style type="text/css">
	.st0{fill:#490E0E;}
</style>
<g>
	<path class="st0" d="M5,9.4C5,9.4,5,9.4,5,9.4L5,9.4C5,9.4,5,9.4,5,9.4z"/>
	<path class="st0" d="M6.2,9.4c0,0,0,0.1,0,0.1C6.3,9.5,6.3,9.4,6.2,9.4z"/>
	<path class="st0" d="M8.6,9.1C8.5,9.1,8.5,9.1,8.6,9.1C8.5,9,8.5,9.1,8.6,9.1l0-0.1l0,0L8.6,9.1C8.5,9.2,8.5,9.1,8.6,9.1z"/>
	<path class="st0" d="M6.6,9.4C6.6,9.4,6.6,9.4,6.6,9.4C6.6,9.4,6.6,9.4,6.6,9.4z"/>
	<path class="st0" d="M5.2,9.4L5.2,9.4C5.2,9.4,5.2,9.4,5.2,9.4C5.2,9.4,5.2,9.4,5.2,9.4z"/>
	<path class="st0" d="M6.2,5.5c0,0,0,0.1,0,0.1C6.3,5.6,6.3,5.5,6.2,5.5z"/>
	<path class="st0" d="M5.2,5.5C5.2,5.5,5.2,5.5,5.2,5.5L5.2,5.5C5.2,5.5,5.2,5.5,5.2,5.5z"/>
	<path class="st0" d="M5,5.5C5,5.5,5,5.5,5,5.5L5,5.5C5,5.5,5,5.5,5,5.5z"/>
	<path class="st0" d="M8.6,5.2C8.5,5.2,8.5,5.2,8.6,5.2C8.5,5.1,8.5,5.2,8.6,5.2l0-0.1l0,0L8.6,5.2C8.5,5.3,8.5,5.1,8.6,5.2z"/>
	<path class="st0" d="M6.6,5.5C6.6,5.5,6.6,5.5,6.6,5.5C6.6,5.5,6.6,5.5,6.6,5.5z"/>
	<path class="st0" d="M9.6,7.1C9.6,7.1,9.6,7.1,9.6,7.1L9.6,7.1C9.6,7.1,9.6,7.1,9.6,7.1z"/>
	<path class="st0" d="M8,7.1C8,7.1,8,7.1,8,7.1C8,7.1,8,7.1,8,7.1z"/>
	<path class="st0" d="M10.6,7L10.6,7C10.5,7,10.5,7,10.6,7L10.6,7L10.6,7z"/>
	<path class="st0" d="M8.4,7.1c0,0,0-0.1,0-0.1C8.4,7,8.4,7.1,8.4,7.1z"/>
	<path class="st0" d="M9.4,7.2C9.4,7.2,9.4,7.1,9.4,7.2L9.4,7.2C9.4,7.1,9.4,7.2,9.4,7.2z"/>
	<path class="st0" d="M6,7.4C6.1,7.5,6.1,7.4,6,7.4C6.1,7.5,6.1,7.5,6,7.4l0,0.1l0,0L6,7.4C6.1,7.4,6.1,7.5,6,7.4z"/>
	<path class="st0" d="M14.3,7.4c-0.2,0-0.2,0-0.2,0c0-0.1,0-0.1,0-0.2c0-0.1,0-0.1,0-0.2c0,0,0,0.1,0.1,0.1c0,0.1,0,0.1-0.1,0.1
		C14.1,7.2,14.1,7.3,14.3,7.4c0-0.2,0-0.3-0.1-0.4h0.1c-0.2,0-0.2-0.1-0.3-0.1c0-0.1,0-0.1,0-0.2c0.1-0.1,0-0.2-0.1-0.4
		c0,0,0,0-0.1,0V6.2c0,0,0,0,0.1,0c0,0,0,0,0-0.1L14,6.2L13.9,6H14c0-0.1-0.1,0,0-0.2l-0.1-0.1H14c0-0.2-0.2-0.3-0.1-0.4
		c-0.1-0.2-0.1,0-0.3-0.2C13.7,5,13.7,5,13.8,4.9h-0.1V4.8c-0.1-0.1,0,0-0.1,0c0-0.1,0-0.2-0.1-0.2c-0.1-0.1-0.1-0.1,0-0.2
		c-0.1,0,0,0.1-0.1,0c0.1-0.1,0-0.1,0-0.2c-0.1-0.1-0.1-0.1-0.1-0.1c-0.1-0.1-0.1-0.2-0.1-0.2c0.1,0,0.1,0.1,0.1,0.1s0,0.1,0.1,0.1
		l0.1,0.1V4.1c0.1,0,0.1,0.1,0.1,0c-0.1,0-0.1-0.1-0.1-0.1c0-0.1,0-0.1-0.1-0.2c-0.1,0.1-0.2-0.2-0.3-0.3c0.1,0-0.1-0.3-0.2-0.5
		c-0.1,0-0.2-0.1-0.3-0.2c0.1-0.1,0.1-0.1,0.2,0l-0.1-0.1c-0.1,0-0.1,0-0.1-0.1h0.1c-0.1-0.1-0.3-0.2-0.4-0.4
		c-0.1,0.1-0.1,0.2-0.2,0.2c-0.1,0-0.1,0-0.1,0s-0.1,0-0.1-0.1H12c0,0,0,0,0.1,0c0,0,0,0-0.1-0.1c-0.1-0.1-0.1-0.1-0.1-0.2
		c0,0-0.1,0.1-0.1,0c-0.1-0.1,0-0.1,0-0.2c-0.1,0-0.1-0.1-0.2,0V1.7c-0.1,0-0.2-0.1-0.3-0.1v0.1c0,0,0,0-0.1,0
		c-0.1,0-0.1-0.1-0.2-0.1c0.1-0.1,0-0.1,0-0.2c-0.1-0.1-0.2-0.2-0.3-0.2C10.5,1.1,10.4,1,10.2,1c-0.1,0-0.1-0.1-0.1-0.1
		c-0.1,0-0.1,0-0.3-0.1c0.1,0,0-0.1,0.1,0c0-0.1-0.1-0.1-0.2-0.1c0.1-0.1-0.1-0.1-0.2-0.1l0.1,0.1c-0.1,0-0.2-0.1-0.2-0.1l0.1-0.1
		C9.3,0.4,9.1,0.4,9,0.4c-0.2,0-0.3,0-0.4-0.1C8.5,0.4,8.8,0.4,8.7,0.5C8.6,0.4,8.4,0.2,8.4,0.2C8.2,0.2,8.2,0.4,8,0.3
		c0,0.1,0,0.1-0.1,0.2c-0.1,0-0.2-0.2-0.1-0.2h0.1C8,0.3,8,0.3,8,0.2c-0.2,0-0.4,0-0.4,0c-0.1,0-0.1,0.1,0,0.1c-0.2,0-0.2,0-0.4,0
		c0,0,0.1,0.1,0,0.1c-0.3,0-0.1,0.1-0.3,0.1c-0.1-0.1,0-0.1-0.2-0.1c-0.1,0,0-0.1,0-0.1c-0.1,0-0.1,0-0.1,0c-0.1,0-0.1,0-0.1,0
		c-0.1,0-0.2,0-0.2,0l0.1-0.1c-0.1,0-0.1,0.1-0.2,0.1l0.1,0.1c-0.1,0-0.1,0-0.1,0c-0.1,0.1,0.1,0.1,0,0.2C6.1,0.6,6,0.7,6,0.6
		c0.2,0-0.1-0.1,0.1-0.1H6c-0.2,0-0.1,0.1-0.3,0.2c0,0,0,0-0.1,0c-0.2,0-0.1,0.1-0.2,0.1h0.1c0,0.1-0.1,0.1-0.2,0.1
		c0,0,0.1-0.1,0-0.1c-0.1,0-0.3-0.1-0.4,0c-0.1,0,0-0.1-0.1-0.1c-0.1,0.1-0.1,0-0.2,0.1L4.5,0.9c0.1-0.1,0.2-0.1,0.2-0.1
		c-0.1,0.1-0.1,0.1,0,0.1C4.5,0.8,4.5,1.1,4.3,1.1L4.2,0.9C4.1,0.9,4,1,4,1.1c0,0.1-0.2,0.1-0.3,0.2h0.1c0,0.1-0.1,0.1-0.2,0.2
		c0-0.1-0.1-0.1-0.1-0.1S3.3,1.5,3.4,1.6H3.2C2.9,1.7,3,1.9,2.8,2.1c0-0.1-0.1-0.1,0-0.2C2.7,1.9,2.7,2,2.7,2S2.6,2.2,2.5,2.2v0.1
		c0,0-0.1,0.1,0,0.1c-0.1,0-0.2,0.1-0.3,0.2c0,0.1-0.1,0.1-0.1,0.1s0,0-0.1,0.1S1.9,3,1.8,3c0,0.1-0.1,0.3-0.2,0.4
		c-0.2,0.1,0,0.2-0.1,0.4c-0.1,0.1,0-0.1-0.1-0.1C1.2,3.6,1.3,3.9,1.1,4V3.9C1,4,1.1,4.2,1,4.4C1,4.6,1,4.8,0.9,5
		c-0.1-0.1,0-0.1-0.1-0.1c0,0.1,0.1,0,0.1,0.2c-0.1,0-0.1,0.1-0.2,0.1H0.6c-0.1,0.2,0.1,0.3,0,0.5h0.1C0.7,6,0.5,5.9,0.6,6H0.5
		c0,0.1,0.1,0.4,0.1,0.5c-0.2,0-0.2-0.2-0.2-0.4c0,0.1,0,0.2,0,0.3c0.1,0.1,0.1,0.3,0.1,0.5C0.4,6.8,0.4,7,0.3,7.1
		c0,0.1,0,0.3-0.1,0.4C0.3,7.6,0.3,7.8,0.3,8s0,0.4,0.1,0.6c0.2-0.2,0,0.1,0.2,0.1c0,0.1,0.1,0.1,0,0.1h0.1c0,0.1-0.1,0.1-0.1,0.1
		v0.2C0.5,9.2,0.5,9,0.4,9c0,0.2-0.1,0.1-0.1,0.2c0.1-0.1,0.1,0.1,0.1,0.2l0.1-0.2c0.1,0.1,0.1,0.2,0.1,0.2c0,0.1,0,0.1,0.1,0.2
		L0.5,9.7c0,0.1,0.1,0.2,0.1,0.3c0.1,0.1,0.2,0.2,0.2,0.2s0,0.1-0.1,0c0.1,0.2,0.2,0.3,0.3,0.5c0.1,0.1,0.2,0.3,0.2,0.4h0.1
		c0.1,0.1,0.1,0.1,0.1,0.1s0.2,0.1,0.2,0.2H1.5c0.1,0.1,0.2,0.2,0.3,0.3C1.9,11.8,2,11.9,2.1,12c-0.1,0.1,0.1,0.3,0.1,0.4
		c0.1,0.1,0.3,0.2,0.4,0.3c0.1,0.1,0.3,0.1,0.5,0.2c0,0.1,0.1,0.1,0.1,0.2c0.1,0.1,0.2,0.1,0.2,0.2c0.2,0.1,0.4,0.2,0.5,0.4
		c0-0.1,0.1-0.1,0.1-0.1c0.1,0.1,0.2,0,0.2,0.1c0,0.1,0.2,0.2,0.3,0.2l0.1-0.1C4.8,14,5,14.1,5.2,14.1s0.4,0.1,0.5,0.2
		c0.1,0,0.2,0,0.3,0v0.1c0.1,0,0.2,0.1,0.3,0.1c0.1,0,0.2,0.1,0.3,0l-0.1,0.1c0.2,0,0.2-0.2,0.4-0.2H7c0.3,0,0.6,0.1,0.9,0
		c0,0,0,0.1-0.1,0.1c0.1,0,0.5,0,0.5-0.1c0,0.1,0.3,0,0.4-0.1v0.1c0.1-0.1,0.1-0.2,0.3-0.2C9,14.1,9,14,9.2,14l-0.1,0.1
		c0.1,0,0.1-0.1,0.2-0.1c0.1-0.1,0.3-0.1,0.3,0c0-0.1,0.1-0.1,0.1-0.1V14c0.1,0,0.1,0,0.2-0.1c0.1,0,0.1-0.1,0.1-0.1
		c0.1-0.1,0.1-0.1,0.2-0.1c0,0,0,0,0.1,0c-0.2,0.1-0.3,0.1-0.3,0.1c0,0.1,0.2,0,0.1,0.2c0.1-0.1,0.2-0.3,0.4-0.4c0,0,0.1,0,0.1-0.1
		c0.1,0,0.1,0,0.1-0.1c0,0,0,0,0.1,0c0,0,0.1,0,0.1-0.1c0,0,0,0,0,0.1c0.1,0,0.1-0.1,0.1-0.1c-0.1-0.1,0.1-0.1-0.1-0.1
		c0,0,0,0-0.1,0.1c0,0-0.1,0.1-0.2,0.1c0-0.1,0.1-0.1,0.2-0.1c0-0.1,0-0.1,0-0.2c0.2,0.1,0.4,0,0.4,0c0.1-0.1,0.2-0.2,0.3-0.3
		s0.1-0.1,0.1-0.1c0-0.1,0.1-0.1,0.1-0.2c0-0.1,0.1,0,0.1,0c0.1-0.1,0.2-0.2,0.1-0.3c0.2-0.1,0,0.1,0.2,0v0.1
		c0.2-0.1,0.3-0.3,0.4-0.5s0.1-0.4,0.3-0.5c0.1-0.1,0.2-0.2,0.3-0.4c0.1-0.1,0.2-0.2,0.2-0.4c0.1-0.1,0.1-0.3,0.2-0.4
		c0.1-0.1,0.1-0.2,0.2-0.4c0.1-0.2,0-0.2,0-0.3h0.1c0-0.1-0.1-0.1-0.1-0.2c0-0.1,0.1-0.2,0.1-0.3c0-0.1,0.1-0.1,0.1-0.2
		c0-0.1,0-0.1,0-0.2h-0.1c0-0.1,0-0.4,0.1-0.3c0,0-0.1-0.1,0-0.1H14c0-0.1,0-0.2,0-0.3c0.1-0.2,0.2,0.1,0.2-0.2
		C14.5,7.6,14.4,7.4,14.3,7.4z M4,5.3L4,5.3C4,5.3,4,5.3,4,5.3c0-0.1,0-0.2,0-0.2C4.1,5.1,4.1,5.3,4,5.3l0.1-0.1v0c0,0,0,0,0,0
		c0,0,0,0,0,0v0c0.1-0.1,0.1,0.1,0.1,0.1l0-0.1v0.1c0,0,0-0.1,0-0.1c0.1,0.1,0.2,0,0.3,0c0,0,0,0,0,0c0.1,0.2,0.1-0.2,0.2,0v0
		c0,0,0,0,0,0.1c0-0.1,0.1-0.1,0.1-0.1c0,0,0,0,0,0c0,0,0,0.1,0,0.1C4.9,5.1,5,5.1,5,5.1c0,0.1,0,0.1,0.1,0.2c0,0,0-0.1,0-0.1
		c0,0,0,0,0,0c0,0,0,0,0,0c0,0,0,0,0,0c0,0,0,0,0,0c0,0,0,0,0-0.1c0,0,0,0,0,0c0,0,0,0,0,0c0,0,0,0,0,0v0c0,0,0,0,0,0
		c0,0,0.1-0.1,0.1-0.1c0,0.1,0,0.1,0,0.2c0,0,0,0,0,0c0,0,0,0,0,0c0,0.1,0-0.1,0.1,0c0,0,0,0,0,0c0,0,0,0,0-0.1c0,0.1,0,0.1,0,0.1
		c0-0.1,0-0.1,0-0.1l0,0c0,0,0-0.1,0,0c0,0,0,0,0,0c0,0,0,0,0-0.1v0.1c0,0,0.1-0.1,0.1,0C5.5,5,5.6,5,5.6,5c0,0,0,0,0,0
		c0-0.1,0.1,0,0.1,0v0.1c0,0,0-0.2,0.1-0.2l0,0c0,0,0.1,0,0.1,0v0.1c0,0,0,0,0-0.1C5.9,5.2,6,5,6.1,5.2V5c0,0,0,0,0.1,0.1
		c0,0.1,0,0,0,0c0,0,0-0.1,0-0.1c0,0.1,0.1,0,0.2,0.1c0,0,0.1-0.1,0.1-0.1v0c0,0,0.1,0,0.1,0.2c0,0,0.1-0.2,0.1-0.1l0,0c0,0,0,0,0,0
		c0,0,0,0,0,0c0,0,0,0,0,0v0c0,0.1,0.1-0.1,0.2,0c0,0,0,0.1,0,0.1C6.9,5,7,5,7,5l0,0C7,5,7,5.2,7,5.1L7,5C7,5,7,5,7,5
		c0,0,0,0.1,0,0.1c0,0,0,0,0,0.1l0,0.1c0,0,0,0,0,0c0-0.2,0,0,0-0.2c0.1,0,0.1,0.1,0.2,0c0,0.1,0.1,0,0.1,0.2c0,0,0.1,0,0.1-0.1
		c0,0,0,0,0,0c0,0,0,0,0,0c0,0,0,0,0,0c0,0,0,0,0,0c0,0,0,0.1-0.1,0.1c0,0,0.1-0.1,0.1-0.1v0.1c0-0.1,0,0.1,0,0v0c0,0,0-0.1,0.1-0.1
		v0c0,0,0-0.1,0,0h0c0,0.1,0,0.1,0,0.1c0,0,0,0,0,0c0,0,0,0,0,0c0,0,0,0,0,0c0,0,0-0.1,0-0.1c0,0,0,0.1,0,0.1c0,0,0,0,0,0
		c0,0,0.1,0,0.1-0.1c0,0,0,0,0,0c0,0,0.1-0.1,0.1,0v0c0,0.1,0.1-0.1,0.1,0.1c0,0,0,0,0,0.1c0,0,0-0.1,0.1-0.1c0,0,0,0,0,0
		c0,0,0,0,0.1,0c0,0.1,0.1,0,0.1,0.1c0,0,0-0.1,0-0.1c0,0,0,0,0,0c0,0,0,0,0-0.1c0,0,0,0,0,0c0,0,0,0,0,0c0,0,0,0.1,0,0.1
		c0,0,0-0.1,0.1-0.1l0,0.1c0-0.1,0-0.1,0-0.1c0,0,0,0,0,0.1c0,0,0,0,0,0l0,0c0,0,0.1-0.1,0.1,0v0c0,0,0,0,0-0.1c0,0,0,0.1,0.1,0
		c0,0,0,0.1,0,0.1c0,0,0,0,0.1,0c0,0,0,0,0,0c0,0,0,0,0,0c0,0,0,0,0,0c0,0,0,0,0,0l0,0c0,0,0-0.1,0,0c0,0,0-0.1,0-0.1c0,0,0,0,0,0.1
		c0,0,0-0.2,0-0.1c0,0,0,0,0,0c0,0,0,0,0,0c0,0,0,0.1,0,0.1c0,0.1,0,0,0,0c0,0,0-0.1,0-0.1c0,0,0,0,0,0l0-0.1c0,0,0,0,0,0l0,0
		c0,0,0,0.1,0.1,0c0,0,0,0.1,0,0.1c0,0,0,0,0,0.1c0,0,0-0.1,0-0.1c0,0,0,0,0,0c0,0,0,0,0.1,0c0,0,0,0,0-0.1c0,0,0,0,0,0.1
		c0,0,0,0,0,0v0c0,0,0,0,0,0c0,0,0,0,0,0l0,0c0,0,0,0.1,0,0.1c0,0,0-0.1,0-0.1c0,0,0-0.1,0.1-0.1c0,0,0,0.1,0.1,0.1c0-0.1,0,0,0-0.1
		c0,0.2,0.1-0.1,0.1,0v0.1c0,0,0,0,0,0l0,0c0,0,0,0,0,0.1c0-0.1,0,0,0.1,0c0,0,0,0,0,0c0,0,0,0,0,0c0,0,0,0.1,0,0.1
		c0-0.1,0,0,0.1-0.1v0c0,0,0.1,0.1,0.1,0c0-0.1,0,0,0-0.1c0,0,0,0,0,0c0-0.1,0,0,0-0.1c0,0,0,0.1,0,0.1c0,0,0,0,0-0.1
		c0,0,0,0.1,0,0.1c0,0,0,0,0,0c0,0,0,0,0,0.1c0,0,0-0.1,0,0l0,0.1c0,0,0,0,0,0c0,0,0,0.1,0,0.1c0,0,0-0.2,0-0.2c0,0,0,0,0.1,0v0.1
		c0,0,0,0,0,0h0c0,0,0,0,0,0.1c0,0,0,0,0-0.1v0c0,0,0.1,0.1,0.1,0.1c0,0,0.1,0,0.1-0.1c0,0,0,0.1,0.1,0c0,0,0,0,0,0.1
		c0,0.1,0-0.1,0,0c0,0,0,0,0-0.1c0,0.1,0,0,0.1,0.1c0,0,0,0,0-0.1c0,0,0,0,0,0V5.2l0,0.2c0-0.1,0-0.1,0-0.2v0c0,0.1,0-0.1,0.1,0
		c0,0,0,0,0,0.1l0,0c0,0,0,0,0,0c0,0.1,0,0,0,0c0,0,0,0.1,0,0.1l0-0.1l0,0.1c0,0,0.1-0.1,0.1,0l0,0c0,0,0,0.1,0,0.1c0,0,0,0,0,0
		c0,0,0-0.1,0-0.1l0,0c0,0,0,0,0,0c0,0,0,0,0,0c0,0,0,0,0,0c0,0,0,0,0,0c0,0,0,0,0-0.1c0,0,0,0.1,0,0.1c0,0,0-0.1,0-0.1c0,0,0,0,0,0
		c0,0,0,0,0,0c0,0,0,0,0,0c0,0,0,0,0,0c0,0,0,0,0-0.1c0,0,0,0.1-0.1,0.2c0,0.1-0.1-0.1-0.1,0c0,0,0,0,0,0.1c0-0.1,0,0,0-0.1
		c0,0.1,0,0,0,0c0,0,0,0,0-0.1c0-0.1,0,0,0-0.1c0,0.1,0,0-0.1,0.1l0,0l0,0c0,0,0,0,0-0.1c0,0,0,0,0,0c0-0.1,0,0.1-0.1,0.1
		c0-0.1,0,0,0-0.1c0,0,0,0,0,0v0c0-0.1,0,0.1,0,0c0,0,0,0,0,0c0,0,0-0.1,0-0.1c0,0,0,0,0,0.1c0,0,0,0,0,0.1l0,0l0,0
		C9.8,5.4,9.7,5.6,9.6,5.5c0,0,0,0,0,0.1c0,0-0.1,0-0.1,0v0c-0.1,0-0.1,0.1-0.1,0.1c0,0,0,0,0-0.1c0,0.1-0.1-0.1-0.1,0l0,0
		c0,0-0.1,0.1-0.1,0.1c0-0.1,0,0,0-0.1c0,0-0.1,0-0.1,0c0,0,0,0,0,0c0,0,0,0.1,0,0.1c0,0,0,0,0-0.1l0,0.1c0,0,0,0,0-0.1
		c0,0.1,0,0-0.1,0.1c0,0,0-0.1,0-0.1c0,0,0,0,0,0c0,0,0,0,0,0c0,0,0,0,0,0.1l0,0l0,0l0,0c0,0,0,0-0.1,0l0,0l0,0c0-0.1,0,0,0-0.1
		c0,0-0.1,0.1-0.1,0.1c0,0,0,0,0,0c0,0,0,0-0.1,0.1c0,0,0,0,0-0.1c0,0,0,0.1,0,0.1c0,0,0-0.1,0-0.1c0,0,0,0,0,0.1c0-0.2,0-0.1,0-0.2
		c0,0,0,0.1,0,0.2l0,0c0,0,0,0,0,0c0,0,0,0,0,0c0,0,0,0,0,0c0,0,0,0,0,0c0,0,0,0,0,0c0,0,0,0,0,0c0,0.1-0.1,0-0.1,0c0,0,0,0,0-0.1
		c-0.1,0-0.1,0.1-0.1,0.1c0-0.1,0.1,0,0.1-0.1c0,0-0.1,0.1-0.2,0.1c0-0.2-0.1,0.1-0.1-0.1c0,0,0,0.1,0,0.1c0,0,0,0,0-0.1
		c0,0-0.1,0.1-0.1,0c0,0.1,0,0,0,0.1c0,0,0,0-0.1,0c0,0.1,0,0,0,0.1c0,0,0,0,0,0c0-0.1,0,0,0,0c0,0,0-0.1,0-0.1c0,0,0,0.1-0.1,0
		c0,0,0,0,0,0c-0.1,0.1-0.1,0-0.2,0.1l0-0.1c-0.1-0.1,0,0.1-0.1,0.1c-0.1,0-0.2-0.1-0.3-0.1c0,0,0,0,0,0.1c0,0,0-0.1,0,0v0
		C7.1,5.6,7,5.8,7,5.6c0,0.1-0.1-0.1-0.1,0c0,0,0-0.1,0-0.1l0,0.1v0c0,0.1-0.1-0.1-0.2,0v0c0,0-0.1,0-0.1,0.1c0,0,0,0,0-0.1
		c0,0,0,0.1,0,0.1c0,0-0.1,0-0.1-0.1c0,0.1,0,0,0,0.1c0,0-0.1,0-0.1,0v0c0,0.1,0,0,0,0c0,0,0,0,0-0.1l0,0c0,0-0.1,0-0.1,0v0
		c0,0-0.1,0-0.1,0c0,0,0,0,0,0.1c0,0.1,0-0.1,0,0c0,0,0,0,0-0.1L6,5.6c0,0,0-0.1-0.1-0.1c0,0,0,0.1,0,0.1l0,0l0-0.1l0,0.1V5.5
		c0,0,0,0.1,0,0.1c0,0,0-0.1-0.1-0.1c0,0.1,0,0-0.1,0.1c0-0.1-0.1,0-0.2-0.1v0c0-0.1,0,0.1-0.1,0.1v0c0-0.1-0.1,0-0.1,0
		c0,0,0-0.1,0-0.1c0,0,0,0.1,0,0.1c0,0,0,0,0,0l0,0.1c0,0-0.1-0.1-0.2-0.1c0,0,0,0,0-0.1c0,0-0.1,0.1-0.1,0.1V5.5c0,0,0,0,0,0
		c0,0,0,0.1,0,0c0,0,0,0,0,0c0,0,0,0,0,0c0,0,0,0.1-0.1,0.1l0-0.1c0,0,0,0,0,0.1c0,0.1,0-0.2-0.1-0.1c0,0,0,0.1,0,0.1c0,0,0,0-0.1,0
		c0-0.1,0,0,0-0.1l0,0c0-0.1,0,0,0-0.1c0,0,0,0-0.1,0.1c0-0.1,0,0,0-0.1l0,0c0,0,0,0,0,0c0-0.1,0,0,0,0c0,0,0,0.1,0,0.1
		c0,0.1-0.1,0-0.1,0.1c0,0,0,0,0,0c0,0,0,0.1,0,0.1c0,0,0-0.1,0-0.1c0,0,0,0.1,0,0.1c0,0,0,0,0,0c0,0,0,0,0,0c0,0,0,0,0,0
		c0,0,0,0,0-0.1c0,0.1,0,0,0,0.1c0-0.1,0,0,0-0.1c0,0.1,0,0.1,0,0.1c0-0.1,0-0.1,0-0.2c0,0,0,0.1,0,0.2c0,0,0,0,0-0.1c0,0,0,0,0,0
		c0,0.1-0.1,0-0.1,0.1c0-0.1-0.1,0,0-0.1c0,0,0,0.1,0,0.1c0-0.1,0,0,0-0.1c0,0.1,0,0,0,0.1c0,0,0,0,0-0.1c0,0,0,0,0,0c0,0,0,0,0,0.1
		c0,0,0,0,0,0l0,0.1c0,0,0,0,0,0c0,0,0,0,0,0l0,0c0,0,0,0,0-0.1c0,0,0,0,0,0l0,0h0c0,0,0,0,0,0h0c0,0,0,0,0,0l0,0l0,0.1
		C4,5.6,4,5.5,4,5.3z M10.5,9.4C10.5,9.4,10.5,9.4,10.5,9.4C10.4,9.4,10.4,9.4,10.5,9.4C10.4,9.4,10.4,9.4,10.5,9.4
		C10.4,9.4,10.4,9.4,10.5,9.4C10.4,9.4,10.4,9.4,10.5,9.4C10.4,9.3,10.4,9.4,10.5,9.4C10.4,9.4,10.4,9.3,10.5,9.4
		C10.4,9.3,10.4,9.3,10.5,9.4c-0.1,0-0.1,0-0.1-0.1c0,0,0,0,0-0.1c0,0,0,0.1-0.1,0.2c0,0.1-0.1-0.1-0.1,0c0,0,0,0,0,0.1
		c0-0.1,0,0,0-0.1c0,0.1,0,0,0,0c0,0,0,0,0-0.1c0-0.1,0,0,0-0.1c0,0.1,0,0-0.1,0.1l0,0l0,0c0,0,0,0,0-0.1c0,0,0,0,0,0
		c0-0.1,0,0.1-0.1,0.1c0-0.1,0,0,0-0.1c0,0,0,0,0,0v0c0-0.1,0,0.1,0,0c0,0,0,0,0,0c0,0,0-0.1,0-0.1c0,0,0,0,0,0.1c0,0,0,0,0,0.1l0,0
		l0,0C9.8,9.3,9.7,9.5,9.6,9.4c0,0,0,0,0,0.1c0,0-0.1,0-0.1,0v0c-0.1,0-0.1,0.1-0.1,0.1c0,0,0,0,0-0.1c0,0.1-0.1-0.1-0.1,0l0,0
		c0,0-0.1,0.1-0.1,0.1c0-0.1,0,0,0-0.1c0,0-0.1,0-0.1,0c0,0,0,0,0,0c0,0,0,0.1,0,0.1c0,0,0,0,0-0.1l0,0.1c0,0,0,0,0-0.1
		c0,0.1,0,0-0.1,0.1c0,0,0-0.1,0-0.1c0,0,0,0,0,0c0,0,0,0,0,0c0,0,0,0,0,0.1l0,0l0,0l0,0c0,0,0,0-0.1,0l0,0l0,0c0-0.1,0,0,0-0.1
		c0,0-0.1,0.1-0.1,0.1c0,0,0,0,0,0c0,0,0,0-0.1,0.1c0,0,0,0,0-0.1c0,0,0,0.1,0,0.1c0,0,0-0.1,0-0.1c0,0,0,0,0,0.1c0-0.2,0-0.1,0-0.2
		c0,0,0,0.1,0,0.2l0,0c0,0,0,0,0,0c0,0,0,0,0,0c0,0,0,0,0,0c0,0,0,0,0,0c0,0,0,0,0,0c0,0,0,0,0,0c0,0.1-0.1,0-0.1,0c0,0,0,0,0-0.1
		c-0.1,0-0.1,0.1-0.1,0.1c0-0.1,0.1,0,0.1-0.1c0,0-0.1,0.1-0.2,0.1c0-0.2-0.1,0.1-0.1-0.1c0,0,0,0.1,0,0.1c0,0,0,0,0-0.1
		c0,0-0.1,0.1-0.1,0c0,0.1,0,0,0,0.1c0,0,0,0-0.1,0c0,0.1,0,0,0,0.1c0,0,0,0,0,0c0-0.1,0,0,0,0c0,0,0-0.1,0-0.1c0,0,0,0.1-0.1,0
		c0,0,0,0,0,0c-0.1,0.1-0.1,0-0.2,0.1l0-0.1c-0.1-0.1,0,0.1-0.1,0.1c-0.1,0-0.2-0.1-0.3-0.1c0,0,0,0,0,0.1c0,0,0-0.1,0,0v0
		C7.1,9.5,7,9.7,7,9.5c0,0.1-0.1-0.1-0.1,0c0,0,0-0.1,0-0.1l0,0.1v0c0,0.1-0.1-0.1-0.2,0v0c0,0-0.1,0-0.1,0.1c0,0,0,0,0-0.1
		c0,0,0,0.1,0,0.1c0,0-0.1,0-0.1-0.1c0,0.1,0,0,0,0.1c0,0-0.1,0-0.1,0v0c0,0.1,0,0,0,0c0,0,0,0,0-0.1l0,0c0,0-0.1,0-0.1,0v0
		c0,0-0.1,0-0.1,0c0,0,0,0,0,0.1c0,0.1,0-0.1,0,0c0,0,0,0,0-0.1L6,9.5c0,0,0-0.1-0.1-0.1c0,0,0,0.1,0,0.1l0,0l0-0.1l0,0.1V9.5
		c0,0,0,0.1,0,0.1c0,0,0-0.1-0.1-0.1c0,0.1,0,0-0.1,0.1c0-0.1-0.1,0-0.2-0.1v0c0-0.1,0,0.1-0.1,0.1v0c0-0.1-0.1,0-0.1,0
		c0,0,0-0.1,0-0.1c0,0,0,0.1,0,0.1c0,0,0,0,0,0l0,0.1c0,0-0.1-0.1-0.2-0.1c0,0,0,0,0-0.1c0,0-0.1,0.1-0.1,0.1V9.5c0,0,0,0,0,0
		c0,0,0,0.1,0,0c0,0,0,0,0,0c0,0,0,0,0,0c0,0,0,0.1-0.1,0.1l0-0.1c0,0,0,0,0,0.1c0,0.1,0-0.2-0.1-0.1c0,0,0,0.1,0,0.1c0,0,0,0-0.1,0
		c0-0.1,0,0,0-0.1l0,0c0-0.1,0,0,0-0.1c0,0,0,0-0.1,0.1c0-0.1,0,0,0-0.1l0,0c0,0,0,0,0,0c0-0.1,0,0,0,0c0,0,0,0.1,0,0.1
		c0,0.1-0.1,0-0.1,0.1c0,0,0,0,0,0c0,0,0,0.1,0,0.1c0,0,0-0.1,0-0.1c0,0,0,0.1,0,0.1c0,0,0,0,0,0c0,0,0,0,0,0c0,0,0,0,0,0
		c0,0,0,0,0-0.1c0,0.1,0,0,0,0.1c0-0.1,0,0,0-0.1c0,0.1,0,0.1,0,0.1c0-0.1,0-0.1,0-0.2c0,0,0,0.1,0,0.2c0,0,0,0,0-0.1c0,0,0,0,0,0
		c0,0.1-0.1,0-0.1,0.1c0-0.1-0.1,0,0-0.1c0,0,0,0.1,0,0.1c0-0.1,0,0,0-0.1c0,0.1,0,0,0,0.1c0,0,0,0,0-0.1c0,0,0,0,0,0c0,0,0,0,0,0.1
		c0,0,0,0,0,0l0,0.1c0,0,0,0,0,0c0,0,0,0,0,0l0,0c0,0,0,0,0-0.1c0,0,0,0,0,0l0,0h0c0,0,0,0,0,0h0c0,0,0,0,0,0l0,0l0,0.1
		c0-0.1,0-0.2,0-0.3l0,0c0,0,0-0.1,0-0.1C4,9.1,4,9,4,9c0,0,0,0.1,0,0.2l0-0.1v0c0,0,0,0,0,0c0,0,0,0,0,0v0C4.3,9,4.3,9.2,4.3,9.2
		l0-0.1v0.1c0,0,0-0.1,0-0.1c0.1,0.1,0.2,0,0.3,0c0,0,0,0,0,0c0.1,0.2,0.1-0.2,0.2,0v0c0,0,0,0,0,0.1c0-0.1,0.1-0.1,0.1-0.1
		c0,0,0,0,0,0c0,0,0,0.1,0,0.1C4.9,9,5,9,5,9c0,0.1,0,0.1,0.1,0.2c0,0,0-0.1,0-0.1c0,0,0,0,0,0c0,0,0,0,0,0c0,0,0,0,0,0c0,0,0,0,0,0
		c0,0,0,0,0-0.1c0,0,0,0,0,0c0,0,0,0,0,0c0,0,0,0,0,0v0c0,0,0,0,0,0c0,0,0.1-0.1,0.1-0.1c0,0.1,0,0.1,0,0.2c0,0,0,0,0,0c0,0,0,0,0,0
		c0,0.1,0-0.1,0.1,0c0,0,0,0,0,0c0,0,0,0,0-0.1c0,0.1,0,0.1,0,0.1c0-0.1,0-0.1,0-0.1l0,0c0,0,0-0.1,0,0c0,0,0,0,0,0c0,0,0,0,0-0.1
		v0.1c0,0,0.1-0.1,0.1,0C5.5,8.9,5.6,9,5.6,9c0,0,0,0,0,0c0-0.1,0.1,0,0.1,0v0.1c0,0,0-0.2,0.1-0.2l0,0c0,0,0.1,0,0.1,0V9
		c0,0,0,0,0-0.1c0,0.2,0.1-0.1,0.2,0.1V8.9c0,0,0,0,0.1,0.1c0,0.1,0,0,0,0c0,0,0-0.1,0-0.1c0,0.1,0.1,0,0.2,0.1c0,0,0.1-0.1,0.1-0.1
		v0c0,0,0.1,0,0.1,0.2c0,0,0.1-0.2,0.1-0.1l0,0c0,0,0,0,0,0c0,0,0,0,0,0c0,0,0,0,0,0v0c0,0.1,0.1-0.1,0.2,0c0,0,0,0.1,0,0.1
		C6.9,8.9,7,8.9,7,8.9l0,0C7,8.9,7,9.1,7,9l0-0.1c0,0,0,0,0-0.1c0,0,0,0.1,0,0.1c0,0,0,0,0,0.1l0,0.1c0,0,0,0,0,0c0-0.2,0,0,0-0.2
		C7.2,9,7.2,9,7.3,9c0,0.1,0.1,0,0.1,0.2c0,0,0.1,0,0.1-0.1c0,0,0,0,0,0c0,0,0,0,0,0l0,0c0,0,0,0,0,0c0,0,0,0.1-0.1,0.1
		c0,0,0.1-0.1,0.1-0.1v0.1c0-0.1,0,0.1,0,0v0c0,0,0-0.1,0.1-0.1v0c0,0,0-0.1,0,0h0c0,0.1,0,0.1,0,0.1c0,0,0,0,0,0c0,0,0,0,0,0
		c0,0,0,0,0,0c0,0,0-0.1,0-0.1c0,0,0,0.1,0,0.1c0,0,0,0,0,0c0,0,0.1,0,0.1-0.1c0,0,0,0,0,0c0,0,0.1-0.1,0.1,0v0
		c0,0.1,0.1-0.1,0.1,0.1c0,0,0,0,0,0.1c0,0,0-0.1,0.1-0.1c0,0,0,0,0,0c0,0,0,0,0.1,0c0,0.1,0.1,0,0.1,0.1c0,0,0-0.1,0-0.1
		c0,0,0,0,0,0c0,0,0,0,0-0.1c0,0,0,0,0,0c0,0,0,0,0,0c0,0,0,0.1,0,0.1c0,0,0-0.1,0.1-0.1l0,0.1c0-0.1,0-0.1,0-0.1c0,0,0,0,0,0.1
		c0,0,0,0,0,0l0,0c0,0,0.1-0.1,0.1,0v0c0,0,0,0,0-0.1c0,0,0,0.1,0.1,0c0,0,0,0.1,0,0.1c0,0,0,0,0.1,0c0,0,0,0,0,0c0,0,0,0,0,0
		c0,0,0,0,0,0c0,0,0,0,0,0l0,0c0,0,0-0.1,0,0c0,0,0-0.1,0-0.1c0,0,0,0,0,0.1c0,0,0-0.2,0-0.1c0,0,0,0,0,0c0,0,0,0,0,0
		c0,0,0,0.1,0,0.1c0,0.1,0,0,0,0c0,0,0-0.1,0-0.1c0,0,0,0,0,0l0-0.1c0,0,0,0,0,0l0,0c0,0,0,0.1,0.1,0c0,0,0,0.1,0,0.1c0,0,0,0,0,0.1
		c0,0,0-0.1,0-0.1c0,0,0,0,0,0C9,9,9,9,9,9C9,9,9,9,9,9C9,9,9,9,9,9c0,0,0,0,0,0v0c0,0,0,0,0,0c0,0,0,0,0,0l0,0c0,0,0,0.1,0,0.1
		c0,0,0-0.1,0-0.1c0,0,0-0.1,0.1-0.1c0,0,0,0.1,0.1,0.1c0-0.1,0,0,0-0.1c0,0.2,0.1-0.1,0.1,0v0.1c0,0,0,0,0,0l0,0c0,0,0,0,0,0.1
		c0-0.1,0,0,0.1,0c0,0,0,0,0,0c0,0,0,0,0,0c0,0,0,0.1,0,0.1c0-0.1,0,0,0.1-0.1v0c0,0,0.1,0.1,0.1,0c0-0.1,0,0,0-0.1c0,0,0,0,0,0
		c0-0.1,0,0,0-0.1c0,0,0,0.1,0,0.1c0,0,0,0,0-0.1c0,0,0,0.1,0,0.1c0,0,0,0,0,0c0,0,0,0,0,0.1c0,0,0-0.1,0,0l0,0.1c0,0,0,0,0,0
		c0,0,0,0.1,0,0.1c0,0,0-0.2,0-0.2c0,0,0,0,0.1,0v0.1c0,0,0,0,0,0h0c0,0,0,0,0,0.1c0,0,0,0,0-0.1v0c0,0,0.1,0.1,0.1,0.1
		c0,0,0.1,0,0.1-0.1c0,0,0,0.1,0.1,0c0,0,0,0,0,0.1c0,0.1,0-0.1,0,0c0,0,0,0,0-0.1c0,0.1,0,0,0.1,0.1c0,0,0,0,0-0.1c0,0,0,0,0,0V9.1
		l0,0.2c0-0.1,0-0.1,0-0.2v0c0,0.1,0-0.1,0.1,0c0,0,0,0,0,0.1l0,0c0,0,0,0,0,0c0,0.1,0,0,0,0c0,0,0,0.1,0,0.1l0-0.1L10.5,9.4
		C10.4,9.3,10.4,9.2,10.5,9.4L10.5,9.4C10.4,9.3,10.4,9.4,10.5,9.4C10.5,9.4,10.5,9.4,10.5,9.4C10.5,9.3,10.5,9.3,10.5,9.4L10.5,9.4
		C10.5,9.3,10.5,9.3,10.5,9.4C10.5,9.4,10.5,9.4,10.5,9.4z M10.5,7.3L10.5,7.3C10.5,7.4,10.5,7.4,10.5,7.3c0,0.1,0,0.2,0,0.2
		C10.4,7.5,10.5,7.4,10.5,7.3l-0.1,0.1v0c0,0,0,0,0,0c0,0,0,0,0,0v0c-0.1,0.1-0.1-0.1-0.1-0.1l0,0.1V7.4c0,0,0,0.1,0,0.1
		c-0.1-0.1-0.2,0-0.3,0c0,0,0,0,0,0c-0.1-0.2-0.1,0.2-0.2,0v0c0,0,0,0,0-0.1c0,0.1-0.1,0.1-0.1,0.1c0,0,0,0,0,0c0,0,0-0.1,0-0.1
		c0,0.1-0.1,0.1-0.1,0.2c0-0.1,0-0.1-0.1-0.2c0,0,0,0.1,0,0.1c0,0,0,0,0,0c0,0,0,0,0,0c0,0,0,0,0,0c0,0,0,0,0,0c0,0,0,0,0,0.1
		c0,0,0,0,0,0c0,0,0,0,0,0c0,0,0,0,0,0v0c0,0,0,0,0,0c0,0-0.1,0.1-0.1,0.1c0-0.1,0-0.1,0-0.2c0,0,0,0,0,0c0,0,0,0,0,0
		c0-0.1,0,0.1-0.1,0c0,0,0,0,0,0c0,0,0,0,0,0.1c0-0.1,0-0.1,0-0.1c0,0.1,0,0.1,0,0.1l0,0c0,0,0,0.1,0,0c0,0,0,0,0,0c0,0,0,0,0,0.1
		V7.5c0,0-0.1,0.1-0.1,0c0,0.1-0.1,0.1-0.1,0.1c0,0,0,0,0,0c0,0.1-0.1,0-0.1,0V7.4c0,0,0,0.2-0.1,0.2l0,0c0,0-0.1,0-0.1,0V7.5
		c0,0,0,0,0,0.1c0-0.2-0.1,0.1-0.2-0.1v0.1c0,0,0,0-0.1-0.1c0-0.1,0,0,0,0c0,0,0,0.1,0,0.1c0-0.1-0.1,0-0.2-0.1c0,0-0.1,0.1-0.1,0.1
		v0c0,0-0.1,0-0.1-0.2c0,0-0.1,0.2-0.1,0.1l0,0c0,0,0,0,0,0c0,0,0,0,0,0c0,0,0,0,0,0v0c0-0.1-0.1,0.1-0.2,0c0,0,0-0.1,0-0.1
		c0,0.1-0.1,0.1-0.1,0.1l0,0c0,0.1,0-0.1-0.1,0l0,0.1c0,0,0,0,0,0.1c0,0,0-0.1,0-0.1c0,0,0,0,0-0.1l0-0.1c0,0,0,0,0,0
		c0,0.2,0,0,0,0.2c-0.1,0-0.1-0.1-0.2,0c0-0.1-0.1,0-0.1-0.2c0,0-0.1,0-0.1,0.1c0,0,0,0,0,0c0,0,0,0,0,0v0c0,0,0,0,0,0
		c0,0,0-0.1,0.1-0.1c0,0-0.1,0.1-0.1,0.1V7.4c0,0.1,0-0.1,0,0v0c0,0,0,0,0,0c0,0,0,0,0,0h0c0,0,0,0,0,0v0c0,0,0,0.1,0,0h0.1
		c0,0,0,0,0,0c0,0,0-0.1,0-0.1c0,0,0,0,0,0c0,0,0,0,0,0c0,0,0,0,0,0c0,0,0,0.1,0,0.1c0,0,0-0.1,0-0.1c0,0,0,0,0,0c0,0-0.1,0-0.1,0.1
		c0,0,0,0,0,0c0,0-0.1,0.1-0.1,0v0c0-0.1-0.1,0.1-0.1-0.1c0,0,0,0,0-0.1c0,0,0,0.1-0.1,0.1c0,0,0,0,0,0c0,0,0,0-0.1,0
		c0-0.1-0.1,0-0.1-0.1c0,0,0,0.1,0,0.1c0,0,0,0,0,0c0,0,0,0,0,0.1c0,0,0,0,0,0c0,0,0,0,0,0c0,0,0-0.1,0-0.1c0,0,0,0.1-0.1,0.1l0-0.1
		c0,0.1,0,0.1,0,0.1c0,0,0,0,0-0.1c0,0,0,0,0,0l0,0c0,0-0.1,0.1-0.1,0v0c0,0,0,0,0,0.1c0,0,0-0.1-0.1,0c0,0,0-0.1,0-0.1
		c0,0,0,0-0.1,0c0,0,0,0,0,0c0,0,0,0,0,0c0,0,0,0,0,0c0,0,0,0,0,0l0,0c0,0,0,0.1,0,0c0,0,0,0.1,0,0.1c0,0,0,0,0-0.1c0,0,0,0.2,0,0.1
		c0,0,0,0,0,0c0,0,0,0,0,0c0,0,0-0.1,0-0.1c0-0.1,0,0,0,0c0,0,0,0.1,0,0.1c0,0,0,0,0,0l0,0.1c0,0,0,0,0,0l0,0c0,0,0-0.1-0.1,0
		c0,0,0-0.1,0-0.1c0,0,0,0,0-0.1c0,0,0,0.1,0,0.1c0,0,0,0,0,0c0,0,0,0-0.1,0c0,0,0,0,0,0.1c0,0,0,0,0-0.1c0,0,0,0,0,0v0c0,0,0,0,0,0
		c0,0,0,0,0,0l0,0c0,0,0-0.1,0-0.1c0,0,0,0.1,0,0.1c0,0,0,0.1-0.1,0.1c0,0,0-0.1-0.1-0.1c0,0.1,0,0,0,0.1c0-0.2-0.1,0.1-0.1,0V7.5
		c0,0,0,0,0,0l0,0c0,0,0,0,0-0.1c0,0.1,0,0-0.1,0c0,0,0,0,0,0c0,0,0,0,0,0c0,0,0-0.1,0-0.1c0,0.1,0,0-0.1,0.1v0c0,0-0.1-0.1-0.1,0
		c0,0.1,0,0,0,0.1c0,0,0,0,0,0c0,0.1,0,0,0,0.1c0,0,0-0.1,0-0.1c0,0,0,0,0,0.1c0,0,0-0.1,0-0.1c0,0,0,0,0,0c0,0,0,0,0-0.1
		c0,0,0,0.1,0,0l0-0.1c0,0,0,0,0,0c0,0,0-0.1,0-0.1c0,0,0,0.2,0,0.2c0,0,0,0-0.1,0V7.4c0,0,0,0,0,0h0c0,0,0,0,0-0.1c0,0,0,0,0,0.1v0
		c0,0-0.1-0.1-0.1-0.1c0,0-0.1,0-0.1,0.1c0,0,0-0.1-0.1,0c0,0,0,0,0-0.1c0-0.1,0,0.1,0,0c0,0,0,0,0,0.1c0-0.1,0,0-0.1-0.1
		c0,0,0,0,0,0.1c0,0,0,0,0,0v0.1l0-0.2c0,0.1,0,0.1,0,0.2v0c0-0.1,0,0.1-0.1,0c0,0,0,0,0-0.1l0,0c0,0,0,0,0,0c0-0.1,0,0,0,0
		c0,0,0-0.1,0-0.1l0,0.1l0-0.1c0,0-0.1,0.1-0.1,0l0,0c0,0,0-0.1,0-0.1c0,0,0,0,0,0c0,0,0,0.1,0,0.1l0,0c0,0,0,0,0,0c0,0,0,0,0,0
		c0,0,0,0,0,0c0,0,0,0,0,0c0,0,0,0,0,0.1c0,0,0-0.1,0-0.1c0,0,0,0.1,0,0.1c0,0,0,0,0,0c0,0,0,0,0,0c0,0,0,0,0,0c0,0,0,0,0,0
		c0,0,0,0,0,0.1c0,0,0-0.1,0.1-0.2c0-0.1,0.1,0.1,0.1,0c0,0,0,0,0-0.1c0,0.1,0,0,0,0.1c0-0.1,0,0,0,0c0,0,0,0,0,0.1c0,0.1,0,0,0,0.1
		c0-0.1,0,0,0.1-0.1l0,0l0,0c0,0,0,0,0,0.1c0,0,0,0,0,0c0,0.1,0-0.1,0.1-0.1c0,0.1,0,0,0,0.1c0,0,0,0,0,0v0c0,0.1,0-0.1,0,0
		c0,0,0,0,0,0c0,0,0,0.1,0,0.1c0,0,0,0,0-0.1c0,0,0,0,0-0.1l0,0l0,0C4.8,7.3,4.9,7,5,7.2c0,0,0,0,0-0.1c0,0,0.1,0,0.1,0v0
		c0.1,0,0.1-0.1,0.1-0.1c0,0,0,0,0,0.1c0-0.1,0.1,0.1,0.1,0l0,0c0,0,0.1-0.1,0.1-0.1c0,0.1,0,0,0,0.1c0,0,0.1,0,0.1,0c0,0,0,0,0,0
		c0,0,0-0.1,0-0.1c0,0,0,0,0,0.1l0-0.1c0,0,0,0,0,0.1c0-0.1,0,0,0.1-0.1c0,0,0,0.1,0,0.1c0,0,0,0,0,0c0,0,0,0,0,0c0,0,0,0,0-0.1l0,0
		l0,0l0,0c0,0,0,0,0.1,0l0,0l0,0c0,0.1,0,0,0,0.1c0,0,0.1-0.1,0.1-0.1c0,0,0,0,0,0c0,0,0,0,0.1-0.1c0,0,0,0,0,0.1c0,0,0-0.1,0-0.1
		c0,0,0,0.1,0,0.1c0,0,0,0,0-0.1c0,0.2,0,0.1,0,0.2c0,0,0-0.1,0-0.2l0,0c0,0,0,0,0,0c0,0,0,0,0,0c0,0,0,0,0,0c0,0,0,0,0,0
		c0,0,0,0,0,0c0,0,0,0,0,0C6,7,6.1,7,6.1,7c0,0,0,0,0,0.1C6.2,7.1,6.2,7,6.3,7c0,0.1-0.1,0-0.1,0.1C6.3,7,6.3,7,6.4,7
		c0,0.2,0.1-0.1,0.1,0.1c0,0,0-0.1,0-0.1c0,0,0,0,0,0.1c0,0,0.1-0.1,0.1,0c0-0.1,0,0,0-0.1c0,0,0,0,0.1,0c0-0.1,0,0,0-0.1
		c0,0,0,0,0,0c0,0.1,0,0,0,0c0,0,0,0.1,0,0.1c0,0,0-0.1,0.1,0c0,0,0,0,0,0C6.9,6.9,7,7,7,6.9L7,7c0.1,0.1,0-0.1,0.1-0.1
		C7.2,6.9,7.3,7,7.4,7c0,0,0,0,0-0.1c0,0,0,0.1,0,0v0C7.5,7,7.6,6.9,7.6,7c0-0.1,0.1,0.1,0.1,0c0,0,0,0.1,0,0.1l0-0.1v0
		c0-0.1,0.1,0.1,0.2,0v0C8,7,8,7,8.1,7c0,0,0,0,0,0.1c0,0,0-0.1,0-0.1c0,0,0.1,0,0.1,0.1c0-0.1,0,0,0-0.1c0,0,0.1,0,0.1,0v0
		c0-0.1,0,0,0,0c0,0,0,0,0,0.1l0,0c0,0,0.1,0,0.1,0v0c0,0,0.1,0,0.1,0c0,0,0,0,0-0.1c0-0.1,0,0.1,0,0c0,0,0,0,0,0.1L8.6,7
		c0,0,0,0.1,0.1,0.1c0,0,0-0.1,0-0.1l0,0l0,0.1l0-0.1v0.1c0,0,0-0.1,0-0.1c0,0,0,0.1,0.1,0.1c0-0.1,0,0,0.1-0.1c0,0.1,0.1,0,0.2,0.1
		v0c0,0.1,0-0.1,0.1-0.1v0c0,0.1,0.1,0,0.1,0c0,0,0,0.1,0,0.1c0,0,0-0.1,0-0.1c0,0,0,0,0,0l0-0.1c0,0,0.1,0.1,0.2,0.1c0,0,0,0,0,0.1
		c0,0,0.1-0.1,0.1-0.1v0.1c0,0,0,0,0,0c0,0,0-0.1,0,0c0,0,0,0,0,0c0,0,0,0,0,0c0,0,0-0.1,0.1-0.1l0,0.1c0,0,0,0,0-0.1
		c0-0.1,0,0.2,0.1,0.1c0,0,0-0.1,0-0.1c0,0,0,0,0.1,0c0,0.1,0,0,0,0.1l0,0c0,0.1,0,0,0,0.1c0,0,0,0,0.1-0.1c0,0.1,0,0,0,0.1l0,0
		c0,0,0,0,0,0c0,0.1,0,0,0,0c0,0,0-0.1,0-0.1C9.9,7,10,7.1,10,7c0,0,0,0,0,0c0,0,0-0.1,0-0.1c0,0,0,0.1,0,0.1C10,7,10,7,10,7
		c0,0,0,0,0,0c0,0,0,0,0,0c0,0,0,0,0,0c0,0,0,0,0,0.1c0-0.1,0,0,0-0.1c0,0.1,0,0,0,0.1c0-0.1,0-0.1,0-0.1c0,0.1,0,0.1,0,0.2
		c0,0,0-0.1,0-0.2c0,0,0,0,0,0.1c0,0,0,0,0,0c0-0.1,0.1,0,0.1-0.1c0,0.1,0.1,0,0,0.1c0,0,0-0.1,0-0.1c0,0.1,0,0,0,0.1
		c0-0.1,0,0,0-0.1c0,0,0,0,0,0.1c0,0,0,0,0,0c0,0,0-0.1,0-0.1c0,0,0,0.1,0,0.1l0-0.1c0,0,0,0,0,0.1c0,0,0,0,0,0l0,0l0,0c0,0,0,0,0,0
		C10.6,7.1,10.6,7.2,10.5,7.3z"/>
</g>
</svg>
