<?xml version="1.0" encoding="utf-8"?>
<!-- Generator: Adobe Illustrator 21.0.0, SVG Export Plug-In . SVG Version: 6.00 Build 0)  -->
<svg version="1.1" id="Layer_1" xmlns="http://www.w3.org/2000/svg" xmlns:xlink="http://www.w3.org/1999/xlink" x="0px" y="0px"
	 viewBox="0 0 14.6 14.8" style="enable-background:new 0 0 14.6 14.8;" xml:space="preserve">
<style type="text/css">
	.st0{fill:#FFFFFF;}
</style>
<path class="st0" d="M14.3,7.6c0,0.3-0.2,0.1-0.2,0.2s0.1,0.2,0.1,0.3h-0.1c-0.1,0,0,0.1,0,0.1C14,8.2,14,8.4,14,8.5h0.1
	c0,0.1,0,0.2,0,0.2c0,0.1-0.1,0.1-0.1,0.2C13.9,9,13.8,9,13.9,9.2c0,0.1,0.1,0.1,0.1,0.2h-0.1c0,0.1,0.1,0.2,0,0.3s-0.1,0.2-0.2,0.4
	c-0.1,0.1-0.1,0.3-0.2,0.4c-0.1,0.1-0.1,0.3-0.2,0.4c-0.1,0.1-0.2,0.2-0.3,0.4c0,0,0,0,0.1,0c-0.2,0.1-0.3,0.3-0.4,0.5
	c-0.1,0.2-0.2,0.4-0.4,0.5v-0.1c-0.2,0.2,0-0.1-0.2,0c0.1,0.1-0.2,0.3-0.2,0.4c0,0,0-0.1,0.1-0.1c0,0-0.1-0.1-0.1,0s0,0.1-0.1,0.2
	c0,0.1-0.1,0.1-0.1,0.1c-0.1,0.1-0.2,0.2-0.3,0.3c-0.1-0.1-0.3,0-0.4,0c0,0,0,0.1,0,0.2c-0.1,0-0.1,0.1-0.2,0.1
	c0.1-0.1,0.1-0.1,0.2-0.1l0,0l0,0c0.1,0,0.1-0.1,0.1-0.1c0.1,0,0,0.1,0.1,0.1c-0.1,0-0.2,0.2-0.2,0.1c-0.1,0-0.1,0-0.1,0.1l-0.1,0.1
	l0,0l0,0c-0.2,0-0.3,0.2-0.4,0.4c0.1-0.2-0.1-0.1-0.1-0.2c0,0,0.1-0.1,0.3-0.1c0,0,0,0-0.1,0s-0.2,0.1-0.2,0.1l-0.1,0.1
	c-0.1,0-0.1,0-0.2,0.1v-0.1c-0.1,0-0.1,0.1-0.1,0.1c-0.1-0.1-0.2-0.1-0.3,0s0,0.1-0.2,0.1L9.3,14c-0.2,0-0.1,0.1-0.3,0.1
	c0.1,0,0.1-0.1,0-0.1c-0.2,0.1-0.2,0.1-0.3,0.2v-0.1c-0.1,0.1-0.4,0.2-0.4,0.1c0.1,0.2-0.3,0.2-0.5,0.1c0.1,0,0.1-0.1,0.1-0.1
	c-0.3,0.1-0.6,0.1-0.9,0v0.1c-0.1,0-0.2,0.2-0.4,0.2l0.1-0.1c-0.1,0-0.2,0-0.3,0c-0.1,0-0.2,0-0.3-0.1v-0.1c-0.1,0-0.2,0-0.3,0
	c-0.1-0.1-0.2-0.1-0.5-0.2c-0.2,0-0.4-0.1-0.6-0.3L4.6,14c-0.1-0.1-0.3-0.1-0.3-0.2l0,0c0.1-0.1-0.1-0.1-0.2-0.1s-0.2,0-0.1,0.1
	c-0.1-0.1-0.3-0.2-0.5-0.4c-0.1-0.1-0.2-0.1-0.2-0.2c-0.1-0.1-0.1-0.1-0.1-0.2c-0.2-0.1-0.3-0.1-0.5-0.2c-0.1-0.1-0.3-0.2-0.4-0.3
	l0,0C2.2,12.3,2,12.1,2.1,12c-0.1-0.1-0.2-0.1-0.3-0.2c-0.1-0.1-0.2-0.2-0.3-0.3h0.1c0-0.1-0.2-0.2-0.2-0.2l0,0
	c0-0.1-0.1-0.1-0.1-0.1h0.1c0-0.1-0.1-0.3-0.2-0.4c-0.1-0.1-0.2-0.3-0.3-0.5c0.1,0.1,0.1,0,0.1,0c-0.1,0-0.2-0.1-0.2-0.2
	C0.6,9.9,0.5,9.8,0.5,9.7l0.1,0.1c-0.1-0.2-0.1-0.2,0-0.3c0-0.1,0-0.1-0.1-0.2L0.4,9.4c0-0.1-0.1-0.2-0.1-0.2c0-0.1,0.1-0.1,0.1-0.2
	c0.1,0,0.1,0.1,0.1,0.1l0.1-0.3l0,0l0,0l0,0V8.7c-0.2,0-0.1-0.3-0.3-0.1c0-0.2,0-0.4-0.1-0.6c0-0.2,0-0.3-0.1-0.5
	c0.1-0.1,0.1-0.2,0.1-0.4c0-0.1,0-0.3,0.2-0.2c0-0.2,0-0.3-0.1-0.5v0.1c-0.1-0.1,0-0.3,0-0.4c0,0.1,0.1,0.3,0.1,0.4
	c0-0.2-0.1-0.4-0.1-0.5h0.1c-0.1-0.2,0.1-0.1,0-0.2H0.3c0.1-0.2-0.1-0.3,0-0.5h0.1V5.2c0,0,0-0.1,0.1-0.1c0,0.1,0,0.1-0.1,0.2
	c0.1,0,0.2-0.1,0.2-0.1C0.6,5,0.5,5.1,0.5,5c0.1,0,0.1,0,0.1,0.1c0-0.2,0.1-0.4,0.1-0.6l0,0C1.1,4.2,1,4,1.1,3.9V4
	c0.2-0.1,0.1-0.4,0.3-0.3c0.1-0.1-0.1,0.1,0.1,0.1c0.2-0.2-0.1-0.2,0.1-0.4l0,0C1.7,3.3,1.8,3.1,1.8,3C1.9,2.9,2,2.9,2,2.9
	c0.1-0.1,0.1-0.1,0.1-0.2c0.1-0.1,0.2-0.2,0.3-0.2c-0.1,0,0-0.1,0-0.1l0,0c0.1-0.1,0-0.1,0-0.1C2.6,2.2,2.7,2,2.7,2s0-0.1,0.1-0.1
	C2.7,2,2.8,2,2.8,2.1C3,1.9,2.9,1.8,3.1,1.6h0.2C3.2,1.5,3.4,1.4,3.4,1.4c0.1,0,0.1,0,0.1,0.1c0.1-0.1,0.2-0.1,0.2-0.2H3.6
	c0.1-0.1,0.2-0.1,0.3-0.2C4,1,4.1,0.9,4.2,0.9l0.1,0.2c0.2,0,0.2-0.2,0.4-0.2c-0.1,0-0.1,0,0-0.1c-0.1,0-0.1,0.1-0.2,0.1l0.1-0.2
	L4.4,0.9c0.1-0.1,0.1-0.1,0-0.1c0.2-0.1,0.2,0,0.4-0.1c0.1,0,0,0.1,0.1,0.1c0.1-0.1,0.3,0,0.4-0.1c0.1,0-0.1,0,0,0.1
	c0.1-0.1,0.2-0.1,0.2-0.1H5.3c0.1,0,0.1-0.1,0.2-0.1c0.1-0.1,0.1-0.2,0-0.1c0,0,0.1,0,0.1,0.1c0.2-0.1,0.1-0.2,0.3-0.2l0,0
	c0.1,0,0.1,0,0.1,0c-0.2-0.1,0.1,0-0.1,0c0.1,0.1,0.2,0,0.2,0c0.1-0.1,0-0.1,0-0.2h0.1V0.1c0.1,0,0.1,0,0.2-0.1L6.3,0.1
	c0.1,0,0.1,0,0.2,0h0.1c0.1,0,0.1,0,0.1,0c-0.1,0-0.1,0.1,0,0.1c0.2-0.1,0.1,0,0.2,0.1c0.2,0,0-0.1,0.3-0.1V0.1c0.2,0,0.3,0,0.5,0.1
	c-0.1,0-0.1-0.1,0-0.1C7.6,0.2,7.8,0.2,7.9,0.3l0,0c0.1,0.1,0,0.1-0.1,0.1c0,0,0,0-0.1,0S7.6,0.6,7.8,0.6C8,0.4,8,0.3,8,0.3
	c0.2,0.1,0.2-0.1,0.4-0.1c0.1,0,0.2,0.2,0.3,0.2c0.1-0.1-0.2-0.1-0.1-0.2C8.7,0.4,8.8,0.4,9,0.4c0.1,0,0.3,0,0.4,0.1v0.1
	c0.1,0,0.1,0.1,0.2,0.1L9.5,0.5c0.1,0,0.2,0.1,0.2,0.1c0.2,0,0.2,0,0.3,0.1c-0.2-0.1,0,0-0.1,0c0.1,0.1,0.2,0.1,0.3,0.1
	c0,0,0,0.1,0.1,0.1S10.6,1,10.8,1l0,0c0.1,0.1,0.2,0.1,0.3,0.2s0.1,0.1,0.2,0.1c0.1,0.1,0.1,0.1,0.2,0.1l0,0l0,0
	c0-0.1,0.2,0.1,0.3,0.1v0.1c0.1-0.1,0.1,0,0.2,0c0.1,0.1-0.1,0.1,0,0.2c0.1,0,0.1,0,0.1,0c0,0.1,0.1,0.2,0.1,0.2l-0.1-0.1
	c-0.1,0,0,0.1,0,0.1c-0.1,0.4-0.1,0.2,0,0.4H12l0.1,0.1c-0.1,0-0.1,0-0.1,0.1c0.2,0.1,0.2-0.1,0.2-0.2c0.1,0.2,0.3,0.2,0.4,0.4h-0.1
	c0.1,0.1,0.1,0.1,0.1,0.1L12.7,3c-0.1,0-0.1,0-0.2,0c0.1,0.1,0.2,0.2,0.3,0.2l0,0C12.9,3.4,13,3.7,13,3.7c0.1,0.1,0.2,0.4,0.3,0.3
	c0,0.1,0.1,0.1,0.1,0.2s0,0.1,0.1,0.1c0,0.1,0,0-0.1,0c0,0.1,0.2,0.2,0.1,0.3c0.1,0.1,0-0.1,0.1,0c-0.1,0.1-0.1,0.1,0,0.2
	c0,0.1,0.1,0.2,0.1,0.2c0.1,0,0-0.1,0.1,0c-0.1,0,0,0.1,0,0.1h0.1c-0.1,0.1-0.1,0.1-0.2,0.2c0.2,0.2,0.1-0.1,0.3,0.2l0,0
	c-0.2,0,0,0.1,0,0.3c0-0.1-0.1,0-0.1,0L14,5.9l0,0c-0.1,0.1,0,0,0,0.2c0-0.1-0.1,0-0.1,0L14,6.2l-0.1-0.1c0,0.2,0.2,0.4,0.1,0.5V6.5
	c0,0-0.1,0.1,0,0.2c0,0,0.1,0.1,0.1,0v0.1c-0.1,0-0.1-0.2-0.2-0.3C14,6.5,14,6.6,14,6.6c-0.1-0.1-0.1-0.2-0.2-0.3
	c0.1,0,0.1,0.1,0.1,0.1c0-0.1-0.1-0.1-0.1-0.2l0.1-0.1c-0.1-0.1-0.1-0.2-0.1-0.3c0,0,0.1,0.1,0.1,0c-0.1-0.2-0.2-0.2-0.3-0.4
	c-0.1-0.1-0.1-0.2-0.2-0.4c0-0.1,0-0.2-0.1-0.3c-0.1,0,0,0.1-0.1,0.1c0.1,0,0-0.1,0.1-0.1c-0.2-0.1-0.1-0.2-0.2-0.2V4.4
	c0.1,0,0-0.1,0.2,0c-0.1,0-0.1-0.1-0.1-0.1l-0.1-0.1c0.1-0.2,0-0.3-0.1-0.3V4l-0.1-0.2l0,0c0-0.1-0.1-0.1-0.1-0.2
	c0.1,0,0.1,0.1,0.1,0.1c0-0.1-0.2-0.1-0.2-0.2c0.1,0,0.1,0.1,0.1,0c-0.1-0.1-0.1-0.1-0.2-0.2l0,0c-0.1-0.2-0.2,0.1-0.2-0.1
	c0,0-0.1,0-0.1,0.1c0-0.1-0.1-0.2,0.1-0.1c-0.1-0.1-0.1-0.1-0.2-0.1c0,0.1,0,0.1,0,0.1L12,3h0.1c0-0.1-0.1-0.2-0.1-0.2
	c-0.1-0.1-0.1-0.1-0.2-0.1c-0.1-0.1-0.2-0.1-0.2-0.2l-0.1-0.1l-0.1-0.1c0,0.1-0.1,0-0.1,0C11.2,2.2,11.1,2.1,11,2h0.1
	c-0.3-0.1-0.5-0.2-0.6-0.3c0,0,0-0.1,0.1-0.1c-0.2,0-0.2-0.3-0.3-0.2h0.1C10.1,1.3,10,1.2,9.9,1.2c-0.2,0-0.3-0.1-0.4-0.1
	C9.4,1,9.6,1.2,9.6,1C9.5,1,9.4,0.9,9.3,0.9c-0.1,0-0.2,0-0.3-0.1c0,0,0,0,0.1,0C8.8,0.7,9,0.9,8.8,0.9c0-0.1,0-0.1,0-0.1l0,0V0.7
	c-0.1,0.1-0.3,0-0.4,0.1c0,0,0.1-0.1,0-0.2s-0.2,0-0.2,0l0,0C8.1,0.5,7.9,0.5,8,0.5c-0.2-0.1,0,0-0.2,0.1L8,0.7H7.8l0.1-0.1
	c-0.1-0.1-0.2,0-0.4,0l0.1,0.1c-0.1,0-0.1,0-0.1,0c0-0.1-0.2,0-0.1-0.2C7,0.5,6.8,0.7,6.6,0.7c0.1,0,0,0,0-0.1
	c-0.1,0-0.2,0.1-0.3,0.1c0,0,0.1-0.1,0-0.1s-0.1,0-0.1,0.1L6.1,0.8c0.1-0.1,0-0.1,0-0.1C6,0.9,6,0.9,6,0.9c0.1-0.3-0.2,0-0.2-0.2
	c0,0.1-0.3,0.2-0.2,0.3h0.1H5.6c0,0,0.1,0,0.1-0.1C5.6,1,5.5,1,5.4,1S5.3,1.1,5.2,1.1C5.1,1.2,5,1.2,4.8,1.3c0,0,0.1-0.1,0-0.1
	C4.7,1.3,4.6,1.3,4.5,1.4c0,0.1-0.1,0.1-0.1,0.2L4.3,1.7c-0.1-0.1,0-0.1,0.1-0.2s0.1-0.1,0.1-0.2L4.4,1.5H4.3
	C4.2,1.6,4.2,1.6,4.1,1.7c0,0.1-0.1,0.1-0.2,0.2c0,0-0.1,0.1-0.1,0.2C3.5,2,3.5,2.4,3.3,2.4c0.1,0.1,0,0.1-0.1,0.2
	c0-0.1-0.1,0-0.1-0.1c0,0.1-0.2,0.4-0.3,0.2c0,0.2-0.2,0.3-0.2,0.4C2.5,3.2,2.5,3.3,2.3,3.5c0.1,0-0.1,0.2-0.1,0.2V3.6
	c-0.1,0-0.1,0.2-0.1,0.2C2,3.8,2,3.7,2,3.8c0.1,0,0,0.3-0.1,0.3V4C1.8,4.3,1.7,4.5,1.6,4.7c0,0.3-0.1,0.5-0.1,0.7L1.4,5.3
	c-0.2,0.2,0.1,0.2,0,0.4c0,0.1-0.1,0.1-0.1,0.2v0.3c0,0.1-0.1,0.3-0.1,0.4c-0.1,0.3-0.1,0.6,0,0.9c0,0.1,0,0,0.1,0
	c0,0.1-0.1,0.1,0,0.1h0.1c0,0.1-0.1,0.2-0.1,0.2c0,0.1,0,0.2,0.1,0.3c0.1,0.2,0.1,0.4,0,0.5C1.3,8.7,1.3,8.8,1.3,9
	c0,0.1,0,0.1,0.1,0.2c0,0.1,0.1,0.1,0.1,0.2c0,0.1-0.1-0.1-0.1,0.1l0.2,0.2l0,0l0.1,0.1l0.1,0.1c0,0.1,0.1,0.2,0.1,0.3
	c0,0.2,0.1,0.4,0.2,0.5l0,0v0.1c0,0,0,0,0-0.1c0.1,0.1,0.1,0.1,0.1,0.1c0.1,0,0.1,0.1,0.1,0.1C2.4,11,2.4,11,2.5,11.1
	c-0.1-0.1,0,0.1,0,0.2c0.1,0,0.1-0.1,0.2,0c0.1,0.1,0.2,0.3,0.3,0.5c0.1,0,0.2,0.1,0.2,0c0.1,0.1,0.2,0.1,0.2,0.2l0.1,0.1
	c0.1,0,0.1,0.1,0.2,0.1l0,0c0.1-0.1,0.2,0.2,0.2,0.2s-0.1,0-0.1,0.1l0.1,0.1c-0.1,0-0.2,0.1-0.1,0.1c0.1,0,0-0.1,0.1-0.1v0.1
	c0.1,0,0.2-0.1,0.1-0.1c0.2,0.1,0.5,0.2,0.7,0.4l0,0c0.1,0,0.3,0.1,0.4,0.2c0,0,0.1,0,0.1-0.1c0.2,0,0,0.1,0.1,0.1
	c-0.1,0-0.1,0-0.1,0l0.3,0.1c0,0,0,0.1,0.1,0.1c0.1,0.1,0.1,0.1,0.2,0.1c0,0,0-0.1-0.1-0.1h0.1l0.1,0.1l0.2-0.1v0.1
	c0.1,0,0.2-0.1,0.2-0.1c0.3,0.1,0.2,0.1,0.4,0.2c0-0.1,0.1-0.1,0.2-0.1s0.2,0,0.2,0c0.1,0,0.1,0.1,0.2,0.1s0.1,0,0.1,0h0.1
	c0.2,0,0.4,0,0.6,0l0,0c0.2,0.1,0.2-0.2,0.3-0.2l0,0c0.1,0,0.1,0,0.2,0s0.1,0,0.2-0.1c0.1-0.1,0.3-0.1,0.4-0.2c0,0,0,0.1,0.1,0.1
	c0.1-0.1-0.1-0.1,0-0.1v0.1l0.1-0.1c0.2,0,0.3-0.1,0.5-0.1c0.2-0.1,0.3-0.1,0.4-0.2c0.1,0,0.1,0.1,0.1,0.1c0.1-0.1,0.2-0.2,0.3-0.2
	c0.1-0.1,0.2-0.2,0.3-0.2l0.1,0.1c0.1-0.1,0-0.2,0.1-0.2l-0.1,0.1c0.2-0.1,0.1-0.2,0.2-0.3v0.1c0.2-0.1,0.1-0.2,0.1-0.2
	c0.1-0.2,0.3,0.1,0.4-0.2c0-0.1-0.1-0.1-0.1-0.1c0.2-0.1,0.1-0.2,0.3-0.4c0.2,0-0.1,0.1,0.1,0.1L12,11.6c0.2-0.1-0.1,0.1,0,0.2
	c0.1-0.1,0.1-0.2,0.2-0.4c0.1,0.1-0.1,0.1,0,0.2v-0.1v0.1c0.1,0,0.1-0.1,0.1-0.1l-0.1-0.1l0,0c0-0.2,0.2-0.3,0.2-0.5c0,0,0,0,0.1,0
	v-0.1c0-0.1,0-0.1,0-0.2c0.1,0,0.1,0.1,0.2-0.1c-0.1-0.1-0.2-0.1-0.1-0.2c0,0,0,0.1,0.1,0.1c0-0.2,0.1,0,0.2-0.1
	c0-0.1,0.1-0.1,0-0.2c0.1,0,0.1,0,0.2-0.1c-0.1,0,0-0.2-0.1-0.2c0.1,0,0.1,0.2,0.2,0.1c0-0.1,0-0.3-0.1-0.3c0.1-0.1,0.1-0.1,0.1-0.2
	c0,0,0,0,0,0.1c0-0.2,0.2-0.4,0-0.6c0.2,0.1,0.1-0.4,0.2-0.2c0-0.1,0-0.2-0.1-0.2c0.1,0,0.1,0,0.1-0.1s0-0.1,0.1-0.2
	c-0.1-0.1,0-0.2-0.1-0.3c0,0,0,0.1,0.1,0.1c-0.1-0.1,0-0.1,0.1-0.1c0-0.1-0.1,0-0.2-0.1c0.1-0.1,0.1,0,0.2,0l-0.1-0.2l0.1-0.1
	c0-0.1-0.1-0.1,0-0.2v0.1l0.1-0.1l-0.1-0.2C13.7,7,13.7,7,13.8,6.9l0,0V6.8L14,7.2c0,0,0,0,0,0.1c0.1,0,0.1,0,0.2,0v0.1
	c0.1,0,0.1-0.1,0.1-0.1C14.2,7.2,14.3,7.5,14.3,7.6z"/>
<path class="st0" d="M4.3,5.3L4.3,5.3L4.3,5.3c0-0.1,0-0.2,0-0.2C4.4,5.1,4.4,5.3,4.3,5.3L4.3,5.3L4.3,5.3L4.3,5.3L4.3,5.3L4.3,5.3
	c0.2-0.2,0.2,0,0.2,0V5.2v0.1V5.2c0.1,0.1,0.2,0,0.3,0l0,0c0.1,0.2,0.1-0.2,0.2,0l0,0c0,0,0,0,0,0.1c0-0.1,0.1-0.1,0.1-0.1l0,0v0.1
	c0.1-0.2,0.2-0.2,0.2-0.2c0,0.1,0,0.1,0.1,0.2V5.2l0,0l0,0l0,0l0,0c0,0,0,0,0-0.1l0,0l0,0l0,0l0,0l0,0L5.5,5c0,0.1,0,0.1,0,0.2l0,0
	l0,0c0,0.1,0-0.1,0.1,0l0,0c0,0,0,0,0-0.1c0,0.1,0,0.1,0,0.1c0-0.1,0-0.1,0-0.1l0,0c0,0,0-0.1,0,0l0,0c0,0,0,0,0-0.1v0.1
	c0,0,0.1-0.1,0.1,0C5.8,5,5.9,5,5.9,5l0,0C5.9,4.9,6,5,6,5v0.1c0,0,0-0.2,0.1-0.2l0,0h0.1V5c0,0,0,0,0-0.1c0,0.3,0.1,0.1,0.2,0.3V5
	c0,0,0,0,0.1,0.1c0,0.1,0,0,0,0V5c0,0.1,0.1,0,0.2,0.1L6.8,5l0,0c0,0,0.1,0,0.1,0.2C6.9,5.2,7,5,7,5.1l0,0l0,0l0,0l0,0l0,0
	c0,0.1,0.1-0.1,0.2,0v0.1C7.2,5,7.3,5,7.3,5l0,0c0,0,0,0.2,0,0.1V5l0,0v0.1c0,0,0,0,0,0.1v0.1l0,0c0-0.2,0,0,0-0.2
	c0.1,0,0.1,0.1,0.2,0c0,0.1,0.1,0,0.1,0.2c0,0,0.1,0,0.1-0.1l0,0l0,0l0,0l0,0c0,0,0,0.1-0.1,0.1l0.1-0.1v0.1c0-0.1,0,0.1,0,0l0,0
	c0,0,0-0.1,0.1-0.1l0,0c0,0,0-0.1,0,0l0,0c0,0.1,0,0.1,0,0.1l0,0l0,0l0,0V5.2v0.1l0,0c0,0,0.1,0,0.1-0.1l0,0c0,0,0.1-0.1,0.1,0l0,0
	c0,0.1,0.1-0.1,0.1,0.1c0,0,0,0,0,0.1c0,0,0-0.1,0.1-0.1l0,0c0,0,0,0,0.1,0c0,0.1,0.1,0,0.1,0.1V5.3l0,0c0,0,0,0,0-0.1l0,0l0,0v0.1
	c0,0,0-0.1,0.1-0.1v0.1c0-0.1,0-0.1,0-0.1s0,0,0,0.1l0,0l0,0c0,0,0.1-0.1,0.1,0l0,0c0,0,0,0,0-0.1c0,0,0,0.1,0.1,0v0.1
	c0,0,0,0,0.1,0l0,0l0,0l0,0l0,0l0,0c0,0,0-0.1,0,0V5.2c0,0,0,0,0,0.1c0,0,0-0.2,0-0.1l0,0l0,0v0.1c0,0.1,0,0,0,0V5.2l0,0V5.1l0,0
	l0,0c0,0,0,0.1,0.1,0v0.1c0,0,0,0,0,0.1V5.2l0,0c0,0,0,0,0.1,0c0,0,0,0,0-0.1c0,0,0,0,0,0.1l0,0l0,0l0,0l0,0l0,0v0.1V5.2
	c0,0,0-0.1,0.1-0.1c0,0,0,0.1,0.1,0.1c0-0.1,0,0,0-0.1c0,0.2,0.1-0.1,0.1,0v0.1l0,0l0,0c0,0,0,0,0,0.1c0-0.1,0,0,0.1,0l0,0l0,0v0.1
	c0-0.1,0,0,0.1-0.1l0,0c0,0,0.1,0.1,0.1,0c0-0.1,0,0,0-0.1l0,0c0-0.1,0,0,0-0.1v0.1c0,0,0,0,0-0.1v0.1l0,0c0,0,0,0,0,0.1
	c0,0,0-0.1,0,0v0.1l0,0v0.1V5.3c0,0,0,0,0.1,0v0.1l0,0l0,0c0,0,0,0,0,0.1c0,0,0,0,0-0.1l0,0l0.1,0.1c0,0,0.1,0,0.1-0.1
	c0,0,0,0.1,0.1,0c0,0,0,0,0,0.1c0,0.1,0-0.1,0,0c0,0,0,0,0-0.1c0,0.1,0,0,0.1,0.1c0,0,0,0,0-0.1l0,0V5.2v0.2c0-0.1,0-0.1,0-0.2l0,0
	c0,0.1,0-0.1,0.1,0c0,0,0,0,0,0.1l0,0l0,0c0,0.1,0,0,0,0v0.1V5.3v0.1c0,0,0.1-0.1,0.1,0l0,0v0.1l0,0V5.4l0,0l0,0l0,0l0,0l0,0
	c0,0,0,0,0-0.1v0.1V5.3l0,0l0,0l0,0l0,0c0,0,0,0,0-0.1c0,0,0,0.1-0.1,0.2c0,0.1-0.1-0.1-0.1,0c0,0,0,0,0,0.1c0-0.1,0,0,0-0.1
	c0,0.1,0,0,0,0s0,0,0-0.1c0-0.1,0,0,0-0.1c0,0.1,0,0-0.1,0.1l0,0l0,0c0,0,0,0,0-0.1l0,0c0-0.1,0,0.1-0.1,0.1c0-0.1,0,0,0-0.1l0,0
	l0,0c0-0.1,0,0.1,0,0l0,0V5.1c0,0,0,0,0,0.1c0,0,0,0,0,0.1l0,0l0,0c0.2,0.1,0.1,0.3,0,0.2c0,0,0,0,0,0.1H9.8l0,0
	c-0.1,0-0.1,0.1-0.1,0.1s0,0,0-0.1c0,0.1-0.1-0.1-0.1,0l0,0L9.5,5.7c0-0.1,0,0,0-0.1H9.4l0,0v0.1c0,0,0,0,0-0.1v0.1c0,0,0,0,0-0.1
	c0,0.1,0,0-0.1,0.1V5.6l0,0l0,0c0,0,0,0,0,0.1l0,0l0,0l0,0c0,0,0,0-0.1,0l0,0l0,0c0-0.1,0,0,0-0.1L9.1,5.7l0,0c0,0,0,0-0.1,0.1
	c0,0,0,0,0-0.1v0.1V5.7c0,0,0,0,0,0.1c0-0.2,0-0.1,0-0.2c0,0,0,0.1,0,0.2l0,0l0,0l0,0l0,0l0,0l0,0l0,0c0,0.1-0.1,0-0.1,0s0,0,0-0.1
	c-0.1,0-0.1,0.1-0.1,0.1c0-0.1,0.1,0,0.1-0.1c0,0-0.1,0.1-0.2,0.1c0-0.2-0.1,0.1-0.1-0.1v0.1c0,0,0,0,0-0.1c0,0-0.1,0.1-0.1,0
	c0,0.1,0,0,0,0.1c0,0,0,0-0.1,0c0,0.1,0,0,0,0.1l0,0c0-0.1,0,0,0,0V5.8c0,0,0,0.1-0.1,0l0,0c-0.1,0.1-0.1,0-0.2,0.1V5.8
	C8,5.7,8.1,5.9,8,5.9c-0.1,0-0.2-0.1-0.3-0.1c0,0,0,0,0,0.1c0,0,0-0.1,0,0l0,0C7.4,5.6,7.3,5.8,7.3,5.6c0,0.1-0.1-0.1-0.1,0V5.5v0.1
	l0,0c0,0.1-0.1-0.1-0.2,0l0,0c0,0-0.1,0-0.1,0.1c0,0,0,0,0-0.1v0.1c0,0-0.1,0-0.1-0.1c0,0.1,0,0,0,0.1H6.7l0,0c0,0.1,0,0,0,0
	s0,0,0-0.1l0,0H6.6l0,0H6.5c0,0,0,0,0,0.1c0,0.1,0-0.1,0,0c0,0,0,0,0-0.1H6.3c0,0,0-0.1-0.1-0.1v0.1l0,0V5.5v0.1V5.5v0.1
	c0,0,0-0.1-0.1-0.1c0,0.1,0,0-0.1,0.1c0-0.1-0.1,0-0.2-0.1l0,0c0-0.1,0,0.1-0.1,0.1l0,0c0-0.1-0.1,0-0.1,0V5.5v0.1l0,0v0.1
	c0,0-0.1-0.1-0.2-0.1c0,0,0,0,0-0.1L5.3,5.6V5.5l0,0c0,0,0,0.1,0,0l0,0l0,0c0,0,0,0.1-0.1,0.1V5.5c0,0,0,0,0,0.1
	c0,0.1,0-0.2-0.1-0.1v0.1c0,0,0,0-0.1,0c0-0.1,0,0,0-0.1l0,0c0-0.1,0,0,0-0.1c0,0,0,0-0.1,0.1c0-0.1,0,0,0-0.1l0,0l0,0
	c0-0.1,0,0,0,0v0.1c0,0.1-0.1,0-0.1,0.1l0,0v0.1V5.6v0.1l0,0l0,0l0,0c0,0,0,0,0-0.1c0,0.1,0,0,0,0.1c0-0.1,0,0,0-0.1
	c0,0.1,0,0.1,0,0.1c0-0.1,0-0.1,0-0.2c0,0,0,0.1,0,0.2c0,0,0,0,0-0.1l0,0c0,0.1-0.1,0-0.1,0.1c0-0.1-0.1,0,0-0.1v0.1
	c0-0.1,0,0,0-0.1c0,0.1,0,0,0,0.1c0,0,0,0,0-0.1l0,0c0,0,0,0,0,0.1l0,0v0.1l0,0l0,0l0,0c0,0,0,0,0-0.1l0,0l0,0l0,0l0,0l0,0l0,0l0,0
	v0.1C4.3,5.6,4.3,5.5,4.3,5.3z M10.3,9.4L10.3,9.4C10.2,9.4,10.2,9.4,10.3,9.4C10.2,9.4,10.2,9.4,10.3,9.4
	C10.2,9.4,10.2,9.4,10.3,9.4C10.2,9.4,10.2,9.4,10.3,9.4C10.2,9.3,10.2,9.4,10.3,9.4C10.2,9.4,10.2,9.3,10.3,9.4
	C10.2,9.3,10.2,9.3,10.3,9.4c-0.1,0-0.1,0-0.1-0.1c0,0,0,0,0-0.1c0,0,0,0.1-0.1,0.2c0,0.1-0.1-0.1-0.1,0c0,0,0,0,0,0.1
	c0-0.1,0,0,0-0.1c0,0.1,0,0,0,0s0,0,0-0.1s0,0,0-0.1c0,0.1,0,0-0.1,0.1l0,0l0,0c0,0,0,0,0-0.1l0,0c0-0.1,0,0.1-0.1,0.1
	c0-0.1,0,0,0-0.1l0,0l0,0c0-0.1,0,0.1,0,0l0,0V9.1c0,0,0,0,0,0.1c0,0,0,0,0,0.1l0,0l0,0c-0.2,0-0.3,0.2-0.4,0.1c0,0,0,0,0,0.1H9.4
	l0,0c-0.1,0-0.1,0.1-0.1,0.1s0,0,0-0.1c0,0.1-0.1-0.1-0.1,0l0,0L9.1,9.6c0-0.1,0,0,0-0.1H9l0,0v0.1c0,0,0,0,0-0.1v0.1c0,0,0,0,0-0.1
	c0,0.1,0,0-0.1,0.1V9.5l0,0l0,0c0,0,0,0,0,0.1l0,0l0,0l0,0c0,0,0,0-0.1,0l0,0l0,0c0-0.1,0,0,0-0.1L8.7,9.6l0,0c0,0,0,0-0.1,0.1
	c0,0,0,0,0-0.1v0.1V9.6c0,0,0,0,0,0.1c0-0.2,0-0.1,0-0.2c0,0,0,0.1,0,0.2l0,0l0,0l0,0l0,0l0,0l0,0l0,0c0,0.1-0.1,0-0.1,0s0,0,0-0.1
	c-0.1,0-0.1,0.1-0.1,0.1c0-0.1,0.1,0,0.1-0.1c0,0-0.1,0.1-0.2,0.1c0-0.2-0.1,0.1-0.1-0.1v0.1c0,0,0,0,0-0.1c0,0-0.1,0.1-0.1,0
	c0,0.1,0,0,0,0.1c0,0,0,0-0.1,0c0,0.1,0,0,0,0.1l0,0c0-0.1,0,0,0,0V9.8c0,0,0,0.1-0.1,0l0,0c-0.1,0.1-0.1,0-0.2,0.1V9.8
	c-0.1-0.1,0,0.1-0.1,0.1S7.5,9.8,7.5,9.8c0,0,0,0,0,0.1c0,0,0-0.1,0,0l0,0C7.2,9.5,7.1,9.7,7.1,9.5c0,0.1-0.1-0.1-0.1,0V9.4v0.1l0,0
	c0,0.1-0.1-0.1-0.2,0l0,0c0,0-0.1,0-0.1,0.1c0,0,0,0,0-0.1v0.1c0,0-0.1,0-0.1-0.1c0,0.1,0,0,0,0.1H6.5l0,0c0,0.1,0,0,0,0s0,0,0-0.1
	l0,0H6.4l0,0H6.3c0,0,0,0,0,0.1s0-0.1,0,0c0,0,0,0,0-0.1H6.2c0,0,0-0.1-0.1-0.1v0.1l0,0V9.4v0.1l0,0v0.1c0,0,0-0.1-0.1-0.1
	c0,0.1,0,0-0.1,0.1c0-0.1-0.1,0-0.2-0.1l0,0c0-0.1,0,0.1-0.1,0.1l0,0c0-0.1-0.1,0-0.1,0V9.5v0.1l0,0v0.1c0,0-0.1-0.1-0.2-0.1
	c0,0,0,0,0-0.1L5.2,9.6V9.5l0,0c0,0,0,0.1,0,0l0,0l0,0c0,0,0,0.1-0.1,0.1V9.5c0,0,0,0,0,0.1s0-0.2-0.1-0.1v0.1c0,0,0,0-0.1,0
	c0-0.1,0,0,0-0.1l0,0c0-0.1,0,0,0-0.1c0,0,0,0-0.1,0.1c0-0.1,0,0,0-0.1l0,0l0,0c0-0.1,0,0,0,0v0.1c0,0.1-0.1,0-0.1,0.1l0,0v0.1V9.6
	v0.1l0,0l0,0l0,0c0,0,0,0,0-0.1c0,0.1,0,0,0,0.1c0-0.1,0,0,0-0.1c0,0.1,0,0.1,0,0.1c0-0.1,0-0.1,0-0.2c0,0,0,0.1,0,0.2
	c0,0,0,0,0-0.1l0,0c0,0.1-0.1,0-0.1,0.1c0-0.1-0.1,0,0-0.1v0.1c0-0.1,0,0,0-0.1c0,0.1,0,0,0,0.1c0,0,0,0,0-0.1l0,0c0,0,0,0,0,0.1
	l0,0v0.1l0,0l0,0l0,0c0,0,0,0,0-0.1l0,0l0,0l0,0l0,0l0,0l0,0l0,0v0.1c0-0.1,0-0.2,0-0.3l0,0V9.4C4.3,9.1,4.3,9,4.3,9s0,0.1,0,0.2
	V9.1l0,0l0,0l0,0l0,0C4.6,9,4.6,9.2,4.6,9.2V9.1v0.1V9.1c0.1,0.1,0.2,0,0.3,0l0,0C5,9.3,5,8.9,5.1,9.1l0,0c0,0,0,0,0,0.1
	c0-0.1,0.1-0.1,0.1-0.1l0,0v0.1C5.1,9,5.2,9,5.2,9c0,0.1,0,0.1,0.1,0.2V9.1l0,0l0,0l0,0l0,0c0,0,0,0,0-0.1l0,0l0,0l0,0l0,0l0,0
	l0.1-0.1c0,0.1,0,0.1,0,0.2l0,0l0,0c0,0.1,0-0.1,0.1,0l0,0c0,0,0,0,0-0.1c0,0.1,0,0.1,0,0.1c0-0.1,0-0.1,0-0.1l0,0c0,0,0-0.1,0,0
	l0,0c0,0,0,0,0-0.1V9c0,0,0.1-0.1,0.1,0c0.1-0.1,0.2,0,0.2,0l0,0c0-0.1,0.1,0,0.1,0v0.1c0,0,0-0.2,0.1-0.2l0,0h0.1V9c0,0,0,0,0-0.1
	c0,0.2,0.1-0.1,0.2,0.1V8.9c0,0,0,0,0.1,0.1c0,0.1,0,0,0,0V8.9c0,0.1,0.1,0,0.2,0.1l0.1-0.1l0,0c0,0,0.1,0,0.1,0.2
	c0,0,0.1-0.2,0.1-0.1l0,0l0,0l0,0l0,0l0,0c0,0.1,0.1-0.1,0.2,0v0.1c0-0.2,0.1-0.2,0.1-0.2l0,0c0,0,0,0.2,0,0.1V8.9c0,0,0,0,0-0.1
	v0.1c0,0,0,0,0,0.1v0.1l0,0c0-0.2,0,0,0-0.2C7.3,9,7.3,9,7.4,9c0,0.1,0.1,0,0.1,0.2c0,0,0.1,0,0.1-0.1l0,0l0,0l0,0l0,0
	c0,0,0,0.1-0.1,0.1l0.1-0.1v0.1c0-0.1,0,0.1,0,0l0,0c0,0,0-0.1,0.1-0.1l0,0c0,0,0-0.1,0,0l0,0c0,0.1,0,0.1,0,0.1l0,0l0,0l0,0V9.1
	v0.1l0,0c0,0,0.1,0,0.1-0.1l0,0c0,0,0.1-0.1,0.1,0l0,0c0,0.1,0.1-0.1,0.1,0.1c0,0,0,0,0,0.1c0,0,0-0.1,0.1-0.1l0,0c0,0,0,0,0.1,0
	c0,0.1,0.1,0,0.1,0.1V9.2l0,0c0,0,0,0,0-0.1l0,0l0,0v0.1c0,0,0-0.1,0.1-0.1v0.1c0-0.1,0-0.1,0-0.1s0,0,0,0.1l0,0l0,0
	c0,0,0.1-0.1,0.1,0l0,0c0,0,0,0,0-0.1c0,0,0,0.1,0.1,0v0.1c0,0,0,0,0.1,0l0,0l0,0l0,0l0,0l0,0c0,0,0-0.1,0,0V9.1c0,0,0,0,0,0.1
	c0,0,0-0.2,0-0.1l0,0l0,0v0.1c0,0.1,0,0,0,0V9.1l0,0V9l0,0l0,0c0,0,0,0.1,0.1,0v0.1c0,0,0,0,0,0.1V9.1l0,0C8.9,9,8.9,9,8.9,9l0,0
	l0,0l0,0l0,0l0,0l0,0l0,0v0.1V9c0,0,0-0.1,0.1-0.1C9,8.9,9,9,9.1,9c0-0.1,0,0,0-0.1c0,0.2,0.1-0.1,0.1,0V9l0,0l0,0c0,0,0,0,0,0.1
	c0-0.1,0,0,0.1,0l0,0l0,0v0.1c0-0.1,0,0,0.1-0.1l0,0c0,0,0.1,0.1,0.1,0s0,0,0-0.1l0,0c0-0.1,0,0,0-0.1V9c0,0,0,0,0-0.1V9l0,0
	c0,0,0,0,0,0.1c0,0,0-0.1,0,0v0.1l0,0v0.1V9.2c0,0,0,0,0.1,0v0.1l0,0l0,0c0,0,0,0,0,0.1c0,0,0,0,0-0.1l0,0l0.1,0.1
	c0,0,0.1,0,0.1-0.1c0,0,0,0.1,0.1,0c0,0,0,0,0,0.1s0-0.1,0,0c0,0,0,0,0-0.1c0,0.1,0,0,0.1,0.1c0,0,0,0,0-0.1l0,0V9.1v0.2
	c0-0.1,0-0.1,0-0.2l0,0c0,0.1,0-0.1,0.1,0c0,0,0,0,0,0.1l0,0l0,0c0,0.1,0,0,0,0v0.1V9.2L10.3,9.4C10.2,9.3,10.2,9.2,10.3,9.4
	L10.3,9.4C10.2,9.3,10.2,9.4,10.3,9.4L10.3,9.4C10.3,9.3,10.3,9.3,10.3,9.4L10.3,9.4C10.3,9.3,10.3,9.3,10.3,9.4L10.3,9.4z
	 M10.3,7.3L10.3,7.3C10.3,7.4,10.3,7.4,10.3,7.3c0,0.1,0,0.2,0,0.2C10.2,7.5,10.3,7.4,10.3,7.3l-0.1,0.1l0,0l0,0l0,0l0,0
	C10,7.5,10,7.3,10,7.3v0.1l0,0v0.1c-0.1-0.1-0.2,0-0.3,0l0,0c-0.1-0.2-0.1,0.2-0.2,0l0,0c0,0,0,0,0-0.1c0,0.1-0.1,0.1-0.1,0.1l0,0
	V7.4c0,0.1-0.1,0.1-0.1,0.2c0-0.1,0-0.1-0.1-0.2v0.1l0,0l0,0l0,0l0,0c0,0,0,0,0,0.1l0,0l0,0l0,0l0,0l0,0L9.1,7.7c0-0.1,0-0.1,0-0.2
	l0,0l0,0c0-0.1,0,0.1-0.1,0l0,0c0,0,0,0,0,0.1c0-0.1,0-0.1,0-0.1c0,0.1,0,0.1,0,0.1l0,0c0,0,0,0.1,0,0l0,0c0,0,0,0,0,0.1V7.5
	c0,0-0.1,0.1-0.1,0c0,0.1-0.1,0.1-0.1,0.1l0,0c0,0.1-0.1,0-0.1,0V7.4c0,0,0,0.2-0.1,0.2l0,0H8.5V7.5c0,0,0,0,0,0.1
	c0-0.2-0.1,0.1-0.2-0.1v0.1c0,0,0,0-0.1-0.1c0-0.1,0,0,0,0v0.1c0-0.1-0.1,0-0.2-0.1L7.9,7.6l0,0c0,0-0.1,0-0.1-0.2
	c0,0-0.1,0.2-0.1,0.1l0,0l0,0l0,0l0,0l0,0c0-0.1-0.1,0.1-0.2,0V7.4c0,0.1-0.1,0.1-0.1,0.1l0,0c0,0.1,0-0.1-0.1,0v0.1c0,0,0,0,0,0.1
	V7.6c0,0,0,0,0-0.1V7.4l0,0c0,0.2,0,0,0,0.2c-0.1,0-0.1-0.1-0.2,0c0-0.1-0.1,0-0.1-0.2c0,0-0.1,0-0.1,0.1l0,0l0,0l0,0l0,0
	c0,0,0-0.1,0.1-0.1L6.8,7.5V7.4c0,0.1,0-0.1,0,0l0,0l0,0l0,0l0,0l0,0l0,0c0,0,0,0.1,0,0h0.1l0,0V7.3l0,0l0,0l0,0v0.1V7.3l0,0
	c0,0-0.1,0-0.1,0.1l0,0c0,0-0.1,0.1-0.1,0l0,0c0-0.1-0.1,0.1-0.1-0.1c0,0,0,0,0-0.1c0,0,0,0.1-0.1,0.1l0,0c0,0,0,0-0.1,0
	c0-0.1-0.1,0-0.1-0.1v0.1l0,0c0,0,0,0,0,0.1l0,0l0,0V7.3c0,0,0,0.1-0.1,0.1V7.3c0,0.1,0,0.1,0,0.1s0,0,0-0.1l0,0l0,0
	c0,0-0.1,0.1-0.1,0l0,0c0,0,0,0,0,0.1c0,0,0-0.1-0.1,0V7.3c0,0,0,0-0.1,0l0,0l0,0l0,0l0,0l0,0c0,0,0,0.1,0,0v0.1c0,0,0,0,0-0.1
	c0,0,0,0.2,0,0.1l0,0l0,0V7.3c0-0.1,0,0,0,0v0.1l0,0v0.1l0,0l0,0c0,0,0-0.1-0.1,0V7.4c0,0,0,0,0-0.1v0.1l0,0c0,0,0,0-0.1,0
	c0,0,0,0,0,0.1c0,0,0,0,0-0.1l0,0l0,0l0,0l0,0l0,0V7.3v0.1c0,0,0,0.1-0.1,0.1c0,0,0-0.1-0.1-0.1c0,0.1,0,0,0,0.1
	c0-0.2-0.1,0.1-0.1,0l0,0l0,0l0,0c0,0,0,0,0-0.1c0,0.1,0,0-0.1,0l0,0l0,0V7.3c0,0.1,0,0-0.1,0.1l0,0c0,0-0.1-0.1-0.1,0
	c0,0.1,0,0,0,0.1l0,0c0,0.1,0,0,0,0.1V7.5c0,0,0,0,0,0.1V7.5l0,0c0,0,0,0,0-0.1c0,0,0,0.1,0,0V7.3l0,0V7.2v0.2c0,0,0,0-0.1,0l0,0
	l0,0l0,0c0,0,0,0,0-0.1c0,0,0,0,0,0.1l0,0L4.8,7.3c0,0-0.1,0-0.1,0.1c0,0,0-0.1-0.1,0c0,0,0,0,0-0.1c0-0.1,0,0.1,0,0c0,0,0,0,0,0.1
	c0-0.1,0,0-0.1-0.1c0,0,0,0,0,0.1l0,0v0.1V7.3c0,0.1,0,0.1,0,0.2l0,0c0-0.1,0,0.1-0.1,0c0,0,0,0,0-0.1l0,0l0,0c0-0.1,0,0,0,0V7.3
	v0.1V7.3c0,0-0.1,0.1-0.1,0l0,0V7.2l0,0v0.1l0,0l0,0l0,0l0,0l0,0c0,0,0,0,0,0.1V7.3v0.1l0,0l0,0l0,0l0,0c0,0,0,0,0,0.1
	c0,0,0-0.1,0.1-0.2c0-0.1,0.1,0.1,0.1,0c0,0,0,0,0-0.1c0,0.1,0,0,0,0.1c0-0.1,0,0,0,0s0,0,0,0.1c0,0.1,0,0,0,0.1c0-0.1,0,0,0.1-0.1
	l0,0l0,0c0,0,0,0,0,0.1l0,0c0,0.1,0-0.1,0.1-0.1c0,0.1,0,0,0,0.1l0,0l0,0c0,0.1,0-0.1,0,0l0,0v0.1c0,0,0,0,0-0.1c0,0,0,0,0-0.1l0,0
	l0,0C4.3,7.3,4.4,7,4.5,7.2c0,0,0,0,0-0.1h0.1l0,0C4.7,7.1,4.7,7,4.7,7s0,0,0,0.1c0-0.1,0.1,0.1,0.1,0l0,0L4.9,7c0,0.1,0,0,0,0.1H5
	l0,0V7c0,0,0,0,0,0.1V7c0,0,0,0,0,0.1C5,7,5,7.1,5.1,7v0.1l0,0l0,0c0,0,0,0,0-0.1l0,0l0,0l0,0c0,0,0,0,0.1,0l0,0l0,0
	c0,0.1,0,0,0,0.1L5.4,7l0,0c0,0,0,0,0.1-0.1c0,0,0,0,0,0.1V6.9V7c0,0,0,0,0-0.1c0,0.2,0,0.1,0,0.2c0,0,0-0.1,0-0.2l0,0l0,0l0,0l0,0
	l0,0l0,0l0,0C5.6,7,5.7,7,5.7,7s0,0,0,0.1C5.8,7.1,5.8,7,5.9,7c0,0.1-0.1,0-0.1,0.1C5.9,7,5.9,7,6,7c0,0.2,0.1-0.1,0.1,0.1V7
	c0,0,0,0,0,0.1c0,0,0.1-0.1,0.1,0c0-0.1,0,0,0-0.1c0,0,0,0,0.1,0c0-0.1,0,0,0-0.1l0,0c0,0.1,0,0,0,0V7c0,0,0-0.1,0.1,0l0,0
	c0.1-0.1,0.2,0,0.2-0.1V7c0.1,0.1,0-0.1,0.1-0.1C6.8,6.9,6.9,7,7,7c0,0,0,0,0-0.1c0,0,0,0.1,0,0l0,0C7.1,7,7.2,6.9,7.2,7
	c0-0.1,0.1,0.1,0.1,0v0.1V7l0,0c0-0.1,0.1,0.1,0.2,0l0,0c0.1,0,0.1,0,0.2,0c0,0,0,0,0,0.1V7c0,0,0.1,0,0.1,0.1c0-0.1,0,0,0-0.1H8
	l0,0c0-0.1,0,0,0,0s0,0,0,0.1l0,0h0.1l0,0h0.1c0,0,0,0,0-0.1c0-0.1,0,0.1,0,0c0,0,0,0,0,0.1L8.3,7c0,0,0,0.1,0.1,0.1V7l0,0v0.1V7
	v0.1V7c0,0,0,0.1,0.1,0.1c0-0.1,0,0,0.1-0.1c0,0.1,0.1,0,0.2,0.1l0,0c0,0.1,0-0.1,0.1-0.1l0,0C8.9,7.1,9,7,9,7v0.1V7l0,0V6.9
	C9,6.9,9.1,7,9.2,7c0,0,0,0,0,0.1L9.3,7v0.1l0,0c0,0,0-0.1,0,0l0,0l0,0c0,0,0-0.1,0.1-0.1v0.1c0,0,0,0,0-0.1c0-0.1,0,0.2,0.1,0.1V7
	c0,0,0,0,0.1,0c0,0.1,0,0,0,0.1l0,0c0,0.1,0,0,0,0.1c0,0,0,0,0.1-0.1c0,0.1,0,0,0,0.1l0,0l0,0c0,0.1,0,0,0,0V7.1c-0.1-0.1,0,0,0-0.1
	l0,0V6.9V7l0,0l0,0l0,0l0,0c0,0,0,0,0,0.1c0-0.1,0,0,0-0.1c0,0.1,0,0,0,0.1c0-0.1,0-0.1,0-0.1c0,0.1,0,0.1,0,0.2c0,0,0-0.1,0-0.2
	c0,0,0,0,0,0.1l0,0c0-0.1,0.1,0,0.1-0.1c0,0.1,0.1,0,0,0.1V7c0,0.1,0,0,0,0.1c0-0.1,0,0,0-0.1c0,0,0,0,0,0.1l0,0V7v0.1V7
	c0,0,0,0,0,0.1l0,0l0,0l0,0l0,0C10.4,7.1,10.4,7.2,10.3,7.3z"/>
</svg>
