<?xml version="1.0" encoding="utf-8"?>
<!-- Generator: Adobe Illustrator 21.0.0, SVG Export Plug-In . SVG Version: 6.00 Build 0)  -->
<svg version="1.1" id="Layer_1" xmlns="http://www.w3.org/2000/svg" xmlns:xlink="http://www.w3.org/1999/xlink" x="0px" y="0px"
	 viewBox="0 0 14.6 14.8" style="enable-background:new 0 0 14.6 14.8;" xml:space="preserve">
<style type="text/css">
	.st0{fill:#FFFFFF;}
</style>
<path class="st0" d="M14,6.8C14,6.8,13.9,6.8,14,6.8c0,0.1,0,0.2-0.1,0.3c-0.1,0,0-0.1-0.1-0.1C13.9,7,14,7,14,6.8
	c-0.2,0-0.1-0.1-0.2-0.1C13.8,6.7,13.9,6.8,14,6.8z M7.8,0.3C7.8,0.3,7.8,0.2,7.8,0.3C7.8,0.2,7.8,0.3,7.8,0.3z M7.1,0.1
	C7.2,0.1,7.2,0.1,7.1,0.1L7.1,0.1z M11.3,1.6l-0.1-0.1C11.2,1.5,11.2,1.6,11.3,1.6z M13.6,6.1C13.7,6.1,13.7,6.1,13.6,6.1
	C13.7,6.1,13.6,6.1,13.6,6.1L13.6,6.1z M12.6,2.7L12.6,2.7L12.6,2.7L12.6,2.7z M13.3,3.8h-0.1C13.3,3.8,13.3,3.8,13.3,3.8L13.3,3.8z
	 M13.9,5.7L13.9,5.7C13.9,5.8,13.9,5.7,13.9,5.7z M13.4,8.7L13.4,8.7C13.4,8.6,13.4,8.6,13.4,8.7z M14,7.3L14,7.3L14,7.3L14,7.3z
	 M5.9,0.2L5.9,0.2C5.9,0.1,5.9,0.2,5.9,0.2z M0.4,8.8c0.1-0.1,0.1,0.2,0.2,0C0.6,8.8,0.4,8.6,0.4,8.8z M13.6,6.1
	C13.6,6,13.6,6,13.6,6.1C13.6,6,13.6,6,13.6,6.1z M3.4,1.3C3.4,1.3,3.3,1.3,3.4,1.3C3.3,1.3,3.4,1.3,3.4,1.3z M2.6,2.1
	C2.5,2.1,2.5,2.1,2.6,2.1L2.6,2.1C2.5,2.1,2.5,2.1,2.6,2.1z M1.8,2.9L1.8,2.9C1.8,2.9,1.9,2.9,1.8,2.9L1.8,2.9z M12.1,11.4h0.1
	C12.2,11.4,12.3,11.3,12.1,11.4z M13.6,6.1L13.6,6.1C13.7,6.1,13.7,6.1,13.6,6.1L13.6,6.1z M3,2.7L3,2.7C2.9,2.7,3,2.7,3,2.7z
	 M5.6,13.5L5.6,13.5L5.6,13.5z M2.6,3.1C2.5,3.1,2.5,3.1,2.6,3.1L2.6,3.1L2.6,3.1z M14.3,7.6c0,0.3-0.2,0.1-0.2,0.2s0.1,0.2,0.1,0.3
	h-0.1c-0.1,0,0,0.1,0,0.1C14,8.2,14,8.4,14,8.5h0.1c0,0.1,0,0.2,0,0.2c0,0.1-0.1,0.1-0.1,0.2C13.9,9,13.8,9,13.9,9.2
	c0,0.1,0.1,0.1,0.1,0.2h-0.1c0,0.1,0.1,0.2,0,0.3s-0.1,0.2-0.2,0.4c-0.1,0.1-0.1,0.3-0.2,0.4c-0.1,0.1-0.1,0.3-0.2,0.4
	c-0.1,0.1-0.2,0.2-0.3,0.4c0,0,0,0,0.1,0c-0.2,0.1-0.3,0.3-0.4,0.5c-0.1,0.2-0.2,0.4-0.4,0.5v-0.1c-0.2,0.2,0-0.1-0.2,0
	c0.1,0.1-0.2,0.3-0.2,0.4c0,0,0-0.1,0.1-0.1c0,0-0.1-0.1-0.1,0s0,0.1-0.1,0.2c0,0.1-0.1,0.1-0.1,0.1c-0.1,0.1-0.2,0.2-0.3,0.3
	c-0.1-0.1-0.3,0-0.4,0c0,0,0,0.1,0,0.2c-0.1,0-0.1,0.1-0.2,0.1c0.1-0.1,0.1-0.1,0.2-0.1l0,0l0,0c0.1,0,0.1-0.1,0.1-0.1
	c0.1,0,0,0.1,0.1,0.1c-0.1,0-0.2,0.2-0.2,0.1c-0.1,0-0.1,0-0.1,0.1l-0.1,0.1l0,0l0,0c-0.2,0-0.3,0.2-0.4,0.4
	c0.1-0.2-0.1-0.1-0.1-0.2c0,0,0.1-0.1,0.3-0.1c0,0,0,0-0.1,0s-0.2,0.1-0.2,0.1l-0.1,0.1c-0.1,0-0.1,0-0.2,0.1v-0.1
	c-0.1,0-0.1,0.1-0.1,0.1c-0.1-0.1-0.2-0.1-0.3,0s0,0.1-0.2,0.1L9.3,14c-0.2,0-0.1,0.1-0.3,0.1c0.1,0,0.1-0.1,0-0.1
	c-0.2,0.1-0.2,0.1-0.3,0.2v-0.1c-0.1,0.1-0.4,0.2-0.4,0.1c0.1,0.2-0.3,0.2-0.5,0.1c0.1,0,0.1-0.1,0.1-0.1c-0.3,0.1-0.6,0.1-0.9,0
	v0.1c-0.1,0-0.2,0.2-0.4,0.2l0.1-0.1c-0.1,0-0.2,0-0.3,0c-0.1,0-0.2,0-0.3-0.1v-0.1c-0.1,0-0.2,0-0.3,0c-0.1-0.1-0.2-0.1-0.5-0.2
	c-0.2,0-0.4-0.1-0.6-0.3L4.6,14c-0.1-0.1-0.3-0.1-0.3-0.2l0,0c0.1-0.1-0.1-0.1-0.2-0.1s-0.2,0-0.1,0.1c-0.1-0.1-0.3-0.2-0.5-0.4
	c-0.1-0.1-0.2-0.1-0.2-0.2c-0.1-0.1-0.1-0.1-0.1-0.2c-0.2-0.1-0.3-0.1-0.5-0.2c-0.1-0.1-0.3-0.2-0.4-0.3l0,0C2.2,12.3,2,12.1,2.1,12
	c-0.1-0.1-0.2-0.1-0.3-0.2c-0.1-0.1-0.2-0.2-0.3-0.3h0.1c0-0.1-0.2-0.2-0.2-0.2l0,0c0-0.1-0.1-0.1-0.1-0.1h0.1
	c0-0.1-0.1-0.3-0.2-0.4c-0.1-0.1-0.2-0.3-0.3-0.5c0.1,0.1,0.1,0,0.1,0c-0.1,0-0.2-0.1-0.2-0.2C0.6,9.9,0.5,9.8,0.5,9.7l0.1,0.1
	c-0.1-0.2-0.1-0.2,0-0.3c0-0.1,0-0.1-0.1-0.2L0.4,9.4c0-0.1-0.1-0.2-0.1-0.2c0-0.1,0.1-0.1,0.1-0.2c0.1,0,0.1,0.1,0.1,0.1l0.1-0.3
	l0,0l0,0l0,0V8.7c-0.2,0-0.1-0.3-0.3-0.1c0-0.2,0-0.4-0.1-0.6c0-0.2,0-0.3-0.1-0.5c0.1-0.1,0.1-0.2,0.1-0.4c0-0.1,0-0.3,0.2-0.2
	c0-0.2,0-0.3-0.1-0.5v0.1c-0.1-0.1,0-0.3,0-0.4c0,0.1,0.1,0.3,0.1,0.4c0-0.2-0.1-0.4-0.1-0.5h0.1c-0.1-0.2,0.1-0.1,0-0.2H0.3
	c0.1-0.2-0.1-0.3,0-0.5h0.1V5.2c0,0,0-0.1,0.1-0.1c0,0.1,0,0.1-0.1,0.2c0.1,0,0.2-0.1,0.2-0.1C0.6,5,0.5,5.1,0.5,5
	c0.1,0,0.1,0,0.1,0.1c0-0.2,0.1-0.4,0.1-0.6l0,0C1.1,4.2,1,4,1.1,3.9V4c0.2-0.1,0.1-0.4,0.3-0.3c0.1-0.1-0.1,0.1,0.1,0.1
	c0.2-0.2-0.1-0.2,0.1-0.4l0,0C1.7,3.3,1.8,3.1,1.8,3C1.9,2.9,2,2.9,2,2.9c0.1-0.1,0.1-0.1,0.1-0.2c0.1-0.1,0.2-0.2,0.3-0.2
	c-0.1,0,0-0.1,0-0.1l0,0c0.1-0.1,0-0.1,0-0.1C2.6,2.2,2.7,2,2.7,2s0-0.1,0.1-0.1C2.7,2,2.8,2,2.8,2.1C3,1.9,2.9,1.8,3.1,1.6h0.2
	C3.2,1.5,3.4,1.4,3.4,1.4c0.1,0,0.1,0,0.1,0.1c0.1-0.1,0.2-0.1,0.2-0.2H3.6c0.1-0.1,0.2-0.1,0.3-0.2C4,1,4.1,0.9,4.2,0.9l0.1,0.2
	c0.2,0,0.2-0.2,0.4-0.2c-0.1,0-0.1,0,0-0.1c-0.1,0-0.1,0.1-0.2,0.1l0.1-0.2L4.4,0.9c0.1-0.1,0.1-0.1,0-0.1c0.2-0.1,0.2,0,0.4-0.1
	c0.1,0,0,0.1,0.1,0.1c0.1-0.1,0.3,0,0.4-0.1c0.1,0-0.1,0,0,0.1c0.1-0.1,0.2-0.1,0.2-0.1H5.3c0.1,0,0.1-0.1,0.2-0.1
	c0.1-0.1,0.1-0.2,0-0.1c0,0,0.1,0,0.1,0.1c0.2-0.1,0.1-0.2,0.3-0.2l0,0c0.1,0,0.1,0,0.1,0c-0.2-0.1,0.1,0-0.1,0c0.1,0.1,0.2,0,0.2,0
	c0.1-0.1,0-0.1,0-0.2h0.1V0.1c0.1,0,0.1,0,0.2-0.1L6.3,0.1c0.1,0,0.1,0,0.2,0h0.1c0.1,0,0.1,0,0.1,0c-0.1,0-0.1,0.1,0,0.1
	c0.2-0.1,0.1,0,0.2,0.1c0.2,0,0-0.1,0.3-0.1V0.1c0.2,0,0.3,0,0.5,0.1c-0.1,0-0.1-0.1,0-0.1C7.6,0.2,7.8,0.2,7.9,0.3l0,0
	c0.1,0.1,0,0.1-0.1,0.1c0,0,0,0-0.1,0S7.6,0.6,7.8,0.6C8,0.4,8,0.3,8,0.3c0.2,0.1,0.2-0.1,0.4-0.1c0.1,0,0.2,0.2,0.3,0.2
	c0.1-0.1-0.2-0.1-0.1-0.2C8.7,0.4,8.8,0.4,9,0.4c0.1,0,0.3,0,0.4,0.1v0.1c0.1,0,0.1,0.1,0.2,0.1L9.5,0.5c0.1,0,0.2,0.1,0.2,0.1
	c0.2,0,0.2,0,0.3,0.1c-0.2-0.1,0,0-0.1,0c0.1,0.1,0.2,0.1,0.3,0.1c0,0,0,0.1,0.1,0.1S10.6,1,10.8,1l0,0c0.1,0.1,0.2,0.1,0.3,0.2
	s0.1,0.1,0.2,0.1c0.1,0.1,0.1,0.1,0.2,0.1l0,0l0,0c0-0.1,0.2,0.1,0.3,0.1v0.1c0.1-0.1,0.1,0,0.2,0c0.1,0.1-0.1,0.1,0,0.2
	c0.1,0,0.1,0,0.1,0c0,0.1,0.1,0.2,0.1,0.2l-0.1-0.1c-0.1,0,0,0.1,0,0.1c-0.1,0.4-0.1,0.2,0,0.4H12l0.1,0.1c-0.1,0-0.1,0-0.1,0.1
	c0.2,0.1,0.2-0.1,0.2-0.2c0.1,0.2,0.3,0.2,0.4,0.4h-0.1c0.1,0.1,0.1,0.1,0.1,0.1L12.7,3c-0.1,0-0.1,0-0.2,0c0.1,0.1,0.2,0.2,0.3,0.2
	l0,0C12.9,3.4,13,3.7,13,3.7c0.1,0.1,0.2,0.4,0.3,0.3c0,0.1,0.1,0.1,0.1,0.2s0,0.1,0.1,0.1c0,0.1,0,0-0.1,0c0,0.1,0.2,0.2,0.1,0.3
	c0.1,0.1,0-0.1,0.1,0c-0.1,0.1-0.1,0.1,0,0.2c0,0.1,0.1,0.2,0.1,0.2c0.1,0,0-0.1,0.1,0c-0.1,0,0,0.1,0,0.1h0.1
	c-0.1,0.1-0.1,0.1-0.2,0.2c0.2,0.2,0.1-0.1,0.3,0.2l0,0c-0.2,0,0,0.1,0,0.3c0-0.1-0.1,0-0.1,0L14,5.9l0,0c-0.1,0.1,0,0,0,0.2
	c0-0.1-0.1,0-0.1,0L14,6.2l-0.1-0.1c0,0.2,0.2,0.4,0.1,0.5V6.5c0,0-0.1,0.1,0,0.2c0,0,0.1,0.1,0.1,0v0.1c-0.1,0-0.1-0.2-0.2-0.3
	C14,6.5,14,6.6,14,6.6c-0.1-0.1-0.1-0.2-0.2-0.3c0.1,0,0.1,0.1,0.1,0.1c0-0.1-0.1-0.1-0.1-0.2l0.1-0.1c-0.1-0.1-0.1-0.2-0.1-0.3
	c0,0,0.1,0.1,0.1,0c-0.1-0.2-0.2-0.2-0.3-0.4c-0.1-0.1-0.1-0.2-0.2-0.4c0-0.1,0-0.2-0.1-0.3c-0.1,0,0,0.1-0.1,0.1
	c0.1,0,0-0.1,0.1-0.1c-0.2-0.1-0.1-0.2-0.2-0.2V4.4c0.1,0,0-0.1,0.2,0c-0.1,0-0.1-0.1-0.1-0.1l-0.1-0.1c0.1-0.2,0-0.3-0.1-0.3V4
	l-0.1-0.2l0,0c0-0.1-0.1-0.1-0.1-0.2c0.1,0,0.1,0.1,0.1,0.1c0-0.1-0.2-0.1-0.2-0.2c0.1,0,0.1,0.1,0.1,0c-0.1-0.1-0.1-0.1-0.2-0.2
	l0,0c-0.1-0.2-0.2,0.1-0.2-0.1c0,0-0.1,0-0.1,0.1c0-0.1-0.1-0.2,0.1-0.1c-0.1-0.1-0.1-0.1-0.2-0.1c0,0.1,0,0.1,0,0.1L12,3h0.1
	c0-0.1-0.1-0.2-0.1-0.2c-0.1-0.1-0.1-0.1-0.2-0.1c-0.1-0.1-0.2-0.1-0.2-0.2l-0.1-0.1l-0.1-0.1c0,0.1-0.1,0-0.1,0
	C11.2,2.2,11.1,2.1,11,2h0.1c-0.3-0.1-0.5-0.2-0.6-0.3c0,0,0-0.1,0.1-0.1c-0.2,0-0.2-0.3-0.3-0.2h0.1C10.1,1.3,10,1.2,9.9,1.2
	c-0.2,0-0.3-0.1-0.4-0.1C9.4,1,9.6,1.2,9.6,1C9.5,1,9.4,0.9,9.3,0.9c-0.1,0-0.2,0-0.3-0.1c0,0,0,0,0.1,0C8.8,0.7,9,0.9,8.8,0.9
	c0-0.1,0-0.1,0-0.1l0,0V0.7c-0.1,0.1-0.3,0-0.4,0.1c0,0,0.1-0.1,0-0.2s-0.2,0-0.2,0l0,0C8.1,0.5,7.9,0.5,8,0.5c-0.2-0.1,0,0-0.2,0.1
	L8,0.7H7.8l0.1-0.1c-0.1-0.1-0.2,0-0.4,0l0.1,0.1c-0.1,0-0.1,0-0.1,0c0-0.1-0.2,0-0.1-0.2C7,0.5,6.8,0.7,6.6,0.7c0.1,0,0,0,0-0.1
	c-0.1,0-0.2,0.1-0.3,0.1c0,0,0.1-0.1,0-0.1s-0.1,0-0.1,0.1L6.1,0.8c0.1-0.1,0-0.1,0-0.1C6,0.9,6,0.9,6,0.9c0.1-0.3-0.2,0-0.2-0.2
	c0,0.1-0.3,0.2-0.2,0.3h0.1H5.6c0,0,0.1,0,0.1-0.1C5.6,1,5.5,1,5.4,1S5.3,1.1,5.2,1.1C5.1,1.2,5,1.2,4.8,1.3c0,0,0.1-0.1,0-0.1
	C4.7,1.3,4.6,1.3,4.5,1.4c0,0.1-0.1,0.1-0.1,0.2L4.3,1.7c-0.1-0.1,0-0.1,0.1-0.2s0.1-0.1,0.1-0.2L4.4,1.5H4.3
	C4.2,1.6,4.2,1.6,4.1,1.7c0,0.1-0.1,0.1-0.2,0.2c0,0-0.1,0.1-0.1,0.2C3.5,2,3.5,2.4,3.3,2.4c0.1,0.1,0,0.1-0.1,0.2
	c0-0.1-0.1,0-0.1-0.1c0,0.1-0.2,0.4-0.3,0.2c0,0.2-0.2,0.3-0.2,0.4C2.5,3.2,2.5,3.3,2.3,3.5c0.1,0-0.1,0.2-0.1,0.2V3.6
	c-0.1,0-0.1,0.2-0.1,0.2C2,3.8,2,3.7,2,3.8c0.1,0,0,0.3-0.1,0.3V4C1.8,4.3,1.7,4.5,1.6,4.7c0,0.3-0.1,0.5-0.1,0.7L1.4,5.3
	c-0.2,0.2,0.1,0.2,0,0.4c0,0.1-0.1,0.1-0.1,0.2v0.3c0,0.1-0.1,0.3-0.1,0.4c-0.1,0.3-0.1,0.6,0,0.9c0,0.1,0,0,0.1,0
	c0,0.1-0.1,0.1,0,0.1h0.1c0,0.1-0.1,0.2-0.1,0.2c0,0.1,0,0.2,0.1,0.3c0.1,0.2,0.1,0.4,0,0.5C1.3,8.7,1.3,8.8,1.3,9
	c0,0.1,0,0.1,0.1,0.2c0,0.1,0.1,0.1,0.1,0.2c0,0.1-0.1-0.1-0.1,0.1l0.2,0.2l0,0l0.1,0.1l0.1,0.1c0,0.1,0.1,0.2,0.1,0.3
	c0,0.2,0.1,0.4,0.2,0.5l0,0v0.1c0,0,0,0,0-0.1c0.1,0.1,0.1,0.1,0.1,0.1c0.1,0,0.1,0.1,0.1,0.1C2.4,11,2.4,11,2.5,11.1
	c-0.1-0.1,0,0.1,0,0.2c0.1,0,0.1-0.1,0.2,0c0.1,0.1,0.2,0.3,0.3,0.5c0.1,0,0.2,0.1,0.2,0c0.1,0.1,0.2,0.1,0.2,0.2l0.1,0.1
	c0.1,0,0.1,0.1,0.2,0.1l0,0c0.1-0.1,0.2,0.2,0.2,0.2s-0.1,0-0.1,0.1l0.1,0.1c-0.1,0-0.2,0.1-0.1,0.1c0.1,0,0-0.1,0.1-0.1v0.1
	c0.1,0,0.2-0.1,0.1-0.1c0.2,0.1,0.5,0.2,0.7,0.4l0,0c0.1,0,0.3,0.1,0.4,0.2c0,0,0.1,0,0.1-0.1c0.2,0,0,0.1,0.1,0.1
	c-0.1,0-0.1,0-0.1,0l0.3,0.1c0,0,0,0.1,0.1,0.1c0.1,0.1,0.1,0.1,0.2,0.1c0,0,0-0.1-0.1-0.1h0.1l0.1,0.1l0.2-0.1v0.1
	c0.1,0,0.2-0.1,0.2-0.1c0.3,0.1,0.2,0.1,0.4,0.2c0-0.1,0.1-0.1,0.2-0.1s0.2,0,0.2,0c0.1,0,0.1,0.1,0.2,0.1s0.1,0,0.1,0h0.1
	c0.2,0,0.4,0,0.6,0l0,0c0.2,0.1,0.2-0.2,0.3-0.2l0,0c0.1,0,0.1,0,0.2,0s0.1,0,0.2-0.1c0.1-0.1,0.3-0.1,0.4-0.2c0,0,0,0.1,0.1,0.1
	c0.1-0.1-0.1-0.1,0-0.1v0.1l0.1-0.1c0.2,0,0.3-0.1,0.5-0.1c0.2-0.1,0.3-0.1,0.4-0.2c0.1,0,0.1,0.1,0.1,0.1c0.1-0.1,0.2-0.2,0.3-0.2
	c0.1-0.1,0.2-0.2,0.3-0.2l0.1,0.1c0.1-0.1,0-0.2,0.1-0.2l-0.1,0.1c0.2-0.1,0.1-0.2,0.2-0.3v0.1c0.2-0.1,0.1-0.2,0.1-0.2
	c0.1-0.2,0.3,0.1,0.4-0.2c0-0.1-0.1-0.1-0.1-0.1c0.2-0.1,0.1-0.2,0.3-0.4c0.2,0-0.1,0.1,0.1,0.1L12,11.6c0.2-0.1-0.1,0.1,0,0.2
	c0.1-0.1,0.1-0.2,0.2-0.4c0.1,0.1-0.1,0.1,0,0.2v-0.1v0.1c0.1,0,0.1-0.1,0.1-0.1l-0.1-0.1l0,0c0-0.2,0.2-0.3,0.2-0.5c0,0,0,0,0.1,0
	v-0.1c0-0.1,0-0.1,0-0.2c0.1,0,0.1,0.1,0.2-0.1c-0.1-0.1-0.2-0.1-0.1-0.2c0,0,0,0.1,0.1,0.1c0-0.2,0.1,0,0.2-0.1
	c0-0.1,0.1-0.1,0-0.2c0.1,0,0.1,0,0.2-0.1c-0.1,0,0-0.2-0.1-0.2c0.1,0,0.1,0.2,0.2,0.1c0-0.1,0-0.3-0.1-0.3c0.1-0.1,0.1-0.1,0.1-0.2
	c0,0,0,0,0,0.1c0-0.2,0.2-0.4,0-0.6c0.2,0.1,0.1-0.4,0.2-0.2c0-0.1,0-0.2-0.1-0.2c0.1,0,0.1,0,0.1-0.1s0-0.1,0.1-0.2
	c-0.1-0.1,0-0.2-0.1-0.3c0,0,0,0.1,0.1,0.1c-0.1-0.1,0-0.1,0.1-0.1c0-0.1-0.1,0-0.2-0.1c0.1-0.1,0.1,0,0.2,0l-0.1-0.2l0.1-0.1
	c0-0.1-0.1-0.1,0-0.2v0.1l0.1-0.1l-0.1-0.2C13.7,7,13.7,7,13.8,6.9l0,0V6.8L14,7.2c0,0,0,0,0,0.1c0.1,0,0.1,0,0.2,0v0.1
	c0.1,0,0.1-0.1,0.1-0.1C14.2,7.2,14.3,7.5,14.3,7.6z M10.1,13.2c-0.1,0-0.1,0.1-0.1,0.1C10,13.2,10.1,13.2,10.1,13.2
	C10.1,13.3,10.1,13.2,10.1,13.2z M10.4,13.1C10.3,13.1,10.3,13.1,10.4,13.1L10.4,13.1C10.3,13.1,10.3,13.1,10.4,13.1z M10.9,13.5
	C10.9,13.5,10.8,13.5,10.9,13.5C10.8,13.5,10.8,13.5,10.9,13.5L10.9,13.5C10.9,13.4,10.9,13.5,10.9,13.5z M5.1,13.3L5.1,13.3
	L5.1,13.3z M10.9,13.3L10.9,13.3L10.9,13.3L10.9,13.3L10.9,13.3z M11.3,1.6L11.3,1.6L11.3,1.6L11.3,1.6z M5.9,13.5L5.9,13.5
	L5.9,13.5L5.9,13.5z M12.4,3.1L12.4,3.1L12.4,3.1z M12.8,3.7L12.8,3.7L12.8,3.7z M13,4.2L13,4.2L13,4.2L13,4.2z M5.5,1.1
	C5.5,1.1,5.4,1.1,5.5,1.1C5.4,1.1,5.4,1.1,5.5,1.1z M8.1,0.6H8C8,0.7,8.1,0.7,8.1,0.6z M3,2.7L3,2.7L3,2.7L3,2.7z M7.9,0.7
	C8,0.7,8,0.7,7.9,0.7L7.9,0.7z M13.7,6.6L13.7,6.6L13.7,6.6L13.7,6.6z M13.7,6.6L13.7,6.6L13.7,6.6z M13.7,6.6
	C13.7,6.7,13.7,6.7,13.7,6.6L13.7,6.6z M13.6,5.6c0,0.1,0,0.1,0,0.2l0,0C13.5,5.8,13.6,5.6,13.6,5.6z M13.7,4.7
	c0-0.3-0.1,0.1-0.1-0.2C13.6,4.6,13.6,4.7,13.7,4.7C13.7,4.7,13.7,4.6,13.7,4.7z M13.4,3.9L13.4,3.9C13.4,4,13.4,3.9,13.4,3.9z
	 M10.2,0.8C10.1,0.8,10.1,0.8,10.2,0.8L10.2,0.8z M9.3,1H9.2C9.2,1,9.2,1,9.3,1L9.3,1z M8.9,0.3H8.7H8.9L8.9,0.3z M1.9,2.7L2,2.8
	C2,2.7,1.9,2.6,1.9,2.7z M0.5,5.8C0.4,5.8,0.4,5.9,0.4,6C0.5,5.9,0.5,5.8,0.5,5.8z M4.8,14.1L4.8,14.1L4.8,14.1L4.8,14.1z"/>
<polyline class="st0" points="33,50.1 33,50.1 33.4,49.5 33,50.1 "/>
<line class="st0" x1="34.1" y1="52.3" x2="34.1" y2="52.3"/>
<g>
	<path class="st0" d="M9.6,9.4c-0.1,0-0.2-0.1-0.2-0.3V5.6c0-0.2,0.1-0.3,0.2-0.3s0.2,0.1,0.2,0.3v3.6C9.8,9.3,9.7,9.4,9.6,9.4z"/>
	<path class="st0" d="M8.5,8.6c-0.1,0-0.2-0.1-0.2-0.3v-2C8.3,6.1,8.4,6,8.5,6s0.2,0.1,0.2,0.3v2C8.8,8.5,8.6,8.6,8.5,8.6z"/>
	<path class="st0" d="M10.6,10.3c-0.1,0-0.2-0.1-0.2-0.3V4.6c0-0.2,0.1-0.3,0.2-0.3s0.2,0.1,0.2,0.3V10
		C10.9,10.2,10.8,10.3,10.6,10.3z"/>
	<path class="st0" d="M7.6,4L7.6,4L7.6,4L7.6,4C7.4,4,7.4,4,7.3,4.1L5.2,5.8H4C3.8,5.8,3.6,6,3.6,6.3v2c0,0.3,0.2,0.5,0.4,0.5h1.2
		l2.2,1.9h0.1l0,0h0.1l0,0l0,0c0.1-0.1,0.2-0.2,0.2-0.3V4.2C7.7,4.1,7.7,4,7.6,4z M7.2,9.8L5.4,8.2H5.3l0,0H4.1V6.5h1.2h0.1l0,0
		L7.2,5V9.8z"/>
</g>
<polyline class="st0" points="-18.3,42.6 -18.3,42.6 -17.9,42 -18.3,42.6 "/>
</svg>
