<?xml version="1.0" encoding="utf-8"?>
<!-- Generator: Adobe Illustrator 21.0.0, SVG Export Plug-In . SVG Version: 6.00 Build 0)  -->
<svg version="1.1" id="Layer_1" xmlns="http://www.w3.org/2000/svg" xmlns:xlink="http://www.w3.org/1999/xlink" x="0px" y="0px"
	 viewBox="0 0 14.6 14.8" style="enable-background:new 0 0 14.6 14.8;" xml:space="preserve">
<style type="text/css">
	.st0{fill:#FFFFFF;}
	.st1{display:none;}
	.st2{display:inline;fill:#231F20;}
	.st3{display:inline;}
	.st4{fill:#231F20;}
</style>
<g id="Layer_1_1_">
	<path class="st0" d="M14,6.8C14,6.8,13.9,6.8,14,6.8c0,0.1,0,0.2-0.1,0.3c-0.1,0,0-0.1-0.1-0.1C13.9,7,14,7,14,6.8
		c-0.2,0-0.1-0.1-0.2-0.1C13.8,6.7,13.9,6.8,14,6.8z M7.8,0.3C7.8,0.3,7.8,0.2,7.8,0.3C7.8,0.2,7.8,0.3,7.8,0.3z M7.1,0.1
		C7.2,0.1,7.2,0.1,7.1,0.1L7.1,0.1z M11.3,1.6l-0.1-0.1C11.2,1.5,11.2,1.6,11.3,1.6z M13.6,6.1C13.7,6.1,13.7,6.1,13.6,6.1
		C13.7,6.1,13.6,6.1,13.6,6.1L13.6,6.1z M12.6,2.7L12.6,2.7L12.6,2.7L12.6,2.7z M13.3,3.8h-0.1C13.3,3.8,13.3,3.8,13.3,3.8L13.3,3.8
		z M13.9,5.7L13.9,5.7C13.9,5.8,13.9,5.7,13.9,5.7z M13.4,8.7L13.4,8.7C13.4,8.6,13.4,8.6,13.4,8.7z M14,7.3L14,7.3L14,7.3L14,7.3z
		 M5.9,0.2L5.9,0.2C5.9,0.1,5.9,0.2,5.9,0.2z M0.4,8.8c0.1-0.1,0.1,0.2,0.2,0C0.6,8.8,0.4,8.6,0.4,8.8z M13.6,6.1
		C13.6,6,13.6,6,13.6,6.1C13.6,6,13.6,6,13.6,6.1z M3.4,1.3C3.4,1.3,3.3,1.3,3.4,1.3C3.3,1.3,3.4,1.3,3.4,1.3z M2.6,2.1
		C2.5,2.1,2.5,2.1,2.6,2.1L2.6,2.1C2.5,2.1,2.5,2.1,2.6,2.1z M1.8,2.9L1.8,2.9C1.8,2.9,1.9,2.9,1.8,2.9L1.8,2.9z M12.1,11.4h0.1
		C12.2,11.4,12.3,11.3,12.1,11.4z M13.6,6.1L13.6,6.1C13.7,6.1,13.7,6.1,13.6,6.1L13.6,6.1z M3,2.7L3,2.7C2.9,2.7,3,2.7,3,2.7z
		 M5.6,13.5L5.6,13.5L5.6,13.5z M2.6,3.1C2.5,3.1,2.5,3.1,2.6,3.1L2.6,3.1L2.6,3.1z M14.3,7.6c0,0.3-0.2,0.1-0.2,0.2
		s0.1,0.2,0.1,0.3h-0.1c-0.1,0,0,0.1,0,0.1C14,8.2,14,8.4,14,8.5h0.1c0,0.1,0,0.2,0,0.2c0,0.1-0.1,0.1-0.1,0.2
		C13.9,9,13.8,9,13.9,9.2c0,0.1,0.1,0.1,0.1,0.2h-0.1c0,0.1,0.1,0.2,0,0.3s-0.1,0.2-0.2,0.4c-0.1,0.1-0.1,0.3-0.2,0.4
		c-0.1,0.1-0.1,0.3-0.2,0.4c-0.1,0.1-0.2,0.2-0.3,0.4c0,0,0,0,0.1,0c-0.2,0.1-0.3,0.3-0.4,0.5c-0.1,0.2-0.2,0.4-0.4,0.5v-0.1
		c-0.2,0.2,0-0.1-0.2,0c0.1,0.1-0.2,0.3-0.2,0.4c0,0,0-0.1,0.1-0.1c0,0-0.1-0.1-0.1,0s0,0.1-0.1,0.2c0,0.1-0.1,0.1-0.1,0.1
		c-0.1,0.1-0.2,0.2-0.3,0.3c-0.1-0.1-0.3,0-0.4,0c0,0,0,0.1,0,0.2c-0.1,0-0.1,0.1-0.2,0.1c0.1-0.1,0.1-0.1,0.2-0.1l0,0l0,0
		c0.1,0,0.1-0.1,0.1-0.1c0.1,0,0,0.1,0.1,0.1c-0.1,0-0.2,0.2-0.2,0.1c-0.1,0-0.1,0-0.1,0.1l-0.1,0.1l0,0l0,0c-0.2,0-0.3,0.2-0.4,0.4
		c0.1-0.2-0.1-0.1-0.1-0.2c0,0,0.1-0.1,0.3-0.1c0,0,0,0-0.1,0s-0.2,0.1-0.2,0.1l-0.1,0.1c-0.1,0-0.1,0-0.2,0.1v-0.1
		c-0.1,0-0.1,0.1-0.1,0.1c-0.1-0.1-0.2-0.1-0.3,0s0,0.1-0.2,0.1L9.3,14c-0.2,0-0.1,0.1-0.3,0.1c0.1,0,0.1-0.1,0-0.1
		c-0.2,0.1-0.2,0.1-0.3,0.2v-0.1c-0.1,0.1-0.4,0.2-0.4,0.1c0.1,0.2-0.3,0.2-0.5,0.1c0.1,0,0.1-0.1,0.1-0.1c-0.3,0.1-0.6,0.1-0.9,0
		v0.1c-0.1,0-0.2,0.2-0.4,0.2l0.1-0.1c-0.1,0-0.2,0-0.3,0c-0.1,0-0.2,0-0.3-0.1v-0.1c-0.1,0-0.2,0-0.3,0c-0.1-0.1-0.2-0.1-0.5-0.2
		c-0.2,0-0.4-0.1-0.6-0.3L4.6,14c-0.1-0.1-0.3-0.1-0.3-0.2l0,0c0.1-0.1-0.1-0.1-0.2-0.1s-0.2,0-0.1,0.1c-0.1-0.1-0.3-0.2-0.5-0.4
		c-0.1-0.1-0.2-0.1-0.2-0.2c-0.1-0.1-0.1-0.1-0.1-0.2c-0.2-0.1-0.3-0.1-0.5-0.2c-0.1-0.1-0.3-0.2-0.4-0.3l0,0
		C2.2,12.3,2,12.1,2.1,12c-0.1-0.1-0.2-0.1-0.3-0.2c-0.1-0.1-0.2-0.2-0.3-0.3h0.1c0-0.1-0.2-0.2-0.2-0.2l0,0c0-0.1-0.1-0.1-0.1-0.1
		h0.1c0-0.1-0.1-0.3-0.2-0.4c-0.1-0.1-0.2-0.3-0.3-0.5c0.1,0.1,0.1,0,0.1,0c-0.1,0-0.2-0.1-0.2-0.2C0.6,9.9,0.5,9.8,0.5,9.7l0.1,0.1
		c-0.1-0.2-0.1-0.2,0-0.3c0-0.1,0-0.1-0.1-0.2L0.4,9.4c0-0.1-0.1-0.2-0.1-0.2c0-0.1,0.1-0.1,0.1-0.2c0.1,0,0.1,0.1,0.1,0.1l0.1-0.3
		l0,0l0,0l0,0V8.7c-0.2,0-0.1-0.3-0.3-0.1c0-0.2,0-0.4-0.1-0.6c0-0.2,0-0.3-0.1-0.5c0.1-0.1,0.1-0.2,0.1-0.4c0-0.1,0-0.3,0.2-0.2
		c0-0.2,0-0.3-0.1-0.5v0.1c-0.1-0.1,0-0.3,0-0.4c0,0.1,0.1,0.3,0.1,0.4c0-0.2-0.1-0.4-0.1-0.5h0.1c-0.1-0.2,0.1-0.1,0-0.2H0.3
		c0.1-0.2-0.1-0.3,0-0.5h0.1V5.2c0,0,0-0.1,0.1-0.1c0,0.1,0,0.1-0.1,0.2c0.1,0,0.2-0.1,0.2-0.1C0.6,5,0.5,5.1,0.5,5
		c0.1,0,0.1,0,0.1,0.1c0-0.2,0.1-0.4,0.1-0.6l0,0C1.1,4.2,1,4,1.1,3.9V4c0.2-0.1,0.1-0.4,0.3-0.3c0.1-0.1-0.1,0.1,0.1,0.1
		c0.2-0.2-0.1-0.2,0.1-0.4l0,0C1.7,3.3,1.8,3.1,1.8,3C1.9,2.9,2,2.9,2,2.9c0.1-0.1,0.1-0.1,0.1-0.2c0.1-0.1,0.2-0.2,0.3-0.2
		c-0.1,0,0-0.1,0-0.1l0,0c0.1-0.1,0-0.1,0-0.1C2.6,2.2,2.7,2,2.7,2s0-0.1,0.1-0.1C2.7,2,2.8,2,2.8,2.1C3,1.9,2.9,1.8,3.1,1.6h0.2
		C3.2,1.5,3.4,1.4,3.4,1.4c0.1,0,0.1,0,0.1,0.1c0.1-0.1,0.2-0.1,0.2-0.2H3.6c0.1-0.1,0.2-0.1,0.3-0.2C4,1,4.1,0.9,4.2,0.9l0.1,0.2
		c0.2,0,0.2-0.2,0.4-0.2c-0.1,0-0.1,0,0-0.1c-0.1,0-0.1,0.1-0.2,0.1l0.1-0.2L4.4,0.9c0.1-0.1,0.1-0.1,0-0.1c0.2-0.1,0.2,0,0.4-0.1
		c0.1,0,0,0.1,0.1,0.1c0.1-0.1,0.3,0,0.4-0.1c0.1,0-0.1,0,0,0.1c0.1-0.1,0.2-0.1,0.2-0.1H5.3c0.1,0,0.1-0.1,0.2-0.1
		c0.1-0.1,0.1-0.2,0-0.1c0,0,0.1,0,0.1,0.1c0.2-0.1,0.1-0.2,0.3-0.2l0,0c0.1,0,0.1,0,0.1,0c-0.2-0.1,0.1,0-0.1,0
		c0.1,0.1,0.2,0,0.2,0c0.1-0.1,0-0.1,0-0.2h0.1V0.1c0.1,0,0.1,0,0.2-0.1L6.3,0.1c0.1,0,0.1,0,0.2,0h0.1c0.1,0,0.1,0,0.1,0
		c-0.1,0-0.1,0.1,0,0.1c0.2-0.1,0.1,0,0.2,0.1c0.2,0,0-0.1,0.3-0.1V0.1c0.2,0,0.3,0,0.5,0.1c-0.1,0-0.1-0.1,0-0.1
		C7.6,0.2,7.8,0.2,7.9,0.3l0,0c0.1,0.1,0,0.1-0.1,0.1c0,0,0,0-0.1,0S7.6,0.6,7.8,0.6C8,0.4,8,0.3,8,0.3c0.2,0.1,0.2-0.1,0.4-0.1
		c0.1,0,0.2,0.2,0.3,0.2c0.1-0.1-0.2-0.1-0.1-0.2C8.7,0.4,8.8,0.4,9,0.4c0.1,0,0.3,0,0.4,0.1v0.1c0.1,0,0.1,0.1,0.2,0.1L9.5,0.5
		c0.1,0,0.2,0.1,0.2,0.1c0.2,0,0.2,0,0.3,0.1c-0.2-0.1,0,0-0.1,0c0.1,0.1,0.2,0.1,0.3,0.1c0,0,0,0.1,0.1,0.1S10.6,1,10.8,1l0,0
		c0.1,0.1,0.2,0.1,0.3,0.2s0.1,0.1,0.2,0.1c0.1,0.1,0.1,0.1,0.2,0.1l0,0l0,0c0-0.1,0.2,0.1,0.3,0.1v0.1c0.1-0.1,0.1,0,0.2,0
		c0.1,0.1-0.1,0.1,0,0.2c0.1,0,0.1,0,0.1,0c0,0.1,0.1,0.2,0.1,0.2l-0.1-0.1c-0.1,0,0,0.1,0,0.1c-0.1,0.4-0.1,0.2,0,0.4H12l0.1,0.1
		c-0.1,0-0.1,0-0.1,0.1c0.2,0.1,0.2-0.1,0.2-0.2c0.1,0.2,0.3,0.2,0.4,0.4h-0.1c0.1,0.1,0.1,0.1,0.1,0.1L12.7,3c-0.1,0-0.1,0-0.2,0
		c0.1,0.1,0.2,0.2,0.3,0.2l0,0C12.9,3.4,13,3.7,13,3.7c0.1,0.1,0.2,0.4,0.3,0.3c0,0.1,0.1,0.1,0.1,0.2s0,0.1,0.1,0.1
		c0,0.1,0,0-0.1,0c0,0.1,0.2,0.2,0.1,0.3c0.1,0.1,0-0.1,0.1,0c-0.1,0.1-0.1,0.1,0,0.2c0,0.1,0.1,0.2,0.1,0.2c0.1,0,0-0.1,0.1,0
		c-0.1,0,0,0.1,0,0.1h0.1c-0.1,0.1-0.1,0.1-0.2,0.2c0.2,0.2,0.1-0.1,0.3,0.2l0,0c-0.2,0,0,0.1,0,0.3c0-0.1-0.1,0-0.1,0L14,5.9l0,0
		c-0.1,0.1,0,0,0,0.2c0-0.1-0.1,0-0.1,0L14,6.2l-0.1-0.1c0,0.2,0.2,0.4,0.1,0.5V6.5c0,0-0.1,0.1,0,0.2c0,0,0.1,0.1,0.1,0v0.1
		c-0.1,0-0.1-0.2-0.2-0.3C14,6.5,14,6.6,14,6.6c-0.1-0.1-0.1-0.2-0.2-0.3c0.1,0,0.1,0.1,0.1,0.1c0-0.1-0.1-0.1-0.1-0.2l0.1-0.1
		c-0.1-0.1-0.1-0.2-0.1-0.3c0,0,0.1,0.1,0.1,0c-0.1-0.2-0.2-0.2-0.3-0.4c-0.1-0.1-0.1-0.2-0.2-0.4c0-0.1,0-0.2-0.1-0.3
		c-0.1,0,0,0.1-0.1,0.1c0.1,0,0-0.1,0.1-0.1c-0.2-0.1-0.1-0.2-0.2-0.2V4.4c0.1,0,0-0.1,0.2,0c-0.1,0-0.1-0.1-0.1-0.1l-0.1-0.1
		c0.1-0.2,0-0.3-0.1-0.3V4l-0.1-0.2l0,0c0-0.1-0.1-0.1-0.1-0.2c0.1,0,0.1,0.1,0.1,0.1c0-0.1-0.2-0.1-0.2-0.2c0.1,0,0.1,0.1,0.1,0
		c-0.1-0.1-0.1-0.1-0.2-0.2l0,0c-0.1-0.2-0.2,0.1-0.2-0.1c0,0-0.1,0-0.1,0.1c0-0.1-0.1-0.2,0.1-0.1c-0.1-0.1-0.1-0.1-0.2-0.1
		c0,0.1,0,0.1,0,0.1L12,3h0.1c0-0.1-0.1-0.2-0.1-0.2c-0.1-0.1-0.1-0.1-0.2-0.1c-0.1-0.1-0.2-0.1-0.2-0.2l-0.1-0.1l-0.1-0.1
		c0,0.1-0.1,0-0.1,0C11.2,2.2,11.1,2.1,11,2h0.1c-0.3-0.1-0.5-0.2-0.6-0.3c0,0,0-0.1,0.1-0.1c-0.2,0-0.2-0.3-0.3-0.2h0.1
		C10.1,1.3,10,1.2,9.9,1.2c-0.2,0-0.3-0.1-0.4-0.1C9.4,1,9.6,1.2,9.6,1C9.5,1,9.4,0.9,9.3,0.9c-0.1,0-0.2,0-0.3-0.1c0,0,0,0,0.1,0
		C8.8,0.7,9,0.9,8.8,0.9c0-0.1,0-0.1,0-0.1l0,0V0.7c-0.1,0.1-0.3,0-0.4,0.1c0,0,0.1-0.1,0-0.2s-0.2,0-0.2,0l0,0
		C8.1,0.5,7.9,0.5,8,0.5c-0.2-0.1,0,0-0.2,0.1L8,0.7H7.8l0.1-0.1c-0.1-0.1-0.2,0-0.4,0l0.1,0.1c-0.1,0-0.1,0-0.1,0
		c0-0.1-0.2,0-0.1-0.2C7,0.5,6.8,0.7,6.6,0.7c0.1,0,0,0,0-0.1c-0.1,0-0.2,0.1-0.3,0.1c0,0,0.1-0.1,0-0.1s-0.1,0-0.1,0.1L6.1,0.8
		c0.1-0.1,0-0.1,0-0.1C6,0.9,6,0.9,6,0.9c0.1-0.3-0.2,0-0.2-0.2c0,0.1-0.3,0.2-0.2,0.3h0.1H5.6c0,0,0.1,0,0.1-0.1C5.6,1,5.5,1,5.4,1
		S5.3,1.1,5.2,1.1C5.1,1.2,5,1.2,4.8,1.3c0,0,0.1-0.1,0-0.1C4.7,1.3,4.6,1.3,4.5,1.4c0,0.1-0.1,0.1-0.1,0.2L4.3,1.7
		c-0.1-0.1,0-0.1,0.1-0.2s0.1-0.1,0.1-0.2L4.4,1.5H4.3C4.2,1.6,4.2,1.6,4.1,1.7c0,0.1-0.1,0.1-0.2,0.2c0,0-0.1,0.1-0.1,0.2
		C3.5,2,3.5,2.4,3.3,2.4c0.1,0.1,0,0.1-0.1,0.2c0-0.1-0.1,0-0.1-0.1c0,0.1-0.2,0.4-0.3,0.2c0,0.2-0.2,0.3-0.2,0.4
		C2.5,3.2,2.5,3.3,2.3,3.5c0.1,0-0.1,0.2-0.1,0.2V3.6c-0.1,0-0.1,0.2-0.1,0.2C2,3.8,2,3.7,2,3.8c0.1,0,0,0.3-0.1,0.3V4
		C1.8,4.3,1.7,4.5,1.6,4.7c0,0.3-0.1,0.5-0.1,0.7L1.4,5.3c-0.2,0.2,0.1,0.2,0,0.4c0,0.1-0.1,0.1-0.1,0.2v0.3c0,0.1-0.1,0.3-0.1,0.4
		c-0.1,0.3-0.1,0.6,0,0.9c0,0.1,0,0,0.1,0c0,0.1-0.1,0.1,0,0.1h0.1c0,0.1-0.1,0.2-0.1,0.2c0,0.1,0,0.2,0.1,0.3
		c0.1,0.2,0.1,0.4,0,0.5C1.3,8.7,1.3,8.8,1.3,9c0,0.1,0,0.1,0.1,0.2c0,0.1,0.1,0.1,0.1,0.2c0,0.1-0.1-0.1-0.1,0.1l0.2,0.2l0,0
		l0.1,0.1l0.1,0.1c0,0.1,0.1,0.2,0.1,0.3c0,0.2,0.1,0.4,0.2,0.5l0,0v0.1c0,0,0,0,0-0.1c0.1,0.1,0.1,0.1,0.1,0.1
		c0.1,0,0.1,0.1,0.1,0.1C2.4,11,2.4,11,2.5,11.1c-0.1-0.1,0,0.1,0,0.2c0.1,0,0.1-0.1,0.2,0c0.1,0.1,0.2,0.3,0.3,0.5
		c0.1,0,0.2,0.1,0.2,0c0.1,0.1,0.2,0.1,0.2,0.2l0.1,0.1c0.1,0,0.1,0.1,0.2,0.1l0,0c0.1-0.1,0.2,0.2,0.2,0.2s-0.1,0-0.1,0.1l0.1,0.1
		c-0.1,0-0.2,0.1-0.1,0.1c0.1,0,0-0.1,0.1-0.1v0.1c0.1,0,0.2-0.1,0.1-0.1c0.2,0.1,0.5,0.2,0.7,0.4l0,0c0.1,0,0.3,0.1,0.4,0.2
		c0,0,0.1,0,0.1-0.1c0.2,0,0,0.1,0.1,0.1c-0.1,0-0.1,0-0.1,0l0.3,0.1c0,0,0,0.1,0.1,0.1c0.1,0.1,0.1,0.1,0.2,0.1c0,0,0-0.1-0.1-0.1
		h0.1l0.1,0.1l0.2-0.1v0.1c0.1,0,0.2-0.1,0.2-0.1c0.3,0.1,0.2,0.1,0.4,0.2c0-0.1,0.1-0.1,0.2-0.1s0.2,0,0.2,0c0.1,0,0.1,0.1,0.2,0.1
		s0.1,0,0.1,0h0.1c0.2,0,0.4,0,0.6,0l0,0c0.2,0.1,0.2-0.2,0.3-0.2l0,0c0.1,0,0.1,0,0.2,0s0.1,0,0.2-0.1c0.1-0.1,0.3-0.1,0.4-0.2
		c0,0,0,0.1,0.1,0.1c0.1-0.1-0.1-0.1,0-0.1v0.1l0.1-0.1c0.2,0,0.3-0.1,0.5-0.1c0.2-0.1,0.3-0.1,0.4-0.2c0.1,0,0.1,0.1,0.1,0.1
		c0.1-0.1,0.2-0.2,0.3-0.2c0.1-0.1,0.2-0.2,0.3-0.2l0.1,0.1c0.1-0.1,0-0.2,0.1-0.2l-0.1,0.1c0.2-0.1,0.1-0.2,0.2-0.3v0.1
		c0.2-0.1,0.1-0.2,0.1-0.2c0.1-0.2,0.3,0.1,0.4-0.2c0-0.1-0.1-0.1-0.1-0.1c0.2-0.1,0.1-0.2,0.3-0.4c0.2,0-0.1,0.1,0.1,0.1L12,11.6
		c0.2-0.1-0.1,0.1,0,0.2c0.1-0.1,0.1-0.2,0.2-0.4c0.1,0.1-0.1,0.1,0,0.2v-0.1v0.1c0.1,0,0.1-0.1,0.1-0.1l-0.1-0.1l0,0
		c0-0.2,0.2-0.3,0.2-0.5c0,0,0,0,0.1,0v-0.1c0-0.1,0-0.1,0-0.2c0.1,0,0.1,0.1,0.2-0.1c-0.1-0.1-0.2-0.1-0.1-0.2c0,0,0,0.1,0.1,0.1
		c0-0.2,0.1,0,0.2-0.1c0-0.1,0.1-0.1,0-0.2c0.1,0,0.1,0,0.2-0.1c-0.1,0,0-0.2-0.1-0.2c0.1,0,0.1,0.2,0.2,0.1c0-0.1,0-0.3-0.1-0.3
		c0.1-0.1,0.1-0.1,0.1-0.2c0,0,0,0,0,0.1c0-0.2,0.2-0.4,0-0.6c0.2,0.1,0.1-0.4,0.2-0.2c0-0.1,0-0.2-0.1-0.2c0.1,0,0.1,0,0.1-0.1
		s0-0.1,0.1-0.2c-0.1-0.1,0-0.2-0.1-0.3c0,0,0,0.1,0.1,0.1c-0.1-0.1,0-0.1,0.1-0.1c0-0.1-0.1,0-0.2-0.1c0.1-0.1,0.1,0,0.2,0
		l-0.1-0.2l0.1-0.1c0-0.1-0.1-0.1,0-0.2v0.1l0.1-0.1l-0.1-0.2C13.7,7,13.7,7,13.8,6.9l0,0V6.8L14,7.2c0,0,0,0,0,0.1
		c0.1,0,0.1,0,0.2,0v0.1c0.1,0,0.1-0.1,0.1-0.1C14.2,7.2,14.3,7.5,14.3,7.6z M10.1,13.2c-0.1,0-0.1,0.1-0.1,0.1
		C10,13.2,10.1,13.2,10.1,13.2C10.1,13.3,10.1,13.2,10.1,13.2z M10.4,13.1C10.3,13.1,10.3,13.1,10.4,13.1L10.4,13.1
		C10.3,13.1,10.3,13.1,10.4,13.1z M10.9,13.5C10.9,13.5,10.8,13.5,10.9,13.5C10.8,13.5,10.8,13.5,10.9,13.5L10.9,13.5
		C10.9,13.4,10.9,13.5,10.9,13.5z M5.1,13.3L5.1,13.3L5.1,13.3z M10.9,13.3L10.9,13.3L10.9,13.3L10.9,13.3L10.9,13.3z M11.3,1.6
		L11.3,1.6L11.3,1.6L11.3,1.6z M5.9,13.5L5.9,13.5L5.9,13.5L5.9,13.5z M12.4,3.1L12.4,3.1L12.4,3.1z M12.8,3.7L12.8,3.7L12.8,3.7z
		 M13,4.2L13,4.2L13,4.2L13,4.2z M5.5,1.1C5.5,1.1,5.4,1.1,5.5,1.1C5.4,1.1,5.4,1.1,5.5,1.1z M8.1,0.6H8C8,0.7,8.1,0.7,8.1,0.6z
		 M3,2.7L3,2.7L3,2.7L3,2.7z M7.9,0.7C8,0.7,8,0.7,7.9,0.7L7.9,0.7z M13.7,6.6L13.7,6.6L13.7,6.6L13.7,6.6z M13.7,6.6L13.7,6.6
		L13.7,6.6z M13.7,6.6C13.7,6.7,13.7,6.7,13.7,6.6L13.7,6.6z M13.6,5.6c0,0.1,0,0.1,0,0.2l0,0C13.5,5.8,13.6,5.6,13.6,5.6z
		 M13.7,4.7c0-0.3-0.1,0.1-0.1-0.2C13.6,4.6,13.6,4.7,13.7,4.7C13.7,4.7,13.7,4.6,13.7,4.7z M13.4,3.9L13.4,3.9
		C13.4,4,13.4,3.9,13.4,3.9z M10.2,0.8C10.1,0.8,10.1,0.8,10.2,0.8L10.2,0.8z M9.3,1H9.2C9.2,1,9.2,1,9.3,1L9.3,1z M8.9,0.3H8.7H8.9
		L8.9,0.3z M1.9,2.7L2,2.8C2,2.7,1.9,2.6,1.9,2.7z M0.5,5.8C0.4,5.8,0.4,5.9,0.4,6C0.5,5.9,0.5,5.8,0.5,5.8z M4.8,14.1L4.8,14.1
		L4.8,14.1L4.8,14.1z"/>
	<polyline class="st0" points="33,50.1 33,50.1 33.4,49.5 33,50.1 	"/>
	<line class="st0" x1="34.1" y1="52.3" x2="34.1" y2="52.3"/>
	<polyline class="st0" points="-18.3,42.6 -18.3,42.6 -17.9,42 -18.3,42.6 	"/>
	<g>
		<path class="st0" d="M10.2,7.2L11.1,6c0.1-0.1,0.1-0.3,0-0.4s-0.3-0.1-0.3,0l-1,1.1L8.9,5.6c-0.1-0.1-0.3-0.1-0.3,0
			C8.5,5.7,8.5,5.9,8.5,6l0.9,1.1L8.5,8.3c-0.1,0.1-0.1,0.3,0,0.4c0.1,0.1,0.3,0.1,0.3,0l0.9-1.1l0.9,1.1c0.1,0.1,0.3,0.1,0.3,0
			c0.1-0.1,0.1-0.3,0-0.4L10.2,7.2z"/>
		<path class="st0" d="M7.6,3.6L7.6,3.6L7.6,3.6L7.6,3.6c-0.2,0-0.2,0-0.3,0.1L5.2,5.6H4c-0.2,0-0.4,0.2-0.4,0.5v2.1
			c0,0.3,0.2,0.5,0.4,0.5h1.2l2.1,2h0.1l0,0h0.1l0,0l0,0c0.1-0.1,0.2-0.2,0.2-0.3V3.9C7.8,3.8,7.7,3.7,7.6,3.6z M7.2,9.7L5.5,8.1
			H5.4l0,0H4.2V6.3h1.2h0.1l0,0l1.8-1.6L7.2,9.7L7.2,9.7z"/>
	</g>
</g>
<g id="Layer_2" class="st1">
	<path class="st2" d="M14.3,7.4l-0.1,0.1V7.4c-0.1,0-0.1,0-0.1,0l0,0c0-0.1,0-0.2,0-0.4c0,0,0,0.1,0.1,0.1c0,0.1,0,0.1-0.1,0.1
		c0,0,0,0.1,0.1,0.1c0.1-0.1,0.1-0.2,0-0.3h0.1c-0.2,0-0.2-0.1-0.3-0.1c0-0.1,0-0.1,0-0.2c0,0,0,0,0.1,0.1V6.7c0,0.1-0.1,0-0.1,0
		c0-0.1,0-0.1,0-0.1l0,0v0.1c0.1-0.1,0-0.2-0.1-0.4l0,0c0,0,0,0-0.1,0V6.2c0,0,0,0,0.1,0c0,0,0,0,0-0.1L14,6.2L13.9,6H14
		c0-0.1-0.1,0,0-0.2l0,0l-0.1-0.1H14c0-0.2-0.2-0.3-0.1-0.4l0,0c-0.1-0.2-0.1,0-0.3-0.2C13.7,5,13.7,5,13.8,4.9h-0.1V4.8
		c-0.1-0.1,0,0-0.1,0c0-0.1,0-0.2-0.1-0.2c-0.1-0.1-0.1-0.1,0-0.2c-0.1,0,0,0.1-0.1,0c0.1-0.1,0-0.1,0-0.2c-0.1-0.1-0.1-0.1-0.1-0.1
		c-0.1-0.1-0.1-0.2-0.1-0.2c0.1,0,0.1,0.1,0.1,0.1s0,0.1,0.1,0.1l0.1,0.1V4.1c0.1,0,0.1,0.1,0.1,0c-0.1,0-0.1-0.1-0.1-0.1
		c0-0.1,0-0.1-0.1-0.2c-0.1,0.1-0.2-0.2-0.3-0.3c0.1,0-0.1-0.3-0.2-0.5c-0.1,0-0.2-0.1-0.3-0.2c0.1-0.1,0.1-0.1,0.2,0l-0.1-0.1
		c-0.1,0-0.1,0-0.1-0.1h0.1c-0.1-0.1-0.3-0.2-0.4-0.4c-0.1,0.1-0.1,0.2-0.2,0.2c-0.1,0-0.1,0-0.1,0s-0.1,0-0.1-0.1H12c0-0.1,0,0,0,0
		c0.1-0.1,0-0.1,0-0.1s0,0.1,0.1,0.1C12,2.2,11.9,2.1,11.9,2c0,0-0.1,0.1-0.1,0c-0.1-0.1,0-0.1,0-0.2c-0.1,0-0.1-0.1-0.2,0V1.7
		c-0.1,0-0.2-0.1-0.3-0.1v0.1c0,0,0,0-0.1,0l0,0l0,0l0,0c-0.1,0-0.1-0.1-0.2-0.1c0.1-0.1,0-0.1,0-0.2c-0.1-0.1-0.2-0.2-0.3-0.2l0,0
		C10.5,1.1,10.4,1,10.2,1c-0.1,0-0.1-0.1-0.1-0.1c-0.1,0-0.1,0-0.3-0.1c0.1,0,0-0.1,0.1,0c0-0.1-0.1-0.1-0.2-0.1
		c0.1-0.1-0.1-0.1-0.2-0.1l0.1,0.1c-0.1,0-0.2-0.1-0.2-0.1l0.1-0.1C9.3,0.4,9.1,0.4,9,0.4c-0.2,0-0.3,0-0.4-0.1
		C8.5,0.4,8.8,0.4,8.7,0.5C8.6,0.4,8.4,0.2,8.4,0.2C8.2,0.2,8.2,0.4,8,0.3c0,0.1,0,0.1-0.1,0.2c-0.1,0-0.2-0.2-0.1-0.2h0.1
		C8,0.3,8,0.3,8,0.2l0,0c-0.2,0-0.4,0-0.4,0c-0.1,0-0.1,0.1,0,0.1c-0.2,0-0.2,0-0.4,0c0,0,0.1,0.1,0,0.1c-0.3,0-0.1,0.1-0.3,0.1
		c-0.1-0.1,0-0.1-0.2-0.1c-0.1,0,0-0.1,0-0.1c-0.1,0-0.1,0-0.1,0c-0.1,0-0.1,0-0.1,0c-0.1,0-0.2,0-0.2,0l0.1-0.1
		c-0.1,0-0.1,0.1-0.2,0.1l0.1,0.1c-0.1,0-0.1,0-0.1,0c-0.1,0.1,0.1,0.1,0,0.2C6.1,0.6,6,0.7,6,0.6c0.2,0-0.1-0.1,0.1-0.1H6l0,0
		c-0.2,0-0.1,0.1-0.3,0.2c0-0.1-0.1-0.1-0.1-0.1c0.1,0,0.1,0.1,0,0.1c-0.2,0-0.1,0.1-0.2,0.1h0.1c0,0.1-0.1,0.1-0.2,0.1
		c0,0,0.1-0.1,0-0.1S5,0.7,4.9,0.8c-0.1,0,0-0.1-0.1-0.1c-0.1,0.1-0.2,0-0.4,0.1c0.1,0,0.1,0,0,0.1l0.2-0.2L4.5,0.9
		c0.1-0.1,0.2-0.1,0.2-0.1c-0.1,0.1-0.1,0.1,0,0.1C4.5,0.8,4.5,1.1,4.3,1.1L4.2,0.9C4.1,0.9,4,1,4,1.1S3.8,1.2,3.7,1.3h0.1
		c0,0.1-0.1,0.1-0.2,0.2c0-0.1-0.1-0.1-0.1-0.1S3.3,1.5,3.4,1.6H3.2C2.9,1.7,3,1.9,2.8,2.1c0-0.1-0.1-0.1,0-0.2C2.7,1.9,2.7,2,2.7,2
		S2.6,2.2,2.5,2.2v0.1l0,0c0,0-0.1,0.1,0,0.1c-0.1,0-0.2,0.1-0.3,0.2c0,0.1-0.1,0.1-0.1,0.1s0,0-0.1,0.1C1.9,2.9,1.9,3,1.8,3
		c0,0.1-0.1,0.3-0.2,0.4l0,0c-0.2,0.1,0,0.2-0.1,0.4c-0.1,0.1,0-0.1-0.1-0.1C1.2,3.6,1.3,3.9,1.1,4V3.9C1,4,1.1,4.2,1,4.4l0,0
		C1,4.6,1,4.8,0.9,5c-0.1-0.1,0-0.1-0.1-0.1c0,0.1,0.1,0,0.1,0.2c-0.1,0-0.1,0.1-0.2,0.1c0-0.1,0-0.1,0.1-0.2C0.7,5,0.7,5.1,0.7,5.1
		v0.1H0.6c-0.1,0.2,0.1,0.3,0,0.5h0.1C0.7,6,0.5,5.9,0.6,6H0.5c0,0.1,0.1,0.4,0.1,0.5c-0.2,0-0.2-0.2-0.2-0.4c0,0.1,0,0.3,0,0.4
		c0-0.1,0-0.1,0-0.1c0.1,0.1,0.1,0.3,0.1,0.5C0.4,6.8,0.4,7,0.3,7.1c0,0.1,0,0.3-0.1,0.4C0.3,7.6,0.3,7.8,0.3,8s0,0.4,0.1,0.6
		c0.2-0.2,0,0.1,0.2,0.1c0,0.1,0.1,0.1,0,0.1l0,0h0.1c0,0.1-0.1,0.1-0.1,0.1v0.2C0.5,9.2,0.5,9,0.4,9c0,0.2-0.1,0.1-0.1,0.2
		c0.1-0.1,0.1,0.1,0.1,0.2l0.1-0.2c0.1,0.1,0.1,0.2,0.1,0.2c0,0.1,0,0.1,0.1,0.2L0.5,9.7c0,0.1,0.1,0.2,0.1,0.3
		c0.1,0.1,0.2,0.2,0.2,0.2s0,0.1-0.1,0c0.1,0.2,0.2,0.3,0.3,0.5c0.1,0.1,0.2,0.3,0.2,0.4h0.1c0.1,0.1,0.1,0.1,0.1,0.1s-0.1,0,0,0
		c0,0,0.2,0.1,0.2,0.2H1.5c0.1,0.1,0.2,0.2,0.3,0.3S2,11.9,2.1,12c-0.1,0.1,0.1,0.3,0.1,0.4l0,0c0.1,0.1,0.3,0.2,0.4,0.3
		c0.1,0.1,0.3,0.1,0.5,0.2c0,0.1,0.1,0.1,0.1,0.2c0.1,0.1,0.2,0.1,0.2,0.2c0.2,0.1,0.4,0.2,0.5,0.4c0-0.1,0.1-0.1,0.1-0.1
		c0.1,0.1,0.2,0,0.2,0.1l0,0c0,0.1,0.2,0.2,0.3,0.2l0.1-0.1C4.8,14,5,14.1,5.2,14.1s0.4,0.1,0.5,0.2c0.1,0,0.2,0,0.3,0v0.1
		c0.1,0,0.2,0.1,0.3,0.1c0.1,0,0.2,0.1,0.3,0l-0.1,0.1c0.2,0,0.2-0.2,0.4-0.2H7c0.3,0,0.6,0.1,0.9,0c0,0,0,0.1-0.1,0.1
		c0.1,0,0.5,0,0.5-0.1c0,0.1,0.3,0,0.4-0.1v0.1c0.1-0.1,0.1-0.2,0.3-0.2c0.1,0,0.1,0.1,0,0.1C9.1,14.1,9,14,9.2,14l-0.1,0.1
		c0.1,0,0.1-0.1,0.2-0.1c0.1-0.1,0.3-0.1,0.3,0c0-0.1,0.1-0.1,0.1-0.1V14c0.1,0,0.1,0,0.2-0.1c0.1,0,0.1-0.1,0.1-0.1
		c0.1-0.1,0.1-0.1,0.2-0.1c0,0,0,0,0.1,0c-0.2,0.1-0.3,0.1-0.3,0.1c0,0.1,0.2,0,0.1,0.2c0.1-0.1,0.2-0.3,0.4-0.4l0,0l0,0
		c0,0,0.1,0,0.1-0.1c0.1,0,0.1,0,0.1-0.1c0,0,0,0,0.1,0l0,0c0,0,0.1,0,0.1-0.1c0,0,0,0,0,0.1c0.1,0,0.1-0.1,0.1-0.1
		c-0.1-0.1,0.1-0.1-0.1-0.1c0,0,0,0-0.1,0.1l0,0l0,0c0,0-0.1,0.1-0.2,0.1c0-0.1,0.1-0.1,0.2-0.1c0-0.1,0-0.1,0-0.2
		c0.2,0.1,0.4,0,0.4,0c0.1-0.1,0.2-0.2,0.3-0.3s0.1-0.1,0.1-0.1c0-0.1,0.1-0.1,0.1-0.2c0-0.1,0.1,0,0.1,0l-0.1,0.1
		c0.1-0.1,0.3-0.3,0.2-0.4c0.2-0.1,0,0.1,0.2,0v0.1c0.2-0.1,0.3-0.3,0.4-0.5c0.1-0.2,0.1-0.4,0.3-0.5l0,0c0.1-0.1,0.2-0.2,0.3-0.4
		c0.1-0.1,0.2-0.2,0.2-0.4c0.1-0.1,0.1-0.3,0.2-0.4c0.1-0.1,0.1-0.2,0.2-0.4s0-0.2,0-0.3h0.1c0-0.1-0.1-0.1-0.1-0.2
		c0-0.1,0.1-0.2,0.1-0.3s0.1-0.1,0.1-0.2c0-0.1,0-0.1,0-0.2h-0.1c0-0.1,0-0.4,0.1-0.3c0,0-0.1-0.1,0-0.1H14c0-0.1,0-0.2,0-0.3
		c0.1-0.2,0.2,0.1,0.2-0.2C14.5,7.6,14.4,7.4,14.3,7.4z"/>
	<g class="st3">
		<path class="st4" d="M28.4,21l0.5-0.5c0.1-0.1,0.1-0.1,0-0.2s-0.1-0.1-0.2,0l-0.5,0.5l-0.5-0.5c-0.1-0.1-0.1-0.1-0.2,0
			s-0.1,0.1,0,0.2L28,21l-0.5,0.5c-0.1,0.1-0.1,0.1,0,0.2s0.1,0.1,0.2,0l0.5-0.5l0.5,0.5c0.1,0.1,0.1,0.1,0.2,0s0.1-0.1,0-0.2
			L28.4,21z"/>
		<path class="st4" d="M27.1,19.4L27.1,19.4C27,19.4,27,19.4,27.1,19.4L27.1,19.4c-0.1,0-0.1,0-0.2,0l-1.1,0.9h-0.6
			c-0.1,0-0.2,0.1-0.2,0.2v1c0,0.1,0.1,0.2,0.2,0.2h0.6l1.1,0.9H27l0,0h0.1l0,0l0,0l0.1-0.1v-2.9C27.1,19.5,27.1,19.4,27.1,19.4z
			 M26.8,22.2l-0.9-0.7h-0.1l0,0h-0.6v-0.8h0.6h0.1l0,0l0.9-0.7V22.2z"/>
	</g>
</g>
</svg>
