<?xml version="1.0" encoding="utf-8"?>
<!-- Generator: Adobe Illustrator 21.0.0, SVG Export Plug-In . SVG Version: 6.00 Build 0)  -->
<svg version="1.1" id="Layer_1" xmlns="http://www.w3.org/2000/svg" xmlns:xlink="http://www.w3.org/1999/xlink" x="0px" y="0px"
	 viewBox="0 0 60 14.8" style="enable-background:new 0 0 60 14.8;" xml:space="preserve">
<style type="text/css">
	.st0{fill:#9F3131;}
	.st1{enable-background:new    ;}
	.st2{fill:#FFFFFF;}
</style>
<g>
	<g>
		<g>
			<path class="st0" d="M47.7,13c-5.4,1-11.9-0.3-17.4,0.6c-6.5,1.2-13.6,0.6-20.1,0.6c0-0.6,0.5-1,0-1.3C8.1,12,8.1,10.8,8.1,9.6
				c0-0.6,1.6,0,1.1-0.6c1.6,0,4.4-0.3,2.7-0.9c-0.5-0.6-2.7,0-3.3-0.9c-0.5-0.9,0.6-1.8,0-2.7c-0.5,0-1.6,0-2.2,0
				C5.9,3.8,7,2.6,6.5,2.6C4.9,2,2.7,2.3,0.5,2.3c0-0.6-0.5-1.2,0.5-1.5c19-0.6,38.5-0.6,57.5,0.3c2.2,0.3,0.5,0.5-1.1,1.4
				C58,2.2,58,3.1,58.6,2.7c0,0.9-1.1,2.4-3.3,2.7c0.5,0,1.1,0,1.6,0c0.5,0.3,0,0.9,0,1.5c-0.5,0-1.1,0-1.1,0.3c0,0.3,0,0.9,0,1.2
				c0.5,0,1.6,0,2.2,0c-0.5,0-1.1,0-1.1,0.3c0,0.3,0,0.9,0,1.2c-1.1,0.3-2.7-0.3-3.8,0v0.9c1.1,0.3,2.7,0,3.8,0
				c-0.5,0.3-0.5,0.6-0.5,1.2c-1.6,0.3-3.3-0.6-4.9,0.3c0.5,0,1.1,0,1.6,0C52.1,13.9,49.3,12.7,47.7,13z"/>
		</g>
	</g>
	<g class="st1">
		<path class="st2" d="M12.1,9h0.6l0-4.9h-0.8V3.3h1.7l2.9,3.8c0.2,0.3,0.5,0.7,0.6,1h0l0-4h-0.7V3.3h2.2v0.7h-0.6l0,5.6h-0.8
			L14,5.6c-0.2-0.2-0.4-0.5-0.4-0.7l0,0l0,4h0.7v0.7h-2.2V9z"/>
		<path class="st2" d="M21.7,4.9c1.7,0,2.3,1.3,2.3,2.5c0,1.3-0.8,2.4-2.4,2.4c-1.7,0-2.4-1.2-2.4-2.4C19.2,5.9,20.3,4.9,21.7,4.9z
			 M21.6,9c0.9,0,1.3-0.8,1.3-1.7c0-1.1-0.6-1.5-1.3-1.5c-1,0-1.4,0.8-1.4,1.7C20.3,8.2,20.7,9,21.6,9z"/>
		<path class="st2" d="M27.5,6.3l0-0.6c-0.1-0.1-0.4-0.2-0.8-0.2c-0.5,0-1,0.1-1,0.6c0,0.4,0.3,0.5,0.6,0.5l1.2,0.2
			C28,7,28.6,7.3,28.6,8.2c0,1.2-1.1,1.6-2.1,1.6c-0.8,0-1.4-0.2-1.7-0.3l0-1.3h0.9l0,0.6c0.2,0.1,0.5,0.2,1,0.2c0.5,0,1-0.2,1-0.7
			c0-0.4-0.3-0.5-0.7-0.6l-0.8-0.1c-0.7-0.1-1.5-0.4-1.5-1.3c0-1.1,1-1.5,2-1.5c0.8,0,1.4,0.2,1.6,0.3l0,1.2H27.5z"/>
		<path class="st2" d="M31.8,4.9c1.7,0,2.3,1.3,2.3,2.5c0,1.3-0.8,2.4-2.4,2.4c-1.7,0-2.4-1.2-2.4-2.4C29.3,5.9,30.4,4.9,31.8,4.9z
			 M31.7,9C32.6,9,33,8.2,33,7.3c0-1.1-0.6-1.5-1.3-1.5c-1,0-1.4,0.8-1.4,1.7C30.4,8.2,30.8,9,31.7,9z"/>
		<path class="st2" d="M34.7,5h0.7l0-1.1l1-0.1l0,1.1h1.4v0.7h-1.4c0,0.8,0,1.5,0,2.2c0,0.9,0.2,1.1,0.7,1.1c0.3,0,0.6-0.1,0.8-0.2
			l0,0.7c-0.3,0.1-0.6,0.2-1,0.2c-1,0-1.4-0.4-1.4-1.5c0-0.6,0-1.8,0-2.6h-0.7V5z"/>
		<path class="st2" d="M38.2,9h0.6l0-3.2H38V5h1.7c0,0.4,0,0.8-0.1,1.3l0,0c0.2-0.9,0.7-1.4,1.4-1.4c0.2,0,0.5,0,0.6,0.1l-0.1,0.9
			c-0.1,0-0.3-0.1-0.5-0.1c-0.9,0-1.3,0.9-1.3,1.7l0,1.5h0.7v0.7h-2.3V9z"/>
		<path class="st2" d="M44.3,4.9c1.7,0,2.3,1.3,2.3,2.5c0,1.3-0.8,2.4-2.4,2.4c-1.7,0-2.4-1.2-2.4-2.4C41.8,5.9,42.9,4.9,44.3,4.9z
			 M44.2,9c0.9,0,1.3-0.8,1.3-1.7c0-1.1-0.6-1.5-1.3-1.5c-1,0-1.4,0.8-1.4,1.7C42.9,8.2,43.3,9,44.2,9z"/>
		<path class="st2" d="M50.1,6.3l0-0.6c-0.1-0.1-0.4-0.2-0.8-0.2c-0.5,0-1,0.1-1,0.6c0,0.4,0.3,0.5,0.6,0.5l1.2,0.2
			c0.5,0.1,1.1,0.3,1.1,1.3c0,1.2-1.1,1.6-2.1,1.6c-0.8,0-1.4-0.2-1.7-0.3l0-1.3h0.9l0,0.6c0.2,0.1,0.5,0.2,1,0.2c0.5,0,1-0.2,1-0.7
			c0-0.4-0.3-0.5-0.7-0.6l-0.8-0.1c-0.7-0.1-1.5-0.4-1.5-1.3c0-1.1,1-1.5,2-1.5c0.8,0,1.4,0.2,1.6,0.3l0,1.2H50.1z"/>
	</g>
</g>
</svg>
