<?xml version="1.0" encoding="utf-8"?>
<!-- Generator: Adobe Illustrator 21.0.0, SVG Export Plug-In . SVG Version: 6.00 Build 0)  -->
<svg version="1.1" id="Layer_1" xmlns="http://www.w3.org/2000/svg" xmlns:xlink="http://www.w3.org/1999/xlink" x="0px" y="0px"
	 viewBox="0 0 60 14.8" style="enable-background:new 0 0 60 14.8;" xml:space="preserve">
<style type="text/css">
	.st0{fill:#FFFFFF;}
	.st1{enable-background:new    ;}
	.st2{fill:#471414;}
</style>
<g>
	<g>
		<g>
			<path class="st0" d="M18.4,0.6c4-0.8,8.7,0.8,12.7,0.1c4.8-0.9,10-0.7,14.8-0.4c0,0.6-0.5,1.5-0.1,1.8c0.4,0.2,0.7,0.5,0.9,0.8
				c0.2,0.2,0.4,0.5,0.4,0.8c0.2,0.6,0.2,1.2,0.1,1.8c0,0.2-0.1,0.2-0.2,0.2c-0.1,0-0.2,0.1-0.4,0.1c-0.2,0-0.5,0-0.3,0.3
				c-1.2-0.1-3.2,0.1-2,0.8c0.4,0.6,2,0.1,2.3,1c0.2,0.5,0.1,0.9-0.1,1.4c-0.1,0.5-0.2,0.9-0.1,1.4c0.1,0,0.2,0.1,0.4,0
				c0.2,0,0.3-0.1,0.5-0.2c0.3-0.1,0.6-0.2,0.8-0.3c0.2,0.2,0.1,0.6-0.1,0.9c-0.1,0.4-0.2,0.7,0,0.6c0.6-0.2,1.4,0.1,1.4,0.1
				c-0.5,0.5-0.9,1-1.4,1.5L47.3,14L47,14.4c-0.1,0.1-0.2,0.2-0.3,0.3c-0.1,0-0.2,0-0.3-0.1c-0.1-0.1-0.2-0.1-0.3-0.1h-0.7H44
				c-0.9,0-1.8,0-2.6,0c-3.5,0-7,0-10.6-0.1c-3.5-0.1-7-0.2-10.5-0.3c-0.9-0.1-1.8-0.1-2.6-0.2l-1.3-0.1l-0.7-0.1
				c-0.1,0-0.2,0-0.3,0c-0.1,0-0.2,0-0.3,0.1c-0.1,0-0.2,0.1-0.3,0.1s-0.2-0.1-0.3-0.3l-0.6-0.9c-0.2-0.3,0.5-0.5,0.3-0.8L12.5,11
				l-0.3-0.5L11.9,10l-0.6-1c0,0,0.4-2.1,1.2-1.9l-1.2-0.5c-0.2-0.2-0.2-0.2-0.1-0.3c0.1-0.1,0.2-0.2,0.2-0.3
				c0.4,0.1,0.8,0.1,0.8-0.1s0-0.5,0-0.7c-0.4,0.1-1.2,0.2-1.6,0.3c0.4-0.1,0.8-0.1,0.8-0.2c0-0.1,0-0.4,0-0.5
				c0.4-0.2,0.9-0.5,1.4-0.6s1-0.3,1.4-0.5l0-0.8c-0.4,0.1-0.9,0.4-1.4,0.7c-0.5,0.3-1,0.7-1.5,0.9c0.4-0.4,0.4-0.5,0.5-0.8
				c0.3-0.3,0.6-0.6,0.9-0.8c0.3-0.2,0.6-0.4,0.9-0.6C14,2.2,14.3,2,14.7,1.7c0.2-0.1,0.3-0.3,0.5-0.4c0.2-0.2,0.3-0.2,0.5-0.3
				c-0.2-0.1-0.4-0.1-0.6,0.1l-0.6,0.5c0.1-0.2,0.2-0.5,0.4-0.7c0.2-0.2,0.3-0.5,0.5-0.6c0.2-0.2,0.3-0.1,0.5,0
				c0.1,0,0.2,0.1,0.3,0.1c0.1,0,0.2,0,0.3,0C17,0.5,17.8,0.8,18.4,0.6z"/>
		</g>
	</g>
	<g class="st1">
		<path class="st2" d="M17.7,9.1h0.7l0-5.5h-0.8V2.7h2.7c1,0,1.3,0.1,1.7,0.3c0.6,0.3,0.9,1,0.9,1.8c0,0.8-0.4,1.6-1,1.9
			c-0.4,0.3-0.8,0.3-1.4,0.3h-1.1l0,2h0.9V10h-2.8V9.1z M20.5,6.2c1,0,1.4-0.6,1.4-1.4c0-0.4-0.2-0.8-0.4-1
			c-0.3-0.3-0.7-0.3-1.2-0.3h-0.6l0,2.7H20.5z"/>
		<path class="st2" d="M26.3,4.5c2,0,2.6,1.5,2.6,2.8c0,1.5-0.9,2.8-2.8,2.8c-1.9,0-2.7-1.3-2.7-2.7C23.5,5.6,24.6,4.5,26.3,4.5z
			 M26.2,9.1c1,0,1.5-0.9,1.5-1.9c0-1.2-0.6-1.7-1.4-1.7c-1.1,0-1.6,1-1.6,1.9C24.7,8.2,25.1,9.1,26.2,9.1z"/>
		<path class="st2" d="M29.5,4.6h0.8l0-1.2l1.2-0.1l0,1.3H33v0.8h-1.5c0,0.9,0,1.7,0,2.5c0,1,0.2,1.2,0.8,1.2c0.3,0,0.6-0.1,0.9-0.2
			l0,0.8c-0.3,0.1-0.7,0.3-1.2,0.3c-1.1,0-1.6-0.4-1.6-1.7c0-0.7,0-2.1,0-3h-0.8V4.6z"/>
		<path class="st2" d="M38.1,9.7c-0.4,0.2-1.1,0.4-1.9,0.4c-1.8,0-2.8-1.1-2.8-2.8c0-1.6,0.9-2.8,2.6-2.8c1.6,0,2.4,1.2,2.4,2.8v0.2
			h-3.8c0,1,0.8,1.7,1.8,1.7c0.7,0,1.3-0.2,1.7-0.4L38.1,9.7z M37.2,6.7V6.6c0-0.4-0.3-1.3-1.3-1.3c-1,0-1.3,0.7-1.3,1.4H37.2z"/>
		<path class="st2" d="M39.1,4.6h0.8l0-1.2L41,3.3l0,1.3h1.5v0.8H41c0,0.9,0,1.7,0,2.5c0,1,0.2,1.2,0.8,1.2c0.3,0,0.6-0.1,0.9-0.2
			l0,0.8c-0.3,0.1-0.7,0.3-1.2,0.3c-1.1,0-1.6-0.4-1.6-1.7c0-0.7,0-2.1,0-3h-0.8V4.6z"/>
	</g>
</g>
</svg>
