<?xml version="1.0" encoding="utf-8"?>
<!-- Generator: Adobe Illustrator 21.0.0, SVG Export Plug-In . SVG Version: 6.00 Build 0)  -->
<svg version="1.1" id="Layer_1" xmlns="http://www.w3.org/2000/svg" xmlns:xlink="http://www.w3.org/1999/xlink" x="0px" y="0px"
	 viewBox="0 0 49.3 14.8" style="enable-background:new 0 0 49.3 14.8;" xml:space="preserve">
<style type="text/css">
	.st0{fill:#FFFFFF;}
	.st1{enable-background:new    ;}
	.st2{fill:#471414;}
</style>
<g>
	<g>
		<g>
			<path class="st0" d="M36.5,0.9c0.2,0-12.9-0.4-13.1-0.6c-2-0.5-4.5-0.4-6.6,0c-1,0.1-1.8,1.9-1.8,1.9c-0.2,0.3-0.5,1-0.3,1.3
				c0.5,0.2,1.8,0.2,1.8,0.8c0,0.1-0.2,0.1-0.5,0.1c0,0.7-0.8,1.9-1,1.9c-0.2,0.3-1.8,1.3-2,1.6c-0.8,0.5,1.5,3,2.5,3.4
				c0.5,0.3,0,0.8,0,1.3c0.5-0.1,0.8,0.3,1.3,0.2c0,0.1,1.5,0.3,2.3,0.3c0,0,0.2-0.1,1-0.1c0.2,0,0.2-0.1,0.2-0.3c0,0.1,0,0.1,0,0.3
				c0.2-0.3,0.8,0,1-0.1c0,0.1,0,0.1,0,0.3c0.5-0.3,1,0,1.5-0.1c0,0.1,0,0.1,0,0.3c0.2,0,0.5,0,0.5,0.2c0,0.1,0,0.1,0,0.3
				c0.2,0.2,0.8-0.1,0.8,0.2c0-0.1,0-0.1,0-0.3c1,0,1.8,0.2,2.5,0.3c2,0.7,4.5,0.4,6.8,0c0.2,0,0.5-0.3,0.2-0.7c0.2,0,0.5,0,0.8,0
				c0.5,0,0.2-0.5,0.8-0.5c4.1-0.8,8.1,0.1,12.1-0.4c-1-0.2-1.8-0.5-2.8-0.3c0-0.1,0-0.5-0.2-0.5c-1.5-0.2-3.3,0.1-4-0.5
				c-0.2-0.2-0.5-0.7-1.3-0.7c0.2,0,0.5,0,0.8,0c0-0.1,0-0.5,0-0.5c-1-0.2,4-0.3,3.4-1.1c-0.1-0.1,0.1-0.4,0-0.5
				c-0.6-0.7-3.6-1-3.6-1.2h-0.5v0c1.5,0,2.8,0,4.3,0c-0.2,0-0.8,0-1,0c0-0.1,0-0.3-0.2-0.3c1,0,2.3,0.2,3.3-0.1
				c0.2-0.1,0-0.7-0.8-0.8c-0.8,0-1.3,0-2,0V5.6c0.5,0,1.3,0.2,1.8,0c0.2-0.1-0.5-0.5-0.2-0.7c0.2,0,0.5,0,0.8-0.1
				c-0.8,0-1.8,0.1-2.5,0c-0.2-0.2-0.5-0.3-0.5-0.7c-1.3,0.1-2.3-2.1-3-3C38.5,0.7,37.3,0.9,36.5,0.9z"/>
		</g>
	</g>
	<g class="st1">
		<path class="st2" d="M19.8,8.1V9c0.2,0.1,0.7,0.3,1.3,0.3c0.9,0,1.5-0.4,1.5-1.2c0-0.6-0.3-0.8-1.1-1l-1.3-0.4
			c-0.8-0.2-1.6-0.7-1.6-1.9c0-1.4,1.2-2.1,2.7-2.1c0.9,0,1.6,0.2,2.2,0.3v1.6h-1.1V3.9c-0.2-0.1-0.5-0.2-1.1-0.2
			c-1.1,0-1.5,0.5-1.5,1c0,0.6,0.5,0.8,1.1,1L22.1,6c0.8,0.2,1.7,0.7,1.7,1.9c0,1.4-1.1,2.2-2.8,2.2c-0.5,0-1.8-0.1-2.4-0.4V8.1
			H19.8z"/>
		<path class="st2" d="M27.5,4.7c2,0,2.6,1.5,2.6,2.8c0,1.5-0.9,2.7-2.8,2.7s-2.7-1.3-2.7-2.7C24.7,5.8,25.9,4.7,27.5,4.7z
			 M27.4,9.2c1,0,1.5-0.9,1.5-1.9c0-1.2-0.6-1.7-1.4-1.7c-1.1,0-1.6,0.9-1.6,1.9C26,8.4,26.4,9.2,27.4,9.2z"/>
		<path class="st2" d="M30.8,4.8h0.8V3.6l1.2-0.1v1.3h1.5v0.8h-1.5c0,0.8,0,1.7,0,2.5c0,1,0.2,1.2,0.8,1.2c0.3,0,0.6-0.1,0.9-0.2
			v0.8c-0.3,0.1-0.7,0.3-1.2,0.3c-1.1,0-1.6-0.4-1.6-1.6c0-0.7,0-2,0-3h-0.8V4.8H30.8z"/>
	</g>
</g>
</svg>
