<?xml version="1.0" encoding="utf-8"?>
<!-- Generator: Adobe Illustrator 21.0.0, SVG Export Plug-In . SVG Version: 6.00 Build 0)  -->
<svg version="1.1" id="Layer_1" xmlns="http://www.w3.org/2000/svg" xmlns:xlink="http://www.w3.org/1999/xlink" x="0px" y="0px"
	 viewBox="0 0 49.3 14.8" style="enable-background:new 0 0 49.3 14.8;" xml:space="preserve">
<style type="text/css">
	.st0{fill:#C01D71;}
	.st1{fill:#FFFFFF;}
</style>
<g>
	<g>
		<path class="st0" d="M36.6,0.9c0.2,0-12.8-0.4-13-0.6c-2-0.5-4.5-0.4-6.5,0c-1,0.2-1.8,2-1.8,2c-0.2,0.3-0.5,1-0.3,1.3
			c0.5,0.2,1.7,0.2,1.7,0.8c0,0.2-0.2,0.2-0.5,0.2c0,0.7-0.8,2-1,2c-0.2,0.3-1.8,1.3-2,1.6c-0.8,0.5,1.5,3,2.5,3.5
			c0.5,0.3,0,0.8,0,1.3c0.5-0.2,0.8,0.3,1.3,0.2c0,0.2,1.5,0.3,2.3,0.3c0,0,0.2-0.2,1-0.2c0.2,0,0.2-0.2,0.2-0.3c0,0.2,0,0.2,0,0.3
			c0.2-0.3,0.8,0,1-0.2c0,0.2,0,0.2,0,0.3c0.5-0.3,1,0,1.5-0.2c0,0.2,0,0.2,0,0.3c0.2,0,0.5,0,0.5,0.2s0,0.2,0,0.3
			c0.2,0.2,0.8-0.2,0.8,0.2c0-0.2,0-0.2,0-0.3c1,0,1.7,0.2,2.5,0.3c2,0.7,4.5,0.4,6.8,0c0.2,0,0.5-0.3,0.2-0.7c0.2,0,0.5,0,0.8,0
			c0.5,0,0.2-0.5,0.8-0.5c4-0.8,8,0.1,12-0.4c-1-0.2-1.7-0.5-2.8-0.3c0-0.2,0-0.5-0.2-0.5c-1.5-0.2-3.3,0.2-4-0.5
			c-0.2-0.2-0.5-0.7-1.3-0.7c0.2,0,0.5,0,0.8,0c0-0.2,0-0.5,0-0.5c-1-0.2,4-0.3,3.4-1.1c-0.1-0.1,0.1-0.4,0-0.5
			c-0.6-0.8-3.6-1-3.6-1.2H39V7.2c1.5,0,2.8,0,4.3,0c-0.2,0-0.8,0-1,0c0-0.2,0-0.3-0.2-0.3c1,0,2.3,0.2,3.3-0.2
			c0.2-0.2,0-0.7-0.8-0.8c-0.8,0-1.3,0-2,0V5.6c0.5,0,1.3,0.2,1.7,0C44.5,5.5,43.8,5.1,44,5c0.2,0,0.5,0,0.8-0.2
			c-0.8,0-1.7,0.2-2.5,0c-0.2-0.2-0.5-0.3-0.5-0.7c-1.3,0.2-2.3-2.1-3-3C38.6,0.8,37.3,0.9,36.6,0.9z"/>
	</g>
	<path class="st1" d="M20,8.1V9c0.2,0.1,0.7,0.3,1.3,0.3c0.9,0,1.5-0.4,1.5-1.2c0-0.6-0.3-0.8-1.1-1l-1.3-0.4
		c-0.8-0.2-1.6-0.7-1.6-1.9c0-1.4,1.2-2.1,2.7-2.1c0.9,0,1.6,0.2,2.2,0.3v1.6h-1.1V3.9c-0.2-0.1-0.5-0.2-1.1-0.2
		c-1.1,0-1.5,0.5-1.5,1c0,0.6,0.5,0.8,1.1,1L22.2,6C23.1,6.3,24,6.7,24,8c0,1.4-1.1,2.3-2.7,2.3c-0.5,0-1.8-0.1-2.4-0.4V8.1H20z"/>
	<path class="st1" d="M27.7,4.7c2,0,2.6,1.5,2.6,2.8c0,1.5-0.9,2.7-2.7,2.7c-1.9,0-2.6-1.3-2.6-2.7C24.9,5.8,26.1,4.7,27.7,4.7z
		 M27.6,9.3c1,0,1.5-0.9,1.5-1.9c0-1.2-0.6-1.7-1.4-1.7c-1.1,0-1.6,0.9-1.6,1.9C26.1,8.4,26.6,9.3,27.6,9.3z"/>
	<path class="st1" d="M30.9,4.8h0.8V3.6l1.2-0.1v1.3h1.5v0.8h-1.5c0,0.8,0,1.7,0,2.5c0,1,0.2,1.2,0.7,1.2c0.3,0,0.6-0.1,0.9-0.2v0.8
		c-0.3,0.1-0.7,0.3-1.2,0.3c-1.1,0-1.6-0.4-1.6-1.6c0-0.7,0-2,0-3h-0.8V4.8z"/>
</g>
</svg>
