<?xml version="1.0" encoding="utf-8"?>
<!-- Generator: Adobe Illustrator 21.0.0, SVG Export Plug-In . SVG Version: 6.00 Build 0)  -->
<svg version="1.1" id="Layer_2" xmlns="http://www.w3.org/2000/svg" xmlns:xlink="http://www.w3.org/1999/xlink" x="0px" y="0px"
	 viewBox="0 0 14.6 14.8" style="enable-background:new 0 0 14.6 14.8;" xml:space="preserve">
<style type="text/css">
	.st0{fill:#FFFFFF;}
</style>
<path class="st0" d="M2.2,3.1C2.1,3.1,2.1,3.1,2.2,3.1L2.2,3.1L2.2,3.1z"/>
<path class="st0" d="M2.8,2.4L2.8,2.4C2.8,2.3,2.8,2.3,2.8,2.4C2.8,2.3,2.8,2.3,2.8,2.4z"/>
<path class="st0" d="M11.2,13.5L11.2,13.5L11.2,13.5L11.2,13.5z"/>
<path class="st0" d="M13.8,5.5C13.9,5.6,14,5.6,14,5.8c0,0.1-0.1,0-0.1,0c0,0.1,0,0.2,0.1,0.3c0,0,0,0-0.1,0
	C13.9,6,13.9,5.8,13.8,5.5z"/>
<path class="st0" d="M14,6.5C14,6.5,14,6.6,14,6.5C14,6.6,14,6.6,14,6.5L14,6.5z"/>
<path class="st0" d="M14.3,7.5L14.3,7.5L14.3,7.5z"/>
<g>
	<path class="st0" d="M13.5,4.4C13.4,4.4,13.4,4.4,13.5,4.4C13.4,4.4,13.4,4.4,13.5,4.4L13.5,4.4z"/>
	<path class="st0" d="M1.6,3.4L1.6,3.4L1.6,3.4z"/>
	<path class="st0" d="M14.3,7.4l-0.1,0.1V7.4c-0.1,0-0.1,0-0.1,0l0,0c0-0.1,0-0.2,0-0.4c0,0,0,0.1,0.1,0.1c0,0.1,0,0.1-0.1,0.1
		c0,0,0,0.1,0.1,0.1c0.1-0.1,0.1-0.2,0-0.3h0.1c-0.2,0-0.2-0.1-0.3-0.1c0-0.1,0-0.1,0-0.2c0,0,0,0,0.1,0.1V6.7c0,0.1-0.1,0-0.1,0
		c0-0.1,0-0.1,0-0.1l0,0v0.1c0.1-0.1,0-0.2-0.1-0.4l0,0c0,0,0,0-0.1,0V6.2c0,0,0,0,0.1,0c0,0,0,0,0-0.1L14,6.2L13.9,6H14
		c0-0.1-0.1,0,0-0.2l0,0l-0.1-0.1H14c0-0.2-0.2-0.3-0.1-0.4l0,0c-0.1-0.2-0.1,0-0.3-0.2C13.7,5,13.7,5,13.8,4.9h-0.1V4.8
		c-0.1-0.1,0,0-0.1,0c0-0.1,0-0.2-0.1-0.2c-0.1-0.1-0.1-0.1,0-0.2c-0.1,0,0,0.1-0.1,0c0.1-0.1,0-0.1,0-0.2c-0.1-0.1-0.1-0.1-0.1-0.1
		c-0.1-0.1-0.1-0.2-0.1-0.2c0.1,0,0.1,0.1,0.1,0.1s0,0.1,0.1,0.1l0.1,0.1V4.1c0.1,0,0.1,0.1,0.1,0c-0.1,0-0.1-0.1-0.1-0.1
		c0-0.1,0-0.1-0.1-0.2c-0.1,0.1-0.2-0.2-0.3-0.3c0.1,0-0.1-0.3-0.2-0.5c-0.1,0-0.2-0.1-0.3-0.2c0.1-0.1,0.1-0.1,0.2,0l-0.1-0.1
		c-0.1,0-0.1,0-0.1-0.1h0.1c-0.1-0.1-0.3-0.2-0.4-0.4c-0.1,0.1-0.1,0.2-0.2,0.2c-0.1,0-0.1,0-0.1,0s-0.1,0-0.1-0.1H12c0-0.1,0,0,0,0
		c0.1-0.1,0-0.1,0-0.1s0,0.1,0.1,0.1C12,2.2,11.9,2.1,11.9,2c0,0-0.1,0.1-0.1,0c-0.1-0.1,0-0.1,0-0.2c-0.1,0-0.1-0.1-0.2,0V1.7
		c-0.1,0-0.2-0.1-0.3-0.1v0.1c0,0,0,0-0.1,0l0,0l0,0l0,0c-0.1,0-0.1-0.1-0.2-0.1c0.1-0.1,0-0.1,0-0.2c-0.1-0.1-0.2-0.2-0.3-0.2l0,0
		C10.5,1.1,10.4,1,10.2,1c-0.1,0-0.1-0.1-0.1-0.1c-0.1,0-0.1,0-0.3-0.1c0.1,0,0-0.1,0.1,0c0-0.1-0.1-0.1-0.2-0.1
		c0.1-0.1-0.1-0.1-0.2-0.1l0.1,0.1c-0.1,0-0.2-0.1-0.2-0.1l0.1-0.1C9.3,0.4,9.1,0.4,9,0.4c-0.2,0-0.3,0-0.4-0.1
		C8.5,0.4,8.8,0.4,8.7,0.5C8.6,0.4,8.4,0.2,8.4,0.2C8.2,0.2,8.2,0.4,8,0.3c0,0.1,0,0.1-0.1,0.2c-0.1,0-0.2-0.2-0.1-0.2h0.1
		C8,0.3,8,0.3,8,0.2l0,0c-0.2,0-0.4,0-0.4,0c-0.1,0-0.1,0.1,0,0.1c-0.2,0-0.2,0-0.4,0c0,0,0.1,0.1,0,0.1c-0.3,0-0.1,0.1-0.3,0.1
		c-0.1-0.1,0-0.1-0.2-0.1c-0.1,0,0-0.1,0-0.1c-0.1,0-0.1,0-0.1,0c-0.1,0-0.1,0-0.1,0c-0.1,0-0.2,0-0.2,0l0.1-0.1
		c-0.1,0-0.1,0.1-0.2,0.1l0.1,0.1c-0.1,0-0.1,0-0.1,0c-0.1,0.1,0.1,0.1,0,0.2C6.1,0.6,6,0.7,6,0.6c0.2,0-0.1-0.1,0.1-0.1H6l0,0
		c-0.2,0-0.1,0.1-0.3,0.2c0-0.1-0.1-0.1-0.1-0.1c0.1,0,0.1,0.1,0,0.1c-0.2,0-0.1,0.1-0.2,0.1h0.1c0,0.1-0.1,0.1-0.2,0.1
		c0,0,0.1-0.1,0-0.1c-0.1,0-0.3-0.1-0.4,0c-0.1,0,0-0.1-0.1-0.1c-0.1,0.1-0.2,0-0.4,0.1c0.1,0,0.1,0,0,0.1l0.2-0.2L4.5,0.9
		c0.1-0.1,0.2-0.1,0.2-0.1c-0.1,0.1-0.1,0.1,0,0.1C4.5,0.8,4.5,1.1,4.3,1.1L4.2,0.9C4.1,0.9,4,1,4,1.1S3.8,1.2,3.7,1.3h0.1
		c0,0.1-0.1,0.1-0.2,0.2c0-0.1-0.1-0.1-0.1-0.1S3.3,1.5,3.4,1.6H3.2C2.9,1.7,3,1.9,2.8,2.1c0-0.1-0.1-0.1,0-0.2C2.7,1.9,2.7,2,2.7,2
		S2.6,2.2,2.5,2.2v0.1l0,0c0,0-0.1,0.1,0,0.1c-0.1,0-0.2,0.1-0.3,0.2c0,0.1-0.1,0.1-0.1,0.1s0,0-0.1,0.1C1.9,2.9,1.9,3,1.8,3
		c0,0.1-0.1,0.3-0.2,0.4l0,0c-0.2,0.1,0,0.2-0.1,0.4c-0.1,0.1,0-0.1-0.1-0.1C1.2,3.6,1.3,3.9,1.1,4V3.9C1,4,1.1,4.2,1,4.4l0,0
		C1,4.6,1,4.8,0.9,5c-0.1-0.1,0-0.1-0.1-0.1c0,0.1,0.1,0,0.1,0.2c-0.1,0-0.1,0.1-0.2,0.1c0-0.1,0-0.1,0.1-0.2C0.7,5,0.7,5.1,0.7,5.1
		v0.1H0.6c-0.1,0.2,0.1,0.3,0,0.5h0.1C0.7,6,0.5,5.9,0.6,6H0.5c0,0.1,0.1,0.4,0.1,0.5c-0.2,0-0.2-0.2-0.2-0.4c0,0.1,0,0.3,0,0.4
		c0-0.1,0-0.1,0-0.1c0.1,0.1,0.1,0.3,0.1,0.5C0.4,6.8,0.4,7,0.3,7.1c0,0.1,0,0.3-0.1,0.4C0.3,7.6,0.3,7.8,0.3,8s0,0.4,0.1,0.6
		c0.2-0.2,0,0.1,0.2,0.1c0,0.1,0.1,0.1,0,0.1l0,0h0.1c0,0.1-0.1,0.1-0.1,0.1v0.2C0.5,9.2,0.5,9,0.4,9c0,0.2-0.1,0.1-0.1,0.2
		c0.1-0.1,0.1,0.1,0.1,0.2l0.1-0.2c0.1,0.1,0.1,0.2,0.1,0.2c0,0.1,0,0.1,0.1,0.2L0.5,9.7c0,0.1,0.1,0.2,0.1,0.3
		c0.1,0.1,0.2,0.2,0.2,0.2s0,0.1-0.1,0c0.1,0.2,0.2,0.3,0.3,0.5c0.1,0.1,0.2,0.3,0.2,0.4h0.1c0.1,0.1,0.1,0.1,0.1,0.1s-0.1,0,0,0
		c0,0,0.2,0.1,0.2,0.2H1.5c0.1,0.1,0.2,0.2,0.3,0.3S2,11.9,2.1,12c-0.1,0.1,0.1,0.3,0.1,0.4l0,0c0.1,0.1,0.3,0.2,0.4,0.3
		c0.1,0.1,0.3,0.1,0.5,0.2c0,0.1,0.1,0.1,0.1,0.2c0.1,0.1,0.2,0.1,0.2,0.2c0.2,0.1,0.4,0.2,0.5,0.4c0-0.1,0.1-0.1,0.1-0.1
		c0.1,0.1,0.2,0,0.2,0.1l0,0c0,0.1,0.2,0.2,0.3,0.2l0.1-0.1C4.8,14,5,14.1,5.2,14.1s0.4,0.1,0.5,0.2c0.1,0,0.2,0,0.3,0v0.1
		c0.1,0,0.2,0.1,0.3,0.1c0.1,0,0.2,0.1,0.3,0l-0.1,0.1c0.2,0,0.2-0.2,0.4-0.2l0.1,0c0.3,0,0.6,0.1,0.9,0c0,0,0,0.1-0.1,0.1
		c0.1,0,0.5,0,0.5-0.1c0,0.1,0.3,0,0.4-0.1v0.1c0.1-0.1,0.1-0.2,0.3-0.2c0.1,0,0.1,0.1,0,0.1C9.1,14.1,9,14,9.2,14l-0.1,0.1
		c0.1,0,0.1-0.1,0.2-0.1c0.1-0.1,0.3-0.1,0.3,0c0-0.1,0.1-0.1,0.1-0.1V14c0.1,0,0.1,0,0.2-0.1c0.1,0,0.1-0.1,0.1-0.1
		c0.1-0.1,0.1-0.1,0.2-0.1c0,0,0,0,0.1,0c-0.2,0.1-0.3,0.1-0.3,0.1c0,0.1,0.2,0,0.1,0.2c0.1-0.1,0.2-0.3,0.4-0.4l0,0l0,0
		c0,0,0.1,0,0.1-0.1c0.1,0,0.1,0,0.1-0.1c0,0,0,0,0.1,0l0,0c0,0,0.1,0,0.1-0.1c0,0,0,0,0,0.1c0.1,0,0.1-0.1,0.1-0.1
		c-0.1-0.1,0.1-0.1-0.1-0.1c0,0,0,0-0.1,0.1l0,0l0,0c0,0-0.1,0.1-0.2,0.1c0-0.1,0.1-0.1,0.2-0.1c0-0.1,0-0.1,0-0.2
		c0.2,0.1,0.4,0,0.4,0c0.1-0.1,0.2-0.2,0.3-0.3s0.1-0.1,0.1-0.1c0-0.1,0.1-0.1,0.1-0.2c0-0.1,0.1,0,0.1,0l-0.1,0.1
		c0.1-0.1,0.3-0.3,0.2-0.4c0.2-0.1,0,0.1,0.2,0v0.1c0.2-0.1,0.3-0.3,0.4-0.5c0.1-0.2,0.1-0.4,0.3-0.5l0,0c0.1-0.1,0.2-0.2,0.3-0.4
		c0.1-0.1,0.2-0.2,0.2-0.4c0.1-0.1,0.1-0.3,0.2-0.4c0.1-0.1,0.1-0.2,0.2-0.4s0-0.2,0-0.3h0.1c0-0.1-0.1-0.1-0.1-0.2
		c0-0.1,0.1-0.2,0.1-0.3s0.1-0.1,0.1-0.2c0-0.1,0-0.1,0-0.2h-0.1c0-0.1,0-0.4,0.1-0.3c0,0-0.1-0.1,0-0.1H14c0-0.1,0-0.2,0-0.3
		c0.1-0.2,0.2,0.1,0.2-0.2C14.5,7.6,14.4,7.4,14.3,7.4z M8,0.7L8,0.7C8,0.7,8.1,0.7,8,0.7C8.1,0.7,8,0.7,8,0.7L8,0.7
		C7.9,0.7,7.9,0.7,8,0.7z M6.8,4.8L6.8,4.8C8.3,5,9.5,6.2,9.7,7.6v0.1L9.4,7.8V7.7C9.1,6.4,8.1,5.4,6.8,5.2H6.7L6.8,4.8z M5.8,0.9
		L5.8,0.9L5.8,0.9L5.8,0.9z M9.7,9.6c-0.2,0.4-0.4,0.8-0.9,1c-0.1,0-0.2,0.1-0.4,0.1c-0.1,0-0.2,0-0.3-0.1c-0.6-0.2-1.2-0.5-1.9-1
		C5.8,9.3,5.4,9,5.1,8.5C4.4,7.8,3.9,6.9,3.7,6.1C3.6,5.6,3.8,5,4.4,4.7c0.1,0,0.3-0.1,0.5-0.2l0,0C5,4.4,5.1,4.4,5.2,4.3l0.2-0.1
		l1,2.2L5.5,6.8c0.2,0.5,1.1,1.7,2,2l0.1-0.1c0,0,0.2-0.3,0.2-0.4L7.9,8L10,9L9.7,9.6z M10.6,7.6L10.6,7.6C10.3,5.7,8.8,4.2,7,3.9
		H6.9L7,3.6h0.1c1.9,0.3,3.5,1.9,3.8,3.8v0.1L10.6,7.6z M12.5,3.1L12.5,3.1C12.5,3.1,12.6,3.1,12.5,3.1C12.6,3.1,12.6,3.1,12.5,3.1z
		 M12.7,3.3c0.1,0,0.1,0,0.1,0.1l0,0c0.1,0.1,0.1,0.1,0.2,0.2c-0.1,0-0.1,0-0.1,0C12.8,3.4,12.7,3.4,12.7,3.3z M12.9,3.7
		C12.9,3.7,12.9,3.6,12.9,3.7c0,0,0.1,0,0.1,0.1C13,3.7,13,3.7,12.9,3.7z"/>
</g>
</svg>
