<?xml version="1.0" encoding="utf-8"?>
<!-- Generator: Adobe Illustrator 22.1.0, SVG Export Plug-In . SVG Version: 6.00 Build 0)  -->
<svg version="1.1" xmlns="http://www.w3.org/2000/svg" xmlns:xlink="http://www.w3.org/1999/xlink" x="0px" y="0px"
	 viewBox="0 0 321.296 294.186" style="enable-background:new 0 0 321.296 294.186;" xml:space="preserve">
<style type="text/css">
	.st0{display:none;}
	.st1{display:inline;}
	.st2{opacity:0.4;clip-path:url(#SVGID_6_);}
	.st3{fill:#F68C2E;}
	.st4{fill:#231F20;}
	.st5{fill:#FFCD16;}
	.st6{fill:#F8B018;}
	.st7{fill:#FFFFFF;}
	.st8{fill:#B6B6B7;}
	.st9{fill:#221F1F;}
	.st10{fill:#F68D2F;}
	.st11{fill:#EF4D24;}
	.st12{fill:#FBB218;}
	.st13{fill:#4CB649;}
	.st14{fill:#BED58E;}
	.st15{fill:#E63D25;}
	.st16{fill:#B62025;}
	.st17{fill:#EC2D37;}
	.st18{fill:#4CB548;}
	.st19{fill:#211E1F;}
	.st20{fill:#BDD48C;}
	.st21{fill:#EB2D37;}
	.st22{fill:#B52126;}
	.st23{display:inline;opacity:0.7;}
	.st24{opacity:0.7;}
	.st25{clip-path:url(#SVGID_12_);}
	.st26{fill:#381C1B;}
	.st27{fill:#C9A170;}
	.st28{fill:#D8B783;}
	.st29{fill:#BD8D5A;}
	.st30{fill-rule:evenodd;clip-rule:evenodd;fill:#381C1B;}
	.st31{fill-rule:evenodd;clip-rule:evenodd;fill:#25592F;}
	.st32{fill-rule:evenodd;clip-rule:evenodd;fill:#37803F;}
	.st33{fill-rule:evenodd;clip-rule:evenodd;fill:#F0F4D5;}
	.st34{fill-rule:evenodd;clip-rule:evenodd;fill:#F18C38;}
	.st35{fill-rule:evenodd;clip-rule:evenodd;fill:#D9455C;}
	.st36{fill-rule:evenodd;clip-rule:evenodd;fill:#C05885;}
	.st37{fill-rule:evenodd;clip-rule:evenodd;fill:#E1EAA2;}
	.st38{fill-rule:evenodd;clip-rule:evenodd;fill:#B8D372;}
	.st39{fill-rule:evenodd;clip-rule:evenodd;fill:#E52344;}
	.st40{fill-rule:evenodd;clip-rule:evenodd;fill:#EC3459;}
	.st41{fill-rule:evenodd;clip-rule:evenodd;fill:#EA486F;}
	.st42{fill:#D87526;}
	.st43{fill:#8C4422;}
	.st44{fill:#EFD23B;}
	.st45{fill:#DE912A;}
	.st46{fill:#E8AD2E;}
	.st47{fill:#934A2B;}
	.st48{fill-rule:evenodd;clip-rule:evenodd;fill:#7FB743;}
	.st49{fill-rule:evenodd;clip-rule:evenodd;fill:#F9DC36;}
	.st50{display:inline;fill:#6B1446;}
	.st51{clip-path:url(#SVGID_16_);}
	.st52{fill:#6B1446;}
	.st53{fill-rule:evenodd;clip-rule:evenodd;fill:#AA2335;}
	.st54{fill-rule:evenodd;clip-rule:evenodd;fill:#6B1446;}
	.st55{fill-rule:evenodd;clip-rule:evenodd;fill:#F39F4E;}
	.st56{fill:#F39F4E;}
	.st57{fill:#1A5360;}
	.st58{display:inline;fill-rule:evenodd;clip-rule:evenodd;fill:#FFB3D2;}
	.st59{display:inline;opacity:0.3;}
	.st60{fill-rule:evenodd;clip-rule:evenodd;fill:#FFFFFF;}
	.st61{display:inline;fill:#FFC425;}
	.st62{display:inline;fill:#098442;}
	.st63{fill:none;stroke:#FFFFFF;stroke-width:4;stroke-miterlimit:10;}
	.st64{fill:#FFC425;}
	.st65{fill:#25A9E0;}
	.st66{fill:#AA2335;}
	.st67{fill:#F18C38;}
	.st68{display:inline;fill:#FFFFFF;}
	.st69{fill:#490E0E;}
	.st70{fill-rule:evenodd;clip-rule:evenodd;fill:#FCFDFF;}
</style>
<g id="Layer_1" class="st0">
	<g class="st1">
		<defs>
			<rect id="SVGID_1_" x="-1154.884" y="-648.288" width="1920" height="1096.731"/>
		</defs>
		<clipPath id="SVGID_2_">
			<use xlink:href="#SVGID_1_"  style="overflow:visible;"/>
		</clipPath>
		<g style="opacity:0.6;clip-path:url(#SVGID_2_);">
			
				<image style="overflow:visible;" width="2313" height="1557" xlink:href="../../../Users/tatinavazquez/Desktop/p_papel-kraft-6.jpg"  transform="matrix(1 0 0 1 -1356.3188 -916.9388)">
			</image>
		</g>
	</g>
	<g class="st1">
		<defs>
			
				<rect id="SVGID_3_" x="-1160.528" y="-649.939" transform="matrix(-1 -4.480251e-11 4.480251e-11 -1 -397.0558 -203.1467)" width="1924" height="1096.731"/>
		</defs>
		<use xlink:href="#SVGID_3_"  style="overflow:visible;fill:#FFC425;"/>
		<clipPath id="SVGID_4_">
			<use xlink:href="#SVGID_3_"  style="overflow:visible;"/>
		</clipPath>
	</g>
	<g class="st1">
		<defs>
			<path id="SVGID_5_" d="M-1157.319-651.973V444.758h1924V-651.973H-1157.319z"/>
		</defs>
		<clipPath id="SVGID_6_">
			<use xlink:href="#SVGID_5_"  style="overflow:visible;"/>
		</clipPath>
		<g class="st2">
			<g>
				<path class="st6" d="M265.575,84.24c-33.164,40.224-93.882,11.041-137.043-32.672s-89.18-45.4-117.878-88.583
					s-57.348-87.68-25.468-131.275s87.33-27.48,113.688,7.717s26.591,64.743,53.335,89.422s82.11,38.386,101.99,70.713
					S283.487,62.515,265.575,84.24z"/>
				<path class="st4" d="M102.926-163.606c12.239,16.343,19.091,31.704,25.138,45.254c7.336,16.447,13.672,30.648,27.576,43.48
					c10.503,9.689,25.777,17.694,41.951,26.163c23.834,12.484,48.481,25.393,60.919,45.619c24.617,40.03,28.205,69.648,10.97,90.551
					c-10.809,13.112-24.823,20.143-41.652,20.896c-30.182,1.331-68.652-18.546-102.901-53.232
					C105.555,35.502,85.736,24.656,66.57,14.168C43.957,1.791,22.597-9.896,6.438-34.216C-21.586-76.38-53.35-124.172-18.9-171.281
					c17.065-23.333,38.427-28.335,53.341-28.418c0.943-0.005,1.886,0.01,2.833,0.045C61.522-198.766,87.022-184.843,102.926-163.606
					z M227.374,98.24c13.846-0.62,25.383-6.415,34.294-17.221l0,0c14.137-17.147,10.283-42.923-11.783-78.806
					c-10.98-17.854-34.371-30.104-56.993-41.952c-16.783-8.792-32.633-17.094-44.118-27.694
					c-15.437-14.244-22.489-30.054-29.958-46.793c-6.114-13.704-12.437-27.878-23.995-43.312
					c-14.665-19.585-38.341-32.119-60.322-32.038c-18.05,0.103-33.688,8.495-45.227,24.273c-30.279,41.405-1.871,84.15,25.6,125.485
					C29.649-17.58,49.012-6.985,71.431,5.285c18.883,10.336,40.287,22.048,60.702,42.725c30.427,30.816,63.82,49.269,90.478,50.247
					C224.224,98.316,225.812,98.312,227.374,98.24z"/>
			</g>
			<g>
				<path class="st6" d="M192.121,257.37c-19.704-39.409-37.767-52.545-70.607-70.607s-45.977-31.198-55.829-22.988
					c-9.852,8.21,1.642,29.556,34.482,41.051s95.237,37.767,96.879,65.681s-13.136,54.187-39.409,59.113
					c-26.272,4.926-62.397,4.926-62.397-4.926c0-9.852,24.63-39.409,24.63-60.755s-8.21-41.051-16.42-57.471"/>
				<path class="st9" d="M202.098,274.768c0,30.124-17.79,54.862-43.552,59.692c-20.852,3.909-54.69,5.704-64.635-2.551
					c-2.97-2.466-3.595-5.285-3.595-7.216c0-5.024,3.419-11.382,9.458-22.187c6.761-12.092,15.173-27.141,15.173-38.568
					c0-20.248-8.053-39.417-15.307-54.078c-0.366-0.13-0.731-0.258-1.097-0.385c-22.421-7.848-38.472-21.563-40.893-34.941
					c-1.049-5.869,0.673-11.034,4.884-14.544c9.926-8.273,20.929-1.592,39.158,9.474c6.344,3.852,13.531,8.217,22.196,12.982
					c35.287,19.409,53.18,33.803,72.64,72.72c0.109,0.221,0.202,0.446,0.276,0.673c3.024,4.652,4.872,9.459,5.16,14.377
					C202.053,271.745,202.098,273.264,202.098,274.768z M100.187,324.349c3.65,3.763,29.765,5.449,56.544,0.428
					c25.05-4.697,36.75-30.749,35.4-53.983c-1.132-19.206-39.473-40.622-79.301-56.055c6.286,14.114,11.969,31.083,11.969,49.198
					c0,13.994-9.108,30.286-16.427,43.376C104.86,313.594,100.524,321.352,100.187,324.349z M67.202,171.282
					c0,0.449,0.042,0.946,0.141,1.498c1.427,7.886,12.819,19.825,34.45,27.395c17.023,5.959,47.15,17.641,69.937,32.651
					c-13.97-18.931-29.409-28.997-52.59-41.746c-8.852-4.868-16.135-9.291-22.565-13.194c-16.096-9.774-23.399-13.943-27.738-10.327
					C68.398,167.926,67.202,168.923,67.202,171.282z"/>
			</g>
		</g>
	</g>
</g>
<g id="Grafico">
	<g>
		<g>
			<g>
				<path class="st4" d="M191.2,83.562c-0.424-2.729,0.904-2.649,3.636-3.169c8.06-1.535,9.745,1.718,9.72,9.021
					c-0.021,6.086,3.249,11.649,5.943,17.124c0.52,1.057,0.852,1.997,0.113,3.147c-0.874,1.359-2.014,0.597-3.041,0.552
					c-1.407-0.061-2.868-0.602-4.198-0.356c-4.969,0.919-6.109-2.57-7.318-6.044c-0.554-1.591-1.076-1.967-3.052-1.368
					c-7.882,2.387-15.966,1.669-23.744-0.325c-5.11-1.31-7.283-8.579-5.074-16.501c2.62-9.395,2.909-12.971,15.494-12.999
					c7.491-0.017,14.796-0.272,21.83,2.663c1.379,0.575,2.891,1.572,2.098,3.104c-0.661,1.276-2.393,0.325-3.683,0.27
					c-5.442-0.231-10.279-3.015-15.595-3.621c-2.068-0.236-3.944,1.125-4.776,2.92c-2.777,5.987-4.785,12.178-2.747,18.89
					c1.213,3.995,4.365,5.098,7.287,2.609C188.62,95.621,191.227,89.876,191.2,83.562z"/>
			</g>
			<g>
				<g>
					<path class="st7" d="M215.176,170.007c3.34-3.297,3.114-7.443,4.168-10.999c2.474-8.348,4.765-16.752,7-25.168
						c0.392-1.477,1.182-1.397,2.325-1.561c10.032-1.444,14.163,6.102,18.723,12.552c8.87,12.546,16.181,26.06,23.652,39.464
						c0.885,1.587,1.273,2.78-1.399,2.856c-2.634,0.075-5.254,0.617-7.884,0.921c-1.492,0.172-2.504-0.383-3.173-1.844
						c-2.227-4.861-4.616-9.648-6.817-14.521c-0.62-1.373-1.507-1.943-2.887-1.907c-6.446,0.169-12.872,0.539-19.222,1.785
						c-1.201,0.236-1.59,0.908-1.805,2.026c-0.775,4.017-2.064,7.984-2.37,12.03c-0.312,4.116-2.397,4.485-5.573,3.852
						c-0.079-0.016-0.152-0.108-0.226-0.104c-13.069,0.587-3.945-7.671-4.563-11.885
						C214.749,174.947,216.842,172.216,215.176,170.007z M248.848,166.793c-4.679-6.829-7.995-14.388-13.99-20.919
						c-1.937,7.377-3.724,14.184-5.572,21.225C235.95,166.994,242.156,166.897,248.848,166.793z"/>
				</g>
			</g>
			<g>
				<g>
					<path class="st7" d="M142.144,171.797c-7.565-0.353-14.757-0.445-21.895-1.117c-3.999-0.377-3.734,2.835-4.479,4.712
						c-2.031,5.116-4.264,10.217-4.991,15.766c-0.201,1.533-1.168,1.579-2.377,1.179c-0.55-0.182-1.142-0.233-1.71-0.365
						c-8.041-1.872-8.631-3.538-5.489-11.217c4.761-11.637,9.094-23.449,13.625-35.181c1.362-3.527,2.682-7.076,4.205-10.534
						c1.303-2.959,10.197-4.238,12.731-1.942c0.119,0.108,0.304,0.315,0.27,0.394c-2.866,6.552,5.075,6.303,6.462,10.279
						c2.543,7.285,8.362,12.597,12.244,19.146c4.22,7.12,8.212,14.556,13.445,21.106c1.19,1.49,0.559,3.177-0.375,4.317
						c-1.571,1.916-9.349-0.083-10.523-2.264c-2.406-4.471-5.034-8.826-7.664-13.173
						C144.747,171.456,143.181,171.687,142.144,171.797z M126.955,145.066c-3.331,7.717-6.708,14.645-8.353,22.46
						c8.225,0.541,16.181,1.065,25.005,1.646C137.822,160.797,132.561,153.182,126.955,145.066z"/>
				</g>
			</g>
			<g>
				<g>
					<path class="st7" d="M83.113,162.203c-3.849-0.307-9.661-0.727-15.463-1.251c-2.618-0.236-3.102,1.197-2.995,3.333
						c0.37,7.389,0.713,14.779,1.068,22.168c0.209,4.331-3.079,5.705-9.202,4.295c-2.815-0.648-3.273-2.26-3.163-4.643
						c0.767-16.721-0.298-33.401-1.206-50.082c-0.104-1.911-0.577-3.804-0.64-5.714c-0.038-1.157-0.605-2.809,0.817-3.376
						c1.468-0.585,2.983-0.049,3.967,1.377c1.325,1.92,3.042,2.216,5.242,1.638c10.938-2.874,21.938-1.055,32.816,0.219
						c5.251,0.615,8.108,5.65,10.032,10.032c2.395,5.457,1.071,10.939-2.469,15.954C97.631,162.224,91.375,162.074,83.113,162.203z
						 M77.018,158.951c13.279-0.785,19.138-8.735,15.825-18.211c-3.626-10.374-12.923-10.826-21.695-8.421
						c-2.668,0.732-6.82,1.525-7.052,4.377c-0.5,6.168,0.385,12.443,0.584,18.678c0.044,1.365,0.468,2.027,1.786,2.197
						C70.669,158.11,74.868,158.668,77.018,158.951z"/>
				</g>
			</g>
			<g>
				<g>
					<path class="st7" d="M164.49,146.678c0.571-14.734-1.518-12.92,12.526-13.961c6.762-0.501,13.619,0.109,20.425,0.412
						c5.903,0.263,12.31,6.467,14.371,13.704c1.6,5.617-0.401,10.491-5.035,13.171c-6.527,3.774-14.113,4.669-21.616,5.031
						c-4.248,0.205-7.517,0.413-5.543,6.424c1.461,4.449,1.577,9.337,2.341,14.021c0.265,1.624,0.001,2.324-1.922,1.958
						c-2.068-0.393-4.283-0.106-6.307-0.619c-2.526-0.64-3.532-2.33-3.91-5.245C168.26,169.531,166.193,157.553,164.49,146.678z
						 M184.382,135.019c-8.53,0.476-9.676,1.943-8.333,10.454c0.338,2.138,0.69,4.315,0.648,6.466
						c-0.162,8.209,0.896,9.686,8.716,8.602c4.759-0.66,10.001-0.964,13.447-5.563c3.112-4.153,1.833-8.18-0.446-11.666
						C195.22,138.427,191.161,134.206,184.382,135.019z"/>
				</g>
			</g>
			<g>
				<g>
					<path class="st4" d="M254.515,102.605c0.009,1.558-0.834,2.749-2.292,2.17c-3.685-1.464-7.135-0.361-10.39,0.873
						c-12.782,4.848-25.989-4.109-24.348-17.038c0.493-3.883,2.145-8.204,6.701-9.494c6.048-1.713,12.227-2.964,18.346-4.433
						c0.535-0.129,1.46-0.357,1.488-0.617c0.39-3.58,0.168-14.07,0.107-17.654c-0.083-4.905,3.54-4.861,6.68-5.546
						c3.152-0.687,2.883,1.605,3.052,3.592c0.826,9.694-0.449,26.258,0.582,34.694C254.47,94.474,254.492,98.539,254.515,102.605z
						 M227.353,90.149c-0.454,4.856,3.834,9.45,10.323,11.059c4.487,1.112,7.424-2.219,6.675-7.048
						c-0.481-3.104-0.554-6.366-0.193-9.486c0.637-5.498-0.519-6.969-6-6.546C232.766,78.545,227.936,83.918,227.353,90.149z"/>
				</g>
			</g>
			<g>
				<g>
					<path class="st65" d="M221.003,29.84c-0.647,8.474,1.798,20.809,1.413,30.531c-0.079,1.993,0.295,4.27-2.885,3.727
						c-3.168-0.541-6.785-0.333-6.925-5.236c-0.103-3.583-0.775-9.919-1.327-13.477c-0.04-0.258-0.974-0.445-1.515-0.549
						c-6.179-1.19-12.408-2.158-18.528-3.594c-4.609-1.081-6.457-5.323-7.126-9.18c-2.226-12.842,10.56-22.389,23.549-18.127
						c3.308,1.085,6.805,2.03,10.419,0.4c1.43-0.645,2.326,0.507,2.388,2.064C220.627,20.46,220.79,24.522,221.003,29.84z
						 M205.239,41.592c5.494,0.173,6.582-1.349,5.696-6.812c-0.503-3.1-0.579-6.362-0.239-9.484
						c0.528-4.858-2.557-8.052-6.989-6.737c-6.409,1.902-10.484,6.686-9.81,11.516C194.763,36.273,199.833,41.422,205.239,41.592z"
						/>
				</g>
			</g>
			<g>
				<path class="st4" d="M300.859,79.377c-4.436-0.785-7.651-2.086-10.684-1.75c-8.682,0.96-16.65,11.607-15.628,20.201
					c0.275,2.311-0.448,5.037,2.99,5.983c3.22,0.886,5.372-0.367,7.647-2.424c6.04-5.462,8.223-12.261,7.516-20.165
					c-0.169-1.889,0.792-1.897,2.2-1.711c5.015,0.663,7.793,3.28,8.221,8.503c0.523,6.386,1.646,12.674,5.123,18.885
					c-4.563-0.363-8.471-0.697-12.147-2.641c-9.59,8.027-19.061,1.658-27.996-2.003c-4.653-1.907-3.251-8.238-3.391-12.774
					c-0.199-6.457,14.035-19.916,21.639-16.644C290.81,74.757,296.271,74.376,300.859,79.377z"/>
			</g>
			<g>
				<g>
					<path class="st65" d="M155.483,40.661c-3.524-0.525-9.015-0.955-14.059-3.286c-6.153-2.844-8.515-13.618-4.262-19.067
						c4.789-6.136,12.676-8.364,20.653-5.053c4.414,1.832,9.442,0.485,13.551,3.507c4.536,3.336,6.265,8.858,3.86,13.882
						C172.043,37.288,164.776,41.432,155.483,40.661z M151.897,14.977c-3.69,2.545-4.909,7.322-5.176,12.287
						c-0.193,3.587-0.688,8.299,4.111,9.229c5.498,1.065,13.196-6.08,13.623-11.753C164.838,19.646,160.092,15.507,151.897,14.977z"
						/>
				</g>
			</g>
			<g>
				<g>
					<path class="st4" d="M43.16,105.495c-2.71,3.032-6.103,3.599-9.73,3.476c-5.745-0.194-11.328-1.446-16.818-2.978
						c-8.098-2.26-12.095-11.869-8.841-20.154c1.705-4.341,3.66-8.658,7.693-10.967c3.368-1.928,7.496-2.882,11.497-2.274
						c3.887,0.591,7.729,1.646,11.495,2.808c3.161,0.975,6.265,2.856,6.2,6.47c-0.107,6.023-3.809,8.377-9.666,7.648
						c-4.765-0.594-9.54-1.101-14.312-1.634c-4.548-0.508-3.155,3.592-3.443,5.373c-0.586,3.621-0.641,8.128,2.597,10.416
						c3.881,2.742,8.692,1.957,12.908-0.028C36.696,101.789,39.897,102.798,43.16,105.495z M19.599,85.526
						c3.773,0.308,7.265,0.875,10.743,0.796c3.212-0.073,4.346-2.734,4.046-5.408c-0.233-2.072-1.445-3.996-4.356-3.701
						C24.962,77.727,21.292,79.884,19.599,85.526z"/>
				</g>
			</g>
			<g>
				<path class="st4" d="M52.135,78.948c5.364,0.219,8.185,2.079,6.543,8.74c5.325-6.292,10.73-9.278,17.803-8.075
					c2.949,0.502,6,0.602,8.853,1.416c5.327,1.52,5.554,6.496,6.279,10.74c0.826,4.834,1.009,9.778,1.44,14.676
					c0.027,0.311-0.235,0.934-0.32,0.926c-3.261-0.287-6.602-0.295-9.743-1.088c-1.991-0.503-0.794-2.785-0.796-4.219
					c-0.006-5.227-0.77-10.316-1.948-15.399c-1.204-5.193-3.913-3.927-6.998-1.973c-6.841,4.331-8.938,11.086-9.448,18.601
					c-0.089,1.31-0.481,1.623-1.717,1.645c-6.692,0.119-8.587-1.633-8.949-8.371C52.822,90.743,52.475,84.919,52.135,78.948z"/>
			</g>
			<g>
				<path class="st65" d="M272.142,40.102c-5.364-0.219-8.185-2.079-6.543-8.74c-5.325,6.292-10.73,9.278-17.803,8.075
					c-2.949-0.502-6-0.602-8.853-1.416c-5.327-1.52-5.554-6.496-6.279-10.74c-0.826-4.834-1.009-9.778-1.44-14.676
					c-0.027-0.311,0.235-0.934,0.32-0.926c3.261,0.287,6.602,0.295,9.743,1.088c1.991,0.503,0.794,2.785,0.796,4.219
					c0.006,5.227,0.77,10.316,1.948,15.399c1.204,5.193,3.913,3.927,6.998,1.973c6.841-4.331,8.938-11.086,9.448-18.601
					c0.089-1.31,0.481-1.623,1.717-1.645c6.692-0.119,8.587,1.633,8.949,8.371C271.455,28.307,271.802,34.13,272.142,40.102z"/>
			</g>
			<g>
				<g>
					<path class="st65" d="M298.965,8.351c3.615-0.16,6.467-0.825,8.965,0.903c3.698,2.557,3.789,9.02,0.276,13.314
						c-4.086,4.994-9.962,3.102-15.089,3.68c-3.081,0.347-3.201,1.433-2.633,3.808c1.149,4.804,2.604,9.218,8.179,10.737
						c2,0.545,3.742-0.24,4.806-1.193c2.769-2.482,5.756-1.73,8.78-1.403c0.592,0.064,1.281,0.484,1.629,0.957
						c0.148,0.201-0.343,1.114-0.753,1.447c-6.563,5.346-26.518,2.991-31.17-3.717c-4.991-7.199-1.502-13.736,1.897-20.139
						C287.223,10.394,292.459,7.256,298.965,8.351z M298.908,11.663c-3.597,3.88-5.608,8.229-7.795,12.708
						c4.278,0.16,7.793-0.572,9.209-4.782C301.2,16.981,300.976,14.343,298.908,11.663z"/>
				</g>
			</g>
			<g>
				<path class="st65" d="M84.124,50.413c-12.581-0.599-17.101-1.028-29.344-3.096c-1.142-0.193-1.706-1.047-1.742-2.298
					c-0.376-13.131-3.229-26.086-2.831-39.267c0.057-1.906-0.685-4.7,1.586-5.403c3.134-0.971,6.734,0.227,9.135,1.852
					c1.21,0.819,0.193,4.989,0.114,7.641c-0.159,5.34,0.329,10.607,1.036,15.91c0.709,5.32,0.789,10.743,0.85,16.124
					c0.036,3.143,1.204,4.643,4.369,4.528c7.733-0.28,7.525,0.316,15.029,2.253C83.002,48.832,83.903,48.617,84.124,50.413z"/>
			</g>
			<g>
				<g>
					<path class="st65" d="M42.124,49.39c-10.765,7.018-21.337,4.788-31.587,0.368c-6.297-2.715-7.413-12.761-3.132-18.41
						c2.607-3.44,4.568-7.369,8.678-9.342c0.899-0.432,2.009-0.885,2.928-0.739c4.285,0.681,8.6,1.334,12.781,2.457
						c3.265,0.877,4.725,3.69,4.586,6.902c-0.128,2.976-1.734,4.752-5.075,5.251c-4.375,0.653-8.662,0.562-12.998,0.048
						c-0.659-0.078-1.52-0.623-1.891,0.511c-1.265,3.864-2.045,8.075,0.413,11.385c2.137,2.878,5.835,3.586,9.432,1.958
						C31.324,47.487,36.413,46.896,42.124,49.39z M17.854,33.412c2.439,0.947,4.734,0.569,6.884-0.275
						c1.562-0.614,2.346-2.004,2.18-3.822c-0.138-1.51-0.487-3.058-2.011-3.499c-1.658-0.479-2.439,1.212-3.283,2.226
						C20.256,29.685,19.146,31.54,17.854,33.412z"/>
				</g>
			</g>
			<g>
				<path class="st65" d="M106.187,14.148c1.981,0.03,3.921,0.059,5.85,0.088c0.085-0.178,0.19-0.307,0.207-0.446
					c1.09-9.008,1.135-9.085,10.032-7.39c1.692,0.322,1.154,2.026,1.101,3.17c-0.16,3.462-2.092,7.847,4.403,7.135
					c-0.111,0.52-0.098,0.733-0.174,0.772c-1.677,0.861-5.002-0.39-5.122,1.165c-0.396,5.13-1.534,10.23-0.905,15.471
					c0.55,4.587,1.961,7.906,7.26,8.013c0.67,0.013,1.996,0.354,1.522,1.113c-0.532,0.851-1.856,1.572-2.905,1.678
					c-12.061,1.229-17.913-4.873-16.575-17.106c0.221-2.02,0.283-4.056,0.467-6.08c0.196-2.158,1.367-4.732-2.823-4.166
					C107.071,17.762,106.076,16.254,106.187,14.148z"/>
			</g>
			<g>
				<g>
					<path class="st7" d="M292.39,155.556c8.926-4.007,18.532-0.834,27.73-1.976c0.149-0.019,0.407,0.053,0.461,0.16
						c1.914,3.754-0.617,7.261-0.688,10.921c-0.03,1.535-1.125,2.42-3.162,2.282c-5.424-0.368-10.877-0.281-16.312-0.532
						c-1.533-0.071-2.06,1.427-4.345,1.236c-6.218-0.521-2.226-6.818-5.945-8.172C289.628,159.292,290.892,156.833,292.39,155.556z"
						/>
					<path class="st7" d="M310.243,200.881c-5.268,3.628-8.374,0.071-11.766-0.45c-4.691-0.72-9.191-2.694-13.762-4.164
						c-0.351-0.113-0.619-0.485-0.925-0.737c3.065-3.459,0.013-9.904,5.195-11.94c3.59-1.411,6.595,2.195,9.926,3.349
						c4.223,1.463,8.116,3.821,12.531,4.927c1.479,0.371,3.331,0.739,3.637,2.907c0.311,2.205-0.452,3.651-2.489,4.622
						C311.242,200.037,310.051,201.006,310.243,200.881z"/>
					<path class="st7" d="M19.242,210.186c-1.627-4.013-5.926-3.2-8.508-5.34c-0.959-0.795-0.361-2.216,0.548-3.125
						c5.834-5.836,11.67-11.67,17.529-17.481c1.874-1.859,3.462-1.935,4.4,0.916c0.052,0.158,0.088,0.373,0.205,0.452
						c7.693,5.195,3.984,8.71-1.452,12.685c-3.871,2.83-7.014,6.653-10.497,10.018C20.877,208.879,20.214,209.371,19.242,210.186z"
						/>
					<path class="st7" d="M15.084,176.334c-3.99,0.367-7.35,0.504-10.649,1.033c-2.637,0.422-3.261-0.751-3.132-2.975
						c0.005-0.083,0.013-0.169,0.039-0.248c1.065-3.231-4.288-7.661,1.114-9.716c3.333-1.268,7.42-0.552,11.169-0.735
						c1.504-0.073,3.011-0.13,4.511-0.259c10.118-0.875,10.247-0.874,9.745,9.255c-0.191,3.858-3.789,3.017-6.185,3.383
						C19.316,176.436,16.855,176.281,15.084,176.334z"/>
					<path class="st7" d="M288.948,144.857c-2.847-2.816-5.514-5.362-8.062-8.023c-0.933-0.974-0.909-2.353,0.262-3.087
						c5.951-3.731,10.131-9.411,15.435-13.846c2.693-2.252,4.842-3.184,5.894,1.509c0.642,2.863,5.028,5.721,3.266,7.869
						c-3.793,4.624-8.889,8.211-13.617,12.015C290.887,142.291,289.267,142.773,288.948,144.857z"/>
					<path class="st7" d="M14.293,119.693c3.968,5.065,9.713,6.76,14.135,10.247c1.807,1.425,5.755,2.369,5.066,4.274
						c-1.231,3.401-3.871,6.576-6.643,9.032c-1.785,1.581-3.267-1.582-4.952-2.44c-4.51-2.297-8.764-5.091-13.165-7.607
						c-1.72-0.983-1.298-3.469-0.969-3.687C11.357,127.134,11.464,122.393,14.293,119.693z"/>
				</g>
			</g>
			<g>
				<path class="st4" d="M159.453,106.555c-9.35,3.102-18.232,1.265-27.264-1.793c-7.607-2.576-8.526-8.731-9.202-14.97
					c-0.692-6.395,1.511-12.341,7.406-15.245c6.668-3.284,13.799-0.859,20.67,0.559c0.739,0.152,1.083,0.885,0.693,1.627
					c-1.157,2.201-3.96,1.803-4.946,1.294c-6.974-3.601-9.573,1.459-11.895,6.006c-2.661,5.209-1.929,10.953,0.909,15.768
					c2.406,4.082,7.066,6.986,11.71,5.479C152.094,103.801,155.486,106.529,159.453,106.555z"/>
			</g>
		</g>
	</g>
	<g>
		<path d="M8.559,281.047h-3.04v-5.119h3.919l1-5.919h-3.52v-5.119h4.399l1-5.839h5.279l-1,5.839h5.799l1-5.839h5.279l-1,5.839h3.04
			v5.119h-3.919l-1,5.919h3.52v5.119h-4.399l-1.04,5.999h-5.279l1.04-5.999h-5.799l-1.04,5.999H7.519L8.559,281.047z
			 M20.517,275.928l1-5.919h-5.799l-1,5.919H20.517z"/>
		<path d="M41.998,264.73h-8.519v-5.679h23.196v5.679h-8.519v22.316h-6.159V264.73z"/>
		<path d="M60.478,257.851h6.399v5.399h-6.399V257.851z M60.638,265.61h6.079v21.437h-6.079V265.61z"/>
		<path d="M71.397,276.448v-0.08c0-6.119,4.359-11.158,10.598-11.158c7.159,0,10.438,5.559,10.438,11.638c0,0.48-0.04,1.04-0.08,1.6
			H77.436c0.6,2.76,2.52,4.199,5.239,4.199c2.04,0,3.519-0.64,5.199-2.2l3.479,3.08c-2,2.479-4.879,4-8.758,4
			C76.157,287.526,71.397,283.007,71.397,276.448z M86.515,274.649c-0.36-2.72-1.96-4.559-4.52-4.559c-2.52,0-4.159,1.8-4.639,4.559
			H86.515z"/>
		<path d="M96.957,265.61h6.079v3.04c1.4-1.8,3.2-3.439,6.279-3.439c4.599,0,7.279,3.04,7.279,7.959v13.877h-6.079v-11.958
			c0-2.879-1.36-4.359-3.68-4.359c-2.319,0-3.799,1.48-3.799,4.359v11.958h-6.079V265.61z"/>
		<path d="M120.836,276.448v-0.08c0-6.119,4.359-11.158,10.598-11.158c7.159,0,10.438,5.559,10.438,11.638
			c0,0.48-0.04,1.04-0.08,1.6h-14.917c0.6,2.76,2.52,4.199,5.239,4.199c2.04,0,3.519-0.64,5.199-2.2l3.479,3.08
			c-2,2.479-4.879,4-8.758,4C125.596,287.526,120.836,283.007,120.836,276.448z M135.954,274.649c-0.36-2.72-1.96-4.559-4.52-4.559
			c-2.52,0-4.159,1.8-4.639,4.559H135.954z"/>
		<path d="M147.036,259.051h21.117v5.479h-14.998v5.679h13.198v5.479h-13.198v5.879h15.197v5.479h-21.316V259.051z"/>
		<path d="M173.476,257.851h6.079v29.195h-6.079V257.851z"/>
		<path d="M192.435,264.73h-8.519v-5.679h23.196v5.679h-8.519v22.316h-6.159V264.73z"/>
		<path d="M205.957,276.448v-0.08c0-6.159,4.959-11.158,11.638-11.158c6.639,0,11.558,4.919,11.558,11.078v0.08
			c0,6.159-4.959,11.158-11.638,11.158C210.876,287.526,205.957,282.607,205.957,276.448z M223.154,276.448v-0.08
			c0-3.16-2.28-5.919-5.639-5.919c-3.479,0-5.559,2.68-5.559,5.839v0.08c0,3.16,2.28,5.919,5.639,5.919
			C221.074,282.287,223.154,279.608,223.154,276.448z"/>
		<path d="M249.033,283.967c-1.479,2-3.519,3.479-6.679,3.479c-4.999,0-9.758-3.919-9.758-11.078v-0.08
			c0-7.159,4.679-11.078,9.758-11.078c3.239,0,5.239,1.48,6.679,3.2v-2.8h6.079v27.835h-6.079V283.967z M249.113,276.368v-0.08
			c0-3.559-2.359-5.919-5.199-5.919c-2.839,0-5.239,2.32-5.239,5.919v0.08c0,3.56,2.399,5.919,5.239,5.919
			C246.753,282.287,249.113,279.928,249.113,276.368z"/>
		<path d="M260.395,279.488V265.61h6.079v11.958c0,2.879,1.36,4.359,3.679,4.359c2.32,0,3.799-1.48,3.799-4.359V265.61h6.079v21.437
			h-6.079v-3.04c-1.399,1.8-3.199,3.439-6.279,3.439C263.075,287.446,260.395,284.407,260.395,279.488z"/>
		<path d="M284.435,276.448v-0.08c0-6.119,4.359-11.158,10.598-11.158c7.159,0,10.438,5.559,10.438,11.638
			c0,0.48-0.04,1.04-0.08,1.6h-14.917c0.6,2.76,2.52,4.199,5.239,4.199c2.04,0,3.519-0.64,5.199-2.2l3.479,3.08
			c-2,2.479-4.879,4-8.758,4C289.194,287.526,284.435,283.007,284.435,276.448z M299.552,274.649c-0.36-2.72-1.96-4.559-4.52-4.559
			c-2.52,0-4.159,1.8-4.639,4.559H299.552z"/>
	</g>
</g>
<g id="Menu" class="st0">
</g>
<g id="Mockups" class="st0">
</g>
</svg>
