<svg enable-background="new 0 0 321.296 294.186" viewBox="0 0 321.296 294.186" xmlns="http://www.w3.org/2000/svg"><path d="m191.2 83.562c-.424-2.729.904-2.649 3.636-3.169 8.06-1.535 9.745 1.718 9.72 9.021-.021 6.086 3.249 11.649 5.943 17.124.52 1.057.852 1.997.113 3.147-.874 1.359-2.014.597-3.041.552-1.407-.061-2.868-.602-4.198-.356-4.969.919-6.109-2.57-7.318-6.044-.554-1.591-1.076-1.967-3.052-1.368-7.882 2.387-15.966 1.669-23.744-.325-5.11-1.31-7.283-8.579-5.074-16.501 2.62-9.395 2.909-12.971 15.494-12.999 7.491-.017 14.796-.272 21.83 2.663 1.379.575 2.891 1.572 2.098 3.104-.661 1.276-2.393.325-3.683.27-5.442-.231-10.279-3.015-15.595-3.621-2.068-.236-3.944 1.125-4.776 2.92-2.777 5.987-4.785 12.178-2.747 18.89 1.213 3.995 4.365 5.098 7.287 2.609 4.527-3.858 7.134-9.603 7.107-15.917z" fill="#231f20"/><path d="m215.176 170.007c3.34-3.297 3.114-7.443 4.168-10.999 2.474-8.348 4.765-16.752 7-25.168.392-1.477 1.182-1.397 2.325-1.561 10.032-1.444 14.163 6.102 18.723 12.552 8.87 12.546 16.181 26.06 23.652 39.464.885 1.587 1.273 2.78-1.399 2.856-2.634.075-5.254.617-7.884.921-1.492.172-2.504-.383-3.173-1.844-2.227-4.861-4.616-9.648-6.817-14.521-.62-1.373-1.507-1.943-2.887-1.907-6.446.169-12.872.539-19.222 1.785-1.201.236-1.59.908-1.805 2.026-.775 4.017-2.064 7.984-2.37 12.03-.312 4.116-2.397 4.485-5.573 3.852-.079-.016-.152-.108-.226-.104-13.069.587-3.945-7.671-4.563-11.885-.376-2.557 1.717-5.288.051-7.497zm33.672-3.214c-4.679-6.829-7.995-14.388-13.99-20.919-1.937 7.377-3.724 14.184-5.572 21.225 6.664-.105 12.87-.202 19.562-.306z" fill="#fff"/><path d="m142.144 171.797c-7.565-.353-14.757-.445-21.895-1.117-3.999-.377-3.734 2.835-4.479 4.712-2.031 5.116-4.264 10.217-4.991 15.766-.201 1.533-1.168 1.579-2.377 1.179-.55-.182-1.142-.233-1.71-.365-8.041-1.872-8.631-3.538-5.489-11.217 4.761-11.637 9.094-23.449 13.625-35.181 1.362-3.527 2.682-7.076 4.205-10.534 1.303-2.959 10.197-4.238 12.731-1.942.119.108.304.315.27.394-2.866 6.552 5.075 6.303 6.462 10.279 2.543 7.285 8.362 12.597 12.244 19.146 4.22 7.12 8.212 14.556 13.445 21.106 1.19 1.49.559 3.177-.375 4.317-1.571 1.916-9.349-.083-10.523-2.264-2.406-4.471-5.034-8.826-7.664-13.173-.876-1.447-2.442-1.216-3.479-1.106zm-15.189-26.731c-3.331 7.717-6.708 14.645-8.353 22.46 8.225.541 16.181 1.065 25.005 1.646-5.785-8.375-11.046-15.99-16.652-24.106z" fill="#fff"/><path d="m83.113 162.203c-3.849-.307-9.661-.727-15.463-1.251-2.618-.236-3.102 1.197-2.995 3.333.37 7.389.713 14.779 1.068 22.168.209 4.331-3.079 5.705-9.202 4.295-2.815-.648-3.273-2.26-3.163-4.643.767-16.721-.298-33.401-1.206-50.082-.104-1.911-.577-3.804-.64-5.714-.038-1.157-.605-2.809.817-3.376 1.468-.585 2.983-.049 3.967 1.377 1.325 1.92 3.042 2.216 5.242 1.638 10.938-2.874 21.938-1.055 32.816.219 5.251.615 8.108 5.65 10.032 10.032 2.395 5.457 1.071 10.939-2.469 15.954-4.286 6.071-10.542 5.921-18.804 6.05zm-6.095-3.252c13.279-.785 19.138-8.735 15.825-18.211-3.626-10.374-12.923-10.826-21.695-8.421-2.668.732-6.82 1.525-7.052 4.377-.5 6.168.385 12.443.584 18.678.044 1.365.468 2.027 1.786 2.197 4.203.539 8.402 1.097 10.552 1.38z" fill="#fff"/><path d="m164.49 146.678c.571-14.734-1.518-12.92 12.526-13.961 6.762-.501 13.619.109 20.425.412 5.903.263 12.31 6.467 14.371 13.704 1.6 5.617-.401 10.491-5.035 13.171-6.527 3.774-14.113 4.669-21.616 5.031-4.248.205-7.517.413-5.543 6.424 1.461 4.449 1.577 9.337 2.341 14.021.265 1.624.001 2.324-1.922 1.958-2.068-.393-4.283-.106-6.307-.619-2.526-.64-3.532-2.33-3.91-5.245-1.56-12.043-3.627-24.021-5.33-34.896zm19.892-11.659c-8.53.476-9.676 1.943-8.333 10.454.338 2.138.69 4.315.648 6.466-.162 8.209.896 9.686 8.716 8.602 4.759-.66 10.001-.964 13.447-5.563 3.112-4.153 1.833-8.18-.446-11.666-3.194-4.885-7.253-9.106-14.032-8.293z" fill="#fff"/><path d="m254.515 102.605c.009 1.558-.834 2.749-2.292 2.17-3.685-1.464-7.135-.361-10.39.873-12.782 4.848-25.989-4.109-24.348-17.038.493-3.883 2.145-8.204 6.701-9.494 6.048-1.713 12.227-2.964 18.346-4.433.535-.129 1.46-.357 1.488-.617.39-3.58.168-14.07.107-17.654-.083-4.905 3.54-4.861 6.68-5.546 3.152-.687 2.883 1.605 3.052 3.592.826 9.694-.449 26.258.582 34.694.029 5.322.051 9.387.074 13.453zm-27.162-12.456c-.454 4.856 3.834 9.45 10.323 11.059 4.487 1.112 7.424-2.219 6.675-7.048-.481-3.104-.554-6.366-.193-9.486.637-5.498-.519-6.969-6-6.546-5.392.417-10.222 5.79-10.805 12.021z" fill="#231f20"/><path d="m221.003 29.84c-.647 8.474 1.798 20.809 1.413 30.531-.079 1.993.295 4.27-2.885 3.727-3.168-.541-6.785-.333-6.925-5.236-.103-3.583-.775-9.919-1.327-13.477-.04-.258-.974-.445-1.515-.549-6.179-1.19-12.408-2.158-18.528-3.594-4.609-1.081-6.457-5.323-7.126-9.18-2.226-12.842 10.56-22.389 23.549-18.127 3.308 1.085 6.805 2.03 10.419.4 1.43-.645 2.326.507 2.388 2.064.161 4.061.324 8.123.537 13.441zm-15.764 11.752c5.494.173 6.582-1.349 5.696-6.812-.503-3.1-.579-6.362-.239-9.484.528-4.858-2.557-8.052-6.989-6.737-6.409 1.902-10.484 6.686-9.81 11.516.866 6.198 5.936 11.347 11.342 11.517z" fill="#25a9e0"/><path d="m300.859 79.377c-4.436-.785-7.651-2.086-10.684-1.75-8.682.96-16.65 11.607-15.628 20.201.275 2.311-.448 5.037 2.99 5.983 3.22.886 5.372-.367 7.647-2.424 6.04-5.462 8.223-12.261 7.516-20.165-.169-1.889.792-1.897 2.2-1.711 5.015.663 7.793 3.28 8.221 8.503.523 6.386 1.646 12.674 5.123 18.885-4.563-.363-8.471-.697-12.147-2.641-9.59 8.027-19.061 1.658-27.996-2.003-4.653-1.907-3.251-8.238-3.391-12.774-.199-6.457 14.035-19.916 21.639-16.644 4.461 1.92 9.922 1.539 14.51 6.54z" fill="#231f20"/><path d="m155.483 40.661c-3.524-.525-9.015-.955-14.059-3.286-6.153-2.844-8.515-13.618-4.262-19.067 4.789-6.136 12.676-8.364 20.653-5.053 4.414 1.832 9.442.485 13.551 3.507 4.536 3.336 6.265 8.858 3.86 13.882-3.183 6.644-10.45 10.788-19.743 10.017zm-3.586-25.684c-3.69 2.545-4.909 7.322-5.176 12.287-.193 3.587-.688 8.299 4.111 9.229 5.498 1.065 13.196-6.08 13.623-11.753.383-5.094-4.363-9.233-12.558-9.763z" fill="#25a9e0"/><path d="m43.16 105.495c-2.71 3.032-6.103 3.599-9.73 3.476-5.745-.194-11.328-1.446-16.818-2.978-8.098-2.26-12.095-11.869-8.841-20.154 1.705-4.341 3.66-8.658 7.693-10.967 3.368-1.928 7.496-2.882 11.497-2.274 3.887.591 7.729 1.646 11.495 2.808 3.161.975 6.265 2.856 6.2 6.47-.107 6.023-3.809 8.377-9.666 7.648-4.765-.594-9.54-1.101-14.312-1.634-4.548-.508-3.155 3.592-3.443 5.373-.586 3.621-.641 8.128 2.597 10.416 3.881 2.742 8.692 1.957 12.908-.028 3.956-1.862 7.157-.853 10.42 1.844zm-23.561-19.969c3.773.308 7.265.875 10.743.796 3.212-.073 4.346-2.734 4.046-5.408-.233-2.072-1.445-3.996-4.356-3.701-5.07.514-8.74 2.671-10.433 8.313z" fill="#231f20"/><path d="m52.135 78.948c5.364.219 8.185 2.079 6.543 8.74 5.325-6.292 10.73-9.278 17.803-8.075 2.949.502 6 .602 8.853 1.416 5.327 1.52 5.554 6.496 6.279 10.74.826 4.834 1.009 9.778 1.44 14.676.027.311-.235.934-.32.926-3.261-.287-6.602-.295-9.743-1.088-1.991-.503-.794-2.785-.796-4.219-.006-5.227-.77-10.316-1.948-15.399-1.204-5.193-3.913-3.927-6.998-1.973-6.841 4.331-8.938 11.086-9.448 18.601-.089 1.31-.481 1.623-1.717 1.645-6.692.119-8.587-1.633-8.949-8.371-.312-5.824-.659-11.648-.999-17.619z" fill="#231f20"/><path d="m272.142 40.102c-5.364-.219-8.185-2.079-6.543-8.74-5.325 6.292-10.73 9.278-17.803 8.075-2.949-.502-6-.602-8.853-1.416-5.327-1.52-5.554-6.496-6.279-10.74-.826-4.834-1.009-9.778-1.44-14.676-.027-.311.235-.934.32-.926 3.261.287 6.602.295 9.743 1.088 1.991.503.794 2.785.796 4.219.006 5.227.77 10.316 1.948 15.399 1.204 5.193 3.913 3.927 6.998 1.973 6.841-4.331 8.938-11.086 9.448-18.601.089-1.31.481-1.623 1.717-1.645 6.692-.119 8.587 1.633 8.949 8.371.312 5.824.659 11.647.999 17.619z" fill="#25a9e0"/><path d="m298.965 8.351c3.615-.16 6.467-.825 8.965.903 3.698 2.557 3.789 9.02.276 13.314-4.086 4.994-9.962 3.102-15.089 3.68-3.081.347-3.201 1.433-2.633 3.808 1.149 4.804 2.604 9.218 8.179 10.737 2 .545 3.742-.24 4.806-1.193 2.769-2.482 5.756-1.73 8.78-1.403.592.064 1.281.484 1.629.957.148.201-.343 1.114-.753 1.447-6.563 5.346-26.518 2.991-31.17-3.717-4.991-7.199-1.502-13.736 1.897-20.139 3.371-6.351 8.607-9.489 15.113-8.394zm-.057 3.312c-3.597 3.88-5.608 8.229-7.795 12.708 4.278.16 7.793-.572 9.209-4.782.878-2.608.654-5.246-1.414-7.926z" fill="#25a9e0"/><path d="m84.124 50.413c-12.581-.599-17.101-1.028-29.344-3.096-1.142-.193-1.706-1.047-1.742-2.298-.376-13.131-3.229-26.086-2.831-39.267.057-1.906-.685-4.7 1.586-5.403 3.134-.971 6.734.227 9.135 1.852 1.21.819.193 4.989.114 7.641-.159 5.34.329 10.607 1.036 15.91.709 5.32.789 10.743.85 16.124.036 3.143 1.204 4.643 4.369 4.528 7.733-.28 7.525.316 15.029 2.253.676.175 1.577-.04 1.798 1.756z" fill="#25a9e0"/><path d="m42.124 49.39c-10.765 7.018-21.337 4.788-31.587.368-6.297-2.715-7.413-12.761-3.132-18.41 2.607-3.44 4.568-7.369 8.678-9.342.899-.432 2.009-.885 2.928-.739 4.285.681 8.6 1.334 12.781 2.457 3.265.877 4.725 3.69 4.586 6.902-.128 2.976-1.734 4.752-5.075 5.251-4.375.653-8.662.562-12.998.048-.659-.078-1.52-.623-1.891.511-1.265 3.864-2.045 8.075.413 11.385 2.137 2.878 5.835 3.586 9.432 1.958 5.065-2.292 10.154-2.883 15.865-.389zm-24.27-15.978c2.439.947 4.734.569 6.884-.275 1.562-.614 2.346-2.004 2.18-3.822-.138-1.51-.487-3.058-2.011-3.499-1.658-.479-2.439 1.212-3.283 2.226-1.368 1.643-2.478 3.498-3.77 5.37z" fill="#25a9e0"/><path d="m106.187 14.148c1.981.03 3.921.059 5.85.088.085-.178.19-.307.207-.446 1.09-9.008 1.135-9.085 10.032-7.39 1.692.322 1.154 2.026 1.101 3.17-.16 3.462-2.092 7.847 4.403 7.135-.111.52-.098.733-.174.772-1.677.861-5.002-.39-5.122 1.165-.396 5.13-1.534 10.23-.905 15.471.55 4.587 1.961 7.906 7.26 8.013.67.013 1.996.354 1.522 1.113-.532.851-1.856 1.572-2.905 1.678-12.061 1.229-17.913-4.873-16.575-17.106.221-2.02.283-4.056.467-6.08.196-2.158 1.367-4.732-2.823-4.166-1.454.197-2.449-1.311-2.338-3.417z" fill="#25a9e0"/><g fill="#fff"><path d="m292.39 155.556c8.926-4.007 18.532-.834 27.73-1.976.149-.019.407.053.461.16 1.914 3.754-.617 7.261-.688 10.921-.03 1.535-1.125 2.42-3.162 2.282-5.424-.368-10.877-.281-16.312-.532-1.533-.071-2.06 1.427-4.345 1.236-6.218-.521-2.226-6.818-5.945-8.172-.501-.183.763-2.642 2.261-3.919z"/><path d="m310.243 200.881c-5.268 3.628-8.374.071-11.766-.45-4.691-.72-9.191-2.694-13.762-4.164-.351-.113-.619-.485-.925-.737 3.065-3.459.013-9.904 5.195-11.94 3.59-1.411 6.595 2.195 9.926 3.349 4.223 1.463 8.116 3.821 12.531 4.927 1.479.371 3.331.739 3.637 2.907.311 2.205-.452 3.651-2.489 4.622-1.348.642-2.539 1.611-2.347 1.486z"/><path d="m19.242 210.186c-1.627-4.013-5.926-3.2-8.508-5.34-.959-.795-.361-2.216.548-3.125 5.834-5.836 11.67-11.67 17.529-17.481 1.874-1.859 3.462-1.935 4.4.916.052.158.088.373.205.452 7.693 5.195 3.984 8.71-1.452 12.685-3.871 2.83-7.014 6.653-10.497 10.018-.59.568-1.253 1.06-2.225 1.875z"/><path d="m15.084 176.334c-3.99.367-7.35.504-10.649 1.033-2.637.422-3.261-.751-3.132-2.975.005-.083.013-.169.039-.248 1.065-3.231-4.288-7.661 1.114-9.716 3.333-1.268 7.42-.552 11.169-.735 1.504-.073 3.011-.13 4.511-.259 10.118-.875 10.247-.874 9.745 9.255-.191 3.858-3.789 3.017-6.185 3.383-2.38.364-4.841.209-6.612.262z"/><path d="m288.948 144.857c-2.847-2.816-5.514-5.362-8.062-8.023-.933-.974-.909-2.353.262-3.087 5.951-3.731 10.131-9.411 15.435-13.846 2.693-2.252 4.842-3.184 5.894 1.509.642 2.863 5.028 5.721 3.266 7.869-3.793 4.624-8.889 8.211-13.617 12.015-1.239.997-2.859 1.479-3.178 3.563z"/><path d="m14.293 119.693c3.968 5.065 9.713 6.76 14.135 10.247 1.807 1.425 5.755 2.369 5.066 4.274-1.231 3.401-3.871 6.576-6.643 9.032-1.785 1.581-3.267-1.582-4.952-2.44-4.51-2.297-8.764-5.091-13.165-7.607-1.72-.983-1.298-3.469-.969-3.687 3.592-2.378 3.699-7.119 6.528-9.819z"/></g><path d="m159.453 106.555c-9.35 3.102-18.232 1.265-27.264-1.793-7.607-2.576-8.526-8.731-9.202-14.97-.692-6.395 1.511-12.341 7.406-15.245 6.668-3.284 13.799-.859 20.67.559.739.152 1.083.885.693 1.627-1.157 2.201-3.96 1.803-4.946 1.294-6.974-3.601-9.573 1.459-11.895 6.006-2.661 5.209-1.929 10.953.909 15.768 2.406 4.082 7.066 6.986 11.71 5.479 4.56-1.479 7.952 1.249 11.919 1.275z" fill="#231f20"/><path d="m8.559 281.047h-3.04v-5.119h3.919l1-5.919h-3.52v-5.119h4.399l1-5.839h5.279l-1 5.839h5.799l1-5.839h5.279l-1 5.839h3.04v5.119h-3.919l-1 5.919h3.52v5.119h-4.399l-1.04 5.999h-5.279l1.04-5.999h-5.799l-1.04 5.999h-5.279zm11.958-5.119 1-5.919h-5.799l-1 5.919z"/><path d="m41.998 264.73h-8.519v-5.679h23.196v5.679h-8.519v22.316h-6.159v-22.316z"/><path d="m60.478 257.851h6.399v5.399h-6.399zm.16 7.759h6.079v21.437h-6.079z"/><path d="m71.397 276.448v-.08c0-6.119 4.359-11.158 10.598-11.158 7.159 0 10.438 5.559 10.438 11.638 0 .48-.04 1.04-.08 1.6h-14.917c.6 2.76 2.52 4.199 5.239 4.199 2.04 0 3.519-.64 5.199-2.2l3.479 3.08c-2 2.479-4.879 4-8.758 4-6.438-.001-11.198-4.52-11.198-11.079zm15.118-1.799c-.36-2.72-1.96-4.559-4.52-4.559-2.52 0-4.159 1.8-4.639 4.559z"/><path d="m96.957 265.61h6.079v3.04c1.4-1.8 3.2-3.439 6.279-3.439 4.599 0 7.279 3.04 7.279 7.959v13.877h-6.079v-11.958c0-2.879-1.36-4.359-3.68-4.359-2.319 0-3.799 1.48-3.799 4.359v11.958h-6.079z"/><path d="m120.836 276.448v-.08c0-6.119 4.359-11.158 10.598-11.158 7.159 0 10.438 5.559 10.438 11.638 0 .48-.04 1.04-.08 1.6h-14.917c.6 2.76 2.52 4.199 5.239 4.199 2.04 0 3.519-.64 5.199-2.2l3.479 3.08c-2 2.479-4.879 4-8.758 4-6.438-.001-11.198-4.52-11.198-11.079zm15.118-1.799c-.36-2.72-1.96-4.559-4.52-4.559-2.52 0-4.159 1.8-4.639 4.559z"/><path d="m147.036 259.051h21.117v5.479h-14.998v5.679h13.198v5.479h-13.198v5.879h15.197v5.479h-21.316z"/><path d="m173.476 257.851h6.079v29.195h-6.079z"/><path d="m192.435 264.73h-8.519v-5.679h23.196v5.679h-8.519v22.316h-6.159v-22.316z"/><path d="m205.957 276.448v-.08c0-6.159 4.959-11.158 11.638-11.158 6.639 0 11.558 4.919 11.558 11.078v.08c0 6.159-4.959 11.158-11.638 11.158-6.639 0-11.558-4.919-11.558-11.078zm17.197 0v-.08c0-3.16-2.28-5.919-5.639-5.919-3.479 0-5.559 2.68-5.559 5.839v.08c0 3.16 2.28 5.919 5.639 5.919 3.479 0 5.559-2.679 5.559-5.839z"/><path d="m249.033 283.967c-1.479 2-3.519 3.479-6.679 3.479-4.999 0-9.758-3.919-9.758-11.078v-.08c0-7.159 4.679-11.078 9.758-11.078 3.239 0 5.239 1.48 6.679 3.2v-2.8h6.079v27.835h-6.079zm.08-7.599v-.08c0-3.559-2.359-5.919-5.199-5.919-2.839 0-5.239 2.32-5.239 5.919v.08c0 3.56 2.399 5.919 5.239 5.919 2.839 0 5.199-2.359 5.199-5.919z"/><path d="m260.395 279.488v-13.878h6.079v11.958c0 2.879 1.36 4.359 3.679 4.359 2.32 0 3.799-1.48 3.799-4.359v-11.958h6.079v21.437h-6.079v-3.04c-1.399 1.8-3.199 3.439-6.279 3.439-4.598 0-7.278-3.039-7.278-7.958z"/><path d="m284.435 276.448v-.08c0-6.119 4.359-11.158 10.598-11.158 7.159 0 10.438 5.559 10.438 11.638 0 .48-.04 1.04-.08 1.6h-14.917c.6 2.76 2.52 4.199 5.239 4.199 2.04 0 3.519-.64 5.199-2.2l3.479 3.08c-2 2.479-4.879 4-8.758 4-6.439-.001-11.198-4.52-11.198-11.079zm15.117-1.799c-.36-2.72-1.96-4.559-4.52-4.559-2.52 0-4.159 1.8-4.639 4.559z"/></svg>