<?xml version="1.0" encoding="utf-8"?>
<!-- Generator: Adobe Illustrator 22.1.0, SVG Export Plug-In . SVG Version: 6.00 Build 0)  -->
<svg version="1.1" xmlns="http://www.w3.org/2000/svg" xmlns:xlink="http://www.w3.org/1999/xlink" x="0px" y="0px"
	 viewBox="0 0 356.586 401.311" style="enable-background:new 0 0 356.586 401.311;" xml:space="preserve">
<style type="text/css">
	.st0{display:none;}
	.st1{display:inline;}
	.st2{opacity:0.4;clip-path:url(#SVGID_6_);}
	.st3{fill:#F68C2E;}
	.st4{fill:#231F20;}
	.st5{fill:#FFCD16;}
	.st6{fill:#F8B018;}
	.st7{fill:#FFFFFF;}
	.st8{fill:#B6B6B7;}
	.st9{fill:#221F1F;}
	.st10{fill:#F68D2F;}
	.st11{fill:#EF4D24;}
	.st12{fill:#FBB218;}
	.st13{fill:#4CB649;}
	.st14{fill:#BED58E;}
	.st15{fill:#E63D25;}
	.st16{fill:#B62025;}
	.st17{fill:#EC2D37;}
	.st18{fill:#4CB548;}
	.st19{fill:#211E1F;}
	.st20{fill:#BDD48C;}
	.st21{fill:#EB2D37;}
	.st22{fill:#B52126;}
	.st23{display:inline;opacity:0.7;}
	.st24{opacity:0.7;}
	.st25{clip-path:url(#SVGID_12_);}
	.st26{fill:#381C1B;}
	.st27{fill:#C9A170;}
	.st28{fill:#D8B783;}
	.st29{fill:#BD8D5A;}
	.st30{fill-rule:evenodd;clip-rule:evenodd;fill:#381C1B;}
	.st31{fill-rule:evenodd;clip-rule:evenodd;fill:#25592F;}
	.st32{fill-rule:evenodd;clip-rule:evenodd;fill:#37803F;}
	.st33{fill-rule:evenodd;clip-rule:evenodd;fill:#F0F4D5;}
	.st34{fill-rule:evenodd;clip-rule:evenodd;fill:#F18C38;}
	.st35{fill-rule:evenodd;clip-rule:evenodd;fill:#D9455C;}
	.st36{fill-rule:evenodd;clip-rule:evenodd;fill:#C05885;}
	.st37{fill-rule:evenodd;clip-rule:evenodd;fill:#E1EAA2;}
	.st38{fill-rule:evenodd;clip-rule:evenodd;fill:#B8D372;}
	.st39{fill-rule:evenodd;clip-rule:evenodd;fill:#E52344;}
	.st40{fill-rule:evenodd;clip-rule:evenodd;fill:#EC3459;}
	.st41{fill-rule:evenodd;clip-rule:evenodd;fill:#EA486F;}
	.st42{fill:#D87526;}
	.st43{fill:#8C4422;}
	.st44{fill:#EFD23B;}
	.st45{fill:#DE912A;}
	.st46{fill:#E8AD2E;}
	.st47{fill:#934A2B;}
	.st48{fill-rule:evenodd;clip-rule:evenodd;fill:#7FB743;}
	.st49{fill-rule:evenodd;clip-rule:evenodd;fill:#F9DC36;}
	.st50{display:inline;fill:#6B1446;}
	.st51{clip-path:url(#SVGID_16_);}
	.st52{fill:#6B1446;}
	.st53{fill-rule:evenodd;clip-rule:evenodd;fill:#AA2335;}
	.st54{fill-rule:evenodd;clip-rule:evenodd;fill:#6B1446;}
	.st55{fill-rule:evenodd;clip-rule:evenodd;fill:#F39F4E;}
	.st56{fill:#F39F4E;}
	.st57{fill:#1A5360;}
	.st58{display:inline;fill-rule:evenodd;clip-rule:evenodd;fill:#FFB3D2;}
	.st59{display:inline;opacity:0.3;}
	.st60{fill-rule:evenodd;clip-rule:evenodd;fill:#FFFFFF;}
	.st61{display:inline;fill:#FFC425;}
	.st62{display:inline;fill:#098442;}
	.st63{fill:none;stroke:#FFFFFF;stroke-width:4;stroke-miterlimit:10;}
	.st64{fill:#FFC425;}
	.st65{fill:#25A9E0;}
	.st66{fill:#AA2335;}
	.st67{fill:#F18C38;}
	.st68{display:inline;fill:#FFFFFF;}
	.st69{fill:#490E0E;}
	.st70{fill-rule:evenodd;clip-rule:evenodd;fill:#FCFDFF;}
</style>
<g id="Layer_1" class="st0">
	<g class="st1">
		<defs>
			<rect id="SVGID_1_" x="-1101.274" y="-231.691" width="1920" height="1096.731"/>
		</defs>
		<clipPath id="SVGID_2_">
			<use xlink:href="#SVGID_1_"  style="overflow:visible;"/>
		</clipPath>
		<g style="opacity:0.6;clip-path:url(#SVGID_2_);">
			
				<image style="overflow:visible;" width="2313" height="1557" xlink:href="../../../Users/tatinavazquez/Desktop/p_papel-kraft-6.jpg"  transform="matrix(1 0 0 1 -1302.7094 -500.3416)">
			</image>
		</g>
	</g>
	<g class="st1">
		<defs>
			
				<rect id="SVGID_3_" x="-1106.918" y="-233.342" transform="matrix(-1 -4.480251e-11 4.480251e-11 -1 -289.8367 630.0479)" width="1924" height="1096.731"/>
		</defs>
		<use xlink:href="#SVGID_3_"  style="overflow:visible;fill:#FFC425;"/>
		<clipPath id="SVGID_4_">
			<use xlink:href="#SVGID_3_"  style="overflow:visible;"/>
		</clipPath>
	</g>
	<g class="st1">
		<defs>
			<path id="SVGID_5_" d="M-1103.709-235.376V861.355h1924V-235.376H-1103.709z"/>
		</defs>
		<clipPath id="SVGID_6_">
			<use xlink:href="#SVGID_5_"  style="overflow:visible;"/>
		</clipPath>
		<g class="st2">
			<g>
				<path class="st3" d="M300.611,35.606C279.107,3.35,286.397-25.129,348.424-72.942s51.689-91.749,90.456-105.963
					s99.502,16.799,93.041,73.657S482.816,11.053,428.543,34.313S316.118,58.866,300.611,35.606z"/>
				<path class="st4" d="M537.374-113.607c0,2.931-0.168,5.906-0.511,8.92c-6.782,59.683-51.515,120.065-106.361,143.572
					C372.2,63.871,313.327,63.642,296.473,38.364l0,0C271.58,1.035,284.835-30.205,345.387-76.88
					c31.392-24.199,43.802-47.48,53.775-66.185c9.446-17.724,17.608-33.03,38.006-40.508c22.289-8.173,51.415-2.541,72.476,14.016
					C527.724-155.346,537.374-135.721,537.374-113.607z M304.748,32.848c13.804,20.704,69.598,19.283,121.837-3.105
					c51.771-22.188,93.991-79.197,100.398-135.553c2.519-22.172-5.821-42.043-23.487-55.929
					c-18.449-14.506-43.729-19.527-62.904-12.498c-16.834,6.172-23.47,18.621-32.655,35.85
					c-10.421,19.548-23.391,43.877-56.479,69.383C288.139-20.195,286.383,5.3,304.748,32.848L304.748,32.848z"/>
			</g>
			<g>
				<path class="st6" d="M-3.574-31.236c0,0,2.717,13.395,11.96,44.779s35.84,93.147,83.365,99.734
					c47.221,6.545,67.748-20.052,56.89-57.824S83.984-11.062,35.695-25.254S-69.988-45.927-72.566-78.13
					c-3.753-46.888,17.725-82.903,52.339-79.37s50.407,24.635,55.199,46.688s-0.347,51.508,6.266,67.165
					c11.073,26.216,33.024,32.304,33.024,32.304"/>
				<path class="st4" d="M149.816,44.636c1.469,3.08,2.678,6.226,3.602,9.444c5.752,20.01,3.245,37.576-7.061,49.462
					c-7.883,9.092-23.876,19.015-55.29,14.662C34.466,110.356,8.287,30.81,3.616,14.948C-5.581-16.283-8.333-29.692-8.446-30.248
					c-0.102-0.495-0.124-0.988-0.078-1.468c-35.829-9.328-66.911-19.91-68.998-46.018c-2.43-30.368,5.117-56.534,20.707-71.785
					c10.12-9.902,22.946-14.372,37.093-12.928c31.56,3.22,53.266,21.641,59.553,50.578c2.298,10.575,2.416,22.409,2.531,33.854
					c0.128,12.77,0.247,24.833,3.458,32.432c10.032,23.732,29.576,29.39,29.771,29.446c0.837,0.232,1.564,0.665,2.144,1.232
					C109.269-0.479,137.965,19.791,149.816,44.636z M26.145,45.829c12.554,26.319,34.116,58.063,66.289,62.523
					c21.064,2.919,37.545-1.103,46.409-11.326c8.027-9.257,9.807-23.533,5.018-40.199c-5.493-19.099-27.416-44.009-72.202-63.788
					c-1.168-0.406-3.054-1.138-5.393-2.309c-9.648-4.008-20.288-7.778-31.974-11.213c-9.658-2.837-19.824-5.4-29.654-7.879
					c-0.874-0.22-1.75-0.44-2.623-0.661c1.307,5.628,4.573,18.858,11.14,41.161C14.745,17.533,18.975,30.797,26.145,45.829z
					 M38.009-38.708c-0.465-0.974-0.915-1.974-1.351-3.005c-3.972-9.405-4.102-22.42-4.239-36.202
					c-0.109-10.945-0.222-22.261-2.305-31.843c-3.117-14.363-13.877-39.022-50.844-42.796c-11.273-1.151-21.074,2.262-29.13,10.143
					c-13.275,12.989-19.91,36.871-17.749,63.884c1.782,22.143,37.187,31.072,74.678,40.521c9.923,2.501,20.184,5.087,30.029,7.98
					c2.473,0.727,4.968,1.493,7.474,2.299C42.219-30.916,39.988-34.559,38.009-38.708z"/>
			</g>
			<g>
				<path class="st6" d="M319.184,500.837c-33.164,40.224-93.882,11.041-137.043-32.672s-89.18-45.4-117.878-88.583
					s-57.348-87.68-25.468-131.275s87.33-27.48,113.688,7.717s26.591,64.743,53.335,89.422
					c26.743,24.679,82.11,38.386,101.99,70.713S337.096,479.112,319.184,500.837z"/>
				<path class="st4" d="M156.535,252.991c12.239,16.343,19.091,31.704,25.138,45.254c7.336,16.447,13.672,30.647,27.576,43.48
					c10.503,9.689,25.777,17.694,41.951,26.163c23.834,12.484,48.481,25.393,60.919,45.619c24.617,40.03,28.205,69.648,10.97,90.551
					c-10.809,13.112-24.823,20.143-41.652,20.896c-30.182,1.331-68.652-18.547-102.901-53.232
					c-19.372-19.623-39.191-30.468-58.357-40.957c-22.613-12.376-43.973-24.063-60.132-48.384
					C32.023,340.218,0.26,292.425,34.709,245.316c17.065-23.333,38.427-28.335,53.341-28.418c0.943-0.005,1.886,0.01,2.833,0.044
					C115.131,217.831,140.631,231.754,156.535,252.991z M280.984,514.838c13.846-0.62,25.383-6.415,34.294-17.221l0,0
					c14.137-17.147,10.283-42.923-11.783-78.806c-10.98-17.854-34.371-30.104-56.993-41.952
					c-16.783-8.792-32.633-17.094-44.118-27.694c-15.437-14.244-22.489-30.054-29.958-46.793
					c-6.114-13.704-12.437-27.878-23.995-43.312c-14.665-19.585-38.341-32.119-60.322-32.038
					c-18.05,0.103-33.688,8.495-45.227,24.273c-30.279,41.405-1.871,84.15,25.6,125.485c14.777,22.238,34.141,32.833,56.559,45.103
					c18.883,10.336,40.287,22.048,60.702,42.725c30.426,30.816,63.82,49.269,90.478,50.247
					C277.833,514.913,279.421,514.909,280.984,514.838z"/>
			</g>
			<g>
				<path class="st12" d="M325.067,195.919c-16.298,12.463-54.645,38.347-27.802,68.066c26.843,29.719,59.977,9.587,91.613,16.298
					c31.637,6.711,34.013,22.509,61.815,16.757c34.289-7.094,40.189-42.018,55.144-49.851c20.132-10.546,38.767-15.798,39.726-14.84
					s-32.595-11.504-42.182-43.141s-1.917-33.554-25.884-52.727c-23.967-19.174-51.769,23.008-89.157,1.917
					s-71.901-19.174-74.777,9.587S325.067,195.919,325.067,195.919z"/>
				<g>
					<path class="st4" d="M390.83,133.988c-26.223-14.791-51.198-18.784-66.808-10.683c-9.025,4.684-14.381,13.044-15.495,24.175
						c-1.218,12.074,0.417,22.527,2.857,30.821c-6.155-7.185-11.259-15.255-13.519-19.342c-1.355-2.447-4.433-3.336-6.879-1.984
						c-2.452,1.355-3.339,4.433-1.988,6.877c0.324,0.585,4.259,7.629,10.252,15.526c-23.243-13.395-44.752-33.851-49.983-47.577
						c-0.995-2.612-3.919-3.924-6.533-2.929c-2.614,0.995-3.936,3.917-2.927,6.534c6.348,16.668,31.332,40.667,58.479,55.151
						c-10.946,0.3-21.932,1.279-26.487,3.812c-2.442,1.358-3.326,4.436-1.968,6.884c1.358,2.444,4.44,3.324,6.885,1.966
						c3.544-1.97,18.239-2.77,33.943-2.624c-12.053,9.673-26.051,23.186-27.592,39.311c-0.906,9.555,2.597,18.794,10.439,27.471
						c19.094,21.141,41.026,19.285,62.233,17.492c10.673-0.903,21.705-1.836,32.087,0.366c12.367,2.624,20.007,6.712,26.748,10.322
						c10.211,5.467,19.031,10.188,37.143,6.44c23.821-4.928,34.879-21.759,43.765-35.283c4.512-6.862,8.405-12.79,12.706-15.043
						c17.571-9.203,32.862-13.797,36.451-14.325c0.244,0.061,0.425,0.096,0.547,0.104c2.103,0.138,4.137-1.055,5.007-2.975
						c0.3-0.664,0.445-1.373,0.445-2.078c0-1.333-0.521-2.653-1.496-3.629c-0.834-0.836-1.661-1.49-3.411-1.595
						c-6.249-2.327-30.113-15.04-37.503-39.434c-2.673-8.815-3.972-15.282-5.017-20.478c-2.973-14.781-4.898-20.612-22.552-34.734
						c-13.58-10.864-28.076-5.35-42.094-0.016C423.78,138.136,408.49,143.952,390.83,133.988z M474.336,140.435
						c15.676,12.54,16.434,16.316,18.949,28.822c1.088,5.409,2.442,12.139,5.254,21.419c6.131,20.23,21.049,33.083,32.41,40.092
						c-5.297,1.838-15.656,5.753-27.46,11.935c-6.622,3.469-11.184,10.412-16.467,18.451c-8.27,12.586-17.644,26.85-37.354,30.929
						c-14.519,3.003-20.801-0.361-30.317-5.453c-6.971-3.733-15.646-8.377-29.421-11.299c-11.849-2.513-23.639-1.516-35.04-0.55
						c-20.465,1.73-38.139,3.225-53.868-14.19c-5.35-5.921-7.97-11.742-7.97-17.734c0-0.659,0.033-1.323,0.096-1.988
						c1.496-15.674,20.581-30.057,31.985-38.65l3.009-2.279c0.032-0.024,0.055-0.055,0.086-0.08
						c0.053-0.042,0.095-0.092,0.145-0.136c0.217-0.189,0.421-0.387,0.598-0.604c0.019-0.023,0.046-0.035,0.064-0.058
						c0.035-0.045,0.047-0.1,0.081-0.145c0.109-0.147,0.226-0.29,0.317-0.447c0.014-0.024,0.026-0.047,0.039-0.071
						c0.119-0.213,0.213-0.437,0.3-0.664c0.021-0.056,0.054-0.106,0.073-0.162c0.091-0.266,0.151-0.541,0.198-0.817
						c0.005-0.031,0.026-0.056,0.03-0.087c0.029-0.183,0.033-0.364,0.04-0.545c0.002-0.045,0.009-0.087,0.01-0.132
						c0-0.026,0.006-0.053,0.006-0.078c0-0.036-0.017-0.069-0.018-0.105c-0.008-0.424-0.07-0.846-0.186-1.261
						c-0.018-0.064-0.036-0.126-0.057-0.19c-0.026-0.081-0.062-0.154-0.093-0.233c-0.142-0.376-0.322-0.74-0.56-1.084
						c-0.016-0.023-0.02-0.05-0.036-0.073c-0.109-0.155-10.814-15.314-2.449-23.689c7.63-7.632,20.904-5.641,44.378,6.656
						c2.479,1.299,5.537,0.341,6.836-2.136c0.392-0.75,0.577-1.552,0.577-2.343c0-1.824-0.986-3.584-2.713-4.489
						c-19.823-10.384-42.008-19.079-56.237-4.848c-0.327,0.327-0.586,0.668-0.882,1.002c-0.494-4.502-0.611-9.392-0.09-14.633
						c0.768-7.672,4.163-13.122,10.086-16.195c12.377-6.424,34.282-2.395,57.167,10.514c21.797,12.296,40.934,5.017,56.313-0.832
						C456.491,136.526,465.71,133.535,474.336,140.435z"/>
				</g>
			</g>
		</g>
	</g>
</g>
<g id="Grafico">
	<g>
		<g>
			<path class="st64" d="M345.311,156.007c-5.017-27.01-12.871-51.556-22.708-70.989c-5.162-10.199-10.896-19.077-17.041-26.384
				c-6.382-7.58-13.258-13.54-20.456-17.722C243.92,16.975,204.118,4.838,166.821,4.838c-24.198,0-47.04,5.142-67.882,15.268
				c-19.264,9.353-36.396,22.721-50.926,39.724c-6.868,8.043-13.098,16.857-18.521,26.216c-5.297,9.168-9.845,18.895-13.52,28.913
				C8.693,134.79,4.85,155.977,4.85,176.23c0,17.433,2.743,33.968,8.147,49.15c5.667,15.889,14.133,29.87,25.155,41.546
				c11.761,12.465,26.333,22.163,43.306,28.823c18.345,7.201,39.54,10.854,62.997,10.854c2.052,0,4.162-0.034,6.245-0.088
				c0.868-0.023,1.7-0.038,2.564-0.038c20.549,0,39.888,6.592,59.117,20.153c16.477,11.624,30.242,26.463,42.38,39.549
				c15.067,16.248,28.082,30.285,39.608,30.285h0.009c3.438,0,6.7-1.22,9.978-3.738c3.649-2.788,7.343-7.26,11.008-13.287
				c7.961-13.149,16.109-34.113,24.901-64.076c6.593-22.508,10.503-49.243,11.311-77.3
				C352.356,210.675,350.195,182.296,345.311,156.007"/>
			<g>
				<path d="M340.266,315.364c-8.792,29.963-16.941,50.926-24.901,64.075c-3.665,6.027-7.359,10.5-11.007,13.287
					c-3.279,2.518-6.541,3.739-9.979,3.739h-0.009c-11.526,0-24.541-14.038-39.608-30.286
					c-12.138-13.086-25.903-27.923-42.38-39.548c-19.229-13.562-38.568-20.153-59.117-20.154c-0.865,0-1.696,0.016-2.564,0.038
					c-2.084,0.055-4.193,0.089-6.245,0.089c-23.456,0-44.652-3.654-62.997-10.854c-16.974-6.661-31.545-16.359-43.306-28.824
					C27.13,255.249,18.664,241.27,12.997,225.38c-5.405-15.181-8.147-31.717-8.147-49.149c0-20.253,3.843-41.44,11.124-61.274
					c3.675-10.018,8.223-19.745,13.52-28.913c5.422-9.358,11.653-18.172,18.521-26.215C62.543,42.827,79.676,29.459,98.94,20.105
					c20.842-10.126,43.684-15.267,67.882-15.267c37.297,0,77.099,12.136,118.285,36.073c7.197,4.183,14.074,10.144,20.456,17.722
					c6.145,7.307,11.879,16.186,17.041,26.384c9.839,19.434,17.691,43.98,22.708,70.989c4.884,26.29,7.045,54.669,6.265,82.058
					C350.768,266.119,346.858,292.855,340.266,315.364 M350.069,155.119c-5.102-27.45-13.099-52.45-23.152-72.292
					c-11.04-21.818-24.297-37.333-39.381-46.098C245.6,12.355,204.984,0,166.821,0c-24.938,0-48.486,5.296-70.001,15.75
					c-19.858,9.652-37.523,23.423-52.48,40.94c-7.062,8.26-13.46,17.327-19.018,26.929c-5.456,9.402-10.131,19.391-13.897,29.673
					c-3.742,10.181-6.609,20.695-8.525,31.25C0.983,155.127,0,165.793,0,176.231c0,17.987,2.849,35.072,8.448,50.772
					c5.885,16.527,14.696,31.076,26.18,43.244c12.25,12.989,27.408,23.088,45.064,30.008c18.908,7.419,40.702,11.183,64.763,11.183
					c2.093,0,4.237-0.031,6.381-0.086c0.816-0.019,1.607-0.029,2.429-0.029c44.024,0,73.92,32.24,97.951,58.152
					c7.81,8.428,15.19,16.383,22.118,22.121c7.996,6.628,14.68,9.714,21.035,9.714h0.017c4.473-0.007,8.82-1.597,12.922-4.737
					c4.179-3.208,8.166-7.993,12.192-14.63c8.187-13.513,16.503-34.85,25.405-65.219
					C358.392,270.739,360.317,210.331,350.069,155.119"/>
				<path d="M100.065,148.418c-0.076,1.11-0.236,2.073-0.488,2.921c-0.16,1.013-0.362,1.998-0.614,2.922
					c-0.252,1.098-0.479,2.156-0.68,3.177c-0.203,1.013-0.429,2.034-0.673,3.048c-0.084,0.85-0.286,1.7-0.622,2.539
					c-0.327,0.942-0.674,1.917-1.001,2.93c-0.42,1.017-0.799,2.038-1.126,3.051c-0.335,0.85-0.697,1.615-1.068,2.293
					c-0.385,0.684-0.875,1.446-1.471,2.294c-0.587,0.849-1.135,1.577-1.647,2.173c-0.496,0.68-1.009,1.451-1.522,2.292
					c-0.252,0.344-0.631,0.819-1.144,1.412c-0.42,0.428-0.806,0.849-1.144,1.278l0-0.382c-0.007-0.164-0.007-0.299-0.007-0.383
					l-0.218-22.558c-0.018-2.371-0.035-4.736-0.058-7.103c-0.027-2.283,0-4.519,0.058-6.726c0.068-2.195,0.091-4.183,0.068-5.949
					c-0.009-1.69,0.017-3.085,0.091-4.191c0-1.101,0.066-1.989,0.227-2.665c0-0.421,0.085-0.803,0.252-1.144
					c0.691,0.159,1.464,0.285,2.321,0.358c0.774,0.163,1.547,0.374,2.32,0.612c0.859,0.328,1.64,0.702,2.321,1.123
					c0.697,0.413,1.295,0.795,1.817,1.121c0.427,0.337,0.822,0.757,1.167,1.253c0.429,0.509,0.865,1.051,1.304,1.634
					c0.352,0.682,0.656,1.396,0.916,2.154c0.269,0.677,0.445,1.307,0.537,1.891c0.009,0.934,0.06,1.862,0.16,2.795
					c0.008,0.93,0.018,1.853,0.025,2.783C100.175,146.307,100.14,147.321,100.065,148.418 M104.613,139.632
					c-0.099-1.18-0.369-2.32-0.807-3.418c-0.352-1.013-0.831-1.934-1.436-2.774c-0.521-0.841-1.051-1.598-1.563-2.266
					c-0.614-0.673-1.271-1.303-1.952-1.888c-0.698-0.496-1.445-0.996-2.271-1.501c-0.814-0.501-1.789-0.949-2.9-1.366
					c-1.218-0.496-2.421-0.778-3.614-0.853c-0.858-0.157-1.675-0.32-2.447-0.483c-0.857-0.157-1.639-0.32-2.32-0.484
					c-0.429-0.08-0.782-0.251-1.034-0.499l-0.9-0.757c-0.53-0.324-1.109-0.45-1.748-0.358c-0.639,0.089-1.161,0.366-1.539,0.833
					c-0.369,0.471-0.521,1.022-0.436,1.652c0.09,0.631,0.402,1.16,0.914,1.576l0.783,0.63c0.429,0.332,0.916,0.622,1.429,0.87
					c-0.177,0.429-0.303,0.938-0.378,1.526c-0.075,0.85-0.151,1.905-0.226,3.175c-0.076,1.181-0.101,2.662-0.094,4.44
					c0.026,1.69,0,3.635-0.057,5.835c-0.077,2.194-0.093,4.519-0.068,6.969c0.017,2.371,0.052,4.691,0.068,6.975l0.217,22.564
					c0.026,2.619,0.092,4.987,0.195,7.096c0.109,2.027,0.159,4.062,0.184,6.083c0.1,1.95,0.209,3.762,0.311,5.456
					c0.1,1.681,0.168,3.162,0.177,4.431c0.091,1.098,0.099,2.156,0.025,3.17c-0.075,1.013-0.118,1.899-0.101,2.665l0.017,2.283
					c0.018,0.761,0.018,1.517,0.024,2.283c-0.075,0.84-0.117,1.562-0.11,2.156l0.009,0.889c0.009,0.593,0.243,1.113,0.732,1.574
					c0.47,0.46,1.01,0.691,1.606,0.688c0.605-0.008,1.136-0.245,1.607-0.721c0.46-0.467,0.698-0.995,0.689-1.588l-0.008-0.888
					c-0.007-0.509,0.033-1.139,0.109-1.9c-0.007-0.841-0.017-1.69-0.024-2.535l-0.018-2.288c0-0.67,0.026-1.479,0.109-2.408
					c0.07-1.097,0.061-2.282-0.04-3.551c-0.007-1.261-0.068-2.742-0.167-4.431c-0.11-1.69-0.21-3.504-0.312-5.448
					c-0.016-1.946-0.085-3.847-0.184-5.709c0.596-0.172,1.066-0.476,1.403-0.904l1.017-1.526c0.589-0.85,1.228-1.614,1.909-2.299
					c0.764-0.85,1.337-1.619,1.715-2.295c0.378-0.678,0.782-1.279,1.202-1.791c0.589-0.681,1.202-1.467,1.841-2.363
					c0.631-0.896,1.201-1.761,1.706-2.618c0.42-0.842,0.842-1.822,1.26-2.919c0.421-1.021,0.799-2.082,1.135-3.187
					c0.412-1.013,0.79-1.996,1.126-2.921c0.33-1.022,0.622-2.08,0.874-3.177c0.153-1.022,0.346-2.01,0.547-2.993
					c0.203-0.967,0.438-1.963,0.682-2.984c0.244-1.009,0.445-2.031,0.614-3.045c0.244-1.013,0.426-2.155,0.539-3.426
					c0.116-1.27,0.175-2.454,0.158-3.552c-0.008-1.021-0.017-2.034-0.025-3.048C104.663,141.365,104.622,140.482,104.613,139.632"/>
				<path d="M136.51,179.773c-0.169,1.022-0.193,2.329-0.092,3.935c0.008,1.353-0.018,2.749-0.095,4.183
					c-0.065,1.442-0.14,2.834-0.217,4.191c0.009,1.433-0.017,2.741-0.092,3.931c0.009,1.093-0.018,2.153-0.1,3.174
					c-0.067,1.013-0.109,2.148-0.093,3.418c0.017,1.097-0.025,2.11-0.093,3.048c-0.075,0.925-0.151,1.774-0.234,2.538
					c0.007,0.758-0.076,1.48-0.236,2.149c-0.084,0.601-0.296,1.357-0.622,2.291c-0.336,0.934-0.665,1.698-1.008,2.292
					c-0.252,0.341-0.64,0.684-1.144,1.025c-0.513,0.43-1.118,0.728-1.791,0.905c-0.521,0.096-0.95,0.134-1.286,0.143
					c-0.345-0.079-0.647-0.203-0.91-0.375c-0.26-0.252-0.478-0.508-0.653-0.756c-0.169-0.421-0.311-0.796-0.387-1.14
					c-0.095-0.579-0.237-1.181-0.404-1.767c-0.092-0.508-0.226-1.05-0.404-1.652c-0.185-0.668-0.362-1.341-0.53-2.017
					c-0.192-0.676-0.319-1.471-0.41-2.409c-0.186-1.089-0.321-2.11-0.413-3.035c-0.194-0.929-0.285-1.855-0.285-2.792
					c-0.101-0.924-0.236-2.063-0.422-3.409c-0.1-1.269-0.201-2.627-0.294-4.06c-0.099-1.27-0.203-2.577-0.295-3.925
					c-0.099-1.182-0.159-2.452-0.177-3.81c-0.093-1.509-0.15-2.989-0.167-4.431c-0.093-1.77-0.203-3.249-0.295-4.434
					c-0.017-1.518-0.076-3.082-0.176-4.688c-0.102-1.605-0.203-3.168-0.304-4.69c-0.185-1.345-0.285-2.787-0.295-4.305
					c-0.026-1.605-0.032-3.169-0.049-4.691c-0.103-1.344-0.153-2.666-0.16-3.934l-0.034-3.162c-0.017-0.849-0.017-1.983-0.027-3.425
					c-0.015-1.351,0.009-2.371,0.094-3.049c-0.009-0.841,0.024-1.644,0.109-2.404c-0.007-0.681,0.026-1.396,0.11-2.152
					c0.153-0.85,0.32-1.737,0.48-2.67c0.252-0.937,0.587-1.87,1.008-2.8c0.422-0.848,0.883-1.487,1.388-1.917
					c0.521-0.588,1.026-1.063,1.539-1.408c0.336-0.256,0.682-0.39,1.017-0.39c0.522-0.005,0.993,0.079,1.422,0.243l0.9,0.366
					c0.343,0.083,0.74,0.125,1.167,0.125c0.086,0.249,0.178,0.459,0.261,0.631l0.656,1.005c0.43,0.584,0.74,1.176,0.91,1.765
					c0.269,0.584,0.445,1.178,0.529,1.77c0.184,0.593,0.276,1.051,0.285,1.388c0,0.684,0.043,1.353,0.144,2.034
					c0.085,0.677,0.134,1.429,0.151,2.274c0.092,0.85,0.227,1.737,0.404,2.662c0.183,0.841,0.278,1.606,0.278,2.282
					c0.092,0.757,0.191,1.77,0.293,3.039c0.177,1.014,0.269,1.938,0.285,2.787c0,0.93-0.033,1.9-0.099,2.913
					c0.008,1.101,0.049,2.2,0.151,3.296c0.101,1.097,0.15,2.161,0.168,3.17c0.007,1.1,0.059,2.152,0.151,3.165
					c0.009,0.932,0.068,1.946,0.16,3.042c0.017,1.186,0.066,2.41,0.167,3.67c0.094,1.194,0.152,2.456,0.169,3.808
					C136.619,177.995,136.586,179.016,136.51,179.773 M141.075,172.632c-0.109-1.265-0.16-2.447-0.176-3.544
					c-0.093-1.186-0.144-2.282-0.152-3.296c-0.093-0.84-0.15-1.778-0.159-2.791c-0.017-1.177-0.059-2.32-0.16-3.418
					c-0.092-1.013-0.151-2.026-0.16-3.038c0.077-1.022,0.11-1.993,0.101-2.922c-0.008-0.924-0.109-1.984-0.285-3.169
					c-0.102-1.261-0.195-2.274-0.287-3.039c-0.092-0.842-0.193-1.728-0.285-2.656c-0.175-0.761-0.319-1.517-0.404-2.279
					c-0.091-0.845-0.184-1.606-0.277-2.279c-0.006-0.588-0.017-1.143-0.017-1.647c-0.008-0.681-0.143-1.48-0.403-2.409
					c-0.186-0.841-0.404-1.644-0.673-2.401c-0.361-0.84-0.784-1.681-1.311-2.522l-0.647-1.005c-0.521-0.841-1.303-1.214-2.329-1.122
					c-0.27-0.765-0.792-1.261-1.562-1.509l-0.9-0.37c-0.942-0.324-1.934-0.487-2.968-0.48c-1.277,0.014-2.43,0.403-3.463,1.165
					c-0.851,0.525-1.657,1.211-2.422,2.06c-0.849,0.857-1.563,1.917-2.152,3.187c-0.597,1.106-1.009,2.294-1.252,3.564
					c-0.33,1.187-0.539,2.246-0.614,3.17c-0.16,0.938-0.244,1.825-0.235,2.674c0.008,0.668-0.018,1.387-0.102,2.148
					c-0.083,0.849-0.118,2.034-0.1,3.552c0.018,1.443,0.025,2.535,0.042,3.296l0.026,3.173c0.017,1.271,0.067,2.662,0.167,4.184
					c0.009,1.436,0.026,2.912,0.042,4.431c0.018,1.614,0.118,3.169,0.304,4.69c0.1,1.438,0.192,2.914,0.301,4.44
					c0.092,1.69,0.16,3.245,0.169,4.687c0.099,1.26,0.202,2.745,0.301,4.435c0.009,1.437,0.068,2.959,0.169,4.557
					c0.017,1.353,0.067,2.622,0.168,3.808c0.092,1.261,0.193,2.576,0.302,3.926c0.094,1.442,0.194,2.876,0.296,4.304
					c0.185,1.358,0.327,2.447,0.42,3.295c0.092,1.014,0.185,2.027,0.279,3.04c0.184,0.93,0.319,1.899,0.419,2.905
					c0.177,1.106,0.361,2.081,0.538,2.913c0.178,0.677,0.354,1.357,0.539,2.026c0.168,0.677,0.31,1.27,0.396,1.78
					c0.184,0.495,0.31,1.003,0.402,1.508c0.186,0.766,0.446,1.481,0.791,2.15c0.437,0.929,1.067,1.731,1.883,2.39
					c0.824,0.675,1.79,1.086,2.917,1.24c1.11,0.165,2.227,0.111,3.33-0.155c1.202-0.35,2.319-0.867,3.338-1.552
					c1.025-0.769,1.825-1.619,2.421-2.563c0.505-0.761,0.967-1.783,1.388-3.044c0.412-1.195,0.705-2.203,0.865-3.061
					c0.077-0.758,0.151-1.559,0.236-2.409c0.076-0.841,0.152-1.728,0.227-2.666c0.086-1.012,0.111-2.156,0.102-3.424
					c0-1.178,0.024-2.236,0.1-3.163c0.076-1.021,0.11-2.118,0.1-3.304c0.068-1.185,0.101-2.454,0.093-3.799
					c0.068-1.443,0.134-2.875,0.219-4.318c0.059-1.434,0.092-2.921,0.076-4.43c-0.092-1.358-0.06-2.417,0.099-3.178
					c0.077-0.929,0.109-2.16,0.093-3.678C141.219,175.255,141.168,173.902,141.075,172.632"/>
				<path d="M193.533,130.179l-1.027,0.013c-0.689,0.088-1.766,0.143-3.219,0.156c-1.455,0.008-3.003,0.026-4.635,0.042
					c-1.714,0.012-3.723,0.164-6.037,0.433c-2.229,0.198-4.499,0.421-6.818,0.703c-2.137,0.272-4.103,0.457-5.903,0.562
					c-1.891,0.102-3.522,0.202-4.885,0.295c-1.464,0.1-2.782,0.282-3.986,0.547l-1.538,0.395c-0.606,0.093-1.077,0.412-1.404,0.968
					c-0.346,0.553-0.447,1.143-0.311,1.773c0.144,0.634,0.479,1.101,1.043,1.388c0.562,0.29,1.134,0.39,1.739,0.297l1.539-0.39
					c0.941-0.265,2.008-0.404,3.22-0.412c1.278-0.093,2.884-0.194,4.809-0.299c1.934-0.101,4.009-0.295,6.239-0.568
					c0.261,0,0.513-0.045,0.763-0.129c-0.084,0.168-0.125,0.293-0.125,0.378l0.058,6.086c0.017,1.271,0.11,2.578,0.295,3.927
					c0.101,1.354,0.202,2.787,0.304,4.304c0.016,1.614,0.031,3.296,0.05,5.074c0.026,1.863,0.084,3.801,0.186,5.827
					c0.1,2.029,0.21,4.064,0.318,6.091c0.093,1.937,0.16,3.972,0.186,6.074c-0.067,2.119-0.118,4.254-0.134,6.411
					c-0.017,2.153-0.068,4.355-0.125,6.591c-0.068,2.246-0.134,4.292-0.203,6.155c-0.066,1.937-0.135,3.888-0.202,5.835
					c-0.068,1.863-0.134,3.673-0.201,5.453c-0.16,1.861-0.228,3.467-0.221,4.813c0.11,1.357,0.16,2.628,0.169,3.809
					c0.092,1.013,0.151,1.816,0.151,2.41v0.756c0.017,0.677,0.252,1.22,0.739,1.644c0.463,0.42,1.027,0.622,1.674,0.614
					c0.647,0,1.176-0.245,1.605-0.712c0.423-0.466,0.633-0.995,0.623-1.59l-0.008-0.887c0-0.592-0.067-1.434-0.161-2.538
					c-0.008-1.088-0.057-2.274-0.15-3.544c-0.017-1.269,0.05-2.748,0.211-4.439c0.067-1.777,0.134-3.679,0.201-5.713
					c0.07-1.854,0.136-3.8,0.204-5.826c0.066-1.862,0.135-3.909,0.192-6.153c0.067-2.242,0.109-4.44,0.135-6.596
					c0.025-2.153,0.067-4.284,0.134-6.403c-0.025-2.283-0.092-4.434-0.192-6.461c-0.11-1.946-0.22-3.932-0.32-5.957
					c-0.101-2.026-0.16-3.935-0.177-5.705c-0.016-1.857-0.041-3.589-0.051-5.199c-0.1-1.597-0.203-3.123-0.311-4.557
					c-0.176-1.27-0.276-2.446-0.284-3.548l-0.052-6.082c0-0.257-0.051-0.514-0.143-0.762c0.513-0.088,1.026-0.143,1.539-0.143
					c2.144-0.277,3.994-0.42,5.534-0.436c1.713-0.014,3.296-0.029,4.751-0.038c1.638-0.014,2.841-0.068,3.606-0.165l1.034-0.008
					c0.597-0.084,1.111-0.37,1.53-0.841c0.419-0.467,0.615-1.017,0.563-1.652c-0.05-0.631-0.311-1.16-0.791-1.581
					C194.793,130.255,194.214,130.091,193.533,130.179"/>
				<path d="M229.391,128.199l-6.81,0.063c-0.858,0.009-1.59,0.014-2.196,0.022c-0.766,0.007-1.588,0.054-2.437,0.142
					c-0.689,0.094-1.329,0.186-1.919,0.277l-1.034,0.01c-1.117,0.091-1.798,0.731-2.034,1.916c-0.176,0.345-0.261,0.678-0.251,1.022
					l-0.252,1.392c-0.075,1.02-0.102,2.371-0.084,4.06c0.008,1.606,0.041,3.589,0.057,5.96c-0.066,2.278-0.083,4.771-0.057,7.475
					c-0.051,2.712-0.117,5.587-0.179,8.625c0.028,3.044-0.158,6.003-0.561,8.879c-0.387,2.968-0.749,5.97-1.06,9.013
					c-0.329,2.967-0.58,5.86-0.757,8.694c-0.194,2.838-0.319,5.44-0.379,7.798c0.025,2.456,0.092,4.65,0.194,6.591
					c0.1,2.032,0.251,3.935,0.446,5.701c0.184,1.778,0.412,3.258,0.682,4.435c0.183,1.097,0.274,2.068,0.284,2.913
					c-0.085,1.017-0.108,1.773-0.1,2.282c0.009,1.784,1.093,2.913,3.246,3.394c1.286,0.32,2.573,0.4,3.858,0.22
					c1.027-0.093,2.051-0.231,3.078-0.412c0.95-0.092,1.714-0.185,2.32-0.274c0.681-0.008,1.322-0.052,1.926-0.138
					c0.595-0.092,1.236-0.188,1.917-0.273l0.906-0.138c0.599-0.173,1.096-0.519,1.473-1.031c0.379-0.503,0.504-1.081,0.361-1.715
					c-0.127-0.631-0.455-1.113-0.967-1.447c-0.522-0.328-1.085-0.455-1.68-0.366l-1.027,0.266c-0.604,0.092-1.134,0.156-1.606,0.201
					c-0.473,0.055-1.011,0.075-1.615,0.075c-0.679,0.098-1.581,0.191-2.69,0.291c-1.025,0.173-2.061,0.31-3.085,0.404
					c-0.596,0.087-1.202,0.096-1.8,0.017c0-0.421,0.034-0.842,0.12-1.269c-0.008-1.098-0.159-2.321-0.423-3.671
					c-0.176-1.181-0.368-2.615-0.553-4.309c-0.192-1.689-0.345-3.502-0.446-5.453c-0.099-1.853-0.16-3.926-0.186-6.208
					c0.062-2.358,0.16-4.897,0.311-7.608c0.077-1.35,0.185-2.703,0.355-4.057l0.89-0.144c0.775-0.171,1.548-0.302,2.321-0.395
					c0.681-0.009,1.32-0.009,1.917-0.017c0.858,0.08,1.68,0.11,2.453,0.101c0.858-0.009,1.843-0.185,2.944-0.53l1.285-0.273
					c0.691-0.173,1.176-0.539,1.473-1.089c0.302-0.554,0.378-1.122,0.236-1.714c-0.128-0.593-0.471-1.043-1.034-1.388
					c-0.563-0.328-1.146-0.404-1.741-0.231l-1.413,0.395c-0.764,0.18-1.412,0.265-1.926,0.265c-0.504,0.007-1.16-0.021-1.923-0.101
					c-0.868-0.076-1.759-0.073-2.7,0.024c-0.776,0.085-1.548,0.224-2.321,0.396c0.311-2.875,0.63-5.746,0.951-8.63
					c0.394-3.047,0.63-6.171,0.68-9.387c0.06-3.207,0.117-6.083,0.177-8.623c-0.026-2.702-0.018-5.233,0.052-7.613
					c-0.017-2.358-0.042-4.347-0.061-5.948c-0.009-1.53,0.025-2.712,0.102-3.552v-0.382c0.421-0.087,0.89-0.134,1.403-0.139
					c0.691-0.088,1.295-0.143,1.809-0.143c0.687-0.008,1.453-0.018,2.302-0.022l6.828-0.062c0.597-0.009,1.127-0.226,1.596-0.656
					c0.471-0.428,0.698-0.958,0.689-1.588c0-0.631-0.245-1.178-0.714-1.644C230.533,128.418,229.995,128.191,229.391,128.199"/>
				<path d="M286.073,129.818c-0.487-0.412-1.059-0.575-1.749-0.483l-1.026,0.008c-0.691,0.097-1.757,0.144-3.211,0.156
					c-1.462,0.008-3.002,0.025-4.632,0.041c-1.715,0.021-3.734,0.164-6.035,0.442c-2.23,0.189-4.508,0.42-6.812,0.693
					c-2.153,0.273-4.111,0.458-5.918,0.563c-1.885,0.1-3.514,0.201-4.885,0.294c-1.455,0.101-2.783,0.29-3.977,0.546l-1.547,0.395
					c-0.587,0.094-1.068,0.412-1.404,0.968c-0.334,0.554-0.428,1.144-0.302,1.774c0.133,0.635,0.48,1.102,1.042,1.387
					c0.554,0.291,1.144,0.39,1.739,0.298l1.539-0.391c0.943-0.264,2.017-0.402,3.211-0.411c1.286-0.094,2.892-0.193,4.818-0.299
					c1.933-0.1,4.01-0.285,6.238-0.568c0.259,0,0.513-0.045,0.773-0.13c-0.092,0.169-0.126,0.295-0.126,0.378l0.051,6.088
					c0.009,1.27,0.109,2.577,0.302,3.934c0.101,1.345,0.194,2.78,0.304,4.297c0.017,1.613,0.025,3.304,0.041,5.072
					c0.017,1.864,0.077,3.801,0.185,5.836c0.101,2.021,0.211,4.048,0.32,6.082c0.099,1.939,0.158,3.973,0.183,6.082
					c-0.074,2.11-0.11,4.245-0.134,6.403c-0.026,2.152-0.067,4.356-0.135,6.6c-0.057,2.236-0.124,4.284-0.2,6.146
					c-0.059,1.946-0.125,3.889-0.194,5.835c-0.066,1.863-0.134,3.675-0.201,5.452c-0.16,1.863-0.226,3.468-0.211,4.823
					c0.092,1.353,0.151,2.619,0.151,3.8c0.101,1.014,0.16,1.816,0.16,2.408l0.007,0.762c0.009,0.68,0.253,1.223,0.723,1.638
					c0.48,0.426,1.036,0.623,1.683,0.623c0.638-0.007,1.169-0.246,1.598-0.718c0.427-0.467,0.631-0.997,0.631-1.59l-0.016-0.887
					c0-0.593-0.051-1.435-0.145-2.53c-0.008-1.097-0.077-2.282-0.168-3.553c-0.017-1.269,0.066-2.741,0.219-4.44
					c0.066-1.778,0.134-3.678,0.204-5.703c0.066-1.863,0.133-3.809,0.199-5.843c0.069-1.855,0.126-3.902,0.202-6.147
					c0.06-2.231,0.102-4.431,0.126-6.595c0.017-2.153,0.066-4.283,0.126-6.398c-0.017-2.286-0.083-4.44-0.184-6.465
					c-0.108-1.946-0.21-3.93-0.311-5.956c-0.11-2.027-0.176-3.927-0.185-5.706c-0.016-1.856-0.034-3.589-0.05-5.196
					c-0.101-1.6-0.202-3.127-0.302-4.56c-0.186-1.266-0.277-2.445-0.288-3.548l-0.066-6.09c0-0.249-0.041-0.505-0.135-0.752
					c0.513-0.089,1.034-0.144,1.549-0.144c2.134-0.273,3.978-0.421,5.523-0.434c1.715-0.008,3.305-0.025,4.758-0.041
					c1.632-0.012,2.825-0.068,3.598-0.164l1.036-0.008c0.596-0.085,1.108-0.37,1.538-0.842c0.421-0.467,0.604-1.016,0.549-1.651
					C286.805,130.769,286.535,130.239,286.073,129.818"/>
			</g>
		</g>
	</g>
</g>
<g id="Menu" class="st0">
	<g class="st1">
	</g>
</g>
<g id="Mockups" class="st0">
</g>
</svg>
