<svg viewBox="0 0 356.6 401.3" xmlns="http://www.w3.org/2000/svg"><path d="m345.3 156c-5-27-12.9-51.6-22.7-71-5.2-10.2-10.9-19.1-17-26.4-6.4-7.6-13.3-13.5-20.5-17.7-41.2-23.9-81-36.1-118.3-36.1-24.2 0-47 5.1-67.9 15.3-19.3 9.4-36.4 22.7-50.9 39.7-6.9 8-13.1 16.9-18.5 26.2-5.3 9.2-9.8 18.9-13.5 28.9-7.3 19.9-11.1 41.1-11.1 61.3 0 17.4 2.7 34 8.1 49.2 5.7 15.9 14.1 29.9 25.2 41.5 11.8 12.5 26.3 22.2 43.3 28.8 18.3 7.2 39.5 10.9 63 10.9 2.1 0 4.2 0 6.2-.1h2.6c20.5 0 39.9 6.6 59.1 20.2 16.5 11.6 30.2 26.5 42.4 39.5 15.1 16.2 28.1 30.3 39.6 30.3 3.4 0 6.7-1.2 10-3.7 3.6-2.8 7.3-7.3 11-13.3 8-13.1 16.1-34.1 24.9-64.1 6.6-22.5 10.5-49.2 11.3-77.3.8-27.4-1.4-55.8-6.3-82.1" fill="#ffc425"/><path d="m340.3 315.4c-8.8 30-16.9 50.9-24.9 64.1-3.7 6-7.4 10.5-11 13.3-3.3 2.5-6.5 3.7-10 3.7-11.5 0-24.5-14-39.6-30.3-12.1-13.1-25.9-27.9-42.4-39.5-19.2-13.6-38.6-20.2-59.1-20.2-.9 0-1.7 0-2.6 0-2.1.1-4.2.1-6.2.1-23.5 0-44.7-3.7-63-10.9-17-6.7-31.5-16.4-43.3-28.8-11.1-11.7-19.5-25.6-25.2-41.5-5.4-15.2-8.1-31.7-8.1-49.1 0-20.3 3.8-41.4 11.1-61.3 3.7-10 8.2-19.7 13.5-28.9 5.4-9.4 11.7-18.2 18.5-26.2 14.5-17.1 31.7-30.4 50.9-39.8 20.8-10.1 43.7-15.3 67.9-15.3 37.3 0 77.1 12.1 118.3 36.1 7.2 4.2 14.1 10.1 20.5 17.7 6.1 7.3 11.9 16.2 17 26.4 9.8 19.4 17.7 44 22.7 71 4.9 26.3 7 54.7 6.3 82.1-.8 28-4.7 54.8-11.3 77.3m9.8-160.3c-5.1-27.4-13.1-52.4-23.2-72.3-11-21.8-24.3-37.3-39.4-46.1-41.9-24.3-82.5-36.7-120.7-36.7-24.9 0-48.5 5.3-70 15.8-19.9 9.7-37.5 23.4-52.5 40.9-7.1 8.3-13.5 17.3-19 26.9-5.5 9.4-10.1 19.4-13.9 29.7-3.7 10.2-6.6 20.7-8.5 31.3-1.9 10.5-2.9 21.2-2.9 31.6 0 18 2.8 35.1 8.4 50.8 5.9 16.5 14.7 31.1 26.2 43.2 12.3 13 27.4 23.1 45.1 30 18.9 7.4 40.7 11.2 64.8 11.2 2.1 0 4.2 0 6.4-.1h2.4c44 0 73.9 32.2 98 58.2 7.8 8.4 15.2 16.4 22.1 22.1 8 6.6 14.7 9.7 21 9.7 4.5 0 8.8-1.6 12.9-4.7 4.2-3.2 8.2-8 12.2-14.6 8.2-13.5 16.5-34.8 25.4-65.2 13.5-46.1 15.4-106.5 5.2-161.7m-250-6.7c-.1 1.1-.2 2.1-.5 2.9-.2 1-.4 2-.6 2.9-.3 1.1-.5 2.2-.7 3.2s-.4 2-.7 3c-.1.9-.3 1.7-.6 2.5-.3.9-.7 1.9-1 2.9-.4 1-.8 2-1.1 3.1-.3.9-.7 1.6-1.1 2.3s-.9 1.4-1.5 2.3c-.6.8-1.1 1.6-1.6 2.2-.5.7-1 1.5-1.5 2.3-.3.3-.6.8-1.1 1.4-.4.4-.8.8-1.1 1.3v-.4c0-.2 0-.3 0-.4l-.2-22.6c0-2.4 0-4.7-.1-7.1 0-2.3 0-4.5.1-6.7s.1-4.2.1-5.9 0-3.1.1-4.2c0-1.1.1-2 .2-2.7 0-.4.1-.8.3-1.1.7.2 1.5.3 2.3.4.8.2 1.5.4 2.3.6.9.3 1.6.7 2.3 1.1s1.3.8 1.8 1.1c.4.3.8.8 1.2 1.3s.9 1.1 1.3 1.6c.4.7.7 1.4.9 2.2.3.7.4 1.3.5 1.9 0 .9.1 1.9.2 2.8v2.8c-.1.9-.2 1.9-.2 3m4.5-8.8c-.1-1.2-.4-2.3-.8-3.4-.4-1-.8-1.9-1.4-2.8-.5-.8-1.1-1.6-1.6-2.3-.6-.7-1.3-1.3-2-1.9-.7-.5-1.4-1-2.3-1.5-.8-.5-1.8-.9-2.9-1.4-1.2-.5-2.4-.8-3.6-.9-.9-.2-1.7-.3-2.4-.5-.9-.2-1.6-.3-2.3-.5-.4-.1-.8-.3-1-.5l-.9-.8c-.5-.3-1.1-.4-1.7-.4-.6.1-1.2.4-1.5.8-.4.5-.5 1-.4 1.7.1.6.4 1.2.9 1.6l.8.6c.4.3.9.6 1.4.9-.2.4-.3.9-.4 1.5-.1.9-.2 1.9-.2 3.2-.1 1.2-.1 2.7-.1 4.4s0 3.6-.1 5.8-.1 4.5-.1 7c0 2.4.1 4.7.1 7l.2 22.6c0 2.6.1 5 .2 7.1.1 2 .2 4.1.2 6.1.1 2 .2 3.8.3 5.5s.2 3.2.2 4.4c.1 1.1.1 2.2 0 3.2s-.1 1.9-.1 2.7v2.3 2.3c-.1.8-.1 1.6-.1 2.2v.9c0 .6.2 1.1.7 1.6s1 .7 1.6.7 1.1-.2 1.6-.7.7-1 .7-1.6v-.9c0-.5 0-1.1.1-1.9 0-.8 0-1.7 0-2.5v-2.3c0-.7 0-1.5.1-2.4.1-1.1.1-2.3 0-3.6 0-1.3-.1-2.7-.2-4.4s-.2-3.5-.3-5.4c0-1.9-.1-3.8-.2-5.7.6-.2 1.1-.5 1.4-.9l1-1.5c.6-.8 1.2-1.6 1.9-2.3.8-.8 1.3-1.6 1.7-2.3s.8-1.3 1.2-1.8c.6-.7 1.2-1.5 1.8-2.4s1.2-1.8 1.7-2.6c.4-.8.8-1.8 1.3-2.9.4-1 .8-2.1 1.1-3.2.4-1 .8-2 1.1-2.9.3-1 .6-2.1.9-3.2.2-1 .3-2 .5-3s.4-2 .7-3l.6-3c.2-1 .4-2.2.5-3.4.1-1.3.2-2.5.2-3.6 0-1 0-2 0-3 0-1-.1-1.9-.1-2.8m31.9 40.2c-.2 1-.2 2.3-.1 3.9 0 1.4 0 2.7-.1 4.2-.1 1.4-.1 2.8-.2 4.2 0 1.4 0 2.7-.1 3.9 0 1.1 0 2.2-.1 3.2s-.1 2.1-.1 3.4c0 1.1 0 2.1-.1 3s-.2 1.8-.2 2.5c0 .8-.1 1.5-.2 2.1s-.3 1.4-.6 2.3-.7 1.7-1 2.3c-.3.3-.6.7-1.1 1-.5.4-1.1.7-1.8.9-.5.1-.9.1-1.3.1-.3-.1-.6-.2-.9-.4-.3-.3-.5-.5-.7-.8-.2-.4-.3-.8-.4-1.1-.1-.6-.2-1.2-.4-1.8-.1-.5-.2-1-.4-1.7s-.4-1.3-.5-2c-.2-.7-.3-1.5-.4-2.4-.2-1.1-.3-2.1-.4-3-.2-.9-.3-1.9-.3-2.8-.1-.9-.2-2.1-.4-3.4-.1-1.3-.2-2.6-.3-4.1-.1-1.3-.2-2.6-.3-3.9-.1-1.2-.2-2.5-.2-3.8-.1-1.5-.1-3-.2-4.4-.1-1.8-.2-3.2-.3-4.4 0-1.5-.1-3.1-.2-4.7s-.2-3.2-.3-4.7c-.2-1.3-.3-2.8-.3-4.3 0-1.6 0-3.2 0-4.7-.1-1.3-.2-2.7-.2-3.9v-3.2c0-.8 0-2 0-3.4s0-2.4.1-3c0-.8 0-1.6.1-2.4 0-.7 0-1.4.1-2.2.2-.8.3-1.7.5-2.7.3-.9.6-1.9 1-2.8.4-.8.9-1.5 1.4-1.9.5-.6 1-1.1 1.5-1.4.3-.3.7-.4 1-.4.5 0 1 .1 1.4.2l.9.4c.3.1.7.1 1.2.1.1.2.2.5.3.6l.7 1c.4.6.7 1.2.9 1.8.3.6.4 1.2.5 1.8.2.6.3 1.1.3 1.4 0 .7 0 1.4.1 2 .1.7.1 1.4.2 2.3s.2 1.7.4 2.7c.2.8.3 1.6.3 2.3.1.8.2 1.8.3 3 .2 1 .3 1.9.3 2.8s0 1.9-.1 2.9c0 1.1 0 2.2.2 3.3.1 1.1.2 2.2.2 3.2 0 1.1.1 2.2.2 3.2 0 .9.1 1.9.2 3 0 1.2.1 2.4.2 3.7.1 1.2.2 2.5.2 3.8-.4 1.4-.4 2.4-.5 3.2m4.6-7.2c-.1-1.3-.2-2.4-.2-3.5-.1-1.2-.1-2.3-.2-3.3-.1-.8-.1-1.8-.2-2.8 0-1.2-.1-2.3-.2-3.4-.1-1-.2-2-.2-3 .1-1 .1-2 .1-2.9s-.1-2-.3-3.2c-.1-1.3-.2-2.3-.3-3-.1-.8-.2-1.7-.3-2.7-.2-.8-.3-1.5-.4-2.3s-.2-1.6-.3-2.3c0-.6 0-1.1 0-1.6 0-.7-.1-1.5-.4-2.4-.2-.8-.4-1.6-.7-2.4-.4-.8-.8-1.7-1.3-2.5l-.6-1c-.5-.8-1.3-1.2-2.3-1.1-.3-.8-.8-1.3-1.6-1.5l-.9-.4c-.9-.3-1.9-.5-3-.5-1.3 0-2.4.4-3.5 1.2-.9.5-1.7 1.2-2.4 2.1-.8.9-1.6 1.9-2.2 3.2-.6 1.1-1 2.3-1.3 3.6-.3 1.2-.5 2.2-.6 3.2-.2.9-.2 1.8-.2 2.7 0 .7 0 1.4-.1 2.1-.1.8-.1 2-.1 3.6v3.3 3.2c0 1.3.1 2.7.2 4.2v4.4c0 1.6.1 3.2.3 4.7.1 1.4.2 2.9.3 4.4.1 1.7.2 3.2.2 4.7.1 1.3.2 2.7.3 4.4 0 1.4.1 3 .2 4.6 0 1.4.1 2.6.2 3.8.1 1.3.2 2.6.3 3.9.1 1.4.2 2.9.3 4.3.2 1.4.3 2.4.4 3.3.1 1 .2 2 .3 3 .2.9.3 1.9.4 2.9.2 1.1.4 2.1.5 2.9.2.7.4 1.4.5 2 .2.7.3 1.3.4 1.8.2.5.3 1 .4 1.5.2.8.4 1.5.8 2.2.4.9 1.1 1.7 1.9 2.4s1.8 1.1 2.9 1.2c1.1.2 2.2.1 3.3-.2 1.2-.3 2.3-.9 3.3-1.6 1-.8 1.8-1.6 2.4-2.6.5-.8 1-1.8 1.4-3s.7-2.2.9-3.1c.1-.8.2-1.6.2-2.4.1-.8.2-1.7.2-2.7.1-1 .1-2.2.1-3.4s0-2.2.1-3.2.1-2.1.1-3.3c.1-1.2.1-2.5.1-3.8.1-1.4.1-2.9.2-4.3s.1-2.9.1-4.4c-.1-1.4-.1-2.4.1-3.2.1-.9.1-2.2.1-3.7.4-1.4.4-2.8.3-4.1m52.4-42.4h-1c-.7.1-1.8.1-3.2.2-1.5 0-3 0-4.6 0-1.7 0-3.7.2-6 .4-2.2.2-4.5.4-6.8.7-2.1.3-4.1.5-5.9.6-1.9.1-3.5.2-4.9.3-1.5.1-2.8.3-4 .5l-1.5.4c-.6.1-1.1.4-1.4 1s-.4 1.1-.3 1.8c.1.6.5 1.1 1 1.4.6.3 1.1.4 1.7.3l1.5-.4c.9-.3 2-.4 3.2-.4 1.3-.1 2.9-.2 4.8-.3s4-.3 6.2-.6c.3 0 .5 0 .8-.1-.1.2-.1.3-.1.4l.1 6.1c0 1.3.1 2.6.3 3.9.1 1.4.2 2.8.3 4.3 0 1.6 0 3.3.1 5.1 0 1.9.1 3.8.2 5.8s.2 4.1.3 6.1c.1 1.9.2 4 .2 6.1-.1 2.1-.1 4.3-.1 6.4 0 2.2-.1 4.4-.1 6.6-.1 2.2-.1 4.3-.2 6.2s-.1 3.9-.2 5.8-.1 3.7-.2 5.5c-.2 1.9-.2 3.5-.2 4.8.1 1.4.2 2.6.2 3.8.1 1 .2 1.8.2 2.4v.8c0 .7.3 1.2.7 1.6.5.4 1 .6 1.7.6.6 0 1.2-.2 1.6-.7s.6-1 .6-1.6v-.9c0-.6-.1-1.4-.2-2.5 0-1.1-.1-2.3-.1-3.5 0-1.3.1-2.7.2-4.4.1-1.8.1-3.7.2-5.7.1-1.9.1-3.8.2-5.8.1-1.9.1-3.9.2-6.2.1-2.2.1-4.4.1-6.6s.1-4.3.1-6.4c0-2.3-.1-4.4-.2-6.5-.1-1.9-.2-3.9-.3-6-.1-2-.2-3.9-.2-5.7 0-1.9 0-3.6-.1-5.2s-.2-3.1-.3-4.6c-.2-1.3-.3-2.4-.3-3.5l-.1-6.1c0-.3-.1-.5-.1-.8.5-.1 1-.1 1.5-.1 2.1-.3 4-.4 5.5-.4h4.8c1.6 0 2.8-.1 3.6-.2h1c.6-.1 1.1-.4 1.5-.8.4-.5.6-1 .6-1.7 0-.6-.3-1.2-.8-1.6-.5-.5-1.1-.7-1.8-.6m35.9-2-6.8.1c-.9 0-1.6 0-2.2 0-.8 0-1.6.1-2.4.1-.7.1-1.3.2-1.9.3h-1c-1.1.1-1.8.7-2 1.9-.2.3-.3.7-.3 1l-.3 1.4c-.1 1-.1 2.4-.1 4.1 0 1.6 0 3.6.1 6-.1 2.3-.1 4.8-.1 7.5-.1 2.7-.1 5.6-.2 8.6 0 3-.2 6-.6 8.9-.4 3-.7 6-1.1 9-.3 3-.6 5.9-.8 8.7s-.3 5.4-.4 7.8c0 2.5.1 4.7.2 6.6.1 2 .3 3.9.4 5.7.2 1.8.4 3.3.7 4.4.2 1.1.3 2.1.3 2.9-.1 1-.1 1.8-.1 2.3 0 1.8 1.1 2.9 3.2 3.4 1.3.3 2.6.4 3.9.2 1-.1 2.1-.2 3.1-.4 1-.1 1.7-.2 2.3-.3.7 0 1.3-.1 1.9-.1.6-.1 1.2-.2 1.9-.3l.9-.1c.6-.2 1.1-.5 1.5-1s.5-1.1.4-1.7-.5-1.1-1-1.4-1.1-.5-1.7-.4l-1 .3c-.6.1-1.1.2-1.6.2-.5.1-1 .1-1.6.1-.7.1-1.6.2-2.7.3-1 .2-2.1.3-3.1.4-.6.1-1.2.1-1.8 0 0-.4 0-.8.1-1.3 0-1.1-.2-2.3-.4-3.7-.2-1.2-.4-2.6-.6-4.3s-.3-3.5-.4-5.5c-.1-1.9-.2-3.9-.2-6.2.1-2.4.2-4.9.3-7.6.1-1.3.2-2.7.4-4.1l.9-.1c.8-.2 1.5-.3 2.3-.4h1.9c.9.1 1.7.1 2.5.1.9 0 1.8-.2 2.9-.5l1.3-.3c.7-.2 1.2-.5 1.5-1.1s.4-1.1.2-1.7c-.1-.6-.5-1-1-1.4-.6-.3-1.1-.4-1.7-.2l-1.4.4c-.8.2-1.4.3-1.9.3s-1.2 0-1.9-.1c-.9-.1-1.8-.1-2.7 0-.8.1-1.5.2-2.3.4.3-2.9.6-5.7 1-8.6.4-3 .6-6.2.7-9.4s.1-6.1.2-8.6c0-2.7 0-5.2.1-7.6 0-2.4 0-4.3-.1-5.9 0-1.5 0-2.7.1-3.6v-.4c.4-.1.9-.1 1.4-.1.7-.1 1.3-.1 1.8-.1h2.3l6.8-.1c.6 0 1.1-.2 1.6-.7.5-.4.7-1 .7-1.6s-.2-1.2-.7-1.6c-.6-.7-1.1-.9-1.7-.9m56.7 1.6c-.5-.4-1.1-.6-1.7-.5h-1c-.7.1-1.8.1-3.2.2-1.5 0-3 0-4.6 0-1.7 0-3.7.2-6 .4-2.2.2-4.5.4-6.8.7-2.2.3-4.1.5-5.9.6-1.9.1-3.5.2-4.9.3-1.5.1-2.8.3-4 .5l-1.5.4c-.6.1-1.1.4-1.4 1s-.4 1.1-.3 1.8c.1.6.5 1.1 1 1.4.6.3 1.1.4 1.7.3l1.5-.4c.9-.3 2-.4 3.2-.4 1.3-.1 2.9-.2 4.8-.3s4-.3 6.2-.6c.3 0 .5 0 .8-.1-.1.2-.1.3-.1.4l.1 6.1c0 1.3.1 2.6.3 3.9.1 1.3.2 2.8.3 4.3v5.1c0 1.9.1 3.8.2 5.8s.2 4 .3 6.1c.1 1.9.2 4 .2 6.1-.1 2.1-.1 4.2-.1 6.4s-.1 4.4-.1 6.6c-.1 2.2-.1 4.3-.2 6.1-.1 1.9-.1 3.9-.2 5.8s-.1 3.7-.2 5.5c-.2 1.9-.2 3.5-.2 4.8.1 1.4.2 2.6.2 3.8.1 1 .2 1.8.2 2.4v.8c0 .7.3 1.2.7 1.6.5.4 1 .6 1.7.6.6 0 1.2-.2 1.6-.7s.6-1 .6-1.6v-.9c0-.6-.1-1.4-.1-2.5s-.1-2.3-.2-3.6c0-1.3.1-2.7.2-4.4.1-1.8.1-3.7.2-5.7.1-1.9.1-3.8.2-5.8.1-1.9.1-3.9.2-6.1s.1-4.4.1-6.6.1-4.3.1-6.4c0-2.3-.1-4.4-.2-6.5-.1-1.9-.2-3.9-.3-6-.1-2-.2-3.9-.2-5.7 0-1.9 0-3.6 0-5.2-.1-1.6-.2-3.1-.3-4.6-.2-1.3-.3-2.4-.3-3.5l-.1-6.1c0-.2 0-.5-.1-.8.5-.1 1-.1 1.5-.1 2.1-.3 4-.4 5.5-.4h4.8c1.6 0 2.8-.1 3.6-.2h1c.6-.1 1.1-.4 1.5-.8.4-.5.6-1 .5-1.7-.1-.6-.4-1.2-.8-1.6"/></svg>