<?xml version="1.0" encoding="utf-8"?>
<!-- Generator: Adobe Illustrator 22.1.0, SVG Export Plug-In . SVG Version: 6.00 Build 0)  -->
<svg version="1.1" id="Layer_1" xmlns="http://www.w3.org/2000/svg" xmlns:xlink="http://www.w3.org/1999/xlink" x="0px" y="0px"
	 viewBox="0 0 1586.201 765.606" style="enable-background:new 0 0 1586.201 765.606;" xml:space="preserve">
<style type="text/css">
	.st0{fill:#FFC425;}
	.st1{fill:#FFFFFF;}
</style>
<g>
	<g>
		<path class="st0" d="M275.624,569.806c-4.005-21.559-10.273-41.151-18.126-56.662c-4.12-8.141-8.697-15.227-13.602-21.059
			c-5.094-6.05-10.583-10.807-16.328-14.146c-32.874-19.106-64.644-28.793-94.414-28.793c-19.314,0-37.547,4.104-54.182,12.187
			c-15.376,7.465-29.051,18.135-40.648,31.707c-5.482,6.419-10.455,13.456-14.783,20.925c-4.228,7.318-7.858,15.082-10.792,23.078
			c-5.811,15.83-8.879,32.741-8.879,48.907c0,13.915,2.189,27.113,6.503,39.231c4.523,12.683,11.281,23.842,20.078,33.162
			c9.388,9.949,21.018,17.69,34.567,23.006c14.643,5.748,31.56,8.663,50.284,8.664c1.638,0,3.322-0.027,4.985-0.07
			c0.693-0.018,1.357-0.03,2.047-0.03c16.402,0,31.838,5.262,47.187,16.086c13.152,9.278,24.139,21.122,33.827,31.567
			c12.026,12.969,22.415,24.173,31.615,24.173h0.007c2.744,0,5.348-0.974,7.964-2.984c2.912-2.225,5.861-5.795,8.787-10.606
			c6.354-10.495,12.858-27.229,19.875-51.145c5.263-17.966,8.383-39.306,9.028-61.7
			C281.247,613.442,279.522,590.791,275.624,569.806"/>
		<g>
			<path d="M271.597,697.004c-7.018,23.916-13.522,40.649-19.876,51.144c-2.926,4.811-5.874,8.381-8.786,10.606
				c-2.617,2.01-5.221,2.984-7.965,2.984h-0.007c-9.2,0-19.588-11.205-31.615-24.174c-9.688-10.445-20.675-22.288-33.827-31.567
				c-15.349-10.825-30.785-16.086-47.187-16.086c-0.69,0-1.354,0.012-2.047,0.03c-1.663,0.044-3.347,0.071-4.985,0.071
				c-18.723,0-35.64-2.916-50.284-8.664c-13.548-5.317-25.179-13.057-34.567-23.007c-8.798-9.32-15.555-20.479-20.078-33.162
				c-4.314-12.117-6.503-25.316-6.503-39.23c0-16.166,3.068-33.077,8.879-48.908c2.933-7.996,6.564-15.76,10.792-23.078
				c4.328-7.47,9.301-14.505,14.783-20.924c11.597-13.572,25.272-24.242,40.648-31.708c16.636-8.083,34.868-12.186,54.182-12.186
				c29.77,0,61.54,9.687,94.414,28.793c5.745,3.339,11.234,8.097,16.328,14.146c4.905,5.832,9.482,12.919,13.602,21.059
				c7.853,15.512,14.121,35.104,18.126,56.662c3.899,20.984,5.623,43.636,5.001,65.498
				C279.98,657.697,276.859,679.037,271.597,697.004 M279.421,569.098c-4.072-21.91-10.456-41.865-18.48-57.702
				c-8.812-17.415-19.394-29.799-31.434-36.795c-33.473-19.455-65.892-29.316-96.353-29.317c-19.905,0-38.701,4.228-55.874,12.572
				c-15.851,7.704-29.95,18.696-41.889,32.678c-5.637,6.593-10.744,13.83-15.18,21.495c-4.355,7.505-8.086,15.477-11.092,23.685
				c-2.987,8.127-5.275,16.519-6.805,24.943C0.785,569.105,0,577.618,0,585.95c0,14.357,2.274,27.994,6.743,40.526
				c4.698,13.192,11.73,24.804,20.896,34.517c9.778,10.368,21.877,18.428,35.97,23.952c15.092,5.921,32.488,8.926,51.693,8.926
				c1.67,0,3.382-0.025,5.093-0.068c0.651-0.015,1.282-0.023,1.939-0.023c35.139,0,59.003,25.734,78.184,46.416
				c6.234,6.727,12.125,13.077,17.655,17.657c6.382,5.29,11.717,7.753,16.79,7.754h0.014c3.57-0.006,7.04-1.275,10.314-3.781
				c3.336-2.56,6.518-6.38,9.732-11.678c6.535-10.786,13.173-27.817,20.278-52.057C286.065,661.384,287.602,613.168,279.421,569.098
				"/>
			<path d="M79.871,563.75c-0.061,0.886-0.188,1.654-0.39,2.332c-0.128,0.808-0.289,1.595-0.49,2.333
				c-0.201,0.876-0.382,1.721-0.543,2.536c-0.162,0.808-0.342,1.623-0.537,2.433c-0.067,0.678-0.229,1.357-0.497,2.027
				c-0.261,0.752-0.538,1.53-0.799,2.339c-0.335,0.812-0.638,1.627-0.899,2.435c-0.268,0.678-0.556,1.289-0.852,1.83
				c-0.307,0.546-0.698,1.154-1.174,1.831c-0.469,0.678-0.906,1.259-1.315,1.734c-0.396,0.543-0.805,1.158-1.215,1.829
				c-0.201,0.275-0.503,0.653-0.913,1.127c-0.335,0.342-0.643,0.678-0.913,1.02v-0.305c-0.006-0.131-0.006-0.239-0.006-0.306
				l-0.174-18.006c-0.015-1.892-0.028-3.78-0.046-5.67c-0.021-1.822,0-3.607,0.046-5.369c0.054-1.752,0.073-3.339,0.054-4.748
				c-0.007-1.349,0.013-2.463,0.073-3.345c0-0.879,0.053-1.587,0.181-2.127c0-0.336,0.068-0.641,0.201-0.913
				c0.552,0.127,1.169,0.228,1.853,0.286c0.618,0.13,1.235,0.298,1.852,0.489c0.686,0.262,1.309,0.56,1.853,0.897
				c0.556,0.329,1.033,0.634,1.45,0.895c0.341,0.269,0.656,0.604,0.932,1c0.342,0.406,0.691,0.839,1.041,1.304
				c0.281,0.545,0.523,1.114,0.731,1.719c0.215,0.54,0.355,1.044,0.428,1.51c0.007,0.745,0.048,1.486,0.128,2.231
				c0.007,0.742,0.015,1.479,0.02,2.222C79.958,562.065,79.93,562.874,79.871,563.75 M83.501,556.737
				c-0.079-0.942-0.295-1.852-0.645-2.728c-0.281-0.808-0.664-1.543-1.146-2.214c-0.416-0.671-0.839-1.275-1.248-1.809
				c-0.49-0.537-1.014-1.04-1.558-1.507c-0.557-0.396-1.153-0.795-1.812-1.198c-0.65-0.4-1.428-0.758-2.315-1.091
				c-0.972-0.396-1.932-0.621-2.885-0.681c-0.685-0.125-1.337-0.255-1.953-0.386c-0.684-0.125-1.308-0.256-1.852-0.387
				c-0.342-0.064-0.624-0.201-0.825-0.398l-0.719-0.604c-0.423-0.259-0.886-0.359-1.395-0.286c-0.51,0.071-0.927,0.292-1.229,0.665
				c-0.295,0.376-0.416,0.816-0.348,1.318c0.072,0.503,0.321,0.926,0.73,1.258l0.625,0.503c0.342,0.265,0.731,0.497,1.141,0.695
				c-0.141,0.342-0.242,0.749-0.302,1.218c-0.06,0.678-0.121,1.521-0.181,2.534c-0.06,0.943-0.081,2.125-0.075,3.544
				c0.021,1.349,0,2.901-0.046,4.657c-0.062,1.751-0.074,3.607-0.054,5.563c0.013,1.892,0.041,3.744,0.054,5.567l0.173,18.011
				c0.021,2.091,0.074,3.98,0.156,5.664c0.087,1.618,0.127,3.242,0.147,4.856c0.08,1.557,0.167,3.003,0.248,4.355
				c0.08,1.342,0.134,2.524,0.141,3.536c0.073,0.877,0.079,1.721,0.02,2.53c-0.06,0.808-0.094,1.516-0.081,2.127l0.014,1.822
				c0.014,0.608,0.014,1.211,0.019,1.823c-0.06,0.67-0.093,1.247-0.087,1.721l0.007,0.709c0.007,0.473,0.194,0.889,0.584,1.257
				c0.376,0.367,0.806,0.552,1.282,0.549c0.483-0.007,0.907-0.195,1.282-0.575c0.367-0.373,0.557-0.794,0.55-1.268l-0.007-0.708
				c-0.006-0.406,0.026-0.909,0.087-1.517c-0.006-0.671-0.013-1.349-0.019-2.023l-0.015-1.826c0-0.535,0.021-1.18,0.087-1.922
				c0.056-0.875,0.049-1.821-0.032-2.835c-0.006-1.007-0.054-2.189-0.134-3.537c-0.087-1.349-0.168-2.797-0.249-4.349
				c-0.012-1.554-0.068-3.07-0.147-4.557c0.475-0.137,0.851-0.38,1.12-0.722l0.812-1.218c0.47-0.678,0.98-1.288,1.523-1.835
				c0.61-0.678,1.067-1.292,1.369-1.832c0.302-0.541,0.624-1.021,0.96-1.429c0.47-0.544,0.959-1.171,1.47-1.886
				c0.503-0.715,0.958-1.406,1.362-2.089c0.335-0.672,0.672-1.454,1.006-2.33c0.336-0.815,0.638-1.662,0.906-2.544
				c0.328-0.808,0.631-1.593,0.899-2.332c0.263-0.816,0.497-1.66,0.697-2.536c0.122-0.816,0.276-1.604,0.437-2.389
				c0.162-0.772,0.35-1.567,0.545-2.382c0.195-0.805,0.355-1.621,0.49-2.43c0.195-0.808,0.34-1.72,0.43-2.735
				c0.093-1.013,0.14-1.959,0.126-2.835c-0.007-0.815-0.014-1.623-0.02-2.433C83.541,558.12,83.508,557.415,83.501,556.737"/>
			<path d="M108.961,588.777c-0.135,0.816-0.154,1.859-0.074,3.141c0.007,1.08-0.014,2.194-0.076,3.339
				c-0.052,1.151-0.112,2.262-0.173,3.345c0.007,1.144-0.013,2.188-0.073,3.137c0.007,0.872-0.014,1.718-0.08,2.533
				c-0.054,0.808-0.087,1.715-0.074,2.728c0.013,0.875-0.02,1.684-0.074,2.433c-0.06,0.739-0.121,1.416-0.187,2.026
				c0.006,0.605-0.06,1.181-0.188,1.715c-0.067,0.48-0.236,1.083-0.497,1.828c-0.268,0.745-0.531,1.355-0.805,1.829
				c-0.201,0.272-0.511,0.546-0.913,0.818c-0.409,0.343-0.892,0.581-1.429,0.722c-0.416,0.076-0.758,0.107-1.027,0.114
				c-0.276-0.063-0.517-0.162-0.726-0.299c-0.207-0.201-0.381-0.406-0.521-0.603c-0.135-0.336-0.248-0.635-0.309-0.91
				c-0.076-0.462-0.189-0.943-0.323-1.41c-0.073-0.406-0.181-0.838-0.323-1.318c-0.148-0.534-0.289-1.07-0.423-1.61
				c-0.154-0.539-0.255-1.174-0.327-1.923c-0.148-0.869-0.256-1.684-0.33-2.422c-0.155-0.742-0.228-1.481-0.228-2.228
				c-0.081-0.738-0.188-1.647-0.337-2.721c-0.08-1.013-0.16-2.097-0.234-3.241c-0.079-1.013-0.162-2.057-0.235-3.133
				c-0.079-0.944-0.127-1.957-0.141-3.041c-0.074-1.205-0.12-2.386-0.133-3.536c-0.074-1.412-0.162-2.594-0.235-3.539
				c-0.013-1.212-0.061-2.46-0.14-3.742c-0.082-1.281-0.162-2.529-0.242-3.744c-0.148-1.074-0.228-2.225-0.235-3.436
				c-0.021-1.281-0.026-2.53-0.039-3.744c-0.082-1.073-0.122-2.128-0.128-3.14l-0.027-2.524c-0.014-0.678-0.014-1.583-0.021-2.734
				c-0.012-1.078,0.007-1.892,0.075-2.433c-0.007-0.671,0.019-1.312,0.087-1.919c-0.006-0.544,0.021-1.114,0.087-1.717
				c0.122-0.678,0.255-1.387,0.383-2.131c0.201-0.748,0.469-1.493,0.805-2.235c0.337-0.677,0.705-1.187,1.108-1.53
				c0.416-0.47,0.819-0.849,1.228-1.124c0.268-0.204,0.545-0.312,0.812-0.312c0.417-0.004,0.792,0.063,1.135,0.194l0.718,0.292
				c0.274,0.066,0.591,0.1,0.932,0.1c0.068,0.198,0.142,0.366,0.208,0.503l0.523,0.803c0.343,0.466,0.591,0.938,0.726,1.409
				c0.215,0.466,0.355,0.94,0.423,1.413c0.147,0.473,0.22,0.839,0.227,1.108c0,0.546,0.035,1.08,0.115,1.623
				c0.068,0.54,0.107,1.141,0.121,1.815c0.074,0.678,0.181,1.386,0.323,2.125c0.146,0.671,0.222,1.282,0.222,1.821
				c0.073,0.604,0.153,1.413,0.234,2.426c0.141,0.809,0.215,1.547,0.228,2.225c0,0.742-0.026,1.517-0.079,2.325
				c0.007,0.879,0.039,1.756,0.121,2.631c0.081,0.875,0.12,1.725,0.134,2.53c0.006,0.878,0.047,1.718,0.121,2.527
				c0.007,0.744,0.054,1.553,0.128,2.428c0.013,0.947,0.053,1.923,0.133,2.929c0.075,0.953,0.121,1.96,0.135,3.04
				C109.048,587.358,109.022,588.173,108.961,588.777 M112.605,583.077c-0.087-1.01-0.128-1.953-0.14-2.829
				c-0.074-0.947-0.115-1.822-0.121-2.631c-0.074-0.67-0.12-1.419-0.127-2.228c-0.013-0.939-0.047-1.852-0.128-2.728
				c-0.074-0.808-0.121-1.617-0.128-2.425c0.062-0.816,0.087-1.591,0.081-2.333c-0.007-0.738-0.087-1.584-0.227-2.53
				c-0.082-1.007-0.156-1.815-0.229-2.426c-0.074-0.672-0.154-1.38-0.228-2.12c-0.14-0.607-0.255-1.211-0.323-1.819
				c-0.073-0.675-0.147-1.282-0.221-1.819c-0.005-0.47-0.013-0.912-0.013-1.315c-0.007-0.544-0.114-1.181-0.322-1.923
				c-0.148-0.671-0.323-1.313-0.537-1.917c-0.288-0.67-0.625-1.342-1.047-2.013l-0.517-0.802c-0.416-0.671-1.04-0.969-1.859-0.896
				c-0.215-0.611-0.632-1.007-1.247-1.205l-0.719-0.295c-0.752-0.259-1.543-0.389-2.369-0.383c-1.019,0.011-1.939,0.322-2.764,0.93
				c-0.679,0.419-1.323,0.966-1.934,1.644c-0.678,0.684-1.248,1.53-1.717,2.544c-0.476,0.883-0.805,1.831-0.999,2.845
				c-0.263,0.947-0.43,1.792-0.49,2.53c-0.128,0.749-0.195,1.457-0.187,2.134c0.007,0.534-0.014,1.107-0.082,1.715
				c-0.066,0.678-0.094,1.623-0.08,2.835c0.014,1.152,0.02,2.023,0.034,2.631l0.021,2.533c0.013,1.014,0.054,2.125,0.133,3.339
				c0.007,1.146,0.021,2.325,0.034,3.536c0.015,1.288,0.094,2.53,0.243,3.744c0.08,1.148,0.154,2.326,0.24,3.544
				c0.074,1.349,0.128,2.59,0.135,3.742c0.079,1.006,0.161,2.191,0.24,3.54c0.007,1.147,0.054,2.362,0.135,3.637
				c0.013,1.08,0.054,2.093,0.134,3.04c0.073,1.007,0.154,2.056,0.241,3.134c0.075,1.151,0.155,2.296,0.236,3.436
				c0.148,1.084,0.261,1.953,0.335,2.63c0.074,0.809,0.148,1.618,0.223,2.427c0.147,0.742,0.254,1.516,0.334,2.319
				c0.141,0.883,0.288,1.661,0.429,2.325c0.142,0.54,0.283,1.083,0.43,1.617c0.134,0.54,0.248,1.013,0.316,1.421
				c0.147,0.395,0.248,0.8,0.321,1.204c0.148,0.611,0.356,1.182,0.631,1.716c0.349,0.742,0.852,1.382,1.503,1.908
				c0.658,0.539,1.429,0.867,2.328,0.99c0.886,0.132,1.778,0.089,2.658-0.123c0.96-0.279,1.851-0.692,2.664-1.239
				c0.818-0.614,1.457-1.292,1.932-2.046c0.403-0.607,0.772-1.424,1.108-2.43c0.329-0.954,0.563-1.759,0.69-2.443
				c0.062-0.605,0.121-1.244,0.188-1.923c0.061-0.671,0.121-1.379,0.181-2.128c0.068-0.808,0.089-1.721,0.082-2.733
				c0-0.94,0.019-1.785,0.08-2.524c0.06-0.815,0.087-1.69,0.08-2.638c0.054-0.946,0.081-1.959,0.074-3.032
				c0.054-1.152,0.107-2.295,0.175-3.447c0.047-1.144,0.074-2.331,0.06-3.536c-0.074-1.084-0.048-1.929,0.079-2.537
				c0.062-0.742,0.087-1.724,0.074-2.936C112.72,585.171,112.679,584.091,112.605,583.077"/>
			<path d="M154.476,549.191l-0.819,0.01c-0.55,0.071-1.41,0.114-2.569,0.124c-1.161,0.007-2.397,0.021-3.7,0.034
				c-1.368,0.01-2.971,0.131-4.819,0.345c-1.779,0.158-3.591,0.336-5.442,0.561c-1.706,0.217-3.275,0.365-4.712,0.448
				c-1.51,0.082-2.811,0.161-3.899,0.235c-1.168,0.08-2.221,0.225-3.181,0.437l-1.227,0.315c-0.484,0.074-0.86,0.328-1.121,0.772
				c-0.276,0.442-0.356,0.912-0.248,1.415c0.115,0.506,0.382,0.879,0.833,1.108c0.448,0.232,0.905,0.312,1.388,0.237l1.229-0.312
				c0.751-0.212,1.603-0.323,2.57-0.328c1.02-0.074,2.302-0.155,3.838-0.239c1.543-0.081,3.2-0.235,4.98-0.453
				c0.208,0,0.409-0.036,0.609-0.103c-0.067,0.134-0.1,0.234-0.1,0.301l0.046,4.858c0.014,1.014,0.087,2.058,0.235,3.134
				c0.081,1.081,0.161,2.225,0.242,3.436c0.013,1.288,0.025,2.631,0.04,4.05c0.021,1.487,0.067,3.034,0.148,4.651
				c0.08,1.62,0.168,3.244,0.254,4.862c0.074,1.546,0.128,3.17,0.148,4.848c-0.054,1.691-0.094,3.395-0.107,5.117
				c-0.013,1.718-0.054,3.476-0.1,5.261c-0.054,1.792-0.107,3.425-0.162,4.913c-0.053,1.546-0.108,3.104-0.161,4.657
				c-0.054,1.487-0.107,2.932-0.16,4.352c-0.128,1.485-0.182,2.767-0.176,3.841c0.087,1.083,0.128,2.097,0.135,3.04
				c0.073,0.808,0.121,1.449,0.121,1.923v0.603c0.013,0.54,0.201,0.974,0.59,1.313c0.37,0.335,0.819,0.496,1.336,0.49
				c0.517,0,0.938-0.195,1.281-0.568c0.337-0.372,0.505-0.794,0.498-1.269l-0.007-0.708c0-0.473-0.054-1.144-0.129-2.026
				c-0.007-0.869-0.046-1.815-0.12-2.829c-0.013-1.013,0.04-2.194,0.168-3.543c0.054-1.418,0.107-2.937,0.16-4.56
				c0.056-1.48,0.109-3.033,0.162-4.651c0.053-1.486,0.108-3.12,0.154-4.911c0.054-1.789,0.087-3.544,0.108-5.265
				c0.02-1.718,0.054-3.42,0.107-5.111c-0.02-1.822-0.073-3.539-0.154-5.157c-0.088-1.554-0.176-3.138-0.256-4.755
				c-0.081-1.617-0.128-3.141-0.141-4.554c-0.012-1.482-0.033-2.865-0.04-4.15c-0.08-1.275-0.162-2.493-0.248-3.637
				c-0.14-1.013-0.22-1.953-0.227-2.832l-0.041-4.855c0-0.205-0.04-0.41-0.114-0.609c0.409-0.071,0.819-0.114,1.229-0.114
				c1.712-0.221,3.188-0.335,4.417-0.348c1.368-0.011,2.631-0.023,3.792-0.03c1.307-0.011,2.268-0.054,2.878-0.132l0.825-0.007
				c0.476-0.067,0.887-0.295,1.221-0.671c0.334-0.373,0.491-0.812,0.449-1.318c-0.04-0.503-0.248-0.926-0.631-1.262
				C155.482,549.252,155.02,549.121,154.476,549.191"/>
			<path d="M183.097,547.611l-5.435,0.05c-0.685,0.007-1.269,0.011-1.753,0.018c-0.611,0.006-1.268,0.043-1.945,0.113
				c-0.55,0.075-1.06,0.148-1.532,0.221l-0.825,0.008c-0.891,0.073-1.435,0.583-1.623,1.529c-0.14,0.276-0.208,0.541-0.201,0.816
				l-0.201,1.111c-0.06,0.814-0.082,1.892-0.067,3.241c0.007,1.282,0.033,2.865,0.046,4.757c-0.053,1.818-0.066,3.808-0.046,5.966
				c-0.04,2.164-0.093,4.459-0.143,6.885c0.022,2.43-0.126,4.792-0.448,7.087c-0.309,2.369-0.597,4.765-0.846,7.194
				c-0.262,2.368-0.463,4.677-0.604,6.939c-0.155,2.265-0.254,4.342-0.303,6.224c0.02,1.96,0.074,3.711,0.155,5.261
				c0.08,1.622,0.201,3.141,0.356,4.551c0.147,1.419,0.329,2.601,0.545,3.54c0.146,0.875,0.219,1.651,0.226,2.325
				c-0.068,0.812-0.086,1.415-0.08,1.821c0.007,1.424,0.872,2.325,2.591,2.709c1.027,0.256,2.054,0.319,3.079,0.176
				c0.819-0.074,1.637-0.184,2.457-0.329c0.758-0.073,1.368-0.148,1.852-0.219c0.544-0.007,1.055-0.042,1.537-0.11
				c0.475-0.073,0.986-0.15,1.53-0.218l0.723-0.11c0.478-0.138,0.875-0.414,1.176-0.823c0.303-0.401,0.402-0.863,0.288-1.369
				c-0.101-0.503-0.363-0.889-0.772-1.155c-0.417-0.262-0.866-0.363-1.341-0.293l-0.819,0.212c-0.482,0.073-0.905,0.124-1.282,0.16
				c-0.378,0.044-0.807,0.06-1.289,0.06c-0.542,0.079-1.262,0.152-2.147,0.232c-0.818,0.138-1.645,0.248-2.463,0.323
				c-0.475,0.07-0.959,0.076-1.437,0.013c0-0.336,0.027-0.672,0.096-1.013c-0.007-0.877-0.127-1.853-0.337-2.93
				c-0.14-0.943-0.294-2.087-0.442-3.439c-0.154-1.348-0.276-2.795-0.356-4.352c-0.079-1.479-0.128-3.134-0.148-4.956
				c0.049-1.882,0.128-3.909,0.248-6.073c0.062-1.077,0.148-2.158,0.283-3.238l0.711-0.115c0.619-0.137,1.235-0.241,1.853-0.315
				c0.544-0.007,1.054-0.007,1.53-0.013c0.685,0.064,1.341,0.087,1.958,0.081c0.685-0.007,1.471-0.148,2.35-0.423l1.026-0.218
				c0.551-0.138,0.938-0.43,1.176-0.869c0.241-0.442,0.301-0.896,0.188-1.368c-0.102-0.473-0.376-0.833-0.825-1.108
				c-0.45-0.262-0.915-0.323-1.39-0.184l-1.128,0.315c-0.61,0.144-1.127,0.212-1.537,0.212c-0.402,0.006-0.926-0.017-1.535-0.081
				c-0.693-0.06-1.404-0.058-2.155,0.019c-0.62,0.068-1.235,0.179-1.853,0.316c0.248-2.294,0.503-4.587,0.759-6.888
				c0.315-2.432,0.503-4.925,0.542-7.493c0.048-2.56,0.093-4.856,0.141-6.883c-0.021-2.157-0.015-4.177,0.041-6.076
				c-0.014-1.882-0.034-3.47-0.049-4.748c-0.007-1.221,0.02-2.164,0.082-2.835v-0.305c0.336-0.07,0.711-0.107,1.12-0.111
				c0.551-0.071,1.033-0.114,1.444-0.114c0.548-0.007,1.16-0.015,1.837-0.018l5.45-0.049c0.476-0.007,0.9-0.181,1.274-0.524
				c0.376-0.342,0.557-0.764,0.55-1.268c0-0.503-0.195-0.94-0.57-1.312C184.009,547.785,183.58,547.605,183.097,547.611"/>
			<path d="M228.341,548.903c-0.389-0.328-0.845-0.459-1.396-0.386l-0.819,0.007c-0.551,0.077-1.402,0.115-2.563,0.125
				c-1.167,0.007-2.396,0.02-3.697,0.033c-1.369,0.017-2.98,0.131-4.817,0.353c-1.78,0.151-3.598,0.335-5.437,0.553
				c-1.718,0.218-3.281,0.366-4.724,0.45c-1.504,0.08-2.804,0.16-3.899,0.234c-1.161,0.081-2.222,0.232-3.175,0.436l-1.235,0.315
				c-0.469,0.075-0.852,0.329-1.121,0.772c-0.267,0.442-0.342,0.913-0.241,1.416c0.106,0.507,0.383,0.88,0.832,1.107
				c0.442,0.232,0.913,0.312,1.388,0.238l1.229-0.312c0.753-0.211,1.61-0.321,2.563-0.328c1.027-0.075,2.308-0.154,3.846-0.239
				c1.543-0.08,3.201-0.228,4.979-0.453c0.207,0,0.409-0.036,0.617-0.104c-0.073,0.135-0.101,0.235-0.101,0.302l0.04,4.859
				c0.007,1.013,0.087,2.057,0.241,3.14c0.081,1.074,0.155,2.219,0.243,3.43c0.013,1.288,0.02,2.637,0.033,4.049
				c0.013,1.487,0.062,3.034,0.148,4.658c0.081,1.613,0.168,3.231,0.256,4.855c0.079,1.548,0.126,3.171,0.146,4.855
				c-0.059,1.684-0.087,3.389-0.107,5.111c-0.021,1.717-0.054,3.477-0.108,5.268c-0.046,1.784-0.099,3.42-0.159,4.906
				c-0.047,1.554-0.1,3.104-0.155,4.657c-0.053,1.487-0.107,2.933-0.16,4.351c-0.128,1.487-0.181,2.768-0.168,3.849
				c0.074,1.08,0.121,2.091,0.121,3.033c0.081,0.809,0.128,1.449,0.128,1.922l0.006,0.609c0.007,0.543,0.202,0.976,0.577,1.307
				c0.383,0.34,0.827,0.498,1.343,0.498c0.509-0.006,0.933-0.196,1.275-0.573c0.341-0.373,0.503-0.796,0.503-1.269l-0.013-0.708
				c0-0.473-0.04-1.145-0.115-2.02c-0.007-0.875-0.062-1.822-0.134-2.836c-0.013-1.013,0.053-2.188,0.175-3.544
				c0.053-1.419,0.107-2.936,0.162-4.552c0.053-1.487,0.106-3.04,0.159-4.664c0.055-1.481,0.101-3.115,0.161-4.906
				c0.048-1.781,0.082-3.536,0.101-5.264c0.014-1.718,0.053-3.419,0.101-5.107c-0.013-1.825-0.066-3.544-0.147-5.161
				c-0.086-1.554-0.168-3.137-0.248-4.754c-0.087-1.618-0.14-3.134-0.148-4.554c-0.012-1.482-0.027-2.865-0.04-4.147
				c-0.081-1.277-0.161-2.496-0.241-3.64c-0.148-1.011-0.221-1.952-0.23-2.832l-0.053-4.861c0-0.198-0.033-0.403-0.108-0.6
				c0.409-0.071,0.825-0.115,1.236-0.115c1.704-0.218,3.175-0.336,4.408-0.346c1.369-0.007,2.638-0.02,3.798-0.033
				c1.303-0.01,2.255-0.054,2.872-0.131l0.827-0.007c0.475-0.068,0.884-0.295,1.227-0.672c0.336-0.373,0.482-0.811,0.438-1.318
				C228.925,549.662,228.71,549.239,228.341,548.903"/>
		</g>
	</g>
</g>
<g>
	<g>
		<path d="M552.496,299.121h9.451c8.751,0,13.827,5.041,13.827,12.111v0.07c0,7.07-5.146,12.321-13.967,12.321h-9.311
			L552.496,299.121L552.496,299.121z M562.052,317.604c4.061,0,6.756-2.24,6.756-6.196v-0.069c0-3.921-2.695-6.196-6.756-6.196
			h-2.765v12.462L562.052,317.604L562.052,317.604z"/>
		<path d="M579.271,299.121h19.707v5.775h-12.986v3.711h11.761v5.355h-11.761v3.886h13.161v5.775h-19.882V299.121z"/>
		<path d="M600.76,319.983l3.78-4.516c2.416,1.926,5.111,2.94,7.946,2.94c1.82,0,2.801-0.63,2.801-1.68v-0.07
			c0-1.016-0.805-1.575-4.131-2.346c-5.215-1.189-9.241-2.66-9.241-7.7v-0.07c0-4.551,3.605-7.841,9.486-7.841
			c4.166,0,7.421,1.12,10.081,3.255l-3.396,4.796c-2.24-1.575-4.69-2.415-6.86-2.415c-1.646,0-2.45,0.7-2.45,1.575v0.07
			c0,1.12,0.84,1.609,4.235,2.38c5.636,1.225,9.136,3.045,9.136,7.631v0.07c0,5.005-3.955,7.98-9.906,7.98
			C607.901,324.044,603.771,322.679,600.76,319.983z"/>
		<path d="M624.595,311.442v-0.07c0-7.141,5.496-12.741,12.917-12.741c5.005,0,8.226,2.101,10.396,5.111l-5.11,3.955
			c-1.4-1.75-3.01-2.87-5.356-2.87c-3.43,0-5.845,2.905-5.845,6.476v0.069c0,3.676,2.415,6.546,5.845,6.546
			c2.556,0,4.061-1.189,5.531-2.975l5.11,3.64c-2.31,3.186-5.425,5.531-10.851,5.531
			C630.231,324.114,624.595,318.758,624.595,311.442z"/>
		<path d="M650.67,312.878v-13.757h6.896v13.616c0,3.536,1.785,5.216,4.516,5.216c2.73,0,4.515-1.61,4.515-5.04v-13.792h6.896
			v13.582c0,7.91-4.516,11.376-11.481,11.376S650.67,320.544,650.67,312.878z"/>
		<path d="M677.515,299.121h12.566c3.081,0,5.251,0.771,6.686,2.205c0.98,0.98,1.575,2.275,1.575,3.956v0.069
			c0,2.836-1.61,4.516-3.781,5.461c2.976,0.98,4.866,2.66,4.866,5.985v0.07c0,4.2-3.43,6.756-9.276,6.756h-12.636V299.121z
			 M688.401,308.888c2.065,0,3.221-0.7,3.221-2.136v-0.07c0-1.33-1.05-2.1-3.081-2.1h-4.41v4.306H688.401z M689.381,318.163
			c2.065,0,3.255-0.805,3.255-2.24v-0.07c0-1.33-1.05-2.205-3.326-2.205h-5.18v4.516h5.251V318.163z"/>
		<path d="M702.54,299.121h11.586c3.746,0,6.336,0.98,7.981,2.66c1.435,1.4,2.17,3.291,2.17,5.706v0.069
			c0,3.746-1.996,6.231-5.041,7.526l5.845,8.541h-7.841l-4.936-7.421h-0.07h-2.905v7.421h-6.791v-24.502H702.54z M713.811,310.883
			c2.31,0,3.64-1.12,3.64-2.905v-0.07c0-1.925-1.4-2.905-3.675-2.905h-4.445v5.881h4.48V310.883z"/>
		<path d="M727.705,299.121h19.707v5.775h-12.986v3.711h11.761v5.355h-11.761v3.886h13.161v5.775h-19.882L727.705,299.121
			L727.705,299.121z"/>
		<path d="M760.744,299.121h19.707v5.775h-12.986v3.711h11.761v5.355h-11.761v3.886h13.161v5.775h-19.882V299.121z"/>
		<path d="M784.089,299.121h6.791v18.552h11.866v5.951h-18.657L784.089,299.121L784.089,299.121z"/>
		<path d="M813.488,319.983l3.78-4.516c2.416,1.926,5.111,2.94,7.946,2.94c1.82,0,2.8-0.63,2.8-1.68v-0.07
			c0-1.016-0.805-1.575-4.13-2.346c-5.215-1.189-9.241-2.66-9.241-7.7v-0.07c0-4.551,3.605-7.841,9.486-7.841
			c4.166,0,7.421,1.12,10.081,3.255l-3.395,4.796c-2.24-1.575-4.691-2.415-6.861-2.415c-1.646,0-2.45,0.7-2.45,1.575v0.07
			c0,1.12,0.84,1.609,4.235,2.38c5.635,1.225,9.136,3.045,9.136,7.631v0.07c0,5.005-3.955,7.98-9.906,7.98
			C820.629,324.044,816.499,322.679,813.488,319.983z"/>
		<path d="M846.113,298.946h6.546l10.431,24.678h-7.281l-1.785-4.376h-9.451l-1.75,4.376h-7.141L846.113,298.946z M852.064,313.963
			l-2.73-6.966l-2.765,6.966H852.064z"/>
		<path d="M865.467,299.121h12.566c3.08,0,5.251,0.771,6.686,2.205c0.98,0.98,1.575,2.275,1.575,3.956v0.069
			c0,2.836-1.609,4.516-3.78,5.461c2.976,0.98,4.866,2.66,4.866,5.985v0.07c0,4.2-3.431,6.756-9.276,6.756h-12.636L865.467,299.121
			L865.467,299.121z M876.353,308.888c2.065,0,3.22-0.7,3.22-2.136v-0.07c0-1.33-1.05-2.1-3.08-2.1h-4.41v4.306H876.353z
			 M877.334,318.163c2.065,0,3.255-0.805,3.255-2.24v-0.07c0-1.33-1.051-2.205-3.326-2.205h-5.18v4.516h5.251V318.163z"/>
		<path d="M889.651,311.442v-0.07c0-7.035,5.671-12.741,13.231-12.741s13.161,5.636,13.161,12.672v0.069
			c0,7.036-5.67,12.742-13.231,12.742C895.252,324.114,889.651,318.479,889.651,311.442z M909.113,311.442v-0.07
			c0-3.535-2.555-6.615-6.301-6.615c-3.71,0-6.195,3.011-6.195,6.546v0.069c0,3.536,2.556,6.616,6.266,6.616
			C906.628,317.988,909.113,314.978,909.113,311.442z"/>
		<path d="M919.576,299.121h11.587c3.745,0,6.335,0.98,7.98,2.66c1.436,1.4,2.17,3.291,2.17,5.706v0.069
			c0,3.746-1.995,6.231-5.04,7.526l5.846,8.541h-7.841l-4.936-7.421h-0.07h-2.905v7.421h-6.791L919.576,299.121L919.576,299.121z
			 M930.848,310.883c2.311,0,3.641-1.12,3.641-2.905v-0.07c0-1.925-1.4-2.905-3.676-2.905h-4.445v5.881h4.48V310.883z"/>
		<path d="M954.436,299.121h7.176l5.846,9.486l5.846-9.486h7.176v24.503h-6.756v-14.071l-6.266,9.591h-0.14l-6.23-9.521v14.002
			h-6.651v-24.504H954.436z"/>
		<path d="M993.286,298.946h6.546l10.432,24.678h-7.281l-1.785-4.376h-9.451l-1.75,4.376h-7.141L993.286,298.946z M999.237,313.963
			l-2.73-6.966l-2.766,6.966H999.237z M997.452,291l6.195,1.995l-5.146,4.48h-4.69L997.452,291z"/>
		<path d="M1010.786,319.983l3.78-4.516c2.415,1.926,5.11,2.94,7.945,2.94c1.82,0,2.801-0.63,2.801-1.68v-0.07
			c0-1.016-0.806-1.575-4.131-2.346c-5.216-1.189-9.241-2.66-9.241-7.7v-0.07c0-4.551,3.605-7.841,9.486-7.841
			c4.166,0,7.421,1.12,10.081,3.255l-3.396,4.796c-2.24-1.575-4.69-2.415-6.86-2.415c-1.646,0-2.45,0.7-2.45,1.575v0.07
			c0,1.12,0.84,1.609,4.235,2.38c5.636,1.225,9.136,3.045,9.136,7.631v0.07c0,5.005-3.955,7.98-9.906,7.98
			C1017.927,324.044,1013.796,322.679,1010.786,319.983z"/>
		<path d="M1045.296,299.121h6.825v24.503h-6.825V299.121z"/>
		<path d="M1056.601,299.121h6.336l10.081,12.951v-12.951h6.721v24.503h-5.95l-10.467-13.441v13.441h-6.721L1056.601,299.121
			L1056.601,299.121z"/>
		<path d="M1090.062,305.072h-7.352v-5.951h21.492v5.951h-7.351v18.552h-6.79v-18.552H1090.062z"/>
		<path d="M1107.175,299.121h19.707v5.775h-12.986v3.711h11.762v5.355h-11.762v3.886h13.162v5.775h-19.883V299.121z"/>
		<path d="M1130.519,299.121h6.336l10.081,12.951v-12.951h6.721v24.503h-5.95l-10.467-13.441v13.441h-6.721L1130.519,299.121
			L1130.519,299.121z"/>
		<path d="M1156.139,319.983l3.78-4.516c2.415,1.926,5.11,2.94,7.945,2.94c1.82,0,2.801-0.63,2.801-1.68v-0.07
			c0-1.016-0.806-1.575-4.131-2.346c-5.216-1.189-9.241-2.66-9.241-7.7v-0.07c0-4.551,3.605-7.841,9.486-7.841
			c4.165,0,7.421,1.12,10.081,3.255l-3.396,4.796c-2.24-1.575-4.69-2.415-6.86-2.415c-1.646,0-2.45,0.7-2.45,1.575v0.07
			c0,1.12,0.84,1.609,4.235,2.38c5.636,1.225,9.136,3.045,9.136,7.631v0.07c0,5.005-3.955,7.98-9.906,7.98
			C1163.279,324.044,1159.149,322.679,1156.139,319.983z"/>
		<path d="M1179.974,311.442v-0.07c0-7.035,5.671-12.741,13.231-12.741s13.161,5.636,13.161,12.672v0.069
			c0,7.036-5.67,12.742-13.231,12.742C1185.574,324.114,1179.974,318.479,1179.974,311.442z M1199.436,311.442v-0.07
			c0-3.535-2.555-6.615-6.301-6.615c-3.71,0-6.195,3.011-6.195,6.546v0.069c0,3.536,2.556,6.616,6.266,6.616
			C1196.95,317.988,1199.436,314.978,1199.436,311.442z"/>
		<path d="M1208.182,316.798h6.931v6.826h-6.931V316.798z"/>
	</g>
</g>
<g>
	<path d="M1246.433,18.839l2.729-3.27c1.89,1.56,3.87,2.55,6.27,2.55c1.891,0,3.03-0.75,3.03-1.98v-0.06
		c0-1.17-0.72-1.77-4.229-2.67c-4.23-1.08-6.96-2.25-6.96-6.419V6.93c0-3.81,3.06-6.33,7.35-6.33c3.06,0,5.67,0.96,7.8,2.67
		l-2.4,3.48c-1.859-1.29-3.689-2.07-5.46-2.07c-1.77,0-2.699,0.81-2.699,1.83v0.06c0,1.38,0.899,1.83,4.529,2.76
		c4.26,1.11,6.66,2.64,6.66,6.3v0.06c0,4.17-3.18,6.51-7.71,6.51C1252.162,22.199,1248.952,21.089,1246.433,18.839z"/>
	<path d="M1266.473,16.229V5.82h4.56v8.969c0,2.16,1.02,3.27,2.76,3.27s2.85-1.11,2.85-3.27V5.82h4.561v16.079h-4.561v-2.28
		c-1.05,1.35-2.399,2.58-4.709,2.58C1268.483,22.199,1266.473,19.919,1266.473,16.229z"/>
	<path class="st1" d="M1293.501,13.949v-0.06c0-4.59,3.511-8.37,8.43-8.37c3.03,0,4.92,1.02,6.42,2.7l-2.79,3
		c-1.02-1.08-2.039-1.77-3.659-1.77c-2.28,0-3.9,2.01-3.9,4.38v0.06c0,2.46,1.59,4.44,4.08,4.44c1.53,0,2.58-0.66,3.689-1.71
		l2.67,2.7c-1.56,1.71-3.359,2.94-6.569,2.94C1297.041,22.259,1293.501,18.539,1293.501,13.949z"/>
	<path class="st1" d="M1311.411,5.82h4.56v3.24c0.931-2.22,2.431-3.66,5.13-3.54v4.77h-0.239c-3.03,0-4.891,1.83-4.891,5.669v5.94
		h-4.56V5.82z"/>
	<path class="st1" d="M1323.831,16.229V5.82h4.561v8.969c0,2.16,1.02,3.27,2.76,3.27c1.739,0,2.85-1.11,2.85-3.27V5.82h4.56v16.079
		h-4.56v-2.28c-1.05,1.35-2.4,2.58-4.71,2.58C1325.841,22.199,1323.831,19.919,1323.831,16.229z"/>
	<path class="st1" d="M1340.271,26.609v-3.57c0.36,0.061,0.63,0.09,0.96,0.09c0.96,0,1.62-0.51,1.62-1.859V5.82h4.56v15.809
		c0,3.54-1.8,5.16-5.159,5.16C1341.411,26.789,1340.901,26.729,1340.271,26.609z M1342.731,0h4.8v4.05h-4.8V0z"/>
	<path class="st1" d="M1351.79,0h4.8v4.05h-4.8V0z M1351.91,5.82h4.56v16.079h-4.56V5.82z"/>
	<path class="st1" d="M1359.981,13.949v-0.06c0-4.59,3.27-8.37,7.949-8.37c5.37,0,7.83,4.17,7.83,8.729c0,0.36-0.03,0.78-0.06,1.2
		h-11.19c0.45,2.07,1.891,3.15,3.931,3.15c1.529,0,2.64-0.48,3.899-1.65l2.61,2.31c-1.5,1.86-3.66,3-6.57,3
		C1363.55,22.259,1359.981,18.869,1359.981,13.949z M1371.32,12.599c-0.271-2.04-1.471-3.42-3.391-3.42
		c-1.89,0-3.119,1.35-3.479,3.42H1371.32z"/>
	<path class="st1" d="M1379.151,5.82h4.56V8.1c1.05-1.35,2.399-2.58,4.71-2.58c3.449,0,5.46,2.28,5.46,5.97V21.9h-4.561v-8.97
		c0-2.16-1.02-3.27-2.76-3.27s-2.85,1.11-2.85,3.27v8.97h-4.56V5.82H1379.151z"/>
	<path class="st1" d="M1398.59,17.339v-7.62h-1.92V5.82h1.92V1.71h4.56v4.11h3.78v3.899h-3.78v6.87c0,1.05,0.45,1.56,1.47,1.56
		c0.84,0,1.59-0.21,2.25-0.57v3.66c-0.96,0.57-2.069,0.93-3.6,0.93C1400.48,22.168,1398.59,21.059,1398.59,17.339z"/>
	<path class="st1" d="M1409.063,13.949v-0.06c0-4.59,3.271-8.37,7.95-8.37c5.369,0,7.829,4.17,7.829,8.729
		c0,0.36-0.029,0.78-0.06,1.2h-11.189c0.449,2.07,1.89,3.15,3.93,3.15c1.53,0,2.64-0.48,3.899-1.65l2.61,2.31
		c-1.5,1.86-3.66,3-6.57,3C1412.633,22.259,1409.063,18.869,1409.063,13.949z M1420.402,12.599c-0.271-2.04-1.47-3.42-3.39-3.42
		c-1.891,0-3.12,1.35-3.48,3.42H1420.402z"/>
	<path d="M1437.983,17.339v-7.62h-1.92V5.82h1.92V1.71h4.56v4.11h3.78v3.899h-3.78v6.87c0,1.05,0.45,1.56,1.47,1.56
		c0.84,0,1.59-0.21,2.25-0.57v3.66c-0.96,0.57-2.069,0.93-3.6,0.93C1439.872,22.168,1437.983,21.059,1437.983,17.339z"/>
	<path d="M1448.455,13.949v-0.06c0-4.59,3.271-8.37,7.95-8.37c5.369,0,7.829,4.17,7.829,8.729c0,0.36-0.029,0.78-0.06,1.2h-11.189
		c0.449,2.07,1.89,3.15,3.93,3.15c1.53,0,2.64-0.48,3.899-1.65l2.61,2.31c-1.5,1.86-3.66,3-6.57,3
		C1452.026,22.259,1448.455,18.869,1448.455,13.949z M1459.795,12.599c-0.271-2.04-1.47-3.42-3.39-3.42
		c-1.891,0-3.12,1.35-3.48,3.42H1459.795z"/>
	<path d="M1471.014,13.739l-5.43-7.919h4.89l3,4.68l3.029-4.68h4.77l-5.43,7.83l5.67,8.25h-4.89l-3.24-5.01l-3.239,5.01h-4.77
		L1471.014,13.739z"/>
	<path d="M1484.994,17.339v-7.62h-1.92V5.82h1.92V1.71h4.56v4.11h3.78v3.899h-3.78v6.87c0,1.05,0.45,1.56,1.47,1.56
		c0.84,0,1.59-0.21,2.25-0.57v3.66c-0.96,0.57-2.069,0.93-3.6,0.93C1486.884,22.168,1484.994,21.059,1484.994,17.339z"/>
	<path d="M1496.574,16.229V5.82h4.56v8.969c0,2.16,1.021,3.27,2.76,3.27c1.74,0,2.851-1.11,2.851-3.27V5.82h4.56v16.079h-4.56v-2.28
		c-1.05,1.35-2.4,2.58-4.71,2.58C1498.584,22.199,1496.574,19.919,1496.574,16.229z"/>
	<path d="M1515.384,5.82h4.56v3.24c0.93-2.22,2.43-3.66,5.13-3.54v4.77h-0.24c-3.029,0-4.89,1.83-4.89,5.669v5.94h-4.56V5.82z"/>
	<path d="M1526.217,17.279v-0.06c0-3.51,2.67-5.13,6.479-5.13c1.62,0,2.79,0.27,3.93,0.66v-0.27c0-1.89-1.17-2.94-3.449-2.94
		c-1.74,0-2.971,0.33-4.44,0.87l-1.14-3.479c1.77-0.78,3.51-1.29,6.239-1.29c2.49,0,4.29,0.66,5.431,1.8
		c1.199,1.2,1.739,2.97,1.739,5.13v9.33h-4.409v-1.74c-1.11,1.23-2.641,2.04-4.86,2.04
		C1528.707,22.199,1526.217,20.459,1526.217,17.279z M1536.687,16.229v-0.81c-0.78-0.36-1.8-0.6-2.91-0.6
		c-1.95,0-3.149,0.78-3.149,2.22v0.06c0,1.23,1.02,1.95,2.489,1.95C1535.246,19.049,1536.687,17.879,1536.687,16.229z"/>
	<path d="M1202.228,35.82h4.56v3.239c0.93-2.22,2.43-3.659,5.13-3.539v4.77h-0.24c-3.03,0-4.89,1.83-4.89,5.67v5.939h-4.56V35.82z"
		/>
	<path d="M1213.54,43.95v-0.061c0-4.59,3.271-8.369,7.95-8.369c5.37,0,7.83,4.169,7.83,8.729c0,0.359-0.03,0.779-0.061,1.199
		h-11.189c0.45,2.07,1.89,3.15,3.93,3.15c1.53,0,2.64-0.48,3.9-1.65l2.609,2.311c-1.5,1.859-3.66,3-6.569,3
		C1217.11,52.259,1213.54,48.869,1213.54,43.95z M1224.88,42.599c-0.27-2.04-1.47-3.42-3.39-3.42c-1.89,0-3.12,1.351-3.479,3.42
		H1224.88z"/>
	<path d="M1231.45,49.769l1.95-3c1.739,1.26,3.569,1.92,5.069,1.92c1.32,0,1.92-0.479,1.92-1.2v-0.06c0-0.99-1.56-1.32-3.33-1.86
		c-2.25-0.659-4.8-1.71-4.8-4.829v-0.061c0-3.27,2.641-5.1,5.88-5.1c2.04,0,4.26,0.69,6,1.86l-1.74,3.149
		c-1.59-0.93-3.18-1.5-4.35-1.5c-1.11,0-1.68,0.48-1.68,1.11v0.06c0,0.9,1.529,1.32,3.27,1.92c2.25,0.75,4.86,1.83,4.86,4.77v0.061
		c0,3.569-2.67,5.189-6.15,5.189C1236.1,52.199,1233.58,51.449,1231.45,49.769z"/>
	<path d="M1246.811,47.279v-0.06c0-3.51,2.67-5.13,6.479-5.13c1.62,0,2.79,0.27,3.93,0.66v-0.271c0-1.89-1.17-2.939-3.45-2.939
		c-1.739,0-2.97,0.33-4.439,0.87l-1.14-3.48c1.77-0.779,3.51-1.29,6.239-1.29c2.49,0,4.29,0.66,5.43,1.801
		c1.2,1.199,1.74,2.97,1.74,5.129v9.33h-4.41v-1.74c-1.109,1.23-2.64,2.04-4.859,2.04
		C1249.3,52.199,1246.811,50.459,1246.811,47.279z M1257.279,46.229v-0.81c-0.779-0.36-1.8-0.601-2.909-0.601
		c-1.95,0-3.15,0.78-3.15,2.221v0.06c0,1.229,1.021,1.95,2.49,1.95C1255.84,49.049,1257.279,47.879,1257.279,46.229z"/>
	<path d="M1265.74,30h4.56v21.899h-4.56V30z"/>
	<path d="M1275.34,47.339v-7.62h-1.92V35.82h1.92v-4.11h4.56v4.11h3.779v3.899h-3.779v6.87c0,1.05,0.45,1.56,1.47,1.56
		c0.84,0,1.59-0.21,2.25-0.57v3.66c-0.96,0.57-2.07,0.93-3.6,0.93C1277.23,52.168,1275.34,51.059,1275.34,47.339z"/>
	<path d="M1286.079,47.279v-0.06c0-3.51,2.67-5.13,6.479-5.13c1.62,0,2.79,0.27,3.931,0.66v-0.271c0-1.89-1.17-2.939-3.45-2.939
		c-1.74,0-2.97,0.33-4.439,0.87l-1.141-3.48c1.771-0.779,3.51-1.29,6.24-1.29c2.489,0,4.289,0.66,5.43,1.801
		c1.2,1.199,1.739,2.97,1.739,5.129v9.33h-4.409v-1.74c-1.11,1.23-2.64,2.04-4.86,2.04
		C1288.569,52.199,1286.079,50.459,1286.079,47.279z M1296.549,46.229v-0.81c-0.78-0.36-1.8-0.601-2.91-0.601
		c-1.949,0-3.149,0.78-3.149,2.221v0.06c0,1.229,1.02,1.95,2.489,1.95C1295.109,49.049,1296.549,47.879,1296.549,46.229z"/>
	<path d="M1314.549,47.339v-7.62h-1.92V35.82h1.92v-4.11h4.56v4.11h3.78v3.899h-3.78v6.87c0,1.05,0.45,1.56,1.471,1.56
		c0.84,0,1.59-0.21,2.249-0.57v3.66c-0.96,0.57-2.069,0.93-3.6,0.93C1316.439,52.168,1314.549,51.059,1314.549,47.339z"/>
	<path d="M1325.022,43.95v-0.061c0-4.62,3.721-8.369,8.73-8.369c4.979,0,8.669,3.689,8.669,8.31v0.06c0,4.62-3.72,8.37-8.729,8.37
		C1328.712,52.259,1325.022,48.569,1325.022,43.95z M1337.922,43.95v-0.061c0-2.37-1.71-4.439-4.23-4.439
		c-2.609,0-4.17,2.01-4.17,4.38v0.06c0,2.37,1.71,4.439,4.23,4.439C1336.361,48.329,1337.922,46.319,1337.922,43.95z"/>
	<path d="M1345.001,43.889v-0.06c0-5.37,3.51-8.31,7.32-8.31c2.43,0,3.93,1.109,5.01,2.399V30h4.56v21.899h-4.56v-2.31
		c-1.11,1.5-2.64,2.609-5.01,2.609C1348.571,52.199,1345.001,49.259,1345.001,43.889z M1357.391,43.889v-0.06
		c0-2.67-1.77-4.44-3.899-4.44s-3.93,1.74-3.93,4.44v0.06c0,2.67,1.8,4.439,3.93,4.439S1357.391,46.559,1357.391,43.889z"/>
	<path d="M1365.192,43.95v-0.061c0-4.62,3.72-8.369,8.729-8.369c4.979,0,8.67,3.689,8.67,8.31v0.06c0,4.62-3.72,8.37-8.729,8.37
		C1368.881,52.259,1365.192,48.569,1365.192,43.95z M1378.091,43.95v-0.061c0-2.37-1.71-4.439-4.229-4.439
		c-2.61,0-4.17,2.01-4.17,4.38v0.06c0,2.37,1.71,4.439,4.229,4.439C1376.531,48.329,1378.091,46.319,1378.091,43.95z"/>
	<path d="M1384.631,49.769l1.95-3c1.739,1.26,3.569,1.92,5.069,1.92c1.32,0,1.92-0.479,1.92-1.2v-0.06c0-0.99-1.56-1.32-3.33-1.86
		c-2.25-0.659-4.8-1.71-4.8-4.829v-0.061c0-3.27,2.641-5.1,5.88-5.1c2.04,0,4.26,0.69,6,1.86l-1.74,3.149
		c-1.59-0.93-3.18-1.5-4.35-1.5c-1.11,0-1.68,0.48-1.68,1.11v0.06c0,0.9,1.529,1.32,3.27,1.92c2.25,0.75,4.86,1.83,4.86,4.77v0.061
		c0,3.569-2.67,5.189-6.15,5.189C1389.28,52.199,1386.761,51.449,1384.631,49.769z"/>
	<path d="M1410.16,30h4.56v21.899h-4.56V30z"/>
	<path d="M1418.23,43.95v-0.061c0-4.62,3.72-8.369,8.729-8.369c4.98,0,8.67,3.689,8.67,8.31v0.06c0,4.62-3.72,8.37-8.729,8.37
		C1421.92,52.259,1418.23,48.569,1418.23,43.95z M1431.129,43.95v-0.061c0-2.37-1.71-4.439-4.229-4.439c-2.61,0-4.17,2.01-4.17,4.38
		v0.06c0,2.37,1.71,4.439,4.229,4.439C1429.569,48.329,1431.129,46.319,1431.129,43.95z"/>
	<path d="M1437.67,49.769l1.949-3c1.74,1.26,3.57,1.92,5.07,1.92c1.319,0,1.92-0.479,1.92-1.2v-0.06c0-0.99-1.56-1.32-3.33-1.86
		c-2.25-0.659-4.8-1.71-4.8-4.829v-0.061c0-3.27,2.64-5.1,5.88-5.1c2.04,0,4.26,0.69,6,1.86l-1.74,3.149
		c-1.59-0.93-3.18-1.5-4.35-1.5c-1.11,0-1.68,0.48-1.68,1.11v0.06c0,0.9,1.529,1.32,3.27,1.92c2.25,0.75,4.859,1.83,4.859,4.77
		v0.061c0,3.569-2.67,5.189-6.149,5.189C1442.319,52.199,1439.8,51.449,1437.67,49.769z"/>
	<path d="M1461.73,49.769l1.949-3c1.74,1.26,3.57,1.92,5.07,1.92c1.32,0,1.92-0.479,1.92-1.2v-0.06c0-0.99-1.561-1.32-3.33-1.86
		c-2.25-0.659-4.8-1.71-4.8-4.829v-0.061c0-3.27,2.64-5.1,5.88-5.1c2.04,0,4.26,0.69,6,1.86l-1.74,3.149
		c-1.59-0.93-3.18-1.5-4.35-1.5c-1.11,0-1.68,0.48-1.68,1.11v0.06c0,0.9,1.529,1.32,3.27,1.92c2.25,0.75,4.859,1.83,4.859,4.77
		v0.061c0,3.569-2.67,5.189-6.149,5.189C1466.379,52.199,1463.859,51.449,1461.73,49.769z"/>
	<path d="M1477.09,47.279v-0.06c0-3.51,2.67-5.13,6.479-5.13c1.62,0,2.79,0.27,3.93,0.66v-0.271c0-1.89-1.17-2.939-3.449-2.939
		c-1.74,0-2.971,0.33-4.44,0.87l-1.14-3.48c1.77-0.779,3.51-1.29,6.239-1.29c2.49,0,4.29,0.66,5.431,1.801
		c1.199,1.199,1.739,2.97,1.739,5.129v9.33h-4.409v-1.74c-1.11,1.23-2.641,2.04-4.86,2.04
		C1479.58,52.199,1477.09,50.459,1477.09,47.279z M1487.56,46.229v-0.81c-0.78-0.36-1.8-0.601-2.91-0.601
		c-1.95,0-3.149,0.78-3.149,2.221v0.06c0,1.229,1.02,1.95,2.489,1.95C1486.119,49.049,1487.56,47.879,1487.56,46.229z"/>
	<path d="M1500.369,49.799v2.1h-4.56V30h4.56v8.13c1.11-1.5,2.64-2.609,5.01-2.609c3.75,0,7.32,2.939,7.32,8.31v0.06
		c0,5.37-3.511,8.31-7.32,8.31C1502.949,52.199,1501.449,51.089,1500.369,49.799z M1508.139,43.889v-0.06c0-2.67-1.8-4.44-3.93-4.44
		s-3.899,1.771-3.899,4.44v0.06c0,2.67,1.77,4.439,3.899,4.439S1508.139,46.589,1508.139,43.889z"/>
	<path d="M1515.278,43.95v-0.061c0-4.62,3.72-8.369,8.729-8.369c4.98,0,8.67,3.689,8.67,8.31v0.06c0,4.62-3.72,8.37-8.729,8.37
		C1518.969,52.259,1515.278,48.569,1515.278,43.95z M1528.178,43.95v-0.061c0-2.37-1.71-4.439-4.229-4.439
		c-2.61,0-4.17,2.01-4.17,4.38v0.06c0,2.37,1.71,4.439,4.229,4.439C1526.618,48.329,1528.178,46.319,1528.178,43.95z"/>
	<path d="M1535.979,35.82h4.56v3.239c0.93-2.22,2.43-3.659,5.13-3.539v4.77h-0.24c-3.029,0-4.89,1.83-4.89,5.67v5.939h-4.56V35.82z"
		/>
	<path d="M1547.291,43.95v-0.061c0-4.59,3.271-8.369,7.95-8.369c5.369,0,7.829,4.169,7.829,8.729c0,0.359-0.029,0.779-0.06,1.199
		h-11.189c0.449,2.07,1.89,3.15,3.93,3.15c1.53,0,2.64-0.48,3.899-1.65l2.61,2.311c-1.5,1.859-3.66,3-6.57,3
		C1550.861,52.259,1547.291,48.869,1547.291,43.95z M1558.631,42.599c-0.271-2.04-1.47-3.42-3.39-3.42
		c-1.891,0-3.12,1.351-3.48,3.42H1558.631z"/>
	<path d="M1565.201,49.769l1.949-3c1.74,1.26,3.57,1.92,5.07,1.92c1.319,0,1.92-0.479,1.92-1.2v-0.06c0-0.99-1.56-1.32-3.33-1.86
		c-2.25-0.659-4.8-1.71-4.8-4.829v-0.061c0-3.27,2.64-5.1,5.88-5.1c2.04,0,4.26,0.69,6,1.86l-1.74,3.149
		c-1.59-0.93-3.18-1.5-4.35-1.5c-1.11,0-1.68,0.48-1.68,1.11v0.06c0,0.9,1.529,1.32,3.27,1.92c2.25,0.75,4.859,1.83,4.859,4.77
		v0.061c0,3.569-2.67,5.189-6.149,5.189C1569.851,52.199,1567.331,51.449,1565.201,49.769z"/>
	<path d="M1580.262,54.869c2.069-0.21,3.09-1.26,2.939-2.97h-1.859v-4.8h4.859v4.05c0,3.96-1.979,5.55-5.55,5.609L1580.262,54.869z"
		/>
	<path d="M1228.856,73.95v-0.061c0-4.59,3.51-8.369,8.43-8.369c3.03,0,4.92,1.02,6.42,2.699l-2.79,3
		c-1.021-1.08-2.04-1.77-3.66-1.77c-2.279,0-3.899,2.01-3.899,4.38v0.06c0,2.46,1.59,4.439,4.08,4.439
		c1.529,0,2.579-0.659,3.689-1.709l2.67,2.699c-1.56,1.71-3.36,2.94-6.57,2.94C1232.396,82.259,1228.856,78.54,1228.856,73.95z"/>
	<path d="M1246.766,65.82h4.56v3.239c0.93-2.22,2.43-3.659,5.13-3.539v4.77h-0.24c-3.03,0-4.89,1.83-4.89,5.67v5.939h-4.56V65.82z"
		/>
	<path d="M1258.078,73.95v-0.061c0-4.59,3.271-8.369,7.95-8.369c5.37,0,7.83,4.169,7.83,8.729c0,0.359-0.03,0.779-0.061,1.199
		h-11.189c0.45,2.07,1.89,3.15,3.93,3.15c1.53,0,2.64-0.48,3.9-1.65l2.609,2.311c-1.5,1.859-3.66,3-6.569,3
		C1261.649,82.259,1258.078,78.869,1258.078,73.95z M1269.418,72.599c-0.27-2.04-1.47-3.42-3.39-3.42c-1.89,0-3.12,1.351-3.479,3.42
		H1269.418z"/>
	<path d="M1276.288,77.279v-0.06c0-3.51,2.67-5.13,6.479-5.13c1.62,0,2.79,0.27,3.931,0.66v-0.271c0-1.89-1.17-2.939-3.45-2.939
		c-1.74,0-2.97,0.33-4.439,0.87l-1.141-3.48c1.771-0.779,3.51-1.29,6.24-1.29c2.489,0,4.289,0.66,5.43,1.801
		c1.2,1.199,1.739,2.97,1.739,5.129v9.33h-4.409v-1.74c-1.11,1.23-2.64,2.04-4.86,2.04
		C1278.778,82.199,1276.288,80.459,1276.288,77.279z M1286.758,76.229v-0.81c-0.78-0.36-1.8-0.601-2.91-0.601
		c-1.949,0-3.149,0.78-3.149,2.221v0.06c0,1.229,1.02,1.95,2.489,1.95C1285.318,79.049,1286.758,77.879,1286.758,76.229z"/>
	<path d="M1295.008,65.82h4.56v2.279c1.051-1.35,2.4-2.579,4.71-2.579c3.45,0,5.46,2.279,5.46,5.97v10.409h-4.56v-8.97
		c0-2.16-1.021-3.27-2.76-3.27c-1.74,0-2.851,1.109-2.851,3.27v8.97h-4.56V65.82H1295.008z"/>
	<path d="M1312.978,73.889v-0.06c0-5.37,3.51-8.31,7.32-8.31c2.43,0,3.93,1.109,5.01,2.399V60h4.56v21.899h-4.56v-2.31
		c-1.11,1.5-2.64,2.609-5.01,2.609C1316.548,82.199,1312.978,79.259,1312.978,73.889z M1325.367,73.889v-0.06
		c0-2.67-1.77-4.44-3.899-4.44s-3.93,1.74-3.93,4.44v0.06c0,2.67,1.8,4.439,3.93,4.439S1325.367,76.559,1325.367,73.889z"/>
	<path d="M1333.167,73.95v-0.061c0-4.62,3.721-8.369,8.73-8.369c4.979,0,8.669,3.689,8.669,8.31v0.06c0,4.62-3.72,8.37-8.729,8.37
		C1336.858,82.259,1333.167,78.569,1333.167,73.95z M1346.068,73.95v-0.061c0-2.37-1.71-4.439-4.23-4.439
		c-2.609,0-4.17,2.01-4.17,4.38v0.06c0,2.37,1.71,4.439,4.23,4.439C1344.507,78.329,1346.068,76.319,1346.068,73.95z"/>
	<path d="M1362.747,76.229V65.82h4.56v8.97c0,2.159,1.02,3.27,2.76,3.27s2.85-1.11,2.85-3.27v-8.97h4.561v16.079h-4.561v-2.28
		c-1.05,1.351-2.399,2.58-4.709,2.58C1364.757,82.199,1362.747,79.919,1362.747,76.229z"/>
	<path d="M1381.557,65.82h4.56v2.279c1.05-1.35,2.399-2.579,4.71-2.579c3.449,0,5.46,2.279,5.46,5.97v10.409h-4.561v-8.97
		c0-2.16-1.02-3.27-2.76-3.27s-2.85,1.109-2.85,3.27v8.97h-4.56V65.82H1381.557z"/>
	<path d="M1399.286,77.279v-0.06c0-3.51,2.67-5.13,6.479-5.13c1.62,0,2.79,0.27,3.93,0.66v-0.271c0-1.89-1.17-2.939-3.449-2.939
		c-1.74,0-2.971,0.33-4.44,0.87l-1.14-3.48c1.77-0.779,3.51-1.29,6.239-1.29c2.49,0,4.29,0.66,5.431,1.801
		c1.199,1.199,1.739,2.97,1.739,5.129v9.33h-4.409v-1.74c-1.11,1.23-2.641,2.04-4.86,2.04
		C1401.776,82.199,1399.286,80.459,1399.286,77.279z M1409.756,76.229v-0.81c-0.78-0.36-1.8-0.601-2.91-0.601
		c-1.95,0-3.149,0.78-3.149,2.221v0.06c0,1.229,1.02,1.95,2.489,1.95C1408.316,79.049,1409.756,77.879,1409.756,76.229z"/>
	<path class="st0" d="M1426.286,73.889v-0.06c0-5.37,3.51-8.31,7.319-8.31c2.43,0,3.93,1.109,5.01,2.399V60h4.56v21.899h-4.56v-2.31
		c-1.11,1.5-2.64,2.609-5.01,2.609C1429.856,82.199,1426.286,79.259,1426.286,73.889z M1438.675,73.889v-0.06
		c0-2.67-1.77-4.44-3.899-4.44s-3.93,1.74-3.93,4.44v0.06c0,2.67,1.8,4.439,3.93,4.439S1438.675,76.559,1438.675,73.889z"/>
	<path class="st0" d="M1446.475,73.95v-0.061c0-4.59,3.271-8.369,7.95-8.369c5.369,0,7.829,4.169,7.829,8.729
		c0,0.359-0.029,0.779-0.06,1.199h-11.189c0.449,2.07,1.89,3.15,3.93,3.15c1.53,0,2.64-0.48,3.899-1.65l2.61,2.311
		c-1.5,1.859-3.66,3-6.57,3C1450.045,82.259,1446.475,78.869,1446.475,73.95z M1457.815,72.599c-0.271-2.04-1.47-3.42-3.39-3.42
		c-1.891,0-3.12,1.351-3.48,3.42H1457.815z"/>
	<path class="st0" d="M1465.855,60h4.56v21.899h-4.56V60z"/>
	<path class="st0" d="M1474.794,60h4.8v4.05h-4.8V60z M1474.914,65.82h4.56v16.079h-4.56V65.82z"/>
	<path class="st0" d="M1482.984,73.95v-0.061c0-4.59,3.51-8.369,8.43-8.369c3.03,0,4.92,1.02,6.42,2.699l-2.79,3
		c-1.02-1.08-2.04-1.77-3.66-1.77c-2.279,0-3.899,2.01-3.899,4.38v0.06c0,2.46,1.59,4.439,4.08,4.439
		c1.529,0,2.58-0.659,3.689-1.709l2.67,2.699c-1.56,1.71-3.359,2.94-6.569,2.94C1486.524,82.259,1482.984,78.54,1482.984,73.95z"/>
	<path class="st0" d="M1500.984,60h4.8v4.05h-4.8V60z M1501.105,65.82h4.56v16.079h-4.56V65.82z"/>
	<path class="st0" d="M1509.174,73.95v-0.061c0-4.62,3.72-8.369,8.729-8.369c4.98,0,8.67,3.689,8.67,8.31v0.06
		c0,4.62-3.72,8.37-8.729,8.37C1512.864,82.259,1509.174,78.569,1509.174,73.95z M1522.073,73.95v-0.061
		c0-2.37-1.71-4.439-4.229-4.439c-2.61,0-4.17,2.01-4.17,4.38v0.06c0,2.37,1.71,4.439,4.229,4.439
		C1520.514,78.329,1522.073,76.319,1522.073,73.95z"/>
	<path class="st0" d="M1528.613,79.769l1.949-3c1.74,1.26,3.57,1.92,5.07,1.92c1.319,0,1.92-0.479,1.92-1.2v-0.06
		c0-0.99-1.56-1.32-3.33-1.86c-2.25-0.659-4.8-1.71-4.8-4.829v-0.061c0-3.27,2.64-5.1,5.88-5.1c2.04,0,4.26,0.69,6,1.86l-1.74,3.149
		c-1.59-0.93-3.18-1.5-4.35-1.5c-1.11,0-1.68,0.48-1.68,1.11v0.06c0,0.9,1.529,1.32,3.27,1.92c2.25,0.75,4.859,1.83,4.859,4.77
		v0.061c0,3.569-2.67,5.189-6.149,5.189C1533.263,82.199,1530.743,81.449,1528.613,79.769z"/>
	<path class="st0" d="M1543.974,77.279v-0.06c0-3.51,2.67-5.13,6.479-5.13c1.62,0,2.79,0.27,3.93,0.66v-0.271
		c0-1.89-1.17-2.939-3.449-2.939c-1.74,0-2.971,0.33-4.44,0.87l-1.14-3.48c1.77-0.779,3.51-1.29,6.239-1.29
		c2.49,0,4.29,0.66,5.431,1.801c1.199,1.199,1.739,2.97,1.739,5.129v9.33h-4.409v-1.74c-1.11,1.23-2.641,2.04-4.86,2.04
		C1546.464,82.199,1543.974,80.459,1543.974,77.279z M1554.443,76.229v-0.81c-0.78-0.36-1.8-0.601-2.91-0.601
		c-1.95,0-3.149,0.78-3.149,2.221v0.06c0,1.229,1.02,1.95,2.489,1.95C1553.003,79.049,1554.443,77.879,1554.443,76.229z"/>
	<path d="M1204.151,103.95v-0.061c0-4.59,3.271-8.369,7.95-8.369c5.37,0,7.83,4.169,7.83,8.729c0,0.359-0.03,0.779-0.061,1.199
		h-11.189c0.45,2.07,1.89,3.15,3.93,3.15c1.53,0,2.64-0.48,3.9-1.65l2.609,2.311c-1.5,1.859-3.66,3-6.569,3
		C1207.721,112.259,1204.151,108.869,1204.151,103.95z M1215.49,102.599c-0.27-2.04-1.47-3.42-3.39-3.42
		c-1.89,0-3.12,1.351-3.479,3.42H1215.49z"/>
	<path d="M1226.709,103.739l-5.43-7.919h4.89l3,4.68l3.03-4.68h4.77l-5.43,7.829l5.67,8.25h-4.89l-3.24-5.01l-3.239,5.01h-4.771
		L1226.709,103.739z"/>
	<path d="M1239.94,95.82h4.56v2.31c1.11-1.5,2.641-2.609,5.01-2.609c3.75,0,7.32,2.939,7.32,8.31v0.06c0,5.37-3.51,8.31-7.32,8.31
		c-2.43,0-3.93-1.109-5.01-2.399v6.899h-4.56V95.82z M1252.27,103.889v-0.06c0-2.67-1.801-4.44-3.931-4.44s-3.899,1.771-3.899,4.44
		v0.06c0,2.67,1.77,4.439,3.899,4.439S1252.27,106.589,1252.27,103.889z"/>
	<path d="M1259.409,103.95v-0.061c0-4.59,3.27-8.369,7.949-8.369c5.37,0,7.83,4.169,7.83,8.729c0,0.359-0.03,0.779-0.06,1.199
		h-11.19c0.45,2.07,1.891,3.15,3.931,3.15c1.529,0,2.64-0.48,3.899-1.65l2.61,2.311c-1.5,1.859-3.66,3-6.57,3
		C1262.979,112.259,1259.409,108.869,1259.409,103.95z M1270.749,102.599c-0.271-2.04-1.471-3.42-3.391-3.42
		c-1.89,0-3.119,1.351-3.479,3.42H1270.749z"/>
	<path d="M1278.579,95.82h4.56v3.239c0.931-2.22,2.431-3.659,5.13-3.539v4.77h-0.239c-3.03,0-4.891,1.83-4.891,5.67v5.939h-4.56
		V95.82z"/>
	<path d="M1291.209,90h4.8v4.05h-4.8V90z M1291.329,95.82h4.56v16.079h-4.56V95.82z"/>
	<path d="M1299.399,103.95v-0.061c0-4.59,3.27-8.369,7.949-8.369c5.37,0,7.83,4.169,7.83,8.729c0,0.359-0.03,0.779-0.06,1.199
		h-11.19c0.45,2.07,1.891,3.15,3.931,3.15c1.529,0,2.64-0.48,3.899-1.65l2.61,2.311c-1.5,1.859-3.66,3-6.57,3
		C1302.968,112.259,1299.399,108.869,1299.399,103.95z M1310.738,102.599c-0.271-2.04-1.471-3.42-3.391-3.42
		c-1.89,0-3.119,1.351-3.479,3.42H1310.738z"/>
	<path d="M1318.568,95.82h4.56v2.279c1.051-1.35,2.4-2.579,4.71-2.579c3.45,0,5.46,2.279,5.46,5.97v10.409h-4.56v-8.97
		c0-2.16-1.021-3.27-2.76-3.27c-1.74,0-2.851,1.109-2.851,3.27v8.97h-4.56V95.82H1318.568z"/>
	<path d="M1336.478,103.95v-0.061c0-4.59,3.511-8.369,8.43-8.369c3.03,0,4.92,1.02,6.42,2.699l-2.79,3
		c-1.02-1.08-2.039-1.77-3.659-1.77c-2.28,0-3.9,2.01-3.9,4.38v0.06c0,2.46,1.59,4.439,4.08,4.439c1.53,0,2.58-0.659,3.689-1.709
		l2.67,2.699c-1.56,1.71-3.359,2.94-6.569,2.94C1340.018,112.259,1336.478,108.54,1336.478,103.95z"/>
	<path d="M1354.478,90h4.8v4.05h-4.8V90z M1354.598,95.82h4.56v16.079h-4.56V95.82z"/>
	<path d="M1362.487,107.279v-0.06c0-3.51,2.67-5.13,6.479-5.13c1.62,0,2.79,0.27,3.931,0.66v-0.271c0-1.89-1.17-2.939-3.45-2.939
		c-1.74,0-2.97,0.33-4.439,0.87l-1.141-3.48c1.771-0.779,3.51-1.29,6.24-1.29c2.489,0,4.289,0.66,5.43,1.801
		c1.2,1.199,1.739,2.97,1.739,5.129v9.33h-4.409v-1.74c-1.11,1.23-2.64,2.04-4.86,2.04
		C1364.978,112.199,1362.487,110.459,1362.487,107.279z M1372.957,106.229v-0.81c-0.78-0.36-1.8-0.601-2.91-0.601
		c-1.949,0-3.149,0.78-3.149,2.221v0.06c0,1.229,1.02,1.95,2.489,1.95C1371.517,109.049,1372.957,107.879,1372.957,106.229z"/>
	<path d="M1401.818,109.589c-1.11,1.5-2.641,2.609-5.011,2.609c-3.75,0-7.319-2.939-7.319-8.31v-0.06c0-5.37,3.51-8.31,7.319-8.31
		c2.431,0,3.931,1.109,5.011,2.399v-2.1h4.56v20.879h-4.56V109.589z M1401.877,103.889v-0.06c0-2.67-1.77-4.44-3.9-4.44
		s-3.93,1.74-3.93,4.44v0.06c0,2.67,1.8,4.439,3.93,4.439C1400.108,108.329,1401.877,106.559,1401.877,103.889z"/>
	<path d="M1410.337,106.229V95.82h4.56v8.97c0,2.159,1.021,3.27,2.76,3.27c1.74,0,2.851-1.11,2.851-3.27v-8.97h4.56v16.079h-4.56
		v-2.28c-1.051,1.351-2.4,2.58-4.71,2.58C1412.347,112.199,1410.337,109.919,1410.337,106.229z"/>
	<path d="M1428.366,103.95v-0.061c0-4.59,3.271-8.369,7.95-8.369c5.369,0,7.829,4.169,7.829,8.729c0,0.359-0.029,0.779-0.06,1.199
		h-11.189c0.45,2.07,1.89,3.15,3.93,3.15c1.53,0,2.64-0.48,3.899-1.65l2.61,2.311c-1.5,1.859-3.66,3-6.57,3
		C1431.937,112.259,1428.366,108.869,1428.366,103.95z M1439.706,102.599c-0.271-2.04-1.47-3.42-3.39-3.42
		c-1.891,0-3.12,1.351-3.48,3.42H1439.706z"/>
	<path d="M1455.756,103.95v-0.061c0-4.59,3.51-8.369,8.43-8.369c3.03,0,4.92,1.02,6.42,2.699l-2.79,3
		c-1.02-1.08-2.04-1.77-3.66-1.77c-2.279,0-3.899,2.01-3.899,4.38v0.06c0,2.46,1.59,4.439,4.08,4.439
		c1.529,0,2.58-0.659,3.689-1.709l2.67,2.699c-1.56,1.71-3.359,2.94-6.569,2.94C1459.296,112.259,1455.756,108.54,1455.756,103.95z"
		/>
	<path d="M1472.439,103.95v-0.061c0-4.62,3.72-8.369,8.729-8.369c4.98,0,8.67,3.689,8.67,8.31v0.06c0,4.62-3.72,8.37-8.729,8.37
		C1476.129,112.259,1472.439,108.569,1472.439,103.95z M1485.338,103.95v-0.061c0-2.37-1.71-4.439-4.229-4.439
		c-2.61,0-4.17,2.01-4.17,4.38v0.06c0,2.37,1.71,4.439,4.229,4.439C1483.778,108.329,1485.338,106.319,1485.338,103.95z"/>
	<path d="M1493.139,95.82h4.56v2.279c1.05-1.35,2.43-2.579,4.74-2.579c2.1,0,3.689,0.93,4.529,2.55c1.41-1.65,3.09-2.55,5.28-2.55
		c3.39,0,5.43,2.039,5.43,5.909v10.47h-4.56v-8.97c0-2.16-0.96-3.27-2.67-3.27s-2.761,1.109-2.761,3.27v8.97h-4.56v-8.97
		c0-2.16-0.96-3.27-2.67-3.27s-2.76,1.109-2.76,3.27v8.97h-4.56V95.82H1493.139z"/>
	<path d="M1526.198,109.799v2.1h-4.56V90h4.56v8.13c1.11-1.5,2.64-2.609,5.01-2.609c3.75,0,7.32,2.939,7.32,8.31v0.06
		c0,5.37-3.511,8.31-7.32,8.31C1528.778,112.199,1527.278,111.089,1526.198,109.799z M1533.968,103.889v-0.06
		c0-2.67-1.8-4.44-3.93-4.44s-3.899,1.771-3.899,4.44v0.06c0,2.67,1.77,4.439,3.899,4.439S1533.968,106.589,1533.968,103.889z"/>
	<path d="M1541.979,90h4.8v4.05h-4.8V90z M1542.099,95.82h4.56v16.079h-4.56V95.82z"/>
	<path d="M1550.948,95.82h4.56v2.279c1.05-1.35,2.4-2.579,4.71-2.579c3.45,0,5.46,2.279,5.46,5.97v10.409h-4.56v-8.97
		c0-2.16-1.021-3.27-2.761-3.27c-1.739,0-2.85,1.109-2.85,3.27v8.97h-4.56V95.82H1550.948z"/>
	<path d="M1568.678,107.279v-0.06c0-3.51,2.67-5.13,6.479-5.13c1.62,0,2.79,0.27,3.93,0.66v-0.271c0-1.89-1.17-2.939-3.449-2.939
		c-1.74,0-2.971,0.33-4.44,0.87l-1.14-3.48c1.77-0.779,3.51-1.29,6.239-1.29c2.49,0,4.29,0.66,5.431,1.801
		c1.199,1.199,1.739,2.97,1.739,5.129v9.33h-4.409v-1.74c-1.11,1.23-2.641,2.04-4.86,2.04
		C1571.168,112.199,1568.678,110.459,1568.678,107.279z M1579.148,106.229v-0.81c-0.78-0.36-1.8-0.601-2.91-0.601
		c-1.95,0-3.149,0.78-3.149,2.221v0.06c0,1.229,1.02,1.95,2.489,1.95C1577.707,109.049,1579.148,107.879,1579.148,106.229z"/>
	<path d="M1211.004,133.95v-0.061c0-4.59,3.51-8.369,8.43-8.369c3.03,0,4.92,1.02,6.42,2.699l-2.79,3
		c-1.021-1.08-2.04-1.77-3.66-1.77c-2.279,0-3.899,2.01-3.899,4.38v0.06c0,2.46,1.59,4.439,4.08,4.439
		c1.529,0,2.579-0.659,3.689-1.709l2.67,2.699c-1.56,1.71-3.36,2.94-6.57,2.94C1214.544,142.259,1211.004,138.54,1211.004,133.95z"
		/>
	<path d="M1227.687,133.95v-0.061c0-4.62,3.721-8.369,8.73-8.369c4.979,0,8.669,3.689,8.669,8.31v0.06c0,4.62-3.72,8.37-8.729,8.37
		C1231.377,142.259,1227.687,138.569,1227.687,133.95z M1240.587,133.95v-0.061c0-2.37-1.71-4.439-4.23-4.439
		c-2.609,0-4.17,2.01-4.17,4.38v0.06c0,2.37,1.71,4.439,4.23,4.439C1239.026,138.329,1240.587,136.319,1240.587,133.95z"/>
	<path d="M1248.387,125.82h4.56v2.279c1.05-1.35,2.399-2.579,4.71-2.579c3.449,0,5.46,2.279,5.46,5.97v10.409h-4.561v-8.97
		c0-2.16-1.02-3.27-2.76-3.27s-2.85,1.109-2.85,3.27v8.97h-4.56V125.82H1248.387z"/>
	<path class="st1" d="M1275.296,133.95v-0.061c0-4.59,3.51-8.369,8.43-8.369c3.03,0,4.92,1.02,6.42,2.699l-2.79,3
		c-1.021-1.08-2.04-1.77-3.66-1.77c-2.279,0-3.899,2.01-3.899,4.38v0.06c0,2.46,1.59,4.439,4.08,4.439
		c1.529,0,2.579-0.659,3.689-1.709l2.67,2.699c-1.56,1.71-3.36,2.94-6.57,2.94C1278.836,142.259,1275.296,138.54,1275.296,133.95z"
		/>
	<path class="st1" d="M1293.086,136.229V125.82h4.56v8.97c0,2.159,1.02,3.27,2.76,3.27s2.85-1.11,2.85-3.27v-8.97h4.561v16.079
		h-4.561v-2.28c-1.05,1.351-2.399,2.58-4.709,2.58C1295.096,142.199,1293.086,139.919,1293.086,136.229z"/>
	<path class="st1" d="M1310.936,137.279v-0.06c0-3.51,2.67-5.13,6.479-5.13c1.62,0,2.79,0.27,3.93,0.66v-0.271
		c0-1.89-1.17-2.939-3.45-2.939c-1.739,0-2.97,0.33-4.439,0.87l-1.14-3.48c1.77-0.779,3.51-1.29,6.239-1.29
		c2.49,0,4.29,0.66,5.43,1.801c1.2,1.199,1.74,2.97,1.74,5.129v9.33h-4.41v-1.74c-1.109,1.23-2.64,2.04-4.859,2.04
		C1313.425,142.199,1310.936,140.459,1310.936,137.279z M1321.404,136.229v-0.81c-0.779-0.36-1.8-0.601-2.909-0.601
		c-1.95,0-3.15,0.78-3.15,2.221v0.06c0,1.229,1.021,1.95,2.49,1.95C1319.965,139.049,1321.404,137.879,1321.404,136.229z"/>
	<path class="st1" d="M1329.865,120h4.56v21.899h-4.56V120z"/>
	<path class="st1" d="M1350.324,139.589c-1.109,1.5-2.64,2.609-5.01,2.609c-3.75,0-7.319-2.939-7.319-8.31v-0.06
		c0-5.37,3.51-8.31,7.319-8.31c2.43,0,3.93,1.109,5.01,2.399v-2.1h4.561v20.879h-4.561V139.589z M1350.385,133.889v-0.06
		c0-2.67-1.771-4.44-3.9-4.44s-3.93,1.74-3.93,4.44v0.06c0,2.67,1.8,4.439,3.93,4.439S1350.385,136.559,1350.385,133.889z"/>
	<path class="st1" d="M1358.845,136.229V125.82h4.56v8.97c0,2.159,1.02,3.27,2.76,3.27s2.85-1.11,2.85-3.27v-8.97h4.561v16.079
		h-4.561v-2.28c-1.05,1.351-2.399,2.58-4.709,2.58C1360.855,142.199,1358.845,139.919,1358.845,136.229z"/>
	<path class="st1" d="M1377.744,120h4.8v4.05h-4.8V120z M1377.864,125.82h4.56v16.079h-4.56V125.82z"/>
	<path class="st1" d="M1385.934,133.95v-0.061c0-4.59,3.27-8.369,7.949-8.369c5.37,0,7.83,4.169,7.83,8.729
		c0,0.359-0.029,0.779-0.06,1.199h-11.19c0.45,2.07,1.891,3.15,3.931,3.15c1.529,0,2.64-0.48,3.899-1.65l2.61,2.311
		c-1.5,1.859-3.66,3-6.57,3C1389.503,142.259,1385.934,138.869,1385.934,133.95z M1397.274,132.599
		c-0.271-2.04-1.471-3.42-3.391-3.42c-1.89,0-3.119,1.351-3.479,3.42H1397.274z"/>
	<path class="st1" d="M1405.104,125.82h4.56v3.239c0.93-2.22,2.43-3.659,5.13-3.539v4.77h-0.24c-3.029,0-4.89,1.83-4.89,5.67v5.939
		h-4.56V125.82z"/>
	<path class="st1" d="M1426.644,125.82h4.56v2.279c1.05-1.35,2.43-2.579,4.74-2.579c2.1,0,3.689,0.93,4.529,2.55
		c1.41-1.65,3.09-2.55,5.28-2.55c3.39,0,5.43,2.039,5.43,5.909v10.47h-4.56v-8.97c0-2.16-0.96-3.27-2.67-3.27
		s-2.761,1.109-2.761,3.27v8.97h-4.56v-8.97c0-2.16-0.96-3.27-2.67-3.27s-2.76,1.109-2.76,3.27v8.97h-4.56V125.82H1426.644z"/>
	<path class="st1" d="M1454.363,133.95v-0.061c0-4.62,3.72-8.369,8.729-8.369c4.98,0,8.67,3.689,8.67,8.31v0.06
		c0,4.62-3.72,8.37-8.729,8.37C1458.054,142.259,1454.363,138.569,1454.363,133.95z M1467.263,133.95v-0.061
		c0-2.37-1.71-4.439-4.229-4.439c-2.61,0-4.17,2.01-4.17,4.38v0.06c0,2.37,1.71,4.439,4.229,4.439
		C1465.703,138.329,1467.263,136.319,1467.263,133.95z"/>
	<path class="st1" d="M1475.063,125.82h4.56v2.279c1.05-1.35,2.43-2.579,4.74-2.579c2.1,0,3.689,0.93,4.529,2.55
		c1.41-1.65,3.09-2.55,5.28-2.55c3.39,0,5.43,2.039,5.43,5.909v10.47h-4.56v-8.97c0-2.16-0.96-3.27-2.67-3.27
		s-2.761,1.109-2.761,3.27v8.97h-4.56v-8.97c0-2.16-0.96-3.27-2.67-3.27s-2.76,1.109-2.76,3.27v8.97h-4.56V125.82H1475.063z"/>
	<path class="st1" d="M1502.782,133.95v-0.061c0-4.59,3.271-8.369,7.95-8.369c5.369,0,7.829,4.169,7.829,8.729
		c0,0.359-0.029,0.779-0.06,1.199h-11.189c0.45,2.07,1.89,3.15,3.93,3.15c1.53,0,2.64-0.48,3.899-1.65l2.61,2.311
		c-1.5,1.859-3.66,3-6.57,3C1506.353,142.259,1502.782,138.869,1502.782,133.95z M1514.122,132.599c-0.271-2.04-1.47-3.42-3.39-3.42
		c-1.891,0-3.12,1.351-3.48,3.42H1514.122z"/>
	<path class="st1" d="M1521.952,125.82h4.56v2.279c1.05-1.35,2.4-2.579,4.71-2.579c3.45,0,5.46,2.279,5.46,5.97v10.409h-4.56v-8.97
		c0-2.16-1.021-3.27-2.761-3.27c-1.739,0-2.85,1.109-2.85,3.27v8.97h-4.56V125.82H1521.952z"/>
	<path class="st1" d="M1541.392,137.339v-7.62h-1.92v-3.899h1.92v-4.11h4.56v4.11h3.78v3.899h-3.78v6.87c0,1.05,0.45,1.56,1.47,1.56
		c0.84,0,1.59-0.21,2.25-0.57v3.66c-0.96,0.57-2.069,0.93-3.6,0.93C1543.281,142.168,1541.392,141.059,1541.392,137.339z"/>
	<path class="st1" d="M1551.865,133.95v-0.061c0-4.62,3.72-8.369,8.729-8.369c4.98,0,8.67,3.689,8.67,8.31v0.06
		c0,4.62-3.72,8.37-8.729,8.37C1555.556,142.259,1551.865,138.569,1551.865,133.95z M1564.765,133.95v-0.061
		c0-2.37-1.71-4.439-4.229-4.439c-2.61,0-4.17,2.01-4.17,4.38v0.06c0,2.37,1.71,4.439,4.229,4.439
		C1563.205,138.329,1564.765,136.319,1564.765,133.95z"/>
	<path class="st1" d="M1571.784,137.099h4.859v4.8h-4.859V137.099z"/>
</g>
</svg>
