<?xml version="1.0" encoding="utf-8"?>
<!-- Generator: Adobe Illustrator 22.1.0, SVG Export Plug-In . SVG Version: 6.00 Build 0)  -->
<svg version="1.1" id="Layer_1" xmlns="http://www.w3.org/2000/svg" xmlns:xlink="http://www.w3.org/1999/xlink" x="0px" y="0px"
	 viewBox="0 0 1242 2208" style="enable-background:new 0 0 1242 2208;" xml:space="preserve">
<style type="text/css">
	.st0{display:none;}
	.st1{display:inline;}
	.st2{clip-path:url(#SVGID_3_);}
	.st3{clip-path:url(#SVGID_4_);}
	.st4{clip-path:url(#SVGID_4_);fill:#098442;}
	.st5{clip-path:url(#SVGID_6_);}
	.st6{fill:#25A9E0;}
	.st7{fill:#FFFFFF;}
	.st8{fill:#B6B6B7;}
	.st9{fill:#221F1F;}
	.st10{fill:#F68D2F;}
	.st11{fill:#231F20;}
	.st12{fill:#FBB218;}
	.st13{display:inline;fill:#FFC425;stroke:#231F20;stroke-width:5.7372;stroke-miterlimit:10;}
	.st14{display:inline;fill:none;}
	.st15{font-family:'ArialMT';}
	.st16{font-size:12px;}
	.st17{font-family:'Gotham-Bold';}
	.st18{font-size:68.8463px;}
	.st19{fill:#FFC425;}
	.st20{enable-background:new    ;}
</style>
<g>
	<g>
		<g class="st0">
			<g class="st1">
				<defs>
					
						<rect id="SVGID_1_" x="-2266.837" y="151.569" transform="matrix(0.1784 -0.984 0.984 0.1784 -1665.0642 101.1868)" width="2989.792" height="1792.135"/>
				</defs>
				<defs>
					
						<rect id="SVGID_2_" x="-2266.837" y="151.568" transform="matrix(0.1784 -0.984 0.984 0.1784 -1665.0638 101.1866)" width="2989.792" height="1792.135"/>
				</defs>
				<clipPath id="SVGID_3_">
					<use xlink:href="#SVGID_1_"  style="overflow:visible;"/>
				</clipPath>
				<clipPath id="SVGID_4_" class="st2">
					<use xlink:href="#SVGID_2_"  style="overflow:visible;"/>
				</clipPath>
				<g transform="matrix(1 0 .00000001 1 -.000038 .000244)" class="st3">
					
						<image style="overflow:visible;enable-background:new    ;" width="5184" height="3456" xlink:href="../Downloads/Fotos 2018 pag potet/IMG_0602.JPG"  transform="matrix(0.1133 -0.6066 -0.6066 -0.1133 -64.7507 2844.5847)">
					</image>
				</g>
				<path class="st4" d="M400.941-289.393L-1421.736-619.89l-552.503,3047.034L-152.842,2764.7L400.941-289.393z M-414.8,1620.548
					c185.587-0.924,336.783,148.775,337.707,334.362s-148.775,336.783-334.362,337.707s-336.783-148.775-337.707-334.362
					S-600.387,1621.472-414.8,1620.548L-414.8,1620.548z M-160.391,715.745c-183.315-33.241-304.975-208.793-271.734-392.108
					S-223.333,18.663-40.018,51.904s304.975,208.793,271.734,392.108S22.923,748.986-160.391,715.745z M-1464.052,1245.925
					c-183.381-33.253-305.084-208.87-271.832-392.251s208.869-305.083,392.251-271.83s305.084,208.87,271.832,392.251
					S-1280.671,1279.179-1464.052,1245.925z"/>
			</g>
			<g class="st1">
				<g>
					<defs>
						<rect id="SVGID_5_" x="-4.652" y="-0.377" width="1258.426" height="2211.663"/>
					</defs>
					<clipPath id="SVGID_6_">
						<use xlink:href="#SVGID_5_"  style="overflow:visible;"/>
					</clipPath>
					<g class="st5">
						
							<image style="overflow:visible;enable-background:new    ;" width="3456" height="5184" xlink:href="../Downloads/Fotos 2018 pag potet/IMG_1106.JPG"  transform="matrix(0.4279 0 0 -0.4279 -116.1129 2214.6802)">
						</image>
					</g>
				</g>
				<path class="st6" d="M689.236,1995.151c0-262.065-212.445-474.511-474.511-474.511c-79.273,0-154.001,19.445-219.686,53.817
					L-4.96-0.858h711.281c-54.914,79.545-87.078,176.002-87.078,279.974c0,272.495,220.901,493.397,493.396,493.397
					c49.046,0,96.419-7.157,143.429-20.482l-0.001,1458.922H640.786C671.182,2139.643,689.236,2069.389,689.236,1995.151
					L689.236,1995.151z"/>
				<path class="st7" d="M121.518,1475.736c-16.54,10.101-23.659,7.736-31.094-8.382c-5.883-12.754-12.671-25.094-19.157-37.566
					c-1.51-2.904-3.889-6.69,0.588-7.786c6.824-1.67,15.452-11.578,19.971-4.4C103.329,1435.87,111.751,1456.078,121.518,1475.736z"
					/>
				<path class="st7" d="M62.336,1510.883c-13.741-6.295-26.931-12.338-40.032-18.339c6.764-19.026,11.034-19.814,37.662-7.676
					C80.311,1494.141,80.311,1494.141,62.336,1510.883z"/>
				<path class="st7" d="M145.957,1474.996c5.949-11.259,10.649-23.328,18.24-33.167c3.729-4.833,13.25-1.749,19.162,0.427
					c4.554,1.676,4.308,7.753,1.495,12.538c-2.304,3.92-4.402,7.998-6.192,12.178
					C170.33,1486.419,167.124,1487.468,145.957,1474.996z"/>
				<path class="st7" d="M1063.363,883.643c0.044-24.08,0.045-46.933,0.163-69.786c0.024-4.577,3.906-6.067,6.255-4.757
					c6.13,3.419,18.093-5.148,18.666,7.367c0.993,21.694-0.774,43.562-1.409,65.357c-0.124,4.27-1.801,6.574-6.048,5.619
					C1075.032,886.103,1069.054,884.865,1063.363,883.643z"/>
				<path class="st7" d="M1052.6,814.004c-11.935,10.107-22.429,18.968-32.897,27.867c-4.823,4.1-7.914,3.051-13.118-1.23
					c-12.885-10.6-10.64-17.368,2.049-25.217c7.036-4.352,13.14-10.591,19.486-16.223c2.356-2.091,4.691-2.913,7.004-0.945
					C1040.592,802.904,1045.834,807.868,1052.6,814.004z"/>
				<path class="st7" d="M1111.471,818.392c7.504-19.812,12.739-20.862,25.425-5.287c6.571,8.066,13.683,15.598,19.987,22.733
					c-9.055,18.127-19.264,18.137-30.562,2.421C1121.63,831.732,1116.719,825.398,1111.471,818.392L1111.471,818.392z"/>
				<path class="st7" d="M887.979,1808.456c-13.958-2.385-22.162-8.056-15.272-23.788c12.794,3.146,26.255,6.455,39.908,9.812
					c1.263,12.213,2.992,24.631,3.625,37.105c0.263,5.178-5.072,3.157-8.102,3.526c-2.85,0.347-5.773,0.091-9.298,0.102
					c-0.835-3.054-1.727-6.313-2.73-9.983c-9.282,6.238-18.283,12.809-27.772,18.576c-44.175,26.845-91.474,36.34-142.2,24.024
					c-10.812-2.625-3.305-13.155-9.018-21.09C782.682,1866.533,837.38,1849.677,887.979,1808.456L887.979,1808.456z"/>
				<path class="st7" d="M237.251,194.558c0,0,37.999-4.372,66.843,2.655c28.834,7.025,55.731,16.303,61.35,21.761
					c5.607,5.455-15.628,132.539-17.508,140.259c-1.883,7.731-75.936,35.069-129.692-5.274
					c-38.362-28.805-21.277-52.133-10.82-80.471C220.603,237.817,231.28,196.888,237.251,194.558"/>
				<path class="st8" d="M260.577,126.954c16.044,24.658,86.115,40.439,114.436,25.288l5.9-18.873
					c1.791-7.352-4.356-30.024-4.356-30.024s-7.517-13.502-35.292-23.724c-27.76-10.232-52.776-3.354-62.735,2.008
					c0,0-18.278,7.644-19.766,31.486C257.276,136.956,260.577,126.954,260.577,126.954"/>
				<g>
					<path class="st9" d="M257.184,375.108c-42.612-10.381-65.65-44.576-67.634-56.432l-0.004-0.007
						c-1.6-9.63,49.481-151.846,65.66-196.528c-0.845-14.532,3.936-26.987,13.858-36.056c13.682-12.502,36.213-17.62,60.264-13.686
						c21.085,3.402,37.977,13.067,50.198,28.612c14.187,18.062,2.39,47.852,0.413,52.504
						c-2.294,21.807-20.023,187.955-28.878,202.816C340.818,373.498,298.495,385.173,257.184,375.108L257.184,375.108z
						 M197.022,317.567c1.687,9.051,23.129,40.747,61.95,50.204c40.756,9.929,77.923-2.437,85.604-15.308
						c6.116-10.275,20.042-125.421,27.911-200.312c0.038-0.401,0.145-0.791,0.311-1.154c0.131-0.295,13.059-29.702,0.789-45.312
						c-11.173-14.214-26.066-22.643-45.474-25.833c-21.795-3.563-41.962,0.853-53.955,11.812
						c-8.454,7.727-12.282,18.073-11.365,30.75c0.038,0.526-0.038,1.06-0.219,1.557
						C237.266,193.858,197.185,307.945,197.022,317.567L197.022,317.567z M315.333,136.409c-2.025-0.493-3.268-2.537-2.775-4.562
						s2.537-3.268,4.562-2.775c32.381,7.889,50.585,0.267,50.763,0.192c1.909-0.836,4.137,0.045,4.968,1.947
						c0.836,1.909-0.024,4.124-1.923,4.968C370.111,136.539,350.446,144.963,315.333,136.409L315.333,136.409z"/>
					<path class="st9" d="M324.491,109.457c3.952,0.963,5.443-5.16,1.491-6.122C322.031,102.372,320.54,108.495,324.491,109.457"/>
					<path class="st9" d="M310.578,99.153c3.952,0.963,5.443-5.16,1.491-6.122C308.118,92.067,306.626,98.19,310.578,99.153"/>
					<path class="st9" d="M295.391,97.616c3.952,0.963,5.443-5.16,1.491-6.122C292.93,90.53,291.439,96.653,295.391,97.616"/>
					<path class="st9" d="M328.884,94.971c3.952,0.963,5.443-5.16,1.491-6.122C326.424,87.885,324.933,94.008,328.884,94.971"/>
					<path class="st9" d="M340.659,105.186c3.952,0.963,5.443-5.16,1.491-6.122C338.199,98.101,336.708,104.223,340.659,105.186"/>
					<path class="st9" d="M354.039,110.609c3.94,0.96,5.432-5.163,1.491-6.122C351.578,103.524,350.087,109.646,354.039,110.609"/>
					<path class="st9" d="M305.238,236.391c-1.958-0.477-3.208-2.416-2.812-4.411c0.409-2.045,2.402-3.372,4.447-2.963
						c29.559,5.912,48.988,4.21,54.703-4.784c0.2-0.308,0.299-0.545,0.045-1.136c-2.596-6.123-25.264-16.518-58.906-23.33
						c-38.577-7.824-64.142-5.739-66.577,0.792c-0.732,1.955-2.99,2.908-4.861,2.221c-1.955-0.732-2.947-2.905-2.221-4.861
						c6.683-17.945,59.22-8.788,75.165-5.557c26.509,5.407,59.298,15.891,64.355,27.771c1.179,2.771,0.955,5.664-0.619,8.15
						c-7.733,12.157-28.781,14.897-62.569,8.145C305.339,236.416,305.288,236.403,305.238,236.391L305.238,236.391z"/>
					<path class="st9" d="M232.059,306.096c3.952,0.963,5.443-5.16,1.491-6.122C229.599,299.011,228.107,305.134,232.059,306.096"/>
					<path class="st9" d="M235.188,250.667c3.952,0.963,5.443-5.16,1.491-6.122C232.727,243.582,231.236,249.704,235.188,250.667"/>
					<path class="st9" d="M211.961,317.626c3.952,0.963,5.443-5.16,1.491-6.122C209.501,310.541,208.01,316.663,211.961,317.626"/>
					<path class="st9" d="M242.696,347.592c3.952,0.963,5.443-5.16,1.491-6.122C240.248,340.51,238.756,346.632,242.696,347.592"/>
					<path class="st9" d="M266.552,317.096c3.952,0.963,5.443-5.16,1.491-6.122C264.092,310.011,262.601,316.134,266.552,317.096"/>
					<path class="st9" d="M231.517,283.49c3.952,0.963,5.443-5.16,1.491-6.122C229.056,276.405,227.565,282.528,231.517,283.49"/>
					<path class="st9" d="M328.17,298.431c3.952,0.963,5.443-5.16,1.491-6.122C325.71,291.346,324.219,297.468,328.17,298.431"/>
					<path class="st9" d="M215.873,290.913c3.952,0.963,5.443-5.16,1.491-6.122C213.413,283.828,211.922,289.95,215.873,290.913"/>
					<path class="st9" d="M309.251,155.231c-22.756-5.544-43.572-15.785-51.746-28.353c-1.142-1.752-0.644-4.09,1.101-5.228
						c1.755-1.129,4.097-0.624,5.228,1.101c15.264,23.47,82.799,38.283,109.489,24.018c1.847-0.97,4.123-0.291,5.112,1.554
						c0.984,1.838,0.289,4.129-1.554,5.112C361.347,161.732,334.138,161.294,309.251,155.231L309.251,155.231z"/>
				</g>
				<path class="st10" d="M974.487,1700.223c0-13.209,1.651-36.325,13.209-42.104s28.069-0.826,32.197,15.686
					s28.895,25.592,42.104,36.325s6.604,14.86,6.604,28.069s0.826,30.546,9.907,36.325s-14.035-4.128-25.592,1.651
					s-33.187,31.404-52.836,15.685c-16.511-13.208-11.493-21.63-23.942-26.418c-21.464-8.255-51.184-12.03-51.184-36.324
					c0-21.464,9.906-28.069,20.639-30.546S974.487,1700.223,974.487,1700.223L974.487,1700.223z"/>
				<path class="st11" d="M926.593,1639.935c-1.833,0.918-2.576,3.152-1.662,4.985c3.991,7.984,18.587,28.744,31.716,43.601
					c-4.505-1.575-8.855-2.747-11.882-2.747c-2.051,0-3.715,1.663-3.715,3.715s1.664,3.715,3.715,3.715
					c1.315,0,3.194,0.384,5.391,1.017c-1.89,0.131-3.728,0.344-5.398,0.729c-15.827,3.652-23.521,14.828-23.521,34.165
					c0,22.347,21.663,29.297,40.775,35.43c4.514,1.449,8.776,2.817,12.793,4.361c5.026,1.934,6.299,4.277,8.609,8.53
					c2.368,4.361,5.609,10.336,14.344,17.322c17.268,13.813,35.579,0.07,47.695-9.024c3.447-2.586,6.7-5.028,9.124-6.239
					c2.863-1.432,6.867-1.65,10.814-1.398c2.972,0.688,5.786,1.09,8.334,1.07c0.619,0.109,1.23,0.218,1.766,0.315
					c4.228,0.768,7.281,1.324,8.534-1.87c0.206-0.526,0.295-1.017,0.295-1.475c0-2.32-2.327-3.802-3.817-4.751
					c-8.188-5.21-8.188-24.816-8.188-33.189c0-3.389,0.469-6.083,0.922-8.691c1.432-8.198,1.538-13.783-8.897-22.262
					c-4.197-3.409-9.301-6.533-14.704-9.842c-11.618-7.113-23.63-14.467-26.138-24.5c-2.117-8.468-7.353-15.004-14.745-18.403
					c-7.218-3.32-15.711-3.21-22.718,0.294c-8.55,4.276-12.515,15.706-14.187,27.995l-2.968-7.825
					c-0.728-1.919-2.874-2.884-4.792-2.156c-1.918,0.727-2.883,2.875-2.155,4.791l3.715,9.8
					c-12.851-13.752-29.607-36.874-34.07-45.802C930.661,1639.762,928.429,1639.018,926.593,1639.935L926.593,1639.935z
					 M989.357,1661.442c5.009-2.506,11.1-2.577,16.289-0.19c5.302,2.438,9.083,7.217,10.643,13.454
					c3.244,12.981,17.176,21.51,29.467,29.035c5.186,3.176,10.087,6.174,13.896,9.271c7.811,6.344,7.358,8.94,6.265,15.222
					c-0.46,2.644-1.033,5.933-1.033,9.964c0,11.966,0.786,24.633,5.58,32.93c-1.312-0.176-2.684-0.317-4.078-0.419
					c-6.051-1.528-13.219-4.345-18.764-6.528c-6.497-2.559-11.63-4.579-14.978-4.914c-2.042-0.203-3.863,1.286-4.066,3.328
					c-0.242,2.011,1.282,3.862,3.326,4.066c2.325,0.232,7.748,2.368,12.994,4.433c1.839,0.724,3.714,1.46,5.598,2.181
					c-2.829,1.536-5.935,3.839-9.505,6.518c-14.129,10.603-26.784,18.612-38.593,9.164c-7.561-6.047-10.162-10.838-12.457-15.065
					c-2.513-4.629-4.886-9.002-12.472-11.919c-4.214-1.621-8.776-3.085-13.188-4.502c-18.316-5.877-35.615-11.428-35.615-28.355
					c0-20.114,8.979-24.899,17.759-26.926c9.77-2.254,27.062,1.615,27.236,1.655c0.067,0.015,0.134,0.011,0.201,0.022
					c0.176,0.03,0.351,0.054,0.527,0.058c0.092,0.002,0.181-0.004,0.273-0.008c0.059-0.003,0.117-0.001,0.176-0.007
					c0.112-0.011,0.22-0.03,0.33-0.051c0.096-0.018,0.189-0.04,0.283-0.065c0.117-0.032,0.231-0.066,0.344-0.108
					c0.056-0.021,0.108-0.045,0.163-0.069c0.073-0.032,0.146-0.062,0.217-0.099c0.172-0.088,0.334-0.194,0.492-0.309
					c0.043-0.031,0.092-0.051,0.133-0.084c0.011-0.009,0.019-0.021,0.031-0.031l0.005-0.003c0.009-0.008,0.021-0.01,0.03-0.018
					c0.003-0.003,0.005-0.006,0.009-0.009c0.201-0.169,0.384-0.36,0.548-0.573c0.047-0.06,0.078-0.129,0.121-0.191
					c0.092-0.135,0.188-0.266,0.263-0.416c0.005-0.01,0.006-0.021,0.011-0.031c0.007-0.014,0.014-0.028,0.021-0.043
					c0.079-0.168,0.13-0.345,0.184-0.523c0.002-0.007,0.005-0.013,0.007-0.02c0.021-0.071,0.058-0.14,0.075-0.212
					c0.001-0.006,0.001-0.012,0.003-0.018c0.055-0.245,0.08-0.495,0.085-0.747c0-0.022,0.008-0.044,0.008-0.066v-0.001v-0.001
					C978.202,1679.124,982.268,1664.988,989.357,1661.442L989.357,1661.442z"/>
				<path class="st11" d="M960.866,1736.547c0,2.052,1.664,3.715,3.715,3.715c12.82,0,33.09,8.777,34.302,16.664
					c0.312,2.028,2.208,3.419,4.235,3.107c1.838-0.282,3.152-1.865,3.152-3.667c0-0.188-0.014-0.379-0.044-0.57
					c-2.155-14.021-28.557-22.965-41.646-22.965C962.53,1732.832,960.866,1734.495,960.866,1736.547z"/>
				<path class="st11" d="M1000.506,1703.036c0.602,6.63,8.229,14.629,15.166,19.905c3.805,2.893,13.422,9.481,20.57,8.181
					c1.795-0.325,3.05-1.889,3.05-3.65c0-0.221-0.019-0.445-0.06-0.67c-0.368-2.019-2.3-3.357-4.32-2.99
					c-2.262,0.411-7.839-1.537-14.741-6.786c-7.629-5.799-12.012-11.883-12.264-14.662c-0.186-2.044-1.993-3.55-4.037-3.363
					C1001.827,1699.184,1000.325,1700.969,1000.506,1703.036z"/>
				<path class="st12" d="M1053.114,1658.975c-11.96,9.146-40.102,28.142-20.403,49.952c19.699,21.81,44.015,7.035,67.232,11.96
					s24.961,16.519,45.364,12.297c25.163-5.206,29.493-30.835,40.468-36.584c14.774-7.739,28.45-11.594,29.154-10.89
					c0.703,0.703-23.921-8.443-30.956-31.659s-1.407-24.624-18.996-38.695s-37.991,16.885-65.429,1.407s-52.766-14.071-54.876,7.035
					C1042.561,1644.904,1053.114,1658.975,1053.114,1658.975L1053.114,1658.975z"/>
				<path class="st11" d="M1101.375,1613.526c-19.245-10.855-37.572-13.785-49.028-7.84c-6.623,3.437-10.553,9.573-11.371,17.741
					c-0.894,8.86,0.306,16.532,2.096,22.618c-4.517-5.273-8.263-11.195-9.921-14.195c-0.994-1.796-3.253-2.448-5.048-1.456
					c-1.8,0.994-2.45,3.253-1.458,5.047c0.237,0.429,3.126,5.598,7.523,11.394c-17.057-9.83-32.842-24.842-36.681-34.915
					c-0.73-1.917-2.876-2.88-4.794-2.149s-2.888,2.875-2.148,4.795c4.659,12.232,22.994,29.844,42.916,40.474
					c-8.033,0.22-16.095,0.938-19.438,2.797c-1.792,0.997-2.441,3.256-1.444,5.052c0.997,1.794,3.258,2.439,5.053,1.443
					c2.601-1.446,13.385-2.033,24.91-1.925c-8.846,7.099-19.118,17.016-20.249,28.849c-0.665,7.012,1.906,13.792,7.661,20.16
					c14.013,15.515,30.108,14.153,45.671,12.837c7.832-0.663,15.928-1.347,23.548,0.269c9.076,1.925,14.682,4.926,19.629,7.575
					c7.494,4.012,13.967,7.477,27.258,4.726c17.481-3.616,25.596-15.968,32.118-25.893c3.311-5.036,6.168-9.386,9.325-11.04
					c12.895-6.754,24.116-10.125,26.75-10.512c0.179,0.045,0.312,0.07,0.402,0.076c1.543,0.102,3.036-0.774,3.674-2.183
					c0.22-0.487,0.327-1.007,0.327-1.525c0-0.978-0.382-1.947-1.098-2.663c-0.612-0.613-1.219-1.093-2.504-1.171
					c-4.586-1.708-22.099-11.037-27.522-28.939c-1.962-6.469-2.915-11.215-3.682-15.028c-2.182-10.847-3.594-15.126-16.55-25.49
					c-9.966-7.973-20.604-3.926-30.891-0.012C1125.556,1616.57,1114.335,1620.838,1101.375,1613.526L1101.375,1613.526z
					 M1162.656,1618.257c11.504,9.203,12.061,11.973,13.906,21.152c0.798,3.969,1.792,8.909,3.856,15.719
					c4.499,14.846,15.447,24.278,23.785,29.422c-3.887,1.349-11.49,4.222-20.152,8.759c-4.859,2.546-8.207,7.641-12.085,13.541
					c-6.069,9.236-12.948,19.704-27.413,22.697c-10.655,2.204-15.265-0.265-22.249-4.002c-5.116-2.739-11.482-6.148-21.591-8.292
					c-8.696-1.844-17.348-1.113-25.715-0.404c-15.019,1.27-27.989,2.367-39.532-10.413c-3.926-4.346-5.849-8.617-5.849-13.015
					c0-0.484,0.024-0.971,0.07-1.459c1.098-11.503,15.103-22.058,23.473-28.364l2.208-1.673c0.023-0.018,0.04-0.041,0.063-0.059
					c0.039-0.031,0.069-0.068,0.107-0.1c0.159-0.139,0.309-0.284,0.439-0.443c0.014-0.017,0.033-0.026,0.047-0.043
					c0.026-0.033,0.034-0.073,0.059-0.107c0.08-0.108,0.166-0.213,0.233-0.328c0.01-0.017,0.019-0.034,0.029-0.052
					c0.088-0.156,0.156-0.321,0.22-0.487c0.016-0.041,0.039-0.078,0.054-0.119c0.067-0.195,0.111-0.397,0.145-0.6
					c0.004-0.023,0.019-0.041,0.022-0.064c0.021-0.134,0.024-0.267,0.03-0.4c0.001-0.033,0.007-0.064,0.007-0.097
					c0-0.019,0.004-0.039,0.004-0.057c0-0.027-0.012-0.05-0.013-0.077c-0.006-0.311-0.052-0.621-0.136-0.925
					c-0.013-0.047-0.027-0.093-0.042-0.139c-0.019-0.059-0.046-0.113-0.068-0.171c-0.104-0.276-0.237-0.543-0.411-0.796
					c-0.012-0.017-0.015-0.037-0.026-0.053c-0.08-0.114-7.936-11.238-1.797-17.384c5.6-5.601,15.34-4.14,32.568,4.885
					c1.819,0.953,4.064,0.25,5.017-1.568c0.288-0.55,0.423-1.139,0.423-1.72c0-1.339-0.723-2.631-1.991-3.295
					c-14.547-7.621-30.828-14.002-41.271-3.558c-0.24,0.24-0.43,0.491-0.648,0.735c-0.363-3.304-0.448-6.892-0.066-10.739
					c0.564-5.63,3.055-9.63,7.402-11.885c9.083-4.714,25.159-1.757,41.953,7.716c15.996,9.024,30.04,3.682,41.326-0.611
					C1149.561,1615.388,1156.326,1613.193,1162.656,1618.257L1162.656,1618.257z"/>
				<path class="st11" d="M1087.398,1701.966c1.207,1.659,3.532,2.026,5.191,0.819c5.728-4.168,20.764-8.738,36.656,3.798
					c1.611,1.271,3.948,0.995,5.218-0.616c0.537-0.682,0.798-1.494,0.798-2.299c0-1.098-0.484-2.187-1.415-2.92
					c-16.84-13.284-35.456-11.371-45.63-3.972C1086.561,1697.982,1086.187,1700.306,1087.398,1701.966L1087.398,1701.966z"/>
				<path class="st11" d="M1135.783,1639.367c1.882,5.722,10.244,18.631,28.417,26.532c1.879,0.819,4.068-0.043,4.889-1.925
					c0.208-0.483,0.307-0.986,0.307-1.479c0-1.434-0.834-2.801-2.235-3.409c-14.511-6.31-22.616-16.868-24.319-22.041
					c-0.641-1.95-2.741-3.009-4.69-2.368S1135.149,1637.423,1135.783,1639.367L1135.783,1639.367z"/>
				<path class="st7" d="M438.035,252.914c13.028,5.546,19.7,12.959,9.361,26.673c-11.721-6.017-24.052-12.347-36.56-18.768
					c1.593-12.174,2.781-24.656,5.048-36.938c0.941-5.099,5.665-1.899,8.698-1.558c2.853,0.32,5.637,1.245,9.07,2.049
					c0.107,3.165,0.221,6.542,0.349,10.344c10.472-3.924,20.747-8.238,31.313-11.656c36.886-11.933,60.605-17.407,96.09-7.677
					c5.914,1.622,5.67,7.342,5.762,12.153c0.091,4.811,0.518,8.714-5.998,6.701C515.736,220.199,483.693,230.833,438.035,252.914
					L438.035,252.914z"/>
			</g>
			<path class="st13" d="M532.248,2213.857l-265.057-1.147l989.632-443.957l-2.295,121.628L532.248,2213.857z"/>
			<path id="d" class="st14" d="M539.573,2175.673l603.709-270.945"/>
			<text class="st1 st15 st16"> </text>
			<text transform="matrix(1 0 0 1 541.9335 2174.6138)" class="st1 st17 st18">#</text>
			<text transform="matrix(1 0 0 1 585.9008 2154.8811)" class="st1 st17 st18">T</text>
			<text transform="matrix(1 0 0 1 626.6016 2136.6145)" class="st1 st17 st18">i</text>
			<text transform="matrix(1 0 0 1 645.5696 2128.1018)" class="st1 st17 st18">e</text>
			<text transform="matrix(1 0 0 1 684.072 2110.8218)" class="st1 st17 st18">n</text>
			<text transform="matrix(1 0 0 1 723.202 2093.2603)" class="st1 st17 st18">e</text>
			<text transform="matrix(1 0 0 1 761.7044 2075.9802)" class="st1 st17 st18">E</text>
			<text transform="matrix(1 0 0 1 803.7874 2057.0935)" class="st1 st17 st18">l</text>
			<text transform="matrix(1 0 0 1 822.7554 2048.5806)" class="st1 st17 st18">T</text>
			<text transform="matrix(1 0 0 1 863.4564 2030.314)" class="st1 st17 st18">o</text>
			<text transform="matrix(1 0 0 1 905.1617 2011.5967)" class="st1 st17 st18">q</text>
			<text transform="matrix(1 0 0 1 947.558 1992.5691)" class="st1 st17 st18">u</text>
			<text transform="matrix(1 0 0 1 986.6881 1975.0074)" class="st1 st17 st18">e</text>
			<text class="st1 st15 st16"> </text>
		</g>
		<path class="st19" d="M877.505,549.395c-7.705-41.481-19.767-79.179-34.876-109.024c-7.927-15.664-16.734-29.298-26.171-40.52
			c-9.802-11.641-20.362-20.794-31.416-27.218c-63.253-36.762-124.381-55.401-181.661-55.402c-37.163,0-72.244,7.897-104.252,23.448
			c-29.585,14.364-55.897,34.894-78.211,61.007c-10.547,12.352-20.116,25.89-28.444,40.262
			c-8.135,14.08-15.121,29.019-20.764,44.404c-11.181,30.459-17.083,62.997-17.084,94.103c0,26.774,4.212,52.167,12.513,75.484
			c8.703,24.403,21.705,45.874,38.633,63.807c18.063,19.144,40.442,34.038,66.51,44.266c28.175,11.06,60.725,16.669,96.751,16.67
			c3.152,0,6.391-0.052,9.591-0.136c1.334-0.035,2.61-0.058,3.938-0.058c31.559,0,61.259,10.124,90.792,30.95
			c25.306,17.853,46.446,40.642,65.087,60.739c23.139,24.954,43.128,46.512,60.829,46.512h0.014c5.28,0,10.29-1.874,15.324-5.741
			c5.604-4.282,11.277-11.15,16.906-20.406c12.226-20.194,24.74-52.391,38.242-98.408c10.126-34.568,16.13-75.628,17.371-118.717
			C888.325,633.355,885.006,589.771,877.505,549.395"/>
		<path d="M500.858,537.741c-0.117,1.705-0.362,3.183-0.75,4.487c-0.246,1.555-0.556,3.068-0.943,4.488
			c-0.387,1.686-0.735,3.312-1.045,4.88c-0.311,1.555-0.659,3.124-1.034,4.68c-0.129,1.305-0.44,2.61-0.956,3.9
			c-0.502,1.447-1.035,2.944-1.537,4.5c-0.645,1.562-1.227,3.131-1.729,4.686c-0.515,1.305-1.07,2.48-1.64,3.521
			c-0.591,1.051-1.343,2.22-2.26,3.524c-0.902,1.304-1.743,2.422-2.53,3.337c-0.762,1.045-1.55,2.229-2.337,3.52
			c-0.387,0.529-0.969,1.257-1.756,2.169c-0.645,0.658-1.237,1.304-1.758,1.963v-0.587c-0.011-0.252-0.011-0.46-0.011-0.588
			l-0.335-34.644c-0.028-3.641-0.054-7.274-0.089-10.909c-0.041-3.505,0-6.94,0.089-10.33c0.105-3.371,0.14-6.424,0.105-9.136
			c-0.014-2.595,0.025-4.738,0.14-6.437c0-1.691,0.102-3.054,0.348-4.092c0-0.646,0.13-1.233,0.387-1.756
			c1.062,0.245,2.248,0.438,3.565,0.55c1.189,0.25,2.376,0.574,3.563,0.94c1.319,0.503,2.518,1.078,3.565,1.725
			c1.07,0.634,1.988,1.22,2.79,1.722c0.656,0.518,1.263,1.162,1.793,1.925c0.659,0.782,1.329,1.615,2.002,2.51
			c0.54,1.048,1.007,2.144,1.407,3.308c0.413,1.039,0.683,2.008,0.824,2.904c0.014,1.434,0.092,2.859,0.246,4.293
			c0.013,1.428,0.028,2.846,0.038,4.275C501.026,534.5,500.972,536.057,500.858,537.741 M507.842,524.249
			c-0.153-1.813-0.567-3.563-1.24-5.249c-0.54-1.555-1.277-2.97-2.206-4.261c-0.8-1.291-1.615-2.453-2.401-3.48
			c-0.943-1.034-1.951-2.001-2.998-2.899c-1.072-0.762-2.219-1.53-3.487-2.305c-1.25-0.769-2.747-1.458-4.454-2.098
			c-1.871-0.762-3.717-1.195-5.55-1.309c-1.318-0.24-2.572-0.491-3.759-0.742c-1.316-0.24-2.517-0.492-3.563-0.744
			c-0.659-0.123-1.201-0.386-1.588-0.766l-1.383-1.162c-0.814-0.498-1.704-0.691-2.684-0.55c-0.981,0.137-1.783,0.561-2.364,1.28
			c-0.567,0.723-0.8,1.57-0.669,2.537c0.139,0.969,0.618,1.782,1.404,2.421l1.202,0.967c0.659,0.51,1.407,0.956,2.195,1.336
			c-0.272,0.659-0.465,1.441-0.581,2.343c-0.116,1.305-0.232,2.926-0.348,4.876c-0.116,1.814-0.156,4.088-0.144,6.819
			c0.04,2.595,0,5.583-0.088,8.961c-0.119,3.37-0.143,6.94-0.105,10.703c0.025,3.641,0.079,7.205,0.105,10.711l0.333,34.654
			c0.04,4.023,0.141,7.659,0.3,10.898c0.167,3.112,0.245,6.239,0.283,9.343c0.154,2.995,0.321,5.778,0.478,8.38
			c0.154,2.582,0.257,4.856,0.271,6.804c0.14,1.687,0.153,3.312,0.038,4.869c-0.115,1.555-0.181,2.917-0.156,4.092l0.027,3.505
			c0.027,1.169,0.027,2.33,0.037,3.507c-0.115,1.29-0.18,2.4-0.168,3.312l0.014,1.365c0.014,0.911,0.373,1.71,1.124,2.418
			c0.723,0.707,1.551,1.062,2.466,1.056c0.929-0.013,1.745-0.376,2.468-1.107c0.707-0.717,1.072-1.529,1.058-2.439l-0.013-1.363
			c-0.011-0.782,0.051-1.749,0.167-2.919c-0.011-1.291-0.025-2.595-0.037-3.893l-0.028-3.514c0-1.029,0.04-2.271,0.167-3.698
			c0.107-1.684,0.093-3.504-0.062-5.454c-0.011-1.937-0.105-4.211-0.257-6.806c-0.168-2.596-0.322-5.382-0.479-8.367
			c-0.024-2.989-0.13-5.908-0.283-8.767c0.915-0.264,1.637-0.731,2.155-1.389l1.562-2.343c0.905-1.305,1.886-2.479,2.931-3.531
			c1.174-1.305,2.053-2.486,2.634-3.525c0.581-1.041,1.201-1.964,1.847-2.75c0.905-1.046,1.845-2.253,2.828-3.628
			c0.969-1.376,1.844-2.705,2.62-4.02c0.645-1.294,1.292-2.798,1.936-4.483c0.646-1.568,1.227-3.197,1.744-4.894
			c0.632-1.555,1.213-3.066,1.729-4.487c0.506-1.57,0.956-3.194,1.342-4.88c0.235-1.57,0.532-3.087,0.84-4.597
			c0.313-1.485,0.673-3.015,1.048-4.583c0.375-1.55,0.683-3.119,0.943-4.676c0.375-1.555,0.655-3.31,0.827-5.262
			c0.178-1.95,0.269-3.768,0.243-5.455c-0.013-1.568-0.027-3.124-0.038-4.681C507.919,526.91,507.856,525.554,507.842,524.249"/>
		<path d="M556.83,585.897c-0.259,1.57-0.297,3.578-0.141,6.044c0.013,2.079-0.027,4.222-0.146,6.424
			c-0.1,2.214-0.215,4.352-0.334,6.437c0.014,2.2-0.026,4.21-0.141,6.037c0.014,1.679-0.027,3.306-0.154,4.874
			c-0.103,1.555-0.167,3.299-0.143,5.249c0.025,1.684-0.038,3.241-0.143,4.681c-0.115,1.421-0.232,2.725-0.359,3.899
			c0.011,1.164-0.116,2.272-0.362,3.3c-0.129,0.923-0.454,2.084-0.956,3.518c-0.516,1.434-1.021,2.608-1.548,3.52
			c-0.387,0.523-0.983,1.051-1.758,1.574c-0.788,0.66-1.717,1.118-2.75,1.39c-0.8,0.147-1.459,0.205-1.975,0.219
			c-0.53-0.122-0.994-0.311-1.397-0.576c-0.399-0.388-0.734-0.781-1.003-1.161c-0.26-0.646-0.478-1.222-0.594-1.751
			c-0.146-0.889-0.363-1.814-0.621-2.714c-0.141-0.781-0.348-1.612-0.621-2.537c-0.284-1.027-0.556-2.059-0.815-3.098
			c-0.296-1.038-0.491-2.26-0.629-3.699c-0.286-1.673-0.493-3.241-0.635-4.661c-0.298-1.427-0.438-2.849-0.438-4.287
			c-0.156-1.42-0.362-3.169-0.648-5.236c-0.154-1.949-0.308-4.034-0.451-6.236c-0.153-1.95-0.311-3.958-0.452-6.028
			c-0.153-1.816-0.245-3.766-0.271-5.851c-0.143-2.318-0.23-4.59-0.256-6.804c-0.143-2.718-0.312-4.99-0.452-6.81
			c-0.025-2.332-0.117-4.733-0.27-7.2c-0.157-2.465-0.311-4.866-0.467-7.203c-0.284-2.066-0.438-4.28-0.452-6.612
			c-0.04-2.465-0.049-4.867-0.075-7.205c-0.158-2.065-0.235-4.094-0.246-6.042l-0.052-4.856c-0.027-1.304-0.027-3.046-0.041-5.26
			c-0.023-2.074,0.014-3.641,0.144-4.682c-0.014-1.291,0.037-2.524,0.167-3.692c-0.011-1.046,0.04-2.144,0.168-3.305
			c0.235-1.305,0.491-2.668,0.737-4.101c0.387-1.44,0.902-2.872,1.548-4.3c0.648-1.302,1.356-2.284,2.131-2.944
			c0.8-0.904,1.575-1.633,2.363-2.162c0.516-0.393,1.048-0.6,1.563-0.599c0.802-0.007,1.524,0.122,2.183,0.373l1.381,0.563
			c0.527,0.127,1.137,0.192,1.793,0.192c0.131,0.382,0.273,0.704,0.4,0.969l1.007,1.544c0.66,0.896,1.137,1.806,1.397,2.711
			c0.413,0.896,0.683,1.809,0.813,2.718c0.283,0.911,0.424,1.613,0.437,2.131c0,1.051,0.066,2.079,0.22,3.124
			c0.13,1.039,0.207,2.195,0.232,3.493c0.141,1.305,0.348,2.667,0.621,4.088c0.281,1.291,0.427,2.466,0.427,3.504
			c0.141,1.162,0.294,2.718,0.45,4.668c0.271,1.557,0.413,2.977,0.438,4.28c0,1.428-0.051,2.919-0.153,4.474
			c0.013,1.691,0.075,3.378,0.232,5.062c0.156,1.684,0.23,3.319,0.259,4.869c0.011,1.69,0.09,3.305,0.232,4.862
			c0.014,1.431,0.105,2.988,0.246,4.672c0.025,1.821,0.102,3.701,0.256,5.636c0.144,1.834,0.233,3.771,0.26,5.849
			C556.997,583.166,556.946,584.734,556.83,585.897 M563.841,574.929c-0.167-1.943-0.246-3.759-0.27-5.443
			c-0.143-1.821-0.221-3.505-0.233-5.062c-0.143-1.29-0.231-2.731-0.245-4.286c-0.025-1.807-0.09-3.563-0.246-5.249
			c-0.141-1.555-0.232-3.111-0.246-4.666c0.119-1.57,0.168-3.061,0.156-4.488c-0.013-1.42-0.167-3.047-0.437-4.867
			c-0.157-1.937-0.3-3.493-0.441-4.668c-0.141-1.292-0.297-2.654-0.438-4.08c-0.269-1.168-0.491-2.33-0.621-3.5
			c-0.14-1.298-0.283-2.466-0.426-3.5c-0.01-0.904-0.025-1.755-0.025-2.53c-0.013-1.046-0.219-2.272-0.619-3.699
			c-0.286-1.291-0.621-2.525-1.034-3.688c-0.554-1.29-1.203-2.582-2.014-3.873l-0.994-1.543c-0.8-1.291-2.001-1.865-3.578-1.724
			c-0.414-1.175-1.216-1.937-2.4-2.318l-1.383-0.568c-1.447-0.498-2.969-0.748-4.559-0.737c-1.961,0.021-3.732,0.619-5.318,1.789
			c-1.307,0.806-2.545,1.859-3.72,3.163c-1.304,1.316-2.401,2.944-3.305,4.894c-0.916,1.698-1.55,3.524-1.923,5.474
			c-0.506,1.823-0.827,3.449-0.943,4.869c-0.246,1.441-0.375,2.803-0.361,4.106c0.013,1.027-0.027,2.13-0.157,3.299
			c-0.127,1.304-0.181,3.124-0.154,5.455c0.027,2.216,0.038,3.893,0.065,5.062l0.04,4.873c0.025,1.951,0.103,4.088,0.256,6.425
			c0.014,2.206,0.04,4.473,0.065,6.804c0.028,2.479,0.181,4.867,0.467,7.203c0.154,2.209,0.295,4.475,0.462,6.819
			c0.141,2.596,0.246,4.983,0.26,7.199c0.153,1.936,0.31,4.215,0.462,6.811c0.014,2.207,0.105,4.545,0.26,6.998
			c0.025,2.077,0.103,4.027,0.257,5.849c0.141,1.937,0.297,3.957,0.464,6.03c0.144,2.214,0.298,4.417,0.454,6.611
			c0.284,2.086,0.502,3.759,0.645,5.061c0.141,1.557,0.284,3.112,0.429,4.669c0.283,1.428,0.489,2.917,0.643,4.461
			c0.271,1.698,0.554,3.196,0.826,4.474c0.273,1.039,0.544,2.084,0.827,3.111c0.257,1.039,0.477,1.95,0.608,2.733
			c0.283,0.761,0.477,1.54,0.618,2.316c0.286,1.177,0.684,2.274,1.215,3.302c0.672,1.427,1.639,2.658,2.892,3.671
			c1.266,1.037,2.749,1.667,4.48,1.905c1.705,0.253,3.421,0.171,5.115-0.238c1.847-0.537,3.562-1.332,5.126-2.384
			c1.574-1.181,2.803-2.486,3.718-3.937c0.776-1.168,1.485-2.739,2.132-4.675c0.632-1.835,1.083-3.384,1.328-4.7
			c0.119-1.164,0.232-2.394,0.362-3.699c0.117-1.291,0.233-2.654,0.348-4.095c0.131-1.554,0.171-3.312,0.157-5.259
			c0-1.809,0.037-3.435,0.154-4.857c0.116-1.568,0.168-3.252,0.154-5.075c0.105-1.82,0.156-3.768,0.143-5.834
			c0.105-2.216,0.206-4.416,0.337-6.632c0.091-2.202,0.141-4.485,0.116-6.803c-0.141-2.086-0.092-3.712,0.153-4.881
			c0.119-1.427,0.167-3.317,0.143-5.649C564.062,578.958,563.984,576.879,563.841,574.929"/>
		<path d="M644.405,509.729l-1.577,0.02c-1.058,0.136-2.712,0.219-4.943,0.239c-2.234,0.013-4.613,0.04-7.118,0.065
			c-2.632,0.018-5.717,0.252-9.272,0.665c-3.423,0.304-6.909,0.646-10.471,1.08c-3.282,0.418-6.301,0.701-9.065,0.863
			c-2.904,0.157-5.409,0.31-7.502,0.452c-2.248,0.154-4.273,0.433-6.121,0.84l-2.361,0.607c-0.93,0.143-1.654,0.632-2.156,1.486
			c-0.532,0.85-0.686,1.755-0.478,2.723c0.221,0.974,0.735,1.691,1.602,2.131c0.863,0.445,1.742,0.6,2.671,0.457l2.364-0.6
			c1.445-0.407,3.084-0.621,4.945-0.632c1.963-0.143,4.429-0.298,7.385-0.46c2.97-0.155,6.157-0.452,9.582-0.872
			c0.4,0,0.788-0.069,1.172-0.198c-0.129,0.257-0.192,0.45-0.192,0.58l0.089,9.347c0.027,1.951,0.168,3.959,0.453,6.031
			c0.156,2.08,0.31,4.28,0.467,6.611c0.024,2.479,0.048,5.062,0.076,7.793c0.04,2.861,0.129,5.837,0.286,8.95
			c0.154,3.117,0.322,6.242,0.488,9.354c0.143,2.975,0.246,6.1,0.286,9.328c-0.103,3.254-0.181,6.533-0.206,9.846
			c-0.025,3.306-0.105,6.688-0.192,10.122c-0.105,3.449-0.206,6.591-0.311,9.453c-0.102,2.975-0.208,5.972-0.31,8.961
			c-0.105,2.861-0.206,5.641-0.308,8.374c-0.246,2.858-0.351,5.324-0.339,7.391c0.168,2.084,0.246,4.036,0.26,5.85
			c0.141,1.555,0.232,2.789,0.232,3.701v1.161c0.025,1.039,0.387,1.874,1.135,2.526c0.711,0.645,1.577,0.955,2.571,0.943
			c0.994,0,1.806-0.376,2.465-1.093c0.649-0.716,0.971-1.529,0.957-2.442l-0.013-1.362c0-0.909-0.103-2.202-0.247-3.899
			c-0.013-1.671-0.088-3.493-0.23-5.443c-0.025-1.949,0.076-4.221,0.324-6.817c0.103-2.729,0.206-5.651,0.308-8.774
			c0.107-2.848,0.209-5.836,0.313-8.948c0.102-2.859,0.208-6.004,0.296-9.45c0.103-3.443,0.167-6.819,0.208-10.13
			c0.038-3.306,0.103-6.58,0.205-9.833c-0.038-3.505-0.141-6.81-0.295-9.922c-0.17-2.989-0.338-6.038-0.492-9.149
			c-0.156-3.111-0.246-6.044-0.271-8.762c-0.024-2.852-0.064-5.512-0.078-7.985c-0.154-2.453-0.311-4.797-0.478-6.998
			c-0.27-1.95-0.424-3.757-0.437-5.448l-0.079-9.341c0-0.395-0.078-0.789-0.219-1.171c0.788-0.136,1.575-0.219,2.364-0.219
			c3.293-0.426,6.134-0.645,8.498-0.67c2.632-0.021,5.062-0.044,7.297-0.058c2.516-0.021,4.364-0.105,5.537-0.253l1.588-0.013
			c0.916-0.129,1.707-0.568,2.35-1.291c0.643-0.717,0.945-1.562,0.864-2.537c-0.076-0.969-0.478-1.782-1.215-2.428
			C646.341,509.847,645.452,509.595,644.405,509.729"/>
		<path d="M869.757,794.135c-13.503,46.018-26.017,78.213-38.243,98.407c-5.629,9.256-11.303,16.126-16.905,20.406
			c-5.035,3.867-10.045,5.742-15.325,5.742h-0.014c-17.701,0-37.69-21.559-60.829-46.513
			c-18.641-20.097-39.781-42.884-65.087-60.737c-29.532-20.828-59.233-30.951-90.792-30.952c-1.328,0-2.605,0.024-3.938,0.058
			c-3.2,0.085-6.44,0.137-9.591,0.137c-36.024,0-68.576-5.612-96.751-16.67c-26.068-10.229-48.447-25.124-66.51-44.268
			c-16.927-17.933-29.93-39.403-38.633-63.807c-8.3-23.315-12.513-48.71-12.513-75.482c0-31.105,5.903-63.644,17.084-94.104
			c5.644-15.385,12.629-30.324,20.764-44.404c8.327-14.372,17.896-27.909,28.444-40.261c22.314-26.113,48.627-46.644,78.211-61.009
			c32.008-15.551,67.09-23.447,104.252-23.447c57.28,0,118.408,18.638,181.661,55.4c11.054,6.424,21.615,15.579,31.416,27.218
			c9.437,11.222,18.244,24.858,26.171,40.52c15.11,29.847,27.171,67.544,34.876,109.024c7.501,40.376,10.82,83.96,9.622,126.024
			C885.886,718.506,879.882,759.566,869.757,794.135 M884.813,548.032c-7.835-42.157-20.117-80.552-35.557-111.025
			c-16.956-33.508-37.315-57.336-60.481-70.797c-64.406-37.433-126.783-56.408-185.393-56.408c-38.3,0-74.465,8.134-107.507,24.189
			c-30.498,14.823-57.627,35.973-80.598,62.875c-10.846,12.685-20.672,26.611-29.207,41.358c-8.38,14.44-15.559,29.78-21.342,45.572
			c-5.747,15.637-10.15,31.784-13.093,47.993c-2.944,16.256-4.454,32.636-4.455,48.668c0,27.624,4.375,53.863,12.975,77.975
			c9.038,25.382,22.569,47.726,40.207,66.414c18.814,19.948,42.093,35.458,69.209,46.086c29.039,11.393,62.509,17.174,99.463,17.175
			c3.214,0,6.507-0.048,9.799-0.131c1.253-0.03,2.468-0.044,3.73-0.044c67.611,0.001,113.527,49.514,150.433,89.309
			c11.994,12.943,23.329,25.161,33.97,33.973c12.28,10.178,22.545,14.918,32.305,14.919h0.027c6.87-0.011,13.545-2.453,19.845-7.275
			c6.418-4.927,12.541-12.275,18.725-22.469c12.574-20.754,25.346-53.522,39.017-100.163
			C897.596,725.601,900.552,632.827,884.813,548.032"/>
		<path d="M699.476,506.69l-10.458,0.096c-1.318,0.014-2.442,0.021-3.372,0.034c-1.177,0.011-2.439,0.083-3.743,0.218
			c-1.058,0.144-2.04,0.286-2.947,0.426l-1.588,0.016c-1.715,0.14-2.762,1.123-3.124,2.943c-0.27,0.53-0.4,1.041-0.386,1.57
			l-0.388,2.138c-0.116,1.567-0.157,3.641-0.129,6.236c0.013,2.466,0.064,5.512,0.088,9.153c-0.102,3.498-0.127,7.328-0.088,11.479
			c-0.078,4.164-0.18,8.58-0.274,13.247c0.042,4.675-0.243,9.22-0.861,13.636c-0.594,4.559-1.15,9.169-1.628,13.842
			c-0.505,4.556-0.891,8.999-1.162,13.352c-0.298,4.358-0.489,8.354-0.583,11.976c0.038,3.771,0.141,7.141,0.298,10.122
			c0.154,3.121,0.386,6.044,0.684,8.756c0.283,2.731,0.633,5.004,1.048,6.812c0.281,1.684,0.421,3.176,0.435,4.474
			c-0.13,1.562-0.165,2.724-0.154,3.504c0.014,2.74,1.678,4.474,4.984,5.212c1.975,0.492,3.952,0.614,5.925,0.338
			c1.577-0.143,3.15-0.355,4.727-0.633c1.459-0.141,2.633-0.284,3.563-0.421c1.046-0.013,2.031-0.081,2.958-0.212
			c0.913-0.141,1.898-0.288,2.944-0.42l1.391-0.212c0.921-0.266,1.683-0.798,2.262-1.584c0.583-0.772,0.773-1.66,0.554-2.634
			c-0.195-0.969-0.699-1.71-1.485-2.221c-0.802-0.503-1.666-0.699-2.581-0.563l-1.577,0.409c-0.928,0.141-1.742,0.239-2.466,0.308
			c-0.727,0.085-1.553,0.116-2.48,0.116c-1.044,0.151-2.428,0.293-4.132,0.447c-1.574,0.266-3.165,0.477-4.739,0.621
			c-0.915,0.134-1.845,0.147-2.764,0.025c0-0.646,0.052-1.292,0.184-1.949c-0.013-1.687-0.245-3.565-0.649-5.638
			c-0.27-1.814-0.566-4.016-0.85-6.618c-0.296-2.593-0.53-5.378-0.684-8.374c-0.153-2.846-0.246-6.03-0.286-9.535
			c0.095-3.621,0.246-7.521,0.478-11.684c0.119-2.073,0.284-4.152,0.544-6.23l1.367-0.221c1.191-0.263,2.377-0.464,3.565-0.607
			c1.046-0.014,2.028-0.014,2.944-0.025c1.318,0.123,2.581,0.168,3.767,0.156c1.318-0.014,2.831-0.284,4.522-0.814l1.974-0.419
			c1.061-0.266,1.806-0.827,2.262-1.673c0.464-0.851,0.58-1.724,0.362-2.633c-0.196-0.911-0.724-1.602-1.588-2.131
			c-0.865-0.503-1.76-0.621-2.674-0.355l-2.171,0.607c-1.174,0.277-2.169,0.407-2.958,0.407c-0.773,0.011-1.782-0.032-2.953-0.156
			c-1.333-0.116-2.701-0.112-4.146,0.037c-1.192,0.13-2.377,0.344-3.565,0.608c0.478-4.415,0.967-8.825,1.461-13.254
			c0.605-4.679,0.967-9.477,1.044-14.416c0.092-4.925,0.18-9.343,0.271-13.243c-0.039-4.15-0.028-8.036,0.079-11.691
			c-0.027-3.621-0.065-6.676-0.093-9.135c-0.014-2.35,0.038-4.164,0.157-5.455v-0.587c0.646-0.134,1.367-0.206,2.155-0.214
			c1.061-0.136,1.988-0.219,2.779-0.219c1.055-0.013,2.231-0.028,3.535-0.034l10.487-0.095c0.916-0.014,1.731-0.348,2.452-1.008
			c0.724-0.657,1.072-1.471,1.058-2.439c0-0.969-0.376-1.809-1.096-2.524C701.229,507.025,700.403,506.677,699.476,506.69"/>
		<path d="M786.528,509.176c-0.748-0.632-1.626-0.882-2.687-0.742l-1.575,0.013c-1.061,0.148-2.698,0.221-4.932,0.24
			c-2.246,0.013-4.61,0.038-7.114,0.064c-2.634,0.033-5.734,0.252-9.269,0.679c-3.425,0.29-6.923,0.645-10.461,1.065
			c-3.306,0.419-6.314,0.704-9.089,0.865c-2.895,0.154-5.396,0.308-7.502,0.451c-2.234,0.156-4.275,0.445-6.109,0.839l-2.376,0.607
			c-0.902,0.144-1.64,0.633-2.156,1.486c-0.513,0.851-0.658,1.756-0.464,2.725c0.204,0.976,0.737,1.693,1.601,2.13
			c0.851,0.447,1.758,0.6,2.671,0.458l2.364-0.601c1.448-0.406,3.098-0.618,4.932-0.631c1.975-0.144,4.442-0.297,7.4-0.46
			c2.968-0.154,6.158-0.438,9.58-0.872c0.397,0,0.788-0.069,1.188-0.199c-0.141,0.26-0.194,0.453-0.194,0.581l0.078,9.35
			c0.014,1.95,0.168,3.958,0.464,6.042c0.156,2.066,0.298,4.269,0.467,6.599c0.025,2.477,0.038,5.074,0.064,7.79
			c0.025,2.862,0.119,5.837,0.284,8.962c0.156,3.104,0.324,6.218,0.492,9.341c0.151,2.978,0.243,6.102,0.281,9.341
			c-0.113,3.241-0.168,6.52-0.206,9.833c-0.04,3.305-0.103,6.69-0.208,10.136c-0.088,3.433-0.191,6.58-0.307,9.439
			c-0.091,2.989-0.192,5.973-0.298,8.961c-0.102,2.861-0.206,5.643-0.308,8.373c-0.246,2.861-0.348,5.327-0.324,7.407
			c0.141,2.077,0.232,4.023,0.232,5.836c0.156,1.557,0.246,2.789,0.246,3.698l0.011,1.171c0.014,1.045,0.389,1.878,1.11,2.516
			c0.737,0.655,1.591,0.957,2.585,0.957c0.98-0.011,1.796-0.378,2.453-1.103c0.656-0.717,0.969-1.531,0.969-2.442l-0.024-1.362
			c0-0.911-0.078-2.203-0.222-3.886c-0.013-1.684-0.119-3.505-0.259-5.457c-0.025-1.949,0.102-4.21,0.337-6.819
			c0.102-2.731,0.205-5.649,0.313-8.759c0.102-2.861,0.204-5.85,0.305-8.974c0.106-2.849,0.194-5.993,0.31-9.44
			c0.092-3.426,0.157-6.804,0.194-10.129c0.027-3.306,0.102-6.578,0.194-9.826c-0.025-3.511-0.127-6.819-0.283-9.93
			c-0.165-2.989-0.322-6.035-0.478-9.148c-0.168-3.112-0.27-6.031-0.284-8.763c-0.024-2.851-0.052-5.512-0.076-7.979
			c-0.156-2.458-0.31-4.802-0.464-7.004c-0.286-1.944-0.426-3.756-0.443-5.45l-0.102-9.353c0-0.382-0.064-0.775-0.208-1.155
			c0.788-0.137,1.588-0.221,2.378-0.221c3.278-0.42,6.109-0.646,8.482-0.666c2.634-0.013,5.076-0.038,7.308-0.064
			c2.507-0.018,4.338-0.105,5.526-0.252l1.591-0.013c0.915-0.13,1.701-0.568,2.361-1.292c0.646-0.717,0.928-1.561,0.843-2.535
			C787.652,510.636,787.238,509.822,786.528,509.176"/>
		<g class="st20">
			<path d="M232.574,986.413h18.902c17.502,0,27.653,10.081,27.653,24.223v0.14c0,14.142-10.291,24.643-27.933,24.643h-18.622
				V986.413z M251.686,1023.376c8.121,0,13.511-4.48,13.511-12.392v-0.14c0-7.841-5.391-12.392-13.511-12.392h-5.531v24.923H251.686
				z"/>
			<path d="M286.124,986.413h39.414v11.551h-25.973v7.421h23.522v10.711h-23.522v7.771h26.323v11.551h-39.764V986.413z"/>
			<path d="M329.103,1028.136l7.561-9.03c4.831,3.851,10.221,5.881,15.892,5.881c3.64,0,5.601-1.261,5.601-3.36v-0.141
				c0-2.03-1.61-3.15-8.261-4.69c-10.431-2.38-18.482-5.32-18.482-15.401v-0.141c0-9.101,7.21-15.682,18.972-15.682
				c8.331,0,14.842,2.24,20.162,6.511l-6.791,9.592c-4.48-3.15-9.381-4.831-13.721-4.831c-3.291,0-4.901,1.4-4.901,3.15v0.141
				c0,2.24,1.68,3.22,8.471,4.76c11.271,2.45,18.271,6.091,18.271,15.262v0.141c0,10.011-7.911,15.961-19.812,15.961
				C343.384,1036.257,335.124,1033.527,329.103,1028.136z"/>
			<path d="M376.772,1011.055v-0.141c0-14.281,10.991-25.482,25.833-25.482c10.011,0,16.452,4.2,20.792,10.222l-10.221,7.91
				c-2.8-3.5-6.021-5.74-10.711-5.74c-6.861,0-11.691,5.811-11.691,12.951v0.14c0,7.352,4.831,13.092,11.691,13.092
				c5.11,0,8.121-2.38,11.061-5.95l10.221,7.28c-4.621,6.371-10.851,11.062-21.702,11.062
				C388.044,1036.398,376.772,1025.686,376.772,1011.055z"/>
			<path d="M428.922,1013.925v-27.513h13.792v27.232c0,7.071,3.57,10.432,9.031,10.432s9.031-3.221,9.031-10.081v-27.583h13.792
				v27.163c0,15.821-9.031,22.752-22.962,22.752C437.673,1036.328,428.922,1029.257,428.922,1013.925z"/>
			<path d="M482.612,986.413h25.133c6.161,0,10.501,1.54,13.372,4.41c1.96,1.96,3.15,4.551,3.15,7.911v0.14
				c0,5.671-3.22,9.031-7.561,10.921c5.951,1.961,9.731,5.321,9.731,11.972v0.14c0,8.401-6.861,13.512-18.552,13.512h-25.273
				V986.413z M504.384,1005.945c4.13,0,6.44-1.4,6.44-4.271v-0.141c0-2.66-2.1-4.2-6.161-4.2h-8.821v8.611H504.384z
				 M506.344,1024.497c4.13,0,6.511-1.61,6.511-4.48v-0.141c0-2.66-2.1-4.41-6.65-4.41h-10.361v9.031H506.344z"/>
			<path d="M532.662,986.413h23.172c7.491,0,12.671,1.96,15.962,5.32c2.87,2.8,4.34,6.581,4.34,11.411v0.14
				c0,7.491-3.99,12.462-10.081,15.052l11.691,17.082h-15.682l-9.871-14.842h-0.14h-5.811v14.842h-13.582V986.413z
				 M555.204,1009.935c4.621,0,7.281-2.24,7.281-5.811v-0.141c0-3.85-2.8-5.811-7.351-5.811h-8.891v11.762H555.204z"/>
			<path d="M582.991,986.413h39.414v11.551h-25.973v7.421h23.522v10.711h-23.522v7.771h26.323v11.551h-39.765V986.413z"/>
			<path d="M649.07,986.413h39.414v11.551h-25.973v7.421h23.522v10.711h-23.522v7.771h26.323v11.551H649.07V986.413z"/>
			<path d="M695.76,986.413h13.582v37.104h23.732v11.901H695.76V986.413z"/>
			<path d="M754.559,1028.136l7.562-9.03c4.83,3.851,10.221,5.881,15.892,5.881c3.64,0,5.601-1.261,5.601-3.36v-0.141
				c0-2.03-1.61-3.15-8.261-4.69c-10.432-2.38-18.482-5.32-18.482-15.401v-0.141c0-9.101,7.211-15.682,18.972-15.682
				c8.331,0,14.842,2.24,20.162,6.511l-6.79,9.592c-4.48-3.15-9.381-4.831-13.722-4.831c-3.29,0-4.9,1.4-4.9,3.15v0.141
				c0,2.24,1.68,3.22,8.471,4.76c11.271,2.45,18.271,6.091,18.271,15.262v0.141c0,10.011-7.91,15.961-19.812,15.961
				C768.841,1036.257,760.58,1033.527,754.559,1028.136z"/>
			<path d="M819.808,986.062h13.092l20.861,49.355h-14.562l-3.57-8.751h-18.901l-3.5,8.751h-14.282L819.808,986.062z
				 M831.709,1016.095l-5.461-13.932l-5.53,13.932H831.709z"/>
			<path d="M858.517,986.413h25.132c6.161,0,10.502,1.54,13.372,4.41c1.96,1.96,3.15,4.551,3.15,7.911v0.14
				c0,5.671-3.221,9.031-7.562,10.921c5.951,1.961,9.731,5.321,9.731,11.972v0.14c0,8.401-6.86,13.512-18.552,13.512h-25.272
				V986.413z M880.288,1005.945c4.131,0,6.441-1.4,6.441-4.271v-0.141c0-2.66-2.101-4.2-6.161-4.2h-8.82v8.611H880.288z
				 M882.249,1024.497c4.13,0,6.511-1.61,6.511-4.48v-0.141c0-2.66-2.101-4.41-6.651-4.41h-10.36v9.031H882.249z"/>
			<path d="M906.886,1011.055v-0.141c0-14.071,11.341-25.482,26.463-25.482s26.323,11.271,26.323,25.343v0.14
				c0,14.072-11.342,25.483-26.463,25.483C918.087,1036.398,906.886,1025.126,906.886,1011.055z M945.81,1011.055v-0.141
				c0-7.07-5.11-13.231-12.601-13.231c-7.421,0-12.392,6.021-12.392,13.092v0.14c0,7.071,5.11,13.231,12.531,13.231
				C940.84,1024.146,945.81,1018.125,945.81,1011.055z"/>
			<path d="M966.735,986.413h23.172c7.491,0,12.672,1.96,15.962,5.32c2.87,2.8,4.341,6.581,4.341,11.411v0.14
				c0,7.491-3.991,12.462-10.081,15.052l11.69,17.082h-15.682l-9.871-14.842h-0.14h-5.811v14.842h-13.581V986.413z
				 M989.277,1009.935c4.62,0,7.281-2.24,7.281-5.811v-0.141c0-3.85-2.801-5.811-7.352-5.811h-8.891v11.762H989.277z"/>
		</g>
		<g class="st20">
			<path d="M359.938,1058.413h14.352l11.691,18.972l11.691-18.972h14.352v49.005h-13.511v-28.143l-12.531,19.182h-0.28
				l-12.461-19.042v28.003h-13.301V1058.413z"/>
			<path d="M437.64,1058.062h13.091l20.862,49.356h-14.562l-3.57-8.751H434.56l-3.5,8.751h-14.282L437.64,1058.062z
				 M449.541,1088.095l-5.461-13.932l-5.53,13.932H449.541z M445.971,1042.17l12.391,3.99l-10.291,8.961h-9.381L445.971,1042.17z"/>
			<path d="M472.637,1100.136l7.561-9.03c4.831,3.851,10.221,5.881,15.892,5.881c3.641,0,5.601-1.261,5.601-3.36v-0.141
				c0-2.03-1.61-3.15-8.261-4.69c-10.431-2.38-18.482-5.32-18.482-15.401v-0.141c0-9.101,7.21-15.682,18.972-15.682
				c8.331,0,14.842,2.24,20.162,6.511l-6.791,9.592c-4.48-3.15-9.381-4.831-13.722-4.831c-3.29,0-4.9,1.4-4.9,3.15v0.141
				c0,2.24,1.68,3.22,8.471,4.76c11.271,2.45,18.272,6.091,18.272,15.262v0.141c0,10.011-7.911,15.961-19.812,15.961
				C486.919,1108.258,478.658,1105.527,472.637,1100.136z"/>
			<path d="M541.657,1058.413h13.651v49.005h-13.651V1058.413z"/>
			<path d="M564.266,1058.413h12.671l20.162,25.902v-25.902h13.441v49.005H598.64l-20.932-26.883v26.883h-13.441V1058.413z"/>
			<path d="M631.187,1070.314h-14.701v-11.901h42.984v11.901h-14.701v37.104h-13.582V1070.314z"/>
			<path d="M665.415,1058.413h39.414v11.551h-25.973v7.421h23.522v10.711h-23.522v7.771h26.322v11.551h-39.764V1058.413z"/>
			<path d="M712.104,1058.413h12.671l20.162,25.902v-25.902h13.441v49.005h-11.901l-20.932-26.883v26.883h-13.441V1058.413z"/>
			<path d="M763.343,1100.136l7.562-9.03c4.83,3.851,10.221,5.881,15.892,5.881c3.64,0,5.601-1.261,5.601-3.36v-0.141
				c0-2.03-1.61-3.15-8.261-4.69c-10.432-2.38-18.482-5.32-18.482-15.401v-0.141c0-9.101,7.211-15.682,18.972-15.682
				c8.331,0,14.842,2.24,20.162,6.511l-6.79,9.592c-4.48-3.15-9.381-4.831-13.722-4.831c-3.29,0-4.9,1.4-4.9,3.15v0.141
				c0,2.24,1.68,3.22,8.471,4.76c11.271,2.45,18.271,6.091,18.271,15.262v0.141c0,10.011-7.91,15.961-19.812,15.961
				C777.625,1108.258,769.364,1105.527,763.343,1100.136z"/>
			<path d="M811.013,1083.055v-0.141c0-14.071,11.342-25.482,26.463-25.482c15.122,0,26.323,11.271,26.323,25.343v0.14
				c0,14.072-11.342,25.484-26.463,25.484C822.214,1108.398,811.013,1097.126,811.013,1083.055z M849.938,1083.055v-0.141
				c0-7.07-5.111-13.231-12.602-13.231c-7.421,0-12.392,6.021-12.392,13.092v0.14c0,7.071,5.11,13.231,12.531,13.231
				C844.967,1096.146,849.938,1090.125,849.938,1083.055z"/>
			<path d="M867.431,1093.766h13.861v13.652h-13.861V1093.766z"/>
		</g>
		<g class="st20">
			<path d="M314.075,1228.72l5.459-6.539c3.78,3.119,7.74,5.1,12.54,5.1c3.78,0,6.06-1.5,6.06-3.96v-0.12
				c0-2.34-1.44-3.54-8.459-5.34c-8.459-2.16-13.919-4.5-13.919-12.839v-0.12c0-7.62,6.12-12.66,14.699-12.66
				c6.12,0,11.34,1.92,15.6,5.34l-4.8,6.96c-3.72-2.58-7.38-4.14-10.919-4.14c-3.54,0-5.4,1.62-5.4,3.66v0.119
				c0,2.761,1.8,3.66,9.06,5.521c8.52,2.22,13.319,5.279,13.319,12.6v0.119c0,8.34-6.359,13.02-15.419,13.02
				C325.535,1235.439,319.115,1233.22,314.075,1228.72z"/>
			<path d="M354.155,1223.5v-20.818h9.12v17.938c0,4.32,2.04,6.54,5.52,6.54c3.48,0,5.7-2.22,5.7-6.54v-17.938h9.12v32.158h-9.12
				v-4.56c-2.1,2.699-4.8,5.159-9.42,5.159C358.175,1235.439,354.155,1230.88,354.155,1223.5z"/>
		</g>
		<g class="st20">
			<path class="st7" d="M408.213,1218.94v-0.12c0-9.18,7.02-16.739,16.859-16.739c6.06,0,9.839,2.04,12.839,5.399l-5.58,6
				c-2.04-2.16-4.08-3.54-7.319-3.54c-4.56,0-7.8,4.021-7.8,8.76v0.12c0,4.92,3.18,8.88,8.16,8.88c3.06,0,5.16-1.32,7.38-3.42
				l5.339,5.399c-3.12,3.42-6.72,5.88-13.139,5.88C415.292,1235.56,408.213,1228.12,408.213,1218.94z"/>
			<path class="st7" d="M444.033,1202.682h9.12v6.479c1.86-4.44,4.859-7.32,10.259-7.08v9.54h-0.48
				c-6.06,0-9.779,3.659-9.779,11.339v11.88h-9.12V1202.682z"/>
			<path class="st7" d="M468.873,1223.5v-20.818h9.12v17.938c0,4.32,2.04,6.54,5.52,6.54c3.48,0,5.7-2.22,5.7-6.54v-17.938h9.12
				v32.158h-9.12v-4.56c-2.1,2.699-4.8,5.159-9.42,5.159C472.893,1235.439,468.873,1230.88,468.873,1223.5z"/>
			<path class="st7" d="M501.752,1244.26v-7.14c0.72,0.12,1.26,0.18,1.92,0.18c1.92,0,3.24-1.021,3.24-3.72v-30.898h9.12v31.618
				c0,7.08-3.6,10.319-10.32,10.319C504.032,1244.619,503.012,1244.499,501.752,1244.26z M506.672,1191.042h9.6v8.1h-9.6V1191.042z"
				/>
			<path class="st7" d="M524.791,1191.042h9.6v8.1h-9.6V1191.042z M525.031,1202.682h9.12v32.158h-9.12V1202.682z"/>
			<path class="st7" d="M541.17,1218.94v-0.12c0-9.18,6.54-16.739,15.899-16.739c10.739,0,15.659,8.34,15.659,17.459
				c0,0.721-0.06,1.561-0.12,2.4H550.23c0.9,4.14,3.78,6.3,7.859,6.3c3.06,0,5.28-0.96,7.8-3.3l5.22,4.62
				c-3,3.72-7.319,5.999-13.139,5.999C548.31,1235.56,541.17,1228.78,541.17,1218.94z M563.849,1216.24
				c-0.54-4.079-2.939-6.84-6.779-6.84c-3.78,0-6.24,2.7-6.96,6.84H563.849z"/>
			<path class="st7" d="M579.51,1202.682h9.119v4.56c2.1-2.7,4.8-5.16,9.42-5.16c6.899,0,10.919,4.56,10.919,11.939v20.819h-9.12
				V1216.9c0-4.319-2.04-6.539-5.52-6.539c-3.48,0-5.7,2.22-5.7,6.539v17.939h-9.119V1202.682z"/>
			<path class="st7" d="M618.389,1225.721v-15.24h-3.84v-7.799h3.84v-8.22h9.12v8.22h7.56v7.799h-7.56v13.74
				c0,2.1,0.9,3.119,2.939,3.119c1.681,0,3.181-0.42,4.5-1.14v7.319c-1.92,1.141-4.14,1.86-7.199,1.86
				C622.169,1235.38,618.389,1233.16,618.389,1225.721z"/>
			<path class="st7" d="M639.336,1218.94v-0.12c0-9.18,6.539-16.739,15.899-16.739c10.739,0,15.659,8.34,15.659,17.459
				c0,0.721-0.061,1.561-0.12,2.4h-22.379c0.899,4.14,3.779,6.3,7.859,6.3c3.06,0,5.28-0.96,7.8-3.3l5.22,4.62
				c-3,3.72-7.319,5.999-13.14,5.999C646.476,1235.56,639.336,1228.78,639.336,1218.94z M662.015,1216.24
				c-0.54-4.079-2.939-6.84-6.779-6.84c-3.78,0-6.24,2.7-6.96,6.84H662.015z"/>
		</g>
		<g class="st20">
			<path d="M698.067,1225.721v-15.24h-3.84v-7.799h3.84v-8.22h9.12v8.22h7.56v7.799h-7.56v13.74c0,2.1,0.9,3.119,2.939,3.119
				c1.681,0,3.181-0.42,4.5-1.14v7.319c-1.92,1.141-4.14,1.86-7.199,1.86C701.848,1235.38,698.067,1233.16,698.067,1225.721z"/>
			<path d="M719.014,1218.94v-0.12c0-9.18,6.54-16.739,15.899-16.739c10.739,0,15.659,8.34,15.659,17.459
				c0,0.721-0.06,1.561-0.12,2.4h-22.379c0.9,4.14,3.78,6.3,7.86,6.3c3.06,0,5.279-0.96,7.799-3.3l5.22,4.62
				c-2.999,3.72-7.319,5.999-13.139,5.999C726.153,1235.56,719.014,1228.78,719.014,1218.94z M741.693,1216.24
				c-0.54-4.079-2.94-6.84-6.78-6.84c-3.779,0-6.239,2.7-6.96,6.84H741.693z"/>
			<path d="M764.132,1218.521l-10.86-15.839h9.78l5.999,9.359l6.061-9.359h9.539l-10.859,15.659l11.34,16.499h-9.78l-6.479-10.02
				l-6.479,10.02h-9.54L764.132,1218.521z"/>
			<path d="M792.092,1225.721v-15.24h-3.84v-7.799h3.84v-8.22h9.119v8.22h7.561v7.799h-7.561v13.74c0,2.1,0.9,3.119,2.94,3.119
				c1.68,0,3.18-0.42,4.5-1.14v7.319c-1.92,1.141-4.14,1.86-7.2,1.86C795.872,1235.38,792.092,1233.16,792.092,1225.721z"/>
			<path d="M815.251,1223.5v-20.818h9.12v17.938c0,4.32,2.04,6.54,5.52,6.54s5.7-2.22,5.7-6.54v-17.938h9.119v32.158h-9.119v-4.56
				c-2.101,2.699-4.8,5.159-9.42,5.159C819.271,1235.439,815.251,1230.88,815.251,1223.5z"/>
			<path d="M852.871,1202.682h9.119v6.479c1.86-4.44,4.859-7.32,10.26-7.08v9.54h-0.48c-6.06,0-9.779,3.659-9.779,11.339v11.88
				h-9.119V1202.682z"/>
			<path d="M874.536,1225.601v-0.12c0-7.02,5.34-10.26,12.96-10.26c3.239,0,5.579,0.54,7.859,1.32v-0.54
				c0-3.78-2.34-5.88-6.899-5.88c-3.48,0-5.94,0.66-8.88,1.739l-2.28-6.959c3.54-1.561,7.02-2.58,12.479-2.58
				c4.979,0,8.58,1.319,10.859,3.6c2.4,2.4,3.48,5.939,3.48,10.26v18.659h-8.82v-3.479c-2.22,2.46-5.279,4.079-9.719,4.079
				C879.516,1235.439,874.536,1231.96,874.536,1225.601z M895.476,1223.5v-1.619c-1.561-0.721-3.601-1.2-5.82-1.2
				c-3.899,0-6.3,1.56-6.3,4.439v0.12c0,2.46,2.04,3.899,4.98,3.899C892.596,1229.14,895.476,1226.8,895.476,1223.5z"/>
		</g>
		<g class="st20">
			<path d="M226.866,1262.682h9.119v6.479c1.86-4.44,4.86-7.32,10.26-7.08v9.54h-0.48c-6.06,0-9.78,3.659-9.78,11.339v11.88h-9.119
				V1262.682z"/>
			<path d="M249.493,1278.94v-0.12c0-9.18,6.54-16.739,15.899-16.739c10.739,0,15.659,8.34,15.659,17.459
				c0,0.721-0.06,1.561-0.12,2.4h-22.379c0.9,4.14,3.78,6.3,7.86,6.3c3.06,0,5.279-0.96,7.799-3.3l5.22,4.62
				c-3,3.72-7.319,5.999-13.139,5.999C256.632,1295.56,249.493,1288.78,249.493,1278.94z M272.172,1276.24
				c-0.54-4.079-2.94-6.84-6.78-6.84c-3.78,0-6.24,2.7-6.96,6.84H272.172z"/>
			<path d="M285.312,1290.58l3.9-6c3.479,2.521,7.14,3.84,10.14,3.84c2.64,0,3.84-0.96,3.84-2.399v-0.12c0-1.98-3.12-2.64-6.66-3.72
				c-4.5-1.32-9.6-3.42-9.6-9.66v-0.12c0-6.539,5.28-10.199,11.76-10.199c4.08,0,8.52,1.38,12,3.72l-3.48,6.3
				c-3.18-1.859-6.36-3-8.7-3c-2.22,0-3.36,0.96-3.36,2.22v0.12c0,1.8,3.06,2.641,6.54,3.84c4.5,1.5,9.719,3.66,9.719,9.54v0.12
				c0,7.14-5.339,10.379-12.299,10.379C294.611,1295.439,289.572,1293.939,285.312,1290.58z"/>
			<path d="M316.032,1285.601v-0.12c0-7.02,5.339-10.26,12.959-10.26c3.24,0,5.58,0.54,7.86,1.32v-0.54c0-3.78-2.34-5.88-6.9-5.88
				c-3.479,0-5.939,0.66-8.879,1.739l-2.28-6.959c3.54-1.561,7.02-2.58,12.479-2.58c4.979,0,8.58,1.319,10.859,3.6
				c2.4,2.4,3.48,5.939,3.48,10.26v18.659h-8.82v-3.479c-2.22,2.46-5.28,4.079-9.72,4.079
				C321.012,1295.439,316.032,1291.96,316.032,1285.601z M336.971,1283.5v-1.619c-1.56-0.721-3.6-1.2-5.82-1.2
				c-3.9,0-6.3,1.56-6.3,4.439v0.12c0,2.46,2.04,3.899,4.98,3.899C334.091,1289.14,336.971,1286.8,336.971,1283.5z"/>
			<path d="M353.892,1251.042h9.12v43.798h-9.12V1251.042z"/>
			<path d="M373.09,1285.721v-15.24h-3.84v-7.799h3.84v-8.22h9.12v8.22h7.56v7.799h-7.56v13.74c0,2.1,0.9,3.119,2.94,3.119
				c1.68,0,3.18-0.42,4.5-1.14v7.319c-1.92,1.141-4.14,1.86-7.2,1.86C376.87,1295.38,373.09,1293.16,373.09,1285.721z"/>
			<path d="M394.57,1285.601v-0.12c0-7.02,5.34-10.26,12.96-10.26c3.24,0,5.58,0.54,7.859,1.32v-0.54c0-3.78-2.34-5.88-6.899-5.88
				c-3.48,0-5.94,0.66-8.88,1.739l-2.28-6.959c3.54-1.561,7.02-2.58,12.479-2.58c4.979,0,8.58,1.319,10.859,3.6
				c2.4,2.4,3.48,5.939,3.48,10.26v18.659h-8.82v-3.479c-2.22,2.46-5.28,4.079-9.719,4.079
				C399.55,1295.439,394.57,1291.96,394.57,1285.601z M415.51,1283.5v-1.619c-1.56-0.721-3.6-1.2-5.82-1.2
				c-3.9,0-6.3,1.56-6.3,4.439v0.12c0,2.46,2.04,3.899,4.98,3.899C412.63,1289.14,415.51,1286.8,415.51,1283.5z"/>
			<path d="M451.509,1285.721v-15.24h-3.84v-7.799h3.84v-8.22h9.12v8.22h7.56v7.799h-7.56v13.74c0,2.1,0.9,3.119,2.94,3.119
				c1.68,0,3.18-0.42,4.5-1.14v7.319c-1.92,1.141-4.14,1.86-7.2,1.86C455.289,1295.38,451.509,1293.16,451.509,1285.721z"/>
			<path d="M472.456,1278.94v-0.12c0-9.239,7.439-16.739,17.459-16.739c9.96,0,17.339,7.38,17.339,16.619v0.12
				c0,9.24-7.439,16.739-17.459,16.739C479.835,1295.56,472.456,1288.18,472.456,1278.94z M498.254,1278.94v-0.12
				c0-4.739-3.42-8.88-8.459-8.88c-5.22,0-8.34,4.021-8.34,8.76v0.12c0,4.74,3.42,8.88,8.459,8.88
				C495.135,1287.7,498.254,1283.681,498.254,1278.94z"/>
			<path d="M512.414,1278.82v-0.12c0-10.739,7.02-16.619,14.64-16.619c4.86,0,7.86,2.22,10.02,4.8v-15.839h9.12v43.798h-9.12v-4.62
				c-2.22,3-5.28,5.22-10.02,5.22C519.554,1295.439,512.414,1289.561,512.414,1278.82z M537.193,1278.82v-0.12
				c0-5.34-3.54-8.879-7.8-8.879s-7.859,3.479-7.859,8.879v0.12c0,5.34,3.6,8.88,7.859,8.88S537.193,1284.16,537.193,1278.82z"/>
			<path d="M552.794,1278.94v-0.12c0-9.239,7.439-16.739,17.459-16.739c9.96,0,17.339,7.38,17.339,16.619v0.12
				c0,9.24-7.439,16.739-17.459,16.739C560.173,1295.56,552.794,1288.18,552.794,1278.94z M578.593,1278.94v-0.12
				c0-4.739-3.42-8.88-8.459-8.88c-5.22,0-8.34,4.021-8.34,8.76v0.12c0,4.74,3.42,8.88,8.459,8.88
				C575.473,1287.7,578.593,1283.681,578.593,1278.94z"/>
			<path d="M591.673,1290.58l3.9-6c3.479,2.521,7.14,3.84,10.14,3.84c2.64,0,3.84-0.96,3.84-2.399v-0.12c0-1.98-3.12-2.64-6.66-3.72
				c-4.5-1.32-9.6-3.42-9.6-9.66v-0.12c0-6.539,5.28-10.199,11.76-10.199c4.08,0,8.52,1.38,12,3.72l-3.48,6.3
				c-3.18-1.859-6.36-3-8.7-3c-2.22,0-3.36,0.96-3.36,2.22v0.12c0,1.8,3.06,2.641,6.54,3.84c4.5,1.5,9.719,3.66,9.719,9.54v0.12
				c0,7.14-5.339,10.379-12.299,10.379C600.973,1295.439,595.933,1293.939,591.673,1290.58z"/>
			<path d="M642.732,1251.042h9.119v43.798h-9.119V1251.042z"/>
			<path d="M658.871,1278.94v-0.12c0-9.239,7.439-16.739,17.459-16.739c9.96,0,17.34,7.38,17.34,16.619v0.12
				c0,9.24-7.439,16.739-17.459,16.739C666.251,1295.56,658.871,1288.18,658.871,1278.94z M684.67,1278.94v-0.12
				c0-4.739-3.42-8.88-8.459-8.88c-5.22,0-8.34,4.021-8.34,8.76v0.12c0,4.74,3.42,8.88,8.459,8.88
				C681.551,1287.7,684.67,1283.681,684.67,1278.94z"/>
			<path d="M697.75,1290.58l3.9-6c3.479,2.521,7.14,3.84,10.14,3.84c2.64,0,3.84-0.96,3.84-2.399v-0.12c0-1.98-3.12-2.64-6.66-3.72
				c-4.5-1.32-9.6-3.42-9.6-9.66v-0.12c0-6.539,5.279-10.199,11.76-10.199c4.079,0,8.52,1.38,11.999,3.72l-3.479,6.3
				c-3.18-1.859-6.36-3-8.7-3c-2.22,0-3.359,0.96-3.359,2.22v0.12c0,1.8,3.06,2.641,6.54,3.84c4.499,1.5,9.719,3.66,9.719,9.54v0.12
				c0,7.14-5.339,10.379-12.299,10.379C707.05,1295.439,702.01,1293.939,697.75,1290.58z"/>
			<path d="M745.87,1290.58l3.899-6c3.479,2.521,7.14,3.84,10.14,3.84c2.64,0,3.84-0.96,3.84-2.399v-0.12
				c0-1.98-3.12-2.64-6.66-3.72c-4.499-1.32-9.6-3.42-9.6-9.66v-0.12c0-6.539,5.28-10.199,11.76-10.199c4.08,0,8.52,1.38,12,3.72
				l-3.48,6.3c-3.18-1.859-6.359-3-8.699-3c-2.22,0-3.36,0.96-3.36,2.22v0.12c0,1.8,3.061,2.641,6.54,3.84
				c4.5,1.5,9.72,3.66,9.72,9.54v0.12c0,7.14-5.34,10.379-12.3,10.379C755.169,1295.439,750.13,1293.939,745.87,1290.58z"/>
			<path d="M776.59,1285.601v-0.12c0-7.02,5.339-10.26,12.959-10.26c3.24,0,5.58,0.54,7.859,1.32v-0.54c0-3.78-2.34-5.88-6.899-5.88
				c-3.479,0-5.939,0.66-8.88,1.739l-2.279-6.959c3.539-1.561,7.02-2.58,12.479-2.58c4.979,0,8.579,1.319,10.859,3.6
				c2.399,2.4,3.479,5.939,3.479,10.26v18.659h-8.819v-3.479c-2.22,2.46-5.28,4.079-9.72,4.079
				C781.569,1295.439,776.59,1291.96,776.59,1285.601z M797.528,1283.5v-1.619c-1.56-0.721-3.6-1.2-5.819-1.2
				c-3.9,0-6.3,1.56-6.3,4.439v0.12c0,2.46,2.04,3.899,4.979,3.899C794.648,1289.14,797.528,1286.8,797.528,1283.5z"/>
			<path d="M823.149,1290.64v4.2h-9.12v-43.798h9.12v16.259c2.22-3,5.279-5.22,10.02-5.22c7.499,0,14.64,5.88,14.64,16.619v0.12
				c0,10.74-7.021,16.619-14.64,16.619C828.309,1295.439,825.309,1293.22,823.149,1290.64z M838.688,1278.82v-0.12
				c0-5.34-3.6-8.879-7.859-8.879c-4.261,0-7.8,3.539-7.8,8.879v0.12c0,5.34,3.539,8.88,7.8,8.88
				C835.089,1287.7,838.688,1284.221,838.688,1278.82z"/>
			<path d="M852.969,1278.94v-0.12c0-9.239,7.44-16.739,17.46-16.739c9.959,0,17.339,7.38,17.339,16.619v0.12
				c0,9.24-7.439,16.739-17.459,16.739C860.349,1295.56,852.969,1288.18,852.969,1278.94z M878.769,1278.94v-0.12
				c0-4.739-3.42-8.88-8.46-8.88c-5.22,0-8.34,4.021-8.34,8.76v0.12c0,4.74,3.42,8.88,8.46,8.88
				C875.648,1287.7,878.769,1283.681,878.769,1278.94z"/>
			<path d="M894.368,1262.682h9.119v6.479c1.86-4.44,4.86-7.32,10.26-7.08v9.54h-0.479c-6.061,0-9.78,3.659-9.78,11.339v11.88
				h-9.119V1262.682z"/>
			<path d="M916.994,1278.94v-0.12c0-9.18,6.54-16.739,15.899-16.739c10.74,0,15.66,8.34,15.66,17.459c0,0.721-0.061,1.561-0.12,2.4
				h-22.38c0.9,4.14,3.78,6.3,7.86,6.3c3.06,0,5.279-0.96,7.8-3.3l5.22,4.62c-3,3.72-7.32,5.999-13.14,5.999
				C924.134,1295.56,916.994,1288.78,916.994,1278.94z M939.674,1276.24c-0.54-4.079-2.94-6.84-6.78-6.84
				c-3.779,0-6.239,2.7-6.959,6.84H939.674z"/>
			<path d="M952.813,1290.58l3.9-6c3.479,2.521,7.14,3.84,10.14,3.84c2.64,0,3.84-0.96,3.84-2.399v-0.12c0-1.98-3.12-2.64-6.66-3.72
				c-4.5-1.32-9.6-3.42-9.6-9.66v-0.12c0-6.539,5.28-10.199,11.76-10.199c4.08,0,8.52,1.38,11.999,3.72l-3.479,6.3
				c-3.18-1.859-6.359-3-8.699-3c-2.221,0-3.36,0.96-3.36,2.22v0.12c0,1.8,3.06,2.641,6.54,3.84c4.5,1.5,9.72,3.66,9.72,9.54v0.12
				c0,7.14-5.34,10.379-12.3,10.379C962.113,1295.439,957.073,1293.939,952.813,1290.58z"/>
			<path d="M982.934,1300.779c4.141-0.42,6.18-2.52,5.88-5.939h-3.72v-9.6h9.72v8.1c0,7.92-3.96,11.1-11.1,11.22L982.934,1300.779z"
				/>
		</g>
		<g class="st20">
			<path d="M281.016,1338.94v-0.12c0-9.18,7.02-16.739,16.859-16.739c6.06,0,9.839,2.04,12.839,5.399l-5.58,6
				c-2.04-2.16-4.08-3.54-7.319-3.54c-4.56,0-7.8,4.021-7.8,8.76v0.12c0,4.92,3.18,8.88,8.16,8.88c3.06,0,5.16-1.32,7.38-3.42
				l5.339,5.399c-3.12,3.42-6.72,5.88-13.139,5.88C288.096,1355.56,281.016,1348.12,281.016,1338.94z"/>
			<path d="M316.836,1322.682h9.119v6.479c1.86-4.44,4.86-7.32,10.26-7.08v9.54h-0.48c-6.06,0-9.78,3.659-9.78,11.339v11.88h-9.119
				V1322.682z"/>
			<path d="M339.462,1338.94v-0.12c0-9.18,6.54-16.739,15.899-16.739c10.739,0,15.659,8.34,15.659,17.459
				c0,0.721-0.06,1.561-0.12,2.4h-22.379c0.9,4.14,3.78,6.3,7.86,6.3c3.06,0,5.279-0.96,7.799-3.3l5.22,4.62
				c-3,3.72-7.319,5.999-13.139,5.999C346.602,1355.56,339.462,1348.78,339.462,1338.94z M362.142,1336.24
				c-0.54-4.079-2.94-6.84-6.78-6.84c-3.78,0-6.24,2.7-6.96,6.84H362.142z"/>
			<path d="M375.882,1345.601v-0.12c0-7.02,5.339-10.26,12.959-10.26c3.24,0,5.58,0.54,7.86,1.32v-0.54c0-3.78-2.34-5.88-6.9-5.88
				c-3.479,0-5.939,0.66-8.879,1.739l-2.28-6.959c3.54-1.561,7.02-2.58,12.479-2.58c4.979,0,8.58,1.319,10.859,3.6
				c2.4,2.4,3.48,5.939,3.48,10.26v18.659h-8.82v-3.479c-2.22,2.46-5.28,4.079-9.72,4.079
				C380.861,1355.439,375.882,1351.96,375.882,1345.601z M396.821,1343.5v-1.619c-1.56-0.721-3.6-1.2-5.82-1.2
				c-3.9,0-6.3,1.56-6.3,4.439v0.12c0,2.46,2.04,3.899,4.98,3.899C393.941,1349.14,396.821,1346.8,396.821,1343.5z"/>
			<path d="M413.321,1322.682h9.12v4.56c2.1-2.7,4.8-5.16,9.419-5.16c6.9,0,10.919,4.56,10.919,11.939v20.819h-9.12V1336.9
				c0-4.319-2.04-6.539-5.52-6.539c-3.48,0-5.7,2.22-5.7,6.539v17.939h-9.12V1322.682z"/>
			<path d="M449.261,1338.82v-0.12c0-10.739,7.02-16.619,14.639-16.619c4.86,0,7.86,2.22,10.02,4.8v-15.839h9.12v43.798h-9.12v-4.62
				c-2.22,3-5.28,5.22-10.02,5.22C456.4,1355.439,449.261,1349.561,449.261,1338.82z M474.04,1338.82v-0.12
				c0-5.34-3.54-8.879-7.8-8.879s-7.86,3.479-7.86,8.879v0.12c0,5.34,3.6,8.88,7.86,8.88S474.04,1344.16,474.04,1338.82z"/>
			<path d="M489.64,1338.94v-0.12c0-9.239,7.439-16.739,17.459-16.739c9.96,0,17.339,7.38,17.339,16.619v0.12
				c0,9.24-7.439,16.739-17.459,16.739C497.02,1355.56,489.64,1348.18,489.64,1338.94z M515.439,1338.94v-0.12
				c0-4.739-3.42-8.88-8.459-8.88c-5.22,0-8.34,4.021-8.34,8.76v0.12c0,4.74,3.42,8.88,8.459,8.88
				C512.319,1347.7,515.439,1343.681,515.439,1338.94z"/>
			<path d="M548.798,1343.5v-20.818h9.12v17.938c0,4.32,2.04,6.54,5.52,6.54c3.48,0,5.7-2.22,5.7-6.54v-17.938h9.12v32.158h-9.12
				v-4.56c-2.1,2.699-4.8,5.159-9.42,5.159C552.818,1355.439,548.798,1350.88,548.798,1343.5z"/>
			<path d="M586.418,1322.682h9.119v4.56c2.1-2.7,4.8-5.16,9.42-5.16c6.899,0,10.919,4.56,10.919,11.939v20.819h-9.12V1336.9
				c0-4.319-2.04-6.539-5.52-6.539c-3.48,0-5.7,2.22-5.7,6.539v17.939h-9.119V1322.682z"/>
			<path d="M621.877,1345.601v-0.12c0-7.02,5.339-10.26,12.959-10.26c3.24,0,5.58,0.54,7.859,1.32v-0.54
				c0-3.78-2.34-5.88-6.899-5.88c-3.479,0-5.939,0.66-8.88,1.739l-2.279-6.959c3.539-1.561,7.02-2.58,12.479-2.58
				c4.979,0,8.579,1.319,10.859,3.6c2.399,2.4,3.479,5.939,3.479,10.26v18.659h-8.819v-3.479c-2.22,2.46-5.28,4.079-9.72,4.079
				C626.856,1355.439,621.877,1351.96,621.877,1345.601z M642.815,1343.5v-1.619c-1.56-0.721-3.6-1.2-5.819-1.2
				c-3.9,0-6.3,1.56-6.3,4.439v0.12c0,2.46,2.04,3.899,4.979,3.899C639.936,1349.14,642.815,1346.8,642.815,1343.5z"/>
		</g>
		<g class="st20">
			<path class="st19" d="M676.769,1338.82v-0.12c0-10.739,7.021-16.619,14.64-16.619c4.86,0,7.86,2.22,10.02,4.8v-15.839h9.12
				v43.798h-9.12v-4.62c-2.22,3-5.279,5.22-10.02,5.22C683.909,1355.439,676.769,1349.561,676.769,1338.82z M701.548,1338.82v-0.12
				c0-5.34-3.54-8.879-7.8-8.879s-7.859,3.479-7.859,8.879v0.12c0,5.34,3.6,8.88,7.859,8.88S701.548,1344.16,701.548,1338.82z"/>
			<path class="st19" d="M717.148,1338.94v-0.12c0-9.18,6.539-16.739,15.899-16.739c10.739,0,15.659,8.34,15.659,17.459
				c0,0.721-0.061,1.561-0.12,2.4h-22.379c0.899,4.14,3.779,6.3,7.859,6.3c3.06,0,5.279-0.96,7.8-3.3l5.22,4.62
				c-3,3.72-7.319,5.999-13.14,5.999C724.288,1355.56,717.148,1348.78,717.148,1338.94z M739.827,1336.24
				c-0.54-4.079-2.939-6.84-6.779-6.84c-3.78,0-6.24,2.7-6.96,6.84H739.827z"/>
			<path class="st19" d="M755.908,1311.042h9.119v43.798h-9.119V1311.042z"/>
			<path class="st19" d="M773.787,1311.042h9.6v8.1h-9.6V1311.042z M774.027,1322.682h9.119v32.158h-9.119V1322.682z"/>
			<path class="st19" d="M790.166,1338.94v-0.12c0-9.18,7.02-16.739,16.859-16.739c6.06,0,9.84,2.04,12.84,5.399l-5.58,6
				c-2.04-2.16-4.08-3.54-7.319-3.54c-4.561,0-7.8,4.021-7.8,8.76v0.12c0,4.92,3.18,8.88,8.159,8.88c3.061,0,5.16-1.32,7.38-3.42
				l5.34,5.399c-3.12,3.42-6.72,5.88-13.14,5.88C797.246,1355.56,790.166,1348.12,790.166,1338.94z"/>
			<path class="st19" d="M826.166,1311.042h9.6v8.1h-9.6V1311.042z M826.406,1322.682h9.12v32.158h-9.12V1322.682z"/>
			<path class="st19" d="M842.546,1338.94v-0.12c0-9.239,7.439-16.739,17.459-16.739c9.96,0,17.339,7.38,17.339,16.619v0.12
				c0,9.24-7.439,16.739-17.459,16.739C849.925,1355.56,842.546,1348.18,842.546,1338.94z M868.345,1338.94v-0.12
				c0-4.739-3.42-8.88-8.46-8.88c-5.22,0-8.34,4.021-8.34,8.76v0.12c0,4.74,3.42,8.88,8.46,8.88
				C865.225,1347.7,868.345,1343.681,868.345,1338.94z"/>
			<path class="st19" d="M881.425,1350.58l3.899-6c3.479,2.521,7.14,3.84,10.14,3.84c2.64,0,3.84-0.96,3.84-2.399v-0.12
				c0-1.98-3.12-2.64-6.66-3.72c-4.499-1.32-9.6-3.42-9.6-9.66v-0.12c0-6.539,5.28-10.199,11.76-10.199c4.08,0,8.52,1.38,12,3.72
				l-3.48,6.3c-3.18-1.859-6.359-3-8.699-3c-2.22,0-3.36,0.96-3.36,2.22v0.12c0,1.8,3.061,2.641,6.54,3.84
				c4.5,1.5,9.72,3.66,9.72,9.54v0.12c0,7.14-5.34,10.379-12.3,10.379C890.724,1355.439,885.685,1353.939,881.425,1350.58z"/>
			<path class="st19" d="M912.145,1345.601v-0.12c0-7.02,5.34-10.26,12.959-10.26c3.24,0,5.58,0.54,7.86,1.32v-0.54
				c0-3.78-2.34-5.88-6.9-5.88c-3.479,0-5.939,0.66-8.879,1.739l-2.28-6.959c3.54-1.561,7.02-2.58,12.479-2.58
				c4.979,0,8.58,1.319,10.859,3.6c2.4,2.4,3.48,5.939,3.48,10.26v18.659h-8.82v-3.479c-2.22,2.46-5.279,4.079-9.72,4.079
				C917.124,1355.439,912.145,1351.96,912.145,1345.601z M933.084,1343.5v-1.619c-1.561-0.721-3.601-1.2-5.82-1.2
				c-3.899,0-6.3,1.56-6.3,4.439v0.12c0,2.46,2.04,3.899,4.98,3.899C930.204,1349.14,933.084,1346.8,933.084,1343.5z"/>
		</g>
		<g class="st20">
			<path d="M230.706,1398.94v-0.12c0-9.18,6.54-16.739,15.899-16.739c10.739,0,15.659,8.34,15.659,17.459
				c0,0.721-0.06,1.561-0.12,2.4h-22.379c0.9,4.14,3.78,6.3,7.86,6.3c3.06,0,5.279-0.96,7.799-3.3l5.22,4.62
				c-3,3.72-7.319,5.999-13.139,5.999C237.846,1415.56,230.706,1408.78,230.706,1398.94z M253.385,1396.24
				c-0.54-4.079-2.94-6.84-6.78-6.84c-3.78,0-6.24,2.7-6.96,6.84H253.385z"/>
			<path d="M275.823,1398.521l-10.86-15.839h9.78l6,9.359l6.06-9.359h9.54l-10.859,15.659l11.339,16.499h-9.78l-6.479-10.02
				l-6.48,10.02h-9.54L275.823,1398.521z"/>
			<path d="M302.284,1382.682h9.119v4.619c2.22-3,5.28-5.22,10.02-5.22c7.5,0,14.639,5.88,14.639,16.619v0.12
				c0,10.74-7.02,16.619-14.639,16.619c-4.86,0-7.86-2.22-10.02-4.8v13.8h-9.119V1382.682z M326.942,1398.82v-0.12
				c0-5.34-3.6-8.879-7.86-8.879c-4.26,0-7.799,3.539-7.799,8.879v0.12c0,5.34,3.54,8.88,7.799,8.88
				C323.343,1407.7,326.942,1404.221,326.942,1398.82z"/>
			<path d="M341.223,1398.94v-0.12c0-9.18,6.54-16.739,15.899-16.739c10.739,0,15.659,8.34,15.659,17.459
				c0,0.721-0.06,1.561-0.12,2.4h-22.379c0.9,4.14,3.78,6.3,7.859,6.3c3.06,0,5.28-0.96,7.8-3.3l5.22,4.62
				c-3,3.72-7.319,5.999-13.139,5.999C348.363,1415.56,341.223,1408.78,341.223,1398.94z M363.902,1396.24
				c-0.54-4.079-2.939-6.84-6.779-6.84c-3.78,0-6.24,2.7-6.96,6.84H363.902z"/>
			<path d="M379.562,1382.682h9.12v6.479c1.86-4.44,4.859-7.32,10.259-7.08v9.54h-0.48c-6.06,0-9.779,3.659-9.779,11.339v11.88
				h-9.12V1382.682z"/>
			<path d="M404.822,1371.042h9.6v8.1h-9.6V1371.042z M405.062,1382.682h9.12v32.158h-9.12V1382.682z"/>
			<path d="M421.202,1398.94v-0.12c0-9.18,6.54-16.739,15.899-16.739c10.739,0,15.659,8.34,15.659,17.459
				c0,0.721-0.06,1.561-0.12,2.4h-22.379c0.9,4.14,3.78,6.3,7.859,6.3c3.06,0,5.28-0.96,7.8-3.3l5.22,4.62
				c-3,3.72-7.319,5.999-13.139,5.999C428.341,1415.56,421.202,1408.78,421.202,1398.94z M443.88,1396.24
				c-0.54-4.079-2.939-6.84-6.779-6.84c-3.78,0-6.24,2.7-6.96,6.84H443.88z"/>
			<path d="M459.541,1382.682h9.12v4.56c2.1-2.7,4.8-5.16,9.419-5.16c6.9,0,10.919,4.56,10.919,11.939v20.819h-9.12V1396.9
				c0-4.319-2.04-6.539-5.52-6.539c-3.48,0-5.7,2.22-5.7,6.539v17.939h-9.12V1382.682z"/>
			<path d="M495.36,1398.94v-0.12c0-9.18,7.02-16.739,16.859-16.739c6.06,0,9.839,2.04,12.839,5.399l-5.58,6
				c-2.04-2.16-4.08-3.54-7.319-3.54c-4.56,0-7.8,4.021-7.8,8.76v0.12c0,4.92,3.18,8.88,8.16,8.88c3.06,0,5.16-1.32,7.38-3.42
				l5.339,5.399c-3.12,3.42-6.72,5.88-13.139,5.88C502.44,1415.56,495.36,1408.12,495.36,1398.94z"/>
			<path d="M531.36,1371.042h9.6v8.1h-9.6V1371.042z M531.6,1382.682h9.12v32.158h-9.12V1382.682z"/>
			<path d="M547.379,1405.601v-0.12c0-7.02,5.339-10.26,12.959-10.26c3.24,0,5.58,0.54,7.86,1.32v-0.54c0-3.78-2.34-5.88-6.9-5.88
				c-3.479,0-5.939,0.66-8.879,1.739l-2.28-6.959c3.54-1.561,7.02-2.58,12.479-2.58c4.979,0,8.58,1.319,10.859,3.6
				c2.4,2.4,3.48,5.939,3.48,10.26v18.659h-8.82v-3.479c-2.22,2.46-5.28,4.079-9.72,4.079
				C552.359,1415.439,547.379,1411.96,547.379,1405.601z M568.318,1403.5v-1.619c-1.56-0.721-3.6-1.2-5.82-1.2
				c-3.9,0-6.3,1.56-6.3,4.439v0.12c0,2.46,2.04,3.899,4.98,3.899C565.438,1409.14,568.318,1406.8,568.318,1403.5z"/>
			<path d="M626.037,1410.22c-2.22,3-5.28,5.22-10.02,5.22c-7.5,0-14.639-5.879-14.639-16.619v-0.12
				c0-10.739,7.02-16.619,14.639-16.619c4.86,0,7.859,2.22,10.02,4.8v-4.199h9.119v41.758h-9.119V1410.22z M626.157,1398.82v-0.12
				c0-5.34-3.54-8.879-7.8-8.879s-7.86,3.479-7.86,8.879v0.12c0,5.34,3.6,8.88,7.86,8.88S626.157,1404.16,626.157,1398.82z"/>
			<path d="M643.077,1403.5v-20.818h9.12v17.938c0,4.32,2.04,6.54,5.52,6.54s5.7-2.22,5.7-6.54v-17.938h9.119v32.158h-9.119v-4.56
				c-2.101,2.699-4.8,5.159-9.42,5.159C647.098,1415.439,643.077,1410.88,643.077,1403.5z"/>
			<path d="M679.137,1398.94v-0.12c0-9.18,6.539-16.739,15.899-16.739c10.739,0,15.659,8.34,15.659,17.459
				c0,0.721-0.061,1.561-0.12,2.4h-22.379c0.899,4.14,3.779,6.3,7.859,6.3c3.06,0,5.279-0.96,7.8-3.3l5.22,4.62
				c-3,3.72-7.319,5.999-13.14,5.999C686.276,1415.56,679.137,1408.78,679.137,1398.94z M701.815,1396.24
				c-0.54-4.079-2.939-6.84-6.779-6.84c-3.78,0-6.24,2.7-6.96,6.84H701.815z"/>
			<path d="M733.915,1398.94v-0.12c0-9.18,7.02-16.739,16.859-16.739c6.06,0,9.84,2.04,12.84,5.399l-5.58,6
				c-2.04-2.16-4.08-3.54-7.319-3.54c-4.561,0-7.8,4.021-7.8,8.76v0.12c0,4.92,3.18,8.88,8.159,8.88c3.061,0,5.16-1.32,7.38-3.42
				l5.34,5.399c-3.12,3.42-6.72,5.88-13.14,5.88C740.995,1415.56,733.915,1408.12,733.915,1398.94z"/>
			<path d="M767.282,1398.94v-0.12c0-9.239,7.439-16.739,17.459-16.739c9.96,0,17.339,7.38,17.339,16.619v0.12
				c0,9.24-7.439,16.739-17.459,16.739C774.661,1415.56,767.282,1408.18,767.282,1398.94z M793.081,1398.94v-0.12
				c0-4.739-3.42-8.88-8.46-8.88c-5.22,0-8.34,4.021-8.34,8.76v0.12c0,4.74,3.42,8.88,8.46,8.88
				C789.961,1407.7,793.081,1403.681,793.081,1398.94z"/>
			<path d="M808.681,1382.682h9.119v4.56c2.101-2.7,4.86-5.16,9.48-5.16c4.199,0,7.379,1.86,9.06,5.1c2.819-3.3,6.18-5.1,10.56-5.1
				c6.779,0,10.859,4.08,10.859,11.819v20.939h-9.12V1396.9c0-4.319-1.92-6.539-5.34-6.539s-5.52,2.22-5.52,6.539v17.939h-9.119
				V1396.9c0-4.319-1.92-6.539-5.34-6.539s-5.521,2.22-5.521,6.539v17.939h-9.119V1382.682z"/>
			<path d="M874.8,1410.64v4.2h-9.119v-43.798h9.119v16.259c2.22-3,5.28-5.22,10.02-5.22c7.5,0,14.64,5.88,14.64,16.619v0.12
				c0,10.74-7.02,16.619-14.64,16.619C879.96,1415.439,876.96,1413.22,874.8,1410.64z M890.34,1398.82v-0.12
				c0-5.34-3.601-8.879-7.86-8.879s-7.8,3.539-7.8,8.879v0.12c0,5.34,3.54,8.88,7.8,8.88S890.34,1404.221,890.34,1398.82z"/>
			<path d="M906.359,1371.042h9.6v8.1h-9.6V1371.042z M906.6,1382.682h9.119v32.158H906.6V1382.682z"/>
			<path d="M924.299,1382.682h9.119v4.56c2.101-2.7,4.8-5.16,9.42-5.16c6.899,0,10.92,4.56,10.92,11.939v20.819h-9.12V1396.9
				c0-4.319-2.04-6.539-5.52-6.539c-3.48,0-5.7,2.22-5.7,6.539v17.939h-9.119V1382.682z"/>
			<path d="M959.758,1405.601v-0.12c0-7.02,5.34-10.26,12.959-10.26c3.24,0,5.58,0.54,7.86,1.32v-0.54c0-3.78-2.341-5.88-6.9-5.88
				c-3.479,0-5.939,0.66-8.88,1.739l-2.279-6.959c3.54-1.561,7.02-2.58,12.479-2.58c4.979,0,8.579,1.319,10.859,3.6
				c2.4,2.4,3.479,5.939,3.479,10.26v18.659h-8.819v-3.479c-2.22,2.46-5.279,4.079-9.72,4.079
				C964.737,1415.439,959.758,1411.96,959.758,1405.601z M980.696,1403.5v-1.619c-1.56-0.721-3.6-1.2-5.819-1.2
				c-3.899,0-6.3,1.56-6.3,4.439v0.12c0,2.46,2.04,3.899,4.979,3.899C977.816,1409.14,980.696,1406.8,980.696,1403.5z"/>
		</g>
		<g class="st20">
			<path d="M244.267,1458.94v-0.12c0-9.18,7.02-16.739,16.859-16.739c6.06,0,9.839,2.04,12.839,5.399l-5.58,6
				c-2.04-2.16-4.08-3.54-7.319-3.54c-4.56,0-7.8,4.021-7.8,8.76v0.12c0,4.92,3.18,8.88,8.16,8.88c3.06,0,5.16-1.32,7.38-3.42
				l5.339,5.399c-3.12,3.42-6.72,5.88-13.139,5.88C251.347,1475.56,244.267,1468.12,244.267,1458.94z"/>
			<path d="M277.633,1458.94v-0.12c0-9.239,7.439-16.739,17.459-16.739c9.96,0,17.339,7.38,17.339,16.619v0.12
				c0,9.24-7.439,16.739-17.459,16.739C285.013,1475.56,277.633,1468.18,277.633,1458.94z M303.432,1458.94v-0.12
				c0-4.739-3.42-8.88-8.459-8.88c-5.22,0-8.34,4.021-8.34,8.76v0.12c0,4.74,3.42,8.88,8.459,8.88
				C300.312,1467.7,303.432,1463.681,303.432,1458.94z"/>
			<path d="M319.032,1442.682h9.12v4.56c2.1-2.7,4.8-5.16,9.419-5.16c6.9,0,10.919,4.56,10.919,11.939v20.819h-9.12V1456.9
				c0-4.319-2.04-6.539-5.52-6.539c-3.48,0-5.7,2.22-5.7,6.539v17.939h-9.12V1442.682z"/>
		</g>
		<g class="st20">
			<path class="st7" d="M373.744,1458.94v-0.12c0-9.18,7.02-16.739,16.859-16.739c6.06,0,9.839,2.04,12.839,5.399l-5.58,6
				c-2.04-2.16-4.08-3.54-7.319-3.54c-4.56,0-7.8,4.021-7.8,8.76v0.12c0,4.92,3.18,8.88,8.16,8.88c3.06,0,5.16-1.32,7.38-3.42
				l5.339,5.399c-3.12,3.42-6.72,5.88-13.139,5.88C380.824,1475.56,373.744,1468.12,373.744,1458.94z"/>
			<path class="st7" d="M409.324,1463.5v-20.818h9.12v17.938c0,4.32,2.04,6.54,5.52,6.54c3.479,0,5.7-2.22,5.7-6.54v-17.938h9.12
				v32.158h-9.12v-4.56c-2.1,2.699-4.8,5.159-9.42,5.159C413.344,1475.439,409.324,1470.88,409.324,1463.5z"/>
			<path class="st7" d="M445.023,1465.601v-0.12c0-7.02,5.34-10.26,12.96-10.26c3.24,0,5.58,0.54,7.859,1.32v-0.54
				c0-3.78-2.34-5.88-6.899-5.88c-3.48,0-5.94,0.66-8.88,1.739l-2.28-6.959c3.54-1.561,7.02-2.58,12.479-2.58
				c4.979,0,8.58,1.319,10.859,3.6c2.4,2.4,3.48,5.939,3.48,10.26v18.659h-8.82v-3.479c-2.22,2.46-5.28,4.079-9.719,4.079
				C450.003,1475.439,445.023,1471.96,445.023,1465.601z M465.962,1463.5v-1.619c-1.56-0.721-3.6-1.2-5.82-1.2
				c-3.9,0-6.3,1.56-6.3,4.439v0.12c0,2.46,2.04,3.899,4.98,3.899C463.083,1469.14,465.962,1466.8,465.962,1463.5z"/>
			<path class="st7" d="M482.883,1431.042h9.12v43.798h-9.12V1431.042z"/>
			<path class="st7" d="M523.801,1470.22c-2.22,3-5.28,5.22-10.02,5.22c-7.5,0-14.639-5.879-14.639-16.619v-0.12
				c0-10.739,7.02-16.619,14.639-16.619c4.86,0,7.86,2.22,10.02,4.8v-4.199h9.12v41.758h-9.12V1470.22z M523.921,1458.82v-0.12
				c0-5.34-3.54-8.879-7.8-8.879s-7.86,3.479-7.86,8.879v0.12c0,5.34,3.6,8.88,7.86,8.88S523.921,1464.16,523.921,1458.82z"/>
			<path class="st7" d="M540.841,1463.5v-20.818h9.12v17.938c0,4.32,2.04,6.54,5.52,6.54c3.479,0,5.7-2.22,5.7-6.54v-17.938h9.12
				v32.158h-9.12v-4.56c-2.1,2.699-4.8,5.159-9.42,5.159C544.861,1475.439,540.841,1470.88,540.841,1463.5z"/>
			<path class="st7" d="M578.64,1431.042h9.6v8.1h-9.6V1431.042z M578.88,1442.682H588v32.158h-9.12V1442.682z"/>
			<path class="st7" d="M595.02,1458.94v-0.12c0-9.18,6.54-16.739,15.899-16.739c10.739,0,15.659,8.34,15.659,17.459
				c0,0.721-0.061,1.561-0.12,2.4h-22.379c0.9,4.14,3.78,6.3,7.86,6.3c3.06,0,5.279-0.96,7.799-3.3l5.22,4.62
				c-3,3.72-7.319,5.999-13.139,5.999C602.159,1475.56,595.02,1468.78,595.02,1458.94z M617.699,1456.24
				c-0.54-4.079-2.94-6.84-6.78-6.84c-3.78,0-6.24,2.7-6.96,6.84H617.699z"/>
			<path class="st7" d="M633.358,1442.682h9.12v6.479c1.86-4.44,4.859-7.32,10.26-7.08v9.54h-0.48c-6.06,0-9.779,3.659-9.779,11.339
				v11.88h-9.12V1442.682z"/>
			<path class="st7" d="M676.438,1442.682h9.12v4.56c2.1-2.7,4.859-5.16,9.479-5.16c4.2,0,7.38,1.86,9.06,5.1
				c2.82-3.3,6.18-5.1,10.56-5.1c6.78,0,10.859,4.08,10.859,11.819v20.939h-9.119V1456.9c0-4.319-1.92-6.539-5.34-6.539
				s-5.52,2.22-5.52,6.539v17.939h-9.12V1456.9c0-4.319-1.92-6.539-5.34-6.539s-5.52,2.22-5.52,6.539v17.939h-9.12V1442.682z"/>
			<path class="st7" d="M731.878,1458.94v-0.12c0-9.239,7.439-16.739,17.459-16.739c9.96,0,17.34,7.38,17.34,16.619v0.12
				c0,9.24-7.439,16.739-17.459,16.739C739.258,1475.56,731.878,1468.18,731.878,1458.94z M757.677,1458.94v-0.12
				c0-4.739-3.42-8.88-8.459-8.88c-5.221,0-8.34,4.021-8.34,8.76v0.12c0,4.74,3.42,8.88,8.459,8.88
				C754.557,1467.7,757.677,1463.681,757.677,1458.94z"/>
			<path class="st7" d="M773.276,1442.682h9.12v4.56c2.1-2.7,4.859-5.16,9.479-5.16c4.2,0,7.38,1.86,9.06,5.1
				c2.82-3.3,6.18-5.1,10.56-5.1c6.78,0,10.859,4.08,10.859,11.819v20.939h-9.119V1456.9c0-4.319-1.92-6.539-5.34-6.539
				s-5.52,2.22-5.52,6.539v17.939h-9.12V1456.9c0-4.319-1.92-6.539-5.34-6.539s-5.52,2.22-5.52,6.539v17.939h-9.12V1442.682z"/>
			<path class="st7" d="M828.717,1458.94v-0.12c0-9.18,6.54-16.739,15.899-16.739c10.739,0,15.659,8.34,15.659,17.459
				c0,0.721-0.06,1.561-0.12,2.4h-22.379c0.9,4.14,3.78,6.3,7.859,6.3c3.061,0,5.28-0.96,7.8-3.3l5.22,4.62
				c-2.999,3.72-7.319,5.999-13.139,5.999C835.856,1475.56,828.717,1468.78,828.717,1458.94z M851.396,1456.24
				c-0.539-4.079-2.939-6.84-6.779-6.84c-3.78,0-6.239,2.7-6.96,6.84H851.396z"/>
			<path class="st7" d="M867.056,1442.682h9.12v4.56c2.1-2.7,4.8-5.16,9.42-5.16c6.899,0,10.919,4.56,10.919,11.939v20.819h-9.119
				V1456.9c0-4.319-2.04-6.539-5.52-6.539c-3.48,0-5.7,2.22-5.7,6.539v17.939h-9.12V1442.682z"/>
			<path class="st7" d="M905.936,1465.721v-15.24h-3.84v-7.799h3.84v-8.22h9.119v8.22h7.561v7.799h-7.561v13.74
				c0,2.1,0.9,3.119,2.94,3.119c1.68,0,3.18-0.42,4.5-1.14v7.319c-1.92,1.141-4.141,1.86-7.2,1.86
				C909.715,1475.38,905.936,1473.16,905.936,1465.721z"/>
			<path class="st7" d="M926.882,1458.94v-0.12c0-9.239,7.439-16.739,17.459-16.739c9.96,0,17.339,7.38,17.339,16.619v0.12
				c0,9.24-7.439,16.739-17.459,16.739C934.261,1475.56,926.882,1468.18,926.882,1458.94z M952.681,1458.94v-0.12
				c0-4.739-3.42-8.88-8.46-8.88c-5.22,0-8.34,4.021-8.34,8.76v0.12c0,4.74,3.42,8.88,8.46,8.88
				C949.561,1467.7,952.681,1463.681,952.681,1458.94z"/>
			<path class="st7" d="M966.72,1465.24h9.72v9.6h-9.72V1465.24z"/>
		</g>
	</g>
</g>
</svg>
