<?xml version="1.0" encoding="utf-8"?>
<!-- Generator: Adobe Illustrator 22.0.1, SVG Export Plug-In . SVG Version: 6.00 Build 0)  -->
<svg version="1.1" id="Layer_1" xmlns="http://www.w3.org/2000/svg" xmlns:xlink="http://www.w3.org/1999/xlink" x="0px" y="0px"
	 viewBox="0 0 1586.2 765.6" style="enable-background:new 0 0 1586.2 765.6;" xml:space="preserve">
<style type="text/css">
	.st0{fill:#FFC425;}
	.st1{fill:#FFFFFF;}
</style>
<path class="st0" d="M275.6,569.8c-4-21.6-10.3-41.2-18.1-56.7c-4.1-8.1-8.7-15.2-13.6-21.1c-5.1-6-10.6-10.8-16.3-14.1
	c-32.9-19.1-64.6-28.8-94.4-28.8c-19.3,0-37.5,4.1-54.2,12.2c-15.4,7.5-29.1,18.1-40.6,31.7c-5.5,6.4-10.5,13.5-14.8,20.9
	c-4.2,7.3-7.9,15.1-10.8,23.1c-5.8,15.8-8.9,32.7-8.9,48.9c0,13.9,2.2,27.1,6.5,39.2c4.5,12.7,11.3,23.8,20.1,33.2
	c9.4,9.9,21,17.7,34.6,23c14.6,5.7,31.6,8.7,50.3,8.7c1.6,0,3.3,0,5-0.1c0.7,0,1.4,0,2,0c16.4,0,31.8,5.3,47.2,16.1
	c13.2,9.3,24.1,21.1,33.8,31.6c12,13,22.4,24.2,31.6,24.2l0,0c2.7,0,5.3-1,8-3c2.9-2.2,5.9-5.8,8.8-10.6
	c6.4-10.5,12.9-27.2,19.9-51.1c5.3-18,8.4-39.3,9-61.7C281.2,613.4,279.5,590.8,275.6,569.8"/>
<path d="M271.6,697c-7,23.9-13.5,40.6-19.9,51.1c-2.9,4.8-5.9,8.4-8.8,10.6c-2.6,2-5.2,3-8,3l0,0c-9.2,0-19.6-11.2-31.6-24.2
	c-9.7-10.4-20.7-22.3-33.8-31.6c-15.3-10.8-30.8-16.1-47.2-16.1c-0.7,0-1.4,0-2,0c-1.7,0-3.3,0.1-5,0.1c-18.7,0-35.6-2.9-50.3-8.7
	c-13.5-5.3-25.2-13.1-34.6-23c-8.8-9.3-15.6-20.5-20.1-33.2c-4.3-12.1-6.5-25.3-6.5-39.2c0-16.2,3.1-33.1,8.9-48.9
	c2.9-8,6.6-15.8,10.8-23.1c4.3-7.5,9.3-14.5,14.8-20.9c11.6-13.6,25.3-24.2,40.6-31.7c16.6-8.1,34.9-12.2,54.2-12.2
	c29.8,0,61.5,9.7,94.4,28.8c5.7,3.3,11.2,8.1,16.3,14.1c4.9,5.8,9.5,12.9,13.6,21.1c7.9,15.5,14.1,35.1,18.1,56.7
	c3.9,21,5.6,43.6,5,65.5C280,657.7,276.9,679,271.6,697 M279.4,569.1c-4.1-21.9-10.5-41.9-18.5-57.7c-8.8-17.4-19.4-29.8-31.4-36.8
	c-33.5-19.5-65.9-29.3-96.4-29.3c-19.9,0-38.7,4.2-55.9,12.6c-15.9,7.7-30,18.7-41.9,32.7c-5.6,6.6-10.7,13.8-15.2,21.5
	c-4.4,7.5-8.1,15.5-11.1,23.7c-3,8.1-5.3,16.5-6.8,24.9s-2.3,17-2.3,25.3c0,14.4,2.3,28,6.7,40.5c4.7,13.2,11.7,24.8,20.9,34.5
	c9.8,10.4,21.9,18.4,36,24c15.1,5.9,32.5,8.9,51.7,8.9c1.7,0,3.4,0,5.1-0.1c0.7,0,1.3,0,1.9,0c35.1,0,59,25.7,78.2,46.4
	c6.2,6.7,12.1,13.1,17.7,17.7c6.4,5.3,11.7,7.8,16.8,7.8l0,0c3.6,0,7-1.3,10.3-3.8c3.3-2.6,6.5-6.4,9.7-11.7
	c6.5-10.8,13.2-27.8,20.3-52.1C286.1,661.4,287.6,613.2,279.4,569.1"/>
<path d="M79.9,563.8c-0.1,0.9-0.2,1.7-0.4,2.3c-0.1,0.8-0.3,1.6-0.5,2.3c-0.2,0.9-0.4,1.7-0.5,2.5c-0.2,0.8-0.3,1.6-0.5,2.4
	c-0.1,0.7-0.2,1.4-0.5,2c-0.3,0.8-0.5,1.5-0.8,2.3s-0.6,1.6-0.9,2.4c-0.3,0.7-0.6,1.3-0.9,1.8s-0.7,1.2-1.2,1.8
	c-0.5,0.7-0.9,1.3-1.3,1.7c-0.4,0.5-0.8,1.2-1.2,1.8c-0.2,0.3-0.5,0.7-0.9,1.1c-0.3,0.3-0.6,0.7-0.9,1v-0.3c0-0.1,0-0.2,0-0.3
	l-0.2-18c0-1.9,0-3.8,0-5.7c0-1.8,0-3.6,0-5.4c0.1-1.8,0.1-3.3,0.1-4.7c0-1.3,0-2.5,0.1-3.3c0-0.9,0.1-1.6,0.2-2.1
	c0-0.3,0.1-0.6,0.2-0.9c0.6,0.1,1.2,0.2,1.9,0.3c0.6,0.1,1.2,0.3,1.9,0.5c0.7,0.3,1.3,0.6,1.9,0.9c0.6,0.3,1,0.6,1.4,0.9
	c0.3,0.3,0.7,0.6,0.9,1c0.3,0.4,0.7,0.8,1,1.3s0.5,1.1,0.7,1.7c0.2,0.5,0.4,1,0.4,1.5c0,0.7,0,1.5,0.1,2.2c0,0.7,0,1.5,0,2.2
	C80,562.1,79.9,562.9,79.9,563.8 M83.5,556.7c-0.1-0.9-0.3-1.9-0.6-2.7c-0.3-0.8-0.7-1.5-1.1-2.2s-0.8-1.3-1.2-1.8
	c-0.5-0.5-1-1-1.6-1.5c-0.6-0.4-1.2-0.8-1.8-1.2c-0.7-0.4-1.4-0.8-2.3-1.1c-1-0.4-1.9-0.6-2.9-0.7c-0.7-0.1-1.3-0.3-2-0.4
	c-0.7-0.1-1.3-0.3-1.9-0.4c-0.3-0.1-0.6-0.2-0.8-0.4l-0.7-0.6c-0.4-0.3-0.9-0.4-1.4-0.3c-0.5,0.1-0.9,0.3-1.2,0.7s-0.4,0.8-0.3,1.3
	c0.1,0.5,0.3,0.9,0.7,1.3l0.6,0.5c0.3,0.3,0.7,0.5,1.1,0.7c-0.1,0.3-0.2,0.7-0.3,1.2c-0.1,0.7-0.1,1.5-0.2,2.5
	c-0.1,0.9-0.1,2.1-0.1,3.5c0,1.3,0,2.9,0,4.7c-0.1,1.8-0.1,3.6-0.1,5.6c0,1.9,0,3.7,0.1,5.6l0.2,18c0,2.1,0.1,4,0.2,5.7
	c0.1,1.6,0.1,3.2,0.1,4.9c0.1,1.6,0.2,3,0.2,4.4c0.1,1.3,0.1,2.5,0.1,3.5c0.1,0.9,0.1,1.7,0,2.5s-0.1,1.5-0.1,2.1v1.8
	c0,0.6,0,1.2,0,1.8c-0.1,0.7-0.1,1.2-0.1,1.7v0.7c0,0.5,0.2,0.9,0.6,1.3c0.4,0.4,0.8,0.6,1.3,0.5c0.5,0,0.9-0.2,1.3-0.6
	c0.4-0.4,0.6-0.8,0.6-1.3v-0.7c0-0.4,0-0.9,0.1-1.5c0-0.7,0-1.3,0-2V612c0-0.5,0-1.2,0.1-1.9c0.1-0.9,0-1.8,0-2.8s-0.1-2.2-0.1-3.5
	c-0.1-1.3-0.2-2.8-0.2-4.3c0-1.6-0.1-3.1-0.1-4.6c0.5-0.1,0.9-0.4,1.1-0.7l0.8-1.2c0.5-0.7,1-1.3,1.5-1.8c0.6-0.7,1.1-1.3,1.4-1.8
	s0.6-1,1-1.4c0.5-0.5,1-1.2,1.5-1.9s1-1.4,1.4-2.1c0.3-0.7,0.7-1.5,1-2.3s0.6-1.7,0.9-2.5s0.6-1.6,0.9-2.3c0.3-0.8,0.5-1.7,0.7-2.5
	c0.1-0.8,0.3-1.6,0.4-2.4c0.2-0.8,0.3-1.6,0.5-2.4c0.2-0.8,0.4-1.6,0.5-2.4c0.2-0.8,0.3-1.7,0.4-2.7s0.1-2,0.1-2.8s0-1.6,0-2.4
	C83.5,558.1,83.5,557.4,83.5,556.7"/>
<path d="M109,588.8c-0.1,0.8-0.2,1.9-0.1,3.1c0,1.1,0,2.2-0.1,3.3c-0.1,1.2-0.1,2.3-0.2,3.3c0,1.1,0,2.2-0.1,3.1
	c0,0.9,0,1.7-0.1,2.5s-0.1,1.7-0.1,2.7c0,0.9,0,1.7-0.1,2.4s-0.1,1.4-0.2,2c0,0.6-0.1,1.2-0.2,1.7s-0.2,1.1-0.5,1.8
	s-0.5,1.4-0.8,1.8c-0.2,0.3-0.5,0.5-0.9,0.8s-0.9,0.6-1.4,0.7c-0.4,0.1-0.8,0.1-1,0.1c-0.3-0.1-0.5-0.2-0.7-0.3
	c-0.2-0.2-0.4-0.4-0.5-0.6c-0.1-0.3-0.2-0.6-0.3-0.9c-0.1-0.5-0.2-0.9-0.3-1.4c-0.1-0.4-0.2-0.8-0.3-1.3c-0.1-0.5-0.3-1.1-0.4-1.6
	c-0.2-0.5-0.3-1.2-0.3-1.9c-0.1-0.9-0.3-1.7-0.3-2.4c-0.2-0.7-0.2-1.5-0.2-2.2c-0.1-0.7-0.2-1.6-0.3-2.7c-0.1-1-0.2-2.1-0.2-3.2
	c-0.1-1-0.2-2.1-0.2-3.1c-0.1-0.9-0.1-2-0.1-3c-0.1-1.2-0.1-2.4-0.1-3.5c-0.1-1.4-0.2-2.6-0.2-3.5c0-1.2-0.1-2.5-0.1-3.7
	c-0.1-1.3-0.2-2.5-0.2-3.7c-0.1-1.1-0.2-2.2-0.2-3.4c0-1.3,0-2.5,0-3.7c-0.1-1.1-0.1-2.1-0.1-3.1v-2.5c0-0.7,0-1.6,0-2.7
	c0-1.1,0-1.9,0.1-2.4c0-0.7,0-1.3,0.1-1.9c0-0.5,0-1.1,0.1-1.7c0.1-0.7,0.3-1.4,0.4-2.1c0.2-0.7,0.5-1.5,0.8-2.2s0.7-1.2,1.1-1.5
	c0.4-0.5,0.8-0.8,1.2-1.1c0.3-0.2,0.5-0.3,0.8-0.3c0.4,0,0.8,0.1,1.1,0.2l0.7,0.3c0.3,0.1,0.6,0.1,0.9,0.1c0.1,0.2,0.1,0.4,0.2,0.5
	l0.5,0.8c0.3,0.5,0.6,0.9,0.7,1.4c0.2,0.5,0.4,0.9,0.4,1.4c0.1,0.5,0.2,0.8,0.2,1.1c0,0.5,0,1.1,0.1,1.6s0.1,1.1,0.1,1.8
	c0.1,0.7,0.2,1.4,0.3,2.1c0.1,0.7,0.2,1.3,0.2,1.8c0.1,0.6,0.2,1.4,0.2,2.4c0.1,0.8,0.2,1.5,0.2,2.2s0,1.5-0.1,2.3
	c0,0.9,0,1.8,0.1,2.6c0.1,0.9,0.1,1.7,0.1,2.5c0,0.9,0,1.7,0.1,2.5c0,0.7,0.1,1.6,0.1,2.4c0,0.9,0.1,1.9,0.1,2.9c0.1,1,0.1,2,0.1,3
	C109,587.4,109,588.2,109,588.8 M112.6,583.1c-0.1-1-0.1-2-0.1-2.8c-0.1-0.9-0.1-1.8-0.1-2.6c-0.1-0.7-0.1-1.4-0.1-2.2
	c0-0.9,0-1.9-0.1-2.7s-0.1-1.6-0.1-2.4c0.1-0.8,0.1-1.6,0.1-2.3s-0.1-1.6-0.2-2.5c-0.1-1-0.2-1.8-0.2-2.4c-0.1-0.7-0.2-1.4-0.2-2.1
	c-0.1-0.6-0.3-1.2-0.3-1.8c-0.1-0.7-0.1-1.3-0.2-1.8c0-0.5,0-0.9,0-1.3c0-0.5-0.1-1.2-0.3-1.9c-0.1-0.7-0.3-1.3-0.5-1.9
	c-0.3-0.7-0.6-1.3-1-2l-0.5-0.8c-0.4-0.7-1-1-1.9-0.9c-0.2-0.6-0.6-1-1.2-1.2l-0.7-0.3c-0.8-0.3-1.5-0.4-2.4-0.4
	c-1,0-1.9,0.3-2.8,0.9c-0.7,0.4-1.3,1-1.9,1.6c-0.7,0.7-1.2,1.5-1.7,2.5c-0.5,0.9-0.8,1.8-1,2.8c-0.3,0.9-0.4,1.8-0.5,2.5
	s-0.2,1.5-0.2,2.1c0,0.5,0,1.1-0.1,1.7c-0.1,0.7-0.1,1.6-0.1,2.8s0,2,0,2.6v2.5c0,1,0.1,2.1,0.1,3.3c0,1.1,0,2.3,0,3.5
	c0,1.3,0.1,2.5,0.2,3.7c0.1,1.1,0.2,2.3,0.2,3.5c0.1,1.3,0.1,2.6,0.1,3.7c0.1,1,0.2,2.2,0.2,3.5c0,1.1,0.1,2.4,0.1,3.6
	c0,1.1,0.1,2.1,0.1,3c0.1,1,0.2,2.1,0.2,3.1c0.1,1.2,0.2,2.3,0.2,3.4c0.1,1.1,0.3,2,0.3,2.6c0.1,0.8,0.1,1.6,0.2,2.4
	c0.1,0.7,0.3,1.5,0.3,2.3c0.1,0.9,0.3,1.7,0.4,2.3c0.1,0.5,0.3,1.1,0.4,1.6s0.2,1,0.3,1.4c0.1,0.4,0.2,0.8,0.3,1.2
	c0.1,0.6,0.4,1.2,0.6,1.7c0.3,0.7,0.9,1.4,1.5,1.9c0.7,0.5,1.4,0.9,2.3,1s1.8,0.1,2.7-0.1c1-0.3,1.9-0.7,2.7-1.2
	c0.8-0.6,1.5-1.3,1.9-2c0.4-0.6,0.8-1.4,1.1-2.4c0.3-1,0.6-1.8,0.7-2.4c0.1-0.6,0.1-1.2,0.2-1.9s0.1-1.4,0.2-2.1
	c0.1-0.8,0.1-1.7,0.1-2.7c0-0.9,0-1.8,0.1-2.5c0.1-0.8,0.1-1.7,0.1-2.6c0.1-0.9,0.1-2,0.1-3c0.1-1.2,0.1-2.3,0.2-3.4
	c0-1.1,0.1-2.3,0.1-3.5c-0.1-1.1,0-1.9,0.1-2.5c0.1-0.7,0.1-1.7,0.1-2.9C112.7,585.2,112.7,584.1,112.6,583.1"/>
<path d="M154.5,549.2h-0.8c-0.6,0.1-1.4,0.1-2.6,0.1c-1.2,0-2.4,0-3.7,0c-1.4,0-3,0.1-4.8,0.3s-3.6,0.3-5.4,0.6
	c-1.7,0.2-3.3,0.4-4.7,0.4c-1.5,0.1-2.8,0.2-3.9,0.2c-1.2,0.1-2.2,0.2-3.2,0.4l-1.2,0.3c-0.5,0.1-0.9,0.3-1.1,0.8
	c-0.3,0.4-0.4,0.9-0.2,1.4c0.1,0.5,0.4,0.9,0.8,1.1c0.4,0.2,0.9,0.3,1.4,0.2l1.2-0.3c0.8-0.2,1.6-0.3,2.6-0.3c1-0.1,2.3-0.2,3.8-0.2
	c1.5-0.1,3.2-0.2,5-0.5c0.2,0,0.4,0,0.6-0.1c-0.1,0.1-0.1,0.2-0.1,0.3v4.9c0,1,0.1,2.1,0.2,3.1c0.1,1.1,0.2,2.2,0.2,3.4
	c0,1.3,0,2.6,0,4c0,1.5,0.1,3,0.1,4.7c0.1,1.6,0.2,3.2,0.3,4.9c0.1,1.5,0.1,3.2,0.1,4.8c-0.1,1.7-0.1,3.4-0.1,5.1
	c0,1.7-0.1,3.5-0.1,5.3c-0.1,1.8-0.1,3.4-0.2,4.9c-0.1,1.5-0.1,3.1-0.2,4.7c-0.1,1.5-0.1,2.9-0.2,4.4c-0.1,1.5-0.2,2.8-0.2,3.8
	c0.1,1.1,0.1,2.1,0.1,3c0.1,0.8,0.1,1.4,0.1,1.9v0.6c0,0.5,0.2,1,0.6,1.3c0.4,0.3,0.8,0.5,1.3,0.5s0.9-0.2,1.3-0.6
	c0.3-0.4,0.5-0.8,0.5-1.3v-0.7c0-0.5-0.1-1.1-0.1-2s0-1.8-0.1-2.8c0-1,0-2.2,0.2-3.5c0.1-1.4,0.1-2.9,0.2-4.6c0.1-1.5,0.1-3,0.2-4.7
	c0.1-1.5,0.1-3.1,0.2-4.9c0.1-1.8,0.1-3.5,0.1-5.3c0-1.7,0.1-3.4,0.1-5.1c0-1.8-0.1-3.5-0.2-5.2c-0.1-1.6-0.2-3.1-0.3-4.8
	c-0.1-1.6-0.1-3.1-0.1-4.6s0-2.9,0-4.2c-0.1-1.3-0.2-2.5-0.2-3.6c-0.1-1-0.2-2-0.2-2.8v-4.9c0-0.2,0-0.4-0.1-0.6
	c0.4-0.1,0.8-0.1,1.2-0.1c1.7-0.2,3.2-0.3,4.4-0.3c1.4,0,2.6,0,3.8,0c1.3,0,2.3-0.1,2.9-0.1h0.8c0.5-0.1,0.9-0.3,1.2-0.7
	s0.5-0.8,0.4-1.3c0-0.5-0.2-0.9-0.6-1.3C155.5,549.3,155,549.1,154.5,549.2"/>
<path d="M183.1,547.6h-5.4c-0.7,0-1.3,0-1.8,0c-0.6,0-1.3,0-1.9,0.1c-0.6,0.1-1.1,0.1-1.5,0.2h-0.8c-0.9,0.1-1.4,0.6-1.6,1.5
	c-0.1,0.3-0.2,0.5-0.2,0.8l-0.2,1.1c-0.1,0.8-0.1,1.9-0.1,3.2s0,2.9,0,4.8c-0.1,1.8-0.1,3.8,0,6c0,2.2-0.1,4.5-0.1,6.9
	s-0.1,4.8-0.4,7.1c-0.3,2.4-0.6,4.8-0.8,7.2c-0.3,2.4-0.5,4.7-0.6,6.9c-0.2,2.3-0.3,4.3-0.3,6.2c0,2,0.1,3.7,0.2,5.3
	c0.1,1.6,0.2,3.1,0.4,4.6c0.1,1.4,0.3,2.6,0.5,3.5c0.1,0.9,0.2,1.7,0.2,2.3c-0.1,0.8-0.1,1.4-0.1,1.8c0,1.4,0.9,2.3,2.6,2.7
	c1,0.3,2.1,0.3,3.1,0.2c0.8-0.1,1.6-0.2,2.5-0.3c0.8-0.1,1.4-0.1,1.9-0.2c0.5,0,1.1,0,1.5-0.1c0.5-0.1,1-0.2,1.5-0.2l0.7-0.1
	c0.5-0.1,0.9-0.4,1.2-0.8c0.3-0.4,0.4-0.9,0.3-1.4c-0.1-0.5-0.4-0.9-0.8-1.2c-0.4-0.3-0.9-0.4-1.3-0.3l-0.8,0.2
	c-0.5,0.1-0.9,0.1-1.3,0.2c-0.4,0-0.8,0.1-1.3,0.1c-0.5,0.1-1.3,0.2-2.1,0.2c-0.8,0.1-1.6,0.2-2.5,0.3c-0.5,0.1-1,0.1-1.4,0
	c0-0.3,0-0.7,0.1-1c0-0.9-0.1-1.9-0.3-2.9c-0.1-0.9-0.3-2.1-0.4-3.4c-0.2-1.3-0.3-2.8-0.4-4.4c-0.1-1.5-0.1-3.1-0.1-5
	s0.1-3.9,0.2-6.1c0.1-1.1,0.1-2.2,0.3-3.2l0.7-0.1c0.6-0.1,1.2-0.2,1.9-0.3c0.5,0,1.1,0,1.5,0c0.7,0.1,1.3,0.1,2,0.1
	s1.5-0.1,2.4-0.4l1-0.2c0.6-0.1,0.9-0.4,1.2-0.9c0.2-0.4,0.3-0.9,0.2-1.4s-0.4-0.8-0.8-1.1c-0.4-0.3-0.9-0.3-1.4-0.2l-1.1,0.3
	c-0.6,0.1-1.1,0.2-1.5,0.2s-0.9,0-1.5-0.1c-0.7-0.1-1.4-0.1-2.2,0c-0.6,0.1-1.2,0.2-1.9,0.3c0.2-2.3,0.5-4.6,0.8-6.9
	c0.3-2.4,0.5-4.9,0.5-7.5s0.1-4.9,0.1-6.9c0-2.2,0-4.2,0-6.1c0-1.9,0-3.5,0-4.7s0-2.2,0.1-2.8v-0.3c0.3-0.1,0.7-0.1,1.1-0.1
	c0.6-0.1,1-0.1,1.4-0.1c0.5,0,1.2,0,1.8,0h5.4c0.5,0,0.9-0.2,1.3-0.5c0.4-0.3,0.6-0.8,0.6-1.3s-0.2-0.9-0.6-1.3
	C184,547.8,183.6,547.6,183.1,547.6"/>
<path d="M228.3,548.9c-0.4-0.3-0.8-0.5-1.4-0.4h-0.8c-0.6,0.1-1.4,0.1-2.6,0.1c-1.2,0-2.4,0-3.7,0c-1.4,0-3,0.1-4.8,0.4
	c-1.8,0.2-3.6,0.3-5.4,0.6c-1.7,0.2-3.3,0.4-4.7,0.5c-1.5,0.1-2.8,0.2-3.9,0.2c-1.2,0.1-2.2,0.2-3.2,0.4l-1.2,0.3
	c-0.5,0.1-0.9,0.3-1.1,0.8c-0.3,0.4-0.3,0.9-0.2,1.4s0.4,0.9,0.8,1.1c0.4,0.2,0.9,0.3,1.4,0.2l1.2-0.3c0.8-0.2,1.6-0.3,2.6-0.3
	c1-0.1,2.3-0.2,3.8-0.2c1.5-0.1,3.2-0.2,5-0.5c0.2,0,0.4,0,0.6-0.1c-0.1,0.1-0.1,0.2-0.1,0.3v4.9c0,1,0.1,2.1,0.2,3.1
	c0.1,1.1,0.2,2.2,0.2,3.4c0,1.3,0,2.6,0,4c0,1.5,0.1,3,0.1,4.7c0.1,1.6,0.2,3.2,0.3,4.9c0.1,1.5,0.1,3.2,0.1,4.9
	c-0.1,1.7-0.1,3.4-0.1,5.1c0,1.7-0.1,3.5-0.1,5.3s-0.1,3.4-0.2,4.9c0,1.6-0.1,3.1-0.2,4.7c-0.1,1.5-0.1,2.9-0.2,4.4
	c-0.1,1.5-0.2,2.8-0.2,3.8c0.1,1.1,0.1,2.1,0.1,3c0.1,0.8,0.1,1.4,0.1,1.9v0.6c0,0.5,0.2,1,0.6,1.3c0.4,0.3,0.8,0.5,1.3,0.5
	s0.9-0.2,1.3-0.6c0.3-0.4,0.5-0.8,0.5-1.3v-0.7c0-0.5,0-1.1-0.1-2c0-0.9-0.1-1.8-0.1-2.8s0.1-2.2,0.2-3.5c0.1-1.4,0.1-2.9,0.2-4.6
	c0.1-1.5,0.1-3,0.2-4.7c0.1-1.5,0.1-3.1,0.2-4.9c0-1.8,0.1-3.5,0.1-5.3c0-1.7,0.1-3.4,0.1-5.1c0-1.8-0.1-3.5-0.1-5.2
	c-0.1-1.6-0.2-3.1-0.2-4.8c-0.1-1.6-0.1-3.1-0.1-4.6s0-2.9,0-4.1c-0.1-1.3-0.2-2.5-0.2-3.6c-0.1-1-0.2-2-0.2-2.8l-0.1-4.9
	c0-0.2,0-0.4-0.1-0.6c0.4-0.1,0.8-0.1,1.2-0.1c1.7-0.2,3.2-0.3,4.4-0.3c1.4,0,2.6,0,3.8,0c1.3,0,2.3-0.1,2.9-0.1h0.8
	c0.5-0.1,0.9-0.3,1.2-0.7s0.5-0.8,0.4-1.3C228.9,549.7,228.7,549.2,228.3,548.9"/>
<path d="M461.8,373h9.5c8.8,0,13.8,5,13.8,12.1v0.1c0,7.1-5.1,12.3-14,12.3h-9.3V373z M471.3,391.5c4.1,0,6.8-2.2,6.8-6.2v-0.1
	c0-3.9-2.7-6.2-6.8-6.2h-2.8v12.5H471.3z"/>
<path d="M488.6,373h19.7v5.8h-13v3.7H507v5.4h-11.8v3.9h13.2v5.8h-19.9L488.6,373L488.6,373z"/>
<path d="M510,394l3.8-4.5c2.4,1.9,5.1,2.9,7.9,2.9c1.8,0,2.8-0.6,2.8-1.7v-0.1c0-1-0.8-1.6-4.1-2.3c-5.2-1.2-9.2-2.7-9.2-7.7v-0.1
	c0-4.6,3.6-7.8,9.5-7.8c4.2,0,7.4,1.1,10.1,3.3l-3.4,4.8c-2.2-1.6-4.7-2.4-6.9-2.4c-1.6,0-2.5,0.7-2.5,1.6v0.1
	c0,1.1,0.8,1.6,4.2,2.4c5.6,1.2,9.1,3,9.1,7.6v0.1c0,5-4,8-9.9,8C517.2,398,513.1,396.7,510,394L510,394z"/>
<path d="M533.9,385.3L533.9,385.3c0-7.2,5.5-12.8,12.9-12.8c5,0,8.2,2.1,10.4,5.1l-5.1,4c-1.4-1.8-3-2.9-5.4-2.9
	c-3.4,0-5.8,2.9-5.8,6.5v0.1c0,3.7,2.4,6.5,5.8,6.5c2.6,0,4.1-1.2,5.5-3l5.1,3.6c-2.3,3.2-5.4,5.5-10.9,5.5
	C539.5,398,533.9,392.8,533.9,385.3L533.9,385.3z"/>
<path d="M560,386.8V373h6.9v13.6c0,3.5,1.8,5.2,4.5,5.2s4.5-1.6,4.5-5v-13.8h6.9v13.6c0,7.9-4.5,11.4-11.5,11.4S560,394.5,560,386.8
	L560,386.8z"/>
<path d="M586.8,373h12.6c3.1,0,5.3,0.8,6.7,2.2c1,1,1.6,2.3,1.6,4v0.1c0,2.8-1.6,4.5-3.8,5.5c3,1,4.9,2.7,4.9,6v0.1
	c0,4.2-3.4,6.8-9.3,6.8h-12.6V373H586.8z M597.7,382.8c2.1,0,3.2-0.7,3.2-2.1v-0.1c0-1.3-1-2.1-3.1-2.1h-4.4v4.3H597.7L597.7,382.8z
	 M598.7,392.2c2.1,0,3.3-0.8,3.3-2.2v-0.1c0-1.3-1-2.2-3.3-2.2h-5.2v4.5L598.7,392.2L598.7,392.2z"/>
<path d="M611.8,373h11.6c3.7,0,6.3,1,8,2.7c1.4,1.4,2.2,3.3,2.2,5.7v0.1c0,3.7-2,6.2-5,7.5l5.8,8.5h-7.8l-4.9-7.4h-0.1h-2.9v7.4
	h-6.8L611.8,373L611.8,373z M623.1,384.8c2.3,0,3.6-1.1,3.6-2.9v-0.1c0-1.9-1.4-2.9-3.7-2.9h-4.4v5.9H623.1L623.1,384.8z"/>
<path d="M637,373h19.7v5.8h-13v3.7h11.8v5.4h-11.8v3.9h13.2v5.8H637V373z"/>
<path d="M670,373h19.7v5.8h-13v3.7h11.8v5.4h-11.8v3.9h13.2v5.8H670V373z"/>
<path d="M693.4,373h6.8v18.6H712v6h-18.7L693.4,373z"/>
<path d="M722.8,394l3.8-4.5c2.4,1.9,5.1,2.9,7.9,2.9c1.8,0,2.8-0.6,2.8-1.7v-0.1c0-1-0.8-1.6-4.1-2.3c-5.2-1.2-9.2-2.7-9.2-7.7v-0.1
	c0-4.6,3.6-7.8,9.5-7.8c4.2,0,7.4,1.1,10.1,3.3l-3.4,4.8c-2.2-1.6-4.7-2.4-6.9-2.4c-1.6,0-2.5,0.7-2.5,1.6v0.1
	c0,1.1,0.8,1.6,4.2,2.4c5.6,1.2,9.1,3,9.1,7.6v0.1c0,5-4,8-9.9,8C729.9,398,725.8,396.7,722.8,394L722.8,394z"/>
<path d="M755.4,372.8h6.5l10.4,24.7H765l-1.8-4.4h-9.5l-1.8,4.4H745L755.4,372.8z M761.3,388l-2.7-7l-2.8,7H761.3z"/>
<path d="M774.8,373h12.6c3.1,0,5.3,0.8,6.7,2.2c1,1,1.6,2.3,1.6,4v0.1c0,2.8-1.6,4.5-3.8,5.5c3,1,4.9,2.7,4.9,6v0.1
	c0,4.2-3.4,6.8-9.3,6.8h-12.6L774.8,373z M785.6,382.8c2.1,0,3.2-0.7,3.2-2.1v-0.1c0-1.3-1-2.1-3.1-2.1h-4.4v4.3H785.6L785.6,382.8z
	 M786.6,392.2c2.1,0,3.3-0.8,3.3-2.2v-0.1c0-1.3-1.1-2.2-3.3-2.2h-5.2v4.5L786.6,392.2L786.6,392.2z"/>
<path d="M798.9,385.3L798.9,385.3c0-7.1,5.7-12.8,13.2-12.8s13.2,5.6,13.2,12.7v0.1c0,7-5.7,12.7-13.2,12.7
	C804.5,398,798.9,392.5,798.9,385.3z M818.4,385.3L818.4,385.3c0-3.6-2.6-6.7-6.3-6.7s-6.2,3-6.2,6.5v0.1c0,3.5,2.6,6.6,6.3,6.6
	C815.9,392,818.4,389,818.4,385.3L818.4,385.3z"/>
<path d="M828.9,373h11.6c3.7,0,6.3,1,8,2.7c1.4,1.4,2.2,3.3,2.2,5.7v0.1c0,3.7-2,6.2-5,7.5l5.8,8.5h-7.8l-4.9-7.4h-0.1h-2.9v7.4H829
	L828.9,373z M840.1,384.8c2.3,0,3.6-1.1,3.6-2.9v-0.1c0-1.9-1.4-2.9-3.7-2.9h-4.4v5.9H840.1L840.1,384.8z"/>
<path d="M863.7,373h7.2l5.8,9.5l5.8-9.5h7.2v24.5H883v-14.1l-6.3,9.6h-0.1l-6.2-9.5v14h-6.7V373L863.7,373z"/>
<path d="M902.6,372.8h6.5l10.4,24.7h-7.3l-1.8-4.4H901l-1.8,4.4h-7.1L902.6,372.8z M908.5,388l-2.7-7l-2.8,7H908.5z M906.7,365
	l6.2,2l-5.1,4.5h-4.7L906.7,365z"/>
<path d="M920.1,394l3.8-4.5c2.4,1.9,5.1,2.9,7.9,2.9c1.8,0,2.8-0.6,2.8-1.7v-0.1c0-1-0.8-1.6-4.1-2.3c-5.2-1.2-9.2-2.7-9.2-7.7v-0.1
	c0-4.6,3.6-7.8,9.5-7.8c4.2,0,7.4,1.1,10.1,3.3l-3.4,4.8c-2.2-1.6-4.7-2.4-6.9-2.4c-1.6,0-2.5,0.7-2.5,1.6v0.1
	c0,1.1,0.8,1.6,4.2,2.4c5.6,1.2,9.1,3,9.1,7.6v0.1c0,5-4,8-9.9,8C927.2,398,923.1,396.7,920.1,394L920.1,394z"/>
<path d="M954.6,373h6.8v24.5h-6.8V373z"/>
<path d="M965.9,373h6.3l10.1,13v-13h6.7v24.5h-5.9l-10.5-13.4v13.4h-6.7L965.9,373z"/>
<path d="M999.3,379H992v-6h21.5v6h-7.4v18.6h-6.8V379L999.3,379z"/>
<path d="M1016.5,373h19.7v5.8h-13v3.7h11.8v5.4h-11.8v3.9h13.2v5.8h-19.9V373z"/>
<path d="M1039.8,373h6.3l10.1,13v-13h6.7v24.5h-5.9l-10.5-13.4v13.4h-6.7V373z"/>
<path d="M1065.4,394l3.8-4.5c2.4,1.9,5.1,2.9,7.9,2.9c1.8,0,2.8-0.6,2.8-1.7v-0.1c0-1-0.8-1.6-4.1-2.3c-5.2-1.2-9.2-2.7-9.2-7.7
	v-0.1c0-4.6,3.6-7.8,9.5-7.8c4.2,0,7.4,1.1,10.1,3.3l-3.4,4.8c-2.2-1.6-4.7-2.4-6.9-2.4c-1.6,0-2.4,0.7-2.4,1.6v0.1
	c0,1.1,0.8,1.6,4.2,2.4c5.6,1.2,9.1,3,9.1,7.6v0.1c0,5-4,8-9.9,8C1072.6,398,1068.4,396.7,1065.4,394L1065.4,394z"/>
<path d="M1089.3,385.3L1089.3,385.3c0-7.1,5.7-12.8,13.2-12.8c7.6,0,13.2,5.6,13.2,12.7v0.1c0,7-5.7,12.7-13.2,12.7
	C1094.9,398,1089.3,392.5,1089.3,385.3z M1108.7,385.3L1108.7,385.3c0-3.6-2.6-6.7-6.3-6.7c-3.7,0-6.2,3-6.2,6.5v0.1
	c0,3.5,2.6,6.6,6.3,6.6C1106.2,392,1108.7,389,1108.7,385.3z"/>
<path d="M1117.5,390.8h6.9v6.8h-6.9V390.8z"/>
<path d="M1246.4,18.8l2.7-3.3c1.9,1.6,3.9,2.5,6.3,2.5c1.9,0,3-0.8,3-2v-0.1c0-1.2-0.7-1.8-4.2-2.7c-4.2-1.1-7-2.2-7-6.4v0.1
	c0-3.8,3.1-6.3,7.3-6.3c3.1,0,5.7,1,7.8,2.7l-2.4,3.5c-1.9-1.3-3.7-2.1-5.5-2.1s-2.7,0.8-2.7,1.8v0.1c0,1.4,0.9,1.8,4.5,2.8
	c4.3,1.1,6.7,2.6,6.7,6.3v0.1c0,4.2-3.2,6.5-7.7,6.5C1252.2,22.2,1249,21.1,1246.4,18.8L1246.4,18.8z"/>
<path d="M1266.5,16.2V5.8h4.6v9c0,2.2,1,3.3,2.8,3.3s2.8-1.1,2.8-3.3v-9h4.6v16.1h-4.6v-2.3c-1.1,1.4-2.4,2.6-4.7,2.6
	C1268.5,22.2,1266.5,19.9,1266.5,16.2z"/>
<path class="st1" d="M1293.5,13.9L1293.5,13.9c0-4.7,3.5-8.4,8.4-8.4c3,0,4.9,1,6.4,2.7l-2.8,3c-1-1.1-2-1.8-3.7-1.8
	c-2.3,0-3.9,2-3.9,4.4v0.1c0,2.5,1.6,4.4,4.1,4.4c1.5,0,2.6-0.7,3.7-1.7l2.7,2.7c-1.6,1.7-3.4,2.9-6.6,2.9
	C1297,22.3,1293.5,18.5,1293.5,13.9z"/>
<path class="st1" d="M1311.4,5.8h4.6V9c0.9-2.2,2.4-3.7,5.1-3.5v4.8h-0.2c-3,0-4.9,1.8-4.9,5.7v5.9h-4.6V5.8z"/>
<path class="st1" d="M1323.8,16.2V5.8h4.6v9c0,2.2,1,3.3,2.8,3.3c1.7,0,2.8-1.1,2.8-3.3v-9h4.6v16.1h-4.6v-2.3
	c-1.1,1.4-2.4,2.6-4.7,2.6C1325.8,22.2,1323.8,19.9,1323.8,16.2z"/>
<path class="st1" d="M1340.3,26.6V23c0.4,0.1,0.6,0.1,1,0.1c1,0,1.6-0.5,1.6-1.9V5.8h4.6v15.8c0,3.5-1.8,5.2-5.2,5.2
	C1341.4,26.8,1340.9,26.7,1340.3,26.6z M1342.7,0h4.8v4.1h-4.8V0z"/>
<path class="st1" d="M1351.8,0h4.8v4.1h-4.8V0z M1351.9,5.8h4.6v16.1h-4.6V5.8z"/>
<path class="st1" d="M1360,13.9L1360,13.9c0-4.7,3.3-8.4,7.9-8.4c5.4,0,7.8,4.2,7.8,8.7c0,0.4,0,0.8-0.1,1.2h-11.2
	c0.4,2.1,1.9,3.1,3.9,3.1c1.5,0,2.6-0.5,3.9-1.6l2.6,2.3c-1.5,1.9-3.7,3-6.6,3C1363.6,22.3,1360,18.9,1360,13.9z M1371.3,12.6
	c-0.3-2-1.5-3.4-3.4-3.4s-3.1,1.4-3.5,3.4H1371.3z"/>
<path class="st1" d="M1379.2,5.8h4.6v2.3c1.1-1.3,2.4-2.6,4.7-2.6c3.4,0,5.5,2.3,5.5,6v10.4h-4.6v-9c0-2.2-1-3.3-2.8-3.3
	s-2.8,1.1-2.8,3.3v9h-4.6L1379.2,5.8L1379.2,5.8z"/>
<path class="st1" d="M1398.6,17.3V9.7h-1.9V5.8h1.9V1.7h4.6v4.1h3.8v3.9h-3.8v6.9c0,1,0.4,1.6,1.5,1.6c0.8,0,1.6-0.2,2.2-0.6v3.7
	c-1,0.6-2.1,0.9-3.6,0.9C1400.5,22.2,1398.6,21.1,1398.6,17.3z"/>
<path class="st1" d="M1409.1,13.9L1409.1,13.9c0-4.7,3.3-8.4,7.9-8.4c5.4,0,7.8,4.2,7.8,8.7c0,0.4,0,0.8-0.1,1.2h-11.2
	c0.4,2.1,1.9,3.1,3.9,3.1c1.5,0,2.6-0.5,3.9-1.6l2.6,2.3c-1.5,1.9-3.7,3-6.6,3C1412.6,22.3,1409.1,18.9,1409.1,13.9z M1420.4,12.6
	c-0.3-2-1.5-3.4-3.4-3.4s-3.1,1.4-3.5,3.4H1420.4z"/>
<path d="M1438,17.3V9.7h-1.9V5.8h1.9V1.7h4.6v4.1h3.8v3.9h-3.8v6.9c0,1,0.4,1.6,1.5,1.6c0.8,0,1.6-0.2,2.2-0.6v3.7
	c-1,0.6-2.1,0.9-3.6,0.9C1439.9,22.2,1438,21.1,1438,17.3z"/>
<path d="M1448.5,13.9L1448.5,13.9c0-4.7,3.3-8.4,7.9-8.4c5.4,0,7.8,4.2,7.8,8.7c0,0.4,0,0.8-0.1,1.2H1453c0.4,2.1,1.9,3.1,3.9,3.1
	c1.5,0,2.6-0.5,3.9-1.6l2.6,2.3c-1.5,1.9-3.7,3-6.6,3C1452,22.3,1448.5,18.9,1448.5,13.9z M1459.8,12.6c-0.3-2-1.5-3.4-3.4-3.4
	s-3.1,1.4-3.5,3.4H1459.8z"/>
<path d="M1471,13.7l-5.4-7.9h4.9l3,4.7l3-4.7h4.8l-5.4,7.8l5.7,8.2h-4.9l-3.2-5l-3.2,5h-4.8L1471,13.7z"/>
<path d="M1485,17.3V9.7h-1.9V5.8h1.9V1.7h4.6v4.1h3.8v3.9h-3.8v6.9c0,1,0.4,1.6,1.5,1.6c0.8,0,1.6-0.2,2.2-0.6v3.7
	c-1,0.6-2.1,0.9-3.6,0.9C1486.9,22.2,1485,21.1,1485,17.3z"/>
<path d="M1496.6,16.2V5.8h4.6v9c0,2.2,1,3.3,2.8,3.3c1.7,0,2.9-1.1,2.9-3.3v-9h4.6v16.1h-4.6v-2.3c-1.1,1.4-2.4,2.6-4.7,2.6
	C1498.6,22.2,1496.6,19.9,1496.6,16.2z"/>
<path d="M1515.4,5.8h4.6V9c0.9-2.2,2.4-3.7,5.1-3.5v4.8h-0.2c-3,0-4.9,1.8-4.9,5.7v5.9h-4.6V5.8z"/>
<path d="M1526.2,17.3L1526.2,17.3c0-3.6,2.7-5.2,6.5-5.2c1.6,0,2.8,0.3,3.9,0.7v-0.3c0-1.9-1.2-2.9-3.4-2.9c-1.7,0-3,0.3-4.4,0.9
	l-1.1-3.5c1.8-0.8,3.5-1.3,6.2-1.3c2.5,0,4.3,0.7,5.4,1.8c1.2,1.2,1.7,3,1.7,5.1v9.3h-4.4v-1.7c-1.1,1.2-2.6,2-4.9,2
	C1528.7,22.2,1526.2,20.5,1526.2,17.3L1526.2,17.3z M1536.7,16.2v-0.8c-0.8-0.4-1.8-0.6-2.9-0.6c-1.9,0-3.1,0.8-3.1,2.2v0.1
	c0,1.2,1,2,2.5,2C1535.2,19,1536.7,17.9,1536.7,16.2L1536.7,16.2z"/>
<path d="M1202.2,35.8h4.6V39c0.9-2.2,2.4-3.7,5.1-3.5v4.8h-0.2c-3,0-4.9,1.8-4.9,5.7v5.9h-4.6V35.8z"/>
<path d="M1213.5,44L1213.5,44c0-4.7,3.3-8.4,7.9-8.4c5.4,0,7.8,4.2,7.8,8.7c0,0.4,0,0.8-0.1,1.2h-11.2c0.4,2.1,1.9,3.2,3.9,3.2
	c1.5,0,2.6-0.5,3.9-1.7l2.6,2.3c-1.5,1.9-3.7,3-6.6,3C1217.1,52.3,1213.5,48.9,1213.5,44z M1224.9,42.6c-0.3-2-1.5-3.4-3.4-3.4
	s-3.1,1.4-3.5,3.4H1224.9z"/>
<path d="M1231.4,49.8l1.9-3c1.7,1.3,3.6,1.9,5.1,1.9c1.3,0,1.9-0.5,1.9-1.2v-0.1c0-1-1.6-1.3-3.3-1.9c-2.2-0.7-4.8-1.7-4.8-4.8v-0.1
	c0-3.3,2.6-5.1,5.9-5.1c2,0,4.3,0.7,6,1.9l-1.7,3.1c-1.6-0.9-3.2-1.5-4.3-1.5c-1.1,0-1.7,0.5-1.7,1.1v0.1c0,0.9,1.5,1.3,3.3,1.9
	c2.2,0.8,4.9,1.8,4.9,4.8V47c0,3.6-2.7,5.2-6.2,5.2C1236.1,52.2,1233.6,51.4,1231.4,49.8L1231.4,49.8z"/>
<path d="M1246.8,47.3L1246.8,47.3c0-3.6,2.7-5.2,6.5-5.2c1.6,0,2.8,0.3,3.9,0.7v-0.3c0-1.9-1.2-2.9-3.4-2.9c-1.7,0-3,0.3-4.4,0.9
	l-1.1-3.5c1.8-0.8,3.5-1.3,6.2-1.3c2.5,0,4.3,0.7,5.4,1.8c1.2,1.2,1.7,3,1.7,5.1v9.3h-4.4v-1.7c-1.1,1.2-2.6,2-4.9,2
	C1249.3,52.2,1246.8,50.5,1246.8,47.3L1246.8,47.3z M1257.3,46.2v-0.8c-0.8-0.4-1.8-0.6-2.9-0.6c-1.9,0-3.2,0.8-3.2,2.2v0.1
	c0,1.2,1,2,2.5,2C1255.8,49,1257.3,47.9,1257.3,46.2L1257.3,46.2z"/>
<path d="M1265.7,30h4.6v21.9h-4.6V30z"/>
<path d="M1275.3,47.3v-7.6h-1.9v-3.9h1.9v-4.1h4.6v4.1h3.8v3.9h-3.8v6.9c0,1,0.4,1.6,1.5,1.6c0.8,0,1.6-0.2,2.2-0.6v3.7
	c-1,0.6-2.1,0.9-3.6,0.9C1277.2,52.2,1275.3,51.1,1275.3,47.3z"/>
<path d="M1286.1,47.3L1286.1,47.3c0-3.6,2.7-5.2,6.5-5.2c1.6,0,2.8,0.3,3.9,0.7v-0.3c0-1.9-1.2-2.9-3.4-2.9c-1.7,0-3,0.3-4.4,0.9
	l-1.1-3.5c1.8-0.8,3.5-1.3,6.2-1.3c2.5,0,4.3,0.7,5.4,1.8c1.2,1.2,1.7,3,1.7,5.1v9.3h-4.4v-1.7c-1.1,1.2-2.6,2-4.9,2
	C1288.6,52.2,1286.1,50.5,1286.1,47.3L1286.1,47.3z M1296.5,46.2v-0.8c-0.8-0.4-1.8-0.6-2.9-0.6c-1.9,0-3.1,0.8-3.1,2.2v0.1
	c0,1.2,1,2,2.5,2C1295.1,49,1296.5,47.9,1296.5,46.2L1296.5,46.2z"/>
<path d="M1314.5,47.3v-7.6h-1.9v-3.9h1.9v-4.1h4.6v4.1h3.8v3.9h-3.8v6.9c0,1,0.4,1.6,1.5,1.6c0.8,0,1.6-0.2,2.2-0.6v3.7
	c-1,0.6-2.1,0.9-3.6,0.9C1316.4,52.2,1314.5,51.1,1314.5,47.3z"/>
<path d="M1325,44L1325,44c0-4.7,3.7-8.4,8.7-8.4s8.7,3.7,8.7,8.3V44c0,4.6-3.7,8.4-8.7,8.4C1328.7,52.3,1325,48.6,1325,44L1325,44z
	 M1337.9,44L1337.9,44c0-2.4-1.7-4.5-4.2-4.5c-2.6,0-4.2,2-4.2,4.4V44c0,2.4,1.7,4.4,4.2,4.4C1336.4,48.3,1337.9,46.3,1337.9,44z"/>
<path d="M1345,43.9L1345,43.9c0-5.4,3.5-8.4,7.3-8.4c2.4,0,3.9,1.1,5,2.4V30h4.6v21.9h-4.6v-2.3c-1.1,1.5-2.6,2.6-5,2.6
	C1348.6,52.2,1345,49.3,1345,43.9z M1357.4,43.9L1357.4,43.9c0-2.7-1.8-4.5-3.9-4.5s-3.9,1.7-3.9,4.4v0.1c0,2.7,1.8,4.4,3.9,4.4
	S1357.4,46.6,1357.4,43.9z"/>
<path d="M1365.2,44L1365.2,44c0-4.7,3.7-8.4,8.7-8.4s8.7,3.7,8.7,8.3V44c0,4.6-3.7,8.4-8.7,8.4C1368.9,52.3,1365.2,48.6,1365.2,44z
	 M1378.1,44L1378.1,44c0-2.4-1.7-4.5-4.2-4.5c-2.6,0-4.2,2-4.2,4.4V44c0,2.4,1.7,4.4,4.2,4.4C1376.5,48.3,1378.1,46.3,1378.1,44z"/>
<path d="M1384.6,49.8l1.9-3c1.7,1.3,3.6,1.9,5.1,1.9c1.3,0,1.9-0.5,1.9-1.2v-0.1c0-1-1.6-1.3-3.3-1.9c-2.2-0.7-4.8-1.7-4.8-4.8v-0.1
	c0-3.3,2.6-5.1,5.9-5.1c2,0,4.3,0.7,6,1.9l-1.7,3.1c-1.6-0.9-3.2-1.5-4.3-1.5c-1.1,0-1.7,0.5-1.7,1.1v0.1c0,0.9,1.5,1.3,3.3,1.9
	c2.2,0.8,4.9,1.8,4.9,4.8V47c0,3.6-2.7,5.2-6.2,5.2C1389.3,52.2,1386.8,51.4,1384.6,49.8L1384.6,49.8z"/>
<path d="M1410.2,30h4.6v21.9h-4.6V30z"/>
<path d="M1418.2,44L1418.2,44c0-4.7,3.7-8.4,8.7-8.4s8.7,3.7,8.7,8.3V44c0,4.6-3.7,8.4-8.7,8.4C1421.9,52.3,1418.2,48.6,1418.2,44z
	 M1431.1,44L1431.1,44c0-2.4-1.7-4.5-4.2-4.5c-2.6,0-4.2,2-4.2,4.4V44c0,2.4,1.7,4.4,4.2,4.4C1429.6,48.3,1431.1,46.3,1431.1,44z"/>
<path d="M1437.7,49.8l1.9-3c1.7,1.3,3.6,1.9,5.1,1.9c1.3,0,1.9-0.5,1.9-1.2v-0.1c0-1-1.6-1.3-3.3-1.9c-2.2-0.7-4.8-1.7-4.8-4.8v-0.1
	c0-3.3,2.6-5.1,5.9-5.1c2,0,4.3,0.7,6,1.9l-1.7,3.1c-1.6-0.9-3.2-1.5-4.3-1.5c-1.1,0-1.7,0.5-1.7,1.1v0.1c0,0.9,1.5,1.3,3.3,1.9
	c2.2,0.8,4.9,1.8,4.9,4.8V47c0,3.6-2.7,5.2-6.1,5.2C1442.3,52.2,1439.8,51.4,1437.7,49.8L1437.7,49.8z"/>
<path d="M1461.7,49.8l1.9-3c1.7,1.3,3.6,1.9,5.1,1.9c1.3,0,1.9-0.5,1.9-1.2v-0.1c0-1-1.6-1.3-3.3-1.9c-2.2-0.7-4.8-1.7-4.8-4.8v-0.1
	c0-3.3,2.6-5.1,5.9-5.1c2,0,4.3,0.7,6,1.9l-1.7,3.1c-1.6-0.9-3.2-1.5-4.3-1.5c-1.1,0-1.7,0.5-1.7,1.1v0.1c0,0.9,1.5,1.3,3.3,1.9
	c2.2,0.8,4.9,1.8,4.9,4.8V47c0,3.6-2.7,5.2-6.1,5.2C1466.4,52.2,1463.9,51.4,1461.7,49.8L1461.7,49.8z"/>
<path d="M1477.1,47.3L1477.1,47.3c0-3.6,2.7-5.2,6.5-5.2c1.6,0,2.8,0.3,3.9,0.7v-0.3c0-1.9-1.2-2.9-3.4-2.9c-1.7,0-3,0.3-4.4,0.9
	l-1.1-3.5c1.8-0.8,3.5-1.3,6.2-1.3c2.5,0,4.3,0.7,5.4,1.8c1.2,1.2,1.7,3,1.7,5.1v9.3h-4.4v-1.7c-1.1,1.2-2.6,2-4.9,2
	C1479.6,52.2,1477.1,50.5,1477.1,47.3L1477.1,47.3z M1487.6,46.2v-0.8c-0.8-0.4-1.8-0.6-2.9-0.6c-1.9,0-3.1,0.8-3.1,2.2v0.1
	c0,1.2,1,2,2.5,2C1486.1,49,1487.6,47.9,1487.6,46.2L1487.6,46.2z"/>
<path d="M1500.4,49.8v2.1h-4.6V30h4.6v8.1c1.1-1.5,2.6-2.6,5-2.6c3.8,0,7.3,2.9,7.3,8.3v0.1c0,5.4-3.5,8.3-7.3,8.3
	C1502.9,52.2,1501.4,51.1,1500.4,49.8z M1508.1,43.9L1508.1,43.9c0-2.7-1.8-4.5-3.9-4.5s-3.9,1.8-3.9,4.4v0.1c0,2.7,1.8,4.4,3.9,4.4
	S1508.1,46.6,1508.1,43.9z"/>
<path d="M1515.3,44L1515.3,44c0-4.7,3.7-8.4,8.7-8.4s8.7,3.7,8.7,8.3V44c0,4.6-3.7,8.4-8.7,8.4C1519,52.3,1515.3,48.6,1515.3,44z
	 M1528.2,44L1528.2,44c0-2.4-1.7-4.5-4.2-4.5c-2.6,0-4.2,2-4.2,4.4V44c0,2.4,1.7,4.4,4.2,4.4C1526.6,48.3,1528.2,46.3,1528.2,44z"/>
<path d="M1536,35.8h4.6V39c0.9-2.2,2.4-3.7,5.1-3.5v4.8h-0.2c-3,0-4.9,1.8-4.9,5.7v5.9h-4.6V35.8z"/>
<path d="M1547.3,44L1547.3,44c0-4.7,3.3-8.4,7.9-8.4c5.4,0,7.8,4.2,7.8,8.7c0,0.4,0,0.8-0.1,1.2h-11.2c0.4,2.1,1.9,3.2,3.9,3.2
	c1.5,0,2.6-0.5,3.9-1.7l2.6,2.3c-1.5,1.9-3.7,3-6.6,3C1550.9,52.3,1547.3,48.9,1547.3,44z M1558.6,42.6c-0.3-2-1.5-3.4-3.4-3.4
	s-3.1,1.4-3.5,3.4H1558.6z"/>
<path d="M1565.2,49.8l1.9-3c1.7,1.3,3.6,1.9,5.1,1.9c1.3,0,1.9-0.5,1.9-1.2v-0.1c0-1-1.6-1.3-3.3-1.9c-2.2-0.7-4.8-1.7-4.8-4.8v-0.1
	c0-3.3,2.6-5.1,5.9-5.1c2,0,4.3,0.7,6,1.9l-1.7,3.1c-1.6-0.9-3.2-1.5-4.3-1.5c-1.1,0-1.7,0.5-1.7,1.1v0.1c0,0.9,1.5,1.3,3.3,1.9
	c2.2,0.8,4.9,1.8,4.9,4.8V47c0,3.6-2.7,5.2-6.1,5.2C1569.9,52.2,1567.3,51.4,1565.2,49.8L1565.2,49.8z"/>
<path d="M1580.3,54.9c2.1-0.2,3.1-1.3,2.9-3h-1.9v-4.8h4.9v4c0,4-2,5.5-5.6,5.6L1580.3,54.9z"/>
<path d="M1228.9,73.9L1228.9,73.9c0-4.7,3.5-8.4,8.4-8.4c3,0,4.9,1,6.4,2.7l-2.8,3c-1-1.1-2-1.8-3.7-1.8c-2.3,0-3.9,2-3.9,4.4v0.1
	c0,2.5,1.6,4.4,4.1,4.4c1.5,0,2.6-0.7,3.7-1.7l2.7,2.7c-1.6,1.7-3.4,2.9-6.6,2.9C1232.4,82.3,1228.9,78.5,1228.9,73.9z"/>
<path d="M1246.8,65.8h4.6V69c0.9-2.2,2.4-3.7,5.1-3.5v4.8h-0.2c-3,0-4.9,1.8-4.9,5.7v5.9h-4.6V65.8z"/>
<path d="M1258.1,73.9L1258.1,73.9c0-4.7,3.3-8.4,7.9-8.4c5.4,0,7.8,4.2,7.8,8.7c0,0.4,0,0.8-0.1,1.2h-11.2c0.4,2.1,1.9,3.2,3.9,3.2
	c1.5,0,2.6-0.5,3.9-1.7l2.6,2.3c-1.5,1.9-3.7,3-6.6,3C1261.6,82.3,1258.1,78.9,1258.1,73.9z M1269.4,72.6c-0.3-2-1.5-3.4-3.4-3.4
	s-3.1,1.4-3.5,3.4H1269.4z"/>
<path d="M1276.3,77.3L1276.3,77.3c0-3.6,2.7-5.2,6.5-5.2c1.6,0,2.8,0.3,3.9,0.7v-0.3c0-1.9-1.2-2.9-3.4-2.9c-1.7,0-3,0.3-4.4,0.9
	l-1.1-3.5c1.8-0.8,3.5-1.3,6.2-1.3c2.5,0,4.3,0.7,5.4,1.8c1.2,1.2,1.7,3,1.7,5.1v9.3h-4.4v-1.7c-1.1,1.2-2.6,2-4.9,2
	C1278.8,82.2,1276.3,80.5,1276.3,77.3L1276.3,77.3z M1286.8,76.2v-0.8c-0.8-0.4-1.8-0.6-2.9-0.6c-1.9,0-3.1,0.8-3.1,2.2v0.1
	c0,1.2,1,1.9,2.5,1.9C1285.3,79,1286.8,77.9,1286.8,76.2L1286.8,76.2z"/>
<path d="M1295,65.8h4.6v2.3c1.1-1.3,2.4-2.6,4.7-2.6c3.4,0,5.5,2.3,5.5,6v10.4h-4.6v-9c0-2.2-1-3.3-2.8-3.3c-1.7,0-2.9,1.1-2.9,3.3
	v9h-4.6L1295,65.8L1295,65.8z"/>
<path d="M1313,73.9L1313,73.9c0-5.4,3.5-8.4,7.3-8.4c2.4,0,3.9,1.1,5,2.4V60h4.6v21.9h-4.6v-2.3c-1.1,1.5-2.6,2.6-5,2.6
	C1316.5,82.2,1313,79.3,1313,73.9L1313,73.9z M1325.4,73.9L1325.4,73.9c0-2.7-1.8-4.5-3.9-4.5s-3.9,1.7-3.9,4.4v0.1
	c0,2.7,1.8,4.4,3.9,4.4S1325.4,76.6,1325.4,73.9z"/>
<path d="M1333.2,73.9L1333.2,73.9c0-4.7,3.7-8.4,8.7-8.4s8.7,3.7,8.7,8.3v0.1c0,4.6-3.7,8.4-8.7,8.4
	C1336.9,82.3,1333.2,78.6,1333.2,73.9L1333.2,73.9z M1346.1,73.9L1346.1,73.9c0-2.4-1.7-4.5-4.2-4.5c-2.6,0-4.2,2-4.2,4.4v0.1
	c0,2.4,1.7,4.4,4.2,4.4C1344.5,78.3,1346.1,76.3,1346.1,73.9z"/>
<path d="M1362.7,76.2V65.8h4.6v9c0,2.2,1,3.3,2.8,3.3s2.8-1.1,2.8-3.3v-9h4.6v16.1h-4.6v-2.3c-1.1,1.4-2.4,2.6-4.7,2.6
	C1364.8,82.2,1362.7,79.9,1362.7,76.2z"/>
<path d="M1381.6,65.8h4.6v2.3c1.1-1.3,2.4-2.6,4.7-2.6c3.4,0,5.5,2.3,5.5,6v10.4h-4.6v-9c0-2.2-1-3.3-2.8-3.3s-2.8,1.1-2.8,3.3v9
	h-4.6L1381.6,65.8L1381.6,65.8z"/>
<path d="M1399.3,77.3L1399.3,77.3c0-3.6,2.7-5.2,6.5-5.2c1.6,0,2.8,0.3,3.9,0.7v-0.3c0-1.9-1.2-2.9-3.4-2.9c-1.7,0-3,0.3-4.4,0.9
	l-1.1-3.5c1.8-0.8,3.5-1.3,6.2-1.3c2.5,0,4.3,0.7,5.4,1.8c1.2,1.2,1.7,3,1.7,5.1v9.3h-4.4v-1.7c-1.1,1.2-2.6,2-4.9,2
	C1401.8,82.2,1399.3,80.5,1399.3,77.3L1399.3,77.3z M1409.8,76.2v-0.8c-0.8-0.4-1.8-0.6-2.9-0.6c-1.9,0-3.1,0.8-3.1,2.2v0.1
	c0,1.2,1,1.9,2.5,1.9C1408.3,79,1409.8,77.9,1409.8,76.2L1409.8,76.2z"/>
<path class="st0" d="M1426.3,73.9L1426.3,73.9c0-5.4,3.5-8.4,7.3-8.4c2.4,0,3.9,1.1,5,2.4V60h4.6v21.9h-4.6v-2.3
	c-1.1,1.5-2.6,2.6-5,2.6C1429.9,82.2,1426.3,79.3,1426.3,73.9L1426.3,73.9z M1438.7,73.9L1438.7,73.9c0-2.7-1.8-4.5-3.9-4.5
	s-3.9,1.7-3.9,4.4v0.1c0,2.7,1.8,4.4,3.9,4.4S1438.7,76.6,1438.7,73.9z"/>
<path class="st0" d="M1446.5,73.9L1446.5,73.9c0-4.7,3.3-8.4,7.9-8.4c5.4,0,7.8,4.2,7.8,8.7c0,0.4,0,0.8-0.1,1.2H1451
	c0.4,2.1,1.9,3.2,3.9,3.2c1.5,0,2.6-0.5,3.9-1.7l2.6,2.3c-1.5,1.9-3.7,3-6.6,3C1450,82.3,1446.5,78.9,1446.5,73.9z M1457.8,72.6
	c-0.3-2-1.5-3.4-3.4-3.4s-3.1,1.4-3.5,3.4H1457.8z"/>
<path class="st0" d="M1465.9,60h4.6v21.9h-4.6V60z"/>
<path class="st0" d="M1474.8,60h4.8v4.1h-4.8V60z M1474.9,65.8h4.6v16.1h-4.6V65.8z"/>
<path class="st0" d="M1483,73.9L1483,73.9c0-4.7,3.5-8.4,8.4-8.4c3,0,4.9,1,6.4,2.7l-2.8,3c-1-1.1-2-1.8-3.7-1.8
	c-2.3,0-3.9,2-3.9,4.4v0.1c0,2.5,1.6,4.4,4.1,4.4c1.5,0,2.6-0.7,3.7-1.7l2.7,2.7c-1.6,1.7-3.4,2.9-6.6,2.9
	C1486.5,82.3,1483,78.5,1483,73.9z"/>
<path class="st0" d="M1501,60h4.8v4.1h-4.8V60z M1501.1,65.8h4.6v16.1h-4.6V65.8z"/>
<path class="st0" d="M1509.2,73.9L1509.2,73.9c0-4.7,3.7-8.4,8.7-8.4s8.7,3.7,8.7,8.3v0.1c0,4.6-3.7,8.4-8.7,8.4
	C1512.9,82.3,1509.2,78.6,1509.2,73.9z M1522.1,73.9L1522.1,73.9c0-2.4-1.7-4.5-4.2-4.5c-2.6,0-4.2,2-4.2,4.4v0.1
	c0,2.4,1.7,4.4,4.2,4.4C1520.5,78.3,1522.1,76.3,1522.1,73.9z"/>
<path class="st0" d="M1528.6,79.8l1.9-3c1.7,1.3,3.6,1.9,5.1,1.9c1.3,0,1.9-0.5,1.9-1.2v-0.1c0-1-1.6-1.3-3.3-1.9
	c-2.2-0.7-4.8-1.7-4.8-4.8v-0.1c0-3.3,2.6-5.1,5.9-5.1c2,0,4.3,0.7,6,1.9l-1.7,3.1c-1.6-0.9-3.2-1.5-4.3-1.5c-1.1,0-1.7,0.5-1.7,1.1
	v0.1c0,0.9,1.5,1.3,3.3,1.9c2.2,0.8,4.9,1.8,4.9,4.8V77c0,3.6-2.7,5.2-6.1,5.2C1533.3,82.2,1530.7,81.4,1528.6,79.8L1528.6,79.8z"/>
<path class="st0" d="M1544,77.3L1544,77.3c0-3.6,2.7-5.2,6.5-5.2c1.6,0,2.8,0.3,3.9,0.7v-0.3c0-1.9-1.2-2.9-3.4-2.9
	c-1.7,0-3,0.3-4.4,0.9l-1.1-3.5c1.8-0.8,3.5-1.3,6.2-1.3c2.5,0,4.3,0.7,5.4,1.8c1.2,1.2,1.7,3,1.7,5.1v9.3h-4.4v-1.7
	c-1.1,1.2-2.6,2-4.9,2C1546.5,82.2,1544,80.5,1544,77.3L1544,77.3z M1554.4,76.2v-0.8c-0.8-0.4-1.8-0.6-2.9-0.6
	c-1.9,0-3.1,0.8-3.1,2.2v0.1c0,1.2,1,1.9,2.5,1.9C1553,79,1554.4,77.9,1554.4,76.2L1554.4,76.2z"/>
<path d="M1204.2,103.9L1204.2,103.9c0-4.7,3.3-8.4,7.9-8.4c5.4,0,7.8,4.2,7.8,8.7c0,0.4,0,0.8-0.1,1.2h-11.2
	c0.4,2.1,1.9,3.2,3.9,3.2c1.5,0,2.6-0.5,3.9-1.7l2.6,2.3c-1.5,1.9-3.7,3-6.6,3C1207.7,112.3,1204.2,108.9,1204.2,103.9z
	 M1215.5,102.6c-0.3-2-1.5-3.4-3.4-3.4s-3.1,1.4-3.5,3.4H1215.5z"/>
<path d="M1226.7,103.7l-5.4-7.9h4.9l3,4.7l3-4.7h4.8l-5.4,7.8l5.7,8.2h-4.9l-3.2-5l-3.2,5h-4.8L1226.7,103.7z"/>
<path d="M1239.9,95.8h4.6v2.3c1.1-1.5,2.6-2.6,5-2.6c3.8,0,7.3,2.9,7.3,8.3v0.1c0,5.4-3.5,8.3-7.3,8.3c-2.4,0-3.9-1.1-5-2.4v6.9
	h-4.6V95.8z M1252.3,103.9L1252.3,103.9c0-2.7-1.8-4.5-3.9-4.5s-3.9,1.8-3.9,4.4v0.1c0,2.7,1.8,4.4,3.9,4.4
	S1252.3,106.6,1252.3,103.9z"/>
<path d="M1259.4,103.9L1259.4,103.9c0-4.7,3.3-8.4,7.9-8.4c5.4,0,7.8,4.2,7.8,8.7c0,0.4,0,0.8-0.1,1.2h-11.2
	c0.4,2.1,1.9,3.2,3.9,3.2c1.5,0,2.6-0.5,3.9-1.7l2.6,2.3c-1.5,1.9-3.7,3-6.6,3C1263,112.3,1259.4,108.9,1259.4,103.9z M1270.7,102.6
	c-0.3-2-1.5-3.4-3.4-3.4s-3.1,1.4-3.5,3.4H1270.7z"/>
<path d="M1278.6,95.8h4.6V99c0.9-2.2,2.4-3.7,5.1-3.5v4.8h-0.2c-3,0-4.9,1.8-4.9,5.7v5.9h-4.6V95.8z"/>
<path d="M1291.2,90h4.8v4.1h-4.8V90z M1291.3,95.8h4.6v16.1h-4.6V95.8z"/>
<path d="M1299.4,103.9L1299.4,103.9c0-4.7,3.3-8.4,7.9-8.4c5.4,0,7.8,4.2,7.8,8.7c0,0.4,0,0.8-0.1,1.2h-11.2
	c0.4,2.1,1.9,3.2,3.9,3.2c1.5,0,2.6-0.5,3.9-1.7l2.6,2.3c-1.5,1.9-3.7,3-6.6,3C1303,112.3,1299.4,108.9,1299.4,103.9z M1310.7,102.6
	c-0.3-2-1.5-3.4-3.4-3.4s-3.1,1.4-3.5,3.4H1310.7z"/>
<path d="M1318.6,95.8h4.6v2.3c1.1-1.3,2.4-2.6,4.7-2.6c3.4,0,5.5,2.3,5.5,6v10.4h-4.6v-9c0-2.2-1-3.3-2.8-3.3
	c-1.7,0-2.9,1.1-2.9,3.3v9h-4.6L1318.6,95.8L1318.6,95.8z"/>
<path d="M1336.5,103.9L1336.5,103.9c0-4.7,3.5-8.4,8.4-8.4c3,0,4.9,1,6.4,2.7l-2.8,3c-1-1.1-2-1.8-3.7-1.8c-2.3,0-3.9,2-3.9,4.4v0.1
	c0,2.5,1.6,4.4,4.1,4.4c1.5,0,2.6-0.7,3.7-1.7l2.7,2.7c-1.6,1.7-3.4,2.9-6.6,2.9C1340,112.3,1336.5,108.5,1336.5,103.9z"/>
<path d="M1354.5,90h4.8v4.1h-4.8V90z M1354.6,95.8h4.6v16.1h-4.6V95.8z"/>
<path d="M1362.5,107.3L1362.5,107.3c0-3.6,2.7-5.2,6.5-5.2c1.6,0,2.8,0.3,3.9,0.7v-0.3c0-1.9-1.2-2.9-3.4-2.9c-1.7,0-3,0.3-4.4,0.9
	L1364,97c1.8-0.8,3.5-1.3,6.2-1.3c2.5,0,4.3,0.7,5.4,1.8c1.2,1.2,1.7,3,1.7,5.1v9.3h-4.4v-1.7c-1.1,1.2-2.6,2-4.9,2
	C1365,112.2,1362.5,110.5,1362.5,107.3L1362.5,107.3z M1373,106.2v-0.8c-0.8-0.4-1.8-0.6-2.9-0.6c-1.9,0-3.1,0.8-3.1,2.2v0.1
	c0,1.2,1,1.9,2.5,1.9C1371.5,109,1373,107.9,1373,106.2L1373,106.2z"/>
<path d="M1401.8,109.6c-1.1,1.5-2.6,2.6-5,2.6c-3.8,0-7.3-2.9-7.3-8.3v-0.1c0-5.4,3.5-8.3,7.3-8.3c2.4,0,3.9,1.1,5,2.4v-2.1h4.6
	v20.9h-4.6V109.6z M1401.9,103.9L1401.9,103.9c0-2.7-1.8-4.5-3.9-4.5s-3.9,1.7-3.9,4.4v0.1c0,2.7,1.8,4.4,3.9,4.4
	S1401.9,106.6,1401.9,103.9z"/>
<path d="M1410.3,106.2V95.8h4.6v9c0,2.2,1,3.3,2.8,3.3c1.7,0,2.9-1.1,2.9-3.3v-9h4.6v16.1h-4.6v-2.3c-1.1,1.4-2.4,2.6-4.7,2.6
	C1412.3,112.2,1410.3,109.9,1410.3,106.2z"/>
<path d="M1428.4,103.9L1428.4,103.9c0-4.7,3.3-8.4,7.9-8.4c5.4,0,7.8,4.2,7.8,8.7c0,0.4,0,0.8-0.1,1.2h-11.2
	c0.4,2.1,1.9,3.2,3.9,3.2c1.5,0,2.6-0.5,3.9-1.7l2.6,2.3c-1.5,1.9-3.7,3-6.6,3C1431.9,112.3,1428.4,108.9,1428.4,103.9z
	 M1439.7,102.6c-0.3-2-1.5-3.4-3.4-3.4s-3.1,1.4-3.5,3.4H1439.7z"/>
<path d="M1455.8,103.9L1455.8,103.9c0-4.7,3.5-8.4,8.4-8.4c3,0,4.9,1,6.4,2.7l-2.8,3c-1-1.1-2-1.8-3.7-1.8c-2.3,0-3.9,2-3.9,4.4v0.1
	c0,2.5,1.6,4.4,4.1,4.4c1.5,0,2.6-0.7,3.7-1.7l2.7,2.7c-1.6,1.7-3.4,2.9-6.6,2.9C1459.3,112.3,1455.8,108.5,1455.8,103.9z"/>
<path d="M1472.4,103.9L1472.4,103.9c0-4.7,3.7-8.4,8.7-8.4s8.7,3.7,8.7,8.3v0.1c0,4.6-3.7,8.4-8.7,8.4S1472.4,108.6,1472.4,103.9z
	 M1485.3,103.9L1485.3,103.9c0-2.4-1.7-4.5-4.2-4.5c-2.6,0-4.2,2-4.2,4.4v0.1c0,2.4,1.7,4.4,4.2,4.4
	C1483.8,108.3,1485.3,106.3,1485.3,103.9z"/>
<path d="M1493.1,95.8h4.6v2.3c1.1-1.3,2.4-2.6,4.7-2.6c2.1,0,3.7,0.9,4.5,2.6c1.4-1.7,3.1-2.6,5.3-2.6c3.4,0,5.4,2,5.4,5.9v10.5
	h-4.6v-9c0-2.2-1-3.3-2.7-3.3s-2.8,1.1-2.8,3.3v9h-4.6v-9c0-2.2-1-3.3-2.7-3.3s-2.8,1.1-2.8,3.3v9h-4.6L1493.1,95.8L1493.1,95.8z"/>
<path d="M1526.2,109.8v2.1h-4.6V90h4.6v8.1c1.1-1.5,2.6-2.6,5-2.6c3.8,0,7.3,2.9,7.3,8.3v0.1c0,5.4-3.5,8.3-7.3,8.3
	C1528.8,112.2,1527.3,111.1,1526.2,109.8L1526.2,109.8z M1534,103.9L1534,103.9c0-2.7-1.8-4.5-3.9-4.5s-3.9,1.8-3.9,4.4v0.1
	c0,2.7,1.8,4.4,3.9,4.4S1534,106.6,1534,103.9z"/>
<path d="M1542,90h4.8v4.1h-4.8V90z M1542.1,95.8h4.6v16.1h-4.6V95.8z"/>
<path d="M1550.9,95.8h4.6v2.3c1.1-1.3,2.4-2.6,4.7-2.6c3.4,0,5.5,2.3,5.5,6v10.4h-4.6v-9c0-2.2-1-3.3-2.8-3.3
	c-1.7,0-2.8,1.1-2.8,3.3v9h-4.6L1550.9,95.8L1550.9,95.8z"/>
<path d="M1568.7,107.3L1568.7,107.3c0-3.6,2.7-5.2,6.5-5.2c1.6,0,2.8,0.3,3.9,0.7v-0.3c0-1.9-1.2-2.9-3.4-2.9c-1.7,0-3,0.3-4.4,0.9
	l-1.1-3.5c1.8-0.8,3.5-1.3,6.2-1.3c2.5,0,4.3,0.7,5.4,1.8c1.2,1.2,1.7,3,1.7,5.1v9.3h-4.4v-1.7c-1.1,1.2-2.6,2-4.9,2
	C1571.2,112.2,1568.7,110.5,1568.7,107.3L1568.7,107.3z M1579.1,106.2v-0.8c-0.8-0.4-1.8-0.6-2.9-0.6c-1.9,0-3.1,0.8-3.1,2.2v0.1
	c0,1.2,1,1.9,2.5,1.9C1577.7,109,1579.1,107.9,1579.1,106.2L1579.1,106.2z"/>
<path d="M1211,133.9L1211,133.9c0-4.7,3.5-8.4,8.4-8.4c3,0,4.9,1,6.4,2.7l-2.8,3c-1-1.1-2-1.8-3.7-1.8c-2.3,0-3.9,2-3.9,4.4v0.1
	c0,2.5,1.6,4.4,4.1,4.4c1.5,0,2.6-0.7,3.7-1.7l2.7,2.7c-1.6,1.7-3.4,2.9-6.6,2.9C1214.5,142.3,1211,138.5,1211,133.9z"/>
<path d="M1227.7,133.9L1227.7,133.9c0-4.7,3.7-8.4,8.7-8.4s8.7,3.7,8.7,8.3v0.1c0,4.6-3.7,8.4-8.7,8.4
	C1231.4,142.3,1227.7,138.6,1227.7,133.9L1227.7,133.9z M1240.6,133.9L1240.6,133.9c0-2.4-1.7-4.5-4.2-4.5c-2.6,0-4.2,2-4.2,4.4v0.1
	c0,2.4,1.7,4.4,4.2,4.4C1239,138.3,1240.6,136.3,1240.6,133.9z"/>
<path d="M1248.4,125.8h4.6v2.3c1.1-1.3,2.4-2.6,4.7-2.6c3.4,0,5.5,2.3,5.5,6v10.4h-4.6v-9c0-2.2-1-3.3-2.8-3.3s-2.8,1.1-2.8,3.3v9
	h-4.6L1248.4,125.8L1248.4,125.8z"/>
<g>
	<path class="st1" d="M1275.3,133.9L1275.3,133.9c0-4.7,3.5-8.4,8.4-8.4c3,0,4.9,1,6.4,2.7l-2.8,3c-1-1.1-2-1.8-3.7-1.8
		c-2.3,0-3.9,2-3.9,4.4v0.1c0,2.5,1.6,4.4,4.1,4.4c1.5,0,2.6-0.7,3.7-1.7l2.7,2.7c-1.6,1.7-3.4,2.9-6.6,2.9
		C1278.8,142.3,1275.3,138.5,1275.3,133.9z"/>
	<path class="st1" d="M1293.1,136.2v-10.4h4.6v9c0,2.2,1,3.3,2.8,3.3s2.8-1.1,2.8-3.3v-9h4.6v16.1h-4.6v-2.3
		c-1.1,1.4-2.4,2.6-4.7,2.6C1295.1,142.2,1293.1,139.9,1293.1,136.2z"/>
	<path class="st1" d="M1310.9,137.3L1310.9,137.3c0-3.6,2.7-5.2,6.5-5.2c1.6,0,2.8,0.3,3.9,0.7v-0.3c0-1.9-1.2-2.9-3.4-2.9
		c-1.7,0-3,0.3-4.4,0.9l-1.1-3.5c1.8-0.8,3.5-1.3,6.2-1.3c2.5,0,4.3,0.7,5.4,1.8c1.2,1.2,1.7,3,1.7,5.1v9.3h-4.4v-1.7
		c-1.1,1.2-2.6,2-4.9,2C1313.4,142.2,1310.9,140.5,1310.9,137.3L1310.9,137.3z M1321.4,136.2v-0.8c-0.8-0.4-1.8-0.6-2.9-0.6
		c-1.9,0-3.2,0.8-3.2,2.2v0.1c0,1.2,1,1.9,2.5,1.9C1320,139,1321.4,137.9,1321.4,136.2L1321.4,136.2z"/>
	<path class="st1" d="M1329.9,120h4.6v21.9h-4.6V120z"/>
	<path class="st1" d="M1350.3,139.6c-1.1,1.5-2.6,2.6-5,2.6c-3.8,0-7.3-2.9-7.3-8.3v-0.1c0-5.4,3.5-8.3,7.3-8.3c2.4,0,3.9,1.1,5,2.4
		v-2.1h4.6v20.9h-4.6V139.6z M1350.4,133.9L1350.4,133.9c0-2.7-1.8-4.5-3.9-4.5s-3.9,1.7-3.9,4.4v0.1c0,2.7,1.8,4.4,3.9,4.4
		S1350.4,136.6,1350.4,133.9z"/>
	<path class="st1" d="M1358.8,136.2v-10.4h4.6v9c0,2.2,1,3.3,2.8,3.3s2.8-1.1,2.8-3.3v-9h4.6v16.1h-4.6v-2.3
		c-1.1,1.4-2.4,2.6-4.7,2.6C1360.9,142.2,1358.8,139.9,1358.8,136.2z"/>
	<path class="st1" d="M1377.7,120h4.8v4.1h-4.8V120z M1377.9,125.8h4.6v16.1h-4.6V125.8z"/>
	<path class="st1" d="M1385.9,133.9L1385.9,133.9c0-4.7,3.3-8.4,7.9-8.4c5.4,0,7.8,4.2,7.8,8.7c0,0.4,0,0.8-0.1,1.2h-11.2
		c0.4,2.1,1.9,3.1,3.9,3.1c1.5,0,2.6-0.5,3.9-1.6l2.6,2.3c-1.5,1.9-3.7,3-6.6,3C1389.5,142.3,1385.9,138.9,1385.9,133.9z
		 M1397.3,132.6c-0.3-2-1.5-3.4-3.4-3.4s-3.1,1.4-3.5,3.4H1397.3z"/>
	<path class="st1" d="M1405.1,125.8h4.6v3.2c0.9-2.2,2.4-3.7,5.1-3.5v4.8h-0.2c-3,0-4.9,1.8-4.9,5.7v5.9h-4.6V125.8z"/>
	<path class="st1" d="M1426.6,125.8h4.6v2.3c1.1-1.3,2.4-2.6,4.7-2.6c2.1,0,3.7,0.9,4.5,2.5c1.4-1.7,3.1-2.6,5.3-2.6
		c3.4,0,5.4,2,5.4,5.9v10.5h-4.6v-9c0-2.2-1-3.3-2.7-3.3s-2.8,1.1-2.8,3.3v9h-4.6v-9c0-2.2-1-3.3-2.7-3.3s-2.8,1.1-2.8,3.3v9h-4.6
		L1426.6,125.8L1426.6,125.8z"/>
	<path class="st1" d="M1454.4,133.9L1454.4,133.9c0-4.7,3.7-8.4,8.7-8.4s8.7,3.7,8.7,8.3v0.1c0,4.6-3.7,8.4-8.7,8.4
		C1458.1,142.3,1454.4,138.6,1454.4,133.9L1454.4,133.9z M1467.3,133.9L1467.3,133.9c0-2.4-1.7-4.5-4.2-4.5c-2.6,0-4.2,2-4.2,4.4
		v0.1c0,2.4,1.7,4.4,4.2,4.4C1465.7,138.3,1467.3,136.3,1467.3,133.9z"/>
	<path class="st1" d="M1475.1,125.8h4.6v2.3c1.1-1.3,2.4-2.6,4.7-2.6c2.1,0,3.7,0.9,4.5,2.5c1.4-1.7,3.1-2.6,5.3-2.6
		c3.4,0,5.4,2,5.4,5.9v10.5h-4.6v-9c0-2.2-1-3.3-2.7-3.3s-2.8,1.1-2.8,3.3v9h-4.6v-9c0-2.2-1-3.3-2.7-3.3s-2.8,1.1-2.8,3.3v9h-4.6
		L1475.1,125.8L1475.1,125.8z"/>
	<path class="st1" d="M1502.8,133.9L1502.8,133.9c0-4.7,3.3-8.4,7.9-8.4c5.4,0,7.8,4.2,7.8,8.7c0,0.4,0,0.8-0.1,1.2h-11.2
		c0.4,2.1,1.9,3.1,3.9,3.1c1.5,0,2.6-0.5,3.9-1.6l2.6,2.3c-1.5,1.9-3.7,3-6.6,3C1506.4,142.3,1502.8,138.9,1502.8,133.9z
		 M1514.1,132.6c-0.3-2-1.5-3.4-3.4-3.4s-3.1,1.4-3.5,3.4H1514.1z"/>
	<path class="st1" d="M1522,125.8h4.6v2.3c1.1-1.3,2.4-2.6,4.7-2.6c3.4,0,5.5,2.3,5.5,6v10.4h-4.6v-9c0-2.2-1-3.3-2.8-3.3
		c-1.7,0-2.8,1.1-2.8,3.3v9h-4.6L1522,125.8L1522,125.8z"/>
	<path class="st1" d="M1541.4,137.3v-7.6h-1.9v-3.9h1.9v-4.1h4.6v4.1h3.8v3.9h-3.8v6.9c0,1.1,0.4,1.6,1.5,1.6c0.8,0,1.6-0.2,2.2-0.6
		v3.7c-1,0.6-2.1,0.9-3.6,0.9C1543.3,142.2,1541.4,141.1,1541.4,137.3L1541.4,137.3z"/>
	<path class="st1" d="M1551.9,133.9L1551.9,133.9c0-4.7,3.7-8.4,8.7-8.4s8.7,3.7,8.7,8.3v0.1c0,4.6-3.7,8.4-8.7,8.4
		C1555.6,142.3,1551.9,138.6,1551.9,133.9L1551.9,133.9z M1564.8,133.9L1564.8,133.9c0-2.4-1.7-4.5-4.2-4.5c-2.6,0-4.2,2-4.2,4.4
		v0.1c0,2.4,1.7,4.4,4.2,4.4C1563.2,138.3,1564.8,136.3,1564.8,133.9z"/>
	<path class="st1" d="M1571.8,137.1h4.9v4.8h-4.9V137.1z"/>
</g>
</svg>
