<svg viewBox="0 0 1586.201 765.606" xmlns="http://www.w3.org/2000/svg"><path d="m275.624 569.806c-4.005-21.559-10.273-41.151-18.126-56.662-4.12-8.141-8.697-15.227-13.602-21.059-5.094-6.05-10.583-10.807-16.328-14.146-32.874-19.106-64.644-28.793-94.414-28.793-19.314 0-37.547 4.104-54.182 12.187-15.376 7.465-29.051 18.135-40.648 31.707-5.482 6.419-10.455 13.456-14.783 20.925-4.228 7.318-7.858 15.082-10.792 23.078-5.811 15.83-8.879 32.741-8.879 48.907 0 13.915 2.189 27.113 6.503 39.231 4.523 12.683 11.281 23.842 20.078 33.162 9.388 9.949 21.018 17.69 34.567 23.006 14.643 5.748 31.56 8.663 50.284 8.664 1.638 0 3.322-.027 4.985-.07.693-.018 1.357-.03 2.047-.03 16.402 0 31.838 5.262 47.187 16.086 13.152 9.278 24.139 21.122 33.827 31.567 12.026 12.969 22.415 24.173 31.615 24.173h.007c2.744 0 5.348-.974 7.964-2.984 2.912-2.225 5.861-5.795 8.787-10.606 6.354-10.495 12.858-27.229 19.875-51.145 5.263-17.966 8.383-39.306 9.028-61.7.623-21.862-1.102-44.513-5-65.498" fill="#ffc425"/><path d="m271.597 697.004c-7.018 23.916-13.522 40.649-19.876 51.144-2.926 4.811-5.874 8.381-8.786 10.606-2.617 2.01-5.221 2.984-7.965 2.984h-.007c-9.2 0-19.588-11.205-31.615-24.174-9.688-10.445-20.675-22.288-33.827-31.567-15.349-10.825-30.785-16.086-47.187-16.086-.69 0-1.354.012-2.047.03-1.663.044-3.347.071-4.985.071-18.723 0-35.64-2.916-50.284-8.664-13.548-5.317-25.179-13.057-34.567-23.007-8.798-9.32-15.555-20.479-20.078-33.162-4.314-12.117-6.503-25.316-6.503-39.23 0-16.166 3.068-33.077 8.879-48.908 2.933-7.996 6.564-15.76 10.792-23.078 4.328-7.47 9.301-14.505 14.783-20.924 11.597-13.572 25.272-24.242 40.648-31.708 16.636-8.083 34.868-12.186 54.182-12.186 29.77 0 61.54 9.687 94.414 28.793 5.745 3.339 11.234 8.097 16.328 14.146 4.905 5.832 9.482 12.919 13.602 21.059 7.853 15.512 14.121 35.104 18.126 56.662 3.899 20.984 5.623 43.636 5.001 65.498-.645 22.394-3.766 43.734-9.028 61.701m7.824-127.906c-4.072-21.91-10.456-41.865-18.48-57.702-8.812-17.415-19.394-29.799-31.434-36.795-33.473-19.455-65.892-29.316-96.353-29.317-19.905 0-38.701 4.228-55.874 12.572-15.851 7.704-29.95 18.696-41.889 32.678-5.637 6.593-10.744 13.83-15.18 21.495-4.355 7.505-8.086 15.477-11.092 23.685-2.987 8.127-5.275 16.519-6.805 24.943-1.529 8.448-2.314 16.961-2.314 25.293 0 14.357 2.274 27.994 6.743 40.526 4.698 13.192 11.73 24.804 20.896 34.517 9.778 10.368 21.877 18.428 35.97 23.952 15.092 5.921 32.488 8.926 51.693 8.926 1.67 0 3.382-.025 5.093-.068.651-.015 1.282-.023 1.939-.023 35.139 0 59.003 25.734 78.184 46.416 6.234 6.727 12.125 13.077 17.655 17.657 6.382 5.29 11.717 7.753 16.79 7.754h.014c3.57-.006 7.04-1.275 10.314-3.781 3.336-2.56 6.518-6.38 9.732-11.678 6.535-10.786 13.173-27.817 20.278-52.057 10.764-36.707 12.301-84.923 4.12-128.993"/><path d="m79.871 563.75c-.061.886-.188 1.654-.39 2.332-.128.808-.289 1.595-.49 2.333-.201.876-.382 1.721-.543 2.536-.162.808-.342 1.623-.537 2.433-.067.678-.229 1.357-.497 2.027-.261.752-.538 1.53-.799 2.339-.335.812-.638 1.627-.899 2.435-.268.678-.556 1.289-.852 1.83-.307.546-.698 1.154-1.174 1.831-.469.678-.906 1.259-1.315 1.734-.396.543-.805 1.158-1.215 1.829-.201.275-.503.653-.913 1.127-.335.342-.643.678-.913 1.02v-.305c-.006-.131-.006-.239-.006-.306l-.174-18.006c-.015-1.892-.028-3.78-.046-5.67-.021-1.822 0-3.607.046-5.369.054-1.752.073-3.339.054-4.748-.007-1.349.013-2.463.073-3.345 0-.879.053-1.587.181-2.127 0-.336.068-.641.201-.913.552.127 1.169.228 1.853.286.618.13 1.235.298 1.852.489.686.262 1.309.56 1.853.897.556.329 1.033.634 1.45.895.341.269.656.604.932 1 .342.406.691.839 1.041 1.304.281.545.523 1.114.731 1.719.215.54.355 1.044.428 1.51.007.745.048 1.486.128 2.231.007.742.015 1.479.02 2.222.007.745-.021 1.554-.08 2.43m3.63-7.013c-.079-.942-.295-1.852-.645-2.728-.281-.808-.664-1.543-1.146-2.214-.416-.671-.839-1.275-1.248-1.809-.49-.537-1.014-1.04-1.558-1.507-.557-.396-1.153-.795-1.812-1.198-.65-.4-1.428-.758-2.315-1.091-.972-.396-1.932-.621-2.885-.681-.685-.125-1.337-.255-1.953-.386-.684-.125-1.308-.256-1.852-.387-.342-.064-.624-.201-.825-.398l-.719-.604c-.423-.259-.886-.359-1.395-.286-.51.071-.927.292-1.229.665-.295.376-.416.816-.348 1.318.072.503.321.926.73 1.258l.625.503c.342.265.731.497 1.141.695-.141.342-.242.749-.302 1.218-.06.678-.121 1.521-.181 2.534-.06.943-.081 2.125-.075 3.544.021 1.349 0 2.901-.046 4.657-.062 1.751-.074 3.607-.054 5.563.013 1.892.041 3.744.054 5.567l.173 18.011c.021 2.091.074 3.98.156 5.664.087 1.618.127 3.242.147 4.856.08 1.557.167 3.003.248 4.355.08 1.342.134 2.524.141 3.536.073.877.079 1.721.02 2.53-.06.808-.094 1.516-.081 2.127l.014 1.822c.014.608.014 1.211.019 1.823-.06.67-.093 1.247-.087 1.721l.007.709c.007.473.194.889.584 1.257.376.367.806.552 1.282.549.483-.007.907-.195 1.282-.575.367-.373.557-.794.55-1.268l-.007-.708c-.006-.406.026-.909.087-1.517-.006-.671-.013-1.349-.019-2.023l-.015-1.826c0-.535.021-1.18.087-1.922.056-.875.049-1.821-.032-2.835-.006-1.007-.054-2.189-.134-3.537-.087-1.349-.168-2.797-.249-4.349-.012-1.554-.068-3.07-.147-4.557.475-.137.851-.38 1.12-.722l.812-1.218c.47-.678.98-1.288 1.523-1.835.61-.678 1.067-1.292 1.369-1.832.302-.541.624-1.021.96-1.429.47-.544.959-1.171 1.47-1.886.503-.715.958-1.406 1.362-2.089.335-.672.672-1.454 1.006-2.33.336-.815.638-1.662.906-2.544.328-.808.631-1.593.899-2.332.263-.816.497-1.66.697-2.536.122-.816.276-1.604.437-2.389.162-.772.35-1.567.545-2.382.195-.805.355-1.621.49-2.43.195-.808.34-1.72.43-2.735.093-1.013.14-1.959.126-2.835-.007-.815-.014-1.623-.02-2.433-.08-.736-.113-1.441-.12-2.119"/><path d="m108.961 588.777c-.135.816-.154 1.859-.074 3.141.007 1.08-.014 2.194-.076 3.339-.052 1.151-.112 2.262-.173 3.345.007 1.144-.013 2.188-.073 3.137.007.872-.014 1.718-.08 2.533-.054.808-.087 1.715-.074 2.728.013.875-.02 1.684-.074 2.433-.06.739-.121 1.416-.187 2.026.006.605-.06 1.181-.188 1.715-.067.48-.236 1.083-.497 1.828-.268.745-.531 1.355-.805 1.829-.201.272-.511.546-.913.818-.409.343-.892.581-1.429.722-.416.076-.758.107-1.027.114-.276-.063-.517-.162-.726-.299-.207-.201-.381-.406-.521-.603-.135-.336-.248-.635-.309-.91-.076-.462-.189-.943-.323-1.41-.073-.406-.181-.838-.323-1.318-.148-.534-.289-1.07-.423-1.61-.154-.539-.255-1.174-.327-1.923-.148-.869-.256-1.684-.33-2.422-.155-.742-.228-1.481-.228-2.228-.081-.738-.188-1.647-.337-2.721-.08-1.013-.16-2.097-.234-3.241-.079-1.013-.162-2.057-.235-3.133-.079-.944-.127-1.957-.141-3.041-.074-1.205-.12-2.386-.133-3.536-.074-1.412-.162-2.594-.235-3.539-.013-1.212-.061-2.46-.14-3.742-.082-1.281-.162-2.529-.242-3.744-.148-1.074-.228-2.225-.235-3.436-.021-1.281-.026-2.53-.039-3.744-.082-1.073-.122-2.128-.128-3.14l-.027-2.524c-.014-.678-.014-1.583-.021-2.734-.012-1.078.007-1.892.075-2.433-.007-.671.019-1.312.087-1.919-.006-.544.021-1.114.087-1.717.122-.678.255-1.387.383-2.131.201-.748.469-1.493.805-2.235.337-.677.705-1.187 1.108-1.53.416-.47.819-.849 1.228-1.124.268-.204.545-.312.812-.312.417-.004.792.063 1.135.194l.718.292c.274.066.591.1.932.1.068.198.142.366.208.503l.523.803c.343.466.591.938.726 1.409.215.466.355.94.423 1.413.147.473.22.839.227 1.108 0 .546.035 1.08.115 1.623.068.54.107 1.141.121 1.815.074.678.181 1.386.323 2.125.146.671.222 1.282.222 1.821.073.604.153 1.413.234 2.426.141.809.215 1.547.228 2.225 0 .742-.026 1.517-.079 2.325.007.879.039 1.756.121 2.631.081.875.12 1.725.134 2.53.006.878.047 1.718.121 2.527.007.744.054 1.553.128 2.428.013.947.053 1.923.133 2.929.075.953.121 1.96.135 3.04.001 1.005-.025 1.82-.086 2.424m3.644-5.7c-.087-1.01-.128-1.953-.14-2.829-.074-.947-.115-1.822-.121-2.631-.074-.67-.12-1.419-.127-2.228-.013-.939-.047-1.852-.128-2.728-.074-.808-.121-1.617-.128-2.425.062-.816.087-1.591.081-2.333-.007-.738-.087-1.584-.227-2.53-.082-1.007-.156-1.815-.229-2.426-.074-.672-.154-1.38-.228-2.12-.14-.607-.255-1.211-.323-1.819-.073-.675-.147-1.282-.221-1.819-.005-.47-.013-.912-.013-1.315-.007-.544-.114-1.181-.322-1.923-.148-.671-.323-1.313-.537-1.917-.288-.67-.625-1.342-1.047-2.013l-.517-.802c-.416-.671-1.04-.969-1.859-.896-.215-.611-.632-1.007-1.247-1.205l-.719-.295c-.752-.259-1.543-.389-2.369-.383-1.019.011-1.939.322-2.764.93-.679.419-1.323.966-1.934 1.644-.678.684-1.248 1.53-1.717 2.544-.476.883-.805 1.831-.999 2.845-.263.947-.43 1.792-.49 2.53-.128.749-.195 1.457-.187 2.134.007.534-.014 1.107-.082 1.715-.066.678-.094 1.623-.08 2.835.014 1.152.02 2.023.034 2.631l.021 2.533c.013 1.014.054 2.125.133 3.339.007 1.146.021 2.325.034 3.536.015 1.288.094 2.53.243 3.744.08 1.148.154 2.326.24 3.544.074 1.349.128 2.59.135 3.742.079 1.006.161 2.191.24 3.54.007 1.147.054 2.362.135 3.637.013 1.08.054 2.093.134 3.04.073 1.007.154 2.056.241 3.134.075 1.151.155 2.296.236 3.436.148 1.084.261 1.953.335 2.63.074.809.148 1.618.223 2.427.147.742.254 1.516.334 2.319.141.883.288 1.661.429 2.325.142.54.283 1.083.43 1.617.134.54.248 1.013.316 1.421.147.395.248.8.321 1.204.148.611.356 1.182.631 1.716.349.742.852 1.382 1.503 1.908.658.539 1.429.867 2.328.99.886.132 1.778.089 2.658-.123.96-.279 1.851-.692 2.664-1.239.818-.614 1.457-1.292 1.932-2.046.403-.607.772-1.424 1.108-2.43.329-.954.563-1.759.69-2.443.062-.605.121-1.244.188-1.923.061-.671.121-1.379.181-2.128.068-.808.089-1.721.082-2.733 0-.94.019-1.785.08-2.524.06-.815.087-1.69.08-2.638.054-.946.081-1.959.074-3.032.054-1.152.107-2.295.175-3.447.047-1.144.074-2.331.06-3.536-.074-1.084-.048-1.929.079-2.537.062-.742.087-1.724.074-2.936-.012-1.144-.053-2.224-.127-3.238"/><path d="m154.476 549.191-.819.01c-.55.071-1.41.114-2.569.124-1.161.007-2.397.021-3.7.034-1.368.01-2.971.131-4.819.345-1.779.158-3.591.336-5.442.561-1.706.217-3.275.365-4.712.448-1.51.082-2.811.161-3.899.235-1.168.08-2.221.225-3.181.437l-1.227.315c-.484.074-.86.328-1.121.772-.276.442-.356.912-.248 1.415.115.506.382.879.833 1.108.448.232.905.312 1.388.237l1.229-.312c.751-.212 1.603-.323 2.57-.328 1.02-.074 2.302-.155 3.838-.239 1.543-.081 3.2-.235 4.98-.453.208 0 .409-.036.609-.103-.067.134-.1.234-.1.301l.046 4.858c.014 1.014.087 2.058.235 3.134.081 1.081.161 2.225.242 3.436.013 1.288.025 2.631.04 4.05.021 1.487.067 3.034.148 4.651.08 1.62.168 3.244.254 4.862.074 1.546.128 3.17.148 4.848-.054 1.691-.094 3.395-.107 5.117-.013 1.718-.054 3.476-.1 5.261-.054 1.792-.107 3.425-.162 4.913-.053 1.546-.108 3.104-.161 4.657-.054 1.487-.107 2.932-.16 4.352-.128 1.485-.182 2.767-.176 3.841.087 1.083.128 2.097.135 3.04.073.808.121 1.449.121 1.923v.603c.013.54.201.974.59 1.313.37.335.819.496 1.336.49.517 0 .938-.195 1.281-.568.337-.372.505-.794.498-1.269l-.007-.708c0-.473-.054-1.144-.129-2.026-.007-.869-.046-1.815-.12-2.829-.013-1.013.04-2.194.168-3.543.054-1.418.107-2.937.16-4.56.056-1.48.109-3.033.162-4.651.053-1.486.108-3.12.154-4.911.054-1.789.087-3.544.108-5.265.02-1.718.054-3.42.107-5.111-.02-1.822-.073-3.539-.154-5.157-.088-1.554-.176-3.138-.256-4.755-.081-1.617-.128-3.141-.141-4.554-.012-1.482-.033-2.865-.04-4.15-.08-1.275-.162-2.493-.248-3.637-.14-1.013-.22-1.953-.227-2.832l-.041-4.855c0-.205-.04-.41-.114-.609.409-.071.819-.114 1.229-.114 1.712-.221 3.188-.335 4.417-.348 1.368-.011 2.631-.023 3.792-.03 1.307-.011 2.268-.054 2.878-.132l.825-.007c.476-.067.887-.295 1.221-.671.334-.373.491-.812.449-1.318-.04-.503-.248-.926-.631-1.262-.374-.323-.836-.454-1.38-.384"/><path d="m183.097 547.611-5.435.05c-.685.007-1.269.011-1.753.018-.611.006-1.268.043-1.945.113-.55.075-1.06.148-1.532.221l-.825.008c-.891.073-1.435.583-1.623 1.529-.14.276-.208.541-.201.816l-.201 1.111c-.06.814-.082 1.892-.067 3.241.007 1.282.033 2.865.046 4.757-.053 1.818-.066 3.808-.046 5.966-.04 2.164-.093 4.459-.143 6.885.022 2.43-.126 4.792-.448 7.087-.309 2.369-.597 4.765-.846 7.194-.262 2.368-.463 4.677-.604 6.939-.155 2.265-.254 4.342-.303 6.224.02 1.96.074 3.711.155 5.261.08 1.622.201 3.141.356 4.551.147 1.419.329 2.601.545 3.54.146.875.219 1.651.226 2.325-.068.812-.086 1.415-.08 1.821.007 1.424.872 2.325 2.591 2.709 1.027.256 2.054.319 3.079.176.819-.074 1.637-.184 2.457-.329.758-.073 1.368-.148 1.852-.219.544-.007 1.055-.042 1.537-.11.475-.073.986-.15 1.53-.218l.723-.11c.478-.138.875-.414 1.176-.823.303-.401.402-.863.288-1.369-.101-.503-.363-.889-.772-1.155-.417-.262-.866-.363-1.341-.293l-.819.212c-.482.073-.905.124-1.282.16-.378.044-.807.06-1.289.06-.542.079-1.262.152-2.147.232-.818.138-1.645.248-2.463.323-.475.07-.959.076-1.437.013 0-.336.027-.672.096-1.013-.007-.877-.127-1.853-.337-2.93-.14-.943-.294-2.087-.442-3.439-.154-1.348-.276-2.795-.356-4.352-.079-1.479-.128-3.134-.148-4.956.049-1.882.128-3.909.248-6.073.062-1.077.148-2.158.283-3.238l.711-.115c.619-.137 1.235-.241 1.853-.315.544-.007 1.054-.007 1.53-.013.685.064 1.341.087 1.958.081.685-.007 1.471-.148 2.35-.423l1.026-.218c.551-.138.938-.43 1.176-.869.241-.442.301-.896.188-1.368-.102-.473-.376-.833-.825-1.108-.45-.262-.915-.323-1.39-.184l-1.128.315c-.61.144-1.127.212-1.537.212-.402.006-.926-.017-1.535-.081-.693-.06-1.404-.058-2.155.019-.62.068-1.235.179-1.853.316.248-2.294.503-4.587.759-6.888.315-2.432.503-4.925.542-7.493.048-2.56.093-4.856.141-6.883-.021-2.157-.015-4.177.041-6.076-.014-1.882-.034-3.47-.049-4.748-.007-1.221.02-2.164.082-2.835v-.305c.336-.07.711-.107 1.12-.111.551-.071 1.033-.114 1.444-.114.548-.007 1.16-.015 1.837-.018l5.45-.049c.476-.007.9-.181 1.274-.524.376-.342.557-.764.55-1.268 0-.503-.195-.94-.57-1.312-.381-.366-.81-.546-1.293-.54"/><path d="m228.341 548.903c-.389-.328-.845-.459-1.396-.386l-.819.007c-.551.077-1.402.115-2.563.125-1.167.007-2.396.02-3.697.033-1.369.017-2.98.131-4.817.353-1.78.151-3.598.335-5.437.553-1.718.218-3.281.366-4.724.45-1.504.08-2.804.16-3.899.234-1.161.081-2.222.232-3.175.436l-1.235.315c-.469.075-.852.329-1.121.772-.267.442-.342.913-.241 1.416.106.507.383.88.832 1.107.442.232.913.312 1.388.238l1.229-.312c.753-.211 1.61-.321 2.563-.328 1.027-.075 2.308-.154 3.846-.239 1.543-.08 3.201-.228 4.979-.453.207 0 .409-.036.617-.104-.073.135-.101.235-.101.302l.04 4.859c.007 1.013.087 2.057.241 3.14.081 1.074.155 2.219.243 3.43.013 1.288.02 2.637.033 4.049.013 1.487.062 3.034.148 4.658.081 1.613.168 3.231.256 4.855.079 1.548.126 3.171.146 4.855-.059 1.684-.087 3.389-.107 5.111-.021 1.717-.054 3.477-.108 5.268-.046 1.784-.099 3.42-.159 4.906-.047 1.554-.1 3.104-.155 4.657-.053 1.487-.107 2.933-.16 4.351-.128 1.487-.181 2.768-.168 3.849.074 1.08.121 2.091.121 3.033.081.809.128 1.449.128 1.922l.006.609c.007.543.202.976.577 1.307.383.34.827.498 1.343.498.509-.006.933-.196 1.275-.573.341-.373.503-.796.503-1.269l-.013-.708c0-.473-.04-1.145-.115-2.02-.007-.875-.062-1.822-.134-2.836-.013-1.013.053-2.188.175-3.544.053-1.419.107-2.936.162-4.552.053-1.487.106-3.04.159-4.664.055-1.481.101-3.115.161-4.906.048-1.781.082-3.536.101-5.264.014-1.718.053-3.419.101-5.107-.013-1.825-.066-3.544-.147-5.161-.086-1.554-.168-3.137-.248-4.754-.087-1.618-.14-3.134-.148-4.554-.012-1.482-.027-2.865-.04-4.147-.081-1.277-.161-2.496-.241-3.64-.148-1.011-.221-1.952-.23-2.832l-.053-4.861c0-.198-.033-.403-.108-.6.409-.071.825-.115 1.236-.115 1.704-.218 3.175-.336 4.408-.346 1.369-.007 2.638-.02 3.798-.033 1.303-.01 2.255-.054 2.872-.131l.827-.007c.475-.068.884-.295 1.227-.672.336-.373.482-.811.438-1.318-.036-.503-.251-.926-.62-1.262"/><path d="m552.496 299.121h9.451c8.751 0 13.827 5.041 13.827 12.111v.07c0 7.07-5.146 12.321-13.967 12.321h-9.311zm9.556 18.483c4.061 0 6.756-2.24 6.756-6.196v-.069c0-3.921-2.695-6.196-6.756-6.196h-2.765v12.462z"/><path d="m579.271 299.121h19.707v5.775h-12.986v3.711h11.761v5.355h-11.761v3.886h13.161v5.775h-19.882z"/><path d="m600.76 319.983 3.78-4.516c2.416 1.926 5.111 2.94 7.946 2.94 1.82 0 2.801-.63 2.801-1.68v-.07c0-1.016-.805-1.575-4.131-2.346-5.215-1.189-9.241-2.66-9.241-7.7v-.07c0-4.551 3.605-7.841 9.486-7.841 4.166 0 7.421 1.12 10.081 3.255l-3.396 4.796c-2.24-1.575-4.69-2.415-6.86-2.415-1.646 0-2.45.7-2.45 1.575v.07c0 1.12.84 1.609 4.235 2.38 5.636 1.225 9.136 3.045 9.136 7.631v.07c0 5.005-3.955 7.98-9.906 7.98-4.34.002-8.47-1.363-11.481-4.059z"/><path d="m624.595 311.442v-.07c0-7.141 5.496-12.741 12.917-12.741 5.005 0 8.226 2.101 10.396 5.111l-5.11 3.955c-1.4-1.75-3.01-2.87-5.356-2.87-3.43 0-5.845 2.905-5.845 6.476v.069c0 3.676 2.415 6.546 5.845 6.546 2.556 0 4.061-1.189 5.531-2.975l5.11 3.64c-2.31 3.186-5.425 5.531-10.851 5.531-7.001 0-12.637-5.356-12.637-12.672z"/><path d="m650.67 312.878v-13.757h6.896v13.616c0 3.536 1.785 5.216 4.516 5.216 2.73 0 4.515-1.61 4.515-5.04v-13.792h6.896v13.582c0 7.91-4.516 11.376-11.481 11.376s-11.342-3.535-11.342-11.201z"/><path d="m677.515 299.121h12.566c3.081 0 5.251.771 6.686 2.205.98.98 1.575 2.275 1.575 3.956v.069c0 2.836-1.61 4.516-3.781 5.461 2.976.98 4.866 2.66 4.866 5.985v.07c0 4.2-3.43 6.756-9.276 6.756h-12.636zm10.886 9.767c2.065 0 3.221-.7 3.221-2.136v-.07c0-1.33-1.05-2.1-3.081-2.1h-4.41v4.306zm.98 9.275c2.065 0 3.255-.805 3.255-2.24v-.07c0-1.33-1.05-2.205-3.326-2.205h-5.18v4.516h5.251z"/><path d="m702.54 299.121h11.586c3.746 0 6.336.98 7.981 2.66 1.435 1.4 2.17 3.291 2.17 5.706v.069c0 3.746-1.996 6.231-5.041 7.526l5.845 8.541h-7.841l-4.936-7.421h-.07-2.905v7.421h-6.791v-24.502zm11.271 11.762c2.31 0 3.64-1.12 3.64-2.905v-.07c0-1.925-1.4-2.905-3.675-2.905h-4.445v5.881h4.48z"/><path d="m727.705 299.121h19.707v5.775h-12.986v3.711h11.761v5.355h-11.761v3.886h13.161v5.775h-19.882z"/><path d="m760.744 299.121h19.707v5.775h-12.986v3.711h11.761v5.355h-11.761v3.886h13.161v5.775h-19.882z"/><path d="m784.089 299.121h6.791v18.552h11.866v5.951h-18.657z"/><path d="m813.488 319.983 3.78-4.516c2.416 1.926 5.111 2.94 7.946 2.94 1.82 0 2.8-.63 2.8-1.68v-.07c0-1.016-.805-1.575-4.13-2.346-5.215-1.189-9.241-2.66-9.241-7.7v-.07c0-4.551 3.605-7.841 9.486-7.841 4.166 0 7.421 1.12 10.081 3.255l-3.395 4.796c-2.24-1.575-4.691-2.415-6.861-2.415-1.646 0-2.45.7-2.45 1.575v.07c0 1.12.84 1.609 4.235 2.38 5.635 1.225 9.136 3.045 9.136 7.631v.07c0 5.005-3.955 7.98-9.906 7.98-4.34.002-8.47-1.363-11.481-4.059z"/><path d="m846.113 298.946h6.546l10.431 24.678h-7.281l-1.785-4.376h-9.451l-1.75 4.376h-7.141zm5.951 15.017-2.73-6.966-2.765 6.966z"/><path d="m865.467 299.121h12.566c3.08 0 5.251.771 6.686 2.205.98.98 1.575 2.275 1.575 3.956v.069c0 2.836-1.609 4.516-3.78 5.461 2.976.98 4.866 2.66 4.866 5.985v.07c0 4.2-3.431 6.756-9.276 6.756h-12.636zm10.886 9.767c2.065 0 3.22-.7 3.22-2.136v-.07c0-1.33-1.05-2.1-3.08-2.1h-4.41v4.306zm.981 9.275c2.065 0 3.255-.805 3.255-2.24v-.07c0-1.33-1.051-2.205-3.326-2.205h-5.18v4.516h5.251z"/><path d="m889.651 311.442v-.07c0-7.035 5.671-12.741 13.231-12.741s13.161 5.636 13.161 12.672v.069c0 7.036-5.67 12.742-13.231 12.742-7.56 0-13.161-5.635-13.161-12.672zm19.462 0v-.07c0-3.535-2.555-6.615-6.301-6.615-3.71 0-6.195 3.011-6.195 6.546v.069c0 3.536 2.556 6.616 6.266 6.616 3.745 0 6.23-3.01 6.23-6.546z"/><path d="m919.576 299.121h11.587c3.745 0 6.335.98 7.98 2.66 1.436 1.4 2.17 3.291 2.17 5.706v.069c0 3.746-1.995 6.231-5.04 7.526l5.846 8.541h-7.841l-4.936-7.421h-.07-2.905v7.421h-6.791zm11.272 11.762c2.311 0 3.641-1.12 3.641-2.905v-.07c0-1.925-1.4-2.905-3.676-2.905h-4.445v5.881h4.48z"/><path d="m954.436 299.121h7.176l5.846 9.486 5.846-9.486h7.176v24.503h-6.756v-14.071l-6.266 9.591h-.14l-6.23-9.521v14.002h-6.651v-24.504z"/><path d="m993.286 298.946h6.546l10.432 24.678h-7.281l-1.785-4.376h-9.451l-1.75 4.376h-7.141zm5.951 15.017-2.73-6.966-2.766 6.966zm-1.785-22.963 6.195 1.995-5.146 4.48h-4.69z"/><path d="m1010.786 319.983 3.78-4.516c2.415 1.926 5.11 2.94 7.945 2.94 1.82 0 2.801-.63 2.801-1.68v-.07c0-1.016-.806-1.575-4.131-2.346-5.216-1.189-9.241-2.66-9.241-7.7v-.07c0-4.551 3.605-7.841 9.486-7.841 4.166 0 7.421 1.12 10.081 3.255l-3.396 4.796c-2.24-1.575-4.69-2.415-6.86-2.415-1.646 0-2.45.7-2.45 1.575v.07c0 1.12.84 1.609 4.235 2.38 5.636 1.225 9.136 3.045 9.136 7.631v.07c0 5.005-3.955 7.98-9.906 7.98-4.339.002-8.47-1.363-11.48-4.059z"/><path d="m1045.296 299.121h6.825v24.503h-6.825z"/><path d="m1056.601 299.121h6.336l10.081 12.951v-12.951h6.721v24.503h-5.95l-10.467-13.441v13.441h-6.721z"/><path d="m1090.062 305.072h-7.352v-5.951h21.492v5.951h-7.351v18.552h-6.79v-18.552z"/><path d="m1107.175 299.121h19.707v5.775h-12.986v3.711h11.762v5.355h-11.762v3.886h13.162v5.775h-19.883z"/><path d="m1130.519 299.121h6.336l10.081 12.951v-12.951h6.721v24.503h-5.95l-10.467-13.441v13.441h-6.721z"/><path d="m1156.139 319.983 3.78-4.516c2.415 1.926 5.11 2.94 7.945 2.94 1.82 0 2.801-.63 2.801-1.68v-.07c0-1.016-.806-1.575-4.131-2.346-5.216-1.189-9.241-2.66-9.241-7.7v-.07c0-4.551 3.605-7.841 9.486-7.841 4.165 0 7.421 1.12 10.081 3.255l-3.396 4.796c-2.24-1.575-4.69-2.415-6.86-2.415-1.646 0-2.45.7-2.45 1.575v.07c0 1.12.84 1.609 4.235 2.38 5.636 1.225 9.136 3.045 9.136 7.631v.07c0 5.005-3.955 7.98-9.906 7.98-4.34.002-8.47-1.363-11.48-4.059z"/><path d="m1179.974 311.442v-.07c0-7.035 5.671-12.741 13.231-12.741s13.161 5.636 13.161 12.672v.069c0 7.036-5.67 12.742-13.231 12.742s-13.161-5.635-13.161-12.672zm19.462 0v-.07c0-3.535-2.555-6.615-6.301-6.615-3.71 0-6.195 3.011-6.195 6.546v.069c0 3.536 2.556 6.616 6.266 6.616 3.744 0 6.23-3.01 6.23-6.546z"/><path d="m1208.182 316.798h6.931v6.826h-6.931z"/><path d="m1246.433 18.839 2.729-3.27c1.89 1.56 3.87 2.55 6.27 2.55 1.891 0 3.03-.75 3.03-1.98v-.06c0-1.17-.72-1.77-4.229-2.67-4.23-1.08-6.96-2.25-6.96-6.419v-.06c0-3.81 3.06-6.33 7.35-6.33 3.06 0 5.67.96 7.8 2.67l-2.4 3.48c-1.859-1.29-3.689-2.07-5.46-2.07-1.77 0-2.699.81-2.699 1.83v.06c0 1.38.899 1.83 4.529 2.76 4.26 1.11 6.66 2.64 6.66 6.3v.06c0 4.17-3.18 6.51-7.71 6.51-3.181-.001-6.391-1.111-8.91-3.361z"/><path d="m1266.473 16.229v-10.409h4.56v8.969c0 2.16 1.02 3.27 2.76 3.27s2.85-1.11 2.85-3.27v-8.969h4.561v16.079h-4.561v-2.28c-1.05 1.35-2.399 2.58-4.709 2.58-3.451 0-5.461-2.28-5.461-5.97z"/><path d="m1293.501 13.949v-.06c0-4.59 3.511-8.37 8.43-8.37 3.03 0 4.92 1.02 6.42 2.7l-2.79 3c-1.02-1.08-2.039-1.77-3.659-1.77-2.28 0-3.9 2.01-3.9 4.38v.06c0 2.46 1.59 4.44 4.08 4.44 1.53 0 2.58-.66 3.689-1.71l2.67 2.7c-1.56 1.71-3.359 2.94-6.569 2.94-4.831 0-8.371-3.72-8.371-8.31z" fill="#fff"/><path d="m1311.411 5.82h4.56v3.24c.931-2.22 2.431-3.66 5.13-3.54v4.77h-.239c-3.03 0-4.891 1.83-4.891 5.669v5.94h-4.56z" fill="#fff"/><path d="m1323.831 16.229v-10.409h4.561v8.969c0 2.16 1.02 3.27 2.76 3.27 1.739 0 2.85-1.11 2.85-3.27v-8.969h4.56v16.079h-4.56v-2.28c-1.05 1.35-2.4 2.58-4.71 2.58-3.451 0-5.461-2.28-5.461-5.97z" fill="#fff"/><path d="m1340.271 26.609v-3.57c.36.061.63.09.96.09.96 0 1.62-.51 1.62-1.859v-15.45h4.56v15.809c0 3.54-1.8 5.16-5.159 5.16-.841 0-1.351-.06-1.981-.18zm2.46-26.609h4.8v4.05h-4.8z" fill="#fff"/><path d="m1351.79 0h4.8v4.05h-4.8zm.12 5.82h4.56v16.079h-4.56z" fill="#fff"/><path d="m1359.981 13.949v-.06c0-4.59 3.27-8.37 7.949-8.37 5.37 0 7.83 4.17 7.83 8.729 0 .36-.03.78-.06 1.2h-11.19c.45 2.07 1.891 3.15 3.931 3.15 1.529 0 2.64-.48 3.899-1.65l2.61 2.31c-1.5 1.86-3.66 3-6.57 3-4.83.001-8.399-3.389-8.399-8.309zm11.339-1.35c-.271-2.04-1.471-3.42-3.391-3.42-1.89 0-3.119 1.35-3.479 3.42z" fill="#fff"/><path d="m1379.151 5.82h4.56v2.28c1.05-1.35 2.399-2.58 4.71-2.58 3.449 0 5.46 2.28 5.46 5.97v10.41h-4.561v-8.97c0-2.16-1.02-3.27-2.76-3.27s-2.85 1.11-2.85 3.27v8.97h-4.56v-16.08z" fill="#fff"/><path d="m1398.59 17.339v-7.62h-1.92v-3.899h1.92v-4.11h4.56v4.11h3.78v3.899h-3.78v6.87c0 1.05.45 1.56 1.47 1.56.84 0 1.59-.21 2.25-.57v3.66c-.96.57-2.069.93-3.6.93-2.79-.001-4.68-1.11-4.68-4.83z" fill="#fff"/><path d="m1409.063 13.949v-.06c0-4.59 3.271-8.37 7.95-8.37 5.369 0 7.829 4.17 7.829 8.729 0 .36-.029.78-.06 1.2h-11.189c.449 2.07 1.89 3.15 3.93 3.15 1.53 0 2.64-.48 3.899-1.65l2.61 2.31c-1.5 1.86-3.66 3-6.57 3-4.829.001-8.399-3.389-8.399-8.309zm11.339-1.35c-.271-2.04-1.47-3.42-3.39-3.42-1.891 0-3.12 1.35-3.48 3.42z" fill="#fff"/><path d="m1437.983 17.339v-7.62h-1.92v-3.899h1.92v-4.11h4.56v4.11h3.78v3.899h-3.78v6.87c0 1.05.45 1.56 1.47 1.56.84 0 1.59-.21 2.25-.57v3.66c-.96.57-2.069.93-3.6.93-2.791-.001-4.68-1.11-4.68-4.83z"/><path d="m1448.455 13.949v-.06c0-4.59 3.271-8.37 7.95-8.37 5.369 0 7.829 4.17 7.829 8.729 0 .36-.029.78-.06 1.2h-11.189c.449 2.07 1.89 3.15 3.93 3.15 1.53 0 2.64-.48 3.899-1.65l2.61 2.31c-1.5 1.86-3.66 3-6.57 3-4.828.001-8.399-3.389-8.399-8.309zm11.34-1.35c-.271-2.04-1.47-3.42-3.39-3.42-1.891 0-3.12 1.35-3.48 3.42z"/><path d="m1471.014 13.739-5.43-7.919h4.89l3 4.68 3.029-4.68h4.77l-5.43 7.83 5.67 8.25h-4.89l-3.24-5.01-3.239 5.01h-4.77z"/><path d="m1484.994 17.339v-7.62h-1.92v-3.899h1.92v-4.11h4.56v4.11h3.78v3.899h-3.78v6.87c0 1.05.45 1.56 1.47 1.56.84 0 1.59-.21 2.25-.57v3.66c-.96.57-2.069.93-3.6.93-2.79-.001-4.68-1.11-4.68-4.83z"/><path d="m1496.574 16.229v-10.409h4.56v8.969c0 2.16 1.021 3.27 2.76 3.27 1.74 0 2.851-1.11 2.851-3.27v-8.969h4.56v16.079h-4.56v-2.28c-1.05 1.35-2.4 2.58-4.71 2.58-3.451 0-5.461-2.28-5.461-5.97z"/><path d="m1515.384 5.82h4.56v3.24c.93-2.22 2.43-3.66 5.13-3.54v4.77h-.24c-3.029 0-4.89 1.83-4.89 5.669v5.94h-4.56z"/><path d="m1526.217 17.279v-.06c0-3.51 2.67-5.13 6.479-5.13 1.62 0 2.79.27 3.93.66v-.27c0-1.89-1.17-2.94-3.449-2.94-1.74 0-2.971.33-4.44.87l-1.14-3.479c1.77-.78 3.51-1.29 6.239-1.29 2.49 0 4.29.66 5.431 1.8 1.199 1.2 1.739 2.97 1.739 5.13v9.33h-4.409v-1.74c-1.11 1.23-2.641 2.04-4.86 2.04-3.03-.001-5.52-1.741-5.52-4.921zm10.47-1.05v-.81c-.78-.36-1.8-.6-2.91-.6-1.95 0-3.149.78-3.149 2.22v.06c0 1.23 1.02 1.95 2.489 1.95 2.129 0 3.57-1.17 3.57-2.82z"/><path d="m1202.228 35.82h4.56v3.239c.93-2.22 2.43-3.659 5.13-3.539v4.77h-.24c-3.03 0-4.89 1.83-4.89 5.67v5.939h-4.56z"/><path d="m1213.54 43.95v-.061c0-4.59 3.271-8.369 7.95-8.369 5.37 0 7.83 4.169 7.83 8.729 0 .359-.03.779-.061 1.199h-11.189c.45 2.07 1.89 3.15 3.93 3.15 1.53 0 2.64-.48 3.9-1.65l2.609 2.311c-1.5 1.859-3.66 3-6.569 3-4.83 0-8.4-3.39-8.4-8.309zm11.34-1.351c-.27-2.04-1.47-3.42-3.39-3.42-1.89 0-3.12 1.351-3.479 3.42z"/><path d="m1231.45 49.769 1.95-3c1.739 1.26 3.569 1.92 5.069 1.92 1.32 0 1.92-.479 1.92-1.2v-.06c0-.99-1.56-1.32-3.33-1.86-2.25-.659-4.8-1.71-4.8-4.829v-.061c0-3.27 2.641-5.1 5.88-5.1 2.04 0 4.26.69 6 1.86l-1.74 3.149c-1.59-.93-3.18-1.5-4.35-1.5-1.11 0-1.68.48-1.68 1.11v.06c0 .9 1.529 1.32 3.27 1.92 2.25.75 4.86 1.83 4.86 4.77v.061c0 3.569-2.67 5.189-6.15 5.189-2.249.001-4.769-.749-6.899-2.429z"/><path d="m1246.811 47.279v-.06c0-3.51 2.67-5.13 6.479-5.13 1.62 0 2.79.27 3.93.66v-.271c0-1.89-1.17-2.939-3.45-2.939-1.739 0-2.97.33-4.439.87l-1.14-3.48c1.77-.779 3.51-1.29 6.239-1.29 2.49 0 4.29.66 5.43 1.801 1.2 1.199 1.74 2.97 1.74 5.129v9.33h-4.41v-1.74c-1.109 1.23-2.64 2.04-4.859 2.04-3.031 0-5.52-1.74-5.52-4.92zm10.468-1.05v-.81c-.779-.36-1.8-.601-2.909-.601-1.95 0-3.15.78-3.15 2.221v.06c0 1.229 1.021 1.95 2.49 1.95 2.13 0 3.569-1.17 3.569-2.82z"/><path d="m1265.74 30h4.56v21.899h-4.56z"/><path d="m1275.34 47.339v-7.62h-1.92v-3.899h1.92v-4.11h4.56v4.11h3.779v3.899h-3.779v6.87c0 1.05.45 1.56 1.47 1.56.84 0 1.59-.21 2.25-.57v3.66c-.96.57-2.07.93-3.6.93-2.79-.001-4.68-1.11-4.68-4.83z"/><path d="m1286.079 47.279v-.06c0-3.51 2.67-5.13 6.479-5.13 1.62 0 2.79.27 3.931.66v-.271c0-1.89-1.17-2.939-3.45-2.939-1.74 0-2.97.33-4.439.87l-1.141-3.48c1.771-.779 3.51-1.29 6.24-1.29 2.489 0 4.289.66 5.43 1.801 1.2 1.199 1.739 2.97 1.739 5.129v9.33h-4.409v-1.74c-1.11 1.23-2.64 2.04-4.86 2.04-3.03 0-5.52-1.74-5.52-4.92zm10.47-1.05v-.81c-.78-.36-1.8-.601-2.91-.601-1.949 0-3.149.78-3.149 2.221v.06c0 1.229 1.02 1.95 2.489 1.95 2.13 0 3.57-1.17 3.57-2.82z"/><path d="m1314.549 47.339v-7.62h-1.92v-3.899h1.92v-4.11h4.56v4.11h3.78v3.899h-3.78v6.87c0 1.05.45 1.56 1.471 1.56.84 0 1.59-.21 2.249-.57v3.66c-.96.57-2.069.93-3.6.93-2.79-.001-4.68-1.11-4.68-4.83z"/><path d="m1325.022 43.95v-.061c0-4.62 3.721-8.369 8.73-8.369 4.979 0 8.669 3.689 8.669 8.31v.06c0 4.62-3.72 8.37-8.729 8.37-4.98-.001-8.67-3.691-8.67-8.31zm12.9 0v-.061c0-2.37-1.71-4.439-4.23-4.439-2.609 0-4.17 2.01-4.17 4.38v.06c0 2.37 1.71 4.439 4.23 4.439 2.609 0 4.17-2.01 4.17-4.379z"/><path d="m1345.001 43.889v-.06c0-5.37 3.51-8.31 7.32-8.31 2.43 0 3.93 1.109 5.01 2.399v-7.918h4.56v21.899h-4.56v-2.31c-1.11 1.5-2.64 2.609-5.01 2.609-3.75.001-7.32-2.939-7.32-8.309zm12.39 0v-.06c0-2.67-1.77-4.44-3.899-4.44s-3.93 1.74-3.93 4.44v.06c0 2.67 1.8 4.439 3.93 4.439s3.899-1.769 3.899-4.439z"/><path d="m1365.192 43.95v-.061c0-4.62 3.72-8.369 8.729-8.369 4.979 0 8.67 3.689 8.67 8.31v.06c0 4.62-3.72 8.37-8.729 8.37-4.981-.001-8.67-3.691-8.67-8.31zm12.899 0v-.061c0-2.37-1.71-4.439-4.229-4.439-2.61 0-4.17 2.01-4.17 4.38v.06c0 2.37 1.71 4.439 4.229 4.439 2.61 0 4.17-2.01 4.17-4.379z"/><path d="m1384.631 49.769 1.95-3c1.739 1.26 3.569 1.92 5.069 1.92 1.32 0 1.92-.479 1.92-1.2v-.06c0-.99-1.56-1.32-3.33-1.86-2.25-.659-4.8-1.71-4.8-4.829v-.061c0-3.27 2.641-5.1 5.88-5.1 2.04 0 4.26.69 6 1.86l-1.74 3.149c-1.59-.93-3.18-1.5-4.35-1.5-1.11 0-1.68.48-1.68 1.11v.06c0 .9 1.529 1.32 3.27 1.92 2.25.75 4.86 1.83 4.86 4.77v.061c0 3.569-2.67 5.189-6.15 5.189-2.25.001-4.769-.749-6.899-2.429z"/><path d="m1410.16 30h4.56v21.899h-4.56z"/><path d="m1418.23 43.95v-.061c0-4.62 3.72-8.369 8.729-8.369 4.98 0 8.67 3.689 8.67 8.31v.06c0 4.62-3.72 8.37-8.729 8.37-4.98-.001-8.67-3.691-8.67-8.31zm12.899 0v-.061c0-2.37-1.71-4.439-4.229-4.439-2.61 0-4.17 2.01-4.17 4.38v.06c0 2.37 1.71 4.439 4.229 4.439 2.61 0 4.17-2.01 4.17-4.379z"/><path d="m1437.67 49.769 1.949-3c1.74 1.26 3.57 1.92 5.07 1.92 1.319 0 1.92-.479 1.92-1.2v-.06c0-.99-1.56-1.32-3.33-1.86-2.25-.659-4.8-1.71-4.8-4.829v-.061c0-3.27 2.64-5.1 5.88-5.1 2.04 0 4.26.69 6 1.86l-1.74 3.149c-1.59-.93-3.18-1.5-4.35-1.5-1.11 0-1.68.48-1.68 1.11v.06c0 .9 1.529 1.32 3.27 1.92 2.25.75 4.859 1.83 4.859 4.77v.061c0 3.569-2.67 5.189-6.149 5.189-2.25.001-4.769-.749-6.899-2.429z"/><path d="m1461.73 49.769 1.949-3c1.74 1.26 3.57 1.92 5.07 1.92 1.32 0 1.92-.479 1.92-1.2v-.06c0-.99-1.561-1.32-3.33-1.86-2.25-.659-4.8-1.71-4.8-4.829v-.061c0-3.27 2.64-5.1 5.88-5.1 2.04 0 4.26.69 6 1.86l-1.74 3.149c-1.59-.93-3.18-1.5-4.35-1.5-1.11 0-1.68.48-1.68 1.11v.06c0 .9 1.529 1.32 3.27 1.92 2.25.75 4.859 1.83 4.859 4.77v.061c0 3.569-2.67 5.189-6.149 5.189-2.25.001-4.77-.749-6.899-2.429z"/><path d="m1477.09 47.279v-.06c0-3.51 2.67-5.13 6.479-5.13 1.62 0 2.79.27 3.93.66v-.271c0-1.89-1.17-2.939-3.449-2.939-1.74 0-2.971.33-4.44.87l-1.14-3.48c1.77-.779 3.51-1.29 6.239-1.29 2.49 0 4.29.66 5.431 1.801 1.199 1.199 1.739 2.97 1.739 5.129v9.33h-4.409v-1.74c-1.11 1.23-2.641 2.04-4.86 2.04-3.03 0-5.52-1.74-5.52-4.92zm10.47-1.05v-.81c-.78-.36-1.8-.601-2.91-.601-1.95 0-3.149.78-3.149 2.221v.06c0 1.229 1.02 1.95 2.489 1.95 2.129 0 3.57-1.17 3.57-2.82z"/><path d="m1500.369 49.799v2.1h-4.56v-21.899h4.56v8.13c1.11-1.5 2.64-2.609 5.01-2.609 3.75 0 7.32 2.939 7.32 8.31v.06c0 5.37-3.511 8.31-7.32 8.31-2.43-.002-3.93-1.112-5.01-2.402zm7.77-5.91v-.06c0-2.67-1.8-4.44-3.93-4.44s-3.899 1.771-3.899 4.44v.06c0 2.67 1.77 4.439 3.899 4.439s3.93-1.739 3.93-4.439z"/><path d="m1515.278 43.95v-.061c0-4.62 3.72-8.369 8.729-8.369 4.98 0 8.67 3.689 8.67 8.31v.06c0 4.62-3.72 8.37-8.729 8.37-4.979-.001-8.67-3.691-8.67-8.31zm12.9 0v-.061c0-2.37-1.71-4.439-4.229-4.439-2.61 0-4.17 2.01-4.17 4.38v.06c0 2.37 1.71 4.439 4.229 4.439 2.61 0 4.17-2.01 4.17-4.379z"/><path d="m1535.979 35.82h4.56v3.239c.93-2.22 2.43-3.659 5.13-3.539v4.77h-.24c-3.029 0-4.89 1.83-4.89 5.67v5.939h-4.56z"/><path d="m1547.291 43.95v-.061c0-4.59 3.271-8.369 7.95-8.369 5.369 0 7.829 4.169 7.829 8.729 0 .359-.029.779-.06 1.199h-11.189c.449 2.07 1.89 3.15 3.93 3.15 1.53 0 2.64-.48 3.899-1.65l2.61 2.311c-1.5 1.859-3.66 3-6.57 3-4.829 0-8.399-3.39-8.399-8.309zm11.34-1.351c-.271-2.04-1.47-3.42-3.39-3.42-1.891 0-3.12 1.351-3.48 3.42z"/><path d="m1565.201 49.769 1.949-3c1.74 1.26 3.57 1.92 5.07 1.92 1.319 0 1.92-.479 1.92-1.2v-.06c0-.99-1.56-1.32-3.33-1.86-2.25-.659-4.8-1.71-4.8-4.829v-.061c0-3.27 2.64-5.1 5.88-5.1 2.04 0 4.26.69 6 1.86l-1.74 3.149c-1.59-.93-3.18-1.5-4.35-1.5-1.11 0-1.68.48-1.68 1.11v.06c0 .9 1.529 1.32 3.27 1.92 2.25.75 4.859 1.83 4.859 4.77v.061c0 3.569-2.67 5.189-6.149 5.189-2.249.001-4.769-.749-6.899-2.429z"/><path d="m1580.262 54.869c2.069-.21 3.09-1.26 2.939-2.97h-1.859v-4.8h4.859v4.05c0 3.96-1.979 5.55-5.55 5.609z"/><path d="m1228.856 73.95v-.061c0-4.59 3.51-8.369 8.43-8.369 3.03 0 4.92 1.02 6.42 2.699l-2.79 3c-1.021-1.08-2.04-1.77-3.66-1.77-2.279 0-3.899 2.01-3.899 4.38v.06c0 2.46 1.59 4.439 4.08 4.439 1.529 0 2.579-.659 3.689-1.709l2.67 2.699c-1.56 1.71-3.36 2.94-6.57 2.94-4.83.001-8.37-3.718-8.37-8.308z"/><path d="m1246.766 65.82h4.56v3.239c.93-2.22 2.43-3.659 5.13-3.539v4.77h-.24c-3.03 0-4.89 1.83-4.89 5.67v5.939h-4.56z"/><path d="m1258.078 73.95v-.061c0-4.59 3.271-8.369 7.95-8.369 5.37 0 7.83 4.169 7.83 8.729 0 .359-.03.779-.061 1.199h-11.189c.45 2.07 1.89 3.15 3.93 3.15 1.53 0 2.64-.48 3.9-1.65l2.609 2.311c-1.5 1.859-3.66 3-6.569 3-4.829 0-8.4-3.39-8.4-8.309zm11.34-1.351c-.27-2.04-1.47-3.42-3.39-3.42-1.89 0-3.12 1.351-3.479 3.42z"/><path d="m1276.288 77.279v-.06c0-3.51 2.67-5.13 6.479-5.13 1.62 0 2.79.27 3.931.66v-.271c0-1.89-1.17-2.939-3.45-2.939-1.74 0-2.97.33-4.439.87l-1.141-3.48c1.771-.779 3.51-1.29 6.24-1.29 2.489 0 4.289.66 5.43 1.801 1.2 1.199 1.739 2.97 1.739 5.129v9.33h-4.409v-1.74c-1.11 1.23-2.64 2.04-4.86 2.04-3.03 0-5.52-1.74-5.52-4.92zm10.47-1.05v-.81c-.78-.36-1.8-.601-2.91-.601-1.949 0-3.149.78-3.149 2.221v.06c0 1.229 1.02 1.95 2.489 1.95 2.13 0 3.57-1.17 3.57-2.82z"/><path d="m1295.008 65.82h4.56v2.279c1.051-1.35 2.4-2.579 4.71-2.579 3.45 0 5.46 2.279 5.46 5.97v10.409h-4.56v-8.97c0-2.16-1.021-3.27-2.76-3.27-1.74 0-2.851 1.109-2.851 3.27v8.97h-4.56v-16.079z"/><path d="m1312.978 73.889v-.06c0-5.37 3.51-8.31 7.32-8.31 2.43 0 3.93 1.109 5.01 2.399v-7.918h4.56v21.899h-4.56v-2.31c-1.11 1.5-2.64 2.609-5.01 2.609-3.75.001-7.32-2.939-7.32-8.309zm12.389 0v-.06c0-2.67-1.77-4.44-3.899-4.44s-3.93 1.74-3.93 4.44v.06c0 2.67 1.8 4.439 3.93 4.439s3.899-1.769 3.899-4.439z"/><path d="m1333.167 73.95v-.061c0-4.62 3.721-8.369 8.73-8.369 4.979 0 8.669 3.689 8.669 8.31v.06c0 4.62-3.72 8.37-8.729 8.37-4.979-.001-8.67-3.691-8.67-8.31zm12.901 0v-.061c0-2.37-1.71-4.439-4.23-4.439-2.609 0-4.17 2.01-4.17 4.38v.06c0 2.37 1.71 4.439 4.23 4.439 2.609 0 4.17-2.01 4.17-4.379z"/><path d="m1362.747 76.229v-10.409h4.56v8.97c0 2.159 1.02 3.27 2.76 3.27s2.85-1.11 2.85-3.27v-8.97h4.561v16.079h-4.561v-2.28c-1.05 1.351-2.399 2.58-4.709 2.58-3.451 0-5.461-2.28-5.461-5.97z"/><path d="m1381.557 65.82h4.56v2.279c1.05-1.35 2.399-2.579 4.71-2.579 3.449 0 5.46 2.279 5.46 5.97v10.409h-4.561v-8.97c0-2.16-1.02-3.27-2.76-3.27s-2.85 1.109-2.85 3.27v8.97h-4.56v-16.079z"/><path d="m1399.286 77.279v-.06c0-3.51 2.67-5.13 6.479-5.13 1.62 0 2.79.27 3.93.66v-.271c0-1.89-1.17-2.939-3.449-2.939-1.74 0-2.971.33-4.44.87l-1.14-3.48c1.77-.779 3.51-1.29 6.239-1.29 2.49 0 4.29.66 5.431 1.801 1.199 1.199 1.739 2.97 1.739 5.129v9.33h-4.409v-1.74c-1.11 1.23-2.641 2.04-4.86 2.04-3.03 0-5.52-1.74-5.52-4.92zm10.47-1.05v-.81c-.78-.36-1.8-.601-2.91-.601-1.95 0-3.149.78-3.149 2.221v.06c0 1.229 1.02 1.95 2.489 1.95 2.13 0 3.57-1.17 3.57-2.82z"/><path d="m1426.286 73.889v-.06c0-5.37 3.51-8.31 7.319-8.31 2.43 0 3.93 1.109 5.01 2.399v-7.918h4.56v21.899h-4.56v-2.31c-1.11 1.5-2.64 2.609-5.01 2.609-3.749.001-7.319-2.939-7.319-8.309zm12.389 0v-.06c0-2.67-1.77-4.44-3.899-4.44s-3.93 1.74-3.93 4.44v.06c0 2.67 1.8 4.439 3.93 4.439s3.899-1.769 3.899-4.439z" fill="#ffc425"/><path d="m1446.475 73.95v-.061c0-4.59 3.271-8.369 7.95-8.369 5.369 0 7.829 4.169 7.829 8.729 0 .359-.029.779-.06 1.199h-11.189c.449 2.07 1.89 3.15 3.93 3.15 1.53 0 2.64-.48 3.899-1.65l2.61 2.311c-1.5 1.859-3.66 3-6.57 3-4.829 0-8.399-3.39-8.399-8.309zm11.34-1.351c-.271-2.04-1.47-3.42-3.39-3.42-1.891 0-3.12 1.351-3.48 3.42z" fill="#ffc425"/><path d="m1465.855 60h4.56v21.899h-4.56z" fill="#ffc425"/><path d="m1474.794 60h4.8v4.05h-4.8zm.12 5.82h4.56v16.079h-4.56z" fill="#ffc425"/><path d="m1482.984 73.95v-.061c0-4.59 3.51-8.369 8.43-8.369 3.03 0 4.92 1.02 6.42 2.699l-2.79 3c-1.02-1.08-2.04-1.77-3.66-1.77-2.279 0-3.899 2.01-3.899 4.38v.06c0 2.46 1.59 4.439 4.08 4.439 1.529 0 2.58-.659 3.689-1.709l2.67 2.699c-1.56 1.71-3.359 2.94-6.569 2.94-4.831.001-8.371-3.718-8.371-8.308z" fill="#ffc425"/><path d="m1500.984 60h4.8v4.05h-4.8zm.121 5.82h4.56v16.079h-4.56z" fill="#ffc425"/><path d="m1509.174 73.95v-.061c0-4.62 3.72-8.369 8.729-8.369 4.98 0 8.67 3.689 8.67 8.31v.06c0 4.62-3.72 8.37-8.729 8.37-4.98-.001-8.67-3.691-8.67-8.31zm12.899 0v-.061c0-2.37-1.71-4.439-4.229-4.439-2.61 0-4.17 2.01-4.17 4.38v.06c0 2.37 1.71 4.439 4.229 4.439 2.611 0 4.17-2.01 4.17-4.379z" fill="#ffc425"/><path d="m1528.613 79.769 1.949-3c1.74 1.26 3.57 1.92 5.07 1.92 1.319 0 1.92-.479 1.92-1.2v-.06c0-.99-1.56-1.32-3.33-1.86-2.25-.659-4.8-1.71-4.8-4.829v-.061c0-3.27 2.64-5.1 5.88-5.1 2.04 0 4.26.69 6 1.86l-1.74 3.149c-1.59-.93-3.18-1.5-4.35-1.5-1.11 0-1.68.48-1.68 1.11v.06c0 .9 1.529 1.32 3.27 1.92 2.25.75 4.859 1.83 4.859 4.77v.061c0 3.569-2.67 5.189-6.149 5.189-2.249.001-4.769-.749-6.899-2.429z" fill="#ffc425"/><path d="m1543.974 77.279v-.06c0-3.51 2.67-5.13 6.479-5.13 1.62 0 2.79.27 3.93.66v-.271c0-1.89-1.17-2.939-3.449-2.939-1.74 0-2.971.33-4.44.87l-1.14-3.48c1.77-.779 3.51-1.29 6.239-1.29 2.49 0 4.29.66 5.431 1.801 1.199 1.199 1.739 2.97 1.739 5.129v9.33h-4.409v-1.74c-1.11 1.23-2.641 2.04-4.86 2.04-3.03 0-5.52-1.74-5.52-4.92zm10.469-1.05v-.81c-.78-.36-1.8-.601-2.91-.601-1.95 0-3.149.78-3.149 2.221v.06c0 1.229 1.02 1.95 2.489 1.95 2.13 0 3.57-1.17 3.57-2.82z" fill="#ffc425"/><path d="m1204.151 103.95v-.061c0-4.59 3.271-8.369 7.95-8.369 5.37 0 7.83 4.169 7.83 8.729 0 .359-.03.779-.061 1.199h-11.189c.45 2.07 1.89 3.15 3.93 3.15 1.53 0 2.64-.48 3.9-1.65l2.609 2.311c-1.5 1.859-3.66 3-6.569 3-4.83 0-8.4-3.39-8.4-8.309zm11.339-1.351c-.27-2.04-1.47-3.42-3.39-3.42-1.89 0-3.12 1.351-3.479 3.42z"/><path d="m1226.709 103.739-5.43-7.919h4.89l3 4.68 3.03-4.68h4.77l-5.43 7.829 5.67 8.25h-4.89l-3.24-5.01-3.239 5.01h-4.771z"/><path d="m1239.94 95.82h4.56v2.31c1.11-1.5 2.641-2.609 5.01-2.609 3.75 0 7.32 2.939 7.32 8.31v.06c0 5.37-3.51 8.31-7.32 8.31-2.43 0-3.93-1.109-5.01-2.399v6.899h-4.56zm12.33 8.069v-.06c0-2.67-1.801-4.44-3.931-4.44s-3.899 1.771-3.899 4.44v.06c0 2.67 1.77 4.439 3.899 4.439s3.931-1.739 3.931-4.439z"/><path d="m1259.409 103.95v-.061c0-4.59 3.27-8.369 7.949-8.369 5.37 0 7.83 4.169 7.83 8.729 0 .359-.03.779-.06 1.199h-11.19c.45 2.07 1.891 3.15 3.931 3.15 1.529 0 2.64-.48 3.899-1.65l2.61 2.311c-1.5 1.859-3.66 3-6.57 3-4.829 0-8.399-3.39-8.399-8.309zm11.34-1.351c-.271-2.04-1.471-3.42-3.391-3.42-1.89 0-3.119 1.351-3.479 3.42z"/><path d="m1278.579 95.82h4.56v3.239c.931-2.22 2.431-3.659 5.13-3.539v4.77h-.239c-3.03 0-4.891 1.83-4.891 5.67v5.939h-4.56z"/><path d="m1291.209 90h4.8v4.05h-4.8zm.12 5.82h4.56v16.079h-4.56z"/><path d="m1299.399 103.95v-.061c0-4.59 3.27-8.369 7.949-8.369 5.37 0 7.83 4.169 7.83 8.729 0 .359-.03.779-.06 1.199h-11.19c.45 2.07 1.891 3.15 3.931 3.15 1.529 0 2.64-.48 3.899-1.65l2.61 2.311c-1.5 1.859-3.66 3-6.57 3-4.83 0-8.399-3.39-8.399-8.309zm11.339-1.351c-.271-2.04-1.471-3.42-3.391-3.42-1.89 0-3.119 1.351-3.479 3.42z"/><path d="m1318.568 95.82h4.56v2.279c1.051-1.35 2.4-2.579 4.71-2.579 3.45 0 5.46 2.279 5.46 5.97v10.409h-4.56v-8.97c0-2.16-1.021-3.27-2.76-3.27-1.74 0-2.851 1.109-2.851 3.27v8.97h-4.56v-16.079z"/><path d="m1336.478 103.95v-.061c0-4.59 3.511-8.369 8.43-8.369 3.03 0 4.92 1.02 6.42 2.699l-2.79 3c-1.02-1.08-2.039-1.77-3.659-1.77-2.28 0-3.9 2.01-3.9 4.38v.06c0 2.46 1.59 4.439 4.08 4.439 1.53 0 2.58-.659 3.689-1.709l2.67 2.699c-1.56 1.71-3.359 2.94-6.569 2.94-4.831.001-8.371-3.718-8.371-8.308z"/><path d="m1354.478 90h4.8v4.05h-4.8zm.12 5.82h4.56v16.079h-4.56z"/><path d="m1362.487 107.279v-.06c0-3.51 2.67-5.13 6.479-5.13 1.62 0 2.79.27 3.931.66v-.271c0-1.89-1.17-2.939-3.45-2.939-1.74 0-2.97.33-4.439.87l-1.141-3.48c1.771-.779 3.51-1.29 6.24-1.29 2.489 0 4.289.66 5.43 1.801 1.2 1.199 1.739 2.97 1.739 5.129v9.33h-4.409v-1.74c-1.11 1.23-2.64 2.04-4.86 2.04-3.029 0-5.52-1.74-5.52-4.92zm10.47-1.05v-.81c-.78-.36-1.8-.601-2.91-.601-1.949 0-3.149.78-3.149 2.221v.06c0 1.229 1.02 1.95 2.489 1.95 2.13 0 3.57-1.17 3.57-2.82z"/><path d="m1401.818 109.589c-1.11 1.5-2.641 2.609-5.011 2.609-3.75 0-7.319-2.939-7.319-8.31v-.06c0-5.37 3.51-8.31 7.319-8.31 2.431 0 3.931 1.109 5.011 2.399v-2.1h4.56v20.879h-4.56zm.059-5.7v-.06c0-2.67-1.77-4.44-3.9-4.44s-3.93 1.74-3.93 4.44v.06c0 2.67 1.8 4.439 3.93 4.439 2.131.001 3.9-1.769 3.9-4.439z"/><path d="m1410.337 106.229v-10.409h4.56v8.97c0 2.159 1.021 3.27 2.76 3.27 1.74 0 2.851-1.11 2.851-3.27v-8.97h4.56v16.079h-4.56v-2.28c-1.051 1.351-2.4 2.58-4.71 2.58-3.451 0-5.461-2.28-5.461-5.97z"/><path d="m1428.366 103.95v-.061c0-4.59 3.271-8.369 7.95-8.369 5.369 0 7.829 4.169 7.829 8.729 0 .359-.029.779-.06 1.199h-11.189c.45 2.07 1.89 3.15 3.93 3.15 1.53 0 2.64-.48 3.899-1.65l2.61 2.311c-1.5 1.859-3.66 3-6.57 3-4.828 0-8.399-3.39-8.399-8.309zm11.34-1.351c-.271-2.04-1.47-3.42-3.39-3.42-1.891 0-3.12 1.351-3.48 3.42z"/><path d="m1455.756 103.95v-.061c0-4.59 3.51-8.369 8.43-8.369 3.03 0 4.92 1.02 6.42 2.699l-2.79 3c-1.02-1.08-2.04-1.77-3.66-1.77-2.279 0-3.899 2.01-3.899 4.38v.06c0 2.46 1.59 4.439 4.08 4.439 1.529 0 2.58-.659 3.689-1.709l2.67 2.699c-1.56 1.71-3.359 2.94-6.569 2.94-4.831.001-8.371-3.718-8.371-8.308z"/><path d="m1472.439 103.95v-.061c0-4.62 3.72-8.369 8.729-8.369 4.98 0 8.67 3.689 8.67 8.31v.06c0 4.62-3.72 8.37-8.729 8.37-4.98-.001-8.67-3.691-8.67-8.31zm12.899 0v-.061c0-2.37-1.71-4.439-4.229-4.439-2.61 0-4.17 2.01-4.17 4.38v.06c0 2.37 1.71 4.439 4.229 4.439 2.61 0 4.17-2.01 4.17-4.379z"/><path d="m1493.139 95.82h4.56v2.279c1.05-1.35 2.43-2.579 4.74-2.579 2.1 0 3.689.93 4.529 2.55 1.41-1.65 3.09-2.55 5.28-2.55 3.39 0 5.43 2.039 5.43 5.909v10.47h-4.56v-8.97c0-2.16-.96-3.27-2.67-3.27s-2.761 1.109-2.761 3.27v8.97h-4.56v-8.97c0-2.16-.96-3.27-2.67-3.27s-2.76 1.109-2.76 3.27v8.97h-4.56v-16.079z"/><path d="m1526.198 109.799v2.1h-4.56v-21.899h4.56v8.13c1.11-1.5 2.64-2.609 5.01-2.609 3.75 0 7.32 2.939 7.32 8.31v.06c0 5.37-3.511 8.31-7.32 8.31-2.43-.002-3.93-1.112-5.01-2.402zm7.77-5.91v-.06c0-2.67-1.8-4.44-3.93-4.44s-3.899 1.771-3.899 4.44v.06c0 2.67 1.77 4.439 3.899 4.439s3.93-1.739 3.93-4.439z"/><path d="m1541.979 90h4.8v4.05h-4.8zm.12 5.82h4.56v16.079h-4.56z"/><path d="m1550.948 95.82h4.56v2.279c1.05-1.35 2.4-2.579 4.71-2.579 3.45 0 5.46 2.279 5.46 5.97v10.409h-4.56v-8.97c0-2.16-1.021-3.27-2.761-3.27-1.739 0-2.85 1.109-2.85 3.27v8.97h-4.56v-16.079z"/><path d="m1568.678 107.279v-.06c0-3.51 2.67-5.13 6.479-5.13 1.62 0 2.79.27 3.93.66v-.271c0-1.89-1.17-2.939-3.449-2.939-1.74 0-2.971.33-4.44.87l-1.14-3.48c1.77-.779 3.51-1.29 6.239-1.29 2.49 0 4.29.66 5.431 1.801 1.199 1.199 1.739 2.97 1.739 5.129v9.33h-4.409v-1.74c-1.11 1.23-2.641 2.04-4.86 2.04-3.03 0-5.52-1.74-5.52-4.92zm10.47-1.05v-.81c-.78-.36-1.8-.601-2.91-.601-1.95 0-3.149.78-3.149 2.221v.06c0 1.229 1.02 1.95 2.489 1.95 2.129 0 3.57-1.17 3.57-2.82z"/><path d="m1211.004 133.95v-.061c0-4.59 3.51-8.369 8.43-8.369 3.03 0 4.92 1.02 6.42 2.699l-2.79 3c-1.021-1.08-2.04-1.77-3.66-1.77-2.279 0-3.899 2.01-3.899 4.38v.06c0 2.46 1.59 4.439 4.08 4.439 1.529 0 2.579-.659 3.689-1.709l2.67 2.699c-1.56 1.71-3.36 2.94-6.57 2.94-4.83.001-8.37-3.718-8.37-8.308z"/><path d="m1227.687 133.95v-.061c0-4.62 3.721-8.369 8.73-8.369 4.979 0 8.669 3.689 8.669 8.31v.06c0 4.62-3.72 8.37-8.729 8.37-4.98-.001-8.67-3.691-8.67-8.31zm12.9 0v-.061c0-2.37-1.71-4.439-4.23-4.439-2.609 0-4.17 2.01-4.17 4.38v.06c0 2.37 1.71 4.439 4.23 4.439 2.609 0 4.17-2.01 4.17-4.379z"/><path d="m1248.387 125.82h4.56v2.279c1.05-1.35 2.399-2.579 4.71-2.579 3.449 0 5.46 2.279 5.46 5.97v10.409h-4.561v-8.97c0-2.16-1.02-3.27-2.76-3.27s-2.85 1.109-2.85 3.27v8.97h-4.56v-16.079z"/><g fill="#fff"><path d="m1275.296 133.95v-.061c0-4.59 3.51-8.369 8.43-8.369 3.03 0 4.92 1.02 6.42 2.699l-2.79 3c-1.021-1.08-2.04-1.77-3.66-1.77-2.279 0-3.899 2.01-3.899 4.38v.06c0 2.46 1.59 4.439 4.08 4.439 1.529 0 2.579-.659 3.689-1.709l2.67 2.699c-1.56 1.71-3.36 2.94-6.57 2.94-4.83.001-8.37-3.718-8.37-8.308z"/><path d="m1293.086 136.229v-10.409h4.56v8.97c0 2.159 1.02 3.27 2.76 3.27s2.85-1.11 2.85-3.27v-8.97h4.561v16.079h-4.561v-2.28c-1.05 1.351-2.399 2.58-4.709 2.58-3.451 0-5.461-2.28-5.461-5.97z"/><path d="m1310.936 137.279v-.06c0-3.51 2.67-5.13 6.479-5.13 1.62 0 2.79.27 3.93.66v-.271c0-1.89-1.17-2.939-3.45-2.939-1.739 0-2.97.33-4.439.87l-1.14-3.48c1.77-.779 3.51-1.29 6.239-1.29 2.49 0 4.29.66 5.43 1.801 1.2 1.199 1.74 2.97 1.74 5.129v9.33h-4.41v-1.74c-1.109 1.23-2.64 2.04-4.859 2.04-3.031 0-5.52-1.74-5.52-4.92zm10.468-1.05v-.81c-.779-.36-1.8-.601-2.909-.601-1.95 0-3.15.78-3.15 2.221v.06c0 1.229 1.021 1.95 2.49 1.95 2.13 0 3.569-1.17 3.569-2.82z"/><path d="m1329.865 120h4.56v21.899h-4.56z"/><path d="m1350.324 139.589c-1.109 1.5-2.64 2.609-5.01 2.609-3.75 0-7.319-2.939-7.319-8.31v-.06c0-5.37 3.51-8.31 7.319-8.31 2.43 0 3.93 1.109 5.01 2.399v-2.1h4.561v20.879h-4.561zm.061-5.7v-.06c0-2.67-1.771-4.44-3.9-4.44s-3.93 1.74-3.93 4.44v.06c0 2.67 1.8 4.439 3.93 4.439s3.9-1.769 3.9-4.439z"/><path d="m1358.845 136.229v-10.409h4.56v8.97c0 2.159 1.02 3.27 2.76 3.27s2.85-1.11 2.85-3.27v-8.97h4.561v16.079h-4.561v-2.28c-1.05 1.351-2.399 2.58-4.709 2.58-3.451 0-5.461-2.28-5.461-5.97z"/><path d="m1377.744 120h4.8v4.05h-4.8zm.12 5.82h4.56v16.079h-4.56z"/><path d="m1385.934 133.95v-.061c0-4.59 3.27-8.369 7.949-8.369 5.37 0 7.83 4.169 7.83 8.729 0 .359-.029.779-.06 1.199h-11.19c.45 2.07 1.891 3.15 3.931 3.15 1.529 0 2.64-.48 3.899-1.65l2.61 2.311c-1.5 1.859-3.66 3-6.57 3-4.83 0-8.399-3.39-8.399-8.309zm11.34-1.351c-.271-2.04-1.471-3.42-3.391-3.42-1.89 0-3.119 1.351-3.479 3.42z"/><path d="m1405.104 125.82h4.56v3.239c.93-2.22 2.43-3.659 5.13-3.539v4.77h-.24c-3.029 0-4.89 1.83-4.89 5.67v5.939h-4.56z"/><path d="m1426.644 125.82h4.56v2.279c1.05-1.35 2.43-2.579 4.74-2.579 2.1 0 3.689.93 4.529 2.55 1.41-1.65 3.09-2.55 5.28-2.55 3.39 0 5.43 2.039 5.43 5.909v10.47h-4.56v-8.97c0-2.16-.96-3.27-2.67-3.27s-2.761 1.109-2.761 3.27v8.97h-4.56v-8.97c0-2.16-.96-3.27-2.67-3.27s-2.76 1.109-2.76 3.27v8.97h-4.56v-16.079z"/><path d="m1454.363 133.95v-.061c0-4.62 3.72-8.369 8.729-8.369 4.98 0 8.67 3.689 8.67 8.31v.06c0 4.62-3.72 8.37-8.729 8.37-4.979-.001-8.67-3.691-8.67-8.31zm12.9 0v-.061c0-2.37-1.71-4.439-4.229-4.439-2.61 0-4.17 2.01-4.17 4.38v.06c0 2.37 1.71 4.439 4.229 4.439 2.61 0 4.17-2.01 4.17-4.379z"/><path d="m1475.063 125.82h4.56v2.279c1.05-1.35 2.43-2.579 4.74-2.579 2.1 0 3.689.93 4.529 2.55 1.41-1.65 3.09-2.55 5.28-2.55 3.39 0 5.43 2.039 5.43 5.909v10.47h-4.56v-8.97c0-2.16-.96-3.27-2.67-3.27s-2.761 1.109-2.761 3.27v8.97h-4.56v-8.97c0-2.16-.96-3.27-2.67-3.27s-2.76 1.109-2.76 3.27v8.97h-4.56v-16.079z"/><path d="m1502.782 133.95v-.061c0-4.59 3.271-8.369 7.95-8.369 5.369 0 7.829 4.169 7.829 8.729 0 .359-.029.779-.06 1.199h-11.189c.45 2.07 1.89 3.15 3.93 3.15 1.53 0 2.64-.48 3.899-1.65l2.61 2.311c-1.5 1.859-3.66 3-6.57 3-4.828 0-8.399-3.39-8.399-8.309zm11.34-1.351c-.271-2.04-1.47-3.42-3.39-3.42-1.891 0-3.12 1.351-3.48 3.42z"/><path d="m1521.952 125.82h4.56v2.279c1.05-1.35 2.4-2.579 4.71-2.579 3.45 0 5.46 2.279 5.46 5.97v10.409h-4.56v-8.97c0-2.16-1.021-3.27-2.761-3.27-1.739 0-2.85 1.109-2.85 3.27v8.97h-4.56v-16.079z"/><path d="m1541.392 137.339v-7.62h-1.92v-3.899h1.92v-4.11h4.56v4.11h3.78v3.899h-3.78v6.87c0 1.05.45 1.56 1.47 1.56.84 0 1.59-.21 2.25-.57v3.66c-.96.57-2.069.93-3.6.93-2.791-.001-4.68-1.11-4.68-4.83z"/><path d="m1551.865 133.95v-.061c0-4.62 3.72-8.369 8.729-8.369 4.98 0 8.67 3.689 8.67 8.31v.06c0 4.62-3.72 8.37-8.729 8.37-4.979-.001-8.67-3.691-8.67-8.31zm12.9 0v-.061c0-2.37-1.71-4.439-4.229-4.439-2.61 0-4.17 2.01-4.17 4.38v.06c0 2.37 1.71 4.439 4.229 4.439 2.61 0 4.17-2.01 4.17-4.379z"/><path d="m1571.784 137.099h4.859v4.8h-4.859z"/></g></svg>