<svg viewBox="0 0 1242 2208" xmlns="http://www.w3.org/2000/svg"><path d="m877.505 549.395c-7.705-41.481-19.767-79.179-34.876-109.024-7.927-15.664-16.734-29.298-26.171-40.52-9.802-11.641-20.362-20.794-31.416-27.218-63.253-36.762-124.381-55.401-181.661-55.402-37.163 0-72.244 7.897-104.252 23.448-29.585 14.364-55.897 34.894-78.211 61.007-10.547 12.352-20.116 25.89-28.444 40.262-8.135 14.08-15.121 29.019-20.764 44.404-11.181 30.459-17.083 62.997-17.084 94.103 0 26.774 4.212 52.167 12.513 75.484 8.703 24.403 21.705 45.874 38.633 63.807 18.063 19.144 40.442 34.038 66.51 44.266 28.175 11.06 60.725 16.669 96.751 16.67 3.152 0 6.391-.052 9.591-.136 1.334-.035 2.61-.058 3.938-.058 31.559 0 61.259 10.124 90.792 30.95 25.306 17.853 46.446 40.642 65.087 60.739 23.139 24.954 43.128 46.512 60.829 46.512h.014c5.28 0 10.29-1.874 15.324-5.741 5.604-4.282 11.277-11.15 16.906-20.406 12.226-20.194 24.74-52.391 38.242-98.408 10.126-34.568 16.13-75.628 17.371-118.717 1.198-42.062-2.121-85.646-9.622-126.022" fill="#ffc425"/><path d="m500.858 537.741c-.117 1.705-.362 3.183-.75 4.487-.246 1.555-.556 3.068-.943 4.488-.387 1.686-.735 3.312-1.045 4.88-.311 1.555-.659 3.124-1.034 4.68-.129 1.305-.44 2.61-.956 3.9-.502 1.447-1.035 2.944-1.537 4.5-.645 1.562-1.227 3.131-1.729 4.686-.515 1.305-1.07 2.48-1.64 3.521-.591 1.051-1.343 2.22-2.26 3.524-.902 1.304-1.743 2.422-2.53 3.337-.762 1.045-1.55 2.229-2.337 3.52-.387.529-.969 1.257-1.756 2.169-.645.658-1.237 1.304-1.758 1.963v-.587c-.011-.252-.011-.46-.011-.588l-.335-34.644c-.028-3.641-.054-7.274-.089-10.909-.041-3.505 0-6.94.089-10.33.105-3.371.14-6.424.105-9.136-.014-2.595.025-4.738.14-6.437 0-1.691.102-3.054.348-4.092 0-.646.13-1.233.387-1.756 1.062.245 2.248.438 3.565.55 1.189.25 2.376.574 3.563.94 1.319.503 2.518 1.078 3.565 1.725 1.07.634 1.988 1.22 2.79 1.722.656.518 1.263 1.162 1.793 1.925.659.782 1.329 1.615 2.002 2.51.54 1.048 1.007 2.144 1.407 3.308.413 1.039.683 2.008.824 2.904.014 1.434.092 2.859.246 4.293.013 1.428.028 2.846.038 4.275.016 1.431-.038 2.988-.152 4.672m6.984-13.492c-.153-1.813-.567-3.563-1.24-5.249-.54-1.555-1.277-2.97-2.206-4.261-.8-1.291-1.615-2.453-2.401-3.48-.943-1.034-1.951-2.001-2.998-2.899-1.072-.762-2.219-1.53-3.487-2.305-1.25-.769-2.747-1.458-4.454-2.098-1.871-.762-3.717-1.195-5.55-1.309-1.318-.24-2.572-.491-3.759-.742-1.316-.24-2.517-.492-3.563-.744-.659-.123-1.201-.386-1.588-.766l-1.383-1.162c-.814-.498-1.704-.691-2.684-.55-.981.137-1.783.561-2.364 1.28-.567.723-.8 1.57-.669 2.537.139.969.618 1.782 1.404 2.421l1.202.967c.659.51 1.407.956 2.195 1.336-.272.659-.465 1.441-.581 2.343-.116 1.305-.232 2.926-.348 4.876-.116 1.814-.156 4.088-.144 6.819.04 2.595 0 5.583-.088 8.961-.119 3.37-.143 6.94-.105 10.703.025 3.641.079 7.205.105 10.711l.333 34.654c.04 4.023.141 7.659.3 10.898.167 3.112.245 6.239.283 9.343.154 2.995.321 5.778.478 8.38.154 2.582.257 4.856.271 6.804.14 1.687.153 3.312.038 4.869-.115 1.555-.181 2.917-.156 4.092l.027 3.505c.027 1.169.027 2.33.037 3.507-.115 1.29-.18 2.4-.168 3.312l.014 1.365c.014.911.373 1.71 1.124 2.418.723.707 1.551 1.062 2.466 1.056.929-.013 1.745-.376 2.468-1.107.707-.717 1.072-1.529 1.058-2.439l-.013-1.363c-.011-.782.051-1.749.167-2.919-.011-1.291-.025-2.595-.037-3.893l-.028-3.514c0-1.029.04-2.271.167-3.698.107-1.684.093-3.504-.062-5.454-.011-1.937-.105-4.211-.257-6.806-.168-2.596-.322-5.382-.479-8.367-.024-2.989-.13-5.908-.283-8.767.915-.264 1.637-.731 2.155-1.389l1.562-2.343c.905-1.305 1.886-2.479 2.931-3.531 1.174-1.305 2.053-2.486 2.634-3.525.581-1.041 1.201-1.964 1.847-2.75.905-1.046 1.845-2.253 2.828-3.628.969-1.376 1.844-2.705 2.62-4.02.645-1.294 1.292-2.798 1.936-4.483.646-1.568 1.227-3.197 1.744-4.894.632-1.555 1.213-3.066 1.729-4.487.506-1.57.956-3.194 1.342-4.88.235-1.57.532-3.087.84-4.597.313-1.485.673-3.015 1.048-4.583.375-1.55.683-3.119.943-4.676.375-1.555.655-3.31.827-5.262.178-1.95.269-3.768.243-5.455-.013-1.568-.027-3.124-.038-4.681-.156-1.42-.219-2.776-.233-4.081"/><path d="m556.83 585.897c-.259 1.57-.297 3.578-.141 6.044.013 2.079-.027 4.222-.146 6.424-.1 2.214-.215 4.352-.334 6.437.014 2.2-.026 4.21-.141 6.037.014 1.679-.027 3.306-.154 4.874-.103 1.555-.167 3.299-.143 5.249.025 1.684-.038 3.241-.143 4.681-.115 1.421-.232 2.725-.359 3.899.011 1.164-.116 2.272-.362 3.3-.129.923-.454 2.084-.956 3.518-.516 1.434-1.021 2.608-1.548 3.52-.387.523-.983 1.051-1.758 1.574-.788.66-1.717 1.118-2.75 1.39-.8.147-1.459.205-1.975.219-.53-.122-.994-.311-1.397-.576-.399-.388-.734-.781-1.003-1.161-.26-.646-.478-1.222-.594-1.751-.146-.889-.363-1.814-.621-2.714-.141-.781-.348-1.612-.621-2.537-.284-1.027-.556-2.059-.815-3.098-.296-1.038-.491-2.26-.629-3.699-.286-1.673-.493-3.241-.635-4.661-.298-1.427-.438-2.849-.438-4.287-.156-1.42-.362-3.169-.648-5.236-.154-1.949-.308-4.034-.451-6.236-.153-1.95-.311-3.958-.452-6.028-.153-1.816-.245-3.766-.271-5.851-.143-2.318-.23-4.59-.256-6.804-.143-2.718-.312-4.99-.452-6.81-.025-2.332-.117-4.733-.27-7.2-.157-2.465-.311-4.866-.467-7.203-.284-2.066-.438-4.28-.452-6.612-.04-2.465-.049-4.867-.075-7.205-.158-2.065-.235-4.094-.246-6.042l-.052-4.856c-.027-1.304-.027-3.046-.041-5.26-.023-2.074.014-3.641.144-4.682-.014-1.291.037-2.524.167-3.692-.011-1.046.04-2.144.168-3.305.235-1.305.491-2.668.737-4.101.387-1.44.902-2.872 1.548-4.3.648-1.302 1.356-2.284 2.131-2.944.8-.904 1.575-1.633 2.363-2.162.516-.393 1.048-.6 1.563-.599.802-.007 1.524.122 2.183.373l1.381.563c.527.127 1.137.192 1.793.192.131.382.273.704.4.969l1.007 1.544c.66.896 1.137 1.806 1.397 2.711.413.896.683 1.809.813 2.718.283.911.424 1.613.437 2.131 0 1.051.066 2.079.22 3.124.13 1.039.207 2.195.232 3.493.141 1.305.348 2.667.621 4.088.281 1.291.427 2.466.427 3.504.141 1.162.294 2.718.45 4.668.271 1.557.413 2.977.438 4.28 0 1.428-.051 2.919-.153 4.474.013 1.691.075 3.378.232 5.062.156 1.684.23 3.319.259 4.869.011 1.69.09 3.305.232 4.862.014 1.431.105 2.988.246 4.672.025 1.821.102 3.701.256 5.636.144 1.834.233 3.771.26 5.849.011 1.933-.04 3.501-.156 4.664m7.011-10.968c-.167-1.943-.246-3.759-.27-5.443-.143-1.821-.221-3.505-.233-5.062-.143-1.29-.231-2.731-.245-4.286-.025-1.807-.09-3.563-.246-5.249-.141-1.555-.232-3.111-.246-4.666.119-1.57.168-3.061.156-4.488-.013-1.42-.167-3.047-.437-4.867-.157-1.937-.3-3.493-.441-4.668-.141-1.292-.297-2.654-.438-4.08-.269-1.168-.491-2.33-.621-3.5-.14-1.298-.283-2.466-.426-3.5-.01-.904-.025-1.755-.025-2.53-.013-1.046-.219-2.272-.619-3.699-.286-1.291-.621-2.525-1.034-3.688-.554-1.29-1.203-2.582-2.014-3.873l-.994-1.543c-.8-1.291-2.001-1.865-3.578-1.724-.414-1.175-1.216-1.937-2.4-2.318l-1.383-.568c-1.447-.498-2.969-.748-4.559-.737-1.961.021-3.732.619-5.318 1.789-1.307.806-2.545 1.859-3.72 3.163-1.304 1.316-2.401 2.944-3.305 4.894-.916 1.698-1.55 3.524-1.923 5.474-.506 1.823-.827 3.449-.943 4.869-.246 1.441-.375 2.803-.361 4.106.013 1.027-.027 2.13-.157 3.299-.127 1.304-.181 3.124-.154 5.455.027 2.216.038 3.893.065 5.062l.04 4.873c.025 1.951.103 4.088.256 6.425.014 2.206.04 4.473.065 6.804.028 2.479.181 4.867.467 7.203.154 2.209.295 4.475.462 6.819.141 2.596.246 4.983.26 7.199.153 1.936.31 4.215.462 6.811.014 2.207.105 4.545.26 6.998.025 2.077.103 4.027.257 5.849.141 1.937.297 3.957.464 6.03.144 2.214.298 4.417.454 6.611.284 2.086.502 3.759.645 5.061.141 1.557.284 3.112.429 4.669.283 1.428.489 2.917.643 4.461.271 1.698.554 3.196.826 4.474.273 1.039.544 2.084.827 3.111.257 1.039.477 1.95.608 2.733.283.761.477 1.54.618 2.316.286 1.177.684 2.274 1.215 3.302.672 1.427 1.639 2.658 2.892 3.671 1.266 1.037 2.749 1.667 4.48 1.905 1.705.253 3.421.171 5.115-.238 1.847-.537 3.562-1.332 5.126-2.384 1.574-1.181 2.803-2.486 3.718-3.937.776-1.168 1.485-2.739 2.132-4.675.632-1.835 1.083-3.384 1.328-4.7.119-1.164.232-2.394.362-3.699.117-1.291.233-2.654.348-4.095.131-1.554.171-3.312.157-5.259 0-1.809.037-3.435.154-4.857.116-1.568.168-3.252.154-5.075.105-1.82.156-3.768.143-5.834.105-2.216.206-4.416.337-6.632.091-2.202.141-4.485.116-6.803-.141-2.086-.092-3.712.153-4.881.119-1.427.167-3.317.143-5.649-.026-2.2-.104-4.279-.247-6.229"/><path d="m644.405 509.729-1.577.02c-1.058.136-2.712.219-4.943.239-2.234.013-4.613.04-7.118.065-2.632.018-5.717.252-9.272.665-3.423.304-6.909.646-10.471 1.08-3.282.418-6.301.701-9.065.863-2.904.157-5.409.31-7.502.452-2.248.154-4.273.433-6.121.84l-2.361.607c-.93.143-1.654.632-2.156 1.486-.532.85-.686 1.755-.478 2.723.221.974.735 1.691 1.602 2.131.863.445 1.742.6 2.671.457l2.364-.6c1.445-.407 3.084-.621 4.945-.632 1.963-.143 4.429-.298 7.385-.46 2.97-.155 6.157-.452 9.582-.872.4 0 .788-.069 1.172-.198-.129.257-.192.45-.192.58l.089 9.347c.027 1.951.168 3.959.453 6.031.156 2.08.31 4.28.467 6.611.024 2.479.048 5.062.076 7.793.04 2.861.129 5.837.286 8.95.154 3.117.322 6.242.488 9.354.143 2.975.246 6.1.286 9.328-.103 3.254-.181 6.533-.206 9.846-.025 3.306-.105 6.688-.192 10.122-.105 3.449-.206 6.591-.311 9.453-.102 2.975-.208 5.972-.31 8.961-.105 2.861-.206 5.641-.308 8.374-.246 2.858-.351 5.324-.339 7.391.168 2.084.246 4.036.26 5.85.141 1.555.232 2.789.232 3.701v1.161c.025 1.039.387 1.874 1.135 2.526.711.645 1.577.955 2.571.943.994 0 1.806-.376 2.465-1.093.649-.716.971-1.529.957-2.442l-.013-1.362c0-.909-.103-2.202-.247-3.899-.013-1.671-.088-3.493-.23-5.443-.025-1.949.076-4.221.324-6.817.103-2.729.206-5.651.308-8.774.107-2.848.209-5.836.313-8.948.102-2.859.208-6.004.296-9.45.103-3.443.167-6.819.208-10.13.038-3.306.103-6.58.205-9.833-.038-3.505-.141-6.81-.295-9.922-.17-2.989-.338-6.038-.492-9.149-.156-3.111-.246-6.044-.271-8.762-.024-2.852-.064-5.512-.078-7.985-.154-2.453-.311-4.797-.478-6.998-.27-1.95-.424-3.757-.437-5.448l-.079-9.341c0-.395-.078-.789-.219-1.171.788-.136 1.575-.219 2.364-.219 3.293-.426 6.134-.645 8.498-.67 2.632-.021 5.062-.044 7.297-.058 2.516-.021 4.364-.105 5.537-.253l1.588-.013c.916-.129 1.707-.568 2.35-1.291.643-.717.945-1.562.864-2.537-.076-.969-.478-1.782-1.215-2.428-.726-.634-1.615-.886-2.662-.752"/><path d="m869.757 794.135c-13.503 46.018-26.017 78.213-38.243 98.407-5.629 9.256-11.303 16.126-16.905 20.406-5.035 3.867-10.045 5.742-15.325 5.742h-.014c-17.701 0-37.69-21.559-60.829-46.513-18.641-20.097-39.781-42.884-65.087-60.737-29.532-20.828-59.233-30.951-90.792-30.952-1.328 0-2.605.024-3.938.058-3.2.085-6.44.137-9.591.137-36.024 0-68.576-5.612-96.751-16.67-26.068-10.229-48.447-25.124-66.51-44.268-16.927-17.933-29.93-39.403-38.633-63.807-8.3-23.315-12.513-48.71-12.513-75.482 0-31.105 5.903-63.644 17.084-94.104 5.644-15.385 12.629-30.324 20.764-44.404 8.327-14.372 17.896-27.909 28.444-40.261 22.314-26.113 48.627-46.644 78.211-61.009 32.008-15.551 67.09-23.447 104.252-23.447 57.28 0 118.408 18.638 181.661 55.4 11.054 6.424 21.615 15.579 31.416 27.218 9.437 11.222 18.244 24.858 26.171 40.52 15.11 29.847 27.171 67.544 34.876 109.024 7.501 40.376 10.82 83.96 9.622 126.024-1.241 43.089-7.245 84.149-17.37 118.718m15.056-246.103c-7.835-42.157-20.117-80.552-35.557-111.025-16.956-33.508-37.315-57.336-60.481-70.797-64.406-37.433-126.783-56.408-185.393-56.408-38.3 0-74.465 8.134-107.507 24.189-30.498 14.823-57.627 35.973-80.598 62.875-10.846 12.685-20.672 26.611-29.207 41.358-8.38 14.44-15.559 29.78-21.342 45.572-5.747 15.637-10.15 31.784-13.093 47.993-2.944 16.256-4.454 32.636-4.455 48.668 0 27.624 4.375 53.863 12.975 77.975 9.038 25.382 22.569 47.726 40.207 66.414 18.814 19.948 42.093 35.458 69.209 46.086 29.039 11.393 62.509 17.174 99.463 17.175 3.214 0 6.507-.048 9.799-.131 1.253-.03 2.468-.044 3.73-.044 67.611.001 113.527 49.514 150.433 89.309 11.994 12.943 23.329 25.161 33.97 33.973 12.28 10.178 22.545 14.918 32.305 14.919h.027c6.87-.011 13.545-2.453 19.845-7.275 6.418-4.927 12.541-12.275 18.725-22.469 12.574-20.754 25.346-53.522 39.017-100.163 20.711-70.625 23.667-163.399 7.928-248.194"/><path d="m699.476 506.69-10.458.096c-1.318.014-2.442.021-3.372.034-1.177.011-2.439.083-3.743.218-1.058.144-2.04.286-2.947.426l-1.588.016c-1.715.14-2.762 1.123-3.124 2.943-.27.53-.4 1.041-.386 1.57l-.388 2.138c-.116 1.567-.157 3.641-.129 6.236.013 2.466.064 5.512.088 9.153-.102 3.498-.127 7.328-.088 11.479-.078 4.164-.18 8.58-.274 13.247.042 4.675-.243 9.22-.861 13.636-.594 4.559-1.15 9.169-1.628 13.842-.505 4.556-.891 8.999-1.162 13.352-.298 4.358-.489 8.354-.583 11.976.038 3.771.141 7.141.298 10.122.154 3.121.386 6.044.684 8.756.283 2.731.633 5.004 1.048 6.812.281 1.684.421 3.176.435 4.474-.13 1.562-.165 2.724-.154 3.504.014 2.74 1.678 4.474 4.984 5.212 1.975.492 3.952.614 5.925.338 1.577-.143 3.15-.355 4.727-.633 1.459-.141 2.633-.284 3.563-.421 1.046-.013 2.031-.081 2.958-.212.913-.141 1.898-.288 2.944-.42l1.391-.212c.921-.266 1.683-.798 2.262-1.584.583-.772.773-1.66.554-2.634-.195-.969-.699-1.71-1.485-2.221-.802-.503-1.666-.699-2.581-.563l-1.577.409c-.928.141-1.742.239-2.466.308-.727.085-1.553.116-2.48.116-1.044.151-2.428.293-4.132.447-1.574.266-3.165.477-4.739.621-.915.134-1.845.147-2.764.025 0-.646.052-1.292.184-1.949-.013-1.687-.245-3.565-.649-5.638-.27-1.814-.566-4.016-.85-6.618-.296-2.593-.53-5.378-.684-8.374-.153-2.846-.246-6.03-.286-9.535.095-3.621.246-7.521.478-11.684.119-2.073.284-4.152.544-6.23l1.367-.221c1.191-.263 2.377-.464 3.565-.607 1.046-.014 2.028-.014 2.944-.025 1.318.123 2.581.168 3.767.156 1.318-.014 2.831-.284 4.522-.814l1.974-.419c1.061-.266 1.806-.827 2.262-1.673.464-.851.58-1.724.362-2.633-.196-.911-.724-1.602-1.588-2.131-.865-.503-1.76-.621-2.674-.355l-2.171.607c-1.174.277-2.169.407-2.958.407-.773.011-1.782-.032-2.953-.156-1.333-.116-2.701-.112-4.146.037-1.192.13-2.377.344-3.565.608.478-4.415.967-8.825 1.461-13.254.605-4.679.967-9.477 1.044-14.416.092-4.925.18-9.343.271-13.243-.039-4.15-.028-8.036.079-11.691-.027-3.621-.065-6.676-.093-9.135-.014-2.35.038-4.164.157-5.455v-.587c.646-.134 1.367-.206 2.155-.214 1.061-.136 1.988-.219 2.779-.219 1.055-.013 2.231-.028 3.535-.034l10.487-.095c.916-.014 1.731-.348 2.452-1.008.724-.657 1.072-1.471 1.058-2.439 0-.969-.376-1.809-1.096-2.524-.733-.71-1.559-1.058-2.486-1.045"/><path d="m786.528 509.176c-.748-.632-1.626-.882-2.687-.742l-1.575.013c-1.061.148-2.698.221-4.932.24-2.246.013-4.61.038-7.114.064-2.634.033-5.734.252-9.269.679-3.425.29-6.923.645-10.461 1.065-3.306.419-6.314.704-9.089.865-2.895.154-5.396.308-7.502.451-2.234.156-4.275.445-6.109.839l-2.376.607c-.902.144-1.64.633-2.156 1.486-.513.851-.658 1.756-.464 2.725.204.976.737 1.693 1.601 2.13.851.447 1.758.6 2.671.458l2.364-.601c1.448-.406 3.098-.618 4.932-.631 1.975-.144 4.442-.297 7.4-.46 2.968-.154 6.158-.438 9.58-.872.397 0 .788-.069 1.188-.199-.141.26-.194.453-.194.581l.078 9.35c.014 1.95.168 3.958.464 6.042.156 2.066.298 4.269.467 6.599.025 2.477.038 5.074.064 7.79.025 2.862.119 5.837.284 8.962.156 3.104.324 6.218.492 9.341.151 2.978.243 6.102.281 9.341-.113 3.241-.168 6.52-.206 9.833-.04 3.305-.103 6.69-.208 10.136-.088 3.433-.191 6.58-.307 9.439-.091 2.989-.192 5.973-.298 8.961-.102 2.861-.206 5.643-.308 8.373-.246 2.861-.348 5.327-.324 7.407.141 2.077.232 4.023.232 5.836.156 1.557.246 2.789.246 3.698l.011 1.171c.014 1.045.389 1.878 1.11 2.516.737.655 1.591.957 2.585.957.98-.011 1.796-.378 2.453-1.103.656-.717.969-1.531.969-2.442l-.024-1.362c0-.911-.078-2.203-.222-3.886-.013-1.684-.119-3.505-.259-5.457-.025-1.949.102-4.21.337-6.819.102-2.731.205-5.649.313-8.759.102-2.861.204-5.85.305-8.974.106-2.849.194-5.993.31-9.44.092-3.426.157-6.804.194-10.129.027-3.306.102-6.578.194-9.826-.025-3.511-.127-6.819-.283-9.93-.165-2.989-.322-6.035-.478-9.148-.168-3.112-.27-6.031-.284-8.763-.024-2.851-.052-5.512-.076-7.979-.156-2.458-.31-4.802-.464-7.004-.286-1.944-.426-3.756-.443-5.45l-.102-9.353c0-.382-.064-.775-.208-1.155.788-.137 1.588-.221 2.378-.221 3.278-.42 6.109-.646 8.482-.666 2.634-.013 5.076-.038 7.308-.064 2.507-.018 4.338-.105 5.526-.252l1.591-.013c.915-.13 1.701-.568 2.361-1.292.646-.717.928-1.561.843-2.535-.068-.968-.482-1.782-1.192-2.428"/><g enable-background="new"><path d="m232.574 986.413h18.902c17.502 0 27.653 10.081 27.653 24.223v.14c0 14.142-10.291 24.643-27.933 24.643h-18.622zm19.112 36.963c8.121 0 13.511-4.48 13.511-12.392v-.14c0-7.841-5.391-12.392-13.511-12.392h-5.531v24.923h5.531z"/><path d="m286.124 986.413h39.414v11.551h-25.973v7.421h23.522v10.711h-23.522v7.771h26.323v11.551h-39.764z"/><path d="m329.103 1028.136 7.561-9.03c4.831 3.851 10.221 5.881 15.892 5.881 3.64 0 5.601-1.261 5.601-3.36v-.141c0-2.03-1.61-3.15-8.261-4.69-10.431-2.38-18.482-5.32-18.482-15.401v-.141c0-9.101 7.21-15.682 18.972-15.682 8.331 0 14.842 2.24 20.162 6.511l-6.791 9.592c-4.48-3.15-9.381-4.831-13.721-4.831-3.291 0-4.901 1.4-4.901 3.15v.141c0 2.24 1.68 3.22 8.471 4.76 11.271 2.45 18.271 6.091 18.271 15.262v.141c0 10.011-7.911 15.961-19.812 15.961-8.681-.002-16.941-2.732-22.962-8.123z"/><path d="m376.772 1011.055v-.141c0-14.281 10.991-25.482 25.833-25.482 10.011 0 16.452 4.2 20.792 10.222l-10.221 7.91c-2.8-3.5-6.021-5.74-10.711-5.74-6.861 0-11.691 5.811-11.691 12.951v.14c0 7.352 4.831 13.092 11.691 13.092 5.11 0 8.121-2.38 11.061-5.95l10.221 7.28c-4.621 6.371-10.851 11.062-21.702 11.062-14.001-.001-25.273-10.713-25.273-25.344z"/><path d="m428.922 1013.925v-27.513h13.792v27.232c0 7.071 3.57 10.432 9.031 10.432s9.031-3.221 9.031-10.081v-27.583h13.792v27.163c0 15.821-9.031 22.752-22.962 22.752-13.933.001-22.684-7.07-22.684-22.402z"/><path d="m482.612 986.413h25.133c6.161 0 10.501 1.54 13.372 4.41 1.96 1.96 3.15 4.551 3.15 7.911v.14c0 5.671-3.22 9.031-7.561 10.921 5.951 1.961 9.731 5.321 9.731 11.972v.14c0 8.401-6.861 13.512-18.552 13.512h-25.273zm21.772 19.532c4.13 0 6.44-1.4 6.44-4.271v-.141c0-2.66-2.1-4.2-6.161-4.2h-8.821v8.611h8.542zm1.96 18.552c4.13 0 6.511-1.61 6.511-4.48v-.141c0-2.66-2.1-4.41-6.65-4.41h-10.361v9.031z"/><path d="m532.662 986.413h23.172c7.491 0 12.671 1.96 15.962 5.32 2.87 2.8 4.34 6.581 4.34 11.411v.14c0 7.491-3.99 12.462-10.081 15.052l11.691 17.082h-15.682l-9.871-14.842h-.14-5.811v14.842h-13.582v-49.005zm22.542 23.522c4.621 0 7.281-2.24 7.281-5.811v-.141c0-3.85-2.8-5.811-7.351-5.811h-8.891v11.762h8.961z"/><path d="m582.991 986.413h39.414v11.551h-25.973v7.421h23.522v10.711h-23.522v7.771h26.323v11.551h-39.765v-49.005z"/><path d="m649.07 986.413h39.414v11.551h-25.973v7.421h23.522v10.711h-23.522v7.771h26.323v11.551h-39.764z"/><path d="m695.76 986.413h13.582v37.104h23.732v11.901h-37.314z"/><path d="m754.559 1028.136 7.562-9.03c4.83 3.851 10.221 5.881 15.892 5.881 3.64 0 5.601-1.261 5.601-3.36v-.141c0-2.03-1.61-3.15-8.261-4.69-10.432-2.38-18.482-5.32-18.482-15.401v-.141c0-9.101 7.211-15.682 18.972-15.682 8.331 0 14.842 2.24 20.162 6.511l-6.79 9.592c-4.48-3.15-9.381-4.831-13.722-4.831-3.29 0-4.9 1.4-4.9 3.15v.141c0 2.24 1.68 3.22 8.471 4.76 11.271 2.45 18.271 6.091 18.271 15.262v.141c0 10.011-7.91 15.961-19.812 15.961-8.682-.002-16.943-2.732-22.964-8.123z"/><path d="m819.808 986.062h13.092l20.861 49.355h-14.562l-3.57-8.751h-18.901l-3.5 8.751h-14.282zm11.901 30.033-5.461-13.932-5.53 13.932z"/><path d="m858.517 986.413h25.132c6.161 0 10.502 1.54 13.372 4.41 1.96 1.96 3.15 4.551 3.15 7.911v.14c0 5.671-3.221 9.031-7.562 10.921 5.951 1.961 9.731 5.321 9.731 11.972v.14c0 8.401-6.86 13.512-18.552 13.512h-25.272v-49.006zm21.771 19.532c4.131 0 6.441-1.4 6.441-4.271v-.141c0-2.66-2.101-4.2-6.161-4.2h-8.82v8.611h8.54zm1.961 18.552c4.13 0 6.511-1.61 6.511-4.48v-.141c0-2.66-2.101-4.41-6.651-4.41h-10.36v9.031z"/><path d="m906.886 1011.055v-.141c0-14.071 11.341-25.482 26.463-25.482s26.323 11.271 26.323 25.343v.14c0 14.072-11.342 25.483-26.463 25.483-15.122 0-26.323-11.272-26.323-25.343zm38.924 0v-.141c0-7.07-5.11-13.231-12.601-13.231-7.421 0-12.392 6.021-12.392 13.092v.14c0 7.071 5.11 13.231 12.531 13.231 7.492 0 12.462-6.021 12.462-13.091z"/><path d="m966.735 986.413h23.172c7.491 0 12.672 1.96 15.962 5.32 2.87 2.8 4.341 6.581 4.341 11.411v.14c0 7.491-3.991 12.462-10.081 15.052l11.69 17.082h-15.682l-9.871-14.842h-.14-5.811v14.842h-13.581v-49.005zm22.542 23.522c4.62 0 7.281-2.24 7.281-5.811v-.141c0-3.85-2.801-5.811-7.352-5.811h-8.891v11.762h8.962z"/></g><g enable-background="new"><path d="m359.938 1058.413h14.352l11.691 18.972 11.691-18.972h14.352v49.005h-13.511v-28.143l-12.531 19.182h-.28l-12.461-19.042v28.003h-13.301v-49.005z"/><path d="m437.64 1058.062h13.091l20.862 49.356h-14.562l-3.57-8.751h-18.901l-3.5 8.751h-14.282zm11.901 30.033-5.461-13.932-5.53 13.932zm-3.57-45.925 12.391 3.99-10.291 8.961h-9.381z"/><path d="m472.637 1100.136 7.561-9.03c4.831 3.851 10.221 5.881 15.892 5.881 3.641 0 5.601-1.261 5.601-3.36v-.141c0-2.03-1.61-3.15-8.261-4.69-10.431-2.38-18.482-5.32-18.482-15.401v-.141c0-9.101 7.21-15.682 18.972-15.682 8.331 0 14.842 2.24 20.162 6.511l-6.791 9.592c-4.48-3.15-9.381-4.831-13.722-4.831-3.29 0-4.9 1.4-4.9 3.15v.141c0 2.24 1.68 3.22 8.471 4.76 11.271 2.45 18.272 6.091 18.272 15.262v.141c0 10.011-7.911 15.961-19.812 15.961-8.681-.001-16.942-2.732-22.963-8.123z"/><path d="m541.657 1058.413h13.651v49.005h-13.651z"/><path d="m564.266 1058.413h12.671l20.162 25.902v-25.902h13.441v49.005h-11.9l-20.932-26.883v26.883h-13.441v-49.005z"/><path d="m631.187 1070.314h-14.701v-11.901h42.984v11.901h-14.701v37.104h-13.582z"/><path d="m665.415 1058.413h39.414v11.551h-25.973v7.421h23.522v10.711h-23.522v7.771h26.322v11.551h-39.764v-49.005z"/><path d="m712.104 1058.413h12.671l20.162 25.902v-25.902h13.441v49.005h-11.901l-20.932-26.883v26.883h-13.441z"/><path d="m763.343 1100.136 7.562-9.03c4.83 3.851 10.221 5.881 15.892 5.881 3.64 0 5.601-1.261 5.601-3.36v-.141c0-2.03-1.61-3.15-8.261-4.69-10.432-2.38-18.482-5.32-18.482-15.401v-.141c0-9.101 7.211-15.682 18.972-15.682 8.331 0 14.842 2.24 20.162 6.511l-6.79 9.592c-4.48-3.15-9.381-4.831-13.722-4.831-3.29 0-4.9 1.4-4.9 3.15v.141c0 2.24 1.68 3.22 8.471 4.76 11.271 2.45 18.271 6.091 18.271 15.262v.141c0 10.011-7.91 15.961-19.812 15.961-8.682-.001-16.943-2.732-22.964-8.123z"/><path d="m811.013 1083.055v-.141c0-14.071 11.342-25.482 26.463-25.482 15.122 0 26.323 11.271 26.323 25.343v.14c0 14.072-11.342 25.484-26.463 25.484-15.122-.001-26.323-11.273-26.323-25.344zm38.925 0v-.141c0-7.07-5.111-13.231-12.602-13.231-7.421 0-12.392 6.021-12.392 13.092v.14c0 7.071 5.11 13.231 12.531 13.231 7.492 0 12.463-6.021 12.463-13.091z"/><path d="m867.431 1093.766h13.861v13.652h-13.861z"/></g><g enable-background="new"><path d="m314.075 1228.72 5.459-6.539c3.78 3.119 7.74 5.1 12.54 5.1 3.78 0 6.06-1.5 6.06-3.96v-.12c0-2.34-1.44-3.54-8.459-5.34-8.459-2.16-13.919-4.5-13.919-12.839v-.12c0-7.62 6.12-12.66 14.699-12.66 6.12 0 11.34 1.92 15.6 5.34l-4.8 6.96c-3.72-2.58-7.38-4.14-10.919-4.14-3.54 0-5.4 1.62-5.4 3.66v.119c0 2.761 1.8 3.66 9.06 5.521 8.52 2.22 13.319 5.279 13.319 12.6v.119c0 8.34-6.359 13.02-15.419 13.02-6.361-.002-12.781-2.221-17.821-6.721z"/><path d="m354.155 1223.5v-20.818h9.12v17.938c0 4.32 2.04 6.54 5.52 6.54s5.7-2.22 5.7-6.54v-17.938h9.12v32.158h-9.12v-4.56c-2.1 2.699-4.8 5.159-9.42 5.159-6.9 0-10.92-4.559-10.92-11.939z"/></g><g enable-background="new" fill="#fff"><path d="m408.213 1218.94v-.12c0-9.18 7.02-16.739 16.859-16.739 6.06 0 9.839 2.04 12.839 5.399l-5.58 6c-2.04-2.16-4.08-3.54-7.319-3.54-4.56 0-7.8 4.021-7.8 8.76v.12c0 4.92 3.18 8.88 8.16 8.88 3.06 0 5.16-1.32 7.38-3.42l5.339 5.399c-3.12 3.42-6.72 5.88-13.139 5.88-9.66.001-16.739-7.439-16.739-16.619z"/><path d="m444.033 1202.682h9.12v6.479c1.86-4.44 4.859-7.32 10.259-7.08v9.54h-.48c-6.06 0-9.779 3.659-9.779 11.339v11.88h-9.12z"/><path d="m468.873 1223.5v-20.818h9.12v17.938c0 4.32 2.04 6.54 5.52 6.54s5.7-2.22 5.7-6.54v-17.938h9.12v32.158h-9.12v-4.56c-2.1 2.699-4.8 5.159-9.42 5.159-6.9 0-10.92-4.559-10.92-11.939z"/><path d="m501.752 1244.26v-7.14c.72.12 1.26.18 1.92.18 1.92 0 3.24-1.021 3.24-3.72v-30.898h9.12v31.618c0 7.08-3.6 10.319-10.32 10.319-1.68 0-2.7-.12-3.96-.359zm4.92-53.218h9.6v8.1h-9.6z"/><path d="m524.791 1191.042h9.6v8.1h-9.6zm.24 11.64h9.12v32.158h-9.12z"/><path d="m541.17 1218.94v-.12c0-9.18 6.54-16.739 15.899-16.739 10.739 0 15.659 8.34 15.659 17.459 0 .721-.06 1.561-.12 2.4h-22.378c.9 4.14 3.78 6.3 7.859 6.3 3.06 0 5.28-.96 7.8-3.3l5.22 4.62c-3 3.72-7.319 5.999-13.139 5.999-9.66.001-16.8-6.779-16.8-16.619zm22.679-2.7c-.54-4.079-2.939-6.84-6.779-6.84-3.78 0-6.24 2.7-6.96 6.84z"/><path d="m579.51 1202.682h9.119v4.56c2.1-2.7 4.8-5.16 9.42-5.16 6.899 0 10.919 4.56 10.919 11.939v20.819h-9.12v-17.94c0-4.319-2.04-6.539-5.52-6.539s-5.7 2.22-5.7 6.539v17.939h-9.119v-32.157z"/><path d="m618.389 1225.721v-15.24h-3.84v-7.799h3.84v-8.22h9.12v8.22h7.56v7.799h-7.56v13.74c0 2.1.9 3.119 2.939 3.119 1.681 0 3.181-.42 4.5-1.14v7.319c-1.92 1.141-4.14 1.86-7.199 1.86-5.58.001-9.36-2.219-9.36-9.658z"/><path d="m639.336 1218.94v-.12c0-9.18 6.539-16.739 15.899-16.739 10.739 0 15.659 8.34 15.659 17.459 0 .721-.061 1.561-.12 2.4h-22.379c.899 4.14 3.779 6.3 7.859 6.3 3.06 0 5.28-.96 7.8-3.3l5.22 4.62c-3 3.72-7.319 5.999-13.14 5.999-9.658.001-16.798-6.779-16.798-16.619zm22.679-2.7c-.54-4.079-2.939-6.84-6.779-6.84-3.78 0-6.24 2.7-6.96 6.84z"/></g><g enable-background="new"><path d="m698.067 1225.721v-15.24h-3.84v-7.799h3.84v-8.22h9.12v8.22h7.56v7.799h-7.56v13.74c0 2.1.9 3.119 2.939 3.119 1.681 0 3.181-.42 4.5-1.14v7.319c-1.92 1.141-4.14 1.86-7.199 1.86-5.579.001-9.36-2.219-9.36-9.658z"/><path d="m719.014 1218.94v-.12c0-9.18 6.54-16.739 15.899-16.739 10.739 0 15.659 8.34 15.659 17.459 0 .721-.06 1.561-.12 2.4h-22.379c.9 4.14 3.78 6.3 7.86 6.3 3.06 0 5.279-.96 7.799-3.3l5.22 4.62c-2.999 3.72-7.319 5.999-13.139 5.999-9.66.001-16.799-6.779-16.799-16.619zm22.679-2.7c-.54-4.079-2.94-6.84-6.78-6.84-3.779 0-6.239 2.7-6.96 6.84z"/><path d="m764.132 1218.521-10.86-15.839h9.78l5.999 9.359 6.061-9.359h9.539l-10.859 15.659 11.34 16.499h-9.78l-6.479-10.02-6.479 10.02h-9.54z"/><path d="m792.092 1225.721v-15.24h-3.84v-7.799h3.84v-8.22h9.119v8.22h7.561v7.799h-7.561v13.74c0 2.1.9 3.119 2.94 3.119 1.68 0 3.18-.42 4.5-1.14v7.319c-1.92 1.141-4.14 1.86-7.2 1.86-5.579.001-9.359-2.219-9.359-9.658z"/><path d="m815.251 1223.5v-20.818h9.12v17.938c0 4.32 2.04 6.54 5.52 6.54s5.7-2.22 5.7-6.54v-17.938h9.119v32.158h-9.119v-4.56c-2.101 2.699-4.8 5.159-9.42 5.159-6.9 0-10.92-4.559-10.92-11.939z"/><path d="m852.871 1202.682h9.119v6.479c1.86-4.44 4.859-7.32 10.26-7.08v9.54h-.48c-6.06 0-9.779 3.659-9.779 11.339v11.88h-9.119v-32.158z"/><path d="m874.536 1225.601v-.12c0-7.02 5.34-10.26 12.96-10.26 3.239 0 5.579.54 7.859 1.32v-.54c0-3.78-2.34-5.88-6.899-5.88-3.48 0-5.94.66-8.88 1.739l-2.28-6.959c3.54-1.561 7.02-2.58 12.479-2.58 4.979 0 8.58 1.319 10.859 3.6 2.4 2.4 3.48 5.939 3.48 10.26v18.659h-8.82v-3.479c-2.22 2.46-5.279 4.079-9.719 4.079-6.059-.001-11.039-3.48-11.039-9.839zm20.94-2.101v-1.619c-1.561-.721-3.601-1.2-5.82-1.2-3.899 0-6.3 1.56-6.3 4.439v.12c0 2.46 2.04 3.899 4.98 3.899 4.26.001 7.14-2.339 7.14-5.639z"/></g><g enable-background="new"><path d="m226.866 1262.682h9.119v6.479c1.86-4.44 4.86-7.32 10.26-7.08v9.54h-.48c-6.06 0-9.78 3.659-9.78 11.339v11.88h-9.119z"/><path d="m249.493 1278.94v-.12c0-9.18 6.54-16.739 15.899-16.739 10.739 0 15.659 8.34 15.659 17.459 0 .721-.06 1.561-.12 2.4h-22.379c.9 4.14 3.78 6.3 7.86 6.3 3.06 0 5.279-.96 7.799-3.3l5.22 4.62c-3 3.72-7.319 5.999-13.139 5.999-9.66.001-16.799-6.779-16.799-16.619zm22.679-2.7c-.54-4.079-2.94-6.84-6.78-6.84-3.78 0-6.24 2.7-6.96 6.84z"/><path d="m285.312 1290.58 3.9-6c3.479 2.521 7.14 3.84 10.14 3.84 2.64 0 3.84-.96 3.84-2.399v-.12c0-1.98-3.12-2.64-6.66-3.72-4.5-1.32-9.6-3.42-9.6-9.66v-.12c0-6.539 5.28-10.199 11.76-10.199 4.08 0 8.52 1.38 12 3.72l-3.48 6.3c-3.18-1.859-6.36-3-8.7-3-2.22 0-3.36.96-3.36 2.22v.12c0 1.8 3.06 2.641 6.54 3.84 4.5 1.5 9.719 3.66 9.719 9.54v.12c0 7.14-5.339 10.379-12.299 10.379-4.501-.002-9.54-1.502-13.8-4.861z"/><path d="m316.032 1285.601v-.12c0-7.02 5.339-10.26 12.959-10.26 3.24 0 5.58.54 7.86 1.32v-.54c0-3.78-2.34-5.88-6.9-5.88-3.479 0-5.939.66-8.879 1.739l-2.28-6.959c3.54-1.561 7.02-2.58 12.479-2.58 4.979 0 8.58 1.319 10.859 3.6 2.4 2.4 3.48 5.939 3.48 10.26v18.659h-8.82v-3.479c-2.22 2.46-5.28 4.079-9.72 4.079-6.058-.001-11.038-3.48-11.038-9.839zm20.939-2.101v-1.619c-1.56-.721-3.6-1.2-5.82-1.2-3.9 0-6.3 1.56-6.3 4.439v.12c0 2.46 2.04 3.899 4.98 3.899 4.26.001 7.14-2.339 7.14-5.639z"/><path d="m353.892 1251.042h9.12v43.798h-9.12z"/><path d="m373.09 1285.721v-15.24h-3.84v-7.799h3.84v-8.22h9.12v8.22h7.56v7.799h-7.56v13.74c0 2.1.9 3.119 2.94 3.119 1.68 0 3.18-.42 4.5-1.14v7.319c-1.92 1.141-4.14 1.86-7.2 1.86-5.58.001-9.36-2.219-9.36-9.658z"/><path d="m394.57 1285.601v-.12c0-7.02 5.34-10.26 12.96-10.26 3.24 0 5.58.54 7.859 1.32v-.54c0-3.78-2.34-5.88-6.899-5.88-3.48 0-5.94.66-8.88 1.739l-2.28-6.959c3.54-1.561 7.02-2.58 12.479-2.58 4.979 0 8.58 1.319 10.859 3.6 2.4 2.4 3.48 5.939 3.48 10.26v18.659h-8.82v-3.479c-2.22 2.46-5.28 4.079-9.719 4.079-6.059-.001-11.039-3.48-11.039-9.839zm20.94-2.101v-1.619c-1.56-.721-3.6-1.2-5.82-1.2-3.9 0-6.3 1.56-6.3 4.439v.12c0 2.46 2.04 3.899 4.98 3.899 4.26.001 7.14-2.339 7.14-5.639z"/><path d="m451.509 1285.721v-15.24h-3.84v-7.799h3.84v-8.22h9.12v8.22h7.56v7.799h-7.56v13.74c0 2.1.9 3.119 2.94 3.119 1.68 0 3.18-.42 4.5-1.14v7.319c-1.92 1.141-4.14 1.86-7.2 1.86-5.58.001-9.36-2.219-9.36-9.658z"/><path d="m472.456 1278.94v-.12c0-9.239 7.439-16.739 17.459-16.739 9.96 0 17.339 7.38 17.339 16.619v.12c0 9.24-7.439 16.739-17.459 16.739-9.96.001-17.339-7.379-17.339-16.619zm25.798 0v-.12c0-4.739-3.42-8.88-8.459-8.88-5.22 0-8.34 4.021-8.34 8.76v.12c0 4.74 3.42 8.88 8.459 8.88 5.221 0 8.34-4.019 8.34-8.76z"/><path d="m512.414 1278.82v-.12c0-10.739 7.02-16.619 14.64-16.619 4.86 0 7.86 2.22 10.02 4.8v-15.839h9.12v43.798h-9.12v-4.62c-2.22 3-5.28 5.22-10.02 5.22-7.5-.001-14.64-5.879-14.64-16.62zm24.779 0v-.12c0-5.34-3.54-8.879-7.8-8.879s-7.859 3.479-7.859 8.879v.12c0 5.34 3.6 8.88 7.859 8.88s7.8-3.54 7.8-8.88z"/><path d="m552.794 1278.94v-.12c0-9.239 7.439-16.739 17.459-16.739 9.96 0 17.339 7.38 17.339 16.619v.12c0 9.24-7.439 16.739-17.459 16.739-9.96.001-17.339-7.379-17.339-16.619zm25.799 0v-.12c0-4.739-3.42-8.88-8.459-8.88-5.22 0-8.34 4.021-8.34 8.76v.12c0 4.74 3.42 8.88 8.459 8.88 5.22 0 8.34-4.019 8.34-8.76z"/><path d="m591.673 1290.58 3.9-6c3.479 2.521 7.14 3.84 10.14 3.84 2.64 0 3.84-.96 3.84-2.399v-.12c0-1.98-3.12-2.64-6.66-3.72-4.5-1.32-9.6-3.42-9.6-9.66v-.12c0-6.539 5.28-10.199 11.76-10.199 4.08 0 8.52 1.38 12 3.72l-3.48 6.3c-3.18-1.859-6.36-3-8.7-3-2.22 0-3.36.96-3.36 2.22v.12c0 1.8 3.06 2.641 6.54 3.84 4.5 1.5 9.719 3.66 9.719 9.54v.12c0 7.14-5.339 10.379-12.299 10.379-4.5-.002-9.54-1.502-13.8-4.861z"/><path d="m642.732 1251.042h9.119v43.798h-9.119z"/><path d="m658.871 1278.94v-.12c0-9.239 7.439-16.739 17.459-16.739 9.96 0 17.34 7.38 17.34 16.619v.12c0 9.24-7.439 16.739-17.459 16.739-9.96.001-17.34-7.379-17.34-16.619zm25.799 0v-.12c0-4.739-3.42-8.88-8.459-8.88-5.22 0-8.34 4.021-8.34 8.76v.12c0 4.74 3.42 8.88 8.459 8.88 5.221 0 8.34-4.019 8.34-8.76z"/><path d="m697.75 1290.58 3.9-6c3.479 2.521 7.14 3.84 10.14 3.84 2.64 0 3.84-.96 3.84-2.399v-.12c0-1.98-3.12-2.64-6.66-3.72-4.5-1.32-9.6-3.42-9.6-9.66v-.12c0-6.539 5.279-10.199 11.76-10.199 4.079 0 8.52 1.38 11.999 3.72l-3.479 6.3c-3.18-1.859-6.36-3-8.7-3-2.22 0-3.359.96-3.359 2.22v.12c0 1.8 3.06 2.641 6.54 3.84 4.499 1.5 9.719 3.66 9.719 9.54v.12c0 7.14-5.339 10.379-12.299 10.379-4.501-.002-9.541-1.502-13.801-4.861z"/><path d="m745.87 1290.58 3.899-6c3.479 2.521 7.14 3.84 10.14 3.84 2.64 0 3.84-.96 3.84-2.399v-.12c0-1.98-3.12-2.64-6.66-3.72-4.499-1.32-9.6-3.42-9.6-9.66v-.12c0-6.539 5.28-10.199 11.76-10.199 4.08 0 8.52 1.38 12 3.72l-3.48 6.3c-3.18-1.859-6.359-3-8.699-3-2.22 0-3.36.96-3.36 2.22v.12c0 1.8 3.061 2.641 6.54 3.84 4.5 1.5 9.72 3.66 9.72 9.54v.12c0 7.14-5.34 10.379-12.3 10.379-4.501-.002-9.54-1.502-13.8-4.861z"/><path d="m776.59 1285.601v-.12c0-7.02 5.339-10.26 12.959-10.26 3.24 0 5.58.54 7.859 1.32v-.54c0-3.78-2.34-5.88-6.899-5.88-3.479 0-5.939.66-8.88 1.739l-2.279-6.959c3.539-1.561 7.02-2.58 12.479-2.58 4.979 0 8.579 1.319 10.859 3.6 2.399 2.4 3.479 5.939 3.479 10.26v18.659h-8.819v-3.479c-2.22 2.46-5.28 4.079-9.72 4.079-6.059-.001-11.038-3.48-11.038-9.839zm20.938-2.101v-1.619c-1.56-.721-3.6-1.2-5.819-1.2-3.9 0-6.3 1.56-6.3 4.439v.12c0 2.46 2.04 3.899 4.979 3.899 4.26.001 7.14-2.339 7.14-5.639z"/><path d="m823.149 1290.64v4.2h-9.12v-43.798h9.12v16.259c2.22-3 5.279-5.22 10.02-5.22 7.499 0 14.64 5.88 14.64 16.619v.12c0 10.74-7.021 16.619-14.64 16.619-4.86 0-7.86-2.219-10.02-4.799zm15.539-11.82v-.12c0-5.34-3.6-8.879-7.859-8.879-4.261 0-7.8 3.539-7.8 8.879v.12c0 5.34 3.539 8.88 7.8 8.88 4.26 0 7.859-3.479 7.859-8.88z"/><path d="m852.969 1278.94v-.12c0-9.239 7.44-16.739 17.46-16.739 9.959 0 17.339 7.38 17.339 16.619v.12c0 9.24-7.439 16.739-17.459 16.739-9.96.001-17.34-7.379-17.34-16.619zm25.8 0v-.12c0-4.739-3.42-8.88-8.46-8.88-5.22 0-8.34 4.021-8.34 8.76v.12c0 4.74 3.42 8.88 8.46 8.88 5.219 0 8.34-4.019 8.34-8.76z"/><path d="m894.368 1262.682h9.119v6.479c1.86-4.44 4.86-7.32 10.26-7.08v9.54h-.479c-6.061 0-9.78 3.659-9.78 11.339v11.88h-9.119v-32.158z"/><path d="m916.994 1278.94v-.12c0-9.18 6.54-16.739 15.899-16.739 10.74 0 15.66 8.34 15.66 17.459 0 .721-.061 1.561-.12 2.4h-22.38c.9 4.14 3.78 6.3 7.86 6.3 3.06 0 5.279-.96 7.8-3.3l5.22 4.62c-3 3.72-7.32 5.999-13.14 5.999-9.659.001-16.799-6.779-16.799-16.619zm22.68-2.7c-.54-4.079-2.94-6.84-6.78-6.84-3.779 0-6.239 2.7-6.959 6.84z"/><path d="m952.813 1290.58 3.9-6c3.479 2.521 7.14 3.84 10.14 3.84 2.64 0 3.84-.96 3.84-2.399v-.12c0-1.98-3.12-2.64-6.66-3.72-4.5-1.32-9.6-3.42-9.6-9.66v-.12c0-6.539 5.28-10.199 11.76-10.199 4.08 0 8.52 1.38 11.999 3.72l-3.479 6.3c-3.18-1.859-6.359-3-8.699-3-2.221 0-3.36.96-3.36 2.22v.12c0 1.8 3.06 2.641 6.54 3.84 4.5 1.5 9.72 3.66 9.72 9.54v.12c0 7.14-5.34 10.379-12.3 10.379-4.501-.002-9.541-1.502-13.801-4.861z"/><path d="m982.934 1300.779c4.141-.42 6.18-2.52 5.88-5.939h-3.72v-9.6h9.72v8.1c0 7.92-3.96 11.1-11.1 11.22z"/></g><g enable-background="new"><path d="m281.016 1338.94v-.12c0-9.18 7.02-16.739 16.859-16.739 6.06 0 9.839 2.04 12.839 5.399l-5.58 6c-2.04-2.16-4.08-3.54-7.319-3.54-4.56 0-7.8 4.021-7.8 8.76v.12c0 4.92 3.18 8.88 8.16 8.88 3.06 0 5.16-1.32 7.38-3.42l5.339 5.399c-3.12 3.42-6.72 5.88-13.139 5.88-9.659.001-16.739-7.439-16.739-16.619z"/><path d="m316.836 1322.682h9.119v6.479c1.86-4.44 4.86-7.32 10.26-7.08v9.54h-.48c-6.06 0-9.78 3.659-9.78 11.339v11.88h-9.119z"/><path d="m339.462 1338.94v-.12c0-9.18 6.54-16.739 15.899-16.739 10.739 0 15.659 8.34 15.659 17.459 0 .721-.06 1.561-.12 2.4h-22.379c.9 4.14 3.78 6.3 7.86 6.3 3.06 0 5.279-.96 7.799-3.3l5.22 4.62c-3 3.72-7.319 5.999-13.139 5.999-9.659.001-16.799-6.779-16.799-16.619zm22.68-2.7c-.54-4.079-2.94-6.84-6.78-6.84-3.78 0-6.24 2.7-6.96 6.84z"/><path d="m375.882 1345.601v-.12c0-7.02 5.339-10.26 12.959-10.26 3.24 0 5.58.54 7.86 1.32v-.54c0-3.78-2.34-5.88-6.9-5.88-3.479 0-5.939.66-8.879 1.739l-2.28-6.959c3.54-1.561 7.02-2.58 12.479-2.58 4.979 0 8.58 1.319 10.859 3.6 2.4 2.4 3.48 5.939 3.48 10.26v18.659h-8.82v-3.479c-2.22 2.46-5.28 4.079-9.72 4.079-6.059-.001-11.038-3.48-11.038-9.839zm20.939-2.101v-1.619c-1.56-.721-3.6-1.2-5.82-1.2-3.9 0-6.3 1.56-6.3 4.439v.12c0 2.46 2.04 3.899 4.98 3.899 4.26.001 7.14-2.339 7.14-5.639z"/><path d="m413.321 1322.682h9.12v4.56c2.1-2.7 4.8-5.16 9.419-5.16 6.9 0 10.919 4.56 10.919 11.939v20.819h-9.12v-17.94c0-4.319-2.04-6.539-5.52-6.539s-5.7 2.22-5.7 6.539v17.939h-9.12v-32.157z"/><path d="m449.261 1338.82v-.12c0-10.739 7.02-16.619 14.639-16.619 4.86 0 7.86 2.22 10.02 4.8v-15.839h9.12v43.798h-9.12v-4.62c-2.22 3-5.28 5.22-10.02 5.22-7.5-.001-14.639-5.879-14.639-16.62zm24.779 0v-.12c0-5.34-3.54-8.879-7.8-8.879s-7.86 3.479-7.86 8.879v.12c0 5.34 3.6 8.88 7.86 8.88s7.8-3.54 7.8-8.88z"/><path d="m489.64 1338.94v-.12c0-9.239 7.439-16.739 17.459-16.739 9.96 0 17.339 7.38 17.339 16.619v.12c0 9.24-7.439 16.739-17.459 16.739-9.959.001-17.339-7.379-17.339-16.619zm25.799 0v-.12c0-4.739-3.42-8.88-8.459-8.88-5.22 0-8.34 4.021-8.34 8.76v.12c0 4.74 3.42 8.88 8.459 8.88 5.22 0 8.34-4.019 8.34-8.76z"/><path d="m548.798 1343.5v-20.818h9.12v17.938c0 4.32 2.04 6.54 5.52 6.54s5.7-2.22 5.7-6.54v-17.938h9.12v32.158h-9.12v-4.56c-2.1 2.699-4.8 5.159-9.42 5.159-6.9 0-10.92-4.559-10.92-11.939z"/><path d="m586.418 1322.682h9.119v4.56c2.1-2.7 4.8-5.16 9.42-5.16 6.899 0 10.919 4.56 10.919 11.939v20.819h-9.12v-17.94c0-4.319-2.04-6.539-5.52-6.539s-5.7 2.22-5.7 6.539v17.939h-9.119v-32.157z"/><path d="m621.877 1345.601v-.12c0-7.02 5.339-10.26 12.959-10.26 3.24 0 5.58.54 7.859 1.32v-.54c0-3.78-2.34-5.88-6.899-5.88-3.479 0-5.939.66-8.88 1.739l-2.279-6.959c3.539-1.561 7.02-2.58 12.479-2.58 4.979 0 8.579 1.319 10.859 3.6 2.399 2.4 3.479 5.939 3.479 10.26v18.659h-8.819v-3.479c-2.22 2.46-5.28 4.079-9.72 4.079-6.059-.001-11.038-3.48-11.038-9.839zm20.938-2.101v-1.619c-1.56-.721-3.6-1.2-5.819-1.2-3.9 0-6.3 1.56-6.3 4.439v.12c0 2.46 2.04 3.899 4.979 3.899 4.261.001 7.14-2.339 7.14-5.639z"/></g><g enable-background="new" fill="#ffc425"><path d="m676.769 1338.82v-.12c0-10.739 7.021-16.619 14.64-16.619 4.86 0 7.86 2.22 10.02 4.8v-15.839h9.12v43.798h-9.12v-4.62c-2.22 3-5.279 5.22-10.02 5.22-7.5-.001-14.64-5.879-14.64-16.62zm24.779 0v-.12c0-5.34-3.54-8.879-7.8-8.879s-7.859 3.479-7.859 8.879v.12c0 5.34 3.6 8.88 7.859 8.88s7.8-3.54 7.8-8.88z"/><path d="m717.148 1338.94v-.12c0-9.18 6.539-16.739 15.899-16.739 10.739 0 15.659 8.34 15.659 17.459 0 .721-.061 1.561-.12 2.4h-22.379c.899 4.14 3.779 6.3 7.859 6.3 3.06 0 5.279-.96 7.8-3.3l5.22 4.62c-3 3.72-7.319 5.999-13.14 5.999-9.658.001-16.798-6.779-16.798-16.619zm22.679-2.7c-.54-4.079-2.939-6.84-6.779-6.84-3.78 0-6.24 2.7-6.96 6.84z"/><path d="m755.908 1311.042h9.119v43.798h-9.119z"/><path d="m773.787 1311.042h9.6v8.1h-9.6zm.24 11.64h9.119v32.158h-9.119z"/><path d="m790.166 1338.94v-.12c0-9.18 7.02-16.739 16.859-16.739 6.06 0 9.84 2.04 12.84 5.399l-5.58 6c-2.04-2.16-4.08-3.54-7.319-3.54-4.561 0-7.8 4.021-7.8 8.76v.12c0 4.92 3.18 8.88 8.159 8.88 3.061 0 5.16-1.32 7.38-3.42l5.34 5.399c-3.12 3.42-6.72 5.88-13.14 5.88-9.659.001-16.739-7.439-16.739-16.619z"/><path d="m826.166 1311.042h9.6v8.1h-9.6zm.24 11.64h9.12v32.158h-9.12z"/><path d="m842.546 1338.94v-.12c0-9.239 7.439-16.739 17.459-16.739 9.96 0 17.339 7.38 17.339 16.619v.12c0 9.24-7.439 16.739-17.459 16.739-9.96.001-17.339-7.379-17.339-16.619zm25.799 0v-.12c0-4.739-3.42-8.88-8.46-8.88-5.22 0-8.34 4.021-8.34 8.76v.12c0 4.74 3.42 8.88 8.46 8.88 5.22 0 8.34-4.019 8.34-8.76z"/><path d="m881.425 1350.58 3.899-6c3.479 2.521 7.14 3.84 10.14 3.84 2.64 0 3.84-.96 3.84-2.399v-.12c0-1.98-3.12-2.64-6.66-3.72-4.499-1.32-9.6-3.42-9.6-9.66v-.12c0-6.539 5.28-10.199 11.76-10.199 4.08 0 8.52 1.38 12 3.72l-3.48 6.3c-3.18-1.859-6.359-3-8.699-3-2.22 0-3.36.96-3.36 2.22v.12c0 1.8 3.061 2.641 6.54 3.84 4.5 1.5 9.72 3.66 9.72 9.54v.12c0 7.14-5.34 10.379-12.3 10.379-4.501-.002-9.54-1.502-13.8-4.861z"/><path d="m912.145 1345.601v-.12c0-7.02 5.34-10.26 12.959-10.26 3.24 0 5.58.54 7.86 1.32v-.54c0-3.78-2.34-5.88-6.9-5.88-3.479 0-5.939.66-8.879 1.739l-2.28-6.959c3.54-1.561 7.02-2.58 12.479-2.58 4.979 0 8.58 1.319 10.859 3.6 2.4 2.4 3.48 5.939 3.48 10.26v18.659h-8.82v-3.479c-2.22 2.46-5.279 4.079-9.72 4.079-6.059-.001-11.038-3.48-11.038-9.839zm20.939-2.101v-1.619c-1.561-.721-3.601-1.2-5.82-1.2-3.899 0-6.3 1.56-6.3 4.439v.12c0 2.46 2.04 3.899 4.98 3.899 4.26.001 7.14-2.339 7.14-5.639z"/></g><g enable-background="new"><path d="m230.706 1398.94v-.12c0-9.18 6.54-16.739 15.899-16.739 10.739 0 15.659 8.34 15.659 17.459 0 .721-.06 1.561-.12 2.4h-22.379c.9 4.14 3.78 6.3 7.86 6.3 3.06 0 5.279-.96 7.799-3.3l5.22 4.62c-3 3.72-7.319 5.999-13.139 5.999-9.659.001-16.799-6.779-16.799-16.619zm22.679-2.7c-.54-4.079-2.94-6.84-6.78-6.84-3.78 0-6.24 2.7-6.96 6.84z"/><path d="m275.823 1398.521-10.86-15.839h9.78l6 9.359 6.06-9.359h9.54l-10.859 15.659 11.339 16.499h-9.78l-6.479-10.02-6.48 10.02h-9.54z"/><path d="m302.284 1382.682h9.119v4.619c2.22-3 5.28-5.22 10.02-5.22 7.5 0 14.639 5.88 14.639 16.619v.12c0 10.74-7.02 16.619-14.639 16.619-4.86 0-7.86-2.22-10.02-4.8v13.8h-9.119zm24.658 16.138v-.12c0-5.34-3.6-8.879-7.86-8.879s-7.799 3.539-7.799 8.879v.12c0 5.34 3.54 8.88 7.799 8.88 4.261 0 7.86-3.479 7.86-8.88z"/><path d="m341.223 1398.94v-.12c0-9.18 6.54-16.739 15.899-16.739 10.739 0 15.659 8.34 15.659 17.459 0 .721-.06 1.561-.12 2.4h-22.379c.9 4.14 3.78 6.3 7.859 6.3 3.06 0 5.28-.96 7.8-3.3l5.22 4.62c-3 3.72-7.319 5.999-13.139 5.999-9.659.001-16.799-6.779-16.799-16.619zm22.679-2.7c-.54-4.079-2.939-6.84-6.779-6.84-3.78 0-6.24 2.7-6.96 6.84z"/><path d="m379.562 1382.682h9.12v6.479c1.86-4.44 4.859-7.32 10.259-7.08v9.54h-.48c-6.06 0-9.779 3.659-9.779 11.339v11.88h-9.12z"/><path d="m404.822 1371.042h9.6v8.1h-9.6zm.24 11.64h9.12v32.158h-9.12z"/><path d="m421.202 1398.94v-.12c0-9.18 6.54-16.739 15.899-16.739 10.739 0 15.659 8.34 15.659 17.459 0 .721-.06 1.561-.12 2.4h-22.379c.9 4.14 3.78 6.3 7.859 6.3 3.06 0 5.28-.96 7.8-3.3l5.22 4.62c-3 3.72-7.319 5.999-13.139 5.999-9.66.001-16.799-6.779-16.799-16.619zm22.678-2.7c-.54-4.079-2.939-6.84-6.779-6.84-3.78 0-6.24 2.7-6.96 6.84z"/><path d="m459.541 1382.682h9.12v4.56c2.1-2.7 4.8-5.16 9.419-5.16 6.9 0 10.919 4.56 10.919 11.939v20.819h-9.12v-17.94c0-4.319-2.04-6.539-5.52-6.539s-5.7 2.22-5.7 6.539v17.939h-9.12v-32.157z"/><path d="m495.36 1398.94v-.12c0-9.18 7.02-16.739 16.859-16.739 6.06 0 9.839 2.04 12.839 5.399l-5.58 6c-2.04-2.16-4.08-3.54-7.319-3.54-4.56 0-7.8 4.021-7.8 8.76v.12c0 4.92 3.18 8.88 8.16 8.88 3.06 0 5.16-1.32 7.38-3.42l5.339 5.399c-3.12 3.42-6.72 5.88-13.139 5.88-9.659.001-16.739-7.439-16.739-16.619z"/><path d="m531.36 1371.042h9.6v8.1h-9.6zm.24 11.64h9.12v32.158h-9.12z"/><path d="m547.379 1405.601v-.12c0-7.02 5.339-10.26 12.959-10.26 3.24 0 5.58.54 7.86 1.32v-.54c0-3.78-2.34-5.88-6.9-5.88-3.479 0-5.939.66-8.879 1.739l-2.28-6.959c3.54-1.561 7.02-2.58 12.479-2.58 4.979 0 8.58 1.319 10.859 3.6 2.4 2.4 3.48 5.939 3.48 10.26v18.659h-8.82v-3.479c-2.22 2.46-5.28 4.079-9.72 4.079-6.058-.001-11.038-3.48-11.038-9.839zm20.939-2.101v-1.619c-1.56-.721-3.6-1.2-5.82-1.2-3.9 0-6.3 1.56-6.3 4.439v.12c0 2.46 2.04 3.899 4.98 3.899 4.26.001 7.14-2.339 7.14-5.639z"/><path d="m626.037 1410.22c-2.22 3-5.28 5.22-10.02 5.22-7.5 0-14.639-5.879-14.639-16.619v-.12c0-10.739 7.02-16.619 14.639-16.619 4.86 0 7.859 2.22 10.02 4.8v-4.199h9.119v41.758h-9.119zm.12-11.4v-.12c0-5.34-3.54-8.879-7.8-8.879s-7.86 3.479-7.86 8.879v.12c0 5.34 3.6 8.88 7.86 8.88s7.8-3.54 7.8-8.88z"/><path d="m643.077 1403.5v-20.818h9.12v17.938c0 4.32 2.04 6.54 5.52 6.54s5.7-2.22 5.7-6.54v-17.938h9.119v32.158h-9.119v-4.56c-2.101 2.699-4.8 5.159-9.42 5.159-6.899 0-10.92-4.559-10.92-11.939z"/><path d="m679.137 1398.94v-.12c0-9.18 6.539-16.739 15.899-16.739 10.739 0 15.659 8.34 15.659 17.459 0 .721-.061 1.561-.12 2.4h-22.379c.899 4.14 3.779 6.3 7.859 6.3 3.06 0 5.279-.96 7.8-3.3l5.22 4.62c-3 3.72-7.319 5.999-13.14 5.999-9.659.001-16.798-6.779-16.798-16.619zm22.678-2.7c-.54-4.079-2.939-6.84-6.779-6.84-3.78 0-6.24 2.7-6.96 6.84z"/><path d="m733.915 1398.94v-.12c0-9.18 7.02-16.739 16.859-16.739 6.06 0 9.84 2.04 12.84 5.399l-5.58 6c-2.04-2.16-4.08-3.54-7.319-3.54-4.561 0-7.8 4.021-7.8 8.76v.12c0 4.92 3.18 8.88 8.159 8.88 3.061 0 5.16-1.32 7.38-3.42l5.34 5.399c-3.12 3.42-6.72 5.88-13.14 5.88-9.659.001-16.739-7.439-16.739-16.619z"/><path d="m767.282 1398.94v-.12c0-9.239 7.439-16.739 17.459-16.739 9.96 0 17.339 7.38 17.339 16.619v.12c0 9.24-7.439 16.739-17.459 16.739-9.96.001-17.339-7.379-17.339-16.619zm25.799 0v-.12c0-4.739-3.42-8.88-8.46-8.88-5.22 0-8.34 4.021-8.34 8.76v.12c0 4.74 3.42 8.88 8.46 8.88 5.22 0 8.34-4.019 8.34-8.76z"/><path d="m808.681 1382.682h9.119v4.56c2.101-2.7 4.86-5.16 9.48-5.16 4.199 0 7.379 1.86 9.06 5.1 2.819-3.3 6.18-5.1 10.56-5.1 6.779 0 10.859 4.08 10.859 11.819v20.939h-9.12v-17.94c0-4.319-1.92-6.539-5.34-6.539s-5.52 2.22-5.52 6.539v17.939h-9.119v-17.939c0-4.319-1.92-6.539-5.34-6.539s-5.521 2.22-5.521 6.539v17.939h-9.119v-32.157z"/><path d="m874.8 1410.64v4.2h-9.119v-43.798h9.119v16.259c2.22-3 5.28-5.22 10.02-5.22 7.5 0 14.64 5.88 14.64 16.619v.12c0 10.74-7.02 16.619-14.64 16.619-4.86 0-7.86-2.219-10.02-4.799zm15.54-11.82v-.12c0-5.34-3.601-8.879-7.86-8.879s-7.8 3.539-7.8 8.879v.12c0 5.34 3.54 8.88 7.8 8.88s7.86-3.479 7.86-8.88z"/><path d="m906.359 1371.042h9.6v8.1h-9.6zm.241 11.64h9.119v32.158h-9.119z"/><path d="m924.299 1382.682h9.119v4.56c2.101-2.7 4.8-5.16 9.42-5.16 6.899 0 10.92 4.56 10.92 11.939v20.819h-9.12v-17.94c0-4.319-2.04-6.539-5.52-6.539s-5.7 2.22-5.7 6.539v17.939h-9.119z"/><path d="m959.758 1405.601v-.12c0-7.02 5.34-10.26 12.959-10.26 3.24 0 5.58.54 7.86 1.32v-.54c0-3.78-2.341-5.88-6.9-5.88-3.479 0-5.939.66-8.88 1.739l-2.279-6.959c3.54-1.561 7.02-2.58 12.479-2.58 4.979 0 8.579 1.319 10.859 3.6 2.4 2.4 3.479 5.939 3.479 10.26v18.659h-8.819v-3.479c-2.22 2.46-5.279 4.079-9.72 4.079-6.059-.001-11.038-3.48-11.038-9.839zm20.938-2.101v-1.619c-1.56-.721-3.6-1.2-5.819-1.2-3.899 0-6.3 1.56-6.3 4.439v.12c0 2.46 2.04 3.899 4.979 3.899 4.26.001 7.14-2.339 7.14-5.639z"/></g><g enable-background="new"><path d="m244.267 1458.94v-.12c0-9.18 7.02-16.739 16.859-16.739 6.06 0 9.839 2.04 12.839 5.399l-5.58 6c-2.04-2.16-4.08-3.54-7.319-3.54-4.56 0-7.8 4.021-7.8 8.76v.12c0 4.92 3.18 8.88 8.16 8.88 3.06 0 5.16-1.32 7.38-3.42l5.339 5.399c-3.12 3.42-6.72 5.88-13.139 5.88-9.659.001-16.739-7.439-16.739-16.619z"/><path d="m277.633 1458.94v-.12c0-9.239 7.439-16.739 17.459-16.739 9.96 0 17.339 7.38 17.339 16.619v.12c0 9.24-7.439 16.739-17.459 16.739-9.959.001-17.339-7.379-17.339-16.619zm25.799 0v-.12c0-4.739-3.42-8.88-8.459-8.88-5.22 0-8.34 4.021-8.34 8.76v.12c0 4.74 3.42 8.88 8.459 8.88 5.22 0 8.34-4.019 8.34-8.76z"/><path d="m319.032 1442.682h9.12v4.56c2.1-2.7 4.8-5.16 9.419-5.16 6.9 0 10.919 4.56 10.919 11.939v20.819h-9.12v-17.94c0-4.319-2.04-6.539-5.52-6.539s-5.7 2.22-5.7 6.539v17.939h-9.12v-32.157z"/></g><g enable-background="new" fill="#fff"><path d="m373.744 1458.94v-.12c0-9.18 7.02-16.739 16.859-16.739 6.06 0 9.839 2.04 12.839 5.399l-5.58 6c-2.04-2.16-4.08-3.54-7.319-3.54-4.56 0-7.8 4.021-7.8 8.76v.12c0 4.92 3.18 8.88 8.16 8.88 3.06 0 5.16-1.32 7.38-3.42l5.339 5.399c-3.12 3.42-6.72 5.88-13.139 5.88-9.659.001-16.739-7.439-16.739-16.619z"/><path d="m409.324 1463.5v-20.818h9.12v17.938c0 4.32 2.04 6.54 5.52 6.54 3.479 0 5.7-2.22 5.7-6.54v-17.938h9.12v32.158h-9.12v-4.56c-2.1 2.699-4.8 5.159-9.42 5.159-6.9 0-10.92-4.559-10.92-11.939z"/><path d="m445.023 1465.601v-.12c0-7.02 5.34-10.26 12.96-10.26 3.24 0 5.58.54 7.859 1.32v-.54c0-3.78-2.34-5.88-6.899-5.88-3.48 0-5.94.66-8.88 1.739l-2.28-6.959c3.54-1.561 7.02-2.58 12.479-2.58 4.979 0 8.58 1.319 10.859 3.6 2.4 2.4 3.48 5.939 3.48 10.26v18.659h-8.82v-3.479c-2.22 2.46-5.28 4.079-9.719 4.079-6.059-.001-11.039-3.48-11.039-9.839zm20.939-2.101v-1.619c-1.56-.721-3.6-1.2-5.82-1.2-3.9 0-6.3 1.56-6.3 4.439v.12c0 2.46 2.04 3.899 4.98 3.899 4.261.001 7.14-2.339 7.14-5.639z"/><path d="m482.883 1431.042h9.12v43.798h-9.12z"/><path d="m523.801 1470.22c-2.22 3-5.28 5.22-10.02 5.22-7.5 0-14.639-5.879-14.639-16.619v-.12c0-10.739 7.02-16.619 14.639-16.619 4.86 0 7.86 2.22 10.02 4.8v-4.199h9.12v41.758h-9.12zm.12-11.4v-.12c0-5.34-3.54-8.879-7.8-8.879s-7.86 3.479-7.86 8.879v.12c0 5.34 3.6 8.88 7.86 8.88s7.8-3.54 7.8-8.88z"/><path d="m540.841 1463.5v-20.818h9.12v17.938c0 4.32 2.04 6.54 5.52 6.54 3.479 0 5.7-2.22 5.7-6.54v-17.938h9.12v32.158h-9.12v-4.56c-2.1 2.699-4.8 5.159-9.42 5.159-6.9 0-10.92-4.559-10.92-11.939z"/><path d="m578.64 1431.042h9.6v8.1h-9.6zm.24 11.64h9.12v32.158h-9.12z"/><path d="m595.02 1458.94v-.12c0-9.18 6.54-16.739 15.899-16.739 10.739 0 15.659 8.34 15.659 17.459 0 .721-.061 1.561-.12 2.4h-22.379c.9 4.14 3.78 6.3 7.86 6.3 3.06 0 5.279-.96 7.799-3.3l5.22 4.62c-3 3.72-7.319 5.999-13.139 5.999-9.66.001-16.799-6.779-16.799-16.619zm22.679-2.7c-.54-4.079-2.94-6.84-6.78-6.84-3.78 0-6.24 2.7-6.96 6.84z"/><path d="m633.358 1442.682h9.12v6.479c1.86-4.44 4.859-7.32 10.26-7.08v9.54h-.48c-6.06 0-9.779 3.659-9.779 11.339v11.88h-9.12v-32.158z"/><path d="m676.438 1442.682h9.12v4.56c2.1-2.7 4.859-5.16 9.479-5.16 4.2 0 7.38 1.86 9.06 5.1 2.82-3.3 6.18-5.1 10.56-5.1 6.78 0 10.859 4.08 10.859 11.819v20.939h-9.119v-17.94c0-4.319-1.92-6.539-5.34-6.539s-5.52 2.22-5.52 6.539v17.939h-9.12v-17.939c0-4.319-1.92-6.539-5.34-6.539s-5.52 2.22-5.52 6.539v17.939h-9.12v-32.157z"/><path d="m731.878 1458.94v-.12c0-9.239 7.439-16.739 17.459-16.739 9.96 0 17.34 7.38 17.34 16.619v.12c0 9.24-7.439 16.739-17.459 16.739-9.96.001-17.34-7.379-17.34-16.619zm25.799 0v-.12c0-4.739-3.42-8.88-8.459-8.88-5.221 0-8.34 4.021-8.34 8.76v.12c0 4.74 3.42 8.88 8.459 8.88 5.22 0 8.34-4.019 8.34-8.76z"/><path d="m773.276 1442.682h9.12v4.56c2.1-2.7 4.859-5.16 9.479-5.16 4.2 0 7.38 1.86 9.06 5.1 2.82-3.3 6.18-5.1 10.56-5.1 6.78 0 10.859 4.08 10.859 11.819v20.939h-9.119v-17.94c0-4.319-1.92-6.539-5.34-6.539s-5.52 2.22-5.52 6.539v17.939h-9.12v-17.939c0-4.319-1.92-6.539-5.34-6.539s-5.52 2.22-5.52 6.539v17.939h-9.12v-32.157z"/><path d="m828.717 1458.94v-.12c0-9.18 6.54-16.739 15.899-16.739 10.739 0 15.659 8.34 15.659 17.459 0 .721-.06 1.561-.12 2.4h-22.379c.9 4.14 3.78 6.3 7.859 6.3 3.061 0 5.28-.96 7.8-3.3l5.22 4.62c-2.999 3.72-7.319 5.999-13.139 5.999-9.66.001-16.799-6.779-16.799-16.619zm22.679-2.7c-.539-4.079-2.939-6.84-6.779-6.84-3.78 0-6.239 2.7-6.96 6.84z"/><path d="m867.056 1442.682h9.12v4.56c2.1-2.7 4.8-5.16 9.42-5.16 6.899 0 10.919 4.56 10.919 11.939v20.819h-9.119v-17.94c0-4.319-2.04-6.539-5.52-6.539s-5.7 2.22-5.7 6.539v17.939h-9.12z"/><path d="m905.936 1465.721v-15.24h-3.84v-7.799h3.84v-8.22h9.119v8.22h7.561v7.799h-7.561v13.74c0 2.1.9 3.119 2.94 3.119 1.68 0 3.18-.42 4.5-1.14v7.319c-1.92 1.141-4.141 1.86-7.2 1.86-5.58.001-9.359-2.219-9.359-9.658z"/><path d="m926.882 1458.94v-.12c0-9.239 7.439-16.739 17.459-16.739 9.96 0 17.339 7.38 17.339 16.619v.12c0 9.24-7.439 16.739-17.459 16.739-9.96.001-17.339-7.379-17.339-16.619zm25.799 0v-.12c0-4.739-3.42-8.88-8.46-8.88-5.22 0-8.34 4.021-8.34 8.76v.12c0 4.74 3.42 8.88 8.46 8.88 5.22 0 8.34-4.019 8.34-8.76z"/><path d="m966.72 1465.24h9.72v9.6h-9.72z"/></g></svg>