<?xml version="1.0" encoding="utf-8"?>
<!-- Generator: Adobe Illustrator 21.0.0, SVG Export Plug-In . SVG Version: 6.00 Build 0)  -->
<svg version="1.1" id="Layer_1" xmlns="http://www.w3.org/2000/svg" xmlns:xlink="http://www.w3.org/1999/xlink" x="0px" y="0px"
	 viewBox="0 0 30 25" style="enable-background:new 0 0 30 25;" xml:space="preserve">
<style type="text/css">
	.st0{fill:#69BE5A;}
</style>
<g>
	<path class="st0" d="M19,24.3c-6.6,1-13.9-3.2-16.1-9.6C0.4,7.8,0.8,3,7.9,1.2S26.8,1,28.6,8.2C30.1,14,24.9,23.4,19,24.3z"/>
	<path d="M17.1,24.6c-6.2,0-12.4-4.1-14.4-9.9C1,10.3,0.9,7.1,2.1,4.9C3,3,5,1.8,7.9,1c3.8-1,8.5-0.9,12.4,0.1
		c4.6,1.2,7.7,3.7,8.5,7c0.8,3.1-0.3,7.5-2.7,11.1c-2,3-4.6,4.9-7.1,5.3l0,0C18.4,24.6,17.7,24.6,17.1,24.6z M13.8,0.8
		c-2,0-4,0.2-5.8,0.7C5.2,2.1,3.3,3.3,2.4,5.1c-1.1,2.1-1,5.2,0.6,9.5c2.2,6.2,9.3,10.5,15.9,9.5l0,0c2.4-0.4,4.9-2.2,6.8-5.1
		c2.4-3.5,3.4-7.8,2.6-10.8C27.1,3,20.2,0.8,13.8,0.8z"/>
</g>
</svg>
