<?xml version="1.0" encoding="utf-8"?>
<!-- Generator: Adobe Illustrator 21.0.0, SVG Export Plug-In . SVG Version: 6.00 Build 0)  -->
<svg version="1.1" id="Layer_1" xmlns="http://www.w3.org/2000/svg" xmlns:xlink="http://www.w3.org/1999/xlink" x="0px" y="0px"
	 viewBox="0 0 30 25" style="enable-background:new 0 0 30 25;" xml:space="preserve">
<style type="text/css">
	.st0{fill:#D33A49;}
</style>
<g>
	<g>
		<g>
			<path class="st0" d="M18.1,24.7C18,24.7,18,24.7,18.1,24.7C18,24.7,18.1,24.7,18.1,24.7z"/>
			<path class="st0" d="M18.3,24.7c0.1,0,0.2,0,0.2,0c0.2,0,0.3,0,0.3,0s0,0-0.1-0.1c0.1,0,0.1,0,0.2,0c0.4,0,0.8-0.1,0.7-0.1
				c-0.1,0-0.1,0-0.1,0l0,0c0,0,0.1,0,0-0.1l0,0l0,0c0.5,0.1,0.8,0.1,1,0.1c0.3,0,0.5,0,0.9-0.1l0,0c1-0.2,2-0.6,2.6-1.2
				c0.3-0.3,0.7-0.5,0.9-0.8c0.3-0.3,0.5-0.6,0.7-0.9c0.9-1.2,1.4-2.5,1.8-3.7c0.1-0.2,0.1-0.4,0.2-0.6s0.1-0.4,0.2-0.6
				c0.1-0.4,0.3-0.9,0.4-1.3c0.3-0.9,0.5-1.8,0.6-2.7c0.1-1,0.2-2,0.2-3s-0.2-2-0.5-2.8c-0.1-0.2-0.1-0.4-0.1-0.6s0-0.3-0.1-0.5
				c-0.4-0.8-0.9-1.6-1.7-2.4c-0.4-0.4-0.9-0.8-1.4-1.1c-0.3-0.2-0.5-0.3-0.8-0.4c-0.1-0.1-0.3-0.1-0.4-0.2s-0.3-0.1-0.4-0.2h0.1
				c-0.3-0.1-0.6-0.2-0.9-0.3c-0.2,0-0.5-0.1-0.8-0.2c-0.6-0.1-1.1-0.2-1.7-0.3c0,0-0.2,0-0.3,0c-0.1-0.1-2-0.1-3.8,0.1
				s-3.5,0.6-3.7,0.6c-0.1,0-0.2,0.1-0.4,0.1c-0.3,0.1-0.6,0.1-0.9,0.2c-0.3,0.1-0.6,0.1-1,0.2L9.8,2C9.6,2,9.4,2,9.3,2.1
				C9,2.2,8.7,2.3,8.4,2.4c-1.2,0.5-2.2,1.1-3,1.8c-0.3,0.3-0.6,0.7-0.7,1c-0.1,0-0.2,0.1-0.2,0.2C4.4,5.5,4.4,5.6,4.2,5.7
				C3.7,6,3.4,6.3,3.3,6.5c-0.1,0.2-0.1,0.2,0.2,0C3.4,6.7,3.3,6.8,3.1,7C3,7.1,2.9,7.3,2.8,7.5C2.7,7.6,2.6,7.8,2.5,7.9
				C2.4,8.1,2.3,8.3,2.3,8.4C2.1,8.7,2,9,1.9,9.3C1.8,9.5,1.7,9.6,1.6,9.7c-0.2,0.6-0.2,0.4-0.5,1.1C1,10.9,1,11,1,11.2
				s-0.1,0.4-0.1,0.6c0,0.2,0,0.4,0,0.6c0,0.2,0,0.3,0,0.4v-0.1c0,0.2-0.1,0.4-0.1,0.6c0,0.2-0.1,0.3-0.1,0.5s-0.1,0.3-0.1,0.5
				s-0.1,0.4,0,0.6c0,1.1,0.4,2.3,1,3.4c0.7,1.1,1.6,2.1,2.7,2.8c0.1-0.1-0.5-0.3-0.4-0.4c1.2,0.9,2.5,1.7,4.1,2.2c0,0,0,0,0.1,0.1
				c0.1,0,0.1,0.1,0.2,0.1c0.1,0.1,0.2,0.1,0.3,0.1C8.9,23.3,9,23.3,9,23.3c0.1,0,0.1,0,0.3,0v0.1c0.5,0,0.7,0.3,1.2,0.3
				c0,0,0.2,0,0.4,0c0,0.1,0.5,0.1,0.5,0.2l0,0c0.1,0,0.2,0,0.3,0.1c0.1,0,0.6,0,1.2,0c0.5,0,1.1,0,1.2,0h0.1c0.3,0,0.4,0,0.3-0.1
				l0.3,0.1l0,0l0.3,0.1c0.1,0,0.1,0.1,0,0.1c0.2,0,0.4,0,0.6,0.1c-0.5-0.1-1.2-0.3-1.7-0.5c0.2,0,0.6,0.1,0.9,0.2
				c0.3,0.1,0.9,0.3,1.4,0.4c0.1,0,0.2-0.1,0.4,0c0.1,0.1,0.3,0,0.5,0.1c-0.2,0-0.5,0-0.7-0.1c0,0.1,0.6,0.1,0.7,0.2
				c0.1,0,0.6,0.1,0.9,0.1C18,24.7,18.1,24.7,18.3,24.7L18.3,24.7L18.3,24.7z M18.4,24.6c-0.1,0-0.2,0-0.2-0.1c0,0,0,0-0.1,0H18
				C18.1,24.5,18.2,24.5,18.4,24.6c-0.1-0.1-0.1-0.1-0.1-0.1c0.1,0,0.5,0,0.7,0.1c0,0-0.1,0-0.1-0.1c0.1,0,0.1,0,0.2,0h0.1h0.1
				c0.1,0,0.1,0,0.2,0h0.1c0,0-0.1,0-0.2,0c0.2,0-0.3,0.1-0.7,0.1C18.6,24.6,18.5,24.6,18.4,24.6z"/>
			<path class="st0" d="M18.3,24.5C18.2,24.5,18.2,24.5,18.3,24.5C18.2,24.5,18.3,24.5,18.3,24.5L18.3,24.5z"/>
			<path class="st0" d="M18.3,24.7L18.3,24.7c-0.1,0-0.1,0-0.2,0C18.2,24.7,18.2,24.7,18.3,24.7L18.3,24.7z"/>
		</g>
	</g>
</g>
</svg>
