<svg viewBox="0 0 440.994 346.404" xmlns="http://www.w3.org/2000/svg"><path d="m76.722 167.704c-.607 2.318.415 4.532.723 6.777.83 6.052 2.074 12.043 2.645 18.138.192 2.047.665 4.078 1.148 6.083.586 2.434-.451 4.253-2.83 4.775-1.515.333-2.964.459-4.455-.222-1.86-.85-2.623-1.664-2.462-3.693.468-5.885-.478-11.649-1.3-17.426-.784-5.517-1.618-11.027-2.47-16.534-.194-1.254-.887-10.768-.686-12.038.362-2.292 1.435-3.521 3.681-3.462 2.63.068 4.412.84 5.276 3.148.823 2.198 1.993 3.214 3.229 4.558 3.839 4.176 6.816 8.962 10.109 13.527 3.25 4.505 6.482 9.024 9.829 13.456.948 1.254 2.272 2.224 3.535 3.429 1.024-.906 1-1.948.933-3.011-.503-7.991-1.354-15.942-2.479-23.871-.312-2.201-.663-4.424-.469-6.702.294-3.453 2.56-4.993 5.903-3.816 2.669.939 3.252 1.478 2.944 4.051-.61 5.092.443 10.052 1.048 15.02.87 7.149 1.367 14.323 1.992 21.489.15 1.715.545 3.371.789 5.06.366 2.538-1.381 4.984-3.95 4.823-2.296-.145-4.477-1.094-5.915-1.946-1.221-.724-4.44-2.96-4.987-3.89-1.661-2.825-4.511-4.592-6.351-7.26-1.929-2.797-3.933-5.544-5.936-8.289-1.692-2.319-3.466-4.579-5.137-6.912-1.043-1.456-1.935-3.02-2.955-4.494-.272-.395-.572-.954-1.402-.768z" fill="#aa2335"/><path d="m178.01 24.292c-2.283 1.848-3.511 4.336-5.521 6.142-.994.893-4.728.93-5.443.968-1.31.069-2.464-.575-2.914-1.571-.883-1.954-9.055-8.398-10.47-8.518-.569 1.088-.319 2.153-.181 3.193.677 5.074 1.199 10.172 2.365 15.172.719 3.081.464 6.267.904 9.388.275 1.952.346 3.922.752 5.874.572 2.75-.686 4.092-3.499 3.952-1.158-.057-2.339-.157-3.454-.449-1.057-.277-1.966-.916-2.145-2.154-.128-.886-.356-1.786-.301-2.665.419-6.616-.791-13.089-1.801-19.56-.613-3.923-.529-7.875-1.01-11.795-.566-4.614-.198-9.336-1.642-13.853-.368-1.151-.172-2.311.303-3.418 1.008-2.349 3.957-2.941 5.646-1.071 1.01 1.118 2.067 2.213 2.388 3.818.35 1.752 10.828 10.996 11.096 11.344 1.853 2.403 3.989 2.496 6.118.363 2.361-2.365 3.006-3.994 5.185-6.504.879-1.013 1.722-2.027 2.373-3.242 1.059-1.976 3.101-2.308 5.062-1.096 2.223 1.373 2.888 3.63 3.208 5.944.491 3.544.639 7.135 1.114 10.682.309 2.304.788 4.612 1.462 6.835.939 3.096 1.516 6.281 2.461 9.366.734 2.395 1.422 4.806 2.939 6.911.944 1.31 1.347 2.916 1.132 4.588-.152 1.183.133 2.328.265 3.486.128 1.123.085 2.184-1.019 2.842-.888.529-3.014.305-3.796-.471-.633-.628-1.255-1.323-1.672-2.101-.979-1.826-4.896-14.214-5.892-17.804-1.057-3.808-1.894-7.653-2.798-11.49-.237-1.014-.235-2.161-1.215-3.106z" fill="#f39f4e"/><path d="m3.783 81.117c-4.007-1.797-4.279-2.276-3.318-5.663 1.559-.65 3.271-.739 4.945-.697 5.324.131 10.595.838 15.454 3.097 3.626 1.686 7.084 3.761 9.782 6.862.989 1.137 2.187 2.036 3.008 3.388 1.803 2.968 2.324 6.287 2.433 9.559.215 6.473-.164 12.999-3.027 18.947-2.656 5.519-6.442 9.92-13.229 10.459-2.118.168-4.157.948-6.342.94-3.138-.012-5.041-2.016-4.579-5.148.174-1.178.179-2.343.002-3.493-.545-3.545-.998-7.116-1.776-10.612-1.925-8.641-2.222-17.464-3.162-26.215-.047-.445-.118-.884-.191-1.424zm14.064 39.04c1.259.042 2.151-.37 2.773-1.199 2.627-3.505 4.807-7.105 5.696-11.609 1.109-5.615 1.267-10.999-.665-16.402-.39-1.091-.654-2.267-1.523-3.079-1.892-1.769-3.682-3.755-6.086-4.783-1.643-.702-3.115-2.171-5.139-1.77-1.07 4.109 2.601 32.862 4.944 38.842z" fill="#f39f4e"/><path d="m125.962 97.047c2.512-.432 3.475-2.512 4.717-4.191 1.424-1.926 2.671-4.011 3.486-6.262.62-1.715 1.971-2.658 3.343-3.331 2.913-1.429 5.922-.204 6.434 3.318.49 3.367.992 6.735 1.44 10.107.569 4.288 1.772 8.425 2.663 12.634.853 4.025 2.014 7.984 2.968 11.989.271 1.14.513 2.215 1.168 3.25.861 1.36 1.07 3.136-.008 4.306-1.139 1.236-2.51 2.42-4.682 1.961-3.863-.815-5.053-1.637-4.875-5.396.328-6.952-1.781-13.454-3.153-20.101-.453-2.196-.917-4.39-1.391-6.582-.093-.428-.161-.9-.668-1.089-.593.139-.843.651-1.109 1.098-1.569 2.639-3.852 4.421-6.575 5.768-1.858.918-3.64.735-5.306-.21-1.759-.998-3.591-1.896-5.206-3.377-.793 1.002-.62 1.971-.486 2.907.917 6.391 1.261 12.865 2.853 19.161.495 1.958-.515 3.561-2.438 4.237-2.016.709-3.895-.098-5.751-.709-.577-.19-.761-.959-.945-1.57-.371-1.229-.368-2.5-.3-3.75.26-4.781-.399-9.492-.872-14.229-.509-5.102-1.523-10.123-2.158-15.201-.19-1.522-.459-3.018-.922-4.483-.505-1.598-.293-3.233 1.088-4.138 1.304-.854 2.947-.654 4.342.198.606.37 1.372.792 1.621 1.379 1.101 2.593 3.751 3.841 5.14 6.164 1.447 2.421 3.812 4.007 5.582 6.142z" fill="#fff"/><path d="m281.072 179.588c-1.797.52-3.385.782-4.991.976-2.525.305-3.024.917-2.825 3.534.253 3.317.495 6.59 3.052 9.239.85.881 1.338 2.281 1.615 3.629.422 2.061-.148 3.798-1.736 5.063-1.637 1.304-3.462 1.169-5.309.247-1.188-.593-2.194-1.45-2.589-2.616-.742-2.189-2.006-4.207-2.233-6.567-.524-5.452-1.249-10.878-2.121-16.284-.685-4.25-1.433-8.491-2.184-12.73-.108-.609-.368-1.195-.588-1.779-.851-2.26-.448-4.039 1.772-4.903 2.994-1.166 5.575-3.157 8.748-3.96 4.603-1.165 9.004-1.223 13.129 1.474 2.463 1.61 5.091 3.024 6.61 5.745.361.647.657 1.271.687 2.005.135 3.36.02 6.662-2.296 9.423-1.51 1.8-1.845 3.566-.888 5.929.889 2.195 1.017 4.694 1.759 7.02 1.212 3.8 2.829 7.359 5.237 10.535 1.293 1.705 1.734 3.501.89 5.517-.85 2.03-2.224 2.673-4.322 1.919-3-1.078-5.056-3.238-5.637-6.311-.742-3.927-2.727-7.377-3.788-11.167-.336-1.201-.9-2.342-1.011-3.608-.072-.831-.401-1.537-.981-2.33zm-10.543-11.833c.174 1.134.383 2.459.58 3.785.397 2.667 1.86 3.644 4.527 2.915.766-.21 1.486-.631 2.19-1.022 2.554-1.418 3.917-3.784 5.189-6.304 2.254-4.468-.645-7.453-5.094-8.18-2.032-.332-3.618.711-5.368 1.258-1.926.602-2.689 1.886-2.487 3.894.116 1.158.648 2.256.463 3.654z" fill="#aa2335"/><path d="m356.976 31.869c-1.046.627-1.995 1.133-2.877 1.736-1.61 1.1-2.438 2.532-2.036 4.595.549 2.815.976 5.656 1.926 8.375.653 1.868.647 3.883 1.407 5.743.48 1.174-.211 2.099-1.301 2.625-2.014.972-3.991.836-5.894-.33-.827-.507-1.183-1.28-1.348-2.223-1.205-6.892-2.483-13.771-3.651-20.67-1.183-6.991-2.278-13.996-3.998-20.883-.022-.087-.049-.174-.061-.263-.189-1.363-.412-2.974.815-3.746 1.24-.779 2.827-.989 4.277.1 1.156.868 2.465.956 3.808.248.71-.374 1.487-.624 2.241-.91 4.288-1.628 8.61-.988 11.936 1.679 3.424 2.744 5.592 6.767 5.426 11.495-.064 1.833-.879 3.524-2.127 4.851-1.929 2.051-1.747 4.196-.51 6.391 2.817 4.997 5.319 10.168 8.358 15.043.74 1.186 1.639 2.212 2.805 2.829 1.408.745 2.392 1.884 3.406 2.994 1.322 1.447 1.178 2.295-.385 3.596-.62.516-1.276.987-1.934 1.492-.667.265-1.148-.53-1.765-.39-2.026.457-3.06-.881-4.258-2.13-4.427-4.616-6.929-10.448-10.108-15.848-.764-1.298-1.187-2.796-1.786-4.194-.437-1.021-1.066-1.866-2.366-2.205zm-6.361-4.123c1.498-.618 2.883-1.602 4.223-2.594 2.222-1.645 3.597-3.945 4.378-6.568 1.015-3.412-.473-5.943-3.894-6.985-1.572-.479-2.946-.198-4.373.486-3.173 1.52-3.595 2.124-2.863 5.58.574 2.707 1.295 5.377 1.511 8.153.051.668.153 1.437 1.018 1.928z" fill="#f39f4e"/><path d="m84.961 51.446c-3.573 1.043-6.915-.888-10.401-1.925-1.016-.302-1.733-1.121-2.348-2.092-2.091-3.301-3.402-6.894-4.373-10.642-.225-.868-.404-1.797-.853-2.549-1.934-3.233-1.985-6.836-2.207-10.413-.022-.356.14-.74.06-1.073-.935-3.887.796-7.378 1.511-11.037.551-2.822 2.654-3.743 4.812-4.389 1.154-.345 2.122-.75 3.072-1.434 1.821-1.311 3.712-2.516 5.96-2.986 2.468-.515 4.689-.23 6.914 1.231 2.49 1.636 4.78 3.367 6.759 5.632.917 1.05 1.046 2.229 1.58 3.324 1.948 3.99 3.064 8.279 3.801 12.597 1.105 6.472.548 12.883-1.98 19.041-.282.687-.593 1.325-1.144 1.793-2.572 2.183-6.143 5.459-11.163 4.922zm5.549-23.282c.222-3.111-.595-6.092-1.267-9.046-.571-2.508-1.206-5.045-2.475-7.375-1.777-3.261-3.943-4.045-7.226-2.394-.479.241-.985.447-1.499.595-.944.273-1.572.911-1.907 1.766-2.509 6.397-3.895 12.857-.986 19.538.245.563.319 1.204.452 1.813.787 3.602 1.86 7.107 3.751 10.3 1.563 2.639 4.913 3.15 6.828.806 1.208-1.478 2.452-3 3.181-4.911 1.387-3.635 1.595-7.318 1.148-11.092z" fill="#f39f4e"/><path d="m165.858 198.72c.146 1.455-.587 2.722-1.874 3.383-2.795 1.435-6.49.436-8.098-2.535-1.549-2.863-3.801-4.633-6.925-4.792-2.052-.104-4.091-.437-6.152-.406-.806.012-1.627-.206-2.418-.117-3.139.354-4.051 1.564-3.554 3.858.093.43.072.897.031 1.34-.232 2.47-1.167 3.733-3.002 4.255-2.49.708-4.768.844-6.485-1.635-.795-1.148-1.064-2.3-.485-3.535 2.098-4.472 2.418-9.348 3.217-14.104 1.457-8.663 3.106-17.28 5.426-25.757.571-2.084 2.144-3.195 4.419-3.303 1.933-.092 3.825.92 4.272 2.883 1.664 7.309 6.126 13.298 9.282 19.888 2.033 4.245 5.06 8.012 7.606 12.016 1.346 2.116 2.636 4.269 3.907 6.431.404.689.803 1.411.833 2.13zm-15.879-9.99c.434-1.897-.555-3.172-1.373-4.375-1.468-2.159-2.542-4.51-3.783-6.783-1.088-1.993-1.75-4.227-3.346-6.385-1.584 4.895-2.169 9.591-2.712 14.293-.105.907.413 1.387 1.129 1.929 1.267.959 2.735.793 4.102.963 1.962.243 3.96.678 5.983.358z" fill="#aa2335"/><path d="m231.567 198.679c4.067-2.839 6.921-6.005 7.477-10.73.284-2.412.601-4.881.083-7.257-.677-3.103-.703-6.25-1.049-9.373-.27-2.429-.806-4.741-1.845-6.986-.93-2.009-1.902-4.133-.018-6.277 1.103-1.256 3.986-1.824 5.313-.762 2.08 1.664 3.663 3.545 3.847 6.478.479 7.619 2.285 15.107 2.329 22.78.021 3.593-.92 6.93-2.481 10.111-.814 1.658-2.371 2.694-3.699 3.873-3.139 2.785-6.625 4.909-11.05 4.836-.442-.007-.869.121-1.31-.086-3.069-1.443-5.653-3.313-7.101-6.594-1.803-4.084-2.349-8.48-3.451-12.73-1.423-5.486-1.421-11.215-2.354-16.795-.607-3.63.366-7.148.727-10.706.15-1.479 1.009-2.304 2.633-2.563 3.614-.577 6.217 1.668 5.861 5.272-.229 2.324-.54 4.636-.564 6.982-.038 3.804.857 7.484 1.298 11.223.579 4.915 2.514 9.522 3.051 14.435.192 1.764 1.582 2.963 2.303 4.869z" fill="#aa2335"/><path d="m304.442 46.789c-1.636-4.35-4.198-8.385-4.945-13.024-.724-4.495-1.758-8.99-1.175-13.621.19-1.51.16-3.052.163-4.58.007-3.545 1.424-6.427 3.984-8.819.5-.467 1.091-.579 1.685-.769 2.672-.855 5.324-1.13 8.165-.663 4.421.727 6.53 3.777 8.082 7.408 1.439 3.368 3.007 6.759 3.814 10.3 1.195 3.809 3.219 11.174 3.015 20.732-.024 4.254-1.955 8.473-8.151 8.931-3.146.232-9.903 1.667-14.637-5.895zm13.636-9.512c.055-2.16.001-4.3-.449-6.432-.535-2.53-1.041-5.081-1.439-7.625-.55-3.513-2.031-6.675-3.102-9.988-.299-.925-1.023-1.674-1.871-2.237-1.78-1.183-3.62-.72-4.395 1.246-.556 1.411-.907 2.895-.851 4.461.073 2.06.203 4.14.008 6.182-.166 1.74.832 7.337.991 8.495.486 3.556 1.449 7.012 3.081 10.199.922 1.802 2.149 3.514 3.798 4.792 1.307 1.013 2.106.887 3.263-.284 1.104-1.117 1.32-2.519 1.274-3.976-.051-1.612-.201-3.222-.308-4.833z" fill="#f39f4e"/><path d="m333.599 188.792c-3.946 1.32-7.84.516-11.614.928-1.014.967-1.348 2.168-1.509 3.429-.137 1.069-.26 2.144-.305 3.219-.071 1.696-.357 3.183-2.238 3.867-2.094.761-3.924.254-5.51-1.101-1.275-1.09-1.446-2.544-.976-4.17.623-2.154 1.532-4.339 1.385-6.564-.164-2.481.674-4.621 1.203-6.927 1.404-6.117 2.857-12.246 3.386-18.529.196-2.324.965-4.551.89-6.937-.057-1.828 2.343-3.555 4.447-3.403 2.103.152 3.719 1.055 4.628 3.115 2.462 5.577 5.302 11.01 7.398 16.718 1.771 4.823 4.295 9.257 6.239 13.971.942 2.284 2.575 4.092 4.129 5.947 1.535 1.832 1.695 3.688.378 5.303-1.158 1.419-4.356 1.858-5.917.806-1.654-1.114-2.98-2.302-3.228-4.583-.201-1.845-1.448-3.435-2.786-5.089zm-11.084-5.283c2.179.487 3.87.21 5.551.099 1.965-.13 2.536-.804 2.289-2.716-.102-.786-.396-1.554-.656-2.311-1.024-2.986-3.167-5.421-4.254-8.509-1.67 4.323-2.323 8.786-2.93 13.437z" fill="#aa2335"/><path d="m323.088 83.36c2.98-1.896 5.678-.877 8.504.293 3.216 1.332 5.433 3.637 7.169 6.477.977 1.598 2.104 3.088 3.056 4.71 2.153 3.664 3.045 7.612 3.28 11.778.172 3.042.637 6.085.006 9.124-.718 3.455-1.68 6.74-4.57 9.181-2.145 1.812-4.432 2.597-7.176 2.074-1.582-.301-3.155-.684-4.751-.869-1.44-.167-2.4-1.199-3.508-1.857-3.897-2.312-7.301-5.37-9.171-9.513-1.713-3.798-2.903-7.856-2.607-12.205.176-2.584-.094-5.196-.107-7.795-.015-2.869.012-5.738 1.103-8.47.403-1.009.898-1.934 1.658-2.735 2.484-2.613 4.106-2.715 7.114-.193zm14.26 22.349c-.676-6.831-3.673-12.156-7.821-16.911-.803-.921-1.89-1.306-3.112-.372-.773.59-1.681 1.03-2.577 1.428-2.93 1.301-3.025 1.528-3.06 4.832-.032 3.061.379 6.104.358 9.15-.038 5.608 2.092 10.299 5.699 14.396 1.573 1.787 3.788 2.55 6.087 2.284 1.988-.23 2.38-2.252 3.064-3.781 1.639-3.664.822-7.625 1.362-11.026z" fill="#fff"/><path d="m214.305 97.048c.962-.999 1.217-2.154 1.579-3.224 1.006-2.972 1.968-5.959 2.892-8.958.819-2.659 2.572-3.593 5.12-2.642 4.139 1.544 4.167 1.915 2.45 6.058-1.916 4.624-3.676 9.32-5.135 14.118-.209.687-.392 1.389-.68 2.043-1.061 2.408-.928 4.663.566 6.889 1.837 2.737 3.654 5.416 6.405 7.415 2.37 1.723 3.807 4.287 4.5 7.119.553 2.259-.065 3.7-1.362 4.226-2.004.813-4.485.346-5.651-1.217-2.078-2.785-4.126-5.597-6.067-8.478-.581-.863-1.245-1.489-2.203-2.044-1.339 1.069-1.261 2.699-1.446 4.114-.152 1.16-.279 2.321-.62 3.429-.784 2.546-2.774 3.446-5.24 2.453-.499-.201-1.017-.357-1.509-.572-2.27-.992-3.033-3.141-1.664-5.283.946-1.479 1.492-3.101 1.903-4.718.662-2.61 1.457-5.172 2.218-7.749.516-1.747.409-3.304-.399-5.143-1.649-3.752-3.537-7.39-5.141-11.158-.818-1.923-2.343-3.364-3.324-5.176-.701-1.295-1.181-2.606-1.246-4.071-.094-2.109 1.659-3.456 3.51-2.558 1.769.858 3.059 2.227 4.209 3.907 1.822 2.659 3.297 5.478 4.768 8.318.481.928.994 1.842 1.567 2.902z" fill="#fff"/><path d="m220.705 30.572c2.133.049 4.313-.672 6.55-.52.446.03.91-.08 1.343-.002 1.211.219 1.662 1.15.964 2.177-.758 1.117-1.707 2.084-3.012 2.613-.993.403-1.979.825-2.962 1.251-1.404.608-2.198 1.613-1.995 3.094.62 4.535 1.261 9.075 2.617 13.469.101.328.359.607.611 1.019 2.634.08 5.101-.756 7.489-1.701 3.402-1.345 6.988-1.552 10.535-2.002 1.043-.132 2.918 1.537 3.19 2.56.296 1.113-.846 2.66-2.344 2.761-5.613.376-10.678 2.784-16.016 4.169-2.272.59-4.573.949-6.926.86-2.664-.1-4.045-1.502-4.128-4.133-.06-1.889-.314-3.745-.675-5.608-1.759-9.075-3.189-18.2-4.123-27.404-.38-3.746-1.053-7.462-1.605-11.189-.193-1.301-.061-2.499.874-3.522.911-.996 2.013-1.583 3.354-1.259 2.439.589 4.799.192 7.192-.279 2.187-.43 4.414-.651 6.607-1.054 1.589-.292 2.817.42 3.966 1.285 1.06.798.909 1.786-.292 2.515-1.16.705-2.378 1.318-3.766 1.336-2.454.032-4.774.759-7.129 1.295-1.818.414-2.165.847-2.215 2.737-.04 1.53.204 3.042.391 4.56.384 3.117.654 6.248.973 9.373.05.525-.011 1.086.532 1.599z" fill="#f39f4e"/><path d="m60.579 109.08c-.678 1.098-.756 2.003-.668 2.898.273 2.759.144 5.571.947 8.261.576 1.929.951 2.186 2.935 1.726 3.315-.769 6.597-1.68 9.899-2.508 2.449-.615 4.32.263 5.011 2.31.563 1.667.208 2.488-1.499 3.078-2.115.732-4.231 1.478-6.462 1.812-.531.079-1.093.159-1.564.393-3.682 1.836-7.661 1.51-11.575 1.616-2.318.063-3.855-1.363-4.486-3.689-.808-2.979-.772-6.034-.971-9.058-.301-4.556-.188-9.145-.609-13.687-.339-3.658-.937-7.295-1.082-10.978-.066-1.674-1.117-3.004-1.74-4.462-1.113-2.606-.064-5.126 3.487-5.157 4.377-.038 8.706-.933 12.943-2.01 2.283-.581 4.025.002 5.734 1.344 1.627 1.278 1.437 3.136-.498 3.909-.726.29-1.58.292-2.38.356-2.506.198-5.015.357-7.4 1.267-2.668 1.018-3.244 2.007-2.626 4.718.682 2.986.997 6.02 1.298 9.06.24 2.421.812 3.109 3.236 2.841 2.214-.245 3.79.816 5.476 1.797.634.369 1.129.947.915 1.784-.193.755-.717 1.114-1.475 1.381-2.214.779-4.542.751-6.846.998z" fill="#f39f4e"/><path d="m273.628 58.268c-.905.27-2.086-.181-3.089-.477-3.2-.945-5.514-3.099-7.278-5.816-1.382-2.129-.759-3.807 1.36-4.737 1.151-.505 1.874-.07 2.618.677.869.873 1.637 1.91 3.097 2.106.588-1.132.605-2.187.382-3.387-.835-4.493-4.047-26.456-6.199-30.689-.805-1.583-.767-3.525-2.005-4.96-1.242.004-2.362.492-3.257 1.169-1.622 1.226-3.317 1.06-5.117.791-1.345-.201-2.097-.793-2.167-2.245-.065-1.352.38-2.2 1.699-2.682 3.028-1.109 6.105-2.103 8.991-3.567 1.021-.518 2.239-.715 3.124-.256 2.911 1.511 8.363-1.472 12.786-.961.887.102 1.756.354 2.635.528 1.134.224 1.886.836 1.943 2.047.054 1.163-.611 1.91-1.576 2.444-1.558.862-3.245.636-4.911.592-3.527-.093-6.098 1.751-5.195 4.103 1.06 2.76 7.252 23.071 8.801 29.633.35 1.481.45 6.38.352 7.51-.234 2.678-4.379 7.396-6.994 8.177z" fill="#f39f4e"/><path d="m382.047 102.947c3.422-1.559 6.382-.112 9.414.423.561.099 1.156.52 1.316 1.422-.9 1.48-2.613 1.786-4.137 2.384-.15.059-.362-.058-.533-.027-4.228.762-5.454 2.563-4.552 6.766.376 1.751.908 3.458 1.208 5.239.383 2.28 1.191 2.598 3.417 2.149 2.172-.439 4.339-.87 6.574-1.045 1.909-.149 3.881-.564 5.573-1.664 1.26-.819 2.687-.903 3.796-.059 1.109.843 1.344 2.333 1.07 3.693-.282 1.397-1.103 2.496-2.653 2.691-3.11.39-6.157 1.172-9.302 1.366-3.14.194-6.188.996-9.212 1.811-2.473.666-4.244.291-5.817-1.524-.652-.752-.682-1.669-.585-2.555.24-2.172-.052-4.236-.575-6.37-1.56-6.368-2.618-12.837-3.354-19.356-.261-2.313-.732-4.581-.754-6.948-.024-2.577.706-4.964 1.171-7.416.247-1.305 1.338-2.352 2.612-2.388 3.991-.115 7.744-1.556 11.683-1.871.623-.05 1.255-.027 1.881 0 2.321.102 3.289 1.044 3.348 3.233.039 1.458-1.009 2.374-3.078 2.686-1.953.294-3.904.601-5.86.873-3.055.426-4.877 2.158-4.716 5.174.197 3.652.91 7.265 2.065 11.313z" fill="#f39f4e"/><path d="m430.432 129.171c-2.583.604-4.474-.077-6.197-1.613-1.13-1.007-2.512-1.732-3.636-2.744-1.185-1.067-1.26-2.98-.389-4.483.56-.967 2.557-1.801 3.772-1.48.761.201 1.587.396 1.887 1.329.107.334.276.719.539.92 2.581 1.969 3.935 2.12 5.498-.468 1.709-2.828 1.611-5.773.126-8.485-2.285-4.174-5.052-8.102-9.079-10.783-1.646-1.096-3.461-2.013-5.502-2.619-2.837-.842-5.648-2.206-7.505-4.838-.932-1.321-.686-2.747-.5-4.14.261-1.955.885-3.875 1.001-5.832.23-3.887 2.322-5.98 5.889-7.06 4.308-1.304 8.227-.78 11.778 2.052.738.589 1.32 1.31 1.044 2.31-.303 1.099-1.251 1.458-2.267 1.641-1.462.263-2.858.039-4.205-.576-2.156-.986-3.645-.5-4.481 1.604-.795 1.998-1.398 4.067-1.478 6.245-.066 1.788.483 2.924 2.138 3.249 6.533 1.286 11.437 5.295 15.427 10.106 3.415 4.118 6.839 8.609 6.698 14.567-.145 6.126-3.545 10.501-9.792 11.045-.358.032-.717.049-.766.053z" fill="#f39f4e"/><path d="m37.165 21.596c.403 7.253 1.059 14.503.747 21.782-.023.538.049 1.079.037 1.618-.033 1.394.665 2.047 1.992 2.437 2.006.59 3.989 1.105 6.071.613 2.005-.474 3.798.204 5.269 1.328 1.923 1.469 2.04 2.732.498 4.227-1.565 1.517-4.455 2.106-6.523 1.16-3.714-1.7-7.754-1.922-11.686-2.545-1.714-.272-3.234-.568-4.758-1.498-1.403-.856-1.7-1.861-1.168-3.128 1.014-2.412.884-4.91.937-7.426.138-6.562-.421-13.094-.781-19.633-.315-5.737-.053-11.492-.661-17.223-.237-2.228 1.02-3.337 3.244-3.306 3.197.044 5.392 1.927 5.671 5.21.464 5.452.75 10.921 1.111 16.384z" fill="#f39f4e"/><path d="m173.902 99.47c1.195.474 2.208.282 3.153.129 1.34-.217 2.48.261 3.658.67 1.16.403 1.774 1.3 1.667 2.485-.103 1.139-.742 2.058-1.927 2.35-.955.235-1.95.307-2.922.477-2.393.417-2.665.8-2.678 3.146-.025 4.609.615 9.14 1.439 13.658.196 1.075.578 2.056 1.02 3.109 2.096.244 3.924-.528 5.796-1.064 2.064-.59 4.117-1.244 6.212-1.698 2.041-.443 4.329 1.697 4.205 3.77-.083 1.385-.985 2.73-2.192 2.65-3.342-.222-6.323 1.269-9.508 1.745-2.13.318-4.234.811-6.363 1.141-2.732.423-4.487-.491-5.718-2.955-.842-1.685-1.229-3.471-1.581-5.355-1.116-5.974-.48-12.028-1.205-18.002-.184-1.517-.323-3.044-.603-4.545-.599-3.207-.224-9.971-.416-13.193-.168-2.815 1.429-4.127 4.341-4.048.893.024 1.808-.166 2.661.249 2.038.991 3.814.384 5.547-.817 1.96-1.358 5.258-1.251 7.034.155 1.314 1.041 1.382 1.834.285 3.127-1.442 1.7-3.037 2.959-5.493 2.844-1.499-.07-3.024.258-4.528.477-1.969.287-2.426.816-2.549 2.789-.069 1.099.196 5.657.665 6.706z" fill="#fff"/><path d="m189.561 159.803c-.914.94-.809 2.007-.587 3.088 1.516 7.375 2.419 19.573 4.846 26.759 1.056 3.128 1.742 6.382 2.583 9.582.561 2.133-1.152 4.305-3.463 4.417-2.933.142-5.437-1.832-5.941-4.728-.138-.794-.154-1.61-.228-2.415-.346-3.762-.94-7.452-2.234-11.046-1.47-4.083-1.347-13.194-2.26-17.416-.511-2.364-1.675-4.552-1.605-7.221-2.71-.426-5.279-.68-7.636.732-2.308 1.382-4.221-.101-6.086-.845-1.573-.627-2.555-2.159-2.325-4.173.14-1.223.6-2.001 1.769-2.414 1.568-.555 3.186-.667 4.743-.224 2.642.751 5.32.979 7.981.521 4.887-.841 9.79-.486 14.689-.464 1.373.006 2.696-.21 3.995-.527 1.755-.428 3.175.137 4.519 1.156.837.634 1.427 1.428 1.249 2.521-.19 1.17-1.03 1.863-2.074 2.283-.406.163-.88.208-1.324.217-3.478.076-6.956.132-10.611.197z" fill="#aa2335"/><path d="m287.562 86.824c-2.637 2.38-3.858 4.93-3.665 7.95.355 5.546.686 11.107 2.057 16.533.504 1.996 1.18 3.943 1.469 6.001.192 1.367 1 2.466 2.266 3.362 1.962-.454 3.543-1.901 5.561-2.413 1.748-.443 3.305-.441 4.931.258 2.388 1.028 2.944 3.075 1.38 5.098-1.025 1.326-2.488 2.043-3.883 2.824-5.209 2.918-10.269 1.652-15.266-.664-.877-.406-1.362-1.126-1.572-2.06-1.239-5.492-3.411-10.757-3.902-16.436-.177-2.05-.478-4.12-1.02-6.1-.84-3.066-.635-6.043.264-9.01.997-3.288 2.583-6.285 4.683-9.012.576-.748 1.28-1.261 2.199-1.44 3.037-.589 5.987-.884 8.664 1.308 1.25 1.024 2.544 1.963 3.552 3.245.607.772.846 1.612.422 2.505-.418.881-1.147 1.224-2.179 1.247-2.483.056-4.589-.561-5.961-3.196z" fill="#fff"/><path d="m369.566 191.143c3.873.039 7.701.576 11.421-.963 1.942-.804 3.157.768 4.521 1.722.131.092.157.321.262.466 1.442 1.988 1.587 2.943.609 4.072-1.341 1.548-3.318 2.11-5.025 1.3-2.052-.973-4.209-.87-6.325-.588-2.957.393-5.923.168-8.876.254-3.611.105-5.782-2.192-5.725-5.966.007-.449.15-.937.022-1.341-.891-2.823-.848-5.735-1.131-8.638-.454-4.639-.817-9.298-1.436-13.927-.416-3.113-.6-6.257-.86-9.389-.104-1.254-.212-2.516-.182-3.771.04-1.647.246-3.313 2.069-4.031 1.812-.714 4.604-.055 5.793 1.187.661.69.647 1.517.461 2.27-.512 2.066-.266 4.121-.074 6.175.327 3.494.6 6.988.725 10.497.174 4.875 1.317 9.611 2.354 14.345.437 2.001.172 4.15 1.397 6.326z" fill="#aa2335"/><g fill="#fff"><path d="m248.081 124.727c-.039-.626-.087-1.691-.32-2.758-2.489-11.349-3.158-22.925-4.238-34.449-.008-.089-.021-.18-.017-.269.054-1.542-.615-3.335 1.484-4.156 1.969-.77 4.885.052 6.133 1.642.697.888.547 1.885.557 2.836.05 4.581.358 9.146.721 13.71.627 7.891 2.223 15.628 3.696 23.384.115.607.434 1.175.66 1.76.968 2.507.221 4.166-2.297 5.102-2.108.783-6.152-1.69-6.367-3.929-.077-.802-.012-1.616-.012-2.873z"/><path d="m174.849 69.168c1.059-.387 2.188.145 3.303.343 1.212.215 1.899 1.212 2.18 2.45.281 1.239-.266 2.087-1.216 2.743-1.176.813-2.349 1.64-3.582 2.36-1.823 1.065-3.705 1.171-5.616.14-1.992-1.074-2.517-3.154-1.199-4.921.897-1.205 4.409-3.023 6.13-3.115z"/><path d="m146.338 312.149-.738 7.306h3.739v2.696h-4.044l-.826 7.915h-3.001l.87-7.915h-6.35l-.87 7.915h-2.957l.826-7.915h-3.827v-2.696h4.132l.739-7.306h-3.827v-2.696h4.088l.826-7.654h2.958l-.783 7.654h6.35l.826-7.654h2.957l-.826 7.654h3.783v2.696zm-9.349 0-.739 7.306h6.349l.74-7.306z"/><path d="m155.428 330.066v-29.354h15.091v3.305h-11.089v9.306h10.566v3.218h-10.566v10.176h11.089v3.349z"/><path d="m177.217 330.066v-31.746h3.914v31.746z"/><path d="m190.481 304.148c-1.435 0-2.609-1.087-2.609-2.522s1.175-2.566 2.609-2.566c1.436 0 2.609 1.131 2.609 2.566 0 1.391-1.174 2.522-2.609 2.522zm-1.957 25.918v-21.613h3.914v21.613z"/><path d="m206.964 341.199c-5.566 0-9.089-2.305-9.089-6.479 0-2.522 1.652-4.653 3.609-5.741-1.305-.565-2.131-1.783-2.131-3.218 0-1.522.957-2.957 2.392-3.653-1.957-1.174-3.175-3.131-3.175-5.958 0-4.349 3.262-8.089 9.176-8.089 1.174 0 1.957.131 3.045.392h7.35v3.087h-3.566c1.087.87 1.739 2.305 1.739 4.001 0 4.436-3.001 7.828-9.132 7.828-.87 0-1.522-.087-2.305-.304-.914.435-1.393 1.131-1.393 1.827 0 1.217 1.088 1.565 3.697 1.696l3.957.13c4.652.174 7.262 2.349 7.262 6.262.001 4.566-4.651 8.219-11.436 8.219zm3.044-11.22-4.175-.174c-.392 0-.913 0-1.261-.043-1.696 1.174-2.783 2.609-2.783 4.262 0 2.565 2.436 4.088 5.827 4.088 4.392 0 6.827-2 6.827-4.653.001-2.088-1.391-3.393-4.435-3.48zm-2.435-19.004c-3.262 0-5.131 2.087-5.131 4.827 0 3 1.783 4.74 5 4.74 3.088 0 5.002-1.739 5.002-4.74 0-2.957-1.74-4.827-4.871-4.827z"/><path d="m239.624 319.151h-14.134c-.174 5.653 2.219 8.132 6.828 8.132 2.087 0 4.262-.435 6.175-1.305l.565 3.131c-2.174.87-4.783 1.348-7.48 1.348-6.566 0-10.132-3.479-10.132-11.089 0-6.48 3.522-11.307 9.653-11.307 6.089 0 8.654 4.131 8.654 9.089.001.522-.042 1.131-.129 2.001zm-8.698-8.22c-2.826 0-4.87 2.131-5.305 5.436h10.133c.086-3.304-1.783-5.436-4.828-5.436z"/><path d="m250.672 330.458c-2.393 0-4.61-.305-6.437-.827l.478-3.827c1.871.739 4.002 1.174 6.176 1.174 3.393 0 6.35-1.392 6.35-5.001 0-6.61-13.264-4-13.264-13.351 0-4.827 3.652-8.306 10.263-8.306 1.696 0 3.653.174 5.306.565l-.479 3.522c-1.565-.479-3.349-.783-5.045-.783-4 0-5.914 1.783-5.914 4.566 0 6.349 13.438 4.044 13.438 13.264-.001 5.263-4.305 9.004-10.872 9.004z"/><path d="m275.026 330.458c-5.871 0-9.697-3.392-9.697-11.002 0-6.349 4-11.394 10.523-11.394 5.523 0 9.742 3.044 9.742 10.829 0 6.522-4.176 11.567-10.568 11.567zm.478-19.135c-3.131 0-6.088 2.392-6.088 7.741 0 5.219 2.131 8.089 6.088 8.089 3.219 0 6.002-2.522 6.002-8.045 0-4.915-2.001-7.785-6.002-7.785z"/><path d="m297.684 330.414c-4.436 0-5.783-1.826-5.783-6.479v-12.438h-4.436v-3.044h4.436v-7.001l3.914-1.087v8.089h6.045v3.044h-6.045v11.046c0 3.566.652 4.523 3.088 4.523 1 0 1.956-.13 2.739-.348l.392 3.218c-1.262.303-2.957.477-4.35.477z"/></g></svg>