<svg viewBox="0 0 309.21 221.817" xmlns="http://www.w3.org/2000/svg"><path d="m253.125 221.817c-3.532.003-6.621-2.762-10.428-7.201-13.836-16.124-17.017-35.326-18.395-53.677-1.567-20.862-1.855-41.803-2.051-65.052-.027-2.958-.433-4.714-1.271-5.525-.845-.811-2.628-1.182-5.487-1.103-4.869.131-9.71-.46-14.372-1.034-1.876-.23-3.731-.46-5.563-.639l-2.02-.192-.454-1.976c-1.635-7.095-2.285-9.912-.484-12.083 1.629-1.969 4.133-1.869 7.899-1.718 1.429.055 3.188.096 5.233.117l3.127-.01c2.948-.014 6.624-.027 8.528.01l1.656.038c1.821.052 3.865.103 4.257-.295 1.23-1.261.811-9.472.673-12.169-.337-6.356.017-12.747.357-18.924.374-6.713.759-13.654.22-20.381-.062-.773-.388-1.79-.735-2.865-.883-2.728-2.089-6.463.447-9.699.591-.752 5.91-7.291 11.348-6.325 1.35.234 3.79 1.165 5.003 4.789 2.47 7.397 2.371 27.792 2.031 49.829-.062 4.006-.117 7.483-.117 10.039 0 5.817.423 7.473.776 7.833.512.309 3.072.024 5.137-.21 3.474-.388 8.266-.904 14.743-.673 1.137.048 2.268.158 3.367.268l3.549.313.484 1.962c1.251 5.033 1.632 8.407-.103 10.761-1.831 2.481-4.875 2.652-9.483 2.91-1.347.076-2.879.161-4.607.316l-1.993.165c-6.064.484-10.063.972-11.929 1.453.484 10.854.405 22.24.33 33.265-.124 17.783-.251 36.168 1.917 53.409.804 6.445 4.844 12.956 9.125 19.848 3.037 4.896 6.181 9.96 8.407 15.389l.605 1.474-.952 1.278c-2.22 2.975-4.893 6.16-8.541 6.284-.079.001-.155.001-.234.001zm-36.928-138.199c4.013 0 6.789.862 8.686 2.69 2.587 2.491 2.965 6.215 2.996 9.531.196 23.147.484 43.991 2.037 64.681 1.306 17.392 4.274 35.539 17.055 50.43 3.748 4.374 5.521 5.37 6.195 5.24.684-.024 1.773-.948 3.236-2.755-2.006-4.477-4.717-8.84-7.346-13.076-4.614-7.432-8.971-14.451-9.929-22.116-2.213-17.608-2.082-36.185-1.958-54.147.079-11.489.161-23.373-.399-34.539v-.003c-.192-3.968 4.82-4.762 17.179-5.748l1.924-.158c1.814-.161 3.408-.254 4.807-.33 2.13-.12 4.779-.271 5.312-.68.069-.179.223-1.027-.426-4.089-.856-.086-1.732-.165-2.604-.199-6.068-.237-10.606.271-13.898.642-4.381.495-7.277.811-9.517-1.192-2.254-2.017-2.649-5.483-2.649-12.029 0-2.577.055-6.085.117-10.125.234-15.282.629-40.858-1.742-47.956-.192-.577-.45-1-.622-1.031-1.079-.227-3.9 1.632-5.961 4.253-.642.821-.247 2.244.481 4.494.429 1.337.876 2.718.993 4.15.567 7.105.172 14.238-.213 21.14-.333 6.026-.68 12.262-.357 18.319.464 9.06.244 13.825-2.264 16.392-2.11 2.165-5.051 2.079-8.438 1.993l-1.605-.038c-1.879-.034-5.497-.017-8.404-.01l-3.137.01c-2.171-.01-3.968-.062-5.47-.12-1.117-.045-2.354-.1-3.123-.058.089 1.038.488 2.907.965 5.013 1.223.137 2.457.289 3.693.443 4.453.55 9.067 1.141 13.523.993.293-.008.582-.015.863-.015zm-80.919 137.079c-2.999 0-6.088-.347-9.225-1.058-15.334-3.501-24.154-15.341-25.504-34.237-.811-11.235.041-52.12 4.336-71.982 4.24-19.498 15.952-28.867 34.54-27.884 12.376.656 22.48 7.194 27.73 17.935 16.897 34.392 16.454 67.825-1.319 99.379-6.436 11.449-17.681 17.847-30.558 17.847zm1.584-129.603c-14.368 0-23.037 7.713-26.473 23.518-4.03 18.622-5.044 59.009-4.226 70.388 1.175 16.409 8.284 26.215 21.137 29.149 14.097 3.206 26.964-2.199 33.63-14.059 16.808-29.843 17.203-61.513 1.175-94.139l-.003-.003c-4.388-8.984-12.548-14.238-22.972-14.791-.774-.043-1.53-.063-2.268-.063zm-.973 117.316c-1.299 0-2.608-.137-3.924-.416-8.005-1.697-14.953-8.466-18.127-17.67-4.13-12.004-.959-55.312 1.065-67.612.598-3.7 2.189-7.126 3.505-9.699l.842-1.653c3.91-7.727 7.95-15.712 19.567-15.712.148 0 .292 0 .44.003 14.224.285 19.127 11.63 21.58 20.137 2.237 7.775 4.453 16.079 4.814 24.569.687 15.241 1.337 29.644-5.831 45.534l-.385.849c-2.319 5.123-4.717 10.417-8.658 14.653-4.281 4.602-9.459 7.017-14.888 7.017zm2.921-107.133c-7.768 0-10.472 4.59-14.537 12.623l-.856 1.684c-1.041 2.031-2.481 5.075-2.958 8.036-2.154 13.097-4.827 54.618-1.299 64.874 2.532 7.342 7.885 12.705 13.97 13.994 4.879 1.031 9.565-.67 13.523-4.927 3.316-3.563 5.521-8.431 7.652-13.142l.385-.849c6.61-14.66 6.02-27.778 5.339-42.964-.34-7.878-2.46-15.811-4.601-23.26-3.243-11.242-7.957-15.897-16.275-16.066-.117-.003-.23-.003-.343-.003zm-109.447 117.31c-1.446 0-2.958-.127-4.494-.381l-2.402-.251c-3.195-.436-5.827-2.058-7.7-4.697-1.598-2.271-4.034-6.452-2.443-9.046.735-1.196 2.082-1.769 3.559-1.57 2.642.416 20.914-2.618 23.844-3.24.66-.354 1.677-.986 2.68-1.694l.429-.271c.203-.124 13.523-9.596 16.406-26.452l.323-1.828c.354-1.948.684-3.786.825-5.652.189-2.879.289-5.545.289-7.902-.175-1.986-.56-4.669-1.11-7.528-.574-3.178-1.34-6.38-2.288-9.548l-.192-.522c-4.15-11.541-6.013-15.176-6.841-16.193-2.453-2.958-5.473-6.205-8.964-9.637-3.941-3.659-8.39-7.834-13.248-12.403-5.453-4.927-9.321-8.837-11.785-11.922-.797-.993-1.986-2.123-3.24-3.322-2.027-1.934-4.326-4.126-5.772-6.535-2.336-4.133-4.171-8.844-5.501-14.062-1.347-5.288-1.917-10.561-1.69-15.67.454-4.968 1.457-9.919 2.986-14.853 1.155-3.728 5.999-16.839 19.797-28.895 3.608-3.154 8.723-3.659 13.235-4.109l.395-.038c4.7-.691 8.961-.405 12.489.869 2.745.677 5.442 1.835 7.755 3.357l2.264 1.381c2.663 1.742 4.353 4.233 4.972 7.249.258 1.285.464 2.295-.306 3.391l-.697.989-.749.131c-1.752 2.429-4.113 3.958-6.927 4.549-2.869.608-5.707.11-8.198-1.433l-3.072-1.632c-.196-.155-.677-.447-1.701-.701-.78-.237-1.979-.275-3.542-.141-1.687.268-3.515.807-5.075 1.539-1.319.618-2.625 1.694-3.872 3.188-1.828 2.151-3.687 4.8-5.542 7.888-1.574 2.759-2.927 5.83-3.999 9.081-1.055 3.185-1.673 6.425-1.842 9.641-.165 2.735.172 5.593 1.003 8.521.752 3.487 1.742 6.195 3.061 8.459 1.639 2.687 3.346 5.202 5.047 7.432 1.113 1.45 3.625 4.247 9.263 9.307 5.085 4.594 9.655 8.785 13.719 12.561 4.254 4.174 7.871 8.04 10.806 11.534 3.085 3.886 5.745 7.899 7.954 11.991 2.199 4.116 3.972 8.249 5.267 12.3 1.264 3.927 2.292 7.964 3.058 11.991.746 4.003 1.233 7.744 1.453 11.128.01 3.377-.089 6.624-.302 10.091-.227 3.635-.797 7.177-1.704 10.534-.57 3.072-1.708 6.858-3.24 10.737-1.79 3.759-3.353 6.83-4.855 9.579-2.244 3.46-4.429 6.181-6.793 8.51-2.195 2.151-4.319 4.013-6.318 5.538l-.454.309c-2.264 1.34-4.436 2.512-6.59 3.573-2.371 1.038-5.006 1.907-8.407 2.797-3.065.855-5.384 1.391-7.047 1.625-1.122.231-2.514.358-3.977.358zm-11.095-10.39c.32.612.704 1.254 1.096 1.811.969 1.367 2.209 2.144 3.783 2.357l2.477.265c2.731.447 4.899.429 6.772.055 1.553-.227 3.693-.725 6.525-1.515 3.157-.825 5.528-1.604 7.507-2.467 1.91-.945 3.958-2.051 5.965-3.23l.172-.12c1.673-1.285 3.621-2.996 5.648-4.982 2.068-2.037 4.003-4.453 5.906-7.38 1.347-2.474 2.862-5.459 4.528-8.94 1.326-3.374 2.36-6.803 2.914-9.744.856-3.202 1.367-6.37 1.567-9.624.206-3.35.306-6.476.299-9.562-.196-2.986-.656-6.5-1.361-10.273-.722-3.79-1.69-7.6-2.886-11.31-1.192-3.731-2.831-7.552-4.865-11.359-2.048-3.79-4.525-7.524-7.356-11.094-2.769-3.298-6.263-7.026-10.335-11.022-3.989-3.711-8.538-7.882-13.595-12.448-4.779-4.291-8.136-7.682-9.967-10.074-1.824-2.388-3.645-5.068-5.411-7.964-1.656-2.838-2.852-6.088-3.687-9.984-.962-3.364-1.367-6.854-1.165-10.201.196-3.69.907-7.428 2.116-11.084 1.189-3.604 2.697-7.023 4.487-10.163 2.044-3.405 4.085-6.305 6.095-8.668 1.763-2.113 3.718-3.687 5.789-4.662 2.041-.952 4.391-1.656 6.806-2.031 3.35-.278 4.858.052 5.71.313 1.282.309 2.474.828 3.415 1.505l2.618 1.35c1.446.883 2.821 1.123 4.264.821 1.495-.316 2.683-1.106 3.535-2.36.192-.285.392-.543.601-.77-.402-1.206-1.165-2.189-2.274-2.917l-2.271-1.385c-1.866-1.227-3.986-2.127-6.387-2.735-2.878-1.021-6.303-1.224-10.155-.654l-.526.055c-4.03.399-7.834.776-10.087 2.745-12.685 11.081-17.079 22.948-18.124 26.322-1.416 4.559-2.34 9.125-2.749 13.568-.192 4.422.32 9.146 1.532 13.901 1.206 4.738 2.855 8.984 4.906 12.616 1.02 1.694 2.938 3.525 4.796 5.294 1.395 1.333 2.711 2.591 3.748 3.879 2.274 2.848 5.94 6.542 11.204 11.3 4.893 4.6 9.335 8.768 13.324 12.475 3.683 3.618 6.834 7.009 9.421 10.129 1.718 2.103 4.044 7.442 7.792 17.862l.237.667c1.058 3.522 1.876 6.93 2.477 10.28.581 3.02.996 5.913 1.196 8.328.01 2.707-.089 5.501-.292 8.528-.161 2.185-.536 4.257-.9 6.256l-.316 1.776c-3.041 17.794-16.715 29.032-19.103 30.358-1.347.945-2.666 1.752-3.752 2.295-.905.385-16.29 3.11-23.664 3.611zm43.357-190.364-.058.01c.02-.003.04-.006.058-.01zm229.932 2.799c-1.066-.615-2.768-.901-5.114-.901h-3.596v8.644h3.805c1.788 0 3.125-.157 4.018-.521 1.637-.65 2.467-1.888 2.467-3.74 0-1.736-.536-2.909-1.58-3.482m-4.569-3.768c2.974 0 5.14.265 6.528.843 2.466 1.022 3.711 3.039 3.711 6.071 0 2.116-.781 3.718-2.317 4.718-.844.53-1.989.915-3.475 1.173 1.873.28 3.245 1.044 4.11 2.309.865 1.273 1.295 2.503 1.295 3.718v1.731c0 .578.029 1.158.064 1.795.042.636.1 1.037.208 1.236l.142.308h-3.939c-.022-.085-.037-.164-.064-.25-.015-.07-.042-.164-.057-.256l-.086-.766v-1.888c0-2.753-.764-4.605-2.26-5.484-.886-.508-2.446-.766-4.683-.766h-3.318v9.41h-4.217v-23.902zm-12.808-1.23c-3.632 3.676-5.462 8.08-5.462 13.271 0 5.212 1.816 9.666 5.434 13.334 3.639 3.683 8.058 5.534 13.264 5.534 5.197 0 9.609-1.851 13.248-5.534 3.64-3.668 5.463-8.123 5.463-13.334 0-5.191-1.823-9.596-5.464-13.271-3.661-3.689-8.064-5.506-13.248-5.506-5.169 0-9.566 1.818-13.235 5.506m28.66 28.68c-4.248 4.269-9.395 6.407-15.423 6.407-6.049 0-11.169-2.138-15.402-6.407-4.212-4.239-6.32-9.403-6.32-15.459 0-5.977 2.123-11.11 6.377-15.351 4.239-4.219 9.338-6.349 15.345-6.349 6.027 0 11.175 2.131 15.423 6.349 4.247 4.226 6.37 9.373 6.37 15.351 0 6.041-2.124 11.205-6.37 15.459" fill="#fff"/></svg>