<?xml version="1.0" encoding="utf-8"?>
<!-- Generator: Adobe Illustrator 22.1.0, SVG Export Plug-In . SVG Version: 6.00 Build 0)  -->
<svg version="1.1" xmlns="http://www.w3.org/2000/svg" xmlns:xlink="http://www.w3.org/1999/xlink" x="0px" y="0px"
	 viewBox="0 0 309.21 221.817" style="enable-background:new 0 0 309.21 221.817;" xml:space="preserve">
<style type="text/css">
	.st0{display:none;}
	.st1{display:inline;}
	.st2{opacity:0.4;clip-path:url(#SVGID_6_);}
	.st3{fill:#F68C2E;}
	.st4{fill:#231F20;}
	.st5{fill:#FFCD16;}
	.st6{fill:#F8B018;}
	.st7{fill:#FFFFFF;}
	.st8{fill:#B6B6B7;}
	.st9{fill:#221F1F;}
	.st10{fill:#F68D2F;}
	.st11{fill:#EF4D24;}
	.st12{fill:#FBB218;}
	.st13{fill:#4CB649;}
	.st14{fill:#BED58E;}
	.st15{fill:#E63D25;}
	.st16{fill:#B62025;}
	.st17{fill:#EC2D37;}
	.st18{fill:#4CB548;}
	.st19{fill:#211E1F;}
	.st20{fill:#BDD48C;}
	.st21{fill:#EB2D37;}
	.st22{fill:#B52126;}
	.st23{display:inline;opacity:0.7;}
	.st24{opacity:0.7;}
	.st25{clip-path:url(#SVGID_12_);}
	.st26{fill:#381C1B;}
	.st27{fill:#C9A170;}
	.st28{fill:#D8B783;}
	.st29{fill:#BD8D5A;}
	.st30{fill-rule:evenodd;clip-rule:evenodd;fill:#381C1B;}
	.st31{fill-rule:evenodd;clip-rule:evenodd;fill:#25592F;}
	.st32{fill-rule:evenodd;clip-rule:evenodd;fill:#37803F;}
	.st33{fill-rule:evenodd;clip-rule:evenodd;fill:#F0F4D5;}
	.st34{fill-rule:evenodd;clip-rule:evenodd;fill:#F18C38;}
	.st35{fill-rule:evenodd;clip-rule:evenodd;fill:#D9455C;}
	.st36{fill-rule:evenodd;clip-rule:evenodd;fill:#C05885;}
	.st37{fill-rule:evenodd;clip-rule:evenodd;fill:#E1EAA2;}
	.st38{fill-rule:evenodd;clip-rule:evenodd;fill:#B8D372;}
	.st39{fill-rule:evenodd;clip-rule:evenodd;fill:#E52344;}
	.st40{fill-rule:evenodd;clip-rule:evenodd;fill:#EC3459;}
	.st41{fill-rule:evenodd;clip-rule:evenodd;fill:#EA486F;}
	.st42{fill:#D87526;}
	.st43{fill:#8C4422;}
	.st44{fill:#EFD23B;}
	.st45{fill:#DE912A;}
	.st46{fill:#E8AD2E;}
	.st47{fill:#934A2B;}
	.st48{fill-rule:evenodd;clip-rule:evenodd;fill:#7FB743;}
	.st49{fill-rule:evenodd;clip-rule:evenodd;fill:#F9DC36;}
	.st50{display:inline;fill:#6B1446;}
	.st51{clip-path:url(#SVGID_16_);}
	.st52{fill:#6B1446;}
	.st53{fill-rule:evenodd;clip-rule:evenodd;fill:#AA2335;}
	.st54{fill-rule:evenodd;clip-rule:evenodd;fill:#6B1446;}
	.st55{fill-rule:evenodd;clip-rule:evenodd;fill:#F39F4E;}
	.st56{fill:#F39F4E;}
	.st57{fill:#1A5360;}
	.st58{display:inline;fill-rule:evenodd;clip-rule:evenodd;fill:#FFB3D2;}
	.st59{display:inline;opacity:0.3;}
	.st60{fill-rule:evenodd;clip-rule:evenodd;fill:#FFFFFF;}
	.st61{display:inline;fill:#FFC425;}
	.st62{display:inline;fill:#098442;}
	.st63{fill:none;stroke:#FFFFFF;stroke-width:4;stroke-miterlimit:10;}
	.st64{fill:#FFC425;}
	.st65{fill:#25A9E0;}
	.st66{fill:#AA2335;}
	.st67{fill:#F18C38;}
	.st68{display:inline;fill:#FFFFFF;}
	.st69{fill:#490E0E;}
	.st70{fill-rule:evenodd;clip-rule:evenodd;fill:#FCFDFF;}
</style>
<g id="Layer_1" class="st0">
	<g class="st1">
		<defs>
			<rect id="SVGID_13_" x="-1155.149" y="-292.532" width="1920" height="1096.731"/>
		</defs>
		<clipPath id="SVGID_2_">
			<use xlink:href="#SVGID_13_"  style="overflow:visible;"/>
		</clipPath>
		<g style="clip-path:url(#SVGID_2_);">
			
				<image style="overflow:visible;" width="2313" height="1557" xlink:href="../../../Users/tatinavazquez/Desktop/p_papel-kraft-6.jpg"  transform="matrix(1 0 0 1 -1356.5846 -561.1831)">
			</image>
		</g>
	</g>
	<rect x="-1156.376" y="-295.183" class="st50" width="1920" height="1098.731"/>
	<g class="st1">
		<defs>
			<rect id="SVGID_15_" x="-1156.376" y="-295.183" width="1920" height="1098.731"/>
		</defs>
		<clipPath id="SVGID_4_">
			<use xlink:href="#SVGID_15_"  style="overflow:visible;"/>
		</clipPath>
		<g style="clip-path:url(#SVGID_4_);">
			<g>
				<g>
					<path class="st52" d="M-710.814,103.741c-1.434-0.583-1.48-1.196-1.616-1.903c4.358-0.784,8.572-1.671,14.154-1.676
						c1.168-0.001,2.339-0.112,3.502-0.181c5.825-0.345,11.609-0.755,17.647-0.663c1.639,0.025,3.328-0.065,4.957-0.157
						c7.698-0.436,15.388-0.859,23.207-1.113c7.545-0.246,15.008-0.702,22.51-1.06c1.173-0.056,2.359-0.114,3.543-0.121
						c9.078-0.061,17.897-0.685,26.847-1.023c0.94-0.035,1.879-0.197,2.78-0.174c6.726,0.17,13.19-0.552,19.881-0.466
						c3.611,0.046,7.023-0.325,10.573-0.444c7.622-0.256,15.167,0.179,22.74,0.008c1.663-0.037,3.446,0.072,4.988-0.063
						c6.598-0.578,13.288-0.329,19.861-0.135c4.046,0.119,8.066,0.174,12.105,0.201c4.534,0.03,9.075,0.054,13.606,0.016
						c10.04-0.083,19.949,0.213,29.805,0.736c1.395,0.074,2.85,0.069,4.279,0.075c9.282,0.036,18.599-0.094,27.771,0.472
						c1.89,0.117,3.72,0.116,5.653,0.039c1.851-0.074,3.841-0.052,5.672,0.06c6.878,0.423,13.706,0.357,20.966-0.067
						c3.969,0.654,8.629,0.777,13.474,0.766c4.981-0.012,9.958-0.061,14.97,0.198c2.394,0.123,5.164,0.059,7.684,0.016
						c3.881-0.067,7.607,0.147,11.268,0.331c3.562,0.179,7.059,0.271,10.635,0.271c3.572,0.001,7.073,0.089,10.635,0.278
						c4.173,0.22,8.553,0.141,12.844,0.142c3.83,0.001,7.634,0.005,11.245,0.405c1.961-0.123,3.816-0.239,6.05-0.379
						c4.052,0.323,8.485,0.613,12.806,0.082c6.489,0.704,12.937,1.081,19.67,1.163c4.725,0.057,9.425,0.328,14.12,0.534
						c4.695,0.206,9.371,0.447,14.052,0.68c3.494,0.174,6.891,0.317,10.559,0.213c3.943-0.111,8.116,0.062,12.014,0.326
						c3.566,0.242,7.075,0.288,10.641,0.26c6.887-0.053,13.836,0.229,20.641-0.343c1.328-0.112,2.849-0.046,4.28-0.038
						c4.083,0.025,8.158-0.022,11.929-0.516c3.62-0.474,7.543-0.224,11.262-0.507c8.512-0.649,17.089-1.23,25.675-1.795
						c7.186-0.472,14.409-0.9,21.638-1.313c9.324-0.533,18.656-1.055,28.014-1.536c4.672-0.24,9.452-0.22,14.133-0.533
						c6.707-0.448,13.497-0.804,20.296-1.119c5.389-0.25,10.854-0.358,16.267-0.567c4.238-0.164,8.486-0.338,12.655-0.604
						c2.367-0.151,4.713-0.244,7.085-0.208c5.311,0.08,10.461-0.165,15.52-0.584c2.101-0.174,4.199-0.281,6.348-0.243
						c5.792,0.103,11.351-0.303,16.961-0.605c1.401-0.075,2.811-0.208,4.21-0.201c9.095,0.047,17.987-0.391,26.939-0.78
						c6.532-0.284,13.306-0.494,19.828-0.31c9.504,0.268,19.018,0.065,28.492,0.334c5.65,0.16,11.409,0.082,16.99,0.342
						c9.144,0.427,18.595,0.167,27.516,1.053c0.668,0.066,1.399,0.111,2.102,0.113c7.143,0.023,14.226,0.226,21.339,0.41
						c8.751,0.226,17.487,0.464,26.198,0.789c1.18,0.044,2.377,0.069,3.566,0.07c8.683,0.008,16.823,0.699,25.074,1.421
						c6.12,0.535,11.973,1.328,18.408,1.614c3.962,0.176,7.709,0.642,10.83,1.493c1.862,0.508,4.387,0.812,6.623,1.21
						c1.5,0.473,2.253,1.036,2.559,1.648c-0.418,0.216-0.656,0.421-1.12,0.564c-1.355,0.42-3.178,0.586-5.267,0.762
						c-3.994-0.55-8.594-0.627-12.834-1.008c-4.776-0.43-9.593-0.796-14.402-1.185c-9.636-0.779-19.315-1.45-29.295-1.788
						c-5.178-0.175-10.238-0.64-15.543-0.581c-0.699,0.008-1.444-0.032-2.108-0.099c-6.654-0.672-13.548-0.675-20.484-0.713
						c-5.211-0.029-10.421-0.231-15.608-0.413c-5.655-0.199-11.283-0.463-17.497-0.723c-2.907,0.268-6.28,0.255-9.95,0.091
						c-5.847-0.262-11.696-0.672-17.702-0.597c-0.951,0.012-1.959,0.034-2.853-0.038c-6.794-0.55-13.745-0.359-20.641-0.373
						c-11.936-0.024-23.872,0.005-35.808-0.008c-4.07-0.004-8.074,0.032-12.012,0.404c-4.11,0.388-8.384,0.49-12.713,0.439
						c-4.317-0.051-8.571,0.039-12.658,0.518c-1.302,0.153-2.767,0.27-4.153,0.267c-6.723-0.015-13.23,0.38-19.747,0.78
						c-0.925,0.057-1.901,0.08-2.846,0.068c-5.074-0.067-9.852,0.279-14.739,0.654c-7.565,0.581-15.289,1.186-23.042,1.321
						c-11.514,0.2-22.405,1.22-33.678,1.688c-3.521,0.146-7.132,0.074-10.549,0.472c-6.61,0.769-13.447,1.328-20.427,1.741
						c-6.761,1.263-15.032,1.263-22.188,2.211c-1.673,0.222-3.731,0.191-5.586,0.31c-4.877,0.313-9.714,0.682-14.617,0.954
						c-3.024,0.168-6.138,0.2-9.822,0.312c-0.712,0.123-1.952,0.322-3.142,0.543c-2.285,0.425-4.777,0.608-7.479,0.587
						c-4.781-0.037-9.506,0.06-14.181,0.394c-3.934,0.281-8.039,0.123-11.983,0.258c-3.821,0.131-7.6,0.161-11.398,0.156
						c-7.371-0.01-14.761,0.156-22.078-0.345c-2.738-0.188-5.821,0.026-8.522-0.184c-11.03-0.858-22.287-1.424-33.315-2.3
						c-9.137-0.725-18.268-1.568-27.854-1.749c-1.171-0.022-2.342-0.123-3.474-0.224c-7.558-0.674-15.276-1.051-23.193-0.966
						c-5.088,0.055-9.886-0.384-14.812-0.605c-1.876-0.084-3.768-0.223-5.644-0.212c-6.972,0.042-13.692-0.406-20.488-0.754
						c-9.127-0.467-18.239-1.012-27.602-0.941c-1.643,0.012-3.303-0.102-4.947-0.173c-1.176-0.051-2.352-0.201-3.504-0.182
						c-9.804,0.161-19.42-0.609-29.215-0.473c-2.144,0.03-4.258-0.034-6.376-0.195c-1.82-0.138-3.754-0.177-5.647-0.202
						c-2.62-0.034-5.208-0.039-7.794-0.245c-1.803-0.144-3.771-0.136-5.67-0.155c-5.941-0.06-11.919,0.101-17.783-0.373
						c-1.559-0.126-3.324-0.045-4.994-0.047c-10.504-0.011-21.011-0.066-31.51-0.006c-4.517,0.026-8.888-0.337-13.459-0.188
						c-5.188,0.169-10.545-0.021-15.664,0.228c-8.54,0.416-17.18,0.133-25.629,0.453c-6.113,0.232-12.396,0.133-18.377,0.669
						c-0.669,0.06-1.421,0.066-2.13,0.06c-4.551-0.038-8.979,0.214-13.467,0.386c-15.303,0.586-30.61,1.146-45.757,2.024
						c-1.62,0.094-3.329,0.058-4.995,0.09c-1.665,0.032-3.499-0.047-4.962,0.129c-7.152,0.861-14.936,0.813-22.337,1.338
						c-5.707,0.405-11.676,0.595-17.475,0.976C-707.688,103.99-709.396,103.963-710.814,103.741z"/>
					<path class="st52" d="M-61.387,236.505c-1.529,0.249-2.772,0.451-4.275,0.696c-2.731,0.186-5.922,0.046-8.868,0.408
						c-1.041,0.128-2.406,0.154-3.527,0.089c-5.131-0.3-10.423,0.101-15.515-0.324c-0.671-0.056-1.43-0.059-2.134-0.04
						c-5.403,0.144-10.802,0.299-16.219,0.451c-3.675,0.655-7.303,1.315-10.98,1.951c-2.331,0.403-4.845,0.573-7.549,0.353
						c-1.45-0.142-2.132-0.53-3.166-0.808c-2.818-0.757-6.057-1.284-9.746-1.67c-7.452-0.779-15.253-1.059-22.915-1.538
						c-1.857-0.116-3.716-0.231-5.575-0.345c-6.746-0.414-13.461-0.88-20.251-1.22c-3.792-0.19-7.404-0.505-11.028-0.849
						c-7.239-0.687-14.507-1.349-22.624-2.101c-5.561-0.029-11.796-0.458-18.001-0.961c-5.724-0.464-11.469-0.897-17.329-1.222
						c-7.458-0.413-14.763-1.074-21.988-1.719c-8.624-0.77-17.425-1.319-26.024-2.071c-5.758-0.504-11.637-0.687-17.448-1.014
						c-4.898-0.275-10.021-0.257-14.939,0.045c-2.842,0.174-5.635,0.241-8.497,0.259c-1.9,0.012-3.938-0.041-5.664,0.137
						c-3.601,0.372-7.018,0.281-10.167-0.08c-1.722,0.11-3.109,0.198-4.788,0.304c-0.841-0.175-1.79-0.372-2.937-0.611
						c-6.639-0.057-13.499-0.053-20.321-0.199c-4.003-0.086-7.952-0.401-11.912-0.631c-3.263-0.189-6.518-0.393-9.755-0.616
						c-1.137-0.078-2.265-0.203-3.303-0.359c-3.574-0.536-7.18-1.011-11.188-1.253c-2.281-0.137-4.363-0.537-6.57-0.793
						c-4.56-0.529-8.397-1.544-13.851-1.502c-1.857,0.014-3.66-0.522-5.862-0.655c-4.943-0.3-9.877-0.416-14.896-0.386
						c-2.144,0.013-4.3,0.007-6.434-0.047c-2.051-0.052-3.49-0.388-4.268-0.927c0.908-0.739,3.154-0.91,5.163-1.008
						c4.671-0.228,9.408-0.343,14.327-0.511c5.226,0.932,11.444,1.163,17.243,1.887c6.625-0.586,13.095,0.104,19.88,0.223
						c4.282,1.118,10.502,1.217,15.131,2.36c3.415,0.072,6.826,0.281,9.902,0.897c2.778,0.556,6.254,0.783,9.467,0.804
						c8.794,0.058,17.646,0.261,26.384-0.257c2.332-0.138,4.647-0.299,7.525-0.486c3.674,0.438,7.928-0.166,12.132,0.015
						c3.991,0.172,7.918,0.469,12.323,0.738c4.356-0.418,8.979-0.053,13.56,0.307c3.452,0.271,6.822,0.576,10.478,0.594
						c2.096,0.011,4.236,0.2,6.259,0.393c8.626,0.825,17.624,1.135,26.478,1.645c1.396,0.08,2.819,0.153,4.15,0.293
						c7.829,0.823,15.86,1.459,23.857,2.119c6.851,0.565,13.809,1.014,20.865,1.346c9.155,0.431,18.395,0.572,27.594,0.848
						c9.174,0.275,18.384,0.542,27.343,1.361c8.364,0.765,17.073,1.214,25.628,1.806c2.389,0.165,4.734,0,7.05-0.115
						c4.804,0.62,9.802,0.641,14.833,0.618c3.579-0.017,7.16,0,10.74,0.009c2.396,0.006,4.731-0.032,7.016-0.305
						c1.98-0.236,4.064-0.259,6.284-0.228c4.217,0.059,8.393-0.245,12.672-0.236c6.904,0.015,13.653-0.367,20.461-0.746
						c6.708-0.374,13.819-0.395,20.631,0.031c3.822,0.239,7.612,0.312,11.36,0.177c4.244-0.153,8.587-0.203,12.711-0.446
						c5.471-0.322,10.893-0.285,16.353-0.34c1.426-0.014,2.856-0.002,4.182-0.002c1.852-0.274,3.535-0.523,4.828-0.714
						c5.601-0.316,10.304,0.316,15.416,0.577c4.705-0.175,9.586-0.555,14.627-0.295c2.858,0.147,5.481-0.272,8.425-0.252
						c4.474,0.032,8.907,0.066,13.336,0.254c0.931,0.04,1.964,0.052,2.849-0.022c6.318-0.534,12.791-0.315,19.206-0.353
						c5.249-0.031,10.501-0.019,15.752-0.031c1.43-0.003,2.944,0.057,4.275-0.056c5.122-0.433,10.378-0.178,15.555-0.305
						c4.02-0.099,8.135-0.126,11.27,0.357c7.811-0.189,14.78-0.548,21.97-0.419c8.033,0.144,16.114-0.035,24.041-0.507
						c1.704-0.101,3.227-0.093,4.896,0.019c3.054,0.205,6.152,0.116,9.259,0.032c1.58-0.345,3.092-0.676,4.471-0.977
						c2.688-0.223,5.23-0.41,7.712-0.648c2.517-0.242,5.041-0.394,7.713-0.37c2.625,0.024,5.214-0.04,7.784-0.259
						c1.567-0.134,3.296-0.141,4.955-0.147c9.008-0.033,18.03,0.032,26.975-0.382c0.696-0.032,1.464-0.039,2.136,0.012
						c3.01,0.227,5.947,0.226,9.096,0.175c3.023-0.049,6.057-0.061,9.102-0.18c2.347-0.091,4.784-0.091,7.147-0.028
						c9.665,0.259,19.36,0.473,28.953,0.882c3.759,0.16,7.531,0.284,11.292,0.435c5.881,0.237,11.747,0.435,17.105,1.33
						c2.401,0.401,5.463,0.459,8.17,0.721c2.887,0.279,6.153,0.336,8.244,1.057c1.169,0.78,0.022,1.371-1.412,1.937
						c-1.47,0.404-3.214,0.591-5.17,0.655c-5.599,0.181-10.667,0.715-14.661,1.93c-2.364,0.154-4.677,0.304-7.094,0.461
						c-3.022-0.381-6.067-0.764-9.109-1.148c-1.276,0.091-2.493,0.124-3.551,0.261c-11.463,1.476-23.329,1.799-35.605,1.113
						c-1.856-0.104-3.807-0.128-5.699-0.102c-8.336,0.113-16.598-0.156-24.869-0.367c-4.488-0.115-9.018,0.021-13.477-0.389
						c-2.427-0.223-5.162-0.087-7.763,0.126c-3.884,0.319-7.786,0.601-11.87,0.708c-2.861,0.075-5.629,0.258-8.039-0.141
						c-2.46,0.266-4.459,0.482-6.969,0.754c-3.555-0.508-8.014-0.062-12.136-0.551c-5.936-0.703-12.001-1.316-18.015-1.964
						c-0.667-0.072-1.358-0.176-2.041-0.178c-5.726-0.017-11.23-0.548-17.016-0.516c-12.168,0.067-24.344,0.03-36.516,0.015
						c-3.562-0.004-7.103,0.015-10.687-0.163c-3.195-0.159-6.607-0.006-9.832,0.068c-6.45,0.148-12.874,0.049-19.303,0.112
						c-4.042,0.039-8.13-0.125-12.109,0.188c-1.48,0.116-2.811-0.06-4.206-0.081c-6.17-0.095-12.35-0.287-18.488,0.174
						c-1.811,0.136-3.784,0.117-5.684,0.122c-6.205,0.017-12.417,0.063-18.615,0.003c-7.683-0.074-15.151,0.272-22.661,0.677
						c-7.701,0.416-15.504,0.673-23.254,1.015c-2.583,0.114-5.209,0.211-7.697,0.43C-52.865,236.45-56.89,236.484-61.387,236.505z"
						/>
					<path class="st52" d="M-448.791,30.524c-3.403-0.732-4.591-1.406-3.113-2.271c0.852-0.339,1.9-0.494,3.074-0.584
						c3.966-0.307,7.301-0.976,10.886-1.513c5.841-0.876,11.514-2.003,18.642-1.808c8.606-0.535,17.582-0.299,26.094-1.057
						c1.558-0.139,3.292-0.142,4.949-0.153c3.337-0.023,6.687,0.038,9.905-0.314c0.652-0.071,1.42-0.104,2.114-0.087
						c7.436,0.182,14.778-0.208,22.022-0.512c7.542-0.316,15.243-0.096,22.669-0.688c1.566-0.125,3.321-0.066,4.989-0.068
						c5.49-0.005,10.981,0.016,16.47-0.004c2.376-0.009,4.817-0.009,7.104-0.166c2.596-0.177,5.166-0.228,7.793-0.241
						c3.331-0.017,6.638-0.015,9.932-0.284c2.014-0.164,4.256-0.117,6.398-0.124c5.967-0.019,11.935-0.006,17.902-0.025
						c5.231-0.017,10.47,0.097,15.639-0.336c2-0.168,4.268-0.079,6.415-0.088c2.624-0.011,5.206-0.029,7.792-0.24
						c1.796-0.146,3.771-0.136,5.669-0.144c4.773-0.02,9.548-0.004,14.322-0.014c4.042-0.009,8.145,0.14,11.526-0.433
						c5.64,0.432,10.772,0.659,15.989,0.144c1.836-0.181,3.758-0.108,5.639,0.055c3.987,0.346,7.982,0.279,12.021,0.033
						c2.079-0.127,4.24-0.149,6.371-0.195c1.187-0.025,2.387-0.009,3.579,0.001c6.65,0.054,13.258-0.025,19.933,0.328
						c5.994,0.317,12.274,0.18,18.428,0.247c5.62,0.061,11.243-0.17,16.876,0.195c2.73,0.177,5.705,0.035,8.57,0.044
						c2.147,0.007,4.356-0.065,6.431,0.053c9.228,0.525,18.441,0.449,27.725,0.148c2.519-0.081,5.194,0.042,7.745,0.107
						c2.689,0.068,5.194-0.044,7.655-0.165c2.179,0.19,4.234,0.369,6.649,0.579c2.674-0.217,5.706-0.432,8.52,0.013
						c2.765-0.231,5.277-0.441,7.657-0.64c9.081,0.383,17.95,0.856,27.083,0.751c6.634-0.076,13.269-0.069,19.929,0.315
						c4.601,0.265,9.514,0.081,14.288,0.088c5.968,0.009,11.935,0.007,17.903,0.01c1.432,0.001,2.952-0.088,4.282,0.019
						c5.903,0.477,11.689,0.2,17.646,0.054c5.859-0.143,11.184-0.634,16.536-1.196c2.244-0.236,4.365-0.547,6.819-0.57
						c0.701-0.006,1.432-0.056,2.086-0.132c5.53-0.639,11.045-1.289,16.565-1.936c5.521-0.647,11.042-1.292,16.562-1.939
						c2.206-0.259,4.412-0.518,6.613-0.78c1.321-0.158,2.601-0.433,3.953-0.465c5.132-0.12,9.48-0.89,14.218-1.329
						c12.42-1.152,24.543-2.574,37.721-3c5.112-0.165,10.323-0.419,15.346-0.907c3.788-0.369,7.915-0.442,11.879-0.665
						c2.783-0.156,5.546-0.341,8.186-0.505c0.313-0.445-0.564-0.599-1.45-0.626c-4.352-0.132-7.885-0.994-12.452-1.045
						c-1.706-0.969-5.019-1.526-7.432-2.296c0.872-0.218,1.116-0.312,1.217-0.3c11.019,1.255,22.027,2.517,34.2,3.912
						c9.683-0.092,20.419,0.319,30.723,1.073c0.554,0.357,0.109,0.523-0.313,0.69c-1.452,0.438-3.655,0.269-5.795,0.632
						c-3.955,1.161-9.513,1.748-14.808,2.14c-11.681-0.469-22.76-0.515-33.96-0.059c-5.624,0.229-11.249,0.514-16.98,0.616
						c-5.1,0.09-10.497,0.116-15.11,0.976c-5.769,0.122-10.946,0.791-16.303,1.35c-2.819,0.294-5.99,0.42-8.906,0.714
						c-2.724,0.275-5.462,0.466-8.237,0.33c-3.522,0.745-7.388,1.062-11.222,1.438c-6.07,0.595-11.998,1.312-17.96,1.996
						c-11.733,1.347-23.45,2.705-35.164,4.065c-1.326,0.154-2.695,0.309-3.859,0.542c-4.39,0.877-9.412,1.318-14.401,1.769
						c-5.664,0.511-11.044,1.275-17.029,1.511c-3.114,0.123-6.168,0.232-9.194-0.041c-2.332-0.21-4.698-0.215-7.083-0.223
						c-5.234-0.018-10.48,0.088-15.634-0.344c-1.555-0.13-3.32-0.061-4.99-0.064c-3.812-0.008-7.637,0.065-11.338-0.318
						c-0.87-0.09-1.895-0.1-2.834-0.083c-8.861,0.167-17.542-0.397-26.326-0.527c-9.238-0.136-18.449-0.422-27.731-0.333
						c-4.499,0.043-9.049,0.132-13.489-0.296c-1.276-0.123-2.947-0.115-4.222,0.013c-3.735,0.374-7.547,0.284-11.348,0.286
						c-16.471,0.007-32.941,0.003-49.412,0.003c-2.861,0-5.683-0.022-8.515-0.232c-2.04-0.151-4.252-0.138-6.389-0.146
						c-7.16-0.026-14.322-0.024-21.483-0.041c-4.518-0.011-8.979-0.083-13.502-0.274c-5.37-0.228-11.005-0.202-16.402-0.004
						c-3.284,0.12-6.69-0.195-9.836,0.246c-6.611-0.72-13.177,0.121-19.789,0.056c-8.583-0.084-17.184-0.013-25.778-0.002
						c-3.571,0.005-7.153-0.055-10.637,0.292c-1.094,0.109-2.357,0.093-3.546,0.102c-4.522,0.034-8.986,0.078-13.497,0.34
						c-3.91,0.227-8.083,0.074-12.14,0.088c-3.805,0.013-7.551,0.016-11.344,0.296c-3.173,0.234-6.642,0.109-9.956,0.21
						c-7.098,0.216-14.278,0.173-21.321,0.391c-10.233,0.317-20.447,0.28-30.674,0.374c-3.563,0.033-7.093,0.274-10.565,0.45
						c-5.455,0.276-10.871,0.344-16.345,0.365c-2.498,0.009-4.754,0.153-5.877,0.911c0.279,0.679,2.087,0.735,3.705,0.656
						c2.556-0.124,5.044-0.366,7.748-0.573c4.519,1.012,3.782,2.573,5.536,3.857c-0.92,0.173-1.489,0.279-2.131,0.4
						c-5.031-0.619-9.509-1.58-15.079-1.917c-4.029,0.515-8.143,1.041-11.784,1.507c-8.421,0.316-16.204,0.001-23.967-0.362
						c-1.385-0.065-2.708-0.254-4.035-0.403c-3.109-0.349-6.17-0.733-9.563-0.813c-0.926-0.022-2.019-0.069-2.703-0.226
						C-443.298,30.63-446.18,30.592-448.791,30.524z"/>
					<path class="st52" d="M206.424,196.721c-3.749,0-7.324,0-10.632,0c-7.411-0.908-14.88-1.272-22.554-1.24
						c-6.945,0.029-13.815-0.033-20.491-0.674c-1.112-0.107-2.356-0.164-3.522-0.148c-5.562,0.078-10.842-0.379-16.21-0.67
						c-0.936-0.051-1.859-0.133-2.802-0.159c-10.625-0.293-21.245-0.602-31.883-0.85c-3.889-0.091-6.724-0.612-9.148-1.53
						c-2.735-0.08-5.322-0.437-8.151-0.771c-6.295,0.865-12.665,0.777-19.36,0.206c-5.192-0.443-10.728-0.55-16.112-0.805
						c-1.641-0.078-3.283-0.153-5.495-0.255c-4.95,0.415-10.829,0.106-15.775,0.653c-3.08-0.092-4.85-0.566-6.902-1.06
						c-4.756,0.294-9.596,0.31-14.605-0.034c-3.636-0.25-7.61-0.191-11.403-0.125c-6.977,0.121-13.739-0.273-20.556-0.556
						c-0.701-0.029-1.388-0.171-2.061-0.16c-7.565,0.129-15.364,0-22.57,0.654c-6.461,0.587-12.127,0.457-17.928-0.378
						c-0.64-0.092-1.306-0.169-2.274-0.294c-2.523-0.024-5.376,0.13-8.168-0.09c-1.513,0.267-2.917,0.515-4.561,0.805
						c-1.709,0-3.685,0.097-5.498-0.019c-4.919-0.315-9.996-0.24-14.851-0.507c-3.552-0.195-7.166,0.366-10.5-0.218
						c-9.511-0.082-18.904-0.742-28.481-0.489c-1.891,0.05-3.775,0.124-5.659,0.197c-1.409,0.054-2.872,0.233-4.204,0.169
						c-5.996-0.288-11.745,0.081-17.601,0.356c-3.964,0.186-8.091,0.124-12.141,0.105c-3.197-0.015-6.163,0.115-8.732,0.747
						c-3.074-0.298-6.142-0.358-9.257-0.348c-1.648,0.006-3.358-0.033-4.941-0.157c-4.498-0.352-8.984-0.314-13.439-0.014
						c-2.372,0.16-4.723,0.263-7.076,0.106c-9.445-0.63-19.044-0.397-28.499-0.235c-6.294,0.107-12.703,0.581-18.437,1.511
						c-1.454,0.236-2.994,0.429-4.519,0.626c-2.269,0.293-4.567,0.386-6.789,0.044c-1.857-0.402-2.175-0.904-1.494-1.556
						c3.131-0.812,7.142-1.334,11.097-1.73c4.277-0.429,8.377-0.959,12.483-1.482c3.46-0.441,6.86-0.488,10.474-0.341
						c3.281,0.134,6.583,0.247,9.889,0.302c3.098,0.052,6.226,0.048,8.961-0.384c3.691,0.408,7.28,0.438,10.853,0.388
						c7.566-0.104,15.187,0.163,22.713-0.325c1.506-0.098,3.259,0.122,5.129,0.206c1.143-0.123,2.477-0.267,4.086-0.441
						c5.189,0.177,10.534,0.123,16.041-0.124c8.164-0.366,16.515-0.392,24.791-0.54c2.848-0.051,5.676-0.016,8.507-0.247
						c2.017-0.165,4.244-0.124,6.381-0.155c3.802-0.054,7.646,0.103,11.399-0.198c0.454-0.036,0.993-0.096,1.394-0.058
						c6.695,0.633,13.172-0.339,19.843-0.209c6.655,0.13,13.362,0.043,20.046,0.044c4.049,0,8.024-0.102,12.063-0.298
						c6.338-0.306,12.819-0.183,20.393,0.08c3.625-0.377,8.822-0.051,13.586-0.63c3.719,0.374,7.584,0.311,11.316,0.47
						c8.257,0.353,16.502,0.502,24.822,0.413c5.336,0.509,10.865,0.325,16.329,0.388c2.135,0.024,4.268,0.093,6.39,0.169
						c4.021,0.144,8.052,0.359,12.098,0.227c4.395-0.144,8.447,0.407,12.748,0.415c4.307,0.008,8.355-0.521,12.743-0.426
						c5.459,0.118,10.973-0.117,16.432,0.152c0.691,0.034,1.449,0.047,2.122,0.003c4.326-0.287,8.523-0.075,12.723,0.307
						c3.891-0.447,7.931-0.446,11.997-0.445c4.046,0,8.085,0.013,12.147-0.101c2.758-0.077,5.861,0.023,8.402,0.328
						c5.651,0.677,11.68,0.65,17.502,0.944c6.297,0.318,12.721,0.455,19.017,0.824c0.927,0.054,1.898,0.055,2.851,0.061
						c10.039,0.07,19.87,0.575,29.576,1.266c3.983,0.283,7.933,0.434,12.008,0.418c4.294-0.017,8.59-0.004,13.093-0.004
						c8.445,1.325,17.59,1.929,26.96,1.623c8.083,0.986,15.686,1.968,23.439,2.839c5.29,0.595,10.582,1.197,16.299,1.456
						c2.995,0.136,6.126,0.295,8.894,0.746c0.819,0.134,1.753,0.261,2.668,0.285c8.378,0.221,16.131,1.158,24.16,1.769
						c4.549,0.346,9.09,0.749,13.338,1.4c2.266,0.347,4.971,0.456,7.485,0.666c4.604,0.384,9.226,0.755,12.397,1.861
						c6.256,0.602,12.297,1.235,18.742,1.476c1.607,0.06,3.179,0.283,4.677,0.486c2.594,0.352,5.103,0.71,8.098,0.754
						c1.577,0.023,3.175,0.271,4.64,0.487c1.491,0.221,2.758,0.545,3.275,1.162c-1.636,1.255-5.534,1.685-9.828,1.959
						c-2.812-0.13-5.635-0.244-8.433-0.396c-5.627-0.305-11.078-0.787-16.289-1.473c-2.2-0.29-4.434-0.442-6.843-0.533
						c-5.202-0.195-10.347-0.537-15.103-1.198c-5.622-0.781-11.494-1.32-17.506-1.777c-3.436-0.262-6.924-0.478-10.233-0.909
						c-1.872-0.244-4.21-0.171-6.301-0.295c-6.763-0.399-13.551-0.773-20.243-1.257c-3.289-0.238-6.534-0.344-9.888-0.357
						c-7.117-0.028-14.21-0.121-21.166-0.641c-1.818-0.136-3.794-0.195-5.663-0.155c-6.733,0.144-13.326-0.237-19.888-0.506
						C217.426,198.057,211.562,197.632,206.424,196.721z"/>
					<path class="st52" d="M518.3,41.67c0.935-0.174,2.318-0.43,3.841-0.713c1.356,0,2.822-0.063,4.2,0.011
						c6.086,0.328,12.135,0.173,18.226,0.012c3.294-0.087,6.639-0.129,9.945,0.159c1.787,0.156,3.75,0.182,5.638,0.192
						c3.102,0.016,6.213-0.044,9.19,0.29c0.221,0.025,0.462,0.034,0.69,0.054c3.052,0.267,6.095-0.193,9.224,0.031
						c2.981,0.213,5.938,0.549,9.117,0.467c1.89-0.049,3.837-0.033,5.657-0.164c4.967-0.357,9.881-0.318,14.856-0.034
						c2.09,0.119,4.24,0.155,6.37,0.208c1.423,0.036,2.92-0.035,4.276,0.064c5.644,0.412,11.272,0.484,16.994,0.142
						c1.09-0.065,2.319,0.075,3.489,0.108c1.183,0.033,2.433,0.132,3.546,0.061c7.257-0.464,14.633-0.255,21.94-0.395
						c5.387-0.104,10.857,0.051,16.176-0.35c0.905-0.068,1.918-0.079,2.85-0.046c8.92,0.321,16.777-0.729,25.488-1.659
						c0.727,0,2.161-0.027,3.579,0.005c4.887,0.11,9.48-0.18,13.874-0.788c4.349-0.602,9.141-0.765,13.74-1.107
						c4.637-0.345,9.189-0.728,13.674-1.357c4.957,0.067,9.711-0.362,14.483-0.824c4.741-0.459,9.563-0.854,14.4-1.221
						c2.08-0.158,4.167-0.279,6.108-0.562c0.843-0.123,1.759-0.227,2.682-0.277c13.075-0.709,26.151-1.416,39.244-2.096
						c1.858-0.097,3.807-0.052,5.714-0.065c4.754-0.032,9.533,0.097,14.203-0.33c1.315-0.12,2.852-0.087,4.27-0.056
						c6.417,0.14,12.829-0.018,19.242-0.004c2.625,0.006,5.193,0.076,7.8,0.217c3.015,0.162,6.173,0.195,9.249,0.155
						c9.386-0.123,18.52,0.338,27.566,0.956c2.824,0.193,5.592,0.312,8.465,0.311c8.831-0.003,17.662,0.009,26.493-0.004
						c1.897-0.003,3.881,0.002,5.668-0.151c3.054-0.262,6.13-0.233,9.222-0.255c3.327-0.024,6.625,0.009,9.917-0.285
						c3.076-0.274,6.057-0.115,8.129,0.603c0.031,0.538-0.956,0.74-2.108,0.845c-5.678,0.52-11.352,1.046-17.081,1.516
						c-3.88,0.318-7.755,0.638-11.872,0.688c-3.062,0.037-6.101,0.255-9.146,0.4c-4.92,0.233-9.828,0.487-14.758,0.701
						c-1.877,0.081-3.799,0.099-5.702,0.103c-7.637,0.018-15.276-0.006-22.912,0.034c-8.612,0.045-17.06-0.334-25.523-0.713
						c-2.108-0.094-4.272-0.119-6.41-0.12c-14.559-0.009-29.118,0.002-43.676-0.006c-5.733-0.003-11.367,0.33-17.006,0.523
						c-9.872,0.337-19.654,0.947-29.381,1.565c-7.199,0.457-14.267,1.092-21.362,1.679c-4.561,0.377-9.237,0.623-13.707,1.119
						c-1.969,0.218-4.052,0.376-6.046,0.606c-2.87,0.331-5.795,0.594-8.897,0.743c-3.501,0.169-6.923,0.499-10.328,0.807
						c-6.811,0.616-13.872,0.993-20.413,1.874c-3.242,0.437-6.828,0.516-10.403,0.653c-10.446,0.4-20.909,0.361-31.387,0.359
						c-3.355-0.001-6.673-0.035-9.949-0.401c-3.372,0.427-6.945,0.407-10.533,0.399c-6.682-0.015-13.366,0.005-20.048-0.004
						c-4.518-0.006-9.038,0.076-13.496-0.307c-1.773-0.152-3.789-0.075-5.696-0.089c-5.467-0.041-10.961,0.095-16.351-0.351
						c-1.556-0.129-3.321-0.059-4.99-0.059c-16.946-0.006-33.892-0.01-50.838-0.01c-2.858,0-5.687,0.006-8.508,0.243
						c-1.789,0.15-3.77,0.143-5.667,0.148c-6.205,0.017-12.411,0.003-18.617,0.008c-2.394,0.002-4.73-0.044-7.064-0.248
						c-5.013-0.438-10.286-0.344-15.426-0.534c-2.017-0.075-4.178,0.177-6.254,0.279c-1.939-0.124-0.31-0.809-2.507-1.056
						c-4.674,0.491-10.089,0.009-15.47,0.273c-3.445,0.169-7.051-0.017-10.63-0.188c-6.823-0.327-13.762-0.313-20.231,0.18
						c-2.725,0.047-4.864-0.492-7.503-0.227c-1.446,0.11-1.433,0.649-2.576,0.889c-0.459,0.043-0.97,0.148-1.333,0.116
						c-2.318-0.209-4.664-0.102-6.634-0.054c-2.187-0.216-3.021-0.847-5.198-0.906c-1.967,0.099-2.289,0.873-5.517,0.991
						c-1.638-0.008-4.342-0.503-7.25-0.063c-0.853,0.129-2.283-0.062-3.45-0.103c-1.41-0.05-3.026-0.251-4.198-0.121
						c-5.958,0.663-12.413,0.06-18.367,0.676c-2.612,0.27-5.169-0.078-7.974-0.239c-4.681,0.376-9.561,0.477-14.579,0.074
						c-2.239-0.18-4.73-0.111-7.11-0.132c-7.366-0.066-14.776,0.166-22.074-0.365c-1.802-0.131-3.802-0.033-5.71-0.046
						c-1.433-0.01-2.874-0.021-4.062-0.307c-1.679-0.951-1.726-0.951-0.707-2.102c1.102-0.447,2.874-0.439,4.43-0.595
						c1.556-0.155,2.989-0.414,4.867-0.683c3.666-0.032,7.55-0.329,11.434-0.685c5.938-0.544,11.957-0.943,18.232-0.349
						c1.54,0.146,3.307,0.121,4.97,0.123c8.115,0.013,16.23,0.017,24.344,0.008c4.256-0.005,8.354-0.402,12.674-0.374
						c5.94,0.039,11.92-0.237,17.915,0.342c7.519-0.931,14.336-0.014,20.602,0.791c1.869,0.002,2.832-0.201,3.849-0.384
						c0.795-0.143,1.68-0.244,2.66-0.382c4.486,0.394,9.518,0.191,13.161,1.184c1.052-0.135,1.702-0.21,2.323-0.301
						c0.632-0.093,1.236-0.203,2.077-0.343c3.546,0.265,7.286,0.491,10.726,0.095c1.449,0.185,2.526,0.322,3.757,0.479
						c1.14-0.205,2.33-0.418,3.706-0.665c7.227,0,14.613,0,22.036,0c1.457,0.24,2.895,0.478,4.151,0.685
						c0.461,0.018,0.728,0.053,0.929,0.033c4.128-0.416,8.593-0.148,12.688-0.469c5.049-0.395,9.808-0.291,14.776,0.078
						C512.111,41.499,514.779,41.937,518.3,41.67z"/>
					<path class="st52" d="M329.244,135.766c4.021-0.616,8.376-0.901,13.005-0.81c2.188,0.043,4.229-0.176,6.277-0.367
						c7.504-0.701,15.216-1.071,23.054-1.302c5.661-0.167,11.255-0.516,16.906-0.72c5.873-0.212,11.768-0.399,17.674-0.498
						c3.584-0.06,7.122-0.099,10.581-0.409c3.905-0.35,7.922-0.458,12.01-0.422c2.379,0.021,4.738-0.029,7.091-0.211
						c1.813-0.14,3.759-0.168,5.652-0.183c4.994-0.039,9.985,0.059,14.917-0.354c1.993-0.167,4.27-0.078,6.414-0.061
						c4.239,0.033,8.458,0.368,12.728,0.016c0.857-0.071,1.915-0.003,2.83,0.061c6.85,0.481,13.615,0.337,20.54,0.026
						c4.886-0.22,10.089-0.221,14.962,0.011c4.527,0.216,8.993,0.248,13.506,0.286c4.28,0.036,8.624-0.126,12.085,0.418
						c2.757-0.162,4.844-0.284,7.027-0.412c4.148,0.551,8.553,0.709,13.05,0.903c6.749,0.291,13.677,0.553,19.968,1.465
						c1.681,0.244,3.542,0.407,5.382,0.531c6.017,0.406,12.049,0.772,18.272,0.849c2.584,0.032,5.211,0.201,7.694,0.423
						c11.841,1.058,23.633,2.163,35.459,3.235c2.419,0.219,4.231,0.583,4.978,1.179c-0.211,0.626-1.44,0.855-2.791,1.001
						c-3.57,0.388-7.148,0.775-10.788,1.102c-3.651,0.328-7.215,0.701-10.015,1.217c-5.879,0.346-10.941-0.082-15.961-0.523
						c-9.11-0.802-18.173-1.648-27.285-2.449c-1.57-0.138-3.297-0.215-4.929-0.192c-8.273,0.117-16.022-0.577-23.806-1.224
						c-2.519-0.21-4.966-0.474-7.662-0.469c-4.022,0.008-7.028-0.814-11.091-1.185c-3.149,0.004-6.661-0.188-10.085-0.489
						c-3.466-0.305-6.981-0.426-10.585-0.398c-1.191,0.009-2.461,0.055-3.566-0.041c-6.553-0.566-13.262-0.332-19.915-0.367
						c-4.522-0.024-9.032,0.036-13.5-0.318c-2.016-0.16-4.268-0.088-6.414-0.091c-7.4-0.01-14.801-0.006-22.202-0.009
						c-4.281-0.002-8.491-0.008-12.766-0.311c-3.886-0.275-8.058-0.18-12.078,0.068c-1.624,0.1-3.291,0.244-4.916,0.222
						c-4.824-0.063-9.51,0.177-14.147,0.483c-3.983,0.263-7.963,0.391-12.039,0.379c-1.646-0.005-3.35,0.063-4.933,0.193
						c-2.106,0.173-4.219,0.243-6.368,0.211c-3.872-0.056-7.617,0.09-11.235,0.497c-2.027,0.228-4.104,0.217-6.268,0.243
						c-7.097,0.085-14.056,0.617-21.203,0.647c-0.885,0.004-1.793,0.181-2.635,0.308c-6.063,0.918-12.598,1.203-19.336,1.219
						c-3.103,0.008-6.208,0.018-9.31,0.002c-1.422-0.008-2.946,0.006-4.243-0.133c-9.208-0.981-19.099-1.067-28.467-1.839
						c-1.788-0.147-3.79-0.08-5.695-0.106c-1.668-0.023-3.424,0.053-4.989-0.073c-5.603-0.451-11.333-0.258-16.996-0.345
						c-11.421-0.176-22.854,0.031-34.284,0.001c-11.219-0.029-22.441,0.002-33.661,0.007c-1.432,0.001-2.867-0.013-4.297,0.004
						c-8.36,0.098-16.723-0.031-24.881-0.501c-4.983-0.287-9.944-0.107-14.847-0.332c-7.786-0.357-15.688-0.277-23.468-0.507
						c-9.449-0.279-18.918-0.494-28.364-0.777c-1.648-0.049-3.249-0.217-4.894-0.287c-3.58-0.152-7.148-0.225-10.411,0.501
						c-4.36-0.256-8.768-0.515-12.929-0.759c-1.813-0.345-2.473-0.74-1.559-1.434c3.582-1.048,9.156-1.081,13.942-1.723
						c3.688,0.38,7.258,0.351,11.166,0.128c5.567-0.318,11.395-0.31,17.055,0.064c5.091,0.337,10,0.736,15.47,0.425
						c3.334-0.19,7.167,0.051,10.553,0.327c3.27,0.267,6.683,0.134,9.851,0.471c0.223,0.024,0.478,0.061,0.689,0.05
						c7.634-0.429,15.119,0.163,22.595,0.374c29.69,0.84,59.441,0.66,89.175,0.568c7.359-0.023,14.685,0.215,22.029,0.071
						c7.164,0.611,14.663,0.289,21.967,0.688c5.817,0.318,11.68,0.709,17.549,0.854C317.512,135.01,323.277,135.359,329.244,135.766
						z"/>
					<path class="st52" d="M39.17,67.459c0.535-0.475,1.437-0.702,2.667-0.766c8.688-0.452,16.793-1.532,25.535-1.943
						c5.476-0.258,10.893-0.28,16.35-0.063c5.407,0.215,10.786,0.526,16.217,0.646c5.92,0.131,11.934-0.091,17.752,0.419
						c11.45-0.107,22.746,0.693,34.228,0.471c4.039-0.078,8.112-0.009,12.17-0.007c2.147,0.001,4.294-0.013,6.372,0.196
						c2.303,0.232,4.766,0.284,7.083,0.171c7.948-0.385,15.643,0.119,23.264,0.57c12.585,0.745,25.051,1.656,37.571,2.492
						c9.274,0.619,18.476,1.378,27.859,1.796c6.862,0.306,13.545,0.709,20.188,1.271c2.925,0.248,6.116,0.359,9.128,0.42
						c5.179,0.106,9.794,0.646,14.253,1.258c5.15,0.707,10.348,1.399,15.486,2.111c5.501,0.763,11.144,1.464,17.278,1.894
						c6.933,0.486,14.103,0.672,20.872,1.353c0.445,0.045,0.947,0.085,1.402,0.071c6.125-0.185,11.671,0.503,17.391,0.941
						c5.51,0.422,11.111,0.598,16.839,0.546c2.819-0.026,5.724,0.073,8.476,0.258c3.733,0.25,7.504,0.111,11.22,0.242
						c3.771,0.134,7.345,0.554,11.218,0.611c2.821,0.042,5.341,0.439,7.312,0.988c-0.392,0.433-1.394,0.577-2.264,0.558
						c-6.378-0.137-12.179,0.576-18.15,1.012c-3.078,0.225-5.968,0.35-9.121,0.082c-2.01-0.171-4.241-0.139-6.377-0.168
						c-7.835-0.106-15.674,0.084-23.518-0.357c-4.606-0.259-9.517-0.084-14.289-0.066c-3.855,0.015-7.605-0.084-11.236-0.492
						c-5.15-0.578-10.692-0.653-16.015-1.009c-4.879-0.327-9.699-0.742-14.546-0.567c-5.387-0.609-10.354-1.3-16.012-1.326
						c-1.333-0.006-2.893-0.199-3.931-0.45c-3.531-0.854-7.759-1.308-11.713-1.929c-4.889-0.767-10.075-1.215-15.178-1.777
						c-4.715-0.519-9.609-0.862-14.511-1.06c-8.224-0.331-16.354-0.874-24.703-0.963c-2.346-0.025-4.76-0.177-6.981-0.403
						c-6.331-0.644-12.943-0.888-19.486-1.227c-1.921-0.1-3.724-0.262-5.363-0.544c-3.57-0.615-7.576-0.856-11.539-1.041
						c-6.576-0.307-13.186-0.515-19.577-1.115c-1.983-0.186-4.238-0.149-6.374-0.178c-5.697-0.079-11.378,0.014-17.083-0.332
						c-3.892-0.236-8.082-0.06-12.139-0.071c-4.525-0.012-8.983-0.05-13.476-0.363c-7.156-0.498-14.439-0.859-21.714-1.195
						c-5.393-0.249-10.857-0.368-16.292-0.538c-1.184-0.037-2.414-0.001-3.561-0.076c-8.037-0.529-16.055-0.513-24.081,0.012
						c-0.69,0.045-1.423,0.043-2.137,0.048c-4.044,0.03-8.077,0-12.053,0.346C41.992,68.381,40.065,68.209,39.17,67.459z"/>
					<path class="st52" d="M264.937,170.184c4.635,1.021,10.102,0.824,15.234,0.903c5.248,0.081,10.309,0.34,15.382,0.671
						c1.383,0.09,2.815,0.116,3.887,0.158c1.899,0.252,3.128,0.558,3.814,1.089c-0.192,0.151-0.256,0.389-0.701,0.516
						c-2.156,0.616-4.834,0.868-7.831,0.78c-5.003-0.147-9.896-0.001-14.805,0.302c-4.219,0.26-8.504,0.282-12.689-0.132
						c-8.125-0.805-16.346-0.698-24.894-0.196c-2.439-0.223-4.034-0.808-5.388-1.371c-0.717-0.687-0.806-1.295-0.118-1.963
						c3.559-1.093,8.29-0.9,12.591-0.63C254.467,170.627,259.289,170.653,264.937,170.184z"/>
				</g>
				<g>
					<defs>
						<path id="SVGID_17_" d="M-97.79,293.536c-5.374,1.229-10.741,1.344-16.151-0.214c-3.218-0.93-6.591-1.102-9.906-0.029
							c-1.464,0.473-2.934,0.971-4.506,0.917c-4.951-0.174-8.862,1.924-12.344,5.309c-2.284,2.226-4.356,4.724-7.189,6.384
							c-5.704,3.335-10.887,7.402-15.573,12.045c-3.846,3.807-7.247,8.007-10.242,13.306c10.439,0.701,19.918-0.243,28.725-5.662
							c-0.596,1.982-2.132,2.85-3.608,3.493c-4.642,2.014-9.452,3.507-14.565,3.746c-3.355,0.159-6.718,0.395-10.071,0.454
							c-1.86,0.031-3.229,0.619-4.157,2.266c-3.243,5.737-7.175,10.999-10.993,16.361c-5.771,8.095-11.179,16.444-16.804,24.644
							c-3.732,5.451-7.861,10.55-13.911,13.661c-0.536,0.279-0.864,0.657-1.051,1.221c-0.929,2.866-2.881,5.149-4.629,7.454
							c-4.563,6.001-8.359,12.658-14.382,17.448c-2.965,2.353-6.094,4.503-8.931,6.986c-5.852,5.108-12.07,9.626-17.222,15.733
							c-9.625,11.429-20.147,22.121-30.898,32.551c-1.094,1.07-2.237,2.436-3.597,2.817c-3.469,0.967-5.666,3.514-8.136,5.742
							c-1.781,1.62-3.752,2.866-5.869,4c-4.928,2.659-9.833,5.373-14.638,8.248c-7.296,4.369-14.736,8.42-22.951,10.787
							c-3.775,1.095-7.457,2.413-11.114,3.829c-7.682,2.98-15.198,6.364-23.499,7.555c-4.475,0.642-8.806,2.272-13.716,3.595
							c2.789,1.82,5.266,1.359,7.728,1.006c5.097-0.736,9.741,0.402,13.819,3.55c1.809,1.404,3.891,2.077,6.001,2.821
							c4.707,1.657,9.532,2,14.457,1.692c0.67-0.044,1.52-0.168,1.575,0.838c0.046,0.858-0.633,1.223-1.363,1.294
							c-7.965,0.822-15.694,0.084-22.577-4.4c-4.23-2.75-8.62-3.839-13.55-2.797c-3.955,0.838-7.635-0.146-10.713-2.513
							c-1.388-1.069-2.5-1.427-4.101-1.22c-2.554,0.334-4.86-0.232-6.733-1.972c0.42-1.063,1.03-0.882,1.564-0.846
							c0.978,0.049,2.25,0.313,2.637-0.716c0.458-1.19,0.118-2.489-1.078-3.342c-0.459-0.332-0.844-0.758-1.328-1.019
							c-3.032-1.636-5.4-3.933-7.371-6.743c-0.742-1.061-1.755-2.101-3.826-2.36c1.218,4.36,2.959,7.803,6.591,10.058
							c0.697,0.425,1.579,0.511,2.151,1.222c0.562,0.699,1.004,1.339,0.423,2.232c-0.478,0.739-1.162,0.666-1.854,0.518
							c-1.995-0.429-3.683-1.567-4.974-2.99c-2.092-2.305-4.529-4.167-6.799-6.242c-3.323-3.035-5.405-6.688-5.627-11.325
							c-0.085-1.774,0.222-3.819-1.039-5.26c-2.211-2.512-2.325-5.521-2.811-8.586c-0.616-3.904-0.799-7.814-0.668-11.713
							c0.159-4.828-1.896-7.972-6.209-9.865c-0.308-0.131-0.257-0.488,0.143-0.814c2.227-1.319,3.737,2.16,5.596,1.407
							c4.266-6.798,4.313-14.189,4.567-21.42c0.326-9.137,2.771-17.619,6.69-25.76c3.057-6.327,7.829-11.574,11.213-17.727
							c1.39-2.538,2.33-4.925,2.38-7.862c0.067-4.038-0.031-8.216,2.003-11.908c3.391-6.14,6.994-12.151,12.145-17.033
							c2.637-2.506,5.615-4.692,7.939-7.446c2.036-2.421,4.203-4.515,6.984-5.907c3.273-1.637,5.789-3.813,8.182-6.772
							c4.572-5.627,8.609-11.748,13.984-16.734c1.12-1.033,2.062-2.304,2.889-3.597c4.639-7.173,9.363-14.281,15.297-20.484
							c0.385-0.406,0.7-0.877,1.032-1.329c7.519-10.394,16.716-19.186,26.488-27.389c5.715-4.806,12.02-8.549,19.603-9.931
							c4.661-0.852,9.238-2.314,13.598-4.25c7.214-3.21,14.6-5.632,22.611-5.809c1.478-0.032,3.518,0.163,4.019-2.14
							c0.149-0.687,0.843-0.67,1.36-0.659c5.405,0.107,9.828-2.976,14.717-4.557c2.772-0.895,5.535-1.919,8.032-3.58
							c11.052-7.331,23.287-11.406,36.377-13.251c7.23-1.01,14.55-0.856,21.757-1.896c2.5-0.359,4.956-0.385,7.506-0.108
							c3.263,0.347,6.269-0.393,8.386-3.542c2.443-3.629,4.604-7.389,5.855-11.541c1.282-4.265,1.665-8.784,3.889-12.799
							c0.741-1.334,0.543-2.991,0.59-4.536c0.182-6.022,5.405-14.877,11.762-16.152c-0.184,1.122-1.213,1.52-1.915,2.107
							c-4.674,3.85-6.588,8.872-6.547,14.793c0.013,1.114,0.066,2.354-0.397,3.293c-2.162,4.473-3.068,9.267-4.074,14.061
							c-0.346,1.609-1.281,3.087-1.969,4.615c-1.416,3.136-3.49,5.89-5.875,9.575c5.333-2.383,10.268-2.699,14.699-4.885
							c6.225-3.068,12.811-3.789,19.628-2.181c2.904,0.688,5.891,0.575,8.764-0.091c8.1-1.868,16.365-1.918,24.574-2.455
							c2.896-0.194,6.063-0.128,8.719,0.862c4.107,1.547,8.156,1.15,12.308,1.256c2.997,0.081,4.631-1.12,6.077-3.429
							c2.221-3.565,4.649-6.96,7.73-9.893c4.173-3.966,7.951-8.266,9.708-13.95c0.396-1.273,0.624-2.707,2.395-3.592
							c-0.814,5.535-2.257,10.435-6.091,14.412c-5.128,5.324-10.024,10.851-13.492,17.498c1.145,1.694,2.888,2.237,4.751,2.052
							c4.364-0.442,8.771-0.428,12.76-3.034c4.125-2.689,8.797-4.207,13.806-4.613c5.38-0.448,10.614,0.532,15.869,1.206
							c12.158,1.589,22.949-1.754,32.838-8.632c4.373-3.043,8.193-6.695,11.14-11.236c-0.033,0.623-0.235,1.131-0.457,1.618
							c-2.161,4.747-5.965,8.026-9.947,11.139c-6.401,4.992-13.572,8.128-21.569,9.616c-6.924,1.291-13.63,0.004-20.423-0.801
							c-6.627-0.79-13.061-0.537-19.076,3.041c-3.7,2.193-3.85,1.959-3.383,6.366c0.272,2.534-0.097,4.624-2.739,5.954
							c-4.703,2.366-8.204,6.279-11.501,10.201c-1.618,1.929-3.693,3.662-5.048,6.626c2.914-0.512,3.513,2.551,5.739,2.647
							c2.545,0.101,4.95,0.895,7.421,1.32c3.167,0.544,6.122,0.066,8.809-1.804c1.49-1.041,3.021-2.026,4.533-3.027
							c5.494-3.632,11.127-7.034,17.176-9.643c5.768-2.502,11.674-4.688,17.118-8.89c-0.697,1.88-1.758,2.647-2.925,3.458
							c-3.005,2.079-6.236,3.666-9.531,5.223c-8.48,3.979-16.674,8.5-24.147,14.226c-1.86,1.432-3.809,2.789-6.336,3.077
							c-5.859,0.672-11.45-0.482-16.738-2.749c-5.541-2.372-8.733-1.972-12.425,2.884c-3.613,4.736-8.08,8.507-12.919,11.832
							c-5.666,3.906-11.12,8.003-15.663,13.22c-0.728,0.837-1.582,1.624-2.503,2.228c-3.857,2.514-6.954,6.064-11.175,8.105
							c-1.233,0.598-2.137,1.887-3.18,2.865c4.438-0.942,8.472-0.043,12.538,1.05c2.965,0.794,6.03,1.294,9.135,1.169
							c4.716-0.204,9.105-1.146,12.061-5.476C-90.757,291.251-94.12,292.69-97.79,293.536z M-139.563,294.515
							c2.041-3.331,3.716-6.901,5.447-10.416c0.567-1.161,0.657-2.185-0.793-3.186c-1.311-0.908-0.979-2.398,0.751-2.629
							c1.946-0.265,1.963-1.66,2.347-2.976c0.365-1.27-0.02-1.848-1.392-1.754c-0.598,0.041-1.09-0.281-1.175-0.935
							c-0.126-0.951,0.719-1.395,1.282-1.304c2.812,0.435,3.371-1.482,4.007-3.485c0.552-1.732,1.284-3.396,1.903-5.109
							c0.467-1.276,0.586-2.198-1.212-2.787c-1.407-0.464-0.861-1.761,0.346-1.921c1.983-0.265,1.804-1.345,1.361-2.643
							c-2.059-6.091-4.176-12.16-6.196-18.266c-0.793-2.387-2.844-3.782-4.169-5.73c-0.468-0.686-1.176-1.42-0.385-2.149
							c0.525-0.492,1.354-0.156,1.927,0.296c2.868,2.249,5.625,4.455,6.653,8.33c1.445,5.401,4.06,10.42,5.589,15.823
							c0.932,3.283,0.796,6.401-0.446,9.448c-2.642,6.464-5.175,12.925-6.644,19.818c-0.594,2.777-2.407,5.304-3.763,8.169
							c1.747,0.687,3.072-0.348,4.305-0.989c9.735-5.012,18.927-10.806,26.294-19.081c2.352-2.636,5.234-4.598,8.139-6.547
							c6.538-4.369,12.625-9.26,17.274-15.711c0.397-0.539,0.941-1.031,0.876-1.836c-0.929-1.15-2.538,0.809-3.483-1.014
							c1.602-2.08,3.842-2.749,6.463-2.188c1.879,0.411,3.271,0.091,4.197-1.729c0.247-0.474,0.723-0.917,1.195-1.172
							c6.872-3.67,10.704-10.917,17.382-14.828c1.555-0.908,1.964-2.446,1.027-3.989c-0.821-1.345-2.145-1.716-3.618-0.845
							c-2.022,1.196-4.042,0.804-6.037-0.048c-2.057-0.868-4.096-1.766-6.113-2.714c-1.953-0.913-3.952-1.016-6.058-0.899
							c0.509,5.117,4.748,8.034,5.917,12.582c-3.175-2.139-6.003-4.651-7.97-7.847c-2.851-4.628-7.327-5.534-12.643-6.567
							c1.569,4.016,3.994,6.588,6.458,9.153c4.02,4.181,4.169,8.889,0.227,13.43c2.617-5.958,0.233-10.334-4.171-14.1
							c-0.628-0.539-1.122-1.253-1.62-1.925c-4.532-5.935-9.062-7.486-16.729-5.559c3.709,2.616,7.387,5.059,9.701,8.948
							c2.26,3.79,2.105,7.997-1.06,11.8c2.302-8.612-2.095-13.486-8.122-16.813c-6.033-3.339-8.021-4.617-13.532-1.677
							c1.973,2.203,4.062,4.144,6.308,5.941c4.728,3.779,7.657,8.833,9.84,14.326c1.152,2.898,0.713,5.05-1.017,7.999
							c-0.249-9.129-5.892-15.121-11.719-20.98c-0.89-0.894-2.022-1.537-2.915-2.416c-7.011-6.928-15.257-8.374-24.359-5.257
							c-4.767,1.629-9.552,3.103-14.426,4.404c-3.639,0.966-3.618,1.213-3.442,4.894c0.08,1.848,0.221,3.65-2.118,4.676
							c-0.877-1.503-1.452-3.041-1.525-4.701c-0.089-2.141-1.543-2.877-3.107-2.349c-3.941,1.341-7.595-1.157-11.566-0.387
							c-3.647,0.713-7.564,1.595-11.235,0.67c-2.453-0.622-2.803,3.415-4.846,1.752c-1.866-1.518-3.657-0.922-5.563-0.777
							c-6.496,0.503-12.623,2.531-18.578,4.909c-4.519,1.815-9.013,3.845-13.128,6.562c-0.682,0.454-1.473,0.785-1.967,1.949
							c9.589,0.096,17.384,4.922,25.52,8.735c1.865,0.873,3.596,2.215,5.132,3.623c2.997,2.755,6.23,5.2,9.497,7.624
							c2.237,1.652,4.076,3.645,4.339,6.949c-18.76-15.678-21.474-17.588-27.356-19.119c0.401,2.694,1.592,4.704,3.528,6.358
							c2.238,1.905,4.441,3.843,6.66,5.76c7.731,6.662,10.855,14.523,9.882,25.114c-1.406-0.208-1.149-1.299-1.239-2.164
							c-0.381-3.469-0.644-6.879-1.968-10.246c-2.316-5.909-6.753-9.895-11.425-13.68c-2.532-2.051-4.821-4.101-6.456-7.021
							c-1.559-2.803-4.201-4.83-6.624-6.951c-0.49-0.43-1.245-0.846-1.868-0.839c-7.595,0.12-15.411-1.507-22.826,3.189
							c5.781,1.981,10.603,5.35,15.082,9.172c4.542,3.856,9.818,6.946,13.254,12.841c-1.169-0.587-2.018-0.84-2.655-1.363
							c-5.969-4.87-12.421-9.114-18.48-13.867c-5.028-3.953-10.938-5.601-17.396-3.793c-3.409,0.948-6.853,1.35-10.384,1.28
							c-2.545-0.052-4.982,0.48-7.334,1.574c-3.01,1.406-6.109,2.602-9.091,4.496c4.78,0.081,9.614,0.584,14.344,0.134
							c9.014-0.856,16.801,2.295,24.331,6.512c4.222,2.359,8.27,5.034,12.519,7.64c-1.461,0.995-2.412,0.22-3.374-0.267
							c-5.491-2.801-10.879-5.811-16.468-8.387c-5.883-2.716-12.02-4.522-19.21-2.914c3.314,1.615,6.538,1.669,9.462,2.832
							c7.036,2.791,13.989,5.661,20.515,9.542c1.312,0.776,2.747,1.37,4.138,2.022c5.45,2.578,8.538,7.51,11.893,12.129
							c2.713,3.745,4.674,7.926,6.004,12.406c0.868,2.94,2.006,5.807,3.007,8.71c1.005,2.931,1.543,5.938,1.562,9.054
							c0.021,2.82,0.659,5.558,1.597,8.221c0.368,1.056,0.772,2.116,1.003,3.206c0.159,0.781,0.341,1.877-0.764,2.052
							c-0.864,0.136-1.881,0.074-2.213-1.266c-1.149-4.601-3.12-9.025-2.687-13.935c0.176-1.989-0.273-3.863-0.975-5.741
							c-1.417-3.805-2.538-7.727-4.051-11.487c-4.319-10.683-10.71-19.447-21.65-24.493c-4.808-2.216-9.721-4.283-14.411-6.785
							c-5.904-3.151-12.631-3.515-18.982-5.187c-0.495-0.128-1.343-0.125-1.594,0.171c-1.468,1.763-2.666,2.098-4.333,0.106
							c-0.625-0.767-2.252-0.655-3.106,0.181c-1.582,1.556-3.467,1.664-5.452,1.611c-5.978-0.174-11.598,1.742-17.264,3.176
							c-3.475,0.871-5.929,3.689-8.501,5.991c-11.167,10.018-21.713,20.626-30.644,32.74c-0.324,0.443-0.639,0.899-0.965,1.36
							c1.038,1.092,1.854,0.092,2.643-0.22c3.506-1.411,6.997-2.871,10.454-4.383c3.995-1.751,8.217-1.376,12.388-1.471
							c4.739-0.108,14,0.947,19.591,3.47c-2.705,0.762-2.693,0.685-7.406-0.305c-7.618-1.598-15.311-1.895-22.842,0.153
							c-4.414,1.207-8.495,3.708-12.922,4.813c-3.583,0.889-5.262,3.256-7.116,5.866c-5.68,7.978-12.013,15.414-18.883,22.394
							c-0.686,0.692-1.321,1.495-1.748,2.354c-1.534,3.055-3.801,5.133-7.178,5.962c-1.556,0.393-2.72,1.567-3.703,2.684
							c-5.076,5.786-11.292,10.431-16.361,16.226c-0.537,0.612-1.213,1.125-1.474,2.528c3.75-1.388,7.288-2.493,10.647-3.982
							c9.049-4.012,18.579-4.045,28.049-2.999c8.029,0.893,15.939,2.672,23.848,4.533c7.089,1.668,12.136,5.723,17.17,10.296
							c-2.636-0.956-4.736-2.845-7.204-4.139c-5.561-2.897-11.619-4.08-17.614-5.318c-10.151-2.104-20.409-3.618-30.849-2.78
							c-7.071,0.572-13.682,2.614-19.756,6.321c-0.946,0.58-1.932,1.163-2.985,1.489c-3.831,1.215-5.474,4.909-8.239,7.318
							c-1.247,1.085-1.259,3.389-1.057,5.219c0.635,5.858-0.979,10.915-4.471,15.695c-1.946,2.656-3.305,5.801-5.616,9.206
							c4.216-1.026,7.989-1.448,11.365-2.838c8.449-3.486,16.475-3.086,24.681,0.887c7.041,3.404,14.35,6.261,21.58,9.274
							c8.937,3.732,16.49,9.368,22.977,16.51c1.689,1.86,3.391,3.726,5.169,5.509c5.424,5.414,8.696,11.906,9.712,19.477
							c0.274,1.982,1.237,3.901,0.891,6.778c-1.455-2.343-1.598-4.306-2.102-6.115c-1.897-6.701-4.723-12.763-10.11-17.556
							c-3.005-2.682-5.399-6.031-8.201-8.983c-5.227-5.499-11.442-9.555-18.336-12.336c-7.906-3.195-15.816-6.42-23.529-10.015
							c-7.417-3.449-14.477-3.266-21.887-0.517c-4.179,1.544-8.706,1.89-12.93,3.453c-1.288,0.477-2.241,0.869-2.855,2.014
							c-0.989,1.848-2.203,3.633-2.838,5.603c-1.199,3.732-2.103,7.561-3.025,11.362c-0.25,1.036-0.551,2.179,0.357,3.648
							c5.193-3.102,11.311-3.146,17.042-4.8c6.386-1.849,13.186-3.995,20.102-1.443c3.831,1.417,7.271,3.513,10.632,5.801
							c3.715,2.521,7.143,5.246,9.857,8.945c5.456,7.462,10.541,15.062,12.812,24.26c-1.532-0.39-1.736-1.776-2.159-2.882
							c-3.109-8.127-8.362-14.941-14.024-21.265c-5.261-5.888-12.149-9.857-19.788-12.199c-2.706-0.836-5.431-0.413-8.265-0.067
							c-6.148,0.735-11.911,3.033-18.005,3.859c-1.383,0.19-2.783,0.444-4.092,0.9c-3.251,1.128-5.381,2.941-5.398,6.923
							c-0.024,5.3-0.649,10.543-3.007,15.527c-1.626,3.425-1.008,4.374,2.528,6.32c1.48,0.816,2.865,1.74,4.218,2.741
							c1.062,0.787,1.842,1.808,2.027,3.073c0.557,3.76,1.912,7.299,2.739,10.989c0.433,1.933,0.467,3.898,0.132,5.84
							c-0.319,1.878,0.413,2.858,2.216,3.373c1.815,0.518,3.528,1.356,5.452,2.668c-0.281-2.596-2.569-3.763-2.758-6.099
							c2.533,0.129,3.209,2.26,4.579,3.443c2.347,2.041,2.795,2.014,4.228-0.785c1.087-2.119,2.03-4.325,3.514-6.205
							c1.157-1.474,0.849-2.456-0.688-3.346c-3.142-1.84-6.247-3.735-9.377-5.594c-0.717-0.431-1.509-0.77-1.849-1.872
							c1.477-1.063,2.899-0.197,4.173,0.356c3.204,1.393,6.391,2.844,9.475,4.492c1.662,0.885,2.833,0.799,3.985-0.687
							c2.032-2.625,4.571-4.406,7.924-5.092c2.513-0.516,4.339-2.327,6.333-5.073c-0.709,3.651-1.602,5.224-3.783,6.247
							c-1.763,0.827-3.339,2.065-5.318,2.457c-1.287,0.248-2.209,1.109-3.058,2.082c-2.086,2.384-2.144,2.714,0.272,4.604
							c3.222,2.519,5.985,5.52,8.598,8.608c2.32,2.738,4.669,4.196,8.267,2.64c2.932-1.262,5.775-0.444,8.528,0.787
							c0.993,0.444,2.393,0.813,1.879,2.28c-0.6,1.735-2.111,1.097-3.184,0.604c-1.576-0.724-3.196-0.915-4.876-1.099
							c-0.885-0.089-1.629,0.124-2.446,0.328c-2.757,0.658-3.81,1.9-1.116,4.112c2.294,1.877,2.981,4.267,2.474,7.131
							c-0.134,0.774-0.607,1.609-0.071,2.406c9.177,0.333,14.567-6.409,14.696-15.692c0.092-6.327-1.796-12.115-5.576-17.261
							c-2.15-2.929-4.182-5.955-6.225-8.967c-3.328-4.898-8.049-8.217-13.128-10.921c-4.726-2.524-9.072-5.561-13.374-8.688
							c-2.644-1.915-5.587-3.304-8.827-5.277c5.672-0.537,10.141,1.221,13.924,4.359c2.923,2.428,5.734,5.088,9.178,6.571
							c8.298,3.591,13.535,10.148,18.161,17.45c1.048,1.651,2.034,3.382,3.306,4.851c3.507,4.044,4.266,9.152,4.992,14.035
							c0.552,3.772-0.434,7.73-1.625,11.477c-0.368,1.165-1.112,2.273-0.783,3.986c5.21-1.778,10.481-3.103,15.288-5.685
							c1.962-1.046,3.017-2.949,3.342-5.11c1.451-9.636,0.861-19.248-3.732-27.846c-2.192-4.098-3.748-8.527-6.345-12.444
							c-2.013-3.024-3.916-6.112-6.341-8.912c0.952-1.049,1.734-0.445,2.343,0.304c2.38,2.917,4.942,5.69,6.742,9.068
							c2.365,4.419,5.02,8.627,8.536,12.319c2.617,2.742,4.245,6.169,5.282,9.902c1.456,5.243,3.064,10.444,3.712,15.74
							c0.821,0.66,1.504,0.332,2.075,0.022c7.652-4.115,15.111-8.545,22.501-13.102c4.082-2.526,5.499-6.075,5.244-10.638
							c-0.162-2.808-0.619-5.552-1.265-8.291c-2.274-9.781-6.743-18.647-11.487-27.371c-1.555-2.856-4.142-4.919-6.738-6.837
							c-3.749-2.755-6.585-6.448-10.054-9.489c-0.889-0.78-1.245-1.781-1.099-3.209c2.028,0.556,3.245,1.92,4.454,3.174
							c2.828,2.928,6.019,5.447,9.2,7.944c4.068,3.197,6.777,7.232,9.193,11.76c4.046,7.59,6.825,15.611,9.158,23.825
							c0.543,1.899,0.845,3.819,0.826,5.794c-0.018,1.363-0.325,2.788,0.862,4.214c4.386-4.348,7.399-9.573,9.182-15.223
							c2.421-7.735,4.274-15.726,3.23-23.939c-0.618-4.849-1.546-9.689-3.167-14.344c-1.685-4.871-2.249-9.883-2.052-15.407
							c1.238,1.29,1.707,2.492,1.879,3.674c1.065,7.244,4.071,13.964,5.623,21.087c2.466,11.284,0.552,21.986-3.445,32.496
							c-1.095,2.869-2.648,5.557-4.108,8.575c1.497-0.02,2.232-1.038,3.003-1.847c8.248-8.577,16.492-17.17,24.699-25.79
							c3.305-3.472,5.852-7.493,8.206-11.65c0.991-1.758,1.604-3.549,1.794-5.535c0.572-5.854,1.217-11.698,1.752-17.548
							c0.115-1.24,0.149-2.585-0.204-3.758c-2.321-7.729-2.279-15.757-3.134-23.67c-0.121-1.111-0.162-2.305-0.625-3.282
							c-2.673-5.747-4.133-11.91-6.361-17.797c-1.736-4.612-4.884-7.939-9.27-10.856c-6.084-4.037-13.04-7.136-17.659-13.201
							c-0.318-0.417-0.542-0.906-1.143-1.901c2.245,0.248,3.362,1.498,4.535,2.459c2.6,2.131,5.296,4.086,8.302,5.636
							c4.229,2.168,7.698,5.486,11.895,7.795c3.101,1.704,4.703,5.121,5.902,8.451c2.256,6.313,3.959,12.822,6.86,18.934
							c1.521,3.189,1.157,6.877,1.289,10.352c0.189,4.638,0.616,9.199,1.927,13.689c0.95,3.249,0.87,6.549,0.47,9.96
							c-0.676,5.804-0.842,11.665-1.221,17.501c0.611,0.03,0.99,0.157,1.143,0.041c5.471-4.582,11.589-8.328,16.828-13.229
							c4.766-4.47,8.028-10.043,11.743-15.297c5.206-7.359,7.219-15.914,9.225-24.462c1.405-5.983-0.852-10.979-4.516-15.542
							c-4.373-5.463-8.786-10.898-13.071-16.428c-4.138-5.317-7.857-10.885-9.666-17.518c-1.102-3.996-3.72-7.157-6.043-10.475
							c-1.017-1.441-2.518-2.646-2.365-5.03c3.27,1.149,5.242,3.621,7.243,5.956c1.315,1.538,2.569,2.532,4.735,2.959
							c4.506,0.9,6.845,4.585,8.739,8.386c2.371,4.746,4.321,9.717,6.794,14.411c2.299,4.345,4.735,8.549,5.569,13.507
							c0.301,1.781,1.58,3.217,3.479,4.482c-0.728-8.051-2.25-15.569-4.609-22.953c2.654,3.988,4.645,8.329,5.296,12.953
							c0.795,5.732,2.377,11.231,3.972,16.731c1.029,3.579,0.407,6.915-0.208,10.35c-0.1,0.546-0.293,1.036-0.839,1.361
							c-3.613,2.132-3.735,5.896-4.728,9.715c3.085-1.314,5.026-3.303,6.628-5.602c6.243-8.972,12.503-17.929,18.573-27.01
							c3.334-4.993,7.482-9.475,9.612-15.138c-3.163,0.153-7.564,2.727-9.212,5.501c-0.701,1.186-1.11,2.653-2.761,2.891
							c-0.363,0.054-0.847-0.052-1.124-0.266c-0.342-0.26-0.438-0.853-0.072-1.114c1.825-1.305,1.72-3.712,3.252-5.28
							c2.381-2.46,1.472-5.175-1.804-6.377c-0.755-0.274-1.715-0.104-2.215-0.976c2.691-2.027,6.667-0.49,9.156,3.726
							c5.015-2.698,10.398-4.279,13.89-9.777c5.852-9.214,14.444-15.902,23.555-21.777c2.458-1.584,4.52-3.227,5.085-6.224
							l-0.196,0.03C-142.53,297.859-140.709,296.39-139.563,294.515z M-401.702,483.883c-1.401-0.998-2.485-0.943-3.528,0.497
							c-1.469,2.032-2.921,4.047-3.757,6.482c-1.034,2.977-1.134,2.939,2.083,5.165c1.677-1.445,0.259-4.176,2.465-5.693
							c0.613,2.085,0.069,4.036,0,5.951c-0.039,1.243-0.412,2.47,0.432,3.62c1.635,2.254,2.181,3.808,4.912,0.772
							c2.254-2.513,5.028-4.404,8.916-5.61C-393.996,490.625-397.469,486.88-401.702,483.883z M-436.581,469.404
							c0.227,3.336,0.635,6.669,0.683,10.017c0.052,3.307,1.762,5.784,3.514,8.304c1.088,1.568,2.764,1.141,4.212,1.103
							c1.51-0.038,1.396-1.523,1.636-2.549c0.347-1.523,0.243-3.066-0.089-4.585c-0.34-1.5-0.842-2.989-0.974-4.507
							c-0.455-5.302-3.292-8.717-8.248-10.745C-436.92,467.444-436.651,468.451-436.581,469.404z M-387.338,505.526
							c1.084-1.881,0.303-4.087-0.478-6.079c-0.388-0.985-1.169-1.121-2.045-0.997c-2.099,0.339-4.022,1.082-5.738,2.409
							c-3.438,2.664-6.163,5.598-4.628,10.486c0.237,0.754,0.013,1.644,0,2.721C-392.663,514.776-390.052,510.265-387.338,505.526z
							 M-225.948,344.165c-2.785-6.269-5.443-11.735-7.624-17.388c-1.403-3.645-3.8-6.019-7.555-8.108
							C-240.086,326.043-232.941,338.074-225.948,344.165z M-341.334,496.04c1.279-0.573,2.007-1.453,1.875-2.909
							c-0.657-7.221-2.359-14.122-6.18-20.443c0.388,8.106,2.531,16.103,0.405,24.444
							C-343.311,497.082-342.344,496.502-341.334,496.04z M-417.814,499.472c0.731,0.027,1.393-0.048,1.825-0.725
							c0.459-0.714,0.15-1.36-0.341-1.88c-1.749-1.872-3.863-3.181-6.321-3.917c-0.817-0.243-1.709-0.401-2.123,0.622
							c-0.32,0.807-0.32,1.693,0.447,2.278c0.77,0.586,1.639,1.055,2.467,1.563C-420.532,498.148-419.488,499.407-417.814,499.472z
							 M-410.044,505.76c0.73-1,1.431-0.211,2.147,0.171c1.03,0.546,1.913,0.241,2.493-0.739c0.425-0.745-0.122-1.342-0.503-1.902
							c-0.613-0.878-1.439-0.829-2.159-0.199c-1.615,1.436-4.081,0.77-5.999,2.467C-412.556,506.325-411.499,507.748-410.044,505.76
							z M-410.685,501.309c0.751-0.306,1.65-0.726,1.462-1.701c-0.158-0.809-0.899-1.379-1.66-1.733
							c-0.967-0.447-1.59,0.158-2.036,0.888c-0.775,1.275-1.474,2.593-2.427,4.274
							C-413.474,502.346-412.069,501.863-410.685,501.309z M-406.914,510.058c-0.925,1.268-0.1,2.665,0.826,3.603
							c0.903,0.91,1.785-0.01,2.353-0.742c0.97-1.262,0.507-2.525-0.042-3.656C-405.21,508.704-406.36,509.298-406.914,510.058z
							 M-386.235,508.716c-0.466,0.6-0.594,1.38-0.006,1.882c0.771,0.644,1.732,0.259,2.266-0.347
							c1.084-1.24,0.938-2.826,0.77-5.313C-384.555,506.621-385.414,507.652-386.235,508.716z M-428.635,500.772
							c0.285-1.196-0.083-1.935-1.273-2.216C-430.091,499.641-429.927,500.493-428.635,500.772z M-401.903,529.909
							c-0.455-0.319-0.894-0.669-1.371-0.958c-3.067-1.895-5.439-4.272-5.929-8.087c-0.075-0.62-0.549-1.403-1.434-0.998
							c-0.511,0.227-0.737,0.855-0.659,1.432c0.468,3.084,1.356,6.011,3.958,8.003c2.759,2.116,5.606,4.116,8.419,6.161
							c0.674,0.487,1.409,1.112,2.174,0.257c0.808-0.895,0.58-1.797-0.359-2.481c-1.57-1.144-3.173-2.257-4.766-3.379
							C-401.883,529.878-401.895,529.896-401.903,529.909z M-87.29,281.375c-1.177,1.021-1.633,2.309-1.676,4.014
							C-87.164,284.343-87.74,282.666-87.29,281.375z M-314.129,284.74c0.264-0.656,1.378-0.995,1.384,0.054
							c0.013,2.224,1.54,1.912,2.844,2.101c2.525,0.379,4.986-0.125,7.481-0.487c4.956-0.715,9.944-1.763,14.96-0.5
							c8.044,2.029,15.682,4.969,22.352,10.11c2.567,1.973,5.118,3.901,6.413,7.009c0.378,0.917,0.867,1.838,0.168,2.771
							c-0.711,0.939-1.787,0.63-2.724,0.602c-0.537-0.014-1.101-0.22-1.589-0.453c-6.701-3.255-14.02-4.677-21.028-6.98
							c-5.102-1.68-9.96-3.377-14.265-6.621c-2.247-1.695-4.948-2.922-7.678-3.024c-3.16-0.106-5.979-1.245-8.944-1.686
							C-315.11,286.461-314.479,285.597-314.129,284.74z M-301.573,288.9c3.944,3.326,7.874,5.881,12.669,6.959
							c4.76,1.068,9.56,2.027,14.142,3.752c3.262,1.23,6.637,1.497,10.205,1.99C-268.469,294.445-287.189,284.388-301.573,288.9z
							 M-283.887,314.423c1.023,0.488,1.745,0.41,2.383,0.159c1.769-0.682,3.129-0.172,4.623,0.935
							c5.767,4.267,10.05,9.594,12.748,16.282c1.298,3.231,2.856,6.38,4.575,9.422c4.147,7.322,7.472,15.006,10.048,23.005
							c1.945,6.047,2.085,12.39,2.727,18.64c0.278,2.799,0.568,5.558,1.583,8.202c1.534,3.979,1.185,8.235,1.94,12.374
							c1.071-4.013,1.832-8.241,0.392-12.12c-2.059-5.544-1.752-11.279-2.399-16.936c-0.742-6.429-2.41-12.472-4.773-18.554
							c-3.416-8.779-8.468-16.681-12.22-25.202c-2.92-6.627-7.362-11.655-12.436-16.435
							C-278.298,310.782-279.921,310.801-283.887,314.423z M-205.827,245.549c2.589,2.19,5.173,2.609,7.802,1.933
							c2.696-0.695,4.926-0.243,7.069,1.427c0.76,0.592,1.631,1.169,2.547,1.437c6.374,1.869,11.477,6.004,16.211,10.222
							c4.929,4.382,10.2,8.814,12.677,15.371c0.239,0.643,0.628,1.242,1.017,1.82c0.121,0.18,0.467,0.205,0.726,0.314
							c1.003-0.527,0.76-1.33,0.4-2.106c-2.184-4.669-4.841-8.88-8.453-12.741c-3.875-4.153-8.245-7.478-12.681-10.849
							c-2.704-2.054-5.668-3.462-8.674-4.974c-4.354-2.189-8.515-4.051-13.465-2.216
							C-202.082,245.713-203.656,244.68-205.827,245.549z M-275.488,377.389c-1.175-3.829-3.849-6.519-6.159-9.424
							c-4.347-5.478-8.477-11.057-10.962-17.658c-0.864-2.304-2.285-4.154-4.012-5.804c-3.418-3.26-6.925-6.44-10.314-9.733
							c-1.636-1.588-3.626-1.675-5.693-2.114c-4.341-0.909-8.508,0.234-13.376-0.075c1.676,2.937,3.846,2.74,5.808,2.694
							c2.66-0.071,5.303-0.275,7.954,0.165c1.836,0.308,3.39,0.974,4.874,2.185c3.27,2.639,6.286,5.552,9.354,8.404
							c1.859,1.728,3.142,3.891,4.082,6.264c3.754,9.425,10.649,16.642,17.121,24.142
							C-276.457,376.83-275.933,377.073-275.488,377.389z M-326.895,365.632c-2.411-3.312-5.764-5.408-7.825-8.864
							c-0.74-1.23-2.699-1.959-4.25-2.43c-8.651-2.623-17.515-4.321-26.5-5.205c-4.181-0.412-8.263,1.151-12.43,1.566
							c-0.514,0.051-1.115,0.33-1.482,0.692c-1.032,1.055-3.38,1.988-2.625,3.336c0.925,1.657,2.587-0.229,3.852-0.734
							c4.768-1.9,9.706-2.828,14.772-1.991c6.187,1.01,12.433,1.698,18.499,3.436c5.175,1.479,10.007,3.461,13.956,7.29
							C-329.75,363.87-328.249,364.668-326.895,365.632z M-351.246,377.235c8.333,2.65,17.332,2.763,25.085,7.373
							c7.451,4.442,14.864,8.869,19.898,16.284C-311.533,385.93-337.962,373.536-351.246,377.235z M-296.858,340.3
							c7.074,7.483,12.866,14.7,16.783,24.224c0.605-3.385-1.209-8.408-5.612-14C-288.622,346.803-290.857,341.996-296.858,340.3z
							 M-217.192,281.182c3.463,8.378,2.647,17.658,5.955,26.508c0.927-1.9,0.525-3.589,0.206-5.056
							c-1.084-4.896-1.831-9.844-2.509-14.801C-213.896,285.166-214.941,282.883-217.192,281.182z M-136.778,277.458
							c0.371-0.727,1.633-1.158,0.596-2.075c-0.763-0.681-1.587-0.397-2.098,0.4c-1.129,1.77-2.472,0.14-3.686,0.318
							c-0.355,0.048-0.729,0.35-0.955,0.651c-0.271,0.329-0.199,0.968,0.189,1.003c1.405,0.134,2.405,1.217,3.685,1.474
							C-137.77,279.496-137.096,278.502-136.778,277.458z M-329.552,286.488c3.481-1.105,6.086-1.714,9.363-0.833
							C-324.096,282.304-326.662,282.478-329.552,286.488z M-145.001,297.983c0.226-0.144,0.464-0.276,0.679-0.433
							c0.682-0.488,2.191-0.638,1.328-1.899c-0.554-0.81-1.804-1.465-2.799-0.623c-0.892,0.768-0.436,1.692,0.415,2.368
							c0.217,0.17,0.398,0.368,0.578,0.554C-144.805,297.953-145.001,297.983-145.001,297.983z M-153.895,287.461
							c0.308-0.751-0.124-1.268-0.744-1.665c-0.659-0.431-1.498-0.49-1.866,0.16c-0.448,0.795-0.125,1.746,0.729,2.141
							C-155.152,288.383-154.397,288.188-153.895,287.461z M-139.045,286.548c1.087,0.578,1.923,0.037,2.546-0.75
							c0.366-0.449,0.182-1.215-0.31-1.473c-0.984-0.525-1.926-0.204-2.547,0.71C-139.702,285.543-139.437,286.093-139.045,286.548z
							 M-295.814,273.487c-0.496-0.177-0.866-0.108-1.081,0.336c-0.45,0.933-0.611,1.905,0.189,2.691
							c0.506,0.492,1.182,0.18,1.306-0.375C-295.209,275.232-294.925,274.206-295.814,273.487z M-292.255,267.329
							c0.236-0.437,0.191-1.159-0.328-1.642c-0.626-0.567-1.289-0.214-1.756,0.346c-0.497,0.6-0.598,1.284,0.127,1.747
							C-293.612,268.161-292.922,268.283-292.255,267.329z M-299.859,276.738c0.204-0.699-0.132-1.083-0.683-1.289
							c-0.837-0.311-1.688-0.305-2.003,0.678c-0.184,0.583,0.395,0.967,0.946,1.102
							C-300.921,277.407-300.236,277.477-299.859,276.738z M-312.696,272.954c0.498-0.733,0.378-1.461-0.227-1.842
							c-0.645-0.416-1.32-0.032-1.763,0.571c-0.328,0.455-0.651,1.01-0.157,1.465C-314.082,273.856-313.34,273.448-312.696,272.954z
							 M-266.803,274.928c0.369,0.399,0.759,0.425,1.079,0.115c0.562-0.529,0.652-1.235,0.276-1.856
							c-0.313-0.532-0.914-0.589-1.336-0.091C-267.284,273.68-267.089,274.353-266.803,274.928z M-130.138,254.119
							c0.294-0.588,0.249-1.156-0.363-1.365c-0.684-0.227-1.396,0.023-1.868,0.549c-0.392,0.443-0.377,1.143,0.139,1.432
							C-131.4,255.204-130.683,254.774-130.138,254.119z M-268.995,276.22c0.029-0.105-0.081-0.735-0.712-1.15
							c-0.61-0.388-1.023,0.006-1.236,0.52c-0.314,0.764,0.124,1.275,0.797,1.558C-269.79,277.297-269.365,277.301-268.995,276.22z
							 M-281.709,271.084c0.491,0.193,0.993,0.423,1.401-0.156c0.447-0.634,0.334-1.307-0.165-1.787
							c-0.398-0.39-0.967-0.407-1.367,0.134C-282.296,269.91-282.135,270.506-281.709,271.084z M-285.636,267.132
							c0.429-1.008,0.34-1.508-0.32-1.682c-0.703-0.172-1.376-0.02-1.674,0.729c-0.227,0.582,0.101,1.046,0.619,1.288
							C-286.217,267.833-285.765,267.375-285.636,267.132z M-131.806,266.18c1.051,0.293,1.694-0.075,2.047-0.953
							c0.154-0.398,0.047-0.854-0.424-0.936c-0.826-0.126-1.69-0.126-1.967,0.894C-132.23,265.484-131.918,265.889-131.806,266.18z
							 M-308.362,272.672c0.657,0.465,1.166,0.201,1.456-0.294c0.298-0.508,0.212-1.135-0.281-1.507
							c-0.463-0.347-1.093-0.485-1.505,0.041C-309.228,271.601-308.804,272.186-308.362,272.672z M-305.845,282.327
							c0.332-0.6,0.513-1.248-0.328-1.651c-0.397-0.19-0.856-0.142-1.07,0.292c-0.312,0.653-0.404,1.341,0.341,1.778
							C-306.495,282.979-306.136,282.727-305.845,282.327z M-262.101,279.661c0.198-0.681,0.308-1.372-0.478-1.763
							c-0.619-0.304-1.017,0.148-1.34,0.594c-0.427,0.585-0.082,1.052,0.397,1.365
							C-263.039,280.179-262.513,280.218-262.101,279.661z M-270.765,272.111c0.193-0.508,0.397-1.057-0.103-1.475
							c-0.646-0.523-1.321-0.23-1.784,0.247c-0.387,0.397-0.432,0.973,0.111,1.398
							C-271.893,272.789-271.313,272.671-270.765,272.111z M-150.535,300.871c0.183-0.653-0.196-1.018-0.702-1.196
							c-0.706-0.249-1.343-0.063-1.594,0.68c-0.105,0.311-0.013,0.959,0.178,1.049
							C-151.853,301.777-151.112,301.545-150.535,300.871z M-160.778,289.568c0.757,0.413,1.297,0.072,1.785-0.482
							c0.313-0.354,0.397-0.788-0.026-1.018c-0.815-0.444-1.631-0.336-2.158,0.477
							C-161.404,288.893-161.123,289.301-160.778,289.568z M-146.743,291.459c0.514-0.587,0.335-0.955,0.018-1.187
							c-0.868-0.635-1.75-0.66-2.401,0.27c-0.169,0.237-0.1,0.867,0.098,1.083C-148.09,292.626-147.38,291.534-146.743,291.459z
							 M-139.585,290.877c0.115-0.731-0.055-1.074-0.502-1.18c-0.811-0.191-1.669-0.326-2.175,0.564
							c-0.357,0.616,0.026,1.077,0.601,1.227C-140.763,291.734-140.15,291.135-139.585,290.877z M-141.547,283.627
							c0.906,0.373,1.572,0.036,2.1-0.647c0.273-0.369,0.152-0.749-0.213-0.997c-0.759-0.518-1.505-0.536-2.086,0.252
							C-142.111,282.725-141.972,283.219-141.547,283.627z M-282.276,277.857c0.637,0.206,1.051,0.207,1.267-0.246
							c0.326-0.662,0.402-1.338-0.358-1.763c-0.387-0.217-0.839-0.108-1.064,0.311
							C-282.797,276.822-282.693,277.439-282.276,277.857z M-288.046,271.662c-0.585-0.406-1.001-0.151-1.282,0.391
							c-0.262,0.533-0.182,1.058,0.306,1.426c0.592,0.443,1.016,0.031,1.322-0.418
							C-287.333,272.507-287.617,272.055-288.046,271.662z M-160.108,307.864c0.181-0.441,0.239-0.885-0.254-1.075
							c-0.676-0.27-1.375-0.282-1.828,0.426c-0.251,0.397-0.143,0.869,0.269,1.062
							C-161.239,308.601-160.595,308.415-160.108,307.864z M-171.601,311.14c-0.69-0.342-1.332-0.177-1.831,0.33
							c-0.539,0.563-0.108,1.107,0.354,1.281c0.613,0.227,1.368,0.205,1.731-0.556C-171.171,311.82-171.151,311.4-171.601,311.14z
							 M-152.451,297.329c0.754,0.256,1.381-0.042,1.865-0.565c0.372-0.418,0.032-0.756-0.339-0.936
							c-0.727-0.369-1.362-0.208-1.78,0.494C-152.919,296.689-153.015,297.108-152.451,297.329z M-152.732,292.587
							c0.732,0.178,1.476,0.017,1.947-0.706c0.226-0.354,0.035-0.771-0.403-0.914c-0.7-0.228-1.351-0.017-1.798,0.491
							C-153.252,291.764-153.113,292.221-152.732,292.587z M-144.956,286.214c0.492-0.384,0.163-0.755-0.11-0.975
							c-0.724-0.592-1.449-0.56-2.046,0.228c-0.259,0.348-0.302,0.81,0.023,1.077C-146.305,287.187-145.632,286.606-144.956,286.214
							z M-166.409,228.899c0.107-0.567,0.425-1.165-0.199-1.466c-0.625-0.298-1.333-0.316-1.823,0.315
							c-0.451,0.585-0.024,1.009,0.412,1.331C-167.435,229.519-166.825,229.66-166.409,228.899z M-268.299,268.426
							c0.231-0.53,0.334-1.184-0.134-1.487c-0.469-0.298-1.057,0.089-1.425,0.492c-0.399,0.455-0.401,1.094,0.125,1.373
							C-269.297,269.021-268.685,268.918-268.299,268.426z M-303.09,270.554c0.673,0.348,1.271,0.513,1.669-0.334
							c0.266-0.579,0.056-1.218-0.355-1.414c-0.576-0.267-1.32-0.242-1.765,0.451C-303.955,269.894-303.397,270.195-303.09,270.554z
							 M-146.689,269.191c0.293-0.388,0.41-0.807-0.006-1.086c-0.497-0.347-1.069-0.257-1.497,0.158
							c-0.436,0.43-0.596,0.988,0.048,1.342C-147.593,269.9-147.101,269.526-146.689,269.191z M-169.69,316.379
							c-0.69-0.212-1.347-0.177-1.688,0.605c-0.197,0.447,0.053,0.734,0.511,0.841c0.584,0.141,1.106-0.002,1.488-0.442
							C-169.029,316.964-169.318,316.657-169.69,316.379z M-137.992,270.346c0.398-0.477,0.347-0.915,0.005-1.169
							c-0.659-0.489-1.268-0.171-1.79,0.318c-0.378,0.35-0.31,0.77,0.032,1.055C-139.051,271.122-138.497,270.544-137.992,270.346z
							 M-144.947,273.096c0.118-0.555-0.071-0.91-0.532-0.977c-0.569-0.079-1.145,0.046-1.334,0.699
							c-0.12,0.428,0.036,0.876,0.509,0.911C-145.744,273.784-145.2,273.607-144.947,273.096z M-138.242,261.669
							c-0.698-0.243-1.335-0.205-1.722,0.553c-0.2,0.41-0.071,0.808,0.382,0.942c0.578,0.172,1.088-0.052,1.478-0.467
							C-137.762,262.35-137.819,261.976-138.242,261.669z M-179.088,229.709c0.542,0.372,1.067,0.278,1.44-0.196
							c0.383-0.462,0.397-1.048,0.012-1.512c-0.539-0.665-0.971-0.09-1.343,0.251C-179.427,228.665-179.44,229.196-179.088,229.709z
							 M-135.172,258.9c0.72,0.135,1.382-0.03,1.744-0.698c0.199-0.388-0.065-0.845-0.469-0.964
							c-0.566-0.162-1.126,0.027-1.459,0.514C-135.615,258.115-135.519,258.547-135.172,258.9z M-163.97,229.426
							c-0.495-0.029-0.743,0.284-0.88,0.679c-0.176,0.558-0.178,1.135,0.478,1.378c0.461,0.162,0.769-0.201,0.863-0.608
							C-163.377,230.326-163.409,229.776-163.97,229.426z M-159.039,299.013c0.56,0.446,1.181,0.171,1.719-0.247
							c0.308-0.246,0.428-0.733,0.105-1.033c-0.61-0.554-1.252-0.279-1.788,0.167C-159.315,298.17-159.417,298.556-159.039,299.013z
							 M-141.591,287.437c0.287-0.162,0.081-0.589-0.131-0.867c-0.484-0.612-1.101-0.593-1.726-0.169
							c-0.461,0.31-0.283,0.73-0.071,1.021C-143.033,288.08-142.42,287.959-141.591,287.437z M-149.156,281.973
							c0.725,0.043,1.444-0.051,1.761-0.778c0.187-0.447-0.244-0.75-0.66-0.851c-0.579-0.134-1.106,0.034-1.39,0.585
							C-149.66,281.324-149.555,281.713-149.156,281.973z M-273.873,266.39c-0.699-0.357-1.085,0.055-1.324,0.551
							c-0.248,0.496-0.395,1.097,0.206,1.475c0.637,0.406,1.026-0.074,1.268-0.567C-273.48,267.369-273.327,266.796-273.873,266.39z
							 M-289.876,282.01c0.38-0.619,0.678-1.136,0.2-1.604c-0.532-0.514-1.072-0.136-1.377,0.298
							c-0.333,0.459-0.327,1.066,0.259,1.405C-290.444,282.313-290.014,282.361-289.876,282.01z M-154.9,280.282
							c0.353-0.372,0.268-0.706-0.124-0.945c-0.362-0.217-0.775-0.218-1.12,0.083c-0.326,0.283-0.569,0.766-0.245,1.017
							C-155.958,280.779-155.375,280.614-154.9,280.282z M-183.413,231.453c0.134-0.527,0.26-1.147-0.208-1.475
							c-0.306-0.226-0.712,0.155-0.876,0.522c-0.252,0.573-0.074,1.024,0.494,1.294
							C-183.676,231.946-183.47,231.817-183.413,231.453z M-262.083,270.412c0.204-0.524,0.313-1.066-0.265-1.398
							c-0.373-0.202-0.77-0.034-0.986,0.336c-0.304,0.511-0.333,1.039,0.243,1.361
							C-262.714,270.922-262.337,270.784-262.083,270.412z M-319.171,280.839c0.367-0.431,0.42-0.896,0.037-1.385
							c-0.341-0.442-0.744-0.243-1.01,0.006c-0.501,0.492-0.828,1.099-0.063,1.625
							C-319.885,281.303-319.456,281.276-319.171,280.839z M-257.331,273.861c0.731,0.391,1.095,0.062,1.354-0.471
							c0.188-0.366,0.264-0.789-0.091-1.055c-0.503-0.375-1.085-0.226-1.424,0.221
							C-257.834,273.014-257.807,273.557-257.331,273.861z M-245.332,276.356c-0.154-0.389-0.193-0.846-0.439-1.038
							c-0.502-0.391-1.042-0.22-1.197,0.4c-0.08,0.302,0.112,0.827,0.363,0.998C-246.422,276.84-245.957,276.552-245.332,276.356z
							 M-135.376,267.528c0.691-0.374,0.405-0.776,0.19-1.098c-0.361-0.535-0.977-0.651-1.455-0.307
							c-0.442,0.319-0.689,0.908-0.106,1.403C-136.245,267.948-135.733,267.876-135.376,267.528z"/>
					</defs>
					<use xlink:href="#SVGID_17_"  style="overflow:visible;fill:#6B1446;"/>
					<clipPath id="SVGID_6_">
						<use xlink:href="#SVGID_17_"  style="overflow:visible;"/>
					</clipPath>
				</g>
			</g>
			<g>
				<path class="st57" d="M658.733-161.105c-0.265-0.548-0.531-1.097-0.796-1.645c0.138-2.171-0.624-4.05-1.875-5.77
					c-0.585,2.332,0.891,3.962,1.952,5.733c0.266,0.548,0.532,1.096,0.798,1.644c-0.182,1.613,0.1,3.105,1.143,4.399
					c-0.566,1.079-0.776,2.589-2.321,2.667c-1.637,0.083-1.939-1.287-2.217-2.538c-0.183-0.821-0.208-1.707-0.544-2.457
					c-1.169-2.616-1.05-5.83-3.583-7.817c-1.945,3.318-0.105,6.383,0.815,9.415c0.532,1.755,1.806,3.29,2.778,4.905
					c0.644,1.07,1.445,2.058,1.967,3.18c0.209,0.449,0.055,1.335-0.281,1.712c-0.638,0.716-1.548,0.516-2.221-0.072
					c-2.093-1.83-3.702-3.999-4.501-6.712c-0.891-3.024-1.805-6.042-2.719-9.06c-0.908-2.996-0.93-3.041-3.753-2.042
					c-1.348,0.477-2.837,1.702-3.78-0.217c-0.855-1.739,0.913-2.63,1.959-3.5c0.934-0.777,2.154-1.264,3.316-1.696
					c1.173-0.436,2.481-0.517,3.642-0.975c7.611-3.001,11.709-7.277,9.851-15.099c-0.049-0.204-0.075-0.414-0.117-0.62
					c-0.262-1.304-0.287-2.593,1.096-3.275c1.602-0.79,3.305-0.944,4.678,0.414c1.036,1.025,1.805,2.314,2.768,3.42
					c0.809,0.929,1.596,2.233,3.009,1.954c2.938-0.579,4.027,1.563,5.538,3.292c3.495,3.996,5.299,8.524,4.812,13.881
					c-0.076,0.834-0.148,1.69-0.041,2.512c0.183,1.4,0.741,2.052,2.491,1.918c5.054-0.386,7.187,1.228,7.504,5.956
					c0.193,2.869,0.724,4.956,3.22,6.886c3.733,2.886,3.607,6.068,0.378,9.703c-0.837,0.942-1.672,1.916-2.652,2.694
					c-2.832,2.25-2.923,4.839-1.249,7.799c0.825,1.459,1.572,2.97,2.246,4.506c1.586,3.611,3.151,6.987,1.041,11.265
					c-0.884,1.793-1.701,4.148-1.893,6.51c-0.943,11.589-4.335,22.755-7.678,33.722c-4.805,15.762-7.752,31.852-10.553,47.956
					c-2.371,13.634-3.393,27.519-4.645,41.327c-1.46,16.107-1.567,32.288-1.986,48.447c-0.256,9.864-0.117,19.749-0.721,29.589
					c-0.538,8.775-1.18,17.612-5.209,25.77c-1.76,3.565-2.858,7.45-4.468,11.097c-5.591,12.663-9.924,25.931-17.937,37.439
					c-0.956,1.373-1.688,2.906-2.486,4.385c-9.428,17.461-20.955,33.534-34.114,48.263c-16.715,18.709-35.535,35.168-56.972,48.444
					c-3.213,1.99-6.26,4.245-9.416,6.329c-5.613,3.705-11.06,7.713-16.915,10.989c-14.666,8.205-29.78,15.574-44.566,23.577
					c-18.571,10.052-38.762,16.128-59.322,20.804c-9.015,2.05-18.134,3.638-27.159,5.645c-13.734,3.054-27.435,5.759-41.595,6.652
					c-11.073,0.698-22.227,0.847-33.259,2.359c-0.824,0.113-1.677,0.011-2.516,0.01c-8.6-0.011-17.203-0.163-25.799,0.014
					c-6.922,0.143-13.839,1.021-20.754,0.983c-18.481-0.102-36.939-1.206-55.299-3.21c-17.524-1.913-35.089-3.405-52.585-5.664
					c-19.266-2.488-37.892-7.306-56.298-13.254c-5.402-1.746-10.75-3.6-15.414-6.965c-3.293-2.375-7.085-3.649-10.865-4.935
					c-3.813-1.297-7.254-3.24-10.594-5.482c-4.176-2.803-8.486-5.414-12.83-7.952c-2.482-1.451-4.728-3.52-7.863-3.566
					c-1.286-2.396-2.659-4.751-3.831-7.202c-0.896-1.874-0.291-3.703,0.718-5.397c1.038-1.743,0.801-3.129-0.971-4.272
					c-2.041-1.316-2.203-3.294-2.037-5.55c0.448-6.062,3.774-10.402,7.699-14.711c2.66-2.92,5.539-4.353,9.299-4.329
					c2.339,0.015,4.606-0.328,6.842-0.961c6.061-1.716,12.212-3.171,18.153-5.234c4.94-1.715,10.058-3.071,14.629-5.774
					c8.577-5.073,15.882-11.632,22.421-19.09c1.39-1.585,2.784-3.108,4.609-4.247c4.991-3.114,9.938-6.299,14.871-9.507
					c4.084-2.656,8.511-4.486,13.095-6.115c7.425-2.639,15.136-3.501,22.874-4.193c9.423-0.844,18.863-0.743,28.278,0.297
					c16.699,1.845,33.421,3.103,50.238,2.104c2.929-0.174,5.911-0.1,8.77-0.65c3.342-0.643,6.653-0.862,10.023-0.732
					c3.782,0.145,7.551-0.09,11.33-0.256c4.029-0.177,7.877-1.371,11.834-1.657c9.206-0.664,18.413-1.647,27.671-1.017
					c2.108,0.144,4.232,0.155,6.241-0.556c8.594-3.042,17.599-3.949,26.543-5.154c12.407-1.671,24.071-5.799,35.471-10.745
					c8.855-3.841,17.723-7.639,26.284-12.162c5.381-2.843,11.008-5.218,16.143-8.543c5.999-3.884,12.016-7.739,18.05-11.567
					c5.503-3.492,10.932-7.095,15.847-11.385c4.908-4.285,9.89-8.451,15.094-12.389c9.888-7.483,18.142-16.804,27.402-25.011
					c8.661-7.676,17.298-15.294,27.724-20.602c11.571-5.891,20.794-14.867,30.124-23.632c4.446-4.177,8.703-8.525,13.893-11.819
					c6.912-4.387,13.725-8.932,20.714-13.191c3.276-1.996,6.216-4.288,8.777-7.108c6.832-7.524,12.322-15.974,16.45-25.213
					c6.438-14.411,11.456-29.334,15.466-44.615c1.713-6.527,2.931-13.095,3.779-19.776c0.82-6.46,1.671-12.944,3.068-19.295
					c2.171-9.871,3.76-19.785,4.276-29.883c0.544-10.636,2.268-8.936-7.718-13.509c-2.111-0.967-4.129-2.097-5.077-4.457
					c-2.868-7.139-4.352-14.452-3.179-22.183c0.442-2.913,1.816-5.127,4.298-6.599c1.135-0.673,2.109-0.046,2.363,1.134
					c0.164,0.761-0.183,1.632-0.301,2.454l-0.032-0.06c2.19,1.995,1.753,4.719,1.511,7.098c-0.391,3.846,0.727,6.978,3.021,9.917
					c1.418,1.816,2.642,3.781,4.001,5.645c0.738,1.013,1.5,2.057,3.031,1.816c0.812-0.128,1.867,0.1,2.398-0.336
					c0.706-0.581,0.048-1.493-0.315-2.221c-0.652-1.306-1.354-2.593-1.913-3.939c-0.332-0.799-0.201-1.664,0.533-2.259
					c0.874-0.708,1.61-0.117,2.189,0.45c1.031,1.01,1.465,2.575,2.936,3.191c0.031,0.329,0.062,0.658,0.093,0.987
					c0.035-0.147,0.125-0.308,0.091-0.436c-0.049-0.183-0.19-0.341-0.291-0.51c0.3-0.773,0.506-1.601,0.921-2.306
					c0.747-1.268,1.678-1.838,2.804-0.314c0.345,0.467,0.851,1.319,1.101,1.257c0.712-0.176,0.536-0.968,0.483-1.564
					c-0.405-4.517-0.294-9.126-2.338-13.356C660.176-158.346,659.73-159.796,658.733-161.105z M637.707-143.225l0.091,0.192
					c0.269,0.535,0.538,1.07,0.806,1.605c0.648,2.139,1.178,4.374,2.948,5.901c0.538,0.464,1.602,0.791,2.224,0.582
					c1.052-0.354,0.428-1.286,0.184-2.017c-0.876-2.63-2.984-3.736-5.433-4.428c-0.253-0.54-0.505-1.08-0.758-1.621L637.707-143.225
					z M662.349-163.902c0.13-2.748-0.692-5.334-1.388-7.936c-0.157-0.585-0.646-1.143-1.323-0.962
					c-0.714,0.192-0.846,0.949-0.598,1.516c1.078,2.469,2.241,4.902,3.374,7.348L662.349-163.902z M667.629-163.427
					c-0.438,0.93-0.633,2.35-1.355,2.709c-3.908,1.943-1.794,4.929-1.51,7.585c0.029,0.268,0.592,0.727,0.822,0.68
					c0.865-0.176,1.774-1.647,2.544-0.133c0.746,1.466,1.351,3.086,1.598,4.703c0.344,2.252-0.054,4.601,0.77,6.814l0.079,0.207
					l-0.106-0.192c0.677-1.993,1.026-4.034,0.914-6.145c-0.131-2.465-0.653-4.897,1.755-6.876c1.381-1.135,0.781-3.117,0.613-4.762
					c-0.214-2.085-0.167-4.057,0.641-6.11c2.566-6.514,1.64-9.728-3.872-14.771l-0.153-0.337l0.259,0.282
					c-1.081,6.052,0.206,11.99,0.885,17.956c0.094,0.822,0.398,1.618,0.529,2.438c0.252,1.583,1.167,3.771-1,4.27
					c-2.179,0.501-2.376-1.7-2.628-3.371c-0.248-1.641-0.576-3.27-0.87-4.904c-0.271-0.55-0.542-1.1-0.813-1.649
					c0.841-5.012-0.566-9.928-0.674-14.902c-0.016-0.738-0.631-1.502-1.085-2.176c-0.201-0.299-0.708-0.586-1.048-0.557
					c-0.728,0.062-1.016,0.714-0.924,1.341c0.448,3.059,0.812,6.143,1.5,9.151c0.552,2.418,1.524,4.74,2.31,7.104
					C667.084-164.524,667.356-163.975,667.629-163.427z M75.964,257.127c7.324-1.715,14.742-3.517,22.412-2.852
					c0.809,0.07,1.612,0.261,2.404,0.451c0.145,0.035,0.342,0.36,0.312,0.512c-0.07,0.371-0.158,0.846-0.419,1.054
					c-1.051,0.837-2.365,0.713-3.609,0.843c-9.834,1.025-19.548,2.484-28.858,6.13c-3.489,1.366-7.323,1.846-10.993,2.759
					c-0.613,0.152-1.375,0.514-1.235,1.179c0.084,0.404,0.887,0.865,1.413,0.932c2.283,0.289,4.59,0.39,6.872,0.68
					c0.642,0.081,1.011,0.76,0.867,1.439c-0.075,0.353-0.399,0.863-0.692,0.926c-1.838,0.396-3.692,0.727-5.552,1.005
					c-5.375,0.803-10.029,7.06-9.168,12.36c0.212,1.307,0.884,2.381,1.846,3.217c5.043,4.382,9.351,9.575,15.666,12.518
					c3.947,1.84,7.568,4.546,11.01,7.273c11.33,8.974,24.726,13.321,38.306,17.057c9.507,2.616,19.205,4.656,28.922,6.355
					c10.943,1.914,21.943,3.738,33.073,4.155c5.059,0.19,10.062,0.691,15.027,1.504c11.639,1.906,23.409,2.329,35.127,3.326
					c13.169,1.121,26.35,2.221,39.591,1.593c1.874-0.089,3.752-0.398,5.592-0.779c0.992-0.206,2.308-0.748,2.042-1.962
					c-0.583-2.66,1.303-3.109,2.971-4.013c8.524-4.618,17.976-5.64,27.306-7.139c0.599-0.096,1.336-0.122,1.828,0.147
					c0.461,0.253,0.788,0.908,0.964,1.454c0.088,0.273-0.211,0.922-0.474,1.016c-1.766,0.635-3.54,1.287-5.364,1.71
					c-6.136,1.426-12.392,2.359-18.36,4.458c-1.167,0.411-2.316,0.969-3.336,1.663c-0.526,0.358-0.356,1.164,0.199,1.576
					c1.065,0.789,2.343,0.853,3.612,0.88c11.532,0.244,23.02-0.35,34.542-0.975c11.102-0.603,22.142-2.201,33.31-2.016
					c7.166,0.118,14.223-1.712,21.126-3.368c14.922-3.578,30.173-5.499,45.021-9.38c19.16-5.008,38.057-10.88,55.233-20.908
					c10.917-6.374,22.176-11.984,33.481-17.558c8.321-4.103,15.872-9.463,23.627-14.489c4.054-2.628,8.012-5.407,12.102-7.976
					c12.861-8.078,24.799-17.314,35.598-28.01c12.238-12.122,23.934-24.692,34.369-38.462c6.365-8.399,12.249-17.027,17.348-26.233
					c2.441-4.407,5.24-8.615,7.847-12.931c0.864-1.43,1.779-2.857,2.424-4.388c5.222-12.39,10.32-24.833,15.59-37.202
					c3.192-7.491,4.224-15.378,4.502-23.374c0.547-15.739,1.018-31.484,1.262-47.23c0.31-19.973,2.351-39.784,4.602-59.61
					c2.354-20.735,6.483-41.032,12.367-61.043c3.137-10.671,5.447-21.585,8.122-32.391c0.297-1.2,0.904-2.607-0.385-3.459
					c-1.737-1.149-3.681-2.062-5.864-1.663c-0.483,0.088-1.011,0.761-1.23,1.285c-0.484,1.158-0.855,2.376-1.148,3.599
					c-2.35,9.81-4.418,19.696-7.067,29.424c-3.21,11.787-5.256,23.797-7.689,35.738c-1.509,7.407-3.311,14.755-4.939,22.138
					c-0.633,2.87-1.258,5.749-1.7,8.653c-1.932,12.695-5.608,25.011-8.074,37.588c-0.04,0.206-0.096,0.41-0.156,0.611
					c-3.568,11.863-7.096,23.739-10.73,35.582c-1.18,3.848-3.504,7.164-5.5,10.616c-6.303,10.905-12.782,21.71-18.933,32.7
					c-3.323,5.937-7.683,10.991-12.065,16.092c-7.664,8.921-14.676,18.405-22.963,26.789c-3.691,3.734-7.47,7.39-11.336,10.944
					c-11.598,10.662-22.268,22.348-34.992,31.771c-0.834,0.618-1.843,1.284-2.234,2.165c-1.478,3.334-4.453,4.996-7.28,6.761
					c-10.521,6.569-21.304,12.688-32.39,18.255c-2.038,1.024-4.061,2.287-6.487,2.226c-0.888-0.022-1.722-0.422-1.781-1.371
					c-0.031-0.511,0.374-1.313,0.815-1.546c4.078-2.166,8.246-4.164,12.312-6.352c6.658-3.584,13.323-7.163,19.863-10.954
					c5.091-2.951,9.842-6.372,14.117-10.512c14.942-14.467,30.051-28.761,45.037-43.183c7.436-7.156,13.325-15.702,20.386-23.174
					c12-12.698,19.828-28.056,28.373-42.982c1.356-2.369,2.52-4.87,4.076-7.098c5.511-7.892,8.356-16.862,10.818-26.004
					c0.219-0.812,0.282-1.676,0.578-2.454c4.721-12.422,7.51-25.371,10.457-38.276c1.028-4.502,2.426-8.965,2.948-13.526
					c0.962-8.403,3.375-16.455,5.184-24.655c1.716-7.782,3.122-15.632,4.862-23.408c2.156-9.629,4.478-19.222,6.798-28.814
					c2.468-10.203,4.939-20.407,7.58-30.567c0.741-2.848-0.866-4.842-1.762-7.127c-1.793-4.574-1.826-4.656-6.153-4.362
					c-2.123,0.144-3.946,0.337-5.848-1.262c-1.631-1.37-4.072-0.508-6.117-0.475c-3.92,0.062-4.658,1.018-4.655,4.917
					c0.01,10.729-1.013,21.351-2.929,31.916c-1.649,9.091-3.037,18.231-4.416,27.368c-2.49,16.511-7.827,32.215-13.119,47.966
					c-3.92,11.669-9.537,22.404-16.373,32.537c-4.256,6.309-9.398,11.657-16.13,15.647c-7.031,4.167-13.632,9.056-20.74,13.158
					c-5.502,3.176-9.801,7.9-14.298,12.319c-7.355,7.228-15.276,13.784-23.523,19.957c-0.503,0.377-1.046,0.706-1.591,1.02
					c-7.168,4.135-15.511,6.568-20.351,14.071c-6.397,2.312-10.059,8.002-14.964,12.153c-3.68,3.114-7.229,6.337-10.514,9.927
					c-2.783,3.043-6.757,4.86-9.944,7.654c-7.897,6.921-15.758,13.968-24.266,20.086c-14.834,10.668-30.025,20.765-46.632,28.727
					c-10.238,4.909-20.505,9.63-31.004,13.942c-12.958,5.322-26.37,8.557-40.236,10.061c-4.83,0.524-9.57,1.367-14.183,2.878
					c-4.048,1.326-8.151,1.559-12.421,1.459c-12.188-0.285-24.341,0.533-36.409,2.331c-3.543,0.528-7.049,0.922-10.654,0.618
					c-2.71-0.229-5.5-0.289-8.184,0.086c-18.624,2.601-37.219,1.737-55.822-0.178c-5.223-0.538-10.46-0.945-15.695-1.356
					c-9.689-0.761-19.335,0.154-28.895,1.422c-9.932,1.318-18.916,5.497-27.292,10.942c-3.524,2.291-7.158,4.442-10.503,6.971
					c-4.534,3.428-8.192,7.796-11.735,12.204c-1.044,1.298-1.528,2.852-3.635,2.948c-1.761,0.081-2.846,1.672-4.154,2.698
					c-5.515,4.327-11.62,7.531-18.249,9.788c-7.362,2.507-14.657,5.208-22.269,6.923c-1.617,0.364-3.131,1.186-4.693,1.798
					l-0.249,0.095l0.236-0.109C63.122,258.945,69.461,258.65,75.964,257.127z M679.837-155.075c1.768-0.029,2.201,0.955,1.929,2.407
					c-0.962,5.142-1.993,10.272-2.974,15.41c-0.182,0.955-1.016,2.018,0.066,2.854c0.422,0.326,1.269,0.467,1.755,0.273
					c1.221-0.488,2.213-1.37,1.634-2.874c-1.242-3.224,0.524-5.669,2.071-8.123c0.662-1.05,1.79-2.066,3.139-1.338
					c1.093,0.59,0.707,1.792,0.343,2.811c-0.136,0.382-0.325,1.06-0.17,1.177c0.628,0.471,1.174-0.031,1.573-0.474
					c2.305-2.561,2.341-3.241-0.693-5.068c-2.796-1.683-3.414-3.974-3.054-6.925c0.291-2.391-0.561-3.594-3.212-2.82
					c-1.369,0.4-2.282-0.854-3.439-1.249c-0.619-0.211-1.227-0.049-1.221,1.036C677.95-156.885,677.694-155.04,679.837-155.075z
					 M676.972-145.752c0.154-0.492,0.002-0.924-0.451-0.9c-0.285,0.015-0.663,0.406-0.789,0.715
					c-0.143,0.349-0.055,0.795-0.06,1.198c-0.008,0.598-0.009,1.197-0.012,1.795c1.014-0.14,0.533-1.166,0.962-1.594
					C676.747-144.976,676.852-145.367,676.972-145.752z M685.796-120.005c0.174,0.036,0.428-0.041,0.566-0.16
					c0.306-0.265,0.66-0.545,0.815-0.898c0.229-0.52,0.301-1.108,0.44-1.667c-0.493,0.275-1.027,0.499-1.467,0.843
					c-0.308,0.241-0.487,0.648-0.724,0.98C685.233-120.432,685.349-120.097,685.796-120.005z M637.048-154.695
					c0.154-0.181,0.428-0.355,0.44-0.544c0.042-0.693-0.102-0.699-0.312-0.01C637.133-155.064,637.091-154.879,637.048-154.695z"/>
				<path class="st57" d="M171.927,221.156c-4.717-1.472-9.096-0.302-13.427-0.533c-1.046-0.056-1.801,1.701-1.013,2.308
					c2.039,1.572,3.131,3.801,4.568,5.808c1.066,1.489,3.353,1.68,4.393,0.483c1.057-1.216,0.312-2.264-0.574-3.253
					c-0.296-0.331-1.457-0.455-0.512-1.258c0.288-0.245,0.863-0.458,1.163-0.335c3.948,1.611,8.038,1.931,12.225,1.457
					c0.634-0.072,1.242-0.382,1.193-1.096c-0.019-0.275-0.559-0.668-0.916-0.742C176.342,223.444,173.978,222.104,171.927,221.156z"
					/>
				<path class="st57" d="M146.003,223.368c-0.422,1,0.902,2.435,2.216,2.398c2.181-0.061,3.906-1.328,5.743-2.254
					c0.545-0.275,0.705-1.1,0.04-1.491c-1.723-1.015-6.323-0.504-7.735,0.785C146.125,222.935,146.088,223.178,146.003,223.368z"/>
				<path class="st57" d="M187.566,217.243c-0.541-0.032-1.161-0.163-1.753-0.083c-1.029,0.138-1.516,1.114-1.03,1.749
					c0.98,1.279,2.218,2.413,3.521,3.373c1.063,0.783,3.069-0.12,3.576-1.438c0.531-1.383-0.586-1.739-1.465-2.219
					c-0.361-0.197-0.732-0.378-1.102-0.557C188.759,217.8,188.2,217.542,187.566,217.243z"/>
			</g>
		</g>
	</g>
</g>
<g id="Grafico">
	<path class="st7" d="M253.125,221.817c-3.532,0.003-6.621-2.762-10.428-7.201c-13.836-16.124-17.017-35.326-18.395-53.677
		c-1.567-20.862-1.855-41.803-2.051-65.052c-0.027-2.958-0.433-4.714-1.271-5.525c-0.845-0.811-2.628-1.182-5.487-1.103
		c-4.869,0.131-9.71-0.46-14.372-1.034c-1.876-0.23-3.731-0.46-5.563-0.639l-2.02-0.192l-0.454-1.976
		c-1.635-7.095-2.285-9.912-0.484-12.083c1.629-1.969,4.133-1.869,7.899-1.718c1.429,0.055,3.188,0.096,5.233,0.117l3.127-0.01
		c2.948-0.014,6.624-0.027,8.528,0.01l1.656,0.038c1.821,0.052,3.865,0.103,4.257-0.295c1.23-1.261,0.811-9.472,0.673-12.169
		c-0.337-6.356,0.017-12.747,0.357-18.924c0.374-6.713,0.759-13.654,0.22-20.381c-0.062-0.773-0.388-1.79-0.735-2.865
		c-0.883-2.728-2.089-6.463,0.447-9.699c0.591-0.752,5.91-7.291,11.348-6.325c1.35,0.234,3.79,1.165,5.003,4.789
		c2.47,7.397,2.371,27.792,2.031,49.829c-0.062,4.006-0.117,7.483-0.117,10.039c0,5.817,0.423,7.473,0.776,7.833
		c0.512,0.309,3.072,0.024,5.137-0.21c3.474-0.388,8.266-0.904,14.743-0.673c1.137,0.048,2.268,0.158,3.367,0.268l3.549,0.313
		l0.484,1.962c1.251,5.033,1.632,8.407-0.103,10.761c-1.831,2.481-4.875,2.652-9.483,2.91c-1.347,0.076-2.879,0.161-4.607,0.316
		l-1.993,0.165c-6.064,0.484-10.063,0.972-11.929,1.453c0.484,10.854,0.405,22.24,0.33,33.265
		c-0.124,17.783-0.251,36.168,1.917,53.409c0.804,6.445,4.844,12.956,9.125,19.848c3.037,4.896,6.181,9.96,8.407,15.389l0.605,1.474
		l-0.952,1.278c-2.22,2.975-4.893,6.16-8.541,6.284C253.28,221.817,253.204,221.817,253.125,221.817z M216.197,83.618
		c4.013,0,6.789,0.862,8.686,2.69c2.587,2.491,2.965,6.215,2.996,9.531c0.196,23.147,0.484,43.991,2.037,64.681
		c1.306,17.392,4.274,35.539,17.055,50.43c3.748,4.374,5.521,5.37,6.195,5.24c0.684-0.024,1.773-0.948,3.236-2.755
		c-2.006-4.477-4.717-8.84-7.346-13.076c-4.614-7.432-8.971-14.451-9.929-22.116c-2.213-17.608-2.082-36.185-1.958-54.147
		c0.079-11.489,0.161-23.373-0.399-34.539v-0.003c-0.192-3.968,4.82-4.762,17.179-5.748l1.924-0.158
		c1.814-0.161,3.408-0.254,4.807-0.33c2.13-0.12,4.779-0.271,5.312-0.68c0.069-0.179,0.223-1.027-0.426-4.089
		c-0.856-0.086-1.732-0.165-2.604-0.199c-6.068-0.237-10.606,0.271-13.898,0.642c-4.381,0.495-7.277,0.811-9.517-1.192
		c-2.254-2.017-2.649-5.483-2.649-12.029c0-2.577,0.055-6.085,0.117-10.125c0.234-15.282,0.629-40.858-1.742-47.956
		c-0.192-0.577-0.45-1-0.622-1.031c-1.079-0.227-3.9,1.632-5.961,4.253c-0.642,0.821-0.247,2.244,0.481,4.494
		c0.429,1.337,0.876,2.718,0.993,4.15c0.567,7.105,0.172,14.238-0.213,21.14c-0.333,6.026-0.68,12.262-0.357,18.319
		c0.464,9.06,0.244,13.825-2.264,16.392c-2.11,2.165-5.051,2.079-8.438,1.993l-1.605-0.038c-1.879-0.034-5.497-0.017-8.404-0.01
		l-3.137,0.01c-2.171-0.01-3.968-0.062-5.47-0.12c-1.117-0.045-2.354-0.1-3.123-0.058c0.089,1.038,0.488,2.907,0.965,5.013
		c1.223,0.137,2.457,0.289,3.693,0.443c4.453,0.55,9.067,1.141,13.523,0.993C215.627,83.625,215.916,83.618,216.197,83.618z
		 M135.278,220.697c-2.999,0-6.088-0.347-9.225-1.058c-15.334-3.501-24.154-15.341-25.504-34.237
		c-0.811-11.235,0.041-52.12,4.336-71.982c4.24-19.498,15.952-28.867,34.54-27.884c12.376,0.656,22.48,7.194,27.73,17.935l0,0
		c16.897,34.392,16.454,67.825-1.319,99.379C159.4,214.299,148.155,220.697,135.278,220.697z M136.862,91.094
		c-14.368,0-23.037,7.713-26.473,23.518c-4.03,18.622-5.044,59.009-4.226,70.388c1.175,16.409,8.284,26.215,21.137,29.149
		c14.097,3.206,26.964-2.199,33.63-14.059c16.808-29.843,17.203-61.513,1.175-94.139l-0.003-0.003
		c-4.388-8.984-12.548-14.238-22.972-14.791C138.356,91.114,137.6,91.094,136.862,91.094z M135.889,208.41
		c-1.299,0-2.608-0.137-3.924-0.416c-8.005-1.697-14.953-8.466-18.127-17.67c-4.13-12.004-0.959-55.312,1.065-67.612
		c0.598-3.7,2.189-7.126,3.505-9.699l0.842-1.653c3.91-7.727,7.95-15.712,19.567-15.712c0.148,0,0.292,0,0.44,0.003
		c14.224,0.285,19.127,11.63,21.58,20.137c2.237,7.775,4.453,16.079,4.814,24.569c0.687,15.241,1.337,29.644-5.831,45.534
		l-0.385,0.849c-2.319,5.123-4.717,10.417-8.658,14.653C146.496,205.995,141.318,208.41,135.889,208.41z M138.81,101.277
		c-7.768,0-10.472,4.59-14.537,12.623l-0.856,1.684c-1.041,2.031-2.481,5.075-2.958,8.036c-2.154,13.097-4.827,54.618-1.299,64.874
		c2.532,7.342,7.885,12.705,13.97,13.994c4.879,1.031,9.565-0.67,13.523-4.927c3.316-3.563,5.521-8.431,7.652-13.142l0.385-0.849
		c6.61-14.66,6.02-27.778,5.339-42.964c-0.34-7.878-2.46-15.811-4.601-23.26c-3.243-11.242-7.957-15.897-16.275-16.066
		C139.036,101.277,138.923,101.277,138.81,101.277z M29.363,218.587c-1.446,0-2.958-0.127-4.494-0.381l-2.402-0.251
		c-3.195-0.436-5.827-2.058-7.7-4.697c-1.598-2.271-4.034-6.452-2.443-9.046c0.735-1.196,2.082-1.769,3.559-1.57
		c2.642,0.416,20.914-2.618,23.844-3.24c0.66-0.354,1.677-0.986,2.68-1.694l0.429-0.271c0.203-0.124,13.523-9.596,16.406-26.452
		l0.323-1.828c0.354-1.948,0.684-3.786,0.825-5.652c0.189-2.879,0.289-5.545,0.289-7.902c-0.175-1.986-0.56-4.669-1.11-7.528
		c-0.574-3.178-1.34-6.38-2.288-9.548l-0.192-0.522c-4.15-11.541-6.013-15.176-6.841-16.193c-2.453-2.958-5.473-6.205-8.964-9.637
		c-3.941-3.659-8.39-7.834-13.248-12.403c-5.453-4.927-9.321-8.837-11.785-11.922c-0.797-0.993-1.986-2.123-3.24-3.322
		c-2.027-1.934-4.326-4.126-5.772-6.535c-2.336-4.133-4.171-8.844-5.501-14.062c-1.347-5.288-1.917-10.561-1.69-15.67
		c0.454-4.968,1.457-9.919,2.986-14.853C4.189,29.68,9.033,16.569,22.831,4.513c3.608-3.154,8.723-3.659,13.235-4.109l0.395-0.038
		c4.7-0.691,8.961-0.405,12.489,0.869c2.745,0.677,5.442,1.835,7.755,3.357l2.264,1.381c2.663,1.742,4.353,4.233,4.972,7.249
		c0.258,1.285,0.464,2.295-0.306,3.391l-0.697,0.989l-0.749,0.131c-1.752,2.429-4.113,3.958-6.927,4.549
		c-2.869,0.608-5.707,0.11-8.198-1.433l-3.072-1.632c-0.196-0.155-0.677-0.447-1.701-0.701c-0.78-0.237-1.979-0.275-3.542-0.141
		c-1.687,0.268-3.515,0.807-5.075,1.539c-1.319,0.618-2.625,1.694-3.872,3.188c-1.828,2.151-3.687,4.8-5.542,7.888
		c-1.574,2.759-2.927,5.83-3.999,9.081c-1.055,3.185-1.673,6.425-1.842,9.641c-0.165,2.735,0.172,5.593,1.003,8.521
		c0.752,3.487,1.742,6.195,3.061,8.459c1.639,2.687,3.346,5.202,5.047,7.432c1.113,1.45,3.625,4.247,9.263,9.307
		c5.085,4.594,9.655,8.785,13.719,12.561c4.254,4.174,7.871,8.04,10.806,11.534c3.085,3.886,5.745,7.899,7.954,11.991
		c2.199,4.116,3.972,8.249,5.267,12.3c1.264,3.927,2.292,7.964,3.058,11.991c0.746,4.003,1.233,7.744,1.453,11.128
		c0.01,3.377-0.089,6.624-0.302,10.091c-0.227,3.635-0.797,7.177-1.704,10.534c-0.57,3.072-1.708,6.858-3.24,10.737
		c-1.79,3.759-3.353,6.83-4.855,9.579c-2.244,3.46-4.429,6.181-6.793,8.51c-2.195,2.151-4.319,4.013-6.318,5.538l-0.454,0.309
		c-2.264,1.34-4.436,2.512-6.59,3.573c-2.371,1.038-5.006,1.907-8.407,2.797c-3.065,0.855-5.384,1.391-7.047,1.625
		C32.218,218.46,30.826,218.587,29.363,218.587z M18.268,208.197c0.32,0.612,0.704,1.254,1.096,1.811
		c0.969,1.367,2.209,2.144,3.783,2.357l2.477,0.265c2.731,0.447,4.899,0.429,6.772,0.055c1.553-0.227,3.693-0.725,6.525-1.515
		c3.157-0.825,5.528-1.604,7.507-2.467c1.91-0.945,3.958-2.051,5.965-3.23l0.172-0.12c1.673-1.285,3.621-2.996,5.648-4.982
		c2.068-2.037,4.003-4.453,5.906-7.38c1.347-2.474,2.862-5.459,4.528-8.94c1.326-3.374,2.36-6.803,2.914-9.744
		c0.856-3.202,1.367-6.37,1.567-9.624c0.206-3.35,0.306-6.476,0.299-9.562c-0.196-2.986-0.656-6.5-1.361-10.273
		c-0.722-3.79-1.69-7.6-2.886-11.31c-1.192-3.731-2.831-7.552-4.865-11.359c-2.048-3.79-4.525-7.524-7.356-11.094
		c-2.769-3.298-6.263-7.026-10.335-11.022c-3.989-3.711-8.538-7.882-13.595-12.448c-4.779-4.291-8.136-7.682-9.967-10.074
		c-1.824-2.388-3.645-5.068-5.411-7.964c-1.656-2.838-2.852-6.088-3.687-9.984c-0.962-3.364-1.367-6.854-1.165-10.201
		c0.196-3.69,0.907-7.428,2.116-11.084c1.189-3.604,2.697-7.023,4.487-10.163c2.044-3.405,4.085-6.305,6.095-8.668
		c1.763-2.113,3.718-3.687,5.789-4.662c2.041-0.952,4.391-1.656,6.806-2.031c3.35-0.278,4.858,0.052,5.71,0.313
		c1.282,0.309,2.474,0.828,3.415,1.505l2.618,1.35c1.446,0.883,2.821,1.123,4.264,0.821c1.495-0.316,2.683-1.106,3.535-2.36
		c0.192-0.285,0.392-0.543,0.601-0.77c-0.402-1.206-1.165-2.189-2.274-2.917l-2.271-1.385c-1.866-1.227-3.986-2.127-6.387-2.735
		C44.425,5.585,41,5.382,37.148,5.952l-0.526,0.055c-4.03,0.399-7.834,0.776-10.087,2.745C13.85,19.833,9.456,31.7,8.411,35.074
		c-1.416,4.559-2.34,9.125-2.749,13.568c-0.192,4.422,0.32,9.146,1.532,13.901c1.206,4.738,2.855,8.984,4.906,12.616
		c1.02,1.694,2.938,3.525,4.796,5.294c1.395,1.333,2.711,2.591,3.748,3.879c2.274,2.848,5.94,6.542,11.204,11.3
		c4.893,4.6,9.335,8.768,13.324,12.475c3.683,3.618,6.834,7.009,9.421,10.129c1.718,2.103,4.044,7.442,7.792,17.862l0.237,0.667
		c1.058,3.522,1.876,6.93,2.477,10.28c0.581,3.02,0.996,5.913,1.196,8.328c0.01,2.707-0.089,5.501-0.292,8.528
		c-0.161,2.185-0.536,4.257-0.9,6.256l-0.316,1.776c-3.041,17.794-16.715,29.032-19.103,30.358
		c-1.347,0.945-2.666,1.752-3.752,2.295C41.027,204.971,25.642,207.696,18.268,208.197z M61.625,17.833l-0.058,0.01
		C61.587,17.84,61.607,17.837,61.625,17.833z M291.557,20.632c-1.066-0.615-2.768-0.901-5.114-0.901l-3.596,0v8.644l3.805,0
		c1.788,0,3.125-0.157,4.018-0.521c1.637-0.65,2.467-1.888,2.467-3.74C293.137,22.378,292.601,21.205,291.557,20.632
		 M286.988,16.864c2.974,0,5.14,0.265,6.528,0.843c2.466,1.022,3.711,3.039,3.711,6.071c0,2.116-0.781,3.718-2.317,4.718
		c-0.844,0.53-1.989,0.915-3.475,1.173c1.873,0.28,3.245,1.044,4.11,2.309c0.865,1.273,1.295,2.503,1.295,3.718v1.731
		c0,0.578,0.029,1.158,0.064,1.795c0.042,0.636,0.1,1.037,0.208,1.236l0.142,0.308l-3.939,0c-0.022-0.085-0.037-0.164-0.064-0.25
		c-0.015-0.07-0.042-0.164-0.057-0.256l-0.086-0.766v-1.888c0-2.753-0.764-4.605-2.26-5.484c-0.886-0.508-2.446-0.766-4.683-0.766
		l-3.318,0v9.41l-4.217,0V16.864L286.988,16.864z M274.18,15.634c-3.632,3.676-5.462,8.08-5.462,13.271
		c0,5.212,1.816,9.666,5.434,13.334c3.639,3.683,8.058,5.534,13.264,5.534c5.197,0,9.609-1.851,13.248-5.534
		c3.64-3.668,5.463-8.123,5.463-13.334c0-5.191-1.823-9.596-5.464-13.271c-3.661-3.689-8.064-5.506-13.248-5.506
		C282.246,10.128,277.849,11.946,274.18,15.634 M302.84,44.314c-4.248,4.269-9.395,6.407-15.423,6.407
		c-6.049,0-11.169-2.138-15.402-6.407c-4.212-4.239-6.32-9.403-6.32-15.459c0-5.977,2.123-11.11,6.377-15.351
		c4.239-4.219,9.338-6.349,15.345-6.349c6.027,0,11.175,2.131,15.423,6.349c4.247,4.226,6.37,9.373,6.37,15.351
		C309.21,34.896,307.086,40.06,302.84,44.314"/>
</g>
<g id="Menu" class="st0">
	<g class="st1">
	</g>
</g>
<g id="Mockups" class="st0">
</g>
</svg>
