<svg viewBox="0 0 1242 2208" xmlns="http://www.w3.org/2000/svg"><g fill="#fff"><path d="m813.121 866.133c-6.382.006-11.963-4.991-18.842-13.012-25-29.135-30.749-63.832-33.239-96.989-2.831-37.695-3.352-75.534-3.706-117.544-.05-5.345-.782-8.517-2.297-9.983-1.527-1.465-4.749-2.136-9.914-1.993-8.797.236-17.544-.832-25.969-1.869-3.39-.416-6.742-.832-10.051-1.155l-3.65-.348-.819-3.57c-2.955-12.82-4.128-17.91-.875-21.834 2.943-3.557 7.468-3.377 14.273-3.104 2.583.099 5.761.174 9.455.211l5.649-.019c5.327-.025 11.969-.05 15.409.019l2.992.068c3.29.093 6.984.186 7.692-.534 2.223-2.278 1.465-17.116 1.217-21.989-.608-11.485.031-23.032.646-34.194.677-12.131 1.372-24.671.397-36.826-.112-1.397-.702-3.234-1.329-5.178-1.596-4.929-3.775-11.677.807-17.525 1.068-1.36 10.678-13.174 20.506-11.429 2.44.422 6.848 2.105 9.039 8.654 4.464 13.366 4.284 50.217 3.669 90.036-.112 7.239-.211 13.521-.211 18.14 0 10.51.764 13.503 1.403 14.154.925.559 5.55.044 9.281-.379 6.276-.701 14.937-1.633 26.639-1.217 2.055.087 4.097.286 6.084.484l6.413.565.875 3.545c2.26 9.095 2.949 15.191-.186 19.444-3.309 4.482-8.809 4.793-17.135 5.258-2.434.137-5.202.292-8.325.571l-3.601.298c-10.957.875-18.184 1.757-21.555 2.626.875 19.611.733 40.185.596 60.107-.224 32.133-.453 65.353 3.464 96.505 1.453 11.646 8.754 23.411 16.489 35.864 5.488 8.847 11.169 17.997 15.191 27.806l1.093 2.663-1.72 2.309c-4.01 5.376-8.84 11.131-15.434 11.355-.141.009-.278.009-.421.009zm-66.725-249.714c7.251 0 12.267 1.558 15.694 4.861 4.675 4.501 5.358 11.23 5.414 17.221.354 41.824.875 79.488 3.681 116.873 2.359 31.425 7.723 64.216 30.817 91.122 6.773 7.903 9.977 9.703 11.193 9.467 1.235-.043 3.203-1.713 5.848-4.979-3.626-8.089-8.524-15.973-13.273-23.628-8.338-13.428-16.21-26.111-17.942-39.961-3.998-31.816-3.762-65.384-3.539-97.839.143-20.76.292-42.234-.72-62.41v-.006c-.348-7.17 8.71-8.604 31.041-10.386l3.477-.286c3.278-.292 6.159-.459 8.685-.596 3.849-.217 8.636-.49 9.598-1.229.124-.323.404-1.856-.77-7.388-1.546-.155-3.129-.298-4.706-.36-10.964-.428-19.165.49-25.112 1.161-7.915.894-13.149 1.465-17.197-2.154-4.073-3.644-4.786-9.908-4.786-21.734 0-4.656.099-10.995.211-18.295.422-27.614 1.136-73.827-3.148-86.652-.348-1.043-.813-1.807-1.124-1.862-1.949-.41-7.046 2.949-10.771 7.686-1.161 1.484-.447 4.054.869 8.12.776 2.415 1.583 4.911 1.794 7.499 1.024 12.838.31 25.726-.385 38.198-.602 10.889-1.229 22.157-.646 33.102.838 16.371.441 24.981-4.091 29.619-3.812 3.911-9.126 3.756-15.247 3.601l-2.899-.068c-3.396-.062-9.933-.031-15.185-.019l-5.668.019c-3.924-.019-7.17-.112-9.883-.217-2.018-.081-4.253-.18-5.643-.106.161 1.875.882 5.252 1.745 9.058 2.21.248 4.439.521 6.674.801 8.046.993 16.383 2.061 24.435 1.794.528-.015 1.05-.027 1.559-.027zm-146.215 247.69c-5.42 0-11.001-.627-16.669-1.912-27.707-6.326-43.644-27.719-46.083-61.864-1.465-20.3.075-94.177 7.835-130.066 7.661-35.231 28.825-52.16 62.411-50.385 22.362 1.186 40.62 13 50.106 32.406 30.532 62.143 29.731 122.554-2.384 179.569-11.629 20.692-31.948 32.252-55.216 32.252zm2.862-234.182c-25.963 0-41.626 13.937-47.834 42.494-7.282 33.648-9.114 106.624-7.636 127.185 2.123 29.65 14.968 47.368 38.193 52.669 25.472 5.792 48.722-3.973 60.766-25.403 30.37-53.923 31.084-111.15 2.123-170.102l-.006-.006c-7.928-16.234-22.672-25.726-41.508-26.726-1.398-.074-2.764-.111-4.098-.111zm-1.757 211.982c-2.347 0-4.712-.248-7.09-.751-14.465-3.067-27.018-15.297-32.754-31.928-7.462-21.691-1.732-99.944 1.925-122.169 1.08-6.686 3.955-12.876 6.332-17.525l1.521-2.986c7.065-13.962 14.366-28.39 35.356-28.39.267 0 .528 0 .795.006 25.702.515 34.561 21.014 38.994 36.386 4.042 14.049 8.046 29.054 8.698 44.394 1.242 27.539 2.415 53.563-10.535 82.276l-.695 1.533c-4.191 9.256-8.524 18.823-15.645 26.477-7.738 8.312-17.093 12.677-26.902 12.677zm5.277-193.581c-14.037 0-18.923 8.294-26.267 22.808l-1.546 3.042c-1.881 3.669-4.482 9.169-5.345 14.521-3.893 23.665-8.722 98.69-2.347 117.221 4.575 13.267 14.248 22.958 25.242 25.286 8.816 1.862 17.284-1.211 24.435-8.902 5.991-6.438 9.977-15.235 13.826-23.746l.695-1.533c11.945-26.49 10.877-50.192 9.647-77.632-.615-14.235-4.445-28.57-8.313-42.029-5.861-20.313-14.378-28.725-29.408-29.029-.21-.007-.414-.007-.619-.007zm-197.762 211.969c-2.614 0-5.345-.23-8.12-.689l-4.34-.453c-5.774-.788-10.529-3.719-13.913-8.486-2.887-4.104-7.288-11.659-4.414-16.346 1.329-2.16 3.762-3.197 6.432-2.837 4.774.751 37.789-4.73 43.085-5.854 1.192-.639 3.03-1.782 4.842-3.061l.776-.49c.366-.224 24.435-17.339 29.644-47.796l.584-3.303c.639-3.52 1.235-6.841 1.49-10.212.341-5.202.521-10.02.521-14.279-.317-3.588-1.012-8.437-2.005-13.602-1.037-5.742-2.421-11.528-4.135-17.252l-.348-.944c-7.499-20.853-10.864-27.421-12.361-29.259-4.433-5.345-9.89-11.212-16.197-17.414-7.121-6.612-15.16-14.154-23.939-22.411-9.852-8.902-16.843-15.967-21.294-21.542-1.44-1.794-3.588-3.837-5.854-6.003-3.663-3.495-7.816-7.456-10.43-11.808-4.222-7.468-7.537-15.98-9.939-25.41-2.434-9.554-3.464-19.084-3.054-28.315.819-8.977 2.632-17.923 5.395-26.838 2.086-6.736 10.839-30.426 35.772-52.21 6.519-5.699 15.763-6.612 23.914-7.425l.714-.068c8.493-1.248 16.191-.733 22.567 1.571 4.96 1.223 9.834 3.315 14.012 6.065l4.091 2.496c4.811 3.148 7.866 7.648 8.983 13.099.466 2.322.838 4.147-.553 6.127l-1.26 1.788-1.353.236c-3.166 4.389-7.431 7.152-12.516 8.219-5.184 1.099-10.312.199-14.813-2.589l-5.55-2.949c-.354-.279-1.223-.807-3.073-1.266-1.409-.428-3.576-.497-6.401-.255-3.048.484-6.351 1.459-9.169 2.781-2.384 1.117-4.743 3.061-6.997 5.761-3.303 3.886-6.661 8.673-10.014 14.254-2.843 4.985-5.289 10.535-7.226 16.408-1.906 5.755-3.023 11.609-3.328 17.42-.298 4.942.31 10.107 1.813 15.396 1.36 6.301 3.148 11.193 5.531 15.284 2.961 4.855 6.047 9.399 9.12 13.428 2.011 2.62 6.55 7.673 16.737 16.818 9.188 8.3 17.445 15.874 24.789 22.697 7.686 7.543 14.223 14.527 19.525 20.841 5.575 7.021 10.38 14.272 14.372 21.666 3.973 7.437 7.177 14.906 9.517 22.225 2.285 7.096 4.141 14.39 5.525 21.666 1.347 7.232 2.229 13.993 2.626 20.108.019 6.103-.161 11.969-.546 18.233-.41 6.568-1.44 12.969-3.079 19.034-1.031 5.55-3.085 12.391-5.854 19.4-3.234 6.792-6.059 12.342-8.772 17.308-4.054 6.252-8.002 11.168-12.274 15.377-3.967 3.886-7.804 7.251-11.417 10.007l-.819.559c-4.091 2.421-8.015 4.538-11.907 6.456-4.284 1.875-9.045 3.445-15.191 5.053-5.538 1.546-9.728 2.514-12.733 2.936-2.03.419-4.544.649-7.189.649zm-20.046-18.774c.577 1.105 1.273 2.266 1.98 3.272 1.751 2.471 3.992 3.874 6.835 4.259l4.476.478c4.936.807 8.853.776 12.236.099 2.806-.41 6.674-1.31 11.789-2.738 5.705-1.49 9.989-2.899 13.565-4.457 3.452-1.707 7.152-3.706 10.777-5.836l.31-.217c3.023-2.322 6.543-5.413 10.206-9.002 3.737-3.681 7.233-8.046 10.672-13.335 2.434-4.47 5.171-9.865 8.182-16.153 2.396-6.096 4.265-12.292 5.265-17.606 1.546-5.786 2.471-11.51 2.831-17.389.372-6.053.553-11.702.54-17.277-.354-5.395-1.186-11.746-2.458-18.562-1.304-6.848-3.054-13.732-5.215-20.437-2.154-6.742-5.116-13.645-8.791-20.524-3.7-6.848-8.176-13.596-13.292-20.046-5.004-5.96-11.318-12.696-18.674-19.916-7.208-6.705-15.427-14.241-24.566-22.492-8.636-7.754-14.701-13.881-18.01-18.202-3.297-4.315-6.587-9.157-9.778-14.39-2.992-5.128-5.153-11.001-6.661-18.041-1.738-6.078-2.471-12.385-2.105-18.432.354-6.667 1.639-13.422 3.824-20.027 2.148-6.512 4.873-12.689 8.108-18.363 3.694-6.152 7.382-11.392 11.013-15.663 3.185-3.818 6.717-6.661 10.461-8.424 3.688-1.72 7.934-2.992 12.298-3.669 6.053-.503 8.778.093 10.318.565 2.316.559 4.47 1.496 6.171 2.719l4.731 2.44c2.614 1.595 5.097 2.03 7.704 1.484 2.701-.571 4.849-1.999 6.388-4.265.348-.515.708-.981 1.086-1.391-.726-2.179-2.105-3.955-4.11-5.271l-4.104-2.502c-3.371-2.216-7.201-3.843-11.541-4.942-5.202-1.85-11.392-2.216-18.351-1.186l-.95.099c-7.282.72-14.155 1.403-18.227 4.96-22.921 20.021-30.861 41.464-32.748 47.56-2.558 8.238-4.228 16.489-4.967 24.516-.348 7.99.577 16.526 2.769 25.118 2.179 8.561 5.159 16.234 8.865 22.796 1.844 3.061 5.308 6.37 8.667 9.567 2.521 2.409 4.898 4.681 6.773 7.009 4.11 5.146 10.734 11.82 20.245 20.418 8.84 8.313 16.868 15.843 24.075 22.542 6.655 6.537 12.348 12.665 17.023 18.301 3.104 3.799 7.307 13.447 14.08 32.276l.428 1.204c1.912 6.363 3.39 12.522 4.476 18.575 1.049 5.457 1.8 10.684 2.16 15.048.019 4.892-.161 9.939-.528 15.408-.292 3.948-.968 7.692-1.627 11.305l-.571 3.21c-5.494 32.152-30.203 52.458-34.517 54.855-2.434 1.707-4.818 3.166-6.779 4.147-1.634.696-29.434 5.619-42.757 6.525zm78.341-343.971-.106.019c.038-.007.075-.013.106-.019zm415.467 5.057c-1.926-1.111-5.001-1.627-9.24-1.627h-6.499v15.619h6.875c3.231 0 5.646-.283 7.26-.942 2.958-1.175 4.458-3.411 4.458-6.758.001-3.138-.967-5.257-2.854-6.292m-8.255-6.808c5.374 0 9.287.479 11.796 1.524 4.456 1.847 6.705 5.49 6.705 10.97 0 3.823-1.41 6.718-4.186 8.525-1.524.958-3.594 1.654-6.279 2.119 3.384.505 5.864 1.887 7.427 4.173 1.564 2.299 2.339 4.522 2.339 6.718v3.128c0 1.045.053 2.093.116 3.244.077 1.148.18 1.873.376 2.233l.257.556h-7.118c-.04-.154-.066-.296-.116-.452-.026-.127-.077-.296-.103-.463l-.156-1.384v-3.411c0-4.974-1.381-8.322-4.083-9.909-1.601-.918-4.419-1.384-8.462-1.384h-5.996v17.003h-7.62v-43.19zm-23.142-2.222c-6.562 6.641-9.87 14.6-9.87 23.98 0 9.417 3.281 17.466 9.819 24.094 6.576 6.655 14.561 9.999 23.967 9.999 9.391 0 17.363-3.344 23.939-9.999 6.578-6.628 9.872-14.677 9.872-24.094 0-9.38-3.294-17.339-9.872-23.98-6.615-6.665-14.572-9.949-23.939-9.949-9.342 0-17.288 3.283-23.916 9.949m51.785 51.821c-7.676 7.713-16.977 11.576-27.868 11.576-10.931 0-20.181-3.863-27.831-11.576-7.61-7.66-11.42-16.99-11.42-27.933 0-10.801 3.837-20.075 11.523-27.738 7.66-7.623 16.874-11.473 27.727-11.473 10.891 0 20.192 3.85 27.868 11.473 7.673 7.636 11.51 16.937 11.51 27.738.001 10.917-3.836 20.246-11.509 27.933"/><g enable-background="new"><path d="m139.194 1056.543v-60.747h31.229v6.839h-22.949v19.26h21.869v6.659h-21.869v21.06h22.949v6.93h-31.229z"/><path d="m184.284 1056.543v-65.697h8.1v65.697z"/><path d="m211.733 1002.905c-2.97 0-5.4-2.25-5.4-5.22s2.43-5.31 5.4-5.31 5.399 2.34 5.399 5.31c0 2.88-2.429 5.22-5.399 5.22zm-4.05 53.638v-44.729h8.1v44.729z"/><path d="m245.842 1079.582c-11.52 0-18.809-4.77-18.809-13.409 0-5.22 3.419-9.63 7.469-11.88-2.7-1.17-4.41-3.689-4.41-6.659 0-3.15 1.98-6.12 4.95-7.561-4.05-2.43-6.57-6.479-6.57-12.329 0-9 6.75-16.739 18.989-16.739 2.43 0 4.05.27 6.3.81h15.209v6.39h-7.379c2.25 1.801 3.6 4.771 3.6 8.28 0 9.18-6.21 16.199-18.899 16.199-1.8 0-3.15-.18-4.77-.63-1.89.899-2.88 2.34-2.88 3.779 0 2.521 2.25 3.24 7.649 3.511l8.19.27c9.629.36 15.029 4.859 15.029 12.959.001 9.449-9.629 17.009-23.668 17.009zm6.3-23.219-8.64-.36c-.81 0-1.89 0-2.61-.09-3.51 2.43-5.76 5.399-5.76 8.819 0 5.31 5.04 8.46 12.06 8.46 9.089 0 14.129-4.14 14.129-9.63 0-4.319-2.88-7.019-9.179-7.199zm-5.04-39.329c-6.75 0-10.62 4.32-10.62 9.99 0 6.21 3.69 9.81 10.35 9.81 6.39 0 10.35-3.6 10.35-9.81-.001-6.12-3.6-9.99-10.08-9.99z"/><path d="m313.16 1033.954h-29.249c-.36 11.699 4.59 16.829 14.129 16.829 4.32 0 8.82-.9 12.779-2.7l1.17 6.48c-4.5 1.8-9.899 2.789-15.479 2.789-13.59 0-20.969-7.199-20.969-22.948 0-13.41 7.29-23.399 19.979-23.399 12.6 0 17.909 8.55 17.909 18.81.001 1.079-.089 2.339-.269 4.139zm-17.999-17.01c-5.85 0-10.08 4.41-10.979 11.25h20.969c.18-6.84-3.69-11.25-9.99-11.25z"/><path d="m344.84 1056.543v-65.697h8.1v65.697z"/><path d="m384.169 1057.353c-12.149 0-20.069-7.02-20.069-22.769 0-13.14 8.28-23.579 21.779-23.579 11.43 0 20.159 6.3 20.159 22.409.001 13.499-8.639 23.939-21.869 23.939zm.99-39.598c-6.479 0-12.599 4.949-12.599 16.019 0 10.8 4.41 16.74 12.599 16.74 6.66 0 12.419-5.221 12.419-16.649.001-10.171-4.139-16.11-12.419-16.11z"/><path d="m465.347 1056.543v-28.799c0-6.39-1.71-10.08-7.649-10.08-7.38 0-12.689 7.561-12.689 17.46v21.419h-8.1v-44.729h7.83c0 2.7-.18 6.75-.72 9.45h.18c2.61-6.12 8.1-10.26 15.75-10.26 10.259 0 13.499 6.39 13.499 14.31v31.229z"/><path d="m512.507 1056.543c0-3.149 0-6.39.45-8.909h-.18c-2.16 5.489-7.83 9.719-15.209 9.719-7.38 0-12.42-4.859-12.42-12.06 0-9.629 9.81-15.389 26.909-15.389v-2.97c0-6.21-2.43-9.63-9.81-9.63-4.23 0-9.36 1.35-12.959 3.33l-1.71-6.57c4.32-1.8 10.259-3.149 15.929-3.149 12.959 0 16.649 6.029 16.649 14.759v18c0 4.229.09 8.999.18 12.869zm-.45-20.969c-14.759 0-18.989 4.05-18.989 8.549 0 3.96 2.7 6.84 6.84 6.84 7.29 0 12.149-7.199 12.149-14.219z"/><path d="m548.238 1057.263c-9.18 0-11.969-3.779-11.969-13.409v-25.739h-9.18v-6.3h9.18v-14.489l8.1-2.25v16.739h12.509v6.3h-12.509v22.859c0 7.38 1.35 9.359 6.39 9.359 2.07 0 4.05-.27 5.67-.72l.81 6.66c-2.611.63-6.121.99-9.001.99z"/><path d="m596.476 1056.543c0-2.7.27-6.75.72-9.449h-.18c-2.61 6.119-8.1 10.259-15.75 10.259-10.259 0-13.409-6.39-13.409-14.309v-31.229h8.009v28.799c0 6.39 1.8 10.08 7.65 10.08 7.38 0 12.779-7.56 12.779-17.459v-21.42h8.01v44.729h-7.829z"/><path d="m641.656 1019.015c-9.45-1.71-13.949 5.22-13.949 19.529v17.999h-8.1v-44.729h7.829c0 2.79-.27 6.93-.99 10.62h.181c1.89-6.21 6.479-12.33 15.389-11.43z"/><path d="m673.606 1056.543c0-3.149 0-6.39.45-8.909h-.181c-2.159 5.489-7.829 9.719-15.209 9.719s-12.42-4.859-12.42-12.06c0-9.629 9.81-15.389 26.909-15.389v-2.97c0-6.21-2.43-9.63-9.81-9.63-4.229 0-9.359 1.35-12.959 3.33l-1.71-6.57c4.319-1.8 10.259-3.149 15.929-3.149 12.96 0 16.649 6.029 16.649 14.759v18c0 4.229.09 8.999.181 12.869zm-.45-20.969c-14.759 0-18.989 4.05-18.989 8.549 0 3.96 2.7 6.84 6.84 6.84 7.29 0 12.149-7.199 12.149-14.219z"/><path d="m696.647 1056.543v-65.697h8.1v65.697z"/><path d="m718.156 1070.402-3.42-3.06c5.76-6.21 5.94-10.35 3.87-12.96-2.52-3.149-.45-8.01 3.87-8.01 6.66.001 9.629 11.341-4.32 24.03z"/><path d="m793.844 1033.954h-29.249c-.36 11.699 4.59 16.829 14.129 16.829 4.32 0 8.82-.9 12.78-2.7l1.17 6.48c-4.5 1.8-9.899 2.789-15.479 2.789-13.59 0-20.97-7.199-20.97-22.948 0-13.41 7.29-23.399 19.979-23.399 12.6 0 17.909 8.55 17.909 18.81 0 1.079-.09 2.339-.269 4.139zm-18-17.01c-5.85 0-10.079 4.41-10.979 11.25h20.97c.179-6.84-3.691-11.25-9.991-11.25z"/><path d="m805.904 1056.543v-65.697h8.1v65.697z"/><path d="m833.354 1002.905c-2.97 0-5.399-2.25-5.399-5.22s2.43-5.31 5.399-5.31 5.4 2.34 5.4 5.31c0 2.88-2.431 5.22-5.4 5.22zm-4.05 53.638v-44.729h8.1v44.729z"/><path d="m867.463 1079.582c-11.52 0-18.81-4.77-18.81-13.409 0-5.22 3.42-9.63 7.47-11.88-2.699-1.17-4.409-3.689-4.409-6.659 0-3.15 1.979-6.12 4.949-7.561-4.05-2.43-6.569-6.479-6.569-12.329 0-9 6.749-16.739 18.989-16.739 2.43 0 4.05.27 6.3.81h15.209v6.39h-7.38c2.25 1.801 3.6 4.771 3.6 8.28 0 9.18-6.209 16.199-18.898 16.199-1.8 0-3.15-.18-4.771-.63-1.89.899-2.88 2.34-2.88 3.779 0 2.521 2.25 3.24 7.65 3.511l8.189.27c9.63.36 15.029 4.859 15.029 12.959.001 9.449-9.629 17.009-23.668 17.009zm6.3-23.219-8.64-.36c-.811 0-1.89 0-2.61-.09-3.51 2.43-5.76 5.399-5.76 8.819 0 5.31 5.04 8.46 12.06 8.46 9.09 0 14.13-4.14 14.13-9.63-.001-4.319-2.881-7.019-9.18-7.199zm-5.04-39.329c-6.75 0-10.619 4.32-10.619 9.99 0 6.21 3.689 9.81 10.35 9.81 6.39 0 10.35-3.6 10.35-9.81-.001-6.12-3.602-9.99-10.081-9.99z"/><path d="m934.782 1033.954h-29.249c-.36 11.699 4.59 16.829 14.129 16.829 4.32 0 8.82-.9 12.78-2.7l1.17 6.48c-4.5 1.8-9.9 2.789-15.479 2.789-13.59 0-20.97-7.199-20.97-22.948 0-13.41 7.29-23.399 19.979-23.399 12.6 0 17.909 8.55 17.909 18.81.001 1.079-.089 2.339-.269 4.139zm-18-17.01c-5.85 0-10.079 4.41-10.979 11.25h20.97c.179-6.84-3.691-11.25-9.991-11.25z"/></g><g enable-background="new"><path d="m980.679 1057.353c-4.95 0-9.54-.63-13.319-1.71l.989-7.919c3.87 1.529 8.28 2.43 12.78 2.43 7.02 0 13.139-2.88 13.139-10.35 0-13.68-27.448-8.279-27.448-27.629 0-9.989 7.56-17.189 21.239-17.189 3.51 0 7.56.36 10.979 1.17l-.99 7.29c-3.24-.99-6.93-1.62-10.439-1.62-8.28 0-12.239 3.689-12.239 9.449 0 13.14 27.809 8.37 27.809 27.449-.001 10.889-8.911 18.629-22.5 18.629z"/><path d="m1031.077 1057.353c-12.149 0-20.069-7.02-20.069-22.769 0-13.14 8.28-23.579 21.779-23.579 11.43 0 20.159 6.3 20.159 22.409 0 13.499-8.639 23.939-21.869 23.939zm.99-39.598c-6.479 0-12.6 4.949-12.6 16.019 0 10.8 4.41 16.74 12.6 16.74 6.659 0 12.419-5.221 12.419-16.649 0-10.171-4.139-16.11-12.419-16.11z"/><path d="m1077.967 1057.263c-9.179 0-11.969-3.779-11.969-13.409v-25.739h-9.18v-6.3h9.18v-14.489l8.1-2.25v16.739h12.509v6.3h-12.509v22.859c0 7.38 1.35 9.359 6.39 9.359 2.069 0 4.05-.27 5.67-.72l.81 6.66c-2.611.63-6.121.99-9.001.99z"/><path d="m1102.355 1057.353c-3.06 0-5.58-2.52-5.58-5.579 0-3.061 2.521-5.58 5.58-5.58s5.58 2.52 5.58 5.58c.001 3.059-2.52 5.579-5.58 5.579z"/></g><g enable-background="new"><path d="m406.283 1234.81c-2.82 0-5.7-.3-8.28-.899l.48-8.64c2.28.84 5.58 1.5 8.52 1.5 3.42 0 5.88-1.44 5.88-4.32 0-6.899-16.139-3.359-16.139-16.919 0-7.62 5.94-12.66 16.079-12.66 2.16 0 4.86.24 7.38.721l-.54 8.1c-2.28-.66-4.8-1.08-7.2-1.08-3.9 0-5.7 1.68-5.7 3.96 0 6.3 16.139 3.899 16.139 16.56 0 7.857-6.3 13.677-16.619 13.677z"/><path d="m448.703 1234.689c-10.26 0-16.08-6.18-16.08-15.839 0-10.08 8.22-16.56 17.279-16.56 8.76 0 16.14 4.74 16.14 15.72 0 10.261-8.16 16.679-17.339 16.679zm.6-24.238c-3.6 0-6.78 2.699-6.78 7.919 0 4.92 2.4 8.1 6.66 8.1 3.66 0 6.959-2.34 6.959-7.979 0-5.28-2.82-8.04-6.839-8.04z"/><path d="m491.722 1210.871v23.219h-9.24v-23.219h-7.62v-7.98h24.419v7.98z"/><path d="m529.521 1234.09v-31.199h20.279v7.26h-11.04v4.561h10.44v7.02h-10.44v4.979h11.04v7.38h-20.279z"/><path d="m568.22 1234.81c-1.86 0-3.96-.3-5.7-.66l.3-7.979c1.68.66 3.9 1.021 6.18 1.021 2.22 0 3.6-1.021 3.6-2.58 0-3.78-11.22-1.38-11.22-11.699 0-6.36 4.68-10.68 13.799-10.68 1.56 0 3.66.18 5.34.479l-.24 7.62c-1.62-.48-3.66-.78-5.46-.78-2.52 0-3.54.96-3.54 2.4 0 3.42 11.399 2.1 11.399 11.52.001 6.658-5.039 11.338-14.458 11.338z"/><path d="m614.299 1234.09v-31.199h9.24v22.92h9.42v8.279z"/><path d="m657.979 1234.689c-10.26 0-16.079-6.18-16.079-15.839 0-10.08 8.22-16.56 17.279-16.56 8.76 0 16.14 4.74 16.14 15.72-.001 10.261-8.161 16.679-17.34 16.679zm.6-24.238c-3.601 0-6.78 2.699-6.78 7.919 0 4.92 2.4 8.1 6.66 8.1 3.659 0 6.959-2.34 6.959-7.979 0-5.28-2.819-8.04-6.839-8.04z"/></g></g><g enable-background="new" fill="#f39f4e"><path d="m739.336 1234.09-1.92-13.499c-.299-2.16-.6-4.5-.779-6.36h-.061c-.479 2.22-1.02 4.56-1.619 6.6l-4.02 13.26h-9.48l-3.539-12.18c-.601-2.22-1.32-5.1-1.801-7.56h-.06c-.181 2.34-.42 4.5-.72 6.84l-1.62 12.899h-9.239l4.92-31.199h11.699l4.199 13.86c.48 1.56.961 3.6 1.32 5.819h.061c.479-2.22.899-4.02 1.5-5.819l4.379-13.86h11.76l4.859 31.199z"/><path d="m761.538 1234.09v-31.199h20.278v7.26h-11.039v4.561h10.439v7.02h-10.439v4.979h11.039v7.38h-20.278z"/><path d="m796.277 1234.57c-1.619 0-2.76-.181-4.08-.421v-7.859c.84.24 1.86.42 2.82.42 1.8 0 2.699-.899 2.699-3.239v-20.58h9.24v20.819c.001 6.9-2.879 10.86-10.679 10.86z"/><path d="m834.616 1234.689c-10.26 0-16.079-6.18-16.079-15.839 0-10.08 8.219-16.56 17.279-16.56 8.76 0 16.139 4.74 16.139 15.72 0 10.261-8.159 16.679-17.339 16.679zm.601-24.238c-3.601 0-6.78 2.699-6.78 7.919 0 4.92 2.399 8.1 6.659 8.1 3.66 0 6.96-2.34 6.96-7.979 0-5.28-2.82-8.04-6.839-8.04z"/><path d="m879.436 1234.09-6.18-11.399h-.301v11.399h-9.238v-31.199c2.76-.18 8.339-.239 12.419-.239 7.919 0 12.839 3 12.839 9.479 0 4.439-2.459 7.38-6.42 8.819.48.84 1.32 2.101 2.16 3.54l5.82 9.6zm-4.62-24.36c-.541 0-1.261 0-1.861.061v6.84c.66.06 1.44.06 2.16.06 2.4 0 4.02-1.5 4.02-3.72 0-1.98-1.68-3.241-4.319-3.241z"/></g><g enable-background="new" fill="#fff"><path d="m268.764 1294.33c-4.56 0-8.28-.12-11.399-.3v-31.14c2.88-.06 9.12-.18 13.199-.18 10.02 0 16.859 4.2 16.859 15.119 0 11.581-8.22 16.501-18.659 16.501zm1.02-24.059c-1.08 0-2.28.061-3.18.12v15.96c.54.06 1.68.18 3 .18 4.62 0 7.98-2.88 7.98-8.34-.001-5.161-2.641-7.92-7.8-7.92z"/><path d="m299.244 1294.09v-31.199h20.279v7.26h-11.04v4.561h10.44v7.02h-10.44v4.979h11.04v7.38h-20.279z"/><path d="m351.922 1294.09v-31.199h9.239v22.92h9.42v8.279z"/><path d="m401.901 1294.09-1.62-4.74h-10.859l-1.62 4.74h-9.24l11.22-31.199h11.1l11.22 31.199zm-5.759-17.159c-.42-1.26-.96-2.88-1.32-4.26h-.06c-.3 1.319-.72 2.76-1.14 4.02l-2.16 6.06h6.72z"/><path d="m427.942 1294.81c-1.86 0-3.96-.3-5.7-.66l.3-7.979c1.68.66 3.9 1.021 6.18 1.021 2.22 0 3.6-1.021 3.6-2.58 0-3.78-11.22-1.38-11.22-11.699 0-6.36 4.68-10.68 13.8-10.68 1.56 0 3.66.18 5.339.479l-.24 7.62c-1.62-.48-3.66-.78-5.46-.78-2.52 0-3.54.96-3.54 2.4 0 3.42 11.399 2.1 11.399 11.52.001 6.658-5.039 11.338-14.458 11.338z"/></g><g enable-background="new" fill="#f39f4e"><path d="m489.739 1294.09-6.18-11.399h-.3v11.399h-9.239v-31.199c2.76-.18 8.339-.239 12.419-.239 7.919 0 12.839 3 12.839 9.479 0 4.439-2.46 7.38-6.42 8.819.48.84 1.32 2.101 2.16 3.54l5.82 9.6zm-4.62-24.36c-.54 0-1.26 0-1.86.061v6.84c.66.06 1.44.06 2.16.06 2.4 0 4.02-1.5 4.02-3.72 0-1.98-1.68-3.241-4.32-3.241z"/><path d="m532.039 1294.09-1.62-4.74h-10.859l-1.62 4.74h-9.24l11.22-31.199h11.1l11.219 31.199zm-5.76-17.159c-.42-1.26-.96-2.88-1.32-4.26h-.06c-.3 1.319-.72 2.76-1.14 4.02l-2.16 6.06h6.72z"/><path d="m554.06 1260.791-2.939-5.279 11.699-6.54 3.54 6.3zm-1.08 33.299v-31.199h9.239v31.199z"/><path d="m589.938 1294.57c-10.68 0-15.839-6.12-15.839-15.359 0-8.7 5.4-16.92 17.519-16.92 1.62 0 4.08.24 6 .78l-.84 7.979c-1.74-.54-3.66-.84-5.52-.84-4.32 0-7.26 3.06-7.26 8.22 0 5.279 3.12 7.92 7.62 7.92 2.04 0 3.9-.36 5.34-1.08l.78 8.159c-2.58.781-5.16 1.141-7.8 1.141z"/><path d="m609.979 1294.09v-31.199h20.279v7.26h-11.04v4.561h10.44v7.02h-10.44v4.979h11.04v7.38h-20.279z"/><path d="m648.679 1294.81c-1.86 0-3.96-.3-5.7-.66l.3-7.979c1.681.66 3.9 1.021 6.18 1.021 2.221 0 3.601-1.021 3.601-2.58 0-3.78-11.22-1.38-11.22-11.699 0-6.36 4.68-10.68 13.799-10.68 1.561 0 3.66.18 5.34.479l-.239 7.62c-1.62-.48-3.66-.78-5.46-.78-2.521 0-3.54.96-3.54 2.4 0 3.42 11.399 2.1 11.399 11.52-.001 6.658-5.041 11.338-14.46 11.338z"/></g><g enable-background="new" fill="#fff"><path d="m727.937 1294.09-1.92-13.499c-.3-2.16-.6-4.5-.78-6.36h-.06c-.48 2.22-1.021 4.56-1.62 6.6l-4.02 13.26h-9.479l-3.54-12.18c-.601-2.22-1.32-5.1-1.8-7.56h-.061c-.18 2.34-.42 4.5-.72 6.84l-1.62 12.899h-9.239l4.92-31.199h11.699l4.2 13.86c.479 1.56.96 3.6 1.319 5.819h.061c.479-2.22.899-4.02 1.5-5.819l4.38-13.86h11.759l4.86 31.199z"/><path d="m750.138 1294.09v-31.199h20.279v7.26h-11.04v4.561h10.44v7.02h-10.44v4.979h11.04v7.38h-20.279z"/><path d="m803.417 1294.09-6-9.06-5.7 9.06h-11.039l11.22-15.359-10.979-15.84h11.459l5.88 8.88 5.76-8.88h10.5l-10.5 15.359 11.34 15.84z"/><path d="m826.217 1294.09v-31.199h9.239v31.199z"/><path d="m863.175 1294.57c-10.68 0-15.839-6.12-15.839-15.359 0-8.7 5.399-16.92 17.52-16.92 1.619 0 4.079.24 5.999.78l-.84 7.979c-1.74-.54-3.66-.84-5.52-.84-4.32 0-7.26 3.06-7.26 8.22 0 5.279 3.12 7.92 7.62 7.92 2.039 0 3.899-.36 5.339-1.08l.78 8.159c-2.579.781-5.159 1.141-7.799 1.141z"/><path d="m903.314 1294.09-1.62-4.74h-10.859l-1.62 4.74h-9.239l11.22-31.199h11.1l11.22 31.199zm-5.759-17.159c-.42-1.26-.96-2.88-1.319-4.26h-.061c-.3 1.319-.72 2.76-1.14 4.02l-2.16 6.06h6.72z"/><path d="m943.395 1294.09-7.739-13.26c-.96-1.56-1.92-3.779-2.58-5.399h-.061c.061 1.26.12 2.399.12 4.26v14.399h-8.879v-31.199h12.419l7.5 12.78c1.02 1.8 1.979 3.72 2.88 5.76h.06c-.12-1.681-.12-3.78-.12-6.12l-.06-12.42h8.939v31.199z"/><path d="m990.015 1294.09-1.62-4.74h-10.859l-1.62 4.74h-9.24l11.22-31.199h11.1l11.22 31.199zm-5.76-17.159c-.42-1.26-.96-2.88-1.32-4.26h-.06c-.301 1.319-.721 2.76-1.141 4.02l-2.159 6.06h6.72z"/><path d="m1016.055 1294.81c-1.859 0-3.96-.3-5.699-.66l.3-7.979c1.68.66 3.899 1.021 6.18 1.021 2.22 0 3.6-1.021 3.6-2.58 0-3.78-11.22-1.38-11.22-11.699 0-6.36 4.681-10.68 13.8-10.68 1.56 0 3.66.18 5.34.479l-.24 7.62c-1.62-.48-3.659-.78-5.46-.78-2.52 0-3.539.96-3.539 2.4 0 3.42 11.399 2.1 11.399 11.52-.001 6.658-5.041 11.338-14.461 11.338z"/></g><g enable-background="new" fill="#fff"><path d="m248.544 1354.09v-31.199h20.279v7.26h-11.04v4.561h10.44v7.02h-10.44v4.979h11.04v7.38h-20.279z"/><path d="m301.283 1354.09-7.74-13.26c-.96-1.56-1.92-3.779-2.58-5.399h-.06c.06 1.26.12 2.399.12 4.26v14.399h-8.879v-31.199h12.419l7.5 12.78c1.02 1.8 1.98 3.72 2.88 5.76h.06c-.12-1.681-.12-3.78-.12-6.12l-.06-12.42h8.94v31.199z"/><path d="m361.162 1354.689c-9.959 0-14.459-4.739-14.459-11.759v-20.04h9.24v17.819c0 4.44 1.8 6.3 5.76 6.3 3.9 0 5.58-2.22 5.58-6.419v-17.7h9.12v19.08c-.002 7.08-4.621 12.719-15.241 12.719z"/><path d="m409.401 1354.09-7.74-13.26c-.96-1.56-1.92-3.779-2.58-5.399h-.06c.06 1.26.12 2.399.12 4.26v14.399h-8.879v-31.199h12.419l7.5 12.78c1.02 1.8 1.98 3.72 2.88 5.76h.06c-.12-1.681-.12-3.78-.12-6.12l-.06-12.42h8.94v31.199z"/><path d="m456.021 1354.09-1.62-4.74h-10.859l-1.62 4.74h-9.24l11.22-31.199h11.1l11.22 31.199zm-5.76-17.159c-.42-1.26-.96-2.88-1.32-4.26h-.06c-.3 1.319-.72 2.76-1.14 4.02l-2.16 6.06h6.72z"/></g><g enable-background="new" fill="#30999e"><path d="m508.399 1354.21c-2.34 0-6.84-.12-12.359-.12v-31.199c3.54 0 9.479-.18 13.619-.18 8.76 0 12.36 2.76 12.36 7.92 0 2.88-1.44 5.46-4.32 6.66v.06c3.06.96 4.68 3.54 4.68 6.84 0 5.219-3.72 10.019-13.98 10.019zm-.48-25.139c-.78 0-1.8 0-2.76.06v6.18c.84.061 1.56.061 1.92.061 3 0 5.16-1.08 5.16-3.36 0-1.801-1.14-2.941-4.32-2.941zm-.299 11.82c-.66 0-1.68 0-2.46.06v6.66c.96.06 2.04.12 2.939.12 3 0 4.5-1.44 4.5-3.54 0-2.161-1.62-3.3-4.979-3.3z"/><path d="m549.139 1354.689c-10.26 0-16.08-6.18-16.08-15.839 0-10.08 8.22-16.56 17.279-16.56 8.76 0 16.14 4.74 16.14 15.72.001 10.261-8.159 16.679-17.339 16.679zm.6-24.238c-3.6 0-6.78 2.699-6.78 7.919 0 4.92 2.4 8.1 6.66 8.1 3.66 0 6.959-2.34 6.959-7.979.001-5.28-2.819-8.04-6.839-8.04z"/><path d="m592.159 1330.871v23.219h-9.24v-23.219h-7.62v-7.98h24.419v7.98z"/><path d="m628.458 1354.09-1.62-4.74h-10.86l-1.62 4.74h-9.24l11.22-31.199h11.1l11.22 31.199zm-5.76-17.159c-.42-1.26-.96-2.88-1.32-4.26h-.06c-.301 1.319-.721 2.76-1.141 4.02l-2.16 6.06h6.72z"/><path d="m668.538 1354.09-7.74-13.26c-.96-1.56-1.92-3.779-2.58-5.399h-.06c.06 1.26.12 2.399.12 4.26v14.399h-8.88v-31.199h12.42l7.499 12.78c1.021 1.8 1.98 3.72 2.88 5.76h.061c-.12-1.681-.12-3.78-.12-6.12l-.061-12.42h8.94v31.199z"/><path d="m715.157 1354.09-1.62-4.74h-10.859l-1.62 4.74h-9.239l11.22-31.199h11.1l11.22 31.199zm-5.76-17.159c-.42-1.26-.96-2.88-1.319-4.26h-.061c-.3 1.319-.72 2.76-1.14 4.02l-2.16 6.06h6.72z"/><path d="m774.317 1354.09-7.74-13.26c-.96-1.56-1.92-3.779-2.58-5.399h-.06c.06 1.26.12 2.399.12 4.26v14.399h-8.88v-31.199h12.42l7.499 12.78c1.021 1.8 1.98 3.72 2.88 5.76h.061c-.12-1.681-.12-3.78-.12-6.12l-.061-12.42h8.94v31.199z"/><path d="m820.937 1354.09-1.62-4.74h-10.859l-1.62 4.74h-9.239l11.22-31.199h11.1l11.22 31.199zm-5.76-17.159c-.42-1.26-.96-2.88-1.319-4.26h-.061c-.3 1.319-.72 2.76-1.14 4.02l-2.16 6.06h6.72z"/><path d="m855.797 1330.871v23.219h-9.24v-23.219h-7.619v-7.98h24.419v7.98z"/><path d="m888.796 1354.689c-9.96 0-14.46-4.739-14.46-11.759v-20.04h9.24v17.819c0 4.44 1.8 6.3 5.76 6.3 3.899 0 5.579-2.22 5.579-6.419v-17.7h9.12v19.08c0 7.08-4.62 12.719-15.239 12.719z"/><path d="m933.615 1354.09-6.18-11.399h-.301v11.399h-9.239v-31.199c2.76-.18 8.34-.239 12.42-.239 7.919 0 12.839 3 12.839 9.479 0 4.439-2.46 7.38-6.42 8.819.48.84 1.32 2.101 2.16 3.54l5.82 9.6zm-4.62-24.36c-.54 0-1.26 0-1.86.061v6.84c.66.06 1.44.06 2.16.06 2.4 0 4.021-1.5 4.021-3.72-.001-1.98-1.681-3.241-4.321-3.241z"/><path d="m975.915 1354.09-1.62-4.74h-10.859l-1.62 4.74h-9.24l11.22-31.199h11.1l11.22 31.199zm-5.76-17.159c-.42-1.26-.96-2.88-1.32-4.26h-.06c-.301 1.319-.721 2.76-1.141 4.02l-2.159 6.06h6.72z"/><path d="m996.855 1354.09v-31.199h9.239v22.92h9.42v8.279z"/><path d="m1024.455 1361.89c4.2-4.56 4.56-7.08 2.34-9.6-2.58-3-.84-8.52 4.2-8.52 6.479 0 9.6 10.859-2.82 21.419z"/></g><g enable-background="new" fill="#fff"><path d="m371.513 1414.09v-31.199h9.239v22.92h9.42v8.279z"/><path d="m401.393 1414.09v-31.199h9.239v31.199z"/><path d="m438.711 1414.75c-9.24 0-16.319-5.16-16.319-15.6 0-9.359 6.54-16.859 17.759-16.859 3.48 0 7.08.54 10.62 1.62l-1.86 7.859c-2.64-1.08-5.4-1.68-8.34-1.68-5.04 0-8.279 3.18-8.279 8.399 0 5.1 2.82 7.979 6.959 7.979 1.02 0 2.04-.18 2.88-.359v-8.939h9.24v14.999c-3.96 1.621-8.16 2.581-12.66 2.581z"/><path d="m465.171 1414.09v-31.199h20.279v7.26h-11.04v4.561h10.44v7.02h-10.44v4.979h11.04v7.38h-20.279z"/><path d="m514.49 1414.09-6.18-11.399h-.3v11.399h-9.239v-31.199c2.76-.18 8.339-.239 12.419-.239 7.919 0 12.839 3 12.839 9.479 0 4.439-2.46 7.38-6.42 8.819.48.84 1.32 2.101 2.16 3.54l5.82 9.6zm-4.62-24.36c-.54 0-1.26 0-1.86.061v6.84c.66.06 1.44.06 2.16.06 2.4 0 4.02-1.5 4.02-3.72 0-1.98-1.68-3.241-4.32-3.241z"/><path d="m556.79 1414.09-1.62-4.74h-10.859l-1.62 4.74h-9.24l11.22-31.199h11.1l11.219 31.199zm-5.76-17.159c-.42-1.26-.96-2.88-1.32-4.26h-.06c-.3 1.319-.72 2.76-1.14 4.02l-2.16 6.06h6.72z"/><path d="m575.451 1421.89c4.2-4.56 4.56-7.08 2.34-9.6-2.58-3-.84-8.52 4.2-8.52 6.479 0 9.6 10.859-2.82 21.419z"/></g><g enable-background="new" fill="#f39f4e"><path d="m633.169 1414.57c-10.68 0-15.84-6.12-15.84-15.359 0-8.7 5.4-16.92 17.52-16.92 1.62 0 4.08.24 6 .78l-.84 7.979c-1.74-.54-3.66-.84-5.521-.84-4.319 0-7.26 3.06-7.26 8.22 0 5.279 3.12 7.92 7.62 7.92 2.04 0 3.899-.36 5.34-1.08l.78 8.159c-2.579.781-5.159 1.141-7.799 1.141z"/><path d="m668.929 1414.09-6.18-11.399h-.301v11.399h-9.239v-31.199c2.76-.18 8.34-.239 12.42-.239 7.919 0 12.839 3 12.839 9.479 0 4.439-2.46 7.38-6.42 8.819.48.84 1.32 2.101 2.16 3.54l5.82 9.6zm-4.62-24.36c-.54 0-1.26 0-1.86.061v6.84c.66.06 1.44.06 2.16.06 2.4 0 4.02-1.5 4.02-3.72-.001-1.98-1.681-3.241-4.32-3.241z"/><path d="m705.408 1414.689c-9.959 0-14.459-4.739-14.459-11.759v-20.04h9.239v17.819c0 4.44 1.8 6.3 5.76 6.3 3.9 0 5.58-2.22 5.58-6.419v-17.7h9.119v19.08c0 7.08-4.619 12.719-15.239 12.719z"/><path d="m735.648 1414.57c-1.62 0-2.76-.181-4.08-.421v-7.859c.84.24 1.86.42 2.82.42 1.8 0 2.699-.899 2.699-3.239v-20.58h9.24v20.819c.001 6.9-2.879 10.86-10.679 10.86z"/><path d="m760.188 1414.09v-31.199h9.239v31.199z"/><path d="m783.407 1414.09v-31.199h20.278v7.26h-11.039v4.561h10.439v7.02h-10.439v4.979h11.039v7.38h-20.278z"/><path d="m836.146 1414.09-7.739-13.26c-.96-1.56-1.92-3.779-2.58-5.399h-.061c.061 1.26.12 2.399.12 4.26v14.399h-8.879v-31.199h12.419l7.5 12.78c1.02 1.8 1.979 3.72 2.88 5.76h.06c-.12-1.681-.12-3.78-.12-6.12l-.06-12.42h8.939v31.199z"/><path d="m876.586 1390.871v23.219h-9.24v-23.219h-7.619v-7.98h24.419v7.98z"/><path d="m895.306 1414.09v-31.199h20.278v7.26h-11.039v4.561h10.439v7.02h-10.439v4.979h11.039v7.38h-20.278z"/></g><path d="m329.062 1464.37v9.72h-9.24v-9.54l-11.04-21.659h10.2l3.24 6.84c.84 1.681 1.68 3.601 2.46 5.76h.06c.78-2.22 1.74-4.199 2.64-5.999l3.3-6.601h9.54z" fill="#fff"/><g enable-background="new" fill="#30999e"><path d="m374.241 1474.81c-1.86 0-3.96-.3-5.7-.66l.3-7.979c1.68.66 3.9 1.021 6.18 1.021 2.22 0 3.6-1.021 3.6-2.58 0-3.78-11.22-1.38-11.22-11.699 0-6.36 4.68-10.68 13.799-10.68 1.56 0 3.66.18 5.34.479l-.24 7.62c-1.62-.48-3.66-.78-5.46-.78-2.52 0-3.54.96-3.54 2.4 0 3.42 11.399 2.1 11.399 11.52.001 6.658-5.039 11.338-14.458 11.338z"/><path d="m400.221 1474.09v-31.199h9.239v31.199z"/><path d="m441.56 1474.09-7.74-13.26c-.96-1.56-1.92-3.779-2.58-5.399h-.06c.06 1.26.12 2.399.12 4.26v14.399h-8.879v-31.199h12.419l7.5 12.78c1.02 1.8 1.98 3.72 2.88 5.76h.06c-.12-1.681-.12-3.78-.12-6.12l-.06-12.42h8.94v31.199z"/><path d="m498.858 1474.57c-10.68 0-15.839-6.12-15.839-15.359 0-8.7 5.4-16.92 17.519-16.92 1.62 0 4.08.24 6 .78l-.84 7.979c-1.74-.54-3.66-.84-5.52-.84-4.32 0-7.26 3.06-7.26 8.22 0 5.279 3.12 7.92 7.62 7.92 2.04 0 3.9-.36 5.34-1.08l.78 8.159c-2.58.781-5.16 1.141-7.8 1.141z"/><path d="m531.678 1474.689c-10.26 0-16.08-6.18-16.08-15.839 0-10.08 8.22-16.56 17.279-16.56 8.76 0 16.14 4.74 16.14 15.72.001 10.261-8.159 16.679-17.339 16.679zm.6-24.238c-3.6 0-6.78 2.699-6.78 7.919 0 4.92 2.4 8.1 6.66 8.1 3.66 0 6.959-2.34 6.959-7.979.001-5.28-2.819-8.04-6.839-8.04z"/><path d="m578.897 1474.09-7.74-13.26c-.96-1.56-1.92-3.779-2.58-5.399h-.06c.06 1.26.12 2.399.12 4.26v14.399h-8.879v-31.199h12.419l7.5 12.78c1.02 1.8 1.98 3.72 2.88 5.76h.06c-.12-1.681-.12-3.78-.12-6.12l-.06-12.42h8.94v31.199z"/><path d="m609.498 1474.81c-1.86 0-3.96-.3-5.7-.66l.3-7.979c1.68.66 3.9 1.021 6.18 1.021 2.22 0 3.6-1.021 3.6-2.58 0-3.78-11.22-1.38-11.22-11.699 0-6.36 4.68-10.68 13.799-10.68 1.56 0 3.66.18 5.34.479l-.239 7.62c-1.621-.48-3.66-.78-5.46-.78-2.52 0-3.54.96-3.54 2.4 0 3.42 11.399 2.1 11.399 11.52 0 6.658-5.04 11.338-14.459 11.338z"/><path d="m635.479 1474.09v-31.199h20.278v7.26h-11.039v4.561h10.439v7.02h-10.439v4.979h11.039v7.38h-20.278z"/><path d="m683.777 1474.09-6.18-11.399h-.301v11.399h-9.239v-31.199c2.76-.18 8.34-.239 12.42-.239 7.919 0 12.839 3 12.839 9.479 0 4.439-2.46 7.38-6.42 8.819.48.84 1.32 2.101 2.16 3.54l5.82 9.6zm-4.62-24.36c-.54 0-1.26 0-1.86.061v6.84c.66.06 1.44.06 2.16.06 2.4 0 4.02-1.5 4.02-3.72 0-1.98-1.68-3.241-4.32-3.241z"/><path d="m723.316 1474.09h-11.039l-11.399-31.199h10.079l4.5 12.54c.84 2.28 1.68 5.279 2.46 8.579h.06c.78-3.119 1.681-6.299 2.521-8.639l4.319-12.54h9.54z"/><path d="m761.298 1474.09-1.62-4.74h-10.859l-1.62 4.74h-9.24l11.22-31.199h11.1l11.22 31.199zm-5.76-17.159c-.42-1.26-.96-2.88-1.32-4.26h-.06c-.301 1.319-.721 2.76-1.141 4.02l-2.16 6.06h6.72z"/><path d="m792.618 1474.33c-4.561 0-8.28-.12-11.399-.3v-31.14c2.88-.06 9.119-.18 13.199-.18 10.02 0 16.859 4.2 16.859 15.119 0 11.581-8.219 16.501-18.659 16.501zm1.02-24.059c-1.08 0-2.28.061-3.18.12v15.96c.54.06 1.68.18 3 .18 4.619 0 7.979-2.88 7.979-8.34.001-5.161-2.639-7.92-7.799-7.92z"/><path d="m835.877 1474.689c-10.26 0-16.079-6.18-16.079-15.839 0-10.08 8.22-16.56 17.279-16.56 8.76 0 16.14 4.74 16.14 15.72 0 10.261-8.16 16.679-17.34 16.679zm.601-24.238c-3.601 0-6.78 2.699-6.78 7.919 0 4.92 2.4 8.1 6.66 8.1 3.659 0 6.959-2.34 6.959-7.979-.001-5.28-2.82-8.04-6.839-8.04z"/><path d="m879.677 1474.09-6.18-11.399h-.301v11.399h-9.239v-31.199c2.76-.18 8.34-.239 12.42-.239 7.919 0 12.839 3 12.839 9.479 0 4.439-2.46 7.38-6.42 8.819.48.84 1.32 2.101 2.16 3.54l5.82 9.6zm-4.62-24.36c-.54 0-1.26 0-1.86.061v6.84c.66.06 1.44.06 2.16.06 2.4 0 4.02-1.5 4.02-3.72-.001-1.98-1.681-3.241-4.32-3.241z"/><path d="m900.857 1474.09v-31.199h20.278v7.26h-11.039v4.561h10.439v7.02h-10.439v4.979h11.039v7.38h-20.278z"/><path d="m938.536 1474.81c-1.86 0-3.96-.3-5.7-.66l.3-7.979c1.681.66 3.9 1.021 6.18 1.021 2.221 0 3.601-1.021 3.601-2.58 0-3.78-11.22-1.38-11.22-11.699 0-6.36 4.68-10.68 13.799-10.68 1.561 0 3.66.18 5.34.479l-.239 7.62c-1.62-.48-3.66-.78-5.46-.78-2.521 0-3.54.96-3.54 2.4 0 3.42 11.399 2.1 11.399 11.52-.001 6.658-5.041 11.338-14.46 11.338z"/><path d="m974.236 1469.23c0 3.06-2.58 5.64-5.7 5.64-3.06 0-5.64-2.58-5.64-5.64 0-3.12 2.58-5.7 5.64-5.7 3.12 0 5.7 2.58 5.7 5.7z"/></g></svg>