<?xml version="1.0" encoding="utf-8"?>
<!-- Generator: Adobe Illustrator 22.0.1, SVG Export Plug-In . SVG Version: 6.00 Build 0)  -->
<svg version="1.1" id="Layer_1" xmlns="http://www.w3.org/2000/svg" xmlns:xlink="http://www.w3.org/1999/xlink" x="0px" y="0px"
	 viewBox="0 0 1504.8 671.8" style="enable-background:new 0 0 1504.8 671.8;" xml:space="preserve">
<style type="text/css">
	.st0{fill:#FFFFFF;}
	.st1{fill:#F39F4E;}
	.st2{fill:#30999E;}
</style>
<path class="st0" d="M245.6,671.8c-3.4,0-6.4-2.7-10.1-7c-13.4-15.6-16.5-34.3-17.9-52.1c-1.5-20.2-1.8-40.6-2-63.1
	c0-2.9-0.4-4.6-1.2-5.4c-0.8-0.8-2.6-1.1-5.3-1.1c-4.7,0.1-9.4-0.4-13.9-1c-1.8-0.2-3.6-0.4-5.4-0.6l-2-0.2l-0.4-1.9
	c-1.6-6.9-2.2-9.6-0.5-11.7c1.6-1.9,4-1.8,7.7-1.7c1.4,0.1,3.1,0.1,5.1,0.1l3,0c2.9,0,6.4,0,8.3,0l1.6,0c1.8,0,3.8,0.1,4.1-0.3
	c1.2-1.2,0.8-9.2,0.7-11.8c-0.3-6.2,0-12.4,0.3-18.4c0.4-6.5,0.7-13.2,0.2-19.8c-0.1-0.8-0.4-1.7-0.7-2.8c-0.9-2.6-2-6.3,0.4-9.4
	c0.6-0.7,5.7-7.1,11-6.1c1.3,0.2,3.7,1.1,4.9,4.6c2.4,7.2,2.3,27,2,48.4c-0.1,3.9-0.1,7.3-0.1,9.7c0,5.6,0.4,7.3,0.8,7.6
	c0.5,0.3,3,0,5-0.2c3.4-0.4,8-0.9,14.3-0.7c1.1,0,2.2,0.2,3.3,0.3l3.4,0.3l0.5,1.9c1.2,4.9,1.6,8.2-0.1,10.4
	c-1.8,2.4-4.7,2.6-9.2,2.8c-1.3,0.1-2.8,0.2-4.5,0.3l-1.9,0.2c-5.9,0.5-9.8,0.9-11.6,1.4c0.5,10.5,0.4,21.6,0.3,32.3
	c-0.1,17.3-0.2,35.1,1.9,51.8c0.8,6.3,4.7,12.6,8.9,19.3c2.9,4.8,6,9.7,8.2,14.9l0.6,1.4l-0.9,1.2c-2.2,2.9-4.7,6-8.3,6.1
	C245.8,671.8,245.7,671.8,245.6,671.8L245.6,671.8z M209.8,537.7c3.9,0,6.6,0.8,8.4,2.6c2.5,2.4,2.9,6,2.9,9.2
	c0.2,22.5,0.5,42.7,2,62.8c1.3,16.9,4.1,34.5,16.6,48.9c3.6,4.2,5.4,5.2,6,5.1c0.7,0,1.7-0.9,3.1-2.7c-1.9-4.3-4.6-8.6-7.1-12.7
	c-4.5-7.2-8.7-14-9.6-21.5c-2.1-17.1-2-35.1-1.9-52.5c0.1-11.1,0.2-22.7-0.4-33.5v0c-0.2-3.9,4.7-4.6,16.7-5.6l1.9-0.2
	c1.8-0.2,3.3-0.2,4.7-0.3c2.1-0.1,4.6-0.3,5.2-0.7c0.1-0.2,0.2-1-0.4-4c-0.8-0.1-1.7-0.2-2.5-0.2c-5.9-0.2-10.3,0.3-13.5,0.6
	c-4.3,0.5-7.1,0.8-9.2-1.2c-2.2-2-2.6-5.3-2.6-11.7c0-2.5,0.1-5.9,0.1-9.8c0.2-14.8,0.6-39.6-1.7-46.5c-0.2-0.6-0.4-1-0.6-1
	c-1-0.2-3.8,1.6-5.8,4.1c-0.6,0.8-0.2,2.2,0.5,4.4c0.4,1.3,0.9,2.6,1,4c0.6,6.9,0.2,13.8-0.2,20.5c-0.3,5.8-0.7,11.9-0.3,17.8
	c0.4,8.8,0.2,13.4-2.2,15.9c-2,2.1-4.9,2-8.2,1.9l-1.6,0c-1.8,0-5.3,0-8.2,0l-3,0c-2.1,0-3.9-0.1-5.3-0.1c-1.1,0-2.3-0.1-3-0.1
	c0.1,1,0.5,2.8,0.9,4.9c1.2,0.1,2.4,0.3,3.6,0.4c4.3,0.5,8.8,1.1,13.1,1C209.2,537.7,209.5,537.7,209.8,537.7L209.8,537.7z
	 M131.3,670.7c-2.9,0-5.9-0.3-9-1c-14.9-3.4-23.4-14.9-24.7-33.2c-0.8-10.9,0-50.6,4.2-69.9c4.1-18.9,15.5-28,33.5-27.1
	c12,0.6,21.8,7,26.9,17.4c16.4,33.4,16,65.8-1.3,96.4C154.7,664.5,143.8,670.7,131.3,670.7L131.3,670.7z M132.8,545
	c-13.9,0-22.4,7.5-25.7,22.8c-3.9,18.1-4.9,57.3-4.1,68.3c1.1,15.9,8,25.4,20.5,28.3c13.7,3.1,26.2-2.1,32.6-13.6
	c16.3-29,16.7-59.7,1.1-91.4l0,0c-4.3-8.7-12.2-13.8-22.3-14.4C134.3,545,133.5,545,132.8,545z M131.9,658.8c-1.3,0-2.5-0.1-3.8-0.4
	c-7.8-1.6-14.5-8.2-17.6-17.1c-4-11.6-0.9-53.7,1-65.6c0.6-3.6,2.1-6.9,3.4-9.4l0.8-1.6c3.8-7.5,7.7-15.2,19-15.2c0.1,0,0.3,0,0.4,0
	c13.8,0.3,18.6,11.3,20.9,19.5c2.2,7.5,4.3,15.6,4.7,23.8c0.7,14.8,1.3,28.8-5.7,44.2l-0.4,0.8c-2.2,5-4.6,10.1-8.4,14.2
	C142.2,656.5,137.1,658.8,131.9,658.8L131.9,658.8z M134.7,554.8c-7.5,0-10.2,4.5-14.1,12.2l-0.8,1.6c-1,2-2.4,4.9-2.9,7.8
	c-2.1,12.7-4.7,53-1.3,63c2.5,7.1,7.7,12.3,13.6,13.6c4.7,1,9.3-0.7,13.1-4.8c3.2-3.5,5.4-8.2,7.4-12.8l0.4-0.8
	c6.4-14.2,5.8-27,5.2-41.7c-0.3-7.6-2.4-15.3-4.5-22.6c-3.1-10.9-7.7-15.4-15.8-15.6C134.9,554.8,134.8,554.8,134.7,554.8
	L134.7,554.8z M28.5,668.7c-1.4,0-2.9-0.1-4.4-0.4l-2.3-0.2c-3.1-0.4-5.7-2-7.5-4.6c-1.6-2.2-3.9-6.3-2.4-8.8c0.7-1.2,2-1.7,3.5-1.5
	c2.6,0.4,20.3-2.5,23.1-3.1c0.6-0.3,1.6-1,2.6-1.6l0.4-0.3c0.2-0.1,13.1-9.3,15.9-25.7l0.3-1.8c0.3-1.9,0.7-3.7,0.8-5.5
	c0.2-2.8,0.3-5.4,0.3-7.7c-0.2-1.9-0.5-4.5-1.1-7.3c-0.6-3.1-1.3-6.2-2.2-9.3l-0.2-0.5c-4-11.2-5.8-14.7-6.6-15.7
	c-2.4-2.9-5.3-6-8.7-9.4c-3.8-3.6-8.1-7.6-12.9-12c-5.3-4.8-9-8.6-11.4-11.6c-0.8-1-1.9-2.1-3.1-3.2c-2-1.9-4.2-4-5.6-6.3
	c-2.3-4-4-8.6-5.3-13.6c-1.3-5.1-1.9-10.2-1.6-15.2c0.4-4.8,1.4-9.6,2.9-14.4c1.1-3.6,5.8-16.3,19.2-28c3.5-3.1,8.5-3.6,12.8-4
	l0.4,0c4.6-0.7,8.7-0.4,12.1,0.8c2.7,0.7,5.3,1.8,7.5,3.3l2.2,1.3c2.6,1.7,4.2,4.1,4.8,7c0.2,1.2,0.5,2.2-0.3,3.3l-0.7,1l-0.7,0.1
	c-1.7,2.4-4,3.8-6.7,4.4c-2.8,0.6-5.5,0.1-8-1.4l-3-1.6c-0.2-0.1-0.7-0.4-1.7-0.7c-0.8-0.2-1.9-0.3-3.4-0.1
	c-1.6,0.3-3.4,0.8-4.9,1.5c-1.3,0.6-2.5,1.6-3.8,3.1c-1.8,2.1-3.6,4.7-5.4,7.7c-1.5,2.7-2.8,5.7-3.9,8.8c-1,3.1-1.6,6.2-1.8,9.4
	c-0.2,2.7,0.2,5.4,1,8.3c0.7,3.4,1.7,6,3,8.2c1.6,2.6,3.2,5,4.9,7.2c1.1,1.4,3.5,4.1,9,9c4.9,4.5,9.4,8.5,13.3,12.2
	c4.1,4.1,7.6,7.8,10.5,11.2c3,3.8,5.6,7.7,7.7,11.6c2.1,4,3.9,8,5.1,11.9c1.2,3.8,2.2,7.7,3,11.6c0.7,3.9,1.2,7.5,1.4,10.8
	c0,3.3-0.1,6.4-0.3,9.8c-0.2,3.5-0.8,7-1.7,10.2c-0.6,3-1.7,6.7-3.1,10.4c-1.7,3.6-3.3,6.6-4.7,9.3c-2.2,3.4-4.3,6-6.6,8.3
	c-2.1,2.1-4.2,3.9-6.1,5.4l-0.4,0.3c-2.2,1.3-4.3,2.4-6.4,3.5c-2.3,1-4.9,1.8-8.2,2.7c-3,0.8-5.2,1.3-6.8,1.6
	C31.3,668.6,29.9,668.7,28.5,668.7L28.5,668.7z M17.7,658.6c0.3,0.6,0.7,1.2,1.1,1.8c0.9,1.3,2.1,2.1,3.7,2.3l2.4,0.3
	c2.7,0.4,4.8,0.4,6.6,0.1c1.5-0.2,3.6-0.7,6.3-1.5c3.1-0.8,5.4-1.6,7.3-2.4c1.9-0.9,3.8-2,5.8-3.1l0.2-0.1c1.6-1.2,3.5-2.9,5.5-4.8
	c2-2,3.9-4.3,5.7-7.2c1.3-2.4,2.8-5.3,4.4-8.7c1.3-3.3,2.3-6.6,2.8-9.5c0.8-3.1,1.3-6.2,1.5-9.3c0.2-3.3,0.3-6.3,0.3-9.3
	c-0.2-2.9-0.6-6.3-1.3-10c-0.7-3.7-1.6-7.4-2.8-11c-1.2-3.6-2.7-7.3-4.7-11c-2-3.7-4.4-7.3-7.1-10.8c-2.7-3.2-6.1-6.8-10-10.7
	c-3.9-3.6-8.3-7.6-13.2-12.1c-4.6-4.2-7.9-7.5-9.7-9.8c-1.8-2.3-3.5-4.9-5.3-7.7c-1.6-2.8-2.8-5.9-3.6-9.7c-0.9-3.3-1.3-6.7-1.1-9.9
	c0.2-3.6,0.9-7.2,2.1-10.8c1.2-3.5,2.6-6.8,4.4-9.9c2-3.3,4-6.1,5.9-8.4c1.7-2,3.6-3.6,5.6-4.5c2-0.9,4.3-1.6,6.6-2
	c3.3-0.3,4.7,0,5.5,0.3c1.2,0.3,2.4,0.8,3.3,1.5l2.5,1.3c1.4,0.9,2.7,1.1,4.1,0.8c1.5-0.3,2.6-1.1,3.4-2.3c0.2-0.3,0.4-0.5,0.6-0.7
	c-0.4-1.2-1.1-2.1-2.2-2.8l-2.2-1.3c-1.8-1.2-3.9-2.1-6.2-2.7c-2.8-1-6.1-1.2-9.9-0.6l-0.5,0.1c-3.9,0.4-7.6,0.8-9.8,2.7
	c-12.3,10.8-16.6,22.3-17.6,25.5c-1.4,4.4-2.3,8.9-2.7,13.2c-0.2,4.3,0.3,8.9,1.5,13.5c1.2,4.6,2.8,8.7,4.8,12.2
	c1,1.6,2.9,3.4,4.7,5.1c1.4,1.3,2.6,2.5,3.6,3.8c2.2,2.8,5.8,6.3,10.9,11c4.7,4.5,9.1,8.5,12.9,12.1c3.6,3.5,6.6,6.8,9.1,9.8
	c1.7,2,3.9,7.2,7.6,17.3l0.2,0.6c1,3.4,1.8,6.7,2.4,10c0.6,2.9,1,5.7,1.2,8.1c0,2.6-0.1,5.3-0.3,8.3c-0.2,2.1-0.5,4.1-0.9,6.1
	l-0.3,1.7c-3,17.3-16.2,28.2-18.5,29.5c-1.3,0.9-2.6,1.7-3.6,2.2C39.8,655.5,24.9,658.1,17.7,658.6L17.7,658.6z M59.8,473.9
	L59.8,473.9C59.8,473.9,59.8,473.9,59.8,473.9z M282.9,476.6c-1-0.6-2.7-0.9-5-0.9h-3.5v8.4h3.7c1.7,0,3-0.2,3.9-0.5
	c1.6-0.6,2.4-1.8,2.4-3.6C284.5,478.3,283.9,477.1,282.9,476.6 M278.5,472.9c2.9,0,5,0.3,6.3,0.8c2.4,1,3.6,2.9,3.6,5.9
	c0,2.1-0.8,3.6-2.2,4.6c-0.8,0.5-1.9,0.9-3.4,1.1c1.8,0.3,3.1,1,4,2.2c0.8,1.2,1.3,2.4,1.3,3.6v1.7c0,0.6,0,1.1,0.1,1.7
	c0,0.6,0.1,1,0.2,1.2l0.1,0.3h-3.8c0-0.1,0-0.2-0.1-0.2c0-0.1,0-0.2-0.1-0.2l-0.1-0.7v-1.8c0-2.7-0.7-4.5-2.2-5.3
	c-0.9-0.5-2.4-0.7-4.5-0.7h-3.2v9.1h-4.1v-23.2L278.5,472.9L278.5,472.9z M266.1,471.7c-3.5,3.6-5.3,7.8-5.3,12.9
	c0,5.1,1.8,9.4,5.3,12.9c3.5,3.6,7.8,5.4,12.9,5.4c5,0,9.3-1.8,12.9-5.4c3.5-3.6,5.3-7.9,5.3-12.9c0-5-1.8-9.3-5.3-12.9
	c-3.6-3.6-7.8-5.3-12.9-5.3C273.9,466.4,269.6,468.2,266.1,471.7 M293.9,499.6c-4.1,4.1-9.1,6.2-15,6.2c-5.9,0-10.8-2.1-14.9-6.2
	c-4.1-4.1-6.1-9.1-6.1-15c0-5.8,2.1-10.8,6.2-14.9c4.1-4.1,9.1-6.2,14.9-6.2c5.8,0,10.8,2.1,15,6.2c4.1,4.1,6.2,9.1,6.2,14.9
	C300.1,490.4,298,495.4,293.9,499.6"/>
<path class="st0" d="M518.2,376.1v-29.4h15.1v3.3h-11.1v9.3h10.6v3.2h-10.6v10.2h11.1v3.3L518.2,376.1L518.2,376.1z"/>
<path class="st0" d="M540,376.1v-31.7h3.9v31.7H540z"/>
<path class="st0" d="M553.2,350.2c-1.4,0-2.6-1.1-2.6-2.5s1.2-2.6,2.6-2.6c1.4,0,2.6,1.1,2.6,2.6
	C555.8,349.1,554.7,350.2,553.2,350.2z M551.3,376.1v-21.6h3.9v21.6H551.3z"/>
<path class="st0" d="M569.7,387.2c-5.6,0-9.1-2.3-9.1-6.5c0-2.5,1.7-4.7,3.6-5.7c-1.3-0.6-2.1-1.8-2.1-3.2c0-1.5,1-3,2.4-3.7
	c-2-1.2-3.2-3.1-3.2-6c0-4.3,3.3-8.1,9.2-8.1c1.2,0,2,0.1,3,0.4h7.3v3.1h-3.6c1.1,0.9,1.7,2.3,1.7,4c0,4.4-3,7.8-9.1,7.8
	c-0.9,0-1.5-0.1-2.3-0.3c-0.9,0.4-1.4,1.1-1.4,1.8c0,1.2,1.1,1.6,3.7,1.7l4,0.1c4.7,0.2,7.3,2.3,7.3,6.3
	C581.1,383.6,576.5,387.2,569.7,387.2L569.7,387.2z M572.7,376l-4.2-0.2c-0.4,0-0.9,0-1.3,0c-1.7,1.2-2.8,2.6-2.8,4.3
	c0,2.6,2.4,4.1,5.8,4.1c4.4,0,6.8-2,6.8-4.7C577.2,377.4,575.8,376.1,572.7,376L572.7,376z M570.3,357c-3.3,0-5.1,2.1-5.1,4.8
	c0,3,1.8,4.7,5,4.7c3.1,0,5-1.7,5-4.7C575.2,358.9,573.4,357,570.3,357L570.3,357z"/>
<path class="st0" d="M602.4,365.2h-14.1c-0.2,5.7,2.2,8.1,6.8,8.1c2.1,0,4.3-0.4,6.2-1.3l0.6,3.1c-2.2,0.9-4.8,1.3-7.5,1.3
	c-6.6,0-10.1-3.5-10.1-11.1c0-6.5,3.5-11.3,9.7-11.3c6.1,0,8.7,4.1,8.7,9.1C602.5,363.7,602.4,364.3,602.4,365.2z M593.7,357
	c-2.8,0-4.9,2.1-5.3,5.4h10.1C598.6,359.1,596.7,357,593.7,357L593.7,357z"/>
<path class="st0" d="M617.7,376.1v-31.7h3.9v31.7H617.7z"/>
<path class="st0" d="M636.7,376.5c-5.9,0-9.7-3.4-9.7-11c0-6.3,4-11.4,10.5-11.4c5.5,0,9.7,3,9.7,10.8
	C647.2,371.5,643.1,376.5,636.7,376.5z M637.1,357.4c-3.1,0-6.1,2.4-6.1,7.7c0,5.2,2.1,8.1,6.1,8.1c3.2,0,6-2.5,6-8
	C643.2,360.2,641.2,357.4,637.1,357.4L637.1,357.4z"/>
<path class="st0" d="M675.9,376.1v-13.9c0-3.1-0.8-4.9-3.7-4.9c-3.6,0-6.1,3.7-6.1,8.4v10.4h-3.9v-21.6h3.8c0,1.3-0.1,3.3-0.3,4.6
	h0.1c1.3-3,3.9-5,7.6-5c5,0,6.5,3.1,6.5,6.9v15.1L675.9,376.1L675.9,376.1z"/>
<path class="st0" d="M698.7,376.1c0-1.5,0-3.1,0.2-4.3h-0.1c-1,2.7-3.8,4.7-7.3,4.7s-6-2.3-6-5.8c0-4.7,4.7-7.4,13-7.4v-1.4
	c0-3-1.2-4.7-4.7-4.7c-2,0-4.5,0.7-6.3,1.6l-0.8-3.2c2.1-0.9,5-1.5,7.7-1.5c6.3,0,8,2.9,8,7.1v8.7c0,2,0,4.3,0.1,6.2L698.7,376.1
	L698.7,376.1z M698.5,366c-7.1,0-9.2,2-9.2,4.1c0,1.9,1.3,3.3,3.3,3.3c3.5,0,5.9-3.5,5.9-6.9V366z"/>
<path class="st0" d="M716.5,376.5c-4.4,0-5.8-1.8-5.8-6.5v-12.4h-4.4v-3h4.4v-7l3.9-1.1v8.1h6v3h-6v11c0,3.6,0.7,4.5,3.1,4.5
	c1,0,2-0.1,2.7-0.3l0.4,3.2C719.6,376.3,717.9,376.5,716.5,376.5L716.5,376.5z"/>
<path class="st0" d="M739.8,376.1c0-1.3,0.1-3.3,0.3-4.6H740c-1.3,3-3.9,5-7.6,5c-5,0-6.5-3.1-6.5-6.9v-15.1h3.9v13.9
	c0,3.1,0.9,4.9,3.7,4.9c3.6,0,6.2-3.7,6.2-8.4v-10.4h3.9v21.6L739.8,376.1L739.8,376.1z"/>
<path class="st0" d="M761.6,358c-4.6-0.8-6.7,2.5-6.7,9.4v8.7H751v-21.6h3.8c0,1.3-0.1,3.3-0.5,5.1h0.1c0.9-3,3.1-6,7.4-5.5
	L761.6,358z"/>
<path class="st0" d="M777.9,376.1c0-1.5,0-3.1,0.2-4.3h-0.1c-1,2.7-3.8,4.7-7.3,4.7s-6-2.3-6-5.8c0-4.7,4.7-7.4,13-7.4v-1.4
	c0-3-1.2-4.7-4.7-4.7c-2,0-4.5,0.7-6.3,1.6l-0.8-3.2c2.1-0.9,5-1.5,7.7-1.5c6.3,0,8,2.9,8,7.1v8.7c0,2,0,4.3,0.1,6.2L777.9,376.1
	L777.9,376.1z M777.7,366c-7.1,0-9.2,2-9.2,4.1c0,1.9,1.3,3.3,3.3,3.3c3.5,0,5.9-3.5,5.9-6.9V366z"/>
<path class="st0" d="M789.1,376.1v-31.7h3.9v31.7H789.1z"/>
<path class="st0" d="M799.5,382.8l-1.7-1.5c2.8-3,2.9-5,1.9-6.3c-1.2-1.5-0.2-3.9,1.9-3.9C804.8,371.2,806.2,376.7,799.5,382.8z"/>
<path class="st0" d="M836,365.2h-14.1c-0.2,5.7,2.2,8.1,6.8,8.1c2.1,0,4.3-0.4,6.2-1.3l0.6,3.1c-2.2,0.9-4.8,1.3-7.5,1.3
	c-6.6,0-10.1-3.5-10.1-11.1c0-6.5,3.5-11.3,9.7-11.3c6.1,0,8.7,4.1,8.7,9.1C836.2,363.7,836.1,364.3,836,365.2z M827.3,357
	c-2.8,0-4.9,2.1-5.3,5.4h10.1C832.2,359.1,830.4,357,827.3,357L827.3,357z"/>
<path class="st0" d="M841.9,376.1v-31.7h3.9v31.7H841.9z"/>
<path class="st0" d="M855.1,350.2c-1.4,0-2.6-1.1-2.6-2.5s1.2-2.6,2.6-2.6c1.4,0,2.6,1.1,2.6,2.6
	C857.7,349.1,856.6,350.2,855.1,350.2z M853.2,376.1v-21.6h3.9v21.6H853.2z"/>
<path class="st0" d="M871.6,387.2c-5.6,0-9.1-2.3-9.1-6.5c0-2.5,1.7-4.7,3.6-5.7c-1.3-0.6-2.1-1.8-2.1-3.2c0-1.5,1-3,2.4-3.7
	c-2-1.2-3.2-3.1-3.2-6c0-4.3,3.3-8.1,9.2-8.1c1.2,0,2,0.1,3,0.4h7.3v3.1h-3.6c1.1,0.9,1.7,2.3,1.7,4c0,4.4-3,7.8-9.1,7.8
	c-0.9,0-1.5-0.1-2.3-0.3c-0.9,0.4-1.4,1.1-1.4,1.8c0,1.2,1.1,1.6,3.7,1.7l4,0.1c4.7,0.2,7.3,2.3,7.3,6.3
	C883,383.6,878.4,387.2,871.6,387.2L871.6,387.2z M874.6,376l-4.2-0.2c-0.4,0-0.9,0-1.3,0c-1.7,1.2-2.8,2.6-2.8,4.3
	c0,2.6,2.4,4.1,5.8,4.1c4.4,0,6.8-2,6.8-4.7C879.1,377.4,877.7,376.1,874.6,376L874.6,376z M872.2,357c-3.3,0-5.1,2.1-5.1,4.8
	c0,3,1.8,4.7,5,4.7c3.1,0,5-1.7,5-4.7C877.1,358.9,875.3,357,872.2,357L872.2,357z"/>
<path class="st0" d="M904.3,365.2h-14.1c-0.2,5.7,2.2,8.1,6.8,8.1c2.1,0,4.3-0.4,6.2-1.3l0.6,3.1c-2.2,0.9-4.8,1.3-7.5,1.3
	c-6.6,0-10.1-3.5-10.1-11.1c0-6.5,3.5-11.3,9.7-11.3c6.1,0,8.7,4.1,8.7,9.1C904.4,363.7,904.4,364.3,904.3,365.2z M895.6,357
	c-2.8,0-4.9,2.1-5.3,5.4h10.1C900.5,359.1,898.6,357,895.6,357L895.6,357z"/>
<path class="st0" d="M924.8,376.5c-2.4,0-4.6-0.3-6.4-0.8l0.5-3.8c1.9,0.7,4,1.2,6.2,1.2c3.4,0,6.3-1.4,6.3-5
	c0-6.6-13.3-4-13.3-13.4c0-4.8,3.7-8.3,10.3-8.3c1.7,0,3.7,0.2,5.3,0.6l-0.5,3.5c-1.6-0.5-3.3-0.8-5-0.8c-4,0-5.9,1.8-5.9,4.6
	c0,6.3,13.4,4,13.4,13.3C935.7,372.8,931.4,376.5,924.8,376.5L924.8,376.5z"/>
<path class="st0" d="M949.1,376.5c-5.9,0-9.7-3.4-9.7-11c0-6.3,4-11.4,10.5-11.4c5.5,0,9.7,3,9.7,10.8
	C959.7,371.5,955.5,376.5,949.1,376.5z M949.6,357.4c-3.1,0-6.1,2.4-6.1,7.7c0,5.2,2.1,8.1,6.1,8.1c3.2,0,6-2.5,6-8
	C955.6,360.2,953.6,357.4,949.6,357.4L949.6,357.4z"/>
<path class="st0" d="M971.8,376.5c-4.4,0-5.8-1.8-5.8-6.5v-12.4h-4.4v-3h4.4v-7l3.9-1.1v8.1h6v3h-6v11c0,3.6,0.7,4.5,3.1,4.5
	c1,0,2-0.1,2.7-0.3l0.4,3.2C974.9,376.3,973.2,376.5,971.8,376.5L971.8,376.5z"/>
<path class="st0" d="M982.5,376.5c-1.5,0-2.7-1.2-2.7-2.7s1.2-2.7,2.7-2.7s2.7,1.2,2.7,2.7S984,376.5,982.5,376.5z"/>
<path class="st0" d="M1188.4,21c-1.4,0-2.9-0.1-4.1-0.5l0.2-4.3c1.1,0.4,2.8,0.8,4.3,0.8c1.7,0,2.9-0.7,2.9-2.2
	c0-3.4-8.1-1.7-8.1-8.5c0-3.8,3-6.3,8-6.3c1.1,0,2.4,0.1,3.7,0.4l-0.3,4.1c-1.1-0.3-2.4-0.5-3.6-0.5c-1.9,0-2.9,0.8-2.9,2
	c0,3.1,8.1,1.9,8.1,8.3C1196.7,18.1,1193.6,21,1188.4,21z"/>
<path class="st0" d="M1209.6,20.9c-5.1,0-8-3.1-8-7.9c0-5,4.1-8.3,8.6-8.3c4.4,0,8.1,2.4,8.1,7.9
	C1218.3,17.7,1214.2,20.9,1209.6,20.9z M1209.9,8.8c-1.8,0-3.4,1.4-3.4,4c0,2.5,1.2,4,3.3,4c1.8,0,3.5-1.2,3.5-4
	C1213.4,10.2,1211.9,8.8,1209.9,8.8z"/>
<path class="st0" d="M1231.1,9v11.6h-4.6V9h-3.8V5h12.2v4L1231.1,9z"/>
<path class="st0" d="M1250,20.6V5h10.1v3.6h-5.5v2.3h5.2v3.5h-5.2v2.5h5.5v3.7L1250,20.6L1250,20.6z"/>
<path class="st0" d="M1269.4,21c-0.9,0-2-0.1-2.8-0.3l0.1-4c0.8,0.3,2,0.5,3.1,0.5c1.1,0,1.8-0.5,1.8-1.3c0-1.9-5.6-0.7-5.6-5.8
	c0-3.2,2.3-5.3,6.9-5.3c0.8,0,1.8,0.1,2.7,0.2l-0.1,3.8c-0.8-0.2-1.8-0.4-2.7-0.4c-1.3,0-1.8,0.5-1.8,1.2c0,1.7,5.7,1.1,5.7,5.8
	C1276.6,18.6,1274.1,21,1269.4,21z"/>
<path class="st0" d="M1292.4,20.6V5h4.6v11.5h4.7v4.1L1292.4,20.6L1292.4,20.6z"/>
<path class="st0" d="M1314.3,20.9c-5.1,0-8-3.1-8-7.9c0-5,4.1-8.3,8.6-8.3c4.4,0,8.1,2.4,8.1,7.9
	C1322.9,17.7,1318.9,20.9,1314.3,20.9z M1314.6,8.8c-1.8,0-3.4,1.4-3.4,4c0,2.5,1.2,4,3.3,4c1.8,0,3.5-1.2,3.5-4
	C1318,10.2,1316.6,8.8,1314.6,8.8z"/>
<path class="st1" d="M1355,20.6l-1-6.8c-0.2-1.1-0.3-2.2-0.4-3.2h0c-0.2,1.1-0.5,2.3-0.8,3.3l-2,6.6h-4.7l-1.8-6.1
	c-0.3-1.1-0.7-2.6-0.9-3.8h0c-0.1,1.2-0.2,2.2-0.4,3.4l-0.8,6.4h-4.6L1340,5h5.8l2.1,6.9c0.2,0.8,0.5,1.8,0.7,2.9h0
	c0.2-1.1,0.4-2,0.8-2.9l2.2-6.9h5.9l2.4,15.6H1355z"/>
<path class="st1" d="M1366.1,20.6V5h10.1v3.6h-5.5v2.3h5.2v3.5h-5.2v2.5h5.5v3.7L1366.1,20.6L1366.1,20.6z"/>
<path class="st1" d="M1383.4,20.9c-0.8,0-1.4-0.1-2-0.2v-3.9c0.4,0.1,0.9,0.2,1.4,0.2c0.9,0,1.3-0.5,1.3-1.6V5h4.6v10.4
	C1388.8,18.9,1387.3,20.9,1383.4,20.9z"/>
<path class="st1" d="M1402.6,20.9c-5.1,0-8-3.1-8-7.9c0-5,4.1-8.3,8.6-8.3c4.4,0,8.1,2.4,8.1,7.9
	C1411.3,17.7,1407.2,20.9,1402.6,20.9z M1402.9,8.8c-1.8,0-3.4,1.4-3.4,4c0,2.5,1.2,4,3.3,4c1.8,0,3.5-1.2,3.5-4
	C1406.3,10.2,1404.9,8.8,1402.9,8.8z"/>
<path class="st1" d="M1425,20.6l-3.1-5.7h-0.1v5.7h-4.6V5c1.4-0.1,4.2-0.1,6.2-0.1c4,0,6.4,1.5,6.4,4.7c0,2.2-1.2,3.7-3.2,4.4
	c0.2,0.4,0.7,1.1,1.1,1.8l2.9,4.8L1425,20.6L1425,20.6z M1422.7,8.4c-0.3,0-0.6,0-0.9,0v3.4c0.3,0,0.7,0,1.1,0c1.2,0,2-0.8,2-1.9
	C1424.9,9.1,1424,8.4,1422.7,8.4L1422.7,8.4z"/>
<path class="st0" d="M1119.7,56.7c-2.3,0-4.1-0.1-5.7-0.2V41c1.4,0,4.6-0.1,6.6-0.1c5,0,8.4,2.1,8.4,7.6
	C1129,54.3,1124.9,56.7,1119.7,56.7z M1120.2,44.7c-0.5,0-1.1,0-1.6,0.1v8c0.3,0,0.8,0.1,1.5,0.1c2.3,0,4-1.4,4-4.2
	C1124.1,46.1,1122.8,44.7,1120.2,44.7z"/>
<path class="st0" d="M1134.9,56.6V41h10.1v3.6h-5.5v2.3h5.2v3.5h-5.2v2.5h5.5v3.7L1134.9,56.6L1134.9,56.6z"/>
<path class="st0" d="M1161.2,56.6V41h4.6v11.5h4.7v4.1H1161.2z"/>
<path class="st0" d="M1186.2,56.6l-0.8-2.4h-5.4l-0.8,2.4h-4.6l5.6-15.6h5.6l5.6,15.6H1186.2z M1183.4,48c-0.2-0.6-0.5-1.4-0.7-2.1
	h0c-0.2,0.7-0.4,1.4-0.6,2l-1.1,3h3.4L1183.4,48z"/>
<path class="st0" d="M1199.3,57c-0.9,0-2-0.2-2.8-0.3l0.2-4c0.8,0.3,1.9,0.5,3.1,0.5c1.1,0,1.8-0.5,1.8-1.3c0-1.9-5.6-0.7-5.6-5.8
	c0-3.2,2.3-5.3,6.9-5.3c0.8,0,1.8,0.1,2.7,0.2l-0.1,3.8c-0.8-0.2-1.8-0.4-2.7-0.4c-1.3,0-1.8,0.5-1.8,1.2c0,1.7,5.7,1,5.7,5.8
	C1206.5,54.6,1204,57,1199.3,57z"/>
<path class="st1" d="M1230.2,56.6l-3.1-5.7h-0.2v5.7h-4.6V41c1.4-0.1,4.2-0.1,6.2-0.1c4,0,6.4,1.5,6.4,4.7c0,2.2-1.2,3.7-3.2,4.4
	c0.2,0.4,0.7,1,1.1,1.8l2.9,4.8L1230.2,56.6z M1227.8,44.4c-0.3,0-0.6,0-0.9,0v3.4c0.3,0,0.7,0,1.1,0c1.2,0,2-0.8,2-1.9
	C1230,45.1,1229.2,44.4,1227.8,44.4L1227.8,44.4z"/>
<path class="st1" d="M1251.3,56.6l-0.8-2.4h-5.4l-0.8,2.4h-4.6l5.6-15.6h5.5l5.6,15.6H1251.3z M1248.4,48c-0.2-0.6-0.5-1.4-0.7-2.1
	h0c-0.2,0.7-0.4,1.4-0.6,2l-1.1,3h3.4L1248.4,48z"/>
<path class="st1" d="M1262.3,40l-1.5-2.6l5.8-3.3l1.8,3.1L1262.3,40z M1261.8,56.6V41h4.6v15.6H1261.8z"/>
<path class="st1" d="M1280.3,56.8c-5.3,0-7.9-3.1-7.9-7.7c0-4.3,2.7-8.5,8.8-8.5c0.8,0,2,0.1,3,0.4l-0.4,4c-0.9-0.3-1.8-0.4-2.8-0.4
	c-2.2,0-3.6,1.5-3.6,4.1c0,2.6,1.6,4,3.8,4c1,0,1.9-0.2,2.7-0.5l0.4,4.1C1282.9,56.7,1281.6,56.8,1280.3,56.8L1280.3,56.8z"/>
<path class="st1" d="M1290.3,56.6V41h10.1v3.6h-5.5v2.3h5.2v3.5h-5.2v2.5h5.5v3.7L1290.3,56.6L1290.3,56.6z"/>
<path class="st1" d="M1309.6,57c-0.9,0-2-0.2-2.8-0.3l0.2-4c0.8,0.3,1.9,0.5,3.1,0.5c1.1,0,1.8-0.5,1.8-1.3c0-1.9-5.6-0.7-5.6-5.8
	c0-3.2,2.3-5.3,6.9-5.3c0.8,0,1.8,0.1,2.7,0.2l-0.1,3.8c-0.8-0.2-1.8-0.4-2.7-0.4c-1.3,0-1.8,0.5-1.8,1.2c0,1.7,5.7,1,5.7,5.8
	C1316.9,54.6,1314.3,57,1309.6,57L1309.6,57z"/>
<path class="st0" d="M1349.3,56.6l-1-6.8c-0.2-1.1-0.3-2.2-0.4-3.2h0c-0.2,1.1-0.5,2.3-0.8,3.3l-2,6.6h-4.7l-1.8-6.1
	c-0.3-1.1-0.7-2.5-0.9-3.8h0c-0.1,1.2-0.2,2.2-0.4,3.4l-0.8,6.5h-4.6l2.5-15.6h5.8l2.1,6.9c0.2,0.8,0.5,1.8,0.7,2.9h0
	c0.2-1.1,0.4-2,0.8-2.9l2.2-6.9h5.9l2.4,15.6H1349.3z"/>
<path class="st0" d="M1360.4,56.6V41h10.1v3.6h-5.5v2.3h5.2v3.5h-5.2v2.5h5.5v3.7L1360.4,56.6L1360.4,56.6z"/>
<path class="st0" d="M1387,56.6l-3-4.5l-2.8,4.5h-5.5l5.6-7.7l-5.5-7.9h5.7l2.9,4.4l2.9-4.4h5.2l-5.2,7.7l5.7,7.9H1387z"/>
<path class="st0" d="M1398.4,56.6V41h4.6v15.6H1398.4z"/>
<path class="st0" d="M1416.9,56.8c-5.3,0-7.9-3.1-7.9-7.7c0-4.3,2.7-8.5,8.8-8.5c0.8,0,2,0.1,3,0.4l-0.4,4c-0.9-0.3-1.8-0.4-2.8-0.4
	c-2.2,0-3.6,1.5-3.6,4.1c0,2.6,1.6,4,3.8,4c1,0,1.9-0.2,2.7-0.5l0.4,4.1C1419.5,56.7,1418.2,56.8,1416.9,56.8z"/>
<path class="st0" d="M1436.9,56.6l-0.8-2.4h-5.4l-0.8,2.4h-4.6l5.6-15.6h5.6l5.6,15.6H1436.9z M1434.1,48c-0.2-0.6-0.5-1.4-0.7-2.1
	h0c-0.1,0.7-0.4,1.4-0.6,2l-1.1,3h3.4L1434.1,48z"/>
<path class="st0" d="M1457,56.6l-3.9-6.6c-0.5-0.8-1-1.9-1.3-2.7h0c0,0.6,0.1,1.2,0.1,2.1v7.2h-4.4V41h6.2l3.8,6.4
	c0.5,0.9,1,1.9,1.4,2.9h0c-0.1-0.8-0.1-1.9-0.1-3.1l0-6.2h4.5v15.6H1457z"/>
<path class="st0" d="M1480.3,56.6l-0.8-2.4h-5.4l-0.8,2.4h-4.6l5.6-15.6h5.6l5.6,15.6H1480.3z M1477.4,48c-0.2-0.6-0.5-1.4-0.7-2.1
	h0c-0.1,0.7-0.4,1.4-0.6,2l-1.1,3h3.4L1477.4,48z"/>
<path class="st0" d="M1493.3,57c-0.9,0-2-0.2-2.8-0.3l0.2-4c0.8,0.3,1.9,0.5,3.1,0.5c1.1,0,1.8-0.5,1.8-1.3c0-1.9-5.6-0.7-5.6-5.8
	c0-3.2,2.3-5.3,6.9-5.3c0.8,0,1.8,0.1,2.7,0.2l-0.1,3.8c-0.8-0.2-1.8-0.4-2.7-0.4c-1.3,0-1.8,0.5-1.8,1.2c0,1.7,5.7,1,5.7,5.8
	C1500.5,54.6,1498,57,1493.3,57L1493.3,57z"/>
<path class="st0" d="M1110.7,92.6V77h10.1v3.6h-5.5v2.3h5.2v3.5h-5.2v2.5h5.5v3.7L1110.7,92.6L1110.7,92.6z"/>
<path class="st0" d="M1137.1,92.6l-3.9-6.6c-0.5-0.8-1-1.9-1.3-2.7h0c0,0.6,0.1,1.2,0.1,2.1v7.2h-4.4V77h6.2l3.8,6.4
	c0.5,0.9,1,1.9,1.4,2.9h0c-0.1-0.8-0.1-1.9-0.1-3.1l0-6.2h4.5v15.6H1137.1z"/>
<path class="st0" d="M1167,92.9c-5,0-7.2-2.4-7.2-5.9V77h4.6v8.9c0,2.2,0.9,3.1,2.9,3.1c2,0,2.8-1.1,2.8-3.2V77h4.6v9.5
	C1174.6,90.1,1172.3,92.9,1167,92.9L1167,92.9z"/>
<path class="st0" d="M1191.1,92.6l-3.9-6.6c-0.5-0.8-1-1.9-1.3-2.7h0c0,0.6,0.1,1.2,0.1,2.1v7.2h-4.4V77h6.2l3.8,6.4
	c0.5,0.9,1,1.9,1.4,2.9h0c-0.1-0.8-0.1-1.9-0.1-3.1l0-6.2h4.5v15.6H1191.1z"/>
<path class="st0" d="M1214.5,92.6l-0.8-2.4h-5.4l-0.8,2.4h-4.6l5.6-15.6h5.6l5.6,15.6H1214.5z M1211.6,84c-0.2-0.6-0.5-1.4-0.7-2.1
	h0c-0.2,0.7-0.4,1.4-0.6,2l-1.1,3h3.4L1211.6,84z"/>
<path class="st2" d="M1240.6,92.7c-1.2,0-3.4-0.1-6.2-0.1V77c1.8,0,4.7-0.1,6.8-0.1c4.4,0,6.2,1.4,6.2,4c0,1.4-0.7,2.7-2.2,3.3v0
	c1.5,0.5,2.3,1.8,2.3,3.4C1247.6,90.3,1245.8,92.7,1240.6,92.7z M1240.4,80.1c-0.4,0-0.9,0-1.4,0v3.1c0.4,0,0.8,0,1,0
	c1.5,0,2.6-0.5,2.6-1.7C1242.6,80.7,1242,80.1,1240.4,80.1L1240.4,80.1z M1240.3,86c-0.3,0-0.8,0-1.2,0v3.3c0.5,0,1,0.1,1.5,0.1
	c1.5,0,2.2-0.7,2.2-1.8C1242.7,86.6,1241.9,86,1240.3,86z"/>
<path class="st2" d="M1261,92.9c-5.1,0-8-3.1-8-7.9c0-5,4.1-8.3,8.6-8.3c4.4,0,8.1,2.4,8.1,7.9C1269.7,89.7,1265.6,92.9,1261,92.9z
	 M1261.3,80.8c-1.8,0-3.4,1.3-3.4,4c0,2.5,1.2,4.1,3.3,4.1c1.8,0,3.5-1.2,3.5-4C1264.7,82.2,1263.3,80.8,1261.3,80.8z"/>
<path class="st2" d="M1282.5,81v11.6h-4.6V81h-3.8v-4h12.2v4H1282.5z"/>
<path class="st2" d="M1300.7,92.6l-0.8-2.4h-5.4l-0.8,2.4h-4.6l5.6-15.6h5.6l5.6,15.6H1300.7z M1297.8,84c-0.2-0.6-0.5-1.4-0.7-2.1
	h0c-0.1,0.7-0.4,1.4-0.6,2l-1.1,3h3.4L1297.8,84z"/>
<path class="st2" d="M1320.7,92.6l-3.9-6.6c-0.5-0.8-1-1.9-1.3-2.7h0c0,0.6,0.1,1.2,0.1,2.1v7.2h-4.4V77h6.2l3.8,6.4
	c0.5,0.9,1,1.9,1.4,2.9h0c-0.1-0.8-0.1-1.9-0.1-3.1l0-6.2h4.5v15.6H1320.7z"/>
<path class="st2" d="M1344,92.6l-0.8-2.4h-5.4l-0.8,2.4h-4.6L1338,77h5.6l5.6,15.6H1344z M1341.1,84c-0.2-0.6-0.5-1.4-0.7-2.1h0
	c-0.1,0.7-0.4,1.4-0.6,2l-1.1,3h3.4L1341.1,84z"/>
<path class="st2" d="M1373.6,92.6l-3.9-6.6c-0.5-0.8-1-1.9-1.3-2.7h0c0,0.6,0.1,1.2,0.1,2.1v7.2h-4.4V77h6.2l3.8,6.4
	c0.5,0.9,1,1.9,1.4,2.9h0c-0.1-0.8-0.1-1.9-0.1-3.1l0-6.2h4.5v15.6H1373.6z"/>
<path class="st2" d="M1396.9,92.6l-0.8-2.4h-5.4l-0.8,2.4h-4.6l5.6-15.6h5.6l5.6,15.6H1396.9z M1394,84c-0.2-0.6-0.5-1.4-0.7-2.1h0
	c-0.1,0.7-0.4,1.4-0.6,2l-1.1,3h3.4L1394,84z"/>
<path class="st2" d="M1414.3,81v11.6h-4.6V81h-3.8v-4h12.2v4H1414.3z"/>
<path class="st2" d="M1430.8,92.9c-5,0-7.2-2.4-7.2-5.9V77h4.6v8.9c0,2.2,0.9,3.1,2.9,3.1c1.9,0,2.8-1.1,2.8-3.2V77h4.6v9.5
	C1438.5,90.1,1436.2,92.9,1430.8,92.9L1430.8,92.9z"/>
<path class="st2" d="M1453.2,92.6l-3.1-5.7h-0.1v5.7h-4.6V77c1.4-0.1,4.2-0.1,6.2-0.1c4,0,6.4,1.5,6.4,4.7c0,2.2-1.2,3.7-3.2,4.4
	c0.2,0.4,0.7,1.1,1.1,1.8l2.9,4.8H1453.2z M1450.9,80.4c-0.3,0-0.6,0-0.9,0v3.4c0.3,0,0.7,0,1.1,0c1.2,0,2-0.8,2-1.9
	C1453.1,81.1,1452.3,80.4,1450.9,80.4L1450.9,80.4z"/>
<path class="st2" d="M1474.4,92.6l-0.8-2.4h-5.4l-0.8,2.4h-4.6l5.6-15.6h5.6l5.6,15.6H1474.4z M1471.5,84c-0.2-0.6-0.5-1.4-0.7-2.1
	h0c-0.1,0.7-0.4,1.4-0.6,2l-1.1,3h3.4L1471.5,84z"/>
<path class="st2" d="M1484.9,92.6V77h4.6v11.5h4.7v4.1H1484.9z"/>
<path class="st2" d="M1498.7,96.5c2.1-2.3,2.3-3.5,1.2-4.8c-1.3-1.5-0.4-4.3,2.1-4.3c3.2,0,4.8,5.4-1.4,10.7L1498.7,96.5z"/>
<path class="st0" d="M1171.6,128.6V113h4.6v11.5h4.7v4.1H1171.6z"/>
<path class="st0" d="M1186.5,128.6V113h4.6v15.6H1186.5z"/>
<path class="st0" d="M1205.2,128.9c-4.6,0-8.2-2.6-8.2-7.8c0-4.7,3.3-8.4,8.9-8.4c1.7,0,3.5,0.3,5.3,0.8l-0.9,3.9
	c-1.3-0.5-2.7-0.8-4.2-0.8c-2.5,0-4.1,1.6-4.1,4.2c0,2.6,1.4,4,3.5,4c0.5,0,1-0.1,1.4-0.2v-4.5h4.6v7.5
	C1209.5,128.5,1207.4,128.9,1205.2,128.9L1205.2,128.9z"/>
<path class="st0" d="M1218.4,128.6V113h10.1v3.6h-5.5v2.3h5.2v3.5h-5.2v2.5h5.5v3.7L1218.4,128.6L1218.4,128.6z"/>
<path class="st0" d="M1243.1,128.6l-3.1-5.7h-0.2v5.7h-4.6V113c1.4-0.1,4.2-0.1,6.2-0.1c4,0,6.4,1.5,6.4,4.7c0,2.2-1.2,3.7-3.2,4.4
	c0.2,0.4,0.7,1.1,1.1,1.8l2.9,4.8L1243.1,128.6z M1240.7,116.4c-0.3,0-0.6,0-0.9,0v3.4c0.3,0,0.7,0,1.1,0c1.2,0,2-0.8,2-1.9
	C1242.9,117.1,1242.1,116.4,1240.7,116.4L1240.7,116.4z"/>
<path class="st0" d="M1264.2,128.6l-0.8-2.4h-5.4l-0.8,2.4h-4.6l5.6-15.6h5.5l5.6,15.6H1264.2z M1261.3,120
	c-0.2-0.6-0.5-1.4-0.7-2.1h0c-0.2,0.7-0.4,1.4-0.6,2l-1.1,3h3.4L1261.3,120z"/>
<path class="st0" d="M1273.5,132.5c2.1-2.3,2.3-3.5,1.2-4.8c-1.3-1.5-0.4-4.3,2.1-4.3c3.2,0,4.8,5.4-1.4,10.7L1273.5,132.5z"/>
<path class="st1" d="M1301.3,128.9c-5.3,0-7.9-3.1-7.9-7.7c0-4.3,2.7-8.5,8.8-8.5c0.8,0,2,0.1,3,0.4l-0.4,4
	c-0.9-0.3-1.8-0.4-2.8-0.4c-2.2,0-3.6,1.5-3.6,4.1c0,2.6,1.6,4,3.8,4c1,0,1.9-0.2,2.7-0.5l0.4,4.1
	C1304,128.7,1302.7,128.9,1301.3,128.9z"/>
<path class="st1" d="M1319.2,128.6l-3.1-5.7h-0.2v5.7h-4.6V113c1.4-0.1,4.2-0.1,6.2-0.1c4,0,6.4,1.5,6.4,4.7c0,2.2-1.2,3.7-3.2,4.4
	c0.2,0.4,0.7,1.1,1.1,1.8l2.9,4.8L1319.2,128.6z M1316.9,116.4c-0.3,0-0.6,0-0.9,0v3.4c0.3,0,0.7,0,1.1,0c1.2,0,2-0.8,2-1.9
	C1319.1,117.1,1318.2,116.4,1316.9,116.4L1316.9,116.4z"/>
<path class="st1" d="M1337.5,128.9c-5,0-7.2-2.4-7.2-5.9v-10h4.6v8.9c0,2.2,0.9,3.1,2.9,3.1c1.9,0,2.8-1.1,2.8-3.2V113h4.6v9.5
	C1345.1,126.1,1342.8,128.9,1337.5,128.9L1337.5,128.9z"/>
<path class="st1" d="M1352.6,128.9c-0.8,0-1.4-0.1-2-0.2v-3.9c0.4,0.1,0.9,0.2,1.4,0.2c0.9,0,1.3-0.4,1.3-1.6V113h4.6v10.4
	C1357.9,126.9,1356.5,128.8,1352.6,128.9L1352.6,128.9z"/>
<path class="st1" d="M1364.9,128.6V113h4.6v15.6H1364.9z"/>
<path class="st1" d="M1376.5,128.6V113h10.1v3.6h-5.5v2.3h5.2v3.5h-5.2v2.5h5.5v3.7L1376.5,128.6L1376.5,128.6z"/>
<path class="st1" d="M1402.8,128.6l-3.9-6.6c-0.5-0.8-1-1.9-1.3-2.7h0c0,0.6,0.1,1.2,0.1,2.1v7.2h-4.4V113h6.2l3.8,6.4
	c0.5,0.9,1,1.9,1.4,2.9h0c-0.1-0.8-0.1-1.9-0.1-3.1l0-6.2h4.5v15.6H1402.8z"/>
<path class="st1" d="M1423.1,117v11.6h-4.6V117h-3.8v-4h12.2v4L1423.1,117z"/>
<path class="st1" d="M1432.4,128.6V113h10.1v3.6h-5.5v2.3h5.2v3.5h-5.2v2.5h5.5v3.7L1432.4,128.6L1432.4,128.6z"/>
<path class="st0" d="M1151,159.8v4.9h-4.6v-4.8l-5.5-10.8h5.1l1.6,3.4c0.4,0.8,0.8,1.8,1.2,2.9h0c0.4-1.1,0.9-2.1,1.3-3l1.7-3.3h4.8
	L1151,159.8z"/>
<path class="st2" d="M1173.6,165c-0.9,0-2-0.1-2.8-0.3l0.2-4c0.8,0.3,1.9,0.5,3.1,0.5c1.1,0,1.8-0.5,1.8-1.3c0-1.9-5.6-0.7-5.6-5.9
	c0-3.2,2.3-5.3,6.9-5.3c0.8,0,1.8,0.1,2.7,0.2l-0.1,3.8c-0.8-0.2-1.8-0.4-2.7-0.4c-1.3,0-1.8,0.5-1.8,1.2c0,1.7,5.7,1.1,5.7,5.8
	C1180.8,162.6,1178.3,165,1173.6,165L1173.6,165z"/>
<path class="st2" d="M1187.1,164.6V149h4.6v15.6H1187.1z"/>
<path class="st2" d="M1208.3,164.6l-3.9-6.6c-0.5-0.8-1-1.9-1.3-2.7h0c0,0.6,0.1,1.2,0.1,2.1v7.2h-4.4V149h6.2l3.8,6.4
	c0.5,0.9,1,1.9,1.4,2.9h0c-0.1-0.8-0.1-1.9-0.1-3.1l0-6.2h4.5v15.6H1208.3z"/>
<path class="st2" d="M1238,164.9c-5.3,0-7.9-3.1-7.9-7.7c0-4.4,2.7-8.5,8.8-8.5c0.8,0,2,0.1,3,0.4l-0.4,4c-0.9-0.3-1.8-0.4-2.8-0.4
	c-2.2,0-3.6,1.5-3.6,4.1c0,2.6,1.6,4,3.8,4c1,0,1.9-0.2,2.7-0.5l0.4,4.1C1240.6,164.7,1239.3,164.9,1238,164.9L1238,164.9z"/>
<path class="st2" d="M1254.9,164.9c-5.1,0-8-3.1-8-7.9c0-5,4.1-8.3,8.6-8.3c4.4,0,8.1,2.4,8.1,7.9
	C1263.5,161.7,1259.5,164.9,1254.9,164.9L1254.9,164.9z M1255.2,152.8c-1.8,0-3.4,1.4-3.4,4c0,2.5,1.2,4.1,3.3,4.1
	c1.8,0,3.5-1.2,3.5-4C1258.6,154.2,1257.2,152.8,1255.2,152.8z"/>
<path class="st2" d="M1279,164.6l-3.9-6.6c-0.5-0.8-1-1.9-1.3-2.7h0c0,0.6,0.1,1.2,0.1,2.1v7.2h-4.4V149h6.2l3.8,6.4
	c0.5,0.9,1,1.9,1.4,2.9h0c-0.1-0.8-0.1-1.9-0.1-3.1l0-6.2h4.5v15.6H1279z"/>
<path class="st2" d="M1294.8,165c-0.9,0-2-0.1-2.8-0.3l0.1-4c0.8,0.3,1.9,0.5,3.1,0.5c1.1,0,1.8-0.5,1.8-1.3c0-1.9-5.6-0.7-5.6-5.9
	c0-3.2,2.3-5.3,6.9-5.3c0.8,0,1.8,0.1,2.7,0.2l-0.1,3.8c-0.8-0.2-1.8-0.4-2.7-0.4c-1.3,0-1.8,0.5-1.8,1.2c0,1.7,5.7,1.1,5.7,5.8
	C1302,162.6,1299.5,165,1294.8,165L1294.8,165z"/>
<path class="st2" d="M1308.3,164.6V149h10.1v3.6h-5.5v2.3h5.2v3.5h-5.2v2.5h5.5v3.7L1308.3,164.6L1308.3,164.6z"/>
<path class="st2" d="M1333,164.6l-3.1-5.7h-0.1v5.7h-4.6V149c1.4-0.1,4.2-0.1,6.2-0.1c4,0,6.4,1.5,6.4,4.7c0,2.2-1.2,3.7-3.2,4.4
	c0.2,0.4,0.7,1.1,1.1,1.8l2.9,4.8L1333,164.6z M1330.7,152.4c-0.3,0-0.6,0-0.9,0v3.4c0.3,0,0.7,0,1.1,0c1.2,0,2-0.8,2-1.9
	C1332.8,153.1,1332,152.4,1330.7,152.4L1330.7,152.4z"/>
<path class="st2" d="M1353.2,164.6h-5.5L1342,149h5l2.2,6.3c0.4,1.1,0.8,2.6,1.2,4.3h0c0.4-1.6,0.8-3.1,1.3-4.3l2.2-6.3h4.8
	L1353.2,164.6z"/>
<path class="st2" d="M1372.7,164.6l-0.8-2.4h-5.4l-0.8,2.4h-4.6l5.6-15.6h5.6l5.6,15.6H1372.7z M1369.9,156
	c-0.2-0.6-0.5-1.4-0.7-2.1h0c-0.1,0.7-0.4,1.4-0.6,2l-1.1,3h3.4L1369.9,156z"/>
<path class="st2" d="M1388.9,164.7c-2.3,0-4.1-0.1-5.7-0.1V149c1.4,0,4.6-0.1,6.6-0.1c5,0,8.4,2.1,8.4,7.6
	C1398.2,162.3,1394.1,164.7,1388.9,164.7L1388.9,164.7z M1389.4,152.7c-0.5,0-1.1,0-1.6,0.1v8c0.3,0,0.8,0.1,1.5,0.1
	c2.3,0,4-1.4,4-4.2C1393.3,154.1,1392,152.7,1389.4,152.7L1389.4,152.7z"/>
<path class="st2" d="M1411.1,164.9c-5.1,0-8-3.1-8-7.9c0-5,4.1-8.3,8.6-8.3c4.4,0,8.1,2.4,8.1,7.9
	C1419.7,161.7,1415.6,164.9,1411.1,164.9L1411.1,164.9z M1411.4,152.8c-1.8,0-3.4,1.4-3.4,4c0,2.5,1.2,4.1,3.3,4.1
	c1.8,0,3.5-1.2,3.5-4C1414.8,154.2,1413.4,152.8,1411.4,152.8z"/>
<path class="st2" d="M1433.5,164.6l-3.1-5.7h-0.1v5.7h-4.6V149c1.4-0.1,4.2-0.1,6.2-0.1c4,0,6.4,1.5,6.4,4.7c0,2.2-1.2,3.7-3.2,4.4
	c0.2,0.4,0.7,1.1,1.1,1.8l2.9,4.8L1433.5,164.6z M1431.2,152.4c-0.3,0-0.6,0-0.9,0v3.4c0.3,0,0.7,0,1.1,0c1.2,0,2-0.8,2-1.9
	C1433.3,153.1,1432.5,152.4,1431.2,152.4L1431.2,152.4z"/>
<path class="st2" d="M1444.6,164.6V149h10.1v3.6h-5.5v2.3h5.2v3.5h-5.2v2.5h5.5v3.7L1444.6,164.6L1444.6,164.6z"/>
<path class="st2" d="M1463.9,165c-0.9,0-2-0.1-2.8-0.3l0.2-4c0.8,0.3,1.9,0.5,3.1,0.5c1.1,0,1.8-0.5,1.8-1.3c0-1.9-5.6-0.7-5.6-5.9
	c0-3.2,2.3-5.3,6.9-5.3c0.8,0,1.8,0.1,2.7,0.2l-0.1,3.8c-0.8-0.2-1.8-0.4-2.7-0.4c-1.3,0-1.8,0.5-1.8,1.2c0,1.7,5.7,1.1,5.7,5.8
	C1471.1,162.6,1468.6,165,1463.9,165L1463.9,165z"/>
<path class="st2" d="M1482.3,162.2c0,1.5-1.3,2.8-2.8,2.8c-1.5,0-2.8-1.3-2.8-2.8c0-1.6,1.3-2.9,2.8-2.9
	C1481,159.3,1482.3,160.6,1482.3,162.2z"/>
</svg>
