<svg enable-background="new 0 0 1504.78 671.812" viewBox="0 0 1504.78 671.812" xmlns="http://www.w3.org/2000/svg"><g fill="#fff"><path d="m245.63 671.812c-3.427.003-6.425-2.681-10.119-6.988-13.426-15.647-16.514-34.28-17.851-52.087-1.52-20.244-1.8-40.565-1.99-63.126-.027-2.871-.42-4.574-1.234-5.361-.82-.787-2.551-1.147-5.324-1.07-4.724.127-9.422-.447-13.946-1.004-1.82-.223-3.621-.447-5.398-.62l-1.96-.187-.44-1.917c-1.587-6.885-2.217-9.619-.47-11.726 1.58-1.91 4.011-1.814 7.665-1.667 1.387.053 3.094.093 5.078.113l3.034-.01c2.861-.013 6.428-.027 8.275.01l1.607.037c1.767.05 3.751.1 4.131-.287 1.194-1.224.787-9.192.653-11.809-.327-6.168.017-12.369.347-18.364.363-6.515.737-13.249.213-19.777-.06-.75-.377-1.737-.713-2.781-.857-2.647-2.027-6.271.433-9.412.573-.73 5.735-7.075 11.012-6.138 1.31.227 3.677 1.13 4.854 4.648 2.397 7.178 2.3 26.969 1.97 48.353-.06 3.887-.113 7.261-.113 9.742 0 5.644.41 7.251.753 7.602.497.3 2.981.023 4.984-.203 3.371-.377 8.022-.877 14.306-.653 1.104.047 2.2.153 3.267.26l3.444.303.47 1.904c1.214 4.884 1.584 8.158-.1 10.442-1.777 2.407-4.731 2.574-9.202 2.824-1.307.073-2.794.157-4.471.307l-1.934.16c-5.885.47-9.765.943-11.576 1.41.47 10.532.393 21.581.32 32.28-.12 17.257-.243 35.097 1.86 51.827.78 6.255 4.701 12.573 8.855 19.261 2.947 4.751 5.998 9.665 8.158 14.933l.587 1.43-.924 1.24c-2.154 2.887-4.748 5.978-8.288 6.098-.073.003-.146.003-.223.003zm-35.834-134.107c3.894 0 6.588.837 8.428 2.611 2.511 2.417 2.877 6.031 2.907 9.249.19 22.461.47 42.689 1.977 62.766 1.267 16.877 4.148 34.487 16.55 48.937 3.637 4.244 5.358 5.211 6.011 5.084.663-.023 1.72-.92 3.141-2.674-1.947-4.344-4.578-8.578-7.128-12.689-4.478-7.211-8.705-14.023-9.635-21.461-2.147-17.087-2.02-35.114-1.9-52.544.077-11.149.157-22.681-.387-33.517v-.003c-.187-3.851 4.678-4.621 16.67-5.578l1.867-.153c1.76-.157 3.307-.247 4.664-.32 2.067-.117 4.638-.263 5.154-.66.067-.173.217-.997-.413-3.967-.83-.083-1.68-.16-2.527-.193-5.888-.23-10.292.263-13.486.623-4.251.48-7.062.787-9.235-1.157-2.187-1.957-2.571-5.321-2.571-11.672 0-2.501.053-5.905.113-9.825.227-14.83.61-39.648-1.69-46.536-.187-.56-.437-.97-.603-1-1.047-.22-3.784 1.584-5.785 4.128-.623.797-.24 2.177.467 4.361.417 1.297.85 2.637.964 4.027.55 6.895.167 13.816-.207 20.514-.323 5.848-.66 11.899-.347 17.777.45 8.792.237 13.416-2.197 15.907-2.047 2.1-4.901 2.017-8.188 1.934l-1.557-.037c-1.824-.033-5.334-.017-8.155-.01l-3.044.01c-2.107-.01-3.851-.06-5.308-.117-1.084-.043-2.284-.097-3.031-.057.087 1.007.473 2.821.937 4.864 1.187.133 2.384.28 3.584.43 4.321.533 8.799 1.107 13.123.964.283-.009.563-.016.837-.016zm-78.524 133.02c-2.911 0-5.908-.337-8.952-1.027-14.88-3.397-23.438-14.886-24.749-33.223-.787-10.902.04-50.577 4.208-69.851 4.114-18.92 15.48-28.012 33.517-27.059 12.009.637 21.815 6.981 26.909 17.404 16.397 33.373 15.967 65.817-1.28 96.436-6.245 11.112-17.157 17.32-29.653 17.32zm1.537-125.765c-13.943 0-22.355 7.485-25.689 22.821-3.911 18.07-4.894 57.261-4.101 68.304 1.14 15.923 8.038 25.438 20.511 28.286 13.68 3.111 26.166-2.134 32.634-13.643 16.31-28.959 16.694-59.692 1.14-91.352l-.003-.003c-4.258-8.718-12.176-13.816-22.291-14.353-.751-.04-1.484-.06-2.201-.06zm-.943 113.843c-1.26 0-2.531-.133-3.807-.403-7.768-1.647-14.51-8.215-17.59-17.147-4.008-11.649-.93-53.674 1.034-65.61.58-3.591 2.124-6.915 3.401-9.412l.817-1.604c3.794-7.498 7.715-15.246 18.987-15.246.143 0 .283 0 .427.003 13.803.277 18.561 11.286 20.941 19.541 2.17 7.545 4.321 15.603 4.671 23.841.667 14.79 1.297 28.766-5.658 44.186l-.373.823c-2.25 4.971-4.578 10.109-8.402 14.22-4.156 4.464-9.181 6.808-14.448 6.808zm2.833-103.961c-7.538 0-10.162 4.454-14.106 12.249l-.83 1.634c-1.01 1.97-2.407 4.924-2.871 7.798-2.09 12.709-4.684 53.001-1.26 62.953 2.457 7.125 7.652 12.329 13.556 13.579 4.734 1 9.282-.65 13.123-4.781 3.217-3.457 5.358-8.182 7.425-12.753l.373-.823c6.415-14.226 5.841-26.955 5.181-41.692-.33-7.645-2.387-15.343-4.464-22.571-3.147-10.909-7.722-15.426-15.793-15.59-.113-.003-.224-.003-.334-.003zm-106.206 113.836c-1.404 0-2.871-.123-4.361-.37l-2.331-.243c-3.101-.423-5.655-1.997-7.472-4.558-1.55-2.204-3.914-6.261-2.371-8.778.713-1.16 2.02-1.717 3.454-1.524 2.564.403 20.294-2.54 23.138-3.144.64-.343 1.627-.957 2.601-1.644l.417-.263c.197-.12 13.123-9.312 15.92-25.668l.313-1.774c.343-1.89.663-3.674.8-5.484.183-2.794.28-5.381.28-7.668-.17-1.927-.543-4.531-1.077-7.305-.557-3.084-1.3-6.191-2.22-9.265l-.187-.507c-4.028-11.199-5.835-14.726-6.638-15.713-2.381-2.871-5.311-6.021-8.699-9.352-3.824-3.551-8.142-7.602-12.856-12.036-5.291-4.781-9.045-8.575-11.436-11.569-.774-.964-1.927-2.06-3.144-3.224-1.967-1.877-4.198-4.004-5.601-6.341-2.267-4.011-4.048-8.582-5.338-13.646-1.307-5.131-1.86-10.249-1.64-15.206.44-4.821 1.414-9.625 2.897-14.413 1.12-3.617 5.821-16.34 19.211-28.039 3.501-3.061 8.465-3.551 12.843-3.987l.383-.037c4.561-.67 8.695-.393 12.119.844 2.664.657 5.281 1.78 7.525 3.257l2.197 1.34c2.584 1.69 4.224 4.107 4.824 7.035.25 1.247.45 2.227-.297 3.291l-.677.96-.727.127c-1.7 2.357-3.991 3.841-6.721 4.414-2.784.59-5.538.107-7.955-1.39l-2.981-1.584c-.19-.15-.657-.433-1.65-.68-.757-.23-1.92-.267-3.437-.137-1.637.26-3.411.783-4.924 1.494-1.28.6-2.547 1.644-3.757 3.094-1.774 2.087-3.577 4.658-5.378 7.655-1.527 2.677-2.841 5.658-3.881 8.812-1.024 3.091-1.624 6.235-1.787 9.355-.16 2.654.167 5.428.974 8.268.73 3.384 1.69 6.011 2.971 8.208 1.59 2.607 3.247 5.048 4.898 7.211 1.08 1.407 3.517 4.121 8.989 9.032 4.934 4.458 9.369 8.525 13.313 12.189 4.128 4.051 7.638 7.802 10.486 11.192 2.994 3.771 5.575 7.665 7.718 11.636 2.134 3.994 3.854 8.005 5.111 11.936 1.227 3.811 2.224 7.728 2.967 11.636.723 3.884 1.197 7.515 1.41 10.799.01 3.277-.087 6.428-.293 9.792-.22 3.527-.773 6.965-1.654 10.222-.553 2.981-1.657 6.655-3.144 10.419-1.737 3.647-3.254 6.628-4.711 9.295-2.177 3.357-4.298 5.998-6.591 8.258-2.13 2.087-4.191 3.894-6.131 5.374l-.44.3c-2.197 1.3-4.304 2.437-6.395 3.467-2.3 1.007-4.858 1.85-8.158 2.714-2.974.83-5.224 1.35-6.838 1.577-1.09.223-2.441.346-3.861.346zm-10.765-10.082c.31.593.683 1.217 1.064 1.757.94 1.327 2.144 2.08 3.671 2.287l2.404.257c2.651.433 4.754.417 6.571.053 1.507-.22 3.584-.703 6.331-1.47 3.064-.8 5.364-1.557 7.285-2.394 1.854-.917 3.841-1.99 5.788-3.134l.167-.117c1.624-1.247 3.514-2.907 5.481-4.834 2.007-1.977 3.884-4.321 5.731-7.161 1.307-2.4 2.777-5.298 4.394-8.675 1.287-3.274 2.29-6.601 2.827-9.455.83-3.107 1.327-6.181 1.52-9.339.2-3.251.297-6.285.29-9.279-.19-2.897-.637-6.308-1.32-9.969-.7-3.677-1.64-7.375-2.801-10.976-1.157-3.621-2.747-7.328-4.721-11.022-1.987-3.677-4.391-7.302-7.138-10.766-2.687-3.201-6.078-6.818-10.029-10.696-3.871-3.601-8.285-7.648-13.193-12.079-4.638-4.164-7.895-7.455-9.672-9.775-1.77-2.317-3.537-4.918-5.251-7.728-1.607-2.754-2.767-5.908-3.577-9.689-.934-3.264-1.327-6.651-1.13-9.899.19-3.581.88-7.208 2.054-10.756 1.154-3.497 2.617-6.815 4.354-9.862 1.984-3.304 3.964-6.118 5.915-8.412 1.71-2.05 3.607-3.577 5.618-4.524 1.98-.924 4.261-1.607 6.605-1.97 3.251-.27 4.714.05 5.541.303 1.244.3 2.401.804 3.314 1.46l2.541 1.31c1.404.857 2.737 1.09 4.138.797 1.45-.307 2.604-1.074 3.431-2.29.187-.277.38-.527.583-.747-.39-1.17-1.13-2.124-2.207-2.831l-2.204-1.344c-1.81-1.19-3.868-2.064-6.198-2.654-2.794-.994-6.118-1.19-9.855-.637l-.51.053c-3.911.387-7.602.753-9.789 2.664-12.311 10.756-16.575 22.272-17.589 25.546-1.374 4.424-2.27 8.855-2.667 13.166-.187 4.291.31 8.875 1.487 13.489 1.17 4.598 2.771 8.718 4.761 12.242.99 1.644 2.851 3.421 4.654 5.138 1.354 1.294 2.631 2.514 3.637 3.764 2.207 2.764 5.765 6.348 10.872 10.966 4.748 4.464 9.059 8.508 12.929 12.106 3.574 3.511 6.631 6.801 9.142 9.829 1.667 2.04 3.924 7.221 7.562 17.333l.23.647c1.027 3.417 1.82 6.725 2.404 9.975.563 2.931.967 5.738 1.16 8.082.01 2.627-.087 5.338-.283 8.275-.157 2.12-.52 4.131-.874 6.071l-.307 1.724c-2.951 17.267-16.22 28.172-18.537 29.459-1.307.917-2.587 1.7-3.641 2.227-.879.373-15.809 3.017-22.963 3.504zm42.072-184.727-.057.01c.02-.004.04-.007.057-.01zm223.124 2.716c-1.035-.597-2.686-.874-4.962-.874h-3.49v8.388h3.692c1.735 0 3.032-.152 3.899-.506 1.589-.631 2.394-1.832 2.394-3.629 0-1.685-.52-2.824-1.533-3.379m-4.434-3.657c2.886 0 4.988.257 6.335.819 2.393.992 3.601 2.949 3.601 5.891 0 2.053-.757 3.608-2.248 4.578-.819.514-1.93.888-3.372 1.138 1.817.271 3.149 1.013 3.989 2.241.84 1.235 1.256 2.428 1.256 3.608v1.68c0 .561.028 1.124.062 1.742.041.617.097 1.006.202 1.199l.138.298h-3.823c-.021-.082-.036-.159-.063-.243-.014-.068-.041-.159-.055-.249l-.084-.743v-1.832c0-2.671-.742-4.469-2.193-5.322-.86-.493-2.373-.743-4.544-.743h-3.22v9.131h-4.093v-23.195h8.112zm-12.428-1.193c-3.524 3.567-5.3 7.841-5.3 12.878 0 5.057 1.762 9.38 5.273 12.94 3.531 3.574 7.82 5.37 12.872 5.37 5.043 0 9.325-1.796 12.856-5.37 3.533-3.56 5.302-7.882 5.302-12.94 0-5.037-1.769-9.312-5.302-12.878-3.553-3.579-7.826-5.343-12.856-5.343-5.018 0-9.286 1.763-12.845 5.343m27.81 27.83c-4.122 4.142-9.117 6.217-14.966 6.217-5.87 0-10.838-2.075-14.946-6.217-4.087-4.114-6.133-9.124-6.133-15.001 0-5.801 2.06-10.781 6.189-14.896 4.114-4.094 9.062-6.161 14.891-6.161 5.849 0 10.844 2.068 14.966 6.161 4.121 4.101 6.181 9.096 6.181 14.896 0 5.863-2.061 10.873-6.182 15.001"/><path d="m586.827 376.114v-29.354h15.091v3.306h-11.09v9.306h10.567v3.219h-10.567v10.176h11.09v3.349h-15.091z"/><path d="m608.616 376.114v-31.746h3.914v31.746z"/><path d="m621.88 350.195c-1.435 0-2.609-1.087-2.609-2.522s1.175-2.565 2.609-2.565c1.436 0 2.609 1.131 2.609 2.565.001 1.391-1.173 2.522-2.609 2.522zm-1.957 25.919v-21.613h3.914v21.613z"/><path d="m638.363 387.247c-5.566 0-9.089-2.305-9.089-6.479 0-2.522 1.652-4.653 3.609-5.741-1.305-.564-2.131-1.782-2.131-3.218 0-1.521.957-2.957 2.393-3.652-1.957-1.175-3.175-3.132-3.175-5.958 0-4.349 3.262-8.089 9.176-8.089 1.174 0 1.957.131 3.044.392h7.35v3.087h-3.566c1.088.87 1.74 2.306 1.74 4.001 0 4.437-3.001 7.828-9.133 7.828-.87 0-1.522-.087-2.305-.305-.913.436-1.392 1.131-1.392 1.827 0 1.217 1.087 1.565 3.696 1.695l3.957.131c4.653.174 7.263 2.349 7.263 6.262 0 4.566-4.653 8.219-11.437 8.219zm3.044-11.22-4.175-.174c-.391 0-.913 0-1.261-.044-1.696 1.174-2.783 2.609-2.783 4.262 0 2.565 2.436 4.088 5.827 4.088 4.393 0 6.828-2 6.828-4.653 0-2.087-1.392-3.392-4.436-3.479zm-2.435-19.004c-3.262 0-5.132 2.087-5.132 4.827 0 3 1.783 4.739 5.001 4.739 3.088 0 5.001-1.739 5.001-4.739 0-2.957-1.739-4.827-4.87-4.827z"/><path d="m671.024 365.198h-14.134c-.174 5.653 2.218 8.133 6.828 8.133 2.087 0 4.262-.436 6.175-1.305l.565 3.131c-2.175.87-4.784 1.349-7.479 1.349-6.567 0-10.133-3.479-10.133-11.09 0-6.479 3.522-11.307 9.654-11.307 6.088 0 8.653 4.131 8.653 9.089.001.522-.042 1.131-.129 2zm-8.698-8.219c-2.827 0-4.871 2.131-5.306 5.436h10.133c.088-3.305-1.783-5.436-4.827-5.436z"/><path d="m686.332 376.114v-31.746h3.914v31.746z"/><path d="m705.337 376.506c-5.871 0-9.697-3.393-9.697-11.003 0-6.349 4.001-11.394 10.523-11.394 5.523 0 9.741 3.044 9.741 10.828.001 6.524-4.174 11.569-10.567 11.569zm.479-19.135c-3.131 0-6.088 2.392-6.088 7.74 0 5.219 2.131 8.089 6.088 8.089 3.218 0 6.001-2.522 6.001-8.045 0-4.914-2-7.784-6.001-7.784z"/><path d="m744.565 376.114v-13.916c0-3.088-.826-4.871-3.696-4.871-3.566 0-6.132 3.653-6.132 8.437v10.351h-3.914v-21.613h3.783c0 1.305-.087 3.262-.348 4.566h.087c1.262-2.958 3.914-4.958 7.61-4.958 4.958 0 6.523 3.088 6.523 6.914v15.091h-3.913z"/><path d="m767.354 376.114c0-1.522 0-3.088.218-4.306h-.087c-1.044 2.653-3.784 4.697-7.35 4.697s-6.002-2.349-6.002-5.828c0-4.652 4.74-7.436 13.003-7.436v-1.436c0-3.001-1.174-4.653-4.74-4.653-2.044 0-4.522.652-6.262 1.609l-.826-3.175c2.087-.87 4.957-1.522 7.697-1.522 6.262 0 8.045 2.914 8.045 7.133v8.697c0 2.044.044 4.349.087 6.219h-3.783zm-.218-10.133c-7.132 0-9.176 1.957-9.176 4.131 0 1.914 1.305 3.306 3.306 3.306 3.522 0 5.87-3.479 5.87-6.871z"/><path d="m785.141 376.462c-4.436 0-5.783-1.826-5.783-6.479v-12.438h-4.436v-3.044h4.436v-7.002l3.914-1.087v8.089h6.044v3.044h-6.044v11.046c0 3.565.652 4.522 3.087 4.522 1.001 0 1.957-.13 2.74-.348l.392 3.218c-1.262.305-2.958.479-4.35.479z"/><path d="m808.451 376.114c0-1.305.131-3.262.348-4.566h-.087c-1.261 2.957-3.914 4.958-7.61 4.958-4.957 0-6.479-3.088-6.479-6.915v-15.09h3.87v13.916c0 3.087.87 4.87 3.697 4.87 3.565 0 6.175-3.652 6.175-8.437v-10.35h3.87v21.613h-3.784z"/><path d="m830.284 357.979c-4.565-.826-6.74 2.522-6.74 9.438v8.697h-3.914v-21.613h3.783c0 1.348-.13 3.349-.478 5.131h.087c.913-3 3.131-5.957 7.436-5.522z"/><path d="m846.593 376.114c0-1.522 0-3.088.218-4.306h-.087c-1.044 2.653-3.784 4.697-7.35 4.697s-6.002-2.349-6.002-5.828c0-4.652 4.74-7.436 13.003-7.436v-1.436c0-3.001-1.174-4.653-4.74-4.653-2.044 0-4.522.652-6.262 1.609l-.826-3.175c2.087-.87 4.957-1.522 7.697-1.522 6.262 0 8.045 2.914 8.045 7.133v8.697c0 2.044.044 4.349.087 6.219h-3.783zm-.218-10.133c-7.132 0-9.176 1.957-9.176 4.131 0 1.914 1.305 3.306 3.306 3.306 3.522 0 5.87-3.479 5.87-6.871z"/><path d="m857.727 376.114v-31.746h3.914v31.746z"/><path d="m868.121 382.812-1.652-1.479c2.783-3.001 2.87-5.002 1.87-6.263-1.218-1.522-.218-3.87 1.87-3.87 3.218 0 4.653 5.48-2.088 11.612z"/><path d="m904.696 365.198h-14.134c-.174 5.653 2.218 8.133 6.828 8.133 2.087 0 4.262-.436 6.175-1.305l.565 3.131c-2.175.87-4.784 1.349-7.479 1.349-6.567 0-10.133-3.479-10.133-11.09 0-6.479 3.522-11.307 9.654-11.307 6.088 0 8.653 4.131 8.653 9.089.001.522-.042 1.131-.129 2zm-8.698-8.219c-2.827 0-4.871 2.131-5.306 5.436h10.133c.087-3.305-1.783-5.436-4.827-5.436z"/><path d="m910.524 376.114v-31.746h3.914v31.746z"/><path d="m923.788 350.195c-1.435 0-2.609-1.087-2.609-2.522s1.175-2.565 2.609-2.565c1.436 0 2.609 1.131 2.609 2.565.001 1.391-1.173 2.522-2.609 2.522zm-1.957 25.919v-21.613h3.914v21.613z"/><path d="m940.271 387.247c-5.566 0-9.089-2.305-9.089-6.479 0-2.522 1.652-4.653 3.609-5.741-1.305-.564-2.131-1.782-2.131-3.218 0-1.521.957-2.957 2.393-3.652-1.957-1.175-3.175-3.132-3.175-5.958 0-4.349 3.262-8.089 9.176-8.089 1.174 0 1.957.131 3.044.392h7.35v3.087h-3.566c1.088.87 1.74 2.306 1.74 4.001 0 4.437-3.001 7.828-9.133 7.828-.87 0-1.522-.087-2.305-.305-.913.436-1.392 1.131-1.392 1.827 0 1.217 1.087 1.565 3.696 1.695l3.957.131c4.653.174 7.263 2.349 7.263 6.262 0 4.566-4.653 8.219-11.437 8.219zm3.044-11.22-4.175-.174c-.391 0-.913 0-1.261-.044-1.696 1.174-2.783 2.609-2.783 4.262 0 2.565 2.436 4.088 5.827 4.088 4.393 0 6.828-2 6.828-4.653 0-2.087-1.391-3.392-4.436-3.479zm-2.435-19.004c-3.262 0-5.132 2.087-5.132 4.827 0 3 1.783 4.739 5.001 4.739 3.088 0 5.001-1.739 5.001-4.739 0-2.957-1.739-4.827-4.87-4.827z"/><path d="m972.931 365.198h-14.134c-.174 5.653 2.218 8.133 6.828 8.133 2.087 0 4.262-.436 6.175-1.305l.565 3.131c-2.175.87-4.783 1.349-7.479 1.349-6.567 0-10.133-3.479-10.133-11.09 0-6.479 3.522-11.307 9.654-11.307 6.088 0 8.653 4.131 8.653 9.089.001.522-.042 1.131-.129 2zm-8.697-8.219c-2.827 0-4.871 2.131-5.306 5.436h10.133c.087-3.305-1.783-5.436-4.827-5.436z"/><path d="m993.459 376.506c-2.392 0-4.609-.305-6.437-.827l.479-3.826c1.87.739 4.001 1.174 6.176 1.174 3.392 0 6.349-1.392 6.349-5.001 0-6.61-13.264-4.001-13.264-13.351 0-4.827 3.653-8.307 10.263-8.307 1.696 0 3.653.175 5.306.565l-.479 3.522c-1.565-.479-3.348-.782-5.044-.782-4.001 0-5.914 1.783-5.914 4.566 0 6.349 13.438 4.044 13.438 13.264-.001 5.263-4.306 9.003-10.873 9.003z"/><path d="m1017.813 376.506c-5.871 0-9.697-3.393-9.697-11.003 0-6.349 4.001-11.394 10.523-11.394 5.523 0 9.741 3.044 9.741 10.828 0 6.524-4.175 11.569-10.567 11.569zm.478-19.135c-3.131 0-6.088 2.392-6.088 7.74 0 5.219 2.131 8.089 6.088 8.089 3.218 0 6.001-2.522 6.001-8.045 0-4.914-2-7.784-6.001-7.784z"/><path d="m1040.471 376.462c-4.436 0-5.783-1.826-5.783-6.479v-12.438h-4.436v-3.044h4.436v-7.002l3.914-1.087v8.089h6.044v3.044h-6.044v11.046c0 3.565.652 4.522 3.087 4.522 1.001 0 1.957-.13 2.74-.348l.392 3.218c-1.262.305-2.958.479-4.35.479z"/><path d="m1051.214 376.506c-1.479 0-2.696-1.218-2.696-2.696s1.217-2.696 2.696-2.696 2.696 1.218 2.696 2.696-1.217 2.696-2.696 2.696z"/><path d="m1188.43 20.97c-1.41 0-2.851-.15-4.141-.45l.24-4.32c1.141.42 2.79.75 4.26.75 1.71 0 2.939-.72 2.939-2.16 0-3.45-8.069-1.68-8.069-8.459 0-3.81 2.97-6.33 8.04-6.33 1.08 0 2.43.12 3.689.36l-.27 4.05c-1.141-.33-2.4-.54-3.6-.54-1.95 0-2.851.84-2.851 1.98 0 3.15 8.069 1.95 8.069 8.28.003 3.929-3.147 6.839-8.306 6.839z"/><path d="m1209.639 20.909c-5.129 0-8.039-3.09-8.039-7.919 0-5.04 4.109-8.28 8.64-8.28 4.38 0 8.069 2.37 8.069 7.86 0 5.13-4.08 8.339-8.67 8.339zm.301-12.119c-1.801 0-3.391 1.35-3.391 3.959 0 2.46 1.2 4.05 3.33 4.05 1.83 0 3.48-1.17 3.48-3.99.001-2.639-1.41-4.019-3.419-4.019z"/><path d="m1231.149 9v11.609h-4.619v-11.609h-3.811v-3.99h12.21v3.99z"/><path d="m1250.048 20.609v-15.599h10.14v3.63h-5.52v2.28h5.22v3.51h-5.22v2.49h5.52v3.69h-10.14z"/><path d="m1269.398 20.97c-.93 0-1.979-.15-2.85-.33l.149-3.99c.84.33 1.951.51 3.09.51 1.11 0 1.801-.51 1.801-1.29 0-1.89-5.609-.69-5.609-5.85 0-3.18 2.34-5.34 6.898-5.34.781 0 1.83.09 2.67.24l-.119 3.81c-.811-.24-1.83-.39-2.73-.39-1.26 0-1.77.48-1.77 1.2 0 1.71 5.699 1.05 5.699 5.76 0 3.329-2.519 5.67-7.229 5.67z"/><path d="m1292.438 20.609v-15.599h4.62v11.46h4.71v4.14h-9.33z"/><path d="m1314.277 20.909c-5.13 0-8.039-3.09-8.039-7.919 0-5.04 4.11-8.28 8.64-8.28 4.38 0 8.069 2.37 8.069 7.86 0 5.13-4.081 8.339-8.67 8.339zm.3-12.119c-1.8 0-3.39 1.35-3.39 3.959 0 2.46 1.199 4.05 3.329 4.05 1.83 0 3.48-1.17 3.48-3.99.001-2.639-1.409-4.019-3.419-4.019z"/></g><path d="m1354.956 20.609-.96-6.75c-.15-1.08-.301-2.25-.391-3.18h-.029c-.24 1.11-.511 2.28-.811 3.3l-2.01 6.63h-4.74l-1.77-6.09c-.3-1.11-.66-2.55-.9-3.78h-.029c-.09 1.17-.21 2.25-.36 3.42l-.81 6.45h-4.62l2.46-15.6h5.85l2.1 6.93c.24.78.48 1.8.66 2.91h.03c.24-1.11.45-2.01.75-2.91l2.189-6.93h5.88l2.43 15.6z" fill="#f39f4e"/><path d="m1366.057 20.609v-15.599h10.14v3.63h-5.52v2.28h5.22v3.51h-5.22v2.49h5.52v3.69h-10.14z" fill="#f39f4e"/><path d="m1383.427 20.85c-.811 0-1.38-.09-2.04-.21v-3.93c.42.12.93.21 1.41.21.899 0 1.35-.45 1.35-1.62v-10.29h4.62v10.41c0 3.45-1.441 5.43-5.34 5.43z" fill="#f39f4e"/><path d="m1402.595 20.909c-5.129 0-8.039-3.09-8.039-7.919 0-5.04 4.109-8.28 8.64-8.28 4.38 0 8.069 2.37 8.069 7.86 0 5.13-4.08 8.339-8.67 8.339zm.301-12.119c-1.8 0-3.391 1.35-3.391 3.959 0 2.46 1.2 4.05 3.33 4.05 1.83 0 3.48-1.17 3.48-3.99.001-2.639-1.409-4.019-3.419-4.019z" fill="#f39f4e"/><path d="m1425.005 20.609-3.09-5.7h-.149v5.7h-4.62v-15.599c1.38-.09 4.17-.12 6.21-.12 3.96 0 6.42 1.5 6.42 4.74 0 2.22-1.23 3.69-3.21 4.41.24.42.66 1.05 1.08 1.77l2.909 4.8h-5.55zm-2.309-12.179c-.27 0-.63 0-.93.03v3.42c.33.03.72.03 1.08.03 1.199 0 2.01-.75 2.01-1.86 0-.99-.84-1.62-2.16-1.62z" fill="#f39f4e"/><path d="m1119.669 56.729c-2.28 0-4.14-.061-5.7-.15v-15.569c1.44-.029 4.561-.09 6.601-.09 5.01 0 8.43 2.1 8.43 7.56-.001 5.79-4.111 8.249-9.331 8.249zm.511-12.029c-.541 0-1.141.029-1.59.06v7.979c.27.03.84.09 1.5.09 2.309 0 3.989-1.439 3.989-4.169 0-2.58-1.32-3.96-3.899-3.96z" fill="#fff"/><path d="m1134.909 56.609v-15.6h10.14v3.63h-5.52v2.28h5.22v3.51h-5.22v2.49h5.52v3.689h-10.14z" fill="#fff"/><path d="m1161.248 56.609v-15.6h4.621v11.46h4.709v4.14z" fill="#fff"/><path d="m1186.239 56.609-.811-2.37h-5.43l-.811 2.37h-4.619l5.609-15.6h5.55l5.61 15.6zm-2.881-8.58c-.209-.63-.479-1.439-.66-2.13h-.029c-.15.66-.359 1.38-.57 2.011l-1.08 3.029h3.36z" fill="#fff"/><path d="m1199.258 56.97c-.93 0-1.979-.15-2.85-.33l.15-3.99c.84.33 1.949.51 3.09.51 1.109 0 1.799-.51 1.799-1.29 0-1.89-5.609-.689-5.609-5.85 0-3.18 2.34-5.34 6.9-5.34.779 0 1.83.09 2.67.24l-.121 3.81c-.809-.239-1.829-.39-2.729-.39-1.261 0-1.771.48-1.771 1.2 0 1.71 5.7 1.05 5.7 5.76.002 3.33-2.519 5.67-7.229 5.67z" fill="#fff"/><path d="m1230.158 56.609-3.09-5.7h-.15v5.7h-4.62v-15.6c1.38-.09 4.17-.12 6.21-.12 3.96 0 6.42 1.5 6.42 4.74 0 2.22-1.23 3.689-3.21 4.41.239.42.659 1.05 1.079 1.77l2.91 4.8zm-2.31-12.179c-.27 0-.63 0-.93.03v3.42c.33.03.72.03 1.08.03 1.199 0 2.01-.75 2.01-1.86 0-.99-.84-1.62-2.16-1.62z" fill="#f39f4e"/><path d="m1251.308 56.609-.81-2.37h-5.43l-.811 2.37h-4.619l5.609-15.6h5.549l5.61 15.6zm-2.88-8.58c-.21-.63-.48-1.439-.66-2.13h-.029c-.15.66-.36 1.38-.57 2.011l-1.08 3.029h3.359z" fill="#f39f4e"/><path d="m1262.319 39.96-1.471-2.64 5.85-3.27 1.771 3.149zm-.541 16.649v-15.6h4.621v15.6z" fill="#f39f4e"/><path d="m1280.257 56.85c-5.339 0-7.919-3.061-7.919-7.68 0-4.35 2.699-8.46 8.76-8.46.81 0 2.039.12 2.999.39l-.42 3.99c-.87-.27-1.829-.42-2.76-.42-2.159 0-3.63 1.53-3.63 4.109 0 2.641 1.561 3.96 3.811 3.96 1.02 0 1.949-.18 2.67-.54l.389 4.08c-1.29.39-2.58.571-3.9.571z" fill="#f39f4e"/><path d="m1290.278 56.609v-15.6h10.14v3.63h-5.52v2.28h5.22v3.51h-5.22v2.49h5.52v3.689h-10.14z" fill="#f39f4e"/><path d="m1309.627 56.97c-.93 0-1.979-.15-2.85-.33l.15-3.99c.84.33 1.949.51 3.09.51 1.109 0 1.8-.51 1.8-1.29 0-1.89-5.61-.689-5.61-5.85 0-3.18 2.34-5.34 6.9-5.34.779 0 1.829.09 2.67.24l-.12 3.81c-.811-.239-1.83-.39-2.73-.39-1.26 0-1.77.48-1.77 1.2 0 1.71 5.699 1.05 5.699 5.76.001 3.33-2.519 5.67-7.229 5.67z" fill="#f39f4e"/><path d="m1349.256 56.609-.96-6.75c-.15-1.08-.301-2.25-.391-3.18h-.029c-.24 1.11-.511 2.28-.811 3.3l-2.01 6.63h-4.74l-1.77-6.09c-.3-1.109-.66-2.55-.9-3.779h-.029c-.09 1.17-.21 2.249-.36 3.419l-.81 6.45h-4.62l2.46-15.6h5.85l2.1 6.93c.24.78.48 1.8.66 2.91h.03c.24-1.11.45-2.01.75-2.91l2.189-6.93h5.88l2.431 15.6z" fill="#fff"/><path d="m1360.357 56.609v-15.6h10.14v3.63h-5.52v2.28h5.22v3.51h-5.22v2.49h5.52v3.689h-10.14z" fill="#fff"/><path d="m1386.996 56.609-3-4.53-2.85 4.53h-5.52l5.609-7.68-5.49-7.92h5.73l2.939 4.44 2.88-4.44h5.25l-5.25 7.68 5.67 7.92z" fill="#fff"/><path d="m1398.396 56.609v-15.6h4.62v15.6z" fill="#fff"/><path d="m1416.876 56.85c-5.34 0-7.92-3.061-7.92-7.68 0-4.35 2.7-8.46 8.76-8.46.81 0 2.04.12 3 .39l-.42 3.99c-.87-.27-1.83-.42-2.76-.42-2.16 0-3.63 1.53-3.63 4.109 0 2.641 1.56 3.96 3.81 3.96 1.02 0 1.95-.18 2.67-.54l.39 4.08c-1.29.39-2.58.571-3.9.571z" fill="#fff"/><path d="m1436.946 56.609-.81-2.37h-5.431l-.81 2.37h-4.62l5.61-15.6h5.55l5.609 15.6zm-2.88-8.58c-.21-.63-.48-1.439-.66-2.13h-.03c-.149.66-.359 1.38-.569 2.011l-1.08 3.029h3.359z" fill="#fff"/><path d="m1456.985 56.609-3.869-6.63c-.48-.78-.96-1.89-1.29-2.7h-.03c.03.631.061 1.2.061 2.131v7.199h-4.44v-15.6h6.21l3.75 6.39c.51.9.99 1.86 1.439 2.88h.03c-.06-.84-.06-1.89-.06-3.06l-.03-6.21h4.47v15.6z" fill="#fff"/><path d="m1480.295 56.609-.81-2.37h-5.431l-.81 2.37h-4.62l5.61-15.6h5.55l5.609 15.6zm-2.88-8.58c-.21-.63-.48-1.439-.66-2.13h-.03c-.149.66-.359 1.38-.569 2.011l-1.08 3.029h3.359z" fill="#fff"/><path d="m1493.316 56.97c-.93 0-1.979-.15-2.85-.33l.15-3.99c.84.33 1.949.51 3.09.51 1.109 0 1.8-.51 1.8-1.29 0-1.89-5.61-.689-5.61-5.85 0-3.18 2.34-5.34 6.9-5.34.779 0 1.829.09 2.67.24l-.12 3.81c-.811-.239-1.83-.39-2.73-.39-1.26 0-1.77.48-1.77 1.2 0 1.71 5.699 1.05 5.699 5.76 0 3.33-2.519 5.67-7.229 5.67z" fill="#fff"/><path d="m1110.715 92.609v-15.6h10.139v3.63h-5.52v2.28h5.221v3.51h-5.221v2.49h5.52v3.689h-10.139z" fill="#fff"/><path d="m1137.084 92.609-3.87-6.63c-.479-.78-.96-1.89-1.29-2.7h-.029c.029.631.06 1.2.06 2.131v7.199h-4.44v-15.6h6.211l3.75 6.39c.51.9.989 1.86 1.439 2.88h.029c-.06-.84-.06-1.89-.06-3.06l-.03-6.21h4.471v15.6z" fill="#fff"/><path d="m1167.024 92.909c-4.979 0-7.229-2.37-7.229-5.88v-10.019h4.62v8.91c0 2.22.899 3.149 2.879 3.149 1.951 0 2.791-1.109 2.791-3.21v-8.85h4.56v9.54c-.001 3.541-2.311 6.36-7.621 6.36z" fill="#fff"/><path d="m1191.143 92.609-3.869-6.63c-.48-.78-.961-1.89-1.29-2.7h-.03c.03.631.061 1.2.061 2.131v7.199h-4.44v-15.6h6.21l3.75 6.39c.51.9.99 1.86 1.439 2.88h.03c-.06-.84-.06-1.89-.06-3.06l-.03-6.21h4.47v15.6z" fill="#fff"/><path d="m1214.453 92.609-.811-2.37h-5.43l-.811 2.37h-4.619l5.609-15.6h5.55l5.61 15.6zm-2.88-8.58c-.209-.63-.479-1.439-.66-2.13h-.029c-.15.66-.359 1.38-.57 2.011l-1.08 3.029h3.36z" fill="#fff"/><path d="m1240.643 92.669c-1.17 0-3.42-.06-6.18-.06v-15.6c1.77 0 4.739-.09 6.81-.09 4.38 0 6.18 1.38 6.18 3.96 0 1.439-.72 2.729-2.16 3.33v.029c1.53.48 2.34 1.771 2.34 3.42-.001 2.612-1.861 5.011-6.99 5.011zm-.24-12.569c-.391 0-.9 0-1.38.03v3.09c.42.03.78.03.96.03 1.5 0 2.58-.54 2.58-1.68 0-.9-.571-1.47-2.16-1.47zm-.151 5.91c-.33 0-.84 0-1.229.03v3.329c.479.03 1.021.061 1.47.061 1.5 0 2.25-.72 2.25-1.771-.001-1.079-.811-1.649-2.491-1.649z" fill="#30999e"/><path d="m1261.012 92.909c-5.129 0-8.039-3.09-8.039-7.92 0-5.039 4.109-8.279 8.64-8.279 4.38 0 8.069 2.37 8.069 7.859 0 5.13-4.08 8.34-8.67 8.34zm.301-12.119c-1.801 0-3.391 1.35-3.391 3.96 0 2.46 1.2 4.05 3.33 4.05 1.83 0 3.48-1.17 3.48-3.99.001-2.64-1.409-4.02-3.419-4.02z" fill="#30999e"/><path d="m1282.522 81v11.609h-4.619v-11.609h-3.811v-3.99h12.21v3.99z" fill="#30999e"/><path d="m1300.672 92.609-.811-2.37h-5.43l-.81 2.37h-4.62l5.61-15.6h5.55l5.609 15.6zm-2.88-8.58c-.21-.63-.479-1.439-.66-2.13h-.03c-.149.66-.359 1.38-.569 2.011l-1.08 3.029h3.36z" fill="#30999e"/><path d="m1320.712 92.609-3.87-6.63c-.479-.78-.96-1.89-1.29-2.7h-.029c.029.631.06 1.2.06 2.131v7.199h-4.439v-15.6h6.209l3.75 6.39c.51.9.99 1.86 1.44 2.88h.03c-.061-.84-.061-1.89-.061-3.06l-.03-6.21h4.47v15.6z" fill="#30999e"/><path d="m1344.022 92.609-.81-2.37h-5.431l-.81 2.37h-4.62l5.61-15.6h5.55l5.609 15.6zm-2.88-8.58c-.21-.63-.48-1.439-.66-2.13h-.03c-.149.66-.359 1.38-.569 2.011l-1.08 3.029h3.359z" fill="#30999e"/><path d="m1373.601 92.609-3.869-6.63c-.48-.78-.96-1.89-1.29-2.7h-.03c.03.631.061 1.2.061 2.131v7.199h-4.44v-15.6h6.21l3.75 6.39c.51.9.989 1.86 1.439 2.88h.03c-.06-.84-.06-1.89-.06-3.06l-.03-6.21h4.47v15.6z" fill="#30999e"/><path d="m1396.911 92.609-.81-2.37h-5.431l-.81 2.37h-4.62l5.61-15.6h5.55l5.609 15.6zm-2.88-8.58c-.21-.63-.48-1.439-.66-2.13h-.03c-.149.66-.359 1.38-.569 2.011l-1.08 3.029h3.359z" fill="#30999e"/><path d="m1414.341 81v11.609h-4.62v-11.609h-3.81v-3.99h12.209v3.99z" fill="#30999e"/><path d="m1430.841 92.909c-4.979 0-7.229-2.37-7.229-5.88v-10.019h4.62v8.91c0 2.22.899 3.149 2.88 3.149 1.949 0 2.79-1.109 2.79-3.21v-8.85h4.56v9.54c-.001 3.541-2.311 6.36-7.621 6.36z" fill="#30999e"/><path d="m1453.25 92.609-3.09-5.7h-.149v5.7h-4.62v-15.6c1.38-.09 4.17-.12 6.21-.12 3.96 0 6.42 1.5 6.42 4.74 0 2.22-1.23 3.689-3.21 4.41.24.42.66 1.05 1.08 1.77l2.909 4.8zm-2.309-12.179c-.27 0-.63 0-.93.03v3.42c.33.03.72.03 1.08.03 1.199 0 2.01-.75 2.01-1.86 0-.99-.84-1.62-2.16-1.62z" fill="#30999e"/><path d="m1474.401 92.609-.81-2.37h-5.431l-.81 2.37h-4.62l5.61-15.6h5.55l5.609 15.6zm-2.88-8.58c-.21-.63-.48-1.439-.66-2.13h-.03c-.149.66-.359 1.38-.569 2.011l-1.08 3.029h3.359z" fill="#30999e"/><path d="m1484.87 92.609v-15.6h4.62v11.46h4.71v4.14z" fill="#30999e"/><path d="m1498.671 96.509c2.1-2.279 2.279-3.539 1.17-4.8-1.29-1.5-.42-4.26 2.1-4.26 3.24 0 4.8 5.43-1.41 10.71z" fill="#30999e"/><path d="m1171.57 128.609v-15.6h4.62v11.46h4.709v4.14z" fill="#fff"/><path d="m1186.51 128.609v-15.6h4.619v15.6z" fill="#fff"/><path d="m1205.168 128.939c-4.619 0-8.159-2.58-8.159-7.8 0-4.68 3.271-8.43 8.88-8.43 1.74 0 3.539.271 5.31.81l-.93 3.931c-1.32-.54-2.7-.841-4.17-.841-2.521 0-4.14 1.591-4.14 4.2 0 2.55 1.41 3.99 3.479 3.99.51 0 1.021-.09 1.44-.181v-4.47h4.619v7.5c-1.978.811-4.079 1.291-6.329 1.291z" fill="#fff"/><path d="m1218.399 128.609v-15.6h10.14v3.63h-5.52v2.28h5.22v3.51h-5.22v2.49h5.52v3.689h-10.14z" fill="#fff"/><path d="m1243.059 128.609-3.09-5.7h-.15v5.7h-4.62v-15.6c1.38-.09 4.17-.12 6.21-.12 3.96 0 6.42 1.5 6.42 4.74 0 2.22-1.23 3.689-3.21 4.41.239.42.659 1.05 1.079 1.77l2.91 4.8zm-2.311-12.179c-.27 0-.63 0-.93.03v3.42c.33.03.72.03 1.08.03 1.199 0 2.01-.75 2.01-1.86 0-.99-.839-1.62-2.16-1.62z" fill="#fff"/><path d="m1264.208 128.609-.81-2.37h-5.43l-.811 2.37h-4.619l5.609-15.6h5.549l5.61 15.6zm-2.88-8.58c-.21-.63-.48-1.439-.66-2.13h-.029c-.15.66-.36 1.38-.57 2.011l-1.08 3.029h3.359z" fill="#fff"/><path d="m1273.539 132.509c2.1-2.279 2.279-3.539 1.17-4.8-1.291-1.5-.42-4.26 2.1-4.26 3.24 0 4.799 5.43-1.41 10.71z" fill="#fff"/><path d="m1301.348 128.85c-5.34 0-7.92-3.061-7.92-7.68 0-4.35 2.7-8.46 8.76-8.46.811 0 2.04.12 3 .39l-.42 3.99c-.869-.27-1.83-.42-2.76-.42-2.16 0-3.63 1.53-3.63 4.109 0 2.641 1.56 3.96 3.81 3.96 1.021 0 1.95-.18 2.67-.54l.391 4.08c-1.291.39-2.581.571-3.901.571z" fill="#f39f4e"/><path d="m1319.228 128.609-3.09-5.7h-.15v5.7h-4.62v-15.6c1.381-.09 4.171-.12 6.21-.12 3.96 0 6.42 1.5 6.42 4.74 0 2.22-1.229 3.689-3.21 4.41.24.42.66 1.05 1.08 1.77l2.91 4.8zm-2.31-12.179c-.271 0-.63 0-.931.03v3.42c.33.03.721.03 1.08.03 1.2 0 2.01-.75 2.01-1.86 0-.99-.839-1.62-2.159-1.62z" fill="#f39f4e"/><path d="m1337.468 128.909c-4.979 0-7.229-2.37-7.229-5.88v-10.02h4.62v8.91c0 2.22.899 3.149 2.88 3.149 1.949 0 2.79-1.109 2.79-3.21v-8.85h4.56v9.54c-.001 3.542-2.311 6.361-7.621 6.361z" fill="#f39f4e"/><path d="m1352.588 128.85c-.811 0-1.38-.09-2.04-.21v-3.93c.42.119.93.21 1.41.21.899 0 1.35-.45 1.35-1.62v-10.29h4.62v10.41c0 3.449-1.44 5.43-5.34 5.43z" fill="#f39f4e"/><path d="m1364.858 128.609v-15.6h4.62v15.6z" fill="#f39f4e"/><path d="m1376.467 128.609v-15.6h10.14v3.63h-5.52v2.28h5.22v3.51h-5.22v2.49h5.52v3.689h-10.14z" fill="#f39f4e"/><path d="m1402.836 128.609-3.869-6.63c-.48-.78-.96-1.89-1.29-2.7h-.03c.03.631.061 1.2.061 2.131v7.199h-4.44v-15.6h6.21l3.75 6.39c.51.9.99 1.86 1.439 2.88h.03c-.06-.84-.06-1.89-.06-3.06l-.03-6.21h4.47v15.6z" fill="#f39f4e"/><path d="m1423.056 117v11.609h-4.62v-11.609h-3.81v-3.99h12.209v3.99z" fill="#f39f4e"/><path d="m1432.416 128.609v-15.6h10.14v3.63h-5.52v2.28h5.22v3.51h-5.22v2.49h5.52v3.689h-10.14z" fill="#f39f4e"/><path d="m1151.018 159.75v4.859h-4.619v-4.77l-5.52-10.83h5.1l1.619 3.42c.42.84.84 1.8 1.23 2.88h.03c.39-1.109.87-2.1 1.319-3l1.65-3.3h4.77z" fill="#fff"/><path d="m1173.608 164.97c-.93 0-1.979-.15-2.85-.33l.15-3.99c.84.33 1.949.51 3.09.51 1.109 0 1.799-.51 1.799-1.29 0-1.89-5.609-.689-5.609-5.85 0-3.18 2.34-5.34 6.9-5.34.779 0 1.83.09 2.67.24l-.121 3.81c-.809-.239-1.829-.39-2.729-.39-1.261 0-1.771.48-1.771 1.2 0 1.71 5.7 1.05 5.7 5.76.001 3.33-2.519 5.67-7.229 5.67z" fill="#30999e"/><path d="m1187.108 164.609v-15.6h4.621v15.6z" fill="#30999e"/><path d="m1208.287 164.609-3.87-6.63c-.479-.78-.96-1.89-1.29-2.7h-.029c.029.631.06 1.2.06 2.131v7.199h-4.44v-15.6h6.211l3.75 6.39c.51.9.989 1.86 1.439 2.88h.029c-.06-.84-.06-1.89-.06-3.06l-.03-6.21h4.471v15.6z" fill="#30999e"/><path d="m1237.957 164.85c-5.34 0-7.92-3.061-7.92-7.68 0-4.35 2.699-8.46 8.76-8.46.811 0 2.04.12 3 .39l-.42 3.99c-.87-.27-1.83-.42-2.76-.42-2.16 0-3.631 1.53-3.631 4.109 0 2.641 1.561 3.96 3.811 3.96 1.02 0 1.949-.18 2.67-.54l.39 4.08c-1.29.39-2.579.571-3.9.571z" fill="#30999e"/><path d="m1254.877 164.909c-5.131 0-8.04-3.09-8.04-7.92 0-5.039 4.11-8.279 8.64-8.279 4.38 0 8.069 2.37 8.069 7.859 0 5.13-4.079 8.34-8.669 8.34zm.299-12.119c-1.799 0-3.389 1.35-3.389 3.96 0 2.46 1.199 4.05 3.329 4.05 1.83 0 3.479-1.17 3.479-3.99.001-2.64-1.408-4.02-3.419-4.02z" fill="#30999e"/><path d="m1278.996 164.609-3.87-6.63c-.479-.78-.96-1.89-1.29-2.7h-.029c.029.631.06 1.2.06 2.131v7.199h-4.44v-15.6h6.211l3.75 6.39c.51.9.989 1.86 1.439 2.88h.029c-.06-.84-.06-1.89-.06-3.06l-.03-6.21h4.471v15.6z" fill="#30999e"/><path d="m1294.807 164.97c-.93 0-1.98-.15-2.85-.33l.149-3.99c.84.33 1.95.51 3.09.51 1.11 0 1.8-.51 1.8-1.29 0-1.89-5.609-.689-5.609-5.85 0-3.18 2.34-5.34 6.899-5.34.78 0 1.83.09 2.67.24l-.12 3.81c-.81-.239-1.83-.39-2.729-.39-1.261 0-1.771.48-1.771 1.2 0 1.71 5.7 1.05 5.7 5.76 0 3.33-2.52 5.67-7.229 5.67z" fill="#30999e"/><path d="m1308.307 164.609v-15.6h10.14v3.63h-5.521v2.28h5.22v3.51h-5.22v2.49h5.521v3.689h-10.14z" fill="#30999e"/><path d="m1332.965 164.609-3.09-5.7h-.149v5.7h-4.62v-15.6c1.38-.09 4.17-.12 6.21-.12 3.96 0 6.42 1.5 6.42 4.74 0 2.22-1.23 3.689-3.21 4.41.24.42.66 1.05 1.08 1.77l2.909 4.8zm-2.309-12.179c-.27 0-.63 0-.93.03v3.42c.33.03.72.03 1.08.03 1.199 0 2.01-.75 2.01-1.86 0-.99-.84-1.62-2.16-1.62z" fill="#30999e"/><path d="m1353.245 164.609h-5.52l-5.7-15.6h5.04l2.25 6.27c.42 1.141.84 2.641 1.229 4.29h.03c.39-1.56.84-3.149 1.26-4.319l2.16-6.27h4.77z" fill="#30999e"/><path d="m1372.746 164.609-.81-2.37h-5.431l-.81 2.37h-4.62l5.61-15.6h5.55l5.609 15.6zm-2.88-8.58c-.21-.63-.48-1.439-.66-2.13h-.03c-.149.66-.359 1.38-.569 2.011l-1.08 3.029h3.359z" fill="#30999e"/><path d="m1388.916 164.729c-2.28 0-4.14-.061-5.7-.15v-15.569c1.44-.029 4.56-.09 6.6-.09 5.01 0 8.43 2.1 8.43 7.56-.001 5.79-4.11 8.249-9.33 8.249zm.51-12.029c-.54 0-1.14.029-1.59.06v7.979c.27.03.84.09 1.5.09 2.31 0 3.989-1.439 3.989-4.169 0-2.58-1.319-3.96-3.899-3.96z" fill="#30999e"/><path d="m1411.056 164.909c-5.129 0-8.039-3.09-8.039-7.92 0-5.039 4.109-8.279 8.64-8.279 4.38 0 8.069 2.37 8.069 7.859 0 5.13-4.08 8.34-8.67 8.34zm.301-12.119c-1.8 0-3.391 1.35-3.391 3.96 0 2.46 1.2 4.05 3.33 4.05 1.83 0 3.48-1.17 3.48-3.99.001-2.64-1.41-4.02-3.419-4.02z" fill="#30999e"/><path d="m1433.465 164.609-3.09-5.7h-.149v5.7h-4.62v-15.6c1.38-.09 4.17-.12 6.21-.12 3.96 0 6.42 1.5 6.42 4.74 0 2.22-1.23 3.689-3.21 4.41.24.42.66 1.05 1.08 1.77l2.909 4.8zm-2.309-12.179c-.27 0-.63 0-.93.03v3.42c.33.03.72.03 1.08.03 1.199 0 2.01-.75 2.01-1.86 0-.99-.84-1.62-2.16-1.62z" fill="#30999e"/><path d="m1444.566 164.609v-15.6h10.14v3.63h-5.52v2.28h5.22v3.51h-5.22v2.49h5.52v3.689h-10.14z" fill="#30999e"/><path d="m1463.915 164.97c-.93 0-1.979-.15-2.85-.33l.15-3.99c.84.33 1.949.51 3.09.51 1.109 0 1.8-.51 1.8-1.29 0-1.89-5.61-.689-5.61-5.85 0-3.18 2.34-5.34 6.9-5.34.779 0 1.829.09 2.67.24l-.12 3.81c-.811-.239-1.83-.39-2.73-.39-1.26 0-1.77.48-1.77 1.2 0 1.71 5.699 1.05 5.699 5.76.001 3.33-2.519 5.67-7.229 5.67z" fill="#30999e"/><path d="m1482.275 162.18c0 1.529-1.289 2.819-2.85 2.819-1.529 0-2.819-1.29-2.819-2.819 0-1.561 1.29-2.85 2.819-2.85 1.561 0 2.85 1.289 2.85 2.85z" fill="#30999e"/></svg>