<svg viewBox="0 0 488.332 319.555" xmlns="http://www.w3.org/2000/svg"><path d="m28.812 20.618h.336l1.075-.067v1.141l-1.075 1.276-1.411.873-1.41.269-1.343.403h-1.411-1.41l-1.411.134-1.41.202h-1.612-1.679l-1.477.671-.874.74-.47 1.142v1.276l-.201 1.343-.336 1.343.067 1.343-.067 1.41-.201 1.343-.336 1.343-.067 1.411 1.477-.403 1.477-.067 1.41-.336 1.411-.403 1.41-.537 1.411-.336 1.41-.537 1.477-.068 1.411-.336 1.545-.201-.067 1.477-1.276.873-1.075 1.075-1.276.806-1.209.806-1.276.471-1.342.402-1.276.202h-1.41-1.343l-1.41.134-1.545.067-.336 1.545-.134 1.477-.201 1.477.067 1.478-.202 1.477-.067 1.477-.067 1.478-.201 1.477.134 1.477-.067 1.477-.134 1.343 1.41.134 1.477-.336 1.478.134 1.477-.403h1.477l1.478-.402 1.41-.269 1.477-.202 1.545.067 1.276-.201 1.276-.47 1.343.067 1.142.47-.672 1.276-1.343.672-1.478.336-1.343.403-1.41.402-1.343.336-1.343.605-1.41.336-1.41.336-1.343.336-1.41.269-1.343.47-1.41.268-1.41.47-1.411.269-1.343.47h-1.48l-1.343.403-1.612.269-1.612.201-1.612-.131.067-1.545-.067-1.477.537-1.41.202-1.477.134-1.343.134-1.343.403-1.343.134-1.343v-1.343-1.343l.269-1.343.201-1.343.269-1.343.067-1.477.268-1.411.067-1.41.202-1.477.201-1.411.134-1.477.202-1.41.201-1.411.134-1.477.605-1.343.136-1.482.403-1.343.403-1.411.672-1.276.605-1.343.47-1.276-.739-.806 1.075-1.343 1.411-.403 1.343-.605 1.477-.067h1.478 1.477l1.41-.336 1.411.067 1.477-.067 1.41.134 1.411-.067 1.41-.067 1.41.067 1.411.202 1.477.202z" fill="#fff"/><path d="m57.087 54.131c.269.738-1.208 1.411-1.679 1.679-.739.336-1.478.94-2.284 1.208-.873.202-1.814.134-2.619.403-.806.269-1.545.605-2.351.873-.806.202-1.612.403-2.418.537-.739.202-1.545.202-2.418.336-.738.134-1.545.403-2.351.471-.873 0-1.679-.134-2.485-.202-.806-.067-1.612-.201-2.35-.47-.672-.269-1.276-.605-1.814-1.075-.537-.403-1.007-1.007-1.343-1.545-.403-.605-.671-1.276-.873-1.948-.202-.671-.403-1.343-.47-2.081-.067-.739-.067-1.478-.067-2.284.067-.739.202-1.478.269-2.216.134-.739.268-1.477.403-2.284.134-.738.47-1.411.605-2.149.201-.738.201-1.545.403-2.284.201-.738.537-1.41.739-2.149.134-.738.201-1.545.403-2.283.201-.806.268-1.545.47-2.351.202-.739.403-1.545.605-2.284.201-.738.403-1.545.605-2.283.201-.739.336-1.545.537-2.284.201-.806.47-1.545.671-2.284.269-.739.605-1.41.806-2.216.202-.738.202-1.545.47-2.216.268-.739.739-1.41 1.142-2.082.403-.605.806-1.276 1.41-1.813.537-.471 1.209-.873 1.948-1.209.806-.336 1.612-.538 2.35-.47.739.067 1.276.47 1.679 1.477.269.604.672 1.208.739 1.813.067.672 0 1.343 0 2.015s-.067 1.343-.134 2.015c-.067.537.202.738.134 1.276 0 .605-.336 1.075-.47 1.611-.269.941-.672 1.881-.941 2.821-.201.739-.201 1.545-.403 2.284-.201.806-.672 1.477-.873 2.216-.269.806-.269 1.612-.47 2.35-.269.739-.471 1.478-.672 2.284-.202.739-.336 1.478-.47 2.284-.202.739-.537 1.477-.672 2.284-.134.671-.134 1.545-.268 2.418-.134.739-.538 1.545-.672 2.351-.067.806.134 1.612.134 2.418.067.873.067 1.611.403 2.35.268.739.671 1.477 1.41 1.948.806.537 1.746.671 2.686.806.94.067 1.947.067 2.888.067.738 0 1.477-.202 2.216-.269.806-.067 1.545 0 2.283-.067.739-.067 1.545-.067 2.284-.134h.134.067c-.134.068-.269.068-.403.068.473-.067.943.001 1.077.269zm-2.149-.134h.202c-.068 0-.135 0-.202 0z" fill="#fff"/><path d="m106.725 42.579c-.067.806-.134 1.612-.134 2.418-.067.806.134 1.612.067 2.418 0 .806-.067 1.611-.134 2.418-.067.806-.269 1.545-.336 2.351s0 1.611-.067 2.418c-.067.941 0 2.351-.604 3.156-.403.403-1.075.739-1.679.94-.605.269-1.209.538-1.814.672-.47.134-1.209.067-1.88.269-.739.134-1.276.268-1.746 0-.605-.336-.672-1.477-.605-2.015.134-.94.336-1.813.336-2.754 0-.873.134-1.813.067-2.686 0-.94-.403-1.814-.537-2.754-.067-.739 0-1.478-.067-2.284-.067-.739-.201-1.477-.336-2.216-.067-.738 0-1.545-.067-2.283-.067-.739-.47-1.478-.47-2.284-.067-.739.067-1.478 0-2.284 0-.739-.134-1.478-.202-2.284 0-.739.067-1.477.067-2.284 0-.738 0-1.343.067-2.082-.537.672-.873 1.276-1.41 1.947-.537.672-1.075 1.276-1.545 2.015-.471.672-1.075 1.343-1.545 2.082s-.738 1.545-1.208 2.284c-.403.671-.605 1.477-.739 2.284-.134.806-.336 1.611-.336 2.418 0 .738-.202 1.209-.672 1.612-.403.403-1.075.537-1.679.806-.47.202-1.209.806-1.947.941-.739.134-1.612-.067-2.015-.806-.336-.47-.403-1.141-.604-1.746-.202-.538-.269-1.209-.538-1.746-.336-.739-.738-1.477-1.141-2.284-.336-.738-.605-1.545-.941-2.284-.403-.738-.806-1.545-1.208-2.283-.403-.739-1.008-1.478-1.411-2.149.067.94.269 1.947.336 2.955.067.739.134 1.545.134 2.35.067.739-.201 1.545-.134 2.284 0 .806.201 1.545.134 2.351 0 .738-.201 1.545-.201 2.284-.067.806-.067 1.545-.134 2.351-.067.738-.134 1.545-.268 2.283-.134.806-.403 1.612-.672 2.418-.269.739-.739 1.478-1.142 2.149-.47.739-.873 1.478-1.477 2.082-.605.47-1.343 1.007-2.149 1.343-1.075.471-2.284.537-3.493.471-.806 0-2.082.067-2.888-.269-.403-.134-.202-1.209 0-2.351.201-1.075.336-2.082.403-2.418.067-.806.134-1.612.134-2.418.067-.806.269-1.612.269-2.418s-.067-1.612-.067-2.418c-.067-.806.067-1.612.067-2.418-.067-.806-.269-1.612-.336-2.418 0-.806.201-1.612.201-2.418s-.336-1.612-.336-2.418c-.067-.738.067-1.545.067-2.351s.134-1.611.134-2.35c0-.806-.336-1.612-.268-2.418 0-.806.403-1.545.47-2.35 0-.806-.202-1.612-.067-2.418.134-.806.269-1.679.537-2.418.269-.806.873-1.411 1.276-2.082.47-.672.873-1.41 1.545-1.881.672-.47 1.477-.672 2.284-.94.671-.268 1.41-.537 2.149-.403.671.067.94.605 1.612.873.873.403 1.545 1.075 2.283 1.679.672.672 1.411 1.276 2.015 2.015.47.672.873 1.343 1.276 2.015.471.671.672 1.477 1.075 2.216.403.672.941 1.276 1.343 2.015.403.739.738 1.747 1.209 2.62.403.94.94 1.679 1.612 2.216.537-.538.873-1.075 1.343-1.679.403-.605 1.007-1.142 1.411-1.746.47-.672.671-1.411 1.075-2.015.403-.605.806-1.276 1.208-1.881.47-.671.941-1.209 1.343-1.88.47-.537 1.075-.94 1.545-1.478.403-.537.672-1.208 1.142-1.746.47-.537.94-1.008 1.41-1.545.47-.605.873-1.343 1.41-1.881.538-.537 1.276-.806 2.015-1.208.47-.336 1.075-.806 1.679-1.075.671-.269 1.343-.269 1.947-.134.537.134.806.403 1.007 1.343.067.806.47 1.545.537 2.284.134.806-.067 1.612.067 2.418.067.739.47 1.478.537 2.284s.134 1.545.134 2.351c.067.806-.067 1.545-.067 2.351v1.007c-.067.269-.067.538-.067.873 0 .671 0 1.477.202 1.947-.067-.202-.067-.47-.067-.738.067.201.067.268.067.336 0 .269 0 .537.067.806 0 .806.134 1.612.134 2.418s0 1.612 0 2.418.134 1.611.067 2.418c.002.805-.066 1.611-.066 2.416z" fill="#efd23b"/><path d="m138.695 57.49.269 1.41-.806 1.075-1.142.672-1.208.47-1.343.201-1.276-.402-.538-1.411-.738-1.276-.269-1.41-.336-1.477-.202-1.411-.47-1.41-.268-1.41-.672-1.478-.403-1.477-.605-1.41-.336-1.545-.403-1.545-1.075-1.141-1.477-.067-1.477.336-1.411.336-.47 1.276-.134 1.343-.403 1.343-.403 1.343-.269 1.343-.403 1.343-.201 1.41-.672 1.209-.403 1.343-.537 1.276-.537 1.276-.672 1.209-1.007 1.008-.672 1.208-1.142.806-1.142.873-1.276.537-1.209.739-1.477.201-1.075-.806-.202-1.41.202-1.411.47-1.343.268-1.411.336-1.343.268-1.343.269-1.343.537-1.276.134-1.343.605-1.276.134-1.41.537-1.209.336-1.343.269-1.343-.94-.537.671-1.075 1.007-1.142.605-1.477.202-1.612.605-1.343.47-1.41.134-1.545.47-1.41.47-1.41.47-1.41.403-1.411.403-1.276.201-1.343.672-1.209.47-1.276.605-1.208.94-.941 1.142-.806 1.142-.605 1.209-.671 1.545.067.873 1.209.672 1.343.403 1.477.47 1.343.537 1.411.336 1.41.47 1.411.605 1.41.47 1.343.403 1.41.672 1.141.336 1.276.47 1.209.269 1.276 1.209.94 1.477.134 1.612-.202.873.806-1.142.806-1.208.806-1.142.605.134.403-.336-.403.672 1.343.47 1.41.269 1.478.537 1.343.605 1.343.134 1.478.47 1.41.47 1.343.269 1.477.672 1.343zm-12.291-17.53-.403-1.209-.403-1.276-.336-1.276-.738-1.142-.336-1.208-.067 1.276-.336 1.343-.47 1.276-.134 1.41-.134 1.209-.067.201 1.746-.201z" fill="#efd23b"/><path d="m212.163 57.49c-.537.202-1.007.403-1.612.47-.537.134-1.075.268-1.679.403-.672.134-1.343.134-2.015.202-.672.134-1.343.202-2.015.268-.672.067-1.343.134-2.015.134-.739.067-1.343.269-2.082.269-.605.067-1.209.067-1.814.134-.672 0-1.276.202-1.88.269-.605 0-1.276.067-1.881.134-.605 0-1.276-.067-1.881 0-.604 0-1.276-.067-1.88 0-.605 0-1.209.068-1.88.068-.605.067-1.209.268-1.814.268-.672.067-1.276 0-1.881.067-.671 0-1.276-.134-1.88-.134-.672.067-1.343.134-2.015.134-.672.067-1.343-.067-2.015-.067-.671-.067-1.343-.067-2.015-.134-.806-.134-.739-.806-.47-1.679.336-.738.94-1.477 1.142-1.88.268-.605.336-1.343.605-1.947.268-.605.605-1.209.873-1.814.336-.605.605-1.209.94-1.814.269-.605.672-1.075 1.008-1.612.268-.605.537-1.142.873-1.679.268-.604.47-1.208.672-1.746.201-.671.537-1.276.806-1.88.269-.605.605-1.209.873-1.88.268-.605.403-1.276.671-1.881.269-.672.605-1.209.873-1.881.268-.605.47-1.276.671-1.88.269-.672.47-1.276.672-1.948.202-.671.336-1.276.537-1.947.134-.672.336-1.276.47-1.947.134-.672.269-1.343.336-2.015 0-.538.134-1.276.201-1.948.067-.739.134-1.477 0-2.015-.201-.605-1.545-.94-2.015-1.142-.806-.268-1.679-.537-2.485-.738-.605-.134-1.276-.134-1.881-.134-.605-.067-1.209-.202-1.814-.202-.604-.067-1.208 0-1.813.067-.672 0-1.343-.134-1.947-.067-.672 0-1.343.202-2.015.202-.605.067-1.276 0-1.947.067-.672.068-1.477.134-2.284.134-.806 0-1.612 0-2.216-.268-.537-.134-.336-.739-.134-1.477.268-.605.671-1.209.873-1.478.336-.403.605-.94 1.007-1.209.47-.268 1.007-.402 1.545-.604.605-.269 1.276-.537 1.948-.672.671-.067 1.343 0 2.015 0 .738-.067 1.41 0 2.082 0 .672.067 1.343.067 2.015.201.672.068 1.343.068 2.015.202.605.134 1.276.336 1.948.403.605.134 1.276.134 1.947.068.605 0 1.209-.134 1.814-.202.605-.067 1.209-.134 1.813-.134.672-.067 1.276 0 1.881-.067.672-.067 1.41-.269 2.149-.336h2.149c.739 0 1.477.201 2.149.336.739.134 1.477.202 2.149.537.672.268 1.276.739 1.746 1.343.537.134.604.873.738 1.343.202.806.202 1.612.202 2.351-.067.806-.269 1.612-.403 2.351-.067.671-.202 1.276-.336 1.947-.134.604-.201 1.276-.403 1.947-.202.605-.537 1.209-.739 1.814-.201.605-.47 1.209-.671 1.814-.202.671-.269 1.343-.47 1.947-.202.604-.471 1.208-.739 1.813-.202.605-.403 1.209-.605 1.814-.269.605-.672 1.142-.94 1.679-.269.605-.403 1.209-.672 1.814-.268.605-.672 1.075-.94 1.679-.269.537-.336 1.208-.605 1.813-.269.537-.672 1.075-.94 1.679-.202.47-.605 1.075-.941 1.746-.268.605-.403 1.276-.605 1.947-.201.672-.201 1.343-.134 1.947.067.672.201 1.343.806 1.814.47.403 1.075.537 1.679.672.605.202 1.209.336 1.814.403.605 0 1.276 0 1.88-.067.605 0 1.276.067 1.881 0 .671-.067 1.276-.336 1.813-.336.605-.067 1.209-.134 1.881-.202.605-.067 1.209-.067 1.814-.067.604-.067 1.276-.134 1.88-.134.605 0 1.209.268 1.814.268.671.067 1.276 0 1.88.134.605.202 1.142.537 1.679.806.605.336-2.015-1.075 0-.067.808.401-1.475 1.274-1.811 1.409z" fill="#efd23b"/><path d="m271.131 31.968c-.403.47-.873.873-1.209 1.41-.403.471-.94.873-1.343 1.343-.336.47-.672 1.007-1.007 1.545-.403.47-.873.873-1.276 1.343-.403.537-.672 1.075-1.075 1.545-.336.537-.672 1.075-1.075 1.545-.268.336-.739.605-1.007.94-.268.403-.537.806-.806 1.209.067.806.134 1.545.134 2.35.067.605.134 1.209.134 1.814.067.605.134 1.209.202 1.814 0 .605-.067 1.209 0 1.814v1.813s.067 1.209 0 1.814c0 .604-.067 1.208-.067 1.813-.067.672-.202 1.209-.269 1.814-.134.605-.067 1.276-.201 1.814-.067.605-.202 1.209-.336 1.813-.134.605-.537 1.142-.672 1.746-.201.537-.268 1.142-.47 1.746-.201.537-.403 1.142-.605 1.679-.268.538-.604 1.008-.873 1.478-.336.537-.738.94-1.075 1.41-.268.47-.47 1.008-.738 1.545-.336.605-.873 1.075-1.344 1.612-.47.537-.94 1.007-1.477 1.41-.47.336-.873.671-1.343.94-.537.269-.94.672-1.477.806-.537.202-1.142.134-1.679.202-.537.067-1.142.134-1.679.067-.537 0-1.075-.269-1.612-.403-.605-.202-1.208-.336-1.679-.605-.537-.403-1.075-.739-1.41-1.209-.336-.537-.537-1.142-.672-1.746-.134-.605-.067-1.276 0-1.88.067-.605.067-1.209.202-1.814s.336-1.209.537-1.814c.201-.604.403-1.141.672-1.746.201-.537.537-1.075.806-1.612.269-.605.605-1.142.873-1.679.269-.605.672-1.075.941-1.545.268-.537.47-1.142.738-1.679.336-.537.605-1.142.941-1.679.336-.47.738-1.007 1.007-1.477.336-.537.605-1.142.94-1.612.336-.537.806-1.007 1.142-1.477.403-.538.672-1.075 1.007-1.612.269-.402.537-.873.873-1.276.269-.403.537-.873.806-1.276.537-.672.268-1.679.268-2.485 0-.605.202-1.209.202-1.813 0-.605-.269-1.209-.269-1.747-.067-.604 0-1.208-.067-1.746-.269.47-.537.94-.873 1.477-.268.47-.605 1.007-.94 1.477-.403.47-.873.806-1.343 1.209-.403.403-.806.739-1.343 1.075-.537.269-1.007.537-1.545.672-.537.336-1.075.672-1.612.94-.537.202-1.142.336-1.746.537-.537.202-1.142.269-1.679.403-.605.067-1.208.067-1.813.067s-1.209-.067-1.746-.268c-.605-.134-1.142-.336-1.679-.672-.47-.269-.94-.739-1.343-1.142-.403-.47-.739-1.007-.941-1.545-.336-.537-.672-1.075-.873-1.679-.134-.537-.134-1.208-.269-1.813-.201-.538-.403-1.142-.605-1.679-.201-.605-.403-1.142-.537-1.746-.202-.605-.336-1.209-.471-1.746-.134-.605-.403-1.209-.47-1.746-.067-.605.067-1.276 0-1.881s-.134-1.142-.201-1.746c0-.605-.202-1.209-.202-1.814s.202-1.208.269-1.813c0-.605.067-1.209.201-1.814.067-.604.202-1.276.336-1.813.202-.605.538-1.142.806-1.679.268-.605.47-1.209.873-1.679.336-.47.806-.94 1.276-1.343s1.007-.671 1.545-.94c.806-.403 1.679-.671 2.552-.739.806-.134 1.008.269 1.075.873 0 .537-.067 1.142 0 1.612 0 .672 0 1.343.067 1.947 0 .672-.067 1.343 0 1.948.067.671.067 1.343.134 1.947.067.537.202 1.075.336 1.612.067.537.336 1.007.471 1.545.134.47.336.94.47 1.478.134.671.201 1.343.403 1.947.134.604.605 1.142.806 1.746.202.605.403 1.208.672 1.813.202.537.202 1.075.47 1.545.269.471.605.873.94 1.276.336.403.672.873 1.142 1.209.336.201.806.336 1.276.403.202-.268.336-.605.537-.873.336-.672.806-1.276 1.075-2.015.268-.537.47-1.075.672-1.612.201-.537.134-1.141.336-1.679.202-.605.537-1.075.739-1.611.201-.605.268-1.209.47-1.814.201-.605.403-1.209.537-1.814s.268-1.209.336-1.814c0-.403-.067-.94-.067-1.545 0-.537.202-1.075.336-1.545.067-.605.134-1.209.47-1.545.403-.269.403-.605.806-.94.336-.269.672-.537 1.007-.739.806-.336 1.746-.537 2.62-.47.671 0 .873.47.806 1.142 0 .537-.336 1.142-.403 1.545 0 .739.47 1.679.672 2.418.201.873.47 1.679.671 2.553.134.605.134 1.276.202 1.88.134.605.134 1.276.202 1.881.134.605.268 1.276.336 1.881.134.604.336 1.208.403 1.88.067.605.202 1.209.269 1.814.067.671.134 1.343.268 2.015.336-.47.739-.94 1.075-1.41.336-.403.605-.873.941-1.343.336-.403.671-.873 1.007-1.276s.806-.738 1.142-1.208c.403-.47.738-.806 1.141-1.142.403-.402.739-.806 1.209-1.075.47-.201 1.007-.336 1.612-.402.47-.134-1.075.067 0-.134 1.004-.203 1.877.2 1.071 1.274zm-16.454 21.827c-.336.538-.739 1.075-1.007 1.612-.336.47-.537 1.007-.873 1.545-.268.47-.537 1.007-.806 1.477-.336.537-.739.94-1.007 1.477-.269.537-.537 1.075-.806 1.545-.268.538-.336 1.142-.537 1.679-.067.134-.134.269-.202.403 0 .201-.134.537-.403 1.276-.201.537-.605 1.142-.806 1.88-.202.605-.134 1.343-.202 2.015-.067.672-.268 1.343-.134 1.947.134.672.47 1.209 1.008 1.679.336-.47.671-.873 1.007-1.343.336-.537.537-1.075.806-1.611.269-.538.672-1.008.94-1.545.202-.538.336-1.142.537-1.679.202-.605.269-1.209.403-1.746.201-.605.47-1.142.605-1.679.134-.605.403-1.142.537-1.746.134-.537.202-1.141.336-1.746.067-.605.067-1.209.134-1.746.134-.605.201-1.209.268-1.814.067-.604.135-1.275.202-1.88zm-5.709 10.814s0 .067-.067.134c-.269.806-.134.402.067-.134zm.269-22.701c-.202 0-.336.201-.47.268.067 0 .134 0 .134.067.134-.067.134 0 .067.067.067-.066.134-.335.269-.402z" fill="#fff"/><path d="m315.323 54.131c.269.738-1.208 1.411-1.679 1.679-.739.336-1.478.94-2.284 1.208-.873.202-1.814.134-2.619.403-.806.269-1.545.605-2.351.873-.806.202-1.612.403-2.418.537-.739.202-1.545.202-2.418.336-.738.134-1.545.403-2.351.471-.873 0-1.679-.134-2.485-.202-.806-.067-1.612-.201-2.35-.47-.672-.269-1.276-.605-1.814-1.075-.537-.403-1.007-1.007-1.343-1.545-.403-.605-.671-1.276-.873-1.948-.202-.671-.403-1.343-.47-2.081-.067-.739-.067-1.478-.067-2.284.067-.739.202-1.478.269-2.216.134-.739.268-1.477.403-2.284.134-.738.47-1.411.605-2.149.201-.738.201-1.545.403-2.284.201-.738.537-1.41.739-2.149.134-.738.201-1.545.403-2.283.201-.806.268-1.545.47-2.351.202-.739.403-1.545.605-2.284.201-.738.403-1.545.604-2.283.201-.739.336-1.545.537-2.284.201-.806.47-1.545.671-2.284.269-.739.605-1.41.806-2.216.202-.738.202-1.545.47-2.216.268-.739.739-1.41 1.142-2.082.403-.605.806-1.276 1.41-1.813.537-.471 1.209-.873 1.948-1.209.806-.336 1.612-.538 2.35-.47.739.067 1.276.47 1.679 1.477.269.604.672 1.208.739 1.813.067.672 0 1.343 0 2.015s-.067 1.343-.134 2.015c-.067.537.202.738.134 1.276 0 .605-.336 1.075-.47 1.611-.269.941-.672 1.881-.941 2.821-.201.739-.201 1.545-.403 2.284-.201.806-.672 1.477-.873 2.216-.269.806-.269 1.612-.47 2.35-.269.739-.471 1.478-.672 2.284-.202.739-.336 1.478-.47 2.284-.202.739-.537 1.477-.672 2.284-.134.671-.134 1.545-.268 2.418-.134.739-.538 1.545-.672 2.351-.067.806.134 1.612.134 2.418.067.873.067 1.611.403 2.35.268.739.671 1.477 1.41 1.948.806.537 1.746.671 2.686.806.94.067 1.947.067 2.888.067.738 0 1.477-.202 2.216-.269.806-.067 1.545 0 2.283-.067.739-.067 1.545-.067 2.284-.134h.134.067c-.134.068-.269.068-.403.068.474-.067.944.001 1.078.269zm-2.149-.134h.202c-.067 0-.135 0-.202 0z" fill="#fff"/><path d="m347.225 57.49.269 1.41-.806 1.075-1.142.672-1.208.47-1.343.201-1.276-.402-.538-1.411-.738-1.276-.269-1.41-.336-1.477-.202-1.411-.47-1.41-.268-1.41-.672-1.478-.403-1.477-.604-1.41-.336-1.545-.403-1.545-1.075-1.141-1.477-.067-1.477.336-1.411.336-.47 1.276-.134 1.343-.403 1.343-.403 1.343-.269 1.343-.403 1.343-.201 1.41-.672 1.209-.403 1.343-.537 1.276-.537 1.276-.672 1.209-1.007 1.008-.672 1.208-1.142.806-1.142.873-1.276.537-1.209.739-1.477.201-1.075-.806-.202-1.41.202-1.411.47-1.343.268-1.411.336-1.343.268-1.343.269-1.343.537-1.276.134-1.343.605-1.276.134-1.41.537-1.209.336-1.343.269-1.343-.94-.537.671-1.075 1.007-1.142.604-1.477.202-1.612.605-1.343.47-1.41.134-1.545.47-1.41.47-1.41.47-1.41.403-1.411.403-1.276.201-1.343.672-1.209.47-1.276.605-1.208.94-.941 1.142-.806 1.142-.605 1.209-.671 1.545.067.873 1.209.672 1.343.403 1.477.47 1.343.537 1.411.336 1.41.47 1.411.605 1.41.47 1.343.403 1.41.672 1.141.336 1.276.47 1.209.269 1.276 1.209.94 1.477.134 1.612-.202.873.806-1.142.806-1.208.806-1.142.605.134.403-.336-.403.672 1.343.47 1.41.269 1.478.537 1.343.605 1.343.134 1.478.47 1.41.47 1.343.269 1.477.672 1.343zm-12.29-17.53-.403-1.209-.403-1.276-.336-1.276-.738-1.142-.336-1.208-.067 1.276-.336 1.343-.47 1.276-.134 1.41-.134 1.209-.067.201 1.746-.201z" fill="#fff"/><path d="m393.769 23.439c.94 2.149.268 4.836 0 7.052-.336 2.418-1.881 4.433-3.559 6.111-.941 1.008-1.948 1.814-3.09 2.62-.94.604-1.947.47-2.888.94-1.814 1.007-3.627 1.881-5.44 2.888-.672.336-1.41.471-1.746 1.209-.403.806-.268 1.679 0 2.485.605 1.813.672 3.828.47 5.776-.201 2.015.537 3.627-.403 5.574-.873 1.679-1.88 3.157-3.559 4.097-1.612.873-3.627 1.075-5.373 1.142-2.149.134-2.418-1.075-2.284-3.022.067-1.746.403-3.56.537-5.306.134-1.007.336-1.947.47-2.888.134-1.075-.067-2.149.134-3.224.336-1.814 1.007-3.56 1.142-5.44.201-2.351.47-4.634.806-6.985.134-1.075.202-2.149.336-3.156.067-.94-.268-1.814-.201-2.686.201-2.082.672-4.164.873-6.314.134-1.746-.268-3.895.537-5.507.94-1.746 8.597-3.358 8.194-1.075 1.881-1.007 4.298-2.015 6.515-1.881 1.142 0 1.947.336 2.955.873.873.47 1.948.605 2.686 1.276-.067-.067-.134-.134 0 0 .202.202.537.403.739.605l.067.067c-.067 0-.604-.336-.806-.537.336.403 1.343 1.746 1.411 1.948.67 1.007 1.007 2.216 1.477 3.358zm-10.276-1.948c-1.477-1.814-3.358.134-4.433 1.41-.537.672-1.208 1.276-1.477 2.082-.268 1.007-.201 2.149-.268 3.224-.134 2.015.268 4.03-.067 6.045-.134.94-.403 1.814-.403 2.754.067.739.202 1.41.202 2.149 0 .067-.067.201-.067.336 1.679-1.007 3.627-1.679 4.97-3.156.537-.537.806-1.276 1.276-1.881.605-.671 1.141-1.343 1.477-2.216 1.409-3.426 1.208-7.725-1.21-10.747z" fill="#d8b783"/><path d="m426.14 57.49.269 1.41-.806 1.075-1.142.672-1.208.47-1.344.201-1.276-.402-.538-1.411-.738-1.276-.269-1.41-.336-1.477-.202-1.411-.47-1.41-.268-1.41-.672-1.478-.403-1.477-.605-1.41-.336-1.545-.403-1.545-1.075-1.141-1.477-.067-1.477.336-1.411.336-.47 1.276-.134 1.343-.403 1.343-.403 1.343-.269 1.343-.403 1.343-.201 1.41-.67 1.208-.403 1.343-.537 1.276-.537 1.276-.672 1.209-1.007 1.008-.672 1.208-1.142.806-1.142.873-1.276.537-1.209.739-1.477.201-1.075-.806-.202-1.41.202-1.411.47-1.343.268-1.411.336-1.343.268-1.343.269-1.343.538-1.276.134-1.343.605-1.276.134-1.41.537-1.209.336-1.343.269-1.343-.94-.537.671-1.075 1.007-1.142.605-1.477.202-1.612.604-1.343.47-1.41.134-1.545.47-1.41.47-1.41.47-1.41.403-1.411.403-1.276.201-1.343.672-1.209.47-1.276.605-1.208.94-.941 1.142-.806 1.142-.605 1.209-.671 1.545.067.873 1.209.672 1.343.403 1.477.47 1.343.537 1.411.336 1.41.47 1.411.604 1.41.47 1.343.403 1.41.672 1.141.336 1.276.47 1.209.269 1.276 1.209.94 1.477.134 1.612-.202.873.806-1.142.806-1.208.806-1.142.605.134.403-.336-.403.672 1.343.47 1.41.269 1.478.537 1.343.604 1.343.134 1.478.47 1.41.47 1.343.269 1.477.672 1.343zm-12.29-17.53-.403-1.209-.403-1.276-.336-1.276-.738-1.142-.336-1.208-.067 1.276-.336 1.343-.47 1.276-.134 1.41-.134 1.209-.067.201 1.746-.201z" fill="#d8b783"/><path d="m455.692 23.439c.94 2.149.269 4.836 0 7.052-.336 2.418-1.88 4.433-3.559 6.111-.941 1.008-1.948 1.814-3.09 2.62-.94.604-1.947.47-2.888.94-1.814 1.007-3.627 1.881-5.44 2.888-.672.336-1.411.471-1.746 1.209-.403.806-.268 1.679 0 2.485.605 1.813.672 3.828.47 5.776-.201 2.015.537 3.627-.403 5.574-.873 1.679-1.881 3.157-3.559 4.097-1.612.873-3.627 1.075-5.373 1.142-2.149.134-2.418-1.075-2.284-3.022.067-1.746.403-3.56.537-5.306.134-1.007.336-1.947.47-2.888.134-1.075-.067-2.149.134-3.224.336-1.814 1.007-3.56 1.142-5.44.201-2.351.47-4.634.806-6.985.134-1.075.202-2.149.336-3.156.067-.94-.269-1.814-.202-2.686.202-2.082.672-4.164.873-6.314.134-1.746-.268-3.895.537-5.507.941-1.746 8.597-3.358 8.194-1.075 1.88-1.007 4.298-2.015 6.515-1.881 1.142 0 1.947.336 2.955.873.873.47 1.948.605 2.686 1.276-.067-.067-.134-.134 0 0 .202.202.537.403.739.605l.067.067c-.067 0-.604-.336-.806-.537.336.403 1.343 1.746 1.411 1.948.672 1.007 1.008 2.216 1.478 3.358zm-10.276-1.948c-1.477-1.814-3.358.134-4.433 1.41-.537.672-1.208 1.276-1.477 2.082-.268 1.007-.202 2.149-.268 3.224-.134 2.015.268 4.03-.067 6.045-.134.94-.403 1.814-.403 2.754.067.739.201 1.41.201 2.149 0 .067-.067.201-.067.336 1.679-1.007 3.627-1.679 4.97-3.156.537-.537.806-1.276 1.276-1.881.604-.671 1.142-1.343 1.477-2.216 1.41-3.426 1.209-7.725-1.209-10.747z" fill="#d8b783"/><path d="m488.064 57.49.269 1.41-.806 1.075-1.142.672-1.208.47-1.343.201-1.276-.402-.537-1.411-.739-1.276-.269-1.41-.336-1.477-.202-1.411-.47-1.41-.268-1.41-.672-1.478-.403-1.477-.605-1.41-.336-1.545-.403-1.545-1.075-1.141-1.477-.067-1.477.336-1.411.336-.47 1.276-.134 1.343-.403 1.343-.403 1.343-.268 1.343-.403 1.343-.201 1.41-.672 1.209-.403 1.343-.537 1.276-.537 1.276-.672 1.209-1.007 1.008-.672 1.208-1.142.806-1.142.873-1.276.537-1.209.739-1.477.201-1.075-.806-.202-1.41.202-1.411.47-1.343.268-1.411.336-1.343.268-1.343.269-1.343.537-1.276.134-1.343.604-1.276.134-1.41.537-1.209.336-1.343.269-1.343-.94-.537.671-1.075 1.008-1.142.604-1.477.202-1.612.605-1.343.47-1.41.134-1.545.47-1.41.47-1.41.47-1.41.403-1.411.403-1.276.201-1.343.672-1.209.47-1.276.604-1.208.94-.941 1.142-.806 1.142-.605 1.209-.671 1.545.067.873 1.209.672 1.343.403 1.477.47 1.343.537 1.411.336 1.41.47 1.411.605 1.41.47 1.343.403 1.41.672 1.141.336 1.276.47 1.209.269 1.276 1.209.94 1.477.134 1.612-.202.873.806-1.142.806-1.208.806-1.142.605.134.403-.336-.403.672 1.343.47 1.41.268 1.478.538 1.343.604 1.343.134 1.478.47 1.41.47 1.343.269 1.477.672 1.343zm-12.291-17.53-.403-1.209-.403-1.276-.336-1.276-.738-1.142-.336-1.208-.067 1.276-.336 1.343-.47 1.276-.134 1.41-.134 1.209-.067.201 1.746-.201z" fill="#d8b783"/><path d="m61.788 87.11c0 .94.067 1.88.067 2.82 0 1.746 0 3.493-.268 5.238-.47 3.895-.941 7.724-1.343 11.619-.067.94.336 1.814.202 2.686-.067.94-.269 1.813-.336 2.686-.134 1.947-.268 3.963-.537 5.91-.201 2.015-.268 3.425-2.418 4.164-1.209.403-2.686.738-3.559-.336-1.209-1.41-1.478-3.492-2.284-5.104-.336-.739-.672-1.343-.806-2.149-.134-.739-.201-1.477-.537-2.149-.806-1.814-1.545-3.627-2.284-5.44-.537-1.612-1.813-3.022-2.149-4.634-.201-.873-.268-1.679-.873-2.418-.403-.471-.94-.873-1.276-1.478-.403-.806-.403-1.746-.873-2.485-.403-.739-1.007-1.41-1.41-2.149-.067 1.746.134 3.492.067 5.238 0 .739-.336 1.477-.47 2.216-.134.672-.067 1.343-.134 2.015-.134 2.149.336 4.298.201 6.447-.201 1.746-.403 3.492-.537 5.306-.067 1.142-.537 2.149-.738 3.291-.202.941-.269 1.947-.672 2.821-.739 1.343-2.754 2.35-4.097 2.754-.605.268-2.082.671-2.619.201-.538-.47-.538-1.477-.605-2.082-.134-1.813-.269-3.559-.336-5.373-.134-2.015-.738-4.298-.134-6.246.336-1.007.268-1.746.134-2.754-.134-1.007 0-2.015.067-3.023.067-1.208-.067-2.485.202-3.694.201-.873.537-1.746.672-2.754.134-1.007.403-2.015.336-3.022-.134-.94-.269-1.813.134-2.753.403-1.075.671-1.881.537-3.09-.134-.94-.067-1.813.268-2.686.537-1.343.739-3.291 2.284-3.828 2.149-.739 3.694-.403 5.306 1.343 1.142 1.141 2.686 2.35 3.492 3.694 2.082 3.425 4.366 6.716 6.112 10.276 0-2.888.336-5.642.672-8.53.134-1.343 0-2.485 0-3.76 0-1.343.537-2.754.738-4.03.336-2.216 1.142-4.366 3.425-5.171.47-.202 3.493-1.142 3.493-.067h.067v.07c-.067 0-.067 0-.067 0 0 .067 0 .134-.067.268.134 0 .201-.067.268-.134.067-.068.134-.134.134-.202 1.612-.134 2.082 1.41 2.216 2.888.067 1.679.134 3.157.47 4.836.201.873-.067 1.881-.135 2.754zm-3.089-10.41s.067 0 .134-.067c-.067 0-.134 0-.134.067z" fill="#fff"/><path d="m88.654 123.712c-.605.134-1.209.403-1.88.336-.672-.134-1.142-.537-1.612-.94-.537-.336-.94-.738-1.343-1.276-.336-.47-.605-1.075-.873-1.612-.202-.605-.605-1.142-.739-1.746-.202-.605-.202-1.276-.269-1.88-.134-.672-.201-1.343-.201-1.881-.336.134-.739.268-1.075.403-.202.403-.269.94-.47 1.343-.403.806-.873 1.612-1.343 2.418-.403.605-1.007 1.142-1.41 1.746s-.873 1.142-1.343 1.679c-.47.47-1.007.94-1.612 1.41-.537.403-1.142.806-1.813 1.075-.672.336-1.343.47-2.015.537-.739.134-1.411.067-2.082-.202-.94.202-1.477-.201-1.88-.806s-.672-1.343-.94-2.082c-.202-.605-.336-1.142-.47-1.746-.202-.537-.471-1.141-.672-1.679-.134-.605-.134-1.209-.202-1.813-.134-.605-.336-1.209-.403-1.814-.067-.672-.336-1.208-.403-1.881-.067-.604-.067-1.208-.134-1.88 0-.605.134-1.209.134-1.88 0-.605-.202-1.209-.202-1.881.067-.605 0-1.208.067-1.881 0-.604.067-1.276.134-1.947.067-.672.201-1.276.268-1.947.067-.672.269-1.276.403-1.948.067-.605.202-1.208.269-1.813s.067-1.209.067-1.881c.067-.605-.067-1.209-.067-1.813.067-.605 0-1.209.067-1.814 0-.605.067-1.208.134-1.813.134-.605.269-1.209.471-1.746.201-.605.403-1.142.738-1.679.269-.537.605-1.007 1.075-1.477.47-.403 1.142-.806 1.746-1.075.605-.269 1.276-.403 1.947-.47.739-.202 1.276 0 1.746.336.47.269.806.739 1.075 1.41.269.537.605 1.075.739 1.679.134.605.201 1.209.268 1.88 0 .605.134 1.209.134 1.814-.067.605-.202 1.276-.269 1.881-.067.604-.134 1.208-.201 1.813-.134.672-.269 1.276-.403 1.814-.134.672-.403 1.343-.537 2.015s-.202 1.343-.269 2.015c-.134.672-.47 1.343-.537 2.015-.067.604.134 1.276.134 1.88-.067.672-.067 1.276-.067 1.947.067.605.134 1.209.202 1.881 0 .605.067 1.276.067 1.881.067.671-.134 1.343-.067 1.947.067.672.134 1.276.201 1.947.067.605.202 1.276.269 1.881.134.672.201 1.276.268 1.881.134.671.269 1.343.403 1.947.336-.605.604-1.209.94-1.814s.806-1.075 1.075-1.679c.336-.604.47-1.276.738-1.947.269-.605.537-1.209.806-1.814.268-.605.739-1.141.94-1.746.269-.672.47-1.276.739-1.881.201-.537.336-1.075.537-1.545.201-.537.47-1.007.672-1.477.336-.739.604-1.612 1.141-2.216.202-.202.605-.336.873-.471.067-.47.201-.94.268-1.343.067-.873.067-1.746.067-2.619 0-.605.067-1.209.067-1.813 0-.605.067-1.209.067-1.814s-.134-1.209-.134-1.814 0-1.209.067-1.814c0-.605-.134-1.276-.067-1.88 0-.605.067-1.209.134-1.814s.268-1.209.336-1.813c.067-.605.202-1.209.336-1.814s.268-1.208.403-1.813c.201-.605.403-1.343.672-2.015.201-.738.47-1.41.873-1.947.336-.537.739-1.007 1.343-1.41.47-.403 1.141-.672 1.746-.873.605-.269 1.209-.671 1.814-.806.672-.134 1.343.067 1.947.134.672.067 1.343.201 1.948.537.604.47.94 1.008 1.276 1.612.269.604.47 1.208.47 1.947 0 .604-.201 1.276-.403 1.947-.134.672-.201 1.41-.403 2.015-.269.672-.739 1.276-.94 1.881-.202.605-.202 1.276-.403 1.881-.201.604-.47 1.208-.604 1.88-.202.605-.202 1.276-.336 1.88-.134.672-.268 1.276-.403 1.881-.067.672-.202 1.276-.336 1.947-.134.605-.403 1.209-.538 1.814-.134.671-.268 1.343-.403 1.947-.134.672-.067 1.343-.201 2.015-.134.671-.269 1.276-.403 1.947-.134.672-.201 1.276-.268 1.947-.134.672-.336 1.276-.403 1.948-.134.671 0 1.343-.067 2.015-.067.671-.336 1.343-.336 1.947 0 .672.067 1.343.067 2.015.067.671.269 1.343.336 2.015.067.605-.134 1.545.134 2.284.202.806.672 1.611 1.276 2.015-.067-.067 1.343-1.075 1.545-1.209.537-.269 1.075-.605 1.746-.739.47-.067 2.216-.268 1.545.739-1.545 2.216.537-.94-.067-.067-.403.537-.672 1.075-1.075 1.545-.47.471-.94.873-1.41 1.343-.47.403-.941.806-1.477 1.208-.471.336-1.075.672-1.612.873-.602.274-1.274.274-1.878.34z" fill="#fff"/><path d="m128.749 87.11c0 .94.067 1.88.067 2.82 0 1.746 0 3.493-.268 5.238-.471 3.895-.941 7.724-1.343 11.619-.067.94.336 1.814.202 2.686-.067.94-.269 1.813-.336 2.686-.134 1.947-.268 3.963-.537 5.91-.201 2.015-.268 3.425-2.418 4.164-1.209.403-2.686.738-3.56-.336-1.208-1.41-1.477-3.492-2.283-5.104-.336-.739-.672-1.343-.806-2.149-.134-.739-.201-1.477-.537-2.149-.806-1.814-1.545-3.627-2.283-5.44-.538-1.612-1.814-3.022-2.149-4.634-.202-.873-.269-1.679-.873-2.418-.403-.471-.94-.873-1.276-1.478-.403-.806-.403-1.746-.873-2.485-.403-.739-1.007-1.41-1.41-2.149-.067 1.746.134 3.492.067 5.238 0 .739-.336 1.477-.471 2.216-.134.672-.067 1.343-.134 2.015-.134 2.149.336 4.298.201 6.447-.201 1.746-.403 3.492-.537 5.306-.067 1.142-.537 2.149-.738 3.291-.202.941-.269 1.947-.672 2.821-.739 1.343-2.754 2.35-4.097 2.754-.605.268-2.082.671-2.62.201-.537-.47-.537-1.477-.604-2.082-.134-1.813-.269-3.559-.336-5.373-.134-2.015-.738-4.298-.134-6.246.336-1.007.269-1.746.134-2.754-.134-1.007 0-2.015.067-3.023.067-1.208-.067-2.485.202-3.694.201-.873.537-1.746.671-2.754.134-1.007.403-2.015.336-3.022-.134-.94-.269-1.813.134-2.753.403-1.075.671-1.881.537-3.09-.134-.94-.067-1.813.268-2.686.537-1.343.739-3.291 2.284-3.828 2.149-.739 3.694-.403 5.306 1.343 1.142 1.141 2.686 2.35 3.493 3.694 2.082 3.425 4.365 6.716 6.111 10.276 0-2.888.336-5.642.672-8.53.134-1.343 0-2.485 0-3.76 0-1.343.537-2.754.739-4.03.336-2.216 1.141-4.366 3.425-5.171.47-.202 3.493-1.142 3.493-.067h.067v.07c-.067 0-.067 0-.067 0 0 .067 0 .134-.067.268.134 0 .201-.067.268-.134.067-.068.134-.134.134-.202 1.612-.134 2.082 1.41 2.216 2.888.067 1.679.134 3.157.47 4.836.201.873-.068 1.881-.135 2.754zm-3.089-10.41s.067 0 .134-.067c-.067 0-.134 0-.134.067z" fill="#fff"/><path d="m155.614 114.511.806.672-.269 1.276-.94 1.007-.806 1.007-1.075.806-.806 1.075-1.209.605-1.209.672-1.142.672-1.141.605-1.276.403-1.343.605-1.41.47-1.343.537-1.411.47-1.477.067-1.477-.134-1.411-.336-1.276-.537-1.142-.806-1.075-.873-.873-1.142-.671-1.276-.336-1.343-.201-1.411-.403-1.41-.201-1.41-.134-1.478.269-1.477-.202-1.478.403-1.41.134-1.41.268-1.478.134-1.41.403-1.41.403-1.411.403-1.411.403-1.41.403-1.343.537-1.411.672-1.276.672-1.276.537-1.208.738-1.142.605-1.208.941-1.007.873-1.008.873-1.007 1.075-.806 1.075-.806 1.142-.671 1.209-.47 1.209-.47 1.276-.202 1.343.202 1.276.067.336 1.008 1.276.604 1.141 1.007.873 1.209.873 1.209.403 1.41.403 1.478.201 1.477v1.477l-.605 1.41-.671 1.276-1.008 1.075-1.141.605-1.276.403-1.276.403-1.276-.471.403-1.41.403-1.411.134-1.545-.269-1.545-.268-1.343-1.075.672-1.142.806-.873 1.075-.806 1.142-.403 1.41-.739 1.209-.403 1.343-.739 1.209-.537 1.276-.806 1.142-.268 1.477-.403 1.477-.605 1.343-.268 1.477-.134 1.477-.202 1.478-.201 1.477v1.477l.134 1.477.336 1.276.537 1.209.806 1.075.873.94 1.276.47 1.276.269 1.343-.068 1.343-.671 1.276-.672 1.209-.873.94-1.142.806-1.209 1.209-.94 1.007-1.142 1.411-.47v.067z" fill="#fff"/><path d="m188.254 121.295.269 1.41-.806 1.075-1.142.672-1.208.47-1.343.201-1.276-.402-.537-1.411-.739-1.276-.269-1.41-.336-1.477-.202-1.411-.47-1.41-.268-1.41-.672-1.478-.403-1.477-.605-1.41-.336-1.545-.403-1.545-1.075-1.141-1.477-.067-1.477.336-1.411.336-.47 1.276-.134 1.343-.403 1.343-.403 1.343-.268 1.343-.403 1.343-.201 1.41-.672 1.209-.403 1.343-.537 1.276-.537 1.276-.672 1.209-1.007 1.008-.672 1.208-1.142.806-1.142.873-1.276.537-1.209.739-1.477.201-1.075-.806-.202-1.41.202-1.411.47-1.343.268-1.411.336-1.343.268-1.343.269-1.343.537-1.276.134-1.343.605-1.276.134-1.41.537-1.209.336-1.343.269-1.343-.94-.537.671-1.075 1.008-1.142.604-1.477.202-1.612.605-1.343.47-1.41.134-1.545.47-1.41.47-1.41.47-1.41.403-1.411.403-1.276.201-1.343.672-1.209.47-1.276.605-1.208.94-.941 1.142-.806 1.142-.605 1.209-.671 1.545.067.873 1.209.672 1.343.403 1.477.47 1.343.537 1.411.336 1.41.47 1.411.605 1.41.47 1.343.403 1.41.672 1.141.336 1.276.47 1.209.269 1.276 1.209.94 1.477.134 1.612-.202.873.806-1.142.806-1.208.806-1.142.605.134.403-.336-.403.672 1.343.47 1.41.268 1.478.538 1.343.604 1.343.134 1.478.47 1.41.47 1.343.269 1.477.672 1.343zm-12.29-17.53-.403-1.209-.403-1.276-.336-1.276-.738-1.142-.336-1.208-.067 1.276-.336 1.343-.47 1.276-.134 1.41-.134 1.209-.067.201 1.746-.201z" fill="#fff"/><path d="m233.791 88.319c.201.941.201 1.814.201 2.754.134 2.082-1.611 2.351-3.29 2.955-1.814.671-2.284-.605-2.485-2.351-.134-1.814.672-3.425-1.007-4.836-1.276-1.075-3.559-2.015-4.701-.336-1.007 1.477-.202 3.627.268 5.171.336 1.142.739 2.283 1.209 3.358.403.739 1.142 1.209 1.545 2.015.873 1.612 2.082 3.559 2.418 5.44.268 1.814 1.612 2.888 2.216 4.634.336.94.738 1.814 1.007 2.821.201.94 0 1.679-.202 2.552-.403 1.948-.47 3.425-1.679 5.104-1.007 1.411-1.947 2.888-3.492 3.627-1.814.873-3.828 1.947-5.843 2.35-.941.134-1.948-.067-2.955 0-1.075.134-1.947.202-2.955-.134-3.358-1.209-6.246-4.366-6.515-7.993-.067-1.007-.739-1.947-.605-2.955.067-.873.336-1.679.672-2.485.604-1.343 2.552-2.485 3.895-2.955 1.545-.47 2.351-.268 1.746 1.276-.537 1.477-1.007 3.156.134 4.499 1.209 1.478 2.417 2.754 4.029 3.762.806.47 1.411.738 2.149.067.605-.47.941-1.141 1.276-1.813.873-1.814.202-3.828-.336-5.575-.269-.94-.672-1.814-1.007-2.686-.336-.806-.269-1.746-.605-2.485-.873-2.082-1.679-4.097-2.485-6.179-.403-.94-.738-1.88-1.075-2.888-.336-1.007-.201-1.947-.403-3.022-.134-.94-.806-1.88-.605-2.888.202-.873.739-1.612.873-2.485.067-.806.067-1.679.604-2.351.471-.537 1.209-.94 1.679-1.41 1.276-1.209 2.955-2.754 4.567-3.425.94-.403 1.813-.873 2.754-1.008.873-.134 1.679.134 2.485.336.94.268 2.015.202 2.821.806.738.47 1.477 1.007 1.947 1.746.672 1.075 1.746 2.754 1.209 4.097.202.873.268 1.007.268.873.067.067.067.067.067.067.269-.269-.067-.806 0-1.008.273.943.004 2.018.206 2.958z" fill="#fff"/><path d="m260.655 123.712c-.605.134-1.209.403-1.881.336-.671-.134-1.141-.537-1.611-.94-.538-.336-.941-.738-1.343-1.276-.336-.47-.605-1.075-.873-1.612-.202-.605-.605-1.142-.739-1.746-.202-.605-.202-1.276-.268-1.88-.134-.672-.202-1.343-.202-1.881-.336.134-.739.268-1.075.403-.202.403-.269.94-.47 1.343-.403.806-.873 1.612-1.343 2.418-.403.605-1.007 1.142-1.41 1.746s-.873 1.142-1.343 1.679c-.47.47-1.007.94-1.612 1.41-.537.403-1.141.806-1.813 1.075-.672.336-1.343.47-2.015.537-.738.134-1.41.067-2.082-.202-.94.202-1.477-.201-1.88-.806s-.672-1.343-.94-2.082c-.202-.605-.336-1.142-.471-1.746-.201-.537-.47-1.141-.671-1.679-.134-.605-.134-1.209-.202-1.813-.134-.605-.336-1.209-.403-1.814-.067-.672-.336-1.208-.403-1.881-.067-.604-.067-1.208-.134-1.88 0-.605.134-1.209.134-1.88 0-.605-.202-1.209-.202-1.881.067-.605 0-1.208.067-1.881 0-.604.067-1.276.134-1.947.067-.672.201-1.276.268-1.947.067-.672.269-1.276.403-1.948.067-.605.202-1.208.269-1.813s.067-1.209.067-1.881c.067-.605-.067-1.209-.067-1.813.067-.605 0-1.209.067-1.814 0-.605.067-1.208.134-1.813.134-.605.268-1.209.47-1.746.201-.605.403-1.142.738-1.679.269-.537.605-1.007 1.075-1.477.47-.403 1.142-.806 1.746-1.075.605-.269 1.276-.403 1.947-.47.739-.202 1.276 0 1.746.336.47.269.806.739 1.075 1.41.269.537.605 1.075.739 1.679.134.605.201 1.209.268 1.88 0 .605.134 1.209.134 1.814-.067.605-.202 1.276-.268 1.881-.067.604-.134 1.208-.202 1.813-.134.672-.269 1.276-.403 1.814-.134.672-.403 1.343-.537 2.015s-.202 1.343-.269 2.015c-.134.672-.47 1.343-.537 2.015-.067.604.134 1.276.134 1.88-.067.672-.067 1.276-.067 1.947.067.605.134 1.209.202 1.881 0 .605.067 1.276.067 1.881.067.671-.134 1.343-.067 1.947.067.672.134 1.276.201 1.947.067.605.202 1.276.269 1.881.134.672.201 1.276.268 1.881.134.671.269 1.343.403 1.947.336-.605.605-1.209.941-1.814s.806-1.075 1.075-1.679c.336-.604.47-1.276.738-1.947.269-.605.537-1.209.806-1.814.268-.605.738-1.141.94-1.746.269-.672.47-1.276.739-1.881.201-.537.336-1.075.537-1.545.201-.537.47-1.007.671-1.477.336-.739.605-1.612 1.142-2.216.202-.202.605-.336.873-.471.067-.47.201-.94.268-1.343.067-.873.067-1.746.067-2.619 0-.605.067-1.209.067-1.813 0-.605.067-1.209.067-1.814s-.134-1.209-.134-1.814 0-1.209.067-1.814c0-.605-.134-1.276-.067-1.88 0-.605.067-1.209.134-1.814s.268-1.209.336-1.813c.067-.605.202-1.209.336-1.814s.268-1.208.403-1.813c.202-.605.403-1.343.672-2.015.201-.738.47-1.41.873-1.947.336-.537.739-1.007 1.343-1.41.471-.403 1.142-.672 1.746-.873.605-.269 1.209-.671 1.814-.806.672-.134 1.343.067 1.947.134.672.067 1.344.201 1.948.537.605.47.94 1.008 1.276 1.612.269.604.47 1.208.47 1.947 0 .604-.201 1.276-.403 1.947-.134.672-.202 1.41-.403 2.015-.269.672-.739 1.276-.94 1.881-.202.605-.202 1.276-.403 1.881-.201.604-.47 1.208-.605 1.88-.201.605-.201 1.276-.336 1.88-.134.672-.268 1.276-.403 1.881-.067.672-.202 1.276-.336 1.947-.134.605-.403 1.209-.537 1.814-.134.671-.269 1.343-.403 1.947-.134.672-.067 1.343-.201 2.015-.134.671-.269 1.276-.403 1.947-.134.672-.201 1.276-.268 1.947-.134.672-.336 1.276-.403 1.948-.134.671 0 1.343-.067 2.015-.067.671-.336 1.343-.336 1.947 0 .672.067 1.343.067 2.015.067.671.269 1.343.336 2.015.067.605-.134 1.545.134 2.284.202.806.672 1.611 1.276 2.015-.067-.067 1.343-1.075 1.545-1.209.537-.269 1.075-.605 1.746-.739.47-.067 2.216-.268 1.545.739-1.545 2.216.537-.94-.067-.067-.403.537-.672 1.075-1.075 1.545-.47.471-.94.873-1.41 1.343-.47.403-.94.806-1.478 1.208-.47.336-1.075.672-1.611.873-.601.274-1.273.274-1.878.34z" fill="#fff"/><path d="m297.661 87.244c.94 2.149.269 4.836 0 7.052-.336 2.418-1.88 4.433-3.559 6.111-.941 1.008-1.948 1.814-3.09 2.62-.94.604-1.947.47-2.888.94-1.814 1.007-3.627 1.881-5.44 2.888-.672.336-1.411.471-1.746 1.209-.403.806-.268 1.679 0 2.485.605 1.813.672 3.828.47 5.776-.201 2.015.537 3.627-.403 5.574-.873 1.679-1.881 3.157-3.559 4.097-1.612.873-3.627 1.075-5.373 1.142-2.149.134-2.418-1.075-2.284-3.022.067-1.746.403-3.56.537-5.306.134-1.007.336-1.947.47-2.888.134-1.075-.067-2.149.134-3.224.336-1.814 1.007-3.56 1.142-5.44.201-2.351.47-4.634.806-6.985.134-1.075.202-2.149.336-3.156.067-.94-.269-1.814-.202-2.686.202-2.082.672-4.164.873-6.314.134-1.746-.268-3.895.537-5.507.941-1.746 8.597-3.358 8.194-1.075 1.88-1.007 4.298-2.015 6.515-1.881 1.142 0 1.947.336 2.955.873.873.47 1.948.605 2.686 1.276-.067-.067-.134-.134 0 0 .202.202.537.403.739.605l.067.067c-.067 0-.605-.336-.806-.537.336.403 1.343 1.746 1.411 1.948.673 1.007 1.008 2.216 1.478 3.358zm-10.275-1.947c-1.477-1.814-3.358.134-4.433 1.41-.537.672-1.208 1.276-1.477 2.082-.268 1.007-.202 2.149-.268 3.224-.134 2.015.268 4.03-.067 6.045-.134.94-.403 1.814-.403 2.754.067.739.201 1.41.201 2.149 0 .067-.067.201-.067.336 1.679-1.007 3.627-1.679 4.97-3.156.537-.537.806-1.276 1.276-1.881.604-.671 1.142-1.343 1.477-2.216 1.41-3.427 1.209-7.725-1.209-10.747z" fill="#fff"/><path d="m328.353 82.207c-.604.403-1.276.806-1.947 1.208-.672.403-1.344.806-2.015 1.142-.672.336-1.343.672-2.082 1.007-.672.269-1.411.537-2.149.806-.739.268-1.478.47-2.216.671-.739.202-.537.403-.537 1.142 0 .537.067 1.075.067 1.679 0 .537-.336 1.075-.336 1.679 0 .537.067 1.075 0 1.612v2.351c-.067.806.067 1.545 0 2.351 0 .738-.336 1.477-.403 2.283-.067.739 0 1.545-.067 2.351 0 .739-.202 1.545-.268 2.284 0 .806.067 1.545.067 2.35-.067.806-.134 1.612-.201 2.418s-.067 1.611-.067 2.418c-.067.739-.067 1.612-.067 2.351 0 .605-.201 1.141-.201 1.679v1.679c-.067.873.067.537.671.806.336.067.739.201 1.075.067.604-.268 1.209-.672 1.881-.873.672-.202 1.343-.202 2.015-.269.672-.134 1.343-.134 2.082-.067.672 0 1.343 0 2.015.202.873.268 1.746.806.873 1.746-.47.538-1.142.739-1.478 1.343-.403.739-1.276 1.007-2.015 1.343-.671.268-1.276.738-1.947.94-.672.268-1.343.403-2.082.605-.672.201-1.343.403-2.015.605-.739.201-1.344.537-2.082.671-.671.202-1.343.336-2.082.47-.672.134-1.41.202-2.082.403-.739.134-1.41.403-2.082.403-.672.067-1.343 0-2.082 0-.672 0-1.344 0-2.082.067-.537 0-1.477.268-2.284.268-.873 0-1.612-.403-1.947-1.075-.269-.672-.336-1.343-.269-1.947s.269-1.142.94-1.545c.537-.269 1.142-.537 1.746-.672.605-.202 1.209-.47 1.814-.537.604-.067 1.142 0 1.746 0-.067-.672.134-1.343.134-2.015 0-.739-.134-1.41-.134-2.149s-.067-1.41 0-2.149c0-.672.134-1.41.201-2.082 0-.738.067-1.477.134-2.149.067-.738.067-1.41.134-2.149.067-.671.067-1.41.134-2.149.067-.671.202-1.41.269-2.081.134-.739.067-1.411.202-2.149.067-.672.403-1.411.47-2.082.067-.738 0-1.41.067-2.149.067-.738 0-1.41.067-2.149.067-.671.403-1.41.471-2.082 0-.738-.134-1.41-.067-2.149 0-.738.134-1.41.201-2.082-.672.067-1.343.134-2.015.202-.605.134-1.343.067-2.015.134-.605.134-1.276.269-1.948.403-.671.134-2.35.739-2.82.067-.269-.336-.202-1.208.268-2.081.336-.739 1.007-1.411 1.276-1.679.672-.538 1.477-.94 2.283-1.209.873-.202 1.746-.269 2.553-.47.738-.202 1.477-.537 2.216-.672.738-.202 1.545-.202 2.283-.336.739-.201 1.478-.402 2.216-.537.739-.134 1.477-.202 2.284-.336.739-.134 1.477-.403 2.216-.537s1.477-.268 2.216-.403c.806-.134 1.612-.336 2.35-.47.806-.067 1.612-.067 2.418-.202.403-.067 1.075-.201 1.679-.268.537 0 1.007-.067 1.343.067 0 .067.067.134.202.336.067 0 0-.134.067-.134-.067-.067.067 0 0 .067.873-.338 1.813.602.738 1.408z" fill="#fff"/><path d="m168.905 18.375c-.604.403-1.276.806-1.947 1.208-.672.403-1.344.806-2.015 1.142-.672.336-1.343.672-2.082 1.007-.672.269-1.411.537-2.149.806-.739.268-1.478.47-2.216.671-.739.202-.537.403-.537 1.142 0 .537.067 1.075.067 1.679 0 .537-.336 1.075-.336 1.679 0 .537.067 1.075 0 1.612v2.351c-.067.806.067 1.545 0 2.351 0 .738-.336 1.477-.403 2.283-.067.739 0 1.545-.067 2.351 0 .739-.202 1.545-.268 2.284 0 .806.067 1.545.067 2.35-.067.806-.134 1.612-.201 2.418s-.067 1.611-.067 2.418c-.067.739-.067 1.612-.067 2.351 0 .605-.201 1.141-.201 1.679v1.679c-.067.873.067.537.671.806.336.067.739.201 1.075.067.604-.268 1.209-.672 1.881-.873.672-.202 1.343-.202 2.015-.269.672-.134 1.343-.134 2.082-.067.672 0 1.343 0 2.015.202.873.268 1.746.806.873 1.746-.47.538-1.142.739-1.478 1.343-.403.739-1.276 1.007-2.015 1.343-.671.268-1.276.738-1.947.94-.672.268-1.343.403-2.082.605-.672.201-1.343.403-2.015.605-.739.201-1.344.537-2.082.671-.671.202-1.343.336-2.082.47-.672.134-1.41.202-2.082.403-.739.134-1.41.403-2.082.403-.672.067-1.343 0-2.082 0-.672 0-1.344 0-2.082.067-.537 0-1.477.268-2.284.268-.873 0-1.612-.403-1.947-1.075-.269-.672-.336-1.343-.269-1.947s.269-1.142.94-1.545c.537-.269 1.142-.537 1.746-.672.605-.202 1.209-.47 1.814-.537.604-.067 1.142 0 1.746 0-.067-.672.134-1.343.134-2.015 0-.739-.134-1.41-.134-2.149s-.067-1.41 0-2.149c0-.672.134-1.41.201-2.082 0-.738.067-1.477.134-2.149.067-.738.067-1.41.134-2.149.067-.671.067-1.41.134-2.149.067-.671.202-1.41.269-2.081.134-.739.067-1.411.202-2.149.067-.672.403-1.411.47-2.082.067-.738 0-1.41.067-2.149.067-.738 0-1.41.067-2.149.067-.671.403-1.41.471-2.082 0-.738-.134-1.41-.067-2.149 0-.738.134-1.41.201-2.082-.672.067-1.343.134-2.015.202-.605.134-1.343.067-2.015.134-.605.134-1.276.269-1.948.403-.671.134-2.35.739-2.82.067-.269-.336-.202-1.208.268-2.081.336-.739 1.007-1.411 1.276-1.679.672-.538 1.477-.94 2.283-1.209.873-.202 1.746-.269 2.553-.47.738-.202 1.477-.537 2.216-.672.738-.202 1.545-.202 2.283-.336.739-.201 1.478-.402 2.216-.537.739-.134 1.477-.202 2.284-.336.739-.134 1.477-.403 2.216-.537s1.477-.268 2.216-.403c.806-.134 1.612-.336 2.35-.47.806-.067 1.612-.067 2.418-.202.403-.067 1.075-.201 1.679-.268.537 0 1.007-.067 1.343.067 0 .067.067.134.202.336.067 0 0-.134.067-.134-.067-.067.067 0 0 .067.873-.338 1.813.602.738 1.408z" fill="#efd23b"/><path d="m359.046 84.423h.336l1.075-.067v1.141l-1.075 1.276-1.411.873-1.41.269-1.344.403h-1.41-1.41l-1.411.134-1.41.202h-1.612-1.679l-1.477.671-.873.739-.471 1.142v1.276l-.201 1.343-.336 1.343.067 1.343-.067 1.41-.201 1.343-.336 1.343-.067 1.411 1.478-.403 1.477-.067 1.41-.336 1.411-.403 1.41-.537 1.41-.336 1.411-.537 1.477-.068 1.41-.336 1.545-.201-.067 1.477-1.276.873-1.075 1.075-1.276.806-1.208.806-1.276.471-1.343.402-1.276.202h-1.41-1.343l-1.41.134-1.545.067-.336 1.545-.134 1.477-.202 1.477.067 1.478-.202 1.477-.067 1.477-.067 1.478-.201 1.477.134 1.477-.067 1.477-.134 1.343 1.41.134 1.478-.336 1.477.134 1.477-.403h1.477l1.477-.402 1.411-.269 1.477-.202 1.545.067 1.276-.201 1.276-.47 1.343.067 1.142.47-.672 1.276-1.343.672-1.478.336-1.343.403-1.411.402-1.343.336-1.343.605-1.411.336-1.41.336-1.344.336-1.41.269-1.343.47-1.41.268-1.41.47-1.411.269-1.343.47h-1.477l-1.344.403-1.612.269-1.612.201-1.612-.134.067-1.545-.067-1.477.537-1.41.202-1.477.134-1.343.134-1.343.403-1.343.134-1.343v-1.343-1.343l.269-1.343.201-1.343.269-1.343.067-1.477.268-1.411.067-1.41.202-1.477.201-1.411.134-1.477.202-1.41.201-1.411.134-1.477.605-1.343.134-1.478.403-1.343.403-1.411.672-1.276.605-1.343.47-1.276-.739-.806 1.075-1.343 1.411-.403 1.343-.605 1.477-.067h1.478 1.477l1.41-.336 1.411.067 1.477-.067 1.41.134 1.411-.067 1.41-.067 1.41.067 1.411.202 1.477.202z" fill="#fff"/><path d="m392.829 113.974c.269.873-1.075 2.418-1.545 3.089-1.746 2.418-4.366 3.425-7.253 4.029-2.888.672-5.91-1.814-7.724-3.828-1.88-2.149-3.425-4.433-4.836-6.85-.067 1.679.202 3.358-.067 5.037-.134.806-.537 1.545-.47 2.418.134.806.336 1.545.202 2.351-.269 1.075-.471 2.686-1.478 3.358-1.075.672-2.552.806-3.761.739-.671-.067-1.343-.269-1.88-.739-.537-.403-1.276 0-1.948-.201-.604-.336.269-3.559.403-4.164.268-1.478.47-3.157.268-4.702-.268-1.679.604-3.022.604-4.634 0-.873-.336-1.88 0-2.754.269-.605.739-1.142.806-1.814.134-.94-.067-1.88.067-2.82.067-.739.269-1.478.202-2.284-.202-1.746-.336-3.358-.202-5.172.134-1.679-.134-3.29-.134-4.902 0-1.007.336-2.015.47-2.955.067-.739-.067-1.545.067-2.284.268-1.41 1.545-2.686 2.284-3.895.94-1.343 2.015-.94 3.358-1.41.806-.269 2.955-.269 2.418 1.208.605-.134 1.746-.403 2.149.336.336.537.067 1.477 0 2.081 2.686-1.545 5.843-3.224 9.067-2.149 1.276.471 2.888.873 3.559 2.217.672 1.41.941 3.358.672 4.969-.202 1.679-.739 3.089-1.947 4.366-1.007 1.075-1.612 2.418-2.754 3.425-2.216 2.015-5.44 3.828-8.328 4.634.605.873.672 1.88 1.545 2.553.873.671 1.478 1.343 2.216 2.149.672.873 1.411 1.746 2.149 2.551.537.605.672 1.545 1.276 2.149 1.343 1.478 2.754 2.955 4.298 4.298.806.672 1.477.873 2.418.403.604-.269 1.007-.94 1.679-1.142-.134.067-.537.134 0 0 .067 0 .067 0 0 0 .067 0-.268.336-.201.403.067.339 2.082-.87 2.351-.064zm-20.417-15.447c1.477 0 2.888-.201 4.164-.873 1.343-.672 1.947-1.545 2.686-2.888.067-.202.403-.605.403-.873 0 .067-.202.336-.336.605 1.007-1.411.873-4.097.202-5.507-.336-.806-.739-2.015-1.477-2.553-.739-.604-2.149-.067-2.888.336-1.813.873-.94 4.03-1.477 5.575-.336 1.141-.672 2.082-.873 3.29-.135 1.008-.203 1.948-.404 2.888zm6.783-15.111c-.336.067-.739.202-1.008.336.403-.067.806-.269 1.276-.336h-.067c-.134 0-.201 0-.201 0z" fill="#fff"/><path d="m424.864 79.99c-.134 1.276-1.209 2.955-1.947 3.963-.806 1.075-2.418 1.679-3.493 2.418-.537.336-1.477.671-1.88 1.209-.403.537.067 1.276.336 1.746.672 1.343 1.075 2.754 1.545 4.097.605 1.545 1.142 2.82 1.41 4.499.202 1.545.739 3.023.605 4.702-.134 1.611.403 3.089.336 4.701 0 1.075 0 2.216-.403 3.224-.403.94-.806 1.679-.941 2.686-.268 1.947-1.208 3.492-2.485 4.969-1.343 1.612-3.156 2.217-4.701 3.56-1.612 1.276-3.291.94-5.104 1.612-2.015.739-3.962.201-5.977-.47-1.813-.605-3.224-1.814-4.432-3.291-2.552-2.888-2.955-7.522-3.358-11.149-.134-1.142-.067-2.216.067-3.358.067-1.007-.134-1.948-.134-2.888 0-2.015.403-3.761.94-5.641.336-1.075.269-2.216.604-3.291.268-1.007.806-1.948 1.142-2.955.604-1.814 1.343-3.828 2.888-5.172.806-.672 1.343-1.477 2.015-2.284.605-.739 1.343-.94 2.284-1.141 1.88-.471 3.29-1.545 5.373-1.478 1.343.067 3.224-.134 3.76 1.41.269.739.806 1.209 1.142 1.814.537.873.941 1.746 1.478 2.553 2.35-2.015 3.156-5.776 6.38-6.716-.202.067-.873.269 0 0 .067 0 .067 0 0 0 .201 0-.336.336-.269.403.469.336 2.887-1.343 2.819.268zm-9.133 24.716c-.202-3.022-.806-5.641-1.947-8.462.067.202.134.336 0 0-.067-.134-.134-.268-.134-.336 0-.067 0-.067 0-.134-.067.067.806 1.008.806 1.075.269-.403-.94-2.552-1.142-2.955-.403-1.008-.873-2.821-2.082-3.023-1.208-.268-2.686.403-3.962.47-.47.068-1.209 0-1.478.538-.47 1.141-.47 2.686-.537 3.895-.067 1.478-.672 2.821-.672 4.298 0 3.291-.134 6.313.806 9.47.403 1.477.537 2.955 1.612 4.097.873.94 1.814 1.746 2.686 2.686.941.94 2.485 1.679 3.761.94 1.209-.671 1.545-2.216 1.814-3.358.336-1.545.336-3.29.268-4.903-.001-1.41.335-2.888.201-4.298zm-7.522-19.141c.067 1.343.403 2.485 1.88 2.754-.604-1.075-1.141-1.813-1.88-2.754z" fill="#fff"/><path d="m457.303 87.11c0 .94.067 1.88.067 2.82 0 1.746 0 3.493-.268 5.238-.47 3.895-.941 7.724-1.343 11.619-.067.94.336 1.814.202 2.686-.067.94-.269 1.813-.336 2.686-.134 1.947-.268 3.963-.537 5.91-.201 2.015-.268 3.425-2.418 4.164-1.209.403-2.686.738-3.559-.336-1.209-1.41-1.478-3.492-2.284-5.104-.336-.739-.672-1.343-.806-2.149-.134-.739-.201-1.477-.537-2.149-.806-1.814-1.545-3.627-2.284-5.44-.537-1.612-1.813-3.022-2.149-4.634-.201-.873-.268-1.679-.873-2.418-.403-.471-.94-.873-1.276-1.478-.403-.806-.403-1.746-.873-2.485-.403-.739-1.007-1.41-1.41-2.149-.067 1.746.134 3.492.067 5.238 0 .739-.336 1.477-.47 2.216-.134.672-.067 1.343-.134 2.015-.134 2.149.336 4.298.201 6.447-.201 1.746-.403 3.492-.537 5.306-.067 1.142-.537 2.149-.738 3.291-.202.941-.269 1.947-.672 2.821-.739 1.343-2.754 2.35-4.097 2.754-.604.268-2.082.671-2.619.201-.538-.47-.538-1.477-.605-2.082-.134-1.813-.269-3.559-.336-5.373-.134-2.015-.738-4.298-.134-6.246.336-1.007.268-1.746.134-2.754-.134-1.007 0-2.015.067-3.023.067-1.208-.067-2.485.202-3.694.201-.873.537-1.746.672-2.754.134-1.007.403-2.015.336-3.022-.134-.94-.269-1.813.134-2.753.403-1.075.671-1.881.537-3.09-.134-.94-.067-1.813.268-2.686.537-1.343.739-3.291 2.284-3.828 2.149-.739 3.694-.403 5.306 1.343 1.142 1.141 2.686 2.35 3.492 3.694 2.082 3.425 4.366 6.716 6.112 10.276 0-2.888.336-5.642.672-8.53.134-1.343 0-2.485 0-3.76 0-1.343.537-2.754.738-4.03.336-2.216 1.142-4.366 3.425-5.171.47-.202 3.493-1.142 3.493-.067h.067v.07c-.067 0-.067 0-.067 0 0 .067 0 .134-.067.268.134 0 .201-.067.268-.134.067-.068.134-.134.134-.202 1.612-.134 2.082 1.41 2.216 2.888.067 1.679.134 3.157.47 4.836.201.873-.068 1.881-.135 2.754zm-3.089-10.41s.067 0 .134-.067c-.067 0-.134 0-.134.067z" fill="#fff"/><path d="m154.27 142.789c.201.47-.134 1.343-.403 1.746-.336.605-1.075.873-1.612 1.209-.537.403-1.142.739-1.746 1.007-.537.268-1.007.672-1.545.873-.537.269-1.208.269-1.746.403-.605.201-1.142.47-1.679.605-.605.201-1.209.268-1.746.403-.605.134-1.209.134-1.746.268-.605.067-1.075.403-1.679.47.269.47.403.941.538 1.478.201.605.336 1.141.47 1.746s.268 1.209.336 1.814c.067.605.202 1.209.202 1.814.067.605.067 1.209.067 1.814 0 .604.067 1.208.067 1.813 0 .672.134 1.276.134 1.881s0 1.208 0 1.88c0 .605-.268 1.209-.268 1.88-.067.605.067 1.209.067 1.881-.067.605-.202 1.209-.269 1.813-.067.672-.134 1.276-.134 1.881-.067.672-.134 1.276-.201 1.881-.067.537 0 1.141-.067 1.679 0 .605.067 1.141.067 1.679-.067.604-.336 1.141-.336 1.679-.067.605.067 1.142 0 1.746-.067.537-.134 1.075-.268 1.679-.067.537-.202 1.075-.403 1.612-.201.605-.738.94-1.075 1.41-.336.471-.738.873-1.208 1.276-.47.336-.941.671-1.477.94-.538.269-1.008.605-1.612.806-.47.134-1.075.202-1.679.202-.537 0-1.007-.268-1.343-.806-.336-.403-.202-.605-.806-.605-.202 0-.537.134-.739 0-.403-.268.067-1.746.134-2.149.134-.605.403-1.209.537-1.814.067-.672 0-1.343.067-1.947.134-.605.336-1.209.403-1.88.134-.605.134-1.276.201-1.881s.134-1.276.202-1.881c.067-.671.202-1.276.269-1.88.067-.605.134-1.209.201-1.746.067-.605 0-1.208.067-1.813 0-.538.269-1.142.336-1.679.067-.605-.134-1.209-.067-1.814 0-.605.201-1.142.268-1.746 0-.537.134-1.142.202-1.746.067-.537-.067-1.141-.067-1.746.067-.605.202-1.142.202-1.746.067-.605.268-1.142.336-1.746.067-.605.134-1.141.201-1.746s0-1.209.067-1.746c.067-.605.134-1.209.202-1.746.067-.605.269-1.209.336-1.814-.671.067-1.343.269-1.947.336s-1.276 0-1.881.067c-.671 0-1.276-.067-1.947 0-.605 0-1.209.268-1.88.268-.605.067-1.209-.067-1.814-.067-.605.067-1.142 0-1.746 0-.605.067-1.813 0-.94-.806-1.545 0-1.075-.739-.202-1.343-1.41-.201.403-1.477.806-1.679.47-.201.873-.47 1.41-.671.47-.134 1.007-.202 1.478-.403.604-.134 1.141-.403 1.746-.537s1.142-.269 1.746-.403 1.209-.067 1.814-.201c.604-.068 1.142-.269 1.746-.336.605-.134 1.209-.134 1.814-.202.605-.067 1.209-.268 1.814-.268.604-.067 1.208-.134 1.813-.202.605 0 1.209-.134 1.814-.201s1.209 0 1.814-.067c.604-.067 1.208-.134 1.813-.202.605 0 1.209 0 1.814-.067.672-.068 1.276-.134 1.88-.202.605-.067 1.209.134 1.814.067s1.209-.336 1.813-.47c.538-.068 1.142-.134 1.746-.269.336 0-1.41.336-1.679.403-.134 0 .202 0 1.746-.268.329-.07 1.135-.338 1.337.132zm-18.134 38.953c-.067.268 0 .605 0 .94.068-.336-.067-.604 0-.94zm.807-10.209c0-.067 0-.201 0-.269 0 .135-.068.269 0 .269zm.067-.537c0 .202 0 .403-.067.605h.067c.067-.672 0-.739 0-.605zm.335-3.627c-.067.739-.268 1.343-.336 2.015-.067.47 0 .873 0 1.276 0-.402.067-.806.067-1.276.068-.739.202-1.276.269-2.015z" fill="#f18c38"/><path d="m186.172 185.1.269 1.41-.806 1.075-1.142.672-1.208.47-1.343.201-1.276-.402-.538-1.411-.738-1.276-.269-1.41-.336-1.477-.202-1.411-.47-1.41-.268-1.41-.672-1.478-.403-1.477-.605-1.41-.336-1.545-.403-1.545-1.075-1.141-1.477-.067-1.477.336-1.411.336-.47 1.276-.134 1.343-.403 1.343-.403 1.343-.269 1.343-.403 1.343-.201 1.41-.672 1.209-.403 1.343-.537 1.276-.537 1.276-.672 1.209-1.007 1.008-.672 1.208-1.142.806-1.142.873-1.276.537-1.209.739-1.477.201-1.075-.806-.202-1.41.202-1.411.47-1.343.268-1.411.336-1.343.268-1.343.269-1.343.537-1.276.134-1.343.605-1.276.134-1.41.537-1.209.336-1.343.269-1.343-.94-.537.671-1.075 1.007-1.142.605-1.477.202-1.612.605-1.343.47-1.41.134-1.545.47-1.41.47-1.41.47-1.41.403-1.411.403-1.276.201-1.343.672-1.209.47-1.276.605-1.208.94-.941 1.142-.806 1.142-.605 1.209-.671 1.545.067.873 1.209.672 1.343.403 1.477.47 1.343.537 1.411.336 1.41.47 1.411.605 1.41.47 1.343.403 1.41.672 1.141.336 1.276.47 1.209.269 1.276 1.209.94 1.477.134 1.612-.202.873.806-1.142.806-1.208.806-1.142.605.134.403-.336-.403.672 1.343.47 1.41.269 1.478.537 1.343.605 1.343.134 1.478.47 1.41.47 1.343.269 1.477.672 1.343zm-12.29-17.529-.403-1.209-.403-1.276-.336-1.276-.738-1.142-.336-1.208-.067 1.276-.336 1.343-.47 1.276-.134 1.41-.134 1.209-.067.201 1.746-.201z" fill="#f18c38"/><path d="m218.813 150.915c0 .94.067 1.88.067 2.82 0 1.746 0 3.493-.268 5.238-.47 3.895-.941 7.724-1.343 11.619-.067.94.336 1.814.202 2.686-.067.94-.269 1.813-.336 2.686-.134 1.947-.268 3.963-.537 5.91-.201 2.015-.268 3.425-2.418 4.164-1.209.403-2.686.738-3.559-.336-1.209-1.41-1.478-3.492-2.284-5.104-.336-.739-.672-1.343-.806-2.149-.134-.739-.201-1.477-.537-2.149-.806-1.814-1.545-3.627-2.284-5.44-.537-1.612-1.813-3.022-2.149-4.634-.201-.873-.268-1.679-.873-2.418-.403-.471-.94-.873-1.276-1.478-.403-.806-.403-1.746-.873-2.485-.403-.739-1.007-1.41-1.41-2.149-.067 1.746.134 3.492.067 5.238 0 .739-.336 1.477-.47 2.216-.134.672-.067 1.343-.134 2.015-.134 2.149.336 4.298.201 6.447-.201 1.746-.403 3.492-.537 5.306-.067 1.142-.537 2.149-.738 3.291-.202.941-.269 1.947-.672 2.821-.739 1.343-2.754 2.35-4.097 2.754-.605.268-2.082.671-2.619.201-.538-.47-.538-1.477-.605-2.082-.134-1.813-.269-3.559-.336-5.373-.134-2.015-.738-4.298-.134-6.246.336-1.007.268-1.746.134-2.754-.134-1.007 0-2.015.067-3.023.067-1.208-.067-2.485.202-3.694.201-.873.537-1.746.672-2.754.134-1.007.403-2.015.336-3.022-.134-.94-.269-1.813.134-2.753.403-1.075.671-1.881.537-3.09-.134-.94-.067-1.813.268-2.686.537-1.343.739-3.291 2.284-3.828 2.149-.739 3.694-.403 5.306 1.343 1.142 1.141 2.686 2.35 3.492 3.694 2.082 3.425 4.366 6.716 6.112 10.276 0-2.888.336-5.642.672-8.53.134-1.343 0-2.485 0-3.76 0-1.343.537-2.754.738-4.03.336-2.216 1.142-4.366 3.425-5.171.47-.202 3.493-1.142 3.493-.067h.067v.067c-.067 0-.067 0-.067 0 0 .067 0 .134-.067.268.134 0 .201-.067.268-.134.067-.068.134-.134.134-.202 1.612-.134 2.082 1.41 2.216 2.888.067 1.679.134 3.157.47 4.836.201.877-.068 1.884-.135 2.757zm-3.089-10.41s.067 0 .134-.067c-.067 0-.134 0-.134.067z" fill="#f18c38"/><path d="m262.2 155.012.268 1.545-.403 1.41-.604 1.343-.873 1.276-.806 1.208-1.007 1.142-.873 1.209-1.209.94-1.075 1.007 1.477.403 1.276.739 1.007.94.873 1.142.738 1.276.202 1.477-.336 1.411-.134 1.477-.537 1.343-.672 1.343-.672 1.276-1.007 1.075-.94 1.142-1.007 1.075-1.075.941-1.209.806-1.007.873-1.276.537-1.209.537-1.276.269-1.209.672-1.007.605-.202 1.141-.201 1.276-.806.873-1.209.672-1.343.537-1.411.336-1.41.067-1.41.202-1.209-.537.269-1.411.067-1.41.403-1.41-.067-1.478.268-1.41-.067-1.477.202-1.411-.202-1.477.202-1.41.134-1.411v-1.477l-.067-1.41.202-1.477v-1.411l.067-1.477v-1.41l-.067-1.411.201-1.477.202-1.41.067-1.411.201-1.477.067-1.41.067-1.478.134-1.41.201-1.477.47-1.411.538-1.343.336-1.411.672-1.343.873-1.142 1.343-.605 1.141-.671h1.343l1.209-.068 1.007.538.268 1.209-.134 1.208-.268 1.276-.134 1.343 1.343-.604 1.41-.605 1.343-.47 1.477-.269 1.477-.269 1.411-.201 1.477.134 1.477.134 1.142.941.738 1.141.067.134zm-10.074 19.141-.067-1.477-.739-1.343-.134.134.336-.806-1.007-.873-1.411-.067-1.41-.201-.067 1.343-.067 1.276.067 1.276-.134 1.478-.134 1.545v1.477l-.067 1.545-.067 1.477 1.075-.873 1.276-.806 1.008-1.075.806-1.208.739-1.343v-1.479zm2.619-16.052-.269-1.411-.605-1.276-1.141-.94-1.209.873-1.075.941-1.007 1.007-.806 1.142-.537 1.276-.067 1.545v1.545l-.201 1.478.134 1.545-.201 1.679 1.746-1.008-.067-.201 1.007-.94.94-1.075 1.075-.941.537-1.343.94-1.142.47-1.343z" fill="#f18c38"/><path d="m292.624 146.013c-.605.403-1.276.806-1.947 1.208s-1.343.806-2.015 1.142-1.343.672-2.082 1.007c-.672.269-1.411.537-2.149.806-.739.268-1.478.47-2.216.671-.739.202-.537.403-.537 1.142 0 .537.067 1.075.067 1.679 0 .537-.336 1.075-.336 1.679 0 .537.067 1.075 0 1.612v2.351c-.067.806.067 1.545 0 2.351 0 .738-.336 1.477-.403 2.283-.067.739 0 1.545-.067 2.351 0 .739-.201 1.545-.268 2.284 0 .806.067 1.545.067 2.35-.067.806-.134 1.612-.202 2.418-.067.806-.067 1.611-.067 2.418-.067.739-.067 1.612-.067 2.351 0 .605-.202 1.141-.202 1.679v1.679c-.067.873.067.537.672.806.336.067.739.201 1.075.067.605-.268 1.209-.672 1.881-.873.671-.202 1.343-.202 2.015-.269.672-.134 1.344-.134 2.082-.067.672 0 1.344 0 2.015.202.873.268 1.746.806.873 1.746-.47.538-1.142.739-1.477 1.343-.403.739-1.276 1.007-2.015 1.343-.672.268-1.276.738-1.947.94-.672.268-1.343.403-2.082.605-.672.201-1.343.403-2.015.605-.738.201-1.343.537-2.082.671-.671.202-1.343.336-2.082.47-.671.134-1.41.202-2.082.403-.738.134-1.41.403-2.082.403-.672.067-1.343 0-2.082 0-.672 0-1.343 0-2.082.067-.537 0-1.478.268-2.284.268-.873 0-1.612-.403-1.947-1.075-.269-.672-.336-1.343-.269-1.947.067-.605.269-1.142.94-1.545.537-.269 1.142-.537 1.746-.672.605-.202 1.209-.47 1.814-.537s1.142 0 1.746 0c-.067-.672.134-1.343.134-2.015 0-.739-.134-1.41-.134-2.149s-.067-1.41 0-2.149c0-.672.134-1.41.202-2.082 0-.738.067-1.477.134-2.149.067-.738.067-1.41.134-2.149.067-.671.067-1.41.134-2.149.067-.671.202-1.41.269-2.081.134-.739.067-1.411.201-2.149.067-.672.403-1.411.471-2.082.067-.738 0-1.41.067-2.149.067-.738 0-1.41.067-2.149.067-.671.403-1.41.47-2.082 0-.738-.134-1.41-.067-2.149 0-.738.134-1.41.201-2.082-.671.067-1.343.134-2.015.202-.605.134-1.343.067-2.015.134-.605.134-1.276.269-1.948.403-.671.134-2.35.739-2.82.067-.269-.336-.202-1.208.268-2.081.336-.739 1.007-1.411 1.276-1.679.671-.538 1.477-.94 2.284-1.209.873-.202 1.746-.269 2.552-.47.738-.202 1.477-.537 2.216-.672.738-.202 1.545-.202 2.283-.336.739-.201 1.478-.402 2.216-.537.739-.134 1.478-.202 2.284-.336.739-.134 1.477-.403 2.216-.537.738-.134 1.477-.268 2.216-.403.806-.134 1.612-.336 2.35-.47.806-.067 1.612-.067 2.418-.202.403-.067 1.075-.201 1.679-.268.537 0 1.007-.067 1.343.067 0 .067.067.134.202.336.067 0 0-.134.067-.134-.067-.067.067 0 0 .067.873-.339 1.813.601.738 1.408z" fill="#f18c38"/><path d="m323.317 148.228h.336l1.075-.067v1.141l-1.075 1.276-1.411.873-1.41.269-1.343.403h-1.41-1.41l-1.411.134-1.41.202h-1.612-1.679l-1.477.671-.873.739-.471 1.142v1.276l-.201 1.343-.336 1.343.067 1.343-.067 1.41-.201 1.343-.336 1.343-.067 1.411 1.478-.403 1.477-.067 1.41-.336 1.411-.403 1.41-.537 1.41-.336 1.411-.537 1.477-.068 1.41-.336 1.545-.201-.067 1.477-1.276.873-1.075 1.075-1.276.806-1.208.806-1.276.471-1.343.402-1.276.202h-1.41-1.344l-1.41.134-1.545.067-.336 1.545-.134 1.477-.202 1.477.067 1.478-.202 1.477-.067 1.477-.067 1.478-.201 1.477.134 1.477-.067 1.477-.134 1.343 1.41.134 1.478-.336 1.477.134 1.477-.403h1.477l1.477-.402 1.411-.269 1.477-.202 1.545.067 1.276-.201 1.276-.47 1.343.067 1.142.47-.672 1.276-1.343.672-1.478.336-1.343.403-1.411.402-1.343.336-1.343.605-1.411.336-1.41.336-1.343.336-1.41.269-1.343.47-1.41.268-1.41.47-1.411.269-1.343.47h-1.477l-1.343.403-1.612.269-1.612.201-1.612-.134.067-1.545-.067-1.477.537-1.41.202-1.477.134-1.343.134-1.343.403-1.343.134-1.343v-1.343-1.343l.269-1.343.201-1.343.269-1.343.067-1.477.268-1.411.067-1.41.202-1.477.201-1.411.134-1.477.202-1.41.201-1.411.134-1.477.605-1.343.134-1.478.403-1.343.403-1.411.672-1.276.605-1.343.47-1.276-.739-.806 1.075-1.343 1.411-.403 1.343-.605 1.477-.067h1.478 1.477l1.41-.336 1.411.067 1.477-.067 1.41.134 1.411-.067 1.41-.067 1.41.067 1.411.202 1.477.202z" fill="#f18c38"/><path d="m357.099 150.915c0 .94.067 1.88.067 2.82 0 1.746 0 3.493-.268 5.238-.471 3.895-.941 7.724-1.343 11.619-.067.94.336 1.814.202 2.686-.067.94-.269 1.813-.336 2.686-.134 1.947-.268 3.963-.537 5.91-.201 2.015-.268 3.425-2.418 4.164-1.209.403-2.686.738-3.56-.336-1.208-1.41-1.477-3.492-2.283-5.104-.336-.739-.672-1.343-.806-2.149-.134-.739-.201-1.477-.537-2.149-.806-1.814-1.545-3.627-2.283-5.44-.538-1.612-1.814-3.022-2.149-4.634-.202-.873-.269-1.679-.873-2.418-.403-.471-.94-.873-1.276-1.478-.403-.806-.403-1.746-.873-2.485-.403-.739-1.007-1.41-1.41-2.149-.067 1.746.134 3.492.067 5.238 0 .739-.336 1.477-.471 2.216-.134.672-.067 1.343-.134 2.015-.134 2.149.336 4.298.201 6.447-.201 1.746-.403 3.492-.537 5.306-.067 1.142-.537 2.149-.738 3.291-.202.941-.269 1.947-.672 2.821-.739 1.343-2.754 2.35-4.097 2.754-.605.268-2.082.671-2.62.201-.537-.47-.537-1.477-.604-2.082-.134-1.813-.269-3.559-.336-5.373-.134-2.015-.738-4.298-.134-6.246.336-1.007.269-1.746.134-2.754s0-2.015.067-3.023c.067-1.208-.067-2.485.202-3.694.201-.873.537-1.746.671-2.754.134-1.007.403-2.015.336-3.022-.134-.94-.269-1.813.134-2.753.403-1.075.671-1.881.537-3.09-.134-.94-.067-1.813.268-2.686.537-1.343.739-3.291 2.284-3.828 2.149-.739 3.694-.403 5.306 1.343 1.142 1.141 2.686 2.35 3.493 3.694 2.082 3.425 4.365 6.716 6.111 10.276 0-2.888.336-5.642.672-8.53.134-1.343 0-2.485 0-3.76 0-1.343.537-2.754.739-4.03.336-2.216 1.141-4.366 3.425-5.171.47-.202 3.493-1.142 3.493-.067h.067v.067c-.067 0-.067 0-.067 0 0 .067 0 .134-.067.268.134 0 .201-.067.268-.134.067-.068.134-.134.134-.202 1.612-.134 2.082 1.41 2.216 2.888.067 1.679.134 3.157.47 4.836.201.877-.068 1.884-.135 2.757zm-3.089-10.41s.067 0 .134-.067c-.067 0-.134 0-.134.067z" fill="#f18c38"/><path d="m366.569 185.906c0 .134-.067.269-.067.336-.067.336-.134.806-.403 1.007-.47.47-1.075.806-1.746.94-.202.067-.605.202-.873.202-.403.067-.806.134-1.209.134-.067 0-.134.067-.201.067-.336.134-.739.269-1.075.269-.134 0-.537 0-.604-.134-.134-.403-.202-.806-.336-1.209-.067-.201.201-.403.336-.47.067-.067.134-.134.201-.201 0-.068 0-.068 0-.134 0-.202-.067-.336-.067-.537-.067-.202.067-.403.268-.605.269-.403.605-.806 1.075-1.142 1.075-.739 2.552-1.142 3.895-.873.067.068.134.068.201.134.403-.067.739-.067.873.202.27.536.068 1.342-.268 2.014z" fill="#f18c38"/><g fill="#fff"><path d="m123.944 302.737-.72 6.679h-5.319l.72-6.679h-4.279l-.72 6.679h-5.279l.68-6.679h-4.839v-4.479h5.319l.56-5.079h-4.719v-4.519h5.199l.6-6.239h5.319l-.64 6.239h4.279l.64-6.239h5.319l-.64 6.239h4.879v4.519h-5.359l-.56 5.079h4.719v4.479zm-4.319-9.558h-4.279l-.52 5.079h4.239z"/><path d="m159.023 309.416-1.72-11.118c-.36-2.2-.6-4.199-.8-6.279h-.08c-.4 2-.88 4.039-1.56 6.359l-3.319 11.038h-5.999l-3.2-10.078c-.72-2.32-1.4-4.919-1.76-7.319h-.04c-.24 2.52-.52 4.599-.8 6.839l-1.36 10.558h-6.279l4.319-26.996h7.159l3.759 11.838c.6 1.879 1.04 3.759 1.44 5.879h.08c.4-2.16.88-3.839 1.52-5.919l3.839-11.798h7.039l4.319 26.996z"/><path d="m185.544 300.978h-11.838c.04 2.64 1.64 4.159 4.919 4.159 1.96 0 4-.4 5.839-1.24l.56 4.599c-2.24.92-4.919 1.36-7.359 1.36-6.519 0-10.118-3.16-10.118-10.158 0-6.119 3.399-10.638 9.559-10.638 5.999 0 8.639 4.039 8.639 9.238-.001.84-.081 1.72-.201 2.68zm-8.599-7.479c-1.76 0-3.04 1.4-3.199 3.439h5.999c.079-2.24-1.04-3.439-2.8-3.439z"/><path d="m187.386 319.174c-.919 0-2.04-.16-2.879-.4l.36-5.159c.72.28 1.64.44 2.28.44 1.8 0 2.439-.84 2.439-2.959v-21.556h6.079v20.876c0 5.399-2.079 8.758-8.279 8.758zm5.24-31.715c-2.08 0-3.759-1.6-3.759-3.599s1.68-3.6 3.759-3.6c2.04 0 3.719 1.6 3.719 3.6 0 1.96-1.68 3.599-3.719 3.599z"/><path d="m208.705 309.856c-5.759 0-9.559-2.839-9.559-9.918 0-6.479 4.439-10.838 10.519-10.838 6.039 0 9.518 3.359 9.518 9.958 0 6.439-4.479 10.798-10.478 10.798zm.56-15.558c-1.92 0-3.799 1.48-3.799 4.959 0 3.639 1.16 5.319 3.679 5.319 2.2 0 3.719-1.839 3.719-5.159 0-3.399-1.08-5.119-3.599-5.119z"/><path d="m233.864 295.099c-3.319-.76-5.079 1.16-5.079 6.119v8.199h-6.079v-19.877h5.679c0 .84-.08 2.279-.28 3.519h.08c1.04-2.359 2.919-4.199 5.959-3.999z"/><path d="m236.986 309.416v-26.996h15.198v5.239h-8.958v5.359h8.479v5.08h-8.479v5.959h8.958v5.359z"/><path d="m268.304 309.416v-12.638c0-1.6-.44-2.56-1.84-2.56-2.16 0-3.959 2.639-3.959 5.559v9.638h-6.079v-19.875h5.679c0 .72-.04 2.16-.24 3.119h.04c1.24-2.04 3.439-3.559 6.599-3.559 4.439 0 5.879 2.839 5.879 6.279v14.038h-6.079z"/><path d="m300.342 288.939c-2.12-.84-4.56-1.36-7.159-1.36-5.119 0-8.399 3.24-8.399 8.519 0 5 2.64 8.119 7.679 8.119.96 0 1.84-.12 2.56-.36v-8.838h6.239v13.078c-2.64 1.08-5.999 1.76-9.479 1.76-8.759 0-13.718-5.079-13.718-13.278 0-8.599 5.879-14.558 15.478-14.558 2.719 0 5.479.48 7.759 1.16z"/><path d="m317.103 295.099c-3.319-.76-5.079 1.16-5.079 6.119v8.199h-6.079v-19.877h5.679c0 .84-.08 2.279-.28 3.519h.08c1.04-2.359 2.919-4.199 5.959-3.999z"/><path d="m332.463 309.416c0-.72.04-2.16.24-3.12h-.08c-1.2 2.04-3.399 3.56-6.559 3.56-4.439 0-5.919-2.839-5.919-6.279v-14.037h6.119v12.638c0 1.6.44 2.56 1.84 2.56 2.16 0 3.919-2.64 3.919-5.559v-9.638h6.119v19.876h-5.679z"/><path d="m350.943 309.736c-.76 0-1.399-.04-2.04-.16v9.318h-6.079v-29.354h5.599c0 .84-.04 1.839-.16 2.839h.08c1.12-2.08 3.079-3.279 5.999-3.279 4.719 0 7.239 3.519 7.239 9.278 0 6.799-3.439 11.358-10.638 11.358zm1.48-15.597c-2.08 0-3.52 2.399-3.52 5.719v4.879c.64.16 1.28.24 2.12.24 2.36 0 4.12-1.52 4.12-5.959 0-3.32-.88-4.879-2.72-4.879z"/><path d="m373.503 309.856c-5.759 0-9.559-2.839-9.559-9.918 0-6.479 4.439-10.838 10.519-10.838 6.039 0 9.518 3.359 9.518 9.958 0 6.439-4.479 10.798-10.478 10.798zm.56-15.558c-1.92 0-3.799 1.48-3.799 4.959 0 3.639 1.16 5.319 3.679 5.319 2.2 0 3.719-1.839 3.719-5.159 0-3.399-1.08-5.119-3.599-5.119z"/></g><path d="m162.156 7.189c-1.6 5.4-7.101 8.801-12.601 9.401-.3.1-.6 0-.7-.1-.3.1-.7.2-1 .2-.3.1-.8.2-1.2 0-.7-.4 1-1.4 1.2-1.5h.1s.1-.1.2-.1c.1-.1.1-.1.1-.1.1-.1.2-.1.2-.2.4-.2.7-.5 1-.8.5-.5 1.2-.9 1.9-1.1.4-.6.8-1.2 1.3-1.8-.2 0-.3-.1-.2-.3.7-1.2 1.5-2.2 2.5-3.2.8-.7 1.9-1.2 2.9-1.4.3 0 1.2-.1 1.4.2.2-.1.4-.2.6-.2.3-.1 2.2-.5 1.9.3 0 0 0 .1-.1.2.301-.001.601.099.501.499z" fill="#efd23b"/></svg>