<?xml version="1.0" encoding="utf-8"?>
<!-- Generator: Adobe Illustrator 21.0.0, SVG Export Plug-In . SVG Version: 6.00 Build 0)  -->
<svg version="1.1" id="Layer_1" xmlns="http://www.w3.org/2000/svg" xmlns:xlink="http://www.w3.org/1999/xlink" x="0px" y="0px"
	 viewBox="0 0 60 26.7" style="enable-background:new 0 0 60 26.7;" xml:space="preserve">
<style type="text/css">
	.st0{fill:#FFFFFF;}
</style>
<g>
	<g>
		<path class="st0" d="M7.7,21.2c-0.2,0-0.5,0-0.7,0v-2.3c0.2,0,0.5,0,0.8,0C8.5,18.9,9,19.2,9,20C9,20.7,8.5,21.2,7.7,21.2z
			 M7.8,19.3c-0.1,0-0.2,0-0.2,0v1.4c0,0,0.1,0,0.2,0c0.4,0,0.6-0.2,0.6-0.7C8.4,19.5,8.3,19.3,7.8,19.3z"/>
		<path class="st0" d="M10.4,21.2v-2.3h1.3v0.4h-0.8v0.5h0.7v0.4h-0.7v0.5h0.8v0.5H10.4z"/>
		<path class="st0" d="M17.8,21.2l-0.1-1c0-0.2,0-0.4-0.1-0.5l0,0c0,0.2-0.1,0.4-0.1,0.5l-0.3,0.9h-0.5l-0.3-0.9
			c-0.1-0.2-0.1-0.4-0.2-0.6l0,0c0,0.2,0,0.4-0.1,0.6l-0.1,1h-0.5l0.4-2.3h0.6l0.3,1c0,0.1,0.1,0.3,0.1,0.5l0,0
			c0-0.2,0.1-0.3,0.1-0.5l0.3-1H18l0.4,2.3H17.8L17.8,21.2z"/>
		<path class="st0" d="M21.1,21.2L21,20.7h-0.8L20,21.2h-0.5l0.8-2.3h0.6l0.8,2.3H21.1z M20.6,19.8c0-0.1-0.1-0.2-0.1-0.3l0,0
			c0,0.1,0,0.2-0.1,0.3l-0.2,0.5h0.5L20.6,19.8z"/>
		<path class="st0" d="M22.9,18.7l-0.1-0.3l0.8-0.3l0.1,0.4L22.9,18.7z M22.9,21.2v-2.3h0.5v2.3H22.9z"/>
		<path class="st0" d="M24.8,21.2v-0.4l0.8-1.3c0-0.1,0.1-0.1,0.1-0.2c-0.1,0-0.1,0-0.4,0h-0.5v-0.5h1.5v0.4l-0.8,1.3l-0.1,0.1
			c0,0,0.2,0,0.4,0h0.4v0.5L24.8,21.2z"/>
		<path class="st0" d="M31.3,21.2c-0.9,0-1.1-0.6-1.1-1.1c0-0.8,0.4-1.3,1.2-1.3c0.2,0,0.3,0,0.5,0.1l-0.1,0.5
			c-0.1,0-0.3-0.1-0.4-0.1c-0.4,0-0.6,0.3-0.6,0.7c0,0.5,0.2,0.7,0.6,0.7c0.1,0,0.3,0,0.4-0.1l0.1,0.5
			C31.8,21.1,31.5,21.2,31.3,21.2z"/>
		<path class="st0" d="M34.2,21.2c-0.7,0-1.1-0.4-1.1-1.2s0.5-1.2,1.2-1.2c0.6,0,1.1,0.4,1.1,1.2C35.3,20.7,34.8,21.2,34.2,21.2z
			 M34.2,19.3c-0.3,0-0.5,0.2-0.5,0.7c0,0.4,0.2,0.7,0.5,0.7s0.6-0.2,0.6-0.7C34.7,19.5,34.5,19.3,34.2,19.3z"/>
		<path class="st0" d="M37.9,21.2l-0.5-1c-0.1-0.2-0.2-0.4-0.2-0.5c0,0.2,0,0.4,0,0.6v0.9h-0.5v-2.3h0.7l0.5,0.9
			c0.1,0.2,0.2,0.4,0.3,0.6c0-0.2,0-0.5,0-0.7v-0.8h0.5v2.3H37.9L37.9,21.2z"/>
		<path class="st0" d="M43.3,20.4L43.3,20.4l-0.1,0.8h-0.5v-2.3c0.2,0,0.4,0,0.7,0c0.6,0,0.9,0.3,0.9,0.8
			C44.2,20,43.9,20.4,43.3,20.4z M43.3,19.3L43.3,19.3L43.2,20h0.1c0.2,0,0.4-0.1,0.4-0.4C43.6,19.4,43.5,19.3,43.3,19.3z"/>
		<path class="st0" d="M46.7,21.2l-0.1-0.4h-0.8l-0.1,0.4h-0.5l0.8-2.3h0.6l0.8,2.3H46.7z M46.2,19.8c0-0.1-0.1-0.2-0.1-0.3l0,0
			c0,0.1,0,0.2-0.1,0.3l-0.2,0.5h0.5L46.2,19.8z"/>
		<path class="st0" d="M49.2,20.4L49.2,20.4l-0.1,0.8h-0.5v-2.3c0.2,0,0.4,0,0.7,0c0.6,0,0.9,0.3,0.9,0.8
			C50.1,20,49.8,20.4,49.2,20.4z M49.2,19.3L49.2,19.3L49.1,20h0.1c0.2,0,0.4-0.1,0.4-0.4C49.5,19.4,49.4,19.3,49.2,19.3z"/>
		<path class="st0" d="M52.6,21.2l-0.1-0.4h-0.8l-0.1,0.4h-0.5l0.8-2.3h0.6l0.8,2.3H52.6z M52.1,19.8c0-0.1-0.1-0.2-0.1-0.3l0,0
			c0,0.1,0,0.2-0.1,0.3l-0.2,0.5h0.5L52.1,19.8z"/>
	</g>
	<g>
		<g>
			<path class="st0" d="M7.9,7.7c0.1,0.1,0,0.3,0,0.4c0,0.1-0.2,0.2-0.3,0.3C7.5,8.5,7.4,8.6,7.2,8.7C7.1,8.8,7,8.9,6.9,9
				S6.6,9.1,6.5,9.2C6.4,9.3,6.3,9.4,6.1,9.4C6,9.5,5.8,9.6,5.7,9.6C5.6,9.7,5.4,9.7,5.3,9.8C5.2,9.9,5.1,9.9,4.9,10
				C5,10.1,5,10.2,5.1,10.3c0.1,0.1,0.1,0.2,0.2,0.3c0.1,0.1,0.1,0.2,0.2,0.3c0,0.1,0.1,0.2,0.1,0.4c0,0.1,0.1,0.2,0.1,0.4
				c0,0.1,0.1,0.2,0.1,0.4c0,0.1,0.1,0.2,0.1,0.4c0,0.1,0.1,0.2,0.1,0.4c0,0.1,0,0.3,0,0.4s0.1,0.2,0.1,0.4c0,0.1,0,0.3,0,0.4
				s0,0.3,0.1,0.4c0,0.1,0,0.3,0.1,0.4c0,0.1,0.1,0.2,0.1,0.3s0.1,0.2,0.1,0.3s0,0.3,0,0.4s0.1,0.2,0.1,0.4c0,0.1,0,0.2,0,0.4
				c0,0.1,0,0.2,0,0.3s-0.1,0.2-0.1,0.4c0,0.1-0.1,0.2-0.2,0.3S6.1,17.9,6,18c-0.1,0.1-0.2,0.2-0.3,0.3c-0.1,0.1-0.2,0.1-0.3,0.1
				c-0.1,0-0.2,0-0.3-0.1C5,18.2,5,18.2,4.9,18.2c0,0-0.1,0.1-0.2,0c-0.1,0-0.1-0.4-0.1-0.4c0-0.1,0-0.3,0-0.4
				c0-0.1-0.1-0.3-0.1-0.4c0-0.1,0-0.3,0-0.4c0-0.1,0-0.3-0.1-0.4c0-0.1,0-0.3-0.1-0.4c0-0.1,0-0.3-0.1-0.4s0-0.3-0.1-0.4
				c0-0.1-0.1-0.2-0.1-0.4c0-0.1,0-0.2,0-0.4c0-0.1-0.1-0.2-0.1-0.4c0-0.1,0-0.2,0-0.4c0-0.1,0-0.2-0.1-0.4c0-0.1-0.1-0.2-0.1-0.3
				s0-0.2-0.1-0.4c0-0.1,0-0.2,0-0.4c0-0.1,0-0.2-0.1-0.4c0-0.1-0.1-0.2-0.1-0.4c0-0.1,0-0.3-0.1-0.4c0-0.1,0-0.3,0-0.4
				c-0.1,0.1-0.3,0.1-0.4,0.2c-0.1,0.1-0.3,0.1-0.4,0.1s-0.3,0.1-0.4,0.1c-0.1,0-0.3,0.1-0.4,0.2c-0.1,0-0.3,0.1-0.4,0.1
				s-0.1,0.5-0.2,0.5s-0.4,0.1-0.3-0.1c-0.4,0.1-0.3-0.1-0.1-0.2c-0.3,0.1,0-0.3,0.1-0.4c0.1-0.1,0.2-0.2,0.3-0.2
				c0.1-0.1,0.2-0.1,0.3-0.2c0.1-0.1,0.2-0.2,0.4-0.2C1.9,10.1,2,10.1,2.2,10c0.1-0.1,0.3-0.1,0.4-0.2C2.7,9.7,2.9,9.7,3,9.6
				c0-0.1,0.2-0.2,0.3-0.2c0.1-0.1,0.3-0.1,0.4-0.2C3.8,9.2,4,9.1,4.1,9c0.1,0,0.3-0.1,0.4-0.2c0.1-0.1,0.3-0.1,0.4-0.1
				C5,8.6,5.2,8.6,5.3,8.5c0.1,0,0.3-0.1,0.4-0.1C5.9,8.3,6,8.3,6.1,8.2c0.1,0,0.3,0,0.4-0.1c0.1,0,0.3-0.1,0.4-0.2
				c0.1,0,0.3-0.1,0.4-0.2c0.1,0-0.3,0.2-0.4,0.2c0,0,0,0,0.4-0.2C7.6,7.8,7.8,7.7,7.9,7.7z M5.9,16.7c0,0.1,0,0.1,0.1,0.2
				C5.9,16.8,5.9,16.7,5.9,16.7z M5.5,14.6C5.5,14.6,5.4,14.5,5.5,14.6C5.4,14.5,5.4,14.6,5.5,14.6z M5.4,14.5v0.1l0,0
				C5.4,14.4,5.4,14.4,5.4,14.5z M5.3,13.7c0,0.1,0,0.3,0,0.4s0,0.2,0.1,0.3c0-0.1,0-0.2-0.1-0.3C5.3,14,5.3,13.9,5.3,13.7z"/>
			<path class="st0" d="M15.7,14.3c0.1,0.1-0.2,0.3-0.3,0.4S15.1,15,15,15c-0.2,0.1-0.4,0.1-0.6,0.2c-0.2,0.1-0.3,0.2-0.5,0.3
				s-0.3,0.1-0.5,0.2c-0.1,0.1-0.3,0.1-0.5,0.2c-0.2,0.1-0.3,0.2-0.5,0.2s-0.4,0-0.5,0.1c-0.2,0-0.4,0-0.5,0c-0.2,0-0.3-0.1-0.4-0.1
				c-0.1-0.1-0.3-0.2-0.4-0.2c-0.1-0.1-0.2-0.2-0.3-0.3s-0.2-0.3-0.2-0.4S10,14.9,10,14.7c0-0.1,0-0.3,0-0.5c0-0.1,0-0.3,0-0.5
				s0-0.3,0-0.5s0-0.3,0-0.5s0.1-0.3,0.1-0.5s0-0.3,0-0.5s0-0.3,0-0.5s0-0.3,0-0.5s0-0.3,0-0.5s0-0.3,0-0.5s0-0.3,0-0.5
				s0.1-0.3,0.1-0.5s0-0.3,0-0.5s0.1-0.3,0.2-0.5c0.1-0.1,0.1-0.3,0.3-0.4C10.8,7.2,11,7.1,11.1,7c0.2-0.1,0.4-0.2,0.5-0.2
				c0.2,0,0.3,0,0.5,0.2c0.1,0.1,0.2,0.2,0.3,0.3c0,0.1,0.1,0.3,0.1,0.4s0,0.3,0,0.4c0,0.1,0.1,0.1,0.1,0.3c0,0.1,0,0.2,0,0.4
				s-0.1,0.4-0.1,0.6s0,0.3,0,0.5s-0.1,0.3-0.1,0.5s0,0.4,0,0.5c0,0.2,0,0.3-0.1,0.5c0,0.2,0,0.3,0,0.5c0,0.1-0.1,0.3,0,0.5
				c0,0.1,0,0.3,0,0.5s-0.1,0.3,0,0.5c0,0.2,0.1,0.3,0.1,0.5s0.1,0.3,0.2,0.5c0.1,0.1,0.2,0.3,0.4,0.3c0.2,0.1,0.4,0.1,0.6,0
				c0.2,0,0.4-0.1,0.6-0.1c0.2,0,0.3-0.1,0.5-0.1s0.3-0.1,0.5-0.1S15.5,14.3,15.7,14.3L15.7,14.3L15.7,14.3L15.7,14.3
				C15.5,14.3,15.7,14.3,15.7,14.3z M15.2,14.4L15.2,14.4L15.2,14.4z"/>
			<path class="st0" d="M22.8,14.1c0,0.1,0,0.2,0.1,0.3c-0.1,0.1-0.1,0.1-0.2,0.2s-0.1,0.1-0.2,0.2c-0.1,0-0.2,0.1-0.3,0.1
				c-0.1,0-0.2,0-0.3,0.1c-0.1,0-0.2,0-0.3-0.1c-0.1-0.1-0.1-0.2-0.1-0.3c-0.1-0.1-0.1-0.1-0.2-0.2c0-0.1-0.1-0.2-0.1-0.3
				s-0.1-0.2-0.1-0.3s0-0.2-0.1-0.3s-0.1-0.2-0.1-0.3s-0.1-0.2-0.1-0.3c-0.1-0.1-0.1-0.2-0.2-0.3c0-0.1-0.1-0.2-0.1-0.3
				c-0.1-0.1-0.1-0.2-0.2-0.3c0-0.1-0.1-0.2-0.1-0.3c0-0.1-0.1-0.2-0.1-0.3c-0.1-0.1-0.2-0.1-0.3-0.2c-0.1,0-0.2,0-0.3,0
				c-0.1,0-0.2,0.1-0.3,0.1s-0.2,0.2-0.3,0.2c0,0.1,0,0.2-0.1,0.3c0,0.1,0,0.2,0,0.3s0,0.2-0.1,0.3c0,0.1,0,0.2,0,0.3s0,0.2,0,0.3
				s0,0.2,0,0.3s0,0.2,0,0.3s-0.1,0.2-0.1,0.3s0,0.2,0,0.3s0,0.2-0.1,0.3c0,0.1,0,0.2-0.1,0.3c0,0.1-0.1,0.2-0.1,0.3
				c-0.1,0.1-0.1,0.1-0.2,0.2c0,0.1-0.1,0.2-0.1,0.3c-0.1,0.1-0.1,0.1-0.2,0.2s-0.1,0.1-0.2,0.2c-0.1,0.1-0.2,0.1-0.3,0.2
				c-0.1,0.1-0.1,0.1-0.2,0.2c-0.1,0-0.2,0.1-0.3,0.1c-0.1,0-0.2-0.1-0.3-0.1c0-0.1-0.1-0.2-0.1-0.3s0-0.2,0-0.3s0-0.2,0.1-0.3
				c0-0.1,0-0.2,0-0.3s0-0.2,0-0.3s0-0.2,0-0.3s0-0.2,0-0.3s0-0.2,0.1-0.3c0-0.1,0-0.2,0-0.3s0.1-0.2,0.1-0.3s0-0.2,0-0.3
				s0-0.2,0.1-0.3c0-0.1,0-0.2,0-0.3s0-0.2,0-0.3c-0.1,0-0.1,0-0.2-0.1c0-0.1,0.1-0.1,0.1-0.2c0.1-0.1,0.1-0.2,0.2-0.3
				c0-0.1,0.1-0.2,0.1-0.3c0-0.1,0-0.2,0-0.3c0-0.1,0.1-0.2,0.1-0.3c0-0.1,0-0.2,0.1-0.3c0-0.1,0-0.2,0-0.3c0-0.1,0-0.2,0.1-0.3
				c0-0.1,0-0.2,0.1-0.3c0-0.1,0-0.2,0.1-0.3c0-0.1,0-0.2,0-0.3c0-0.1,0-0.2,0.1-0.3c0-0.1,0-0.2,0-0.3c0-0.1,0.1-0.2,0.1-0.3
				c0-0.1,0-0.2,0.1-0.3c0-0.1,0.1-0.2,0.1-0.3C18,7.3,18,7.3,18.1,7.2s0.1-0.1,0.3-0.2c0.1-0.1,0.2-0.1,0.3-0.2
				c0.1-0.1,0.2-0.1,0.3-0.2c0.1,0,0.2,0,0.4,0c0.1,0.1,0.1,0.1,0.2,0.2s0.1,0.2,0.2,0.3c0,0.1,0.1,0.2,0.1,0.3
				C20,7.5,20,7.6,20,7.7c0.1,0.1,0.1,0.2,0.2,0.3c0,0.1,0.1,0.2,0.1,0.3c0.1,0.1,0.1,0.2,0.1,0.3c0.1,0.1,0.1,0.2,0.2,0.3
				s0.1,0.2,0.1,0.3s0.1,0.2,0.1,0.3c0.1,0.1,0.1,0.1,0.2,0.2c0,0.1,0.1,0.2,0.1,0.3c0.1,0.1,0.1,0.1,0.1,0.2c0,0.1,0.1,0.2,0.1,0.3
				c0.1,0.1,0.2,0.1,0.3,0.2c0.1,0,0.2,0,0.3,0c0.1,0,0.2,0,0.4-0.1c0.1,0.1,0.1,0.1,0.2,0.1c-0.1,0.1-0.1,0.1-0.2,0.2
				C22.2,11,22.1,11,22,11.1c-0.1,0.1-0.1,0.1-0.2,0.1c0,0,0,0,0,0.1c0,0,0,0-0.1-0.1c0.1,0.1,0.1,0.2,0.2,0.3s0.1,0.2,0.1,0.3
				s0.1,0.2,0.1,0.3c0.1,0.1,0.1,0.2,0.1,0.3c0.1,0.1,0.1,0.2,0.2,0.3c0,0.1,0,0.2,0.1,0.3c0,0.1,0.1,0.2,0.1,0.3s0.1,0.2,0.1,0.3
				s0,0.2,0.1,0.3s0.1,0.2,0.2,0.3C22.7,13.9,22.8,14,22.8,14.1z M19.7,10.8c0-0.1-0.1-0.1-0.1-0.2c0-0.1-0.1-0.1-0.1-0.3
				c0-0.1-0.1-0.2-0.1-0.3c-0.1-0.1-0.1-0.1-0.2-0.2c0-0.1-0.1-0.1-0.1-0.2c0,0.1,0,0.2,0,0.3c0,0.1,0,0.2,0,0.3
				c0,0.1,0,0.2-0.1,0.3c0,0.1,0,0.2,0,0.3c0,0.1,0,0.2,0,0.3l0,0c0.2,0,0.2-0.1,0.4-0.1C19.4,10.9,19.5,10.8,19.7,10.8z"/>
			<path class="st0" d="M31.7,8.5c-0.1,0.1-0.2,0.2-0.3,0.3c-0.1,0.1-0.2,0.2-0.3,0.3c-0.1,0.1-0.2,0.2-0.2,0.3
				c-0.1,0.1-0.2,0.2-0.3,0.3c-0.1,0.1-0.2,0.2-0.2,0.3c-0.1,0.1-0.2,0.2-0.2,0.3c-0.1,0.1-0.2,0.1-0.2,0.2
				c-0.1,0.1-0.1,0.2-0.2,0.3c0,0.2,0,0.3,0,0.5c0,0.1,0,0.3,0,0.4c0,0.1,0,0.3,0,0.4s0,0.3,0,0.4s0,0.3,0,0.4s0,0.3,0,0.4
				s0,0.3,0,0.4s0,0.3-0.1,0.4c0,0.1,0,0.3,0,0.4s0,0.3-0.1,0.4c0,0.1-0.1,0.2-0.1,0.4c0,0.1-0.1,0.2-0.1,0.4c0,0.1-0.1,0.2-0.1,0.4
				c0,0.1-0.1,0.2-0.2,0.3s-0.2,0.2-0.2,0.3c-0.1,0.1-0.1,0.2-0.2,0.3s-0.2,0.2-0.3,0.3c-0.1,0.1-0.2,0.2-0.3,0.3
				c-0.1,0.1-0.2,0.1-0.3,0.2s-0.2,0.1-0.3,0.2c-0.1,0-0.2,0-0.4,0.1c-0.1,0-0.2,0-0.4,0s-0.2,0-0.3-0.1c-0.1,0-0.3-0.1-0.4-0.1
				c-0.1-0.1-0.2-0.1-0.3-0.2c-0.1-0.1-0.1-0.2-0.2-0.4c0-0.1,0-0.3,0-0.4c0-0.1,0-0.3,0-0.4c0-0.1,0.1-0.3,0.1-0.4
				c0-0.1,0.1-0.2,0.1-0.4c0-0.1,0.1-0.2,0.2-0.3s0.1-0.2,0.2-0.4c0.1-0.1,0.1-0.2,0.2-0.3s0.1-0.3,0.1-0.4c0.1-0.1,0.1-0.2,0.2-0.4
				c0.1-0.1,0.2-0.2,0.2-0.3c0.1-0.1,0.1-0.2,0.2-0.3s0.2-0.2,0.2-0.3c0.1-0.1,0.1-0.2,0.2-0.3s0.1-0.2,0.2-0.3s0.1-0.2,0.2-0.3
				s0-0.4,0-0.5c0-0.1,0-0.3,0-0.4c0-0.1,0.2-0.5,0.2-0.6c0-0.1,0-0.3,0-0.4c-0.1,0.1-0.1,0.2-0.2,0.3s-0.1,0.2-0.2,0.3
				s-0.2,0.2-0.3,0.3c-0.1,0.1-0.2,0.2-0.3,0.2c-0.1,0.1-0.2,0.1-0.3,0.2c-0.1,0-0.2,0.2-0.4,0.2c-0.1,0-0.3,0.1-0.4,0.1
				s-0.3,0.1-0.4,0.1s-0.3,0-0.4,0s-0.3,0-0.4,0s-0.3-0.1-0.4-0.1s-0.2-0.1-0.3-0.2c-0.1-0.1-0.2-0.2-0.2-0.3
				c-0.1-0.1-0.2-0.2-0.2-0.3s0-0.3-0.1-0.4c0-0.1-0.1-0.2-0.2-0.3c-0.1-0.1-0.1-0.2-0.2-0.4c0-0.1-0.1-0.2-0.1-0.4
				c0-0.1-0.1-0.2-0.1-0.4c0-0.1,0-0.3,0-0.4c0-0.1-0.1-0.2-0.1-0.4c0-0.1-0.1-0.2-0.1-0.4c0-0.1,0-0.3,0-0.4c0-0.1,0-0.3,0-0.4
				c0-0.1,0-0.3,0-0.4c0-0.1,0.1-0.2,0.2-0.4C23,6.2,23,6,23.1,5.9s0.2-0.2,0.3-0.3c0.1-0.1,0.2-0.2,0.4-0.2
				c0.2-0.1,0.4-0.2,0.6-0.2s0.3,0,0.3,0.2c0,0.1,0,0.2,0,0.3s0,0.3,0,0.4c0,0.1,0,0.3,0,0.4c0,0.1,0,0.3,0.1,0.4
				c0,0.1,0.1,0.2,0.1,0.3S25,7.4,25,7.5s0.1,0.2,0.1,0.3c0,0.1,0.1,0.3,0.1,0.4c0,0.1,0.2,0.2,0.2,0.4c0,0.1,0.1,0.2,0.2,0.4
				c0.1,0.1,0.1,0.2,0.1,0.3c0.1,0.1,0.1,0.2,0.2,0.3c0.1,0.1,0.2,0.2,0.3,0.2s0.2,0.1,0.3,0.1c0-0.1,0.1-0.1,0.1-0.2
				c0.1-0.1,0.2-0.3,0.2-0.4c0-0.1,0.1-0.2,0.1-0.3s0-0.2,0.1-0.4c0-0.1,0.1-0.2,0.2-0.3c0-0.1,0.1-0.3,0.1-0.4s0.1-0.3,0.1-0.4
				c0-0.1,0.1-0.3,0.1-0.4c0-0.1,0-0.2,0-0.3s0-0.2,0.1-0.3c0-0.1,0-0.3,0.1-0.3c0.1-0.1,0.1-0.1,0.2-0.2c0.1-0.1,0.2-0.1,0.2-0.2
				c0.2-0.1,0.4-0.1,0.6-0.1s0.2,0.1,0.2,0.2c0,0.1-0.1,0.2-0.1,0.3s0.1,0.4,0.2,0.5c0,0.2,0.1,0.3,0.2,0.5c0,0.1,0,0.3,0,0.4
				s0,0.3,0,0.4c0,0.1,0.1,0.3,0.1,0.4c0,0.1,0.1,0.3,0.1,0.4c0,0.1,0,0.3,0.1,0.4c0,0.1,0,0.3,0.1,0.4c0.1-0.1,0.2-0.2,0.2-0.3
				C29.9,9.2,29.9,9.1,30,9c0.1-0.1,0.2-0.2,0.2-0.3c0.1-0.1,0.2-0.2,0.3-0.3c0.1-0.1,0.2-0.2,0.3-0.2C30.9,8.1,31,8,31.1,8
				c0.1,0,0.2-0.1,0.4-0.1c0.1,0-0.3,0,0,0C31.7,8.2,31.9,8.3,31.7,8.5z M28,13.1c-0.1,0.1-0.2,0.2-0.2,0.3
				c-0.1,0.1-0.1,0.2-0.2,0.3s-0.1,0.2-0.2,0.3s-0.2,0.2-0.2,0.3c-0.1,0.1-0.1,0.2-0.2,0.3s-0.1,0.2-0.1,0.4v0.1c0,0,0,0.1-0.1,0.3
				c0,0.1-0.1,0.2-0.2,0.4c0,0.1,0,0.3,0,0.4c0,0.1,0,0.3,0,0.4c0,0.1,0.1,0.2,0.2,0.3c0.1-0.1,0.1-0.2,0.2-0.3s0.1-0.2,0.2-0.3
				c0-0.1,0.1-0.2,0.2-0.3c0-0.1,0.1-0.2,0.1-0.4c0-0.1,0-0.3,0.1-0.4c0-0.1,0.1-0.2,0.1-0.4c0-0.1,0.1-0.2,0.1-0.4
				c0-0.1,0-0.2,0.1-0.4c0-0.1,0-0.3,0-0.4s0-0.3,0-0.4C28,13.3,28,13.2,28,13.1z M26.8,15.3C26.8,15.3,26.8,15.4,26.8,15.3
				C26.8,15.5,26.8,15.5,26.8,15.3z M26.7,10.6c0,0-0.1,0-0.1,0.1C26.6,10.7,26.6,10.7,26.7,10.6C26.6,10.7,26.6,10.7,26.7,10.6
				C26.6,10.7,26.7,10.7,26.7,10.6z"/>
			<path class="st0" d="M39.6,5.7c0,0.3-0.4,0.6-0.5,0.8c-0.2,0.2-0.6,0.3-0.9,0.4C38.1,7,37.8,7,37.7,7.1c-0.1,0.1,0,0.3,0,0.4
				c0.1,0.3,0.2,0.6,0.3,0.9s0.2,0.6,0.2,1c0,0.3,0.1,0.6,0,1c-0.1,0.3,0,0.7,0,1c0,0.2,0,0.5-0.2,0.7c-0.1,0.2-0.2,0.3-0.3,0.5
				c-0.1,0.4-0.3,0.7-0.6,1S36.4,14,36,14.3c-0.4,0.2-0.7,0.1-1.1,0.3c-0.4,0.1-0.9,0-1.3-0.2c-0.4-0.1-0.7-0.4-0.9-0.7
				c-0.5-0.6-0.6-1.6-0.7-2.3c0-0.2,0-0.5,0-0.7s0-0.4,0-0.6c0-0.4,0.1-0.8,0.2-1.2c0.1-0.2,0.1-0.5,0.2-0.7
				c0.1-0.2,0.2-0.4,0.3-0.6c0.2-0.4,0.3-0.8,0.7-1c0.2-0.1,0.3-0.3,0.5-0.4C34.1,6.1,34.2,6,34.5,6c0.5-0.1,0.8-0.3,1.3-0.2
				c0.3,0,0.8,0,0.9,0.4c0,0.2,0.2,0.3,0.2,0.4C37,6.8,37.1,7,37.2,7.2c0.6-0.4,0.9-1.1,1.7-1.3c0,0-0.2,0,0,0l0,0L38.8,6
				C39.1,5.7,39.7,5.4,39.6,5.7z M37,10.6c0-0.6-0.1-1.2-0.3-1.8c0,0,0,0.1,0,0V8.7l0,0l0.2,0.2c0.1-0.1-0.2-0.5-0.2-0.6
				c-0.1-0.2-0.2-0.6-0.4-0.7c-0.3-0.1-0.7,0-0.9,0c-0.1,0-0.3,0-0.4,0.1c-0.1,0.2-0.1,0.5-0.2,0.8c0,0.3-0.2,0.6-0.2,0.9
				c0,0.7-0.1,1.3,0.1,2c0.1,0.3,0.1,0.6,0.3,0.9c0.2,0.2,0.4,0.4,0.6,0.6c0.2,0.2,0.5,0.4,0.8,0.3s0.4-0.4,0.5-0.7
				c0.1-0.3,0.1-0.7,0.1-1C36.9,11.2,37,10.9,37,10.6z M35.5,6.5c0,0.3,0.1,0.5,0.4,0.6C35.8,6.9,35.7,6.8,35.5,6.5z"/>
			<path class="st0" d="M44.8,14.4c0,0.2-0.3,0.2-0.4,0.3c-0.2,0-0.4,0.1-0.5,0.2c-0.2,0-0.4,0-0.6,0c-0.2,0-0.4,0.1-0.5,0.1
				c-0.2,0-0.4,0-0.5,0c-0.2,0-0.3,0-0.5,0s-0.4,0-0.5,0c-0.2,0-0.4-0.1-0.5-0.1c-0.2,0-0.4-0.1-0.5-0.2s-0.3-0.2-0.4-0.3
				c-0.1-0.1-0.2-0.2-0.3-0.4c-0.1-0.1-0.1-0.3-0.1-0.4s-0.1-0.3-0.1-0.4s0-0.3,0-0.5c0-0.1,0.1-0.3,0.1-0.4s0.1-0.3,0.1-0.5
				c0-0.1,0.1-0.3,0.2-0.4c0.1-0.1,0.1-0.3,0.1-0.5c0.1-0.1,0.2-0.3,0.2-0.4c0-0.1,0.1-0.3,0.1-0.5c0.1-0.2,0.1-0.3,0.2-0.5
				c0.1-0.1,0.1-0.3,0.2-0.4c0.1-0.1,0.1-0.3,0.2-0.4c0.1-0.1,0.1-0.3,0.2-0.5c0.1-0.2,0.1-0.3,0.2-0.4c0.1-0.1,0.2-0.3,0.2-0.4
				c0.1-0.1,0.1-0.3,0.2-0.4c0.1-0.1,0.2-0.3,0.3-0.4c0.1-0.1,0.2-0.2,0.4-0.3c0.1-0.1,0.3-0.1,0.5-0.2c0.2,0,0.4-0.1,0.6,0
				c0.2,0,0.3,0.1,0.4,0.4c0,0.1,0.1,0.3,0.1,0.4c0,0.1,0,0.3-0.1,0.4c0,0.1-0.1,0.3-0.1,0.4s0,0.2,0,0.3s-0.1,0.2-0.2,0.3
				c-0.1,0.2-0.2,0.4-0.3,0.5c-0.1,0.1-0.1,0.3-0.2,0.5s-0.2,0.3-0.3,0.4c-0.1,0.2-0.1,0.3-0.2,0.5c-0.1,0.1-0.1,0.3-0.2,0.4
				c-0.1,0.1-0.1,0.3-0.2,0.4c-0.1,0.1-0.2,0.3-0.2,0.4c0,0.1-0.1,0.3-0.1,0.5c0,0.1-0.2,0.3-0.2,0.5s0,0.3,0,0.5s0,0.3,0,0.5
				c0,0.1,0.1,0.3,0.3,0.4s0.4,0.2,0.6,0.3c0.2,0,0.4,0.1,0.6,0.1c0.2,0,0.3,0,0.5,0s0.3,0.1,0.5,0.1s0.3,0,0.5,0.1l0,0l0,0h-0.1
				C44.6,14.3,44.7,14.3,44.8,14.4z M44.3,14.3L44.3,14.3L44.3,14.3z"/>
			<path class="st0" d="M53.2,8.6c-0.2,0-0.3,0.1-0.5,0.1s-0.4,0.1-0.5,0.1c-0.2,0-0.4,0.1-0.5,0.1c-0.2,0-0.4,0-0.5,0
				c-0.2,0-0.4,0-0.5,0c-0.2,0-0.1,0-0.2,0.2c0,0.1,0,0.2-0.1,0.3c0,0.1-0.1,0.2-0.2,0.3c0,0.1,0,0.2-0.1,0.3c0,0.1-0.1,0.3-0.1,0.5
				s-0.1,0.3-0.1,0.5c0,0.1-0.1,0.3-0.2,0.4c0,0.1-0.1,0.3-0.1,0.5c0,0.1-0.1,0.3-0.2,0.4c0,0.2,0,0.3-0.1,0.5
				c0,0.2-0.1,0.3-0.2,0.5c0,0.2-0.1,0.3-0.1,0.5c0,0.1-0.1,0.3-0.1,0.5c0,0.1-0.1,0.2-0.1,0.3s0,0.2-0.1,0.3c0,0.2,0,0.1,0.1,0.2
				c0.1,0,0.2,0.1,0.2,0.1c0.1,0,0.3-0.1,0.4-0.1c0.2,0,0.3,0,0.4,0c0.1,0,0.3,0,0.5,0.1c0.1,0,0.3,0.1,0.4,0.1
				c0.2,0.1,0.3,0.3,0.1,0.4c-0.1,0.1-0.3,0.1-0.4,0.2c-0.1,0.1-0.3,0.1-0.5,0.2c-0.2,0-0.3,0.1-0.5,0.1c-0.1,0-0.3,0-0.5,0
				s-0.3,0-0.5,0s-0.3,0-0.5,0c-0.1,0-0.3,0-0.5,0c-0.1,0-0.3,0-0.5,0s-0.3,0-0.5,0s-0.3-0.1-0.4-0.1c-0.1,0-0.3,0-0.4-0.1
				c-0.1,0-0.3,0-0.5,0s-0.3-0.1-0.4-0.3c0-0.1,0-0.3,0-0.4s0.1-0.2,0.3-0.3c0.1,0,0.3-0.1,0.4-0.1c0.1,0,0.3,0,0.4,0
				c0.1,0,0.2,0,0.4,0.1c0-0.1,0.1-0.3,0.1-0.4s0-0.3,0.1-0.4c0-0.1,0-0.3,0.1-0.4c0-0.1,0.1-0.3,0.1-0.4s0.1-0.3,0.1-0.4
				s0.1-0.3,0.1-0.4s0.1-0.3,0.1-0.4s0.1-0.3,0.1-0.4s0.1-0.3,0.1-0.4c0-0.1,0.1-0.3,0.2-0.4c0-0.1,0.1-0.3,0.1-0.4
				c0-0.1,0.1-0.3,0.1-0.4c0-0.1,0.2-0.3,0.2-0.4c0-0.1,0-0.3,0.1-0.4c0-0.1,0.1-0.3,0.1-0.4c-0.2,0-0.3,0-0.5,0
				c-0.1,0-0.3-0.1-0.5-0.1c-0.1,0-0.3,0-0.5,0s-0.6,0-0.7-0.1c0-0.1,0-0.3,0.1-0.4c0.1-0.1,0.3-0.2,0.4-0.3C46.4,8,46.6,8,46.8,8
				c0.2,0,0.4,0,0.6,0c0.2,0,0.4,0,0.6,0c0.2,0,0.4,0,0.6,0s0.4,0,0.5,0c0.2,0,0.4,0,0.6,0c0.2,0,0.4,0,0.5,0c0.2,0,0.4,0,0.5,0
				c0.2,0,0.4,0,0.6,0c0.2,0,0.4,0.1,0.6,0.1c0.1,0,0.3,0,0.4,0c0.1,0,0.2,0,0.3,0.1c0,0,0,0,0,0.1l0,0l0,0
				C53.3,8.3,53.5,8.5,53.2,8.6z"/>
			<path class="st0" d="M59.5,11.8c0,0.2-0.1,0.4-0.1,0.6c-0.1,0.4-0.5,0.3-0.9,0.3s-0.5-0.3-0.4-0.6c0.1-0.4,0.4-0.6,0.1-1
				c-0.2-0.3-0.7-0.7-1.1-0.4c-0.3,0.2-0.3,0.7-0.3,1c0,0.2,0,0.5,0.1,0.8c0,0.2,0.2,0.3,0.2,0.5c0.1,0.4,0.2,0.9,0.2,1.3
				s0.2,0.7,0.2,1.1c0,0.2,0,0.4,0,0.6c0,0.2-0.1,0.3-0.2,0.5c-0.2,0.4-0.3,0.6-0.7,0.9c-0.3,0.2-0.6,0.4-1,0.5
				c-0.4,0-0.9,0.1-1.4,0.1c-0.2,0-0.4-0.1-0.6-0.2c-0.2,0-0.4-0.1-0.6-0.2c-0.6-0.4-1.1-1.2-1-2c0-0.2,0-0.4,0-0.6
				c0.1-0.2,0.2-0.3,0.3-0.5c0.2-0.2,0.7-0.4,1-0.4c0.4,0,0.5,0.1,0.3,0.4s-0.4,0.6-0.2,0.9c0.2,0.4,0.4,0.7,0.7,1
				c0.1,0.1,0.3,0.2,0.5,0.1c0.1-0.1,0.3-0.2,0.4-0.3c0.3-0.3,0.3-0.7,0.3-1.1c0-0.2,0-0.4-0.1-0.6c0-0.2,0-0.4,0-0.5
				c-0.1-0.6-0.2-1-0.2-1.5c0-0.2-0.1-0.4-0.1-0.6s0.1-0.4,0.1-0.6c0-0.2-0.1-0.4,0-0.6s0.3-0.3,0.3-0.4c0.1-0.1,0.1-0.3,0.3-0.4
				c0.1-0.1,0.3-0.1,0.5-0.2c0.4-0.2,0.9-0.3,1.3-0.4c0.2,0,0.5,0,0.7,0s0.4,0.1,0.6,0.3c0.2,0.1,0.5,0.2,0.6,0.4
				c0.1,0.1,0.3,0.3,0.3,0.5c0.1,0.3,0.2,0.7,0,0.9c0,0.2,0,0.2,0,0.2l0,0c0.1,0,0-0.2,0.1-0.2C59.7,11.5,59.6,11.6,59.5,11.8z"/>
		</g>
	</g>
</g>
</svg>
