<?xml version="1.0" encoding="utf-8"?>
<!-- Generator: Adobe Illustrator 21.0.0, SVG Export Plug-In . SVG Version: 6.00 Build 0)  -->
<svg version="1.1" id="Layer_1" xmlns="http://www.w3.org/2000/svg" xmlns:xlink="http://www.w3.org/1999/xlink" x="0px" y="0px"
	 viewBox="0 0 60 41.2" style="enable-background:new 0 0 60 41.2;" xml:space="preserve">
<style type="text/css">
	.st0{fill:#FFFFFF;}
</style>
<g>
	<g>
		<path class="st0" d="M7.7,33.7c-0.2,0-0.5,0-0.7,0v-2.3c0.2,0,0.5,0,0.8,0c0.7,0,1.2,0.3,1.2,1.1C9,33.2,8.5,33.7,7.7,33.7z
			 M7.8,31.8c-0.1,0-0.2,0-0.2,0v1.4c0,0,0.1,0,0.2,0c0.4,0,0.6-0.2,0.6-0.7C8.4,32,8.3,31.8,7.8,31.8z"/>
		<path class="st0" d="M10.4,33.7v-2.3h1.3v0.4h-0.8v0.5h0.7v0.4h-0.7v0.5h0.8v0.5L10.4,33.7z"/>
		<path class="st0" d="M17.8,33.7l-0.1-1c0-0.2,0-0.4-0.1-0.5h0c0,0.2-0.1,0.4-0.1,0.5l-0.3,0.9h-0.5l-0.3-0.9
			c-0.1-0.2-0.1-0.4-0.2-0.6l0,0c0,0.2,0,0.4-0.1,0.6L16,33.7h-0.5l0.4-2.3h0.6l0.3,1c0,0.1,0.1,0.3,0.1,0.5h0
			c0-0.2,0.1-0.3,0.1-0.5l0.3-1H18l0.4,2.3L17.8,33.7L17.8,33.7z"/>
		<path class="st0" d="M21.1,33.7L21,33.2h-0.8L20,33.7h-0.5l0.8-2.3h0.6l0.8,2.3H21.1z M20.6,32.3c0-0.1-0.1-0.2-0.1-0.3h0
			c0,0.1,0,0.2-0.1,0.3l-0.2,0.5h0.5L20.6,32.3z"/>
		<path class="st0" d="M22.9,31.2l-0.1-0.3l0.8-0.3l0.1,0.4L22.9,31.2z M22.9,33.7v-2.3h0.5v2.3H22.9z"/>
		<path class="st0" d="M24.8,33.7v-0.4l0.8-1.3c0-0.1,0.1-0.1,0.1-0.2c-0.1,0-0.1,0-0.4,0h-0.5v-0.5h1.5v0.4l-0.8,1.3
			c0,0-0.1,0.1-0.1,0.1c0,0,0.2,0,0.4,0h0.4v0.5L24.8,33.7z"/>
		<path class="st0" d="M31.3,33.7c-0.9,0-1.1-0.6-1.1-1.1c0-0.8,0.4-1.3,1.2-1.3c0.2,0,0.3,0,0.5,0.1l-0.1,0.5
			c-0.1,0-0.3-0.1-0.4-0.1c-0.4,0-0.6,0.3-0.6,0.7c0,0.5,0.2,0.7,0.6,0.7c0.1,0,0.3,0,0.4-0.1l0.1,0.5
			C31.8,33.6,31.5,33.7,31.3,33.7z"/>
		<path class="st0" d="M34.2,33.7c-0.7,0-1.1-0.4-1.1-1.2c0-0.8,0.5-1.2,1.2-1.2c0.6,0,1.1,0.4,1.1,1.2
			C35.3,33.2,34.8,33.7,34.2,33.7z M34.2,31.8c-0.3,0-0.5,0.2-0.5,0.7c0,0.4,0.2,0.7,0.5,0.7c0.3,0,0.6-0.2,0.6-0.7
			C34.7,32,34.5,31.8,34.2,31.8z"/>
		<path class="st0" d="M37.9,33.7l-0.5-1c-0.1-0.2-0.2-0.4-0.2-0.5c0,0.2,0,0.4,0,0.6v0.9h-0.5v-2.3h0.7l0.5,0.9
			c0.1,0.2,0.2,0.4,0.3,0.6c0-0.2,0-0.5,0-0.7v-0.8h0.5v2.3L37.9,33.7L37.9,33.7z"/>
		<path class="st0" d="M43.3,32.9c0,0-0.1,0-0.1,0v0.8h-0.5v-2.3c0.2,0,0.4,0,0.7,0c0.6,0,0.9,0.3,0.9,0.8
			C44.2,32.5,43.9,32.9,43.3,32.9z M43.3,31.8c0,0-0.1,0-0.1,0v0.7c0,0,0.1,0,0.1,0c0.2,0,0.4-0.1,0.4-0.4
			C43.6,31.9,43.5,31.8,43.3,31.8z"/>
		<path class="st0" d="M46.7,33.7l-0.1-0.4h-0.8l-0.1,0.4h-0.5l0.8-2.3h0.6l0.8,2.3H46.7z M46.2,32.3c0-0.1-0.1-0.2-0.1-0.3h0
			c0,0.1,0,0.2-0.1,0.3l-0.2,0.5h0.5L46.2,32.3z"/>
		<path class="st0" d="M49.2,32.9c0,0-0.1,0-0.1,0v0.8h-0.5v-2.3c0.2,0,0.4,0,0.7,0c0.6,0,0.9,0.3,0.9,0.8
			C50.1,32.5,49.8,32.9,49.2,32.9z M49.2,31.8c0,0-0.1,0-0.1,0v0.7c0,0,0.1,0,0.1,0c0.2,0,0.4-0.1,0.4-0.4
			C49.5,31.9,49.4,31.8,49.2,31.8z"/>
		<path class="st0" d="M52.6,33.7l-0.1-0.4h-0.8l-0.1,0.4h-0.5l0.8-2.3h0.6l0.8,2.3H52.6z M52.1,32.3c0-0.1-0.1-0.2-0.1-0.3h0
			c0,0.1,0,0.2-0.1,0.3l-0.2,0.5h0.5L52.1,32.3z"/>
	</g>
	<g>
		<g>
			<path class="st0" d="M7.9,20.2c0.1,0.1,0,0.3,0,0.4c0,0.1-0.2,0.2-0.3,0.3c-0.1,0.1-0.2,0.2-0.4,0.3c-0.1,0.1-0.2,0.2-0.3,0.3
				c-0.1,0.1-0.3,0.1-0.4,0.2c-0.1,0.1-0.2,0.2-0.4,0.2C6,22,5.8,22.1,5.7,22.1c-0.1,0.1-0.3,0.1-0.4,0.2c-0.1,0.1-0.2,0.1-0.4,0.2
				c0.1,0.1,0.1,0.2,0.2,0.3c0.1,0.1,0.1,0.2,0.2,0.3c0.1,0.1,0.1,0.2,0.2,0.3c0,0.1,0.1,0.2,0.1,0.4c0,0.1,0.1,0.2,0.1,0.4
				c0,0.1,0.1,0.2,0.1,0.4c0,0.1,0.1,0.2,0.1,0.4c0,0.1,0.1,0.2,0.1,0.4c0,0.1,0,0.3,0,0.4c0,0.1,0.1,0.2,0.1,0.4c0,0.1,0,0.3,0,0.4
				c0,0.1,0,0.3,0.1,0.4c0,0.1,0,0.3,0.1,0.4c0,0.1,0.1,0.2,0.1,0.3c0,0.1,0.1,0.2,0.1,0.3c0,0.1,0,0.3,0,0.4c0,0.1,0.1,0.2,0.1,0.4
				c0,0.1,0,0.2,0,0.4c0,0.1,0,0.2,0,0.3c0,0.1-0.1,0.2-0.1,0.4c0,0.1-0.1,0.2-0.2,0.3c-0.1,0.1-0.2,0.2-0.3,0.3
				c-0.1,0.1-0.2,0.2-0.3,0.3c-0.1,0.1-0.2,0.1-0.3,0.1c-0.1,0-0.2,0-0.3-0.1c-0.1-0.1-0.1-0.1-0.2-0.1c0,0-0.1,0.1-0.2,0
				c-0.1,0-0.1-0.4-0.1-0.4c0-0.1,0-0.3,0-0.4c0-0.1-0.1-0.3-0.1-0.4s0-0.3,0-0.4c0-0.1,0-0.3-0.1-0.4c0-0.1,0-0.3-0.1-0.4
				c0-0.1,0-0.3-0.1-0.4s0-0.3-0.1-0.4c0-0.1-0.1-0.2-0.1-0.4c0-0.1,0-0.2,0-0.4c0-0.1-0.1-0.2-0.1-0.4c0-0.1,0-0.2,0-0.4
				c0-0.1,0-0.2-0.1-0.4c0-0.1-0.1-0.2-0.1-0.3c0-0.1,0-0.2-0.1-0.4c0-0.1,0-0.2,0-0.4c0-0.1,0-0.2-0.1-0.4c0-0.1-0.1-0.2-0.1-0.4
				c0-0.1,0-0.3-0.1-0.4c0-0.1,0-0.3,0-0.4c-0.1,0.1-0.3,0.1-0.4,0.2c-0.1,0.1-0.3,0.1-0.4,0.1c-0.1,0-0.3,0.1-0.4,0.1
				c-0.1,0-0.3,0.1-0.4,0.2c-0.1,0-0.3,0.1-0.4,0.1S1.2,24,1.1,24c-0.1,0-0.4,0.1-0.3-0.1c-0.4,0.1-0.3-0.1-0.1-0.2
				c-0.3,0.1,0-0.3,0.1-0.4c0.1-0.1,0.2-0.2,0.3-0.2c0.1-0.1,0.2-0.1,0.3-0.2c0.1-0.1,0.2-0.2,0.4-0.2c0.1-0.1,0.2-0.1,0.4-0.2
				c0.1-0.1,0.3-0.1,0.4-0.2c0.1-0.1,0.3-0.1,0.4-0.2C3,22,3.2,21.9,3.3,21.9c0.1-0.1,0.3-0.1,0.4-0.2c0.1,0,0.3-0.1,0.4-0.2
				c0.1,0,0.3-0.1,0.4-0.2c0.1-0.1,0.3-0.1,0.4-0.1c0.1-0.1,0.3-0.1,0.4-0.2c0.1,0,0.3-0.1,0.4-0.1c0.2-0.1,0.3-0.1,0.4-0.2
				c0.1,0,0.3,0,0.4-0.1c0.1,0,0.3-0.1,0.4-0.2c0.1,0,0.3-0.1,0.4-0.2c0.1,0-0.3,0.2-0.4,0.2c0,0,0,0,0.4-0.2
				C7.6,20.3,7.8,20.2,7.9,20.2z M5.9,29.2c0,0.1,0,0.1,0.1,0.2C5.9,29.3,5.9,29.2,5.9,29.2z M5.5,27.1C5.5,27.1,5.4,27,5.5,27.1
				C5.4,27,5.4,27.1,5.5,27.1z M5.4,27c0,0,0,0.1,0,0.1c0,0,0,0,0,0C5.4,26.9,5.4,26.9,5.4,27z M5.3,26.2c0,0.1,0,0.3,0,0.4
				c0,0.1,0,0.2,0.1,0.3c0-0.1,0-0.2-0.1-0.3C5.3,26.5,5.3,26.4,5.3,26.2z"/>
			<path class="st0" d="M15.7,26.8c0.1,0.1-0.2,0.3-0.3,0.4c-0.1,0.1-0.3,0.3-0.4,0.3c-0.2,0.1-0.4,0.1-0.6,0.2
				c-0.2,0.1-0.3,0.2-0.5,0.3c-0.2,0.1-0.3,0.1-0.5,0.2c-0.1,0.1-0.3,0.1-0.5,0.2c-0.2,0.1-0.3,0.2-0.5,0.2c-0.2,0-0.4,0-0.5,0.1
				c-0.2,0-0.4,0-0.5,0c-0.2,0-0.3-0.1-0.4-0.1c-0.1-0.1-0.3-0.2-0.4-0.2c-0.1-0.1-0.2-0.2-0.3-0.3c-0.1-0.1-0.2-0.3-0.2-0.4
				c0-0.1-0.1-0.3-0.1-0.5c0-0.1,0-0.3,0-0.5c0-0.1,0-0.3,0-0.5c0-0.2,0-0.3,0-0.5c0-0.2,0-0.3,0-0.5c0-0.2,0.1-0.3,0.1-0.5
				s0-0.3,0-0.5c0-0.2,0-0.3,0-0.5c0-0.2,0-0.3,0-0.5c0-0.2,0-0.3,0-0.5c0-0.2,0-0.3,0-0.5c0-0.2,0-0.3,0-0.5c0-0.2,0.1-0.3,0.1-0.5
				c0-0.2,0-0.3,0-0.5c0-0.2,0.1-0.3,0.2-0.5c0.1-0.1,0.1-0.3,0.3-0.4c0.1-0.1,0.3-0.2,0.4-0.3c0.2-0.1,0.4-0.2,0.5-0.2
				c0.2,0,0.3,0,0.5,0.2c0.1,0.1,0.2,0.2,0.3,0.3c0,0.1,0.1,0.3,0.1,0.4c0,0.1,0,0.3,0,0.4c0,0.1,0.1,0.1,0.1,0.3c0,0.1,0,0.2,0,0.4
				c0,0.2-0.1,0.4-0.1,0.6c0,0.2,0,0.3,0,0.5c0,0.2-0.1,0.3-0.1,0.5c0,0.2,0,0.4,0,0.5c0,0.2,0,0.3-0.1,0.5c0,0.2,0,0.3,0,0.5
				c0,0.1-0.1,0.3,0,0.5c0,0.1,0,0.3,0,0.5c0,0.2-0.1,0.3,0,0.5c0,0.2,0.1,0.3,0.1,0.5c0,0.2,0.1,0.3,0.2,0.5
				c0.1,0.1,0.2,0.3,0.4,0.3c0.2,0.1,0.4,0.1,0.6,0c0.2,0,0.4-0.1,0.6-0.1c0.2,0,0.3-0.1,0.5-0.1c0.2,0,0.3-0.1,0.5-0.1
				c0.2,0,0.3-0.1,0.5-0.1c0,0,0,0,0,0c0,0,0,0,0,0c0,0-0.1,0-0.1,0C15.5,26.8,15.7,26.8,15.7,26.8z M15.2,26.9
				C15.2,26.9,15.2,26.9,15.2,26.9C15.2,26.9,15.2,26.9,15.2,26.9z"/>
			<path class="st0" d="M22.8,26.6c0,0.1,0,0.2,0.1,0.3c-0.1,0.1-0.1,0.1-0.2,0.2c-0.1,0.1-0.1,0.1-0.2,0.2c-0.1,0-0.2,0.1-0.3,0.1
				c-0.1,0-0.2,0-0.3,0.1c-0.1,0-0.2,0-0.3-0.1c-0.1-0.1-0.1-0.2-0.1-0.3c-0.1-0.1-0.1-0.1-0.2-0.2c0-0.1-0.1-0.2-0.1-0.3
				c0-0.1-0.1-0.2-0.1-0.3c0-0.1,0-0.2-0.1-0.3c-0.1-0.1-0.1-0.2-0.1-0.3c0-0.1-0.1-0.2-0.1-0.3c-0.1-0.1-0.1-0.2-0.2-0.3
				c0-0.1-0.1-0.2-0.1-0.3c-0.1-0.1-0.1-0.2-0.2-0.3c0-0.1-0.1-0.2-0.1-0.3c0-0.1-0.1-0.2-0.1-0.3c-0.1-0.1-0.2-0.1-0.3-0.2
				c-0.1,0-0.2,0-0.3,0c-0.1,0-0.2,0.1-0.3,0.1S19,24,18.9,24c0,0.1,0,0.2-0.1,0.3c0,0.1,0,0.2,0,0.3c0,0.1,0,0.2-0.1,0.3
				c0,0.1,0,0.2,0,0.3c0,0.1,0,0.2,0,0.3c0,0.1,0,0.2,0,0.3c0,0.1,0,0.2,0,0.3c0,0.1-0.1,0.2-0.1,0.3c0,0.1,0,0.2,0,0.3
				c0,0.1,0,0.2-0.1,0.3c0,0.1,0,0.2-0.1,0.3c0,0.1-0.1,0.2-0.1,0.3c-0.1,0.1-0.1,0.1-0.2,0.2c0,0.1-0.1,0.2-0.1,0.3
				c-0.1,0.1-0.1,0.1-0.2,0.2c-0.1,0.1-0.1,0.1-0.2,0.2c-0.1,0.1-0.2,0.1-0.3,0.2c-0.1,0.1-0.1,0.1-0.2,0.2c-0.1,0-0.2,0.1-0.3,0.1
				c-0.1,0-0.2-0.1-0.3-0.1c0-0.1-0.1-0.2-0.1-0.3c0-0.1,0-0.2,0-0.3c0-0.1,0-0.2,0.1-0.3c0-0.1,0-0.2,0-0.3c0-0.1,0-0.2,0-0.3
				c0-0.1,0-0.2,0-0.3c0-0.1,0-0.2,0-0.3c0-0.1,0-0.2,0.1-0.3c0-0.1,0-0.2,0-0.3c0-0.1,0.1-0.2,0.1-0.3c0-0.1,0-0.2,0-0.3
				c0-0.1,0-0.2,0.1-0.3c0-0.1,0-0.2,0-0.3c0-0.1,0-0.2,0-0.3c-0.1,0-0.1,0-0.2-0.1c0-0.1,0.1-0.1,0.1-0.2c0.1-0.1,0.1-0.2,0.2-0.3
				c0-0.1,0.1-0.2,0.1-0.3c0-0.1,0-0.2,0-0.3c0-0.1,0.1-0.2,0.1-0.3c0-0.1,0-0.2,0.1-0.3c0-0.1,0-0.2,0-0.3c0-0.1,0-0.2,0.1-0.3
				c0-0.1,0-0.2,0.1-0.3c0-0.1,0-0.2,0.1-0.3c0-0.1,0-0.2,0-0.3c0-0.1,0-0.2,0.1-0.3c0-0.1,0-0.2,0-0.3c0-0.1,0.1-0.2,0.1-0.3
				c0-0.1,0-0.2,0.1-0.3c0-0.1,0.1-0.2,0.1-0.3c0.1-0.1,0.1-0.1,0.2-0.2c0.1-0.1,0.1-0.1,0.3-0.2c0.1-0.1,0.2-0.1,0.3-0.2
				c0.1-0.1,0.2-0.1,0.3-0.2c0.1,0,0.2,0,0.4,0c0.1,0.1,0.1,0.1,0.2,0.2c0.1,0.1,0.1,0.2,0.2,0.3c0,0.1,0.1,0.2,0.1,0.3
				c0.1,0.1,0.1,0.2,0.1,0.3c0.1,0.1,0.1,0.2,0.2,0.3c0,0.1,0.1,0.2,0.1,0.3c0.1,0.1,0.1,0.2,0.1,0.3c0.1,0.1,0.1,0.2,0.2,0.3
				c0.1,0.1,0.1,0.2,0.1,0.3s0.1,0.2,0.1,0.3c0.1,0.1,0.1,0.1,0.2,0.2c0,0.1,0.1,0.2,0.1,0.3c0.1,0.1,0.1,0.1,0.1,0.2
				c0,0.1,0.1,0.2,0.1,0.3c0.1,0.1,0.2,0.1,0.3,0.2c0.1,0,0.2,0,0.3,0c0.1,0,0.2,0,0.4-0.1c0.1,0.1,0.1,0.1,0.2,0.1
				c-0.1,0.1-0.1,0.1-0.2,0.2c-0.1,0.1-0.2,0.1-0.3,0.2c-0.1,0.1-0.1,0.1-0.2,0.1c0,0,0,0,0,0.1c0,0,0,0-0.1-0.1
				c0.1,0.1,0.1,0.2,0.2,0.3c0.1,0.1,0.1,0.2,0.1,0.3c0,0.1,0.1,0.2,0.1,0.3c0.1,0.1,0.1,0.2,0.1,0.3c0.1,0.1,0.1,0.2,0.2,0.3
				c0,0.1,0,0.2,0.1,0.3c0,0.1,0.1,0.2,0.1,0.3c0,0.1,0.1,0.2,0.1,0.3c0,0.1,0,0.2,0.1,0.3c0.1,0.1,0.1,0.2,0.2,0.3
				C22.7,26.4,22.8,26.5,22.8,26.6z M19.7,23.3c0-0.1-0.1-0.1-0.1-0.2c0-0.1-0.1-0.1-0.1-0.3c0-0.1-0.1-0.2-0.1-0.3
				c-0.1-0.1-0.1-0.1-0.2-0.2c0-0.1-0.1-0.1-0.1-0.2c0,0.1,0,0.2,0,0.3c0,0.1,0,0.2,0,0.3c0,0.1,0,0.2-0.1,0.3c0,0.1,0,0.2,0,0.3
				c0,0.1,0,0.2,0,0.3c0,0,0,0,0,0c0.2,0,0.2-0.1,0.4-0.1C19.4,23.4,19.5,23.3,19.7,23.3z"/>
			<path class="st0" d="M31.7,21c-0.1,0.1-0.2,0.2-0.3,0.3c-0.1,0.1-0.2,0.2-0.3,0.3c-0.1,0.1-0.2,0.2-0.2,0.3
				c-0.1,0.1-0.2,0.2-0.3,0.3c-0.1,0.1-0.2,0.2-0.2,0.3c-0.1,0.1-0.2,0.2-0.2,0.3c-0.1,0.1-0.2,0.1-0.2,0.2
				c-0.1,0.1-0.1,0.2-0.2,0.3c0,0.2,0,0.3,0,0.5c0,0.1,0,0.3,0,0.4c0,0.1,0,0.3,0,0.4c0,0.1,0,0.3,0,0.4c0,0.1,0,0.3,0,0.4
				c0,0.1,0,0.3,0,0.4c0,0.1,0,0.3,0,0.4c0,0.1,0,0.3-0.1,0.4c0,0.1,0,0.3,0,0.4c0,0.1,0,0.3-0.1,0.4c0,0.1-0.1,0.2-0.1,0.4
				c0,0.1-0.1,0.2-0.1,0.4c0,0.1-0.1,0.2-0.1,0.4c0,0.1-0.1,0.2-0.2,0.3c-0.1,0.1-0.2,0.2-0.2,0.3c-0.1,0.1-0.1,0.2-0.2,0.3
				c-0.1,0.1-0.2,0.2-0.3,0.3c-0.1,0.1-0.2,0.2-0.3,0.3c-0.1,0.1-0.2,0.1-0.3,0.2c-0.1,0.1-0.2,0.1-0.3,0.2c-0.1,0-0.2,0-0.4,0.1
				c-0.1,0-0.2,0-0.4,0s-0.2,0-0.3-0.1c-0.1,0-0.3-0.1-0.4-0.1c-0.1-0.1-0.2-0.1-0.3-0.2c-0.1-0.1-0.1-0.2-0.2-0.4
				c0-0.1,0-0.3,0-0.4s0-0.3,0-0.4c0-0.1,0.1-0.3,0.1-0.4c0-0.1,0.1-0.2,0.1-0.4c0-0.1,0.1-0.2,0.2-0.3c0.1-0.1,0.1-0.2,0.2-0.4
				c0.1-0.1,0.1-0.2,0.2-0.3c0.1-0.1,0.1-0.3,0.1-0.4c0.1-0.1,0.1-0.2,0.2-0.4c0.1-0.1,0.2-0.2,0.2-0.3c0.1-0.1,0.1-0.2,0.2-0.3
				c0.1-0.1,0.2-0.2,0.2-0.3c0.1-0.1,0.1-0.2,0.2-0.3c0.1-0.1,0.1-0.2,0.2-0.3c0.1-0.1,0.1-0.2,0.2-0.3c0.1-0.1,0-0.4,0-0.5
				c0-0.1,0-0.3,0-0.4S28,23.2,28,23.1c0-0.1,0-0.3,0-0.4c-0.1,0.1-0.1,0.2-0.2,0.3c-0.1,0.1-0.1,0.2-0.2,0.3
				c-0.1,0.1-0.2,0.2-0.3,0.3c-0.1,0.1-0.2,0.2-0.3,0.2c-0.1,0.1-0.2,0.1-0.3,0.2c-0.1,0-0.2,0.2-0.4,0.2c-0.1,0-0.3,0.1-0.4,0.1
				c-0.1,0-0.3,0.1-0.4,0.1c-0.1,0-0.3,0-0.4,0s-0.3,0-0.4,0c-0.1,0-0.3-0.1-0.4-0.1c-0.1,0-0.2-0.1-0.3-0.2
				c-0.1-0.1-0.2-0.2-0.2-0.3c-0.1-0.1-0.2-0.2-0.2-0.3c0-0.1,0-0.3-0.1-0.4c0-0.1-0.1-0.2-0.2-0.3c-0.1-0.1-0.1-0.2-0.2-0.4
				c0-0.1-0.1-0.2-0.1-0.4c0-0.1-0.1-0.2-0.1-0.4c0-0.1,0-0.3,0-0.4c0-0.1-0.1-0.2-0.1-0.4c0-0.1-0.1-0.2-0.1-0.4c0-0.1,0-0.3,0-0.4
				c0-0.1,0-0.3,0-0.4c0-0.1,0-0.3,0-0.4c0-0.1,0.1-0.2,0.2-0.4c0.1-0.1,0.1-0.3,0.2-0.4c0.1-0.1,0.2-0.2,0.3-0.3
				c0.1-0.1,0.2-0.2,0.4-0.2c0.2-0.1,0.4-0.2,0.6-0.2c0.2,0,0.3,0,0.3,0.2c0,0.1,0,0.2,0,0.3c0,0.1,0,0.3,0,0.4c0,0.1,0,0.3,0,0.4
				c0,0.1,0,0.3,0.1,0.4c0,0.1,0.1,0.2,0.1,0.3c0,0.1,0.1,0.2,0.1,0.3c0,0.1,0.1,0.2,0.1,0.3c0,0.1,0.1,0.3,0.1,0.4
				c0,0.1,0.2,0.2,0.2,0.4c0,0.1,0.1,0.2,0.2,0.4c0.1,0.1,0.1,0.2,0.1,0.3c0.1,0.1,0.1,0.2,0.2,0.3c0.1,0.1,0.2,0.2,0.3,0.2
				c0.1,0,0.2,0.1,0.3,0.1c0-0.1,0.1-0.1,0.1-0.2c0.1-0.1,0.2-0.3,0.2-0.4c0-0.1,0.1-0.2,0.1-0.3c0-0.1,0-0.2,0.1-0.4
				c0-0.1,0.1-0.2,0.2-0.3c0-0.1,0.1-0.3,0.1-0.4c0-0.1,0.1-0.3,0.1-0.4c0-0.1,0.1-0.3,0.1-0.4c0-0.1,0-0.2,0-0.3
				c0-0.1,0-0.2,0.1-0.3c0-0.1,0-0.3,0.1-0.3c0.1-0.1,0.1-0.1,0.2-0.2c0.1-0.1,0.2-0.1,0.2-0.2c0.2-0.1,0.4-0.1,0.6-0.1
				c0.2,0,0.2,0.1,0.2,0.2c0,0.1-0.1,0.2-0.1,0.3c0,0.1,0.1,0.4,0.2,0.5c0,0.2,0.1,0.3,0.2,0.5c0,0.1,0,0.3,0,0.4c0,0.1,0,0.3,0,0.4
				c0,0.1,0.1,0.3,0.1,0.4c0,0.1,0.1,0.3,0.1,0.4c0,0.1,0,0.3,0.1,0.4c0,0.1,0,0.3,0.1,0.4c0.1-0.1,0.2-0.2,0.2-0.3
				c0.1-0.1,0.1-0.2,0.2-0.3c0.1-0.1,0.2-0.2,0.2-0.3c0.1-0.1,0.2-0.2,0.3-0.3c0.1-0.1,0.2-0.2,0.3-0.2c0.1-0.1,0.2-0.2,0.3-0.2
				c0.1,0,0.2-0.1,0.4-0.1c0.1,0-0.3,0,0,0C31.7,20.7,31.9,20.8,31.7,21z M28,25.6c-0.1,0.1-0.2,0.2-0.2,0.3
				c-0.1,0.1-0.1,0.2-0.2,0.3c-0.1,0.1-0.1,0.2-0.2,0.3c-0.1,0.1-0.2,0.2-0.2,0.3c-0.1,0.1-0.1,0.2-0.2,0.3
				c-0.1,0.1-0.1,0.2-0.1,0.4c0,0,0,0.1,0,0.1c0,0,0,0.1-0.1,0.3c0,0.1-0.1,0.2-0.2,0.4c0,0.1,0,0.3,0,0.4c0,0.1,0,0.3,0,0.4
				c0,0.1,0.1,0.2,0.2,0.3c0.1-0.1,0.1-0.2,0.2-0.3c0.1-0.1,0.1-0.2,0.2-0.3c0-0.1,0.1-0.2,0.2-0.3c0-0.1,0.1-0.2,0.1-0.4
				c0-0.1,0-0.3,0.1-0.4c0-0.1,0.1-0.2,0.1-0.4c0-0.1,0.1-0.2,0.1-0.4c0-0.1,0-0.2,0.1-0.4c0-0.1,0-0.3,0-0.4c0-0.1,0-0.3,0-0.4
				C28,25.8,28,25.7,28,25.6z M26.8,27.8C26.8,27.8,26.8,27.9,26.8,27.8C26.8,28,26.8,28,26.8,27.8z M26.7,23.1c0,0-0.1,0-0.1,0.1
				C26.6,23.2,26.6,23.2,26.7,23.1C26.6,23.2,26.6,23.2,26.7,23.1C26.6,23.2,26.7,23.2,26.7,23.1z"/>
			<path class="st0" d="M39.6,18.2c0,0.3-0.4,0.6-0.5,0.8c-0.2,0.2-0.6,0.3-0.9,0.4c-0.1,0.1-0.4,0.1-0.5,0.2s0,0.3,0,0.4
				c0.1,0.3,0.2,0.6,0.3,0.9c0.1,0.3,0.2,0.6,0.2,1c0,0.3,0.1,0.6,0,1c-0.1,0.3,0,0.7,0,1c0,0.2,0,0.5-0.2,0.7
				c-0.1,0.2-0.2,0.3-0.3,0.5c-0.1,0.4-0.3,0.7-0.6,1c-0.3,0.3-0.7,0.4-1.1,0.7c-0.4,0.2-0.7,0.1-1.1,0.3c-0.4,0.1-0.9,0-1.3-0.2
				c-0.4-0.1-0.7-0.4-0.9-0.7c-0.5-0.6-0.6-1.6-0.7-2.3c0-0.2,0-0.5,0-0.7c0-0.2,0-0.4,0-0.6c0-0.4,0.1-0.8,0.2-1.2
				c0.1-0.2,0.1-0.5,0.2-0.7c0.1-0.2,0.2-0.4,0.3-0.6c0.2-0.4,0.3-0.8,0.7-1c0.2-0.1,0.3-0.3,0.5-0.4c0.2-0.1,0.3-0.2,0.6-0.2
				c0.5-0.1,0.8-0.3,1.3-0.2c0.3,0,0.8,0,0.9,0.4c0,0.2,0.2,0.3,0.2,0.4c0.1,0.2,0.2,0.4,0.3,0.6c0.6-0.4,0.9-1.1,1.7-1.3
				c0,0-0.2,0,0,0c0,0,0,0,0,0c0,0-0.1,0.1-0.1,0.1C39.1,18.2,39.7,17.9,39.6,18.2z M37,23.1c0-0.6-0.1-1.2-0.3-1.8c0,0,0,0.1,0,0
				c0,0,0-0.1,0-0.1c0,0,0,0,0,0c0,0,0.2,0.2,0.2,0.2c0.1-0.1-0.2-0.5-0.2-0.6c-0.1-0.2-0.2-0.6-0.4-0.7c-0.3-0.1-0.7,0-0.9,0
				c-0.1,0-0.3,0-0.4,0.1c-0.1,0.2-0.1,0.5-0.2,0.8c0,0.3-0.2,0.6-0.2,0.9c0,0.7-0.1,1.3,0.1,2c0.1,0.3,0.1,0.6,0.3,0.9
				c0.2,0.2,0.4,0.4,0.6,0.6c0.2,0.2,0.5,0.4,0.8,0.3c0.3-0.1,0.4-0.4,0.5-0.7c0.1-0.3,0.1-0.7,0.1-1C36.9,23.7,37,23.4,37,23.1z
				 M35.5,19c0,0.3,0.1,0.5,0.4,0.6C35.8,19.4,35.7,19.3,35.5,19z"/>
			<path class="st0" d="M44.8,26.9c0,0.2-0.3,0.2-0.4,0.3c-0.2,0-0.4,0.1-0.5,0.2c-0.2,0-0.4,0-0.6,0c-0.2,0-0.4,0.1-0.5,0.1
				c-0.2,0-0.4,0-0.5,0c-0.2,0-0.3,0-0.5,0c-0.2,0-0.4,0-0.5,0c-0.2,0-0.4-0.1-0.5-0.1c-0.2,0-0.4-0.1-0.5-0.2
				c-0.1-0.1-0.3-0.2-0.4-0.3c-0.1-0.1-0.2-0.2-0.3-0.4c-0.1-0.1-0.1-0.3-0.1-0.4c0-0.1-0.1-0.3-0.1-0.4s0-0.3,0-0.5
				c0-0.1,0.1-0.3,0.1-0.4c0-0.1,0.1-0.3,0.1-0.5c0-0.1,0.1-0.3,0.2-0.4s0.1-0.3,0.1-0.5c0.1-0.1,0.2-0.3,0.2-0.4
				c0-0.1,0.1-0.3,0.1-0.5c0.1-0.2,0.1-0.3,0.2-0.5c0.1-0.1,0.1-0.3,0.2-0.4s0.1-0.3,0.2-0.4c0.1-0.1,0.1-0.3,0.2-0.5
				c0.1-0.2,0.1-0.3,0.2-0.4c0.1-0.1,0.2-0.3,0.2-0.4c0.1-0.1,0.1-0.3,0.2-0.4c0.1-0.1,0.2-0.3,0.3-0.4c0.1-0.1,0.2-0.2,0.4-0.3
				c0.1-0.1,0.3-0.1,0.5-0.2c0.2,0,0.4-0.1,0.6,0c0.2,0,0.3,0.1,0.4,0.4c0,0.1,0.1,0.3,0.1,0.4c0,0.1,0,0.3-0.1,0.4
				c0,0.1-0.1,0.3-0.1,0.4c0,0.1,0,0.2,0,0.3c0,0.1-0.1,0.2-0.2,0.3c-0.1,0.2-0.2,0.4-0.3,0.5c-0.1,0.1-0.1,0.3-0.2,0.5
				c-0.1,0.2-0.2,0.3-0.3,0.4c-0.1,0.2-0.1,0.3-0.2,0.5c-0.1,0.1-0.1,0.3-0.2,0.4c-0.1,0.1-0.1,0.3-0.2,0.4
				c-0.1,0.1-0.2,0.3-0.2,0.4c0,0.1-0.1,0.3-0.1,0.5c0,0.1-0.2,0.3-0.2,0.5s0,0.3,0,0.5c0,0.2,0,0.3,0,0.5c0,0.1,0.1,0.3,0.3,0.4
				c0.2,0.1,0.4,0.2,0.6,0.3c0.2,0,0.4,0.1,0.6,0.1c0.2,0,0.3,0,0.5,0c0.2,0,0.3,0.1,0.5,0.1c0.2,0,0.3,0,0.5,0.1c0,0,0,0,0,0
				c0,0,0,0,0,0c0,0-0.1,0-0.1,0C44.6,26.8,44.7,26.8,44.8,26.9z M44.3,26.8C44.3,26.8,44.3,26.8,44.3,26.8
				C44.3,26.8,44.3,26.8,44.3,26.8z"/>
			<path class="st0" d="M53.2,21.1c-0.2,0-0.3,0.1-0.5,0.1s-0.4,0.1-0.5,0.1c-0.2,0-0.4,0.1-0.5,0.1c-0.2,0-0.4,0-0.5,0
				c-0.2,0-0.4,0-0.5,0c-0.2,0-0.1,0-0.2,0.2c0,0.1,0,0.2-0.1,0.3c0,0.1-0.1,0.2-0.2,0.3c0,0.1,0,0.2-0.1,0.3c0,0.1-0.1,0.3-0.1,0.5
				c0,0.2-0.1,0.3-0.1,0.5c0,0.1-0.1,0.3-0.2,0.4c0,0.1-0.1,0.3-0.1,0.5c0,0.1-0.1,0.3-0.2,0.4c0,0.2,0,0.3-0.1,0.5
				c0,0.2-0.1,0.3-0.2,0.5c0,0.2-0.1,0.3-0.1,0.5c0,0.1-0.1,0.3-0.1,0.5c0,0.1-0.1,0.2-0.1,0.3c0,0.1,0,0.2-0.1,0.3
				c0,0.2,0,0.1,0.1,0.2c0.1,0,0.2,0.1,0.2,0.1c0.1,0,0.3-0.1,0.4-0.1c0.2,0,0.3,0,0.4,0c0.1,0,0.3,0,0.5,0.1c0.1,0,0.3,0.1,0.4,0.1
				c0.2,0.1,0.3,0.3,0.1,0.4c-0.1,0.1-0.3,0.1-0.4,0.2c-0.1,0.1-0.3,0.1-0.5,0.2c-0.2,0-0.3,0.1-0.5,0.1c-0.1,0-0.3,0-0.5,0
				c-0.2,0-0.3,0-0.5,0c-0.2,0-0.3,0-0.5,0c-0.1,0-0.3,0-0.5,0c-0.1,0-0.3,0-0.5,0c-0.2,0-0.3,0-0.5,0s-0.3-0.1-0.4-0.1
				c-0.1,0-0.3,0-0.4-0.1c-0.1,0-0.3,0-0.5,0c-0.2,0-0.3-0.1-0.4-0.3c0-0.1,0-0.3,0-0.4c0-0.1,0.1-0.2,0.3-0.3
				c0.1,0,0.3-0.1,0.4-0.1c0.1,0,0.3,0,0.4,0c0.1,0,0.2,0,0.4,0.1c0-0.1,0.1-0.3,0.1-0.4c0-0.1,0-0.3,0.1-0.4c0-0.1,0-0.3,0.1-0.4
				c0-0.1,0.1-0.3,0.1-0.4c0-0.1,0.1-0.3,0.1-0.4c0-0.1,0.1-0.3,0.1-0.4c0-0.1,0.1-0.3,0.1-0.4c0-0.1,0.1-0.3,0.1-0.4
				c0-0.1,0.1-0.3,0.1-0.4c0-0.1,0.1-0.3,0.2-0.4c0-0.1,0.1-0.3,0.1-0.4s0.1-0.3,0.1-0.4c0-0.1,0.2-0.3,0.2-0.4c0-0.1,0-0.3,0.1-0.4
				c0-0.1,0.1-0.3,0.1-0.4c-0.2,0-0.3,0-0.5,0c-0.1,0-0.3-0.1-0.5-0.1c-0.1,0-0.3,0-0.5,0c-0.2,0-0.6,0-0.7-0.1c0-0.1,0-0.3,0.1-0.4
				c0.1-0.1,0.3-0.2,0.4-0.3c0.2-0.1,0.4-0.1,0.6-0.1c0.2,0,0.4,0,0.6,0c0.2,0,0.4,0,0.6,0c0.2,0,0.4,0,0.6,0s0.4,0,0.5,0
				c0.2,0,0.4,0,0.6,0c0.2,0,0.4,0,0.5,0c0.2,0,0.4,0,0.5,0c0.2,0,0.4,0,0.6,0c0.2,0,0.4,0.1,0.6,0.1c0.1,0,0.3,0,0.4,0
				c0.1,0,0.2,0,0.3,0.1c0,0,0,0,0,0.1c0,0,0,0,0,0c0,0,0,0,0,0C53.3,20.8,53.5,21,53.2,21.1z"/>
			<path class="st0" d="M59.5,24.3c0,0.2-0.1,0.4-0.1,0.6c-0.1,0.4-0.5,0.3-0.9,0.3c-0.4,0-0.5-0.3-0.4-0.6c0.1-0.4,0.4-0.6,0.1-1
				c-0.2-0.3-0.7-0.7-1.1-0.4c-0.3,0.2-0.3,0.7-0.3,1c0,0.2,0,0.5,0.1,0.8c0,0.2,0.2,0.3,0.2,0.5c0.1,0.4,0.2,0.9,0.2,1.3
				c0,0.4,0.2,0.7,0.2,1.1c0,0.2,0,0.4,0,0.6c0,0.2-0.1,0.3-0.2,0.5c-0.2,0.4-0.3,0.6-0.7,0.9c-0.3,0.2-0.6,0.4-1,0.5
				c-0.4,0-0.9,0.1-1.4,0.1c-0.2,0-0.4-0.1-0.6-0.2c-0.2,0-0.4-0.1-0.6-0.2c-0.6-0.4-1.1-1.2-1-2c0-0.2,0-0.4,0-0.6
				c0.1-0.2,0.2-0.3,0.3-0.5c0.2-0.2,0.7-0.4,1-0.4c0.4,0,0.5,0.1,0.3,0.4c-0.2,0.3-0.4,0.6-0.2,0.9c0.2,0.4,0.4,0.7,0.7,1
				c0.1,0.1,0.3,0.2,0.5,0.1c0.1-0.1,0.3-0.2,0.4-0.3c0.3-0.3,0.3-0.7,0.3-1.1c0-0.2,0-0.4-0.1-0.6c0-0.2,0-0.4,0-0.5
				C55.1,25.9,55,25.5,55,25c0-0.2-0.1-0.4-0.1-0.6c0-0.2,0.1-0.4,0.1-0.6c0-0.2-0.1-0.4,0-0.6c0.1-0.2,0.3-0.3,0.3-0.4
				c0.1-0.1,0.1-0.3,0.3-0.4c0.1-0.1,0.3-0.1,0.5-0.2c0.4-0.2,0.9-0.3,1.3-0.4c0.2,0,0.5,0,0.7,0c0.2,0,0.4,0.1,0.6,0.3
				c0.2,0.1,0.5,0.2,0.6,0.4c0.1,0.1,0.3,0.3,0.3,0.5c0.1,0.3,0.2,0.7,0,0.9c0,0.2,0,0.2,0,0.2c0,0,0,0,0,0c0.1,0,0-0.2,0.1-0.2
				C59.7,24,59.6,24.1,59.5,24.3z"/>
		</g>
	</g>
</g>
</svg>
