<svg viewBox="0 0 60 26.7" xmlns="http://www.w3.org/2000/svg"><g fill="#fff"><path d="m7.7 21.2c-.2 0-.5 0-.7 0v-2.3h.8c.7 0 1.2.3 1.2 1.1 0 .7-.5 1.2-1.3 1.2zm.1-1.9c-.1 0-.2 0-.2 0v1.4h.2c.4 0 .6-.2.6-.7s-.1-.7-.6-.7z"/><path d="m10.4 21.2v-2.3h1.3v.4h-.8v.5h.7v.4h-.7v.5h.8v.5z"/><path d="m17.8 21.2-.1-1c0-.2 0-.4-.1-.5 0 .2-.1.4-.1.5l-.3.9h-.5l-.3-.9c-.1-.2-.1-.4-.2-.6 0 .2 0 .4-.1.6l-.1 1h-.5l.4-2.3h.6l.3 1c0 .1.1.3.1.5 0-.2.1-.3.1-.5l.3-1h.7l.4 2.3z"/><path d="m21.1 21.2-.1-.5h-.8l-.2.5h-.5l.8-2.3h.6l.8 2.3zm-.5-1.4c0-.1-.1-.2-.1-.3 0 .1 0 .2-.1.3l-.2.5h.5z"/><path d="m22.9 18.7-.1-.3.8-.3.1.4zm0 2.5v-2.3h.5v2.3z"/><path d="m24.8 21.2v-.4l.8-1.3c0-.1.1-.1.1-.2-.1 0-.1 0-.4 0h-.5v-.5h1.5v.4l-.8 1.3-.1.1h.4.4v.5z"/><path d="m31.3 21.2c-.9 0-1.1-.6-1.1-1.1 0-.8.4-1.3 1.2-1.3.2 0 .3 0 .5.1l-.1.5c-.1 0-.3-.1-.4-.1-.4 0-.6.3-.6.7 0 .5.2.7.6.7.1 0 .3 0 .4-.1l.1.5c-.1 0-.4.1-.6.1z"/><path d="m34.2 21.2c-.7 0-1.1-.4-1.1-1.2s.5-1.2 1.2-1.2c.6 0 1.1.4 1.1 1.2-.1.7-.6 1.2-1.2 1.2zm0-1.9c-.3 0-.5.2-.5.7 0 .4.2.7.5.7s.6-.2.6-.7c-.1-.5-.3-.7-.6-.7z"/><path d="m37.9 21.2-.5-1c-.1-.2-.2-.4-.2-.5v.6.9h-.5v-2.3h.7l.5.9c.1.2.2.4.3.6 0-.2 0-.5 0-.7v-.8h.5v2.3z"/><path d="m43.3 20.4-.1.8h-.5v-2.3h.7c.6 0 .9.3.9.8-.1.3-.4.7-1 .7zm0-1.1-.1.7h.1c.2 0 .4-.1.4-.4-.1-.2-.2-.3-.4-.3z"/><path d="m46.7 21.2-.1-.4h-.8l-.1.4h-.5l.8-2.3h.6l.8 2.3zm-.5-1.4c0-.1-.1-.2-.1-.3 0 .1 0 .2-.1.3l-.2.5h.5z"/><path d="m49.2 20.4-.1.8h-.5v-2.3h.7c.6 0 .9.3.9.8-.1.3-.4.7-1 .7zm0-1.1-.1.7h.1c.2 0 .4-.1.4-.4-.1-.2-.2-.3-.4-.3z"/><path d="m52.6 21.2-.1-.4h-.8l-.1.4h-.5l.8-2.3h.6l.8 2.3zm-.5-1.4c0-.1-.1-.2-.1-.3 0 .1 0 .2-.1.3l-.2.5h.5z"/><path d="m7.9 7.7c.1.1 0 .3 0 .4s-.2.2-.3.3-.2.2-.4.3c-.1.1-.2.2-.3.3s-.3.1-.4.2-.2.2-.4.2c-.1.1-.3.2-.4.2-.1.1-.3.1-.4.2s-.2.1-.4.2c.1.1.1.2.2.3s.1.2.2.3.1.2.2.3c0 .1.1.2.1.4 0 .1.1.2.1.4 0 .1.1.2.1.4 0 .1.1.2.1.4 0 .1.1.2.1.4v.4s.1.2.1.4v.4s0 .3.1.4c0 .1 0 .3.1.4 0 .1.1.2.1.3s.1.2.1.3 0 .3 0 .4.1.2.1.4v.4.3s-.1.2-.1.4c0 .1-.1.2-.2.3s-.2.2-.3.3-.2.2-.3.3-.2.1-.3.1-.2 0-.3-.1-.1-.1-.2-.1c0 0-.1.1-.2 0-.1 0-.1-.4-.1-.4 0-.1 0-.3 0-.4s-.1-.3-.1-.4 0-.3 0-.4 0-.3-.1-.4c0-.1 0-.3-.1-.4 0-.1 0-.3-.1-.4s0-.3-.1-.4c0-.1-.1-.2-.1-.4 0-.1 0-.2 0-.4 0-.1-.1-.2-.1-.4 0-.1 0-.2 0-.4 0-.1 0-.2-.1-.4 0-.1-.1-.2-.1-.3s0-.2-.1-.4c0-.1 0-.2 0-.4 0-.1 0-.2-.1-.4 0-.1-.1-.2-.1-.4 0-.1 0-.3-.1-.4 0-.1 0-.3 0-.4-.1.1-.3.1-.4.2s-.3.1-.4.1-.3.1-.4.1-.3.1-.4.2c-.1 0-.3.1-.4.1s-.1.5-.2.5-.4.1-.3-.1c-.4.1-.3-.1-.1-.2-.3.1 0-.3.1-.4s.2-.2.3-.2c.1-.1.2-.1.3-.2s.2-.2.4-.2c.1-.1.2-.1.4-.2.1-.1.3-.1.4-.2s.3-.1.4-.2c0-.1.2-.2.3-.2.1-.1.3-.1.4-.2.1 0 .3-.1.4-.2.1 0 .3-.1.4-.2s.3-.1.4-.1c.1-.1.3-.1.4-.2.1 0 .3-.1.4-.1.2-.1.3-.1.4-.2.1 0 .3 0 .4-.1.1 0 .3-.1.4-.2.1 0 .3-.1.4-.2.1 0-.3.2-.4.2 0 0 0 0 .4-.2.3.1.5 0 .6 0zm-2 9c0 .1 0 .1.1.2-.1-.1-.1-.2-.1-.2zm-.4-2.1s-.1-.1 0 0c-.1-.1-.1 0 0 0zm-.1-.1v.1c0-.2 0-.2 0-.1zm-.1-.8v.4s0 .2.1.3c0-.1 0-.2-.1-.3 0-.1 0-.2 0-.4z"/><path d="m15.7 14.3c.1.1-.2.3-.3.4s-.3.3-.4.3c-.2.1-.4.1-.6.2s-.3.2-.5.3-.3.1-.5.2c-.1.1-.3.1-.5.2s-.3.2-.5.2-.4 0-.5.1c-.2 0-.4 0-.5 0-.2 0-.3-.1-.4-.1-.1-.1-.3-.2-.4-.2-.1-.1-.2-.2-.3-.3s-.2-.3-.2-.4-.1-.3-.1-.5c0-.1 0-.3 0-.5 0-.1 0-.3 0-.5s0-.3 0-.5 0-.3 0-.5.1-.3.1-.5 0-.3 0-.5 0-.3 0-.5 0-.3 0-.5 0-.3 0-.5 0-.3 0-.5 0-.3 0-.5.1-.3.1-.5 0-.3 0-.5.1-.3.2-.5c.1-.1.1-.3.3-.4.1-.1.3-.2.4-.3.2-.1.4-.2.5-.2.2 0 .3 0 .5.2.1.1.2.2.3.3 0 .1.1.3.1.4s0 .3 0 .4.1.1.1.3v.4s-.1.4-.1.6 0 .3 0 .5-.1.3-.1.5 0 .4 0 .5c0 .2 0 .3-.1.5v.5c0 .1-.1.3 0 .5v.5s-.1.3 0 .5c0 .2.1.3.1.5s.1.3.2.5c.1.1.2.3.4.3.2.1.4.1.6 0 .2 0 .4-.1.6-.1s.3-.1.5-.1.3-.1.5-.1.3-.1.5-.1c-.2 0 0 0 0 0z"/><path d="m22.8 14.1c0 .1 0 .2.1.3-.1.1-.1.1-.2.2s-.1.1-.2.2c-.1 0-.2.1-.3.1s-.2 0-.3.1c-.1 0-.2 0-.3-.1s-.1-.2-.1-.3c-.1-.1-.1-.1-.2-.2 0-.1-.1-.2-.1-.3s-.1-.2-.1-.3 0-.2-.1-.3-.1-.2-.1-.3-.1-.2-.1-.3c-.1-.1-.1-.2-.2-.3 0-.1-.1-.2-.1-.3-.1-.1-.1-.2-.2-.3 0-.1-.1-.2-.1-.3s-.1-.2-.1-.3c-.1-.1-.2-.1-.3-.2-.1 0-.2 0-.3 0s-.2.1-.3.1-.2.2-.3.2c0 .1 0 .2-.1.3v.3s0 .2-.1.3v.3s0 .2 0 .3 0 .2 0 .3 0 .2 0 .3-.1.2-.1.3 0 .2 0 .3 0 .2-.1.3c0 .1 0 .2-.1.3 0 .1-.1.2-.1.3-.1.1-.1.1-.2.2 0 .1-.1.2-.1.3-.1.1-.1.1-.2.2s-.1.1-.2.2-.2.1-.3.2-.1.1-.2.2c-.1 0-.2.1-.3.1s-.2-.1-.3-.1c0-.1-.1-.2-.1-.3s0-.2 0-.3 0-.2.1-.3c0-.1 0-.2 0-.3s0-.2 0-.3 0-.2 0-.3 0-.2 0-.3 0-.2.1-.3c0-.1 0-.2 0-.3s.1-.2.1-.3 0-.2 0-.3 0-.2.1-.3c0-.1 0-.2 0-.3s0-.2 0-.3c-.1 0-.1 0-.2-.1 0-.1.1-.1.1-.2.1-.1.1-.2.2-.3 0-.1.1-.2.1-.3s0-.2 0-.3.1-.2.1-.3 0-.2.1-.3c0-.1 0-.2 0-.3s0-.2.1-.3c0-.1 0-.2.1-.3 0-.1 0-.2.1-.3 0-.1 0-.2 0-.3s0-.2.1-.3c0-.1 0-.2 0-.3s.1-.2.1-.3 0-.2.1-.3c0-.1.1-.2.1-.3.1-.1.1-.1.2-.2s.1-.1.3-.2c.1-.1.2-.1.3-.2s.2-.1.3-.2h.4c.1.1.1.1.2.2s.1.2.2.3c0 .1.1.2.1.3.1.1.1.2.1.3.1.1.1.2.2.3 0 .1.1.2.1.3.1.1.1.2.1.3.1.1.1.2.2.3s.1.2.1.3.1.2.1.3c.1.1.1.1.2.2 0 .1.1.2.1.3.1.1.1.1.1.2s.1.2.1.3c.1.1.2.1.3.2h.3c.1 0 .2 0 .4-.1.1.1.1.1.2.1-.1.1-.1.1-.2.2s-.2.1-.3.2-.1.1-.2.1v.1s0 0-.1-.1c.1.1.1.2.2.3s.1.2.1.3.1.2.1.3c.1.1.1.2.1.3.1.1.1.2.2.3 0 .1 0 .2.1.3 0 .1.1.2.1.3s.1.2.1.3 0 .2.1.3.1.2.2.3c-.3-.3-.2-.2-.2-.1zm-3.1-3.3c0-.1-.1-.1-.1-.2s-.1-.1-.1-.3c0-.1-.1-.2-.1-.3-.1-.1-.1-.1-.2-.2 0-.1-.1-.1-.1-.2v.3.3c0 .1 0 .2-.1.3v.3.3c.2 0 .2-.1.4-.1 0-.1.1-.2.3-.2z"/><path d="m31.7 8.5c-.1.1-.2.2-.3.3s-.2.2-.3.3-.2.2-.2.3c-.1.1-.2.2-.3.3s-.2.2-.2.3c-.1.1-.2.2-.2.3-.1.1-.2.1-.2.2-.1.1-.1.2-.2.3v.5.4.4s0 .3 0 .4 0 .3 0 .4 0 .3 0 .4 0 .3 0 .4 0 .3-.1.4v.4s0 .3-.1.4c0 .1-.1.2-.1.4 0 .1-.1.2-.1.4 0 .1-.1.2-.1.4 0 .1-.1.2-.2.3s-.2.2-.2.3c-.1.1-.1.2-.2.3s-.2.2-.3.3-.2.2-.3.3-.2.1-.3.2-.2.1-.3.2c-.1 0-.2 0-.4.1-.1 0-.2 0-.4 0s-.2 0-.3-.1c-.1 0-.3-.1-.4-.1-.1-.1-.2-.1-.3-.2s-.1-.2-.2-.4c0-.1 0-.3 0-.4s0-.3 0-.4.1-.3.1-.4.1-.2.1-.4c0-.1.1-.2.2-.3s.1-.2.2-.4c.1-.1.1-.2.2-.3s.1-.3.1-.4c.1-.1.1-.2.2-.4.1-.1.2-.2.2-.3.1-.1.1-.2.2-.3s.2-.2.2-.3c.1-.1.1-.2.2-.3s.1-.2.2-.3.1-.2.2-.3 0-.4 0-.5 0-.3 0-.4.2-.5.2-.6 0-.3 0-.4c-.1.1-.1.2-.2.3s-.1.2-.2.3-.2.2-.3.3-.2.2-.3.2c-.1.1-.2.1-.3.2-.1 0-.2.2-.4.2-.1 0-.3.1-.4.1s-.3.1-.4.1-.3 0-.4 0-.3 0-.4 0-.3-.1-.4-.1-.2-.1-.3-.2-.2-.2-.2-.3c-.1-.1-.2-.2-.2-.3s0-.3-.1-.4c0-.1-.1-.2-.2-.3s-.1-.2-.2-.4c0-.1-.1-.2-.1-.4 0-.1-.1-.2-.1-.4 0-.1 0-.3 0-.4s-.1-.2-.1-.4c0-.1-.1-.2-.1-.4 0-.1 0-.3 0-.4s0-.3 0-.4 0-.3 0-.4.1-.2.2-.4c.1-.1.1-.3.2-.4s.2-.2.3-.3.2-.2.4-.2c.2-.1.4-.2.6-.2s.3 0 .3.2v.3s0 .3 0 .4v.4c0 .1 0 .3.1.4 0 .1.1.2.1.3s.1.2.1.3.1.2.1.3.1.3.1.4.2.2.2.4c0 .1.1.2.2.4.1.1.1.2.1.3.1.1.1.2.2.3s.2.2.3.2.2.1.3.1c0-.1.1-.1.1-.2.1-.1.2-.3.2-.4s.1-.2.1-.3 0-.2.1-.4c0-.1.1-.2.2-.3 0-.1.1-.3.1-.4s.1-.3.1-.4.1-.3.1-.4 0-.2 0-.3 0-.2.1-.3c0-.1 0-.3.1-.3.1-.1.1-.1.2-.2s.2-.1.2-.2c.2-.1.4-.1.6-.1s.2.1.2.2-.1.2-.1.3.1.4.2.5c0 .2.1.3.2.5v.4s0 .3 0 .4.1.3.1.4.1.3.1.4 0 .3.1.4c0 .1 0 .3.1.4.1-.1.2-.2.2-.3.1-.1.1-.2.2-.3s.2-.2.2-.3c.1-.1.2-.2.3-.3s.2-.2.3-.2c.1-.1.2-.2.3-.2s.2-.1.4-.1c.2.3.4.4.2.6zm-3.7 4.6c-.1.1-.2.2-.2.3-.1.1-.1.2-.2.3s-.1.2-.2.3-.2.2-.2.3c-.1.1-.1.2-.2.3s-.1.2-.1.4v.1s0 .1-.1.3c0 .1-.1.2-.2.4v.4.4c0 .1.1.2.2.3.1-.1.1-.2.2-.3s.1-.2.2-.3c0-.1.1-.2.2-.3 0-.1.1-.2.1-.4 0-.1 0-.3.1-.4 0-.1.1-.2.1-.4 0-.1.1-.2.1-.4 0-.1 0-.2.1-.4 0-.1 0-.3 0-.4s0-.3 0-.4c.1.1.1 0 .1-.1zm-1.2 2.2s0 .1 0 0c0 .2 0 .2 0 0zm-.1-4.7s-.1 0-.1.1c0 0 0 0 .1-.1-.1.1 0 .1 0 0z"/><path d="m39.6 5.7c0 .3-.4.6-.5.8-.2.2-.6.3-.9.4-.1.1-.4.1-.5.2s0 .3 0 .4c.1.3.2.6.3.9s.2.6.2 1c0 .3.1.6 0 1-.1.3 0 .7 0 1 0 .2 0 .5-.2.7-.1.2-.2.3-.3.5-.1.4-.3.7-.6 1s-.7.4-1.1.7c-.4.2-.7.1-1.1.3-.4.1-.9 0-1.3-.2-.4-.1-.7-.4-.9-.7-.5-.6-.6-1.6-.7-2.3 0-.2 0-.5 0-.7s0-.4 0-.6c0-.4.1-.8.2-1.2.1-.2.1-.5.2-.7s.2-.4.3-.6c.2-.4.3-.8.7-1 .2-.1.3-.3.5-.4.2-.1.3-.2.6-.2.5-.1.8-.3 1.3-.2.3 0 .8 0 .9.4 0 .2.2.3.2.4.1.2.2.4.3.6.6-.4.9-1.1 1.7-1.3l-.1.1c.3-.3.9-.6.8-.3zm-2.6 4.9c0-.6-.1-1.2-.3-1.8 0 0 0 .1 0 0v-.1l.2.2c.1-.1-.2-.5-.2-.6-.1-.2-.2-.6-.4-.7-.3-.1-.7 0-.9 0-.1 0-.3 0-.4.1-.1.2-.1.5-.2.8 0 .3-.2.6-.2.9 0 .7-.1 1.3.1 2 .1.3.1.6.3.9.2.2.4.4.6.6s.5.4.8.3.4-.4.5-.7.1-.7.1-1c-.1-.3 0-.6 0-.9zm-1.5-4.1c0 .3.1.5.4.6-.1-.2-.2-.3-.4-.6z"/><path d="m44.8 14.4c0 .2-.3.2-.4.3-.2 0-.4.1-.5.2-.2 0-.4 0-.6 0s-.4.1-.5.1c-.2 0-.4 0-.5 0-.2 0-.3 0-.5 0s-.4 0-.5 0c-.2 0-.4-.1-.5-.1-.2 0-.4-.1-.5-.2s-.3-.2-.4-.3-.2-.2-.3-.4c-.1-.1-.1-.3-.1-.4s-.1-.3-.1-.4 0-.3 0-.5c0-.1.1-.3.1-.4s.1-.3.1-.5c0-.1.1-.3.2-.4s.1-.3.1-.5c.1-.1.2-.3.2-.4s.1-.3.1-.5c.1-.2.1-.3.2-.5.1-.1.1-.3.2-.4s.1-.3.2-.4.1-.3.2-.5.1-.3.2-.4.2-.3.2-.4c.1-.1.1-.3.2-.4s.2-.3.3-.4.2-.2.4-.3c.1-.1.3-.1.5-.2.2 0 .4-.1.6 0 .2 0 .3.1.4.4 0 .1.1.3.1.4s0 .3-.1.4c0 .1-.1.3-.1.4s0 .2 0 .3-.1.2-.2.3c-.1.2-.2.4-.3.5s-.1.3-.2.5-.2.3-.3.4c-.1.2-.1.3-.2.5-.1.1-.1.3-.2.4s-.1.3-.2.4-.2.3-.2.4-.1.3-.1.5c0 .1-.2.3-.2.5s0 .3 0 .5 0 .3 0 .5c0 .1.1.3.3.4s.4.2.6.3c.2 0 .4.1.6.1h.5s.3.1.5.1.3 0 .5.1h-.1c.1-.1.2-.1.3 0z"/><path d="m53.2 8.6c-.2 0-.3.1-.5.1s-.4.1-.5.1c-.2 0-.4.1-.5.1-.2 0-.4 0-.5 0-.2 0-.4 0-.5 0-.2 0-.1 0-.2.2 0 .1 0 .2-.1.3 0 .1-.1.2-.2.3 0 .1 0 .2-.1.3 0 .1-.1.3-.1.5s-.1.3-.1.5c0 .1-.1.3-.2.4 0 .1-.1.3-.1.5 0 .1-.1.3-.2.4 0 .2 0 .3-.1.5 0 .2-.1.3-.2.5 0 .2-.1.3-.1.5 0 .1-.1.3-.1.5 0 .1-.1.2-.1.3s0 .2-.1.3c0 .2 0 .1.1.2.1 0 .2.1.2.1.1 0 .3-.1.4-.1h.4c.1 0 .3 0 .5.1.1 0 .3.1.4.1.2.1.3.3.1.4-.1.1-.3.1-.4.2s-.3.1-.5.2c-.2 0-.3.1-.5.1-.1 0-.3 0-.5 0s-.3 0-.5 0-.3 0-.5 0c-.1 0-.3 0-.5 0-.1 0-.3 0-.5 0s-.3 0-.5 0-.3-.1-.4-.1-.3 0-.4-.1c-.1 0-.3 0-.5 0s-.3-.1-.4-.3c0-.1 0-.3 0-.4s.1-.2.3-.3c.1 0 .3-.1.4-.1h.4c.1 0 .2 0 .4.1 0-.1.1-.3.1-.4s0-.3.1-.4c0-.1 0-.3.1-.4 0-.1.1-.3.1-.4s.1-.3.1-.4.1-.3.1-.4.1-.3.1-.4.1-.3.1-.4.1-.3.1-.4.1-.3.2-.4c0-.1.1-.3.1-.4s.1-.3.1-.4.2-.3.2-.4 0-.3.1-.4c0-.1.1-.3.1-.4-.2 0-.3 0-.5 0-.1 0-.3-.1-.5-.1-.1 0-.3 0-.5 0s-.6 0-.7-.1c0-.1 0-.3.1-.4s.3-.2.4-.3c.2-.1.4-.1.6-.1h.6.6.6s.4 0 .5 0h.6.5.5.6c.2 0 .4.1.6.1h.4c.1 0 .2 0 .3.1v.1c.7 0 .9.2.6.3z"/><path d="m59.5 11.8c0 .2-.1.4-.1.6-.1.4-.5.3-.9.3s-.5-.3-.4-.6c.1-.4.4-.6.1-1-.2-.3-.7-.7-1.1-.4-.3.2-.3.7-.3 1 0 .2 0 .5.1.8 0 .2.2.3.2.5.1.4.2.9.2 1.3s.2.7.2 1.1v.6c0 .2-.1.3-.2.5-.2.4-.3.6-.7.9-.3.2-.6.4-1 .5-.4 0-.9.1-1.4.1-.2 0-.4-.1-.6-.2-.2 0-.4-.1-.6-.2-.6-.4-1.1-1.2-1-2 0-.2 0-.4 0-.6.1-.2.2-.3.3-.5.2-.2.7-.4 1-.4.4 0 .5.1.3.4s-.4.6-.2.9c.2.4.4.7.7 1 .1.1.3.2.5.1.1-.1.3-.2.4-.3.3-.3.3-.7.3-1.1 0-.2 0-.4-.1-.6 0-.2 0-.4 0-.5-.1-.6-.2-1-.2-1.5 0-.2-.1-.4-.1-.6s.1-.4.1-.6-.1-.4 0-.6.3-.3.3-.4c.1-.1.1-.3.3-.4.1-.1.3-.1.5-.2.4-.2.9-.3 1.3-.4h.7s.4.1.6.3c.2.1.5.2.6.4.1.1.3.3.3.5.1.3.2.7 0 .9v.2c.1 0 0-.2.1-.2 0 .1-.1.2-.2.4z"/></g></svg>