<svg viewBox="0 0 542.48 129.603" xmlns="http://www.w3.org/2000/svg"><path d="m53.303 125.235c-1.323 0-2.651-.367-3.887-1.064-.397.102-.843.174-1.331.174-.368 0-.896-.065-1.253-.159-3.868-.995-4.077-5.276-4.178-7.332l-.017-.333c-.073-.725-.044-1.547.004-2.366.02-.336.063-.674.031-.976-.047-.31-.185-.634-.294-.958-.25-.737-.533-1.57-.653-2.526-.078-.617-.117-1.308-.152-2.014-.026-.509-.047-1.03-.109-1.513-.075-.583-.215-1.24-.348-1.886l-.259-1.308-.636-3.404c-.138-.728-.23-1.439-.317-2.133-.058-.464-.114-.916-.193-1.36-.202-1.112-.397-2.241-.566-3.231-.085-.495-.246-.995-.391-1.485-.148-.492-.29-.976-.404-1.445-.229-.939-.253-1.863-.272-2.605-.009-.296 0-.592-.043-.85-.058-.236-.192-.486-.301-.742-.307-.705-.587-1.411-.755-2.102-.176-.734-.256-1.522-.316-2.312-.024-.319-.027-.637-.098-.927-.175-.725-.317-1.621-.455-2.531l-.151-.967c-.046-.139-.159-.364-.259-.594-.306-.708-.59-1.428-.759-2.13-.156-.654-.257-1.345-.351-2.036-.054-.398-.1-.794-.188-1.163-.239-1.001-.257-1.911-.273-2.645-.007-.301.003-.606-.048-.904l-.532-3.203c-.064-.373-.185-.731-.292-1.084-.215-.705-.41-1.396-.518-2.065l-.145-.882c-.368.125-.742.247-1.112.367-.469.154-.931.301-1.35.455-.731.267-1.486.492-2.244.717-.584.171-1.17.338-1.734.546-.438.162-.882.401-1.341.634-.751.381-1.524.762-2.305 1.061-.73.279-1.532.492-2.338.697-.478.122-.96.233-1.388.398-.66.253-1.348.469-2.036.683-.506.156-1.014.31-1.5.498-2.16.842-3.332.842-3.716.842-1.264 0-2.413-.412-3.294-1.143-1.432-.381-2.605-1.331-3.217-2.665-.428-.933-.553-1.906-.38-2.912-1.368-4.007 3.083-7.813 3.275-7.975.222-.185.439-.39.66-.597.575-.535 1.29-1.197 2.207-1.82.513-.344 1.109-.697 1.704-1.047.401-.233.801-.464 1.139-.688l.738-.495c.91-.617 1.873-1.263 2.877-1.812l3.404-1.88c.842-.452 1.729-.802 2.608-1.138.425-.159.848-.316 1.243-.503.502-.239 1.015-.503 1.53-.765.643-.33 1.288-.66 1.925-.958.872-.41 1.803-.779 2.738-1.149l1.125-.449c.439-.179.883-.392 1.325-.603.85-.404 1.699-.796 2.524-1.084.489-.173 1.007-.395 1.524-.617.732-.313 1.469-.623 2.17-.862.704-.242 1.436-.549 2.169-.85l1.334-.54c.764-.299 1.536-.526 2.308-.745.498-.142.998-.279 1.483-.464l1.062-.424c.958-.384 1.921-.768 2.843-1.069.535-.176 1.095-.338 1.664-.503.653-.188 1.321-.375 1.951-.609l3.854-1.422c1.014-.373 1.967-.532 2.732-.66.381-.063.767-.102 1.131-.233.449-.165.88-.432 1.315-.68.701-.398 1.401-.782 2.098-1.072.458-.193.968-.384 1.5-.583.619-.23 1.278-.472 1.908-.765.25-.117.512-.208.781-.276.24-.06.525-.105.796-.128.761-.293 1.661-.546 2.651-.546 1.587 0 3.012.64 4.01 1.798 2.463 2.847.995 6.994.675 7.796-.741 1.86-2.167 3.072-3.21 3.956-.223.191-.444.37-.627.552-1.122 1.101-2.422 2.21-3.659 3.126-.365.267-.697.583-1.03.89-.617.566-1.234 1.115-1.867 1.559-.96.677-2.017 1.126-2.867 1.487-.348.148-.691.284-.974.441-.495.273-.966.594-1.424.899-.602.401-1.187.788-1.753 1.104-.802.449-1.644.856-2.446 1.24-.391.188-.771.37-1.125.552-.681.344-1.395.646-2.088.924.306.466.59.919.867 1.394.6 1.027 1.284 2.196 1.839 3.498l.434.981c.363.808.72 1.615.987 2.369.388 1.106.805 2.298 1.128 3.441.125.447.282.882.437 1.32.215.614.428 1.229.604 1.852.121.429.296.822.456 1.206.287.685.557 1.357.752 2.051l.937 3.328c.292 1.035.344 2.005.387 2.784.018.321.016.646.082.95.067.31.205.62.327.941.293.768.576 1.561.747 2.352.162.757.24 1.59.304 2.435.03.39.054.782.114 1.155.181 1.121.417 2.193.629 3.137.219.976.361 1.977.495 2.941l.114.813c.064.438.202.913.323 1.368.129.481.252.95.341 1.377.064.299.199.592.311.879.273.7.518 1.385.658 2.028.22 1.001.212 1.948.208 2.639-.001.216-.013.427.007.62.043.173.146.452.243.737.232.677.518 1.519.67 2.528.135.896.226 1.857.316 2.841l.048.518c.131 1.396.148 2.691.05 3.842-.144 1.689-.856 2.952-1.328 3.786-.098.173-.206.341-.279.52-.575 1.462-1.327 2.804-2.24 3.99-.865 1.132-1.832 2.176-2.867 3.092-.218.193-.432.412-.65.629-.63.629-1.412 1.411-2.479 2.099-1.331.867-2.984 1.47-4.134 1.823-.667.198-1.372.306-2.085.306z" fill="#fff"/><path d="m72.938 28.706c.281 0 .528.078.703.281.634.734.258 2.491-.075 3.327-.47 1.179-1.94 2.121-2.84 3.006-.944.927-2.095 1.919-3.193 2.728-.993.731-1.87 1.728-2.815 2.393-.98.69-2.446 1.126-3.443 1.677-1.143.632-2.2 1.457-3.195 2.014-1.14.638-2.382 1.181-3.421 1.709-1.165.592-2.467 1.023-3.479 1.484-1.12.51-2.017 1.343-3.229 1.818.792.672 1.294 1.488 1.853 2.298.646.936 1.266 1.822 1.844 2.814.579.989 1.157 1.981 1.596 3.012.44 1.031.973 2.112 1.318 3.091.349.99.741 2.102 1.043 3.172s.739 2.099 1.041 3.17c.335 1.188.906 2.183 1.208 3.253s.603 2.141.938 3.329c.302 1.07.159 2.346.404 3.479.222 1.025.828 2.156 1.073 3.288.223 1.028.199 2.262.376 3.361.196 1.218.45 2.377.68 3.402.257 1.145.386 2.339.548 3.436.145.981.521 2.101.713 3.008.214 1.014.775 2.026.974 2.931.226 1.028-.003 2.25.197 3.155.227 1.028.714 1.989.88 3.088.148.978.232 2.035.333 3.117.088.942.136 2.026.047 3.069-.098 1.153-.929 2.067-1.324 3.082-.397 1.012-.941 2.019-1.631 2.92-.647.845-1.427 1.707-2.299 2.48-.87.775-1.585 1.67-2.605 2.332-.783.508-1.909.966-3.043 1.314-.268.082-.539.121-.81.121-.745 0-1.484-.292-2.149-.757-.561-.393-.68-.722-1.164-.722-.17 0-.385.041-.681.133-.334.105-.808.456-1.226.456-.055 0-.109-.006-.162-.02-.906-.233-.865-3.122-.937-3.85-.11-1.101.159-2.438.017-3.5-.154-1.153-.812-2.41-.944-3.457-.134-1.069-.113-2.39-.263-3.542-.138-1.062-.441-2.32-.643-3.422-.203-1.102-.435-2.328-.641-3.423-.228-1.213-.306-2.362-.504-3.462-.2-1.102-.393-2.214-.56-3.188-.188-1.096-.607-2.206-.855-3.228-.219-.9-.087-2.177-.252-3.152-.185-1.096-.87-2.125-1.117-3.147-.245-1.014-.167-2.211-.413-3.233-.217-.9-.362-2.095-.545-3.192-.162-.976-.836-2.015-1.078-3.028-.244-1.019-.297-2.181-.539-3.194-.243-1.019-.076-2.172-.265-3.277-.189-1.102-.342-2.09-.531-3.196-.189-1.102-.643-2.132-.803-3.112-.178-1.096-.368-2.217-.525-3.197-.176-1.096-.098-2.292-.283-3.398-1.341.538-2.611 1.315-3.812 1.814-1.202.503-2.649.892-3.813 1.321-1.286.474-2.683.786-3.981 1.265-1.165.43-2.406 1.222-3.688 1.71-1.16.441-2.58.655-3.735 1.099-1.158.445-2.402.738-3.555 1.187-.583.227-1.516.543-2.131.543-.605 0-.902-.305-.256-1.3-.706.239-1.227.344-1.596.344-1.276 0-.718-1.257.389-2.545-.245.051-.45.075-.62.075-1.914 0 .632-3.011 1.28-3.557.807-.68 1.528-1.481 2.506-2.143.839-.567 1.976-1.161 2.808-1.712 1.024-.678 2.125-1.475 3.297-2.115 1.173-.64 2.209-1.233 3.384-1.867 1.177-.635 2.494-.994 3.646-1.54 1.137-.54 2.301-1.182 3.441-1.716 1.155-.542 2.439-1.008 3.662-1.507 1.22-.501 2.451-1.195 3.634-1.609 1.186-.416 2.486-1.062 3.676-1.471 1.186-.408 2.456-.973 3.684-1.457 1.23-.481 2.527-.723 3.759-1.198 1.23-.477 2.501-1.026 3.698-1.419 1.19-.39 2.538-.709 3.768-1.165 1.367-.507 2.614-.964 3.853-1.421s2.603-.435 3.843-.889c1.239-.451 2.416-1.33 3.601-1.826 1.039-.435 2.345-.851 3.561-1.412.039-.01.065-.014.079-.014.241 0-2.665 1.265-3.359 1.592-.101.037-.142.051-.135.051.004 0 .023-.005.056-.013.022-.011.048-.023.079-.038.338-.123 1.346-.491 3.481-1.373.492-.212 1.457-.745 2.192-.745m-20.985 59.28c-.211-.712-.343-1.494-.536-2.292-.305-1.258-.269-2.367-.521-3.708.252 1.34.202 2.548.388 3.747.133.846.458 1.542.669 2.253m.361 1.694c.13-.039 0 0 .13-.039-.159-.885-.29-1.17-.323-1.17-.013 0-.011.041.008.107.105.354.21.709.185 1.102m-.058-.113c.007 0 .015-.001.023-.004-.035-.117-.105-.354-.141-.474.066.221.017.478.118.478m4.321 20.107c-.049-.63-.446-1.027-.496-1.657.015.512.319 1.066.496 1.657m16.361-89.706c-1.414 0-2.676.297-3.69.642-.285.044-.566.101-.832.168-.526.132-1.038.313-1.53.54-.531.245-1.088.444-1.609.639-.589.22-1.152.432-1.663.647-1.024.428-1.876.912-2.561 1.301-.201.114-.399.236-.602.34-.137.026-.276.045-.413.068-.895.149-2.122.353-3.519.868l-1.273.469-2.592.956c-.53.196-1.092.349-1.64.507-.621.179-1.232.357-1.813.547-1.105.362-2.169.789-3.108 1.166l-1.03.409c-.344.133-.719.227-1.09.333-.749.213-1.68.479-2.69.874-.484.191-.956.384-1.427.578-.649.267-1.296.54-1.917.753-.795.274-1.63.62-2.461.974-.429.183-.855.372-1.265.515-1.122.393-2.09.854-2.945 1.26-.371.177-.743.358-1.115.511l-1.026.408c-.928.365-1.979.779-3.029 1.271-.681.319-1.37.67-2.057 1.022-.476.244-.951.489-1.421.712-.292.138-.606.248-.921.368-.87.331-1.953.743-3.126 1.376-.686.37-1.326.726-1.971 1.085l-1.449.801c-1.257.686-2.363 1.437-3.253 2.04l-.684.46c-.273.181-.598.364-.922.554-.685.4-1.371.81-1.954 1.204-1.199.81-2.088 1.637-2.737 2.24-.169.157-.332.314-.505.459-.679.572-6.251 5.492-4.882 11.689-.097 1.843.371 3.349.836 4.361 1.035 2.254 2.885 3.93 5.15 4.777 1.519 1.016 3.353 1.575 5.328 1.575 1.603 0 3.338-.373 5.306-1.14.39-.152.798-.27 1.205-.395.78-.241 1.559-.488 2.312-.778.271-.096.588-.163.901-.243.785-.2 1.762-.449 2.803-.844 1.077-.41 2-.878 2.742-1.255.303-.154.595-.316.883-.431.449-.166.935-.301 1.419-.443.097-.028.193-.057.29-.085l.101.613.26 1.561c.007.134.007.268.01.402.018.842.045 2.116.392 3.572.048.224.073.479.108.733.092.681.207 1.529.432 2.468.289 1.204.715 2.192.998 2.846.013.029.025.058.038.087l.063.404c.127.837.27 1.78.483 2.706.015.138.022.28.033.421.058.765.137 1.812.426 3.006.283 1.172.697 2.135.977 2.781v.006c.024.899.056 2.131.394 3.523.13.536.292 1.092.46 1.657.102.343.242.813.274.986.171.997.368 2.139.574 3.272.064.355.107.732.156 1.117.098.778.203 1.575.358 2.395l.134.712.501 2.68c.081.443.178.921.277 1.402.11.535.23 1.077.294 1.563.049.373.058.775.078 1.168.041.818.09 1.619.18 2.338.176 1.396.566 2.545.851 3.383.015.046.031.091.047.137-.003.044-.006.089-.008.133-.045.76-.106 1.792 0 2.965l.011.208c.31 6.34 2.818 10.159 7.455 11.352.756.195 1.546.295 2.339.295.225 0 .444-.008.657-.023 1.469.601 3.011.913 4.562.913 1.147 0 2.283-.17 3.376-.506 2.055-.632 3.815-1.417 5.23-2.335 1.445-.938 2.487-1.978 3.177-2.666.16-.16.318-.324.488-.476 1.225-1.086 2.383-2.333 3.422-3.69 1.113-1.453 2.034-3.075 2.742-4.825l.103-.185c.578-1.023 1.655-2.927 1.879-5.562.12-1.411.102-2.967-.054-4.626l-.05-.542c-.097-1.062-.197-2.095-.343-3.064-.211-1.394-.597-2.529-.853-3.28-.006-.017-.012-.034-.018-.052.006-.845-.001-2.068-.312-3.481-.241-1.099-.594-2.004-.851-2.664-.05-.128-.103-.256-.149-.386-.1-.447-.225-.928-.356-1.42-.08-.299-.174-.606-.226-.899l-.104-.748c-.134-.979-.286-2.088-.558-3.299-.207-.922-.422-1.903-.578-2.873-.04-.256-.051-.525-.071-.792-.063-.835-.141-1.873-.393-3.032-.264-1.221-.651-2.237-.932-2.979-.039-.102-.079-.203-.116-.303-.005-.089-.009-.179-.013-.268-.048-.89-.121-2.234-.545-3.738l-.938-3.329c-.292-1.035-.658-1.909-.925-2.547-.096-.23-.208-.46-.285-.714-.2-.708-.441-1.41-.687-2.111-.123-.35-.252-.698-.353-1.055-.376-1.332-.836-2.637-1.206-3.686-.358-1.016-.772-1.937-1.137-2.749-.133-.296-.267-.592-.391-.884-.18-.424-.371-.834-.565-1.227.547-.271 1.097-.554 1.63-.852.662-.37 1.349-.817 2.053-1.287.357-.239.722-.494 1.107-.707.131-.063.348-.149.567-.242.985-.419 2.335-.992 3.677-1.937.948-.667 1.701-1.36 2.307-1.915.218-.2.43-.413.662-.589 1.393-1.026 2.862-2.28 4.132-3.529.105-.098.248-.214.393-.337 1.233-1.047 3.296-2.799 4.438-5.664 1.401-3.513 1.761-8.582-1.428-12.275-1.804-2.098-4.474-3.308-7.314-3.308z" fill="#381c1b"/><path d="m105.892 108.87c-.68 0-1.351-.034-2.005-.114-1.691-.193-3.433-.685-5.172-1.456-2.051-.913-3.74-2.324-4.371-2.89-1.249-1.115-2.368-2.477-3.332-4.05-.749-1.22-1.601-2.608-2.208-4.332-.593-1.701-1.015-3.228-1.293-4.679-.233-1.212-.336-2.491-.425-3.623l-.075-.893c-.084-.927-.119-1.931-.154-2.969l-.057-1.487c-.053-1.112.057-2.13.154-3.026.05-.461.107-.919.111-1.36.006-.472-.04-.961-.081-1.462-.073-.904-.155-1.931-.088-3.029.05-.833.191-1.667.34-2.489.092-.515.205-1.018.212-1.51.009-.475-.034-.984-.071-1.502-.071-.984-.131-1.994-.081-2.944.034-.617.003-1.2-.021-1.786-.037-.873-.068-1.746-.016-2.659.081-1.422.172-3.001.276-4.443 0 0 .229-3.609.289-4.391.048-.657.061-1.348.074-2.036.017-.765.034-1.53.082-2.264.107-1.615.293-3.248.476-4.679.092-.725.247-1.456.41-2.201.137-.623.29-1.26.338-1.92.031-.418.006-.848-.011-1.274-.037-.973-.084-2.184.173-3.464.38-1.891 1.196-3.714 1.852-5.176.621-1.394 1.463-3.282 2.956-5.003 1.213-1.402 2.814-2.75 4.625-3.891 2.199-1.385 4.478-2.258 6.596-2.526.412-.051.806-.077 1.19-.077 2.786 0 5.132 1.263 6.974 3.751.068.08.262.29.454.503.785.865 1.859 2.053 2.398 3.683.371 1.121.538 2.179.683 3.114.055.347.108.697.176 1.041.279 1.405.411 2.779.489 3.882.276.563.61 1.331.739 2.355.171 1.368-.077 2.528-.259 3.376-.046.213-.104.427-.122.637-.134 1.135-.323 2.125-.516 3.114-.162.83-.33 1.661-.418 2.474-.055.503-.01 1.013.016 1.524.046.902.077 1.8-.001 2.676-.108 1.22-.417 2.321-.666 3.208-.128.452-.269.89-.323 1.317-.068.532-.028 1.072-.01 1.598.033.859.068 1.837-.078 2.878-.183 1.305-.363 2.708-.474 4.133-.06.742-.055 1.51-.055 2.278 0 .611 0 1.226-.02 1.826-.024.774-.142 1.61-.274 2.463-.104.666-.202 1.297-.198 1.746.004.472.078 1.01.146 1.581.108.899.215 1.854.242 2.807.028 1.044-.129 2.019-.267 2.878-.075.466-.188 1.169-.169 1.422.026.338.282 1.072.486 1.664.219.631.429 1.254.586 1.857.252.978.546 1.965 1 2.591.209.29.852 1.175 1.388 1.362.491.171 1.139.259 1.927.259.577 0 1.152-.043 1.711-.1 1.185-.119 2.604-.407 3.978-.683l1.261-.25c.631-.122 1.244-.358 1.862-.575.674-.239 1.348-.475 2.028-.66.922-.253 1.82-.424 2.701-.583.592-.111 1.173-.21 1.743-.364.791-.216 1.643-.407 2.494-.594.654-.145 1.307-.287 1.928-.452.125-.031.666-.131.68-.134l.016.077c.445-.074.877-.111 1.281-.111 1.812 0 3.369.711 4.383 1.999.111.142.215.29.307.444 1.28 2.122 1.664 5.458-3.774 9.32-.496.353-.85.657-1.219.967-.977.822-2.191 1.843-3.638 2.526-1.067.501-2.117.785-3.046 1.035-.626.171-1.337.361-1.67.54-.6.321-1.163.671-1.722 1.015-.867.535-1.729 1.058-2.622 1.502-1.041.52-2.206.998-3.326 1.453l-1.348.555c-.825.356-1.758.663-2.736.976-.627.202-1.278.41-1.927.657-.422.159-.859.373-1.307.586-1.017.484-2.169 1.032-3.473 1.371-1.384.356-2.715.495-3.889.614-.479.051-.954.1-1.419.165-1.411.211-2.659.311-3.804.311z" fill="#fff"/><path d="m106.583 21.634c1.307 0 2.411.563 3.463 1.983.787.976 1.865 1.899 2.215 2.957.388 1.173.482 2.424.722 3.635s.359 2.466.441 3.688c.066.983.623 1.328.737 2.246.128 1.024-.314 2.078-.399 3.104-.219 1.804-.727 3.679-.925 5.475-.154 1.405.131 2.885.007 4.285-.134 1.516-.794 2.99-.97 4.359-.195 1.523.107 3.087-.081 4.428-.195 1.389-.384 2.879-.504 4.396-.111 1.398-.039 2.884-.085 4.307-.043 1.342-.489 2.912-.476 4.391.011 1.244.346 2.859.39 4.465.037 1.363-.532 3.074-.424 4.509.107 1.417.843 2.914 1.198 4.29.386 1.497.841 2.885 1.693 4.059.822 1.133 1.898 2.369 3.485 2.923 1.075.376 2.223.502 3.366.502.725 0 1.448-.051 2.149-.122 1.795-.181 3.805-.637 5.631-.991 1.436-.279 2.807-.925 4.216-1.31 1.536-.42 3.007-.561 4.423-.943 1.416-.385 2.986-.666 4.406-1.039.131-.023.131-.023.261-.046.052-.009.079-.014.131-.023-.07.049-.143.087-.216.118-.181.035-.365.083-.548.14.185-.033.371-.065.548-.14.237-.046.468-.071.68-.071.42 0 .769.099.952.333.755 1.249-1.916 3.032-2.73 3.616-1.227.88-2.591 2.311-4.025 2.986-1.519.715-3.458.895-4.919 1.679-1.461.781-2.79 1.743-4.22 2.455-1.402.698-3.049 1.305-4.447 1.903-1.307.56-2.915.959-4.507 1.566-1.354.517-2.846 1.428-4.315 1.809-1.587.412-3.26.461-4.826.684-1.057.153-2.138.261-3.189.261-.506 0-1.005-.025-1.491-.082-1.375-.161-2.713-.581-3.913-1.114-1.136-.505-2.358-1.372-3.231-2.152-1.004-.898-1.84-1.971-2.518-3.077-.679-1.105-1.36-2.213-1.812-3.5-.452-1.289-.859-2.667-1.125-4.05-.244-1.273-.322-2.795-.439-4.088-.119-1.31-.126-2.78-.197-4.272-.066-1.373.255-2.81.269-4.128.015-1.353-.263-2.859-.178-4.277.087-1.416.539-2.843.56-4.194.021-1.321-.233-2.876-.157-4.279.083-1.52-.126-2.91-.039-4.429.08-1.403.17-2.958.272-4.378.102-1.417.179-2.956.286-4.376.106-1.42.067-2.943.16-4.345.101-1.521.278-3.064.451-4.412.179-1.392.661-2.833.772-4.354.102-1.402-.177-2.882.087-4.197.285-1.419.962-2.926 1.563-4.27.56-1.252 1.192-2.674 2.261-3.908.945-1.091 2.225-2.157 3.656-3.059 1.545-.974 3.22-1.685 4.814-1.887.219-.024.432-.039.641-.039m32.255 66.403c.13-.023.261-.047.392-.07-.132.024-.263.047-.392.07m2.814-.874h.015m-35.084-74.266c-.565 0-1.146.037-1.725.109-2.804.356-5.621 1.42-8.389 3.166-2.167 1.366-4.104 3.001-5.6 4.728-1.908 2.202-2.939 4.51-3.622 6.037-.769 1.72-1.69 3.78-2.164 6.141-.36 1.791-.299 3.353-.255 4.493.01.268.032.538.019.803-.017.231-.145.815-.247 1.284-.156.713-.35 1.601-.476 2.58-.247 1.928-.407 3.5-.503 4.947-.053.799-.073 1.631-.09 2.467-.012.608-.021 1.218-.064 1.806-.06.793-.112 1.631-.163 2.465-.04.654-.08 1.306-.125 1.932-.106 1.459-.198 3.061-.281 4.507-.068 1.199-.024 2.252.012 3.098.023.549.044 1.022.026 1.355-.072 1.325.014 2.531.084 3.499.028.386.067.764.062 1.115-.021.201-.089.499-.144.802-.147.813-.33 1.824-.401 2.997-.085 1.417.015 2.656.095 3.652.029.364.071.722.067 1.064-.004.303-.052.617-.086.935-.103.95-.243 2.252-.174 3.705.023.48.038.958.054 1.427.037 1.122.078 2.209.169 3.216l.071.858c.099 1.239.212 2.644.488 4.085.321 1.677.799 3.408 1.46 5.294.762 2.173 1.788 3.843 2.613 5.185 1.183 1.929 2.577 3.619 4.138 5.015.976.873 2.991 2.506 5.509 3.624 2.134.948 4.302 1.556 6.443 1.806.8.094 1.644.141 2.508.141 1.353 0 2.805-.114 4.438-.35.395-.056.815-.097 1.239-.141 1.262-.13 2.833-.293 4.532-.733 1.707-.443 3.116-1.113 4.248-1.651.34-.162.669-.329.989-.452.572-.218 1.148-.399 1.701-.576.955-.306 2.037-.653 3.129-1.121.41-.176.844-.351 1.287-.531 1.113-.453 2.375-.965 3.615-1.583 1.131-.563 2.107-1.165 2.968-1.696.439-.271.88-.548 1.338-.8.202-.067.597-.173.896-.254 1.049-.283 2.354-.636 3.763-1.299 1.967-.925 3.488-2.205 4.6-3.14.277-.233.539-.466.798-.652l.122-.087c9.192-6.517 6.146-13.243 4.993-15.15-.183-.303-.384-.594-.602-.872-1.714-2.184-4.318-3.498-7.215-3.66-.212-.026-.427-.044-.643-.054-.142-.007-.285-.01-.428-.01-.209 0-.418.007-.628.023-.358.025-.709.072-1.053.139l-.22.039c-.242.042-.481.095-.719.157-.568.15-1.166.279-1.764.411-.919.203-1.838.41-2.709.646-.442.119-.911.196-1.387.283-.846.156-1.899.349-3.049.664-.786.215-1.564.482-2.341.757-.432.153-1.023.362-1.236.404l-1.274.254c-1.276.258-2.596.524-3.574.622-.427.043-.786.068-1.088.075-.064-.19-.152-.483-.267-.929-.185-.715-.43-1.455-.69-2.202-.065-.186-.135-.373-.197-.559.021-.134.046-.268.067-.402.152-.944.359-2.237.32-3.686-.033-1.218-.165-2.322-.27-3.209-.048-.401-.106-.778-.117-1.117.007-.126.088-.642.146-1.018.129-.826.289-1.854.325-2.997.021-.649.022-1.31.022-1.971 0-.73 0-1.419.04-1.925.111-1.402.297-2.806.447-3.872.2-1.426.153-2.712.118-3.65-.011-.29-.025-.675-.02-.868.051-.232.125-.466.193-.707.281-1.003.667-2.376.811-4.004.114-1.281.057-2.388.012-3.277-.015-.3-.045-.6-.031-.895.056-.497.203-1.248.358-2.043.19-.976.406-2.081.549-3.263.005-.045.01-.089.015-.134l.058-.28c.218-1.021.584-2.729.322-4.827-.152-1.219-.483-2.215-.78-2.931-.095-1.081-.242-2.331-.499-3.622-.057-.288-.1-.579-.146-.869-.155-.989-.367-2.343-.851-3.806-.83-2.51-2.385-4.227-3.314-5.254-.112-.123-.226-.245-.331-.368-3.348-4.387-7.452-5.315-10.325-5.315z" fill="#381c1b"/><path d="m151.347 109.294c-.658 0-1.315-.148-1.917-.444l-2.287-1.115c-1.061-.518-1.869-1.442-2.238-2.565l-.816-2.491c-.138-.415-.21-.848-.219-1.286l-.046-2.625c-.004-.293.021-.589.075-.876l.431-2.272s.088-2.486.097-2.574l.243-2.546.226-4.846c.016-.31.064-.62.145-.919l.489-1.815-.097-1.78c-.03-.535.04-1.072.206-1.584l.563-1.732-.101-1.789c-.028-.506.031-1.013.176-1.499l.599-1.988.145-1.323c-.64-.461-1.152-1.089-1.468-1.832-.492-1.152-.466-2.46.073-3.589l1.038-2.179c.107-.225.233-.438.375-.64l1.26-1.775.428-1.53-.034-2.315c-.007-.478.064-1.004.212-1.459l.784-2.412.404-1.92-.119-2.281c-.02-.381.01-.762.09-1.135l1.769-8.16.42-2.489.451-2.207.058-2.125c.017-.577.148-1.149.387-1.675l.941-2.076.567-2.125c.046-.168.102-.336.168-.498l.968-2.392c.183-.452.441-.87.762-1.237l1.58-1.792c.158-.179.512-.549.697-.703l2.221-1.8c.138-.111.283-.216.434-.31l2.47-1.547 2.166-1.399c.593-.381 1.268-.611 1.97-.677l3.328-.29c.122-.009.245-.014.365-.014 1.096 0 2.159.412 2.969 1.163l2.135 1.991c.185.171.354.358.506.56l1.722 2.292c.192.256.357.535.489.828l1.099 2.443 1.2 2.193 1.364 2.335c.107.185.201.375.28.572l.923 2.312 1.085 2.102 1.448 2.281c.058.091.425.771.425.771l.991 1.869.991 2.193 1.239 1.493c.274.333.498.703.664 1.101l.838 2.014 1.065 1.877c.129.228.237.466.324.714l.247.708.161.088 1.442-.023 2.848-.6c.294-.06.593-.091.889-.091.872 0 1.732.262 2.463.759l1.92 1.317c1.15.788 1.856 2.082 1.897 3.478.04 1.394-.589 2.725-1.694 3.581l-2.17 1.681-1.544 1.143.68 1.414c.097.202.179.41.243.626l.667 2.201 1.088 1.96 1.341 2.181c.27.441.459.93.559 1.439l.418 2.15.946 2.017 1.123 2.315c.107.219.195.449.263.683l.592 2.034 1.183 1.806c.269.412.466.867.583 1.345l.624 2.557.693 2.335c.363 1.234.164 2.565-.546 3.641l-1.382 2.096c-.314.481-.72.893-1.193 1.214l-2.079 1.419c-.191.131-.39.245-.599.344l-2.228 1.069c-.28.134-.573.239-.875.313l-2.546.617c-.34.082-.69.125-1.038.125-.277 0-.556-.026-.83-.08l-2.523-.484c-1.305-.25-2.426-1.078-3.046-2.255l-1.132-2.142-1.448-1.88c-.313-.407-.553-.867-.708-1.357l-.795-2.514-.887-2.463c-.043-.119-.084-.25-.117-.373l-.563-2.125-1.018-2.093c-.09-.185-.166-.378-.23-.572l-.641-1.985-1.239-1.945c-.134-.208-.334-.56-.429-.785l-.974-2.304-1.325-2.156c-.155-.253-.284-.52-.385-.799l-.995-2.742-.609-1.456-.142-.108-.792.065-2.796.956.034 1.53c.007.304-.017.609-.074.907l-.906 4.869-.181 2.261c-.011.148-.033.33-.06.475l-.398 2.201-.038 2.267c-.01.563-.128 1.121-.348 1.638l-.816 1.923-.36 2.056c-.027.162-.065.324-.111.481l-1.428 4.92c-.044.159-.098.313-.161.464l-.977 2.375c-.156.384-.367.742-.626 1.067l-1.28 1.615-.725 1.795c-.247.617-.63 1.166-1.122 1.613l-1.951 1.778-1.81 1.798c-.259.259-.549.484-.863.668l-1.989 1.183-1.833 1.499c-.449.37-.968.646-1.527.811l-2.74.822c-.413.127-.836.187-1.258.187z" fill="#fff"/><path d="m171.786 19.011c.851.79 1.275 1.186 2.122 1.979.688.913 1.031 1.369 1.715 2.284.469 1.038.703 1.558 1.17 2.597.512.935.768 1.403 1.277 2.339.572.977.857 1.465 1.426 2.443.4.998.6 1.498.998 2.496.511.986.765 1.479 1.273 2.466.62.974.929 1.461 1.546 2.436.5.938.749 1.407 1.246 2.346.447.995.67 1.492 1.115 2.487.645.775.967 1.163 1.609 1.94.376.904.564 1.355.939 2.259.48.842.719 1.264 1.197 2.107.318.91.477 1.365.795 2.276 1.058.585 1.586.878 2.639 1.467 1.212-.023 1.818-.034 3.03-.053 1.298-.275 1.948-.411 3.247-.681.766.524 1.149.786 1.912 1.312-.875.675-1.312 1.013-2.183 1.69-.925.682-1.387 1.024-2.309 1.709-.881.533-1.321.8-2.2 1.334.138.284.206.425.344.709-.3-.267-.451-.401-.752-.668.642.928.962 1.392 1.601 2.321.481.995.721 1.493 1.199 2.488.321 1.06.481 1.59.801 2.651.526.942.788 1.414 1.311 2.357.576.937.863 1.406 1.436 2.344.209 1.072.313 1.608.521 2.679.469.998.703 1.497 1.17 2.496.462.95.693 1.425 1.153 2.376.31 1.063.464 1.594.773 2.657.616.936.923 1.404 1.536 2.341.249 1.02.373 1.529.621 2.549.3 1.015.45 1.523.749 2.538-.557.842-.835 1.264-1.389 2.107-.84.571-1.26.857-2.097 1.43-.903.431-1.354.647-2.254 1.081-1.023.246-1.534.37-2.556.621-1.014-.197-1.521-.294-2.536-.487-.521-.99-.782-1.484-1.306-2.473-.669-.874-1.005-1.311-1.678-2.183-.319-1.01-.478-1.514-.798-2.524-.377-1.052-.566-1.578-.945-2.63-.268-1.015-.403-1.522-.672-2.536-.481-.992-.722-1.487-1.205-2.478-.325-1.008-.488-1.512-.814-2.52-.65-1.022-.975-1.532-1.629-2.552-.44-1.044-.661-1.566-1.104-2.609-.598-.977-.898-1.465-1.499-2.44-.397-1.099-.597-1.647-.996-2.746-.453-1.092-.681-1.637-1.136-2.729-.961-.733-1.443-1.099-2.409-1.829-1.197.094-1.796.142-2.994.24-1.161.392-1.741.589-2.9.986-1.104.389-1.655.585-2.757.979-.256.98-.384 1.47-.638 2.451.022.993.033 1.49.055 2.483-.192 1.023-.287 1.534-.477 2.557-.19 1.022-.284 1.533-.472 2.554-.081 1.009-.121 1.513-.201 2.521-.186 1.022-.279 1.533-.463 2.555-.019 1.05-.028 1.574-.045 2.624-.407.954-.609 1.431-1.012 2.385-.18 1.022-.269 1.533-.447 2.555-.289.988-.433 1.482-.72 2.471s-.429 1.483-.713 2.472c-.395.955-.591 1.433-.983 2.388-.673.846-1.008 1.269-1.677 2.116-.388.957-.582 1.435-.967 2.392-.79.717-1.184 1.076-1.969 1.796-.779.768-1.167 1.152-1.941 1.922-.915.543-1.372.815-2.284 1.361-.838.683-1.256 1.024-2.089 1.709-1.102.329-1.653.494-2.753.826-.914-.449-1.373-.673-2.29-1.119-.327-.997-.49-1.495-.818-2.492-.019-1.048-.028-1.572-.046-2.62.196-1.036.294-1.553.492-2.589.036-1.058.054-1.587.091-2.645.097-1.017.146-1.526.244-2.543.046-1.01.07-1.515.117-2.525.048-1.009.073-1.513.123-2.522.267-.995.402-1.493.672-2.488-.054-.992-.081-1.488-.135-2.479.325-1.004.488-1.506.815-2.509-.06-1.041-.089-1.562-.148-2.603.284-.947.427-1.42.713-2.367.111-1.018.167-1.526.28-2.544.06-1.011.09-1.516.151-2.526-.813-.271-1.22-.407-2.035-.676.412-.867.619-1.3 1.033-2.166.677-.957 1.017-1.436 1.698-2.392.319-1.149.48-1.724.803-2.873-.018-1.197-.027-1.795-.044-2.992.34-1.053.511-1.579.854-2.631.227-1.084.34-1.626.57-2.71-.06-1.139-.09-1.709-.149-2.848.231-1.084.347-1.626.581-2.71s.351-1.626.587-2.709c.236-1.084.355-1.626.594-2.709.183-1.075.275-1.613.46-2.689.2-.978.3-1.466.501-2.444.027-1.001.041-1.502.069-2.504.434-.961.652-1.442 1.09-2.403.262-.985.394-1.478.658-2.463.384-.953.577-1.429.964-2.381.698-.794 1.047-1.191 1.749-1.984.884-.72 1.327-1.08 2.216-1.798.908-.569 1.363-.853 2.274-1.419.961-.624 1.443-.936 2.408-1.558 1.322-.118 1.982-.175 3.301-.287m-.302 39.001c1.394-.33 2.092-.493 3.488-.817 1.323-.465 1.985-.696 3.312-1.155-.433-.843-.65-1.264-1.085-2.106-.441-.892-.662-1.338-1.105-2.229-.389-.899-.584-1.348-.975-2.247-.707-.758-1.062-1.137-1.772-1.894-.386-.847-.58-1.27-.967-2.117.063.938.094 1.407.157 2.345-.151 1.014-.226 1.522-.375 2.536-.265.98-.398 1.47-.661 2.45.023 1.043.035 1.565.058 2.608.005.897.007 1.345.013 2.241-.036.155-.053.231-.088.385m.303-47.739c-.246 0-.492.01-.739.031l-3.334.29c-1.411.125-2.77.592-3.96 1.359l-2.362 1.528-2.226 1.39c-.296.185-.581.389-.852.608l-2.241 1.818c-.368.3-.712.63-1.026.986l-1.769 2.006c-.645.734-1.161 1.57-1.529 2.475l-.974 2.403c-.132.327-.244.663-.336 1.004l-.475 1.775-.797 1.758c-.477 1.055-.739 2.195-.771 3.352l-.048 1.744-.349 1.702c-.018.088-.034.176-.05.264l-.428 2.499-.553 2.523-.591 2.728-.585 2.73c-.159.747-.22 1.511-.18 2.274l.09 1.713-.239 1.137-.714 2.199c-.293.907-.436 1.857-.422 2.81l.025 1.733-.053.191-.827 1.165c-.284.402-.534.827-.747 1.271l-1.044 2.189c-1.076 2.264-1.128 4.88-.142 7.185.216.505.477.984.778 1.432l-.221.735c-.292.973-.412 1.99-.355 3.005l.055.969-.312.962c-.33 1.019-.469 2.09-.411 3.16l.059 1.083-.309 1.146c-.161.6-.258 1.216-.289 1.837l-.123 2.534-.108 2.323-.224 2.336c-.016.173-.028.347-.034.521l-.068 1.98-.368 1.939c-.11.583-.161 1.176-.151 1.769l.046 2.63c.016.874.163 1.741.436 2.572l.815 2.483c.737 2.249 2.355 4.103 4.483 5.137l2.26 1.104c1.208.593 2.526.894 3.85.894.85 0 1.702-.124 2.529-.374l2.719-.816c1.114-.332 2.151-.883 3.05-1.622l1.574-1.287 1.712-1.02c.619-.367 1.191-.81 1.701-1.318l1.801-1.783 1.823-1.662c.977-.887 1.74-1.983 2.232-3.208l.49-1.212.885-1.117c.515-.647.935-1.364 1.249-2.128l.972-2.363c.125-.302.232-.61.323-.924l.707-2.45.714-2.449c.092-.315.167-.636.223-.96l.273-1.559.616-1.45c.443-1.038.68-2.152.699-3.28l.033-1.911.335-1.848c.053-.291.091-.584.114-.879l.102-1.28.665 1.572c.193.457.424.897.692 1.315l1.017 1.594.467 1.446c.127.394.282.779.463 1.151l.83 1.706.454 1.713c.065.245.14.487.226.726l.886 2.465.746 2.358c.309.978.787 1.895 1.414 2.707l1.217 1.583.954 1.806c1.239 2.355 3.484 4.016 6.098 4.514l2.506.481c.55.107 1.107.16 1.663.16.698 0 1.396-.084 2.077-.251l2.524-.613c.603-.145 1.188-.354 1.747-.623l2.225-1.067c.408-.195.8-.421 1.174-.676l2.07-1.412c.949-.645 1.762-1.471 2.392-2.43l1.373-2.083c1.422-2.149 1.822-4.816 1.095-7.287l-.691-2.342-.572-2.35c-.235-.964-.633-1.88-1.176-2.71l-.825-1.257-.409-1.405c-.136-.467-.311-.921-.523-1.359l-1.162-2.394-.656-1.401-.315-1.621c-.199-1.021-.578-1.998-1.12-2.885l-1.346-2.197-.765-1.375-.322-1.067 1.063-.823c2.211-1.705 3.474-4.364 3.399-7.155s-1.48-5.378-3.78-6.961l-1.935-1.328c-1.464-1.001-3.185-1.524-4.931-1.524-.592 0-1.187.06-1.776.182l-.927.194-.343-.604-.736-1.77c-.332-.797-.781-1.541-1.331-2.207l-.858-1.034-.632-1.409c-.077-.172-.16-.341-.248-.508l-1.256-2.364c-.102-.191-.211-.379-.327-.563l-1.345-2.119-.902-1.746-.844-2.111c-.158-.395-.345-.778-.559-1.146l-1.369-2.346-1.057-1.935-1.036-2.3c-.262-.58-.587-1.13-.968-1.639l-1.732-2.305c-.303-.402-.64-.777-1.008-1.121l-2.146-2.001c-1.623-1.511-3.75-2.34-5.946-2.34z" fill="#381c1b"/><path d="m241.749 121.987c-1.227-.023-2.408-.327-3.356-.575l-1.148-.276c-1.202-.273-2.564-.58-3.817-1.305-1.359-.782-2.917-1.743-4.033-3.205-.93-1.217-1.617-2.674-2.166-4.582-.493-1.724-.447-3.373-.357-4.918.018-.316.024-.631.031-.944.017-.853.037-1.82.223-2.898.242-1.394.634-2.753.949-3.848.341-1.192.741-2.292 1.175-3.473.294-.802.656-1.561 1.025-2.315.175-.356.351-.711.501-1.055.283-.651.607-1.297.926-1.923.219-.432.435-.853.614-1.26.415-.944.917-1.732 1.32-2.363.173-.27.344-.523.471-.771.164-.324.284-.688.417-1.049.283-.774.58-1.542.936-2.201l.464-.899c.447-.882.92-1.795 1.431-2.577.243-.375.525-.779.808-1.189.343-.495.695-.995.954-1.436.203-.347.404-.714.604-1.078.42-.762.84-1.519 1.264-2.156.454-.68 1.003-1.365 1.54-2.025.263-.321.52-.637.742-.936.364-.495.653-.995.943-1.485.269-.455.536-.904.825-1.345.548-.836 1.22-1.826 1.856-2.656.213-.279.417-.629.626-.97.213-.35.427-.697.643-1.018-.009-.188-.037-.375-.06-.563-.774.697-1.724 1.522-2.964 2.216-.848.475-1.82.882-2.695 1.234l-.742.307c-.283.131-.59.358-.913.572-.64.421-1.367.899-2.189 1.271-.722.327-1.563.594-2.435.853-.424.125-.86.25-1.273.407-1.256.481-2.625.811-3.916 1.098-1.251.276-2.494.336-3.589.387l-.718.037c-.304.02-.611.028-.919.028-1.536 0-2.884-.213-3.746-.392-1.315-.27-2.861-.617-4.384-1.323-1.689-.776-3.254-2.045-3.848-2.554-1.303-1.115-2.23-2.563-2.843-3.521-.225-.35-.408-.575-.59-.811-.604-.776-1.355-1.746-1.857-2.978-.356-.876-.511-1.755-.634-2.46-.05-.287-.084-.58-.169-.836-.188-.449-.489-1.018-.775-1.576l-.57-1.123c-.557-1.146-1.042-2.312-1.482-3.41l-.277-.688c-.36-.89-.725-1.803-1.007-2.6-.112-.316-.262-.634-.404-.95-.353-.782-.754-1.672-.977-2.696-.209-.958-.229-1.852-.243-2.565-.007-.31.011-.62-.048-.91l-.242-1.052c-.192-.805-.373-1.593-.489-2.383-.044-.301-.137-.614-.22-.936-.188-.72-.424-1.615-.508-2.611-.094-1.121.054-2.099.172-2.884.04-.267.097-.529.098-.776-.026-1.22.037-2.645.173-3.905l.067-.688c.098-1.041.209-2.218.471-3.274.31-1.251.862-2.301 1.305-3.146.145-.273.289-.54.405-.805l.297-.691c.427-1.013.957-2.27 1.861-3.433s2.051-2.369 3.143-3.305c1.345-1.149 2.77-1.883 4.029-2.528 2.457-1.26 4.979-1.86 6.661-2.142.512-.085.98-.122 1.401-.122 3.221 0 5.656 2.147 6.058 5.344.073.58.101 1.263.121 1.928.011.35.01.691.047.958.101.7.173 1.507.239 2.287.041.484.08.95.129 1.357.084.668.105 1.385.117 2.102.007.427-.009.85.061 1.232.125.685.21 1.382.29 2.065.057.495.108.978.196 1.425.082.421.24.842.38 1.254.156.461.306.913.427 1.345.085.31.249.611.395.927.229.498.458 1.001.644 1.507.09.245.213.492.336.745.319.674.637 1.377.869 2.113.171.538.326 1.106.478 1.672.154.569.297 1.135.482 1.627.092.179.273.412.441.657.411.597.923 1.345 1.318 2.25.437.998.917 2.008 1.428 2.986.407.774.621 1.499.778 2.028.046.154.082.307.144.455.247.313.812.865 1.411 1.448l.26.262c.309-.526.616-1.049.845-1.576l.264-.606c.32-.722.651-1.473.929-2.204.018-.111.027-.304.046-.498.068-.657.161-1.556.512-2.537.279-.776.644-1.493 1.015-2.184.154-.287.319-.557.424-.848.135-.375.203-.757.284-1.141.154-.717.317-1.439.565-2.156.356-1.041.681-1.962.885-2.887l.155-.68c.159-.683.338-1.453.353-1.883-.006-.156-.04-.39-.07-.648-.067-.589-.135-1.24-.155-1.914-.041-1.365.328-2.568.572-3.365.051-.168.105-.327.138-.475l.08-.486c.196-1.286.519-3.41 2.327-4.881.425-.566.956-1.254 1.867-1.928.801-.594 1.672-1.214 2.628-1.735.169-.091.346-.173.526-.242 2.089-.802 4.61-1.263 6.914-1.263.026 0 .276.003.301.003 2.248.043 3.643 1.035 4.418 1.86.798.848 1.726 2.366 1.621 4.775-.051 1.152-.412 2.156-.697 2.912.109.273.255.6.365.85.323.728.624 1.442.812 2.062.176.586.37 1.166.562 1.752.333 1.004.663 2.011.943 3.049.272 1.004.354 1.98.42 2.765.03.341.047.674.105.967.132.66.216 1.411.294 2.162.047.455.087.91.164 1.3.1.503.624 2.912.731 3.461.063.313.166.637.266.97.033.111.067.222.101.338.125-.137.25-.27.373-.401.414-.444.907-.882 1.414-1.323.3-.262.613-.518.867-.802.896-1.007 1.81-1.726 2.546-2.304l.373-.293c.192-.154.371-.321.552-.486.698-.631 1.654-1.499 2.982-2.071.831-.356 1.691-.56 2.514-.708.526-.233 1.156-.424 1.91-.54.543-.082 1.074-.122 1.574-.122 2.782 0 4.925 1.212 5.88 3.322.439.973 1.193 3.541-1.304 6.385l-1.119 1.104c-.489.466-.986.927-1.382 1.394-.671.791-1.431 1.374-2.1 1.886-.282.216-.577.415-.792.643-.263.293-.516.683-.782 1.064-.401.575-.808 1.146-1.217 1.638-.614.737-1.298 1.311-1.901 1.82-.296.247-.602.486-.842.754-.402.447-.754.933-1.094 1.394-.331.449-.653.882-.978 1.28-.223.273-.442.583-.667.896-.539.751-1.106 1.516-1.731 2.179-.479.543-1.098.995-1.594 1.36-.137.1-.277.196-.395.299-.082.117-.216.31-.374.535.036.526.169 2.801.169 2.801.033.481.084 1.007.134 1.533.058.62.117 1.237.154 1.8.027.41.101.85.169 1.291.107.703.208 1.402.25 2.045.041.646.03 1.342.014 2.042-.01.444-.027.885 0 1.294.051.805.043 1.681.03 2.554l-.009 1.047.017 1.024c.02.876.036 1.752-.01 2.568-.027.512-.091 2.782-.117 3.305-.055 1.172-.262 2.244-.427 3.106l-.141.757c-.071.418-.105.89-.145 1.351-.061.734-.131 1.448-.237 2.034l-.156.873c-.152.859-.314 1.775-.511 2.642-.246 1.081-.667 1.985-1.004 2.713-.129.279-.27.546-.35.808-.092.304-.171.643-.256.993-.192.796-.404 1.638-.69 2.437l-.303.873c-.294.865-.607 1.766-.934 2.509-.437.993-1 1.854-1.451 2.546-.154.233-.304.464-.437.685-.499.83-1.058 1.49-1.507 2.022-.199.239-.404.458-.557.7-.173.273-.293.617-.438.958-.222.523-.451 1.055-.711 1.559-.69 1.334-1.631 2.335-2.386 3.14-.222.236-.447.472-.657.717-.822.961-1.955 2.207-3.385 3.291l-.593.464c-.677.535-1.446 1.141-2.369 1.661-.253.142-.491.304-.728.458-.712.469-1.598 1.052-2.716 1.433-1.106.384-2.184.489-3.05.572-.272.026-.539.051-.791.091-1.2.191-2.504.301-3.578.301-.035-.003-.302-.006-.333-.006z" fill="#fff"/><path d="m220.515 9.396c1.155 0 1.613.636 1.724 1.521.115.916.064 2.162.178 2.958.161 1.121.229 2.527.358 3.566.144 1.149.014 2.481.215 3.577.223 1.214.283 2.466.498 3.557.191.971.627 1.995.882 2.917.247.895.801 1.832 1.151 2.779.309.837.836 1.704 1.137 2.656.371 1.174.644 2.479 1.038 3.529.38 1.012 1.367 2.028 1.844 3.116.475 1.088 1.002 2.193 1.56 3.259.481.919.517 1.95 1.111 2.786.596.836 1.32 1.543 2.042 2.25.722.709 1.45 1.54 2.435 2.114.703.339 1.672.544 2.635.627.391-.509.641-1.136 1.032-1.647.637-1.261 1.509-2.525 2.059-3.788.424-.973.894-2.008 1.274-3.012.381-1.001.231-2.12.585-3.108.394-1.096 1.074-2.026 1.433-3.016.396-1.092.486-2.238.872-3.363.385-1.125.773-2.246 1.02-3.366.249-1.12.572-2.306.608-3.356.024-.692-.192-1.724-.224-2.833-.029-.989.469-2.053.628-2.861.196-.995.237-2.355.919-2.868.715-.537.829-1.15 1.67-1.773.69-.512 1.407-1.021 2.117-1.407 1.632-.627 3.592-.972 5.341-.972.079 0 .158.001.236.002 1.386.025 1.802.904 1.75 2.074-.041.929-.763 2.171-.818 2.853-.098 1.225 1.078 3.092 1.482 4.426.47 1.555 1.037 3.078 1.469 4.676.298 1.103.253 2.422.46 3.454.211 1.053.252 2.42.456 3.451.209 1.057.527 2.418.729 3.452.207 1.058.707 2.227.862 3.452.14 1.105.439 2.227.578 3.329.154 1.227.294 2.47.577 3.702.681-.869 1.497-1.797 2.187-2.605.632-.738 1.232-1.666 1.927-2.474.637-.739 1.382-1.608 2.078-2.346.694-.741 1.663-1.425 2.367-2.217.762-.857 1.603-1.466 2.379-2.085.835-.666 1.578-1.546 2.53-1.954.91-.389 2.21-.513 3.366-.697.276-.044.188-.052-.012-.052-.133 0-.314.004-.471.004-.397 0-.634-.025.487-.199.311-.048.617-.073.905-.073 1.65 0 2.747.798 1.292 2.455-.852.85-1.826 1.703-2.549 2.553-.718.845-2.043 1.581-2.809 2.433-.707.787-1.39 1.967-2.104 2.821-.709.849-1.863 1.593-2.637 2.451-.835.925-1.51 1.981-2.209 2.833-.703.858-1.375 1.975-2.194 2.84-.546.618-1.551 1.119-2.044 1.733-.551.686-1.085 1.486-1.625 2.228.143 1.481.201 2.933.293 4.322.069 1.05.219 2.292.287 3.332.068 1.051.351 2.284.419 3.334.067 1.043-.053 2.282.014 3.333.067 1.043.009 2.224.014 3.336.005 1.109.071 2.281.014 3.333-.057 1.045-.067 2.285-.118 3.334-.058 1.177-.333 2.297-.511 3.339-.181 1.062-.203 2.402-.374 3.335-.188 1.024-.379 2.226-.631 3.34-.253 1.111-.968 2.207-1.274 3.22-.284.941-.486 2.13-.876 3.216-.352.982-.721 2.184-1.125 3.1-.424.963-1.125 1.893-1.631 2.736-.594.99-1.457 1.765-2.004 2.624-.511.803-.849 1.899-1.349 2.865-.575 1.111-1.61 2.007-2.473 3.013s-1.728 1.911-2.713 2.658c-.846.642-1.613 1.316-2.465 1.797-.946.533-1.791 1.25-2.713 1.566-.955.328-2.12.32-3.117.479-.918.147-1.991.248-2.894.248-.078 0-.155-.001-.23-.002-.94-.019-2.07-.377-3.037-.607-1.113-.265-2.368-.486-3.188-.96-1.014-.585-2.124-1.257-2.753-2.081-.689-.903-1.123-2.044-1.438-3.137-.314-1.096-.258-2.336-.193-3.453s.003-2.228.197-3.352c.194-1.122.516-2.253.841-3.384.324-1.131.704-2.158 1.114-3.275.354-.965.963-2.04 1.396-3.039.477-1.1 1.094-2.166 1.533-3.167.481-1.097 1.247-2.045 1.689-2.92.49-.969.796-2.214 1.3-3.149.533-.992 1.079-2.198 1.707-3.16.575-.881 1.365-1.938 1.868-2.795.589-1.003 1.157-2.151 1.741-3.03.638-.958 1.523-1.924 2.162-2.792.744-1.009 1.261-2.043 1.904-3.025.494-.754 1.097-1.647 1.67-2.396.526-.688 1.029-1.636 1.548-2.389 1.042-1.262.46-3.101.423-4.583-.028-1.112.352-2.231.325-3.342-.027-1.112-.545-2.273-.624-3.197-.091-1.048-.056-2.223-.218-3.207-.525.878-1.084 1.765-1.704 2.762-.528.849-1.165 1.953-1.827 2.77-.715.882-1.78 1.532-2.641 2.309-.785.709-1.598 1.491-2.636 2.071-.99.553-2.192.975-3.057 1.355-.971.426-2.131 1.402-3.157 1.867-.986.447-2.285.71-3.448 1.153-1.045.398-2.308.693-3.318.916-1.113.246-2.408.256-3.616.328-.219.013-.44.019-.662.019-.999 0-2.005-.124-2.857-.299-1.128-.232-2.332-.5-3.438-1.01-.947-.437-2.035-1.218-2.838-1.906-.866-.741-1.579-1.892-2.095-2.696-.578-.901-1.565-1.893-1.993-2.944-.371-.912-.394-2.307-.801-3.284-.379-.912-1.009-2.039-1.468-2.981-.509-1.045-.951-2.11-1.352-3.114-.415-1.04-.885-2.171-1.223-3.123-.377-1.064-1.02-2.155-1.23-3.121-.237-1.086-.054-2.35-.285-3.447s-.531-2.125-.683-3.165c-.151-1.032-.605-2.179-.698-3.287s.305-2.321.284-3.372c-.021-1.04.035-2.286.149-3.357.112-1.046.199-2.426.436-3.38.275-1.107 1.005-2.201 1.459-3.217.499-1.114.901-2.302 1.616-3.222.658-.847 1.587-1.856 2.538-2.67.951-.812 2.066-1.388 3.184-1.962 1.676-.858 3.6-1.417 5.385-1.717.249-.036.475-.056.679-.056m20.202 45.234c-.408.016-.666.4-.934.533.029-.001.057-.002.085-.002.103 0 .189.017.193.113.082-.041.139-.058.176-.058.04 0 .055.02.048.052-.028.054-.055.098-.083.125.047-.046.076-.092.083-.125.104-.199.22-.531.432-.638m11.592 21.493c-.637 1.003-1.37 2.135-1.902 3.016-.517.856-1.033 1.889-1.628 2.89-.507.853-.986 1.912-1.488 2.764-.589.999-1.382 1.776-1.869 2.781-.486 1.008-1.01 2.025-1.459 2.896-.496.963-.57 2.122-.92 3.126-.12.252-.24.502-.358.754.014.37-.216 1.008-.681 2.375-.34 1.001-1.045 2.193-1.401 3.519-.296 1.104-.15 2.477-.225 3.719-.075 1.239-.387 2.497-.101 3.588.317 1.206.983 2.183 2.029 3.003.597-.887 1.246-1.663 1.803-2.541.608-.96.941-2.013 1.415-3.018s1.285-1.925 1.687-2.901c.382-.928.597-2.131.925-3.118.364-1.096.416-2.289.671-3.234.295-1.091.857-2.136 1.071-3.122.239-1.101.706-2.139.947-3.239.216-.984.405-2.162.563-3.228.155-1.045.03-2.279.176-3.217.167-1.073.335-2.231.438-3.346.104-1.114.204-2.352.307-3.467m-10.512 20.42c-.015.023-.034.047-.056.071-.185.611-.258.848-.255.848s.135-.407.311-.919c.066-.101.063-.182.063-.182-.022.062-.043.123-.063.182m-21.282-95.884c-.69 0-1.405.061-2.126.182-1.988.334-4.976 1.049-7.922 2.558-1.33.683-3.138 1.612-4.874 3.094-1.335 1.144-2.667 2.544-3.762 3.952-1.257 1.617-1.938 3.234-2.436 4.414-.085.201-.169.403-.258.601-.082.182-.185.367-.285.557-.495.943-1.244 2.368-1.68 4.128-.34 1.369-.472 2.773-.579 3.902l-.064.654c-.144 1.344-.216 2.855-.201 4.19-.014.099-.03.199-.045.301-.136.905-.342 2.271-.206 3.895.115 1.377.417 2.526.636 3.364.049.187.102.371.139.55.138.956.355 1.867.547 2.67.055.229.111.461.163.696.004.114.005.23.007.345.018.809.044 2.032.344 3.406.321 1.469.864 2.675 1.26 3.556.094.208.195.416.272.625.297.838.684 1.806 1.065 2.751l.278.691c.431 1.079.96 2.363 1.611 3.7.188.385.4.798.616 1.217.166.322.341.649.488.955.012.07.024.139.036.209.152.862.359 2.044.891 3.35.728 1.789 1.763 3.123 2.449 4.005.112.144.224.282.32.419l.04.065c.706 1.104 1.888 2.952 3.689 4.495.908.777 2.746 2.227 4.86 3.202 1.937.894 3.772 1.313 5.34 1.635 1.519.312 3.116.478 4.616.478.394 0 .788-.011 1.178-.034l.675-.034c1.206-.058 2.708-.129 4.313-.484 1.197-.265 2.572-.594 3.916-1.056-.159.29-.319.581-.481.857-.21.357-.501.759-.779 1.16-.307.442-.609.88-.874 1.286-.688 1.054-1.23 2.124-1.666 2.984-.142.28-.28.555-.418.811-.559 1.04-.925 2.041-1.192 2.772-.07.191-.134.384-.21.565-.077.129-.164.259-.251.395-.46.72-1.091 1.707-1.642 2.964-.148.337-.329.682-.509 1.037-.358.704-.719 1.428-1.038 2.161-.125.287-.273.582-.418.878-.356.726-.799 1.629-1.166 2.628-.467 1.273-.91 2.479-1.312 3.881-.342 1.188-.77 2.679-1.051 4.298-.242 1.404-.268 2.646-.287 3.552-.005.261-.009.521-.024.782-.107 1.836-.164 3.992.515 6.366.7 2.431 1.645 4.4 2.892 6.034 1.733 2.27 4.072 3.621 5.329 4.346 1.825 1.054 3.68 1.473 5.034 1.778l.503.115.523.132c1.103.285 2.613.675 4.356.71l.408.004c1.314 0 2.832-.127 4.274-.357.169-.026.348-.039.529-.056.974-.095 2.445-.238 4.044-.786 1.637-.561 2.878-1.377 3.698-1.917.154-.101.308-.21.47-.302 1.213-.684 2.158-1.429 2.918-2.028l.535-.418c1.757-1.332 3.096-2.801 4.066-3.931.169-.197.35-.386.529-.576.89-.948 2.108-2.247 3.072-4.11.314-.608.594-1.246.86-1.875.049-.115.095-.23.143-.342.053-.063.108-.127.163-.191.492-.583 1.237-1.464 1.919-2.601.107-.178.229-.36.351-.549.509-.781 1.207-1.85 1.785-3.162.433-.983.772-1.978 1.071-2.857l.282-.815c.392-1.092.632-2.086.824-2.884.052-.216.099-.425.152-.62.053-.122.113-.246.171-.372.378-.816.95-2.05 1.296-3.567.217-.96.396-1.958.561-2.892l.145-.81c.163-.887.234-1.727.297-2.468.028-.332.046-.674.097-.977l.125-.67c.181-.942.428-2.233.501-3.712.027-.551.044-1.15.061-1.752.015-.525.028-1.053.054-1.534.057-1.037.035-2.017.015-2.881-.007-.323-.015-.646-.016-.963-.001-.318.004-.642.008-.967.012-.869.026-1.855-.04-2.891-.017-.286.001-.598.009-.909.016-.679.036-1.524-.022-2.427-.058-.91-.188-1.756-.293-2.436-.048-.311-.106-.619-.126-.907-.039-.601-.101-1.264-.164-1.927-.046-.482-.094-.966-.123-1.409l-.043-.707c.359-.304.743-.663 1.128-1.084.858-.92 1.505-1.819 2.027-2.546.17-.236.33-.471.499-.677.371-.452.74-.946 1.117-1.457.3-.406.609-.826.819-1.058.067-.057.244-.196.415-.341.666-.561 1.577-1.329 2.44-2.361.578-.692 1.06-1.384 1.447-1.941.122-.175.239-.352.359-.516.095-.074.193-.147.29-.221.759-.581 1.798-1.378 2.769-2.521.195-.229.683-.695 1.075-1.069.333-.318.666-.637.984-.954.137-.137.27-.278.398-.424 2.896-3.299 3.643-7.437 1.999-11.068-1.67-3.687-5.354-5.888-9.857-5.888-.739 0-1.494.059-2.247.176-.957.149-1.803.375-2.551.661-.913.186-1.913.455-2.916.884-2.007.859-3.385 2.11-4.208 2.858-.113.103-.224.208-.34.303l-.015.012c-.031-.184-.064-.371-.102-.559-.007-.08-.019-.28-.036-.482-.077-.908-.182-2.151-.556-3.536-.301-1.115-.654-2.199-1.01-3.278-.181-.55-.363-1.098-.531-1.651-.206-.681-.455-1.309-.692-1.863.193-.727.353-1.569.394-2.496.137-3.067-.858-5.894-2.799-7.962-1.911-2.034-4.582-3.184-7.521-3.237l-.388-.008c-2.857 0-5.867.552-8.474 1.553-.357.137-.704.297-1.04.48-1.195.65-2.261 1.408-3.147 2.064-1.224.907-2.01 1.838-2.472 2.435-2.722 2.497-3.218 5.77-3.44 7.234l-.028.176-.046.153c-.308 1.004-.823 2.685-.762 4.777.023.8.102 1.574.182 2.275.005.044.01.087.015.129-.048.209-.144.621-.213.918l-.164.718c-.136.615-.419 1.444-.72 2.322-.394 1.147-.593 2.081-.738 2.763-.036.169-.067.338-.109.505-.056.11-.117.218-.177.33-.175.327-.382.713-.597 1.158-.33-.556-.65-1.022-.9-1.387-.025-.037-.05-.073-.075-.109-.074-.255-.158-.568-.232-.842-.168-.626-.341-1.256-.532-1.86-.351-1.11-.776-2.005-1.086-2.658-.072-.152-.146-.299-.207-.446-.204-.556-.477-1.167-.754-1.768-.069-.149-.141-.296-.202-.442-.132-.457-.288-.931-.451-1.411-.084-.248-.179-.498-.242-.747-.053-.276-.086-.644-.13-1.021-.085-.73-.177-1.476-.307-2.215-.014-.212-.012-.432-.015-.653-.012-.706-.026-1.585-.149-2.574-.045-.358-.077-.771-.113-1.196-.07-.817-.146-1.661-.25-2.411-.012-.181-.015-.382-.021-.587-.02-.655-.044-1.469-.153-2.333-.676-5.4-4.95-9.171-10.393-9.171z" fill="#381c1b"/><path d="m311.571 92.593c-3.494 0-6.742-1.069-9.77-2.167-3.844-1.396-7.221-3.916-10.327-7.705-5.395-6.084-6.274-14.832-6.98-21.863l-.115-1.132c-.273-2.662.037-5.156.287-7.159.074-.597.006-1.394-.065-2.236-.075-.887-.142-1.769-.122-2.637.105-4.747 1.361-8.76 2.443-11.724.226-.62.368-1.436.519-2.304.195-1.118.417-2.386.885-3.692.452-1.263 1.04-2.392 1.608-3.487.358-.688.722-1.379 1.017-2.085 1.6-3.857 3.668-8.228 7.965-11.212 1.007-.671 1.812-1.479 2.742-2.415.39-.39.782-.785 1.193-1.177 2.49-2.386 5.458-2.787 7.422-3.049 1.051-.176 2.207-.509 3.431-.859 2.152-.62 4.592-1.323 7.492-1.323.573 0 1.16.026 1.766.085l.99.085c3.11.245 8.899.703 10.633 6.044.044.128.374.566.64.922.454.603.887 1.206 1.237 1.849.033.054.065.108.1.162.249-.27.499-.549.752-.83 2.637-2.927 5.917-6.567 11.448-7.637.109-.02.697-.117.697-.117.213-.031.427-.048.641-.048.142 0 .459.026.475.026.569.063 1.105.233 1.588.486.567-.074 1.163-.131 1.766-.131 2.54 0 3.976 1.089 4.733 2.005 1.027 1.24 1.414 2.864 1.088 4.573-.509 2.671-2.582 5.759-6.163 9.175-1.918 1.829-4.454 2.776-6.692 3.609-.799.299-1.581.583-2.254.904-.41.182-.791.327-1.172.464.715 1.746 1.21 3.476 1.657 5.031.21.731.415 1.451.64 2.15l.499 1.51c.818 2.435 1.662 4.955 1.877 8.021.054.757.159 1.516.263 2.284.299 2.218.637 4.733.114 7.548-.199 1.069-.131 2.281-.054 3.683.078 1.411.168 3.006-.031 4.696l-.067.592c-.229 2.031-.512 4.556-1.842 6.889-.219.387-.441.757-.657 1.118-.66 1.098-1.042 1.758-1.22 2.491-1.206 4.986-4.364 8.416-6.981 10.848-2.196 2.039-4.636 3.257-6.788 4.329-1.249.623-2.429 1.212-3.457 1.903-2.907 1.951-5.826 2.207-8.173 2.415-1.142.1-2.221.193-3.19.469-1.446.415-2.955.623-4.488.623zm5.127-59.372c-.208.978-.323 2.133-.424 3.134l-.091.89c-.179 1.667-.636 3.148-1.038 4.457-.364 1.186-.68 2.21-.724 3.112l-.104 1.98c-.276 5.131-.515 9.562.721 14.138.181.737.309 1.365.435 1.985.397 1.948.658 3.092 1.405 3.916.811.896 1.657 1.752 2.497 2.605.855.867 1.705 1.732 2.52 2.622.69.754 1.645 1.203 2.172 1.203.836-.324 1.492-2.318 1.806-3.276.711-2.162.875-5.105 1.018-7.699.084-1.536.331-2.873.57-4.167.24-1.297.466-2.523.455-3.518-.058-5.199-.799-9.528-2.4-13.968-.038-.091-.074-.185-.109-.282-.273-.6-.613-1.49-.522-2.608.001-.017.003-.031.004-.048.017-.358.077-.717.178-1.061l-.205-.412c-.055-.117-.105-.236-.151-.358l-.314-.89c-.203-.594-.6-1.746-.933-2.278-.156-.017-.357-.028-.609-.028-.872 0-1.906.128-3.002.262-1.099.133-2.172.258-3.155.289z" fill="#fff"/><path d="m321.201 8.737c.433 0 .877.02 1.334.065 2.859.28 6.949.217 7.895 3.131.477 1.398 1.561 2.344 2.194 3.507 1.026 1.686 1.758 3.354 2.78 4.922 5.156-3.226 7.496-9.756 14.228-11.03.174-.028.355-.058.468-.079.432.042-.782.545-.649.681.132.099.355.137.638.137.958 0 2.614-.438 3.841-.438 1.015 0 1.736.299 1.528 1.393-.426 2.236-3.135 5.162-4.888 6.834-1.884 1.798-5.427 2.584-7.822 3.737-1.19.514-3.232.959-4.165 1.872-.933.915-.053 2.35.439 3.259 1.204 2.582 1.788 5.306 2.584 7.785.932 2.902 1.962 5.426 2.178 8.504.198 2.819 1.005 5.682.439 8.724-.543 2.92.209 5.791-.13 8.669-.226 1.918-.376 4.093-1.364 5.828-.933 1.637-1.89 2.929-2.329 4.746-.848 3.511-3.02 6.176-5.708 8.672-2.886 2.68-6.544 3.681-9.707 5.804-3.186 2.139-6.533 1.289-10.122 2.309-1.115.317-2.21.452-3.294.452-2.787 0-5.497-.896-8.28-1.905-3.478-1.261-6.149-3.577-8.436-6.366-4.841-5.464-5.444-14.015-6.128-20.672-.216-2.101.021-4.129.275-6.17.223-1.793-.194-3.589-.155-5.318.082-3.702.952-6.956 2.181-10.324.709-1.942.72-4.089 1.411-6.018.638-1.78 1.784-3.534 2.545-5.364 1.368-3.297 3.045-6.955 6.423-9.303 1.76-1.17 2.978-2.605 4.463-4.025 1.35-1.292 2.95-1.604 4.984-1.876 3.653-.6 6.589-2.143 10.349-2.143m1.546 14.93c-1.149-2.054-2.203-3.479-3.67-5.297-.004 2.472.584 4.604 3.67 5.297m-6.614 5.195c-.071 0-.143 0-.217 0-.926 0-2.081.029-2.585.814-1.095 2.047-1.252 4.895-1.491 7.097-.291 2.688-1.649 5.112-1.782 7.825-.298 6.045-.829 11.581.762 17.472.67 2.757.814 5.482 2.819 7.696 1.641 1.812 3.414 3.476 5.034 5.247 1.281 1.4 3.336 2.62 5.391 2.62.645 0 1.29-.12 1.911-.393 2.44-1.07 3.379-3.849 4.049-5.888.903-2.748 1.075-6.053 1.235-8.947.14-2.531 1.053-5.281 1.025-7.848-.061-5.485-.829-10.472-2.812-15.819-.121-.257-.243-.514-.234-.636.008-.103.009-.121.014-.193.099.328 1.535 1.926 1.526 2.042.611-.698-1.604-4.825-1.969-5.595-.706-1.908-1.528-5.263-3.967-5.847-.616-.147-1.287-.204-1.986-.204-2.092 0-4.444.501-6.375.555-.108.001-.225.002-.348.002m33.967-19.609c.072.007.108.01.108.01s-.035-.003-.108-.01m0 0h.015m-.015 0h.015m-.015 0c-.11.018-.209.034-.298.048.099-.017.198-.033.298-.048m-.298.048c-.057.01-.114.02-.17.031-.251.041-.488.078-.495.078-.005 0 .167-.028.665-.109m-20.545 28.552c-.001.021-.003.038-.004.054-.008-.027-.007-.045.004-.054m.216.883c.102.279.136.386.132.386-.005 0-.07-.174-.132-.386m-8.272-38.736c-3.518 0-6.394.828-8.705 1.493-1.1.316-2.055.591-2.949.747-2.247.302-6.266.902-9.716 4.202-.437.419-.855.837-1.267 1.252-.795.8-1.424 1.432-1.993 1.811-.05.033-.1.067-.149.102-5.705 3.965-8.178 9.927-9.507 13.129-.195.468-.517 1.087-.858 1.743-.605 1.163-1.29 2.482-1.842 4.02-.596 1.663-.863 3.193-1.077 4.422-.095.548-.226 1.299-.318 1.55-1.198 3.283-2.588 7.741-2.708 13.125-.026 1.182.064 2.248.137 3.105.041.477.096 1.131.08 1.356-.259 2.077-.618 4.96-.294 8.114l.113 1.121c.724 7.208 1.714 17.064 8.05 24.321 3.594 4.349 7.558 7.267 12.114 8.919 3.39 1.229 7.051 2.429 11.258 2.429 1.936 0 3.847-.264 5.68-.784.571-.162 1.408-.236 2.379-.321 2.544-.224 6.388-.562 10.226-3.138.794-.533 1.802-1.035 2.969-1.617 2.298-1.146 5.158-2.572 7.814-5.039 2.828-2.627 6.761-6.834 8.256-13.024.063-.178.443-.81.72-1.271.233-.388.471-.785.708-1.201 1.775-3.115 2.128-6.264 2.385-8.564l.064-.567c.243-2.066.139-3.944.056-5.452-.06-1.074-.116-2.089-.013-2.642.652-3.502.247-6.508-.079-8.924-.091-.676-.187-1.345-.234-2.011-.254-3.622-1.23-6.532-2.092-9.1-.161-.479-.324-.965-.484-1.462-.211-.658-.404-1.335-.601-2.022-.121-.421-.245-.853-.376-1.296 2.401-.902 5.264-2.064 7.653-4.343 6.409-6.115 7.184-10.182 7.439-11.518.566-2.967-.168-5.947-2.012-8.176-1.109-1.341-3.637-3.59-8.098-3.59-.369 0-.728.015-1.075.039-.528-.167-1.08-.286-1.65-.352-.085-.01-.17-.02-.256-.028-.276-.027-.556-.04-.838-.04-.216 0-.434.008-.652.024-.319.023-.633.063-.941.12-.036.005-.073.011-.11.017-.193.031-.381.066-.565.103-4.612.911-7.911 3.173-10.458 5.534-3.451-5.365-10.282-5.906-13.084-6.129-.316-.025-.623-.049-.915-.077-.724-.074-1.459-.11-2.185-.11zm-.978 64.017c-.142-.374-.328-1.288-.467-1.97-.138-.675-.278-1.357-.445-2.041-.018-.072-.036-.144-.055-.216-1.054-3.899-.832-8.009-.575-12.768l.105-1.995c.017-.355.317-1.329.536-2.041.422-1.372.943-3.068 1.182-5.058-.038 1.796.481 3.224.855 4.075.026.069.053.137.08.205 1.406 3.933 2.059 7.794 2.11 12.445.006.571-.2 1.69-.383 2.677-.252 1.362-.537 2.906-.63 4.594-.077 1.404-.158 2.875-.315 4.179-.673-.685-1.347-1.373-1.998-2.086z" fill="#381c1b"/><path d="m368.957 97.363c-.39 0-.775-.014-1.152-.051-1.411-.128-2.709-.447-3.852-.731-.466-.114-.927-.23-1.384-.324-2.241-.458-3.996-1.027-5.513-1.783-1.534-.768-3.002-1.82-4.363-3.126-1.61-1.547-2.718-3.45-3.12-4.198-.789-1.47-1.378-3.129-1.751-4.935-.293-1.414-.621-3.001-.606-4.824.014-1.775.134-3.353.365-4.829.191-1.22.528-2.463.825-3.558l.23-.865c.23-.887.53-1.832.843-2.804l.459-1.453c.326-1.069.771-1.988 1.165-2.799.202-.418.41-.828.562-1.24.162-.441.284-.919.415-1.402.237-.876.506-1.869.939-2.881.328-.768.741-1.505 1.158-2.23.26-.452.535-.89.708-1.351.166-.444.299-.936.438-1.436.266-.95.55-1.92.92-2.801.237-.566.405-1.126.579-1.684.26-.836.526-1.67.882-2.509.557-1.314 1.175-2.765 1.756-4.087 0 0 1.428-3.308 1.753-4.039.267-.603.512-1.251.758-1.897.273-.714.546-1.425.838-2.096.646-1.485 1.374-2.966 2.028-4.249.329-.643.72-1.28 1.125-1.928.337-.54.695-1.086.961-1.689.172-.387.293-.799.421-1.206.293-.927.657-2.082 1.33-3.2.988-1.641 2.356-3.072 3.456-4.221 1.095-1.143 2.516-2.628 4.488-3.737 1.62-.916 3.578-1.644 5.661-2.105 1.387-.307 2.746-.464 4.036-.464 1.055 0 2.066.105 3.008.313 2.245.506 5.169 1.994 6.436 6.229.034.088.145.35.255.614.444 1.084 1.054 2.565 1.01 4.28-.031 1.186-.233 2.236-.411 3.16-.067.347-.134.694-.186 1.041-.212 1.411-.553 2.753-.852 3.823.068.623.124 1.459-.104 2.472-.3 1.337-.923 2.344-1.378 3.077-.117.185-.242.364-.33.56-.512 1.027-1.025 1.894-1.54 2.762-.434.728-.87 1.451-1.229 2.184-.22.452-.351.95-.499 1.442-.262.859-.535 1.715-.902 2.509-.515 1.115-1.176 2.048-1.708 2.796-.273.387-.553.751-.749 1.135-.245.481-.39 1.001-.547 1.499-.262.822-.557 1.755-1.048 2.688-.613 1.166-1.253 2.42-1.839 3.726-.304.677-.56 1.399-.818 2.119-.209.58-.417 1.16-.64 1.721-.283.72-.674 1.465-1.088 2.224-.323.592-.627 1.152-.778 1.581-.154.441-.264.97-.392 1.53-.203.885-.425 1.823-.724 2.73-.324.987-.799 1.849-1.217 2.611-.228.412-.572 1.038-.64 1.286-.091.33-.1 1.106-.108 1.729-.007.671-.02 1.334-.078 1.957-.092.998-.149 2.031.065 2.773.098.344.401 1.391.84 1.749.856.697 2.321 1.118 3.349 1.374 1.172.293 2.618.503 4.016.708l1.213.182c.646.1 1.298.085 1.948.088.717.006 1.431.011 2.135.068.944.071 1.846.216 2.728.361.594.097 1.176.196 1.765.245.822.065 1.685.176 2.547.284.666.088 1.332.173 1.975.23.122.011.707.105.712.108.434.077.843.216 1.222.41 2.342.848 3.167 2.574 3.429 3.37.055.165.1.333.134.503.491 2.429-.273 5.697-6.695 7.494-.589.168-1.022.336-1.473.501-1.199.444-2.693.998-4.29 1.146-.375.037-.764.054-1.156.054-.673 0-1.362-.051-2.052-.108-.454-.037-.906-.077-1.347-.077-.138 0-.276.003-.408.023-.654.097-1.297.233-1.935.37-1.001.21-1.994.415-2.989.532-1.143.137-2.396.191-3.602.242l-1.462.068c-.377.023-.768.034-1.169.034-.557 0-1.139-.02-1.738-.04-.53-.02-1.078-.04-1.633-.04l-.392.006c-.451.009-.931.063-1.422.111-.858.085-1.733.165-2.577.165z" fill="#fff"/><path d="m386.314 12.999c.717 0 1.411.067 2.063.212 1.564.351 2.609 1.252 3.197 3.214.41 1.185 1.11 2.417 1.081 3.531-.032 1.235-.367 2.444-.55 3.665s-.496 2.443-.831 3.62c-.27.948.136 1.459-.066 2.363-.226 1.007-.996 1.85-1.424 2.787-.815 1.624-1.926 3.217-2.717 4.84-.619 1.27-.851 2.759-1.441 4.035-.638 1.381-1.755 2.546-2.382 3.775-.697 1.368-.942 2.941-1.572 4.14-.652 1.241-1.332 2.58-1.957 3.967-.576 1.278-1.01 2.701-1.533 4.025-.493 1.248-1.441 2.575-1.928 3.972-.41 1.175-.64 2.808-1.142 4.334-.425 1.295-1.537 2.713-1.92 4.1-.378 1.37-.193 3.027-.324 4.442-.143 1.539-.185 3 .217 4.392.388 1.344.981 2.87 2.283 3.928 1.441 1.171 3.291 1.783 5.048 2.221 1.746.436 3.788.686 5.623.969 1.444.223 2.95.078 4.404.192 1.586.124 3.016.488 4.477.608 1.462.116 3.034.383 4.497.511.131.023.131.023.261.045.053.009.079.014.131.023-.083.022-.164.034-.244.038-.182-.028-.372-.046-.563-.053.161.028.321.055.487.055.025 0 .051-.001.076-.002.71.109 1.307.373 1.448.798.288 1.431-2.828 2.206-3.791 2.48-1.452.413-3.218 1.299-4.795 1.45-.244.023-.493.033-.745.033-1.113 0-2.286-.185-3.398-.185-.357 0-.708.019-1.049.07-1.637.241-3.211.698-4.794.885-1.552.183-3.304.198-4.819.289-.293.018-.596.025-.907.025-1.049 0-2.192-.077-3.37-.077-.16 0-.32.001-.481.005-1.211.024-2.606.276-3.913.276-.252 0-.501-.009-.745-.032-1.626-.148-3.212-.667-4.755-.985-1.543-.316-3.101-.741-4.445-1.412-1.233-.616-2.345-1.462-3.289-2.37-.893-.858-1.745-2.087-2.299-3.117-.637-1.184-1.057-2.476-1.319-3.746-.263-1.27-.527-2.542-.516-3.906.012-1.366.094-2.799.312-4.191.201-1.281.641-2.738.967-3.996.33-1.273.819-2.659 1.255-4.087.401-1.315 1.185-2.558 1.643-3.795.47-1.269.718-2.78 1.275-4.086.558-1.303 1.463-2.494 1.938-3.758.465-1.237.751-2.785 1.296-4.081.59-1.403.863-2.782 1.456-4.182.548-1.294 1.156-2.726 1.731-4.028.573-1.299 1.165-2.722 1.744-4.022.578-1.3 1.055-2.747 1.615-4.035.607-1.397 1.294-2.789 1.911-4.001.637-1.25 1.575-2.443 2.192-3.837.569-1.285.806-2.772 1.498-3.921.746-1.24 1.889-2.429 2.905-3.491.947-.99 2.019-2.114 3.438-2.914 1.255-.707 2.814-1.278 4.461-1.644 1.04-.23 2.089-.361 3.094-.361m10.945 73.849c-.131-.022-.262-.045-.392-.066.129.021.26.043.392.066m-10.945-82.587c-1.607 0-3.285.192-4.986.569-2.497.554-4.869 1.44-6.859 2.563-2.537 1.431-4.284 3.257-5.441 4.465-1.299 1.357-2.857 2.984-4.097 5.045-.94 1.561-1.409 3.05-1.752 4.137-.081.257-.152.518-.253.764-.095.215-.412.722-.667 1.129-.387.618-.868 1.388-1.315 2.266-.882 1.73-1.561 3.155-2.139 4.486-.319.733-.618 1.509-.916 2.29-.217.568-.431 1.141-.67 1.68-.324.727-.655 1.499-.985 2.268-.258.601-.515 1.201-.768 1.775-.591 1.337-1.217 2.813-1.782 4.146-.468 1.104-.78 2.109-1.032 2.917-.163.525-.305.979-.434 1.288-.513 1.22-.838 2.383-1.099 3.316-.105.374-.195.744-.319 1.074-.089.185-.253.444-.407.711-.411.715-.923 1.604-1.385 2.682-.556 1.303-.88 2.501-1.14 3.464-.096.354-.178.706-.297 1.028-.106.285-.257.565-.397.854-.416.859-.985 2.035-1.409 3.424-.141.46-.287.916-.432 1.364-.343 1.067-.671 2.103-.924 3.08l-.223.834c-.324 1.198-.692 2.555-.918 4.003-.264 1.684-.4 3.473-.417 5.469-.019 2.297.378 4.213.697 5.752.456 2.213 1.19 4.273 2.18 6.113.621 1.154 1.958 3.374 3.941 5.279 1.682 1.616 3.512 2.923 5.438 3.885 1.864.931 3.96 1.615 6.596 2.155.388.08.795.183 1.206.285 1.23.304 2.761.683 4.508.842.503.046 1.017.068 1.539.068 1.138 0 2.177-.104 3.011-.187.372-.037.736-.084 1.077-.091l.306-.003c.504 0 1 .019 1.483.035.65.022 1.282.042 1.887.042.491 0 .969-.012 1.432-.04.444-.027.911-.046 1.387-.065 1.199-.05 2.557-.106 3.931-.268 1.253-.148 2.373-.384 3.361-.593.503-.106 1.01-.218 1.525-.3.311.005.618.038.926.063.666.054 1.495.121 2.405.121.532 0 1.058-.023 1.574-.072 2.163-.206 4.027-.896 5.389-1.4.339-.125.665-.257.971-.344l.142-.04c10.855-3.025 10.261-10.386 9.821-12.57-.07-.347-.161-.688-.272-1.024-.882-2.659-2.863-4.727-5.515-5.863-.77-.394-1.608-.679-2.497-.832l-.385-.067c-.241-.042-.484-.073-.728-.095-.585-.051-1.191-.132-1.798-.209-.934-.12-1.869-.236-2.768-.308-.455-.037-.921-.124-1.398-.202-.848-.14-1.904-.313-3.093-.406-.812-.063-1.634-.075-2.457-.079-.457-.002-1.082-.005-1.296-.037l-1.274-.19c-1.286-.189-2.615-.384-3.566-.621-.442-.11-.776-.208-1.027-.29.004-.201.021-.508.063-.967.068-.734.087-1.514.097-2.304.002-.199-.001-.4.004-.599.066-.12.135-.241.202-.361.46-.836 1.091-1.982 1.543-3.357.38-1.157.629-2.24.829-3.11.091-.394.164-.769.268-1.092.05-.118.3-.578.483-.913.399-.734.896-1.646 1.316-2.709.239-.604.463-1.225.686-1.847.246-.687.479-1.337.688-1.8.579-1.284 1.227-2.542 1.726-3.494.669-1.273 1.058-2.498 1.342-3.393.088-.278.205-.647.275-.827.126-.201.276-.397.421-.602.602-.848 1.427-2.01 2.112-3.493.539-1.166.859-2.226 1.117-3.077.087-.288.161-.581.274-.855.221-.45.613-1.107 1.027-1.803.508-.853 1.084-1.821 1.617-2.883.02-.04.04-.081.06-.121l.15-.245c.549-.886 1.469-2.368 1.931-4.428.269-1.198.294-2.248.257-3.021.276-1.05.56-2.276.755-3.578.043-.29.101-.578.157-.867.189-.982.447-2.327.487-3.866.069-2.64-.811-4.781-1.337-6.06-.063-.154-.13-.308-.187-.46-1.506-4.744-4.897-7.928-9.576-8.977-1.276-.284-2.608-.426-3.983-.426z" fill="#381c1b"/><path d="m428.84 110.881c-.725 0-1.47-.009-2.224-.034l-1.135-.046c-.823-.034-1.677-.071-2.457-.071 0 0-1.874.037-2.372.037-1.109 0-1.994-.057-2.784-.179-.865-.134-1.772-.327-2.719-.532l-1.421-.296c-1.139-.228-2.339-.401-3.551-.583-.506-.071-.893-.074-1.323-.088-1.015-.037-2.278-.08-3.511-.31-3.336-.623-5.997-2.893-6.775-5.782-.651-2.412-.272-4.61.162-6.03 1.045-3.444 3.416-4.821 5.22-5.37 1.698-.515 3.589-.705 4.565-.771.319-.023.653-.074.993-.119.833-.114 1.682-.216 2.5-.216.218 0 .435.006.648.02.04-.31.065-.62.094-.927.074-.796.155-1.593.316-2.409l.236-1.266c.172-.956.344-1.891.575-2.816.169-.685.421-1.453.678-2.218.172-.515.35-1.027.466-1.487.383-1.499.732-2.867 1.091-4.033.178-.572.314-1.126.452-1.678.178-.711.357-1.422.583-2.15.159-.509.292-1.047.431-1.596.186-.737.38-1.493.61-2.236.336-1.072.779-2.284 1.172-3.353l.182-.495c.191-.518.337-1.047.486-1.576.213-.751.429-1.499.701-2.23.255-.691.638-1.436 1.047-2.184.218-.398.515-.947.589-1.18.159-.501.249-.993.347-1.482.155-.776.319-1.553.566-2.346.151-.489.24-.976.337-1.459.161-.799.328-1.598.587-2.412.323-1.018.828-1.891 1.234-2.594.166-.287.348-.56.455-.836.09-.353.132-.825.189-1.294.054-.438.112-.879.183-1.311-.437-.06-.89-.137-1.35-.213-.586-.102-1.185-.216-1.725-.245-.542-.028-1.153-.031-1.788-.031l-2.224-.003-.785.02c-.476.017-1.013.037-1.56.037-1.515 0-5.536 0-7.329-3.285-1.401-2.193-.795-5.572 1.728-8.572 1.414-1.684 3.517-3.015 4.356-3.507.138-.082.282-.156.428-.222 2.154-.964 4.561-1.556 6.775-1.667.294-.014.594-.023.896-.023.853 0 1.725.057 2.588.117.644.046 1.281.094 1.894.094.893-.02 1.556-.077 2.217-.128 1.007-.082 2.011-.156 2.952-.156 1.078.009 2.089.111 3.094.222.687.074 1.371.156 2.001.165l3.103-.02c.657 0 1.313.011 1.955.051.914.051 1.825.145 2.755.242.725.077 1.465.154 2.234.208.422.028.846.034 1.274.034l1.708-.009c.637 0 1.271.011 1.898.057 1.728.119 3.316.228 4.885.358.685.057 1.394.088 2.089.119 1.133.051 2.241.108 3.23.23.872.108 1.759.279 2.659.458.799.159 1.61.327 2.42.41l.761.065c.963.074 2.16.168 3.305.398 1.533.31 3.018.611 4.32 1.462.111.074.219.151.321.23 2.24.711 3.965 2.526 4.322 4.767.373 2.332-.823 5.199-4.332 6.348-1.697.461-3.301.828-4.902 1.192-1.864.429-3.487.799-5.075 1.061l-1.129.191c-1.257.213-2.54.429-3.867.58-1.138.131-2.4.219-3.682.301l-1.311.091c-.94.068-1.873.102-2.799.119-.077.472-.162.956-.276 1.456-.274 1.195-.838 2.093-1.212 2.691-.084.134-.178.267-.247.412l-.107.634c-.162.796-.331 1.59-.548 2.304-.179.592-.304 1.263-.434 1.914-.155.779-.311 1.539-.496 2.204-.161.583-.282 1.192-.405 1.803-.165.813-.334 1.63-.552 2.412-.299 1.081-.772 1.994-1.19 2.801-.219.424-.461.853-.614 1.314-.223.671-.394 1.416-.569 2.156-.146.614-.293 1.229-.455 1.817-.215.779-.552 1.638-.902 2.494-.21.512-.429 1.018-.56 1.487-.146.523-.219 1.075-.303 1.627-.135.887-.28 1.772-.511 2.608-.27.987-.619 2.025-.971 3.06l-.459 1.377c-.236.725-.41 1.49-.584 2.236-.151.651-.303 1.291-.471 1.897-.327 1.183-.742 2.713-1.024 3.973-.219.973-.57 1.772-.826 2.352-.007.017-.016.034-.023.051.528-.088 1.091-.156 1.678-.182l.481-.009c1.145 0 2.191.171 3.033.307.371.063.735.125 1.092.159 1.412.139 2.993.469 4.848 1.007l.668.185c1.173.319 2.634.717 4.081 1.544 3.404 1.951 4.134 4.292 4.147 5.91.01 1.217-.39 3.507-3.184 5.171-.806.515-1.688.825-2.332 1.047-.145.051-.292.097-.431.151-1.994 1.88-4.532 2.216-6.232 2.44l-.499.068c-.491.068-.987.188-1.482.301-.87.199-1.857.424-2.895.512-.98.082-2.001.105-3.052.128l-1.379.034c-.707.023-1.421.065-2.133.102-.648.037-1.296.074-1.933.1-.57.023-1.126.082-1.675.139-.912.091-1.807.176-2.705.182z" fill="#fff"/><path d="m433.325 29.527c.039 0 .078 0 .117.001 1.568.013 3.381.362 4.928.385.18.003.361.004.543.004.852 0 1.733-.023 2.609-.023.577 0 1.152.01 1.716.044 1.606.093 3.2.323 4.937.446.519.037 1.047.046 1.579.046.57 0 1.144-.011 1.716-.011.532 0 1.062.01 1.585.046 1.609.113 3.228.222 4.828.355 1.744.145 3.607.141 5.146.332 1.664.206 3.419.699 5.172.877.876.091 2.42.154 3.648.403 1.089.221 2.149.415 2.792.835-.031.121.08.276.271.706.009.002.017.003.024.003.101 0 .054-.21.155-.21.007 0 .015.001.024.003-.03-.042-.033-.059-.026-.059.021 0 .12.118-.005.18.056-.004.112-.005.168-.005 1.901 0 3.276 2.086.733 2.915-1.45.389-3.038.748-4.621 1.111-1.582.363-3.165.731-4.712.985s-3.126.552-4.777.741c-1.478.169-3.166.255-4.816.375s-3.27.123-4.888.131-1.282.468-1.584 1.791c-.22.965-.3 1.959-.547 3.043-.219.962-1.131 1.77-1.377 2.851-.219.965-.388 2.004-.656 2.89-.4 1.32-.612 2.971-.957 4.216-.379 1.366-.579 2.849-.958 4.216-.346 1.248-1.276 2.503-1.743 3.909-.428 1.292-.711 2.818-1.088 4.186-.344 1.25-1.113 2.727-1.46 3.974-.378 1.355-.442 2.884-.816 4.248-.375 1.369-.918 2.831-1.375 4.247-.458 1.416-.731 2.953-1.107 4.31-.346 1.249-.781 2.862-1.078 4.186-.243 1.085-.851 1.963-1.067 2.926-.243 1.085-.429 2.098-.674 3.011-.4 1.493-.085.994.972 1.74.562.24 1.206.604 1.843.604.069 0 .137-.004.206-.013 1.276-.216 2.612-.668 3.993-.726.098-.004.195-.006.293-.006 1.28 0 2.532.333 3.715.449 1.288.126 2.694.46 4.05.853 1.228.356 2.597.639 3.796 1.326 1.562.895 2.994 2.285.894 3.537-1.144.728-2.528.764-3.432 1.683-1.1 1.118-2.913 1.23-4.443 1.448-1.365.194-2.816.678-4.12.786-1.342.112-2.75.099-4.223.149-1.349.046-2.742.149-4.088.203-1.47.058-2.848.31-4.233.317-.659.004-1.351.011-2.063.011-.679 0-1.376-.007-2.082-.03-1.183-.039-2.525-.118-3.715-.118-.135 0-.268.001-.399.003-.651.011-1.331.033-1.997.033-.742 0-1.467-.027-2.113-.127-1.233-.19-2.555-.517-3.961-.796-1.279-.253-2.627-.45-3.99-.651-.985-.145-2.905-.054-4.44-.34-1.663-.31-3.014-1.335-3.361-2.624-.334-1.24-.204-2.548.122-3.619s.923-2.041 2.316-2.465c1.072-.326 2.442-.514 3.593-.593 1.02-.07 2.142-.325 3.196-.325.164 0 .327.006.487.02 1.191.105 2.205.427 3.371.656.11-1.237.738-2.371.978-3.585.263-1.331.241-2.596.503-3.927.263-1.334.451-2.618.765-3.879.283-1.14.848-2.54 1.138-3.677.317-1.243.668-2.643 1.033-3.823.401-1.298.631-2.527 1.034-3.825.366-1.18.635-2.526 1.038-3.822.368-1.18.877-2.534 1.286-3.647.457-1.244.722-2.552 1.181-3.796.411-1.113 1.333-2.384 1.705-3.562.409-1.297.512-2.543.917-3.845.404-1.305.507-2.553.917-3.848.373-1.177 1.428-2.423 1.725-3.557.326-1.241.326-2.647.648-3.9.322-1.248.793-2.486 1.18-3.67-1.42-.161-2.909-.399-4.262-.475-1.236-.07-2.884-.505-4.239-.575-.631-.033-1.335-.038-2.065-.038-.374 0-.755.001-1.136.001-.33 0-.661-.001-.988-.005-.029 0-.058-.001-.089-.001-.564 0-1.419.058-2.307.058-1.472 0-3.032-.16-3.496-1.01-.451-.711.065-2.273 1.238-3.67.95-1.131 2.573-2.167 3.226-2.55 1.587-.712 3.489-1.205 5.205-1.291.225-.011.452-.016.681-.016 1.497 0 3.054.209 4.492.209.12 0 .239-.001.357-.005 1.572-.037 3.272-.274 4.789-.274m0-8.737c-1.179 0-2.304.09-3.297.17-.58.047-1.162.098-1.723.113-.01 0-.021 0-.031 0-.627 0-1.156-.044-1.691-.081-.86-.06-1.836-.127-2.893-.127-.375 0-.747.009-1.116.027-2.748.137-5.712.863-8.347 2.046-.291.13-.574.277-.849.438-1.284.754-3.705 2.338-5.491 4.465-3.707 4.416-4.493 9.635-2.088 13.701 2.043 3.54 5.755 5.334 11.038 5.334.608 0 1.204-.02 1.732-.04.218-.008.414-.018.575-.018l1.076.006h.117c-.105.266-.205.545-.297.837-.352 1.112-.547 2.087-.704 2.87-.084.42-.164.818-.23 1.032-.332 1.068-.522 2.015-.674 2.776-.064.318-.129.644-.185.867-.092.186-.2.372-.301.558-.402.738-.902 1.656-1.311 2.762-.349.945-.592 1.801-.806 2.556-.119.421-.231.845-.381 1.256l-.162.441c-.412 1.116-.878 2.381-1.264 3.619-.255.818-.47 1.652-.676 2.466-.119.471-.231.933-.365 1.364-.252.813-.454 1.603-.652 2.394-.119.476-.234.954-.386 1.443-.402 1.3-.762 2.714-1.079 3.961l-.072.281c-.093.367-.239.771-.376 1.18-.256.764-.546 1.629-.775 2.551-.276 1.111-.467 2.168-.635 3.1-.071.394-.143.791-.222 1.194-.004.023-.009.045-.013.067-.186.027-.369.054-.547.066-1.42.098-3.533.342-5.536.95-2.309.702-6.437 2.71-8.134 8.278-.599 1.967-1.121 5.028-.2 8.441 1.214 4.503 5.217 8.011 10.198 8.938 1.547.288 3.048.341 4.144.38.27.01.521.015.734.03 1.252.185 2.379.349 3.451.561.463.092.914.189 1.355.284 1.033.222 2.025.43 2.972.576 1.013.157 2.108.229 3.446.229.517 0 1.041-.011 1.557-.022l.589-.012.25-.002c.701 0 1.464.035 2.202.066l1.224.048c.805.027 1.599.035 2.372.035l1.463-.007.646-.004c1.18-.006 2.214-.112 3.127-.205.46-.047.927-.1 1.408-.119.667-.027 1.345-.064 2.023-.102.675-.038 1.35-.076 2.014-.099.443-.015.88-.024 1.311-.033 1.064-.022 2.165-.044 3.339-.142 1.35-.112 2.55-.387 3.513-.608.374-.086.748-.183 1.114-.235l.447-.06c1.826-.24 5.041-.663 7.89-2.92.735-.263 1.776-.67 2.885-1.359 3.345-2.037 5.243-5.275 5.211-8.901-.02-2.262-.87-6.524-6.341-9.659-1.932-1.107-3.764-1.605-5.102-1.969l-.605-.168c-2.122-.615-3.964-.993-5.63-1.157-.266-.026-.536-.077-.812-.122-.032-.005-.065-.011-.099-.016.086-.318.177-.652.275-1.003.183-.661.349-1.358.515-2.066.168-.718.326-1.395.487-1.892.141-.436.291-.878.441-1.319.358-1.054.729-2.145 1.046-3.304.32-1.168.484-2.242.615-3.105.059-.39.141-.923.191-1.107.095-.311.252-.658.397-1.011.338-.827.759-1.857 1.071-2.99.176-.638.336-1.304.494-1.972.159-.67.324-1.364.463-1.784.081-.193.221-.436.347-.679.464-.896 1.1-2.123 1.522-3.645.271-.978.457-1.894.621-2.702.104-.51.2-1.022.336-1.511.211-.761.394-1.633.572-2.527.105-.528.236-1.185.328-1.49.291-.958.475-1.852.637-2.643.289-.474.655-1.114.982-1.905l1.008-.069c1.344-.089 2.671-.181 3.873-.319 1.486-.17 2.882-.408 4.114-.618l1.084-.182c1.756-.288 3.434-.674 5.057-1.046l.194-.045.393-.09c1.558-.357 3.11-.715 4.538-1.098.15-.04.298-.084.446-.132 5.079-1.657 8.078-6.257 7.295-11.185-.577-3.628-3.163-6.608-6.572-7.972-2.007-1.31-4.103-1.732-5.633-2.041l-.197-.04c-1.413-.287-2.822-.397-3.85-.478-.24-.019-.457-.035-.637-.053-.549-.056-1.264-.198-2.022-.348-.888-.176-1.894-.375-2.975-.509-1.222-.151-2.415-.206-3.568-.258-.641-.029-1.293-.057-1.926-.109-1.419-.118-2.853-.218-4.281-.318l-.662-.046c-.725-.051-1.459-.068-2.196-.068l-.944.006-.773.005c-.323 0-.644-.002-.96-.024-.714-.051-1.4-.124-2.073-.193-1.007-.105-1.992-.204-2.98-.261-.719-.043-1.468-.058-2.219-.058-.48 0-.962.006-1.44.013-.394.005-.785.011-1.169.011l-.418-.003c-.346-.005-.976-.074-1.585-.14-1.012-.11-2.159-.235-3.397-.245-.026-.002-.166-.002-.19-.002z" fill="#381c1b"/><path d="m487.891 122.875c-1.052 0-2.093-.048-3.116-.159-1.586-.25-2.806-.685-3.884-1.069-.757-.27-1.473-.523-2.063-.64-2.418-.478-4.672-.922-7.048-2.477-7.746-5.327-11.911-14.164-10.448-22.042.043-.23-.009-.867-.044-1.334-.104-1.325-.246-3.14.491-5.026.694-1.778 1.765-3.547 3.18-5.262 3.218-3.666 9.279-4.701 12.365-4.753.024 0 .32-.003.344-.003 3.666 0 6.089 1.166 7.2 3.464.589 1.22 1.21 3.734-1.253 6.84-1.954 2.46-1.637 3.092-1.502 3.362 1.604 3.2 3.013 5.62 5.051 7.77.429-.301.886-.728 1.33-1.163 1.203-1.22 1.112-3.894 1.022-6.482-.001-.031-.011-.316-.011-.35-.014-1.195-.186-2.457-.368-3.794l-.138-1.021c-.166-1.297-.037-2.446.068-3.373.046-.404.108-.958.085-1.146-.654-4.335-1.213-8.387-1.763-12.557-.356-2.062-.559-4.167-.707-5.933-.156-1.846.169-3.41.431-4.667.114-.54.236-1.089.29-1.675.026-.333-.044-.694-.087-1.064-.173-1.55-.438-3.894.879-6.175.633-1.104 1.432-1.943 2.075-2.619.273-.287.688-.722.789-.896l.222-.546c.572-1.428 1.529-3.814 4.047-5.236 1.133-.64 2.308-.976 3.345-1.271.437-.125.869-.23 1.226-.39 4.268-1.766 8.696-3.382 12.911-3.552l1.165-.065c.968-.06 1.923-.117 2.863-.117 1.183 0 2.237.088 3.222.267 2.531.466 4.524 1.647 6.123 2.597l.301.176c.469.279.976.526 1.483.779 1.552.774 3.483 1.735 4.965 3.41 1.411 1.598 3.075 3.481 3.882 5.904.717 2.218 1.859 5.751.988 8.99.018.168.028.338.027.509-.01 1.735-.532 3.166-.951 4.312-.173.478-.39 1.069-.411 1.317-.159 1.9-.668 3.498-1.118 4.912l-.282.904c-1.836 6.092-7.716 6.092-9.649 6.092-.567 0-1.153-.017-1.749-.037l-1.197-.028c-3.604-.048-5.57-1.57-6.586-2.836-2.369-2.955-1.55-6.886-1.28-8.177.277-1.331.759-2.477 1.145-3.399.711-1.689.711-1.689.306-2.241-1.167-1.587-2.838-2.6-3.476-2.6-.555.39-.418 3.515-.374 4.542l.038.956c.07 2.159.162 4.232.513 5.893.043.125.294.575.479.902.496.885 1.177 2.099 1.499 3.598l.348 1.334c.869 3.311 1.951 7.432 1.448 11.22-.122.919.215 2.031.638 3.441.459 1.524.98 3.251 1.078 5.293.031.503.085 1.055.138 1.604.128 1.331.273 2.838.174 4.448-.171 2.728-1.375 4.585-2.342 6.078l-.215.333c-.274.455-.579.987-.873 1.499-1.488 2.591-3.026 5.27-6.517 7.62l-.855.577c-2.678 1.826-5.712 3.894-9.751 4.346l-1.937.23c-2.516.309-5.369.656-8.179.656z" fill="#fff"/><path d="m516.832 41.822c.825 0 1.639.05 2.444.197 1.885.345 3.461 1.337 4.987 2.239 1.794 1.06 4.07 1.818 5.398 3.322 1.168 1.322 2.472 2.777 3.009 4.389.755 2.34 1.957 6.012.067 7.976-.085 1.334-.066 1.777-.013 1.777.013 0 .027-.026.043-.072.097.165.097.165.097.165.706-.282.341-1.449.598-1.752-.01 1.821-1.195 3.505-1.346 5.281-.15 1.776-.751 3.336-1.231 4.93-.783 2.599-2.924 2.981-5.472 2.981-.921 0-1.895-.05-2.878-.063-4.009-.054-4.296-2.656-3.65-5.752.667-3.197 3.324-5.547.694-9.121-1.524-2.071-4.315-4.38-6.996-4.38-.839 0-1.666.226-2.44.756-2.863 1.958-2.357 6.259-2.26 9.253.071 2.204.169 4.595.604 6.655.316 1.495 1.625 2.842 1.981 4.51.847 3.378 2.195 7.624 1.738 11.063-.438 3.294 1.517 6.081 1.684 9.519.109 1.858.431 3.697.314 5.572-.108 1.726-.978 2.927-1.872 4.322-1.906 3.139-2.905 5.667-6.153 7.85-2.72 1.828-5.337 3.839-8.657 4.211-3.054.342-6.399.855-9.628.855-.895 0-1.782-.039-2.651-.133-1.839-.298-3.67-1.277-5.564-1.652-2.028-.402-3.771-.711-5.504-1.846-5.731-3.941-9.763-11.044-8.547-17.591.338-1.82-.44-3.875.22-5.564.569-1.456 1.443-2.814 2.481-4.071 1.818-2.071 6.247-3.122 9.068-3.168.089-.001.178-.002.264-.002 3.024 0 4.379.893 2.532 3.22-1.797 2.264-3.483 5.051-1.984 8.037 1.62 3.229 3.285 6.197 5.85 8.884.963.95 1.789 1.591 2.854 1.591.374 0 .777-.079 1.227-.252 1.334-.513 2.406-1.467 3.411-2.452 2.645-2.683 2.44-6.616 2.324-10.007-.021-1.813-.322-3.619-.542-5.323-.206-1.596.394-3.234.12-4.735-.629-4.182-1.185-8.209-1.731-12.355-.324-1.895-.52-3.749-.686-5.727-.165-1.975.538-3.613.718-5.576.156-1.701-.706-3.837.227-5.458.815-1.415 2.417-2.449 3.05-3.878.579-1.308 1.003-2.98 2.445-3.794 1.206-.681 2.985-.933 4.204-1.476 3.274-1.356 7.585-3.028 11.309-3.178 1.31-.062 2.589-.177 3.843-.177m0-8.737c-1.027 0-2.069.058-3.128.124-.377.023-.757.047-1.14.065-4.834.194-9.701 1.957-14.229 3.833-.071.029-.142.06-.212.091-.115.036-.38.103-.646.179-1.145.327-2.713.775-4.3 1.671-3.765 2.127-5.205 5.554-5.904 7.294-.056.059-.114.117-.17.177-.717.754-1.8 1.894-2.696 3.451-2.028 3.525-1.64 6.982-1.431 8.839.015.138.033.274.046.408-.041.26-.112.6-.186.956-.302 1.452-.716 3.441-.508 5.919.152 1.811.36 3.967.752 6.298.204 1.55.402 3.024.597 4.443-1.57-.668-3.542-1.09-6.017-1.09l-.407.003c-1.049.017-10.395.334-15.491 6.139-.059.067-.116.134-.173.203-1.711 2.073-3.016 4.243-3.879 6.45-1.102 2.817-.899 5.408-.777 6.955.014.182.034.364.042.545-1.592 9.458 3.295 19.88 12.248 26.037.055.038.111.075.167.112 3.085 2.019 6.002 2.595 8.346 3.057l.245.049c.276.055.925.286 1.447.472 1.19.424 2.671.951 4.414 1.234.154.025.309.046.465.063 1.145.123 2.318.183 3.586.183 3.067 0 6.053-.363 8.687-.683.648-.079 1.288-.157 1.914-.227 5.124-.574 8.949-3.183 11.741-5.087l.817-.555c4.336-2.914 6.295-6.326 7.87-9.068.26-.452.527-.92.819-1.403l.153-.238c1.043-1.612 2.788-4.309 3.029-8.17.122-1.956-.048-3.721-.185-5.14-.048-.496-.098-.991-.127-1.489-.12-2.487-.775-4.66-1.253-6.247-.18-.599-.423-1.404-.473-1.754.226-1.809.178-3.607-.021-5.345.495.053 1.012.084 1.553.092.379.005.756.017 1.128.028.636.019 1.262.036 1.868.036 9.63 0 12.804-5.763 13.838-9.199l.262-.838c.468-1.474 1.046-3.291 1.276-5.521.059-.18.13-.357.195-.537.479-1.311 1.202-3.293 1.215-5.787 0-.038 0-.077 0-.115.87-4.255-.486-8.456-1.198-10.663-1.128-3.39-3.201-5.737-4.715-7.451-2.123-2.404-4.581-3.628-6.376-4.522-.411-.205-.824-.401-1.201-.624l-.296-.176c-1.8-1.068-4.265-2.531-7.561-3.135-1.253-.231-2.567-.342-4.02-.342z" fill="#381c1b"/></svg>