<svg viewBox="0 0 14.6 14.8" xmlns="http://www.w3.org/2000/svg"><g fill="#fff"><path d="m12.5 12.5h-.2s.1.1.2 0z"/><path d="m14.4 7.6-.1.1v-.1h-.1c0-.1 0-.1 0-.2v.1c.1-.1.1-.2 0-.3h.1l-.1-.1c0-.1 0-.1 0-.2v-.1c0-.1 0-.1 0-.1.1-.1 0-.2-.1-.4 0 0 0 0 0-.1 0 0 0 0 0-.1l.1.1-.2.1s.1-.1.1 0c.1-.1-.1-.1 0-.2v-.1h.1c0-.2-.2-.3-.1-.4-.1-.2-.1 0-.3-.2.1-.1.1-.1.2-.2h-.1v-.1c-.1-.1 0 0-.1 0 0-.1 0-.2-.1-.2-.1-.1-.1-.1 0-.2-.1 0 0 .1-.1 0 .1-.1-.1-.1-.1-.3.1 0 .1.1.1 0-.1 0-.1-.1-.1-.1 0-.1 0-.1-.1-.2-.1.1-.2-.2-.3-.3.1 0-.1-.3-.2-.5.1 0 .2 0 .1-.1.1-.1.1-.1.2 0l-.1-.1c-.1 0-.1 0-.1-.1h.1c-.1-.1-.3-.2-.4-.4-.1.1-.2-.1-.3-.1 0-.1.1-.1.1-.1s-.1 0-.1-.1h.1c-.1-.1-.1 0-.1-.1.1-.1 0-.1 0-.1s0 .1.1.1c-.1-.1-.1-.2-.1-.2s-.1.1-.1 0c-.1-.1 0-.1 0-.2-.1 0-.1-.1-.2 0v-.1c-.1 0-.2-.1-.3-.1v.1s0 0-.1 0c-.1 0-.1-.1-.2-.1-.1-.1-.4-.3-.5-.3-.2-.1-.4 0-.4 0-.1 0-.1 0-.3-.1.1 0 0-.1.1 0-.1-.1-.1-.2-.3-.2.1 0-.4-.2-.5-.2l.1.1c-.1 0-.2-.1-.2-.1l.1-.1c-.2-.1-.4-.1-.5-.1-.2 0-.3 0-.4-.1-.1.1.1.1.1.2-.2-.1-.3-.2-.4-.2-.2-.1-.2.1-.4 0 0 .1 0 .1-.1.2-.1 0-.2-.2-.1-.2h.1c.1 0 .1 0 .1-.1-.2.1-.4.1-.3 0-.1 0-.1.1 0 .1-.2 0-.2 0-.4 0 0 0 .1.1 0 .1-.3 0-.1.1-.3.1-.1-.1 0-.1-.2-.1-.1 0 0-.1 0-.1-.1 0-.1 0-.1 0-.1 0-.1 0-.1 0-.1 0-.2 0-.2 0l.1-.1c-.1 0-.1.1-.2.1l.1.1c-.1 0-.1 0-.1 0-.1.1.1.1 0 .2-.1 0-.2.1-.2 0 .2 0-.1-.1.1-.1h-.1c-.2 0-.1.1-.3.2 0-.1-.1-.1-.1-.1.1 0 .1.1 0 .1-.2 0-.1.1-.2.1h.1c0 .1-.1.1-.2.1 0 0 .1-.1 0-.1-.2 0-.4-.1-.6 0-.1 0 0-.1-.1-.1-.1.1-.2 0-.3.1.1 0 .1 0 0 .1l.2-.1-.1.2c.1-.1.1-.2.2-.2-.1.1-.1.1 0 .1-.2 0-.2.2-.4.2l-.1-.2c-.1.1-.2.1-.3.2s-.1.2-.3.2h.1c0 .1-.1.1-.2.2 0-.1-.1-.1-.1-.1s-.2.1-.1.2h-.2c-.2.2-.1.4-.3.5 0-.1-.1-.1 0-.2-.1.1-.2.1-.1.1-.1 0-.1.2-.2.2v.1s-.1.1 0 .1c-.1 0-.2.1-.4.2 0 .2-.1.2-.1.3 0 0 0 0-.1.1h-.1c-.1.2-.2.3-.3.5-.1.1.1.2-.1.3-.1.1 0-.1-.1-.1-.2-.1-.1.3-.3.3-.1.1 0 .3-.1.5 0 .2 0 .4-.1.6-.1-.1 0-.1-.1-.1 0 .1.1 0 .1.2-.1 0-.1.1-.2.1 0-.1 0-.1.1-.2-.1 0-.1.1-.1.1v.1h-.1c-.1.2.1.3 0 .5h.1c.1.2-.1.1 0 .2h-.1c0 .1.1.4.1.5-.3 0-.3-.2-.3-.3v.4c0-.1 0-.1 0-.1.1.1.1.3.1.4-.1 0-.1.1-.2.2 0 .1 0 .3-.1.4.1.2.1.3.1.5s0 .4.1.6c.2-.2 0 .1.2.1v.1h.1c0 .1-.1.1-.1.1v.2c0 .1-.1-.1-.1-.1 0 .2-.1.1-.1.2.1-.1.1.1.1.2l.1-.2c.1.1.1.2.1.2 0 .1 0 .1.1.2l-.3.2c0 .1.1.2.1.3.1.1.2.2.2.2s0 .1-.1 0c.2.2.3.4.4.5s.2.3.2.4c.1.1.1.1.1.1s-.1 0 0 0 .2.1.2.2h-.1c.1.1.2.2.3.3s.2.1.3.2c-.1.1.1.3.1.4.1.1.3.2.4.3s.3.1.5.2c0 .1.1.1.1.2.1.1.2.1.2.2.2.1.4.2.5.4 0-.1.1-.1.1-.1.1.1.2 0 .2.1 0 .1.2.2.3.2l.1-.1c.1.2.4.2.6.3.2 0 .5-.1.5 0h.3v.1c.1 0 .2.1.3.1s.2.1.4 0l-.1.1c.2 0 .2-.2.4-.2l.1.1c.3 0 .6.1.9 0 0 0 0 .1-.1.1.1 0 .5 0 .5-.1 0 .1.3.2.4.1v-.1c.1-.1.1 0 .2 0s.1.1 0 .1c.2 0 .1-.1.3-.1l-.1.1c.1 0 .1-.1.2-.1.1-.1.5-.1.5 0 .1-.4.2-.5.2-.5v.1c.1 0 .1 0 .2-.1s.1-.1.1-.1c.1-.1.1-.1.2-.1h.1c-.2.1-.3.1-.3.1 0 .1.2 0 .1.2.1-.1.2-.3.4-.4s.1 0 .1-.1c.1 0 .1 0 .1-.1h.1s.1 0 .1-.1v.1c.1 0 .1-.1.1-.1-.1-.1.1-.1-.1-.1 0 0 0 0-.1.1s-.1.1-.2.1c0-.1.1-.1.2-.1 0-.1 0-.1 0-.2.2.1.4 0 .4 0 .1-.1 0-.1.1-.3.1-.1.1-.1.1-.1 0-.1.1-.1.1-.2s.1 0 .1 0l-.1.1c.1-.1.3-.3.2-.4h.2c.2-.1.4-.3.5-.5s.1-.3.3-.4c.1-.1.2-.2.3-.4.1-.1.2-.2.2-.4.1-.1.1-.3.2-.4s.1-.2.2-.4 0-.2 0-.3h.1c0 .2 0 .1 0 0s0-.3 0-.4.1-.1.1-.2 0-.1 0-.2h-.1c0-.1 0-.4.1-.3 0 0-.1-.1 0-.1h.1c0-.1 0-.2-.1-.3.1-.2.2.1.2-.2.3.1.2-.1.1-.2zm-6-2c-.5 0-.6.2-.6.5v.8h1.1l-.2 1.2h-1v3.2h-1.2v-3.2h-1v-1.3h1v-.7c0-1 .6-1.7 1.5-1.7 0 0 .8.2.9.2l.1 1s-.5 0-.6 0z"/></g></svg>