<svg viewBox="0 0 14.6 14.8" xmlns="http://www.w3.org/2000/svg"><path d="m14 7.1s0 .2-.1.3c-.1 0 0-.1-.1-.1.1-.1.2-.1.2-.2-.2 0-.1-.1-.2-.1.1-.1.2 0 .2.1zm-6.2-6.5c0-.1 0 0 0 0zm-.7-.2c.1 0 .1 0 0 0zm4.2 1.5-.1-.1s.1 0 .1.1zm1.3 1c0 .1.1.1 0 0zm.8 1.1h-.1.1c-.1 0 0 0 0 0zm-7.5-3.5c0-.1 0 0 0 0zm-5.5 8.5c.1-.1.1.2.2 0 0 0-.2-.2-.2 0zm13.3-2.7c0-.1 0-.1 0 0zm-10.3-4.7c-.1 0 0 0 0 0zm-.8.8c-.1 0-.1 0 0 0zm-.8.8c.1 0 .1 0 0 0zm10.4 8.4h.1c-.1 0 0-.2-.1 0zm-9.6-8.2c-.1 0-.1 0 0 0zm11.8 4.4c0 .3-.2.1-.2.2s.1.2.1.3h-.1c-.1 0 0 .1 0 .1-.1 0-.1.2-.1.3h.1v.2c0 .1-.1.1-.1.2-.1.1-.2.2-.1.3 0 .1.1.1.1.2h-.1c0 .1.1.2 0 .3s-.1.2-.2.4c-.1.1-.1.3-.2.4s-.1.3-.2.4-.2.2-.3.4h.1c-.2.1-.3.3-.4.5s-.2.4-.4.5v-.1c-.2.2 0-.1-.2 0 .1.1-.2.3-.2.4 0 0 0-.1.1-.1 0 0-.1-.1-.1 0s0 .1-.1.2c0 .1-.1.1-.1.1-.1.1-.2.2-.3.3-.1-.1-.3 0-.4 0v.2c-.1 0-.1.1-.2.1.1-.1.1-.1.2-.1.1 0 .1-.1.1-.1.1 0 0 .1.1.1-.1 0-.2.2-.2.1-.1 0-.1 0-.1.1l-.1.1c-.2 0-.3.2-.4.4.1-.2-.1-.1-.1-.2 0 0 .1-.1.3-.1 0 0 0 0-.1 0s-.2.1-.2.1l-.1.1c-.1 0-.1 0-.2.1v-.1c-.1 0-.1.1-.1.1-.3-.2-.5-.2-.6-.2-.1.1 0 .1-.2.1l.1-.1c-.2 0-.1.1-.3.1.1 0 .1-.1 0-.1-.2.1-.2.1-.3.2v-.1c-.1.1-.4.2-.4.1.1.2-.3.2-.5.1.1 0 .1-.1.1-.1-.3.1-.6.1-.9 0v.2c-.1 0-.2.2-.4.2l.1-.1c-.1 0-.2 0-.4 0-.1 0-.2 0-.3-.1v-.1c-.1 0-.2 0-.3 0-.1-.1-.2-.1-.5-.2-.2 0-.4-.1-.6-.3l-.1.1c-.1-.1-.3-.1-.3-.2.1-.1-.1-.1-.2-.1s-.2 0-.1.1c-.1-.1-.3-.2-.5-.4-.1-.1-.2-.1-.2-.2-.1-.1-.1-.1-.1-.2-.1.1-.3.1-.4 0s-.3-.2-.4-.3c-.1-.1-.2-.3-.1-.4-.2-.2-.3-.2-.4-.3s-.2-.2-.3-.3h.1c0-.1-.2-.2-.2-.2 0-.1-.1-.1-.1-.1h.1c0-.1-.1-.3-.2-.4s-.2-.3-.3-.5c.1.1.1 0 .1 0-.1 0-.2-.1-.2-.2-.1-.1-.1-.2-.1-.3l.1.1c-.3-.2-.3-.3-.2-.3 0-.1 0-.1-.1-.2v.1c0-.1-.1-.2-.1-.2 0-.1.1-.1.1-.2.1 0 .1.1.1.1l.1-.3v-.1c-.3 0-.2-.3-.4-.1 0-.2 0-.4-.1-.6 0-.2 0-.3-.1-.5.1-.1.1-.2.1-.4 0-.1 0-.3.2-.2 0-.2 0-.3-.1-.5v.1c-.1-.1 0-.3 0-.4 0 .1.1.3.1.4 0-.2-.1-.4-.1-.5h.1c.1-.1.3-.1.2-.2h-.1c.1-.2-.1-.3 0-.5h.1v-.1s0-.1.1-.1c0 .1 0 .1-.1.2.1 0 .2-.1.2-.1 0-.2-.1-.1-.1-.2.1 0 .1 0 .1.1 0-.2.1-.4.1-.6.2-.2.1-.5.2-.5v.1c.2-.1.1-.4.3-.3.1-.2-.1 0 .1 0 .2-.2-.1-.2.1-.4.1-.1.2-.3.3-.4 0 0 .1 0 .1-.1.1 0 .1-.1.2-.2s.2-.2.4-.2c-.1 0 0-.1 0-.1.1-.1 0-.1 0-.1.1 0 .1-.2.2-.2 0 0 0-.1.1-.1-.1.1 0 .1 0 .2.1-.2 0-.4.2-.5h.2c-.1-.1.2-.2.1-.3.1 0 .1 0 .1.1.1-.1.2-.1.2-.2h-.1c.2 0 .3-.1.4-.2 0 0 .1-.1.3-.1l.1.2c.2 0 .2-.2.4-.2-.1 0-.1 0 0-.1-.1 0-.1.1-.2.1v-.2l-.2.2c.1-.1.1-.1 0-.1.2-.1.2 0 .4-.1.1 0 0 .1.1.1.1-.1.3 0 .4-.1.1 0-.1 0 0 .1.1-.1.2-.1.2-.1h-.2c.1 0 .1-.1.2-.1.1-.1.1-.2 0-.1 0 0 .1 0 .1.1.2-.1.1-.2.3-.2h.1c-.1-.1.2-.1-.1-.1.1.1.2 0 .2 0 .1-.1 0-.1 0-.2h.1c.1 0 .1 0 .2-.1l-.1.1h.2.1.1c-.1 0-.1.1 0 .1.2-.1.1 0 .2.1.2 0 0-.1.3-.1v-.1c.2 0 .3 0 .5.1-.1 0-.1-.1 0-.1-.1.1.1.1.2.2.1.1 0 .1-.1.1 0 0 0 0-.1 0s-.1.2.1.2c.2-.2.2-.3.2-.3.2.1.2-.1.4-.1.1 0 .2.2.3.2.1-.1-.2-.1-.1-.2.2.2.3.2.4.2s.3 0 .4.1v.1c.1 0 .1.1.2.1v-.2c.1 0 .2.1.2.1.2 0 .2 0 .4.1-.2-.1 0 0-.1 0 .1.1.2.1.3.1 0 0 0 .1.1.1s.3.1.5.1c.1.1.2.1.3.2s.1.1.2.1c.1.1.1.1.2.1 0-.1.2.1.3.1v.1c.1-.1.1 0 .2 0 .1.1-.1.1 0 .2h.1c0 .1.1.2.1.2l-.1-.1c-.1 0 0 .1 0 .1.1.1.1-.1.1.1h-.4l.1.1c-.1 0-.1 0-.1.1.2.1.2-.1.2-.2.1.2.3.2.4.4h-.1c.1.2.2.2.2.2l.1.1c-.1 0-.1 0-.2 0 .1.1.2.2.3.2.1.2.2.5.2.5.1.1.2.4.3.3 0 .1.1.1.1.2s0 .1.1.1c0 .1 0 0-.1 0 0 .1.2.2.1.3.1.1 0-.1.1 0-.1.1-.1.1 0 .2 0 .1.1.2.1.2.1 0 0-.1.1 0-.1 0 0 .1 0 .1h.1c-.1.1-.1.1-.2.2.2.2.1-.1.3.2-.1.1.1.2.1.4 0-.1-.1 0-.1 0l.1.1c-.1.1.1.1 0 .2 0-.1-.1 0-.1 0l.1.1-.1-.1c0 .2.2.4.1.5v-.1s-.1.1 0 .2c0 0 .1.1.1 0v.1c-.1 0-.1-.2-.2-.3.1 0 .1.1.1.1-.1-.1-.1-.2-.2-.3.1 0 .1.1.1.1 0-.1-.1-.1-.1-.2l.1-.1c-.1-.1-.1-.2-.1-.3 0 0 .1.1.1 0-.1-.2-.2-.2-.3-.4-.1-.1-.1-.2-.2-.4 0-.1 0-.2-.1-.3-.1 0 0 .1-.1.1.1 0 0-.1.1-.1-.2-.1-.1-.2-.2-.2v-.1c.1 0 0-.1.2 0-.1 0-.1-.1-.1-.1l-.1-.1c-.1-.1-.1-.1-.2-.1v.1l-.1-.4s-.1 0-.1-.2c.1 0 .1.1.1.1 0-.1-.2-.1-.2-.2.1 0 .1.1.1 0-.1-.1-.1-.1-.2-.2-.1-.2-.2.1-.2-.1 0 0-.1 0-.1.1 0-.1-.1-.2.1-.1-.1-.1-.1-.1-.2-.1v.1l-.2-.2h.1c0-.1-.1-.2-.1-.2s-.1-.2-.2-.2-.2-.1-.2-.2l-.1-.1-.1-.1c0 .1-.1 0-.1 0-.1-.1-.2-.2-.3-.3h.1c-.3-.1-.5-.2-.6-.3 0 0 0-.1.1-.1-.2 0-.2-.3-.3-.2h.1c-.3 0-.5 0-.6 0-.2 0-.3-.1-.4-.1 0-.1.2.1.1-.1-.1-.1-.2-.1-.3-.1s-.2 0-.3-.1h.1c-.2-.1-.1.1-.2 0 0-.1 0-.1 0-.1l-.1.1v-.1c-.1.1-.3-.1-.4 0 0 0 .1-.1 0-.2s-.2 0-.2 0h-.2c-.1-.1 0 0-.1.1h.1l-.2.1.1-.1c-.1-.1-.2 0-.4 0v.1h-.1c0-.1-.2 0-.1-.2-.3 0-.5.2-.7.2.1 0 0 0 0-.1-.1.1-.2.1-.3.2 0 0 .1-.1 0-.1 0 0-.1 0-.1.1l-.1.1c.1-.1 0-.1 0-.1 0 .1 0 .1-.1.1.1-.3-.2 0-.2-.2 0 .1-.3.2-.2.3h.1c0 .1-.1.1-.1.1s.1 0 .1-.1c-.1 0-.1.1-.2.1s-.1.1-.2.1c-.2 0-.3 0-.4.1 0 0 .1-.1 0-.1s-.3.1-.3.2c-.1.1-.1.1-.2.1s-.1.1-.1.2c-.1-.1 0-.1.1-.2s.1-.1.1-.2l-.1.1-.1.1c0 .1-.1.1-.2.2 0 0-.1.1-.2.1s-.1.2-.1.2c-.3-.1-.2.3-.5.3.1.1 0 .1-.1.2 0-.1-.1 0-.1-.1 0 .1-.2.4-.3.2.1.1-.2.2-.1.3-.2.2-.2.4-.4.5.1 0-.1.2-.1.2v-.1c-.1 0-.1.2-.1.2-.1 0-.1-.1-.1 0 .1 0 0 .3-.1.3v-.1c-.1.4-.2.6-.3.8 0 .2-.1.4-.1.6l-.1-.1c-.2.3.1.2.1.4 0 .1-.1.1-.1.2l-.1.3c0 .1-.1.3-.1.4-.1.3-.1.6 0 .9 0 .1 0 0 .1 0 0 .1-.1.1 0 .1h.1c0 .1-.1.2-.1.2 0 .1 0 .2.1.3.1.2.1.4 0 .5s-.1.2-.1.3 0 .1.1.2c0 .1.1.1.1.2s-.1-.1-.1.1l.2.2.1.1.1.1c0 .1.1.2.1.3 0 .2.1.4.2.5v.1s0 0 0-.1c.1.1.1.1.1.1.1 0 .1.1.1.1l.2.2c-.1-.1 0 .1 0 .2.1 0 .1-.1.2 0s.2.3.3.5c.1 0 .2.1.2 0 .1.1.2.1.2.2l.1.1c.1 0 .1.1.2.1.1-.1.2.2.2.2s-.1 0-.1.1l.1.1c-.1 0-.2.1-.1.1s0-.1.1-.1v.1c.1 0 .2-.1.1-.1.2.1.5.2.7.4l-.1.1c.1 0 .3.1.4.2 0 0 .1 0 .1-.1.2 0 0 .1.1.1-.1 0-.1 0-.1 0l.4.1s0 .1.1.1c.1.1.1.1.2.1 0 0 0-.1-.1-.1h.1l.1.1.2-.1v.1c.1 0 .2-.1.2-.1.3.1.2.1.4.2 0-.1.1-.1.2-.1s.2 0 .2 0c.1 0 .1.1.2.1s.1 0 .1 0h.1.6c.2.1.2-.2.3-.2h.2c.1 0 .1 0 .2-.1s.3-.1.4-.2c0 0 0 .1.1.1.1-.1-.1-.1 0-.1v.1l.1-.1c.2 0 .3-.1.5-.1.2-.1.3-.1.4-.2.1 0 .1.1.1.1.1-.1.2-.2.3-.2.1-.1.2-.2.3-.2l.1.1c.1-.1 0-.2.1-.2l-.1.1c.2-.1.1-.2.2-.3v.1c.2-.1.1-.2.1-.2.1-.2.3.1.4-.2 0-.1-.1-.1-.1-.1.2-.1.1-.2.3-.4.2 0-.1.1.1.1l-.1.1c.2-.1-.1.1 0 .2.1-.1.1-.2.2-.4.1.1-.1.1 0 .2v-.1.1c.1 0 .1-.1.1-.1l-.1-.1c0-.2.2-.3.2-.5h.1v-.1c0-.1 0-.1 0-.2.1 0 .1.1.2-.1-.1-.1-.2-.1-.1-.2 0 0 0 .1.1.1 0-.2.1 0 .2-.1 0-.1.1-.1 0-.2.1 0 .1 0 .2-.1-.1 0 0-.2-.1-.2.1 0 .1.2.2.1 0-.1 0-.3-.1-.3.1-.1.1-.1.1-.2v.1c0-.2.2-.4 0-.6.2.1.1-.4.2-.2 0-.1 0-.2-.1-.2.1 0 .1 0 .1-.1s0-.1.1-.2c-.1-.1 0-.2-.1-.3 0 0 0 .1.1.1-.1-.1 0-.1.1-.1 0-.1-.1 0-.2-.1.1-.1.1 0 .2 0l-.1-.2.1-.1c0-.1-.1-.1 0-.2v.1l.1-.1-.1-.2c.1-.1.1-.1.2-.2v-.1l.1.1v.1h.2v.1c.1 0 .1-.1.1-.1 0 .2.1.4.2.6zm-4.2 5.5c-.1 0-.1.1-.1.1s.1-.1.1-.1c0 .1 0 .1 0 0zm.2-.1c-.1 0-.1 0 0 0-.1 0 0 0 0 0zm.5.4c0 .1 0 .1 0 0 0-.1 0 0 0 0zm0-.1c0-.1 0-.1 0 0zm1.5-10.2c0 .1 0 .1 0 0zm.4.6c0 .1 0 .1 0 0zm-7.3-2.5c-.1 0 0 0 0 0zm2.6-.5h-.1c0 .1.1.1.1 0zm-.2 0c0 .1.1.1 0 0zm5.9 5.9c0 .1 0 .1 0 0zm-.2-1v.2s.1-.1 0-.2zm.2-.9c0-.3-.1.1-.1-.2 0 .1 0 .2.1.2-.1 0 0 0 0 0zm-.3-.7c0-.1-.1-.1 0 0zm-3.3-3.1c-.1 0 0 0 0 0zm-.9.2h-.1zm-7.4 1.7.1.1c0-.1-.1-.2-.1-.1zm-1.4 3s-.1.1 0 .2c0-.1 0-.1 0-.2z" fill="#fff"/><path d="m9 5.7s-.5-.1-.6-.1c-.5 0-.6.2-.6.5v.8h1.1l-.2 1.2h-1v3.2h-1.2v-3.2h-1v-1.2h1v-.8c0-1 .6-1.7 1.5-1.7 0 0 .8.2.9.2z" fill="#fff"/><g fill="#490e0e"><path d="m-22.5 27.8c-.1.1-.2.1-.2.1-.1.1 0 0 .2-.1z"/><path d="m26.7 13s0 .1 0 0c0 .1 0 .1 0 0z"/></g></svg>