<?xml version="1.0" encoding="utf-8"?>
<!-- Generator: Adobe Illustrator 21.0.0, SVG Export Plug-In . SVG Version: 6.00 Build 0)  -->
<svg version="1.1" id="Layer_2" xmlns="http://www.w3.org/2000/svg" xmlns:xlink="http://www.w3.org/1999/xlink" x="0px" y="0px"
	 viewBox="0 0 14.6 14.8" style="enable-background:new 0 0 14.6 14.8;" xml:space="preserve">
<style type="text/css">
	.st0{fill:#FFFFFF;}
</style>
<g>
	<path class="st0" d="M12.5,12.5h-0.2C12.3,12.5,12.4,12.6,12.5,12.5z"/>
	<path class="st0" d="M12.3,12.5L12.3,12.5L12.3,12.5z"/>
	<path class="st0" d="M1.5,3.6L1.5,3.6L1.5,3.6z"/>
	<path class="st0" d="M14.4,7.6l-0.1,0.1V7.6h-0.1c0-0.1,0-0.1,0-0.2v0.1c0.1-0.1,0.1-0.2,0-0.3h0.1l-0.1-0.1c0-0.1,0-0.1,0-0.2V6.8
		l0,0c0-0.1,0-0.1,0-0.1l0,0c0.1-0.1,0-0.2-0.1-0.4c0,0,0,0,0-0.1c0,0,0,0,0-0.1l0.1,0.1L14,6.3c0,0,0.1-0.1,0.1,0
		c0.1-0.1-0.1-0.1,0-0.2l0,0V6h0.1c0-0.2-0.2-0.3-0.1-0.4l0,0c-0.1-0.2-0.1,0-0.3-0.2c0.1-0.1,0.1-0.1,0.2-0.2h-0.1V5.1
		c-0.1-0.1,0,0-0.1,0c0-0.1,0-0.2-0.1-0.2c-0.1-0.1-0.1-0.1,0-0.2c-0.1,0,0,0.1-0.1,0c0.1-0.1-0.1-0.1-0.1-0.3c0.1,0,0.1,0.1,0.1,0
		c-0.1,0-0.1-0.1-0.1-0.1c0-0.1,0-0.1-0.1-0.2c-0.1,0.1-0.2-0.2-0.3-0.3c0.1,0-0.1-0.3-0.2-0.5c0.1,0,0.2,0,0.1-0.1
		c0.1-0.1,0.1-0.1,0.2,0l-0.1-0.1C13,3.1,13,3.1,13,3h0.1c-0.1-0.1-0.3-0.2-0.4-0.4c-0.1,0.1-0.2-0.1-0.3-0.1c0-0.1,0.1-0.1,0.1-0.1
		s-0.1,0-0.1-0.1h0.1c-0.1-0.1-0.1,0-0.1-0.1c0.1-0.1,0-0.1,0-0.1s0,0.1,0.1,0.1C12.4,2.1,12.4,2,12.4,2s-0.1,0.1-0.1,0
		c-0.1-0.1,0-0.1,0-0.2c-0.1,0-0.1-0.1-0.2,0V1.7c-0.1,0-0.2-0.1-0.3-0.1v0.1c0,0,0,0-0.1,0l0,0l0,0l0,0c-0.1,0-0.1-0.1-0.2-0.1
		c-0.1-0.1-0.4-0.3-0.5-0.3l0,0c-0.2-0.1-0.4,0-0.4,0c-0.1,0-0.1,0-0.3-0.1c0.1,0,0-0.1,0.1,0C10.3,1.1,10.3,1,10.1,1
		c0.1,0-0.4-0.2-0.5-0.2l0.1,0.1c-0.1,0-0.2-0.1-0.2-0.1l0.1-0.1C9.4,0.6,9.2,0.6,9.1,0.6c-0.2,0-0.3,0-0.4-0.1
		C8.6,0.6,8.8,0.6,8.8,0.7C8.6,0.6,8.5,0.5,8.4,0.5C8.2,0.4,8.2,0.6,8,0.5c0,0.1,0,0.1-0.1,0.2c-0.1,0-0.2-0.2-0.1-0.2h0.1
		C8,0.5,8,0.5,8,0.4l0,0c-0.2,0.1-0.4,0.1-0.3,0c-0.1,0-0.1,0.1,0,0.1c-0.2,0-0.2,0-0.4,0c0,0,0.1,0.1,0,0.1C7,0.6,7.2,0.7,7,0.7
		C6.9,0.6,7,0.6,6.8,0.6c-0.1,0,0-0.1,0-0.1c-0.1,0-0.1,0-0.1,0c-0.1,0-0.1,0-0.1,0c-0.1,0-0.2,0-0.2,0l0.1-0.1
		c-0.1,0-0.1,0.1-0.2,0.1l0.1,0.1c-0.1,0-0.1,0-0.1,0c-0.1,0.1,0.1,0.1,0,0.2c-0.1,0-0.2,0.1-0.2,0c0.2,0-0.1-0.1,0.1-0.1H6.1l0,0
		C5.9,0.7,6,0.8,5.8,0.9c0-0.1-0.1-0.1-0.1-0.1c0.1,0,0.1,0.1,0,0.1C5.5,0.9,5.6,1,5.5,1h0.1c0,0.1-0.1,0.1-0.2,0.1
		c0,0,0.1-0.1,0-0.1C5.2,1,5,0.9,4.8,1c-0.1,0,0-0.1-0.1-0.1C4.6,1,4.5,0.9,4.4,1c0.1,0,0.1,0,0,0.1L4.6,1L4.5,1.2
		C4.6,1.1,4.6,1,4.7,1c-0.1,0.1-0.1,0.1,0,0.1c-0.2,0-0.2,0.2-0.4,0.2L4.2,1.1C4.1,1.2,4,1.2,3.9,1.3C3.8,1.4,3.8,1.5,3.6,1.5h0.1
		c0,0.1-0.1,0.1-0.2,0.2c0-0.1-0.1-0.1-0.1-0.1S3.2,1.7,3.3,1.8H3.1C2.9,2,3,2.2,2.8,2.3c0-0.1-0.1-0.1,0-0.2
		C2.7,2.2,2.6,2.2,2.7,2.2c-0.1,0-0.1,0.2-0.2,0.2v0.1l0,0c0,0-0.1,0.1,0,0.1c-0.1,0-0.2,0.1-0.4,0.2C2.1,3,2,3,2,3.1
		c0,0,0,0-0.1,0.1c0,0-0.1,0-0.1,0C1.7,3.4,1.6,3.5,1.5,3.7l0,0C1.4,3.8,1.6,3.9,1.4,4c-0.1,0.1,0-0.1-0.1-0.1
		C1.1,3.8,1.2,4.2,1,4.2l0,0C0.9,4.3,1,4.5,0.9,4.7l0,0c0,0.2,0,0.4-0.1,0.6c-0.1-0.1,0-0.1-0.1-0.1c0,0.1,0.1,0,0.1,0.2
		c-0.1,0-0.1,0.1-0.2,0.1c0-0.1,0-0.1,0.1-0.2c-0.1,0-0.1,0.1-0.1,0.1c0,0.1,0,0.1,0,0.1H0.5C0.4,5.7,0.6,5.8,0.5,6h0.1
		c0.1,0.2-0.1,0.1,0,0.2H0.5c0,0.1,0.1,0.4,0.1,0.5c-0.3,0-0.3-0.2-0.3-0.3c0,0.1,0,0.3,0,0.4c0-0.1,0-0.1,0-0.1
		C0.4,6.8,0.4,7,0.4,7.1c-0.1,0-0.1,0.1-0.2,0.2c0,0.1,0,0.3-0.1,0.4C0.2,7.9,0.2,8,0.2,8.2s0,0.4,0.1,0.6c0.2-0.2,0,0.1,0.2,0.1
		c0,0.1,0,0.1,0,0.1l0,0h0.1c0,0.1-0.1,0.1-0.1,0.1v0.2c0,0.1-0.1-0.1-0.1-0.1c0,0.2-0.1,0.1-0.1,0.2c0.1-0.1,0.1,0.1,0.1,0.2
		l0.1-0.2c0.1,0.1,0.1,0.2,0.1,0.2c0,0.1,0,0.1,0.1,0.2L0.4,10c0,0.1,0.1,0.2,0.1,0.3c0.1,0.1,0.2,0.2,0.2,0.2s0,0.1-0.1,0
		C0.8,10.7,0.9,10.9,1,11s0.2,0.3,0.2,0.4l0,0c0.1,0.1,0.1,0.1,0.1,0.1s-0.1,0,0,0s0.2,0.1,0.2,0.2H1.4c0.1,0.1,0.2,0.2,0.3,0.3
		c0.1,0.1,0.2,0.1,0.3,0.2c-0.1,0.1,0.1,0.3,0.1,0.4l0,0c0.1,0.1,0.3,0.2,0.4,0.3C2.6,13,2.8,13,3,13.1c0,0.1,0.1,0.1,0.1,0.2
		c0.1,0.1,0.2,0.1,0.2,0.2c0.2,0.1,0.4,0.2,0.5,0.4c0-0.1,0.1-0.1,0.1-0.1c0.1,0.1,0.2,0,0.2,0.1l0,0c0,0.1,0.2,0.2,0.3,0.2L4.5,14
		c0.1,0.2,0.4,0.2,0.6,0.3c0.2,0,0.5-0.1,0.5,0c0.1,0,0.2,0,0.3,0v0.1c0.1,0,0.2,0.1,0.3,0.1c0.1,0,0.2,0.1,0.4,0l-0.1,0.1
		c0.2,0,0.2-0.2,0.4-0.2L7,14.5c0.3,0,0.6,0.1,0.9,0c0,0,0,0.1-0.1,0.1c0.1,0,0.5,0,0.5-0.1c0,0.1,0.3,0.2,0.4,0.1v-0.1
		c0.1-0.1,0.1,0,0.2,0c0.1,0,0.1,0.1,0,0.1c0.2,0,0.1-0.1,0.3-0.1l-0.1,0.1c0.1,0,0.1-0.1,0.2-0.1c0.1-0.1,0.5-0.1,0.5,0
		C9.9,14.1,10,14,10,14v0.1c0.1,0,0.1,0,0.2-0.1s0.1-0.1,0.1-0.1c0.1-0.1,0.1-0.1,0.2-0.1c0,0,0,0,0.1,0c-0.2,0.1-0.3,0.1-0.3,0.1
		c0,0.1,0.2,0,0.1,0.2c0.1-0.1,0.2-0.3,0.4-0.4l0,0l0,0c0,0,0.1,0,0.1-0.1c0.1,0,0.1,0,0.1-0.1c0,0,0,0,0.1,0l0,0c0,0,0.1,0,0.1-0.1
		c0,0,0,0,0,0.1c0.1,0,0.1-0.1,0.1-0.1c-0.1-0.1,0.1-0.1-0.1-0.1c0,0,0,0-0.1,0.1l0,0l0,0c0,0-0.1,0.1-0.2,0.1
		c0-0.1,0.1-0.1,0.2-0.1c0-0.1,0-0.1,0-0.2c0.2,0.1,0.4,0,0.4,0c0.1-0.1,0-0.1,0.1-0.3c0.1-0.1,0.1-0.1,0.1-0.1
		c0-0.1,0.1-0.1,0.1-0.2c0-0.1,0.1,0,0.1,0l-0.1,0.1c0.1-0.1,0.3-0.3,0.2-0.4c0.1,0,0.1,0,0.2,0c0.2-0.1,0.4-0.3,0.5-0.5
		s0.1-0.3,0.3-0.4l0,0c0.1-0.1,0.2-0.2,0.3-0.4c0.1-0.1,0.2-0.2,0.2-0.4c0.1-0.1,0.1-0.3,0.2-0.4c0.1-0.1,0.1-0.2,0.2-0.4
		s0-0.2,0-0.3H14c0,0.2,0,0.1,0,0s0-0.3,0-0.4C14,9,14.1,9,14.1,8.9c0-0.1,0-0.1,0-0.2H14c0-0.1,0-0.4,0.1-0.3c0,0-0.1-0.1,0-0.1
		h0.1c0-0.1,0-0.2-0.1-0.3c0.1-0.2,0.2,0.1,0.2-0.2C14.6,7.9,14.5,7.7,14.4,7.6z M8.4,5.6c-0.5,0-0.6,0.2-0.6,0.5v0.8h1.1L8.7,8.1
		h-1v3.2H6.5V8.1h-1V6.8h1V6.1c0-1,0.6-1.7,1.5-1.7c0,0,0.8,0.2,0.9,0.2l0.1,1C9,5.6,8.5,5.6,8.4,5.6z"/>
</g>
</svg>
