<?xml version="1.0" encoding="utf-8"?>
<!-- Generator: Adobe Illustrator 21.0.0, SVG Export Plug-In . SVG Version: 6.00 Build 0)  -->
<svg version="1.1" id="Layer_1" xmlns="http://www.w3.org/2000/svg" xmlns:xlink="http://www.w3.org/1999/xlink" x="0px" y="0px"
	 viewBox="0 0 14.6 14.8" style="enable-background:new 0 0 14.6 14.8;" xml:space="preserve">
<style type="text/css">
	.st0{fill:#FFFFFF;}
</style>
<g>
	<g>
		<path class="st0" d="M14.1,6.9L14.1,6.9c0,0.1,0,0.2-0.1,0.3c-0.1,0,0-0.1-0.1-0.1C14,7.1,14.1,7.1,14.1,6.9
			c-0.2,0-0.1-0.1-0.2-0.1C14,6.8,14,6.9,14.1,6.9z M7.8,0.4C7.8,0.4,7.9,0.4,7.8,0.4L7.8,0.4z M7.2,0.3L7.2,0.3
			C7.2,0.3,7.2,0.2,7.2,0.3z M11.4,1.7l-0.1-0.1C11.3,1.7,11.3,1.7,11.4,1.7z M13.8,6.2L13.8,6.2L13.8,6.2L13.8,6.2z M12.7,2.8
			L12.7,2.8L12.7,2.8L12.7,2.8z M13.5,3.9h-0.1C13.4,3.9,13.4,3.9,13.5,3.9C13.4,3.9,13.4,3.9,13.5,3.9z M14,5.8L14,5.8
			C14.1,5.9,14.1,5.8,14,5.8z M13.6,8.8L13.6,8.8C13.6,8.7,13.6,8.7,13.6,8.8z M14.1,7.4L14.1,7.4C14.2,7.4,14.2,7.4,14.1,7.4
			L14.1,7.4z M5.9,0.3L5.9,0.3C6,0.3,5.9,0.3,5.9,0.3z M0.4,8.9c0.1-0.1,0.1,0.2,0.2,0C0.5,8.9,0.4,8.7,0.4,8.9z M13.8,6.2
			C13.8,6.1,13.8,6.1,13.8,6.2C13.8,6.1,13.8,6.1,13.8,6.2z M3.4,1.4C3.4,1.4,3.3,1.4,3.4,1.4C3.3,1.4,3.3,1.4,3.4,1.4z M2.5,2.2
			C2.5,2.3,2.5,2.3,2.5,2.2L2.5,2.2C2.5,2.3,2.5,2.2,2.5,2.2z M1.8,3L1.8,3L1.8,3L1.8,3z M12.2,11.5h0.1
			C12.3,11.5,12.4,11.4,12.2,11.5z M13.8,6.2L13.8,6.2L13.8,6.2L13.8,6.2z M3,2.8L2.9,2.9L3,2.8z M5.6,13.5L5.6,13.5L5.6,13.5z
			 M2.5,3.2C2.4,3.2,2.4,3.2,2.5,3.2L2.5,3.2L2.5,3.2z M14.4,7.7c0,0.3-0.2,0.1-0.2,0.2s0.1,0.2,0.1,0.3h-0.1c-0.1,0,0,0.1,0,0.1
			c-0.1,0-0.1,0.2-0.1,0.3h0.1c0,0.1,0,0.2,0,0.2S14.1,8.9,14.1,9C14,9.1,14,9.1,14,9.3c0,0,0,0.1,0,0.2h-0.1c0,0.1,0.1,0.2,0,0.3
			s-0.1,0.2-0.2,0.4c-0.1,0.1-0.1,0.3-0.2,0.4c-0.1,0.1-0.1,0.3-0.2,0.4s-0.2,0.2-0.3,0.4c0,0,0,0,0.1,0c-0.2,0.1-0.3,0.3-0.4,0.5
			c-0.1,0.2-0.2,0.4-0.4,0.5v-0.1c-0.2,0.2,0-0.1-0.2,0c0.1,0.1-0.2,0.3-0.2,0.4c0,0,0-0.1,0.1-0.1c0,0-0.1-0.1-0.1,0s0,0.1-0.1,0.2
			c0,0.1-0.1,0.1-0.1,0.1c-0.1,0.1-0.2,0.2-0.3,0.3c-0.1-0.1-0.3,0-0.4,0c0,0,0,0.1,0,0.2c-0.1,0-0.1,0.1-0.2,0.1
			c0.1-0.1,0.1-0.1,0.2-0.1l0,0l0,0c0.1,0,0.1-0.1,0.1-0.1c0.1,0,0,0.1,0.1,0.1c-0.1,0-0.2,0.2-0.2,0.1c-0.1,0-0.1,0-0.1,0.1
			l-0.1,0.1l0,0l0,0c-0.2,0-0.3,0.2-0.4,0.4c0.1-0.2-0.1-0.1-0.1-0.2c0,0,0.1-0.1,0.3-0.1c0,0,0,0-0.1,0s-0.2,0.1-0.2,0.1L10.2,14
			c-0.1,0-0.1,0-0.2,0.1V14c-0.1,0-0.1,0.1-0.1,0.1c-0.1-0.1-0.2-0.1-0.3,0s0,0.1-0.2,0.1l0.1-0.1c-0.2,0-0.1,0.1-0.3,0.1
			c0.1,0,0.1-0.1,0-0.1C9,14.2,9,14.2,8.9,14.3v-0.1c-0.1,0.1-0.4,0.2-0.4,0.1c0.1,0.2-0.3,0.2-0.5,0.1c0.1,0,0.1-0.1,0.1-0.1
			c-0.3,0.1-0.6,0.1-0.9,0l-0.2,0c-0.1,0-0.2,0.2-0.4,0.2l0.1-0.1c-0.1,0-0.2,0-0.4,0c-0.1,0-0.2,0-0.3-0.1v-0.1c-0.1,0-0.2,0-0.3,0
			c-0.1-0.1-0.2-0.1-0.5-0.2c-0.2,0-0.4-0.1-0.6-0.3l-0.1,0.1c0,0.2-0.2,0.2-0.2,0l0,0c0.1-0.1-0.1-0.1-0.2-0.1s-0.2,0-0.1,0.1
			c-0.1-0.1-0.3-0.2-0.5-0.4c-0.1-0.1-0.2-0.1-0.2-0.2c-0.1-0.1-0.1-0.1-0.1-0.2c-0.3,0-0.4,0-0.6-0.1s-0.3-0.2-0.4-0.3l0,0
			c-0.1-0.1-0.2-0.3-0.1-0.4C2,12,1.9,11.9,1.8,11.9c-0.1-0.1-0.2-0.2-0.3-0.3h0.1c0-0.1-0.2-0.2-0.2-0.2l0,0c0-0.1-0.1-0.1-0.1-0.1
			h0.1c0-0.1-0.1-0.3-0.2-0.4c-0.1-0.1-0.2-0.3-0.3-0.5c0.1,0.1,0.1,0,0.1,0c-0.1,0-0.2-0.1-0.2-0.2C0.5,10,0.5,9.9,0.4,9.8l0.1,0.1
			c-0.1-0.2,0-0.2,0-0.3c0-0.1,0-0.1-0.1-0.2v0.1c0-0.1-0.1-0.2-0.1-0.2c0-0.1,0.1-0.1,0.1-0.2c0.1,0,0.1,0.1,0.1,0.1l0.1-0.3l0,0
			l0,0l0,0V8.8c-0.3,0-0.2-0.3-0.3-0.1c0-0.2,0-0.4-0.1-0.6c0-0.2,0-0.3-0.1-0.5c0.1-0.1,0.1-0.2,0.1-0.4s0-0.3,0.2-0.2
			c0-0.2,0-0.3-0.1-0.5v0.1c-0.1-0.1,0-0.3,0-0.4c0,0.1,0.1,0.3,0.1,0.4c0-0.2-0.1-0.4-0.1-0.5h0.1C0.4,6,0.6,6,0.5,5.9H0.4
			c0.1-0.2-0.1-0.3,0-0.5h0.1V5.3c0,0,0-0.1,0.1-0.1c0,0.1,0,0.1-0.1,0.2c0.1,0,0.2-0.1,0.2-0.1c0.2-0.3,0-0.2,0-0.3
			c0.1,0,0.1,0,0.1,0.1c0-0.2,0.1-0.4,0.1-0.6l0,0C1,4.4,1,4.1,1.1,4v0.1C1.2,4,1.2,3.7,1.4,3.8c0.1-0.1-0.1,0.1,0.1,0.1
			c0.2-0.2-0.1-0.2,0.1-0.4l0,0c0.1-0.1,0.2-0.3,0.3-0.4C1.9,3,1.9,3,2,3c0-0.1,0.1-0.1,0.1-0.2c0.1-0.1,0.2-0.2,0.4-0.2
			c-0.1,0,0-0.1,0-0.1l0,0c0.1-0.1,0-0.1,0-0.1c0.1,0,0.1-0.2,0.2-0.2c0,0,0-0.1,0.1-0.1c-0.1,0.1,0,0.1,0,0.2
			C3,2.1,2.9,1.9,3.1,1.8h0.2C3.2,1.6,3.4,1.5,3.4,1.5c0.1,0,0.1,0,0.1,0.1c0.1-0.1,0.2-0.1,0.2-0.2H3.6c0.1-0.1,0.2-0.1,0.3-0.2
			C4,1.1,4.1,1.1,4.2,1l0.1,0.2C4.5,1.2,4.5,1,4.7,1c-0.1,0-0.1,0,0-0.1C4.6,0.9,4.6,1,4.5,1.1l0.1-0.2L4.4,1.1C4.5,1,4.5,1,4.4,1
			c0.2-0.1,0.2,0,0.4-0.1c0.1,0,0,0.1,0.1,0.1C5,0.9,5.2,1,5.3,0.9c0.1,0-0.1,0,0,0.1c0.1-0.1,0.2-0.1,0.2-0.1H5.3
			c0.1,0,0.1-0.1,0.2-0.1c0.1-0.1,0.1-0.2,0-0.1c0,0,0.1,0,0.1,0.1c0.2-0.1,0.1-0.2,0.3-0.2l0,0c0.1,0,0.1,0,0.1,0
			C5.8,0.4,6.1,0.5,5.9,0.5c0.1,0.1,0.2,0,0.2,0c0.1-0.1,0-0.1,0-0.2h0.1l0,0c0.1,0,0.1,0,0.2-0.1L6.3,0.3c0.1,0,0.1,0,0.2,0h0.1
			c0.1,0,0.1,0,0.1,0c-0.1,0-0.1,0.1,0,0.1c0.2-0.1,0.1,0,0.2,0.1c0.2,0,0-0.1,0.3-0.1V0.3c0.2,0,0.3,0,0.5,0.1
			c-0.1,0-0.1-0.1,0-0.1c-0.1,0,0.1,0,0.2,0.1l0,0c0.1,0.1,0,0.1-0.1,0.1c0,0,0,0-0.1,0S7.6,0.7,7.8,0.7C8.1,0.6,8,0.5,8,0.4
			c0.2,0.1,0.2-0.1,0.4-0.1c0.1,0,0.2,0.2,0.3,0.2c0.1-0.1-0.2-0.1-0.1-0.2C8.7,0.4,8.8,0.4,9,0.4c0.1,0,0.3,0,0.4,0.1l0,0.2
			c0.1,0,0.1,0.1,0.2,0.1l0-0.1c0.1,0,0.2,0.1,0.2,0.1c0.2,0,0.2,0,0.4,0.1c-0.2-0.1,0,0-0.1,0c0,0.1,0,0.1,0.2,0.1
			c0,0,0,0.1,0.1,0.1s0.3,0.1,0.5,0.1l0,0c0.1,0.1,0.2,0.1,0.3,0.2s0.1,0.1,0.2,0.1c0.1,0.1,0.1,0.1,0.2,0.1l0,0l0,0
			c0-0.1,0.2,0.1,0.3,0.1v0.1c0.1-0.1,0.1,0,0.2,0c0.1,0.1-0.1,0.1,0,0.2c0.1,0,0.1,0,0.1,0c0,0.1,0.1,0.2,0.1,0.2l-0.1-0.1
			c-0.1,0,0,0.1,0,0.1c0.1,0.1,0.1-0.1,0.1,0.1h-0.1l0.1,0.1c-0.1,0-0.1,0-0.1,0.1c0.2,0.1,0.2-0.1,0.2-0.2c0.1,0.2,0.3,0.2,0.4,0.4
			h-0.1c0.1,0.1,0.1,0.1,0.1,0.1l0.1,0.1c-0.1,0-0.1,0-0.2,0C12.8,3,12.9,3.1,13,3.1l0,0c0.1,0.2,0.2,0.5,0.2,0.5
			c0.1,0.1,0.2,0.4,0.3,0.3c0,0.1,0.1,0.1,0.1,0.2c0,0.1,0,0.1,0.1,0.1c0,0.1,0,0-0.1,0c0,0.1,0.2,0.2,0.1,0.3c0.1,0.1,0-0.1,0.1,0
			c-0.1,0.1-0.1,0.1,0,0.2c0,0.1,0.1,0.2,0.1,0.2c0.1,0,0-0.1,0.1,0c-0.1,0,0,0.1,0,0.1h0c-0.1,0.1-0.1,0.1-0.2,0.2
			c0.2,0.2,0.1-0.1,0.3,0.2l0,0c-0.1,0.1,0.1,0.2,0.1,0.4c0-0.1-0.1,0-0.1,0V6l0,0c-0.1,0.1,0.1,0.1,0,0.2c0-0.1-0.1,0-0.1,0
			l0.1,0.1L14,6.2c0,0.2,0.2,0.4,0.1,0.5V6.6c0,0-0.1,0.1,0,0.2c0,0,0.1,0.1,0.1,0v0.1C14,6.8,14,6.6,14,6.5c0.1,0,0.1,0.1,0.1,0.1
			C14,6.5,14,6.4,13.9,6.3C14,6.3,14,6.4,14,6.4c0-0.1-0.1-0.1-0.1-0.2L14,6.1C14,6,13.9,6,14,5.9c0,0,0.1,0.1,0.1,0
			c-0.1-0.2-0.2-0.2-0.3-0.4c-0.1-0.1-0.1-0.2-0.2-0.4c0-0.1,0-0.2-0.1-0.3c-0.1,0,0,0.1-0.1,0.1c0.1,0,0-0.1,0.1-0.1
			c-0.2-0.1-0.1-0.2-0.2-0.2V4.5c0.1,0,0-0.1,0.2,0c-0.1,0-0.1-0.1-0.1-0.1l-0.1-0.1c0-0.2-0.1-0.3-0.2-0.3v0.1L13,3.9l0,0
			c0-0.1,0-0.1,0-0.2c0.1,0,0.1,0.1,0.1,0.1c0-0.1-0.2-0.1-0.2-0.2c0.1,0,0.1,0.1,0.1,0c-0.1-0.1-0.1-0.1-0.2-0.2l0,0
			c-0.1-0.2-0.2,0.1-0.2-0.1c0,0-0.1,0-0.1,0.1c0-0.1-0.1-0.2,0.1-0.1c0-0.2,0-0.3-0.1-0.3c0,0.1,0,0.1,0,0.1L12.3,3h0.1
			c0-0.1-0.1-0.2-0.1-0.2C12.1,2.7,12,2.7,12,2.6c-0.1-0.1-0.2-0.1-0.2-0.2l-0.1-0.1l-0.1-0.1c0,0.1-0.1,0-0.1,0
			c-0.1-0.1-0.2-0.2-0.3-0.3h0.1c-0.3-0.1-0.5-0.2-0.6-0.3c0,0,0-0.1,0.1-0.1c-0.2,0-0.2-0.3-0.3-0.2h0.1c-0.1-0.1-0.3-0.1-0.4-0.1
			c-0.2,0-0.3-0.1-0.4-0.1C9.8,1,10,1.2,9.9,1C9.5,1.1,9.4,1.1,9.3,1C9.2,1,9.1,1,9,0.9c0,0,0,0,0.1,0C8.9,0.8,9.1,1,8.9,1
			c0-0.1,0-0.1,0-0.1H8.8V0.8c-0.1,0.1-0.3,0-0.4,0.1c0,0,0.1-0.1,0-0.2s-0.2,0-0.2,0l0,0C8.2,0.6,8,0.6,8,0.6c-0.1,0,0,0.1-0.1,0.1
			L8,0.8H7.8l0.1-0.1c-0.1-0.1-0.2,0-0.4,0l0.1,0.1c-0.1,0-0.1,0-0.1,0c0-0.1-0.2,0-0.1-0.2C7,0.6,6.8,0.8,6.6,0.9c0.1,0,0,0,0-0.1
			c-0.1,0-0.2,0.1-0.3,0.1c0,0,0.1-0.1,0-0.1s-0.1,0-0.1,0.1L6.1,1c0.1-0.1,0-0.1,0-0.1C6.1,1,6,1,6,1c0.1-0.3-0.2,0-0.2-0.2
			c0,0.1-0.3,0.2-0.2,0.3h0.1c0,0.1-0.1,0.1-0.1,0.1s0.1,0,0.1-0.1c-0.1,0-0.1,0.1-0.2,0.1c-0.1,0-0.2,0-0.3,0
			C5.1,1.3,5,1.3,4.8,1.4c0,0,0.1-0.1,0-0.1C4.7,1.4,4.6,1.5,4.5,1.5c0,0.1-0.1,0.1-0.1,0.2c-0.1,0-0.1,0.1-0.1,0.1
			c-0.1-0.1,0-0.1,0.1-0.2s0.1-0.1,0.1-0.2L4.4,1.6L4.3,1.7c-0.1,0-0.1,0.1-0.2,0.1S4,1.9,3.9,2c0,0-0.1,0.1-0.2,0.2
			C3.5,2.1,3.5,2.5,3.3,2.5c0.1,0.1,0,0.1-0.1,0.2c0-0.1-0.1,0-0.1-0.1C3,2.8,2.8,3,2.7,2.9C2.8,3,2.6,3.1,2.6,3.2
			C2.5,3.3,2.5,3.5,2.3,3.6c0.1,0-0.1,0.2-0.1,0.2V3.7c-0.1,0,0,0.2-0.1,0.3c0,0,0-0.1-0.1,0c0.1,0,0,0.3-0.1,0.3V4.2
			C1.8,4.4,1.7,4.6,1.6,4.8C1.5,5.1,1.4,5.3,1.4,5.5L1.3,5.4C1.1,5.6,1.5,5.6,1.4,5.8C1.4,5.9,1.3,6,1.3,6v0.3
			C1.2,6.4,1.2,6.6,1.1,6.7c0,0.3-0.1,0.6,0,0.9c0,0.1,0,0,0.1,0c0,0.1-0.1,0.1,0,0.1h0.1c0,0.1-0.1,0.2-0.1,0.2
			c0,0.1,0,0.2,0.1,0.3c0.1,0.2,0.1,0.4,0,0.5c0.1,0.1,0.1,0.2,0.1,0.4c0,0.1,0,0.1,0.1,0.2c0,0.1,0.1,0.1,0.1,0.2
			c0,0.1-0.1-0.1-0.1,0.1l0.2,0.2l0,0l0.1,0.1L1.9,10c0,0.1,0.1,0.2,0.1,0.3c0,0.2,0.1,0.4,0.2,0.5l0,0v0.1c0,0,0,0,0-0.1
			c0.1,0.1,0.1,0.1,0.1,0.1c0.1,0,0.1,0.1,0.1,0.1c0.1,0.1,0.1,0.1,0.2,0.2c-0.1-0.1,0,0.1,0,0.2c0.1,0,0.1-0.1,0.2,0
			c0.1,0.1,0.2,0.3,0.3,0.5c0.1,0,0.2,0.1,0.2,0C3.4,12,3.5,12,3.5,12.1l0.1,0.1c0.1,0,0.1,0.1,0.2,0.1l0,0C3.9,12.2,4,12.5,4,12.5
			s-0.1,0-0.1,0.1L4,12.7c-0.1,0-0.2,0.1-0.1,0.1c0.1,0,0-0.1,0.1-0.1v0.1c0,0,0-0.1,0-0.2c0.2,0.1,0.5,0.2,0.7,0.4l0,0
			c0.1,0,0.3,0.1,0.4,0.2c0,0,0.1,0,0.1-0.1c0.2,0,0,0.1,0.1,0.1c-0.1,0-0.1,0-0.1,0l0.4,0.1c0,0,0,0.1,0.1,0.1s0.1,0.1,0.2,0.1
			c0,0,0-0.1-0.1-0.1h0.1L6,13.5l0.2-0.1v0.1c0.1,0,0.2-0.1,0.2-0.1c0.3,0.1,0.2,0.1,0.4,0.2c0-0.1,0.1-0.1,0.2-0.1s0.2,0,0.2,0
			c0.1,0,0.1,0.1,0.2,0.1s0.1,0,0.1,0c0.1,0,0.1,0,0.1,0c0.2,0,0.4,0,0.6,0l0,0c0.2,0.1,0.2-0.2,0.3-0.2l0,0c0.1,0,0.1,0,0.2,0
			s0.1,0,0.2-0.1c0.1-0.1,0.3-0.1,0.4-0.2c0,0,0,0.1,0.1,0.1s-0.1-0.1,0-0.1v0.1l0.1-0.1c0.2,0,0.3-0.1,0.5-0.1
			c0.2-0.1,0.3-0.1,0.4-0.2c0.1,0,0.1,0.1,0.1,0.1c0.1-0.1,0.2-0.2,0.3-0.2c0.1-0.1,0.2-0.2,0.3-0.2l0.1,0.1c0.1-0.1,0-0.2,0.1-0.2
			l-0.1,0.1c0.2-0.1,0.1-0.2,0.2-0.3v0.1c0.2-0.1,0.1-0.2,0.1-0.2c0.1-0.2,0.3,0.1,0.4-0.2c0-0.1-0.1-0.1-0.1-0.1
			c0.2-0.1,0.1-0.2,0.3-0.4c0.2,0-0.1,0.1,0.1,0.1l-0.1,0.1c0.2-0.1-0.1,0.1,0,0.2c0.1-0.1,0.1-0.2,0.2-0.4c0.1,0.1-0.1,0.1,0,0.2
			v-0.1v0.1c0.1,0,0.1-0.1,0.1-0.1l-0.1-0.1l0,0c0-0.2,0.2-0.3,0.2-0.5c0,0,0,0,0.1,0v-0.1c0,0,0-0.1,0-0.2c0.1,0,0.1,0.1,0.2-0.1
			c-0.1-0.1-0.2-0.1-0.1-0.2c0,0,0,0.1,0.1,0.1c0-0.2,0.1,0,0.2-0.1c0-0.1,0.1-0.1,0-0.2c0.1,0,0.1,0,0.2-0.1c-0.1,0,0-0.2-0.1-0.2
			c0.1,0,0.1,0.2,0.2,0.1c0-0.1,0-0.3-0.1-0.3c0.1-0.1,0.1-0.1,0.1-0.2c0,0,0,0,0,0.1c0-0.2,0.2-0.4,0-0.6c0.2,0.1,0.1-0.4,0.2-0.2
			c0-0.1,0-0.2-0.1-0.2c0.1,0,0.1,0,0.1-0.1s0-0.1,0.1-0.2c-0.1-0.1,0-0.2-0.1-0.3c0,0,0,0.1,0.1,0.1c-0.1-0.1,0-0.1,0.1-0.1
			c0-0.1-0.1,0-0.2-0.1c0.1-0.1,0.1,0,0.2,0l-0.1-0.2l0.1-0.1c0-0.1-0.1-0.1,0-0.2v0.1L14,7.6l-0.1-0.2c0.1,0,0.1-0.1,0.2-0.1l0,0
			V7.2l0.1,0.1c0,0,0,0,0,0.1c0.1,0,0.1,0,0.2,0v0.1c0.1,0,0.1-0.1,0.1-0.1C14.3,7.3,14.4,7.6,14.4,7.7z M10.2,13.3
			c-0.1,0-0.1,0.1-0.1,0.1C10.1,13.3,10.2,13.3,10.2,13.3L10.2,13.3z M10.4,13.1C10.4,13.2,10.4,13.2,10.4,13.1L10.4,13.1
			C10.4,13.2,10.4,13.1,10.4,13.1z M11,13.5C10.9,13.6,10.9,13.6,11,13.5C10.9,13.6,10.9,13.6,11,13.5L11,13.5L11,13.5z M5.1,13.3
			L5.1,13.3L5.1,13.3z M11,13.4L11,13.4L11,13.4L11,13.4L11,13.4z M11.4,1.8L11.4,1.8L11.4,1.8L11.4,1.8z M5.9,13.6L5.9,13.6
			L5.9,13.6L5.9,13.6z M12.5,3.2L12.5,3.2L12.5,3.2z M12.9,3.8L12.9,3.8C12.9,3.9,12.9,3.8,12.9,3.8z M13.1,4.3
			C13.2,4.3,13.2,4.3,13.1,4.3L13.1,4.3L13.1,4.3z M5.5,1.2L5.5,1.2C5.4,1.2,5.4,1.2,5.5,1.2z M8.1,0.8H8C8.1,0.8,8.1,0.8,8.1,0.8z
			 M3,2.8L3,2.8L3,2.8L3,2.8z M7.9,0.8C8,0.8,8,0.8,7.9,0.8L7.9,0.8z M13.8,6.7L13.8,6.7L13.8,6.7L13.8,6.7z M13.8,6.7L13.8,6.7
			L13.8,6.7z M13.8,6.7C13.8,6.8,13.8,6.8,13.8,6.7L13.8,6.7z M13.7,5.7c0,0.1,0,0.1,0,0.2l0,0C13.7,5.9,13.7,5.7,13.7,5.7z
			 M13.9,4.8c0-0.3-0.1,0.1-0.1-0.2C13.8,4.7,13.8,4.8,13.9,4.8C13.8,4.8,13.8,4.7,13.9,4.8z M13.6,4C13.5,4,13.5,4,13.6,4
			C13.6,4.1,13.5,4,13.6,4z M10.2,0.9L10.2,0.9L10.2,0.9z M9.4,1.1H9.3C9.3,1.1,9.3,1.1,9.4,1.1L9.4,1.1z M9,0.4H8.8H9L9,0.4z
			 M1.8,2.9L1.9,3C1.9,2.8,1.9,2.7,1.8,2.9z M0.5,5.9C0.4,5.9,0.4,6,0.5,5.9L0.5,5.9z M4.8,14.1L4.8,14.1L4.8,14.1L4.8,14.1z"/>
	</g>
</g>
<g>
	<g>
		<path class="st0" d="M8.9,5.5c-0.2,0-0.3,0.1-0.3,0.3s0.1,0.3,0.3,0.3S9.2,6,9.2,5.8C9.2,5.6,9.1,5.5,8.9,5.5z"/>
		<path class="st0" d="M10.2,6.1c0-0.4-0.1-0.7-0.3-1C9.6,4.7,9.1,4.5,8.7,4.5c-0.9,0-1.8,0-2.7,0c-0.5,0-0.9,0.2-1.2,0.6
			c-0.2,0.3-0.3,0.6-0.4,1c0,0.6,0,1.2,0,1.9c0,0.4-0.1,0.7,0.1,1.1c0.1,0.2,0.1,0.4,0.3,0.6C5,10.1,5.5,10.2,6,10.3
			c0.4,0,0.8,0,1.3,0c0.4,0,0.8,0,1.3,0c0.4,0,0.7-0.1,1-0.3c0.4-0.3,0.6-0.8,0.6-1.3C10.2,7.8,10.2,6.9,10.2,6.1z M9.6,8.9
			c0,0.4-0.4,0.8-0.8,0.8c-0.5,0.1-1,0.1-1.5,0.1s-1-0.1-1.5-0.1C5.4,9.7,5,9.3,4.9,8.9c-0.1-1-0.1-2,0-3.1C5,5.4,5.3,5,5.8,5
			c1-0.1,2-0.1,3.1,0c0.3,0,0.7,0.4,0.7,0.8C9.8,6.9,9.8,7.9,9.6,8.9z"/>
	</g>
	<path class="st0" d="M7.3,5.9c-0.8,0-1.5,0.7-1.5,1.4c0,0.8,0.7,1.5,1.4,1.5c0.8,0,1.5-0.7,1.5-1.5C8.8,6.6,8.1,5.9,7.3,5.9z
		 M7.3,8.4c-0.5,0-1-0.4-1-1c0-0.5,0.4-1,1-1s1,0.4,1,1C8.3,7.9,7.8,8.4,7.3,8.4z"/>
</g>
</svg>
