<svg viewBox="0 0 14.6 14.8" xmlns="http://www.w3.org/2000/svg"><g fill="#fff"><path d="m7.3 6.4c-.6 0-1 .5-1 1 0 .6.5 1 1 1s1-.5 1-1c0-.6-.4-1-1-1z"/><path d="m8.9 5c-1.1-.1-2.1-.1-3.1 0-.5 0-.8.4-.9.8-.1 1.1-.1 2.1 0 3.1.1.4.5.8.9.8.5 0 1 .1 1.5.1s1 0 1.5-.1c.4 0 .8-.4.8-.8.2-1 .2-2 0-3.1 0-.4-.4-.8-.7-.8zm-.2 2.3c0 .8-.7 1.5-1.5 1.5-.7 0-1.4-.7-1.4-1.5 0-.7.7-1.4 1.5-1.4s1.5.7 1.4 1.4zm.2-1.2c-.2 0-.3-.1-.3-.3s.1-.3.3-.3.3.1.3.3-.1.3-.3.3z"/><path d="m14.4 7.4-.1.1v-.1-.1c.1-.1.1-.2 0-.2h.1s0 0-.1-.1c0-.1 0-.3-.1-.4 0-.1 0-.1 0-.1 0-.1 0-.2-.1-.2h.1l-.1-.1v-.1h.1c.1-.1-.1-.1 0-.2l-.1-.1h.1c0-.2-.2-.3-.1-.4-.1-.2-.1 0-.2-.1v-.1l.2-.2h-.1v-.1c-.1-.1 0 0-.1 0 0-.1 0-.2-.1-.2-.1-.1-.1-.1 0-.2-.1 0 0 .1-.1 0 .1-.1-.1-.1-.1-.3.1 0 .1.1.1 0-.1 0-.1-.1-.1-.1 0-.1 0-.1-.1-.2-.1.1-.2-.2-.3-.3.1 0-.1-.3-.2-.5-.1 0-.2-.1-.3-.2.1-.1.1-.1.2 0l-.1-.1c-.1 0-.1 0-.1-.1h.1c-.1-.1-.3-.2-.4-.4-.1.1-.1.2-.2.2 0 0 0 0-.1-.1l.1-.1s-.1 0-.1-.1h.1c-.1-.1-.1 0-.1-.1.1-.1 0-.1 0-.1s0 .1.1.1c-.1.1-.2 0-.2-.1 0 0-.1.1-.1 0-.1-.1 0-.1 0-.2-.1 0-.1-.1-.2 0v-.1c-.1 0-.2-.1-.3-.1v.1s0 0-.1 0c-.1 0-.1-.1-.2-.1-.1-.1-.1-.1-.2-.1-.1-.1-.2-.2-.3-.2-.2-.1-.3-.1-.5-.1-.1 0-.1-.1-.1-.1-.1 0-.1 0-.3-.1.1 0 0-.1.1 0 .1-.3.1-.3-.1-.3.1-.1-.1-.1-.2-.1l.1.1c-.1 0-.2-.1-.2-.1l.1-.1c-.2-.1-.3-.1-.5-.1s-.3 0-.4-.1c-.1.1.2.1.1.2-.1-.1-.3-.2-.3-.2-.2-.1-.2.1-.4 0 0 .1 0 .1-.1.2-.1 0-.2-.2-.1-.2h.1c.1 0 .1 0 .1-.1-.2 0-.4 0-.4 0-.1 0-.1.1 0 .1-.2 0-.2 0-.4 0 0 0 .1.1 0 .1-.3-.2-.2-.1-.4 0-.1-.1 0-.1-.2-.1-.1 0 0-.1 0-.1-.1 0-.1 0-.1 0-.1 0-.1 0-.1 0-.1 0-.2 0-.2 0l.1-.1c-.1 0-.1.1-.2.1l.1.1c-.1 0-.1 0-.1 0-.1-.1.1 0 0 .1-.1 0-.2.1-.2 0 .2 0-.1-.1.1-.1h-.1c-.2 0-.1.1-.3.2 0-.1-.1-.1-.1-.1.1 0 .1.1 0 .1-.2 0-.1.1-.2.1h.1c0 .1-.1.1-.2.1 0 0 .1-.1 0-.1-.1.1-.3 0-.4.1-.1 0 0-.1-.1-.1-.1.1-.2 0-.4.1.1 0 .1 0 0 .1l.2-.2-.1.3c.1-.1.2-.1.2-.1-.1.1-.1.1 0 .1-.1 0-.2.2-.4.2l-.1-.2c-.1 0-.2.1-.3.2 0 .1-.1.1-.3.2h.1c0 .1-.1.1-.2.2 0-.1-.1-.1-.1-.1s-.2.1-.1.2l-.2.1c-.2.1-.1.3-.3.4 0-.1-.1-.1 0-.2-.1 0-.1.1-.1.1-.1 0-.1.2-.2.2v.1s-.1.1 0 .1c-.2.1-.3.2-.4.3 0 .1-.1.1-.1.1s0 0-.1.1c0 0-.1.1-.1.1-.1.1-.2.3-.3.4-.1.2.1.2-.1.4-.1.1 0-.1-.1-.1-.2-.1-.1.2-.3.3-.1 0 0 .3-.1.5 0 .2 0 .4-.1.6-.1-.1 0-.1-.1-.1 0 .1.1 0 .1.2-.1 0-.1.1-.2.1 0-.1 0-.1.1-.2-.1 0-.1.1-.1.1v.1h-.1c-.1.2.1.3 0 .5h.1c.1.2-.1.1 0 .2h-.1c0 .1.1.4.1.5-.3 0-.3-.2-.3-.3v.4c0-.1 0-.1 0-.1.1.1.1.3.1.5-.1-.1-.1 0-.2.2 0 .1 0 .3-.1.4.1.2.1.3.1.5s0 .4.1.6c.2-.2 0 .1.2.1 0 .1.1.1 0 .1h.1c-.1.1-.1.1-.2 0v.2c0 .1-.1-.1-.1-.1 0 .2-.1.1-.1.2.1-.1.1.1.1.2l.1-.2c.1.1.1.2.1.2 0 .1 0 .1.1.2l-.2.2c0 .1.1.2.1.3.1.1.2.2.2.2s0 .1-.1 0c.1.2.2.3.3.5.2.2.3.3.3.5.1.1.1.1.1.1s-.1 0 0 0c0 0 .2.1.2.2h-.1c.1.1.2.2.3.3s.2.1.3.2c-.1.1.1.3.1.4.1.1.3.2.4.3.2.2.4.2.6.3 0 .1.1.1.1.2.1.1.2.1.2.2.2.1.4.2.5.4 0-.1.1-.1.1-.1.1.1.2 0 .2.1 0 .1.2.2.3.2l.1-.1c.1.2.4.2.6.3s.4.1.5.2h.3v.1c.1 0 .2.1.3.1s.2.1.4 0l-.1.1c.2 0 .2-.2.4-.2l.1-.1c.3 0 .6.1.9 0 0 0 0 .1-.1.1.1 0 .6 0 .5-.1 0 .1.3 0 .4-.1v.1c.1-.1.1-.2.3-.2.1 0 .1.1 0 .1.2 0 .1-.1.3-.1l-.1.1c.1 0 .1-.1.2-.1.1-.1.3-.1.3 0 0-.1.1-.1.1-.1v.1c.1 0 .1 0 .2-.1.1 0 .1-.1.1-.1.1-.1.1-.1.2-.1h.1c-.2.1-.3.1-.3.1 0 .1.2 0 .1.2.1-.1.2-.3.4-.4s.1 0 .1-.1c.1 0 .1 0 .1-.1h.1s.1 0 .1-.1v.1c.1 0 .1-.1.1-.1-.1-.1.1-.1-.1-.1 0 0 0 0-.1.1s-.1.1-.2.1c0-.1.1-.1.2-.1 0-.1 0-.1 0-.2.2.1.4 0 .4 0 .1-.1.2-.2.3-.3s.1-.1.1-.1c0-.1.1-.1.1-.2s.1 0 .1 0l-.1.1c.1-.1.3-.3.2-.4.2-.1 0 .1.2 0v.1c.2-.1.3-.3.4-.5s.1-.4.3-.5c.1-.1.2-.2.3-.4.1-.1.2-.2.2-.4.1-.1.1-.3.2-.4s.1-.2.2-.4 0-.2 0-.3h.2c0-.1-.1-.1-.1-.2s.1-.2.1-.3.1-.1.1-.2 0-.1 0-.2h-.1c0-.1 0-.4.1-.3 0 0-.1-.1 0-.1h.1c0-.1 0-.2-.1-.3.1-.2.2.1.2-.2.4-.2.3-.4.1-.5zm-4.2 1.3c0 .5-.2 1-.6 1.3-.3.2-.6.3-1 .3-.5 0-.9 0-1.3 0-.5 0-.9 0-1.3 0-.5-.1-1-.2-1.2-.6-.2-.2-.2-.4-.3-.6-.2-.4-.1-.7-.1-1.1 0-.7 0-1.3 0-1.9.1-.4.2-.7.4-1 .3-.4.7-.6 1.2-.6h2.7c.4 0 .9.2 1.2.6.2.3.3.6.3 1z"/></g></svg>