<svg viewBox="0 0 14.6 14.8" xmlns="http://www.w3.org/2000/svg"><g fill="#fff"><path d="m14.1 6.9c0 .1 0 .2-.1.3-.1 0 0-.1-.1-.1.1 0 .2 0 .2-.2-.2 0-.1-.1-.2-.1.1 0 .1.1.2.1zm-6.3-6.5s.1 0 0 0zm3.6 1.3-.1-.1c0 .1 0 .1.1.1zm2.1 2.2h-.1.1c-.1 0-.1 0 0 0zm.5 1.9c.1.1.1 0 0 0zm-.4 3c0-.1 0-.1 0 0zm.5-1.4c.1 0 .1 0 0 0zm-13.7 1.5c.1-.1.1.2.2 0-.1 0-.2-.2-.2 0zm13.4-2.7c0-.1 0-.1 0 0zm-10.4-4.8c-.1 0-.1 0 0 0zm-.9.8c0 .1 0 .1 0 0zm9.7 9.3h.1s.1-.1-.1 0zm-9.2-8.7-.1.1zm-.5.4c-.1 0-.1 0 0 0zm11.9 4.5c0 .3-.2.1-.2.2s.1.2.1.3h-.1c-.1 0 0 .1 0 .1-.1 0-.1.2-.1.3h.1v.2s-.1.1-.1.2c-.1.1-.1.1-.1.3v.2h-.1c0 .1.1.2 0 .3s-.1.2-.2.4c-.1.1-.1.3-.2.4s-.1.3-.2.4-.2.2-.3.4h.1c-.2.1-.3.3-.4.5s-.2.4-.4.5v-.1c-.2.2 0-.1-.2 0 .1.1-.2.3-.2.4 0 0 0-.1.1-.1 0 0-.1-.1-.1 0s0 .1-.1.2c0 .1-.1.1-.1.1-.1.1-.2.2-.3.3-.1-.1-.3 0-.4 0v.2c-.1 0-.1.1-.2.1.1-.1.1-.1.2-.1.1 0 .1-.1.1-.1.1 0 0 .1.1.1-.1 0-.2.2-.2.1-.1 0-.1 0-.1.1l-.1.1c-.2 0-.3.2-.4.4.1-.2-.1-.1-.1-.2 0 0 .1-.1.3-.1 0 0 0 0-.1 0s-.2.1-.2.1l-.1.1c-.1 0-.1 0-.2.1v-.1c-.1 0-.1.1-.1.1-.1-.1-.2-.1-.3 0s0 .1-.2.1l.1-.1c-.2 0-.1.1-.3.1.1 0 .1-.1 0-.1-.2.1-.2.1-.3.2v-.1c-.1.1-.4.2-.4.1.1.2-.3.2-.5.1.1 0 .1-.1.1-.1-.3.1-.6.1-.9 0h-.2c-.1 0-.2.2-.4.2l.1-.1c-.1 0-.2 0-.4 0-.1 0-.2 0-.3-.1v-.1c-.1 0-.2 0-.3 0-.1-.1-.2-.1-.5-.2-.2 0-.4-.1-.6-.3l-.1.1c0 .2-.2.2-.2 0 .1-.1-.1-.1-.2-.1s-.2 0-.1.1c-.1-.1-.3-.2-.5-.4-.1-.1-.2-.1-.2-.2-.1-.1-.1-.1-.1-.2-.3 0-.4 0-.6-.1s-.3-.2-.4-.3c-.1-.1-.2-.3-.1-.4-.1-.2-.2-.3-.3-.3-.1-.1-.2-.2-.3-.3h.1c0-.1-.2-.2-.2-.2 0-.1-.1-.1-.1-.1h.1c0-.1-.1-.3-.2-.4s-.2-.3-.3-.5c.1.1.1 0 .1 0-.1 0-.2-.1-.2-.2-.3-.2-.3-.3-.4-.4l.1.1c-.1-.2 0-.2 0-.3s0-.1-.1-.2v.1c0-.1-.1-.2-.1-.2 0-.1.1-.1.1-.2.1 0 .1.1.1.1l.1-.3v-.1c-.3 0-.2-.3-.3-.1 0-.2 0-.4-.1-.6 0-.2 0-.3-.1-.5.1-.1.1-.2.1-.4s0-.3.2-.2c0-.2 0-.3-.1-.5v.1c-.1-.1 0-.3 0-.4 0 .1.1.3.1.4 0-.2-.1-.4-.1-.5h.1c0-.1.2-.1.1-.2h-.1c.1-.2-.1-.3 0-.5h.1v-.1s0-.1.1-.1c0 .1 0 .1-.1.2.1 0 .2-.1.2-.1.2-.3 0-.2 0-.3.1 0 .1 0 .1.1 0-.2.1-.4.1-.6.1-.1.1-.4.2-.5v.1c.1-.1.1-.4.3-.3.1-.1-.1.1.1.1.2-.2-.1-.2.1-.4.1-.1.2-.3.3-.4 0-.1 0-.1.1-.1 0-.1.1-.1.1-.2.1-.1.2-.2.4-.2-.1 0 0-.1 0-.1.1-.1 0-.1 0-.1.1 0 .1-.2.2-.2 0 0 0-.1.1-.1-.1.1 0 .1 0 .2.2-.2.1-.4.3-.5h.2c-.1-.2.1-.3.1-.3.1 0 .1 0 .1.1.1-.1.2-.1.2-.2h-.1c.1-.1.2-.1.3-.2s.2-.1.3-.2l.1.2c.2 0 .2-.2.4-.2-.1 0-.1 0 0-.1-.1 0-.1.1-.2.2l.1-.2-.2.2c.1-.1.1-.1 0-.1.2-.1.2 0 .4-.1.1 0 0 .1.1.1.1-.1.3 0 .4-.1.1 0-.1 0 0 .1.1-.1.2-.1.2-.1h-.2c.1 0 .1-.1.2-.1.1-.1.1-.2 0-.1 0 0 .1 0 .1.1.2-.1.1-.2.3-.2h.1c-.2-.2.1-.1-.1-.1.1.1.2 0 .2 0 .1-.1 0-.1 0-.2h.1c.1 0 .1 0 .2-.1l-.1.1h.2.1.1c-.1 0-.1.1 0 .1.2-.1.1 0 .2.1.2 0 0-.1.3-.1v-.1c.2 0 .3 0 .5.1-.1 0-.1-.1 0-.1-.1 0 .1 0 .2.1.1.1 0 .1-.1.1 0 0 0 0-.1 0s-.1.2.1.2c.3-.1.2-.2.2-.3.2.1.2-.1.4-.1.1 0 .2.2.3.2.1-.1-.2-.1-.1-.2.1.1.2.1.4.1.1 0 .3 0 .4.1v.2c.1 0 .1.1.2.1v-.1c.1 0 .2.1.2.1.2 0 .2 0 .4.1-.2-.1 0 0-.1 0 0 .1 0 .1.2.1 0 0 0 .1.1.1s.3.1.5.1c.1.1.2.1.3.2s.1.1.2.1c.1.1.1.1.2.1 0-.1.2.1.3.1v.1c.1-.1.1 0 .2 0 .1.1-.1.1 0 .2h.1c0 .1.1.2.1.2l-.1-.1c-.1 0 0 .1 0 .1.1.1.1-.1.1.1h-.1l.1.1c-.1 0-.1 0-.1.1.2.1.2-.1.2-.2.1.2.3.2.4.4h-.1c.1.1.1.1.1.1l.1.1c-.1 0-.1 0-.2 0 .1.1.2.2.3.2.1.2.2.5.2.5.1.1.2.4.3.3 0 .1.1.1.1.2s0 .1.1.1c0 .1 0 0-.1 0 0 .1.2.2.1.3.1.1 0-.1.1 0-.1.1-.1.1 0 .2 0 .1.1.2.1.2.1 0 0-.1.1 0-.1 0 0 .1 0 .1-.1.1-.1.1-.2.2.2.2.1-.1.3.2-.1.1.1.2.1.4 0-.1-.1 0-.1 0v.2c-.1.1.1.1 0 .2 0-.1-.1 0-.1 0l.1.1-.1-.1c0 .2.2.4.1.5v-.1s-.1.1 0 .2c0 0 .1.1.1 0v.1c-.2-.1-.2-.3-.2-.4.1 0 .1.1.1.1-.1-.1-.1-.2-.2-.3.1 0 .1.1.1.1 0-.1-.1-.1-.1-.2l.1-.1c0-.1-.1-.1 0-.2 0 0 .1.1.1 0-.1-.2-.2-.2-.3-.4-.1-.1-.1-.2-.2-.4 0-.1 0-.2-.1-.3-.1 0 0 .1-.1.1.1 0 0-.1.1-.1-.2-.1-.1-.2-.2-.2v-.1c.1 0 0-.1.2 0-.1 0-.1-.1-.1-.1l-.1-.1c0-.2-.1-.3-.2-.3v.1l-.1-.2c0-.1 0-.1 0-.2.1 0 .1.1.1.1 0-.1-.2-.1-.2-.2.1 0 .1.1.1 0-.1-.1-.1-.1-.2-.2-.1-.2-.2.1-.2-.1 0 0-.1 0-.1.1 0-.1-.1-.2.1-.1 0-.2 0-.3-.1-.3v.1l-.2-.1h.1c0-.1-.1-.2-.1-.2-.2-.1-.3-.1-.3-.2-.1-.1-.2-.1-.2-.2l-.1-.1-.1-.1c0 .1-.1 0-.1 0-.1-.1-.2-.2-.3-.3h.1c-.3-.1-.5-.2-.6-.3 0 0 0-.1.1-.1-.2 0-.2-.3-.3-.2h.1c-.1-.1-.3-.1-.4-.1-.2 0-.3-.1-.4-.1 0-.1.2.1.1-.1-.4.1-.5.1-.6 0-.1 0-.2 0-.3-.1h.1c-.2-.1 0 .1-.2.1 0-.1 0-.1 0-.1h-.1v-.1c-.1.1-.3 0-.4.1 0 0 .1-.1 0-.2s-.2 0-.2 0c0-.1-.2-.1-.2-.1-.1 0 0 .1-.1.1l.1.1h-.2l.1-.1c-.1-.1-.2 0-.4 0l.1.1c-.1 0-.1 0-.1 0 0-.1-.2 0-.1-.2-.4 0-.6.2-.8.3.1 0 0 0 0-.1-.1 0-.2.1-.3.1 0 0 .1-.1 0-.1s-.1 0-.1.1l-.1.1c.1-.1 0-.1 0-.1 0 .1-.1.1-.1.1.1-.3-.2 0-.2-.2 0 .1-.3.2-.2.3h.1c0 .1-.1.1-.1.1s.1 0 .1-.1c-.1 0-.1.1-.2.1s-.2 0-.3 0c-.1.1-.2.1-.4.2 0 0 .1-.1 0-.1-.1.1-.2.2-.3.2 0 .1-.1.1-.1.2-.1 0-.1.1-.1.1-.1-.1 0-.1.1-.2s.1-.1.1-.2l-.1.2-.1.1c-.1 0-.1.1-.2.1s-.1.1-.2.2c0 0-.1.1-.2.2-.2-.1-.2.3-.4.3.1.1 0 .1-.1.2 0-.1-.1 0-.1-.1-.1.2-.3.4-.4.3.1.1-.1.2-.1.3-.1.1-.1.3-.3.4.1 0-.1.2-.1.2v-.1c-.1 0 0 .2-.1.3 0 0 0-.1-.1 0 .1 0 0 .3-.1.3v-.1c-.1.2-.2.4-.3.6-.1.3-.2.5-.2.7l-.1-.1c-.2.2.2.2.1.4 0 .1-.1.2-.1.2v.3c-.1.1-.1.3-.2.4 0 .3-.1.6 0 .9 0 .1 0 0 .1 0 0 .1-.1.1 0 .1h.1c0 .1-.1.2-.1.2 0 .1 0 .2.1.3.1.2.1.4 0 .5.1.1.1.2.1.4 0 .1 0 .1.1.2 0 .1.1.1.1.2s-.1-.1-.1.1l.2.2.1.1.1.1c0 .1.1.2.1.3 0 .2.1.4.2.5v.1s0 0 0-.1c.1.1.1.1.1.1.1 0 .1.1.1.1l.2.2c-.1-.1 0 .1 0 .2.1 0 .1-.1.2 0s.2.3.3.5c.1 0 .2.1.2 0 .1.1.2.1.2.2l.1.1c.1 0 .1.1.2.1.1-.1.2.2.2.2s-.1 0-.1.1l.1.1c-.1 0-.2.1-.1.1s0-.1.1-.1v.1s0-.1 0-.2c.2.1.5.2.7.4.1 0 .3.1.4.2 0 0 .1 0 .1-.1.2 0 0 .1.1.1-.1 0-.1 0-.1 0l.4.1s0 .1.1.1.1.1.2.1c0 0 0-.1-.1-.1h.1l.1.1.2-.1v.1c.1 0 .2-.1.2-.1.3.1.2.1.4.2 0-.1.1-.1.2-.1s.2 0 .2 0c.1 0 .1.1.2.1s.1 0 .1 0h.1.6c.2.1.2-.2.3-.2h.2s.1 0 .2-.1.3-.1.4-.2c0 0 0 .1.1.1s-.1-.1 0-.1v.1l.1-.1c.2 0 .3-.1.5-.1.2-.1.3-.1.4-.2.1 0 .1.1.1.1.1-.1.2-.2.3-.2.1-.1.2-.2.3-.2l.1.1c.1-.1 0-.2.1-.2l-.1.1c.2-.1.1-.2.2-.3v.1c.2-.1.1-.2.1-.2.1-.2.3.1.4-.2 0-.1-.1-.1-.1-.1.2-.1.1-.2.3-.4.2 0-.1.1.1.1l-.1.1c.2-.1-.1.1 0 .2.1-.1.1-.2.2-.4.1.1-.1.1 0 .2v-.1.1c.1 0 .1-.1.1-.1l-.1-.1c0-.2.2-.3.2-.5h.1v-.1s0-.1 0-.2c.1 0 .1.1.2-.1-.1-.1-.2-.1-.1-.2 0 0 0 .1.1.1 0-.2.1 0 .2-.1 0-.1.1-.1 0-.2.1 0 .1 0 .2-.1-.1 0 0-.2-.1-.2.1 0 .1.2.2.1 0-.1 0-.3-.1-.3.1-.1.1-.1.1-.2v.1c0-.2.2-.4 0-.6.2.1.1-.4.2-.2 0-.1 0-.2-.1-.2.1 0 .1 0 .1-.1s0-.1.1-.2c-.1-.1 0-.2-.1-.3 0 0 0 .1.1.1-.1-.1 0-.1.1-.1 0-.1-.1 0-.2-.1.1-.1.1 0 .2 0l-.1-.2.1-.1c0-.1-.1-.1 0-.2v.1l.3.2-.1-.2c.1 0 .1-.1.2-.1v-.1l.1.1v.1h.2v.1c.1 0 .1-.1.1-.1-.2-.1-.1.2-.1.3zm-4.2 5.6c-.1 0-.1.1-.1.1 0-.1.1-.1.1-.1zm.2-.2c0 .1 0 .1 0 0zm.6.4c-.1.1-.1.1 0 0zm2.1-9.2c.1 0 .1 0 0 0zm-7.6-3.1c-.1 0-.1 0 0 0zm2.6-.4h-.1zm-.2 0c.1 0 .1 0 0 0zm5.9 5.9c0 .1 0 .1 0 0zm-.1-1v.2zm.2-.9c0-.3-.1.1-.1-.2 0 .1 0 .2.1.2-.1 0-.1-.1 0 0zm-.3-.8c-.1 0-.1 0 0 0 0 .1-.1 0 0 0zm-4.2-2.9h-.1zm-.4-.7h-.2zm-7.2 2.5.1.1c0-.2 0-.3-.1-.1zm-1.3 3c-.1 0-.1.1 0 0z"/><path d="m8.9 5.5c-.2 0-.3.1-.3.3s.1.3.3.3.3-.1.3-.3-.1-.3-.3-.3z"/><path d="m10.2 6.1c0-.4-.1-.7-.3-1-.3-.4-.8-.6-1.2-.6-.9 0-1.8 0-2.7 0-.5 0-.9.2-1.2.6-.2.3-.3.6-.4 1v1.9c0 .4-.1.7.1 1.1.1.2.1.4.3.6.2.4.7.5 1.2.6h1.3 1.3c.4 0 .7-.1 1-.3.4-.3.6-.8.6-1.3 0-.9 0-1.8 0-2.6zm-.6 2.8c0 .4-.4.8-.8.8-.5.1-1 .1-1.5.1s-1-.1-1.5-.1c-.4 0-.8-.4-.9-.8-.1-1-.1-2 0-3.1.1-.4.4-.8.9-.8 1-.1 2-.1 3.1 0 .3 0 .7.4.7.8.2 1.1.2 2.1 0 3.1z"/><path d="m7.3 5.9c-.8 0-1.5.7-1.5 1.4 0 .8.7 1.5 1.4 1.5.8 0 1.5-.7 1.5-1.5.1-.7-.6-1.4-1.4-1.4zm0 2.5c-.5 0-1-.4-1-1 0-.5.4-1 1-1s1 .4 1 1c0 .5-.5 1-1 1z"/></g></svg>