<?xml version="1.0" encoding="utf-8"?>
<!-- Generator: Adobe Illustrator 21.0.0, SVG Export Plug-In . SVG Version: 6.00 Build 0)  -->
<svg version="1.1" id="Layer_1" xmlns="http://www.w3.org/2000/svg" xmlns:xlink="http://www.w3.org/1999/xlink" x="0px" y="0px"
	 viewBox="0 0 60 53" style="enable-background:new 0 0 60 53;" xml:space="preserve">
<style type="text/css">
	.st0{fill:#490E0E;}
</style>
<g>
	<g>
		<g>
			<path class="st0" d="M40.7,46.5l-0.6,0.2c1.8-0.6,3.6-1.5,5.3-2.7c-0.2,0.2-0.5,0.3-0.8,0.4c-0.2,0.1-0.5,0.2-0.8,0.3
				c-0.5,0.2-1,0.4-1.6,0.6c-0.5,0.2-1,0.3-1.6,0.5c-0.3,0.1-0.5,0.1-0.8,0.2l-0.4,0.1L39,46.2c-2.1,0.5-4.2,0.9-5.9,1.7
				c-0.1-0.1-0.2-0.2-0.3-0.3c-0.2-0.1-0.3-0.2-0.6-0.3c-0.5-0.2-1-0.3-1.6-0.5s-1.1-0.3-1.5-0.4c-0.4-0.1-0.7-0.1-0.8-0.1
				c-0.9,0-1.8-0.1-2.8-0.2c0.6,0.1,1.3,0.2,1.9,0.2c-0.6-0.1-1.3-0.2-1.9-0.2c-2.9-0.5-6-1.6-8.8-3.2C15.4,42,14,41.1,12.8,40
				c-0.6-0.5-1.2-1.2-1.7-1.7c-0.3-0.3-0.5-0.6-0.8-0.9l0-0.4c-0.1-0.2-0.2-0.3-0.3-0.5s-0.2-0.4-0.4-0.6c-0.1-0.1-0.2-0.2-0.2-0.3
				c-0.1-0.1-0.1-0.2-0.2-0.4c-0.2-0.5-0.6-1.1-0.8-1.7c-0.1-0.2-0.1-0.3-0.2-0.5S8,32.6,7.9,32.4c-0.1-0.4-0.2-0.8-0.3-1.2
				c-0.1-0.4-0.2-0.8-0.3-1.3C7.2,29.5,7.1,29,7,28.6c-0.3-1.7-0.6-3.5-0.7-5c-0.1-1.6-0.1-2.8,0-3.8c0.1-0.5,0.1-1,0.1-1.6
				c-0.1,0.9-0.1,0.9-0.2,1.8C6,17.9,6,15.9,6.4,14c-0.2,0.3-0.3,0.3-0.8,1c0,0,0.1-0.2,0.2-0.5c0.1-0.1,0.1-0.2,0.1-0.3
				C6,14.2,6,14.1,6,14.1c-0.1-0.5,0.1-1.2,0.3-1.9c0.1-0.2,0.1-0.3,0.2-0.5s0.2-0.3,0.2-0.5C6.9,11,7,10.7,7.2,10.5
				c0,0.1,0.1,0.1,0.3-0.1c0.1-0.1,0.2-0.2,0.3-0.3C7.9,10,8,9.9,8.1,9.7L7.9,9.9C8.8,9,9.9,8.1,11,7.4c1.2-0.7,2.4-1.3,3.6-1.6
				c0.3-0.1,0.6-0.1,0.8-0.1c0,0,0.1-0.1,0.3-0.1c0.2-0.1,0.5-0.2,0.8-0.2c0.6-0.2,1.2-0.3,1.2-0.3c-0.1,0.3,2,0,0.9,0.3
				c1.7-0.5,3.5-0.4,5.3-0.7c3.1,0.1,6.3,0.4,9.5,0.9c1.6,0.2,3.2,0.5,4.8,0.9c1.6,0.3,3.2,0.6,4.8,0.9l-0.1-0.1
				c1.2,0.2,2.2,0.3,3.3,0.6c1.1,0.3,2.3,0.6,3.5,1.2c1,0.2,2.1,0.7,3.1,1.2s1.8,1,2.3,1.1c0.9,0.9,1.4,1.6,1.9,2.4s0.9,1.6,1,2.9
				c0.1-0.3,0.3,0.3,0.3,0.9c0,0.2,0,0.3,0.1,0.4c0,0.1,0,0.2,0.1,0.2c0,0.1,0.1,0.1,0.2-0.2c0.2-0.9,0.2-1.4,0.2-1.8
				c-0.1-0.5-0.1-0.9-0.2-1.7l-0.1,0.1c-0.5-1.8-1.6-3.5-2.8-4.7c-0.6-0.6-1.3-1.2-2-1.7s-1.4-0.9-2.1-1.3c-2.9-1.6-5.9-2.5-8.9-3.3
				c-0.5-0.1-1-0.2-1.6-0.3s-1-0.2-1.5-0.3c-1-0.2-2.1-0.5-3.1-0.7c-2.1-0.5-4.3-0.9-6.5-1.2c-2.3-0.3-4.8-0.4-7.2-0.3
				S17.7,1,15.7,1.6c-0.5,0.1-0.9,0.2-1.3,0.2c-0.4,0.1-0.8,0.1-1.3,0.1c-1.8,0.6-4,1.6-5.9,3.1c-1,0.7-1.8,1.6-2.6,2.5
				C4.3,7.9,3.9,8.4,3.5,8.9C3.4,9.2,3.2,9.5,3.1,9.7s-0.2,0.5-0.3,0.8c0.1-0.1,0.1-0.2,0.1-0.2c-0.2,0.6-0.5,1.1-0.7,1.6
				s-0.4,1-0.5,1.5c-0.3,1-0.6,2-0.7,3.1c0,0.1,0,0.4,0,0.6c-0.2,0.2-0.3,3.5,0.3,6.8c0.5,3.2,1.5,6.3,1.5,6.8
				c0,0.1,0.1,0.3,0.2,0.6c0.1,0.6,0.2,1.1,0.4,1.7c0.1,0.6,0.2,1.2,0.5,1.7l0.3,0.9c0.1,0.3,0.2,0.6,0.3,0.9c0.2,0.5,0.5,1,0.8,1.6
				c1.2,2.1,2.6,3.9,4.2,5.3c0.8,0.5,1.6,1,2.4,1.3c0.2,0.3,0.4,0.3,0.6,0.5c0.2,0.1,0.5,0.2,0.8,0.5c0.7,0.9,1.4,1.4,1.8,1.6
				c0.4,0.2,0.5,0.1,0.1-0.3c0.4,0.2,0.8,0.4,1.2,0.6c0.4,0.2,0.8,0.3,1.2,0.6c0.4,0.2,0.8,0.4,1.2,0.6s0.8,0.3,1.1,0.5
				c0.7,0.2,1.4,0.4,2.1,0.6c0.6,0.2,0.9,0.3,1.2,0.6c1.6,0.3,1,0.4,2.7,0.9c0.1,0.1,0.4,0.2,0.8,0.2c0.4,0.1,1,0.1,1.5,0.1
				c0.5,0.1,1.1,0.1,1.5,0.1s0.8,0,0.9,0.1H30c0.5,0.1,0.9,0.1,1.3,0.2c0.4,0.1,0.8,0.2,1.2,0.2c0.4,0.1,0.8,0.1,1.3,0.2
				c0.4,0.1,0.9,0.1,1.4,0.1c2.7-0.1,5.7-0.7,8.3-1.8c2.7-1.2,5-2.9,6.8-4.8c-0.2-0.2-0.8,0.9-1,0.7c2.3-2.1,4.2-4.6,5.4-7.4
				c0.1-0.1,0.2-0.2,0.2-0.3c0.1-0.1,0.1-0.2,0.2-0.3c0.1-0.2,0.3-0.5,0.3-0.6c0.2-0.5,0.2-0.6,0.2-0.7c0-0.1,0-0.2,0.1-0.5H56
				c0.1-1,0.6-1.3,0.8-2.2c-0.1-0.1,0-0.4,0.1-0.7c0.2,0.1,0.2-1,0.5-0.9l0,0c0.1-0.2,0.1-0.3,0.2-0.5c0-0.2,0.1-1.2,0.1-2.1
				c0.1-1,0.1-2,0.1-2.1l0.1-0.2c0.1-0.5-0.1-0.8-0.1-0.5l0.1-0.6v0.1l0.1-0.6c0.1-0.1,0.2-0.2,0.2,0c0-0.3,0-0.8,0.1-1.1
				c-0.3,0.9-0.8,2.1-1.3,3.1c0-0.5,0.3-1.2,0.3-1.6c0.3-0.5,0.6-1.6,0.9-2.5c0-0.2-0.2-0.4-0.1-0.8c0.2-0.2,0.1-0.5,0.3-0.9
				c0.1,0.5-0.1,0.9-0.2,1.3c0.2-0.1,0.3-1,0.5-1.3c-0.1-0.2,0.1-1,0.1-1.6c0.2,0.2,0.2-0.4,0.3-0.7c0.1-0.3,0-0.6-0.1-0.5
				c-0.1-0.1-0.2,0.3-0.2,0.6c-0.1,0.3-0.1,0.6-0.2,0.3c0.1-0.1,0.1-0.8,0.2-1.2c-0.1,0-0.1,0.2-0.2,0c0.1-0.4-0.1-0.9,0.1-1.1
				c0.1,0.1,0,0.2,0,0.4c0-0.3,0.2,0.5,0.3,1.2c0.2,0.8,0.2,1.4,0.2,1.1c-0.1,0.1-0.1-0.1-0.1-0.4c-0.1-0.3-0.1-0.7-0.2-1.1
				c-0.1-0.8-0.2-1.5-0.2-1.3c-0.1,0.3-0.2-0.2-0.3,0.1l0.1,0.4c-0.1,0.5-0.3,0.6-0.4,0.5c0.1-0.4,0.2,0.2,0.3,0.8
				c0.2,0.6,0.3,1.2,0.2,0.9L58.5,21c-0.1-0.3-0.1-1,0.1-1.3c-0.1,0-0.1-0.4-0.2-0.8v-0.1c-0.1-0.3,0.1-0.8-0.2-0.6
				c-0.1,1-0.3,0.6-0.7,0.3c-0.3-0.3-0.6-0.7-0.8,0.2c0.3-0.8,0.3,0.3,0.2,1.1c-0.1,0.1-0.3,0.4-0.4,1c-0.1,0.5,0.1,0.3,0.1,0.4
				c-0.1,0.3-0.2,0.8-0.3,0.7c0.1,0.4-0.2,0.6-0.2,1s0.1,0,0.1,0.3c-0.1,0.6-0.3,1.4-0.4,1.9c-0.2,0.2-0.5,0.7-0.6,0.2
				c0.2-0.9,0.3,0.4,0.4-0.5c-0.4,0.3,0.1-0.9-0.2-1.1c-0.2,0.3-0.3,0.9-0.3,1.4l0.1-0.1c-0.1,0.5-0.2,1.4-0.4,1.8
				c-0.1-0.1-0.2,0.1-0.2-0.3l-0.1,0.3c-0.1,0.2-0.1,0.3-0.1,0.3c0,0.1,0.1,0.2,0.1,0c0,0.3-0.1,0.6-0.2,0.8c-0.1,0-0.1,0.9-0.2,1.7
				c-0.1,0.8-0.1,1.6-0.2,1.6c-0.1,0.5-0.3,0.5-0.3,1c0.1,0.1,0.6-4.3,0.5-3.7c-0.1,0.2-0.2,1.4-0.5,2.7c-0.2,1.3-0.4,2.5-0.5,2.7
				c-0.1,0.3-0.2,0.7,0,0.7c-0.2,0.5-0.2-0.2-0.4,0.1c0,0,0.1,0,0,0.1l-0.2,0.3c-0.1,0.9-0.7,2-0.8,2.9c0-0.3-0.1-0.6-0.1-1.3
				l0.1-0.1c0-0.1,0.1-0.5,0-0.6c-0.3,0.5-0.4,0.9-0.5,1.5c-0.1,0.1-0.2,0.2-0.2,0.2h0.1c-0.1,0.1-0.2,0.1-0.2,0.1s0,0,0-0.1
				c-0.2,0.1-0.4,0.6-0.6,1.2c-0.2,0.6-0.5,1.2-0.8,1.6c-0.1,0.3,0.1,0.1-0.1,0.4c-0.3,0.3-0.6,0.7-0.9,1c-0.3,0.3-0.6,0.6-1,1
				c-0.1,0.3-0.1,0.4,0.3,0.2l-0.1,0.1c-0.1,0.1-0.1,0.1-0.2,0.2c-0.2,0.1-0.3,0.3-0.3,0.3c0.2-0.8-1.3,0.8-1-0.1
				c-0.2,0.1-0.6,0.3-0.9,0.7c0.1,0.1,0.1,0.3-0.3,0.6c-0.7,0.3-0.5,0.3-1.1,0.5c-0.2,0-0.1-0.2-0.1-0.3c-0.3,0.3-0.6,0.4-0.8,0.4
				s-0.4,0-0.8,0.2c-0.2,0.2-0.6,0.3-0.9,0.5c-0.3,0.2-0.5,0.3-0.5,0.5C40.7,46.9,40.7,46.7,40.7,46.5"/>
			<path class="st0" d="M49.6,14.2c-0.1-0.1-0.3-0.1-0.6-0.1h-0.4v1h0.5c0.2,0,0.3,0,0.5-0.1s0.3-0.2,0.3-0.5
				C49.9,14.4,49.7,14.3,49.6,14.2 M49.1,13.8c0.3,0,0.6,0.1,0.8,0.1c0.3,0.1,0.4,0.3,0.4,0.7c0,0.2-0.1,0.4-0.3,0.5
				c-0.1,0.1-0.2,0.1-0.4,0.1c0.2,0.1,0.3,0.1,0.5,0.3s0.2,0.3,0.2,0.4v0.2c0,0.1,0,0.1,0,0.2s0,0.1,0,0.2l0,0h-0.5l0,0
				c0,0,0,0,0-0.1v-0.1v-0.2c0-0.3-0.1-0.5-0.2-0.6c-0.1-0.1-0.3-0.1-0.5-0.1h-0.3v1.1h-0.5v-2.8L49.1,13.8L49.1,13.8z M47.7,13.6
				C47.3,14,47,14.5,47,15.2c0,0.6,0.2,1.1,0.6,1.6c0.4,0.4,0.9,0.6,1.6,0.6c0.6,0,1.1-0.2,1.6-0.6c0.4-0.4,0.6-0.9,0.6-1.6
				c0-0.6-0.2-1.1-0.6-1.6c-0.4-0.4-0.9-0.6-1.6-0.6C48.6,13,48.1,13.2,47.7,13.6 M51,17c-0.5,0.5-1.1,0.8-1.8,0.8s-1.3-0.2-1.8-0.8
				c-0.5-0.5-0.8-1.1-0.8-1.8s0.2-1.3,0.8-1.8c0.5-0.5,1.1-0.8,1.8-0.8s1.3,0.2,1.8,0.8c0.5,0.5,0.8,1.1,0.8,1.8S51.5,16.4,51,17"/>
			<path class="st0" d="M20.7,28.7c-0.1,0.2-0.2,0.4-0.2,0.6l0.1,0.1c0.2-0.1,0.3-0.3,0.3-0.5C20.8,28.8,20.8,28.8,20.7,28.7
				 M19.7,31.1c0.3-0.3,0.8-0.6,0.2-1.4C19.8,30.3,19.8,30.6,19.7,31.1 M17.3,21.6c-0.1-0.1-0.1-0.1-0.2-0.1
				c-0.1,0.1-0.2,0.2-0.2,0.3c0.2,0.4,0.3,0.8,0.9,1.2L17.3,21.6z M24.1,24.6l-0.7,2.1c-0.1,0.5-0.3,1-0.5,1.6
				c-0.2,0.7-0.5,1.3-0.8,2c-0.2,0.4-0.5,0.8-0.6,1.2c-0.3,0.5-0.6,2.1-0.8,2.7c-0.2,0.4-0.6,0.3-0.5,0.8c0,0.1,0.1,0.3,0.1,0.5
				c-0.1,0.1-0.1,0.5-0.1,0.7c-0.2,0.6-0.3,1-0.7,1.7c-0.4,0-0.4-0.1-0.3,0.5c-0.2,0.1-0.5,0.2-0.6,0.3c-0.2,0.1-0.9-0.1-1.2-0.2
				c-0.6-0.3-1-0.5-1.1-1c0.2-1.3,0.9-4.3,1-5.5c0.1-0.8,0.3-1.5,0.6-2.3c0.1-0.5,0.3-1.1,0.5-1.7c0.3-0.9,0.3-1.6-0.6-2.3
				c0.2-0.2,0.3-0.3,0.6-0.5c-0.1-0.1-0.5-0.3-0.2-0.8c0.1-0.1-0.3-0.4-0.4-0.6s-0.3-0.4-0.6-0.1c-0.1-0.5-0.3-0.9-0.5-1.4
				c-0.4-1.2-0.8-2.3-1.1-3.5c-0.1-0.6-0.5-1.2-0.7-1.8c-0.2-0.5-0.3-1.2-0.4-1.7c-0.2-0.5-0.3-1.1-0.5-1.7c0.2-0.1,0.6-0.1,0.9-0.1
				l1.6,0.2c0.1,0,0.9-0.1,0.9,0.1c0.2,0.8,0.5,1.3,0.9,2l0.1-0.2l0.1-0.1l0.2,0.2l0.3,0.6c0.1,0.1,0.1,0.2,0.1,0.2
				c0,0.1,0,0.1,0.1,0.1h0.2c-0.1-0.1-0.1-0.1-0.1-0.1c-0.1-0.1-0.1-0.2-0.1-0.3c-0.1-0.1-0.2-0.5-0.2-0.6c-0.1-0.2-0.2-0.2-0.4-0.4
				c-0.1-0.1-0.1-0.2-0.1-0.3l-0.1-0.3c-0.1-0.2-0.1-0.2-0.2-0.4c-0.1-0.1-0.1-0.2-0.1-0.2c0-0.1-0.1-0.2-0.1-0.3
				c0.1-0.2,0.3-0.1,0.5,0c0.1,0.1,0.1,0.2,0.2,0.4c0.2,0.5,0.3,0.8,0.6,1.2l0.5,1.2c0,0.1,0.1,0.1,0.1,0.1c0.1,0.1,0.2,0.1,0.2,0.2
				c0.2,0.4,0.3,0.8,0.5,1.2c0.2,0.3,0.4,0.7,0.5,1.1c0.2,0.3,0.5,0.8,0.6,1.2c0.3,0.5,0.1,1,0.6,1.3c0.3-0.5,0.5-1.4,0.7-1.8
				c0.1-0.5,0.1-0.3-0.2-0.5c0.1-0.7,0.2-1.4,0.6-2c0.2-0.3,0.1-0.8,0.3-1.1c0.4-0.8,0.8-1.6,1.2-2.5l0.2-0.7
				c0.1-0.4,0.4-0.7,0.8-0.6c0.5,0.1,1,0.3,1.5,0.5c0.3,0.1,0.4,0.3,0.3,0.7s-0.2,0.8-0.3,1.2c-0.3,0.9-0.6,1.8-0.9,2.8
				c-0.1,0.2,0,0.3,0,0.6c0.1,0.6-0.2,1.1-0.4,1.7c-0.3,1.2-0.8,2.5-1.2,3.6c-0.2,0.1-0.2-0.2-0.2-0.3c0-0.3-0.1-0.6,0-1l0.2-0.6
				c0.1-0.2,0.2-0.5,0.1-0.6c0.1-0.2,0.2-0.3,0.2-0.6c0.1-0.2-0.1-0.2,0-0.4c0-0.1,0.2-0.1,0.2-0.2l0.1-0.2h0.1c0-0.1,0-0.1,0.1-0.1
				c0,0.1,0,0.1,0.1,0.1l0.1-0.1l0.1-0.2c0.1-0.1,0.1-0.2,0.1-0.3l0.1-0.2l-0.1-0.1v-0.1v-0.1h0.1v-0.1l0.2-0.2V18
				c0-0.1,0-0.1-0.1-0.2l0.1-0.4l0.4-1.6c-0.2,0.4-0.3,0.9-0.5,1.3l-0.2,0.1c0,0.1-0.1,0.1-0.1,0.1s-0.1-0.1-0.1,0.1
				c-0.1,0.1-0.1,0.1,0,0.1v0.2c0,0-0.1,0-0.1,0.1v0.1h-0.1c0,0,0.1,0.1,0.1,0.2c-0.1,0.1-0.1,0.1-0.1,0.2l-0.1,0.1
				c0.1-0.1-0.1,0-0.1,0h-0.1c0,0,0,0.1-0.1,0.1v0.1c0.1,0,0.1,0.1,0.1,0.1c0,0.1,0,0.1,0.1,0.2V19c0,0.1-0.1,0.1-0.1,0.1v-0.2
				c0,0.1,0,0.1-0.1,0.1s-0.1,0-0.1,0.1c0,0,0,0.1-0.1,0.1s0-0.2,0-0.2l0.1,0.1c0,0.1,0,0.1-0.1,0.2L25,19.4l0.1,0.1
				C25,19.6,25,19.7,25,19.7c-0.1,0.2-0.1,0.5-0.2,0.8c-0.1,0.2-0.1,0.4-0.1,0.6v0.1c0,0.1-0.1,0.1-0.1,0.1c0,0.2-0.1,0.3-0.1,0.5
				s-0.1,0.4-0.2,0.6S24.1,23,24,23.3c-0.1,0-0.2,0.2-0.2,0.3c-0.1,0.1-0.1,0.3-0.1,0.5c0.1,0.5-0.2,0.8-0.5,1.3
				c-0.2,0.4-0.3,1.1-0.1,1.4c-0.1,0.3-0.4,1.4-0.3,1.4c0.1-0.2,0.2-0.7,0.3-1c0.1-0.3,0.2-0.7,0.3-1l0.7-1.7l0.4-0.6L24.1,24.6z"/>
			<path class="st0" d="M36.1,26.8c-0.1-0.7,0.2-1.5-0.2-2.1c0,1.4,0.1,2.9,0.1,4.3C36.2,28.2,36.2,27.5,36.1,26.8 M35.1,35.1
				C35.1,35,35,35,35.1,35.1c0-0.3,0-0.4,0.1-0.7c0.1,0.1,0.1,0.1,0.2,0.1C35.4,34.7,35.3,34.9,35.1,35.1 M30.1,34.6
				c-0.6-0.8-0.9-1.8-1.2-2.9c-0.1,1.2,0.4,2.3,0.7,3.3c0.1,0.2,0.3,0.4,0.5,0.5c0.3,0.1,0.6,0.1,0.6-0.3c0.3,0.2,0.5,0.1,0.7-0.2
				c0.4-0.6,0.9-1.3,1.1-1.9c0.7-2,0.8-4.1,0.7-6.2c-0.1-1.7-0.3-3.2-0.9-4.7c-0.1-0.1-0.1-0.2-0.2-0.4c-0.6,1.3-1.3,2.3-1.8,3.5
				c-0.1,0.2-0.2,0.5-0.2,0.8c-0.1,0.5-0.2,1.1-0.4,1.7c-0.1,0.1-0.1,0.2-0.1,0.4c-0.1,0.8-0.1,1.7-0.1,2.4c0.1,1.7,0.1,3.4,1.2,4.7
				C30.5,34.9,30.2,34.7,30.1,34.6 M33.7,37c-0.5,0.6-1.1,0.8-1.7,1c-0.2,0.1-0.4,0-0.5-0.1c-0.6-0.3-0.6-0.3-1.2,0.1
				c-0.5-0.2-1.1-0.4-1.7-0.6c-0.8-0.3-1.3-1-1.7-1.7c-0.8-1.3-1-2.7-1.1-4.2c-0.1-2,0.1-3.9,0.5-5.9c0-0.1,0.1-0.2,0.1-0.3
				c0.5-0.8,0.6-1.7,1-2.5c0.9-1.7,2.1-3.2,4.1-3.6c0.8-0.2,1.6,0.1,2.3,0.1c0.4,0.8,1.3,1.1,1.6,2c0.3,1.2,0.9,2.3,1.1,3.5
				c0.2,1.2,0.2,2.4-0.1,3.6c-0.3,1.6-0.8,3.2-1.2,4.8c-0.2,0.8-0.5,1.5-0.8,2.3c-0.1,0.2-0.1,0.5-0.1,0.9
				C34.2,36.3,33.9,36.6,33.7,37"/>
			<path class="st0" d="M39.1,29.4c0-0.3,0.1-0.5-0.2-0.8C38.9,29.1,38.9,29.1,39.1,29.4 M39.2,31c0.1-0.4-0.1-0.7-0.4-1
				c0.1,0.4,0.2,0.8,0.2,1.1C39.1,31.1,39.2,31.1,39.2,31 M42.8,20.7c1.1-0.5,2.3-0.6,3.5-0.4c0.4,0.1,0.8,0.2,1.2,0.3
				c0.3,0.1,0.3,0.3,0.2,0.5c-0.2,0.5-0.3,0.8-0.8,0.9c-0.3,0.1-0.5,0.1-0.6,0.5c-0.1,0.1-0.1,0.1-0.2,0.1c-0.6,0.1-1.2,0.6-1.7,0.9
				C43.6,23.8,42.8,24,42,24c0.3,0.7-0.2,2.2-0.2,2.8c0,0.1-0.1,0.2,0,0.3c0.1,0.2,0.1,0.4,0.1,0.6c0,0.7-0.1,1.3-0.1,2
				c0,0.4,0.1,0.8,0.2,1.3c0.1,0.2,0.3,0.3,0.5,0.6c-0.1,0.3,0.2,0.6,0.3,1c0.2,0.3,0.5,0.7,0.8,1c0.4,0.6,1,0.9,1.6,1.2
				c0.6,0.2,1.3-0.1,1.6-0.8c0.1-0.1,0.1-0.2,0.2-0.3c0.2,0.3,0.3,0.8,0.2,1.1c-0.2,0.5-0.5,0.9-0.8,1.4c-0.3,0.6-0.7,1-1.3,1.2
				c-0.1,0-0.2,0.1-0.2,0.1c-1.3,0.6-2.4,0.3-3.5-0.4c-0.5-0.3-0.9-0.5-1.3-0.9c-0.2-0.2-0.4-0.5-0.6-0.6c-0.1-0.1-0.1-0.3-0.1-0.5
				c0.1-0.1,0.1-0.1,0.1-0.1c0.5,0.5,0.9,0.8,1.4,1.3c0-0.2,0.1-0.3,0-0.5c-0.4-1-0.9-2-1.3-3c-0.2-0.6-0.5-1.2-0.8-1.8
				c-0.4-0.9-0.4-2-0.4-2.9c-0.1-0.7,0-2.3-0.2-2.9c-0.1-0.1-0.1-0.2-0.1-0.3c0.1-0.9,0.1-1.8,0.2-2.8c0.1-0.5,0.2-0.9,0.3-1.4
				c0.2-0.9,0.2-1.7,0.5-2.6c0.2-1.1,0.5-2.1,0.8-3.2c0.2-1.1,0.6-2.1,1-3.1c0.1-0.2,0.2-0.4,0.5-0.4c0.5-0.1,0.9-0.3,1.4,0.1
				c0.2,0.1,0.5,0.2,0.8,0.4s0.5,0.6,0.5,1c-0.1,0.5-0.2,1.1-0.4,1.6c-0.1,0.7-0.3,1.4-0.4,2c-0.2,1.4-0.5,2.8-0.8,4.1
				c-0.1,0.1-0.1,0.2-0.1,0.4C42.4,20.8,42.5,20.8,42.8,20.7"/>
		</g>
	</g>
</g>
</svg>
