<svg viewBox="0 0 60 53" xmlns="http://www.w3.org/2000/svg"><g fill="#fff" opacity=".6"><path d="m40.7 46.5-.6.2c1.8-.6 3.6-1.5 5.3-2.7-.2.2-.5.3-.8.4-.2.1-.5.2-.8.3-.5.2-1 .4-1.6.6-.5.2-1 .3-1.6.5-.3.1-.5.1-.8.2l-.4.1-.4.1c-2.1.5-4.2.9-5.9 1.7-.1-.1-.2-.2-.3-.3-.2-.1-.3-.2-.6-.3-.5-.2-1-.3-1.6-.5s-1.1-.3-1.5-.4-.7-.1-.8-.1c-.9 0-1.8-.1-2.8-.2.6.1 1.3.2 1.9.2-.6-.1-1.3-.2-1.9-.2-2.9-.5-6-1.6-8.8-3.2-1.3-.9-2.7-1.8-3.9-2.9-.6-.5-1.2-1.2-1.7-1.7-.3-.3-.5-.6-.8-.9v-.4c-.1-.2-.2-.3-.3-.5s-.2-.4-.4-.6c-.1-.1-.2-.2-.2-.3-.1-.1-.1-.2-.2-.4-.2-.5-.6-1.1-.8-1.7-.1-.2-.1-.3-.2-.5s-.2-.4-.3-.6c-.1-.4-.2-.8-.3-1.2s-.2-.8-.3-1.3c-.1-.4-.2-.9-.3-1.3-.3-1.7-.6-3.5-.7-5-.1-1.6-.1-2.8 0-3.8.1-.5.1-1 .1-1.6-.1.9-.1.9-.2 1.8-.2-2.1-.2-4.1.2-6-.2.3-.3.3-.8 1 0 0 .1-.2.2-.5.1-.1.1-.2.1-.3.1 0 .1-.1.1-.1-.1-.5.1-1.2.3-1.9.1-.2.1-.3.2-.5s.2-.3.2-.5c.2-.2.3-.5.5-.7 0 .1.1.1.3-.1.1-.1.2-.2.3-.3s.2-.2.3-.4l-.2.2c.9-.9 2-1.8 3.1-2.5 1.2-.7 2.4-1.3 3.6-1.6.3-.1.6-.1.8-.1 0 0 .1-.1.3-.1.2-.1.5-.2.8-.2.6-.2 1.2-.3 1.2-.3-.1.3 2 0 .9.3 1.7-.5 3.5-.4 5.3-.7 3.1.1 6.3.4 9.5.9 1.6.2 3.2.5 4.8.9 1.6.3 3.2.6 4.8.9l-.1-.1c1.2.2 2.2.3 3.3.6s2.3.6 3.5 1.2c1 .2 2.1.7 3.1 1.2s1.8 1 2.3 1.1c.9.9 1.4 1.6 1.9 2.4s.9 1.6 1 2.9c.1-.3.3.3.3.9 0 .2 0 .3.1.4 0 .1 0 .2.1.2 0 .1.1.1.2-.2.2-.9.2-1.4.2-1.8-.1-.5-.1-.9-.2-1.7l-.1.1c-.5-1.8-1.6-3.5-2.8-4.7-.6-.6-1.3-1.2-2-1.7s-1.4-.9-2.1-1.3c-2.9-1.6-5.9-2.5-8.9-3.3-.5-.1-1-.2-1.6-.3s-1-.2-1.5-.3c-1-.2-2.1-.5-3.1-.7-2.1-.5-4.3-.9-6.5-1.2-2.3-.3-4.8-.4-7.2-.3s-5.2.2-7.2.8c-.5.1-.9.2-1.3.2-.4.1-.8.1-1.3.1-1.8.6-4 1.6-5.9 3.1-1 .7-1.8 1.6-2.6 2.5-.3.4-.7.9-1.1 1.4-.1.3-.3.6-.4.8s-.2.5-.3.8c.1-.1.1-.2.1-.2-.2.6-.5 1.1-.7 1.6s-.4 1-.5 1.5c-.3 1-.6 2-.7 3.1v.6c-.2.2-.3 3.5.3 6.8.5 3.2 1.5 6.3 1.5 6.8 0 .1.1.3.2.6.1.6.2 1.1.4 1.7.1.6.2 1.2.5 1.7l.3.9.3.9c.2.5.5 1 .8 1.6 1.2 2.1 2.6 3.9 4.2 5.3.8.5 1.6 1 2.4 1.3.2.3.4.3.6.5.2.1.5.2.8.5.7.9 1.4 1.4 1.8 1.6s.5.1.1-.3c.4.2.8.4 1.2.6s.8.3 1.2.6l1.2.6s.8.3 1.1.5c.7.2 1.4.4 2.1.6.6.2.9.3 1.2.6 1.6.3 1 .4 2.7.9.1.1.4.2.8.2.4.1 1 .1 1.5.1.5.1 1.1.1 1.5.1s.8 0 .9.1h-.6c.5.1.9.1 1.3.2s.8.2 1.2.2c.4.1.8.1 1.3.2.4.1.9.1 1.4.1 2.7-.1 5.7-.7 8.3-1.8 2.7-1.2 5-2.9 6.8-4.8-.2-.2-.8.9-1 .7 2.3-2.1 4.2-4.6 5.4-7.4.1-.1.2-.2.2-.3.1-.1.1-.2.2-.3.1-.2.3-.5.3-.6.2-.5.2-.6.2-.7s0-.2.1-.5h.3c.1-1 .6-1.3.8-2.2-.1-.1 0-.4.1-.7.2.1.2-1 .5-.9.1-.2.1-.3.2-.5 0-.2.1-1.2.1-2.1.1-1 .1-2 .1-2.1l.1-.2c.1-.5-.1-.8-.1-.5l.1-.6v.1l.1-.6c.1-.1.2-.2.2 0 0-.3 0-.8.1-1.1-.3.9-.8 2.1-1.3 3.1 0-.5.3-1.2.3-1.6.3-.5.6-1.6.9-2.5 0-.2-.2-.4-.1-.8.2-.2.1-.5.3-.9.1.5-.1.9-.2 1.3.2-.1.3-1 .5-1.3-.1-.2.1-1 .1-1.6.2.2.2-.4.3-.7s0-.6-.1-.5c-.1-.1-.2.3-.2.6-.1.3-.1.6-.2.3.1-.1.1-.8.2-1.2-.1 0-.1.2-.2 0 .1-.4-.1-.9.1-1.1.1.1 0 .2 0 .4 0-.3.2.5.3 1.2.2.8.2 1.4.2 1.1-.1.1-.1-.1-.1-.4-.1-.3-.1-.7-.2-1.1-.1-.8-.2-1.5-.2-1.3-.1.3-.2-.2-.3.1l.1.4c-.1.5-.3.6-.4.5.1-.4.2.2.3.8.2.6.3 1.2.2.9l-.1-.2c-.1-.3-.1-1 .1-1.3-.1 0-.1-.4-.2-.8v-.1c-.1-.3.1-.8-.2-.6-.1 1-.3.6-.7.3-.3-.3-.6-.7-.8.2.3-.8.3.3.2 1.1-.1.1-.3.4-.4 1-.1.5.1.3.1.4-.1.3-.2.8-.3.7.1.4-.2.6-.2 1s.1 0 .1.3c-.1.6-.3 1.4-.4 1.9-.2.2-.5.7-.6.2.2-.9.3.4.4-.5-.4.3.1-.9-.2-1.1-.2.3-.3.9-.3 1.4l.1-.1c-.1.5-.2 1.4-.4 1.8-.1-.1-.2.1-.2-.3l-.1.3c-.1.2-.1.3-.1.3 0 .1.1.2.1 0 0 .3-.1.6-.2.8-.1 0-.1.9-.2 1.7s-.1 1.6-.2 1.6c-.1.5-.3.5-.3 1 .1.1.6-4.3.5-3.7-.1.2-.2 1.4-.5 2.7-.2 1.3-.4 2.5-.5 2.7-.1.3-.2.7 0 .7-.2.5-.2-.2-.4.1 0 0 .1 0 0 .1l-.2.3c-.1.9-.7 2-.8 2.9 0-.3-.1-.6-.1-1.3l.1-.1c0-.1.1-.5 0-.6-.3.5-.4.9-.5 1.5-.1.1-.2.2-.2.2h.1c-.1.1-.2.1-.2.1s0 0 0-.1c-.2.1-.4.6-.6 1.2s-.5 1.2-.8 1.6c-.1.3.1.1-.1.4-.3.3-.6.7-.9 1s-.6.6-1 1c-.1.3-.1.4.3.2l-.1.1c-.1.1-.1.1-.2.2-.2.1-.3.3-.3.3.2-.8-1.3.8-1-.1-.2.1-.6.3-.9.7.1.1.1.3-.3.6-.7.3-.5.3-1.1.5-.2 0-.1-.2-.1-.3-.3.3-.6.4-.8.4s-.4 0-.8.2c-.2.2-.6.3-.9.5s-.5.3-.5.5c-.1.2-.1 0-.1-.2"/><path d="m49.6 14.2c-.1-.1-.3-.1-.6-.1h-.4v1h.5c.2 0 .3 0 .5-.1s.3-.2.3-.5c0-.1-.2-.2-.3-.3m-.5-.4c.3 0 .6.1.8.1.3.1.4.3.4.7 0 .2-.1.4-.3.5-.1.1-.2.1-.4.1.2.1.3.1.5.3s.2.3.2.4v.2.2s0 .1 0 .2h-.5s0 0 0-.1v-.1-.2c0-.3-.1-.5-.2-.6s-.3-.1-.5-.1h-.3v1.1h-.5v-2.8zm-1.4-.2c-.4.4-.7.9-.7 1.6 0 .6.2 1.1.6 1.6.4.4.9.6 1.6.6.6 0 1.1-.2 1.6-.6.4-.4.6-.9.6-1.6 0-.6-.2-1.1-.6-1.6-.4-.4-.9-.6-1.6-.6-.6 0-1.1.2-1.5.6m3.3 3.4c-.5.5-1.1.8-1.8.8s-1.3-.2-1.8-.8c-.5-.5-.8-1.1-.8-1.8s.2-1.3.8-1.8c.5-.5 1.1-.8 1.8-.8s1.3.2 1.8.8c.5.5.8 1.1.8 1.8s-.3 1.2-.8 1.8"/><path d="m20.7 28.7c-.1.2-.2.4-.2.6l.1.1c.2-.1.3-.3.3-.5-.1-.1-.1-.1-.2-.2m-1 2.4c.3-.3.8-.6.2-1.4-.1.6-.1.9-.2 1.4m-2.4-9.5c-.1-.1-.1-.1-.2-.1-.1.1-.2.2-.2.3.2.4.3.8.9 1.2zm6.8 3-.7 2.1c-.1.5-.3 1-.5 1.6-.2.7-.5 1.3-.8 2-.2.4-.5.8-.6 1.2-.3.5-.6 2.1-.8 2.7-.2.4-.6.3-.5.8 0 .1.1.3.1.5-.1.1-.1.5-.1.7-.2.6-.3 1-.7 1.7-.4 0-.4-.1-.3.5-.2.1-.5.2-.6.3-.2.1-.9-.1-1.2-.2-.6-.3-1-.5-1.1-1 .2-1.3.9-4.3 1-5.5.1-.8.3-1.5.6-2.3.1-.5.3-1.1.5-1.7.3-.9.3-1.6-.6-2.3.2-.2.3-.3.6-.5-.1-.1-.5-.3-.2-.8.1-.1-.3-.4-.4-.6s-.3-.4-.6-.1c-.1-.5-.3-.9-.5-1.4-.4-1.2-.8-2.3-1.1-3.5-.1-.6-.5-1.2-.7-1.8-.2-.5-.3-1.2-.4-1.7-.2-.5-.3-1.1-.5-1.7.2-.1.6-.1.9-.1l1.6.2c.1 0 .9-.1.9.1.2.8.5 1.3.9 2l.1-.2.1-.1.2.2.3.6c.1.1.1.2.1.2 0 .1 0 .1.1.1h.2c-.1-.1-.1-.1-.1-.1-.1-.1-.1-.2-.1-.3-.1-.1-.2-.5-.2-.6-.1-.2-.2-.2-.4-.4-.1-.1-.1-.2-.1-.3l-.1-.3c-.1-.2-.1-.2-.2-.4-.1-.1-.1-.2-.1-.2 0-.1-.1-.2-.1-.3.1-.2.3-.1.5 0 .1.1.1.2.2.4.2.5.3.8.6 1.2l.5 1.2c0 .1.1.1.1.1.1.1.2.1.2.2.2.4.3.8.5 1.2.2.3.4.7.5 1.1.2.3.5.8.6 1.2.3.5.1 1 .6 1.3.3-.5.5-1.4.7-1.8.1-.5.1-.3-.2-.5.1-.7.2-1.4.6-2 .2-.3.1-.8.3-1.1.4-.8.8-1.6 1.2-2.5l.2-.7c.1-.4.4-.7.8-.6.5.1 1 .3 1.5.5.3.1.4.3.3.7s-.2.8-.3 1.2c-.3.9-.6 1.8-.9 2.8-.1.2 0 .3 0 .6.1.6-.2 1.1-.4 1.7-.3 1.2-.8 2.5-1.2 3.6-.2.1-.2-.2-.2-.3 0-.3-.1-.6 0-1l.2-.6c.1-.2.2-.5.1-.6.1-.2.2-.3.2-.6.1-.2-.1-.2 0-.4 0-.1.2-.1.2-.2l.1-.2h.1c0-.1 0-.1.1-.1 0 .1 0 .1.1.1l.1-.1.1-.2c.1-.1.1-.2.1-.3l.1-.2-.1-.1v-.1-.1h.1v-.1l.2-.2v-.2c0-.1 0-.1-.1-.2l.1-.4.4-1.6c-.2.4-.3.9-.5 1.3l-.2.1c0 .1-.1.1-.1.1s-.1-.1-.1.1c-.1.1-.1.1 0 .1v.2s-.1 0-.1.1v.1h-.1s.1.1.1.2c-.1.1-.1.1-.1.2l-.1.1c.1-.1-.1 0-.1 0h-.1s0 .1-.1.1v.1c.1 0 .1.1.1.1 0 .1 0 .1.1.2v.1c0 .1-.1.1-.1.1v-.2c0 .1 0 .1-.1.1s-.1 0-.1.1c0 0 0 .1-.1.1s0-.2 0-.2l.1.1c0 .1 0 .1-.1.2l-.1.1.1.1c-.1.1-.1.2-.1.2-.1.2-.1.5-.2.8-.1.2-.1.4-.1.6v.1c0 .1-.1.1-.1.1 0 .2-.1.3-.1.5s-.1.4-.2.6-.2.6-.3.9c-.1 0-.2.2-.2.3-.1.1-.1.3-.1.5.1.5-.2.8-.5 1.3-.2.4-.3 1.1-.1 1.4-.1.3-.4 1.4-.3 1.4.1-.2.2-.7.3-1s.2-.7.3-1l.7-1.7.4-.6z"/><path d="m36.1 26.8c-.1-.7.2-1.5-.2-2.1 0 1.4.1 2.9.1 4.3.2-.8.2-1.5.1-2.2m-1 8.3c0-.1-.1-.1 0 0 0-.3 0-.4.1-.7.1.1.1.1.2.1 0 .2-.1.4-.3.6m-5-.5c-.6-.8-.9-1.8-1.2-2.9-.1 1.2.4 2.3.7 3.3.1.2.3.4.5.5.3.1.6.1.6-.3.3.2.5.1.7-.2.4-.6.9-1.3 1.1-1.9.7-2 .8-4.1.7-6.2-.1-1.7-.3-3.2-.9-4.7-.1-.1-.1-.2-.2-.4-.6 1.3-1.3 2.3-1.8 3.5-.1.2-.2.5-.2.8-.1.5-.2 1.1-.4 1.7-.1.1-.1.2-.1.4-.1.8-.1 1.7-.1 2.4.1 1.7.1 3.4 1.2 4.7-.2-.4-.5-.6-.6-.7m3.6 2.4c-.5.6-1.1.8-1.7 1-.2.1-.4 0-.5-.1-.6-.3-.6-.3-1.2.1-.5-.2-1.1-.4-1.7-.6-.8-.3-1.3-1-1.7-1.7-.8-1.3-1-2.7-1.1-4.2-.1-2 .1-3.9.5-5.9 0-.1.1-.2.1-.3.5-.8.6-1.7 1-2.5.9-1.7 2.1-3.2 4.1-3.6.8-.2 1.6.1 2.3.1.4.8 1.3 1.1 1.6 2 .3 1.2.9 2.3 1.1 3.5s.2 2.4-.1 3.6c-.3 1.6-.8 3.2-1.2 4.8-.2.8-.5 1.5-.8 2.3-.1.2-.1.5-.1.9-.1-.1-.4.2-.6.6"/><path d="m39.1 29.4c0-.3.1-.5-.2-.8 0 .5 0 .5.2.8m.1 1.6c.1-.4-.1-.7-.4-1 .1.4.2.8.2 1.1.1 0 .2 0 .2-.1m3.6-10.3c1.1-.5 2.3-.6 3.5-.4.4.1.8.2 1.2.3.3.1.3.3.2.5-.2.5-.3.8-.8.9-.3.1-.5.1-.6.5-.1.1-.1.1-.2.1-.6.1-1.2.6-1.7.9-.8.3-1.6.5-2.4.5.3.7-.2 2.2-.2 2.8 0 .1-.1.2 0 .3.1.2.1.4.1.6 0 .7-.1 1.3-.1 2 0 .4.1.8.2 1.3.1.2.3.3.5.6-.1.3.2.6.3 1 .2.3.5.7.8 1 .4.6 1 .9 1.6 1.2.6.2 1.3-.1 1.6-.8.1-.1.1-.2.2-.3.2.3.3.8.2 1.1-.2.5-.5.9-.8 1.4-.3.6-.7 1-1.3 1.2-.1 0-.2.1-.2.1-1.3.6-2.4.3-3.5-.4-.5-.3-.9-.5-1.3-.9-.2-.2-.4-.5-.6-.6-.1-.1-.1-.3-.1-.5.1-.1.1-.1.1-.1.5.5.9.8 1.4 1.3 0-.2.1-.3 0-.5-.4-1-.9-2-1.3-3-.2-.6-.5-1.2-.8-1.8-.4-.9-.4-2-.4-2.9-.1-.7 0-2.3-.2-2.9-.1-.1-.1-.2-.1-.3.1-.9.1-1.8.2-2.8.1-.5.2-.9.3-1.4.2-.9.2-1.7.5-2.6.2-1.1.5-2.1.8-3.2.2-1.1.6-2.1 1-3.1.1-.2.2-.4.5-.4.5-.1.9-.3 1.4.1.2.1.5.2.8.4s.5.6.5 1c-.1.5-.2 1.1-.4 1.6-.1.7-.3 1.4-.4 2-.2 1.4-.5 2.8-.8 4.1-.1.1-.1.2-.1.4 0-.2.1-.2.4-.3"/></g></svg>