<?xml version="1.0" encoding="utf-8"?>
<!-- Generator: Adobe Illustrator 21.0.0, SVG Export Plug-In . SVG Version: 6.00 Build 0)  -->
<svg version="1.1" id="Layer_2" xmlns="http://www.w3.org/2000/svg" xmlns:xlink="http://www.w3.org/1999/xlink" x="0px" y="0px"
	 viewBox="0 0 14.6 14.8" style="enable-background:new 0 0 14.6 14.8;" xml:space="preserve">
<style type="text/css">
	.st0{fill:#FFFFFF;}
</style>
<g>
	<path class="st0" d="M1.5,3.4L1.5,3.4L1.5,3.4z"/>
	<path class="st0" d="M14.3,7.4l-0.1,0.1V7.4c-0.1,0-0.1,0-0.1,0l0,0c0-0.1,0-0.2,0-0.4c0,0,0,0.1,0.1,0.1c0,0.1,0,0.1-0.1,0.1
		c0,0,0,0.1,0.1,0.1c0.1-0.1,0.1-0.2,0-0.3h0.1c-0.1,0-0.2-0.1-0.3-0.1c0-0.1,0-0.1,0-0.2c0,0,0,0,0.1,0.1V6.7c0,0.1-0.1,0-0.1,0
		c0-0.1,0-0.1,0-0.1l0,0v0.1c0.1-0.1,0-0.2-0.1-0.4l0,0c0,0,0,0-0.1,0V6.2c0,0,0,0,0.1,0c0,0,0,0,0-0.1L14,6.2L13.9,6H14
		c0.1-0.1,0,0,0-0.2l0,0V5.7h0.1c0-0.2-0.2-0.3-0.1-0.4l0,0c-0.1-0.2-0.1,0-0.3-0.2C13.8,5,13.8,5,13.9,4.9h-0.1V4.8
		c-0.1-0.1,0,0-0.1,0c0-0.1,0-0.2-0.1-0.2c-0.1-0.1-0.1-0.1,0-0.2c-0.1,0,0,0.1-0.1,0c0.1-0.1-0.1-0.1-0.1-0.3c0.1,0,0.1,0.1,0.1,0
		c-0.1,0-0.1-0.1-0.1-0.1c0-0.1,0-0.1-0.1-0.2c-0.1,0.1-0.2-0.2-0.3-0.3c0.1,0-0.1-0.3-0.2-0.5c-0.1,0-0.2-0.1-0.3-0.2
		c0.1-0.1,0.1-0.1,0.2,0l-0.1-0.1c-0.1,0-0.1,0-0.1-0.1h0.1c-0.1-0.1-0.3-0.2-0.4-0.4c-0.1,0.1-0.1,0.2-0.2,0.2
		c0-0.1,0.1-0.1,0.1-0.1S12,2.3,12,2.2h0.1C12,2.1,12,2.2,12,2.1C12.1,2,12,2,12,2s0,0.1,0.1,0.1C12,2.2,12,2.1,12,2
		c0,0-0.1,0.1-0.1,0c-0.1-0.1,0-0.1,0-0.2c-0.1,0-0.1-0.1-0.2,0V1.7c-0.1,0-0.2-0.1-0.3-0.1v0.1c0,0,0,0-0.1,0l0,0l0,0l0,0
		c-0.1,0-0.1-0.1-0.2-0.1C11,1.5,11,1.5,10.9,1.5c-0.1-0.1-0.2-0.2-0.3-0.2l0,0c-0.2-0.1-0.3-0.1-0.5-0.1C10,1.2,10,1.1,10,1.1
		c-0.1,0-0.1,0-0.3-0.1c0.1,0,0-0.1,0.1,0c0.1-0.3,0.1-0.3-0.1-0.3c0.1-0.1-0.1-0.1-0.2-0.1l0.1,0.1c-0.1,0-0.2-0.1-0.2-0.1l0.1-0.1
		C9.3,0.4,9.1,0.4,9,0.4c-0.2,0-0.3,0-0.4-0.1C8.5,0.4,8.8,0.4,8.7,0.5C8.6,0.4,8.4,0.3,8.4,0.3C8.2,0.2,8.2,0.4,8,0.3
		c0,0.1,0,0.1-0.1,0.2c-0.1,0-0.2-0.2-0.1-0.2h0.1C8,0.3,8,0.3,8,0.2l0,0c-0.2,0-0.4,0-0.4,0c-0.1,0-0.1,0.1,0,0.1
		c-0.2,0-0.2,0-0.4,0c0,0,0.1,0.1,0,0.1c-0.3,0-0.1,0.1-0.3,0.1c-0.1-0.1,0-0.1-0.2-0.1c-0.1,0,0-0.1,0-0.1c-0.1,0-0.1,0-0.1,0
		c-0.1,0-0.1,0-0.1,0c-0.1,0-0.2,0-0.2,0l0.1-0.1c-0.1,0-0.1,0.1-0.2,0.1l0.1,0.1c-0.1,0-0.1,0-0.1,0c-0.1,0.1,0.1,0.1,0,0.2
		C6.1,0.6,6,0.7,6,0.6c0.2,0-0.1-0.1,0.1-0.1H6l0,0c-0.2,0-0.1,0.1-0.3,0.2c0-0.1-0.1-0.1-0.1-0.1c0.1,0,0.1,0.1,0,0.1
		c-0.2,0-0.1,0.1-0.2,0.1h0.1c0,0.1-0.1,0.1-0.2,0.1c0,0,0.1-0.1,0-0.1c-0.1,0-0.3-0.1-0.4,0c-0.1,0,0-0.1-0.1-0.1
		c-0.1,0.1-0.2,0-0.4,0.1c0.1,0,0.1,0,0,0.1l0.2-0.2L4.5,0.9c0.1-0.1,0.2-0.1,0.2-0.1c-0.1,0.1-0.1,0.1,0,0.1
		c-0.2,0-0.2,0.2-0.4,0.2L4.2,0.9C4.1,0.9,4,1,3.9,1.1c0,0.1-0.1,0.1-0.3,0.2h0.1c0,0.1-0.1,0.1-0.2,0.2c0-0.1-0.1-0.1-0.1-0.1
		S3.2,1.5,3.3,1.6H3.1C2.9,1.8,3,2,2.8,2.1c0-0.1-0.1-0.1,0-0.2C2.7,1.9,2.7,2,2.7,2S2.6,2.2,2.5,2.2v0.1l0,0c0,0-0.1,0.1,0,0.1
		c-0.1,0-0.2,0.1-0.4,0.2C2.1,2.7,2,2.7,2,2.7s0,0-0.1,0.1c0,0.1,0,0.2-0.1,0.2C1.7,3.1,1.6,3.3,1.5,3.4l0,0
		C1.4,3.5,1.6,3.6,1.4,3.8c-0.1,0.1,0-0.1-0.1-0.1C1.2,3.6,1.3,3.9,1.1,4V3.9C1,4,1,4.2,0.9,4.4l0,0c0,0.2,0,0.4-0.1,0.6
		c-0.1-0.1,0-0.1-0.1-0.1c0,0.1,0.1,0,0.1,0.2c-0.1,0-0.1,0.1-0.2,0.1c0-0.1,0-0.1,0.1-0.2C0.6,5,0.6,5.1,0.6,5.1v0.1H0.5
		c-0.1,0.2,0.1,0.3,0,0.5h0.1C0.7,6,0.5,5.9,0.5,6H0.4c0,0.1,0.1,0.4,0.1,0.5c-0.1,0-0.1-0.2-0.2-0.4c0,0.1,0,0.3,0,0.4
		c0-0.1,0-0.1,0-0.1c0.1,0.1,0.1,0.3,0.1,0.5C0.3,6.8,0.3,7,0.3,7.1s0,0.3-0.1,0.4C0.3,7.6,0.3,7.8,0.3,8s0,0.4,0.1,0.6
		c0.2-0.2,0,0.1,0.2,0.1c0,0.1,0.1,0.1,0,0.1l0,0h0.1c0,0.1-0.1,0.1-0.1,0.1v0.2C0.5,9.1,0.4,9,0.4,9c0,0.2-0.1,0.1-0.1,0.2
		c0.1-0.1,0.1,0.1,0.1,0.2l0.1-0.2c0.1,0.1,0.1,0.2,0.1,0.2c0,0.1,0,0.1,0.1,0.2L0.5,9.7c0,0.1,0.1,0.2,0.1,0.3
		c0.1,0.1,0.2,0.2,0.2,0.2s0,0.1-0.1,0c0.1,0.2,0.2,0.3,0.3,0.5c0.1,0.1,0.2,0.3,0.2,0.4h0.1c0.1,0.1,0.1,0.1,0.1,0.1s-0.1,0,0,0
		c0,0,0.2,0.1,0.2,0.2H1.5c0.1,0.1,0.2,0.2,0.3,0.3C1.9,11.8,2,11.9,2.1,12c-0.1,0.1,0.1,0.3,0.1,0.4l0,0c0.1,0.1,0.3,0.2,0.4,0.3
		c0.1,0.1,0.3,0.1,0.5,0.2c0,0.1,0.1,0.1,0.1,0.2c0.1,0.1,0.2,0.1,0.2,0.2c0.2,0.1,0.4,0.2,0.5,0.4c0-0.1,0.1-0.1,0.1-0.1
		c0.1,0.1,0.2,0,0.2,0.1l0,0c0,0.1,0.2,0.2,0.3,0.2l0.1-0.1C4.8,14,5,14.1,5.2,14.1s0.4,0.1,0.5,0.2c0.1,0,0.2,0,0.3,0v0.1
		c0.1,0,0.2,0.1,0.3,0.1c0.1,0,0.2,0.1,0.4,0l-0.1,0.1c0.2,0,0.2-0.2,0.4-0.2l0,0c0.3,0,0.6,0.1,0.9,0c0,0,0,0.1-0.1,0.1
		c0.1,0,0.5,0,0.5-0.1c0,0.1,0.3,0,0.4-0.1v0.1C8.8,14.1,8.8,14.1,9,14c0.1,0,0.1,0.1,0,0.1c0.2,0,0.1-0.1,0.3-0.1H9.2
		c0.1,0,0.1-0.1,0.2-0.1c0.1-0.1,0.3-0.1,0.3,0c0-0.1,0.1-0.1,0.1-0.1v0.1c0.1,0,0.1,0,0.2-0.1c0.1,0,0.1-0.1,0.1-0.1
		c0.1-0.1,0.1-0.1,0.2-0.1c0,0,0,0,0.1,0c-0.2,0.1-0.3,0.1-0.3,0.1c0,0.1,0.2,0,0.1,0.2c0.1-0.1,0.2-0.3,0.4-0.4l0,0l0,0
		c0,0,0.1,0,0.1-0.1c0.1,0,0.1,0,0.1-0.1c0,0,0,0,0.1,0l0,0c0,0,0.1,0,0.1-0.1c0,0,0,0,0,0.1c0.1,0,0.1-0.1,0.1-0.1
		c-0.1-0.1,0.1-0.1-0.1-0.1c0,0,0,0-0.1,0.1l0,0l0,0c0,0-0.1,0.1-0.2,0.1c0-0.1,0.1-0.1,0.2-0.1c0-0.1,0-0.1,0-0.2
		c0.2,0.1,0.4,0,0.4,0c0.1-0.1,0.2-0.2,0.3-0.3s0.1-0.1,0.1-0.1c0-0.1,0.1-0.1,0.1-0.2c0-0.1,0.1,0,0.1,0l-0.1,0.1
		c0.1-0.1,0.3-0.3,0.2-0.4c0.2-0.1,0,0.1,0.2,0v0.1c0.2-0.1,0.3-0.3,0.4-0.5c0.1-0.2,0.1-0.4,0.3-0.5l0,0c0.1-0.1,0.2-0.2,0.3-0.4
		c0.1-0.1,0.2-0.2,0.2-0.4c0.1-0.1,0.1-0.3,0.2-0.4c0.1-0.1,0.1-0.2,0.2-0.4c0.1-0.1,0-0.2,0-0.3h0.1c0-0.1-0.1-0.1-0.1-0.2
		c0-0.1,0.1-0.2,0.1-0.3S14,8.7,14,8.6c0-0.1,0-0.1,0-0.2h-0.1c0-0.1,0-0.4,0.1-0.3c0,0-0.1-0.1,0-0.1h0.1c0-0.1,0-0.2-0.1-0.3
		C14.1,7.5,14.2,7.8,14.3,7.4C14.6,7.6,14.4,7.4,14.3,7.4z M10.4,5.2L7.3,7.8L4.1,5.2H10.4z M3.9,9.1V5.4l2.3,1.9L3.9,9.1z M4,9.4
		l2.4-1.9l0.8,0.7L8,7.5l2.4,1.9H4z M10.7,9.1L8.4,7.3l2.3-1.9V9.1z"/>
</g>
</svg>
