<?xml version="1.0" encoding="utf-8"?>
<!-- Generator: Adobe Illustrator 21.0.0, SVG Export Plug-In . SVG Version: 6.00 Build 0)  -->
<svg version="1.1" id="Layer_2" xmlns="http://www.w3.org/2000/svg" xmlns:xlink="http://www.w3.org/1999/xlink" x="0px" y="0px"
	 viewBox="0 0 14.6 14.8" style="enable-background:new 0 0 14.6 14.8;" xml:space="preserve">
<style type="text/css">
	.st0{fill:#FFFFFF;}
</style>
<g>
	<path class="st0" d="M6.8,7.4C6.9,7.4,6.9,7.4,6.8,7.4C6.9,7.4,6.9,7.4,6.8,7.4z"/>
	<path class="st0" d="M4.5,7.3C4.6,7.4,4.6,7.3,4.5,7.3C4.6,7.4,4.6,7.4,4.5,7.3C4.6,7.4,4.6,7.3,4.5,7.3z"/>
	<path class="st0" d="M14.3,7.4c-0.2,0-0.2,0-0.2,0c0-0.1,0-0.1,0-0.2s0-0.1,0-0.2c0,0,0,0.1,0.1,0.1c0,0.1,0,0.1-0.1,0.1
		C14.1,7.2,14.1,7.3,14.3,7.4c0-0.2,0-0.3-0.1-0.4h0.1c-0.2,0-0.2-0.1-0.3-0.1c0-0.1,0-0.1,0-0.2c0.1-0.1,0-0.2-0.1-0.4
		c0,0,0,0-0.1,0V6.2c0,0,0,0,0.1,0c0,0,0,0,0-0.1L14,6.2L13.9,6H14c0-0.1-0.1,0,0-0.2l-0.1-0.1H14c0-0.2-0.2-0.3-0.1-0.4
		c-0.1-0.2-0.1,0-0.3-0.2C13.7,5,13.7,5,13.8,4.9h-0.1V4.8c-0.1-0.1,0,0-0.1,0c0-0.1,0-0.2-0.1-0.2c-0.1-0.1-0.1-0.1,0-0.2
		c-0.1,0,0,0.1-0.1,0c0.1-0.1,0-0.1,0-0.2c-0.1-0.1-0.1-0.1-0.1-0.1c-0.1-0.1-0.1-0.2-0.1-0.2c0.1,0,0.1,0.1,0.1,0.1s0,0.1,0.1,0.1
		l0.1,0.1V4.1c0.1,0,0.1,0.1,0.1,0c-0.1,0-0.1-0.1-0.1-0.1c0-0.1,0-0.1-0.1-0.2c-0.1,0.1-0.2-0.2-0.3-0.3c0.1,0-0.1-0.3-0.2-0.5
		c-0.1,0-0.2-0.1-0.3-0.2c0.1-0.1,0.1-0.1,0.2,0l-0.1-0.1c-0.1,0-0.1,0-0.1-0.1h0.1c-0.1-0.1-0.3-0.2-0.4-0.4
		c-0.1,0.1-0.1,0.2-0.2,0.2c-0.1,0-0.1,0-0.1,0s-0.1,0-0.1-0.1H12c0,0,0,0,0.1,0c0,0,0,0-0.1-0.1S11.9,2.1,11.9,2c0,0-0.1,0.1-0.1,0
		c-0.1-0.1,0-0.1,0-0.2c-0.1,0-0.1-0.1-0.2,0V1.7c-0.1,0-0.2-0.1-0.3-0.1v0.1c0,0,0,0-0.1,0S11.1,1.6,11,1.6c0.1-0.1,0-0.1,0-0.2
		c-0.1-0.1-0.2-0.2-0.3-0.2C10.5,1.1,10.4,1,10.2,1c-0.1,0-0.1-0.1-0.1-0.1c-0.1,0-0.1,0-0.3-0.1c0.1,0,0-0.1,0.1,0
		c0-0.1-0.1-0.1-0.2-0.1c0.1-0.1-0.1-0.1-0.2-0.1l0.1,0.1c-0.1,0-0.2-0.1-0.2-0.1l0.1-0.1C9.3,0.4,9.1,0.4,9,0.4
		c-0.2,0-0.3,0-0.4-0.1C8.5,0.4,8.8,0.4,8.7,0.5C8.6,0.4,8.4,0.2,8.4,0.2C8.2,0.2,8.2,0.4,8,0.3c0,0.1,0,0.1-0.1,0.2
		c-0.1,0-0.2-0.2-0.1-0.2h0.1C8,0.3,8,0.3,8,0.2c-0.2,0-0.4,0-0.4,0c-0.1,0-0.1,0.1,0,0.1c-0.2,0-0.2,0-0.4,0c0,0,0.1,0.1,0,0.1
		c-0.3,0-0.1,0.1-0.3,0.1c-0.1-0.1,0-0.1-0.2-0.1c-0.1,0,0-0.1,0-0.1c-0.1,0-0.1,0-0.1,0c-0.1,0-0.1,0-0.1,0c-0.1,0-0.2,0-0.2,0
		l0.1-0.1c-0.1,0-0.1,0.1-0.2,0.1l0.1,0.1c-0.1,0-0.1,0-0.1,0c-0.1,0.1,0.1,0.1,0,0.2C6.1,0.6,6,0.7,6,0.6c0.2,0-0.1-0.1,0.1-0.1H6
		c-0.2,0-0.1,0.1-0.3,0.2c0,0,0,0-0.1,0c-0.2,0-0.1,0.1-0.2,0.1h0.1c0,0.1-0.1,0.1-0.2,0.1c0,0,0.1-0.1,0-0.1S5,0.7,4.9,0.8
		c-0.1,0,0-0.1-0.1-0.1c-0.1,0.1-0.1,0-0.2,0.1L4.5,0.9c0.1-0.1,0.2-0.1,0.2-0.1c-0.1,0.1-0.1,0.1,0,0.1C4.5,0.8,4.5,1.1,4.3,1.1
		L4.2,0.9C4.1,0.9,4,1,4,1.1S3.8,1.2,3.7,1.3h0.1c0,0.1-0.1,0.1-0.2,0.2c0-0.1-0.1-0.1-0.1-0.1S3.3,1.5,3.4,1.6H3.2
		C2.9,1.7,3,1.9,2.8,2.1c0-0.1-0.1-0.1,0-0.2C2.7,1.9,2.7,2,2.7,2S2.6,2.2,2.5,2.2v0.1c0,0-0.1,0.1,0,0.1c-0.1,0-0.2,0.1-0.3,0.2
		c0,0.1-0.1,0.1-0.1,0.1s0,0-0.1,0.1S1.9,3,1.8,3c0,0.1-0.1,0.3-0.2,0.4c-0.2,0.1,0,0.2-0.1,0.4c-0.1,0.1,0-0.1-0.1-0.1
		C1.2,3.6,1.3,3.9,1.1,4V3.9C1,4,1.1,4.2,1,4.4C1,4.6,1,4.8,0.9,5c-0.1-0.1,0-0.1-0.1-0.1c0,0.1,0.1,0,0.1,0.2
		c-0.1,0-0.1,0.1-0.2,0.1H0.6c-0.1,0.2,0.1,0.3,0,0.5h0.1C0.7,6,0.5,5.9,0.6,6H0.5c0,0.1,0.1,0.4,0.1,0.5c-0.2,0-0.2-0.2-0.2-0.4
		c0,0.1,0,0.2,0,0.3c0.1,0.1,0.1,0.3,0.1,0.5C0.4,6.8,0.4,7,0.3,7.1c0,0.1,0,0.3-0.1,0.4C0.3,7.6,0.3,7.8,0.3,8s0,0.4,0.1,0.6
		c0.2-0.2,0,0.1,0.2,0.1c0,0.1,0.1,0.1,0,0.1h0.1c0,0.1-0.1,0.1-0.1,0.1v0.2C0.5,9.2,0.5,9,0.4,9c0,0.2-0.1,0.1-0.1,0.2
		c0.1-0.1,0.1,0.1,0.1,0.2l0.1-0.2c0.1,0.1,0.1,0.2,0.1,0.2c0,0.1,0,0.1,0.1,0.2L0.5,9.7c0,0.1,0.1,0.2,0.1,0.3
		c0.1,0.1,0.2,0.2,0.2,0.2s0,0.1-0.1,0c0.1,0.2,0.2,0.3,0.3,0.5c0.1,0.1,0.2,0.3,0.2,0.4h0.1c0.1,0.1,0.1,0.1,0.1,0.1
		s0.2,0.1,0.2,0.2H1.5c0.1,0.1,0.2,0.2,0.3,0.3C1.9,11.8,2,11.9,2.1,12c-0.1,0.1,0.1,0.3,0.1,0.4c0.1,0.1,0.3,0.2,0.4,0.3
		c0.1,0.1,0.3,0.1,0.5,0.2c0,0.1,0.1,0.1,0.1,0.2c0.1,0.1,0.2,0.1,0.2,0.2c0.2,0.1,0.4,0.2,0.5,0.4c0-0.1,0.1-0.1,0.1-0.1
		c0.1,0.1,0.2,0,0.2,0.1s0.2,0.2,0.3,0.2l0.1-0.1C4.8,14,5,14.1,5.2,14.1s0.4,0.1,0.5,0.2c0.1,0,0.2,0,0.3,0v0.1
		c0.1,0,0.2,0.1,0.3,0.1c0.1,0,0.2,0.1,0.3,0l-0.1,0.1c0.2,0,0.2-0.2,0.4-0.2H7c0.3,0,0.6,0.1,0.9,0c0,0,0,0.1-0.1,0.1
		c0.1,0,0.5,0,0.5-0.1c0,0.1,0.3,0,0.4-0.1v0.1c0.1-0.1,0.1-0.2,0.3-0.2C9,14.1,9,14,9.2,14l-0.1,0.1c0.1,0,0.1-0.1,0.2-0.1
		c0.1-0.1,0.3-0.1,0.3,0c0-0.1,0.1-0.1,0.1-0.1V14c0.1,0,0.1,0,0.2-0.1c0.1,0,0.1-0.1,0.1-0.1c0.1-0.1,0.1-0.1,0.2-0.1
		c0,0,0,0,0.1,0c-0.2,0.1-0.3,0.1-0.3,0.1c0,0.1,0.2,0,0.1,0.2c0.1-0.1,0.2-0.3,0.4-0.4c0,0,0.1,0,0.1-0.1c0.1,0,0.1,0,0.1-0.1
		c0,0,0,0,0.1,0c0,0,0.1,0,0.1-0.1c0,0,0,0,0,0.1c0.1,0,0.1-0.1,0.1-0.1c-0.1-0.1,0.1-0.1-0.1-0.1c0,0,0,0-0.1,0.1
		c0,0-0.1,0.1-0.2,0.1c0-0.1,0.1-0.1,0.2-0.1c0-0.1,0-0.1,0-0.2c0.2,0.1,0.4,0,0.4,0c0.1-0.1,0.2-0.2,0.3-0.3s0.1-0.1,0.1-0.1
		c0-0.1,0.1-0.1,0.1-0.2c0-0.1,0.1,0,0.1,0c0.1-0.1,0.2-0.2,0.1-0.3c0.2-0.1,0,0.1,0.2,0v0.1c0.2-0.1,0.3-0.3,0.4-0.5
		s0.1-0.4,0.3-0.5c0.1-0.1,0.2-0.2,0.3-0.4c0.1-0.1,0.2-0.2,0.2-0.4c0.1-0.1,0.1-0.3,0.2-0.4c0.1-0.1,0.1-0.2,0.2-0.4
		c0.1-0.2,0-0.2,0-0.3h0.1c0-0.1-0.1-0.1-0.1-0.2c0-0.1,0.1-0.2,0.1-0.3s0.1-0.1,0.1-0.2c0-0.1,0-0.1,0-0.2h-0.1
		c0-0.1,0-0.4,0.1-0.3c0,0-0.1-0.1,0-0.1H14c0-0.1,0-0.2,0-0.3c0.1-0.2,0.2,0.1,0.2-0.2C14.5,7.6,14.4,7.4,14.3,7.4z M4.3,7.4
		C4.3,7.3,4.3,7.3,4.3,7.4L4.3,7.4c0.1-0.2,0.2,0,0.2-0.1C4.4,7.2,4.4,7,4.5,7.2c0,0,0,0,0-0.1h0.1C4.7,7.1,4.7,7,4.7,7s0,0,0,0.1
		c0-0.1,0.1,0.1,0.1,0L4.9,7c0,0.1,0,0,0,0.1H5C5,7,5,7.1,5.1,7c0,0,0,0,0.1,0c0,0.1,0,0,0,0.1L5.3,7c0,0,0,0,0.1-0.1
		C5.6,7,5.7,7,5.7,7s0,0,0,0.1C5.8,7.1,5.8,7,5.9,7l0,0H6c0,0.2,0.1-0.1,0.1,0.1c0,0,0.1-0.1,0.1,0c0-0.1,0,0,0-0.1c0,0,0,0,0.1,0
		c0,0,0-0.1,0.1,0c0.1-0.1,0.2,0,0.2-0.1V7c0.1,0.1,0-0.1,0.1-0.1S6.9,7,7,7c0,0,0,0,0-0.1l0,0C7.1,7,7.2,6.9,7.2,7
		c0-0.1,0.1,0.1,0.1,0s0.1,0.1,0.2,0c0.1,0,0.1,0,0.2,0c0,0,0.1,0,0.1,0.1c0-0.1,0,0,0-0.1H8c0,0,0,0,0,0.1h0.1h0.1L8.3,7
		c0,0,0,0.1,0.1,0.1V7c0,0,0,0.1,0.1,0.1c0-0.1,0,0,0.1-0.1c0,0.1,0.1,0,0.2,0.1c0,0.1,0-0.1,0.1-0.1C8.9,7.1,9,7,9,7V6.9
		C9,6.9,9.1,7,9.2,7c0,0,0,0,0,0.1L9.3,7v0.1l0,0c0,0,0-0.1,0.1-0.1c0-0.1,0,0.2,0.1,0.1V7c0,0,0,0,0.1,0c0,0.1,0,0,0,0.1s0,0,0,0.1
		c0,0,0,0,0.1-0.1c-0.1-0.1,0,0,0-0.1c0,0,0,0,0,0.1c0-0.1,0.1,0,0.1-0.1c0,0.1,0.1,0,0,0.1c0.5,0,0.5,0.1,0.4,0.2v0.1
		c0,0.1,0,0.1,0,0.1c-0.1,0,0-0.1,0-0.2l-0.1,0.1C10,7.5,10,7.3,10,7.3v0.1v0.1c-0.1-0.1-0.2,0-0.3,0c-0.1-0.2-0.1,0.2-0.2,0
		c0,0,0,0,0-0.1c0,0.1-0.1,0.1-0.1,0.1V7.4c0,0.1-0.1,0.1-0.1,0.2c0-0.1,0-0.1-0.1-0.2v0.1c0,0,0,0,0,0.1L9.1,7.7c0-0.1,0-0.1,0-0.2
		s0,0.1-0.1,0c0,0-0.1,0.1-0.1,0c0,0.1-0.1,0.1-0.1,0.1c0,0.1-0.1,0-0.1,0V7.4c0,0,0,0.2-0.1,0.2H8.5c0-0.2-0.1,0.1-0.2-0.1v0.1
		c0,0,0,0-0.1-0.1v0.1c0-0.1-0.1,0-0.2-0.1L7.8,7.6c0,0-0.1,0-0.1-0.2c0,0-0.1,0.2-0.1,0.1s-0.1,0.1-0.2,0V7.4
		c0,0.1-0.1,0.1-0.1,0.1c0,0.1,0-0.1-0.1,0v0.1c-0.1,0-0.1-0.1-0.2,0c0-0.1-0.1,0-0.1-0.2L6.8,7.5V7.4l0,0l0,0c0,0-0.1,0.1-0.1,0
		S6.6,7.5,6.6,7.3c0,0,0,0,0-0.1c0,0,0,0.1-0.1,0.1c0,0,0,0-0.1,0c0-0.1-0.1,0-0.1-0.1v0.1c0,0,0,0.1-0.1,0.1V7.3c0,0-0.1,0.1-0.1,0
		c0,0,0,0,0,0.1c0,0,0-0.1-0.1,0V7.3c0,0,0,0-0.1,0c0,0,0,0.1,0,0v0.1l0,0v0.1c0,0,0-0.1-0.1,0V7.4c0,0,0,0-0.1,0c0,0,0,0.1-0.1,0.1
		c0,0,0-0.1-0.1-0.1c0,0.1,0,0,0,0.1c0-0.2-0.1,0.1-0.1,0c0,0,0,0,0-0.1c0,0.1,0,0-0.1,0V7.3c0,0.1,0,0-0.1,0.1c0,0-0.1-0.1-0.1,0
		c0,0,0,0-0.1,0L4.8,7.3c0,0-0.1,0-0.1,0.1c-0.1,0-0.1,0.2-0.1,0.1s0-0.1,0-0.1c-0.1,0.1-0.1,0-0.1,0.1c0-0.1,0,0.1-0.1,0
		c0,0,0,0,0-0.1l0,0V7.3C4.3,7.4,4.3,7.5,4.3,7.4C4.3,7.4,4.3,7.4,4.3,7.4z M10.2,9.3L10.2,9.3C10.2,9.3,10.1,9.4,10.2,9.3
		c-0.1,0.2-0.2,0-0.2,0.1c0,0,0,0,0-0.1s0,0,0-0.1l0,0c0,0.1,0,0-0.1,0.1l0,0c0,0,0,0-0.1,0c-0.2,0-0.3,0.2-0.4,0.1c0,0,0,0,0,0.1
		l0,0c-0.1,0-0.1,0.1-0.1,0.1s0,0,0-0.1c0,0.1-0.1-0.1-0.1,0L9.1,9.6c0-0.1,0,0,0-0.1H9c0,0.1,0,0-0.1,0.1c0,0,0,0-0.1,0
		c0-0.1,0,0,0-0.1L8.7,9.6c0,0,0,0-0.1,0.1c0,0.1-0.1,0-0.1,0s0,0,0-0.1c0,0.1,0,0-0.1,0.1l0,0l0,0l0,0H8.3c0-0.2-0.1,0.1-0.1-0.1
		c0,0-0.1,0.1-0.1,0c0,0.1,0,0,0,0.1c0,0,0,0-0.1,0c0,0,0,0.1-0.1,0c-0.1,0.1-0.1,0-0.2,0.1V9.7c-0.1-0.1,0,0.1-0.1,0.1
		S7.4,9.7,7.3,9.7c0,0,0,0,0,0.1l0,0C7.2,9.5,7.1,9.7,7.1,9.5c0,0.1-0.1-0.1-0.1,0s-0.1-0.1-0.2,0c0,0-0.1,0-0.1,0.1
		c0,0-0.1,0-0.1-0.1c0,0.1,0,0,0,0.1H6.5c0,0,0,0,0-0.1H6.4H6.3H6.1c0,0,0-0.1-0.1-0.1v0.1v0.1c0,0,0-0.1-0.1-0.1c0,0.1,0,0-0.1,0.1
		c0-0.1-0.1,0-0.2-0.1c0-0.1,0,0.1-0.1,0.1c0-0.1-0.1,0-0.1,0v0.1c0,0-0.1-0.1-0.2-0.1c0,0,0,0,0-0.1l0,0.1V9.5l0,0
		c0,0,0,0.1-0.1,0.1c0,0.1,0-0.2-0.1-0.1v0.1c0,0,0,0-0.1,0c0-0.1,0,0,0-0.1s0,0,0-0.1c0,0,0,0-0.1,0.1c0,0.1-0.1,0-0.1,0.1
		s-0.1,0-0.1,0.1c0-0.1-0.1,0,0-0.1V9.5V9.4C4.5,9.3,4.4,9.2,4.3,9.1l0,0c0-0.1,0-0.1,0-0.1s0,0,0,0.1C4.6,9,4.6,9.2,4.6,9.2V9.1
		c0.1,0.1,0.2,0,0.3,0C5,9.3,5,8.9,5.1,9.1c0,0,0,0,0,0.1c0-0.1,0.1-0.1,0.1-0.1v0.1C5.1,9,5.2,9,5.2,9c0,0.1,0,0.1,0.1,0.2V9.1
		c0,0,0,0,0-0.1l0.1-0.1c0,0.1,0,0.1,0,0.2c0,0.1,0-0.1,0.1,0c0,0,0,0,0-0.1c0,0,0.1-0.1,0.1,0c0.1-0.1,0.2,0,0.2,0
		c0-0.1,0.1,0,0.1,0v0.1c0,0,0-0.2,0.1-0.2h0.1c0,0.2,0.1-0.1,0.2,0.1V8.9c0,0,0,0,0.1,0.1V8.9c0,0.1,0.1,0,0.2,0.1l0.1-0.1
		c0,0,0.1,0,0.1,0.2c0,0,0.1-0.2,0.1-0.1c0,0.1,0.1-0.1,0.2,0v0.1c0-0.2,0.1-0.2,0.1-0.2C7.3,9,7.3,9,7.3,9c0,0.1,0.1,0,0.1,0.2
		l0.1-0.1v0.1l0,0c0,0,0-0.1,0.1-0.1c0,0.1,0,0.1,0,0.1s0.1,0,0.1-0.1c0,0,0.1-0.1,0.1,0S7.9,9,7.9,9.2c0,0,0,0,0,0.1
		c0,0,0-0.1,0.1-0.1c0,0,0,0,0.1,0c0,0.1,0.1,0,0.1,0.1V9.2c0,0,0-0.1,0.1-0.1v0.1c0,0,0.1-0.1,0.1,0c0,0,0,0,0-0.1c0,0,0,0.1,0.1,0
		v0.1c0,0,0,0,0.1,0c0,0,0-0.1,0,0V9.1l0,0V9c0,0,0,0.1,0.1,0v0.1C8.9,9,8.9,9,8.9,9s0-0.1,0.1-0.1C9,8.9,9,9,9.1,9c0-0.1,0,0,0-0.1
		c0,0.2,0.1-0.1,0.1,0V9c0,0,0,0,0,0.1c0-0.1,0,0,0.1,0v0.1c0-0.1,0,0,0.1-0.1c0,0,0.1,0.1,0.1,0c0,0,0,0,0.1,0v0.1l0.1,0.1
		c0,0,0.1,0,0.1-0.1c0,0,0,0.1,0.1,0c0,0.1,0,0,0.1,0.1c0-0.1,0-0.1,0-0.1V9.1c0,0.1,0-0.1,0.1,0C10.1,9.1,10.1,9.1,10.2,9.3
		L10.2,9.3c0-0.1,0-0.1,0-0.1C10.2,9.3,10.2,9.3,10.2,9.3L10.2,9.3L10.2,9.3C10.3,9.4,10.3,9.4,10.2,9.3C10.2,9.3,10.2,9.2,10.2,9.3
		C10.2,9.4,10.2,9.4,10.2,9.3z M10.3,5.3C10.3,5.4,10.3,5.4,10.3,5.3C10.3,5.3,10.2,5.4,10.3,5.3c-0.1,0.2-0.2,0-0.2,0.1l0,0v0.1
		C10,5.4,10,5.4,10,5.4c0,0.1-0.1,0.1-0.1,0.1s0,0,0,0.1H9.8c-0.1,0-0.1,0.1-0.1,0.1s0,0,0-0.1c0,0.1-0.1-0.1-0.1,0L9.5,5.7
		c0-0.1,0,0,0-0.1H9.4c0,0.1,0,0-0.1,0.1c0,0,0,0-0.1,0c0-0.1,0,0,0-0.1L9.1,5.7c0,0,0,0-0.1,0.1c0,0.1-0.1,0-0.1,0s0,0,0-0.1
		c0,0.1,0,0-0.1,0.1l0,0l0,0l0,0H8.7c0-0.2-0.1,0.1-0.1-0.1c0,0-0.1,0.1-0.1,0c0,0.1,0,0,0,0.1c0,0,0,0-0.1,0c0,0,0,0.1-0.1,0
		c-0.1,0.1-0.1,0-0.2,0.1V5.8C8,5.7,8.1,5.9,8,5.9c-0.1,0-0.2-0.1-0.3-0.1c0,0,0,0,0,0.1l0,0C7.4,5.6,7.3,5.8,7.3,5.6
		c0,0.1-0.1-0.1-0.1,0S7.1,5.5,7,5.6c0,0-0.1,0-0.1,0.1c0,0-0.1,0-0.1-0.1c0,0.1,0,0,0,0.1H6.7c0,0,0,0,0-0.1H6.6H6.5H6.3
		c0,0,0-0.1-0.1-0.1v0.1c0,0,0-0.1-0.1-0.1c0,0.1,0,0-0.1,0.1c0-0.1-0.1,0-0.2-0.1c0-0.1,0,0.1-0.1,0.1c0-0.1-0.1,0-0.1,0v0.1
		c0,0-0.1-0.1-0.2-0.1c0,0,0,0,0-0.1L5.3,5.6V5.5l0,0c0,0,0,0.1-0.1,0.1c0,0.1,0-0.2-0.1-0.1v0.1c0,0,0,0-0.1,0c0-0.1,0,0,0-0.1
		s0,0,0-0.1c0,0,0,0-0.1,0.1c0,0.1-0.1,0-0.1,0.1s-0.1,0-0.1,0.1v0.1C4.3,5.6,4.3,5.5,4.3,5.3c0-0.1,0-0.2,0-0.2
		c0.1,0,0.1,0.1,0.1,0.1l0,0c0.1-0.1,0.1,0.1,0.1,0.1V5.2c0.1,0.1,0.2,0,0.3,0C4.9,5.4,4.9,5,5,5.2c0,0,0,0,0,0.1
		c0-0.1,0.1-0.1,0.1-0.1v0.1c0.1-0.2,0.2-0.2,0.2-0.2c0,0.1,0,0.1,0.1,0.2V5.2c0,0,0,0,0-0.1L5.5,5c0,0.1,0,0.1,0,0.2s0-0.1,0.1,0
		c0,0,0,0,0-0.1c0,0,0.1-0.1,0.1,0C5.8,5,5.9,5,5.9,5C5.9,4.9,6,5,6,5v0.1c0,0,0-0.2,0.1-0.2h0.1c0,0.3,0.1,0.1,0.2,0.3V5
		c0,0,0,0,0.1,0.1V5c0,0.1,0.1,0,0.2,0.1L6.8,5c0,0,0.1,0,0.1,0.2C6.9,5.2,7,5,7,5.1s0.1-0.1,0.2,0v0.1C7.2,5,7.3,5,7.3,5v0.1
		c0.1,0,0.1,0.1,0.2,0c0,0.1,0.1,0,0.1,0.2l0.1-0.1v0.1l0,0c0,0,0-0.1,0.1-0.1c0,0.1,0,0.1,0,0.1s0.1,0,0.1-0.1c0,0,0.1-0.1,0.1,0
		s0.1-0.1,0.1,0.1c0,0,0,0,0,0.1c0,0,0-0.1,0.1-0.1c0,0,0,0,0.1,0c0,0.1,0.1,0,0.1,0.1V5.3c0,0,0-0.1,0.1-0.1v0.1c0,0,0.1-0.1,0.1,0
		c0,0,0,0,0-0.1c0,0,0,0.1,0.1,0v0.1c0,0,0,0,0.1,0c0,0,0-0.1,0,0V5.2l0,0V5.1c0,0,0,0.1,0.1,0v0.1c0,0,0,0,0.1,0c0,0,0-0.1,0.1-0.1
		c0,0,0,0.1,0.1,0.1c0-0.1,0,0,0-0.1c0,0.2,0.1-0.1,0.1,0v0.1c0,0,0,0,0,0.1c0-0.1,0,0,0.1,0v0.1c0-0.1,0,0,0.1-0.1
		c0,0,0.1,0.1,0.1,0c0,0,0,0,0.1,0v0.1l0.1,0.1c0,0,0.1,0,0.1-0.1c0,0,0,0.1,0.1,0l0,0c0,0,0-0.1-0.1-0.1C10,5.3,10,5.1,10,5.2
		s0,0.1,0,0.1c0.1-0.1,0.1,0,0.1-0.1C10.1,5.3,10.1,5.1,10.3,5.3C10.2,5.2,10.2,5.2,10.3,5.3C10.2,5.3,10.2,5.3,10.3,5.3L10.3,5.3
		C10.3,5.3,10.3,5.2,10.3,5.3L10.3,5.3z"/>
	<path class="st0" d="M4.5,7.3L4.5,7.3L4.5,7.3L4.5,7.3z"/>
	<path class="st0" d="M8.5,9.7L8.5,9.7L8.5,9.7C8.5,9.6,8.5,9.6,8.5,9.7C8.5,9.6,8.5,9.6,8.5,9.7z"/>
	<path class="st0" d="M5.8,7.1L5.8,7.1C5.8,7,5.8,7,5.8,7.1z"/>
	<path class="st0" d="M7.5,9.2L7.5,9.2C7.4,9.2,7.5,9.2,7.5,9.2z"/>
	<path class="st0" d="M4.7,7.4L4.7,7.4C4.7,7.4,4.7,7.3,4.7,7.4z"/>
	<path class="st0" d="M6.8,7.4L6.8,7.4L6.8,7.4C6.9,7.3,6.8,7.3,6.8,7.4z"/>
	<path class="st0" d="M7.7,5.3C7.6,5.3,7.6,5.3,7.7,5.3C7.6,5.3,7.6,5.3,7.7,5.3z"/>
	<path class="st0" d="M8.8,5.8L8.8,5.8L8.8,5.8C8.9,5.7,8.9,5.7,8.8,5.8C8.8,5.7,8.8,5.7,8.8,5.8z"/>
	<path class="st0" d="M10.3,9.4L10.3,9.4C10.2,9.4,10.2,9.4,10.3,9.4z"/>
</g>
</svg>
