<svg viewBox="0 0 14.6 14.8" xmlns="http://www.w3.org/2000/svg"><g fill="#fff"><path d="m14 6.8c0 .1 0 .2-.1.3-.1 0 0-.1-.1-.1.1 0 .2 0 .2-.2-.2 0-.1-.1-.2-.1 0 0 .1.1.2.1zm-6.2-6.5c0-.1 0 0 0 0zm-.7-.2c.1 0 .1 0 0 0zm4.2 1.5-.1-.1s0 .1.1.1zm2.3 4.5c.1 0 .1 0 0 0zm-.3-2.3h-.1zm.1 4.9c0-.1 0-.1 0 0zm-7.5-8.5c0-.1 0 0 0 0zm-5.5 8.6c.1-.1.1.2.2 0 0 0-.2-.2-.2 0zm13.2-2.7c0-.1 0-.1 0 0zm-10.2-4.8c-.1 0 0 0 0 0zm-.8.8c-.1 0-.1 0 0 0zm-.8.8s.1 0 0 0zm10.3 8.5h.1s.1-.1-.1 0zm1.5-5.3c.1 0 .1 0 0 0zm-10.6-3.4c-.1 0 0 0 0 0zm-.4.4c-.1 0-.1 0 0 0zm11.7 4.5c0 .3-.2.1-.2.2s.1.2.1.3h-.1c-.1 0 0 .1 0 .1-.1 0-.1.2-.1.3h.1v.2c0 .1-.1.1-.1.2-.1.1-.2.1-.1.3 0 .1.1.1.1.2h-.1c0 .1.1.2 0 .3s-.1.2-.2.4c-.1.1-.1.3-.2.4s-.1.3-.2.4-.2.2-.3.4h.1c-.2.1-.3.3-.4.5s-.2.4-.4.5v-.1c-.2.2 0-.1-.2 0 .1.1-.2.3-.2.4 0 0 0-.1.1-.1 0 0-.1-.1-.1 0s0 .1-.1.2c0 .1-.1.1-.1.1-.1.1-.2.2-.3.3-.1-.1-.3 0-.4 0v.2c-.1 0-.1.1-.2.1.1-.1.1-.1.2-.1.1 0 .1-.1.1-.1.1 0 0 .1.1.1-.1 0-.2.2-.2.1-.1 0-.1 0-.1.1l-.1.1c-.2 0-.3.2-.4.4.1-.2-.1-.1-.1-.2 0 0 .1-.1.3-.1 0 0 0 0-.1 0s-.2.1-.2.1l-.1.1c-.1 0-.1 0-.2.1v-.1c-.1 0-.1.1-.1.1-.1-.1-.2-.1-.3 0s0 .1-.2.1l-.1-.1c-.2 0-.1.1-.3.1.1 0 .1-.1 0-.1-.2.1-.2.1-.3.2v-.1c-.1.1-.4.2-.4.1.1.2-.3.2-.5.1.1 0 .1-.1.1-.1-.3.1-.6.1-.9 0v.1c-.1 0-.2.2-.4.2l.1-.1c-.1 0-.2 0-.3 0s-.2 0-.3-.1v-.1c-.1 0-.2 0-.3 0-.1-.1-.2-.1-.5-.2-.2 0-.4-.1-.6-.3l-.1.3c-.1-.1-.3-.1-.3-.2.1-.1-.1-.1-.2-.1s-.2 0-.1.1c-.1-.1-.3-.2-.5-.4-.1-.1-.2-.1-.2-.2-.1-.1-.1-.1-.1-.2-.2-.1-.3-.1-.5-.2-.1-.1-.3-.2-.4-.3-.1-.2-.3-.4-.2-.5-.1-.1-.2-.1-.3-.2s-.2-.2-.3-.3h.1c0-.1-.2-.2-.2-.2 0-.1-.1-.1-.1-.1h.1c0-.1-.1-.3-.2-.4s-.2-.3-.3-.5c.1.1.1 0 .1 0-.1 0-.2-.1-.2-.2-.2-.2-.3-.3-.3-.4l.1.1c-.1-.2-.1-.2 0-.3 0-.1 0-.1-.1-.2l-.1.1c0-.1-.1-.2-.1-.2 0-.1.1-.1.1-.2.1 0 .1.1.1.1l.1-.3v-.1c-.2 0-.1-.3-.3-.1 0-.2 0-.4-.1-.6 0-.2 0-.3-.1-.5.1-.1.1-.2.1-.4 0-.1 0-.3.2-.2 0-.2 0-.3-.1-.5v.1c-.1-.1 0-.3 0-.4 0 .1.1.3.1.4 0-.2-.1-.4-.1-.5h.1c-.1-.2.1-.1 0-.2h-.1c.1-.2-.1-.3 0-.5h.1v-.1s0-.1.1-.1c0 .1 0 .1-.1.2.1 0 .2-.1.2-.1 0-.2-.1-.1-.1-.2.1 0 .1 0 .1.1 0-.2.1-.4.1-.6.4-.3.3-.5.4-.6v.1c.2-.1.1-.4.3-.3.1-.1-.1.1.1.1.2-.2-.1-.2.1-.4.1-.1.2-.3.2-.4.1-.1.2-.1.2-.1.1-.1.1-.1.1-.2.1-.1.2-.2.3-.2-.1 0 0-.1 0-.1.1-.1 0-.1 0-.1.2-.1.3-.3.3-.3s0-.1.1-.1c-.1.1 0 .1 0 .2.2-.2.1-.3.3-.5h.2c-.1-.1.1-.2.1-.2.1 0 .1 0 .1.1.1-.1.2-.1.2-.2h-.1c.1-.1.2-.1.3-.2s.2-.2.3-.2l.1.2c.2 0 .2-.2.4-.2-.1 0-.1 0 0-.1-.1 0-.1.1-.2.1l.1-.2-.2.2c.1-.1.1-.1 0-.1.2-.1.2 0 .4-.1.1 0 0 .1.1.1.1-.1.3 0 .4-.1.1 0-.1 0 0 .1.1-.1.2-.1.2-.1h-.2c.1 0 .1-.1.2-.1.1-.1.1-.2 0-.1 0 0 .1 0 .1.1.2-.1.1-.2.3-.2h.1c-.2-.1.1 0-.1 0 .1.1.2 0 .2 0 .1-.1 0-.1 0-.2h.1v-.1c.1 0 .1 0 .2-.1l-.1.1h.2.1.1c-.1 0-.1.1 0 .1.2-.1.1 0 .2.1.2 0 0-.1.3-.1v-.1c.2 0 .3 0 .5.1-.1 0-.1-.1 0-.1-.1.1.1.1.2.2.1.1 0 .1-.1.1 0 0 0 0-.1 0s-.1.2.1.2c.2-.2.2-.3.2-.3.2.1.2-.1.4-.1.1 0 .2.2.3.2.1-.1-.2-.1-.1-.2.1.2.2.2.4.2.1 0 .3 0 .4.1v.1c.1 0 .1.1.2.1l-.1-.2c.1 0 .2.1.2.1.2 0 .2 0 .3.1-.2-.1 0 0-.1 0 .1.1.2.1.3.1 0 0 0 .1.1.1s.3.1.5.1c.1.1.2.1.3.2s.1.1.2.1c.1.1.1.1.2.1 0-.1.2.1.3.1v.1c.1-.1.1 0 .2 0 .1.1-.1.1 0 .2h.1c0 .1.1.2.1.2l-.1-.1c-.1 0 0 .1 0 .1-.1.4-.1.2 0 .4h-.1l.1.1c-.1 0-.1 0-.1.1.2.1.2-.1.2-.2.1.2.3.2.4.4h-.1c.1.1.1.1.1.1l.1.1c-.1 0-.1 0-.2 0 .1.1.2.2.3.2.1.2.2.5.2.5.1.1.2.4.3.3 0 .1.1.1.1.2s0 .1.1.1c0 .1 0 0-.1 0 0 .1.2.2.1.3.1.1 0-.1.1 0-.1.1-.1.1 0 .2 0 .1.1.2.1.2.1 0 0-.1.1 0-.1 0 0 .1 0 .1h.1c-.1.1-.1.1-.2.2.2.2.1-.1.3.2-.2 0 0 .1 0 .3 0-.1-.1 0-.1 0l.1.1c-.1.1 0 0 0 .2 0-.1-.1 0-.1 0l.1.1-.1-.1c0 .2.2.4.1.5v-.1s-.1.1 0 .2c0 0 .1.1.1 0v.1c-.1 0-.1-.2-.2-.3.1 0 .1.1.1.1-.1-.1-.1-.2-.2-.3.1 0 .1.1.1.1 0-.1-.1-.1-.1-.2l.1-.1c-.1-.1-.1-.2-.1-.3 0 0 .1.1.1 0-.1-.2-.2-.2-.3-.4-.1-.1-.1-.2-.2-.4 0-.1 0-.2-.1-.3-.1 0 0 .1-.1.1.1 0 0-.1.1-.1-.2-.1-.1-.2-.2-.2v-.1c.1 0 0-.1.2 0-.1 0-.1-.1-.1-.1l-.1-.1c.1-.2 0-.3-.1-.3v.1l-.1-.2c0-.1-.1-.1-.1-.2.1 0 .1.1.1.1 0-.1-.2-.1-.2-.2.1 0 .1.1.1 0-.1-.1-.1-.1-.2-.2-.1-.2-.2.1-.2-.1 0 0-.1 0-.1.1 0-.1-.1-.2.1-.1-.1-.1-.1-.1-.2-.1v.1l-.2-.2h.1c0-.1-.1-.2-.1-.2-.1-.1-.1-.1-.2-.1-.1-.1-.2-.1-.2-.2l-.1-.1-.1-.1c0 .1-.1 0-.1 0-.1-.1-.2-.2-.3-.3h.1c-.3-.1-.5-.2-.6-.3 0 0 0-.1.1-.1-.2 0-.2-.3-.3-.2h.1c-.3-.1-.4-.2-.5-.2-.2 0-.3-.1-.4-.1-.1-.1.1.1.1-.1-.1 0-.2-.1-.3-.1s-.2 0-.3-.1h.1c-.3-.1-.1.1-.3.1 0-.1 0-.1 0-.1v-.1c-.1.1-.3 0-.4.1 0 0 .1-.1 0-.2s-.2 0-.2 0c-.1-.1-.3-.1-.2-.1-.2-.1 0 0-.2.1l.2.1h-.2l.1-.1c-.1-.1-.2 0-.4 0l.1.1c-.1 0-.1 0-.1 0 0-.1-.2 0-.1-.2-.4 0-.6.2-.8.2.1 0 0 0 0-.1-.1 0-.2.1-.3.1 0 0 .1-.1 0-.1s-.1 0-.1.1l-.1.1c.1-.1 0-.1 0-.1-.1.2-.1.2-.1.2.1-.3-.2 0-.2-.2 0 .1-.3.2-.2.3h.1-.1s.1 0 .1-.1c-.1.1-.2.1-.3.1s-.1.1-.2.1c-.1.1-.2.1-.4.2 0 0 .1-.1 0-.1-.1.1-.2.1-.3.2 0 .1-.1.1-.1.2l-.1.1c-.1-.1 0-.1.1-.2s.1-.1.1-.2l-.1.2h-.1c-.1.1-.1.1-.2.2 0 .1-.1.1-.2.2 0 0-.1.1-.1.2-.3-.1-.3.3-.5.3.1.1 0 .1-.1.2 0-.1-.1 0-.1-.1 0 .1-.2.4-.3.2 0 .2-.2.3-.2.4-.1.1-.1.2-.3.4.1 0-.1.2-.1.2v-.1c-.1 0-.1.2-.1.2-.1 0-.1-.1-.1 0 .1 0 0 .3-.1.3v-.1c-.1.3-.2.5-.3.7 0 .3-.1.5-.1.7l-.1-.1c-.2.2.1.2 0 .4 0 .1-.1.1-.1.2v.3c0 .1-.1.3-.1.4-.1.3-.1.6 0 .9 0 .1 0 0 .1 0 0 .1-.1.1 0 .1h.1c0 .1-.1.2-.1.2 0 .1 0 .2.1.3.1.2.1.4 0 .5s-.1.2-.1.4c0 .1 0 .1.1.2 0 .1.1.1.1.2s-.1-.1-.1.1l.2.2.1.1.1.1c0 .1.1.2.1.3 0 .2.1.4.2.5v.1s0 0 0-.1c.1.1.1.1.1.1.1 0 .1.1.1.1.1.1.1.1.2.2-.1-.1 0 .1 0 .2.1 0 .1-.1.2 0s.2.3.3.5c.1 0 .2.1.2 0 .1.1.2.1.2.2l.1.1c.1 0 .1.1.2.1.1-.1.2.2.2.2s-.1 0-.1.1l.1.1c-.1 0-.2.1-.1.1s0-.1.1-.1v.1c.1 0 .2-.1.1-.1.2.1.5.2.7.4.1 0 .3.1.4.2 0 0 .1 0 .1-.1.2 0 0 .1.1.1-.1 0-.1 0-.1 0l.3.1s0 .1.1.1c.1.1.1.1.2.1 0 0 0-.1-.1-.1h.1l.1.1.2-.1v.1c.1 0 .2-.1.2-.1.3.1.2.1.4.2 0-.1.1-.1.2-.1s.2 0 .2 0c.1 0 .1.1.2.1s.1 0 .1 0h.1.6c.2.1.2-.2.3-.2h.2s.1 0 .2-.1.3-.1.4-.2c0 0 0 .1.1.1.1-.1-.1-.1 0-.1v.1l.1-.1c.2 0 .3-.1.5-.1.2-.1.3-.1.4-.2.1 0 .1.1.1.1.1-.1.2-.2.3-.2.1-.1.2-.2.3-.2l.1.1c.1-.1 0-.2.1-.2l-.1.1c.2-.1.1-.2.2-.3v.1c.2-.1.1-.2.1-.2.1-.2.3.1.4-.2 0-.1-.1-.1-.1-.1.2-.1.1-.2.3-.4.2 0-.1.1.1.1l-.1.1c.2-.1-.1.1 0 .2.1-.1.1-.2.2-.4.1.1-.1.1 0 .2v-.1.1c.1 0 .1-.1.1-.1l-.1-.1c0-.2.2-.3.2-.5h.1v-.1c0-.1 0-.1 0-.2.1 0 .1.1.2-.1-.1-.1-.2-.1-.1-.2 0 0 0 .1.1.1 0-.2.1 0 .2-.1 0-.1.1-.1 0-.2.1 0 .1 0 .2-.1-.1 0 0-.2-.1-.2.1 0 .1.2.2.1 0-.1 0-.3-.1-.3.1-.1.1-.1.1-.2v.1c0-.2.2-.4 0-.6.2.1.1-.4.2-.2 0-.1 0-.2-.1-.2.1 0 .1 0 .1-.1s0-.1.1-.2c-.1-.1 0-.2-.1-.3 0 0 0 .1.1.1-.1-.1 0-.1.1-.1 0-.1-.1 0-.2-.1.1-.1.1 0 .2 0l-.1-.2.1-.1c0-.1-.1-.1 0-.2v.1l.1-.1-.1-.2.2-.2v-.1l.2.4v.1h.2v.1c.1 0 .1-.1.1-.1-.1-.1 0 .2 0 .3zm-4.2 5.6c-.1 0-.1.1-.1.1 0-.1.1-.1.1-.1zm.3-.1c-.1 0-.1 0 0 0zm.5.4c-.1 0-.1 0 0 0 0-.1 0 0 0 0zm-5.4-12.4c-.1 0-.1 0 0 0zm2.6-.5h-.1c0 .1.1.1.1 0zm-.2.1c.1 0 .1 0 0 0zm5.8 5.9c0 .1 0 .1 0 0zm-.1-1v.2c-.1 0 0-.2 0-.2zm.1-.9c0-.3-.1.1-.1-.2 0 .1 0 .2.1.2zm-3.5-3.9c-.1 0-.1 0 0 0zm-.9.2h-.1zm-.4-.7h-.2zm-7 2.4.1.1c0-.1-.1-.2-.1-.1zm-1.4 3.1c-.1 0-.1.1-.1.2.1-.1.1-.2.1-.2z"/><path d="m33 50.1.4-.6z"/><path d="m9.6 9.4c-.1 0-.2-.1-.2-.3v-3.5c0-.2.1-.3.2-.3s.2.1.2.3v3.6c0 .1-.1.2-.2.2z"/><path d="m8.5 8.6c-.1 0-.2-.1-.2-.3v-2c0-.2.1-.3.2-.3s.2.1.2.3v2c.1.2-.1.3-.2.3z"/><path d="m10.6 10.3c-.1 0-.2-.1-.2-.3v-5.4c0-.2.1-.3.2-.3s.2.1.2.3v5.4c.1.2 0 .3-.2.3z"/><path d="m7.6 4c-.2 0-.2 0-.3.1l-2.1 1.7h-1.2c-.2 0-.4.2-.4.5v2c0 .3.2.5.4.5h1.2l2.2 1.9h.1.1c.1-.1.2-.2.2-.3v-6.2c-.1-.1-.1-.2-.2-.2zm-.4 5.8-1.8-1.6h-.1-1.2v-1.7h1.2.1l1.8-1.5z"/><path d="m-18.3 42.6.4-.6z"/></g></svg>