<svg viewBox="0 0 60 14.8" xmlns="http://www.w3.org/2000/svg"><path d="m47.7 13c-5.4 1-11.9-.3-17.4.6-6.5 1.2-13.6.6-20.1.6 0-.6.5-1 0-1.3-2.1-.9-2.1-2.2-2.1-3.4 0-.6 1.6 0 1.1-.6 1.6 0 4.4-.3 2.7-.9-.5-.6-2.7 0-3.3-.9-.5-.9.6-1.8 0-2.7-.5 0-1.6 0-2.2 0-.5-.6.6-1.9.1-1.9-1.6-.6-3.8-.3-6-.3 0-.6-.5-1.2.6-1.5 19-.6 38.5-.6 57.5.3 2.2.3.5.5-1.1 1.4.5-.3.5.6 1.1.3 0 .9-1.1 2.4-3.3 2.7h1.6c.5.3 0 .9 0 1.5-.5 0-1.1 0-1.1.3v1.2h2.2c-.5 0-1.1 0-1.1.3s0 .9 0 1.2c-1.1.3-2.7-.3-3.8 0v.9c1.1.3 2.7 0 3.8 0-.5.3-.5.6-.5 1.2-1.6.3-3.3-.6-4.9.3h1.6c-1 1.6-3.8.3-5.4.7z" fill="#fff"/><path d="m12.1 8.9h.6v-4.9h-.8v-.7h1.7l2.9 3.8c.2.3.5.7.6 1v-4h-.7v-.8h2.2v.7h-.6v5.6h-.8l-3.2-4.1c-.2-.2-.4-.5-.4-.7v4h.7v.7h-2.2zm9.6-4.1c1.7 0 2.3 1.3 2.3 2.5 0 1.3-.8 2.4-2.4 2.4-1.7 0-2.4-1.2-2.4-2.4 0-1.4 1.1-2.5 2.5-2.5zm-.1 4.1c.9 0 1.3-.8 1.3-1.7 0-1.1-.6-1.5-1.3-1.5-1 0-1.4.8-1.4 1.7.1.8.5 1.5 1.4 1.5zm5.9-2.6v-.6c-.1-.1-.4-.2-.8-.2-.5 0-1 .1-1 .6 0 .4.3.5.6.5l1.2.2c.5.2 1.1.4 1.1 1.4 0 1.2-1.1 1.6-2.1 1.6-.8 0-1.4-.2-1.7-.3v-1.3h.9v.6c.2.1.5.2 1 .2s1-.2 1-.7c0-.4-.3-.5-.7-.6l-.8-.1c-.7-.1-1.5-.4-1.5-1.3 0-1.1 1-1.5 2-1.5.8 0 1.4.2 1.6.3v1.2zm4.3-1.5c1.7 0 2.3 1.3 2.3 2.5 0 1.3-.8 2.4-2.4 2.4-1.7 0-2.4-1.2-2.4-2.4 0-1.4 1.1-2.5 2.5-2.5zm-.1 4.1c.9 0 1.3-.8 1.3-1.7 0-1.1-.6-1.5-1.3-1.5-1 0-1.4.8-1.4 1.7.1.8.5 1.5 1.4 1.5zm3-4h.7v-1.1l1-.1v1.1h1.4v.7h-1.4v2.2c0 .9.2 1.1.7 1.1.3 0 .6-.1.8-.2v.7c-.3.1-.6.2-1 .2-1 0-1.4-.4-1.4-1.5 0-.6 0-1.8 0-2.6h-.7v-.5zm3.5 4h.6v-3.2h-.8v-.8h1.7c0 .4 0 .8-.1 1.3.2-.9.7-1.4 1.4-1.4.2 0 .5 0 .6.1l-.1.9c-.1 0-.3-.1-.5-.1-.9 0-1.3.9-1.3 1.7v1.5h.7v.7h-2.3v-.7zm6.1-4.1c1.7 0 2.3 1.3 2.3 2.5 0 1.3-.8 2.4-2.4 2.4-1.7 0-2.4-1.2-2.4-2.4 0-1.4 1.1-2.5 2.5-2.5zm-.1 4.1c.9 0 1.3-.8 1.3-1.7 0-1.1-.6-1.5-1.3-1.5-1 0-1.4.8-1.4 1.7.1.8.5 1.5 1.4 1.5zm5.9-2.6v-.6c-.1-.1-.4-.2-.8-.2-.5 0-1 .1-1 .6 0 .4.3.5.6.5l1.2.2c.5.1 1.1.3 1.1 1.3 0 1.2-1.1 1.6-2.1 1.6-.8 0-1.4-.2-1.7-.3v-1.3h.9v.6c.2.1.5.2 1 .2s1-.2 1-.7c0-.4-.3-.5-.7-.6l-.8-.1c-.7-.1-1.5-.4-1.5-1.3 0-1.1 1-1.5 2-1.5.8 0 1.4.2 1.6.3v1.2h-.8z" fill="#471414"/></svg>