<svg viewBox="0 0 60 14.8" xmlns="http://www.w3.org/2000/svg"><path d="m18.4.6c4-.8 8.7.8 12.7.1 4.8-.9 10-.7 14.8-.4 0 .6-.5 1.5-.1 1.8.4.2.7.5.9.8.2.2.4.5.4.8.2.6.2 1.2.1 1.8 0 .2-.1.2-.2.2s-.2.1-.4.1-.5 0-.3.3c-1.2-.1-3.2.1-2 .8.4.6 2 .1 2.3 1 .2.5.1.9-.1 1.4-.1.5-.2.9-.1 1.4.1 0 .2.1.4 0 .2 0 .3-.1.5-.2.3-.1.6-.2.8-.3.2.2.1.6-.1.9-.1.4-.2.7 0 .6.6-.2 1.4.1 1.4.1-.5.5-.9 1-1.4 1.5l-.7.7-.3.4c-.1.1-.2.2-.3.3-.1 0-.2 0-.3-.1s-.2-.1-.3-.1h-.7-1.4c-.9 0-1.8 0-2.6 0-3.5 0-7 0-10.6-.1-3.5-.1-7-.2-10.5-.3-.9-.1-1.8-.1-2.6-.2l-1.3-.1-.7-.1c-.1 0-.2 0-.3 0s-.2 0-.3.1c-.1 0-.2.1-.3.1s-.2-.1-.3-.3l-.6-.9c-.2-.3.5-.5.3-.8l-1.7-.9-.3-.5-.3-.5-.6-1s.4-2.1 1.2-1.9l-1.2-.5c-.2-.2-.2-.2-.1-.3s.2-.2.2-.3c.4.1.8.1.8-.1s0-.5 0-.7c-.4.1-1.2.2-1.6.3.4-.1.8-.1.8-.2s0-.4 0-.5c.4-.2.9-.5 1.4-.6s1-.3 1.4-.5v-.8c-.4.1-.9.4-1.4.7s-1 .7-1.5.9c.4-.4.4-.5.5-.8.3-.3.6-.6.9-.8s.6-.4.9-.6c.4-.1.7-.3 1.1-.6.2-.1.3-.3.5-.4.2-.2.3-.2.5-.3-.2-.1-.4-.1-.6.1l-.6.5c.1-.2.2-.5.4-.7s.3-.5.5-.6c.2-.2.3-.1.5 0 .1 0 .2.1.3.1h.3c.5.1 1.3.4 1.9.2z" fill="#fff"/><path d="m17.7 9.1h.7v-5.5h-.8v-.9h2.7c1 0 1.3.1 1.7.3.6.3.9 1 .9 1.8s-.4 1.6-1 1.9c-.4.3-.8.3-1.4.3h-1.1v2h.9v1h-2.8v-.9zm2.8-2.9c1 0 1.4-.6 1.4-1.4 0-.4-.2-.8-.4-1-.3-.3-.7-.3-1.2-.3h-.6v2.7zm5.8-1.7c2 0 2.6 1.5 2.6 2.8 0 1.5-.9 2.8-2.8 2.8s-2.7-1.3-2.7-2.7c.1-1.8 1.2-2.9 2.9-2.9zm-.1 4.6c1 0 1.5-.9 1.5-1.9 0-1.2-.6-1.7-1.4-1.7-1.1 0-1.6 1-1.6 1.9 0 .8.4 1.7 1.5 1.7zm3.3-4.5h.8v-1.2l1.2-.1v1.3h1.5v.8h-1.5v2.5c0 1 .2 1.2.8 1.2.3 0 .6-.1.9-.2v.8c-.3.1-.7.3-1.2.3-1.1 0-1.6-.4-1.6-1.7 0-.7 0-2.1 0-3h-.8v-.7zm8.6 5.1c-.4.2-1.1.4-1.9.4-1.8 0-2.8-1.1-2.8-2.8 0-1.6.9-2.8 2.6-2.8 1.6 0 2.4 1.2 2.4 2.8v.2h-3.8c0 1 .8 1.7 1.8 1.7.7 0 1.3-.2 1.7-.4zm-.9-3v-.1c0-.4-.3-1.3-1.3-1.3s-1.3.7-1.3 1.4zm1.9-2.1h.8v-1.2l1.1-.1v1.3h1.5v.8h-1.5v2.5c0 1 .2 1.2.8 1.2.3 0 .6-.1.9-.2v.8c-.3.1-.7.3-1.2.3-1.1 0-1.6-.4-1.6-1.7 0-.7 0-2.1 0-3h-.8z" fill="#471414"/></svg>