<svg viewBox="0 0 49.3 14.8" xmlns="http://www.w3.org/2000/svg"><path d="m36.5.9c.2 0-12.9-.4-13.1-.6-2-.5-4.5-.4-6.6 0-1 .1-1.8 1.9-1.8 1.9-.2.3-.5 1-.3 1.3.5.2 1.8.2 1.8.8 0 .1-.2.1-.5.1 0 .7-.8 1.9-1 1.9-.2.3-1.8 1.3-2 1.6-.8.5 1.5 3 2.5 3.4.5.3 0 .8 0 1.3.5-.1.8.3 1.3.2 0 .1 1.5.3 2.3.3 0 0 .2-.1 1-.1.2 0 .2-.1.2-.3v.3c.2-.3.8 0 1-.1v.3c.5-.3 1 0 1.5-.1v.3c.2 0 .5 0 .5.2v.3c.2.2.8-.1.8.2 0-.1 0-.1 0-.3 1 0 1.8.2 2.5.3 2 .7 4.5.4 6.8 0 .2 0 .5-.3.2-.7h.8c.5 0 .2-.5.8-.5 4.1-.8 8.1.1 12.1-.4-1-.2-1.8-.5-2.8-.3 0-.1 0-.5-.2-.5-1.5-.2-3.3.1-4-.5-.2-.2-.5-.7-1.3-.7h.8c0-.1 0-.5 0-.5-1-.2 4-.3 3.4-1.1-.1-.1.1-.4 0-.5-.6-.7-3.6-1-3.6-1.2h-.5 4.3c-.2 0-.8 0-1 0 0-.1 0-.3-.2-.3 1 0 2.3.2 3.3-.1.2-.1 0-.7-.8-.8-.8 0-1.3 0-2 0v-.4c.5 0 1.3.2 1.8 0 .2-.1-.5-.5-.2-.7.2 0 .5 0 .8-.1-.8 0-1.8.1-2.5 0-.2-.2-.5-.3-.5-.7-1.3.1-2.3-2.1-3-3-.6-.4-1.8-.2-2.6-.2z" fill="#fff"/><path d="m19.8 8.1v.9c.2.1.7.3 1.3.3.9 0 1.5-.4 1.5-1.2 0-.6-.3-.8-1.1-1l-1.3-.4c-.8-.2-1.6-.7-1.6-1.9 0-1.4 1.2-2.1 2.7-2.1.9 0 1.6.2 2.2.3v1.6h-1.1v-.7c-.2-.1-.5-.2-1.1-.2-1.1 0-1.5.5-1.5 1 0 .6.5.8 1.1 1l1.2.3c.8.2 1.7.7 1.7 1.9 0 1.4-1.1 2.2-2.8 2.2-.5 0-1.8-.1-2.4-.4v-1.6zm7.7-3.4c2 0 2.6 1.5 2.6 2.8 0 1.5-.9 2.7-2.8 2.7s-2.7-1.3-2.7-2.7c.1-1.7 1.3-2.8 2.9-2.8zm-.1 4.5c1 0 1.5-.9 1.5-1.9 0-1.2-.6-1.7-1.4-1.7-1.1 0-1.6.9-1.6 1.9.1.9.5 1.7 1.5 1.7zm3.4-4.4h.8v-1.2l1.2-.1v1.3h1.5v.8h-1.5v2.5c0 1 .2 1.2.8 1.2.3 0 .6-.1.9-.2v.8c-.3.1-.7.3-1.2.3-1.1 0-1.6-.4-1.6-1.6 0-.7 0-2 0-3h-.8v-.8z" fill="#471414"/></svg>