<svg viewBox="0 0 49.3 14.8" xmlns="http://www.w3.org/2000/svg"><path d="m36.6.9c.2 0-12.8-.4-13-.6-2-.5-4.5-.4-6.5 0-1 .2-1.8 2-1.8 2-.2.3-.5 1-.3 1.3.5.2 1.7.2 1.7.8 0 .2-.2.2-.5.2 0 .7-.8 2-1 2-.2.3-1.8 1.3-2 1.6-.8.5 1.5 3 2.5 3.5.5.3 0 .8 0 1.3.5-.2.8.3 1.3.2 0 .2 1.5.3 2.3.3 0 0 .2-.2 1-.2.2 0 .2-.2.2-.3v.3c.2-.3.8 0 1-.2v.3c.5-.3 1 0 1.5-.2v.3c.2 0 .5 0 .5.2s0 .2 0 .3c.2.2.8-.2.8.2 0-.2 0-.2 0-.3 1 0 1.7.2 2.5.3 2 .7 4.5.4 6.8 0 .2 0 .5-.3.2-.7h.8c.5 0 .2-.5.8-.5 4-.8 8 .1 12-.4-1-.2-1.7-.5-2.8-.3 0-.2 0-.5-.2-.5-1.5-.2-3.3.2-4-.5-.2-.2-.5-.7-1.3-.7h.8c0-.2 0-.5 0-.5-1-.2 4-.3 3.4-1.1-.1-.1.1-.4 0-.5-.6-.8-3.6-1-3.6-1.2h-.7v-.1h4.3c-.2 0-.8 0-1 0 0-.2 0-.3-.2-.3 1 0 2.3.2 3.3-.2.2-.2 0-.7-.8-.8-.8 0-1.3 0-2 0v-.3c.5 0 1.3.2 1.7 0 .2-.1-.5-.5-.3-.6.2 0 .5 0 .8-.2-.8 0-1.7.2-2.5 0-.2-.2-.5-.3-.5-.7-1.3.2-2.3-2.1-3-3-.2-.3-1.5-.2-2.2-.2z" fill="#c01d71"/><path d="m20 8.1v.9c.2.1.7.3 1.3.3.9 0 1.5-.4 1.5-1.2 0-.6-.3-.8-1.1-1l-1.3-.4c-.8-.2-1.6-.7-1.6-1.9 0-1.4 1.2-2.1 2.7-2.1.9 0 1.6.2 2.2.3v1.6h-1.1v-.7c-.2-.1-.5-.2-1.1-.2-1.1 0-1.5.5-1.5 1 0 .6.5.8 1.1 1l1.1.3c.9.3 1.8.7 1.8 2 0 1.4-1.1 2.3-2.7 2.3-.5 0-1.8-.1-2.4-.4v-1.8zm7.7-3.4c2 0 2.6 1.5 2.6 2.8 0 1.5-.9 2.7-2.7 2.7-1.9 0-2.6-1.3-2.6-2.7-.1-1.7 1.1-2.8 2.7-2.8zm-.1 4.6c1 0 1.5-.9 1.5-1.9 0-1.2-.6-1.7-1.4-1.7-1.1 0-1.6.9-1.6 1.9 0 .8.5 1.7 1.5 1.7zm3.3-4.5h.8v-1.2l1.2-.1v1.3h1.5v.8h-1.5v2.5c0 1 .2 1.2.7 1.2.3 0 .6-.1.9-.2v.8c-.3.1-.7.3-1.2.3-1.1 0-1.6-.4-1.6-1.6 0-.7 0-2 0-3h-.8z" fill="#fff"/></svg>