<svg viewBox="0 0 14.6 14.8" xmlns="http://www.w3.org/2000/svg"><g fill="#fff"><path d="m2.2 3.1c-.1 0-.1 0 0 0z"/><path d="m2.8 2.4c0-.1 0-.1 0 0z"/><path d="m13.8 5.5c.1.1.2.1.2.3 0 .1-.1 0-.1 0 0 .1 0 .2.1.3 0 0 0 0-.1 0 0-.1 0-.3-.1-.6z"/><path d="m14 6.5s0 .1 0 0c0 .1 0 .1 0 0z"/><path d="m13.5 4.4c-.1 0-.1 0 0 0z"/><path d="m14.3 7.4-.1.1v-.1c-.1 0-.1 0-.1 0 0-.1 0-.2 0-.4 0 0 0 .1.1.1 0 .1 0 .1-.1.1 0 0 0 .1.1.1.1-.1.1-.2 0-.3h.1c-.2 0-.2-.1-.3-.1 0-.1 0-.1 0-.2 0 0 0 0 .1.1v-.1c0 .1-.1 0-.1 0 0-.1 0-.1 0-.1v.1c.1-.1 0-.2-.1-.4s0 0-.1 0v-.1h.1s0 0 0-.1l.1.1-.1-.2h.1c0-.1-.1 0 0-.2l-.1-.1h.1c0-.2-.2-.3-.1-.4-.1-.2-.1 0-.3-.2l.2-.2h-.1v-.1c-.1-.1 0 0-.1 0 0-.1 0-.2-.1-.2-.1-.1-.1-.1 0-.2-.1 0 0 .1-.1 0 .1-.1 0-.1 0-.2-.1-.1-.1-.1-.1-.1-.1-.1-.1-.2-.1-.2.1 0 .1.1.1.1s0 .1.1.1l.1.1v-.1c.1 0 .1.1.1 0-.1 0-.1-.1-.1-.1 0-.1 0-.1-.1-.2-.1.1-.2-.2-.3-.3.1 0-.1-.3-.2-.5-.1 0-.2-.1-.3-.2.1-.1.1-.1.2 0l-.1-.1c-.1 0-.1 0-.1-.1h.1c-.1-.1-.3-.2-.4-.4-.1.1-.1.2-.2.2s-.1 0-.1 0-.1 0-.1-.1h.1c0-.1 0 0 0 0 .1-.1 0-.1 0-.1s0 .1.1.1c-.1-.1-.2-.2-.2-.3 0 0-.1.1-.1 0-.1-.1 0-.1 0-.2-.1 0-.1-.1-.2 0v-.1c-.1 0-.2-.1-.3-.1v.1s0 0-.1 0c-.1 0-.1-.1-.2-.1.1-.1 0-.1 0-.2-.1-.1-.2-.2-.3-.2-.2-.1-.3-.2-.5-.2-.1 0-.1-.1-.1-.1-.1 0-.1 0-.3-.1.1 0 0-.1.1 0 0-.1-.1-.1-.2-.1.1-.1-.1-.1-.2-.1l.1.1c-.1 0-.2-.1-.2-.1l.1-.1c-.2-.1-.4-.1-.5-.1-.2 0-.3 0-.4-.1-.1.1.2.1.1.2-.1-.1-.3-.3-.3-.3-.2 0-.2.2-.4.1 0 .1 0 .1-.1.2-.1 0-.2-.2-.1-.2h.1c.1 0 .1 0 .1-.1-.2 0-.4 0-.4 0-.1 0-.1.1 0 .1-.2 0-.2 0-.4 0 0 0 .1.1 0 .1-.3 0-.1.1-.3.1-.1-.1 0-.1-.2-.1-.1 0 0-.1 0-.1-.1 0-.1 0-.1 0-.1 0-.1 0-.1 0-.1 0-.2 0-.2 0l.1-.1c-.1 0-.1.1-.2.1l.1.1c-.1 0-.1 0-.1 0-.1.1.1.1 0 .2-.1 0-.2.1-.2 0 .2 0-.1-.1.1-.1h-.1c-.2 0-.1.1-.3.2 0-.1-.1-.1-.1-.1.1 0 .1.1 0 .1-.2 0-.1.1-.2.1h.1c0 .1-.1.1-.2.1 0 0 .1-.1 0-.1s-.3-.1-.4 0c-.1 0 0-.1-.1-.1-.1.1-.2 0-.4.1.1 0 .1 0 0 .1l.2-.2-.1.2c.1-.1.2-.1.2-.1-.1.1-.1.1 0 .1-.2-.1-.2.2-.4.2l-.1-.2c-.1 0-.2.1-.2.2s-.2.1-.3.2h.1c0 .1-.1.1-.2.2 0-.1-.1-.1-.1-.1s-.2.1-.1.2h-.2c-.3.1-.2.3-.4.5 0-.1-.1-.1 0-.2-.1 0-.1.1-.1.1s-.1.2-.2.2v.1s-.1.1 0 .1c-.1 0-.2.1-.3.2 0 .1-.1.1-.1.1s0 0-.1.1-.1.2-.2.2c0 .1-.1.3-.2.4-.2.1 0 .2-.1.4-.1.1 0-.1-.1-.1-.2-.1-.1.2-.3.3v-.1c-.1.1 0 .3-.1.5 0 .2 0 .4-.1.6-.1-.1 0-.1-.1-.1 0 .1.1 0 .1.2-.1 0-.1.1-.2.1 0-.1 0-.1.1-.2-.1 0-.1.1-.1.1v.1h-.1c-.1.2.1.3 0 .5h.1c0 .3-.2.2-.1.3h-.1c0 .1.1.4.1.5-.2 0-.2-.2-.2-.4v.4c0-.1 0-.1 0-.1.1.1.1.3.1.5-.1-.1-.1.1-.2.2 0 .1 0 .3-.1.4.1.1.1.3.1.5s0 .4.1.6c.2-.2 0 .1.2.1 0 .1.1.1 0 .1h.1c0 .1-.1.1-.1.1v.2c-.1.1-.1-.1-.2-.1 0 .2-.1.1-.1.2.1-.1.1.1.1.2l.1-.2c.1.1.1.2.1.2 0 .1 0 .1.1.2l-.2.1c0 .1.1.2.1.3.1.1.2.2.2.2s0 .1-.1 0c.1.2.2.3.3.5.1.1.2.3.2.4h.1c.1.1.1.1.1.1s-.1 0 0 0c0 0 .2.1.2.2h-.1l.3.3s.2.2.3.3c-.1.1.1.3.1.4.1.1.3.2.4.3s.3.1.5.2c0 .1.1.1.1.2.1.1.2.1.2.2.2.1.4.2.5.4 0-.1.1-.1.1-.1.1.1.2 0 .2.1 0 .1.2.2.3.2l.1-.1c.2.2.4.3.6.3s.4.1.5.2h.3v.1c.1 0 .2.1.3.1s.2.1.3 0l-.1.1c.2 0 .2-.2.4-.2h.1c.3 0 .6.1.9 0 0 0 0 .1-.1.1.1 0 .5 0 .5-.1 0 .1.3 0 .4-.1v.1c.1-.1.1-.2.3-.2.1 0 .1.1 0 .1.1-.2 0-.3.2-.3l-.1.1c.1 0 .1-.1.2-.1.1-.1.3-.1.3 0 0-.1.1-.1.1-.1v.1c.1 0 .1 0 .2-.1.1 0 .1-.1.1-.1.1-.1.1-.1.2-.1h.1c-.2.1-.3.1-.3.1 0 .1.2 0 .1.2.1-.1.2-.3.4-.4s.1 0 .1-.1c.1 0 .1 0 .1-.1h.1s.1 0 .1-.1v.1c.1 0 .1-.1.1-.1-.1-.1.1-.1-.1-.1 0 0 0 0-.1.1s-.1.1-.2.1c0-.1.1-.1.2-.1 0-.1 0-.1 0-.2.2.1.4 0 .4 0l.3-.3s.1-.1.1-.1c0-.1.1-.1.1-.2s.1 0 .1 0l-.1.1c.1-.1.3-.3.2-.4.2-.1 0 .1.2 0v.1c.2-.1.3-.3.4-.5s.1-.4.3-.5c.1-.1.2-.2.3-.4.1-.1.2-.2.2-.4.1-.1.1-.3.2-.4s.1-.2.2-.4 0-.2 0-.3h.1c0-.1-.1-.1-.1-.2s.1-.2.1-.3.1-.1.1-.2 0-.1 0-.2h-.1c0-.1 0-.4.1-.3 0 0-.1-.1 0-.1h.1c0-.1 0-.2 0-.3.1-.2.2.1.2-.2.3 0 .2-.2.1-.2zm-6.3-6.7s.1 0 0 0c-.1 0-.1 0 0 0zm-1.2 4.1c1.5.2 2.7 1.4 2.9 2.8v.1l-.3.1v-.1c-.3-1.3-1.3-2.3-2.6-2.5h-.1zm2.9 4.8c-.2.4-.4.8-.9 1-.1 0-.2.1-.4.1-.1 0-.2 0-.3-.1-.6-.2-1.2-.5-1.9-1-.4-.3-.8-.6-1.1-1.1-.7-.7-1.2-1.6-1.4-2.4-.1-.5.1-1.1.7-1.4.1 0 .3-.1.5-.2.1-.1.2-.1.3-.2l.2-.1 1 2.2-.9.4c.2.5 1.1 1.7 2 2l.1-.1s.2-.3.2-.4l.1-.3 2.1 1zm.9-2c-.3-1.9-1.8-3.4-3.6-3.7h-.1l.1-.3h.1c1.9.3 3.5 1.9 3.8 3.8v.1zm1.9-4.5s.1 0 0 0c.1 0 .1 0 0 0zm.2.2c.1 0 .1 0 .1.1l.2.2c-.1 0-.1 0-.1 0-.1-.2-.2-.2-.2-.3zm.2.4s.1 0 .1.1c0-.1 0-.1-.1-.1z"/></g></svg>