<svg viewBox="0 0 60 14.8" xmlns="http://www.w3.org/2000/svg"><path d="m-21.9-53.5h2.4l.1-18.2h-5.5l-.1 3.5h-3.4l.1-6.3h21.6l.1 6.3h-3.4l-.1-3.5h-5.4l-.1 18.2h2.8v2.8h-9v-2.8zm17.6 0h2.1l.2-20.6h-3.1v-2.8h6.9l-.2 23.4h2.4v2.8h-8.3zm11.9-13.7c1-.4 3.2-1.6 7-1.6 5.2 0 6.9 2.6 6.9 6.8 0 2.9-.1 5.7-.1 8.5h2.4v2.8h-5.6c0-1.1.1-2.5.3-3.7h-.1c-.7 2-2.2 4.1-5.9 4.1-4.2 0-5.6-2.8-5.6-5.1 0-4.7 4.7-5.3 7.6-5.4l3.6-.2v-1.3c0-2.2-.8-3.7-3.9-3.7-1.3 0-2.6.4-3.2.6v2.6h-3.4zm5.9 13.9c3 0 4.6-2.2 4.6-4.5v-.7c-3.9 0-7.4.2-7.4 2.8 0 1.3 1 2.4 2.8 2.4zm10.4-15.1h8.1v2.8h-2l3.4 9.1c.3.9.5 1.9.8 2.7h.1c.2-.8.5-1.8.8-2.7l3.1-9.1h-2.3v-2.8h7.5v2.8h-1.8l-5.4 14.8c-.6 1.6-1.8 4.9-2.8 6.2-1.6 2.1-3.8 2.8-6.1 2.8-1 0-1.9-.2-2.4-.4v-3c.5.2 1.7.4 2.5.4 1.7 0 3.3-.7 4.8-4.6l.1-.4-6.5-15.8h-1.9zm29.4-.4c6.5 0 8.7 5 8.7 9.3 0 5-3.1 9.1-9.1 9.1-6.3 0-8.8-4.4-8.8-8.9 0-5.7 3.8-9.5 9.2-9.5zm-.3 15.3c3.5 0 5-2.9 5-6.4 0-4-2.1-5.7-4.7-5.7-3.8 0-5.2 3.2-5.2 6.3 0 2.9 1.4 5.8 4.9 5.8z" fill="#471414"/><path d="m44.5 14.5c-2.1 1-3.7-2.1-6.1.3.2.1-8.7.1-8.6.1-.3.2-17.3-.3-19.4-.1-1 0-1.9-.4-2.8-.6-.3-.1-.2-.7-.4-1-.8-1-1.4-1.8-2.3-2.4 0 0 .1-.3.1-.5-.2 0-.3 0-.4-.1.8-1.7 2.2-2.2 1.1-3.7.1 0 .2-.1.2-.1.4-.2.6-.5.9-1-.2 0-.4-.1-.6-.1.2-.3.2-.5.3-.8 0 0 .1-.1.1-.1h.2c.1-.1.1-.3.1-.4.7-.6 1.6-.8 1.6-1.5-.1-.4-.5-.1-1 0 0-.1 0-.1-.1-.2.6 0 .2-1.1.6-1.2.5.1 1 0 1.4.1 1.9.3 3.6.5 5.6.3.1 0 8.3-1.9 13.9-1 .9.1 10.6.4 11 .1 2.7-.4 5.4-.2 8.3-.6.7 0 1.5.1 2.2.3-1.1.3-2.3.6-3.4.8-1-.3 1.8.6 1.8.6-.5.1 5.3 1.1 4.8 1.2-.9-.3-2.2 2-2.2 2.2 0 .7-1.9.8-1.8 1 .2.1 1.3.2 1.4.3-.2.1-1.3.8-1.4.9-.6.1 2.7.9 2.4 1.2-1 .8 1.2 1.2 3.5 1.9-.1.2-.2.4-.3.6-1.2-.1-2.3-.3-3.4.3.7.1 1.2-.1 1.8 0 0 .1 0 .2-.1.3.4-.1 1-.2 1.4-.1-.2.4-.5.8-.7 1.2-.3.3-.7.2-1 .3-1.6 0-3-.4-4.6-.3-1.4-.3-1.6.8-4.1 1.8zm-31.1-2c0-.1 0-.1 0 0 0-.1 0 0 0 0zm23.1-3.2h.6v-6h-.9v-.8h2v6.8h.7v.8h-2.4zm3 0h.7v-3.5h-.8v-.8h1.9v4.3h.7v.8h-2.5zm1.3-6.9c.4 0 .8.3.8.8s-.3.8-.8.8-.8-.4-.8-.8.3-.8.8-.8zm4.9 4.1v-.6c-.2-.1-.4-.2-.8-.2-.5 0-1 .1-1 .6 0 .4.3.5.7.6l1.3.2c.6.1 1.2.4 1.2 1.4 0 1.3-1.2 1.7-2.3 1.7-.9 0-1.5-.2-1.9-.3v-1.4h1v.7c.2.1.5.2 1.1.2.5 0 1-.2 1-.7 0-.4-.3-.6-.7-.7l-.8-.1c-.8-.1-1.6-.4-1.6-1.4 0-1.2 1.1-1.6 2.2-1.6.8 0 1.5.2 1.8.3v1.3z" fill="#fff"/><path d="m11.4 9.3h.7v-5.3h-1.6v1h-1v-1.8h6.3v1.8h-1v-1h-1.6v5.3h.8v.8h-2.6zm5.1 0h.6v-6h-.9v-.8h2v6.8h.7v.8h-2.4zm3.4-4c.3-.1.9-.5 2-.5 1.5 0 2 .7 2 2v2.5h.7v.8h-1.6c0-.3 0-.7.1-1.1-.2.6-.6 1.2-1.7 1.2-1.2 0-1.6-.8-1.6-1.5 0-1.4 1.4-1.5 2.2-1.6h1v-.4c0-.6-.2-1.1-1.1-1.1-.4 0-.8.1-.9.2v.7h-1v-1.2zm1.8 4.1c.9 0 1.3-.7 1.3-1.3v-.2c-1.1 0-2.1.1-2.1.8-.1.4.2.7.8.7zm3-4.4h2.3v.8h-.6l1 2.6c.1.3.2.5.2.8 0-.2.1-.5.2-.8l.9-2.6h-.7v-.8h2.2v.8h-.5l-1.6 4.3c-.2.5-.5 1.4-.8 1.8-.5.6-1.1.8-1.8.8-.3 0-.5 0-.7-.1v-.9c.2.1.5.1.7.1.5 0 1-.2 1.4-1.3v-.1l-1.9-4.6h-.6v-.8zm8.5-.1c1.9 0 2.5 1.4 2.5 2.7 0 1.5-.9 2.7-2.6 2.7-1.8 0-2.6-1.3-2.6-2.6 0-1.7 1.1-2.8 2.7-2.8zm-.1 4.4c1 0 1.4-.8 1.4-1.8 0-1.2-.6-1.7-1.4-1.7-1.1 0-1.5.9-1.5 1.8.1.9.5 1.7 1.5 1.7zm3.4 0h.6v-6h-.9v-.8h2v6.8h.7v.8h-2.4zm3 0h.7v-3.5h-.8v-.8h1.9v4.3h.7v.8h-2.5zm1.3-6.9c.4 0 .8.3.8.8s-.3.8-.8.8-.8-.4-.8-.8.3-.8.8-.8zm4.9 4.1v-.6c-.2-.1-.4-.2-.8-.2-.5 0-1 .1-1 .6 0 .4.3.5.7.6l1.3.2c.6.1 1.2.4 1.2 1.4 0 1.3-1.2 1.7-2.3 1.7-.9 0-1.5-.2-1.9-.3v-1.4h1v.7c.2.1.5.2 1.1.2.5 0 1-.2 1-.7 0-.4-.3-.6-.7-.7l-.8-.1c-.8-.1-1.6-.4-1.6-1.4 0-1.2 1.1-1.6 2.2-1.6.8 0 1.5.2 1.8.3v1.3z" fill="#471414"/></svg>