<?xml version="1.0" encoding="utf-8"?>
<!-- Generator: Adobe Illustrator 21.0.0, SVG Export Plug-In . SVG Version: 6.00 Build 0)  -->
<svg version="1.1" id="Layer_1" xmlns="http://www.w3.org/2000/svg" xmlns:xlink="http://www.w3.org/1999/xlink" x="0px" y="0px"
	 viewBox="0 0 60 14.8" style="enable-background:new 0 0 60 14.8;" xml:space="preserve">
<style type="text/css">
	.st0{fill:#0E8442;}
	.st1{enable-background:new    ;}
	.st2{fill:#FFFFFF;}
</style>
<g>
	<path class="st0" d="M44.5,14.4c-2.1,1-3.7-2.1-6.1,0.3c0.2,0.1-8.7,0.1-8.5,0.1c-0.3,0.2-17.3-0.3-19.4-0.1c-1,0-1.9-0.4-2.8-0.6
		c-0.3-0.1-0.2-0.7-0.4-1c-0.8-1-1.4-1.8-2.3-2.4c0,0,0.1-0.3,0.1-0.5c-0.2,0-0.3,0-0.4-0.1C5.4,8.4,6.8,8,5.7,6.4l0,0
		c0.1,0,0.2-0.1,0.2-0.1h0c0,0,0,0,0,0c0.4-0.2,0.6-0.5,0.9-1c-0.2,0-0.4-0.1-0.6-0.1c0.1-0.2,0.1-0.5,0.2-0.7c0,0,0.1-0.1,0.1-0.1
		c0.1,0,0.2,0,0.2,0C6.8,4.3,6.9,4.1,6.9,4c0.7-0.6,1.6-0.8,1.6-1.5c-0.1-0.4-0.5-0.1-1,0c0-0.1,0-0.1-0.1-0.2C8,2.2,7.6,1.1,8,1
		c0.5,0.1,1,0,1.4,0.1C11.4,1.5,13,1.6,15,1.5c0.1,0,8.3-1.9,13.8-1c0.9,0.1,10.6,0.4,10.9,0.1c2.7-0.4,5.4-0.2,8.3-0.6
		c0.7,0,1.5,0.1,2.2,0.3c-1.1,0.3-2.3,0.6-3.4,0.8c-1-0.3,1.8,0.6,1.8,0.6c-0.5,0.1,5.3,1.1,4.7,1.2c-0.9-0.3-2.2,2-2.2,2.2
		c0,0.7-1.9,0.8-1.8,1c0.2,0.1,1.3,0.2,1.4,0.3c-0.2,0.1-1.3,0.8-1.4,0.9c-0.4,0.1,2.9,0.9,2.6,1.2c-1,0.8,1.2,1.2,3.5,1.9
		c-0.1,0.2-0.2,0.4-0.3,0.6c-1.2-0.1-2.3-0.3-3.4,0.3c0.7,0.1,1.2-0.1,1.8,0c0,0.1,0,0.2-0.1,0.3c0.4-0.1,1-0.2,1.4-0.1
		c-0.2,0.4-0.5,0.8-0.7,1.2c-0.3,0.3-0.7,0.2-1,0.3c-1.6,0-3-0.4-4.6-0.3C47.2,12.3,46.9,13.4,44.5,14.4z M13.4,12.4
		C13.4,12.4,13.4,12.4,13.4,12.4C13.4,12.4,13.4,12.4,13.4,12.4L13.4,12.4z"/>
	<g class="st1">
		<path class="st2" d="M11.4,9.2h0.7l0-5.3h-1.6l0,1h-1l0-1.8h6.2l0,1.8h-1l0-1h-1.6l0,5.3H14V10h-2.6V9.2z"/>
		<path class="st2" d="M16.5,9.2h0.6l0-6h-0.9V2.5h2l0,6.8h0.7V10h-2.4V9.2z"/>
		<path class="st2" d="M20,5.3c0.3-0.1,0.9-0.5,2-0.5c1.5,0,2,0.7,2,2c0,0.8,0,1.6,0,2.5h0.7V10H23c0-0.3,0-0.7,0.1-1.1h0
			c-0.2,0.6-0.6,1.2-1.7,1.2c-1.2,0-1.6-0.8-1.6-1.5c0-1.3,1.4-1.5,2.2-1.6L23,7.1V6.7c0-0.6-0.2-1.1-1.1-1.1
			c-0.4,0-0.8,0.1-0.9,0.2v0.7h-1V5.3z M21.7,9.3C22.5,9.3,23,8.6,23,8V7.8c-1.1,0-2.1,0.1-2.1,0.8C20.8,9,21.1,9.3,21.7,9.3z"/>
		<path class="st2" d="M24.7,4.9H27v0.8h-0.6l1,2.6c0.1,0.3,0.2,0.5,0.2,0.8h0c0-0.2,0.1-0.5,0.2-0.8l0.9-2.6h-0.7V4.9h2.2v0.8h-0.5
			L28.2,10c-0.2,0.5-0.5,1.4-0.8,1.8c-0.5,0.6-1.1,0.8-1.8,0.8c-0.3,0-0.5,0-0.7-0.1v-0.9c0.2,0.1,0.5,0.1,0.7,0.1
			c0.5,0,1-0.2,1.4-1.3l0-0.1l-1.9-4.6h-0.6V4.9z"/>
		<path class="st2" d="M33.2,4.8c1.9,0,2.5,1.4,2.5,2.7c0,1.5-0.9,2.6-2.6,2.6c-1.8,0-2.5-1.3-2.5-2.6C30.5,5.9,31.6,4.8,33.2,4.8z
			 M33.1,9.2c1,0,1.4-0.8,1.4-1.8c0-1.2-0.6-1.7-1.4-1.7c-1.1,0-1.5,0.9-1.5,1.8C31.7,8.4,32.1,9.2,33.1,9.2z"/>
		<path class="st2" d="M36.5,9.2h0.6l0-6h-0.9V2.5h2l0,6.8h0.7V10h-2.4V9.2z"/>
		<path class="st2" d="M39.5,9.2h0.7l0-3.5h-0.8V4.9h1.9l0,4.3H42V10h-2.5V9.2z M40.7,2.3c0.4,0,0.8,0.3,0.8,0.8s-0.3,0.8-0.8,0.8
			S40,3.5,40,3.1S40.3,2.3,40.7,2.3z"/>
		<path class="st2" d="M45.6,6.4l0-0.6c-0.2-0.1-0.4-0.2-0.8-0.2c-0.5,0-1,0.1-1,0.6c0,0.4,0.3,0.5,0.6,0.6L45.7,7
			c0.6,0.1,1.2,0.4,1.2,1.4c0,1.3-1.2,1.7-2.3,1.7c-0.9,0-1.5-0.2-1.9-0.3l0-1.4h1l0,0.7c0.2,0.1,0.5,0.2,1.1,0.2c0.5,0,1-0.2,1-0.7
			c0-0.4-0.3-0.6-0.7-0.6l-0.8-0.1c-0.8-0.1-1.6-0.4-1.6-1.4c0-1.2,1.1-1.6,2.2-1.6c0.8,0,1.5,0.2,1.8,0.3l0,1.3H45.6z"/>
	</g>
</g>
</svg>
