<?xml version="1.0" encoding="utf-8"?>
<!-- Generator: Adobe Illustrator 21.0.0, SVG Export Plug-In . SVG Version: 6.00 Build 0)  -->
<svg version="1.1" id="Layer_1" xmlns="http://www.w3.org/2000/svg" xmlns:xlink="http://www.w3.org/1999/xlink" x="0px" y="0px"
	 viewBox="0 0 60 14.8" style="enable-background:new 0 0 60 14.8;" xml:space="preserve">
<style type="text/css">
	.st0{fill:#471414;}
	.st1{fill:#FFFFFF;}
</style>
<path class="st0" d="M-21.9-53.5h2.4l0.1-18.2h-5.5l-0.1,3.5h-3.4l0.1-6.3h21.6l0.1,6.3h-3.4l-0.1-3.5h-5.4l-0.1,18.2h2.8v2.8h-9
	V-53.5z"/>
<path class="st0" d="M-4.3-53.5h2.1L-2-74.1h-3.1v-2.8h6.9L1.6-53.5H4v2.8h-8.3V-53.5z"/>
<path class="st0" d="M7.6-67.2c1-0.4,3.2-1.6,7-1.6c5.2,0,6.9,2.6,6.9,6.8c0,2.9-0.1,5.7-0.1,8.5h2.4v2.8h-5.6
	c0-1.1,0.1-2.5,0.3-3.7h-0.1c-0.7,2-2.2,4.1-5.9,4.1c-4.2,0-5.6-2.8-5.6-5.1c0-4.7,4.7-5.3,7.6-5.4l3.6-0.2v-1.3
	c0-2.2-0.8-3.7-3.9-3.7c-1.3,0-2.6,0.4-3.2,0.6v2.6H7.6V-67.2z M13.5-53.3c3,0,4.6-2.2,4.6-4.5v-0.7c-3.9,0-7.4,0.2-7.4,2.8
	C10.7-54.4,11.7-53.3,13.5-53.3z"/>
<path class="st0" d="M23.9-68.4H32v2.8h-2l3.4,9.1c0.3,0.9,0.5,1.9,0.8,2.7h0.1c0.2-0.8,0.5-1.8,0.8-2.7l3.1-9.1h-2.3v-2.8h7.5v2.8
	h-1.8l-5.4,14.8c-0.6,1.6-1.8,4.9-2.8,6.2c-1.6,2.1-3.8,2.8-6.1,2.8c-1,0-1.9-0.2-2.4-0.4v-3c0.5,0.2,1.7,0.4,2.5,0.4
	c1.7,0,3.3-0.7,4.8-4.6l0.1-0.4l-6.5-15.8h-1.9V-68.4z"/>
<path class="st0" d="M53.3-68.8c6.5,0,8.7,5,8.7,9.3c0,5-3.1,9.1-9.1,9.1c-6.3,0-8.8-4.4-8.8-8.9C44.1-65,47.9-68.8,53.3-68.8z
	 M53-53.5c3.5,0,5-2.9,5-6.4c0-4-2.1-5.7-4.7-5.7c-3.8,0-5.2,3.2-5.2,6.3C48.1-56.4,49.5-53.5,53-53.5z"/>
<g>
	<path class="st1" d="M44.5,14.5c-2.1,1-3.7-2.1-6.1,0.3c0.2,0.1-8.7,0.1-8.6,0.1c-0.3,0.2-17.3-0.3-19.4-0.1c-1,0-1.9-0.4-2.8-0.6
		c-0.3-0.1-0.2-0.7-0.4-1c-0.8-1-1.4-1.8-2.3-2.4c0,0,0.1-0.3,0.1-0.5c-0.2,0-0.3,0-0.4-0.1C5.4,8.5,6.8,8,5.7,6.5l0,0
		c0.1,0,0.2-0.1,0.2-0.1h0c0,0,0,0,0,0c0.4-0.2,0.6-0.5,0.9-1c-0.2,0-0.4-0.1-0.6-0.1C6.4,5,6.4,4.8,6.5,4.5c0,0,0.1-0.1,0.1-0.1
		c0.1,0,0.2,0,0.2,0c0.1-0.1,0.1-0.3,0.1-0.4c0.7-0.6,1.6-0.8,1.6-1.5c-0.1-0.4-0.5-0.1-1,0c0-0.1,0-0.1-0.1-0.2
		C8,2.3,7.6,1.2,8,1.1c0.5,0.1,1,0,1.4,0.1C11.3,1.5,13,1.7,15,1.5c0.1,0,8.3-1.9,13.9-1c0.9,0.1,10.6,0.4,11,0.1
		c2.7-0.4,5.4-0.2,8.3-0.6c0.7,0,1.5,0.1,2.2,0.3c-1.1,0.3-2.3,0.6-3.4,0.8c-1-0.3,1.8,0.6,1.8,0.6c-0.5,0.1,5.3,1.1,4.8,1.2
		c-0.9-0.3-2.2,2-2.2,2.2c0,0.7-1.9,0.8-1.8,1c0.2,0.1,1.3,0.2,1.4,0.3c-0.2,0.1-1.3,0.8-1.4,0.9C49,7.4,52.3,8.2,52,8.5
		c-1,0.8,1.2,1.2,3.5,1.9c-0.1,0.2-0.2,0.4-0.3,0.6c-1.2-0.1-2.3-0.3-3.4,0.3c0.7,0.1,1.2-0.1,1.8,0c0,0.1,0,0.2-0.1,0.3
		c0.4-0.1,1-0.2,1.4-0.1c-0.2,0.4-0.5,0.8-0.7,1.2c-0.3,0.3-0.7,0.2-1,0.3c-1.6,0-3-0.4-4.6-0.3C47.2,12.4,47,13.5,44.5,14.5z
		 M13.4,12.5C13.4,12.4,13.4,12.4,13.4,12.5C13.4,12.4,13.4,12.5,13.4,12.5L13.4,12.5z"/>
	<path class="st0" d="M36.5,9.3h0.6l0-6h-0.9V2.5h2l0,6.8h0.7v0.8h-2.4V9.3z"/>
	<path class="st0" d="M39.5,9.3h0.7l0-3.5h-0.8V5h1.9l0,4.3H42v0.8h-2.5V9.3z M40.8,2.4c0.4,0,0.8,0.3,0.8,0.8s-0.3,0.8-0.8,0.8
		S40,3.6,40,3.2S40.3,2.4,40.8,2.4z"/>
	<path class="st0" d="M45.7,6.5l0-0.6c-0.2-0.1-0.4-0.2-0.8-0.2c-0.5,0-1,0.1-1,0.6c0,0.4,0.3,0.5,0.7,0.6l1.3,0.2
		c0.6,0.1,1.2,0.4,1.2,1.4c0,1.3-1.2,1.7-2.3,1.7c-0.9,0-1.5-0.2-1.9-0.3l0-1.4h1l0,0.7c0.2,0.1,0.5,0.2,1.1,0.2c0.5,0,1-0.2,1-0.7
		c0-0.4-0.3-0.6-0.7-0.7l-0.8-0.1c-0.8-0.1-1.6-0.4-1.6-1.4c0-1.2,1.1-1.6,2.2-1.6c0.8,0,1.5,0.2,1.8,0.3l0,1.3H45.7z"/>
	<g>
		<path class="st0" d="M11.4,9.3h0.7l0-5.3h-1.6l0,1h-1l0-1.8h6.3l0,1.8h-1l0-1h-1.6l0,5.3H14v0.8h-2.6V9.3z"/>
		<path class="st0" d="M16.5,9.3h0.6l0-6h-0.9V2.5h2l0,6.8h0.7v0.8h-2.4V9.3z"/>
		<path class="st0" d="M19.9,5.3c0.3-0.1,0.9-0.5,2-0.5c1.5,0,2,0.7,2,2c0,0.8,0,1.6,0,2.5h0.7v0.8H23c0-0.3,0-0.7,0.1-1.1h0
			c-0.2,0.6-0.6,1.2-1.7,1.2c-1.2,0-1.6-0.8-1.6-1.5c0-1.4,1.4-1.5,2.2-1.6L23,7.1V6.7c0-0.6-0.2-1.1-1.1-1.1
			c-0.4,0-0.8,0.1-0.9,0.2v0.7h-1V5.3z M21.7,9.4c0.9,0,1.3-0.7,1.3-1.3V7.9c-1.1,0-2.1,0.1-2.1,0.8C20.8,9.1,21.1,9.4,21.7,9.4z"/>
		<path class="st0" d="M24.7,5H27v0.8h-0.6l1,2.6c0.1,0.3,0.2,0.5,0.2,0.8h0c0-0.2,0.1-0.5,0.2-0.8l0.9-2.6h-0.7V5h2.2v0.8h-0.5
			l-1.6,4.3c-0.2,0.5-0.5,1.4-0.8,1.8c-0.5,0.6-1.1,0.8-1.8,0.8c-0.3,0-0.5,0-0.7-0.1v-0.9c0.2,0.1,0.5,0.1,0.7,0.1
			c0.5,0,1-0.2,1.4-1.3l0-0.1l-1.9-4.6h-0.6V5z"/>
		<path class="st0" d="M33.2,4.9c1.9,0,2.5,1.4,2.5,2.7c0,1.5-0.9,2.7-2.6,2.7c-1.8,0-2.6-1.3-2.6-2.6C30.5,6,31.6,4.9,33.2,4.9z
			 M33.1,9.3c1,0,1.4-0.8,1.4-1.8c0-1.2-0.6-1.7-1.4-1.7c-1.1,0-1.5,0.9-1.5,1.8C31.7,8.5,32.1,9.3,33.1,9.3z"/>
		<path class="st0" d="M36.5,9.3h0.6l0-6h-0.9V2.5h2l0,6.8h0.7v0.8h-2.4V9.3z"/>
		<path class="st0" d="M39.5,9.3h0.7l0-3.5h-0.8V5h1.9l0,4.3H42v0.8h-2.5V9.3z M40.8,2.4c0.4,0,0.8,0.3,0.8,0.8s-0.3,0.8-0.8,0.8
			S40,3.6,40,3.2S40.3,2.4,40.8,2.4z"/>
		<path class="st0" d="M45.7,6.5l0-0.6c-0.2-0.1-0.4-0.2-0.8-0.2c-0.5,0-1,0.1-1,0.6c0,0.4,0.3,0.5,0.7,0.6l1.3,0.2
			c0.6,0.1,1.2,0.4,1.2,1.4c0,1.3-1.2,1.7-2.3,1.7c-0.9,0-1.5-0.2-1.9-0.3l0-1.4h1l0,0.7c0.2,0.1,0.5,0.2,1.1,0.2c0.5,0,1-0.2,1-0.7
			c0-0.4-0.3-0.6-0.7-0.7l-0.8-0.1c-0.8-0.1-1.6-0.4-1.6-1.4c0-1.2,1.1-1.6,2.2-1.6c0.8,0,1.5,0.2,1.8,0.3l0,1.3H45.7z"/>
	</g>
</g>
</svg>
