<?xml version="1.0" encoding="utf-8"?>
<!-- Generator: Adobe Illustrator 21.1.0, SVG Export Plug-In . SVG Version: 6.00 Build 0)  -->
<svg version="1.1" id="Layer_1" xmlns="http://www.w3.org/2000/svg" xmlns:xlink="http://www.w3.org/1999/xlink" x="0px" y="0px"
	 viewBox="0 0 16.1 22.1" style="enable-background:new 0 0 16.1 22.1;" xml:space="preserve">
<style type="text/css">
	.st0{fill:#FFC519;}
</style>
<g>
	<path class="st0" d="M2.9,7l6,14.1c0,0,1.2,1.2,3.6,0.1c2.5-1.1,2.3-2.2,2.3-2.2S10.5,7.6,8.9,4.4c-0.3-0.6-1-0.4-1-0.4
		c0,0-0.3-1.1-0.7-1.3C6.7,2.5,5.8,2.8,5.5,2.9L3.8,0.6L3.5,0.7l0.8,2.7c0,0-1.4,0.7-1.4,1.3c0,0.6,0.4,1.1,0.4,1.1S2.8,6.5,2.9,7z"
		/>
	<path d="M15,18.9C15,18.8,15,18.8,15,18.9c-0.1-0.2-4.3-11.3-6-14.5C8.8,4,8.5,3.8,8.1,3.8c0,0,0,0-0.1,0C7.9,3.4,7.6,2.7,7.2,2.5
		C7.1,2.5,7,2.4,6.8,2.4c-0.4,0-0.9,0.1-1.2,0.2L4,0.4C3.9,0.4,3.8,0.3,3.8,0.4L3.4,0.5c-0.1,0-0.1,0.1-0.1,0.2l0.7,2.6
		C3.7,3.5,2.7,4.1,2.7,4.7l0,0l0,0c0,0.5,0.2,0.9,0.4,1.1C2.9,6,2.6,6.6,2.7,7c0,0,0,0,0,0l6,14.1c0,0,0,0,0,0.1
		c0,0,0.6,0.6,1.8,0.6l0,0c0.6,0,1.3-0.2,2-0.5C15.1,20.2,15,18.9,15,18.9z M3.7,0.8L3.7,0.8l1.5,2.1C5,3.3,4.6,3.3,4.4,3.2L3.7,0.8
		z M3.1,4.9C3.3,5,3.5,5,3.7,5c1,0,1.9-0.5,2-0.5c0.1,0,0.1-0.2,0.1-0.2c0-0.1-0.2-0.1-0.2-0.1c0,0-1.4,0.7-2.4,0.4
		c0.1-0.3,0.7-0.7,1.2-1c0.1,0,0.2,0,0.3,0c0.3,0,0.7-0.1,1-0.6c0,0,0,0,0,0C5.8,3,6.4,2.8,6.8,2.8c0.2,0,0.2,0,0.3,0
		c0.2,0.1,0.5,0.7,0.6,1.1C7.6,4.2,7,5,5.7,5.5C5.2,5.7,4,6.1,3.5,5.6C3.4,5.6,3.2,5.3,3.1,4.9z M14.4,19.5c-0.2,0.4-0.8,0.9-2,1.4
		c-0.7,0.3-1.3,0.4-1.9,0.4c-0.9,0-1.4-0.4-1.5-0.5l-5.9-14C3,6.7,3.2,6.3,3.4,6c0.2,0.1,0.5,0.2,0.8,0.2c0.8,0,1.5-0.3,1.6-0.3
		c1.4-0.6,2-1.4,2.2-1.7c0,0,0.1,0,0.1,0c0.3,0,0.5,0.1,0.7,0.4c1.6,3.1,5.7,13.8,5.9,14.4C14.6,19,14.6,19.2,14.4,19.5z"/>
</g>
</svg>
