<?xml version="1.0" encoding="utf-8"?>
<!-- Generator: Adobe Illustrator 21.1.0, SVG Export Plug-In . SVG Version: 6.00 Build 0)  -->
<svg version="1.1" id="Layer_1" xmlns="http://www.w3.org/2000/svg" xmlns:xlink="http://www.w3.org/1999/xlink" x="0px" y="0px"
	 viewBox="0 0 30 29.1" style="enable-background:new 0 0 30 29.1;" xml:space="preserve">
<style type="text/css">
	.st0{fill:#FFFFFF;}
	.st1{fill:#B7B7B7;}
</style>
<g>
	<g>
		<path class="st0" d="M8.6,13.1c0,0,3.3-1.2,6-1.2s5.3,0.2,5.9,0.6c0.6,0.4,1.5,12.2,1.5,12.9s-6,4.8-11.7,2.3
			c-4.1-1.7-3-4.2-2.7-6.9C8,17.3,8.1,13.4,8.6,13.1z"/>
	</g>
	<g>
		<g>
			<g>
				<path class="st1" d="M9.6,6.6c2,1.9,8.6,1.7,10.8-0.2l0.1-1.8c0-0.7-1-2.6-1-2.6s-1-1-3.7-1.4c-2.7-0.3-4.8,0.8-5.6,1.5
					c0,0-1.5,1.1-1.1,3.2C9.5,7.6,9.6,6.6,9.6,6.6z"/>
			</g>
		</g>
		<g>
			<g>
				<path d="M14.7,6.3c-0.2,0-0.3-0.2-0.3-0.3c0-0.2,0.2-0.3,0.3-0.3c3.1,0,4.5-1.1,4.5-1.1c0.1-0.1,0.4-0.1,0.5,0.1
					c0.1,0.1,0.1,0.4-0.1,0.5C19.6,5.1,18,6.3,14.7,6.3z"/>
			</g>
		</g>
		<g>
			<g>
				<g>
					<path d="M14.9,3.7c0.4,0,0.4-0.6,0-0.6C14.5,3.1,14.5,3.7,14.9,3.7L14.9,3.7z"/>
				</g>
			</g>
		</g>
		<g>
			<g>
				<g>
					<path d="M13.4,3.1c0.4,0,0.4-0.6,0-0.6S13.1,3.1,13.4,3.1L13.4,3.1z"/>
				</g>
			</g>
		</g>
		<g>
			<g>
				<g>
					<path d="M12.1,3.3c0.4,0,0.4-0.6,0-0.6C11.7,2.7,11.7,3.3,12.1,3.3L12.1,3.3z"/>
				</g>
			</g>
		</g>
		<g>
			<g>
				<g>
					<path d="M15,2.3c0.4,0,0.4-0.6,0-0.6C14.6,1.7,14.6,2.3,15,2.3L15,2.3z"/>
				</g>
			</g>
		</g>
		<g>
			<g>
				<g>
					<path d="M16.3,3c0.4,0,0.4-0.6,0-0.6C15.9,2.4,15.9,3,16.3,3L16.3,3z"/>
				</g>
			</g>
		</g>
		<g>
			<g>
				<g>
					<path d="M17.6,3.1c0.4,0,0.4-0.6,0-0.6C17.2,2.6,17.2,3.1,17.6,3.1L17.6,3.1z"/>
				</g>
			</g>
		</g>
		<g>
			<g>
				<g>
					<path d="M10.9,23.2c0.4,0,0.4-0.6,0-0.6C10.6,22.7,10.6,23.2,10.9,23.2L10.9,23.2z"/>
				</g>
			</g>
		</g>
		<g>
			<g>
				<g>
					<path d="M10,18.2c0.4,0,0.4-0.6,0-0.6C9.6,17.7,9.6,18.2,10,18.2L10,18.2z"/>
				</g>
			</g>
		</g>
		<g>
			<g>
				<g>
					<path d="M9.4,24.7c0.4,0,0.4-0.6,0-0.6C9,24.1,9,24.7,9.4,24.7L9.4,24.7z"/>
				</g>
			</g>
		</g>
		<g>
			<g>
				<g>
					<path d="M12.8,26.7c0.4,0,0.4-0.6,0-0.6C12.4,26.1,12.4,26.7,12.8,26.7L12.8,26.7z"/>
				</g>
			</g>
		</g>
		<g>
			<g>
				<g>
					<path d="M14.3,23.5c0.4,0,0.4-0.6,0-0.6C13.9,22.9,13.9,23.5,14.3,23.5L14.3,23.5z"/>
				</g>
			</g>
		</g>
		<g>
			<g>
				<g>
					<path d="M10.4,21.2c0.4,0,0.4-0.6,0-0.6C10,20.7,10,21.2,10.4,21.2L10.4,21.2z"/>
				</g>
			</g>
		</g>
		<g>
			<g>
				<g>
					<path d="M12.6,21.8c0.4,0,0.4-0.6,0-0.6S12.3,21.8,12.6,21.8L12.6,21.8z"/>
				</g>
			</g>
		</g>
		<g>
			<g>
				<g>
					<path d="M9.2,22.2c0.4,0,0.4-0.6,0-0.6C8.8,21.7,8.8,22.2,9.2,22.2L9.2,22.2z"/>
				</g>
			</g>
		</g>
		<path d="M20.8,6.4C20.9,6,21.3,3,19.6,1.7c-1.3-1-2.7-1.5-4.4-1.5c-0.2,0-0.5,0-0.7,0c-2.2,0.2-4.1,1.1-5.1,2.5
			C8.8,3.8,8.6,5,9,6.3c-0.5,4.3-1.9,18.1-1.6,19c0.4,1,3.2,3.6,7.3,3.6c1.8,0,3.7-0.4,5.3-1.2c1.4-0.7,2.4-1.6,2.7-2.5
			C23.1,23.6,21.1,8.4,20.8,6.4z M20.9,12.3c-1.1-0.7-3.8-0.8-6-0.8c-1.6,0.1-3.1,0.3-4.3,0.5c-0.7,0.2-1.2,0.4-1.6,0.6
			c0.2-2,0.4-4,0.6-5.8c1.1,0.8,3,1.1,4.9,1.1c2.1,0,4.3-0.5,5.6-1.3C20.4,8.5,20.6,10.4,20.9,12.3z M10,3.2C10.9,2,12.6,1.1,14.6,1
			c1.8-0.1,3.3,0.3,4.6,1.3c1.1,0.9,1.1,2.7,1,3.6c0,0-0.1,0-0.1,0.1c-1,0.9-3,1.4-5.2,1.5c-2.3,0-4.2-0.4-5-1.2
			c0,0-0.1-0.1-0.1-0.1C9.3,5,9.5,4,10,3.2z M22,24.9c-0.4,1.3-3.5,3.2-7.3,3.2c-3.7,0-6.3-2.4-6.6-3.1c-0.1-0.6,0.3-5.7,0.9-11.1
			c0,0,0.1-0.1,0.1-0.2c0.1-0.6,2.3-1.4,5.9-1.5c3.1-0.1,5.4,0.3,5.8,0.8c0,0,0,0.1,0,0.1c-0.3,0.9-2,1.5-4.8,1.6
			c-0.2,0-0.3,0.2-0.3,0.4c0,0.2,0.2,0.3,0.3,0.3h0c2.7-0.1,4.4-0.6,5.1-1.5C21.7,19.2,22.2,24.2,22,24.9z"/>
	</g>
</g>
</svg>
