<?xml version="1.0" encoding="utf-8"?>
<!-- Generator: Adobe Illustrator 21.0.0, SVG Export Plug-In . SVG Version: 6.00 Build 0)  -->
<svg version="1.1" id="Layer_1" xmlns="http://www.w3.org/2000/svg" xmlns:xlink="http://www.w3.org/1999/xlink" x="0px" y="0px"
	 viewBox="0 0 30 31.2" style="enable-background:new 0 0 30 31.2;" xml:space="preserve">
<style type="text/css">
	.st0{fill:#FFFFFF;}
	.st1{fill:#B28E36;}
</style>
<g>
	<path class="st0" d="M2.3,28.7c0.5-0.1,0.9-0.2,1.3-0.4C4,28.1,4.4,28,4.8,28c0.2,0,0.5,0,0.7-0.1c0.3-0.1,0.6-0.2,0.9-0.2
		c0.5-0.1,1-0.2,1.4-0.4C8.2,27.1,8.6,27,9,26.8c0.1,0,0.1-0.1,0.2,0c0,0.1-0.1,0.2-0.2,0.3c-0.4,0.4-0.8,0.8-1.1,1.3
		c-0.1,0.2-0.3,0.3-0.5,0.4c-0.1,0-0.3,0.1-0.4,0.1c0.5,0,0.9-0.1,1.1-0.5c0.2-0.3,0.4-0.5,0.6-0.8c0.3-0.2,0.6-0.5,0.7-0.8
		c0.1-0.2,0.2-0.3,0.4-0.2c0.6,0.1,1.1,0,1.7-0.3c0.5-0.3,1.1-0.6,1.5-0.9c0.2-0.2,0.4-0.4,0.5-0.7c0.1-0.3,0.2-0.5,0.5-0.6
		c0.1-0.1,0.2-0.1,0.3-0.3c0.1-0.2,0.2-0.3,0.4-0.5c0.4-0.4,0.9-0.6,1.2-1c0,0,0.1-0.1,0.1-0.1c0.7-0.4,1.3-0.8,1.9-1.3
		c0.3-0.3,0.6-0.6,1-0.8c-0.2,0.5-0.6,1-1.1,1.4c0.2,0,0.3-0.1,0.4-0.1c0.5-0.4,0.9-0.9,1.1-1.5c0.1-0.4,0.3-0.6,0.7-0.7
		c0.2-0.1,0.3-0.2,0.5-0.3c0.1-0.1,0.2-0.2,0.3-0.2c0.4-0.1,0.7-0.3,1-0.5c0.2-0.2,0.4-0.4,0.5-0.6c0.1-0.1,0.2-0.2,0.3-0.4
		c0.1-0.3,0.3-0.6,0.4-0.9c0.1-0.2,0.1-0.5,0.2-0.6c0.2-0.3,0.4-0.6,0.4-1c0.2-0.3,0.2-0.6,0.1-1c0-0.1,0-0.2,0.1-0.3
		C24,13.3,24,13.1,24,13c0-0.1,0-0.3,0.1-0.4c0.1-0.3,0.2-0.6,0.2-0.9c0-0.2,0.1-0.3,0.1-0.6c0-0.4,0-0.7,0.2-1
		c0.1-0.1,0.1-0.2,0-0.4c0-0.1-0.1-0.1,0-0.2c0,0,0-0.1,0-0.1l0,0c0,0,0-0.1,0-0.1c0,0,0,0,0-0.1c0,0,0-0.1,0-0.1
		c0.2-0.5,0.4-0.9,0.8-1.3c0.3-0.3,0.6-0.5,0.9-0.7c0.2-0.1,0.4-0.2,0.6-0.3c0.2-0.2,0.5-0.4,0.7-0.5c0.4-0.2,0.7-0.5,1.1-0.7
		c0.3-0.2,0.5-0.4,0.7-0.6c0,0,0-0.1,0-0.1c-0.1-0.2-0.2-0.4-0.3-0.6c-0.1-0.1-0.2-0.1-0.4-0.2c-0.1,0-0.1,0.1-0.2,0.2
		c0,0-0.1,0.1-0.2,0.1c-0.1,0-0.2,0.1-0.3,0.2c-0.3,0.2-0.6,0.5-1,0.7c-0.4,0.2-0.8,0.5-1,0.9c0,0.1-0.1,0.1-0.2,0.1
		c-0.3,0.2-0.7,0.4-1.1,0.7c0,0,0,0-0.1,0C25,7,25,6.9,25.1,6.9c0.2-0.2,0.4-0.3,0.6-0.6c0.1-0.1,0.1-0.1,0.2-0.2
		c0.1-0.1,0.2-0.2,0.3-0.3c0.2-0.2,0.3-0.3,0.5-0.5C27.1,5,27.5,4.8,28,4.7c0.1,0,0.2-0.1,0.3-0.2c0.1-0.3,0.2-0.7,0.3-1
		c0-0.1,0-0.1-0.1-0.2c-0.2-0.1-0.4-0.3-0.6-0.4c-0.1-0.1-0.2-0.1-0.3-0.2c-0.1-0.1-0.1-0.1,0-0.2c0.1-0.1,0.2-0.2,0.3-0.2
		C27.9,2.1,28,2,27.9,1.9c0-0.1,0-0.1,0.1-0.2c0,0,0,0,0-0.1c0,0,0,0-0.1-0.1c-0.3,0-0.5,0-0.8-0.1c-0.4,0-0.7,0.1-0.9,0.4
		c-0.1,0.1-0.1,0.1-0.2,0.2c-0.4,0.4-0.7,0.9-0.9,1.4c-0.2,0.3-0.3,0.6-0.5,0.8c-0.1,0.1-0.2,0.3-0.3,0.4c0,0.1-0.1,0.1-0.2,0.2
		c0-0.1,0.1-0.3,0.1-0.4c0.1-0.4,0.2-0.7,0.5-1c0.1-0.1,0.2-0.3,0.3-0.5c0.2-0.4,0.4-0.8,0.7-1.1c0.1-0.2,0.2-0.4,0.3-0.6
		c-0.3,0-0.5,0-0.8,0c-0.1,0-0.2,0.1-0.2,0.2C25,2,24.8,2.2,24.6,2.5c-0.2,0.2-0.4,0.5-0.5,0.7c0,0.1-0.1,0.2-0.2,0.4
		c-0.1,0.1-0.1,0.2-0.2,0.3c-0.1,0.2-0.2,0.4-0.4,0.6C23.2,4.8,23,5,22.9,5.2c-0.1,0.2-0.2,0.4-0.4,0.6c0,0.1-0.1,0.1-0.1,0.1
		c-0.1,0.3-0.4,0.5-0.6,0.6c0,0-0.1,0-0.1,0.1l0,0c-0.4,0-0.9,0-1.4-0.3c-0.3-0.2-0.6-0.3-0.8-0.5c-0.1-0.1-0.1-0.2-0.3-0.2
		c0.2,0.2,0.3,0.5,0.5,0.6c0.4,0.2,0.9,0.4,1.4,0.5c0,0,0.1,0,0.2,0.1c-0.1,0-0.2,0.1-0.3,0.1c-0.4,0.2-0.7,0.2-1.2,0.1
		C19.4,7,19,7,18.5,7c-0.1,0-0.1,0-0.2,0c0.7,0,1.3,0.1,1.9,0.3c-0.1,0.1-0.1,0.1-0.2,0.1c-0.4,0.1-0.8,0.2-1.2,0.3
		c-0.5,0.1-1,0.2-1.5,0.6C17,8.6,16.6,8.8,16.2,9c-0.4,0.2-0.8,0.4-1.1,0.7c-0.3,0.3-0.6,0.6-1,0.8c-0.1,0-0.1,0.1-0.2,0.2
		c-0.1,0.1-0.2,0.2-0.3,0.2c-0.5,0.3-0.8,0.6-1.2,1c0,0.1-0.1,0.1-0.2,0.2c-0.3,0.2-0.7,0.4-1.1,0.5c-0.1,0.1-0.3,0.1-0.4,0.2
		c-0.1,0.1-0.2,0.2-0.3,0.2c-0.4,0.2-0.7,0.4-0.9,0.7c-0.2,0.3-0.4,0.5-0.7,0.7c-0.5,0.4-0.6,1-0.7,1.5c0,0,0,0,0,0
		c0,0.2,0,0.4,0.1,0.6c0,0.2,0.1,0.4-0.1,0.7c0,0.2-0.1,0.4-0.3,0.5c-0.1,0.2-0.3,0.4-0.4,0.6c-0.2,0.3-0.3,0.7-0.6,1
		c0,0,0,0.1,0,0.1c0,0.2-0.2,0.4-0.4,0.6c-0.1,0-0.1,0.1-0.2,0.2C6,20.7,5.8,20.9,5.5,21c-0.2,0.1-0.3,0.1-0.4,0.3
		c-0.1,0.1-0.1,0.1-0.3,0.1c-0.4-0.1-0.7-0.1-1.1,0c-0.5,0.1-1,0.4-1.5,0.5c0,0,0,0,0,0c0.1,0,0.2,0,0.3,0c0.3-0.1,0.6-0.2,0.9-0.3
		c0.4-0.2,0.9-0.2,1.3-0.1c0.2,0,0.2,0.1,0.2,0.3c0,0.1,0,0.2,0,0.3c0,0.3-0.1,0.5-0.2,0.7c-0.3,0.5-0.6,0.9-0.7,1.5
		c-0.1,0.3-0.2,0.6-0.3,0.9c-0.3,0.7-0.7,1.3-1.2,1.9c-0.3,0.3-0.5,0.6-0.7,1c-0.1,0.2-0.2,0.3-0.4,0.4C1.1,28.8,1.6,28.8,2.3,28.7z
		"/>
	<g>
		<path class="st1" d="M20.9,7.9c0.1,0.2,0.2,0.5,0.5,0.6c0,0,0.1,0.1,0.1,0.1c0.2,0.2,0.4,0.3,0.6,0.4c0.1,0,0.2,0.1,0.3,0
			c-0.4-0.2-0.7-0.5-1.1-0.8c-0.2-0.2-0.4-0.5-0.4-0.8c0,0,0-0.1-0.1-0.1c-0.1,0-0.1,0-0.1,0.1C20.8,7.6,20.8,7.8,20.9,7.9z"/>
		<path class="st1" d="M5.2,22.7L5.2,22.7L5.2,22.7C5.2,22.7,5.2,22.7,5.2,22.7C5.2,22.7,5.2,22.7,5.2,22.7
			C5.2,22.7,5.2,22.7,5.2,22.7z"/>
		<path class="st1" d="M2.3,28.7c0.5-0.1,0.9-0.2,1.3-0.4C4,28.1,4.4,28,4.8,28c0.2,0,0.5,0,0.7-0.1c0.3-0.1,0.6-0.2,0.9-0.2
			c0.5-0.1,1-0.2,1.4-0.4C8.2,27.1,8.6,27,9,26.8c0.1,0,0.1-0.1,0.2,0c0,0.1-0.1,0.2-0.2,0.3c-0.4,0.4-0.8,0.8-1.1,1.3
			c-0.1,0.2-0.3,0.3-0.5,0.4c-0.1,0-0.3,0.1-0.4,0.1c0.5,0,0.9-0.1,1.1-0.5c0.2-0.3,0.4-0.5,0.6-0.8c0.3-0.2,0.6-0.5,0.7-0.8
			c0.1-0.2,0.2-0.3,0.4-0.2c0.6,0.1,1.1,0,1.7-0.3c0.5-0.3,1.1-0.6,1.5-0.9c0.2-0.2,0.4-0.4,0.5-0.7c0.1-0.3,0.2-0.5,0.5-0.6
			c0.1-0.1,0.2-0.1,0.3-0.3c0.1-0.2,0.2-0.3,0.4-0.5c0.4-0.4,0.9-0.6,1.2-1c0,0,0.1-0.1,0.1-0.1c0.7-0.4,1.3-0.8,1.9-1.3
			c0.3-0.3,0.6-0.6,1-0.8c-0.2,0.5-0.6,1-1.1,1.4c0.2,0,0.3-0.1,0.4-0.1c0.5-0.4,0.9-0.9,1.1-1.5c0.1-0.4,0.3-0.6,0.7-0.7
			c0.2-0.1,0.3-0.2,0.5-0.3c0.1-0.1,0.2-0.2,0.3-0.2c0.4-0.1,0.7-0.3,1-0.5c0.2-0.2,0.4-0.4,0.5-0.6c0.1-0.1,0.2-0.2,0.3-0.4
			c0.1-0.3,0.3-0.6,0.4-0.9c0.1-0.2,0.1-0.5,0.2-0.6c0.2-0.3,0.4-0.6,0.4-1c0.2-0.3,0.2-0.6,0.1-1c0-0.1,0-0.2,0.1-0.3
			C24,13.3,24,13.1,24,13c0-0.1,0-0.3,0.1-0.4c0.1-0.3,0.2-0.6,0.2-0.9c0-0.2,0.1-0.3,0.1-0.6c0-0.4,0-0.7,0.2-1
			c0.1-0.1,0.1-0.2,0-0.4c0-0.1-0.1-0.1,0-0.2c0,0,0-0.1,0-0.1l0,0c0,0,0-0.1,0-0.1c0,0,0,0,0-0.1c0,0,0-0.1,0-0.1
			c0.2-0.5,0.4-0.9,0.8-1.3c0.3-0.3,0.6-0.5,0.9-0.7c0.2-0.1,0.4-0.2,0.6-0.3c0.2-0.2,0.5-0.4,0.7-0.5c0.4-0.2,0.7-0.5,1.1-0.7
			c0.3-0.2,0.5-0.4,0.7-0.6c0,0,0-0.1,0-0.1c-0.1-0.2-0.2-0.4-0.3-0.6c-0.1-0.1-0.2-0.1-0.4-0.2c-0.1,0-0.1,0.1-0.2,0.2
			c0,0-0.1,0.1-0.2,0.1c-0.1,0-0.2,0.1-0.3,0.2c-0.3,0.2-0.6,0.5-1,0.7c-0.4,0.2-0.8,0.5-1,0.9c0,0.1-0.1,0.1-0.2,0.1
			c-0.3,0.2-0.7,0.4-1.1,0.7c0,0,0,0-0.1,0C25,7,25,6.9,25.1,6.9c0.2-0.2,0.4-0.3,0.6-0.6c0.1-0.1,0.1-0.1,0.2-0.2
			c0.1-0.1,0.2-0.2,0.3-0.3c0.2-0.2,0.3-0.3,0.5-0.5C27.1,5,27.5,4.8,28,4.7c0.1,0,0.2-0.1,0.3-0.2c0.1-0.3,0.2-0.7,0.3-1
			c0-0.1,0-0.1-0.1-0.2c-0.2-0.1-0.4-0.3-0.6-0.4c-0.1-0.1-0.2-0.1-0.3-0.2c-0.1-0.1-0.1-0.1,0-0.2c0.1-0.1,0.2-0.2,0.3-0.2
			C27.9,2.1,28,2,27.9,1.9c0-0.1,0-0.1,0.1-0.2c0,0,0,0,0-0.1c0,0,0,0-0.1-0.1c-0.3,0-0.5,0-0.8-0.1c-0.4,0-0.7,0.1-0.9,0.4
			c-0.1,0.1-0.1,0.1-0.2,0.2c-0.4,0.4-0.7,0.9-0.9,1.4c-0.2,0.3-0.3,0.6-0.5,0.8c-0.1,0.1-0.2,0.3-0.3,0.4c0,0.1-0.1,0.1-0.2,0.2
			c0-0.1,0.1-0.3,0.1-0.4c0.1-0.4,0.2-0.7,0.5-1c0.1-0.1,0.2-0.3,0.3-0.5c0.2-0.4,0.4-0.8,0.7-1.1c0.1-0.2,0.2-0.4,0.3-0.6
			c-0.3,0-0.5,0-0.8,0c-0.1,0-0.2,0.1-0.2,0.2C25,2,24.8,2.2,24.6,2.5c-0.2,0.2-0.4,0.5-0.5,0.7c0,0.1-0.1,0.2-0.2,0.4
			c-0.1,0.1-0.1,0.2-0.2,0.3c-0.1,0.2-0.2,0.4-0.4,0.6C23.2,4.8,23,5,22.9,5.2c-0.1,0.2-0.2,0.4-0.4,0.6c0,0.1-0.1,0.1-0.1,0.1
			c-0.1,0.3-0.4,0.5-0.6,0.6c0,0-0.1,0-0.1,0.1l0,0c-0.4,0-0.9,0-1.4-0.3c-0.3-0.2-0.6-0.3-0.8-0.5c-0.1-0.1-0.1-0.2-0.3-0.2
			c0.2,0.2,0.3,0.5,0.5,0.6c0.4,0.2,0.9,0.4,1.4,0.5c0,0,0.1,0,0.2,0.1c-0.1,0-0.2,0.1-0.3,0.1c-0.4,0.2-0.7,0.2-1.2,0.1
			C19.4,7,19,7,18.5,7c-0.1,0-0.1,0-0.2,0c0.7,0,1.3,0.1,1.9,0.3c-0.1,0.1-0.1,0.1-0.2,0.1c-0.4,0.1-0.8,0.2-1.2,0.3
			c-0.5,0.1-1,0.2-1.5,0.6C17,8.6,16.6,8.8,16.2,9c-0.4,0.2-0.8,0.4-1.1,0.7c-0.3,0.3-0.6,0.6-1,0.8c-0.1,0-0.1,0.1-0.2,0.2
			c-0.1,0.1-0.2,0.2-0.3,0.2c-0.5,0.3-0.8,0.6-1.2,1c0,0.1-0.1,0.1-0.2,0.2c-0.3,0.2-0.7,0.4-1.1,0.5c-0.1,0.1-0.3,0.1-0.4,0.2
			c-0.1,0.1-0.2,0.2-0.3,0.2c-0.4,0.2-0.7,0.4-0.9,0.7c-0.2,0.3-0.4,0.5-0.7,0.7c-0.5,0.4-0.6,1-0.7,1.5c0,0,0,0,0,0
			c0,0.2,0,0.4,0.1,0.6c0,0.2,0.1,0.4-0.1,0.7c0,0.2-0.1,0.4-0.3,0.5c-0.1,0.2-0.3,0.4-0.4,0.6c-0.2,0.3-0.3,0.7-0.6,1
			c0,0,0,0.1,0,0.1c0,0.2-0.2,0.4-0.4,0.6c-0.1,0-0.1,0.1-0.2,0.2C6,20.7,5.8,20.9,5.5,21c-0.2,0.1-0.3,0.1-0.4,0.3
			c-0.1,0.1-0.1,0.1-0.3,0.1c-0.4-0.1-0.7-0.1-1.1,0c-0.5,0.1-1,0.4-1.5,0.5c0,0,0,0,0,0c0.1,0,0.2,0,0.3,0c0.3-0.1,0.6-0.2,0.9-0.3
			c0.4-0.2,0.9-0.2,1.3-0.1c0.2,0,0.2,0.1,0.2,0.3c0,0.1,0,0.2,0,0.3c0,0.3-0.1,0.5-0.2,0.7c-0.3,0.5-0.6,0.9-0.7,1.5
			c-0.1,0.3-0.2,0.6-0.3,0.9c-0.3,0.7-0.7,1.3-1.2,1.9c-0.3,0.3-0.5,0.6-0.7,1c-0.1,0.2-0.2,0.3-0.4,0.4C1.1,28.8,1.6,28.8,2.3,28.7
			z M24.6,9.3c-0.2,0.3-0.5,0.2-0.6-0.1C24.1,9.2,24.3,9.3,24.6,9.3z M23.8,9.3c-0.2,0.1-0.3,0-0.5-0.1C23.5,9.2,23.6,9.3,23.8,9.3z
			 M25.5,7.9c-0.1,0.1-0.2,0.2-0.2,0.3C25,8.4,24.9,8.7,24.7,9c-0.2,0.2-0.5,0.3-0.7,0.1c-0.1-0.1-0.1-0.1,0-0.2
			c0.1-0.1,0.2-0.2,0.3-0.3C24.6,8.3,25,8,25.5,7.9C25.4,7.9,25.5,7.9,25.5,7.9z M23.6,9.1C23.6,9.1,23.5,9.1,23.6,9.1
			C23.6,9.1,23.6,9,23.6,9.1C23.7,9.1,23.7,9.1,23.6,9.1C23.7,9.1,23.6,9.1,23.6,9.1z M29.1,5.3C29.2,5.3,29.1,5.3,29.1,5.3
			c-0.2,0.3-0.4,0.4-0.6,0.5c-1,0.7-2,1.3-3.1,1.9c0,0,0,0-0.1,0c0.3-0.3,0.7-0.6,1.1-0.9c0.5-0.3,0.9-0.6,1.4-0.8
			c0.1-0.1,0.3-0.2,0.4-0.3c0.2-0.2,0.4-0.3,0.7-0.4c0,0,0.1,0,0.1,0C29.1,5.2,29.1,5.2,29.1,5.3z M28.9,4.6
			c0.2,0.1,0.3,0.4,0.4,0.6C29.1,5.2,28.9,4.9,28.9,4.6z M25.9,6.7c0.2-0.1,0.4-0.2,0.5-0.4c0.3-0.3,0.6-0.5,1-0.7
			c0.3-0.2,0.6-0.4,0.9-0.7c0.1,0,0.1-0.1,0.2-0.1c0.2-0.1,0.2-0.1,0.3,0.1c0,0.1,0.1,0.1,0.1,0.2c-0.1,0-0.1,0.1-0.2,0.1
			c-0.2,0.1-0.4,0.3-0.6,0.4C28,5.8,27.8,5.9,27.7,6c-0.7,0.3-1.4,0.7-1.9,1.2c-0.5,0.4-1,0.8-1.5,1.1c-0.1,0.1-0.2,0.2-0.3,0.3
			c-0.3,0.3-0.4,0.3-0.8,0.3c0.2-0.2,0.4-0.3,0.6-0.4c0,0,0,0,0,0c0.2,0,0.3-0.2,0.5-0.3C24.7,7.6,25.2,7,25.9,6.7z M27,5.1
			c-1,0.8-1.9,1.6-2.7,2.6c0.2-0.4,0.4-0.7,0.6-1c0.1-0.2,0.3-0.4,0.5-0.5c0.5-0.4,1-0.7,1.5-1C26.9,5,26.9,5,27,5.1
			C27,5.1,27,5.1,27,5.1z M28.4,3.6c0,0,0,0.1,0,0.1c-0.1,0.2-0.1,0.4-0.2,0.6c0,0.1-0.1,0.2-0.3,0.3c-0.2,0.1-0.5,0.2-0.7,0.3
			C27,4.9,26.8,5,26.7,5.1c-0.3,0.2-0.6,0.4-0.9,0.6c-0.1,0.1-0.2,0.2-0.4,0.3c0.1-0.2,0.2-0.4,0.4-0.5c0.2-0.2,0.4-0.3,0.7-0.5
			c0.3-0.2,0.5-0.4,0.8-0.7c0.1-0.1,0.2-0.2,0.4-0.3c0.2-0.1,0.4-0.3,0.6-0.4C28.3,3.6,28.3,3.5,28.4,3.6z M27.8,2.8
			c0.2,0.1,0.4,0.3,0.6,0.4c0.1,0.1,0.1,0.1,0,0.2c-0.2,0.1-0.4,0.2-0.6,0.4c-0.3,0.2-0.6,0.4-0.9,0.7c-0.3,0.3-0.6,0.4-0.9,0.6
			c-0.1,0.1-0.3,0.2-0.4,0.3c0-0.2,0.1-0.3,0.2-0.4c0.3-0.4,0.5-0.7,0.7-1.1c0.1-0.3,0.3-0.5,0.5-0.7C27.1,3,27.1,3,27.2,2.9
			c0.1-0.1,0.1-0.1,0.2-0.2C27.5,2.7,27.7,2.7,27.8,2.8z M24.8,4.5C24.9,4.3,25,4.2,25.1,4c0,0,0,0,0,0l0,0c0.2-0.5,0.5-0.9,0.8-1.4
			c0.2-0.3,0.4-0.5,0.6-0.8c0.1-0.1,0.1-0.1,0.3-0.1c-0.2,0.2-0.3,0.4-0.4,0.6c-0.2,0.4-0.5,0.7-0.7,1.1c-0.1,0.2-0.3,0.4-0.5,0.6
			c0,0-0.1,0-0.1,0l0,0l0,0C25.1,4.2,25,4.4,24.8,4.5c0,0.2-0.1,0.3-0.3,0.5C24.6,4.7,24.7,4.6,24.8,4.5z M25.4,4
			c0.3-0.4,0.5-0.8,0.8-1.2c0.1-0.2,0.2-0.4,0.3-0.6C26.7,2,26.9,1.9,27,1.7c0,0,0.1-0.1,0.2,0c0.2,0,0.4,0,0.6,0
			c0.1,0,0.2,0,0.2,0.1c0,0.1,0,0.2-0.1,0.2c0,0,0,0,0,0c-0.3,0.2-0.5,0.5-0.7,0.7c-0.1,0.2-0.3,0.3-0.5,0.6
			c-0.1,0.3-0.3,0.5-0.4,0.7c-0.1,0.2-0.2,0.3-0.3,0.4c-0.4,0.5-0.7,1.1-1,1.6c-0.1,0.3-0.3,0.5-0.4,0.8c-0.2,0.4-0.4,0.8-0.6,1.1
			c-0.2,0.3-0.5,0.6-0.9,0.7c-0.1,0.1-0.3,0-0.4,0c-0.1,0-0.1-0.1-0.1-0.2c0,0,0,0,0,0l0,0c-0.1,0-0.1,0-0.2,0
			c0-0.1,0.1-0.1,0.1-0.1c0.1,0,0,0.1,0,0.1c0,0,0,0,0,0l0,0c0.3,0,0.5-0.1,0.6-0.3c0.3-0.3,0.6-0.6,0.6-1.1c0-0.2,0.1-0.4,0.2-0.7
			C24,6.3,24.2,6,24.3,5.7C24.6,5.1,25,4.5,25.4,4z M22.2,8.2c0,0-0.1-0.1,0-0.2c0.1-0.1,0.1-0.1,0.2,0c0.1,0,0.1,0.1,0.1,0.1
			c0,0,0.1,0.1,0.2,0.1C22.5,8.3,22.4,8.3,22.2,8.2z M22,8.2C22,8.2,22,8.1,22,8.2c0-0.1,0-0.1,0-0.1C22.1,8.1,22.1,8.1,22,8.2
			C22.1,8.2,22.1,8.2,22,8.2z M23.4,7.7c-0.1,0.2-0.2,0.3-0.4,0.5C23.1,8,23.2,7.9,23.4,7.7z M23,7.9C22.9,8,22.8,8,22.8,8
			S22.6,8,22.5,7.9c0-0.1,0.1-0.1,0.1-0.1c0.1-0.1,0.1-0.2,0.2-0.3C23,7.3,23.1,7,23.2,6.8c0.1-0.2,0.2-0.3,0.3-0.4
			c0.1-0.4,0.3-0.7,0.6-1c0,0,0-0.1,0.1,0c0,0.1-0.1,0.2-0.1,0.3c-0.1,0.3-0.2,0.5-0.2,0.8c0,0.3-0.1,0.5-0.3,0.8
			C23.4,7.5,23.2,7.7,23,7.9z M22.7,7.3c-0.1,0.1-0.1,0.3-0.3,0.3c0,0-0.1,0-0.1,0.1c-0.1,0.1-0.1,0.1-0.2,0C22,7.6,22,7.3,22.2,7.2
			c0.3-0.1,0.5-0.4,0.7-0.6C23,6.6,23,6.5,23.2,6.5C23,6.8,22.9,7.1,22.7,7.3z M21.9,7.6c0,0.1,0,0.1,0,0.2c-0.2,0-0.2-0.1-0.2-0.2
			C21.7,7.5,21.8,7.5,21.9,7.6C21.9,7.5,21.9,7.5,21.9,7.6z M21.8,8c0.1,0.1,0,0.1,0,0.2c0,0,0,0,0,0l0,0c0.1,0.1,0.1,0.1,0.2,0.1
			c0.1,0,0.1,0.1,0.1,0.2c-0.2-0.1-0.3-0.2-0.3-0.4c0,0,0,0,0,0l0,0c-0.1-0.1-0.3-0.3-0.3-0.5C21.6,7.7,21.7,7.9,21.8,8z M23.9,4.3
			c0-0.1,0.1-0.1,0.1-0.2c0.1-0.6,0.4-1.1,0.8-1.6C25,2.3,25.2,2,25.2,1.7c0-0.1,0-0.1,0.1-0.1c0.2,0,0.3-0.1,0.5-0.1
			c0.1,0,0.1,0.1,0.1,0.1c0,0.1-0.1,0.2-0.1,0.3c-0.3,0.4-0.5,0.8-0.8,1.2c-0.1,0.1-0.1,0.3-0.2,0.4c-0.3,0.4-0.4,0.8-0.6,1.2
			c-0.1,0.2-0.1,0.4-0.3,0.5c-0.2,0.3-0.4,0.6-0.6,0.8c0,0.1-0.1,0.1-0.1,0.1c-0.3,0.2-0.5,0.5-0.8,0.7c-0.1,0.1-0.2,0.2-0.4,0.2
			c0.2-0.3,0.5-0.5,0.6-0.8c0.2-0.3,0.4-0.6,0.5-0.9C23.4,5,23.6,4.7,23.9,4.3z M22.4,6.3C22.6,6,22.9,5.7,23,5.4
			c0.1-0.1,0.1-0.3,0.2-0.3c-0.1,0.3-0.2,0.6-0.4,0.9c0,0,0,0,0,0.1c-0.3,0.5-0.7,0.9-1,1.3c-0.1,0.1-0.2,0.1-0.3,0.2
			c-0.1-0.1,0-0.3,0-0.4c0,0,0-0.1,0-0.1l0,0c0,0,0.2-0.1,0.3-0.2C22.1,6.6,22.2,6.5,22.4,6.3C22.4,6.3,22.4,6.3,22.4,6.3z
			 M8.8,14.9c0.1,0.2,0,0.4-0.3,0.6C8.5,15.2,8.6,15.1,8.8,14.9z M8.4,16.6c0.1,0.1,0.2,0.2,0.2,0.3c0,0.2,0.1,0.5,0.1,0.7
			C8.4,17.3,8.4,17,8.4,16.6z M4.3,24.2c0,0.2,0,0.4,0,0.6C4.2,24.5,4.2,24.4,4.3,24.2z M3.8,25.6c0.1-0.2,0.1-0.5,0.3-0.7
			c0,0.1,0,0.2,0,0.3c0,0.3,0.1,0.5,0.2,0.7c0.1,0.2,0.2,0.4,0.4,0.5c0.2,0.2,0.4,0.3,0.6,0.3c0-0.1,0-0.1-0.1-0.1
			c-0.6-0.3-1-1-0.9-1.7c0,0,0,0,0,0c0.1,0,0,0.1,0.1,0.1c0,0.3,0.2,0.5,0.4,0.7c0.1,0.1,0.2,0.2,0.4,0.2c-0.3-0.3-0.5-0.6-0.6-1
			c0-0.4,0-0.8,0-1.1c0.1,0,0.1,0.1,0.1,0.1c0,0.3,0.1,0.6,0.1,0.9c0,0.3,0.1,0.5,0.3,0.8c0.1,0.1,0.1,0.1,0.3,0.2
			c-0.5-0.7-0.5-1.5-0.4-2.3c0,0.2,0.1,0.3,0.1,0.5c0.1,0.3,0.2,0.6,0.2,1c0,0.2,0.1,0.3,0.3,0.5c0.3,0.3,0.6,0.4,0.9,0.5
			c0.3,0.1,0.5,0.2,0.8,0.4c0.3,0.2,0.6,0.3,0.9,0.5c0.1,0,0.3,0,0.4,0c-0.5-0.1-1-0.4-1.4-0.7c-0.2-0.2-0.4-0.4-0.6-0.7
			C6.4,25,6.1,24.8,6,24.6c0,0-0.1,0-0.1,0c0.1,0.2,0.2,0.3,0.4,0.5c0.1,0.2,0.2,0.4,0.4,0.5c-0.2,0-0.4,0-0.5-0.1
			c-0.4-0.2-0.6-0.4-0.7-0.9c-0.1-0.4-0.2-0.8-0.3-1.2c-0.1-0.3,0-0.5,0.1-0.7c0-0.1-0.1-0.1-0.1-0.2c0.1-0.2,0-0.4,0-0.6
			c0-0.4,0.1-0.6,0.5-0.8C6,21,6.2,20.8,6.4,20.6c0.1-0.1,0.2-0.2,0.3-0.3C6.9,20.2,7,20,7,19.8c0-0.2,0.1-0.3,0.2-0.4
			c0.1-0.1,0.2-0.3,0.2-0.5c0.2-0.4,0.4-0.7,0.7-1.1c0,0.1,0,0.2,0,0.3c-0.1,0.4-0.2,0.7-0.2,1.1c0,0.1,0,0.2,0,0.3
			c0,0.2,0.1,0.4,0.2,0.6c0.1,0.1,0.2,0.3,0.3,0.4c0.1,0.2,0.3,0.4,0.4,0.6c0-0.1,0-0.1,0-0.2c-0.1-0.1-0.2-0.3-0.3-0.5
			c-0.1-0.2-0.2-0.4-0.4-0.6C8,19.8,7.9,19.6,8,19.5C8,19.3,8,19,8,18.8c0-0.2,0.1-0.4,0.1-0.6c0-0.1,0.1-0.3,0-0.4
			c0-0.1,0-0.1,0-0.1c0.1-0.1,0.1-0.2,0.2-0.3c0.1,0.2,0.2,0.3,0.3,0.5c0.2,0.4,0.2,0.9,0.3,1.3c0,0.4,0.1,0.9,0.2,1.3
			c0.1,0.3,0.2,0.6,0.4,0.9c0,0.1,0.1,0.1,0.2,0.2c-0.2-0.3-0.3-0.7-0.4-1.1c0-0.1,0-0.2-0.1-0.3c0-0.4-0.1-0.7-0.1-1.1
			c0,0,0-0.1,0-0.1c0-0.3,0-0.6-0.1-0.8c0.1,0,0.1,0,0.1,0c0.1,0,0-0.1,0-0.1c-0.1-0.2-0.1-0.5-0.2-0.7c-0.1-0.3-0.2-0.6-0.3-1
			c-0.1-0.3,0-0.7,0.3-0.9C8.9,15.3,9,15.2,9,15c0-0.2,0.1-0.4,0.2-0.5c0.2-0.2,0.4-0.4,0.5-0.6c0.2-0.3,0.5-0.5,0.7-0.6
			c0.2-0.1,0.4-0.2,0.5-0.4c0.2-0.2,0.5-0.3,0.8-0.4c0.4-0.2,0.7-0.4,1-0.7c0,0,0.1-0.1,0.1-0.1c0,0,0,0,0,0.1
			c-0.1,0.5,0.1,0.9,0.5,1.2c0.4,0.3,0.8,0.6,1.3,0.8c0.2,0.1,0.3,0.2,0.6,0.2c-0.2-0.1-0.3-0.2-0.5-0.3c-0.5-0.2-0.9-0.5-1.3-0.9
			c-0.2-0.2-0.4-0.4-0.4-0.7c0-0.3,0.1-0.6,0.3-0.8c0.2-0.2,0.3-0.3,0.5-0.4c0.2-0.1,0.3-0.3,0.5-0.4c0.2-0.1,0.4-0.2,0.6-0.4
			c0.1,0.1,0,0.1,0,0.2c0,0.3,0.1,0.6,0.2,0.9c0.1,0.4,0.4,0.7,0.7,1c0.2,0.2,0.4,0.3,0.7,0.4c0-0.1-0.1-0.1-0.1-0.1
			c-0.2-0.1-0.4-0.3-0.6-0.5c-0.3-0.4-0.5-0.9-0.6-1.4c-0.1-0.2,0-0.5,0.1-0.7c0.2-0.4,0.6-0.5,0.9-0.7c0.1,0.1,0.1,0.1,0.1,0.2
			c0,0.5,0.2,0.9,0.6,1.2c0.2,0.1,0.3,0.3,0.5,0.4c-0.1-0.1-0.2-0.2-0.2-0.3c-0.2-0.2-0.5-0.5-0.6-0.8c-0.1-0.2-0.1-0.4-0.1-0.5
			c0-0.1,0-0.3,0.2-0.3C17,8.6,17.4,8.3,17.9,8C17.9,8,17.9,8,18,8c0,0,0,0,0,0c0,0,0,0.1,0,0.1c-0.1,0.4,0,0.8,0.1,1.1
			c0.1,0.2,0.2,0.4,0.3,0.7c0.2,0.5,0.4,0.8,0.7,1.2c0.1,0.1,0.3,0.2,0.4,0.3c0.1,0.1,0.2,0.1,0.3,0.2c0.1,0.1,0.2,0.2,0.4,0.3
			c0.2,0.1,0.3,0.2,0.4,0.3c0.1,0.1,0.3,0.2,0.5,0.3c-0.3-0.3-0.6-0.6-0.9-0.8c-0.1-0.1-0.2-0.2-0.3-0.3c-0.2-0.1-0.3-0.2-0.5-0.3
			c-0.4-0.3-0.6-0.6-0.8-1c-0.2-0.4-0.4-0.9-0.5-1.3c-0.1-0.2-0.1-0.5,0-0.7c0.1-0.1,0.2-0.2,0.3-0.3c0.1,0,0.3,0,0.4-0.1
			c0.3-0.1,0.6-0.1,0.9-0.2c0.1,0,0.2,0,0.3,0c-0.1,0.4,0,0.7,0.1,1c0.1,0.3,0.3,0.5,0.6,0.6c0-0.1-0.1-0.1-0.1-0.1
			c0,0-0.1-0.1-0.1-0.1c-0.2-0.3-0.3-0.7-0.3-1.1c0-0.2,0.1-0.3,0.2-0.4c0.3-0.2,0.5-0.3,0.9-0.4c0,0.1,0,0.1,0,0.2
			c-0.1,0.5,0.1,0.8,0.4,1.2c0.3,0.4,0.7,0.7,1.2,0.8c0.1,0,0.3,0.1,0.4,0.2c0.2,0.1,0.3,0.1,0.5,0.1c0.1,0,0.1,0,0.2,0
			c0.1,0.1,0.2,0.1,0.3,0.1c0.1,0,0.1,0,0.2,0.1c0,0,0,0,0,0c0,0-0.1,0.1,0,0.1c0,0.2-0.1,0.2-0.2,0.2c-0.1,0-0.2,0-0.3,0
			c-0.6-0.1-1.2-0.2-1.7-0.5c-0.6-0.3-1.1-0.7-1.4-1.3c-0.1-0.1-0.1-0.2-0.1-0.3c0-0.1,0-0.2-0.1-0.3c-0.1,0.3-0.2,0.5,0,0.8
			c0.2,0.3,0.4,0.6,0.7,0.8c0.3,0.2,0.6,0.4,1,0.6c0.5,0.2,0.9,0.3,1.4,0.4c0.2,0,0.5,0,0.6-0.1c0.1,0.1,0,0.1,0,0.2
			c-0.1,0.1-0.1,0.2-0.2,0.4c0,0.1-0.1,0.2-0.3,0.3c-0.4,0.2-0.8,0.2-1.2,0.1c-0.4-0.1-0.8-0.3-1.2-0.4c-0.6-0.2-1.1-0.5-1.5-1.1
			c0,0,0,0-0.1-0.1c0,0.2,0.1,0.4,0.3,0.5c0.4,0.3,0.8,0.6,1.2,0.7c0.4,0.1,0.8,0.3,1.3,0.4c0.3,0.1,0.6,0.1,1,0
			c0.2-0.1,0.3-0.1,0.5-0.2c0,0.3,0,0.6-0.1,0.9c0,0.1-0.1,0.1-0.1,0.1c-0.2,0.1-0.4,0.1-0.6,0.1c-0.3,0-0.7,0-1-0.1
			c-0.3,0-0.5-0.2-0.8-0.3c-0.2-0.1-0.3-0.2-0.5-0.2c0.1,0.1,0.3,0.2,0.4,0.3c0.1,0,0.1,0.1,0.2,0.1c0.6,0.3,1.2,0.3,1.9,0.2
			c0.1,0,0.2-0.1,0.3-0.1c0.1,0,0.2,0,0.2,0.1c0,0.1,0,0.2-0.1,0.2c-0.1,0.2-0.2,0.4-0.2,0.6c0,0.3-0.2,0.5-0.5,0.5
			c-0.6,0-1.2,0-1.7-0.2c0,0-0.1,0-0.1,0c0.3,0.2,0.5,0.2,0.8,0.3c-0.6,0.2-1.2,0.1-1.8,0c0.2,0.2,0.4,0.2,0.6,0.2
			c0.5,0.1,1,0,1.5-0.1c0.3-0.1,0.7-0.1,1-0.1c0,0.2,0.1,0.4,0,0.6c0,0.3-0.3,0.6-0.6,0.7c-0.4,0.1-0.8,0.2-1.2,0.3
			c-0.3,0.1-0.7,0-1,0c-0.7-0.1-1.3-0.4-1.9-0.7c-0.2-0.1-0.3-0.3-0.5-0.4c-0.1-0.1-0.2-0.3-0.5-0.3c0.7,0.8,1.6,1.1,2.5,1.4
			c1,0.3,1.9,0,2.9-0.3c0.1,0.2,0,0.4-0.2,0.5c-0.2,0.1-0.5,0.2-0.7,0.2c-0.6,0-1.1,0-1.7,0c-0.5,0-1-0.2-1.4-0.4
			c-0.3-0.1-0.5-0.2-0.8-0.3c0,0,0,0,0,0c0.1,0.1,0.3,0.2,0.4,0.2c0.6,0.2,1.2,0.4,1.8,0.5c0.5,0,1.1,0,1.6,0c0.2,0,0.5,0,0.7-0.1
			c0,0,0.1,0,0.1,0c0,0,0,0.1,0,0.1c0,0.1-0.1,0.1-0.1,0.2c-0.3,0.3-0.6,0.4-1,0.5c-0.6,0.1-1.1,0.1-1.7,0c0,0-0.1,0-0.1,0
			c0.6,0.3,1.9,0.3,2.8-0.3c0,0.1,0,0.1,0,0.1c-0.2,0.4-0.4,0.9-0.7,1.2c-0.2,0.2-0.3,0.3-0.4,0.5c-0.4,0.4-0.9,0.5-1.4,0.6
			c-0.4,0.1-0.8,0-1.2-0.1c0.2-0.1,0.4-0.2,0.6-0.3c0.1,0,0.2-0.1,0.2-0.2c0,0,0.1-0.1,0-0.1c0,0-0.1,0-0.1,0
			c-0.1,0.1-0.3,0.2-0.5,0.3c-0.3,0.2-0.6,0.2-0.9,0.2c-0.4-0.1-0.8-0.2-1.3-0.2c-0.5,0-0.9-0.2-1.3-0.4c-0.1,0-0.2-0.2-0.3-0.2
			c-0.1,0-0.1-0.1-0.2,0c0.3,0.3,0.6,0.4,0.9,0.5c0.4,0.1,0.7,0.2,1.1,0.2c0.4,0,0.7,0.1,1.1,0.2c0.6,0.1,1.2,0.3,1.8,0.2
			c-0.1,0.1-0.2,0.2-0.3,0.2c-0.3,0.1-0.5,0.2-0.8,0.4c-0.1,0.1-0.2,0.2-0.4,0c-0.1,0-0.1,0-0.2,0c-0.4,0.2-0.9,0.4-1.4,0.3
			c-0.5-0.1-1-0.4-1.5-0.6c-0.3-0.3-0.7-0.3-1-0.4c-0.5-0.1-1.1-0.3-1.5-0.6c-0.3-0.2-0.6-0.4-0.8-0.7c-0.2-0.3-0.5-0.5-0.7-0.7
			c-0.1-0.1-0.2-0.2-0.3-0.2c-0.2-0.2-0.3-0.4-0.4-0.6c0,0,0-0.1-0.1-0.1c-0.1,0.3,0,0.5,0.2,0.7c0.2,0.2,0.4,0.3,0.5,0.4
			c0.2,0.2,0.3,0.3,0.5,0.5c0.1,0.1,0.2,0.3,0.4,0.4c0.1,0.1,0.2,0.2,0.3,0.3c0.2,0.2,0.5,0.4,0.8,0.5c0.5,0.2,0.9,0.3,1.4,0.4
			c0.2,0,0.3,0.1,0.5,0.2c0.2,0.1,0.4,0.2,0.6,0.3c0.4,0.2,0.9,0.3,1.3,0.4c0.1,0,0.2,0,0.3,0c0.3-0.1,0.7-0.1,1-0.2
			c0.1,0,0.2-0.1,0.3,0c0,0.1-0.1,0.2-0.2,0.2c-0.4,0.5-0.9,0.9-1.5,1.3c-0.2,0.1-0.4,0.1-0.6,0.1c-0.5,0-1-0.2-1.4-0.4
			c-0.6-0.3-1.3-0.6-1.9-0.9c-0.3-0.1-0.6-0.2-1-0.3c-0.2-0.1-0.5-0.2-0.6-0.4c0,0-0.1-0.1-0.1,0c0,0,0,0.1,0,0.1
			c0,0.1,0.1,0.1,0.1,0.1c0.5,0.4,1,0.8,1.6,1.1c0.4,0.2,0.7,0.3,1.1,0.4c0.1,0,0.2,0.1,0.4,0.1c0.4,0,0.7,0.1,1,0.2
			c0.3,0.1,0.6,0.1,0.9,0.1c0,0,0.1,0,0.1,0c-0.1,0.1-0.3,0.2-0.4,0.3c0,0-0.1,0-0.1,0c-0.4-0.1-0.8,0-1.2,0c-0.3,0-0.5,0-0.8-0.1
			c0,0.1,0,0.1,0.1,0.1c0.3,0.1,0.6,0.1,0.9,0.1c0.2,0,0.5,0,0.7,0c0,0.1-0.1,0.1-0.1,0.1c-0.3,0.1-0.5,0.3-0.6,0.5
			c-0.1,0.1-0.3,0.2-0.4,0.3c-0.2,0.2-0.4,0.3-0.6,0.4c-0.3,0.1-0.6,0.3-0.9,0.5c-0.2,0.1-0.4,0.1-0.6,0c-0.2-0.1-0.4-0.2-0.7-0.3
			c-0.2-0.1-0.5-0.1-0.7-0.2c0.1,0,0.2,0.1,0.3,0.1c0.3,0.1,0.6,0.2,0.9,0.4l0,0c0.4,0.2,0.7,0.1,1-0.1c0.1-0.1,0.3-0.2,0.4-0.2
			c-0.1,0.3-0.3,0.5-0.5,0.6c-0.2,0.1-0.3,0.2-0.4,0.5c0,0.1-0.2,0.2-0.3,0.2c-0.1,0-0.3,0-0.4,0.1c-0.6,0-1.1-0.1-1.6-0.2
			c-0.4-0.1-0.7-0.3-1-0.7c-0.2-0.3-0.5-0.4-0.8-0.6c0,0.1,0.1,0.1,0.1,0.1c0.3,0.1,0.5,0.3,0.7,0.6c0.4,0.4,0.9,0.7,1.5,0.8
			c0.5,0.1,0.9,0.1,1.4,0.1c0.1,0,0.2,0,0.4-0.1c-0.1,0.2-0.3,0.4-0.5,0.6c-0.4,0.3-0.8,0.5-1.2,0.7c-0.4,0.2-0.8,0.3-1.2,0.4
			c-0.3,0-0.6-0.1-0.9-0.1c0-0.1,0-0.1,0-0.2c0-0.1,0.1-0.1,0.1-0.2c0-0.2,0.2-0.3,0.4-0.3c0.1,0,0.3,0,0.4-0.2
			c-0.1-0.1-0.1,0-0.2,0c-0.1,0-0.1,0-0.2,0c-0.3,0.1-0.3,0.1-0.4-0.2c0-0.1-0.1-0.1-0.1-0.2c0,0-0.1,0-0.1,0c0,0,0,0.1,0,0.1
			c0,0.1,0,0.1,0.1,0.2c0.1,0.2,0,0.4-0.1,0.6c-0.1,0.1-0.1,0.2-0.2,0.4c0,0.1-0.1,0.2-0.2,0.2c-0.6,0.2-1.2,0.5-1.8,0.8
			c-0.4,0.1-0.8,0.3-1.3,0.3c-0.2,0-0.5,0.1-0.7,0.2c-0.2,0.1-0.4,0.1-0.7,0.1c-0.1,0-0.2,0-0.3,0c-0.1,0-0.2,0-0.3-0.1
			c-0.1,0-0.1-0.1-0.1-0.1c0-0.3-0.1-0.6-0.1-0.9c0.5,0.7,0.9,0.8,1.6,0.7c0-0.1-0.1,0-0.1,0c-0.2,0-0.3,0-0.5-0.1
			c-0.4-0.1-0.6-0.3-0.7-0.6C4,26.3,3.9,26,3.8,25.6C3.8,25.6,3.8,25.6,3.8,25.6z M15,20.9c-0.8-0.2-1.5-0.4-2.2-0.9
			C13.6,20.1,14.3,20.5,15,20.9z M1.7,28.5c0.3-0.3,0.4-0.6,0.7-0.9c0.1,0.2,0,0.4,0.3,0.5c-0.1-0.2-0.1-0.4-0.1-0.6
			c0-0.1,0-0.2,0.1-0.3C3,26.8,3.3,26.4,3.5,26c0-0.1,0.1-0.1,0.1-0.1c0,0,0.1,0.1,0,0.1c0,0.2,0.1,0.4,0.1,0.5
			c0,0.1,0.1,0.1-0.1,0.2c-0.1,0,0,0.1,0,0.1c-0.1,0.3,0,0.6,0.1,0.9c0,0.1,0.1,0.1,0.2,0.2c-0.1,0-0.2,0-0.3,0.1
			c-0.1,0-0.2,0-0.2-0.1c-0.2-0.3-0.2-0.6-0.2-0.9c0,0,0-0.1,0-0.1c-0.1,0-0.1,0-0.1,0c0,0,0,0,0,0c-0.2,0-0.2,0.2-0.2,0.3
			c0,0.1,0,0.1,0,0.2c0,0.3,0.1,0.6,0.4,0.8c0,0,0,0,0.1,0.1c-0.2,0.1-0.4,0.2-0.6,0.3C2.3,28.6,1.6,28.7,1.7,28.5z"/>
		<path class="st1" d="M2.3,22L2.3,22L2.3,22L2.3,22z"/>
		<path class="st1" d="M5.3,22.8c0.1-0.3,0.2-0.6,0.4-0.9c0.2-0.3,0.4-0.5,0.7-0.8c-0.2,0-0.2,0-0.3,0.2c-0.1,0.2-0.3,0.4-0.4,0.5
			c-0.2,0.2-0.4,0.5-0.4,0.8C5.2,22.7,5.2,22.8,5.3,22.8z"/>
		<path class="st1" d="M5.2,22.7L5.2,22.7L5.2,22.7C5.2,22.7,5.2,22.7,5.2,22.7z"/>
		<path class="st1" d="M15.4,18.6c0.3,0.2,0.6,0.3,0.9,0.4c0.4,0.1,0.7,0.1,1.1,0.2c0.3,0,0.6,0.1,0.9,0.1c0.1,0,0.2,0,0.4-0.1
			c-0.6,0.1-1.1,0-1.7-0.1c-0.6-0.1-1.1-0.2-1.6-0.5C15.3,18.6,15.3,18.6,15.4,18.6z"/>
		<path class="st1" d="M12.9,22.8c0.2,0,0.5,0.1,0.7,0.1c0.3,0,0.7,0.1,1,0.1C14.6,23,14.5,23,14.4,23C13.9,23,13.5,22.9,12.9,22.8
			c-0.4-0.2-0.8-0.5-1.2-0.7c-0.3-0.2-0.6-0.4-0.9-0.6c-0.1-0.1-0.2-0.1-0.3-0.2c-0.3-0.3-0.5-0.6-0.7-0.9c-0.1-0.2-0.2-0.4-0.2-0.6
			c0,0,0,0-0.1,0c-0.1,0.2-0.1,0.3,0,0.4c0.1,0.3,0.4,0.6,0.6,0.9c0.2,0.2,0.4,0.4,0.6,0.5c0.6,0.3,1,0.7,1.5,1
			C12.5,22.7,12.7,22.8,12.9,22.8z"/>
		<path class="st1" d="M11.2,17.3c0.2,0.2,0.5,0.5,0.8,0.6c0.2,0.1,0.4,0.2,0.6,0.3c0.6,0.4,1.2,0.7,1.8,1.1
			c0.3,0.2,0.7,0.3,1.1,0.3c0.1,0,0.2,0,0.3-0.1c-0.2,0-0.3,0-0.5-0.1c-0.5-0.1-0.9-0.3-1.4-0.6c-0.4-0.3-0.8-0.5-1.3-0.8
			c-0.5-0.3-1-0.6-1.5-1c0,0-0.1-0.1-0.1-0.1c0,0,0,0,0,0C11.1,17.2,11.1,17.3,11.2,17.3z"/>
		<path class="st1" d="M6.8,22.6c-0.1-0.2-0.1-0.4-0.1-0.6c-0.1,0.2-0.1,0.2-0.1,0.3c0.1,0.5,0.4,0.9,0.7,1.3
			c0.1,0.2,0.2,0.3,0.3,0.5c0.1,0.1,0.1,0.2,0.2,0.3c0-0.3-0.2-0.5-0.4-0.7C7.1,23.3,6.9,23,6.8,22.6z"/>
		<path class="st1" d="M8.7,22.4c-0.4-0.5-0.5-1.2-0.7-1.8C7.9,21.2,8.2,22.3,8.7,22.4z"/>
		<path class="st1" d="M16.3,15.1c0.1,0.2,0.3,0.3,0.6,0.4c0-0.1-0.1-0.1-0.2-0.1c-0.1-0.1-0.2-0.2-0.3-0.3
			c-0.3-0.4-0.7-0.8-1.1-1.1c-0.1-0.1-0.2-0.2-0.3-0.3c-0.1-0.1-0.2-0.2-0.3-0.2c-0.3-0.2-0.5-0.3-0.7-0.6c0.1,0.2,0.2,0.4,0.5,0.6
			c0.1,0,0.1,0.1,0.2,0.1C15.3,14,15.9,14.5,16.3,15.1z"/>
		<path class="st1" d="M10.3,16.6c0.1,0.3,0.3,0.5,0.4,0.7c0.2,0.3,0.5,0.6,0.8,0.7c-0.3-0.3-0.5-0.7-0.8-1
			c-0.1-0.2-0.3-0.4-0.3-0.6c0-0.1-0.1-0.2-0.1-0.3C10.1,16,10,15.8,10,15.5c0-0.2,0.1-0.4,0.1-0.7c0-0.2,0.1-0.4,0.1-0.5
			c0.1-0.3,0.2-0.6,0.3-0.8c0,0,0-0.1,0-0.1c0,0-0.1,0-0.1,0c0,0-0.1,0.1-0.1,0.1c0,0.2-0.2,0.3-0.2,0.5c-0.1,0.2-0.2,0.4-0.2,0.7
			c0,0.3,0,0.5-0.1,0.8c0,0.2,0,0.4,0.1,0.6C10.1,16.3,10.2,16.4,10.3,16.6z"/>
		<path class="st1" d="M13,14.5c0-0.1,0-0.2-0.1-0.3c0,0.5,0.3,0.9,0.5,1.3c0.2,0.3,0.6,0.6,0.8,1c0.1,0.2,0.3,0.3,0.5,0.3
			c-0.2-0.1-0.3-0.3-0.5-0.5c-0.1-0.2-0.2-0.3-0.4-0.4c-0.3-0.3-0.6-0.7-0.8-1.2C13,14.7,13,14.6,13,14.5z"/>
		<path class="st1" d="M15.5,16.3c0.4,0.3,0.8,0.4,1.2,0.6c0.5,0.2,1,0.3,1.5,0.5c0.3,0.1,0.6,0.2,0.9,0.2c0.7,0,1.4-0.2,2.1-0.4
			c0,0,0,0,0,0c-0.5,0.1-0.9,0.3-1.4,0.3c-0.4,0.1-0.7,0.1-1.1,0c-0.3-0.1-0.7-0.2-1-0.3C16.9,16.9,16.2,16.6,15.5,16.3
			C15.5,16.3,15.4,16.2,15.5,16.3C15.4,16.3,15.4,16.3,15.5,16.3z"/>
		<path class="st1" d="M12.4,16.2c-0.1-0.1-0.1-0.1-0.2-0.1c0.2,0.2,0.4,0.5,0.7,0.7c0.2,0.1,0.4,0.3,0.6,0.4
			c0.1,0.1,0.3,0.2,0.4,0.3c0.1,0.1,0.2,0.1,0.4,0.1c-0.5-0.2-0.8-0.5-1.2-0.7C12.8,16.7,12.6,16.4,12.4,16.2z"/>
		<path class="st1" d="M13.9,21.4C13.9,21.4,13.9,21.4,13.9,21.4C13.9,21.4,13.9,21.4,13.9,21.4C13.9,21.4,13.9,21.4,13.9,21.4
			L13.9,21.4z"/>
		<path class="st1" d="M12.4,18.5c-0.1,0-0.1-0.1-0.2-0.1c0.1,0.1,0.3,0.3,0.4,0.3c0.6,0.3,1.1,0.7,1.6,0.9c0.2,0.1,0.5,0.2,0.7,0.4
			c0.4,0.2,0.7,0.5,1.1,0.6c0.5,0.2,0.9,0.2,1.4,0.1c-0.1,0-0.2,0-0.3,0c-0.3,0-0.5,0-0.8-0.1c-0.4-0.1-0.7-0.3-1.1-0.5
			c-0.5-0.3-1.1-0.6-1.6-0.9C13.2,18.9,12.8,18.7,12.4,18.5z"/>
		<path class="st1" d="M14.1,21.5c-0.1,0-0.1-0.1-0.2,0C13.9,21.5,14,21.5,14.1,21.5z"/>
		<path class="st1" d="M11.5,20.2c0.3,0.2,0.5,0.4,0.8,0.6c0.2,0.2,0.5,0.3,0.7,0.4c0.3,0.1,0.6,0.2,0.9,0.3
			c-0.2-0.1-0.4-0.2-0.5-0.3c-0.4-0.2-0.9-0.3-1.1-0.8c-0.2-0.4-0.5-0.7-0.8-0.9c-0.3-0.2-0.6-0.5-0.8-0.8c-0.2-0.3-0.4-0.5-0.6-0.8
			c-0.3-0.3-0.6-0.6-0.9-0.9c-0.2-0.3-0.4-0.5-0.4-0.9c0,0,0-0.1,0-0.1c0,0-0.1,0-0.1,0.1c0,0.1,0,0.1,0,0.2c0,0.3,0.1,0.5,0.3,0.7
			c0.2,0.2,0.4,0.5,0.6,0.7c0.3,0.3,0.5,0.6,0.8,0.9c0,0.1,0.1,0.1,0.1,0.2c-0.1,0-0.2-0.1-0.3-0.2c0,0.1,0.1,0.1,0.1,0.2
			c0.3,0.4,0.7,0.7,0.9,1.1C11.3,20,11.4,20.1,11.5,20.2z M10.9,19.2c0.3,0.3,0.7,0.5,0.9,0.8c0.1,0.1,0.2,0.3,0.2,0.5
			c-0.3-0.2-0.6-0.4-0.7-0.7C11.2,19.6,11.1,19.4,10.9,19.2z"/>
	</g>
</g>
</svg>
