<?xml version="1.0" encoding="utf-8"?>
<!-- Generator: Adobe Illustrator 21.1.0, SVG Export Plug-In . SVG Version: 6.00 Build 0)  -->
<svg version="1.1" id="Layer_1" xmlns="http://www.w3.org/2000/svg" xmlns:xlink="http://www.w3.org/1999/xlink" x="0px" y="0px"
	 viewBox="0 0 30 22.2" style="enable-background:new 0 0 30 22.2;" xml:space="preserve">
<style type="text/css">
	.st0{fill:#C3CC30;}
	.st1{fill:#381C1B;}
	.st2{fill:#25592F;}
</style>
<path class="st0" d="M21.9,5.8C21.9,5.7,22,5.7,21.9,5.8c-0.5-0.5-1.1-0.9-1.7-1.3c-0.9-0.7-1.9-1.1-3-1.1c-0.4,0-0.9,0-1.4,0
	c-3.6,0.1-6.3,1.8-8.2,4.7C7,9.3,6.3,10.5,5.8,11.7c-0.4,1-1.1,1.6-2.1,1.9c-0.4,0.1-1,0.2-1,0.8c0,0.5,0.5,0.9,1,1s1,0.2,1.5,0.3
	c1.8,0.6,3.6,0.8,5.3,1.7c1,0.5,2,0.6,3,0.7c1.9,0.2,3.6-0.3,5.4-1c2.3-1,4.1-2.5,5.1-4.9c0.5-1.1,1.1-2.1,2-3
	c0.8-0.7,0.7-1-0.4-1.3S23.7,7,22.9,6.4C22.6,6.2,22.2,6,21.9,5.8z"/>
<g>
	<path class="st1" d="M6.3,5.7c1.3-2,3.1-3.2,5.1-4.2c1.7-0.8,3.4-0.8,5.2-0.7c2.3,0.1,4.1,1.1,5.8,2.5c1.3,1.1,2.8,1.9,4.5,2.3
		c1.9,0.4,2.7,2.5,1.6,4.1c-0.2,0.3-0.5,0.7-0.8,1c-0.6,0.6-1.3,1.4-1.6,2.2c-1.2,3.2-3.6,5.4-6.7,6.7c-1.8,0.7-3.7,1.4-5.7,1
		c-0.4-0.1-0.8,0-1.1-0.1c-1-0.1-1.9-0.3-2.8-0.9c-1.2-0.8-2.4-1.4-3.9-1.6c-0.9-0.1-1.8-0.4-2.7-0.7c-1.1-0.3-1.9-1.2-2.6-2
		c-1.1-1.2-0.4-3.1,1.1-3.8c1.2-0.6,1.8-1.5,2.4-2.6C4.9,8,5.4,6.7,6.3,5.7z M21.9,5.8C21.9,5.7,22,5.7,21.9,5.8
		c-0.5-0.5-1.1-0.9-1.7-1.3c-0.9-0.7-1.9-1.1-3-1.1c-0.4,0-0.9,0-1.4,0c-3.6,0.1-6.3,1.8-8.2,4.7C7,9.3,6.3,10.5,5.8,11.7
		c-0.4,1-1.1,1.6-2.1,1.9c-0.4,0.1-1,0.2-1,0.8c0,0.5,0.5,0.9,1,1s1,0.2,1.5,0.3c1.8,0.6,3.6,0.8,5.3,1.7c1,0.5,2,0.6,3,0.7
		c1.9,0.2,3.6-0.3,5.4-1c2.3-1,4.1-2.5,5.1-4.9c0.5-1.1,1.1-2.1,2-3c0.8-0.7,0.7-1-0.4-1.3S23.7,7,22.9,6.4
		C22.6,6.2,22.2,6,21.9,5.8z"/>
	<path class="st1" d="M7.7,13.7c0.5,0.4,0.6,1,0.3,1.4s-1,0.5-1.5,0.2c-0.5-0.4-0.7-1-0.3-1.5C6.7,13.2,7,13.2,7.7,13.7z"/>
	<path class="st1" d="M8.8,10.3c0.5,0.4,0.7,1.1,0.5,1.5c-0.3,0.4-1,0.5-1.4,0.1s-0.5-1.1-0.2-1.6C7.9,9.9,8.3,9.9,8.8,10.3z"/>
	<path class="st1" d="M10.8,15.1c-0.5-0.3-0.7-0.8-0.5-1.3s0.5-0.7,1-0.4c0.4,0.2,1,0.4,1,1c0,0.4-0.2,0.7-0.5,0.9
		C11.3,15.5,11,15.3,10.8,15.1z"/>
	<path class="st1" d="M10.6,6.2C11,5.6,11.3,5.6,11.8,6c0.6,0.4,0.7,1.1,0.4,1.5s-1.1,0.4-1.5,0.1C10.3,7.2,10.3,6.7,10.6,6.2z"/>
	<path class="st1" d="M13.9,10.2c0.4-0.5,0.7-0.6,1.1-0.3c0.5,0.4,0.7,1.1,0.4,1.5s-0.7,0.5-1.3,0.1C13.6,11.1,13.5,10.8,13.9,10.2z
		"/>
	<path class="st1" d="M15.3,14.9c0.3-0.3,0.6-0.5,1-0.1c0.6,0.4,0.8,1,0.4,1.5c-0.3,0.4-1,0.5-1.4,0.2
		C14.9,16.1,14.9,15.4,15.3,14.9z"/>
	<path class="st1" d="M18.9,6.4C19.2,5.9,19.6,6,20,6.2c0.5,0.3,0.7,1.1,0.4,1.5c-0.3,0.4-1,0.4-1.4,0.1C18.5,7.4,18.5,6.9,18.9,6.4
		z"/>
	<path class="st1" d="M15.5,6c-0.6-0.4-0.8-0.9-0.4-1.2c0.3-0.3,0.6-0.5,1.1-0.1s0.7,1,0.3,1.4C16.2,6.4,15.9,6.3,15.5,6z"/>
	<path class="st2" d="M10.8,9.6c0.3-0.3,0.6-0.6,1-0.3c0.5,0.4,0.6,0.9,0.3,1.3c-0.3,0.4-0.5,0.3-0.8,0.1
		C10.9,10.4,10.6,10.1,10.8,9.6z"/>
</g>
</svg>
