<?xml version="1.0" encoding="utf-8"?>
<!-- Generator: Adobe Illustrator 21.0.0, SVG Export Plug-In . SVG Version: 6.00 Build 0)  -->
<svg version="1.1" id="Layer_1" xmlns="http://www.w3.org/2000/svg" xmlns:xlink="http://www.w3.org/1999/xlink" x="0px" y="0px"
	 viewBox="0 0 30 27.8" style="enable-background:new 0 0 30 27.8;" xml:space="preserve">
<style type="text/css">
	.st0{fill:#FFFFFF;}
	.st1{fill:#972C35;}
</style>
<g>
	<path class="st0" d="M26.3,3.5c-0.1,0-0.1-0.1-0.2-0.1c0.1,0.1,0.2,0.1,0.4,0.1c0,0,0.1,0,0.1-0.1c0,0,0,0,0.1,0c0,0,0-0.1,0.1-0.1
		c0.1-0.1,0.1-0.1,0.2,0c0,0.1,0.1,0.1,0.2,0.1c0.1,0,0.1,0,0.2,0c0.1,0.1,0.2,0,0.2-0.1c0,0,0,0,0,0c0,0.2-0.1,0.3-0.3,0.2
		c0,0-0.1,0-0.1,0c0,0,0,0.1,0.1,0.1c0.2,0,0.3,0.2,0.4,0.4c0.1,0.1,0.2,0.2,0.3,0.3c0.2,0.1,0.3,0.2,0.3,0.4c0,0.1,0.1,0.2,0.1,0.2
		c0,0.1,0.1,0.1,0.2,0.1c0.1,0,0.2-0.1,0.2-0.2c0,0.1,0,0.1,0,0.2c-0.1,0.1-0.2,0.2-0.4,0.1c-0.1,0.2-0.1,0.3,0.1,0.5
		c0,0.1,0.1,0.1,0.1,0.2c0.1,0.1,0.2,0.2,0.2,0.2c0.1,0.2,0.2,0.4,0.3,0.6c0.1,0.2,0,0.3,0,0.5c0,0,0,0,0,0c0,0,0-0.1,0-0.1
		c0-0.1,0-0.2,0-0.4c-0.1-0.2-0.1-0.3-0.2-0.5c-0.1-0.2-0.2-0.3-0.4-0.5c0,0,0,0,0,0c-0.1,0.2-0.1,0.5-0.2,0.7C28,6.7,28,6.8,28,6.9
		c0,0.1,0,0.2,0,0.2c0,0.3,0,0.6,0.1,0.9c0,0,0,0,0,0.1C28,8.1,28,8,28,8c0-0.1-0.1-0.2-0.1-0.3c0-0.2,0-0.4,0-0.6
		c0-0.3,0-0.5,0.1-0.8c0-0.1,0-0.1,0-0.2C28,6.2,28,6.2,28,6.3c-0.1,0.4-0.3,0.7-0.6,1c-0.1,0.1-0.1,0.1-0.2,0.2
		C27.1,7.7,27,7.8,26.8,8c0,0,0,0,0,0.1c-0.1,0.1-0.2,0.3-0.3,0.4c-0.2,0.3-0.4,0.5-0.7,0.6c-0.1,0.1-0.2,0.2-0.3,0.3
		c-0.1,0.1-0.2,0.2-0.3,0.3c-0.1,0.1-0.3,0.2-0.5,0.3c-0.1,0.1-0.3,0.2-0.4,0.2c-0.1,0.1-0.3,0.1-0.4,0.2c-0.1,0.1-0.2,0.1-0.3,0.2
		c-0.2,0.1-0.3,0.2-0.4,0.4c-0.1,0.2-0.3,0.3-0.4,0.5c-0.1,0.1-0.2,0.3-0.3,0.4c-0.1,0.1-0.1,0.1-0.2,0.2c-0.2,0.3-0.3,0.5-0.5,0.7
		c-0.1,0.1-0.2,0.3-0.3,0.4c-0.2,0.2-0.4,0.4-0.6,0.5c0,0-0.1,0.1-0.1,0.1c-0.2,0.2-0.4,0.4-0.5,0.6c-0.2,0.3-0.5,0.5-0.8,0.7
		c-0.2,0.1-0.4,0.3-0.6,0.4c-0.1,0.1-0.3,0.3-0.4,0.4c-0.2,0.2-0.4,0.4-0.7,0.4c-0.2,0.1-0.5,0.2-0.6,0.4c-0.1,0.1-0.2,0.2-0.4,0.3
		c-0.4,0.2-0.6,0.5-0.9,0.8c-0.2,0.2-0.3,0.4-0.5,0.5c-0.1,0.1-0.2,0.3-0.3,0.4c-0.1,0.1-0.2,0.3-0.3,0.4c-0.1,0.1-0.3,0.2-0.4,0.3
		c-0.1,0-0.1,0.1-0.2,0.1c-0.1,0.1-0.2,0.2-0.4,0.4c-0.2,0.1-0.4,0.2-0.5,0.3c-0.2,0.1-0.4,0.2-0.7,0.2c0,0-0.1,0-0.1,0
		c-0.1,0-0.2,0-0.2,0.1c-0.2,0.1-0.4,0.2-0.6,0.3c0,0-0.1,0.1-0.1,0.1c-0.1,0-0.3,0.1-0.4,0.2c-0.1,0.1-0.2,0.2-0.3,0.2
		c-0.1,0.1-0.2,0.2-0.4,0.2c0,0-0.1,0-0.1,0.1C10.1,21.8,9.8,22,9.5,22c-0.1,0-0.1,0-0.2,0.1c-0.1,0.1-0.1,0.1-0.2,0.1c0,0,0,0,0,0
		c-0.2,0.3-0.5,0.4-0.8,0.5c-0.1,0-0.2,0.1-0.3,0.1C7.8,23,7.6,23,7.4,23.1c-0.2,0.1-0.5,0.1-0.7,0.2c-0.2,0.1-0.5,0.1-0.7,0.3
		c-0.1,0-0.2,0.1-0.2,0.1c-0.2,0.1-0.4,0.1-0.6,0.2C5,23.9,4.8,24,4.6,24.1c-0.2,0.1-0.3,0.2-0.5,0.2c-0.2,0.1-0.4,0.2-0.5,0.5
		c0,0.1-0.1,0.2-0.1,0.3c-0.1,0.2-0.2,0.4-0.2,0.6c0,0.1-0.1,0.2-0.1,0.3c0,0,0,0.1,0,0.1c0,0,0-0.1,0-0.1c0-0.2,0-0.3,0.1-0.5
		c0-0.2,0.1-0.3,0.2-0.5c0-0.1,0.1-0.1,0.1-0.2c0-0.2,0.1-0.3,0.2-0.4c0,0,0.1-0.1,0.1-0.1c-0.1,0-0.2,0-0.2,0
		c-0.1,0.1-0.2,0.1-0.2,0.1c-0.1,0-0.1,0.1-0.2,0.1c-0.2,0.1-0.3,0.3-0.4,0.5c-0.1,0.1-0.1,0.3-0.1,0.4c0,0,0,0.1-0.1,0.1
		c0.1-0.5,0.2-1,0.7-1.2c-0.1,0-0.1,0-0.1,0c0,0,0,0-0.1,0c-0.1,0-0.2,0-0.3,0.1c-0.3,0.3-0.6,0.7-0.9,1c0,0,0,0.1-0.1,0.1
		c0-0.1,0-0.1,0-0.1C2,25.3,2.2,25,2.5,24.7c0,0,0.1-0.1,0.1-0.1c-0.2,0-0.3,0.1-0.4,0.1c-0.4,0.1-0.6,0.4-0.8,0.8c0,0,0,0,0-0.1
		c0.1-0.2,0.3-0.5,0.5-0.6c0.2-0.2,0.5-0.3,0.8-0.4c0.1,0,0.2,0,0.2-0.1C3,24.2,3.2,24,3.3,23.9c0,0,0,0,0-0.1c0,0,0,0-0.1,0
		C3,23.9,2.8,24,2.6,24.1c-0.2,0.1-0.3,0.2-0.5,0.2c-0.1,0-0.1,0-0.2,0c0,0,0,0,0,0c0.2,0,0.4-0.1,0.6-0.3c0.3-0.2,0.5-0.3,0.8-0.4
		c0.1,0,0.1-0.1,0.1-0.1c0.1-0.1,0.1-0.3,0.2-0.4c0,0,0,0,0-0.1c-0.1,0.1-0.2,0.1-0.3,0.2c-0.2,0.2-0.5,0.3-0.8,0.4
		c-0.1,0-0.2,0-0.2,0.1c0,0-0.1,0.1-0.1,0c0.1-0.1,0.2-0.2,0.3-0.2c0.2,0,0.3-0.1,0.5-0.2c0.1-0.1,0.3-0.2,0.4-0.2
		C3.6,23.1,3.7,23,3.8,23c0.1-0.1,0.1-0.1,0.3-0.2c0.2,0,0.2-0.2,0.4-0.3c0.1-0.1,0.2-0.2,0.3-0.4c0.1-0.2,0.3-0.4,0.4-0.6
		c0,0,0,0,0.1-0.1C5.5,21.2,5.8,21,6,20.7c0.2-0.2,0.3-0.4,0.4-0.7c0.1-0.2,0.2-0.3,0.3-0.5c0.1-0.1,0.2-0.3,0.2-0.5
		c0-0.1,0.1-0.2,0.1-0.3c0.1-0.1,0.2-0.2,0.2-0.4c0.1-0.3,0.2-0.5,0.4-0.8c0.1-0.1,0.1-0.2,0.2-0.3C8,17.1,8.1,17,8.2,16.8
		c0-0.1,0.1-0.1,0.1-0.1c0.1-0.1,0.2-0.2,0.2-0.3c0,0,0.1-0.1,0.1-0.1c0.1-0.1,0.2-0.1,0.2-0.2C9,16,9.1,16,9.2,15.9
		c0.2-0.1,0.4-0.2,0.5-0.3c0-0.1,0.1-0.1,0.1-0.2c0.1-0.1,0.1-0.1,0.1-0.2c0-0.1,0.1-0.1,0.1-0.2c0-0.2,0.2-0.2,0.3-0.3
		c0.1,0,0.1-0.1,0.1-0.2c0-0.1,0.1-0.2,0.1-0.3c0,0,0-0.1,0.1-0.1c0.1-0.1,0.1-0.1,0.2-0.2c0.1-0.2,0.3-0.4,0.4-0.5
		c0.1-0.1,0.2-0.3,0.3-0.4c0.1-0.1,0.1-0.1,0.2-0.2c0-0.1,0.1-0.2,0.2-0.3c0.2-0.1,0.3-0.3,0.4-0.5c0,0,0.1-0.1,0.1-0.1
		c0.3-0.2,0.4-0.4,0.7-0.6c0,0,0,0,0,0c0.1-0.1,0.3-0.2,0.4-0.3c0.2-0.1,0.3-0.2,0.5-0.4c0.1-0.1,0.1-0.2,0.2-0.2
		c0.3-0.2,0.5-0.5,0.7-0.7c0.2-0.1,0.3-0.3,0.4-0.5c0.2-0.2,0.4-0.4,0.6-0.5c0.3-0.3,0.6-0.5,1-0.6c0.1,0,0.2-0.1,0.2-0.1
		c0,0,0.1-0.1,0.2-0.1C17.7,8,18,7.9,18.2,7.6c0.1-0.1,0.2-0.2,0.3-0.3c0.1-0.1,0.3-0.2,0.4-0.4c0.2-0.2,0.4-0.4,0.6-0.5
		c0.1,0,0.1-0.1,0.1-0.1c0.1,0,0.1-0.1,0.2-0.1c0.1,0,0.1-0.1,0.2-0.1c0.1-0.1,0.3-0.2,0.4-0.2c0.1,0,0.3-0.1,0.4-0.2
		c0.1-0.1,0.2-0.1,0.3-0.2c0.1,0,0.1-0.1,0.2-0.1c0.1-0.1,0.1-0.2,0.2-0.2c0.2-0.1,0.3-0.2,0.5-0.4c0.1-0.1,0.3-0.3,0.4-0.4
		c0.1-0.1,0.2-0.1,0.3-0.2c0.1-0.1,0.2-0.1,0.2-0.2c0.2-0.2,0.5-0.3,0.8-0.5c0,0,0.1,0,0.1-0.1c0.2-0.1,0.4-0.1,0.7-0.2
		c0.1,0,0.1,0,0.2,0c0.2,0,0.4,0,0.6,0c0.1,0,0.2,0,0.3,0c-0.1-0.1-0.1-0.2-0.2-0.3c0-0.1-0.1-0.1-0.2-0.1c0,0-0.1,0-0.1,0
		c-0.2,0-0.4-0.1-0.6-0.2c-0.1,0-0.2-0.1-0.3-0.1c-0.1,0-0.1-0.1-0.2-0.1c0.2,0.1,0.4,0.2,0.6,0.2c0.1,0,0.1,0,0.1,0
		c0.2,0.1,0.3,0.1,0.5,0.2c0.1,0,0.2,0.1,0.2,0.2c0,0.1,0.1,0.2,0.2,0.3c0,0.1,0.1,0.1,0.2,0.1c0.2,0,0.4,0.1,0.6,0.2c0,0,0,0,0,0
		C26.4,3.6,26.3,3.5,26.3,3.5z"/>
	<g>
		<path class="st1" d="M26.3,3.5c-0.1,0-0.1-0.1-0.2-0.1c0.1,0.1,0.2,0.1,0.4,0.1c0,0,0.1,0,0.1-0.1c0,0,0,0,0.1,0
			c0,0,0-0.1,0.1-0.1c0.1-0.1,0.1-0.1,0.2,0c0,0.1,0.1,0.1,0.2,0.1c0.1,0,0.1,0,0.2,0c0.1,0.1,0.2,0,0.2-0.1c0,0,0,0,0,0
			c0,0.2-0.1,0.3-0.3,0.2c0,0-0.1,0-0.1,0c0,0,0,0.1,0.1,0.1c0.2,0,0.3,0.2,0.4,0.4c0.1,0.1,0.2,0.2,0.3,0.3
			c0.2,0.1,0.3,0.2,0.3,0.4c0,0.1,0.1,0.2,0.1,0.2c0,0.1,0.1,0.1,0.2,0.1c0.1,0,0.2-0.1,0.2-0.2c0,0.1,0,0.1,0,0.2
			c-0.1,0.1-0.2,0.2-0.4,0.1c-0.1,0.2-0.1,0.3,0.1,0.5c0,0.1,0.1,0.1,0.1,0.2c0.1,0.1,0.2,0.2,0.2,0.2c0.1,0.2,0.2,0.4,0.3,0.6
			c0.1,0.2,0,0.3,0,0.5c0,0,0,0,0,0c0,0,0-0.1,0-0.1c0-0.1,0-0.2,0-0.4c-0.1-0.2-0.1-0.3-0.2-0.5c-0.1-0.2-0.2-0.3-0.4-0.5
			c0,0,0,0,0,0c-0.1,0.2-0.1,0.5-0.2,0.7C28,6.7,28,6.8,28,6.9c0,0.1,0,0.2,0,0.2c0,0.3,0,0.6,0.1,0.9c0,0,0,0,0,0.1
			C28,8.1,28,8,28,8c0-0.1-0.1-0.2-0.1-0.3c0-0.2,0-0.4,0-0.6c0-0.3,0-0.5,0.1-0.8c0-0.1,0-0.1,0-0.2C28,6.2,28,6.2,28,6.3
			c-0.1,0.4-0.3,0.7-0.6,1c-0.1,0.1-0.1,0.1-0.2,0.2C27.1,7.7,27,7.8,26.8,8c0,0,0,0,0,0.1c-0.1,0.1-0.2,0.3-0.3,0.4
			c-0.2,0.3-0.4,0.5-0.7,0.6c-0.1,0.1-0.2,0.2-0.3,0.3c-0.1,0.1-0.2,0.2-0.3,0.3c-0.1,0.1-0.3,0.2-0.5,0.3c-0.1,0.1-0.3,0.2-0.4,0.2
			c-0.1,0.1-0.3,0.1-0.4,0.2c-0.1,0.1-0.2,0.1-0.3,0.2c-0.2,0.1-0.3,0.2-0.4,0.4c-0.1,0.2-0.3,0.3-0.4,0.5c-0.1,0.1-0.2,0.3-0.3,0.4
			c-0.1,0.1-0.1,0.1-0.2,0.2c-0.2,0.3-0.3,0.5-0.5,0.7c-0.1,0.1-0.2,0.3-0.3,0.4c-0.2,0.2-0.4,0.4-0.6,0.5c0,0-0.1,0.1-0.1,0.1
			c-0.2,0.2-0.4,0.4-0.5,0.6c-0.2,0.3-0.5,0.5-0.8,0.7c-0.2,0.1-0.4,0.3-0.6,0.4c-0.1,0.1-0.3,0.3-0.4,0.4c-0.2,0.2-0.4,0.4-0.7,0.4
			c-0.2,0.1-0.5,0.2-0.6,0.4c-0.1,0.1-0.2,0.2-0.4,0.3c-0.4,0.2-0.6,0.5-0.9,0.8c-0.2,0.2-0.3,0.4-0.5,0.5c-0.1,0.1-0.2,0.3-0.3,0.4
			c-0.1,0.1-0.2,0.3-0.3,0.4c-0.1,0.1-0.3,0.2-0.4,0.3c-0.1,0-0.1,0.1-0.2,0.1c-0.1,0.1-0.2,0.2-0.4,0.4c-0.2,0.1-0.4,0.2-0.5,0.3
			c-0.2,0.1-0.4,0.2-0.7,0.2c0,0-0.1,0-0.1,0c-0.1,0-0.2,0-0.2,0.1c-0.2,0.1-0.4,0.2-0.6,0.3c0,0-0.1,0.1-0.1,0.1
			c-0.1,0-0.3,0.1-0.4,0.2c-0.1,0.1-0.2,0.2-0.3,0.2c-0.1,0.1-0.2,0.2-0.4,0.2c0,0-0.1,0-0.1,0.1C10.1,21.8,9.8,22,9.5,22
			c-0.1,0-0.1,0-0.2,0.1c-0.1,0.1-0.1,0.1-0.2,0.1c0,0,0,0,0,0c-0.2,0.3-0.5,0.4-0.8,0.5c-0.1,0-0.2,0.1-0.3,0.1
			C7.8,23,7.6,23,7.4,23.1c-0.2,0.1-0.5,0.1-0.7,0.2c-0.2,0.1-0.5,0.1-0.7,0.3c-0.1,0-0.2,0.1-0.2,0.1c-0.2,0.1-0.4,0.1-0.6,0.2
			C5,23.9,4.8,24,4.6,24.1c-0.2,0.1-0.3,0.2-0.5,0.2c-0.2,0.1-0.4,0.2-0.5,0.5c0,0.1-0.1,0.2-0.1,0.3c-0.1,0.2-0.2,0.4-0.2,0.6
			c0,0.1-0.1,0.2-0.1,0.3c0,0,0,0.1,0,0.1c0,0,0-0.1,0-0.1c0-0.2,0-0.3,0.1-0.5c0-0.2,0.1-0.3,0.2-0.5c0-0.1,0.1-0.1,0.1-0.2
			c0-0.2,0.1-0.3,0.2-0.4c0,0,0.1-0.1,0.1-0.1c-0.1,0-0.2,0-0.2,0c-0.1,0.1-0.2,0.1-0.2,0.1c-0.1,0-0.1,0.1-0.2,0.1
			c-0.2,0.1-0.3,0.3-0.4,0.5c-0.1,0.1-0.1,0.3-0.1,0.4c0,0,0,0.1-0.1,0.1c0.1-0.5,0.2-1,0.7-1.2c-0.1,0-0.1,0-0.1,0c0,0,0,0-0.1,0
			c-0.1,0-0.2,0-0.3,0.1c-0.3,0.3-0.6,0.7-0.9,1c0,0,0,0.1-0.1,0.1c0-0.1,0-0.1,0-0.1C2,25.3,2.2,25,2.5,24.7c0,0,0.1-0.1,0.1-0.1
			c-0.2,0-0.3,0.1-0.4,0.1c-0.4,0.1-0.6,0.4-0.8,0.8c0,0,0,0,0-0.1c0.1-0.2,0.3-0.5,0.5-0.6c0.2-0.2,0.5-0.3,0.8-0.4
			c0.1,0,0.2,0,0.2-0.1C3,24.2,3.2,24,3.3,23.9c0,0,0,0,0-0.1c0,0,0,0-0.1,0C3,23.9,2.8,24,2.6,24.1c-0.2,0.1-0.3,0.2-0.5,0.2
			c-0.1,0-0.1,0-0.2,0c0,0,0,0,0,0c0.2,0,0.4-0.1,0.6-0.3c0.3-0.2,0.5-0.3,0.8-0.4c0.1,0,0.1-0.1,0.1-0.1c0.1-0.1,0.1-0.3,0.2-0.4
			c0,0,0,0,0-0.1c-0.1,0.1-0.2,0.1-0.3,0.2c-0.2,0.2-0.5,0.3-0.8,0.4c-0.1,0-0.2,0-0.2,0.1c0,0-0.1,0.1-0.1,0
			c0.1-0.1,0.2-0.2,0.3-0.2c0.2,0,0.3-0.1,0.5-0.2c0.1-0.1,0.3-0.2,0.4-0.2C3.6,23.1,3.7,23,3.8,23c0.1-0.1,0.1-0.1,0.3-0.2
			c0.2,0,0.2-0.2,0.4-0.3c0.1-0.1,0.2-0.2,0.3-0.4c0.1-0.2,0.3-0.4,0.4-0.6c0,0,0,0,0.1-0.1C5.5,21.2,5.8,21,6,20.7
			c0.2-0.2,0.3-0.4,0.4-0.7c0.1-0.2,0.2-0.3,0.3-0.5c0.1-0.1,0.2-0.3,0.2-0.5c0-0.1,0.1-0.2,0.1-0.3c0.1-0.1,0.2-0.2,0.2-0.4
			c0.1-0.3,0.2-0.5,0.4-0.8c0.1-0.1,0.1-0.2,0.2-0.3C8,17.1,8.1,17,8.2,16.8c0-0.1,0.1-0.1,0.1-0.1c0.1-0.1,0.2-0.2,0.2-0.3
			c0,0,0.1-0.1,0.1-0.1c0.1-0.1,0.2-0.1,0.2-0.2C9,16,9.1,16,9.2,15.9c0.2-0.1,0.4-0.2,0.5-0.3c0-0.1,0.1-0.1,0.1-0.2
			c0.1-0.1,0.1-0.1,0.1-0.2c0-0.1,0.1-0.1,0.1-0.2c0-0.2,0.2-0.2,0.3-0.3c0.1,0,0.1-0.1,0.1-0.2c0-0.1,0.1-0.2,0.1-0.3
			c0,0,0-0.1,0.1-0.1c0.1-0.1,0.1-0.1,0.2-0.2c0.1-0.2,0.3-0.4,0.4-0.5c0.1-0.1,0.2-0.3,0.3-0.4c0.1-0.1,0.1-0.1,0.2-0.2
			c0-0.1,0.1-0.2,0.2-0.3c0.2-0.1,0.3-0.3,0.4-0.5c0,0,0.1-0.1,0.1-0.1c0.3-0.2,0.4-0.4,0.7-0.6c0,0,0,0,0,0
			c0.1-0.1,0.3-0.2,0.4-0.3c0.2-0.1,0.3-0.2,0.5-0.4c0.1-0.1,0.1-0.2,0.2-0.2c0.3-0.2,0.5-0.5,0.7-0.7c0.2-0.1,0.3-0.3,0.4-0.5
			c0.2-0.2,0.4-0.4,0.6-0.5c0.3-0.3,0.6-0.5,1-0.6c0.1,0,0.2-0.1,0.2-0.1c0,0,0.1-0.1,0.2-0.1C17.7,8,18,7.9,18.2,7.6
			c0.1-0.1,0.2-0.2,0.3-0.3c0.1-0.1,0.3-0.2,0.4-0.4c0.2-0.2,0.4-0.4,0.6-0.5c0.1,0,0.1-0.1,0.1-0.1c0.1,0,0.1-0.1,0.2-0.1
			c0.1,0,0.1-0.1,0.2-0.1c0.1-0.1,0.3-0.2,0.4-0.2c0.1,0,0.3-0.1,0.4-0.2c0.1-0.1,0.2-0.1,0.3-0.2c0.1,0,0.1-0.1,0.2-0.1
			c0.1-0.1,0.1-0.2,0.2-0.2c0.2-0.1,0.3-0.2,0.5-0.4c0.1-0.1,0.3-0.3,0.4-0.4c0.1-0.1,0.2-0.1,0.3-0.2c0.1-0.1,0.2-0.1,0.2-0.2
			c0.2-0.2,0.5-0.3,0.8-0.5c0,0,0.1,0,0.1-0.1c0.2-0.1,0.4-0.1,0.7-0.2c0.1,0,0.1,0,0.2,0c0.2,0,0.4,0,0.6,0c0.1,0,0.2,0,0.3,0
			c-0.1-0.1-0.1-0.2-0.2-0.3c0-0.1-0.1-0.1-0.2-0.1c0,0-0.1,0-0.1,0c-0.2,0-0.4-0.1-0.6-0.2c-0.1,0-0.2-0.1-0.3-0.1
			c-0.1,0-0.1-0.1-0.2-0.1c0.2,0.1,0.4,0.2,0.6,0.2c0.1,0,0.1,0,0.1,0c0.2,0.1,0.3,0.1,0.5,0.2c0.1,0,0.2,0.1,0.2,0.2
			c0,0.1,0.1,0.2,0.2,0.3c0,0.1,0.1,0.1,0.2,0.1c0.2,0,0.4,0.1,0.6,0.2c0,0,0,0,0,0C26.4,3.6,26.3,3.5,26.3,3.5z M24.2,3.9
			c-0.4,0-0.6,0.2-0.9,0.4C23,4.6,22.8,4.8,22.6,5c-0.1,0.1-0.2,0.3-0.4,0.3c-0.2,0.2-0.4,0.3-0.7,0.5c-0.2,0.1-0.4,0.2-0.6,0.4
			c-0.1,0.1-0.2,0.2-0.4,0.2c-0.3,0.1-0.5,0.2-0.8,0.4c0,0,0,0,0,0c-0.1,0.1-0.1,0.1,0,0.2c0.1,0.1,0.1,0.1,0.1,0.2
			c0.1,0.1,0.1,0.1,0.2,0c0.1-0.1,0.1-0.1,0.1-0.2c0.1-0.2,0.2-0.3,0.3-0.4c0.3-0.2,0.6-0.4,0.9-0.6c0.2-0.1,0.4-0.2,0.6-0.3
			c0.1-0.1,0.2-0.1,0.4-0.2c0.1,0,0.1-0.1,0.1-0.1c0.2-0.3,0.5-0.6,0.7-0.9c0.1-0.1,0.2-0.1,0.3-0.2c0.3-0.2,0.7-0.3,1-0.4
			c0.1,0,0.1,0,0.2,0c0.1,0,0.1,0,0.1-0.1c-0.1,0-0.2,0.1-0.3,0.1C24.4,3.9,24.3,3.9,24.2,3.9z M19.2,10.6
			C19.2,10.5,19.2,10.5,19.2,10.6c0.2-0.1,0.3-0.3,0.4-0.4c0.1-0.1,0.2-0.2,0.3-0.2c0.2-0.2,0.4-0.3,0.6-0.5
			c0.1-0.1,0.2-0.2,0.3-0.3c0-0.1,0.1-0.1,0.1-0.2c0,0,0,0,0,0c-0.1-0.1-0.1-0.3-0.2-0.4c-0.2,0.2-0.3,0.4-0.5,0.6
			c-0.1,0.2-0.3,0.3-0.5,0.4c-0.2,0.1-0.4,0.3-0.6,0.4c0,0,0,0-0.1,0c0-0.1,0.1-0.1,0.1-0.1c0.2-0.1,0.4-0.3,0.6-0.4
			c0.2-0.1,0.4-0.3,0.5-0.5c0.1-0.1,0.2-0.2,0.3-0.3c0.1-0.1,0.1-0.1,0.1-0.2c0-0.1,0-0.2-0.1-0.2c0,0-0.1,0-0.1,0
			c-0.3,0.3-0.6,0.6-0.9,0.9c-0.2,0.2-0.4,0.3-0.6,0.5c-0.1,0-0.1,0.1-0.1,0.1c0,0-0.1,0.1-0.2,0.1c0.1-0.1,0.2-0.3,0.4-0.4
			c0.3-0.2,0.5-0.4,0.8-0.7c0.2-0.2,0.4-0.4,0.5-0.6c0,0,0.1,0,0-0.1c0,0-0.1,0-0.1,0c-0.2,0.2-0.3,0.4-0.5,0.6
			c-0.1,0.2-0.3,0.3-0.5,0.4c-0.3,0.2-0.5,0.4-0.8,0.6c0.1-0.2,0.3-0.3,0.4-0.4c0.2-0.1,0.4-0.3,0.5-0.4c0.1-0.1,0.2-0.2,0.3-0.3
			C19.9,8.3,20,8.1,20.1,8c0.1-0.1,0.1-0.1,0-0.2c0,0,0-0.1-0.1-0.1c-0.1,0-0.1-0.1-0.1-0.2c0-0.1,0-0.1-0.1-0.1
			c-0.1,0-0.1,0-0.1,0.1c-0.1,0.1-0.3,0.2-0.4,0.4c-0.2,0.1-0.3,0.3-0.5,0.5c0,0.1-0.1,0.1-0.2,0.1c-0.2,0.1-0.3,0.2-0.5,0.2
			c-0.1,0-0.1,0-0.2,0c-0.2,0-0.4,0.1-0.5,0.2c-0.2,0.1-0.3,0.3-0.4,0.4c0,0,0,0,0,0c-0.1,0-0.1,0.1-0.2,0.1
			c-0.1,0.2-0.3,0.3-0.4,0.5c-0.1,0.1-0.2,0.3-0.3,0.4c-0.2,0.3-0.4,0.5-0.6,0.7c-0.2,0.2-0.3,0.3-0.5,0.5c-0.1,0.1-0.2,0.1-0.3,0.1
			c-0.2,0.1-0.4,0.2-0.6,0.2s-0.4,0.2-0.5,0.3c0,0,0,0-0.1,0c0-0.1,0.1-0.1,0.2-0.2c0,0,0.1,0,0.1-0.1c0,0,0.1,0,0-0.1
			c0,0-0.1-0.1-0.1-0.1c0,0-0.1,0-0.1,0c-0.1,0-0.3,0.1-0.4,0.2c-0.1,0.1-0.3,0.2-0.3,0.3c-0.1,0.1-0.2,0.2-0.3,0.3
			c-0.2,0.1-0.3,0.3-0.5,0.5c-0.1,0.1-0.2,0.2-0.3,0.3c-0.2,0.3-0.5,0.6-0.7,0.9c-0.1,0.1-0.1,0.3-0.2,0.3c0,0-0.1,0.1-0.1,0.1
			c0,0,0-0.1,0-0.1c0.1-0.1,0.2-0.2,0.3-0.4c0-0.1,0.1-0.2,0.2-0.3c0.2-0.2,0.4-0.4,0.5-0.7c0.1-0.2,0.3-0.3,0.4-0.4
			c0.2-0.3,0.5-0.5,0.7-0.7c0.2-0.2,0.4-0.3,0.6-0.5c0.1-0.1,0.3-0.2,0.4-0.3c0.1,0,0.1-0.1,0.2-0.1c0.1-0.1,0.2-0.2,0.3-0.3
			c0.1-0.1,0.1-0.2,0.2-0.2c-0.1,0.2-0.2,0.4-0.4,0.6c-0.1,0.1-0.2,0.2-0.4,0.3c0,0,0,0,0,0c0.1,0.2,0.1,0.2,0.3,0.1
			c0.2-0.1,0.4-0.1,0.5-0.2c0.1,0,0.3-0.1,0.4-0.2c0.3-0.3,0.6-0.5,0.9-0.9c0.1-0.1,0.2-0.2,0.3-0.4c0.1-0.1,0.1-0.2,0.2-0.2
			c0.2-0.2,0.3-0.3,0.4-0.5C16.9,9.3,17,9.2,17,9.1C17.1,9,17.1,9,17.2,9c0,0,0.1,0,0.1,0c0.1-0.1,0.2-0.1,0.2-0.2
			c0.1-0.1,0.3-0.2,0.4-0.2c0.3-0.1,0.5-0.1,0.7-0.3c0.1,0,0.1-0.1,0.1-0.1C18.9,8,19,7.9,19.2,7.8c0.2-0.2,0.4-0.3,0.5-0.5
			c0,0,0,0,0-0.1c-0.1-0.1-0.1-0.1-0.2-0.1c0,0-0.1,0-0.1-0.1C19.3,7,19.3,7,19.3,6.8c0,0,0,0,0,0c0,0-0.1,0-0.1,0
			c-0.2,0.2-0.4,0.3-0.5,0.5s-0.3,0.3-0.5,0.5c-0.1,0.2-0.3,0.3-0.5,0.3c-0.2,0-0.3,0.1-0.5,0.2c-0.1,0-0.2,0.1-0.3,0.1
			c-0.4,0.1-0.7,0.4-0.9,0.6c-0.1,0.1-0.2,0.2-0.4,0.3c-0.1,0.1-0.2,0.2-0.3,0.3c0.1-0.1,0.2-0.2,0.3-0.3c0.1-0.1,0.3-0.3,0.4-0.4
			C16.2,9,16.3,9,16.4,8.9c0.2-0.1,0.3-0.2,0.5-0.3c0.1-0.1,0.3-0.1,0.4-0.2c0.1-0.1,0.3-0.1,0.4-0.2c0.1,0,0.2-0.1,0.3-0.2
			c0.3-0.2,0.5-0.4,0.8-0.6c0.2-0.1,0.4-0.2,0.5-0.4c0,0,0.1-0.1,0.1,0c0,0.1,0,0.1,0,0.1c-0.1,0.1-0.3,0.2-0.4,0.3
			c-0.2,0.1-0.3,0.3-0.5,0.4c-0.1,0.1-0.3,0.2-0.4,0.3c-0.2,0.1-0.3,0.1-0.5,0.2c-0.3,0.1-0.6,0.3-0.9,0.5c-0.1,0-0.1,0.1-0.2,0.1
			c-0.3,0.1-0.5,0.4-0.7,0.6c-0.2,0.2-0.4,0.4-0.6,0.5c-0.2,0.1-0.3,0.3-0.5,0.4c0,0,0,0,0,0c-0.1,0-0.2,0.1-0.3,0.2
			c-0.1,0.2-0.3,0.3-0.4,0.4c-0.1,0.1-0.2,0.1-0.3,0.2c-0.1,0-0.1,0-0.2,0.1c-0.1,0.1-0.2,0.1-0.3,0.2c-0.1,0.1-0.2,0.2-0.4,0.3
			c-0.1,0.1-0.3,0.2-0.4,0.4c-0.1,0.1-0.2,0.2-0.3,0.3c-0.1,0.1-0.1,0.1-0.2,0.2c-0.1,0.1-0.2,0.2-0.2,0.3c-0.2,0.2-0.4,0.4-0.6,0.7
			c-0.1,0.1-0.2,0.2-0.3,0.4c0,0-0.1,0.1-0.1,0.1c-0.1,0.2-0.2,0.4-0.4,0.6c0,0-0.1,0.1-0.1,0.1c-0.1,0.2-0.2,0.4-0.3,0.5
			c-0.2,0.2-0.4,0.3-0.7,0.5c-0.2,0.1-0.4,0.2-0.6,0.5c0,0-0.1,0.1-0.1,0.1c-0.2,0.1-0.3,0.4-0.4,0.5c-0.1,0.1,0,0.1,0,0.2
			c0.1,0.1,0.2,0.2,0.3,0.3c0,0,0.1,0,0.1,0c0.1-0.1,0.1-0.2,0.2-0.3c0.2-0.3,0.3-0.5,0.5-0.8c0.2-0.2,0.3-0.3,0.5-0.4
			c0.2-0.1,0.4-0.2,0.5-0.4c0.1-0.1,0.2-0.2,0.3-0.3c0,0,0-0.1-0.1-0.1c0,0,0-0.1,0-0.1c0.1,0.1,0.1,0.2,0.2,0.2
			c0.1-0.2,0.2-0.4,0.4-0.6c0.3-0.2,0.5-0.5,0.7-0.9c0.2-0.4,0.5-0.6,0.7-0.9c0.1-0.1,0.3-0.2,0.4-0.3c0.1-0.1,0.2-0.2,0.3-0.2
			c0.1-0.1,0.2-0.2,0.4-0.2c0,0,0.1,0,0.1,0c0,0.1-0.1,0.1-0.2,0.1c-0.1,0.1-0.1,0.1-0.2,0.2c0,0.1-0.1,0.1-0.2,0.2
			c-0.1,0.2-0.2,0.3-0.3,0.5c-0.2,0.2-0.3,0.4-0.6,0.6c-0.2,0.2-0.4,0.3-0.6,0.5c-0.1,0.1-0.3,0.3-0.4,0.4c-0.2,0.1-0.3,0.3-0.5,0.4
			c-0.1,0.1-0.2,0.2-0.2,0.4c0,0,0,0,0,0.1c0,0.1,0,0.1,0,0.2c0,0.1,0.1,0.2,0.2,0.3c0.1,0.1,0.1,0.1,0.1,0.2c0,0.1,0.1,0.1,0.1,0
			c0.2-0.1,0.4-0.2,0.7-0.3c0.2-0.1,0.4-0.3,0.6-0.4c0.1-0.1,0.2-0.1,0.2-0.1c0,0.1-0.1,0.1-0.1,0.1c-0.3,0.2-0.5,0.4-0.8,0.5
			c-0.2,0.1-0.3,0.2-0.5,0.3c0,0-0.1,0-0.1,0.1c0,0-0.1,0-0.1,0c0,0,0-0.1-0.1-0.1c0-0.1-0.1-0.2-0.2-0.2c-0.1-0.1-0.1-0.2-0.1-0.3
			c0-0.1-0.1-0.2-0.1-0.3c-0.1,0-0.2,0.1-0.2,0.2c0,0-0.1,0.1-0.1,0.1c-0.2,0.2-0.3,0.3-0.5,0.4c-0.2,0.1-0.4,0.3-0.6,0.5
			C9.1,16.9,9,17,8.9,17.2c-0.1,0.1-0.2,0.3-0.3,0.5c0,0,0,0.1-0.1,0.1c-0.1,0.1-0.2,0.3-0.4,0.4c0,0,0,0,0-0.1
			c0-0.1,0.1-0.1,0.1-0.2c0.1-0.1,0.1-0.2,0-0.2c-0.1-0.1-0.1-0.1-0.2-0.2c-0.1,0-0.1-0.1-0.2-0.2c-0.1,0-0.1,0.1-0.1,0.1
			c-0.2,0.3-0.3,0.6-0.4,0.9c-0.1,0.1-0.1,0.3-0.2,0.4c0,0.1-0.1,0.1-0.1,0.2c-0.1,0.2-0.2,0.4-0.3,0.6c-0.1,0.1-0.2,0.3-0.2,0.4
			c-0.2,0.3-0.4,0.6-0.6,0.9c-0.2,0.2-0.4,0.4-0.6,0.6c-0.1,0.1-0.2,0.2-0.3,0.3C5,22,4.9,22.2,4.8,22.4c-0.1,0.1-0.2,0.2-0.3,0.3
			c-0.1,0-0.1,0.1-0.2,0.1C4.2,22.9,4.1,23,4,23c-0.1,0.1-0.2,0.2-0.3,0.4c0,0,0,0,0,0.1c0,0,0.1,0,0.1,0c0.1,0,0.2-0.1,0.3-0.1
			c0.3-0.1,0.5-0.3,0.6-0.5c0,0,0.1-0.1,0.1-0.2c0,0,0-0.1,0.1-0.1c0,0,0,0,0.1,0c0,0,0,0,0,0.1c0,0-0.1,0.1-0.1,0.1
			c-0.1,0.1-0.2,0.2-0.3,0.3c-0.1,0.1-0.3,0.2-0.4,0.3c-0.2,0.1-0.3,0.1-0.5,0.2c0,0-0.1,0.1-0.1,0.1c-0.1,0.2-0.2,0.3-0.3,0.5
			c0,0,0,0-0.1,0.1c0.1,0,0.2,0,0.2-0.1c0.1-0.2,0.3-0.3,0.5-0.4c0.1-0.1,0.2-0.1,0.4-0.2s0.2-0.1,0.3-0.2c0.1-0.1,0.3-0.2,0.4-0.4
			c0.1-0.1,0.1-0.2,0.1-0.3c0-0.1,0-0.1,0.1-0.2c0,0,0.1-0.1,0.1-0.2c0.1-0.3,0.3-0.6,0.5-0.8c0.2-0.2,0.3-0.4,0.4-0.5
			c0.1-0.1,0.1-0.1,0.1-0.2c0,0,0,0,0,0c0,0,0,0,0,0.1c0,0.1,0,0.2-0.1,0.3c-0.2,0.2-0.4,0.4-0.6,0.6c-0.1,0.1-0.2,0.3-0.3,0.4
			c0,0,0.1,0,0.1,0c0.2-0.2,0.4-0.4,0.6-0.6c0.1-0.2,0.3-0.4,0.4-0.6c0.1-0.1,0.1-0.1,0.2-0.2c0.2-0.1,0.3-0.3,0.4-0.5
			c0.2-0.2,0.4-0.4,0.6-0.6C7.9,19.4,8,19.3,8,19.1c0.1-0.1,0.1-0.2,0.2-0.3c0,0,0,0,0.1,0c0,0,0.1,0,0.1,0c0,0,0,0,0,0
			c0,0-0.1,0-0.1,0c0,0.1-0.1,0.1-0.1,0.2c-0.1,0.2-0.2,0.4-0.4,0.6c-0.2,0.2-0.4,0.4-0.6,0.7c-0.1,0.1-0.2,0.2-0.3,0.3
			c0,0-0.1,0-0.1,0.1c0,0.1-0.2,0.2-0.2,0.3c-0.1,0.2-0.3,0.4-0.4,0.5C6,21.8,5.8,22,5.6,22.1c-0.1,0.1-0.1,0.1-0.2,0.2
			c-0.1,0.1-0.2,0.2-0.2,0.4c0.3-0.2,0.5-0.3,0.7-0.5c0.2-0.2,0.3-0.4,0.5-0.5c0.1-0.1,0.1-0.2,0.2-0.4c0.1-0.2,0.1-0.3,0.2-0.4
			c0.1-0.1,0.1-0.2,0.2-0.3c0.1-0.1,0.2-0.2,0.4-0.3c0.1-0.1,0.2-0.1,0.3-0.2C7.7,20,7.8,20,7.9,19.9c0.2-0.1,0.3-0.3,0.4-0.5
			c0-0.1,0.1-0.1,0.2-0.1c-0.2,0.3-0.4,0.5-0.6,0.7c-0.1,0.1-0.2,0.2-0.2,0.3c-0.1,0.1-0.3,0.2-0.4,0.4c-0.1,0.1-0.2,0.2-0.3,0.3
			c0,0,0,0.1,0,0.1c0,0.1,0,0.1-0.1,0.1c0-0.1,0-0.1,0-0.1c-0.1,0-0.1,0.1-0.1,0.1c0,0.1-0.1,0.2-0.1,0.2c-0.1,0.2-0.2,0.3-0.3,0.5
			C6.2,22,6.1,22.1,6,22.2c-0.1,0.1-0.2,0.2-0.4,0.3c-0.2,0.1-0.3,0.2-0.5,0.4C5.1,23,5,23.1,4.9,23.1c-0.1,0.1-0.2,0.2-0.3,0.3
			c-0.1,0.1-0.3,0.2-0.4,0.3c-0.2,0.1-0.5,0.2-0.7,0.4c0,0-0.1,0.1-0.1,0.1c0,0,0.1,0,0.1,0c0,0,0.1,0,0.1,0c0.3,0,0.3,0,0.6-0.2
			c0.1-0.1,0.1-0.1,0.2-0.2c0.2-0.1,0.4-0.2,0.6-0.3c0.1-0.1,0.3-0.2,0.4-0.2c0,0,0,0,0.1,0c0,0,0,0,0,0.1c0,0,0,0-0.1,0.1
			c-0.2,0.1-0.4,0.2-0.6,0.3c-0.2,0.1-0.4,0.3-0.6,0.5c0.1,0,0.2,0,0.3-0.1C4.7,24,5,23.9,5.2,23.7c0.2-0.1,0.5-0.2,0.7-0.3
			c0.2-0.1,0.4-0.2,0.6-0.3c0.1-0.1,0.2-0.1,0.3-0.2c0.2-0.1,0.5-0.2,0.7-0.3c0.2-0.1,0.5-0.2,0.7-0.3c0.1-0.1,0.3-0.1,0.4-0.2
			c0.1,0,0.1,0,0.2-0.1C9,22.1,9,22,9.1,21.9c0.1-0.1,0.2-0.1,0.2-0.2c0-0.1,0.1-0.1,0.2-0.1c0.2-0.1,0.4-0.2,0.5-0.4
			c0.1-0.1,0.2-0.1,0.3-0.2c0.1,0,0.1-0.1,0.1-0.1c0,0,0,0,0,0c0.1-0.2,0.2-0.3,0.4-0.3c0.1,0,0.1-0.1,0.2-0.1c0,0,0-0.1,0-0.1
			c-0.1-0.1-0.1-0.2-0.2-0.2c-0.1-0.1-0.2-0.1-0.3,0c-0.1,0.1-0.3,0.2-0.4,0.3c-0.1,0.1-0.2,0.1-0.3,0.2c-0.1,0-0.1,0.1-0.2,0.1
			c0-0.1,0-0.1,0.1-0.1c0,0,0-0.1,0-0.1c-0.1-0.1-0.1-0.2-0.2-0.4c-0.1-0.1-0.1-0.2-0.2-0.3c-0.1-0.1-0.1-0.2-0.2-0.3
			c0,0,0.1,0,0.1,0c0.1,0.1,0.1,0.2,0.2,0.2c0.1,0,0.1,0.1,0.1,0.2c0,0.1,0.1,0.2,0.1,0.3c0,0,0,0.1,0.1,0.1c0.1,0.1,0.1,0.1,0.2,0
			c0.2-0.1,0.4-0.2,0.5-0.4c0,0,0.1,0,0.1-0.1c0,0-0.1-0.1-0.1-0.1c0-0.1,0.1,0,0.1,0c-0.1-0.1-0.2-0.1-0.4-0.2c0.1,0,0.2,0,0.3,0.1
			c0.1,0,0.1,0.1,0.2,0.1c0,0,0.1,0,0.1,0c0,0,0,0,0,0c0.2,0,0.3-0.1,0.4-0.2c0.2-0.1,0.3-0.2,0.4-0.3c0.2-0.1,0.3-0.3,0.5-0.4
			c0.1-0.1,0.2-0.1,0.2-0.2c0,0,0,0,0.1,0c0,0,0,0,0,0.1c-0.1,0.1-0.2,0.2-0.3,0.3c-0.1,0.1-0.3,0.2-0.4,0.3
			c-0.1,0.1-0.2,0.2-0.3,0.2c-0.2,0.1-0.3,0.2-0.5,0.3c0.1,0.1,0.3,0.2,0.4,0.3c0,0,0.1,0.1,0.1,0.1c0.2,0.1,0.3,0.2,0.5,0.2
			c0,0,0,0,0.1,0c0.1,0,0.2-0.1,0.3-0.1c0.1,0,0.2-0.1,0.3-0.2c0.1-0.1,0.1-0.1,0.2-0.2c0.1-0.1,0.2-0.1,0.2-0.2
			c0.1-0.1,0.1-0.1,0.2-0.2c0,0,0.1,0,0.1-0.1c0,0,0,0-0.1,0c-0.2,0-0.4,0.1-0.6,0.2c-0.1,0.1-0.3,0.1-0.4,0.2c0,0-0.1,0.1-0.1,0
			l0,0c0.2-0.2,0.4-0.3,0.7-0.4c0.1,0,0.2-0.1,0.3-0.1c0,0,0.1,0,0.1,0c0,0,0-0.1,0-0.1c0,0,0,0-0.1,0c-0.2,0.1-0.4,0.1-0.5,0.2
			c-0.3,0.1-0.6,0.3-0.9,0.5c0,0,0,0,0,0c0.1-0.1,0.2-0.1,0.3-0.2c0.2-0.1,0.5-0.2,0.7-0.4c0.1-0.1,0.2-0.1,0.3-0.1
			c0.1,0,0.1,0,0-0.1c-0.1-0.2-0.1-0.2-0.2-0.1c-0.2,0.1-0.4,0.2-0.6,0.3c-0.2,0.1-0.4,0.3-0.6,0.4c0,0,0,0-0.1,0
			c0-0.1,0.1-0.1,0.1-0.1c0.3-0.2,0.6-0.4,0.8-0.6c0.1-0.1,0.2-0.1,0.4-0.2c0-0.1-0.1-0.2-0.2-0.2c-0.1-0.1-0.1-0.1-0.2-0.2
			c-0.1-0.1-0.1-0.2-0.2-0.3c0-0.1-0.1-0.1-0.1-0.2c0.1,0.2,0.3,0.4,0.4,0.6c0,0,0,0,0,0c0.2,0.2,0.3,0.4,0.4,0.6
			c0,0.1,0.1,0.2,0.2,0.3c0,0,0.1,0,0.1,0c0,0,0.1-0.1,0.1-0.1c0.1-0.1,0.3-0.2,0.5-0.2c0,0,0.1,0,0.1,0c0.1-0.1,0.2-0.2,0.3-0.3
			c0.2-0.1,0.3-0.3,0.4-0.4c0.2-0.1,0.3-0.3,0.4-0.5c0.1-0.1,0.1-0.2,0.2-0.3c0.2-0.2,0.4-0.5,0.6-0.7c0.1-0.1,0.2-0.2,0.3-0.3
			c0.1-0.1,0.3-0.2,0.4-0.3c0.1,0,0.3-0.1,0.4-0.2c0,0,0.1-0.1,0.1,0c-0.2,0.1-0.3,0.2-0.5,0.3c-0.2,0-0.4,0.2-0.5,0.3
			c-0.4,0.4-0.7,0.8-1,1.2c-0.1,0.2-0.3,0.3-0.4,0.5c-0.2,0.2-0.4,0.4-0.6,0.5c0,0-0.1,0.1-0.1,0.1c-0.1,0.1-0.1,0.2-0.1,0.4
			c0,0,0,0,0,0c0.1-0.1,0.2-0.2,0.3-0.2c0.2-0.1,0.3-0.2,0.4-0.3c0.1-0.1,0.2-0.2,0.3-0.4c0.1-0.2,0.3-0.4,0.4-0.5
			c0.1-0.1,0.2-0.2,0.2-0.3c0.1-0.1,0.2-0.2,0.3-0.3c0.2-0.3,0.4-0.4,0.7-0.6c0.2-0.1,0.3-0.2,0.4-0.3c0.2-0.2,0.4-0.3,0.6-0.4
			c0.2-0.1,0.4-0.2,0.5-0.3c0.1-0.1,0.2-0.2,0.3-0.3c0.2-0.2,0.5-0.4,0.7-0.6c0.1-0.1,0.3-0.2,0.4-0.3c0.2-0.1,0.3-0.3,0.5-0.5
			c0.2-0.2,0.3-0.4,0.5-0.6c0.1-0.1,0.3-0.2,0.4-0.4c0.1-0.1,0.2-0.2,0.3-0.3c0.1-0.1,0.2-0.3,0.3-0.4c0.1-0.2,0.3-0.4,0.4-0.6
			c0-0.1,0.1-0.1,0.2-0.2c0.1-0.1,0.1-0.2,0.2-0.3c0.1-0.1,0.1-0.2,0.2-0.3c0,0,0,0,0-0.1c0,0,0-0.1,0-0.1c0.1-0.1,0.2-0.2,0.3-0.3
			c0.1-0.2,0.3-0.3,0.5-0.5c0.2-0.1,0.3-0.2,0.5-0.3c0.2-0.1,0.3-0.2,0.5-0.3c0.1-0.1,0.3-0.2,0.4-0.2c0.2-0.1,0.3-0.1,0.4-0.2
			c0,0,0.1,0,0.1-0.1c0-0.1,0.1-0.2,0.1-0.3c0,0,0,0,0-0.1c-0.1,0-0.1,0.1-0.2,0.1c-0.1,0.1-0.2,0.1-0.3,0.2
			c-0.3,0.2-0.5,0.4-0.8,0.6c-0.1,0.1-0.2,0.1-0.3,0.2c0,0-0.1,0.1-0.2,0.1c-0.2,0.1-0.4,0.2-0.5,0.3c-0.1,0.1-0.2,0.2-0.2,0.2
			c-0.2,0.2-0.3,0.3-0.5,0.6c-0.1,0.1-0.2,0.2-0.3,0.4c-0.1,0.1-0.2,0.2-0.2,0.3c-0.1,0.2-0.2,0.3-0.4,0.5c-0.3,0.3-0.5,0.6-0.7,0.9
			c-0.1,0.2-0.3,0.3-0.4,0.5c-0.2,0.2-0.4,0.3-0.6,0.5c-0.3,0.2-0.5,0.4-0.8,0.6c-0.2,0.1-0.3,0.2-0.5,0.3c-0.1,0.1-0.2,0.2-0.4,0.3
			c-0.1,0.1-0.2,0.2-0.4,0.3c-0.1,0.1-0.2,0.2-0.4,0.3c-0.1,0.1-0.2,0.1-0.3,0.2c0,0,0-0.1,0-0.1c0.1-0.1,0.2-0.2,0.3-0.3
			c0.3-0.2,0.5-0.4,0.7-0.6c0.1-0.1,0.2-0.2,0.3-0.3c0.1-0.1,0.2-0.2,0.3-0.2c0.2-0.1,0.5-0.3,0.7-0.4c0.2-0.2,0.4-0.4,0.6-0.6
			c0.2-0.2,0.3-0.3,0.5-0.5c0.1-0.1,0.1-0.1,0.2-0.2c0.1-0.2,0.3-0.4,0.4-0.6c0.1-0.1,0.2-0.3,0.3-0.4c0.2-0.2,0.3-0.5,0.5-0.7
			c0.1-0.1,0.2-0.2,0.3-0.4c0.1-0.2,0.2-0.3,0.3-0.4c0.1-0.1,0.2-0.2,0.3-0.3c0.2-0.2,0.4-0.3,0.6-0.4c0.1,0,0.2-0.1,0.3-0.2
			c0.2-0.1,0.4-0.3,0.6-0.4C24.9,9,25,9,25,9c-0.1-0.1-0.2-0.1-0.3,0c-0.4,0.3-0.9,0.6-1.3,0.9c-0.1,0.1-0.1,0.1-0.2,0.2
			c-0.1,0.1-0.3,0.3-0.4,0.4c-0.2,0.1-0.3,0.3-0.5,0.4c0,0,0-0.1-0.1-0.1c-0.1,0-0.2-0.1-0.2-0.2c-0.1-0.1-0.1-0.1-0.2-0.1
			c-0.2,0.1-0.4,0.2-0.6,0.4c-0.2,0.1-0.3,0.3-0.5,0.4c-0.1,0.1-0.2,0.2-0.2,0.3c-0.1,0.1-0.2,0.2-0.3,0.3C20.2,12,20.1,12,20,12
			c-0.1,0-0.2,0-0.3,0c0,0-0.1,0-0.1,0c-0.1,0.1-0.3,0.1-0.4,0.2c-0.3,0.2-0.5,0.4-0.8,0.6c-0.2,0.2-0.4,0.3-0.5,0.5
			c-0.1,0.2-0.3,0.3-0.4,0.4c-0.2,0.2-0.4,0.4-0.6,0.5c-0.2,0.2-0.4,0.3-0.7,0.4c-0.1,0-0.2,0.1-0.4,0.2c-0.1,0-0.1,0-0.2,0
			c0-0.1,0-0.1,0.1-0.1c0.2,0,0.3-0.2,0.4-0.2c0.2,0,0.4-0.2,0.6-0.3c0,0,0,0,0.1,0c0.2-0.2,0.3-0.3,0.5-0.5
			c0.1-0.1,0.2-0.2,0.3-0.3c0.1-0.1,0.2-0.2,0.3-0.3c0.1-0.2,0.3-0.3,0.5-0.5c0.2-0.2,0.4-0.3,0.5-0.5c0.2-0.2,0.4-0.3,0.6-0.4
			c0.1,0,0.1,0,0-0.1c0-0.1-0.2-0.2-0.3-0.3c0,0,0,0-0.1,0c-0.1,0.1-0.3,0.2-0.4,0.3c-0.3,0.3-0.7,0.6-1,0.9
			c-0.1,0.1-0.2,0.2-0.3,0.2c-0.2,0.1-0.3,0.2-0.5,0.3c-0.1,0-0.1,0.1-0.2,0.1c-0.1,0-0.2,0.1-0.2,0.2c-0.3,0.2-0.5,0.4-0.9,0.4
			c-0.1,0-0.2,0-0.2,0.1c0,0-0.1,0.1-0.2,0.1c0,0,0-0.1,0-0.1c0,0,0.1-0.1,0.1-0.1c0-0.1,0.1-0.1,0.2-0.1c0.2,0,0.3-0.1,0.5-0.1
			c0.2-0.1,0.3-0.2,0.4-0.3c0.2-0.1,0.4-0.3,0.6-0.4c0.2-0.1,0.3-0.2,0.4-0.3c0.1-0.1,0.2-0.2,0.3-0.3c0.3-0.2,0.5-0.4,0.8-0.7
			c0.1-0.1,0.3-0.2,0.5-0.3c0.1,0,0.1-0.1,0.1-0.2c0-0.1,0-0.1,0-0.1c0.1-0.2,0.3-0.3,0.4-0.5c0.1,0,0.1-0.1,0.2-0.1
			c0.1-0.1,0.3-0.2,0.4-0.4c0.2-0.2,0.4-0.4,0.7-0.7c0.1-0.1,0.1-0.1,0.2-0.1c0.1,0,0.1-0.1,0.2-0.2c0,0,0-0.1,0.1-0.1
			c0,0,0,0,0.1-0.1c0.1-0.1,0.2-0.2,0.3-0.3c0.3-0.2,0.7-0.4,1.1-0.6C23,8.2,23,8.1,23,8.1c0.3-0.2,0.6-0.4,0.9-0.5
			c0.1-0.1,0.1,0,0.2,0c0.1,0.1,0.1,0.2,0.2,0.3c0,0,0,0,0,0c0.1-0.3,0.3-0.4,0.6-0.6c0.1-0.1,0.2-0.1,0.3-0.2
			c0.2-0.1,0.4-0.2,0.5-0.4c0.1-0.1,0.2-0.2,0.3-0.2c0.1-0.1,0.3-0.3,0.4-0.4c0.1-0.2,0.2-0.3,0.4-0.4c0.2-0.2,0.3-0.4,0.5-0.6
			c0.1-0.1,0.1-0.2,0.2-0.2c0.1-0.1,0.1-0.2,0.2-0.2c0,0,0,0,0-0.1c0-0.1-0.1-0.1-0.2-0.1c-0.1,0-0.2-0.1-0.3-0.2c0,0-0.1,0-0.1,0
			c-0.1,0.1-0.3,0.1-0.4,0.2c-0.2,0-0.3,0.1-0.5,0.3c-0.1,0.1-0.2,0.1-0.2,0.2c0,0-0.1,0-0.1,0c0,0,0-0.1,0-0.1
			c0.1,0,0.2-0.1,0.3-0.2c0.1-0.1,0.3-0.2,0.5-0.2c0.1,0,0.2-0.1,0.3-0.1c0,0,0,0,0,0C27.1,4.1,27,4,27,4c0,0,0,0-0.1,0
			c0,0-0.1,0-0.1,0c-0.3,0.1-0.6,0.2-0.9,0.4c-0.1,0-0.2,0.1-0.2,0.2c0,0-0.1,0.1,0,0.1c0.1,0.1,0.1,0.1,0.2,0.2C25.9,4.9,26,5,26,5
			c0,0,0.1,0,0.1,0c0.1,0,0.2,0.1,0.2,0.2c0,0,0,0.1-0.1,0.1c0,0-0.1,0-0.1,0c0,0.1-0.1,0.1-0.2,0.2c-0.1,0.1-0.2,0.1-0.3,0.2
			c0,0-0.1,0-0.1,0.1c-0.2,0.1-0.4,0.3-0.6,0.4c-0.1,0-0.1,0.1-0.1,0.2c0,0,0.1,0,0.1,0c0.1-0.1,0.2-0.1,0.4-0.1
			c0.2,0,0.3-0.1,0.5-0.2C25.9,6,26,6,26,5.9c0.1-0.1,0.2-0.2,0.3-0.3c0,0,0.1,0,0.1,0c0,0,0.1,0,0.1,0c0,0.1,0,0.1-0.1,0.1
			c-0.2,0.1-0.3,0.2-0.4,0.3c-0.1,0.1-0.1,0.1-0.2,0.1c-0.2,0.1-0.4,0.1-0.5,0.2c-0.2,0-0.4,0.2-0.6,0.3c-0.1,0.1-0.2,0.1-0.3,0.2
			c0,0-0.1,0-0.1,0.1C24.3,7,24.2,7,24.1,7.1c-0.1,0-0.1,0.1-0.2,0.1c-0.2,0.2-0.4,0.3-0.6,0.3c-0.2,0.1-0.3,0.1-0.5,0.2
			c0,0,0,0-0.1,0c0-0.1,0.1-0.1,0.2-0.1c0.1-0.1,0.3-0.1,0.5-0.2c0.1-0.1,0.3-0.1,0.4-0.2c0.2-0.1,0.3-0.2,0.4-0.4
			c-0.1,0-0.2,0.1-0.4,0.1c0,0,0.1-0.1,0.1-0.1c0.1-0.1,0.2-0.1,0.4-0.2c0.2-0.1,0.4-0.2,0.5-0.4c0,0,0-0.1,0.1-0.1
			c0.2-0.1,0.3-0.3,0.6-0.4c0.1,0,0.1-0.1,0.2-0.2c0.1-0.1,0.2-0.2,0.3-0.2c0,0,0.1-0.1,0.1-0.2c0,0,0.1-0.1,0.1-0.1
			C26.1,5.1,26,5.1,25.9,5c-0.1,0-0.1,0-0.2,0.1c-0.2,0.2-0.3,0.3-0.5,0.5c-0.1,0.1-0.2,0.2-0.3,0.3c-0.1,0-0.2,0.1-0.2,0.2
			c-0.1,0.1-0.2,0.1-0.3,0.2c-0.2,0.1-0.3,0.2-0.4,0.3c-0.1,0.1-0.2,0.2-0.3,0.3c0-0.1,0.1-0.2,0.2-0.3c0,0,0.1-0.1,0.1-0.1
			C24,6.2,24.2,6.1,24.4,6c0.1-0.1,0.2-0.1,0.3-0.2c0.1-0.1,0.2-0.2,0.4-0.3c0.2-0.2,0.4-0.4,0.5-0.5c0,0,0.1-0.1,0.1-0.1
			c0,0,0-0.1,0-0.1c-0.1-0.1-0.1-0.2-0.3-0.1c-0.1,0-0.2,0.1-0.3,0.2C25,5,24.9,5.1,24.7,5.2c-0.1,0-0.2,0.1-0.2,0.1
			c0-0.1,0.1-0.1,0.2-0.2C24.8,5,25,4.9,25.3,4.8c0.1,0,0.2-0.1,0.2-0.1c-0.1-0.1-0.1-0.1-0.2-0.2c-0.2-0.1-0.2-0.1-0.3,0
			c-0.2,0.1-0.3,0.2-0.4,0.4c-0.1,0.1-0.2,0.2-0.3,0.4c-0.1,0.1-0.2,0.2-0.4,0.2c-0.3,0.2-0.5,0.3-0.7,0.5C23,6,22.9,6.1,22.8,6.1
			c0-0.1,0-0.1,0.1-0.1c0.1-0.1,0.2-0.2,0.3-0.2c0.1-0.1,0.1-0.1,0.2-0.1c0.2-0.2,0.4-0.3,0.6-0.4c0.1,0,0.2-0.1,0.2-0.2
			c0-0.1,0.1-0.1,0.1-0.1c0.2-0.1,0.3-0.3,0.5-0.5C24.9,4.4,25,4.3,25,4.3c0,0,0.1,0,0-0.1c0,0,0,0,0-0.1c0,0,0,0,0.1,0
			c0.1,0.1,0.2,0.2,0.4,0.3c0.1,0,0.1,0,0.1,0c0.2-0.2,0.4-0.3,0.6-0.3C26.4,4,26.6,4,26.8,3.9c0,0,0.1,0,0.1,0c0,0,0.1,0,0.1,0
			c0-0.1,0-0.1,0-0.2s-0.1-0.1-0.1-0.2c0,0,0-0.1-0.1,0c0,0,0,0.1-0.1,0.1c-0.1,0.1-0.2,0.1-0.3,0c0,0-0.1-0.1-0.1,0c0,0,0,0,0,0
			c-0.1,0-0.2,0.1-0.2,0.1c-0.2,0.1-0.3,0.3-0.5,0.4c0,0-0.1,0.1-0.1,0c0-0.1,0-0.1,0.1-0.1c0.1-0.1,0.3-0.2,0.4-0.3
			c0.1-0.1,0.2-0.2,0.4-0.3c-0.1,0-0.2-0.1-0.2-0.1c0,0-0.1,0-0.1,0c-0.1,0.1-0.2,0.2-0.3,0.3c-0.1,0.1-0.2,0.1-0.3,0.2
			c0,0-0.1,0-0.1,0.1c-0.1,0.1-0.1,0-0.2,0.1c0,0,0,0,0,0c-0.1-0.1-0.2,0-0.3,0c-0.3,0.1-0.6,0.2-0.9,0.3c-0.1,0.1-0.2,0.1-0.3,0.2
			c-0.2,0.2-0.3,0.4-0.5,0.6c-0.1,0.1-0.2,0.3-0.3,0.4c0,0,0,0.1,0,0.1c0,0,0,0,0,0c0.2,0.1,0.2,0.1,0.4-0.1c0,0,0.1-0.1,0.1-0.1
			c0.1-0.2,0.2-0.3,0.4-0.5c0.2-0.1,0.5-0.3,0.7-0.4c0.2,0,0.3-0.1,0.5-0.2c0.1,0,0.1,0,0.2-0.1c0,0,0,0,0,0c0,0,0,0,0,0
			c0,0-0.1,0-0.1,0c-0.3,0.2-0.7,0.3-1,0.4c-0.2,0.1-0.3,0.2-0.4,0.3c-0.1,0.1-0.2,0.2-0.3,0.4c0,0.1-0.1,0.1-0.1,0.2
			c0,0-0.1,0.1-0.2,0c-0.1,0-0.2,0-0.2-0.1c-0.2-0.1-0.3,0-0.4,0.1c0,0,0-0.1-0.1,0c-0.5,0.2-0.9,0.5-1.3,0.8
			c-0.1,0.1-0.2,0.3-0.3,0.4c0,0.1-0.1,0.1-0.1,0.2c0,0-0.1,0.1-0.1,0.1c0,0.1,0,0.1-0.1,0.1c0,0.1,0.1,0.1,0.1,0.1
			C20.5,7.3,20.7,7,21,6.8c0.2-0.1,0.3-0.2,0.5-0.3c0.2-0.1,0.3-0.2,0.5-0.3c0.1-0.1,0.3-0.1,0.4-0.2c0,0,0,0,0.1,0
			c0.1-0.1,0.2-0.1,0.3,0.1c0,0,0,0.1-0.1,0.1c-0.2,0.1-0.3,0.2-0.5,0.3c-0.3,0.3-0.7,0.6-1,0.8c-0.2,0.1-0.5,0.3-0.7,0.4
			c0,0,0,0,0,0c-0.1,0-0.1,0.1,0,0.1c0.1,0.1,0.1,0.1,0.2,0.2c0,0,0.1,0.1,0.1,0c0.2-0.2,0.4-0.4,0.7-0.6c0.1-0.1,0.2-0.1,0.3-0.2
			c0.1,0,0.1-0.1,0.2-0.1c0.3-0.2,0.6-0.4,0.9-0.5c0.1-0.1,0.2-0.1,0.3-0.2c0,0,0,0,0.1,0c0.1,0,0.1,0,0.2,0
			c0.2-0.2,0.5-0.3,0.7-0.4c0.1-0.1,0.1-0.1,0.2-0.1c0,0,0.1,0,0.1,0c0.1-0.1,0.2-0.1,0.2-0.1c0.1,0,0.2-0.1,0.3-0.2
			c0,0,0.1-0.1,0.1-0.1c0,0,0,0,0,0c-0.2,0.1-0.3,0.3-0.5,0.4C24.2,5.9,24,6,23.8,6.1c-0.1,0.1-0.2,0.1-0.2,0.1
			c-0.1,0.1-0.2,0.2-0.3,0.2c0,0,0,0,0,0.1c0,0.1,0.1,0.2,0.2,0.2c0,0,0.1,0.1,0.1,0.1c0,0,0.1,0.1,0.1,0.1c0,0.1,0,0.1-0.1,0.1
			c-0.1,0-0.2,0-0.3,0.1c-0.2,0.1-0.5,0.3-0.7,0.4c0,0,0,0,0,0c-0.3,0.3-0.6,0.4-0.9,0.6c-0.2,0.1-0.3,0.3-0.5,0.4
			c-0.1,0-0.1,0.1-0.1,0.2c0,0.2-0.1,0.3-0.3,0.4c-0.2,0.2-0.5,0.4-0.7,0.6c-0.1,0.1-0.3,0.2-0.4,0.4c-0.1,0.1-0.2,0.2-0.2,0.3
			c0,0,0,0,0,0C19.3,10.5,19.3,10.5,19.2,10.6C19.2,10.6,19.2,10.6,19.2,10.6L19.2,10.6z M20.3,11.4c0.1-0.1,0.2-0.2,0.3-0.2
			c0.2-0.2,0.4-0.4,0.7-0.6c0.1-0.1,0.2-0.1,0.3-0.2c0.1-0.1,0.3-0.2,0.5-0.2c0.3,0,0.5-0.1,0.8-0.3c0.2-0.1,0.4-0.2,0.6-0.3
			C23.6,9.4,23.8,9.2,24,9c0.1,0,0.1-0.1,0.2-0.1c0.1-0.1,0.1-0.1,0.2-0.2c0,0,0.1-0.1,0-0.1c0-0.1-0.1-0.1-0.1,0
			c-0.2,0.1-0.3,0.1-0.5,0.2c-0.1,0-0.1,0.1-0.2,0.1c0,0,0-0.1,0-0.1c0.1-0.1,0.3-0.2,0.4-0.2c0,0,0,0,0.1,0c0.1-0.1,0.1-0.1,0-0.2
			c0,0-0.1,0-0.1,0C24,8.3,24,8.4,23.9,8.4c-0.2,0.2-0.4,0.3-0.7,0.4C23,8.9,22.8,9,22.6,9.1c-0.3,0.2-0.5,0.4-0.8,0.5
			c-0.1,0-0.1,0.1-0.1,0.1c0,0.1-0.1,0.1-0.2,0.1c-0.2,0.1-0.3,0.2-0.5,0.4c-0.1,0.1-0.2,0.1-0.3,0.2c-0.3,0.2-0.5,0.4-0.7,0.6
			c-0.2,0.1-0.3,0.3-0.5,0.4c0,0-0.1,0,0,0.1c0,0.1,0.1,0.2,0.1,0.3c0,0.1,0.1,0.1,0.1,0.1c0.2,0.1,0.3,0.1,0.4-0.1
			c0.1-0.1,0.1-0.1,0.2-0.2c0.1-0.2,0.3-0.3,0.4-0.5c0,0,0.1-0.1,0.1-0.1c0.1-0.1,0.2-0.1,0.3-0.2c0.2-0.1,0.3-0.2,0.5-0.3
			c0.1-0.1,0.2-0.1,0.3,0.1c0,0,0.1,0.1,0.1,0.1c0.1,0.1,0.1,0.1,0.2,0c0.2-0.2,0.4-0.4,0.6-0.5c0.1-0.1,0.1-0.2,0.2-0.2
			c0.2-0.2,0.4-0.3,0.7-0.5c0.3-0.2,0.5-0.4,0.8-0.5c0,0,0-0.1,0-0.1c0,0-0.1-0.1-0.1-0.1c0,0-0.1,0-0.1,0c-0.2,0.2-0.5,0.4-0.7,0.6
			c-0.1,0.1-0.2,0.1-0.3,0.2c-0.3,0.1-0.5,0.3-0.7,0.4c-0.3,0.1-0.5,0.2-0.8,0.3c-0.1,0-0.1,0-0.2,0.1c-0.1,0.1-0.3,0.2-0.4,0.3
			c-0.3,0.2-0.6,0.5-0.8,0.8c-0.1,0.1-0.3,0.2-0.4,0.3C20.1,11.5,20.1,11.4,20.3,11.4z M20.6,10.5c0.1-0.1,0.3-0.2,0.4-0.3
			c0.1-0.1,0.3-0.2,0.4-0.3c0,0,0.1-0.1,0.1-0.1c0,0,0.1,0,0.1-0.1c0.1-0.2,0.2-0.2,0.4-0.3c0.1-0.1,0.2-0.2,0.3-0.2
			C22.6,9,23,8.8,23.4,8.6c0.2-0.1,0.4-0.2,0.6-0.3c0,0,0.1-0.1,0.1-0.1c0.1-0.1,0.1-0.1,0-0.2c0-0.1-0.1-0.2-0.2-0.2
			c0,0-0.1,0-0.1,0c-0.1,0-0.1,0.1-0.2,0.1c-0.4,0.2-0.8,0.5-1.2,0.7C22.2,8.7,22,8.9,21.8,9c-0.1,0-0.1,0.1-0.2,0.1
			c-0.1,0.1-0.2,0.2-0.3,0.3c-0.1,0.1-0.1,0.2-0.2,0.2c-0.1,0-0.1,0.1-0.2,0.1c-0.1,0.1-0.2,0.2-0.3,0.2c-0.2,0.1-0.3,0.3-0.4,0.5
			c-0.1,0.2-0.3,0.3-0.5,0.4c-0.1,0.1-0.2,0.2-0.3,0.3c0,0.1,0,0.1,0,0.2c0.1,0.1,0.1,0.1,0.2,0.1c0.2-0.1,0.3-0.3,0.5-0.4
			C20.3,10.8,20.4,10.6,20.6,10.5z M24.9,3.3c-0.2,0-0.3,0-0.5,0.1c-0.1,0.1-0.3,0.1-0.4,0.1c-0.1,0-0.2,0.1-0.2,0.1
			c-0.2,0.1-0.4,0.3-0.6,0.4C23,4,22.9,4.2,22.8,4.3c-0.1,0.1-0.1,0.1-0.2,0.2c-0.1,0.1-0.1,0.1-0.2,0.2C22.2,4.8,22,5,21.8,5.1
			c0,0-0.1,0.1-0.1,0.1c-0.1,0.1-0.3,0.2-0.4,0.3c0,0,0,0,0,0c-0.3,0.2-0.5,0.4-0.8,0.5c-0.2,0-0.3,0.1-0.4,0.2
			c-0.2,0.1-0.4,0.3-0.6,0.4c0,0-0.1,0-0.1,0.1c0,0.1,0.1,0,0.2,0.1c0,0,0,0,0.1,0c0.1,0,0.1-0.1,0.2-0.1c0.1-0.1,0.2-0.1,0.4-0.2
			c0.3-0.1,0.6-0.2,0.8-0.4c0,0,0,0,0,0c0.3-0.2,0.6-0.4,0.9-0.5c0.1-0.1,0.2-0.2,0.3-0.2c0.2-0.1,0.3-0.3,0.5-0.5
			c0.2-0.2,0.4-0.4,0.7-0.6c0.1-0.1,0.1-0.1,0.2-0.2c0.2-0.1,0.4-0.2,0.6-0.2c0.1,0,0.2,0,0.3,0c0.2,0,0.3,0,0.5-0.2
			c0,0,0-0.1,0.1-0.1c0.1,0,0.1,0,0.1-0.1c0-0.1,0.1-0.1,0.1-0.2C25.1,3.3,25,3.3,24.9,3.3z M22,8c0.2-0.1,0.3-0.2,0.5-0.3
			c0.3-0.2,0.5-0.3,0.8-0.4c0.1,0,0.1-0.1,0-0.1C23.2,7,23.1,6.9,23,6.7c0-0.1-0.1-0.1-0.1,0c-0.1,0.1-0.2,0.1-0.3,0.2
			c-0.4,0.2-0.7,0.5-1.1,0.7c-0.2,0.1-0.5,0.3-0.6,0.5c-0.1,0.2-0.1,0.2,0,0.4c0,0.1,0.1,0.1,0.1,0.2c0,0.1,0,0.1,0.1,0.1
			c0.1-0.1,0.2-0.2,0.3-0.3C21.5,8.3,21.8,8.1,22,8z M25,8.2c-0.2,0.1-0.3,0.2-0.5,0.3c-0.1,0-0.1,0.1,0,0.1c0,0,0,0.1,0.1,0.1
			c0,0,0.1,0.1,0.1,0.1c0,0,0.1,0,0.1,0c0,0.1,0.1,0.1,0.2,0.1c0,0,0,0,0.1,0c0.1,0,0.1,0,0.2,0c0.3-0.2,0.6-0.4,0.8-0.7
			c0.2-0.2,0.3-0.4,0.5-0.6c0.1-0.2,0.2-0.4,0.4-0.6C27,7,27.1,6.8,27.3,6.6c0.1-0.1,0.2-0.2,0.2-0.3c0.1-0.3,0.3-0.6,0.4-0.9
			c0-0.1,0-0.1,0-0.2c0,0,0-0.1,0-0.1c0,0-0.1,0-0.1,0c-0.1,0.1-0.2,0.2-0.3,0.4c-0.1,0.2-0.2,0.4-0.3,0.5c-0.1,0.2-0.3,0.4-0.4,0.6
			c-0.1,0.2-0.2,0.3-0.3,0.5c-0.1,0.2-0.2,0.4-0.4,0.5C26,7.8,25.9,8,25.7,8.1c-0.2,0.2-0.4,0.3-0.5,0.4c0,0,0,0,0,0
			c0,0-0.1,0-0.1,0c0,0,0-0.1,0-0.1c0.1,0,0.1-0.1,0.2-0.2c0,0,0,0,0-0.1c0-0.1,0.1-0.2,0.2-0.3C25.3,8,25.2,8.1,25,8.2z M27.8,5
			c0-0.1-0.1-0.1-0.1-0.2c0,0-0.1-0.1-0.1,0c0,0,0,0-0.1,0.1c-0.1,0.1-0.1,0.1-0.2,0.2c-0.1,0.1-0.1,0.1-0.2,0.2
			c-0.2,0.2-0.4,0.5-0.6,0.7c-0.1,0.1-0.2,0.2-0.2,0.3c-0.1,0.2-0.3,0.3-0.4,0.5c-0.1,0.1-0.2,0.2-0.3,0.3c-0.2,0.2-0.4,0.3-0.7,0.4
			c-0.2,0.1-0.4,0.3-0.6,0.5c0,0-0.1,0.1-0.1,0.1c-0.1,0.1-0.1,0.2,0,0.3c0.1,0.1,0.1,0.1,0.2,0c0,0,0,0,0-0.1
			c0.1-0.1,0.2-0.2,0.3-0.3C24.9,7.8,25,7.8,25,7.7c0.1-0.2,0.2-0.3,0.4-0.3c0.3-0.1,0.5-0.4,0.7-0.6c0.2-0.2,0.4-0.5,0.6-0.6
			s0.4-0.4,0.6-0.6c0.1-0.1,0.2-0.2,0.3-0.3C27.8,5.1,27.8,5.1,27.8,5z M25.7,9.1c0.3-0.2,0.5-0.3,0.7-0.6c0,0,0.1-0.1,0.1-0.1
			c0.1-0.2,0.2-0.4,0.4-0.5C27,7.7,27,7.6,27.1,7.5c0-0.1,0.1-0.2,0.2-0.2c0.2-0.2,0.4-0.4,0.5-0.7C27.9,6.3,28,6,28.1,5.7
			c0-0.1,0-0.1,0-0.2c0,0,0-0.1,0-0.1c0,0,0-0.1,0-0.1s-0.1,0-0.1,0c0,0.1-0.1,0.3-0.1,0.4c-0.1,0.2-0.2,0.5-0.3,0.7
			c-0.1,0.3-0.3,0.5-0.4,0.8c-0.1,0.2-0.2,0.4-0.4,0.6C26.7,7.9,26.6,8,26.5,8c-0.2,0.1-0.3,0.3-0.5,0.4C25.9,8.6,25.7,8.8,25.7,9.1
			c-0.1,0-0.1,0-0.1,0.1C25.6,9.1,25.7,9.1,25.7,9.1z M26.8,6.2c-0.2,0.2-0.4,0.4-0.6,0.7c-0.2,0.2-0.4,0.4-0.6,0.5
			c-0.2,0.1-0.3,0.2-0.4,0.4c0,0.1-0.1,0.1-0.2,0.2c-0.1,0.1-0.1,0.1-0.2,0.2c0,0,0,0,0,0C25,8,25.3,7.9,25.5,7.8
			c0.1,0,0.1-0.1,0.2-0.2c0,0,0,0,0.1-0.1c0.2-0.1,0.4-0.3,0.5-0.5c0.1-0.2,0.3-0.3,0.5-0.4C26.9,6.5,27,6.3,27,6.1
			C26.9,6.1,26.9,6.2,26.8,6.2z M21.8,6.5c-0.2,0.1-0.3,0.2-0.5,0.3c-0.3,0.1-0.5,0.3-0.7,0.5c-0.1,0.1-0.1,0.2-0.2,0.2
			c0,0-0.1,0.1-0.1,0.2c0.1-0.1,0.2-0.1,0.3-0.2c0.1,0,0.1-0.1,0.2-0.1c0.3-0.1,0.5-0.3,0.7-0.5c0.2-0.2,0.4-0.3,0.6-0.5
			c0.1-0.1,0.2-0.1,0.3-0.2C22.3,6.3,22,6.3,21.8,6.5z M11.5,20.8c-0.1,0-0.2-0.1-0.3-0.1c-0.1,0.2-0.3,0.2-0.4,0.3
			c-0.1,0-0.2,0.1-0.3,0.1c-0.1,0.1-0.3,0.1-0.3,0.3c0.1,0,0.2,0,0.2,0.1c0.1,0.1,0.2,0,0.3-0.1c0.1-0.1,0.2-0.1,0.2-0.2
			c0.1-0.1,0.2-0.2,0.4-0.3c0.1-0.1,0.3-0.2,0.4-0.3c0-0.1,0,0-0.1-0.1c-0.2,0-0.4-0.2-0.5-0.3C11,20.1,10.9,20,10.7,20
			C11,20.2,11.2,20.5,11.5,20.8z M25.4,9.3c-0.1,0.1-0.2,0.1-0.3,0.2c-0.2,0.1-0.4,0.2-0.7,0.4c0,0-0.1,0-0.1,0.1
			c-0.1,0.1-0.3,0.1-0.4,0.2c-0.2,0.1-0.3,0.3-0.5,0.4c0,0,0,0,0,0c0.1,0,0.2-0.1,0.3-0.2c0.2-0.1,0.3-0.2,0.5-0.3
			c0.1,0,0.3-0.2,0.4-0.2c0.1-0.1,0.3-0.1,0.4-0.2C25.1,9.6,25.3,9.5,25.4,9.3C25.5,9.3,25.5,9.3,25.4,9.3
			C25.5,9.2,25.4,9.2,25.4,9.3z M12.2,14c0.2-0.2,0.4-0.4,0.6-0.6c0.1-0.1,0.2-0.3,0.3-0.5c-0.5,0.2-1,0.7-1.2,1.3
			C12,14.2,12.1,14.1,12.2,14z M12.8,20.3c0.1,0,0.3-0.1,0.4-0.1c0.1-0.1,0.3-0.1,0.4-0.2c0.1-0.1,0.1-0.1,0.2-0.2
			c0,0,0.1-0.1,0.1-0.1c0,0,0.1-0.1,0-0.1c-0.1,0-1.3,0.7-1.4,0.8C12.6,20.3,12.7,20.3,12.8,20.3z M26.3,7.1
			c-0.2,0.3-0.4,0.5-0.6,0.8c-0.1,0.1-0.1,0.2-0.2,0.3c0.1,0,0.1-0.1,0.2-0.1C25.8,8,26,7.8,26.1,7.7c0.2-0.2,0.4-0.4,0.5-0.6
			c0-0.1,0.1-0.2,0.1-0.3C26.6,6.9,26.4,7,26.3,7.1z M27.8,4.9c0,0.1,0.1,0.2,0.2,0.3c0,0,0,0,0,0c0,0,0.1,0,0.1,0
			c0-0.1,0-0.1,0-0.1c0-0.1,0-0.1-0.1-0.2c0-0.1-0.1-0.2-0.1-0.2c-0.1-0.1-0.2-0.1-0.2-0.2c-0.1,0-0.1-0.1-0.1-0.1
			c-0.1-0.1-0.1-0.2-0.2-0.3c-0.1-0.1-0.2-0.1-0.3-0.1c0,0,0,0,0,0.1c0,0.1,0.1,0.3,0.2,0.3c0.1,0,0.1,0.1,0.2,0.1
			c0.1,0,0.2,0.1,0.3,0.2C27.8,4.7,27.8,4.8,27.8,4.9z M8.8,22.4c0,0-0.1,0-0.2,0c-0.2,0.1-0.4,0.2-0.6,0.3
			c-0.2,0.1-0.5,0.2-0.7,0.3c-0.1,0-0.1,0-0.2,0.1c0,0,0.1,0,0.1,0c0.3,0,0.5-0.1,0.7-0.2c0.1-0.1,0.2-0.1,0.3-0.1
			C8.4,22.7,8.6,22.6,8.8,22.4c0.1,0.1,0.1,0,0.2-0.1C8.9,22.3,8.9,22.4,8.8,22.4z M25.4,3.7c0.1-0.1,0.1-0.1,0.2-0.2
			c0,0,0-0.1,0.1-0.1c0,0,0,0,0,0c0,0-0.1,0-0.1,0c-0.1,0-0.2,0-0.3,0c0,0,0,0,0,0c-0.1,0.2-0.2,0.3-0.3,0.5
			C25.1,3.9,25.3,3.9,25.4,3.7z M26.8,7.6C26.9,7.4,27,7.2,27.2,7c0-0.1,0.1-0.2,0.1-0.2c0,0-0.1,0-0.1,0C27,7,26.8,7.2,26.7,7.5
			c-0.1,0.1-0.2,0.3-0.3,0.4c-0.1,0.1-0.1,0.1-0.2,0.2c0,0,0,0,0,0.1C26.5,8,26.6,7.9,26.8,7.6z M10.3,21.5c-0.1,0-0.1,0-0.2,0
			c-0.2,0.1-0.5,0.2-0.7,0.5C9.7,22,10.2,21.7,10.3,21.5z M11,20.7c0.1,0,0.1-0.1,0.1-0.2c0,0,0,0,0,0c0,0,0,0-0.1,0
			c-0.1,0.1-0.3,0.2-0.4,0.2c-0.1,0-0.1,0.1-0.2,0.2C10.7,20.9,10.9,20.8,11,20.7z M13.9,19.3C13.9,19.3,13.9,19.3,13.9,19.3
			c-0.2,0-0.3,0-0.4,0.1c-0.1,0.1-0.3,0.2-0.4,0.3c0,0-0.1,0-0.1,0.1C13.3,19.8,13.6,19.5,13.9,19.3z M27.1,6.3
			c0.1-0.1,0.3-0.5,0.3-0.6C27.2,5.8,27.1,6,27.1,6.3z M9.4,21.9c-0.2,0.1-0.4,0.2-0.5,0.4C9.1,22.2,9.1,22.2,9.4,21.9z M19.6,7.1
			C19.6,7,19.5,7,19.5,6.9c0,0,0,0-0.1,0c0,0,0,0-0.1,0.1c0,0,0,0.1,0,0.1c0,0,0.1,0.1,0.1,0.1c0.1,0.1,0.2,0.1,0.3,0.2
			C19.8,7.2,19.7,7.1,19.6,7.1z M9.3,21.8C9.4,21.8,9.4,21.8,9.3,21.8c0.1,0,0.2-0.1,0.3-0.1c0.1,0,0.2-0.1,0.3-0.2
			c0.1-0.1,0.2-0.1,0.2-0.2c0,0,0,0,0,0C9.8,21.4,9.6,21.6,9.3,21.8z M19.3,11.3C19.3,11.3,19.3,11.3,19.3,11.3
			C19.3,11.3,19.3,11.3,19.3,11.3c0,0.1,0,0.2,0.1,0.2C19.4,11.5,19.4,11.4,19.3,11.3z M14,19.6C14,19.6,14,19.6,14,19.6
			C14,19.6,14,19.6,14,19.6C14,19.6,14,19.6,14,19.6C14,19.6,14,19.6,14,19.6z"/>
		<path class="st1" d="M11.2,15.9c0.1-0.1,0.2-0.1,0.3-0.2c0.1-0.1,0.3-0.2,0.4-0.3c0.3-0.3,0.6-0.5,0.9-0.7
			c0.3-0.2,0.5-0.3,0.7-0.5c0.1-0.1,0.3-0.3,0.4-0.4c0.1,0,0.1-0.1,0.2-0.1c0.1-0.1,0.2-0.1,0.3,0s0.2,0.2,0.3,0.2
			c0.1,0,0.1,0.1,0.2,0.1c0.1,0,0.2,0.1,0.3,0.2c0,0.1,0.1,0.1,0.1,0c0.1-0.1,0.2-0.2,0.3-0.2c0.1-0.1,0.2-0.2,0.3-0.3
			c0.2-0.2,0.5-0.5,0.8-0.7c0.1,0,0.2-0.1,0.2-0.2c0.2-0.2,0.4-0.3,0.6-0.4c0,0,0.1-0.1,0.1-0.1c0.1-0.1,0.2-0.2,0.3-0.3
			c0.2-0.1,0.4-0.3,0.5-0.4c0.1-0.1,0.2-0.2,0.3-0.3c0.1-0.1,0.2-0.3,0.3-0.4c0.1,0.1,0.1,0.2,0.2,0.1c0,0,0-0.1,0-0.1
			c0,0-0.1-0.1-0.1-0.1c0-0.1-0.1-0.2-0.2-0.2c-0.1,0-0.1,0-0.2-0.1c-0.1,0-0.2-0.1-0.3-0.2c0,0,0,0-0.1,0c0,0,0,0,0,0.1
			c0,0,0,0.1,0.1,0.1c0.1,0.1,0.2,0.2,0.3,0.2c0,0,0.1,0,0.1,0c0.1,0,0.1,0.1,0.1,0.2c0,0.1-0.1,0.1-0.1,0.2
			c-0.1,0.1-0.2,0.2-0.3,0.4c-0.1,0.1-0.2,0.2-0.3,0.3c-0.2,0.1-0.3,0.2-0.5,0.3c-0.1,0.1-0.3,0.2-0.4,0.3c-0.1,0.1-0.1,0.1-0.2,0.2
			c-0.1,0.1-0.2,0.2-0.3,0.2c-0.2,0.1-0.3,0.3-0.5,0.4c-0.2,0.1-0.3,0.3-0.5,0.4c-0.2,0.2-0.3,0.4-0.6,0.5c0,0-0.1,0-0.1,0.1
			c0,0-0.1,0-0.1,0c-0.1-0.1-0.2-0.2-0.3-0.2c-0.1,0-0.2-0.1-0.3-0.2c0,0,0,0-0.1-0.1c-0.1-0.1-0.2-0.1-0.3,0
			c-0.2,0.1-0.3,0.3-0.4,0.4c-0.2,0.2-0.4,0.3-0.6,0.5c-0.3,0.2-0.6,0.3-0.8,0.5c-0.1,0.1-0.2,0.1-0.2,0.2c-0.1,0.1-0.2,0.2-0.4,0.4
			c-0.1,0.1-0.2,0.1-0.2,0.2C11.4,15.7,11.3,15.8,11.2,15.9z"/>
		<path class="st1" d="M17.5,10c-0.2,0-0.3,0.1-0.4,0.2c-0.2,0.2-0.5,0.4-0.7,0.6c-0.2,0.1-0.3,0.3-0.4,0.5
			c-0.1,0.1-0.2,0.3-0.3,0.4c-0.2,0.2-0.5,0.4-0.8,0.6c-0.1,0.1-0.3,0.2-0.4,0.3c0,0-0.1,0-0.1,0c0,0,0,0,0-0.1
			c0-0.2-0.1-0.3-0.2-0.4c0,0.1,0,0.1,0,0.2c0.1,0.1,0.1,0.2,0.1,0.3c0,0.1,0,0.1,0,0.1c-0.1,0-0.1,0.1-0.2,0.1
			c-0.3,0.2-0.5,0.5-0.8,0.7c-0.2,0.2-0.5,0.4-0.7,0.6c-0.1,0.1-0.3,0.3-0.4,0.4c-0.1,0.1-0.2,0.2-0.4,0.3c-0.2,0.1-0.3,0.3-0.4,0.4
			c-0.1,0.2-0.2,0.3-0.4,0.4c0,0-0.1,0.1-0.1,0.1c0.2-0.2,0.4-0.3,0.5-0.5c0-0.1,0.1-0.1,0.1-0.1c0.2-0.2,0.4-0.4,0.7-0.6
			c0.2-0.1,0.3-0.2,0.4-0.4c0.2-0.3,0.5-0.5,0.8-0.7c0.3-0.2,0.5-0.4,0.8-0.7c0.1,0,0.1-0.1,0.2-0.1c0,0,0.1,0,0.1,0.1
			c0,0.1,0.1,0.2,0.2,0.3c0,0.1,0.1,0.1,0.1,0.2c0,0,0,0,0,0c0,0,0,0,0-0.1c0-0.1-0.1-0.1-0.1-0.2c-0.2-0.2-0.2-0.2,0-0.4
			c0.1-0.1,0.2-0.2,0.3-0.3c0.4-0.3,0.7-0.6,1-0.9c0.1-0.1,0.1-0.2,0.2-0.3c0.2-0.3,0.5-0.5,0.7-0.7c0.1-0.1,0.2-0.2,0.4-0.3
			C17.3,10.1,17.3,10.1,17.5,10C17.4,10.1,17.5,10.1,17.5,10z"/>
		<path class="st1" d="M9,21.2c0,0-0.1,0-0.1,0c-0.3,0.1-0.6,0.3-0.8,0.5c-0.2,0.2-0.4,0.3-0.6,0.4c-0.1,0-0.1,0-0.2-0.1
			c0-0.1-0.1-0.2-0.2-0.4c-0.1-0.1-0.2-0.2-0.3-0.3c0,0.1,0,0.1,0,0.2C6.9,21.6,7,21.7,7,21.8c0,0.1,0,0.1,0,0.1
			c-0.1,0.1-0.2,0.2-0.3,0.3c-0.1,0.1-0.2,0.1-0.3,0.2c-0.2,0.2-0.5,0.3-0.7,0.5c-0.2,0.1-0.4,0.2-0.6,0.4c-0.1,0-0.1,0.1-0.2,0.2
			c0,0,0.1,0,0.1-0.1c0.3-0.2,0.6-0.3,0.8-0.5c0.2-0.1,0.5-0.3,0.7-0.5c0.2-0.1,0.3-0.3,0.5-0.4c0.1-0.1,0.1-0.1,0.1,0
			c0,0,0,0.1,0,0.1c0.1,0.1,0.2,0.3,0.3,0.3c0,0,0.1,0,0.1,0c0,0,0,0,0.1,0c0.2-0.1,0.4-0.2,0.5-0.3c0.2-0.1,0.4-0.3,0.6-0.4
			c0.1-0.1,0.2-0.1,0.3-0.2c0,0,0.1-0.1,0.1-0.1c-0.1,0.1-0.3,0.1-0.4,0.2c-0.1,0.1-0.3,0.1-0.4,0.2c-0.1,0.1-0.2,0.1-0.3,0.2
			c-0.1,0.1-0.3,0.1-0.4,0.2c0,0-0.1,0-0.1,0.1c0,0,0,0,0,0c-0.1,0-0.1-0.1-0.2-0.1c0,0,0-0.1,0-0.1c0,0,0,0,0.1,0
			c0.2-0.1,0.4-0.2,0.6-0.4c0.2-0.2,0.4-0.3,0.6-0.4C8.8,21.3,8.9,21.2,9,21.2L9,21.2z"/>
		<path class="st1" d="M14.1,17.1c-0.1,0.1-0.2,0.2-0.3,0.2c-0.2,0.1-0.4,0.3-0.5,0.5c-0.1,0.1-0.3,0.2-0.4,0.3
			c-0.1,0.1-0.2,0.2-0.2,0.3c0,0,0,0.1,0,0.1c0,0,0,0,0,0c0.2-0.3,0.5-0.5,0.7-0.7c0.3-0.2,0.6-0.5,0.8-0.7c0.2-0.2,0.4-0.3,0.6-0.4
			c0.3-0.2,0.6-0.4,0.9-0.6c0.1-0.1,0.2-0.2,0.3-0.3c-0.1,0-0.1,0-0.1,0.1c-0.1,0.1-0.1,0.1-0.2,0.2c-0.2,0.1-0.4,0.3-0.6,0.4
			c0,0-0.1,0.1-0.1,0.1c-0.1,0.1-0.2,0.1-0.3,0.1c-0.1,0-0.1,0-0.2,0.1c-0.2,0.1-0.4,0.2-0.6,0.3c-0.2,0.1-0.3,0.2-0.4,0.3
			c-0.1,0.1-0.2,0.1-0.3,0.2c0,0-0.1,0.1-0.1,0.1c-0.2,0.1-0.3,0.3-0.5,0.4c0,0.1-0.1,0.1-0.1,0.2c0,0,0,0,0,0.1c0,0,0,0,0,0
			c0.1-0.2,0.4-0.4,0.5-0.5c0.2-0.2,0.4-0.3,0.6-0.4c0.1,0,0.2-0.1,0.2-0.1C14,17.1,14.1,17.1,14.1,17.1z"/>
		<path class="st1" d="M10.4,19.3c0.1,0,0.2-0.1,0.2-0.1c0.3-0.2,0.7-0.5,1-0.8c0.1-0.1,0.2-0.1,0.2-0.2c0,0,0,0,0.1,0
			c0,0,0.1,0,0.1,0c0,0,0-0.1,0-0.1c0,0,0-0.1-0.1-0.1c0-0.1-0.1-0.2-0.2-0.2c-0.1-0.1-0.1-0.1-0.2-0.2c0,0-0.1-0.1-0.1,0
			c0,0,0,0.1,0,0.1c0.1,0.1,0.1,0.1,0.2,0.2c0.1,0,0.1,0.1,0.2,0.2c-0.1,0-0.1,0-0.2,0c-0.1,0-0.1,0-0.2,0.1
			c-0.2,0.1-0.5,0.3-0.7,0.5c-0.2,0.2-0.5,0.4-0.7,0.5c-0.1,0.1-0.3,0.2-0.4,0.3c-0.1,0.1-0.1,0.1-0.1,0.2l0,0
			c0.2-0.2,0.4-0.3,0.6-0.4c0.1-0.1,0.3-0.2,0.4-0.3c0.2-0.2,0.4-0.3,0.6-0.5c0.2-0.1,0.3-0.2,0.6-0.3c0,0,0,0,0.1,0
			c-0.1,0.1-0.2,0.2-0.3,0.3c-0.1,0.1-0.2,0.2-0.3,0.3C11,18.9,10.9,19,10.7,19C10.6,19.1,10.5,19.2,10.4,19.3z"/>
		<path class="st1" d="M15.9,15.3c0.2,0.1,0.3,0,0.4-0.1c0.1-0.1,0.2-0.2,0.3-0.2c0.1-0.1,0.2-0.1,0.3-0.2c0.4-0.3,0.7-0.6,1-1
			c0.1-0.1,0.2-0.2,0.3-0.3c0.1-0.1,0.2-0.1,0.3-0.2c0,0,0,0,0-0.1c-0.2,0.2-0.5,0.3-0.7,0.5c-0.1,0.1-0.2,0.2-0.3,0.2
			c-0.2,0.2-0.3,0.3-0.5,0.5c-0.3,0.2-0.5,0.4-0.8,0.6c-0.1,0-0.1,0.1-0.2,0.1c-0.1,0.1-0.1,0.1-0.2,0
			C15.9,15.2,15.9,15.2,15.9,15.3c-0.1,0.1-0.1,0.1,0.1,0.2c0.2,0.1,0.3,0.2,0.4,0.4c0.1,0.1,0.1,0.2,0.2,0.2c0,0,0,0.1,0.1,0.1
			c0,0,0,0,0,0c0,0,0,0,0-0.1c-0.2-0.1-0.2-0.3-0.4-0.5c-0.1-0.1-0.2-0.2-0.3-0.3C16,15.4,15.9,15.4,15.9,15.3z"/>
		<path class="st1" d="M9.5,18.4c0.3-0.3,0.6-0.5,0.8-0.7c0.2-0.2,0.5-0.4,0.8-0.5c0,0,0,0,0,0c0,0,0,0.1,0,0.1
			c0,0.1-0.1,0.1-0.2,0.2c-0.4,0.4-0.8,0.7-1.2,1.1c-0.1,0.1-0.3,0.3-0.5,0.4c-0.1,0.1-0.2,0.2-0.4,0.3c0,0-0.1,0.1-0.1,0.1
			c0,0.1,0.1,0,0.1,0c0.2-0.1,0.3-0.3,0.5-0.4c0.3-0.2,0.5-0.5,0.8-0.7c0.2-0.2,0.4-0.3,0.5-0.5c0.1-0.1,0.2-0.2,0.3-0.3
			c0,0,0-0.1,0.1-0.1c0,0,0-0.1,0-0.1c0,0-0.1,0-0.1,0c-0.1,0-0.1,0.1-0.2,0.1c-0.2,0.1-0.4,0.2-0.6,0.4c-0.2,0.1-0.3,0.3-0.5,0.4
			C9.8,18.1,9.6,18.3,9.5,18.4z"/>
		<path class="st1" d="M9.5,20.6c0-0.1,0-0.1,0-0.1c-0.1-0.1-0.1-0.2-0.2-0.2C9.2,20.2,9.1,20,9,19.9c-0.1-0.1-0.2-0.3-0.3-0.4
			c0,0,0-0.1-0.1-0.1c0,0,0,0.1,0,0.1C8.8,19.7,8.9,19.8,9,20c-0.2,0-0.3,0.1-0.4,0.2c-0.2,0.1-0.3,0.2-0.5,0.4
			c-0.1,0.1-0.3,0.2-0.4,0.3c-0.1,0.1-0.1,0.1-0.1,0.2c0.1,0,0.1-0.1,0.2-0.1c0.2-0.2,0.4-0.3,0.6-0.4c0.2-0.1,0.3-0.2,0.5-0.4
			c0,0,0.1,0,0.1,0c0.2-0.1,0.2-0.1,0.3,0.1c0,0.1,0.1,0.1,0.1,0.2C9.4,20.5,9.4,20.6,9.5,20.6z"/>
		<path class="st1" d="M17,15.9c0.1,0,0.1-0.1,0.2-0.1c0.3-0.2,0.6-0.4,0.8-0.6c0.2-0.1,0.3-0.3,0.5-0.4c0,0,0,0,0-0.1
			c0.1-0.2,0.3-0.4,0.5-0.6c0.1-0.1,0.3-0.2,0.4-0.3c0.2-0.1,0.3-0.2,0.4-0.4c0.1-0.1,0.2-0.2,0.3-0.2c0.1-0.1,0.2-0.2,0.2-0.3
			c0,0,0,0,0,0c-0.1,0.1-0.2,0.2-0.3,0.2c-0.1,0.1-0.2,0.2-0.3,0.3c-0.1,0.1-0.2,0.2-0.4,0.3c-0.3,0.2-0.5,0.4-0.8,0.6c0,0,0,0,0,0
			c-0.1,0.3-0.4,0.4-0.6,0.6c-0.1,0.1-0.2,0.2-0.4,0.3c-0.1,0.1-0.2,0.2-0.3,0.2c0,0,0,0-0.1,0C17.1,15.7,17.1,15.9,17,15.9
			C17,15.9,17,15.9,17,15.9z"/>
		<path class="st1" d="M13.1,12c-0.1,0-0.2,0.1-0.2,0.1c-0.1,0.1-0.2,0.2-0.3,0.3c-0.2,0.1-0.3,0.3-0.4,0.4
			c-0.1,0.1-0.2,0.2-0.3,0.3c-0.2,0.2-0.4,0.4-0.5,0.7c0,0.1-0.1,0.2-0.2,0.2c-0.2,0.2-0.3,0.4-0.4,0.6c0,0,0,0,0,0
			c0,0,0.1,0,0.1-0.1c0.2-0.3,0.4-0.5,0.6-0.8c0,0,0.1-0.1,0.1-0.1c0.1-0.2,0.3-0.4,0.5-0.6c0.1-0.1,0.3-0.3,0.4-0.4
			c0.1-0.1,0.2-0.2,0.3-0.3C12.8,12.3,12.9,12.1,13.1,12C13.1,12,13.1,12,13.1,12z"/>
		<path class="st1" d="M12.7,18.8c0.1-0.1,0.3-0.1,0.4-0.2c0.3-0.3,0.7-0.6,1-0.9c0.3-0.3,0.6-0.6,0.9-0.8c0.3-0.2,0.6-0.4,0.9-0.6
			c0.1-0.1,0.3-0.1,0.4-0.1c0,0,0,0,0.1,0c0,0,0,0,0,0c0,0,0,0,0,0c-0.1,0-0.3,0-0.4,0.1c-0.3,0.2-0.6,0.4-1,0.6
			c-0.1,0.1-0.3,0.2-0.4,0.3c-0.2,0.2-0.4,0.3-0.6,0.5c-0.1,0.1-0.2,0.2-0.3,0.3c-0.2,0.2-0.5,0.4-0.7,0.7c-0.1,0.1-0.2,0.2-0.3,0.2
			C12.8,18.7,12.7,18.7,12.7,18.8z"/>
		<path class="st1" d="M19.2,10.6c0-0.1-0.1-0.2-0.2-0.3c-0.1,0-0.1,0-0.2-0.1c-0.2-0.1-0.3-0.2-0.4-0.3c-0.1-0.2-0.1-0.2-0.3-0.1
			s-0.3,0.2-0.4,0.3c-0.2,0.2-0.4,0.3-0.6,0.5c-0.2,0.1-0.3,0.3-0.4,0.5c0,0,0.1-0.1,0.1-0.1c0.2-0.3,0.5-0.5,0.8-0.7
			c0.1-0.1,0.2-0.2,0.3-0.3C17.9,10,18,10,18.1,9.9c0.1,0,0.1,0,0.1,0.1c0,0,0,0.1,0.1,0.1c0.2,0.1,0.3,0.2,0.6,0.3
			c0.1,0,0.2,0.1,0.3,0.1C19.1,10.5,19.2,10.6,19.2,10.6L19.2,10.6z"/>
		<path class="st1" d="M6.3,20.7C6.3,20.7,6.3,20.7,6.3,20.7c0.1-0.1,0.2-0.2,0.3-0.3c0.1-0.1,0.2-0.2,0.3-0.4C6.9,20,7,19.9,7,19.8
			c0.1-0.2,0.2-0.5,0.4-0.7c0.1-0.2,0.2-0.4,0.4-0.6c0.1-0.1,0.1-0.1,0.2-0.1c0,0,0,0,0,0c0,0,0.1,0,0.1-0.1c0-0.1-0.1,0-0.1,0
			c-0.2,0.1-0.3,0.1-0.4,0.3c-0.1,0.1-0.1,0.2-0.2,0.3c-0.1,0.1-0.1,0.2-0.1,0.3c-0.1,0.3-0.3,0.6-0.4,0.9c-0.1,0.1-0.2,0.3-0.3,0.4
			c-0.1,0.1-0.2,0.2-0.2,0.2C6.3,20.6,6.2,20.7,6.3,20.7z"/>
		<path class="st1" d="M15.2,14.9C15.1,14.9,15.1,14.9,15.2,14.9c-0.2,0.2-0.4,0.4-0.6,0.5c-0.2,0.1-0.4,0.3-0.5,0.5
			c-0.2,0.2-0.4,0.4-0.7,0.6c-0.2,0.2-0.4,0.3-0.5,0.5c-0.1,0.1-0.1,0.2-0.2,0.2c-0.1,0.1-0.2,0.2-0.4,0.3c-0.1,0-0.1,0-0.1,0.1
			c0.1-0.1,0.3-0.1,0.4-0.2c0.2-0.2,0.4-0.3,0.6-0.5c0.1-0.1,0.2-0.2,0.3-0.3c0.3-0.3,0.6-0.6,0.9-0.9c0.1-0.1,0.2-0.2,0.3-0.2
			c0.2-0.1,0.3-0.3,0.5-0.4C15.1,15,15.2,15,15.2,14.9z"/>
		<path class="st1" d="M11.7,17.1c0.1,0,0.1,0,0.1-0.1c0.2-0.2,0.4-0.5,0.6-0.7c0.2-0.2,0.4-0.3,0.6-0.5c0,0,0.1-0.1,0.1-0.1
			c0.2-0.2,0.4-0.5,0.7-0.7c0.1-0.1,0.2-0.2,0.4-0.3c0,0,0.1-0.1,0.1-0.1c0.1-0.1,0.2-0.3,0.3-0.4c0,0,0,0,0-0.1c0,0,0,0-0.1,0
			c-0.1,0.1-0.1,0.1-0.2,0.2c-0.1,0.1-0.1,0.2-0.2,0.3c-0.1,0.1-0.3,0.2-0.4,0.3c-0.2,0.1-0.3,0.3-0.5,0.5c-0.2,0.2-0.3,0.3-0.5,0.4
			c-0.2,0.1-0.4,0.3-0.5,0.5c-0.1,0.2-0.3,0.3-0.4,0.5C11.7,17,11.7,17.1,11.7,17.1z"/>
		<path class="st1" d="M15,13.5c0.2-0.1,0.3-0.3,0.4-0.5c0.1-0.1,0.1-0.2,0.2-0.3c0,0,0,0,0,0c0.3-0.3,0.6-0.6,0.9-0.9
			c0.1-0.2,0.3-0.3,0.5-0.4c0.2-0.2,0.4-0.3,0.6-0.5c0,0,0,0,0,0c0,0,0,0-0.1,0c-0.1,0-0.1,0.1-0.1,0.1c-0.3,0.2-0.6,0.5-0.9,0.7
			c-0.2,0.1-0.3,0.3-0.5,0.5c-0.2,0.2-0.4,0.4-0.6,0.6c-0.2,0.2-0.3,0.4-0.4,0.6C15,13.4,15,13.4,15,13.5z"/>
		<path class="st1" d="M8.3,17.3c0.1-0.2,0.3-0.3,0.4-0.5c0.2-0.2,0.3-0.3,0.5-0.5c0,0,0.1,0,0.1-0.1c0.1-0.1,0.2-0.2,0.3-0.2
			c0.1-0.1,0.2-0.1,0.3-0.2c0.2-0.2,0.4-0.4,0.5-0.6c0-0.1,0.1-0.1,0.1-0.2c-0.1,0-0.1,0-0.1,0.1c-0.2,0.4-0.4,0.7-0.8,0.9
			c-0.3,0.2-0.5,0.4-0.8,0.6c-0.1,0.1-0.2,0.3-0.4,0.4C8.4,17.1,8.3,17.2,8.3,17.3z"/>
		<path class="st1" d="M7.2,21.7c0.1,0,0.1-0.1,0.1-0.1c0.2-0.2,0.4-0.3,0.6-0.5c0.3-0.2,0.6-0.4,0.8-0.6c0.1-0.1,0.2-0.1,0.4,0
			c0.1,0,0.1,0.1,0.1,0.2c0,0.1,0.1,0.1,0.1,0.2c0,0,0,0,0.1,0c0,0,0,0,0,0c-0.1-0.2-0.3-0.4-0.5-0.5c0,0-0.1,0-0.1,0
			c-0.1,0.1-0.3,0.2-0.4,0.3c-0.1,0.1-0.3,0.2-0.4,0.3c-0.2,0.2-0.4,0.3-0.7,0.5C7.4,21.5,7.3,21.6,7.2,21.7z"/>
		<path class="st1" d="M17,15.7c0.1-0.1,0.2-0.2,0.3-0.4c0.1-0.3,0.3-0.4,0.5-0.6c0.2-0.1,0.3-0.3,0.5-0.4c0.1-0.1,0.2-0.2,0.3-0.2
			c0.3-0.2,0.6-0.4,0.8-0.6c0.1-0.1,0.3-0.2,0.4-0.3c0,0,0.1,0,0-0.1c0,0,0,0-0.1,0c-0.1,0.1-0.2,0.2-0.3,0.2
			c-0.2,0.2-0.4,0.3-0.7,0.5c-0.3,0.2-0.5,0.3-0.8,0.6c-0.1,0.1-0.2,0.2-0.3,0.2c-0.2,0.2-0.5,0.4-0.6,0.7
			C17.1,15.5,17.1,15.6,17,15.7C17,15.7,17,15.7,17,15.7z"/>
		<path class="st1" d="M10.7,16.4c-0.1,0-0.1,0-0.1,0c-0.1,0.2-0.3,0.3-0.4,0.5c-0.3,0.3-0.7,0.6-1,0.9c0,0-0.1,0-0.1,0.1
			c-0.1,0.2-0.3,0.3-0.4,0.5c-0.1,0.1-0.2,0.2-0.2,0.3c0.1,0,0.1,0,0.1,0c0.1-0.1,0.2-0.3,0.3-0.4C8.9,18.2,8.9,18.1,9,18
			c0.1-0.2,0.3-0.3,0.5-0.4c0.2-0.2,0.5-0.4,0.7-0.6c0.1-0.1,0.2-0.2,0.3-0.3C10.6,16.6,10.6,16.5,10.7,16.4z"/>
		<path class="st1" d="M13.5,16.2C13.5,16.2,13.5,16.2,13.5,16.2c0.2-0.2,0.4-0.4,0.6-0.6c0.1-0.2,0.3-0.3,0.4-0.5
			c0.1-0.1,0.2-0.2,0.3-0.2c0.2-0.1,0.3-0.2,0.6-0.3c0,0,0.1,0,0.1,0c0.1,0.1,0.1,0.1,0.2,0.2c0,0,0,0,0-0.1c0,0,0,0,0-0.1
			c-0.1-0.2-0.2-0.2-0.4-0.2c-0.2,0.1-0.4,0.2-0.5,0.3c-0.1,0.1-0.2,0.3-0.4,0.4c-0.1,0.1-0.2,0.2-0.3,0.3c-0.1,0.1-0.2,0.2-0.3,0.3
			C13.6,16,13.5,16.1,13.5,16.2z"/>
		<path class="st1" d="M19.4,13.2c0.1-0.1,0.2-0.2,0.3-0.2c0.1-0.1,0.2-0.1,0.3-0.2c0.2-0.1,0.3-0.2,0.4-0.4
			c0.1-0.2,0.2-0.3,0.4-0.5c0.1-0.1,0.1-0.1,0.2-0.2c0.1-0.1,0.3-0.3,0.4-0.4c0.1-0.1,0.2-0.1,0.3-0.2c0,0,0,0,0,0c0,0,0.1,0,0-0.1
			c0,0,0,0-0.1,0c-0.1,0.1-0.1,0.1-0.2,0.1c-0.1,0.1-0.2,0.2-0.3,0.3c-0.1,0.1-0.2,0.2-0.3,0.2c-0.1,0.1-0.2,0.2-0.2,0.3
			c-0.1,0.1-0.2,0.3-0.3,0.4c-0.1,0.1-0.2,0.2-0.3,0.2c-0.1,0-0.1,0.1-0.2,0.1C19.7,13,19.5,13.1,19.4,13.2
			C19.4,13.2,19.4,13.2,19.4,13.2z"/>
		<path class="st1" d="M19.8,8c-0.1,0-0.1,0-0.1,0.1c-0.1,0.3-0.4,0.4-0.6,0.6c-0.3,0.2-0.6,0.3-0.9,0.4c-0.1,0-0.3,0.1-0.4,0.2
			c0,0-0.1,0.1-0.1,0.1c0,0,0,0,0.1,0C18,9.2,18.2,9.1,18.3,9c0.3-0.1,0.6-0.2,0.9-0.4c0.1-0.1,0.3-0.2,0.4-0.3
			C19.7,8.2,19.8,8.1,19.8,8z"/>
		<path class="st1" d="M17.6,13.3c-0.1,0-0.2,0.1-0.4,0.2c-0.2,0.1-0.3,0.2-0.5,0.3c-0.1,0.1-0.3,0.2-0.4,0.2
			c-0.1,0-0.2,0.1-0.3,0.1c-0.1,0.1-0.2,0.1-0.3,0.1c0,0-0.1,0-0.1,0.1c0,0,0,0,0,0c0,0,0,0,0,0c0,0,0,0,0,0
			c0.2-0.1,0.4-0.2,0.6-0.3c0.1,0,0.3-0.1,0.4-0.2C17,13.8,17.2,13.6,17.6,13.3C17.5,13.4,17.6,13.4,17.6,13.3z"/>
		<path class="st1" d="M16.7,9.3c-0.1,0-0.1,0-0.1,0c-0.3,0.2-0.5,0.4-0.8,0.6c-0.1,0.1-0.2,0.2-0.3,0.3c-0.1,0.1-0.2,0.1-0.2,0.2
			c-0.1,0.1-0.1,0.1-0.1,0.2c0.1-0.1,0.2-0.2,0.2-0.3c0.1-0.1,0.2-0.2,0.3-0.3c0.2-0.2,0.4-0.3,0.6-0.4c0.1-0.1,0.2-0.1,0.3-0.2
			C16.6,9.4,16.7,9.3,16.7,9.3z"/>
		<path class="st1" d="M14.7,17.4c-0.1,0.1-0.3,0.2-0.4,0.3c-0.1,0.1-0.2,0.2-0.3,0.3c-0.1,0.1-0.3,0.2-0.4,0.3
			c-0.1,0.1-0.2,0.1-0.3,0.2c0,0-0.1,0.1-0.2,0.1c-0.1,0-0.2,0.1-0.3,0.1c0,0,0,0,0,0.1c0,0,0,0,0.1,0c0.1,0,0.1,0,0.2-0.1
			c0.1,0,0.2-0.1,0.3-0.2c0.1-0.1,0.2-0.2,0.3-0.2c0.1,0,0.1-0.1,0.2-0.2c0.1-0.2,0.3-0.3,0.4-0.5C14.5,17.6,14.6,17.5,14.7,17.4z"
			/>
		<path class="st1" d="M7.1,21.3c0.1-0.1,0.2-0.2,0.3-0.3c0.3-0.3,0.6-0.5,0.9-0.7c0.1-0.1,0.3-0.2,0.4-0.3c0,0,0,0,0,0
			c0,0,0,0-0.1,0c0,0,0,0,0,0c-0.1,0.1-0.3,0.1-0.4,0.2c-0.2,0.1-0.4,0.3-0.6,0.4c-0.2,0.1-0.3,0.3-0.5,0.4
			C7.1,21.1,7.1,21.2,7.1,21.3z"/>
		<path class="st1" d="M5.6,23.4c0.2-0.1,0.4-0.2,0.6-0.2c0.2,0,0.4-0.1,0.5-0.3c0.2-0.1,0.3-0.2,0.5-0.3c0.1,0,0.1-0.1,0.2-0.2
			c0,0,0,0,0-0.1c-0.1,0-0.1,0.1-0.2,0.1c-0.1,0.1-0.3,0.2-0.4,0.3C6.7,22.9,6.5,23,6.4,23c-0.1,0-0.1,0.1-0.2,0.1
			C6,23.2,5.8,23.3,5.6,23.4C5.6,23.3,5.6,23.4,5.6,23.4z"/>
		<path class="st1" d="M13.4,16c-0.1,0-0.1,0-0.1,0c-0.1,0.1-0.2,0.2-0.3,0.3c-0.1,0.1-0.2,0.2-0.3,0.3c-0.2,0.2-0.4,0.4-0.6,0.6
			c0,0-0.1,0,0,0.1C12.4,16.8,12.9,16.5,13.4,16z"/>
		<path class="st1" d="M20.6,13C20.7,13,20.7,13,20.6,13c0.1-0.3,0.3-0.5,0.4-0.6c0.2-0.3,0.5-0.5,0.7-0.8c0,0,0.1-0.1,0.1-0.2
			c-0.1,0-0.1,0-0.1,0.1c-0.1,0.2-0.3,0.3-0.5,0.5c-0.2,0.2-0.4,0.4-0.6,0.7C20.7,12.8,20.7,12.9,20.6,13C20.6,13,20.6,13,20.6,13z"
			/>
		<path class="st1" d="M7.5,21.8c0.1-0.1,0.3-0.2,0.5-0.3c0.2-0.1,0.3-0.3,0.5-0.4c0.1-0.1,0.3-0.2,0.4-0.3c0,0,0.1,0,0.1,0
			c0,0,0,0,0,0c0,0,0,0,0,0c-0.1,0.1-0.2,0.1-0.3,0.2c-0.2,0.1-0.3,0.2-0.5,0.4c-0.1,0.1-0.3,0.2-0.5,0.3
			C7.6,21.6,7.5,21.7,7.5,21.8z"/>
		<path class="st1" d="M16,12.8c-0.1,0-0.1,0.1-0.2,0.1c-0.1,0.1-0.2,0.2-0.3,0.3c0,0-0.1,0-0.1,0.1c-0.1,0.1-0.1,0.1-0.2,0.2
			c0,0,0,0-0.1,0c0,0,0,0,0,0.1c0,0,0,0,0.1,0c0.1,0,0.1-0.1,0.2-0.1c0.1-0.1,0.1-0.2,0.2-0.2C15.7,13.1,15.8,13,16,12.8z"/>
		<path class="st1" d="M27,4.7c-0.1,0.1-0.3,0.2-0.4,0.3c-0.1,0-0.2,0.1-0.3,0.1c0,0,0,0,0,0s0,0,0,0.1c0,0,0,0,0.1,0
			c0,0,0.1,0,0.1-0.1C26.7,5,27,4.9,27.2,4.6c0,0,0.1,0,0.1-0.1c0,0,0,0,0-0.1c0,0,0,0-0.1,0C27.2,4.6,27.1,4.6,27,4.7z"/>
		<path class="st1" d="M13.6,14.9c0.1-0.1,0.2-0.2,0.3-0.3c0.2-0.1,0.3-0.3,0.5-0.4c0,0,0.1-0.1,0.1-0.1c0,0-0.1,0-0.1,0
			c-0.2,0.2-0.5,0.4-0.7,0.6C13.7,14.8,13.6,14.8,13.6,14.9C13.6,14.9,13.6,14.9,13.6,14.9L13.6,14.9z"/>
		<path class="st1" d="M13.6,14.9C13.6,14.9,13.6,14.9,13.6,14.9c-0.2,0.1-0.3,0.2-0.3,0.3c0,0-0.1,0.1-0.2,0.1c0,0-0.1,0-0.1,0.1
			C13.3,15.2,13.4,15.1,13.6,14.9C13.6,14.9,13.6,14.9,13.6,14.9L13.6,14.9z"/>
		<path class="st1" d="M12.8,15.5C12.9,15.5,12.9,15.5,12.8,15.5C12.9,15.5,12.9,15.5,12.8,15.5z"/>
		<path class="st1" d="M9,21.2c0,0,0.1-0.1,0.1-0.1l0,0C9.1,21.1,9,21.1,9,21.2L9,21.2z"/>
		<path class="st1" d="M11.3,19.9C11.3,19.9,11.3,19.9,11.3,19.9C11.3,19.9,11.3,19.9,11.3,19.9C11.3,19.9,11.3,19.9,11.3,19.9
			C11.3,19.9,11.3,19.9,11.3,19.9z"/>
		<path class="st1" d="M12,20.1C12,20.1,11.9,20.1,12,20.1C11.9,20.1,11.9,20.1,12,20.1L12,20.1z"/>
	</g>
</g>
</svg>
