<?xml version="1.0" encoding="utf-8"?>
<!-- Generator: Adobe Illustrator 21.1.0, SVG Export Plug-In . SVG Version: 6.00 Build 0)  -->
<svg version="1.1" id="Layer_1" xmlns="http://www.w3.org/2000/svg" xmlns:xlink="http://www.w3.org/1999/xlink" x="0px" y="0px"
	 viewBox="0 0 18 27.8" style="enable-background:new 0 0 18 27.8;" xml:space="preserve">
<style type="text/css">
	.st0{fill:#FFFFFF;}
	.st1{fill:#B7B7B7;}
</style>
<g>
	<g>
		<path class="st0" d="M4.2,12.4c0,0,2.7-1,5-1s4.4,0.2,5,0.5c0.5,0.3,1.2,10.1,1.2,10.7c0,0.6-5,4-9.7,2c-3.4-1.4-2.5-3.5-2.3-5.8
			C3.7,15.9,3.8,12.7,4.2,12.4z"/>
	</g>
	<g>
		<g>
			<g>
				<path class="st1" d="M5.1,7.1c1.6,1.5,7.1,1.4,9-0.2l0.1-1.5c0-0.6-0.9-2.2-0.9-2.2s-0.8-0.9-3.1-1.1c-2.2-0.3-4,0.7-4.6,1.3
					c0,0-1.2,0.9-0.9,2.7C5,7.9,5.1,7.1,5.1,7.1z"/>
			</g>
		</g>
		<g>
			<g>
				<path d="M9.3,6.8C9.1,6.8,9,6.6,9,6.5c0-0.2,0.1-0.3,0.3-0.3c2.6,0,3.8-0.9,3.8-0.9c0.1-0.1,0.3-0.1,0.4,0.1s0.1,0.3-0.1,0.4
					C13.4,5.8,12.1,6.8,9.3,6.8z"/>
			</g>
		</g>
		<g>
			<g>
				<g>
					<path d="M9.5,4.6c0.3,0,0.3-0.5,0-0.5C9.2,4.1,9.2,4.6,9.5,4.6L9.5,4.6z"/>
				</g>
			</g>
		</g>
		<g>
			<g>
				<g>
					<path d="M8.3,4.1c0.3,0,0.3-0.5,0-0.5S7.9,4.1,8.3,4.1L8.3,4.1z"/>
				</g>
			</g>
		</g>
		<g>
			<g>
				<g>
					<path d="M7.1,4.3c0.3,0,0.3-0.5,0-0.5C6.8,3.8,6.8,4.3,7.1,4.3L7.1,4.3z"/>
				</g>
			</g>
		</g>
		<g>
			<g>
				<g>
					<path d="M9.5,3.4c0.3,0,0.3-0.5,0-0.5C9.2,3,9.2,3.4,9.5,3.4L9.5,3.4z"/>
				</g>
			</g>
		</g>
		<g>
			<g>
				<g>
					<path d="M10.6,4c0.3,0,0.3-0.5,0-0.5C10.3,3.5,10.3,4,10.6,4L10.6,4z"/>
				</g>
			</g>
		</g>
		<g>
			<g>
				<g>
					<path d="M11.7,4.1c0.3,0,0.3-0.5,0-0.5C11.4,3.7,11.4,4.1,11.7,4.1L11.7,4.1z"/>
				</g>
			</g>
		</g>
		<g>
			<g>
				<g>
					<path d="M6.2,20.9c0.3,0,0.3-0.5,0-0.5C5.9,20.4,5.9,20.9,6.2,20.9L6.2,20.9z"/>
				</g>
			</g>
		</g>
		<g>
			<g>
				<g>
					<path d="M5.4,16.7c0.3,0,0.3-0.5,0-0.5C5.1,16.2,5.1,16.7,5.4,16.7L5.4,16.7z"/>
				</g>
			</g>
		</g>
		<g>
			<g>
				<g>
					<path d="M4.9,22.1c0.3,0,0.3-0.5,0-0.5C4.6,21.6,4.6,22.1,4.9,22.1L4.9,22.1z"/>
				</g>
			</g>
		</g>
		<g>
			<g>
				<g>
					<path d="M7.7,23.8c0.3,0,0.3-0.5,0-0.5C7.4,23.3,7.4,23.8,7.7,23.8L7.7,23.8z"/>
				</g>
			</g>
		</g>
		<g>
			<g>
				<g>
					<path d="M8.9,21.1c0.3,0,0.3-0.5,0-0.5C8.6,20.6,8.6,21.1,8.9,21.1L8.9,21.1z"/>
				</g>
			</g>
		</g>
		<g>
			<g>
				<g>
					<path d="M5.7,19.2c0.3,0,0.3-0.5,0-0.5C5.4,18.7,5.4,19.2,5.7,19.2L5.7,19.2z"/>
				</g>
			</g>
		</g>
		<g>
			<g>
				<g>
					<path d="M7.6,19.7c0.3,0,0.3-0.5,0-0.5C7.3,19.2,7.3,19.7,7.6,19.7L7.6,19.7z"/>
				</g>
			</g>
		</g>
		<g>
			<g>
				<g>
					<path d="M4.7,20.1c0.3,0,0.3-0.5,0-0.5C4.4,19.6,4.4,20.1,4.7,20.1L4.7,20.1z"/>
				</g>
			</g>
		</g>
		<path d="M14.4,6.9c0.1-0.4,0.4-2.8-1-3.9c-1-0.8-2.3-1.2-3.7-1.2c-0.2,0-0.4,0-0.6,0C7.3,1.9,5.7,2.7,4.9,3.9
			C4.4,4.7,4.2,5.7,4.6,6.8c-0.4,3.6-1.6,15.1-1.3,15.8c0.4,0.8,2.7,3,6.1,3c1.5,0,3.1-0.4,4.4-1c1.2-0.6,2-1.4,2.2-2.1
			C16.3,21.2,14.6,8.5,14.4,6.9z M14.4,11.8c-0.9-0.6-3.2-0.7-5-0.6c-1.3,0.1-2.6,0.2-3.5,0.5c-0.6,0.2-1,0.3-1.3,0.5
			c0.2-1.7,0.3-3.3,0.5-4.8c0.9,0.6,2.5,1,4.1,1c1.8,0,3.6-0.4,4.7-1.1C14.1,8.6,14.3,10.2,14.4,11.8z M5.4,4.2
			c0.7-1,2.1-1.7,3.8-1.9c1.5-0.1,2.8,0.2,3.8,1.1c0.9,0.7,0.9,2.3,0.8,3c0,0-0.1,0-0.1,0.1C13,7.2,11.3,7.7,9.4,7.7
			c-1.9,0-3.5-0.4-4.2-1c0,0-0.1-0.1-0.1-0.1C4.8,5.7,4.9,4.9,5.4,4.2z M15.4,22.3C15,23.4,12.5,25,9.3,25c-3.1,0-5.2-2-5.5-2.6
			c-0.1-0.5,0.3-4.8,0.7-9.2c0,0,0.1-0.1,0.1-0.2c0.1-0.5,1.9-1.1,4.9-1.3c2.6-0.1,4.5,0.3,4.8,0.7c0,0,0,0.1,0,0.1
			c-0.3,0.8-1.7,1.3-4,1.3c-0.2,0-0.3,0.1-0.3,0.3c0,0.2,0.1,0.3,0.3,0.3h0c2.2-0.1,3.6-0.5,4.3-1.3C15.1,17.5,15.6,21.7,15.4,22.3z
			"/>
	</g>
</g>
</svg>
