<?xml version="1.0" encoding="utf-8"?>
<!-- Generator: Adobe Illustrator 21.1.0, SVG Export Plug-In . SVG Version: 6.00 Build 0)  -->
<svg version="1.1" id="Layer_1" xmlns="http://www.w3.org/2000/svg" xmlns:xlink="http://www.w3.org/1999/xlink" x="0px" y="0px"
	 viewBox="0 0 30 27.8" style="enable-background:new 0 0 30 27.8;" xml:space="preserve">
<style type="text/css">
	.st0{fill:#C05885;}
	.st1{fill:#D9455C;}
	.st2{fill:#381C1B;}
	.st3{fill:#F0F4D5;}
</style>
<path class="st0" d="M6.8,19.5c0.1,0,0.3,0,0.4,0.1c0.2,0.1,0.4,0.1,0.6,0.2c1.1,0.4,2.2,1.1,3.3,0.3c0.2,0.2,0.4,0.3,0.5,0.5
	c0.3,0.5,0.8,0.6,1.2,1c0.1,0.3,0.3,0.6,0.4,0.9c0.2,0.6,0.2,1.7,0.8,1.5c0.6-0.1,1.8,0.4,1.8-1c0.4-0.7,0.7-1.8,1.8-0.5
	c0.3,0.3,0.8-0.1,1.1-0.3c2.3-0.8,4.7-1.1,6.7-2.7c1.5-1.2,2-4.2,0.2-5.8c-1.1-1-2.5-2.1-3.7-2.7c-1.4-0.8-3.2-2.2-3.8-2.7
	c-0.4-0.3-0.7-0.6-1.1-1c-0.5-0.5-0.8-1-0.7-1.8c0.1-0.3,0.2-0.7-0.3-0.8c-0.4-0.1-0.7,0.1-0.8,0.5c-0.5,2.4-2.1,3.4-4,3.9
	c-2.2,0.6-4,1.6-5.8,2.7c-2,1.2-2.7,2.9-2.2,5.4c0.3,1.2,0.8,2.1,2.1,2.2C5.8,19.9,6.3,19.8,6.8,19.5z"/>
<g>
	<path class="st1" d="M18.1,8.3c-0.3-0.1-0.3,1.3-0.9,0.6c-0.3-0.4-0.6-0.1-0.6,0.3c0,0.4-0.1,0.7-0.5,0.7c-0.5,0.1-0.6-0.4-0.8-0.7
		c-0.2-0.4-0.2-1.1-0.8-1.1c-0.8,0-0.5,0.8-0.6,1.2c-0.1,0.6-0.5,1-1,1c-0.7,0-2.6-0.8-1.7-1.3c1.9-1,3.5-1.5,4-3.9
		c0.1-0.3,0.3-0.5,0.8-0.5c0.5,0.1,0.6,0.6,0.5,0.9c-0.1,0.7,0,1.2,0.5,1.7C17.4,7.6,18,7.7,18.1,8.3z"/>
	<g>
		<path class="st2" d="M19.5,23.8c0.1,0.5,0.5,0.5,0.7,0.7s0.4,0.4,0.3,0.8s-0.4,0.2-0.7,0.2c-0.5,0-1,0-1.4-0.2
			c-1.2-0.7-1.6,0-1.8,1.1c-0.1,0.5,0.1,1.1-0.6,1.1c-0.6,0-0.8-0.4-1-0.9c-0.4-0.9-0.8-1.5-1.6-0.5c-0.3,0.3-0.9,0.7-1.2,0.2
			c-0.4-0.6-1.1-1.3-0.6-2.2c0.7-1.3,0-1.7-1-1.9c-1.4-0.3-2.8-0.5-4.3-0.8c-2.5-0.5-4.3-2-4.9-4.7c-0.5-2.3,0.3-4.2,1.7-5.8
			C5,8.8,7.6,8.1,10.3,7.6c2.6-0.5,2.6-1.4,2.3-3.7c-0.1-0.7-0.3-1.2,0.7-1.1c0.8,0.1,0.3-0.6,0.2-0.9c-0.1-0.5-0.6-1.1-0.1-1.5
			s1,0.2,1.4,0.6c0.8,0.7,1.6,1.4,2.7,1c0.6-0.2,1.4-0.2,1.8,0.4s0,1.4-0.3,1.9c-0.9,1.2-0.4,2,0.6,2.7c1.9,1.3,3.9,2.5,5.7,3.8
			c4.5,3.2,4.2,7.3,1.2,10.2c-1.5,1.4-3.6,2.3-5.7,2.4C20.4,23.5,19.9,23.4,19.5,23.8z M6.8,19.5c0.1,0,0.3,0,0.4,0.1
			c0.2,0.1,0.4,0.1,0.6,0.2c1.1,0.4,2.2,1.1,3.3,0.3c0.2,0.2,0.4,0.3,0.5,0.5c0.3,0.5,0.8,0.6,1.2,1c0.1,0.3,0.3,0.6,0.4,0.9
			c0.2,0.6,0.2,1.7,0.8,1.5c0.6-0.1,1.8,0.4,1.8-1c0.4-0.7,0.7-1.8,1.8-0.5c0.3,0.3,0.8-0.1,1.1-0.3c2.3-0.8,4.7-1.1,6.7-2.7
			c1.5-1.2,2-4.2,0.2-5.8c-1.1-1-2.5-2.1-3.7-2.7c-1.4-0.8-3.2-2.2-3.8-2.7c-0.4-0.3-0.7-0.6-1.1-1c-0.5-0.5-0.8-1-0.7-1.8
			c0.1-0.3,0.2-0.7-0.3-0.8c-0.4-0.1-0.7,0.1-0.8,0.5c-0.5,2.4-2.1,3.4-4,3.9c-2.2,0.6-4,1.6-5.8,2.7c-2,1.2-2.7,2.9-2.2,5.4
			c0.3,1.2,0.8,2.1,2.1,2.2C5.8,19.9,6.3,19.8,6.8,19.5z"/>
		<g>
			<path class="st3" d="M20.9,19.7c0.5,0.2,0.8-0.3,1-0.7c0.7-1.4,0.7-2.9,0-4.3c-0.6-1.2-2.6-4.3-3-4.5c0.3,0.7,0.4,1.3,0.7,1.8
				c1.3,2.1,1.2,4.4,1.3,6.7C20.9,19.1,20.4,19.5,20.9,19.7z"/>
			<path class="st3" d="M17.8,19.9c1.1-2,0.6-5.9-1-7.7C17.5,14.9,17.1,17.3,17.8,19.9z"/>
			<path class="st3" d="M6.8,19.5c0.3,0.4,0.8,0.2,1,0.3c-0.2-1.1-0.5-2.2-0.8-3.3C6.3,16.8,7,19.1,6.8,19.5z"/>
			<path class="st3" d="M16,15.9c-0.3-1.6-0.1-3.1-0.8-4.9c-1.1,2.1-0.9,5.9,0,8.3c0.1,0.4,0.3,0.8,0.7,0.7c0.5-0.1,0.4-0.6,0.3-1
				C16,18,16.2,16.9,16,15.9z"/>
			<path class="st3" d="M11.5,20.3c0.7-0.1,0.8-0.6,0.3-1.2c-0.7-0.9-0.8-2-1.1-3c-0.3-1.1,0.1-2.1,0-3.3c-1.7,2.4-1.6,5.5,0.4,7.3
				C11.3,20.3,11.1,20.1,11.5,20.3z"/>
			<path class="st3" d="M5.4,14.3c-0.2,0.9-0.4,1.8,0.1,3c0.5-1,0.5-1.9,0.6-2.8c0-0.2,0.1-0.6-0.2-0.6C5.6,13.9,5.5,14.1,5.4,14.3z
				"/>
		</g>
		<path class="st1" d="M12.7,21.5c0.1,0,0.3-0.1,0.4-0.1c0.2-1.7,1.3-0.8,2.1-0.9c1.2,0,2.5,0.9,3.7-0.4c0.6-0.7,1.5,0.4,2.4,0.4
			c-0.6,1.3-2.4,0-2.6,1.7c-0.3,0.2-0.8,0.6-1.1,0.3c-1.1-1.2-1.3-0.1-1.8,0.5c-0.3-0.4,0.1-1.5-0.8-1.4c-0.7,0.1-1.3,0.5-1.9,0.8
			C13,22.1,12.8,21.8,12.7,21.5z"/>
	</g>
</g>
</svg>
