<?xml version="1.0" encoding="utf-8"?>
<!-- Generator: Adobe Illustrator 21.1.0, SVG Export Plug-In . SVG Version: 6.00 Build 0)  -->
<svg version="1.1" id="Layer_1" xmlns="http://www.w3.org/2000/svg" xmlns:xlink="http://www.w3.org/1999/xlink" x="0px" y="0px"
	 viewBox="0 0 30 31.2" style="enable-background:new 0 0 30 31.2;" xml:space="preserve">
<style type="text/css">
	.st0{fill:#381C1B;}
	.st1{fill:#F9DC36;}
</style>
<g>
	<path class="st0" d="M19.7,7.7c1.5,1.1,2.6,2.5,3.5,4.1c0.7,1.2,1.5,2.4,2.1,3.7c0.4,0.8,1.3,1.4,2,2.1c0.9,0.9,1.4,1.9,1.5,3.2
		c0,0.9,0,1.8,0.3,2.6c0.5,1.5-0.2,2.5-1.2,3.4c-0.9,0.9-2,1.5-3.2,1.8C22.8,29.2,21,30,19,30c-0.8,0-1.5-0.1-2.2-0.2
		c-3.4-0.6-6.6-1.6-9.4-3.7c-2.6-1.9-3.6-4.5-3.8-7.6c0-0.8,0.5-1.5,0.9-2.1c0.4-0.6,0.7-1.3,0.8-2c0.1-0.4,0.1-0.8,0.4-1.1
		C6.1,12.8,6,12.4,5.6,12c-0.4-0.4-0.9-0.8-1.3-1.2C2.8,9.6,1.9,8.1,1.5,6.1c-0.2-1-0.2-1.9-0.2-2.9c0-0.3,0-0.5,0.1-0.8
		c0.1-0.6,0.8-1.3,1.2-1.2c0.6,0,1.1,0.7,1.2,1.4C3.8,3.8,3.8,4.9,4,6c0.2,1.5,1,2.7,2.2,3.7C6.6,10,7,10.2,7.3,9.6
		C7.4,9.3,7.8,9.2,7.8,9C8,8.3,8.4,8.1,9.1,8.3C9.4,8.3,9.6,8,9.8,7.9c1.3-1,2.7-1.7,4.3-2c1.8-0.3,3.3,0,4.7,1.1
		C19.1,7.3,19.5,7.5,19.7,7.7z M7.3,14.7c-0.7,1-1.3,2-1.2,3.3c0.1,0.5,0.1,1.1,0.2,1.6c0.4,2.1,1.5,3.8,3.3,5
		c1.8,1.1,3.7,1.8,5.6,2.4c3.4,1,6.7,0.3,9.8-1c0.3-0.1,0.5-0.4,0.8-0.6c0.5-0.3,0.7-0.8,0.5-1.3c-0.2-0.8-0.2-1.7-0.2-2.5
		c0-1.6-0.7-2.6-1.9-3.5c-0.9-0.7-1.4-1.5-1.9-2.5c-0.8-1.9-1.9-3.6-3.2-5.1C18.2,9.2,16.9,8,15,7.9c-2-0.1-3.6,0.9-5.3,1.7
		c-0.2,0.1-0.3,0.3-0.1,0.5c0.9,0.8,0.6,1.7,0.2,2.6c-0.2,0.5-0.7,1-0.6,1.3c0.4,0.9,0.2,2,0.8,2.9c0.5,0.7,1,1.3,1.6,1.9
		c0.4,0.3,1.1,0.7,0.7,1.3c-0.3,0.6-1,0.3-1.6,0.2c-0.2,0-0.3-0.1-0.5-0.2c-1-0.6-1.9-1.4-2.5-2.5C7.4,16.7,7.4,15.7,7.3,14.7z"/>
	<path class="st1" d="M7.3,14.7c0.1,1,0.1,2,0.6,2.8c0.6,1,1.4,1.9,2.5,2.5c0.1,0.1,0.3,0.1,0.5,0.2c0.6,0.2,1.3,0.4,1.6-0.2
		c0.4-0.6-0.4-0.9-0.7-1.3c-0.7-0.5-1.2-1.2-1.6-1.9C9.4,16,9.7,14.9,9.3,14c-0.1-0.3,0.3-0.9,0.6-1.3c0.4-0.9,0.8-1.8-0.2-2.6
		C9.4,9.9,9.5,9.7,9.7,9.6c1.7-0.9,3.4-1.8,5.3-1.7c1.9,0.1,3.2,1.3,4.3,2.6c1.3,1.5,2.4,3.2,3.2,5.1c0.4,1,1,1.8,1.9,2.5
		c1.2,0.9,1.9,1.9,1.9,3.5c0,0.8,0,1.7,0.2,2.5c0.1,0.5,0,1-0.5,1.3c-0.3,0.2-0.5,0.5-0.8,0.6c-3.2,1.3-6.4,2-9.8,1
		c-2-0.6-3.9-1.3-5.6-2.4c-1.9-1.2-3-2.8-3.3-5c-0.1-0.5-0.2-1.1-0.2-1.6C5.9,16.7,6.6,15.7,7.3,14.7z M20.1,20.5
		c0.2,0.1,0.3,0.3,0.5,0.4c0.2,0.2,0.4,0.3,0.6,0.5c0.8,0.5,1.3,0.6,1.7,0.1c0.4-0.5,0.3-0.8-0.5-1.5c-1.9-1.6-3.3-3.5-4.2-5.9
		c-0.6-1.6-1.6-2.8-3.1-3.6c-0.7-0.3-1.4-0.2-1.8,0.3c-0.4,0.5-0.3,0.9,0.3,1.2c0.7,0.2,1.3,0.5,1.7,1.1c0.5,0.7,0.8,1.4,1.1,2.2
		C17.1,17.3,18.2,19.2,20.1,20.5z"/>
	<path class="st0" d="M20.1,20.5c-1.9-1.3-3-3.2-3.9-5.3c-0.3-0.8-0.7-1.6-1.1-2.2c-0.4-0.5-1-0.9-1.7-1.1c-0.6-0.2-0.7-0.7-0.3-1.2
		c0.4-0.5,1.2-0.6,1.8-0.3c1.5,0.8,2.6,2,3.1,3.6c0.9,2.4,2.3,4.3,4.2,5.9c0.8,0.7,1,1,0.5,1.5c-0.4,0.5-0.9,0.5-1.7-0.1
		c-0.2-0.1-0.4-0.3-0.6-0.5C20.4,20.8,20.2,20.7,20.1,20.5z"/>
</g>
</svg>
