<?xml version="1.0" encoding="utf-8"?>
<!-- Generator: Adobe Illustrator 21.1.0, SVG Export Plug-In . SVG Version: 6.00 Build 0)  -->
<svg version="1.1" id="Layer_1" xmlns="http://www.w3.org/2000/svg" xmlns:xlink="http://www.w3.org/1999/xlink" x="0px" y="0px"
	 viewBox="0 0 30 32.2" style="enable-background:new 0 0 30 32.2;" xml:space="preserve">
<style type="text/css">
	.st0{fill:#F0F4D5;}
	.st1{fill:#E1EAA2;}
	.st2{fill:#B8D372;}
	.st3{fill:#381C1B;}
</style>
<path class="st0" d="M17.3,19.1c0.1-0.5,0.3-2.5,0.3-3c0-0.3,0-0.8,0.4-0.8s0.5,0.4,0.6,0.8c0,0.2,0.1,0.5,0.1,0.7
	c0.1,0.7,0,1.3,0,2c-0.2,1.2-0.5,2.4-0.9,3.5c-0.3,0.7-0.9,1.2-1.6,1.8c1.1-0.2,1.9-0.6,3.4-1.6c0.3-0.2,0.6-0.9,0.6-0.9
	s0.4-0.5,0.5-0.8c0.6-0.8,0.5-1.8,0.5-2.8c0-0.9,0-1.8-0.1-2.6c-0.2-2.1-1.1-3.8-2.7-5.1c-0.3-0.2-0.4-0.5-0.6-0.8
	c0.4-0.3,0.8-0.5,1.3-0.4c0.3,0.3,0.6,0.6,0.9,0.9c0.8,0.8,1.5,1.6,1.9,2.6c0.7,2,1.1,4,0.7,6.2c-0.1,0.3-0.2,0.5-0.1,0.8
	c2.8-3.5,1.5-8.8-2.4-11c-0.5-0.4-1.1-0.7-1.7-0.9c-0.6-0.3-1.2-0.5-1.8-0.6c-1.1-0.1-1.5-0.8-1.8-1.6c-0.2-0.5-0.3-1.1-0.5-1.8
	c-0.4,0.8-1,1.3-1.1,2.1c-0.1,0.4-0.4,0.7-0.9,0.7c-0.8,0-1.6,0.2-2.4,0.2c-2,0-4.5,2.5-4.5,2.5S5,9.6,4.9,9.8c-0.9,1.6-1,3.3-0.8,5
	c0,0.9,0.3,1.7,0.6,2.5c0.4,1.5,1,2.8,2.3,3.8c0.1-0.4-0.1-0.6-0.1-0.9c-0.3-0.9-0.7-1.7-0.6-2.7c0.4-0.4,0.7-0.3,1,0.2
	c0.3,0.6,0.6,1.1,1,1.6c0.2,0.8,0.8,1.4,1.1,2.1c0.2,0.8,0.8,1.4,1.2,2c0.2,0.3,0.6,0.9,1.1,0.7c0.4-0.2,0.1-0.8,0.1-1.2v-0.1
	c0.1-1,0.1-2,0.2-3c0.1-0.3,0.1-0.6,0.2-0.9c0.2-0.7,0.3-1.4,0.8-1.9c0.1-0.1,0.3-0.2,0.4-0.2c0.2,0.1,0.2,0.2,0.2,0.4
	c0.1,0.5-0.1,1.1,0,1.6c-0.1,0.9-0.2,1.7-0.1,2.6c0,0.3,0,2.6-0.2,3.4c0.7,0,1.5-0.1,1.8-0.5c0.5-0.5,1.1-1.9,1.1-1.9
	S17.1,20.2,17.3,19.1z"/>
<g>
	<g>
		<path class="st1" d="M8.4,19.2C8.7,19.5,9,19.9,9.5,20c0.3,0.1,0.5,0.4,0.7,0.6c0.3,0.3,0.5,0.6,0.9,0.8c0.1-0.4-0.1-0.6-0.2-0.9
			c-0.1-0.3-0.2-0.6,0-0.8c0.3-0.3,0.5-0.2,0.8,0c0.1,0.1,0.2,0,0.3,0.1c-0.1,1-0.1,2-0.2,3c-0.8-0.4-1.5-0.8-2.3-1.3
			c-0.1,0-0.1-0.1-0.1-0.1C9.2,20.5,8.6,20,8.4,19.2z"/>
		<path class="st2" d="M5.7,16.8c0.2,0.2,0.4,0.5,0.6,0.7c-0.1,1,0.4,1.8,0.6,2.7C7,20.5,7.2,20.7,7,21.1c-1.3-1-1.9-2.3-2.3-3.8
			C5.1,17.1,5.3,16.7,5.7,16.8z"/>
		<path class="st2" d="M9.4,21.4l0.1,0.1c0.8,0.4,1.5,0.8,2.3,1.3v0.1c0,0.4,0.3,1-0.1,1.2c-0.5,0.2-0.9-0.3-1.1-0.7
			C10.2,22.8,9.6,22.2,9.4,21.4z"/>
		<path class="st1" d="M5.7,16.8c-0.5-0.1-0.6,0.4-0.9,0.6c-0.3-0.8-0.6-1.6-0.6-2.5c0.3,0,0.7,0,0.8,0.4c0.1,0.4,0.4,0.6,0.7,0.9
			C5.8,16.3,5.9,16.5,5.7,16.8z"/>
		<g>
			<path class="st3" d="M4.6,7.5C6.1,5.9,8,4.9,10.2,4.8c0.2,0,0.3,0,0.5,0c0.5-0.1,1.2,0.1,1.6-0.2c0.4-0.3,0.2-0.9,0.4-1.4V3.1
				c0.2-0.7,0.5-1.4,1.3-1.5s1.3,0.5,1.6,1.2c0.3,0.6,0.6,1.3,0.8,2c0.1,0.5,0.3,0.6,0.8,0.8c2.7,0.6,5,1.9,6.7,4.1
				c2,2.6,2.8,5.5,1.5,8.8c-0.7,1.9-1.8,3.6-3.4,4.8c-2.1,1.7-4.5,3.1-7.3,3.4c-0.5,0-0.9,0.1-1,0.8c-0.1,0.7-0.9,1.1-1.4,0.9
				c-0.7-0.2-1-0.6-0.8-1.5c0.1-0.7-0.3-0.9-0.7-1.2c-1.5-1-3-2-4.5-2.9c-1.7-1.1-2.7-2.8-3.4-4.7C2.4,16.7,2,15.3,2,13.9
				c0-2.4,0.6-4.5,2.4-6.2C4.5,7.6,4.5,7.6,4.6,7.5z M17.3,19.1c0.1-0.5,0.3-2.5,0.3-3c0-0.3,0-0.8,0.4-0.8s0.5,0.4,0.6,0.8
				c0,0.2,0.1,0.5,0.1,0.7c0.1,0.7,0,1.3,0,2c-0.2,1.2-0.5,2.4-0.9,3.5c-0.3,0.7-0.9,1.2-1.6,1.8c1.1-0.2,1.9-0.6,3.4-1.6
				c0.3-0.2,0.6-0.9,0.6-0.9s0.4-0.6,0.5-0.8c0.3-0.7,0.5-1.8,0.5-2.8c0-0.9,0-1.8-0.1-2.6c-0.2-2.1-1.1-3.8-2.7-5.1
				c-0.3-0.2-0.4-0.5-0.6-0.8c0.4-0.3,0.8-0.5,1.3-0.4c0.3,0.3,0.6,0.6,0.9,0.9c0.8,0.8,1.5,1.6,1.9,2.6c0.7,2,1.1,4,0.7,6.2
				c-0.1,0.3-0.2,0.5-0.1,0.8c2.8-3.5,1.5-8.8-2.4-11c-0.5-0.4-1.1-0.7-1.7-0.9c-0.6-0.3-1.2-0.5-1.8-0.6c-1.1-0.1-1.5-0.8-1.8-1.6
				c-0.2-0.5-0.3-1.1-0.5-1.8c-0.4,0.8-1,1.3-1.1,2.1c-0.1,0.4-0.4,0.7-0.9,0.7c-0.8,0-1.6,0.2-2.4,0.2c-2,0-4.5,2.5-4.5,2.5
				S5,9.6,4.9,9.8c-0.9,1.6-1,3.3-0.8,5c0,0.9,0.3,1.7,0.6,2.5c0.4,1.5,1,2.8,2.3,3.8c0.1-0.4-0.1-0.6-0.1-0.9
				c-0.3-0.9-0.7-1.7-0.6-2.7c0.4-0.4,0.7-0.3,1,0.2c0.3,0.6,0.6,1.1,1,1.6c0.2,0.8,0.8,1.4,1.1,2.1c0.2,0.8,0.8,1.4,1.2,2
				c0.2,0.3,0.6,0.9,1.1,0.7c0.4-0.2,0.1-0.8,0.1-1.2v-0.1c0.1-1,0.1-2,0.2-3c0.1-0.3,0.1-0.6,0.2-0.9c0.2-0.7,0.3-1.4,0.8-1.9
				c0.1-0.1,0.3-0.2,0.4-0.2c0.2,0.1,0.2,0.2,0.2,0.4c0.1,0.5-0.1,1.1,0,1.6c-0.1,0.9-0.2,1.7-0.1,2.6c0,0.3,0,2.6-0.2,3.4
				c0.7,0,1.5-0.1,1.8-0.5c0.5-0.5,1.1-1.9,1.1-1.9S17.1,20.2,17.3,19.1z"/>
			<path class="st2" d="M12.9,10.2c0.1-0.6,0-1.2,0.2-1.8c0.1-0.3,0-0.5-0.2-0.7c-0.3-0.2-0.4,0-0.6,0.2c-0.3-0.3-0.7-0.1-1,0
				c-0.5,0.1-0.8,0.6-1.2,0.8C9.6,8.7,9.3,8.9,9,9.3c-0.5,0.6-1,1-1.5,1.4C7,9.9,7.1,9.7,7.6,9.1C7.8,8.9,8,8.7,8.2,8.4
				C8.3,8.2,8.6,8,8.4,7.8C8.1,7.6,8,7.9,7.8,8C7.3,8.4,6.9,8.9,6.4,9.3c-0.5,0.4-1-0.1-1-0.1s2.4-2.6,4.5-2.6
				c0.8,0,1.6-0.1,2.4-0.2c0.5,0,0.8-0.3,0.9-0.7c0.2-0.8,0.8-1.3,1.1-2.1c0.2,0.7,0.3,1.2,0.5,1.8c0.3,0.9,0.8,1.5,1.8,1.6
				c0.6,0.1,1.3,0.3,1.8,0.6c0,0.1-0.1,0.1-0.1,0.2C18,8.7,18,8.7,17.1,8.6c-0.3,0-0.5,0.1-0.7,0.3c-0.2-0.5-0.4-1-0.7-1.4
				c-0.2-0.3-0.5-0.7-0.9-0.4c-0.4,0.2-0.5,0.6-0.2,1c0.1,0.2,0.1,0.4,0.2,0.6c-0.5,0.3-0.5,1-0.9,1.4c-0.3,0.2-0.2,0.7-0.6,1
				C13,10.9,13.2,10.4,12.9,10.2z"/>
			<path class="st1" d="M13.5,22.2c0-0.4,0-0.7,0-1c0.3,0.1,0.5-0.1,0.5-0.4c0-0.6,0.3-1.1,0.5-1.7c0.1-0.4,0.3-0.3,0.6-0.1l0,0
				c-0.2,0.5,0.1,0.8,0.6,1.1c0.2-0.4,0.3-0.7,0.5-1c0.1-0.2,0.1-0.3,0.4-0.3c0.1,0,0.2,0.2,0.2,0.3c0.1,0.2,0.1,0.4,0,0.6
				c-0.4,0.5-0.1,0.7,0.2,1l0,0c0,0.1-0.1,0.2-0.1,0.3c-0.1,0.5-0.5,1.4-0.5,1.4s-0.9-0.9-1.7-0.5C14.1,21.9,13.8,22,13.5,22.2z"/>
			<path class="st1" d="M19.9,8.5c-0.3,0.3-0.5,0.3-0.8,0.6c-0.5-0.1-0.9,0.1-1.3,0.4c-0.2,0-0.4-0.2-0.6-0.2
				c-0.3,0-0.5,0.1-0.3,0.5c0.4,0.7,0.6,1.4,0.8,2.1c-0.3,0.4-0.3,0.8,0,1.2l0,0c-0.1,0.1-0.3,0.3-0.4,0.4c-0.2-0.3-0.4-0.4-0.3-0.9
				s-0.4-0.7-0.6-1c-0.3-0.4-0.6-0.8-0.2-1.3c0.5-0.4,0.4-0.9,0.2-1.4c0.2-0.2,0.4-0.3,0.7-0.3c0.9,0.1,0.9,0,1.2-0.8
				c0-0.1,0.1-0.1,0.1-0.2C18.9,7.8,19.4,8.2,19.9,8.5z"/>
			<path class="st2" d="M13.5,22.2c0.3-0.2,0.6-0.3,0.9-0.3c0.8-0.4,1.8,0.5,1.8,0.5s-0.5,1.4-1.1,1.9c-0.4,0.4-1.1,0.6-1.8,0.5
				c0.2-0.8,0.1-1.6,0.2-2.3C13.5,22.4,13.5,22.2,13.5,22.2z"/>
			<path class="st1" d="M18.7,18.8c0.3,0.1,0.4-0.2,0.6-0.2c0.3,0,0.5,0.2,0.4,0.4c-0.5,0.8-0.2,1.8-0.6,2.6
				c0.3,0.3,1.2-0.1,1.2-0.1s-0.3,0.7-0.6,0.9c-0.6-0.6-1.2,0.1-1.9,0C18.2,21.2,18.5,20,18.7,18.8z"/>
			<path class="st2" d="M17.8,22.3c0.6,0.1,1.3-0.5,1.9,0.1c-1.5,1-2.4,1.5-3.5,1.7C16.8,23.5,17.5,23,17.8,22.3z"/>
			<path class="st3" d="M10.1,8.7c0.4-0.3,0.7-0.7,1.2-0.8c0.3-0.1,0.7-0.3,1,0c0.2,0.6-0.4,0.8-0.7,1c-0.9,0.6-1.5,1.4-1.9,2.4
				c-0.5,1.1-0.4,2.2-0.3,3.4c0.1,0.4,0.1,0.7,0.1,1.1c-0.1,0.4-0.3,0.5-0.6,0.2c-0.5-0.4-0.7-0.9-0.8-1.5c-0.4-1.7,0.2-3.2,1-4.6
				C9.4,9.4,9.8,9.1,10.1,8.7z"/>
			<path class="st3" d="M16.4,8.8c0.2,0.5,0.3,1.1-0.2,1.5c-0.2-0.2-0.5-0.4-0.7-0.5l0,0c-0.3-0.4-0.6-0.6-0.7-1.1
				c-0.1-0.2-0.2-0.4-0.3-0.6c-0.2-0.4-0.1-0.9,0.3-1.1s0.7,0.2,0.9,0.4C16,7.9,16.2,8.4,16.4,8.8z"/>
			<path class="st1" d="M12.9,10.2c0.3,0.2,0.1,0.6,0.4,0.9c0.4-0.2,0.3-0.7,0.6-1c0.2,0.9-0.1,1.7-0.5,2.4
				c-0.2,0.3-0.7,0.1-0.7-0.2C12.7,11.6,12.3,10.9,12.9,10.2z"/>
			<polygon class="st1" points="15.5,9.9 15.5,9.9 15.4,9.9 			"/>
		</g>
	</g>
</g>
</svg>
