<?xml version="1.0" encoding="utf-8"?>
<!-- Generator: Adobe Illustrator 21.0.0, SVG Export Plug-In . SVG Version: 6.00 Build 0)  -->
<svg version="1.1" id="Layer_1" xmlns="http://www.w3.org/2000/svg" xmlns:xlink="http://www.w3.org/1999/xlink" x="0px" y="0px"
	 viewBox="0 0 30 29.3" style="enable-background:new 0 0 30 29.3;" xml:space="preserve">
<style type="text/css">
	.st0{fill:#FFFFFF;}
	.st1{fill:#BF1D70;}
</style>
<g>
	<path class="st0" d="M28,25.6c-0.1-0.4-0.2-0.8-0.4-1.2c-0.2-0.3-0.3-0.7-0.3-1.1c0-0.2,0-0.4-0.1-0.6c-0.1-0.3-0.2-0.5-0.2-0.8
		c-0.1-0.4-0.3-0.9-0.5-1.3c-0.2-0.3-0.4-0.7-0.5-1.1c0-0.1-0.1-0.1-0.1-0.2c0.1,0,0.2,0.1,0.3,0.2c0.4,0.4,0.8,0.7,1.2,1
		c0.2,0.1,0.3,0.2,0.4,0.4c0.1,0.1,0.1,0.2,0.1,0.4c0-0.4-0.1-0.8-0.6-1c-0.3-0.1-0.5-0.3-0.7-0.5c-0.2-0.2-0.4-0.5-0.8-0.6
		c-0.2-0.1-0.2-0.2-0.2-0.4c0.1-0.6-0.1-1-0.3-1.5c-0.3-0.5-0.6-0.9-0.9-1.4c-0.2-0.2-0.4-0.4-0.6-0.4c-0.2-0.1-0.5-0.2-0.6-0.4
		c0-0.1-0.1-0.2-0.3-0.2c-0.2-0.1-0.3-0.2-0.5-0.3c-0.4-0.3-0.6-0.7-1-1.1c0,0-0.1-0.1-0.1-0.1c-0.4-0.6-0.8-1.1-1.2-1.6
		c-0.3-0.3-0.5-0.6-0.8-0.8c0.5,0.2,1,0.5,1.3,1c0-0.2-0.1-0.3-0.1-0.4C20,11,19.5,10.7,19,10.5c-0.3-0.1-0.6-0.3-0.7-0.6
		c-0.1-0.2-0.2-0.3-0.3-0.4c-0.1-0.1-0.2-0.2-0.2-0.3c-0.1-0.3-0.3-0.6-0.5-0.9c-0.2-0.2-0.4-0.3-0.6-0.5c-0.1-0.1-0.2-0.2-0.4-0.3
		c-0.3-0.1-0.6-0.2-0.8-0.3c-0.2-0.1-0.4-0.1-0.6-0.2C14.6,7,14.4,6.9,14,6.9c-0.3-0.1-0.6-0.1-0.9-0.1c-0.1,0-0.2,0-0.3-0.1
		c-0.1-0.1-0.2-0.1-0.3-0.1c-0.1,0-0.2,0-0.3,0c-0.3-0.1-0.5-0.2-0.8-0.1c-0.2,0-0.3-0.1-0.5-0.1c-0.3,0-0.7,0-1-0.2
		c-0.1-0.1-0.2-0.1-0.3,0c0,0-0.1,0.1-0.2,0c0,0,0,0-0.1,0l0,0c0,0,0,0-0.1,0c0,0,0,0-0.1,0c0,0-0.1,0-0.1,0C8.7,6,8.2,5.8,7.9,5.5
		C7.6,5.3,7.4,5,7.2,4.7C7,4.6,7,4.4,6.8,4.2C6.7,4,6.5,3.8,6.4,3.6c-0.2-0.3-0.5-0.6-0.7-1C5.5,2.4,5.3,2.2,5.1,2C5.1,2,5,2,5,2
		C4.8,2.1,4.7,2.2,4.5,2.3C4.4,2.4,4.4,2.6,4.4,2.7c0,0.1,0.1,0.1,0.1,0.1c0,0,0.1,0.1,0.1,0.1C4.7,3,4.7,3.1,4.8,3.2
		C5,3.4,5.2,3.7,5.4,4c0.2,0.3,0.5,0.7,0.8,0.9C6.3,5,6.4,5,6.4,5.1C6.6,5.4,6.8,5.7,7.1,6c0,0,0,0,0,0.1C7,6,6.9,6,6.8,5.9
		C6.7,5.7,6.5,5.5,6.3,5.4c-0.1,0-0.1-0.1-0.2-0.2C6,5.1,5.9,5,5.8,4.9C5.7,4.8,5.5,4.6,5.4,4.5C5.1,4.2,4.8,3.9,4.7,3.4
		c0-0.1-0.1-0.2-0.2-0.2C4.1,3.1,3.8,3,3.5,2.9c-0.1,0-0.1,0-0.2,0.1C3.2,3.2,3.1,3.4,2.9,3.6c0,0.1-0.1,0.2-0.2,0.3
		c0,0.1-0.1,0.1-0.2,0C2.5,3.8,2.5,3.7,2.4,3.6c0-0.1-0.1-0.1-0.2-0.1C2.1,3.6,2,3.6,2,3.5c0,0,0,0,0,0c0,0,0,0,0,0.1
		c0,0.2,0,0.5,0,0.7c0,0.3,0.1,0.6,0.4,0.8c0.1,0.1,0.1,0.1,0.2,0.2C2.9,5.6,3.4,5.8,3.8,6c0.3,0.1,0.5,0.2,0.8,0.4
		C4.7,6.5,4.9,6.6,5,6.7c0.1,0,0.1,0,0.2,0.1C5.1,6.8,5,6.7,4.9,6.7C4.5,6.6,4.2,6.5,3.9,6.3C3.8,6.2,3.6,6.2,3.5,6.1
		C3.1,5.9,2.7,5.8,2.4,5.6C2.2,5.5,2,5.4,1.8,5.3c0,0.3,0,0.5,0.1,0.7c0,0.1,0.1,0.2,0.2,0.2c0.3,0.1,0.6,0.2,0.8,0.4
		C3.1,6.8,3.3,6.9,3.6,7c0.1,0,0.2,0.1,0.3,0.2C4,7.2,4.1,7.3,4.2,7.3c0.2,0.1,0.4,0.2,0.6,0.3C5,7.7,5.2,7.9,5.5,8
		C5.7,8.1,5.8,8.2,6,8.3c0,0,0.1,0.1,0.1,0.1c0.3,0.1,0.4,0.3,0.6,0.5c0,0,0,0.1,0.1,0.1l0,0c0.1,0.4,0.1,0.8-0.2,1.3
		c-0.1,0.3-0.2,0.5-0.4,0.7C6.1,11,6,11.1,6.1,11.3c0.2-0.1,0.4-0.3,0.5-0.5c0.2-0.4,0.3-0.8,0.4-1.3c0-0.1,0-0.1,0-0.2
		c0,0.1,0.1,0.2,0.1,0.3c0.2,0.3,0.2,0.7,0.2,1c-0.1,0.4-0.1,0.8,0,1.2c0,0.1,0,0.1,0.1,0.2c0-0.6,0.1-1.2,0.2-1.8
		c0.1,0,0.1,0.1,0.1,0.2c0.1,0.3,0.3,0.7,0.3,1c0.1,0.5,0.3,1,0.6,1.3c0.3,0.3,0.5,0.7,0.7,1.1c0.2,0.4,0.4,0.7,0.7,1
		c0.3,0.3,0.6,0.5,0.8,0.8c0,0.1,0.1,0.1,0.2,0.2c0.1,0.1,0.2,0.2,0.2,0.3c0.2,0.4,0.6,0.7,1,1c0.1,0,0.1,0.1,0.2,0.2
		c0.2,0.3,0.4,0.6,0.6,1c0.1,0.1,0.1,0.2,0.3,0.3c0.1,0.1,0.2,0.2,0.2,0.3c0.2,0.3,0.4,0.6,0.7,0.8c0.3,0.2,0.5,0.4,0.7,0.6
		c0.4,0.5,0.9,0.5,1.4,0.6c0,0,0,0,0,0c0.2,0,0.4-0.1,0.6-0.1c0.2,0,0.4-0.1,0.6,0c0.2,0,0.3,0.1,0.5,0.2c0.2,0.1,0.4,0.2,0.6,0.4
		c0.3,0.2,0.7,0.2,1,0.5c0,0,0.1,0,0.1,0c0.2,0,0.4,0.1,0.5,0.3c0,0.1,0.1,0.1,0.2,0.1c0.2,0.2,0.4,0.4,0.5,0.6
		c0.1,0.1,0.1,0.3,0.3,0.3c0.1,0,0.1,0.1,0.1,0.2c-0.1,0.3,0,0.7,0,1c0.1,0.5,0.4,0.9,0.6,1.3c0,0,0,0,0,0c0-0.1,0-0.2,0-0.3
		c-0.1-0.3-0.2-0.5-0.3-0.8c-0.2-0.4-0.2-0.8-0.2-1.2c0-0.2,0.1-0.2,0.2-0.2c0.1,0,0.2,0,0.3,0c0.2,0,0.5,0,0.7,0.2
		c0.5,0.2,0.9,0.5,1.4,0.6c0.3,0.1,0.6,0.1,0.9,0.2c0.6,0.2,1.2,0.6,1.8,1c0.3,0.2,0.6,0.4,0.9,0.6c0.1,0.1,0.3,0.2,0.4,0.3
		C28.1,26.7,28.1,26.2,28,25.6z"/>
	<g>
		<path class="st1" d="M8.1,9.7c0.2-0.1,0.4-0.2,0.5-0.5c0,0,0.1-0.1,0.1-0.1C8.8,9,9,8.8,9,8.6c0-0.1,0-0.2,0-0.3
			C8.9,8.7,8.6,9,8.4,9.3C8.2,9.5,8,9.7,7.7,9.7c0,0-0.1,0-0.1,0.1c0,0.1,0,0.1,0.1,0.1C7.8,9.8,7.9,9.8,8.1,9.7z"/>
		<path class="st1" d="M22.4,23.3L22.4,23.3L22.4,23.3L22.4,23.3C22.4,23.3,22.4,23.3,22.4,23.3C22.4,23.3,22.4,23.3,22.4,23.3z"/>
		<path class="st1" d="M28,25.6c-0.1-0.4-0.2-0.8-0.4-1.2c-0.2-0.3-0.3-0.7-0.3-1.1c0-0.2,0-0.4-0.1-0.6c-0.1-0.3-0.2-0.5-0.2-0.8
			c-0.1-0.4-0.3-0.9-0.5-1.3c-0.2-0.3-0.4-0.7-0.5-1.1c0-0.1-0.1-0.1-0.1-0.2c0.1,0,0.2,0.1,0.3,0.2c0.4,0.4,0.8,0.7,1.2,1
			c0.2,0.1,0.3,0.2,0.4,0.4c0.1,0.1,0.1,0.2,0.1,0.4c0-0.4-0.1-0.8-0.6-1c-0.3-0.1-0.5-0.3-0.7-0.5c-0.2-0.2-0.4-0.5-0.8-0.6
			c-0.2-0.1-0.2-0.2-0.2-0.4c0.1-0.6-0.1-1-0.3-1.5c-0.3-0.5-0.6-0.9-0.9-1.4c-0.2-0.2-0.4-0.4-0.6-0.4c-0.2-0.1-0.5-0.2-0.6-0.4
			c0-0.1-0.1-0.2-0.3-0.2c-0.2-0.1-0.3-0.2-0.5-0.3c-0.4-0.3-0.6-0.7-1-1.1c0,0-0.1-0.1-0.1-0.1c-0.4-0.6-0.8-1.1-1.2-1.6
			c-0.3-0.3-0.5-0.6-0.8-0.8c0.5,0.2,1,0.5,1.3,1c0-0.2-0.1-0.3-0.1-0.4C20,11,19.5,10.7,19,10.5c-0.3-0.1-0.6-0.3-0.7-0.6
			c-0.1-0.2-0.2-0.3-0.3-0.4c-0.1-0.1-0.2-0.2-0.2-0.3c-0.1-0.3-0.3-0.6-0.5-0.9c-0.2-0.2-0.4-0.3-0.6-0.5c-0.1-0.1-0.2-0.2-0.4-0.3
			c-0.3-0.1-0.6-0.2-0.8-0.3c-0.2-0.1-0.4-0.1-0.6-0.2C14.6,7,14.4,6.9,14,6.9c-0.3-0.1-0.6-0.1-0.9-0.1c-0.1,0-0.2,0-0.3-0.1
			c-0.1-0.1-0.2-0.1-0.3-0.1c-0.1,0-0.2,0-0.3,0c-0.3-0.1-0.5-0.2-0.8-0.1c-0.2,0-0.3-0.1-0.5-0.1c-0.3,0-0.7,0-1-0.2
			c-0.1-0.1-0.2-0.1-0.3,0c0,0-0.1,0.1-0.2,0c0,0,0,0-0.1,0l0,0c0,0,0,0-0.1,0c0,0,0,0-0.1,0c0,0-0.1,0-0.1,0C8.7,6,8.2,5.8,7.9,5.5
			C7.6,5.3,7.4,5,7.2,4.7C7,4.6,7,4.4,6.8,4.2C6.7,4,6.5,3.8,6.4,3.6c-0.2-0.3-0.5-0.6-0.7-1C5.5,2.4,5.3,2.2,5.1,2C5.1,2,5,2,5,2
			C4.8,2.1,4.7,2.2,4.5,2.3C4.4,2.4,4.4,2.6,4.4,2.7c0,0.1,0.1,0.1,0.1,0.1c0,0,0.1,0.1,0.1,0.1C4.7,3,4.7,3.1,4.8,3.2
			C5,3.4,5.2,3.7,5.4,4c0.2,0.3,0.5,0.7,0.8,0.9C6.3,5,6.4,5,6.4,5.1C6.6,5.4,6.8,5.7,7.1,6c0,0,0,0,0,0.1C7,6,6.9,6,6.8,5.9
			C6.7,5.7,6.5,5.5,6.3,5.4c-0.1,0-0.1-0.1-0.2-0.2C6,5.1,5.9,5,5.8,4.9C5.7,4.8,5.5,4.6,5.4,4.5C5.1,4.2,4.8,3.9,4.7,3.4
			c0-0.1-0.1-0.2-0.2-0.2C4.1,3.1,3.8,3,3.5,2.9c-0.1,0-0.1,0-0.2,0.1C3.2,3.2,3.1,3.4,2.9,3.6c0,0.1-0.1,0.2-0.2,0.3
			c0,0.1-0.1,0.1-0.2,0C2.5,3.8,2.5,3.7,2.4,3.6c0-0.1-0.1-0.1-0.2-0.1C2.1,3.6,2,3.6,2,3.5c0,0,0,0,0,0c0,0,0,0,0,0.1
			c0,0.2,0,0.5,0,0.7c0,0.3,0.1,0.6,0.4,0.8c0.1,0.1,0.1,0.1,0.2,0.2C2.9,5.6,3.4,5.8,3.8,6c0.3,0.1,0.5,0.2,0.8,0.4
			C4.7,6.5,4.9,6.6,5,6.7c0.1,0,0.1,0,0.2,0.1C5.1,6.8,5,6.7,4.9,6.7C4.5,6.6,4.2,6.5,3.9,6.3C3.8,6.2,3.6,6.2,3.5,6.1
			C3.1,5.9,2.7,5.8,2.4,5.6C2.2,5.5,2,5.4,1.8,5.3c0,0.3,0,0.5,0.1,0.7c0,0.1,0.1,0.2,0.2,0.2c0.3,0.1,0.6,0.2,0.8,0.4
			C3.1,6.8,3.3,6.9,3.6,7c0.1,0,0.2,0.1,0.3,0.2C4,7.2,4.1,7.3,4.2,7.3c0.2,0.1,0.4,0.2,0.6,0.3C5,7.7,5.2,7.9,5.5,8
			C5.7,8.1,5.8,8.2,6,8.3c0,0,0.1,0.1,0.1,0.1c0.3,0.1,0.4,0.3,0.6,0.5c0,0,0,0.1,0.1,0.1l0,0c0.1,0.4,0.1,0.8-0.2,1.3
			c-0.1,0.3-0.2,0.5-0.4,0.7C6.1,11,6,11.1,6.1,11.3c0.2-0.1,0.4-0.3,0.5-0.5c0.2-0.4,0.3-0.8,0.4-1.3c0-0.1,0-0.1,0-0.2
			c0,0.1,0.1,0.2,0.1,0.3c0.2,0.3,0.2,0.7,0.2,1c-0.1,0.4-0.1,0.8,0,1.2c0,0.1,0,0.1,0.1,0.2c0-0.6,0.1-1.2,0.2-1.8
			c0.1,0,0.1,0.1,0.1,0.2c0.1,0.3,0.3,0.7,0.3,1c0.1,0.5,0.3,1,0.6,1.3c0.3,0.3,0.5,0.7,0.7,1.1c0.2,0.4,0.4,0.7,0.7,1
			c0.3,0.3,0.6,0.5,0.8,0.8c0,0.1,0.1,0.1,0.2,0.2c0.1,0.1,0.2,0.2,0.2,0.3c0.2,0.4,0.6,0.7,1,1c0.1,0,0.1,0.1,0.2,0.2
			c0.2,0.3,0.4,0.6,0.6,1c0.1,0.1,0.1,0.2,0.3,0.3c0.1,0.1,0.2,0.2,0.2,0.3c0.2,0.3,0.4,0.6,0.7,0.8c0.3,0.2,0.5,0.4,0.7,0.6
			c0.4,0.5,0.9,0.5,1.4,0.6c0,0,0,0,0,0c0.2,0,0.4-0.1,0.6-0.1c0.2,0,0.4-0.1,0.6,0c0.2,0,0.3,0.1,0.5,0.2c0.2,0.1,0.4,0.2,0.6,0.4
			c0.3,0.2,0.7,0.2,1,0.5c0,0,0.1,0,0.1,0c0.2,0,0.4,0.1,0.5,0.3c0,0.1,0.1,0.1,0.2,0.1c0.2,0.2,0.4,0.4,0.5,0.6
			c0.1,0.1,0.1,0.3,0.3,0.3c0.1,0,0.1,0.1,0.1,0.2c-0.1,0.3,0,0.7,0,1c0.1,0.5,0.4,0.9,0.6,1.3c0,0,0,0,0,0c0-0.1,0-0.2,0-0.3
			c-0.1-0.3-0.2-0.5-0.3-0.8c-0.2-0.4-0.2-0.8-0.2-1.2c0-0.2,0.1-0.2,0.2-0.2c0.1,0,0.2,0,0.3,0c0.2,0,0.5,0,0.7,0.2
			c0.5,0.2,0.9,0.5,1.4,0.6c0.3,0.1,0.6,0.1,0.9,0.2c0.6,0.2,1.2,0.6,1.8,1c0.3,0.2,0.6,0.4,0.9,0.6c0.1,0.1,0.3,0.2,0.4,0.3
			C28.1,26.7,28.1,26.2,28,25.6z M9.1,6.3C9.3,6.5,9.3,6.8,9,6.9C9.1,6.7,9.1,6.5,9.1,6.3z M9.2,7.1c0.1,0.2,0,0.3-0.1,0.4
			C9.1,7.3,9.1,7.2,9.2,7.1z M7.8,5.6C7.9,5.6,8,5.7,8,5.8C8.3,6,8.6,6.1,8.8,6.3C9,6.4,9.1,6.7,8.9,6.9C8.9,7,8.8,7,8.7,6.9
			C8.6,6.8,8.5,6.7,8.4,6.6C8.2,6.3,7.9,6,7.8,5.6C7.8,5.6,7.8,5.6,7.8,5.6z M9,7.2C9,7.2,9,7.3,9,7.2C9,7.3,8.9,7.2,9,7.2
			C9,7.2,9,7.2,9,7.2C9,7.2,9,7.2,9,7.2z M5.2,2.4C5.2,2.3,5.3,2.4,5.2,2.4c0.3,0.2,0.4,0.4,0.5,0.6C6.4,3.8,7,4.7,7.6,5.6
			c0,0,0,0,0,0.1C7.3,5.4,7,5.1,6.8,4.7C6.5,4.3,6.2,3.9,5.9,3.5C5.8,3.4,5.7,3.2,5.6,3.1C5.4,3,5.3,2.8,5.2,2.5c0,0,0-0.1,0-0.1
			C5.1,2.4,5.2,2.4,5.2,2.4z M4.6,2.6c0.1-0.2,0.3-0.3,0.5-0.4C5.1,2.4,4.9,2.6,4.6,2.6z M6.7,5.2C6.5,5,6.4,4.9,6.3,4.8
			C6,4.5,5.7,4.3,5.5,3.9C5.3,3.6,5.1,3.4,4.9,3.1c0-0.1-0.1-0.1-0.1-0.2C4.7,2.8,4.7,2.8,4.9,2.7C5,2.7,5,2.6,5.1,2.6
			c0,0.1,0.1,0.1,0.1,0.2c0.1,0.2,0.2,0.3,0.4,0.5c0.1,0.1,0.2,0.3,0.3,0.4c0.4,0.6,0.8,1.2,1.2,1.7C7.6,5.8,8,6.2,8.3,6.7
			C8.4,6.8,8.5,6.9,8.6,7c0.2,0.2,0.3,0.3,0.3,0.7C8.7,7.5,8.6,7.3,8.5,7.2c0,0,0,0,0,0c0-0.2-0.2-0.3-0.3-0.4
			C7.6,6.3,7,5.8,6.7,5.2z M5.1,4.3c0.8,0.8,1.6,1.6,2.5,2.4C7.3,6.6,7,6.4,6.7,6.2C6.5,6.1,6.3,6,6.2,5.8c-0.4-0.4-0.7-0.9-1-1.3
			C5.1,4.4,5.1,4.4,5.1,4.3C5.1,4.4,5.1,4.3,5.1,4.3z M3.7,3.1c0,0,0.1,0,0.1,0c0.2,0,0.4,0.1,0.6,0.1c0.1,0,0.2,0.1,0.2,0.2
			c0.1,0.2,0.2,0.4,0.3,0.7C4.9,4.3,5,4.5,5.1,4.6c0.2,0.3,0.4,0.5,0.6,0.8C5.8,5.5,5.9,5.6,6,5.7C5.8,5.7,5.6,5.6,5.5,5.4
			C5.4,5.2,5.2,5,5,4.8C4.9,4.6,4.7,4.3,4.4,4.1C4.3,4,4.2,3.9,4.1,3.8C4,3.6,3.8,3.5,3.7,3.2C3.7,3.2,3.7,3.2,3.7,3.1z M3,3.7
			c0.1-0.2,0.3-0.3,0.4-0.5c0-0.1,0.1-0.1,0.2,0c0.1,0.2,0.2,0.3,0.4,0.5C4.1,4,4.3,4.2,4.6,4.5C4.8,4.7,5,5,5.2,5.2
			c0.1,0.1,0.2,0.2,0.3,0.4c-0.2,0-0.3-0.1-0.4-0.2C4.7,5.2,4.4,5,4,4.8C3.8,4.7,3.5,4.6,3.3,4.4C3.3,4.4,3.2,4.3,3.1,4.3
			C3,4.2,3,4.2,3,4.1C2.9,4,2.9,3.9,3,3.7z M4.7,6.3C4.6,6.2,4.4,6.2,4.3,6.1c0,0,0,0,0,0l0,0C3.8,5.9,3.4,5.7,3,5.4
			C2.7,5.3,2.5,5.1,2.3,4.9C2.2,4.8,2.2,4.8,2.1,4.7C2.3,4.8,2.5,4.9,2.7,5c0.4,0.2,0.7,0.4,1,0.6C3.9,5.7,4.1,5.9,4.3,6
			c0,0,0,0.1,0,0.1l0,0l0,0C4.5,6.1,4.6,6.2,4.7,6.3c0.1,0,0.3,0.1,0.4,0.2C5,6.5,4.8,6.5,4.7,6.3z M4.2,5.8
			C3.9,5.6,3.5,5.4,3.1,5.1C3,5,2.8,5,2.6,4.9C2.4,4.8,2.3,4.6,2.1,4.5c0,0-0.1-0.1,0-0.1c0-0.2,0-0.3,0-0.5c0-0.1,0-0.2,0.1-0.2
			c0.1,0,0.2,0,0.2,0.1c0,0,0,0,0,0c0.2,0.3,0.4,0.4,0.7,0.6c0.2,0.1,0.3,0.3,0.5,0.4C3.9,4.9,4.1,5,4.3,5.1
			c0.1,0.1,0.3,0.1,0.4,0.2c0.5,0.3,1,0.6,1.5,0.8C6.5,6.3,6.8,6.4,7,6.5C7.3,6.7,7.7,6.9,8,7.1c0.3,0.2,0.5,0.4,0.7,0.7
			c0.1,0.1,0,0.2,0,0.3c0,0.1-0.1,0.1-0.2,0.1l0,0l0,0c0,0.1,0,0.1,0,0.1c-0.1,0-0.1-0.1-0.1-0.1c0-0.1,0.1,0,0.1,0c0,0,0,0,0,0l0,0
			c0-0.2-0.1-0.4-0.3-0.5C8,7.4,7.7,7.2,7.3,7.1C7.1,7.1,6.9,7,6.7,7C6.4,6.9,6.1,6.8,5.8,6.7C5.3,6.5,4.7,6.2,4.2,5.8z M8.2,8.5
			c0,0-0.1,0.1-0.1,0C8,8.5,8,8.4,8,8.3c0,0,0.1-0.1,0.1-0.1c0,0,0-0.1,0.1-0.2C8.3,8.2,8.3,8.4,8.2,8.5z M8.2,8.7
			C8.2,8.7,8.2,8.7,8.2,8.7c-0.1,0-0.1,0-0.1,0C8.2,8.6,8.2,8.6,8.2,8.7C8.2,8.6,8.2,8.7,8.2,8.7z M7.8,7.5c0.2,0.1,0.3,0.2,0.4,0.3
			C8.1,7.7,7.9,7.6,7.8,7.5z M8,7.8C8,7.9,8.1,7.9,8.1,8c0,0.1,0,0.2-0.1,0.2c-0.1,0-0.1,0-0.1-0.1C7.8,8.1,7.7,8,7.6,8
			C7.4,7.9,7.1,7.8,6.9,7.7C6.8,7.6,6.6,7.5,6.5,7.5C6.1,7.4,5.9,7.2,5.6,7c0,0-0.1,0,0-0.1c0.1,0,0.2,0,0.3,0.1
			c0.2,0.1,0.5,0.2,0.8,0.1c0.2,0,0.5,0.1,0.7,0.2C7.6,7.5,7.8,7.7,8,7.8z M7.4,8.1c0.1,0.1,0.3,0.1,0.3,0.3c0,0,0,0.1,0.1,0.1
			c0.1,0.1,0.1,0.1,0,0.2C7.7,8.8,7.5,8.7,7.4,8.6C7.3,8.3,7,8.2,6.9,8C6.8,7.9,6.7,7.9,6.7,7.7C6.9,7.9,7.2,8,7.4,8.1z M7.7,8.9
			c0.1,0,0.1,0,0.2-0.1C7.9,8.9,7.8,9,7.7,9C7.7,9,7.6,9,7.7,8.9C7.6,8.9,7.6,8.9,7.7,8.9z M8,8.9c0.1-0.1,0.1,0,0.2,0l0,0
			c0,0,0,0,0,0c0.1-0.1,0.1-0.1,0.1-0.2c0-0.1,0.1-0.1,0.2-0.1C8.5,8.7,8.4,8.9,8.3,8.9l0,0c0,0,0,0,0,0C8.1,9.1,8,9.2,7.8,9.3
			C7.9,9.1,8,9,8,8.9z M4.6,7.2c-0.1,0-0.1-0.1-0.2-0.1C3.9,7,3.4,6.8,2.9,6.5C2.7,6.3,2.4,6.1,2.1,6.1C2.1,6.1,2,6.1,2,6
			c0-0.1-0.1-0.3-0.1-0.4c0-0.1,0-0.1,0.1-0.1c0.1,0,0.2,0.1,0.2,0.1C2.6,5.9,3,6.1,3.4,6.3c0.1,0.1,0.2,0.1,0.4,0.2
			c0.3,0.2,0.7,0.4,1.1,0.4c0.2,0,0.4,0.1,0.5,0.2C5.7,7.3,6,7.4,6.2,7.6c0,0,0.1,0.1,0.1,0.1c0.2,0.2,0.5,0.4,0.7,0.6
			c0.1,0.1,0.2,0.2,0.2,0.3C7,8.5,6.8,8.3,6.5,8.1C6.3,8,6,7.8,5.7,7.7C5.3,7.6,4.9,7.4,4.6,7.2z M6.5,8.4C6.2,8.3,5.9,8.1,5.6,7.9
			c-0.1,0-0.2-0.1-0.3-0.2C5.6,7.8,5.9,7.8,6.1,8c0,0,0,0,0.1,0C6.6,8.3,7,8.6,7.4,9C7.5,9,7.5,9.1,7.5,9.2c-0.1,0.1-0.2,0-0.3,0.1
			c0,0-0.1,0-0.1,0c0,0,0,0,0,0c0,0-0.1-0.2-0.2-0.3C6.8,8.8,6.6,8.6,6.5,8.4C6.5,8.4,6.5,8.4,6.5,8.4z M15.1,20.5
			c0.2-0.1,0.4,0,0.5,0.2C15.4,20.7,15.2,20.6,15.1,20.5z M16.7,20.7c0.1-0.1,0.2-0.2,0.3-0.2c0.2,0,0.4-0.1,0.6-0.2
			C17.3,20.6,17,20.6,16.7,20.7z M23.8,24c0.2,0,0.3-0.1,0.5,0C24.1,24.1,24,24.1,23.8,24z M25.1,24.4c-0.2-0.1-0.4-0.1-0.7-0.2
			c0.1,0,0.2-0.1,0.3-0.1c0.2,0,0.4-0.1,0.6-0.2c0.2-0.1,0.3-0.2,0.5-0.4c0.1-0.2,0.2-0.4,0.2-0.6c-0.1,0-0.1,0-0.1,0.1
			c-0.2,0.6-0.9,1-1.5,1c0,0,0,0,0,0c0,0,0.1-0.1,0.1-0.1c0.2-0.1,0.5-0.2,0.6-0.4c0.1-0.1,0.1-0.2,0.1-0.3
			c-0.2,0.3-0.5,0.5-0.9,0.6c-0.3,0.1-0.7,0.1-1,0c0-0.1,0.1-0.1,0.1-0.1c0.3,0,0.5-0.1,0.8-0.1c0.3,0,0.5-0.1,0.7-0.3
			c0.1-0.1,0.1-0.1,0.2-0.3c-0.6,0.5-1.4,0.6-2.1,0.5c0.2-0.1,0.3-0.1,0.5-0.2c0.3-0.1,0.6-0.2,0.9-0.3c0.2,0,0.3-0.1,0.4-0.3
			c0.2-0.3,0.3-0.6,0.4-0.9c0.1-0.2,0.2-0.5,0.3-0.7c0.2-0.3,0.3-0.6,0.4-0.9c0-0.1,0-0.2,0-0.4c-0.1,0.5-0.3,0.9-0.5,1.3
			c-0.2,0.2-0.3,0.4-0.6,0.6c-0.2,0.1-0.4,0.3-0.6,0.5c0,0,0,0,0,0.1c0.2-0.1,0.3-0.2,0.4-0.4c0.1-0.1,0.4-0.2,0.5-0.3
			c0,0.2,0,0.3-0.1,0.5c-0.1,0.4-0.4,0.6-0.8,0.7c-0.4,0.1-0.7,0.2-1.1,0.3c-0.2,0.1-0.5,0-0.7-0.1c-0.1,0-0.1,0.1-0.1,0.1
			c-0.2-0.1-0.4,0-0.6,0c-0.4,0-0.6-0.1-0.7-0.4c-0.1-0.3-0.3-0.5-0.5-0.6c-0.1-0.1-0.2-0.2-0.3-0.3c-0.1-0.1-0.3-0.2-0.4-0.2
			c-0.1,0-0.3-0.1-0.4-0.1c-0.1-0.1-0.3-0.1-0.4-0.2c-0.4-0.1-0.7-0.3-1-0.6c0.1,0,0.2,0,0.3,0c0.3,0.1,0.7,0.1,1,0.1
			c0.1,0,0.2,0,0.3,0c0.2,0,0.4-0.1,0.5-0.2c0.1-0.1,0.2-0.2,0.4-0.3c0.2-0.1,0.4-0.3,0.5-0.4c-0.1,0-0.1,0-0.2,0
			c-0.1,0.1-0.3,0.2-0.4,0.3c-0.2,0.1-0.3,0.2-0.5,0.4c-0.1,0.1-0.3,0.1-0.4,0.1c-0.2,0-0.4,0-0.6,0c-0.2,0-0.4,0-0.6-0.1
			c-0.1,0-0.3-0.1-0.4,0c-0.1,0-0.1,0-0.1,0c-0.1,0-0.2-0.1-0.3-0.2c0.2-0.1,0.3-0.2,0.4-0.3c0.4-0.2,0.8-0.2,1.2-0.3
			c0.4,0,0.8-0.1,1.2-0.2c0.3-0.1,0.5-0.2,0.8-0.4c0.1,0,0.1-0.1,0.2-0.2c-0.3,0.2-0.6,0.3-0.9,0.5c-0.1,0-0.2,0.1-0.3,0.1
			c-0.3,0-0.7,0.1-1,0.2c0,0-0.1,0-0.1,0c-0.3,0-0.5,0-0.8,0.2c0-0.1,0-0.1,0-0.1c0,0-0.1,0-0.1,0c-0.2,0.1-0.5,0.2-0.7,0.2
			c-0.3,0.1-0.6,0.2-0.8,0.3c-0.3,0.1-0.6,0.1-0.8-0.2c-0.1-0.1-0.2-0.2-0.4-0.1c-0.2,0-0.3-0.1-0.5-0.2c-0.2-0.2-0.3-0.3-0.6-0.4
			c-0.2-0.2-0.5-0.4-0.6-0.6c-0.1-0.2-0.2-0.3-0.4-0.5c-0.2-0.2-0.3-0.5-0.4-0.7c-0.2-0.3-0.3-0.6-0.7-0.8c0,0-0.1-0.1-0.1-0.1
			c0,0,0,0,0.1,0c0.5,0.1,0.8-0.1,1.1-0.5c0.3-0.4,0.5-0.8,0.7-1.2c0.1-0.2,0.2-0.3,0.2-0.5c-0.1,0.2-0.2,0.3-0.2,0.4
			c-0.2,0.4-0.4,0.8-0.7,1.2c-0.2,0.2-0.4,0.3-0.6,0.4c-0.3,0-0.6,0-0.8-0.2c-0.1-0.1-0.3-0.3-0.4-0.4c-0.1-0.2-0.3-0.3-0.4-0.4
			c-0.1-0.2-0.2-0.4-0.4-0.5c0-0.1,0.1,0,0.2,0c0.3,0,0.5-0.2,0.8-0.2c0.4-0.1,0.6-0.4,0.9-0.7c0.2-0.2,0.3-0.4,0.3-0.6
			c-0.1,0-0.1,0.1-0.1,0.1c-0.1,0.2-0.3,0.4-0.5,0.6c-0.4,0.3-0.8,0.5-1.3,0.7c-0.2,0.1-0.4,0-0.7-0.1c-0.4-0.2-0.5-0.5-0.7-0.8
			C9.5,14,9.5,14,9.6,14c0.4-0.1,0.8-0.3,1-0.6c0.1-0.2,0.2-0.3,0.4-0.5c-0.1,0.1-0.2,0.2-0.3,0.2c-0.2,0.2-0.4,0.5-0.7,0.6
			c-0.2,0.1-0.3,0.1-0.5,0.2c-0.1,0-0.2,0-0.3-0.2c-0.2-0.4-0.5-0.8-0.8-1.2c0,0-0.1-0.1-0.1-0.1c0,0,0,0,0,0c0,0,0.1,0,0.1,0
			c0.4,0.1,0.7,0,1-0.2c0.2-0.1,0.4-0.2,0.6-0.3c0.4-0.2,0.8-0.4,1-0.7c0.1-0.1,0.2-0.3,0.2-0.4c0.1-0.1,0.1-0.2,0.2-0.3
			c0.1-0.1,0.2-0.2,0.2-0.3c0.1-0.2,0.2-0.3,0.3-0.4c0.1-0.1,0.2-0.3,0.2-0.4c-0.2,0.3-0.5,0.6-0.6,0.9c-0.1,0.1-0.2,0.2-0.2,0.3
			c-0.1,0.2-0.2,0.3-0.3,0.4c-0.2,0.3-0.5,0.6-0.9,0.8c-0.4,0.2-0.8,0.4-1.2,0.5c-0.2,0.1-0.4,0.1-0.6,0c-0.1-0.1-0.2-0.1-0.3-0.3
			c0-0.1-0.1-0.3-0.1-0.4C8,11.3,8,11,7.9,10.7c0-0.1-0.1-0.1-0.1-0.2c0.3,0.1,0.6,0,0.9-0.1c0.3-0.1,0.4-0.3,0.5-0.5
			c-0.1,0-0.1,0.1-0.1,0.1c0,0-0.1,0.1-0.1,0.1c-0.3,0.2-0.6,0.3-1,0.3c-0.2,0-0.3-0.1-0.4-0.2C7.5,10,7.3,9.7,7.2,9.4
			c0.1,0,0.1,0,0.2,0c0.4,0,0.8-0.2,1.1-0.4C8.8,8.7,9,8.3,9.1,7.9c0-0.1,0.1-0.2,0.1-0.3c0-0.2,0.1-0.3,0.1-0.5c0-0.1,0-0.1,0-0.2
			c0-0.1,0.1-0.2,0-0.3c0-0.1,0-0.1,0-0.2c0,0,0,0,0,0c0,0,0.1,0,0.1,0c0.1,0,0.2,0,0.2,0.1c0,0.1,0,0.2,0,0.2
			c0,0.6-0.1,1.1-0.4,1.6C9.2,9,8.9,9.5,8.4,9.8C8.3,9.9,8.2,9.9,8.1,9.9c-0.1,0-0.2,0-0.3,0.1c0.2,0.1,0.5,0.1,0.7-0.1
			C8.7,9.7,9,9.5,9.2,9.2c0.2-0.3,0.4-0.6,0.5-0.9c0.2-0.4,0.2-0.9,0.3-1.3c0-0.2,0-0.4-0.1-0.6c0.1-0.1,0.1,0,0.2,0
			c0.1,0.1,0.2,0.1,0.3,0.2c0.1,0,0.2,0.1,0.2,0.2c0.2,0.3,0.3,0.7,0.2,1.1c-0.1,0.4-0.2,0.8-0.3,1.1c-0.2,0.6-0.4,1-0.9,1.4
			c0,0,0,0-0.1,0.1c0.2-0.1,0.3-0.1,0.5-0.3c0.3-0.3,0.5-0.7,0.6-1.1c0.1-0.4,0.2-0.8,0.3-1.2c0.1-0.3,0.1-0.6,0-0.9
			c-0.1-0.1-0.1-0.3-0.2-0.4c0.3,0,0.6-0.1,0.9,0.1c0.1,0,0.1,0.1,0.1,0.1c0.1,0.2,0.1,0.3,0.1,0.5c0,0.3,0,0.6,0,0.9
			c0,0.3-0.1,0.5-0.3,0.7c-0.1,0.1-0.1,0.3-0.2,0.4c0.1-0.1,0.2-0.3,0.3-0.4c0-0.1,0-0.1,0.1-0.2c0.3-0.6,0.2-1.1,0.1-1.7
			c0-0.1-0.1-0.2-0.1-0.2c0-0.1,0-0.1,0.1-0.2c0.1,0,0.1,0,0.2,0.1c0.2,0.1,0.3,0.1,0.5,0.1c0.3,0,0.4,0.1,0.4,0.4
			c0.1,0.5,0,1-0.1,1.6c0,0,0,0.1,0,0.1c0.1-0.2,0.1-0.5,0.2-0.7c0.2,0.5,0.2,1.1,0.1,1.7c0.1-0.2,0.1-0.4,0.1-0.5
			c0-0.5,0-0.9-0.1-1.4c-0.1-0.3-0.1-0.6-0.1-0.9C13.3,7,13.5,7,13.7,7c0.3,0,0.5,0.2,0.6,0.5c0.1,0.4,0.2,0.7,0.3,1.1
			c0.1,0.3,0.1,0.6,0,0.9c-0.1,0.6-0.3,1.2-0.5,1.8c-0.1,0.2-0.2,0.3-0.3,0.5c-0.1,0.1-0.2,0.2-0.2,0.4c0.7-0.6,0.9-1.5,1.1-2.4
			c0.2-0.9-0.1-1.8-0.4-2.6c0.2-0.1,0.4,0,0.5,0.2C14.9,7.6,15,7.8,15,8c0,0.5,0.1,1,0.1,1.5c0,0.5-0.1,0.9-0.3,1.3
			c-0.1,0.3-0.1,0.5-0.2,0.8c0,0,0,0,0,0c0.1-0.1,0.1-0.3,0.2-0.4c0.2-0.5,0.3-1.1,0.4-1.6c0-0.5,0-1-0.1-1.5c0-0.2,0-0.4-0.1-0.6
			c0,0-0.1-0.1,0-0.1c0,0,0.1,0,0.1,0c0.1,0,0.1,0.1,0.2,0.1c0.3,0.2,0.4,0.6,0.5,0.9C16,8.9,16,9.4,16,10c0,0,0,0.1,0,0.1
			c0.2-0.5,0.1-1.7-0.4-2.6c0,0,0.1,0,0.1,0c0.4,0.2,0.8,0.3,1.1,0.6c0.1,0.1,0.3,0.2,0.5,0.4c0.4,0.3,0.5,0.8,0.6,1.2
			c0.1,0.3,0.1,0.7,0,1.1c-0.1-0.2-0.2-0.3-0.3-0.5c0-0.1-0.1-0.1-0.2-0.2c0,0-0.1,0-0.1,0c0,0,0,0.1,0,0.1c0.1,0.1,0.2,0.3,0.3,0.4
			c0.2,0.2,0.2,0.5,0.2,0.8c0,0.4-0.1,0.8-0.1,1.2c0,0.4-0.1,0.8-0.2,1.2c0,0.1-0.1,0.2-0.2,0.3c0,0-0.1,0.1,0,0.2
			c0.2-0.2,0.4-0.6,0.4-0.9c0.1-0.3,0.1-0.7,0.1-1c0-0.3,0.1-0.7,0.1-1c0.1-0.5,0.2-1.1,0.1-1.6c0.1,0.1,0.2,0.2,0.2,0.3
			c0.1,0.2,0.2,0.5,0.4,0.7c0.1,0.1,0.2,0.2,0.1,0.3c0,0.1,0,0.1,0,0.1c0.2,0.4,0.4,0.8,0.3,1.3c-0.1,0.5-0.3,1-0.4,1.4
			c-0.2,0.3-0.2,0.6-0.3,1c-0.1,0.5-0.2,1-0.5,1.4c-0.2,0.3-0.4,0.5-0.6,0.8c-0.2,0.2-0.4,0.5-0.6,0.7c-0.1,0.1-0.1,0.2-0.2,0.3
			c-0.1,0.2-0.3,0.3-0.6,0.4c0,0-0.1,0-0.1,0.1c0.3,0,0.5-0.1,0.6-0.2c0.1-0.2,0.2-0.4,0.3-0.5c0.1-0.2,0.3-0.3,0.4-0.5
			c0.1-0.1,0.2-0.2,0.3-0.4c0.1-0.1,0.1-0.2,0.2-0.3c0.2-0.2,0.3-0.5,0.4-0.8c0.2-0.4,0.2-0.9,0.3-1.3c0-0.2,0.1-0.3,0.2-0.4
			c0.1-0.2,0.1-0.4,0.2-0.5c0.2-0.4,0.3-0.8,0.3-1.2c0-0.1,0-0.2,0-0.3c-0.1-0.3-0.1-0.6-0.3-0.9c0-0.1-0.1-0.1,0-0.3
			c0.1,0,0.2,0.1,0.2,0.1c0.5,0.4,0.9,0.8,1.2,1.3c0.1,0.2,0.1,0.4,0.1,0.6c0,0.5-0.1,0.9-0.3,1.3c-0.2,0.6-0.5,1.2-0.7,1.8
			c-0.1,0.3-0.2,0.6-0.3,0.9c-0.1,0.2-0.1,0.4-0.3,0.6c0,0,0,0.1,0,0.1c0,0,0.1,0,0.1,0c0.1,0,0.1-0.1,0.1-0.1
			c0.4-0.5,0.7-1,0.9-1.5c0.1-0.3,0.2-0.7,0.3-1.1c0-0.1,0-0.2,0-0.4c0-0.3,0.1-0.6,0.2-0.9c0.1-0.3,0.1-0.6,0.1-0.9
			c0,0,0-0.1,0-0.1c0.1,0.1,0.2,0.3,0.3,0.4c0,0,0,0.1,0,0.1c0,0.4,0,0.7,0,1.1c0,0.2,0,0.5-0.1,0.7c0.1,0,0.1-0.1,0.1-0.1
			c0.1-0.3,0-0.6,0-0.9c0-0.2,0-0.4,0-0.7c0.1,0,0.1,0,0.1,0.1c0.1,0.2,0.3,0.4,0.5,0.6c0.1,0.1,0.2,0.2,0.3,0.4
			c0.1,0.2,0.3,0.4,0.4,0.6c0.1,0.3,0.3,0.6,0.5,0.8c0.1,0.2,0.1,0.4,0,0.5c-0.1,0.2-0.2,0.4-0.2,0.6c-0.1,0.2-0.1,0.4-0.1,0.7
			c0-0.1,0.1-0.2,0.1-0.2c0.1-0.3,0.2-0.6,0.3-0.9c0,0,0,0,0,0c0.1-0.3,0.1-0.7-0.2-0.9c-0.1-0.1-0.2-0.2-0.2-0.4
			c0.3,0.1,0.4,0.2,0.6,0.4c0.1,0.2,0.2,0.3,0.4,0.4c0.1,0,0.2,0.2,0.2,0.3c0.1,0.1,0.1,0.2,0.1,0.4c0.1,0.5,0,1-0.2,1.5
			c-0.1,0.4-0.3,0.7-0.6,0.9c-0.2,0.2-0.4,0.5-0.5,0.8c0.1,0,0.1-0.1,0.1-0.1c0.1-0.3,0.3-0.4,0.5-0.6c0.4-0.4,0.6-0.8,0.7-1.4
			c0.1-0.4,0.1-0.8,0-1.3c0-0.1,0-0.2-0.1-0.3c0.2,0.1,0.4,0.2,0.5,0.4c0.3,0.3,0.5,0.7,0.7,1.1c0.2,0.3,0.4,0.7,0.4,1.1
			c0,0.3,0,0.5,0,0.8c-0.1,0-0.1,0-0.2,0c-0.1,0-0.1-0.1-0.2-0.1c-0.2,0-0.3-0.2-0.3-0.4c0-0.1,0-0.2-0.2-0.3c-0.1,0.1,0,0.1,0,0.2
			c0,0.1,0,0.1,0,0.2c0.1,0.3,0.1,0.2-0.2,0.4c-0.1,0-0.1,0.1-0.2,0.1c0,0,0,0,0,0.1c0,0,0,0,0.1,0c0.1,0,0.1,0,0.2-0.1
			c0.2-0.1,0.4-0.1,0.5,0c0.1,0.1,0.2,0.1,0.4,0.1c0.1,0,0.2,0.1,0.2,0.2c0.2,0.5,0.6,1,0.8,1.6c0.2,0.4,0.3,0.7,0.4,1.1
			c0,0.2,0.1,0.4,0.2,0.6c0.1,0.2,0.1,0.4,0.1,0.6c0,0.1,0,0.2,0,0.3c0,0.1,0,0.2-0.1,0.3c0,0.1-0.1,0.1-0.1,0.1
			c-0.3,0.1-0.5,0.2-0.8,0.2c0.6-0.5,0.7-0.9,0.5-1.5c-0.1,0,0,0.1,0,0.1c0,0.1,0,0.3,0,0.4c0,0.3-0.2,0.6-0.5,0.7
			c-0.3,0.2-0.6,0.3-1,0.3C25.1,24.4,25.1,24.4,25.1,24.4z M20.2,14.4c-0.1,0.7-0.3,1.4-0.7,2C19.6,15.7,19.9,15.1,20.2,14.4z
			 M27.9,26.2c-0.3-0.3-0.6-0.3-0.9-0.6c0.1-0.1,0.4-0.1,0.4-0.3c-0.2,0.1-0.4,0.1-0.5,0.1c-0.1,0-0.2,0-0.3-0.1
			c-0.4-0.2-0.8-0.5-1.2-0.7c0,0-0.1-0.1-0.1-0.1c0-0.1,0-0.1,0.1-0.1c0.2,0,0.3-0.1,0.5-0.1c0.1,0,0.1-0.1,0.2,0c0,0.1,0.1,0,0.1,0
			c0.3,0,0.6-0.1,0.9-0.1c0.1,0,0.1-0.1,0.2-0.1c0,0.1,0.1,0.2,0.1,0.3c0,0.1,0,0.2-0.1,0.2c-0.2,0.2-0.5,0.2-0.8,0.2
			c0,0-0.1,0-0.1,0c0,0,0,0.1,0.1,0.1c0,0,0,0,0,0c0,0.2,0.2,0.2,0.3,0.1c0,0,0.1,0,0.2,0c0.3,0,0.5-0.1,0.7-0.4c0,0,0,0,0.1-0.1
			c0.1,0.2,0.2,0.4,0.3,0.6C27.9,25.6,28,26.3,27.9,26.2z"/>
		<path class="st1" d="M21.9,26C21.9,26,21.9,26,21.9,26C21.9,26,21.9,26,21.9,26L21.9,26z"/>
		<path class="st1" d="M22.5,23.2c-0.3-0.1-0.6-0.2-0.8-0.3c-0.3-0.2-0.5-0.4-0.8-0.6c0,0.2,0.1,0.2,0.2,0.3
			c0.2,0.1,0.3,0.2,0.5,0.4c0.2,0.2,0.5,0.3,0.8,0.3C22.4,23.3,22.5,23.3,22.5,23.2z"/>
		<path class="st1" d="M22.4,23.3L22.4,23.3L22.4,23.3L22.4,23.3z"/>
		<path class="st1" d="M18.1,14.2c0.2-0.3,0.2-0.5,0.3-0.8c0.1-0.3,0.1-0.7,0.1-1c0-0.3,0-0.5,0-0.8c0-0.1,0-0.2-0.1-0.3
			c0.1,0.5,0,1,0,1.5c0,0.5-0.1,1-0.4,1.5C18.1,14.3,18.1,14.3,18.1,14.2z"/>
		<path class="st1" d="M22.1,16.2c0-0.2,0.1-0.5,0.1-0.7c0-0.3,0.1-0.6,0-0.9c0,0.1,0,0.2,0,0.2C22.2,15.3,22.1,15.7,22.1,16.2
			c-0.1,0.4-0.4,0.7-0.6,1.1c-0.2,0.3-0.4,0.5-0.5,0.9c0,0.1-0.1,0.2-0.2,0.3c-0.2,0.3-0.5,0.5-0.8,0.7c-0.2,0.1-0.3,0.2-0.6,0.2
			c0,0,0,0,0,0c0.1,0.1,0.3,0.1,0.4,0c0.3-0.2,0.5-0.4,0.7-0.6c0.2-0.2,0.4-0.4,0.4-0.6c0.2-0.5,0.6-0.9,0.8-1.4
			C22,16.6,22.1,16.5,22.1,16.2z"/>
		<path class="st1" d="M17.2,18.1c0.2-0.2,0.4-0.5,0.5-0.7c0.1-0.2,0.2-0.3,0.3-0.5c0.3-0.6,0.6-1.1,0.9-1.7c0.1-0.3,0.3-0.7,0.3-1
			c0-0.1,0-0.2-0.1-0.3c0,0.2,0,0.3,0,0.5c-0.1,0.5-0.3,0.9-0.5,1.3c-0.2,0.4-0.4,0.8-0.6,1.2c-0.3,0.5-0.5,1-0.9,1.4
			c0,0,0,0.1-0.1,0.1c0,0,0,0,0,0C17,18.2,17.1,18.1,17.2,18.1z"/>
		<path class="st1" d="M22.2,21.9C22,21.9,21.9,22,21.7,22c0.2,0.1,0.2,0.1,0.3,0c0.5-0.1,0.8-0.4,1.2-0.7c0.1-0.1,0.3-0.2,0.4-0.3
			c0.1-0.1,0.2-0.1,0.3-0.2c-0.3,0.1-0.5,0.2-0.7,0.4C22.9,21.5,22.6,21.7,22.2,21.9z"/>
		<path class="st1" d="M21.9,20.1c-0.5,0.4-1,0.5-1.6,0.7C20.9,20.9,21.9,20.5,21.9,20.1z"/>
		<path class="st1" d="M14.9,13.5c0.2-0.1,0.3-0.3,0.3-0.6c-0.1,0-0.1,0.1-0.1,0.2c0,0.1-0.1,0.2-0.2,0.3c-0.4,0.3-0.7,0.7-1,1
			c-0.1,0.1-0.2,0.2-0.2,0.3c-0.1,0.1-0.1,0.2-0.2,0.3c-0.1,0.2-0.3,0.5-0.5,0.7c0.2-0.1,0.4-0.2,0.5-0.5c0-0.1,0.1-0.1,0.1-0.2
			C13.9,14.5,14.3,13.9,14.9,13.5z"/>
		<path class="st1" d="M16.5,19c0.2-0.1,0.4-0.3,0.6-0.4c0.3-0.2,0.5-0.4,0.6-0.8c-0.3,0.3-0.6,0.5-0.9,0.8
			c-0.2,0.1-0.3,0.3-0.5,0.3c-0.1,0-0.2,0.1-0.3,0.1c-0.2,0.1-0.4,0.2-0.6,0.2c-0.2,0-0.4,0-0.6,0c-0.2,0-0.3,0-0.5-0.1
			c-0.3-0.1-0.5-0.2-0.8-0.2c0,0-0.1,0-0.1,0c0,0,0,0.1,0,0.1c0,0,0.1,0.1,0.1,0.1c0.2,0,0.3,0.1,0.5,0.2c0.2,0,0.4,0.1,0.6,0.1
			c0.2,0,0.5,0,0.7,0c0.2,0,0.4,0,0.6-0.1C16.3,19.1,16.4,19,16.5,19z"/>
		<path class="st1" d="M14.5,16.6c-0.1,0-0.2,0-0.3,0.1c0.5,0,0.8-0.3,1.2-0.6c0.3-0.2,0.6-0.5,0.9-0.8c0.1-0.1,0.2-0.2,0.2-0.4
			c-0.1,0.2-0.3,0.3-0.4,0.4c-0.1,0.1-0.3,0.2-0.4,0.4c-0.3,0.3-0.6,0.6-1,0.8C14.6,16.6,14.6,16.6,14.5,16.6z"/>
		<path class="st1" d="M16,14.3c0.2-0.4,0.3-0.8,0.5-1.2c0.1-0.4,0.3-0.9,0.3-1.4c0.1-0.3,0.2-0.6,0.1-0.9c0-0.7-0.3-1.3-0.5-1.9
			c0,0,0,0,0,0c0.1,0.4,0.3,0.8,0.4,1.3c0.1,0.3,0.1,0.7,0.1,1c-0.1,0.3-0.2,0.7-0.2,1C16.4,12.9,16.2,13.5,16,14.3
			C15.9,14.2,15.9,14.3,16,14.3C16,14.3,16,14.3,16,14.3z"/>
		<path class="st1" d="M16,17.1c-0.1,0-0.1,0.1-0.1,0.2c0.2-0.2,0.5-0.4,0.6-0.7c0.1-0.2,0.2-0.4,0.4-0.6c0.1-0.1,0.2-0.3,0.2-0.4
			c0.1-0.1,0.1-0.2,0.1-0.4c-0.2,0.4-0.4,0.8-0.6,1.1C16.5,16.6,16.3,16.9,16,17.1z"/>
		<path class="st1" d="M20.8,15.4L20.8,15.4C20.8,15.4,20.8,15.4,20.8,15.4L20.8,15.4L20.8,15.4z"/>
		<path class="st1" d="M18.1,16.9c0,0.1-0.1,0.1-0.1,0.2c0.1-0.1,0.2-0.2,0.3-0.4c0.2-0.5,0.6-1,0.8-1.5c0.1-0.2,0.2-0.4,0.3-0.6
			c0.2-0.3,0.4-0.7,0.5-1.1c0.1-0.4,0.2-0.8,0-1.3c0,0.1,0,0.2,0,0.3c0,0.2,0,0.5-0.1,0.7c-0.1,0.4-0.3,0.7-0.4,1
			c-0.3,0.5-0.5,1-0.8,1.5C18.5,16.2,18.3,16.6,18.1,16.9z"/>
		<path class="st1" d="M20.8,15.2c0,0.1-0.1,0.1,0,0.2C20.8,15.4,20.8,15.3,20.8,15.2z"/>
		<path class="st1" d="M19.7,17.7c0.2-0.2,0.3-0.5,0.5-0.8c0.1-0.2,0.3-0.4,0.3-0.7c0.1-0.3,0.2-0.5,0.2-0.8
			c-0.1,0.2-0.2,0.3-0.2,0.5c-0.1,0.4-0.2,0.8-0.7,1c-0.4,0.2-0.6,0.5-0.8,0.8c-0.2,0.3-0.4,0.5-0.7,0.7c-0.2,0.2-0.5,0.4-0.7,0.6
			c-0.3,0.3-0.5,0.6-0.8,0.9c-0.2,0.2-0.5,0.4-0.8,0.4c0,0-0.1,0-0.1,0c0,0.1,0,0.1,0.1,0.1c0.1,0,0.1,0,0.2,0
			c0.2,0,0.5-0.1,0.6-0.3c0.2-0.2,0.4-0.4,0.6-0.6c0.2-0.3,0.5-0.5,0.8-0.8c0,0,0.1-0.1,0.2-0.1c0,0.1-0.1,0.2-0.2,0.3
			c0.1,0,0.1-0.1,0.2-0.1c0.3-0.3,0.6-0.7,1-0.9C19.6,17.8,19.7,17.8,19.7,17.7z M18.9,18.2c0.2-0.3,0.4-0.6,0.7-0.9
			c0.1-0.1,0.2-0.2,0.4-0.2c-0.2,0.3-0.3,0.5-0.6,0.7C19.2,17.9,19.1,18.1,18.9,18.2z"/>
	</g>
</g>
</svg>
