<?xml version="1.0" standalone="no"?>
<!DOCTYPE svg PUBLIC "-//W3C//DTD SVG 20010904//EN"
 "http://www.w3.org/TR/2001/REC-SVG-20010904/DTD/svg10.dtd">
<svg version="1.0" xmlns="http://www.w3.org/2000/svg"
 width="200.000000pt" height="200.000000pt" viewBox="0 0 200.000000 200.000000"
 preserveAspectRatio="xMidYMid meet">
<metadata>
Created by potrace 1.11, written by Peter Selinger 2001-2013
</metadata>
<g transform="translate(0.000000,200.000000) scale(0.100000,-0.100000)"
fill="#000000" stroke="none">
<path d="M635 1879 c-222 -29 -349 -82 -456 -190 -52 -53 -73 -84 -102 -151
-47 -110 -54 -142 -55 -268 -2 -182 80 -530 154 -657 47 -81 119 -157 177
-187 31 -16 74 -45 97 -64 22 -20 47 -37 56 -38 8 -1 43 -16 77 -32 34 -17 82
-35 107 -42 25 -7 50 -15 55 -19 24 -18 134 -52 170 -52 22 0 83 -8 135 -16
148 -24 270 -7 408 58 77 35 137 75 188 124 40 38 142 180 172 240 35 69 74
154 76 170 1 5 7 26 14 45 14 41 22 200 10 200 -4 0 -8 5 -8 11 0 5 5 7 11 3
8 -4 9 1 4 16 -5 17 -4 21 6 15 9 -6 11 -3 6 8 -3 9 0 38 7 64 27 95 33 131
23 148 -5 9 -11 49 -14 88 -12 173 -119 285 -368 388 -54 22 -168 54 -225 64
-19 3 -53 11 -75 16 -22 6 -49 13 -60 15 -11 2 -42 8 -70 14 -51 10 -70 13
-187 29 -80 11 -248 11 -333 0z m338 -144 c66 -8 270 -41 362 -60 39 -7 97
-16 130 -20 132 -14 352 -108 402 -172 29 -37 60 -107 66 -148 1 -11 6 -26 10
-32 5 -7 4 -13 -2 -13 -5 0 -13 5 -16 10 -12 20 -21 10 -21 -22 0 -18 -3 -46
-7 -63 -4 -16 -12 -54 -17 -84 -10 -59 -30 -93 -22 -39 2 18 2 30 -2 27 -3 -3
-9 -26 -12 -50 -4 -24 -10 -46 -14 -49 -4 -3 -13 -39 -20 -80 -17 -106 -31
-173 -40 -185 -4 -5 -10 -23 -14 -39 -5 -21 -10 -26 -16 -17 -5 10 -10 5 -15
-17 -3 -17 -13 -36 -21 -43 -8 -6 -14 -17 -14 -23 0 -38 -112 -182 -132 -170
-5 3 -21 -8 -37 -25 -21 -22 -35 -29 -57 -26 -16 2 -56 -5 -89 -16 -33 -11
-72 -22 -86 -24 -14 -3 -62 -15 -107 -28 -47 -14 -87 -20 -94 -16 -25 17 -114
37 -183 43 -294 24 -574 233 -650 483 -14 45 -27 107 -41 198 -7 47 -15 226
-12 305 0 30 0 74 -1 98 0 23 6 57 15 75 40 77 189 184 284 203 139 26 342 35
473 19z"/>
<path d="M1354 1522 c-14 -9 -39 -85 -63 -197 -33 -153 -37 -203 -27 -351 5
-86 31 -169 77 -247 14 -26 2 -35 -15 -11 -8 10 -17 16 -21 12 -19 -18 89 -88
136 -88 44 0 86 28 107 71 23 47 19 84 -5 49 -33 -47 -95 -11 -136 79 -18 37
-23 64 -21 122 3 144 1 139 29 139 31 0 113 42 151 76 20 20 24 28 15 37 -14
14 -125 16 -160 3 -27 -9 -29 -31 15 188 l17 89 -22 19 c-24 19 -58 23 -77 10z"/>
<path d="M799 1443 c-44 -97 -61 -149 -64 -189 -5 -88 -15 -76 -105 123 -22
47 -39 71 -49 71 -9 -1 -40 2 -70 7 l-54 7 8 -38 c13 -70 87 -289 105 -309 23
-27 31 -53 19 -61 -6 -4 -4 -13 7 -25 17 -19 17 -23 -4 -87 -18 -57 -62 -264
-62 -292 0 -15 59 -42 78 -36 25 8 53 60 55 101 1 19 5 35 9 35 4 0 12 18 18
40 6 22 23 68 39 103 25 55 59 156 67 195 4 21 -8 6 -27 -36 -10 -20 -18 -29
-18 -20 -1 9 4 20 9 23 6 3 10 15 10 26 0 30 20 64 29 50 5 -7 16 15 26 51 10
35 21 67 24 73 3 5 6 22 7 37 1 15 12 53 23 86 27 76 26 90 -5 102 -43 17 -52
12 -75 -37z m42 -132 c-6 -10 -8 -21 -5 -24 3 -3 1 -14 -5 -24 -10 -15 -11
-13 -7 14 4 32 13 53 22 53 3 0 0 -8 -5 -19z m-267 -147 c3 -8 2 -12 -4 -9 -6
3 -10 10 -10 16 0 14 7 11 14 -7z m83 -286 c-3 -8 -6 -5 -6 6 -1 11 2 17 5 13
3 -3 4 -12 1 -19z"/>
<path d="M1038 1269 c-106 -28 -175 -152 -185 -333 -11 -194 41 -289 164 -300
58 -5 101 17 119 60 16 37 50 163 60 218 3 16 7 33 10 38 14 22 3 146 -17 203
-36 97 -82 133 -151 114z m42 -141 c17 -57 20 -209 5 -272 -19 -82 -55 -136
-90 -136 -8 0 -35 65 -34 82 0 7 7 -4 16 -24 8 -21 20 -38 25 -38 7 0 7 4 0
13 -25 29 -36 190 -17 252 6 22 12 43 13 47 5 20 57 118 63 118 3 0 12 -19 19
-42z"/>
<path d="M1470 415 c-14 -8 -20 -14 -14 -15 5 0 19 7 30 15 24 18 16 19 -16 0z"/>
</g>
</svg>
