<?xml version="1.0" encoding="utf-8"?>
<!-- Generator: Adobe Illustrator 21.1.0, SVG Export Plug-In . SVG Version: 6.00 Build 0)  -->
<svg version="1.1" id="Layer_1" xmlns="http://www.w3.org/2000/svg" xmlns:xlink="http://www.w3.org/1999/xlink" x="0px" y="0px"
	 viewBox="0 0 19.8 27.8" style="enable-background:new 0 0 19.8 27.8;" xml:space="preserve">
<style type="text/css">
	.st0{fill:#D32027;}
</style>
<g>
	<path class="st0" d="M10.6,5.8l7,16.8c0,0-0.1,1.9-3.1,3.1c-3,1.2-3.8-0.4-3.8-0.4S4.6,13,3.2,8.8C3,8,3.6,7.5,3.7,7.5
		c0,0-0.7-1.2-0.5-1.7s1.2-1.1,1.6-1.2l-1-3.3L4.4,1l1.9,2.9c0,0,1.8-0.6,2.3-0.1c0.5,0.5,0.6,1.3,0.6,1.3S10.3,5.3,10.6,5.8z"/>
	<path d="M17.7,22.5l-7-16.8c0,0,0,0,0,0C10.5,5.2,9.7,5,9.3,4.9c0-0.3-0.2-0.9-0.6-1.3l0,0l0,0C8.5,3.5,8.3,3.4,7.9,3.4
		c-0.6,0-1.2,0.2-1.5,0.3L4.6,0.9C4.5,0.8,4.4,0.7,4.3,0.8L3.7,1c-0.1,0-0.2,0.2-0.1,0.3l0.9,3.1C4.1,4.6,3.2,5.2,3,5.7
		C2.8,6.2,3.2,7.1,3.4,7.5C3,7.9,2.8,8.3,3,8.8c1.4,4.2,7.3,16.5,7.4,16.6c0,0,0.5,1,2,1c0.6,0,1.3-0.2,2.1-0.5
		c3.1-1.3,3.3-3.2,3.3-3.3C17.7,22.6,17.7,22.6,17.7,22.5z M4.1,1.4l0.2-0.1L6,3.9C5.9,4.1,5.5,4.5,4.9,4.3c0,0,0,0,0,0L4.1,1.4z
		 M3.4,5.8c0.2-0.4,1.1-1,1.5-1.1c0,0,0,0,0,0c0.1,0,0.2,0,0.4,0c0.6,0,1-0.4,1.2-0.7C6.7,4,7.3,3.8,7.9,3.8c0.2,0,0.3,0,0.4,0.1
		C7.7,5,6.2,5.5,6.2,5.5c-0.1,0-0.2,0.2-0.1,0.3c0,0.1,0.1,0.2,0.2,0.2c0,0,0,0,0.1,0c0.1,0,1.6-0.5,2.3-1.7C8.9,4.6,8.9,5,8.9,5.1
		c-0.1,0.8-1.5,1.6-2,1.8C5.3,7.6,4.1,7.4,3.8,7.3C3.6,6.8,3.3,6.1,3.4,5.8z M14.3,25.5c-0.7,0.3-1.4,0.4-1.9,0.4
		c-1.2,0-1.6-0.7-1.6-0.7c-0.1-0.1-6-12.4-7.3-16.5C3.3,8.3,3.5,8,3.7,7.7c0.2,0,0.5,0.1,1,0.1c0.6,0,1.4-0.1,2.4-0.5
		c0.1,0,1.9-0.8,2.2-2c0.4,0.1,0.9,0.3,1,0.5l6.9,16.8C17.2,22.9,16.9,24.4,14.3,25.5z"/>
</g>
</svg>
