<?xml version="1.0" encoding="utf-8"?>
<!-- Generator: Adobe Illustrator 21.1.0, SVG Export Plug-In . SVG Version: 6.00 Build 0)  -->
<svg version="1.1" id="Layer_1" xmlns="http://www.w3.org/2000/svg" xmlns:xlink="http://www.w3.org/1999/xlink" x="0px" y="0px"
	 viewBox="0 0 30 31.2" style="enable-background:new 0 0 30 31.2;" xml:space="preserve">
<style type="text/css">
	.st0{fill:#ED2C36;}
	.st1{fill:#221F1F;}
</style>
<g>
	<path class="st0" d="M26.5,9.4c-0.3-1.3-2-0.3-2.3-0.1c0,0,0,0,0,0c0.2-0.1,0.7-0.6,0.9-1.2c0.4-0.4,0.6-1,0.7-1.5
		c0.1-1-2.4-0.2-2.4-0.2c0.9-0.9,1.9-2.3,1-3c-1.1-0.9-2.1,0.5-2.3,0.8c1.4-2.1,1.1-3,0.2-3.3c-0.7-0.2-1.5,1-1.9,1.6
		c-0.1-0.7-0.2-1.3-0.4-1.4c-0.2-0.1-1.2-0.5-1.3,0c-0.3,1-0.3,2.1-0.3,2.1s0.2-3.2-1.5-2.8c-1.8,0.3,0.6,2.5,0,2.8
		c-1,0.6-1.3-2.8-2.6-2.1c-0.3,0.2-0.5,0.4-0.6,0.6c-0.1-0.4-0.4-0.6-0.7-0.7c-0.9-0.3-2.1,1.9-2.1,1.9C9.7,3,9.6,4.4,9.7,5.5
		c-0.1,0-0.1,0.1-0.2,0.1C8,7,10.1,8.6,10.5,8.9c-0.3-0.2-1.7-1-1.5,1.1c0,0.4,0.1,0.8,0.3,1.1c-0.4,0.2-0.8,0.6-0.6,1.2
		c0,0,0,0.1,0,0.1c-0.5,0.5-0.8,1.2-0.8,1.2c-0.5,0-0.8,0.4-1,1c-0.3,0.3-0.3,1.1-0.2,1.3c0,0,0,0.1,0.1,0.1c0,0.3,0,0.5,0.1,0.7
		c-0.3,0.1-0.6,0.2-0.8,0.4c-0.5,0.5,0.5,1.2,0.6,1.5c0,0.1,0.2,0.1,0.3,0c-0.3,0.3-0.6,0.7-0.3,1c0.1,0.1,0.2,0.2,0.4,0.3
		c0.1,0.1,0.2,0.3,0.3,0.4C6.6,20,5.6,19.9,5.4,21C5,22.7,7.9,21.4,8,22.1c0.1,1.2-3.1,0.1-2.9,1.6c0.3,2,2.8,1.1,3.3,0.9
		c-0.4,0.2-1.8,0.9,0.1,1.8c0.5,0.2,0.9,0.4,1.2,0.4c0,0.2,0,0.5,0.2,0.7c0.5,0.8,2.8,0,2.8,0c1.2,1,2.9-1.8,3.2-2.3
		c0.2-0.3,0-0.4-0.4-0.6c0,0,0.1,0,0.1,0c2.1-0.3,3.1-2.6,3.3-4c1.6,0.1,2.3-1.1,2.4-2.1c0.1-0.7-1.1-0.6-1.8-0.4c0,0,0,0,0-0.1
		c0.1-0.1,0.1-0.2,0.2-0.3c1.3,0.2,1.5-0.4,1.6-1.2c0.1-0.4,0.3-0.1,1.5,0c1.2,0.1,0.7-1.3,0.5-1.6c-0.2-0.3-1,0.1-1.1-0.1
		c0-0.1,0-0.1,0.2-0.2c0,0,0,0,0,0c1,0.5,2.3-0.3,2.3-0.8c0-0.7-0.7-0.8-1.2-0.8c-0.2-0.2-0.4-0.3-0.6-0.5c0.5-0.1,1.9,0.3,1.8-0.3
		c0-0.4,0.1-0.9,0-1.2C25.2,10.8,26.8,10.6,26.5,9.4z M8.2,18.3c-0.1,0-0.1,0-0.2,0C8.1,18.2,8.2,18.2,8.2,18.3z M8.2,20.5
		C8.2,20.5,8.2,20.5,8.2,20.5c0.3,0.1,0.4,0.2,0.4,0.2S8.4,20.6,8.2,20.5z M14.1,11.6c-0.2,0.1-0.3,0.1-0.5,0.2l-0.2-0.4
		c0,0,0,0,0.1,0c0.1,0,0.2,0,0.3,0.1C13.8,11.5,13.9,11.6,14.1,11.6z M13.5,2.6c0,0.2,0.1,0.5,0.3,0.7c-0.6,0.2-1,0.8-1.1,1
		C13.1,3.7,13.4,3.1,13.5,2.6z M12.2,6.9L11.5,7c0,0-0.1-0.1-0.1-0.1C11.7,6.8,11.9,6.8,12.2,6.9z M11.1,12.2c0,0-0.2,0.1-0.4,0.3
		c0,0,0-0.1,0-0.1C11,12.3,11.1,12.2,11.1,12.2z M11.6,25.2C11.6,25.2,11.6,25.2,11.6,25.2c0.3-0.1,0.5-0.2,0.6-0.2
		C12,25.1,11.8,25.2,11.6,25.2z M18.8,14.9c0,0,0-0.1,0.1-0.1c0.1,0,0.1,0.1,0.2,0.1C18.9,14.8,18.9,14.8,18.8,14.9z"/>
	<g>
		<path class="st1" d="M18.9,9.4c-0.2,0.6,0.9,1.3,3.1,2c0,0,0.1,0,0.1,0c0.1,0,0.2,0,0.2-0.1c0.1-0.1,0.1-0.2,0.1-0.3l-0.6-1.6
			c0-0.1-0.1-0.2-0.2-0.2c0,0-1-0.3-1.7-0.3C19.3,8.9,19,9.1,18.9,9.4z M21.6,10.6c-0.8-0.3-1.4-0.6-1.8-0.8c0-0.1,0.1-0.2,0.1-0.2
			c0,0,0,0,0.1,0c0.5,0,1.1,0.1,1.3,0.2L21.6,10.6z"/>
		<g>
			<path class="st1" d="M17.4,21.3l-1.7-0.5c-0.1,0-0.2,0-0.3,0.1c-0.2,0.2-1.4,1.1-1.5,1.8c0,0.2,0,0.3,0.1,0.5
				c0.1,0.1,0.2,0.2,0.5,0.2c0.8,0,2.6-1.3,3-1.5c0.1-0.1,0.1-0.2,0.1-0.3C17.6,21.5,17.5,21.4,17.4,21.3z M14.6,22.8
				c0-0.1,0.1-0.2,0.2-0.3c0,0.1,0.1,0.2,0.1,0.2C14.7,22.8,14.6,22.8,14.6,22.8z M15.4,22.5c-0.1-0.1-0.2-0.3-0.3-0.5
				c0.2-0.2,0.4-0.3,0.5-0.5l0.9,0.2C16.2,22,15.8,22.3,15.4,22.5z"/>
			<path class="st1" d="M9.6,18.2c0.1,0,0.2,0.1,0.4,0.2c0.5,0.3,0.9,0.6,1.1,0.6c0,0,0.1,0,0.1,0c0.2,0,0.3-0.2,0.4-0.4
				c0.1-0.1,0.7-1.2,0.6-1.5c-0.1-0.6-1.1-1.3-1.5-1.3c-0.1,0-0.1,0-0.2,0.1c-0.2,0.1-1.2,1.5-1.2,2C9.4,18,9.5,18.1,9.6,18.2z
				 M10.9,16.4c0.1,0,0.3,0.1,0.4,0.3c-0.1,0.2-0.3,0.4-0.5,0.5c-0.1,0.1-0.1,0.3,0,0.4c0.1,0.1,0.2,0.2,0.4,0.1
				c0.1,0,0.2-0.1,0.4-0.1c-0.1,0.3-0.3,0.6-0.4,0.8c-0.2-0.1-0.5-0.3-0.7-0.4c-0.1-0.1-0.2-0.1-0.3-0.2
				C10.2,17.5,10.6,16.7,10.9,16.4z"/>
			<path class="st1" d="M26.9,11.7c-0.1-0.3-0.2-0.6-0.4-0.9c0.1-0.1,0.1-0.1,0.1-0.2c0.2-0.3,0.3-0.6,0.2-1
				c-0.1-0.6-0.5-0.9-1.1-0.9c-0.1,0-0.3,0-0.4,0.1c0-0.1,0.1-0.2,0.1-0.3C25.8,8,26,7.3,26,7c0-0.3,0-0.5-0.2-0.7
				c-0.3-0.3-1-0.3-1.6-0.2C24.6,5.6,25,4.9,25,4.3c0-0.3-0.2-0.6-0.4-0.9c-0.4-0.3-0.7-0.4-1.1-0.3c-0.1,0-0.2,0-0.3,0.1
				c0.2-0.6,0.3-1.1,0.1-1.4c-0.1-0.4-0.4-0.6-0.9-0.8c-0.6-0.2-1.3,0.4-1.8,1c-0.1-0.6-0.3-0.8-0.5-0.9l0,0c-0.2-0.1-0.6-0.2-1-0.2
				c-0.4,0-0.6,0.2-0.7,0.5c0,0,0,0,0,0c-0.1-0.2-0.2-0.4-0.4-0.6c-0.3-0.3-0.8-0.5-1.3-0.4c-0.4,0.1-0.7,0.3-0.8,0.5
				c-0.3,0.5,0.1,1.2,0.4,1.8c0.1,0.2,0.2,0.4,0.3,0.6c-0.2,0-0.4-0.6-0.6-0.9c-0.3-0.6-0.7-1.4-1.4-1.4c-0.2,0-0.4,0.1-0.5,0.2
				c-0.1,0.1-0.3,0.2-0.4,0.3c-0.2-0.2-0.4-0.4-0.7-0.4c-1-0.3-2,1.3-2.4,1.9c-0.2,0-0.3,0.1-0.4,0.2c-0.2,0-0.4,0.1-0.5,0.2
				c-0.5,0.2-0.9,0.6-1,1.1v0c0,0,0,0,0,0c0,0-1.3,4.8-2.5,9.6c-2.5,9.8-2.4,10.1-2.4,10.2c0.1,0.4,0.9,2.7,4.2,4.5
				c1.7,1,3.2,1.2,4.3,1.2c1.3,0,2-0.3,2.1-0.4c0,0,0,0,0,0c0,0,0,0,0,0c0,0,0,0,0,0c0,0,0,0,0,0l0,0l12.4-15.3
				c0.1-0.1,0.1-0.2,0.1-0.2C27.3,13.2,27,12.2,26.9,11.7z M25.4,6.8C25.4,6.8,25.4,6.8,25.4,6.8c0,0.3-0.1,0.5-0.2,0.8
				c-0.1-0.2-0.2-0.4-0.4-0.6c-0.1-0.1-0.3-0.2-0.4-0.3C24.8,6.7,25.2,6.7,25.4,6.8z M20.7,5.6C20.7,5.6,20.7,5.6,20.7,5.6
				c0-0.1,0.1-0.1,0.1-0.2c0,0,0-1,0-1.9c0-0.2,0-0.4,0-0.6c0.5-0.7,1.1-1.5,1.5-1.4c0.4,0.1,0.4,0.3,0.5,0.4c0.1,0.3,0,1-0.9,2.4
				c0,0.1-0.1,0.1-0.1,0.1c-0.1,0.1,0,0.3,0.1,0.4c0.1,0.1,0.3,0.1,0.4-0.1c0,0,0-0.1,0.1-0.1c0.2-0.3,0.7-0.8,1.1-0.9
				c0.2,0,0.4,0,0.7,0.2c0.1,0.1,0.2,0.2,0.2,0.4c0,0.4-0.4,1.1-1,1.9c0-0.1-0.1-0.1-0.1-0.2c-0.3-0.4-1.2-1-1.8-0.9
				c-0.3,0.1-0.6,0.5-0.9,0.9C20.6,5.9,20.6,5.7,20.7,5.6z M20.3,7.3c0.3,0,0.5-0.3,0.7-0.8c0.1-0.3,0.4-0.8,0.6-0.8c0,0,0,0,0,0
				c0.4,0,1.1,0.5,1.1,0.7c-0.1,0.3-0.5,1.3-0.7,1.7c-0.1,0.2,0,0.3,0.2,0.4c0.2,0.1,0.3,0,0.4-0.2c0.1-0.3,0.6-1.1,1.2-1.1
				c0.2,0,0.4,0.1,0.6,0.3c0.3,0.3,0.4,0.5,0.4,0.8c0,0.5-0.6,1-0.8,1.1c-0.1,0.1-0.2,0.3-0.1,0.4c0.1,0.1,0.3,0.2,0.4,0.1
				c0.2-0.1,0.9-0.5,1.4-0.5c0.3,0,0.4,0.1,0.5,0.4c0.1,0.2,0,0.4-0.1,0.5c-0.3,0.4-1.3,0.6-1.7,0.6c-0.1,0-0.2,0.1-0.3,0.2
				c-0.1,0.3-1.5,1-3,1c-1,0-1.7-0.3-2.3-0.9c-1.4-1.5-1.3-2.5-1.2-2.8l1.3-0.7C19,7.7,19.1,7.6,19,7.5c-0.1-1.1,0-2.2,0.2-2.4
				C19.4,5.1,19.6,5,19.7,5c0.1,0,0.3,0,0.3,0.2c0,0.2,0,0.6-0.1,0.9c-0.1,0.6-0.2,1.1,0.2,1.3C20.2,7.3,20.2,7.3,20.3,7.3z
				 M24.3,12.4c0,0-0.1,0-0.3,0c-0.2,0-0.3,0-0.5,0c-0.1,0-0.2,0-0.4,0c0.5-0.2,0.9-0.4,1.2-0.6c0,0,0,0,0,0.1
				C24.3,12,24.3,12.2,24.3,12.4z M19.1,19.9c0.2-0.3,0.5-0.8,0.6-1.4c0.5-0.1,1.1-0.1,1.2,0c0,0,0,0,0,0.1c0,0.3-0.2,1.1-0.8,1.5
				c-0.3,0.2-0.6,0.3-0.9,0.3C19.2,20.2,19.2,20,19.1,19.9z M18.5,20c0.1,0.2,0.1,1.1-0.5,2.2c-0.4,0.7-1.1,2-2.6,2.2
				c-0.3,0-0.6,0.1-0.8,0.1c-1.4,0-2-0.5-2.2-0.7l0.2-1.4c0-0.1,0-0.2-0.1-0.3c-0.9-0.6-1.7-1.3-1.8-1.5c0.1-0.4,0.3-0.7,0.5-0.7
				c0,0,0,0,0.1,0c0.2,0.1,0.4,0.4,0.7,0.6c0.4,0.4,0.6,0.7,0.9,0.7c0.1,0,0.1,0,0.2-0.1c0.3-0.2,0.2-0.6-0.1-1.1
				c-0.1-0.3-0.4-0.8-0.3-1c0.1-0.2,0.8-0.5,1.2-0.5c0,0,0.1,0,0.1,0c0.2,0.3,0.7,1.2,1,1.6c0.1,0.2,0.3,0.2,0.4,0.1
				c0.2-0.1,0.2-0.3,0.1-0.4l0,0l0,0c-0.2-0.3-0.5-1.1-0.3-1.5c0.1-0.2,0.3-0.3,0.6-0.4c0.8-0.2,1.1,0.4,1.2,0.6
				c0,0,0.1,0.3,0.1,0.3c0.1,0.3,0.1,0.6,0.1,0.6c0,0.2,0.1,0.3,0.3,0.3c0.2,0,0.3-0.1,0.3-0.3c0-0.5,0.3-1.6,0.8-1.6
				c0.1,0,0.2,0,0.3,0.1c0.2,0.1,0.3,0.2,0.4,0.4c0.2,0.5-0.3,1.4-0.5,1.7C18.4,19.8,18.4,19.9,18.5,20z M8.7,24.6
				c0-0.1-0.2-0.2-0.3-0.2c0,0-0.1,0-0.1,0c0,0,0,0-0.1,0c-0.2,0.1-0.9,0.4-1.6,0.4c-1,0-1.2-0.6-1.2-1c0-0.2,0-0.2,0-0.3
				c0.2-0.2,0.8-0.3,1.2-0.3c0.6,0,1.2-0.1,1.5-0.4c0.1-0.1,0.2-0.3,0.2-0.6c0-0.3-0.3-0.5-0.8-0.5c-0.2,0-0.4,0-0.5,0
				c-0.2,0-0.4,0-0.6,0c-0.4,0-0.6-0.1-0.7-0.2c-0.1-0.1-0.1-0.3,0-0.4c0.1-0.3,0.2-0.6,0.9-0.6c0.3,0,0.6,0.1,0.9,0.1
				c0.1,0.2,0.3,0.2,0.4,0.2c0.1,0,0.1,0,0.2,0c0,0,0.1,0,0.1,0C8,21.4,8,21.7,8.2,22c0.2,0.3,0.6,0.3,0.9,0.3c0.2,0,0.3,0,0.5-0.1
				c0,0.1,0.1,0.2,0.2,0.3c-0.3,0.8-0.6,1.9-0.3,2.6c0,0.1,0.2,0.2,0.3,0.2c0,0,0.1,0,0.1,0C9.9,25.3,10,25.2,10,25
				c-0.2-0.4,0-1.2,0.2-1.9c0.2,0.2,0.5,0.4,0.9,0.7c0.2,0.1,0.3,0.2,0.5,0.2c0,0.3-0.1,0.6-0.1,0.8c-0.4,1.2-1,1.8-1.8,1.8l0,0
				c-0.3,0-0.7-0.1-1.2-0.3c-0.7-0.4-0.8-0.6-0.8-0.7c0-0.2,0.3-0.4,0.6-0.6c0.1,0,0.1,0,0.1,0C8.7,25,8.7,24.8,8.7,24.6z M8.1,16.3
				c0-0.4-0.4-0.4-0.7-0.4c-0.1,0-0.3,0-0.4-0.1c-0.1-0.2-0.1-0.7,0.1-1c0.1-0.1,0.1-0.1,0.2-0.1c0.1,0,0.2,0,0.3,0.1
				c0.4,0.2,0.7,0.3,0.9,0.4c0.2,0.1,0.3,0.2,0.5,0.2l0,0c0.3,0,0.4-0.2,0.4-0.3c0.3-0.5,0.4-0.7,0.8-0.7c0.4,0,1,0.3,1.7,0.9
				c1,0.8,1.8,1.8,1.7,2.1c0,0.1-0.1,0.2-0.1,0.4c-0.5,0.1-1.2,0.4-1.4,0.9c-0.1,0.3,0,0.8,0.2,1.2c-0.3-0.3-0.5-0.5-0.8-0.6
				c-0.1,0-0.2-0.1-0.3-0.1c-0.6,0-1,0.6-1.1,1.2c0,0.2,0.1,0.4,0.2,0.6c0,0.1-0.1,0.1-0.1,0.2c-0.2,0.4-0.8,0.6-1.2,0.6
				c-0.2,0-0.3,0-0.4-0.1c-0.2-0.2,0-0.4,0.5-0.9c0.3-0.2,0.5-0.4,0.4-0.7s-0.3-0.4-0.4-0.4c-0.3,0-0.5,0.2-0.8,0.4
				c-0.2,0.1-0.4,0.3-0.5,0.4c-0.1-0.1-0.2-0.3-0.3-0.4c-0.2-0.2-0.4-0.5-0.3-0.6c0,0,0.1-0.1,0.1-0.1c0.2-0.2,0.4-0.2,0.6-0.3
				c0.2-0.1,0.5-0.2,0.5-0.6c0-0.2-0.2-0.3-0.4-0.3c-0.2,0-0.4,0.1-0.7,0.2c-0.2,0-0.4,0.1-0.5,0.1c-0.1-0.1-0.1-0.1-0.2-0.2
				c-0.3-0.4-0.5-0.6-0.4-0.8c0.2-0.2,0.6-0.4,1-0.4C7.7,16.8,8.1,16.7,8.1,16.3z M12.3,10.9c0.1,0.3,0.3,0.6,0.7,0.8l0.4,1
				c0,0.1,0.1,0.2,0.2,0.2c0,0,0.3,0.1,0.6,0.1c-0.2,0.4-0.3,0.8-0.3,1.2c0,0-0.1,0-0.1,0c0.1-0.3,0.1-0.6,0-0.9
				c-0.1-0.4-0.4-0.6-0.9-0.8c-0.8-0.3-1.6,0.7-2,1.4c0.1-0.3,0.2-0.6,0.2-0.9c0.1-0.1,0.2-0.2,0.2-0.2c0.1-0.1,0.2-0.3,0.1-0.4
				s-0.3-0.2-0.4-0.1l0,0c-0.2-0.3-0.4-0.5-0.8-0.6c-0.3-0.1-0.7,0-1,0.2c0.4-0.4,1.3-0.6,1.6-0.6c0.1,0,0.2-0.1,0.3-0.2
				c0.1-0.2,0.6-0.5,1.3-0.8C12.2,10.4,12.2,10.7,12.3,10.9z M20.8,13.2c0,0,0,0.1,0.1,0.1c-1-0.2-2-0.5-3-1c0-0.1,0.1-0.1,0.1-0.2
				c0.1-0.2,0.3-0.3,0.4-0.5c0.6,0.6,1.5,1,2.5,1C20.8,12.9,20.8,13,20.8,13.2z M17.6,11.8c-0.1,0.1-0.2,0.2-0.3,0.3
				c0,0-0.1,0-0.1,0c-0.4-0.2-0.9-0.4-1.3-0.7l0,0c0.1,0,0.2,0,0.3-0.1c0.1,0,0.2-0.1,0.7-0.8c0.1-0.2,0.2-0.3,0.3-0.4
				c0.2,0.4,0.4,0.8,0.8,1.2C17.9,11.4,17.7,11.6,17.6,11.8z M16.8,12.9c0.2,0.1,0.5,0,0.7-0.1c0,0,0.1,0,0.1,0.1
				c-0.6,0.2-0.7,1.1-0.8,1.7c0,0.2-0.1,0.5-0.1,0.6c0,0,0,0,0,0c-0.1-0.1,0-0.7,0-1.1C16.8,13.8,16.9,13.3,16.8,12.9z M16.5,10
				c-0.3-0.3-0.7-0.4-1.1-0.6c0.1-0.2,0.2-0.3,0.3-0.4c0.1,0,0.2,0.1,0.3,0.2c0.2,0.1,0.6,0.3,0.7,0.4C16.7,9.7,16.6,9.8,16.5,10z
				 M16.2,10.5c-0.1,0.1-0.1,0.2-0.2,0.2c0,0-0.1,0-0.1,0c-0.3,0-0.8-0.2-1-0.4c0-0.1,0.1-0.3,0.2-0.4
				C15.5,10.1,15.9,10.3,16.2,10.5z M16,12.1c0,0-0.1,0-0.1,0c-0.1,0-0.1,0-0.2,0c-0.1,0-0.2,0-0.3,0c-0.3-0.1-0.6-0.2-0.9-0.3
				c-1-0.4-1.6-0.8-1.7-1.1c0-0.1,0-0.3,0-0.4C13.8,10.9,14.9,11.5,16,12.1z M14.1,12.3c0,0-0.1,0-0.1,0l0,0
				C14,12.2,14,12.3,14.1,12.3z M13.2,14.2c-0.2,0.1-0.4,0.2-0.6,0.4c-0.1-0.2-0.2-0.3-0.3-0.4c-0.2-0.2-0.4-0.3-0.6-0.3
				c0.4-0.5,0.8-0.8,1.1-0.7c0.4,0.1,0.4,0.3,0.5,0.4C13.3,13.6,13.3,13.9,13.2,14.2z M9.9,12.2c0.4,0.1,0.4,0.3,0.5,0.4
				c0.1,0.2,0.1,0.5-0.2,1.1c0,0,0,0,0,0c-0.7,0-1.1,0.6-1.3,1c0,0,0,0-0.1,0c-0.2-0.1-0.5-0.3-1-0.5c-0.1,0-0.1,0-0.2-0.1
				c0.1,0,0.2-0.1,0.3-0.1c0.1,0,0.2-0.1,0.3-0.2C8.6,13.2,9.5,12.1,9.9,12.2z M10.8,21.4C10.8,21.4,10.8,21.4,10.8,21.4
				c0.4,0.3,0.8,0.6,1.3,0.9l-0.2,1.1c-0.2-0.1-0.3-0.1-0.4-0.2c-0.7-0.4-1.1-0.8-1.3-1.2C10.4,21.9,10.6,21.7,10.8,21.4z
				 M11.8,25.8c0.1,0,0.3-0.1,0.4-0.1c0.1,0,0.1,0,0.1,0c0.2-0.1,0.3-0.2,0.2-0.4c0-0.2-0.2-0.3-0.4-0.2c0,0,0,0-0.1,0c0,0,0,0,0,0
				c0.1-0.2,0.1-0.4,0.1-0.7c0.4,0.3,1.1,0.7,2.4,0.7c0.2,0,0.5,0,0.7,0c0.1,0.1,0.2,0.1,0.2,0.2c0,0,0,0,0,0
				c-0.5,0.9-1.5,2.2-2.2,2.4c-0.2,0-0.4,0-0.5-0.1c-0.1-0.1-0.2-0.1-0.3-0.1c-0.9,0.3-2.2,0.5-2.4,0.2C10,27.4,10,27.3,10,27.2
				C10.9,27.1,11.5,26.4,11.8,25.8z M14.4,17.1c0.2,0.1,0.4,0.1,0.6,0.2c-0.2,0.1-0.3,0.3-0.4,0.4C14.6,17.5,14.5,17.3,14.4,17.1
				C14.4,17.1,14.4,17.1,14.4,17.1z M18.9,17.1C18.8,17,18.6,17,18.5,17c-0.3,0-0.8,0.2-1.1,0.9c-0.1-0.1-0.1-0.2-0.2-0.3
				c-0.3-0.3-0.7-0.5-1.3-0.4c-0.6-0.4-1.4-0.7-2-0.7c-0.1-0.1-0.1-0.1-0.2-0.2c-0.2-0.3-0.5-0.6-0.9-0.9c0.4-0.5,0.6-0.5,0.7-0.5
				c0.2,0,0.4,0.4,0.5,0.8c0,0.1,0,0.1,0,0.1c0,0.2,0.2,0.3,0.4,0.2c0.2,0,0.3-0.2,0.3-0.4c0,0,0,0,0-0.1c0-0.3-0.3-1.7,0.3-2.3
				c0.2-0.2,0.5-0.4,0.9-0.3c0.2,0,0.2,0.1,0.3,0.1c0.2,0.2,0.1,0.8,0,1.3c-0.1,0.6-0.2,1.2,0.1,1.5c0.1,0.1,0.2,0.2,0.5,0.3
				c0,0,0,0,0.1,0c0.5,0,0.6-0.6,0.7-1.2c0.1-0.7,0.2-1.2,0.5-1.2c0.1,0,0.2,0,0.3,0.1c0.2,0.1,0.4,0.3,0.4,0.5
				c0.2,0.7-0.5,1.8-1,2.3c-0.1,0.1-0.1,0.3,0,0.4c0.1,0.1,0.3,0.1,0.4,0c0.1-0.1,0.7-0.8,1.5-1.5l0,0c0,0,0.2,0,0.6,0.6
				c0,0,0,0,0,0c0,0.2-0.3,0.8-0.8,1.6C19.4,17.3,19.2,17.2,18.9,17.1z M19.3,14.7c0-0.1,0.1-0.3,0.1-0.4c0.1,0,0.2,0,0.2,0.1
				c0,0,0,0.1,0,0.2C19.4,14.6,19.4,14.7,19.3,14.7C19.3,14.7,19.3,14.7,19.3,14.7z M20.1,17.6c0.9-1.4,0.9-1.8,0.7-2.1l0,0
				c-0.2-0.3-0.4-0.6-0.7-0.8c0-0.2,0-0.4,0-0.6c-0.1-0.2-0.2-0.3-0.3-0.3c-0.1,0-0.3-0.1-0.4-0.1c-0.1,0-0.1,0-0.2-0.1
				c0-0.1-0.1-0.1-0.1-0.2c1.2,0.4,2.3,0.6,3.4,0.8c0,0-0.1,0-0.1,0.1c-0.4,0.3-0.7,0.5-0.6,0.8c0,0.1,0.1,0.3,0.4,0.3
				c0.1,0,0.2,0,0.3,0c0.1,0,0.2,0,0.3,0c0,0,0,0,0.1,0c0.1,0.2,0.3,0.7,0.2,1c0,0-0.1,0.1-0.3,0.1c0,0-0.1,0-0.1,0
				c-0.5,0-0.8-0.1-1-0.2c-0.1,0-0.3-0.1-0.4-0.1c-0.2,0-0.4,0.1-0.5,0.4C20.8,17.3,20.7,17.6,20.1,17.6z M21.3,13.4
				c0.2,0,0.3-0.2,0.6-0.3c0.1-0.1,0.3-0.2,0.4-0.3c0.1,0.1,0.2,0.1,0.3,0.2c0.4,0.3,0.7,0.5,0.6,0.6c0,0,0,0.1,0,0.1
				C22.6,13.7,22,13.6,21.3,13.4z M23.1,14.7c0.1-0.1,0.2-0.2,0.3-0.3c0.1,0,0.3,0,0.4,0C23.6,14.5,23.3,14.6,23.1,14.7z M23.8,13.8
				c0-0.1,0-0.1,0-0.2c0.2,0.1,0.3,0.1,0.3,0.2C24.1,13.8,23.9,13.8,23.8,13.8z M13.8,4.7c0.2,0,0.4,0.2,0.7,0.4
				c0,0,0.1,0.1,0.1,0.1c0.1,0.1,0.3,0.1,0.4,0s0.1-0.3,0-0.4c0,0,0,0-0.1-0.1c-0.2-0.2-1.2-1.2-1.1-2.1c0-0.3,0.2-0.5,0.5-0.8
				c0.1,0,0.2-0.1,0.2-0.1c0.3,0,0.6,0.6,0.8,1c0.3,0.6,0.6,1.2,1.2,1.2c0.1,0,0.3,0,0.4-0.1c0.5-0.3,0.2-0.9-0.1-1.4
				c-0.2-0.4-0.5-1-0.4-1.2c0.1-0.1,0.2-0.2,0.4-0.2c0.3-0.1,0.5,0,0.7,0.2C17.9,1.7,18,3,17.9,3.6c0,0.2,0.1,0.3,0.3,0.3
				c0.2,0,0.3-0.1,0.3-0.3c0,0,0.1-1.1,0.3-2c0,0,0,0,0.1,0c0.2,0,0.6,0.1,0.7,0.2c0,0,0,0,0,0c0.2,0.2,0.3,1.3,0.3,2.7
				c-0.1,0-0.3-0.1-0.4-0.1c-0.3,0-0.6,0.1-0.8,0.2c-0.2,0.1-0.3,0.4-0.4,0.7c0,0,0,0,0,0c-0.4,0-0.7,0.2-0.9,0.4
				c0-0.1-0.1-0.3-0.1-0.4c-0.1-0.1-0.2-0.2-0.4-0.2c-0.1,0-0.3,0-0.4,0c-0.2,0-0.4,0-0.5,0c-0.5,0-0.8,0.3-0.9,0.6
				c-0.1-0.2-0.2-0.3-0.4-0.3c0,0,0,0,0,0c0,0-0.2,0-0.3,0c-0.2,0-0.4-0.1-0.6-0.1c-0.2,0-0.4,0-0.5,0.1C13.4,5,13.6,4.7,13.8,4.7z
				 M13.4,8.1c0.1,0,0.1,0,0.2,0c0.3-0.2,0.2-0.5,0.1-1c-0.1-0.3-0.2-0.8-0.1-1.1c0-0.1,0-0.1,0.3-0.1c0.2,0,0.4,0,0.5,0.1
				c0.1,0,0.2,0,0.3,0c0,0.1,0.1,0.3,0.1,0.5c0.1,0.5,0.2,0.9,0.6,0.9c0.1,0,0.1,0,0.2,0c0.4-0.2,0.3-0.5,0.3-0.8c0-0.2,0-0.4,0-0.7
				c0-0.2,0-0.2,0.3-0.2c0.1,0,0.3,0,0.4,0c0.1,0,0.3,0,0.4,0c0,0.1,0,0.5-0.1,0.7c-0.1,0.4-0.1,0.8,0.1,1c0.1,0.1,0.3,0.2,0.5,0.1
				c0.3-0.1,0.3-0.4,0.4-0.7c0.1-0.6,0.2-0.9,0.5-0.9c0,0,0,0,0,0c0,0.4,0,1,0,1.4l-1.2,0.6c-0.1,0-0.1,0.1-0.1,0.1
				c0,0-0.2,0.4-0.1,0.9c-0.2-0.1-0.4-0.2-0.6-0.3c-0.2-0.1-0.3-0.2-0.4-0.2c-0.1,0-0.1-0.1-0.2-0.1c-0.6,0-1.3,1.8-1.4,2.1
				c-0.4-0.3-0.8-0.5-1.1-0.7c0.1-0.1,0.1-0.2,0.1-0.4C13.2,9.1,13,9,12.8,8.9c-0.2-0.1-0.5-0.2-0.8-0.5C11.8,8.1,11.8,8,11.8,8
				c0.1-0.3,0.6-0.6,0.8-0.6c0.1,0,0.2,0.2,0.2,0.3C13,7.9,13.1,8.1,13.4,8.1L13.4,8.1z M12.9,6.8c-0.1,0-0.2-0.1-0.2-0.1
				c0,0-0.1,0-0.1,0c0,0,0,0-0.1,0c-0.1-0.1-0.2-0.2-0.2-0.3c-0.3-0.4-0.7-0.9-0.6-1.1c0-0.1,0.2-0.2,0.4-0.3C12.1,5,12.2,5,12.3,5
				c0.2,0,0.4,0.1,0.5,0.2c0,0.1,0,0.2,0,0.4C12.7,6.1,12.8,6.5,12.9,6.8z M10.3,3.8c0.1-0.2,0.3-0.2,0.5-0.2c0.1,0,0.2-0.1,0.3-0.2
				c0.4-0.8,1.3-1.9,1.7-1.7c0.4,0.1,0.4,0.3,0.5,0.4v0c0,0.1-0.1,0.2-0.1,0.4c0,0.2,0,0.3,0,0.5c-0.1,0.4-0.4,0.9-0.8,1.5
				c0,0-0.1,0-0.1,0c-0.2,0-0.4,0-0.5,0.1c-0.4,0.1-0.6,0.4-0.7,0.7c-0.2,0.6,0.3,1.1,0.7,1.7c-0.1,0-0.1,0-0.2,0
				c-0.1-0.1-0.1-0.2-0.2-0.2c-0.4-0.5-0.8-1.1-1.4-1.1C9.9,4.8,10,4.2,10.3,3.8z M9.7,6.2c0.1-0.1,0.2-0.1,0.2-0.1
				c0.3,0,0.6,0.5,0.9,0.9c0.2,0.2,0.3,0.4,0.5,0.6c-0.1,0.1-0.1,0.2-0.1,0.3c0,0.1,0,0.1,0,0.2C10.5,7.4,10,6.8,9.7,6.2
				C9.6,6.3,9.7,6.2,9.7,6.2z M12.1,9.6c-0.7,0.3-1.4,0.7-1.6,1c-0.2,0-0.6,0.1-1,0.2c-0.1-0.2-0.1-0.4-0.1-0.7
				c-0.1-0.7,0.1-0.9,0.1-1c0,0,0.1-0.1,0.2-0.1c0.2,0,0.4,0.1,0.7,0.3c0.1,0,0.1,0.1,0.1,0.1c0.1,0.1,0.3,0.1,0.4-0.1
				C11,9.3,10.9,9.1,10.8,9c0,0,0,0-0.1-0.1c-0.2-0.2-1.4-1-1.4-1.9c0-0.1,0-0.1,0-0.2C9.9,7.7,10.9,8.7,12.1,9.6z M9.1,4.6
				C9.1,4.6,9.1,4.6,9.1,4.6c0.1-0.2,0.2-0.4,0.4-0.5C9.4,4.6,9.3,5.2,9.4,5.7c0,0,0,0,0,0C9.1,5.3,9.1,4.9,9.1,4.6z M8.8,6
				c0,0.1,0.1,0.1,0.1,0.2C8.7,6.5,8.6,6.8,8.6,7.1c0,0.6,0.4,1.1,0.7,1.5C9.2,8.6,9.1,8.7,9,8.8c-0.3,0.3-0.3,0.8-0.3,1.5
				c0,0.4,0.1,0.7,0.2,0.9c-0.2,0.1-0.3,0.2-0.4,0.4c-0.2,0.3-0.2,0.6-0.1,1c-0.3,0.4-0.5,0.8-0.7,1C7.4,13.6,7.2,13.7,7,14
				c-0.1,0.1-0.2,0.3-0.2,0.4c0,0-0.1,0.1-0.1,0.1C6.3,15,6.4,15.7,6.5,16c0,0,0,0.1,0,0.1c0,0.1,0,0.3,0,0.4
				c-0.2,0.1-0.4,0.2-0.6,0.4C6.8,13.5,7.8,9.5,8.8,6z M5.7,17.8c0.1,0.3,0.4,0.6,0.5,0.8c0.1,0.1,0.2,0.2,0.2,0.2
				c0,0,0.1,0.1,0.1,0.2c-0.1,0.2-0.2,0.4-0.2,0.7c0,0.2,0.1,0.4,0.3,0.5c0,0,0,0,0,0c0,0-0.1,0-0.1,0c-0.8,0-1.3,0.4-1.5,1.1
				c-0.1,0.4,0,0.7,0.1,1c0.3,0.4,0.8,0.4,1.1,0.4c0.2,0,0.4,0,0.7,0c0.2,0,0.4,0,0.5,0c0.1,0,0.1,0,0.1,0c0,0,0,0,0,0
				c-0.1,0.1-0.7,0.2-1,0.2c-0.7,0-1.3,0.1-1.7,0.5c-0.1,0.1-0.2,0.3-0.2,0.4c-0.2,0-0.3,0-0.4,0.1C4.5,22.8,5,20.5,5.7,17.8z
				 M8.1,28.2c-2.6-1.4-3.5-3.2-3.8-3.9c0.1,0,0.3-0.1,0.4-0.1C5,25,5.6,25.5,6.6,25.5c0.2,0,0.4,0,0.6-0.1c0,0.1,0,0.1,0,0.2
				c0,0.5,0.4,0.9,1.1,1.3C8.6,27,9,27.2,9.3,27.2c0,0.2,0.1,0.4,0.2,0.6c0.2,0.4,0.7,0.5,1.2,0.5c0.7,0,1.4-0.2,1.8-0.3
				c0.1,0.1,0.2,0.1,0.4,0.1c0.4,0.4,0.6,0.8,0.7,1C12.9,29.3,10.9,29.7,8.1,28.2z M14.1,28.7c-0.1-0.2-0.2-0.4-0.4-0.7
				c1.2-0.4,2.3-2.4,2.4-2.6c0.1-0.3,0.1-0.5,0-0.6c1.3-0.4,2.1-1.6,2.5-2.4c0.2-0.5,0.4-1,0.5-1.5c0.5,0,1-0.1,1.3-0.4
				c0.8-0.6,1-1.6,1.1-2c0-0.3,0-0.5-0.2-0.7c-0.1-0.1-0.1-0.1-0.2-0.1c0.3-0.3,0.4-0.7,0.5-1c0,0,0,0,0.1,0
				c0.2,0.1,0.6,0.2,1.1,0.2c0.6,0.1,0.9-0.2,1-0.5c0.2-0.5,0.1-1.1-0.1-1.4c0.4-0.1,0.8-0.3,1-0.6c0.1-0.1,0.1-0.1,0.2-0.2
				c0.4,0,0.7,0,1-0.1L14.1,28.7z M26.2,13.6c-0.1,0.1-0.6,0.2-1.4,0.2c-0.1-0.4-0.3-0.6-0.6-0.8c0.2,0,0.4-0.1,0.5-0.2
				c0.1-0.1,0.2-0.2,0.2-0.4c0-0.2,0-0.3,0-0.5c0-0.1,0-0.3,0-0.4c0.3,0,0.7-0.1,1-0.3c0.2,0.3,0.3,0.5,0.4,0.7
				C26.4,12.5,26.6,13.3,26.2,13.6z"/>
		</g>
	</g>
</g>
</svg>
