<?xml version="1.0" encoding="utf-8"?>
<!-- Generator: Adobe Illustrator 21.0.0, SVG Export Plug-In . SVG Version: 6.00 Build 0)  -->
<svg version="1.1" id="Layer_1" xmlns="http://www.w3.org/2000/svg" xmlns:xlink="http://www.w3.org/1999/xlink" x="0px" y="0px"
	 viewBox="0 0 30 27.8" style="enable-background:new 0 0 30 27.8;" xml:space="preserve">
<style type="text/css">
	.st0{fill:#FFFFFF;}
	.st1{fill:#B28E36;}
</style>
<g>
	<path class="st0" d="M11.6,4.6C11.6,4.7,11.6,4.7,11.6,4.6c0.2,0.5,0.5,1,0.6,1.4c0.1,0.3,0.1,0.7,0,1c0,0.1,0,0.2,0.1,0.3
		c0.2,0.1,0.3,0.2,0.3,0.4c0.1,0.3,0.3,0.5,0.5,0.7c0.1,0.1,0.1,0.1,0.2,0.2c0.2,0.2,0.3,0.3,0.6,0.4c0,0,0.1,0,0.1,0
		c0.3,0.3,0.8,0.3,1.1,0.5c0.2,0.1,0.5,0.3,0.7,0.4c0.2,0.1,0.3,0.2,0.5,0.2c0.2,0.2,0.4,0.1,0.7,0.1c0.2,0,0.4,0,0.7-0.1
		c0,0,0,0,0,0c0.6,0.1,1.2,0.2,1.6,0.7c0.2,0.3,0.5,0.4,0.8,0.7c0.3,0.2,0.6,0.5,0.8,0.9c0.1,0.1,0.1,0.2,0.3,0.3
		c0.1,0.1,0.2,0.2,0.3,0.4c0.2,0.3,0.3,0.7,0.6,1c0,0.1,0.1,0.1,0.2,0.2c0.4,0.3,0.8,0.7,1.1,1.1c0.1,0.1,0.2,0.2,0.3,0.3
		c0.1,0.1,0.1,0.1,0.2,0.2c0.2,0.3,0.6,0.6,0.9,0.9c0.3,0.3,0.6,0.6,0.7,1c0.2,0.4,0.4,0.8,0.7,1.1c0.3,0.4,0.5,0.9,0.6,1.4
		c0.1,0.4,0.2,0.7,0.3,1.1c0,0.1,0,0.1,0.1,0.2c0.1-0.6,0.2-1.2,0.3-1.8c0.1,0.1,0,0.1,0,0.2c0,0.4,0,0.8-0.1,1.3
		c-0.1,0.4,0,0.7,0.1,1.1c0,0.1,0.1,0.2,0.1,0.3c0.1,0,0.1-0.1,0.1-0.1c0.1-0.4,0.3-0.9,0.5-1.3c0.1-0.2,0.4-0.4,0.6-0.5
		c0,0.1-0.1,0.2-0.2,0.3c-0.3,0.2-0.4,0.5-0.5,0.7c-0.2,0.4-0.3,0.9-0.4,1.3c0,0.1,0,0.2,0,0.3c0,0.5-0.2,0.9-0.5,1.3
		C27,24.8,27,25,26.9,25.2c-0.1,0.2-0.3,0.4-0.6,0.5C26.1,25.8,26,25.9,26,26c-0.1,0.2-0.2,0.4-0.3,0.6c-0.1-0.1,0-0.2,0-0.3
		c0.1-0.2,0.1-0.4,0.2-0.6c0-0.1,0-0.1,0-0.1c-0.1-0.1-0.3-0.1-0.4,0c-0.1,0.1-0.3,0.1-0.4,0.1c-0.2,0.1-0.3,0.1-0.5,0
		c-0.1,0-0.1,0-0.2,0c-0.1,0.1-0.3,0.1-0.4,0c-0.3-0.2-0.7-0.2-1.1-0.2c-0.2,0-0.4-0.1-0.6-0.1c-0.3,0-0.6-0.1-0.9-0.2
		c-0.1,0-0.3-0.1-0.4-0.1c-0.2,0-0.3-0.1-0.4-0.2c-0.1-0.1-0.2-0.1-0.3-0.1c-0.3,0-0.7,0-1-0.1c-0.4,0-0.7-0.1-1-0.4
		c-0.2-0.1-0.4-0.1-0.6-0.2c-0.3-0.1-0.6-0.2-0.9-0.4c-0.2-0.1-0.3-0.2-0.4-0.3c-0.2-0.2-0.5-0.3-0.7-0.5c-0.2-0.3-0.4-0.6-0.5-0.9
		c0-0.1-0.1-0.2-0.2-0.3c-0.2-0.1-0.3-0.3-0.3-0.4c-0.1-0.4-0.4-0.5-0.8-0.7c-0.6-0.2-1.1-0.6-1.5-1c-0.1-0.1-0.1-0.2-0.2-0.4
		c0.3,0.5,0.9,0.8,1.4,1.1c-0.3-0.3-0.6-0.6-0.9-0.9c-0.5-0.6-1-1.1-1.3-1.7c0,0,0-0.1-0.1-0.1c-0.4-0.3-0.7-0.8-1.1-1.1
		c-0.2-0.1-0.3-0.3-0.5-0.4C9.6,16,9.5,16,9.4,15.9c-0.1-0.3-0.4-0.4-0.7-0.5c-0.3-0.1-0.5-0.3-0.7-0.5c-0.4-0.4-0.7-0.9-1-1.4
		c-0.3-0.5-0.4-1-0.3-1.6c0.1-0.2,0-0.3-0.2-0.4C6.2,11.3,6,11,5.7,10.8c-0.2-0.2-0.5-0.4-0.8-0.6C4.4,9.9,4.3,9.6,4.3,9.1
		c0,0.1,0.1,0.3,0.1,0.4C4.5,9.7,4.6,9.9,4.8,10c0.5,0.3,1,0.7,1.4,1.1c0.1,0.1,0.2,0.2,0.3,0.2c0-0.1,0-0.1,0-0.2
		c-0.2-0.4-0.4-0.7-0.5-1.1C5.7,9.5,5.6,9,5.5,8.5C5.4,8.2,5.3,7.9,5.2,7.7C5.2,7.5,5.2,7.2,5.2,7c0-0.4-0.1-0.8-0.2-1.1
		C4.7,5.5,4.5,5.1,4.5,4.7C4.4,4.1,4.1,3.5,3.7,2.9C3.5,2.6,3.1,2.4,2.8,2.1C2.4,1.8,2.1,1.5,2,1.1c0.2,0.2,0.4,0.5,0.6,0.7
		s0.5,0.4,0.8,0.6c0-0.3-0.2-0.4-0.3-0.7C3.1,1.5,3.1,1.2,3.1,1c0.1,0.2,0.1,0.4,0.1,0.6C3.4,2,3.6,2.4,3.9,2.9
		c0.2,0.4,0.5,0.7,0.8,1C4.8,4,5,4.1,5.1,4.2c0.3,0.2,0.7,0.5,1,0.7c0.6,0.4,1.3,0.8,2,1.1c0.3,0.1,0.6,0.2,1,0.3
		c0.6,0.1,1.1,0.4,1.6,0.7c0.2,0.1,0.5,0.2,0.8,0.2c0.1,0,0.2,0,0.3,0c0.2,0,0.2,0,0.3-0.2c0.1-0.4,0.1-0.9-0.1-1.3
		c-0.1-0.3-0.3-0.6-0.3-0.8C11.6,4.8,11.6,4.8,11.6,4.6L11.6,4.6z"/>
	<g>
		<path class="st1" d="M11.6,4.6C11.6,4.7,11.6,4.7,11.6,4.6c0.2,0.5,0.5,1,0.6,1.4c0.1,0.3,0.1,0.7,0,1c0,0.1,0,0.2,0.1,0.3
			c0.2,0.1,0.3,0.2,0.3,0.4c0.1,0.3,0.3,0.5,0.5,0.7c0.1,0.1,0.1,0.1,0.2,0.2c0.2,0.2,0.3,0.3,0.6,0.4c0,0,0.1,0,0.1,0
			c0.3,0.3,0.8,0.3,1.1,0.5c0.2,0.1,0.5,0.3,0.7,0.4c0.2,0.1,0.3,0.2,0.5,0.2c0.2,0.2,0.4,0.1,0.7,0.1c0.2,0,0.4,0,0.7-0.1
			c0,0,0,0,0,0c0.6,0.1,1.2,0.2,1.6,0.7c0.2,0.3,0.5,0.4,0.8,0.7c0.3,0.2,0.6,0.5,0.8,0.9c0.1,0.1,0.1,0.2,0.3,0.3
			c0.1,0.1,0.2,0.2,0.3,0.4c0.2,0.3,0.3,0.7,0.6,1c0,0.1,0.1,0.1,0.2,0.2c0.4,0.3,0.8,0.7,1.1,1.1c0.1,0.1,0.2,0.2,0.3,0.3
			c0.1,0.1,0.1,0.1,0.2,0.2c0.2,0.3,0.6,0.6,0.9,0.9c0.3,0.3,0.6,0.6,0.7,1c0.2,0.4,0.4,0.8,0.7,1.1c0.3,0.4,0.5,0.9,0.6,1.4
			c0.1,0.4,0.2,0.7,0.3,1.1c0,0.1,0,0.1,0.1,0.2c0.1-0.6,0.2-1.2,0.3-1.8c0.1,0.1,0,0.1,0,0.2c0,0.4,0,0.8-0.1,1.3
			c-0.1,0.4,0,0.7,0.1,1.1c0,0.1,0.1,0.2,0.1,0.3c0.1,0,0.1-0.1,0.1-0.1c0.1-0.4,0.3-0.9,0.5-1.3c0.1-0.2,0.4-0.4,0.6-0.5
			c0,0.1-0.1,0.2-0.2,0.3c-0.3,0.2-0.4,0.5-0.5,0.7c-0.2,0.4-0.3,0.9-0.4,1.3c0,0.1,0,0.2,0,0.3c0,0.5-0.2,0.9-0.5,1.3
			C27,24.8,27,25,26.9,25.2c-0.1,0.2-0.3,0.4-0.6,0.5C26.1,25.8,26,25.9,26,26c-0.1,0.2-0.2,0.4-0.3,0.6c-0.1-0.1,0-0.2,0-0.3
			c0.1-0.2,0.1-0.4,0.2-0.6c0-0.1,0-0.1,0-0.1c-0.1-0.1-0.3-0.1-0.4,0c-0.1,0.1-0.3,0.1-0.4,0.1c-0.2,0.1-0.3,0.1-0.5,0
			c-0.1,0-0.1,0-0.2,0c-0.1,0.1-0.3,0.1-0.4,0c-0.3-0.2-0.7-0.2-1.1-0.2c-0.2,0-0.4-0.1-0.6-0.1c-0.3,0-0.6-0.1-0.9-0.2
			c-0.1,0-0.3-0.1-0.4-0.1c-0.2,0-0.3-0.1-0.4-0.2c-0.1-0.1-0.2-0.1-0.3-0.1c-0.3,0-0.7,0-1-0.1c-0.4,0-0.7-0.1-1-0.4
			c-0.2-0.1-0.4-0.1-0.6-0.2c-0.3-0.1-0.6-0.2-0.9-0.4c-0.2-0.1-0.3-0.2-0.4-0.3c-0.2-0.2-0.5-0.3-0.7-0.5c-0.2-0.3-0.4-0.6-0.5-0.9
			c0-0.1-0.1-0.2-0.2-0.3c-0.2-0.1-0.3-0.3-0.3-0.4c-0.1-0.4-0.4-0.5-0.8-0.7c-0.6-0.2-1.1-0.6-1.5-1c-0.1-0.1-0.1-0.2-0.2-0.4
			c0.3,0.5,0.9,0.8,1.4,1.1c-0.3-0.3-0.6-0.6-0.9-0.9c-0.5-0.6-1-1.1-1.3-1.7c0,0,0-0.1-0.1-0.1c-0.4-0.3-0.7-0.8-1.1-1.1
			c-0.2-0.1-0.3-0.3-0.5-0.4C9.6,16,9.5,16,9.4,15.9c-0.1-0.3-0.4-0.4-0.7-0.5c-0.3-0.1-0.5-0.3-0.7-0.5c-0.4-0.4-0.7-0.9-1-1.4
			c-0.3-0.5-0.4-1-0.3-1.6c0.1-0.2,0-0.3-0.2-0.4C6.2,11.3,6,11,5.7,10.8c-0.2-0.2-0.5-0.4-0.8-0.6C4.4,9.9,4.3,9.6,4.3,9.1
			c0,0.1,0.1,0.3,0.1,0.4C4.5,9.7,4.6,9.9,4.8,10c0.5,0.3,1,0.7,1.4,1.1c0.1,0.1,0.2,0.2,0.3,0.2c0-0.1,0-0.1,0-0.2
			c-0.2-0.4-0.4-0.7-0.5-1.1C5.7,9.5,5.6,9,5.5,8.5C5.4,8.2,5.3,7.9,5.2,7.7C5.2,7.5,5.2,7.2,5.2,7c0-0.4-0.1-0.8-0.2-1.1
			C4.7,5.5,4.5,5.1,4.5,4.7C4.4,4.1,4.1,3.5,3.7,2.9C3.5,2.6,3.1,2.4,2.8,2.1C2.4,1.8,2.1,1.5,2,1.1c0.2,0.2,0.4,0.5,0.6,0.7
			s0.5,0.4,0.8,0.6c0-0.3-0.2-0.4-0.3-0.7C3.1,1.5,3.1,1.2,3.1,1c0.1,0.2,0.1,0.4,0.1,0.6C3.4,2,3.6,2.4,3.9,2.9
			c0.2,0.4,0.5,0.7,0.8,1C4.8,4,5,4.1,5.1,4.2c0.3,0.2,0.7,0.5,1,0.7c0.6,0.4,1.3,0.8,2,1.1c0.3,0.1,0.6,0.2,1,0.3
			c0.6,0.1,1.1,0.4,1.6,0.7c0.2,0.1,0.5,0.2,0.8,0.2c0.1,0,0.2,0,0.3,0c0.2,0,0.2,0,0.3-0.2c0.1-0.4,0.1-0.9-0.1-1.3
			c-0.1-0.3-0.3-0.6-0.3-0.8C11.6,4.8,11.6,4.8,11.6,4.6L11.6,4.6z M10.8,7.4L10.8,7.4c-0.2-0.1-0.5-0.2-0.8-0.1
			C9.6,7.4,9.2,7.5,8.8,7.6C8.3,7.6,8,7.9,7.8,8.2C7.8,8.4,7.7,8.5,7.7,8.7c0.1-0.2,0.4-0.2,0.6-0.3C8.5,8.2,8.6,8.1,8.8,8
			c0,0.1,0,0.1,0,0.1C8.6,8.3,8.4,8.5,8.2,8.6C7.9,8.8,7.7,8.9,7.5,9.2C7.1,9.6,6.9,10,6.8,10.5c-0.1-0.1-0.1-0.3,0-0.4
			C6.9,9.8,7,9.5,7.2,9.3c0.2-0.2,0.3-0.5,0.4-0.7c0.1-0.3,0.3-0.6,0.5-0.9c0.1-0.1,0.3-0.2,0.5-0.3c0.3-0.1,0.7-0.2,1-0.2
			c0.2,0,0.4-0.1,0.6-0.1C9.4,7,8.5,7.1,7.7,7.5c0-0.1,0.1-0.2,0.2-0.3C8.2,7.1,8.5,7,8.7,7c0.3,0,0.6-0.1,0.9-0.1
			c0,0,0.1,0,0.1-0.1c-0.4-0.1-0.8,0-1.2,0c-0.4,0-0.7,0.2-1,0.5c0-0.2,0.1-0.3,0.2-0.3C8,6.8,8.2,6.7,8.5,6.6c0.1,0,0.1,0,0.2-0.1
			c0.2,0.1,0.4,0,0.6,0C9,6.5,8.9,6.5,8.7,6.6c0,0,0,0,0,0C7.9,6.5,7.1,6.9,6.8,7.4c0,0,0,0.1-0.1,0.1c0-0.2,0.1-0.4,0.3-0.6
			c0.2-0.1,0.4-0.3,0.6-0.4C7.8,6.5,8,6.4,8.3,6.4c0.1,0,0.2,0,0.3,0C8.3,6.3,8.1,6.2,7.8,6.1c0,0-0.1,0-0.1,0
			C7.3,6.2,7,6.3,6.6,6.4C6.3,6.5,6,6.8,6,7.1c0,0.1,0,0.3-0.1,0.5c0,0,0,0.1,0,0.1c-0.1-0.6,0-1.1,0.7-1.5c-0.3,0-0.7,0.1-1,0.1
			c-0.1,0-0.1,0.1-0.2,0.1c0,0.1-0.1,0.2-0.1,0.3c0,0.1,0,0.2,0,0.3c0,0.2,0,0.4,0.1,0.6c0.1,0.2,0.2,0.4,0.2,0.7
			C5.7,8.8,5.8,9.2,6,9.6c0.2,0.6,0.5,1.1,0.8,1.7c0,0.1,0.1,0.1,0.2,0.2c0.1,0,0.3,0.1,0.4,0.2c0.2,0.1,0.4,0.2,0.6,0.1
			c0.1,0,0.1-0.1,0.2-0.1c0,0,0.1,0,0.1,0c0,0,0,0.1,0,0.1c-0.1,0-0.1,0.1-0.2,0.1c-0.3,0.1-0.3,0.1-0.2,0.4c0,0.1,0,0.1,0,0.2
			c0,0.1,0.1,0.1,0,0.2c-0.1-0.1-0.1-0.2-0.2-0.4c0-0.2-0.1-0.4-0.3-0.4c-0.1,0-0.1-0.1-0.2-0.1c-0.1,0-0.1-0.1-0.2,0
			C7,11.9,7,12.2,7,12.5c0,0.4,0.2,0.8,0.4,1.1c0.2,0.4,0.5,0.8,0.8,1.1c0.2,0.2,0.4,0.3,0.6,0.4c0-0.1-0.1-0.2-0.1-0.3
			c0-0.4,0-0.9,0.1-1.3c0.1-0.5,0.4-1,0.9-1.4c0.2-0.2,0.5-0.4,0.6-0.6c0,0,0-0.1,0.1-0.1c-0.1,0.3-0.3,0.6-0.6,0.8
			c-0.3,0.2-0.6,0.6-0.7,0.9c-0.2,0.5-0.3,1-0.3,1.5c0,0.1,0,0.3,0.1,0.4c0,0.1,0.1,0.2,0.2,0.3c0.2,0.1,0.4,0.2,0.5,0.4
			c0.1,0.2,0.3,0.3,0.6,0.5c-0.1-0.2-0.2-0.3-0.2-0.4c-0.3-0.3-0.3-0.6-0.1-1c0,0,0,0,0,0c0.2-0.3,0.3-0.6,0.4-0.9
			c0-0.1,0.1-0.2,0.1-0.2c0,0.2-0.1,0.5-0.2,0.7c-0.1,0.2-0.2,0.4-0.3,0.6c-0.1,0.2-0.1,0.4,0,0.6c0.2,0.3,0.4,0.6,0.5,0.9
			c0.1,0.2,0.3,0.4,0.5,0.6c0.1,0.1,0.2,0.3,0.3,0.4c0.2,0.2,0.4,0.4,0.5,0.6c0,0,0,0.1,0.1,0.1c0-0.2,0-0.5,0-0.7
			c0-0.3,0-0.6,0.1-0.9c0-0.1,0-0.1,0.2-0.1C12,16.6,12,16.8,12,17.1c0,0.4,0,0.7,0,1.1c0,0,0,0.1,0,0.1c0.1,0.1,0.2,0.3,0.3,0.4
			c0,0,0-0.1,0-0.1c0-0.3,0-0.6,0.1-0.9c0.1-0.3,0.2-0.6,0.3-1c0-0.1,0-0.2,0.1-0.4c0.1-0.4,0.2-0.7,0.4-1.1
			c0.3-0.6,0.7-1.1,1.1-1.5c0,0,0.1-0.1,0.2-0.1c0,0,0.1,0,0.1,0c0,0,0,0.1,0,0.1c-0.2,0.1-0.3,0.4-0.4,0.6
			c-0.1,0.3-0.2,0.6-0.4,0.9c-0.3,0.6-0.6,1.2-0.9,1.8c-0.2,0.4-0.4,0.9-0.4,1.3c0,0.2,0,0.4,0.1,0.6c0.4,0.5,0.8,1,1.4,1.4
			c0.1,0.1,0.1,0.1,0.2,0.1c0-0.1,0-0.2,0-0.3c-0.2-0.3-0.2-0.6-0.3-1c0-0.1,0-0.2,0-0.3c0.1-0.4,0.2-0.9,0.4-1.2
			c0.1-0.2,0.2-0.4,0.3-0.5c0.1-0.1,0.2-0.3,0.2-0.4c0.1-0.5,0.2-0.9,0.4-1.3c0.1-0.3,0.3-0.5,0.5-0.7c0.1-0.1,0.2-0.2,0.3-0.3
			c0.1-0.1,0.3-0.2,0.4-0.4c0.2-0.1,0.4-0.3,0.5-0.5c0.2-0.2,0.3-0.4,0.4-0.5c0.2-0.2,0.4-0.3,0.8-0.2c0,0.1-0.1,0.1-0.1,0.1
			c-0.3,0-0.5,0.2-0.7,0.4c-0.1,0.1-0.2,0.2-0.3,0.3c-0.2,0.2-0.5,0.5-0.8,0.7c-0.3,0.2-0.5,0.5-0.7,0.8c-0.3,0.4-0.5,0.9-0.7,1.4
			c-0.1,0.3-0.1,0.7-0.4,1c-0.2,0.5-0.5,0.9-0.6,1.4c-0.1,0.5,0,0.9,0.3,1.3c0,0,0.1,0.1,0,0.1c-0.1,0.1,0,0.2,0.1,0.3
			c0.2,0.2,0.3,0.5,0.4,0.7c0,0.1,0.1,0.2,0.2,0.3c-0.1-0.6,0.1-1.1,0.2-1.7c0.1-0.3,0.2-0.7,0.2-1c0-0.4,0.1-0.7,0.2-1
			c0.1-0.3,0.3-0.6,0.5-0.9c0.1,0.1,0,0.1,0,0.2c0,0.1-0.2,0.2-0.2,0.3c-0.2,0.4-0.3,0.8-0.4,1.2c0,0.4-0.1,0.8-0.2,1.2
			c0,0.3,0,0.6,0.2,0.8c0.1,0.2,0.2,0.3,0.3,0.5c0,0,0,0.1,0,0.1c0,0-0.1,0-0.1,0c-0.1-0.1-0.1-0.1-0.2-0.2
			c-0.1-0.2-0.2-0.3-0.3-0.5c-0.1,0.4-0.2,0.8-0.1,1.1c0.1,0.5,0.3,0.9,0.7,1.3c0.2,0.1,0.4,0.3,0.5,0.4c0.3,0.3,0.8,0.5,1.3,0.7
			c0,0,0.1,0,0.2,0c-0.6-0.9-0.6-2.1-0.3-2.6c0,0.1,0,0.1,0,0.1c-0.1,0.5-0.1,1.1,0,1.6c0.1,0.4,0.2,0.7,0.5,1
			c0.1,0.1,0.1,0.1,0.2,0.1c0,0,0.1,0,0.2,0c0.1,0,0-0.1,0-0.1c-0.1-0.2-0.1-0.4-0.1-0.7c0-0.5,0-1,0-1.5c0.1-0.6,0.3-1.1,0.5-1.7
			c0.1-0.1,0.2-0.3,0.2-0.4c0,0,0,0,0,0c-0.1,0.3-0.2,0.5-0.3,0.8c-0.2,0.4-0.3,0.9-0.4,1.4c0,0.5,0,1.1,0,1.6
			c0,0.2,0.1,0.5,0.2,0.7c0.1,0.2,0.3,0.3,0.6,0.2c-0.3-0.9-0.6-1.7-0.3-2.7c0.3-0.9,0.6-1.7,1.5-2.4c0,0.2-0.2,0.3-0.3,0.4
			c-0.1,0.1-0.3,0.3-0.4,0.4c-0.3,0.6-0.6,1.2-0.7,1.8c-0.1,0.3-0.1,0.6,0,0.9c0.1,0.4,0.2,0.7,0.3,1.1c0.1,0.3,0.3,0.5,0.7,0.6
			c0.2,0,0.4,0,0.6,0c0-0.3,0-0.6-0.1-0.9c-0.1-0.5-0.2-0.9-0.1-1.4c0-0.2,0-0.4,0.2-0.5c-0.1,0.6-0.2,1.2,0,1.7
			c0.1-0.2,0.1-0.5,0.3-0.7c0,0.1,0,0.1,0,0.1c-0.1,0.5-0.2,1.1-0.2,1.6c0,0.3,0.2,0.4,0.5,0.4c0.2,0,0.4,0.1,0.6,0.1
			c0.1,0,0.2,0.1,0.2,0.1c0.1,0,0.2,0,0.1-0.1c0-0.1-0.1-0.2-0.1-0.3c-0.1-0.6-0.1-1.2,0.3-1.8c0-0.1,0.1-0.1,0.1-0.2
			c0.1-0.2,0.2-0.3,0.3-0.4c-0.1,0.1-0.1,0.3-0.2,0.4c-0.1,0.2-0.3,0.5-0.3,0.7c-0.1,0.3-0.1,0.6-0.1,0.9c0,0.2,0,0.4,0.1,0.6
			c0,0.1,0,0.1,0.1,0.1c0.3,0.1,0.6,0.1,1,0.1c-0.1-0.2-0.1-0.3-0.2-0.5c-0.1-0.3-0.1-0.6,0-0.9c0.2-0.4,0.3-0.8,0.4-1.2
			c0.2-0.4,0.4-0.8,0.8-1.2c0.1-0.1,0.3-0.2,0.5-0.2c0,0-0.1,0.1-0.1,0.1c-0.6,0.3-0.9,0.8-1.1,1.4c-0.2,0.4-0.3,0.8-0.4,1.2
			c-0.2,0.4-0.1,0.8,0.1,1.1c0.1,0.1,0.1,0.2,0.3,0.2c0.1,0,0.3,0.1,0.4,0.2c0,0,0.1,0.1,0.2,0c-0.2-0.2-0.1-0.4-0.1-0.6
			c0.1-0.5,0.2-0.9,0.4-1.3c0.2-0.3,0.4-0.7,0.6-0.9c0.2-0.3,0.5-0.5,0.8-0.7c0.3-0.2,0.5-0.1,0.8,0c-0.1,0.1-0.2,0.1-0.3,0.1
			c-0.1,0-0.3,0-0.4,0.1c-0.6,0.3-1,0.8-1.4,1.4c-0.3,0.5-0.5,1-0.5,1.6c0,0.1,0,0.2,0,0.3c0,0.1,0.1,0.2,0.2,0.1c0.1,0,0.1,0,0.1,0
			c0.1,0.1,0.2,0.1,0.3,0c0.1-0.1,0.2-0.1,0.3-0.1c0.2-0.1,0.3-0.2,0.3-0.4c-0.2,0-0.5,0-0.7,0.1c0-0.1,0.1-0.1,0.1-0.1
			c0.2,0,0.3-0.1,0.4-0.1c0.1,0,0.2,0,0.2-0.1c0-0.1,0-0.1-0.1-0.2c-0.1-0.1-0.1-0.1-0.2-0.1c0,0-0.1-0.1,0-0.1
			c0.1,0.1,0.2,0.1,0.3,0.2c0.1,0,0.1,0.1,0.2,0c0.1-0.1,0.1-0.1,0-0.2c0,0-0.1-0.1-0.1-0.1c0-0.1-0.1-0.1,0-0.2
			c0,0.1,0.1,0.2,0.2,0.3c0.1,0,0.1,0,0.2,0c0.1-0.2,0.2-0.4,0.2-0.6c0-0.4,0.1-0.7,0.3-1c0,0,0.1-0.1,0.1,0c0,0.1,0,0.1-0.1,0.1
			c-0.1,0.2-0.3,0.5-0.3,0.8c0,0.1,0,0.1,0.1,0.2c0.1,0,0.2,0,0.2,0c0.1-0.1,0.1-0.2,0.2-0.3c0-0.2,0.1-0.3,0.2-0.5
			c0-0.1,0.1-0.1,0.2-0.1c0.1,0,0.2,0.1,0.3,0c0,0,0-0.1,0-0.1c-0.1-0.4-0.3-0.7-0.5-1c-0.1-0.1-0.2-0.2-0.4-0.2
			c-0.4,0-0.8,0.1-1.2,0.3c-0.1,0-0.1,0.1-0.2,0.1c0,0-0.1,0.1-0.2,0.1c0.1-0.3,0.3-0.4,0.6-0.5c0.3-0.1,0.7-0.2,1.1-0.1
			c0-0.1,0-0.2,0-0.2c-0.1-0.3-0.2-0.6-0.2-0.9c0-0.1-0.1-0.3-0.1-0.4c0-0.1-0.1-0.2-0.3-0.3c-0.2-0.1-0.5-0.1-0.7,0
			c-0.5,0.1-0.9,0.3-1.4,0.5c-0.4,0.1-0.8,0.4-1.1,0.7c-0.1,0.1-0.2,0.3-0.3,0.4c-0.1,0.1-0.2,0.2-0.3,0.3c-0.2,0.3-0.5,0.6-0.8,0.9
			c0-0.2,0.2-0.3,0.3-0.4s0.3-0.3,0.4-0.4c0.1-0.1,0.2-0.2,0.3-0.4c0.1-0.1,0.2-0.2,0.2-0.3c0.1-0.1,0.2-0.3,0.3-0.4
			c0.3-0.3,0.8-0.6,1.2-0.7c0.2-0.1,0.5-0.1,0.7-0.2c0.4-0.1,0.8-0.2,1.2-0.1c0,0,0.1,0,0.2,0c0,0,0,0,0,0c0-0.1,0-0.1-0.1-0.1
			c-0.3-0.4-0.6-0.8-0.9-1.2c-0.1-0.1-0.2-0.2-0.4-0.2c-0.2,0-0.4,0.1-0.6,0.1c-0.3,0.1-0.6,0.4-0.8,0.6c-0.1,0.1-0.2,0.1-0.3,0.2
			c0.2-0.2,0.3-0.4,0.5-0.5c0.3-0.3,0.7-0.5,1.2-0.6c0.1,0,0.1,0,0.2-0.1c-0.2-0.3-0.3-0.7-0.7-0.9c-0.2-0.1-0.5-0.2-0.7-0.1
			c-0.5,0.1-1,0.3-1.5,0.6c-0.2,0.2-0.4,0.3-0.6,0.6c0,0.1-0.1,0.1-0.1,0.1c0.1-0.2,0.2-0.5,0.4-0.6c0.3-0.3,0.7-0.5,1.1-0.6
			c0.3-0.1,0.6-0.2,0.9-0.2c0.1,0,0.1,0,0.2,0c-0.2-0.1-0.3-0.4-0.4-0.5c-0.2-0.2-0.3-0.3-0.4-0.5c-0.1-0.2-0.3-0.3-0.5-0.5
			c-0.3-0.2-0.6-0.3-0.9-0.3c-0.3,0-0.6,0.2-0.8,0.4c-0.4,0.4-0.7,0.8-0.9,1.2c-0.1,0.1-0.2,0.3-0.3,0.4c0-0.2,0.2-0.4,0.2-0.5
			c0.2-0.4,0.5-0.8,0.8-1.2c0.3-0.4,0.7-0.6,1.3-0.4c0,0,0.1,0,0.1,0c0-0.1,0-0.1-0.1-0.1c-0.4-0.2-0.5-0.6-0.7-0.9
			c-0.1-0.3-0.2-0.5-0.4-0.7c-0.2-0.1-0.3-0.3-0.4-0.5c-0.2-0.3-0.4-0.5-0.7-0.7c-0.2-0.1-0.4-0.3-0.6-0.5c-0.1-0.1-0.3-0.2-0.5-0.2
			c-0.2,0-0.3,0-0.4-0.2c-0.3-0.3-0.6-0.4-1-0.3c-0.3,0.1-0.7,0.2-1,0.3c-0.3,0.1-0.5,0.1-0.8,0.2c0,0-0.1,0-0.1,0c0,0,0-0.1,0-0.1
			c-0.3,0.1-0.6,0.1-0.9,0.1c0,0-0.1,0-0.1,0c-0.4,0-0.8,0.1-1.2,0.1c-0.1,0-0.2,0-0.3,0.1c-0.4,0.1-0.8,0.2-1.1,0.4
			c0-0.1,0.1-0.2,0.2-0.2c0.3-0.1,0.6-0.3,0.9-0.3c0.5-0.1,0.9-0.1,1.4-0.2c0.5,0,1,0,1.4-0.2c0.2-0.1,0.3-0.1,0.5-0.3
			c-0.1-0.1-0.2-0.1-0.3-0.2c0,0-0.1-0.1-0.1,0c-0.2,0.1-0.3,0-0.5,0c-0.2-0.1-0.4-0.1-0.7-0.1c-0.2,0-0.4,0-0.7,0
			c-0.2,0-0.3,0-0.5,0.1c-0.2,0.1-0.4,0.3-0.6,0.3c-0.2,0.1-0.4,0.1-0.5,0.3c-0.1,0.1-0.1,0.1-0.2,0c0.2-0.2,0.4-0.3,0.6-0.4
			c0.2-0.1,0.3-0.1,0.4-0.2c0.2-0.1,0.4-0.2,0.6-0.2c0.1,0,0.2,0,0.3,0c0.4,0,0.8,0.1,1.2,0.2c0.1,0,0.2,0.1,0.3,0
			c-0.4-0.3-0.7-0.5-1.1-0.7c-0.2-0.1-0.3-0.1-0.5-0.2c-0.1-0.1-0.3-0.1-0.4-0.2c-0.2,0-0.3-0.1-0.5-0.2c-0.1-0.1-0.2-0.2-0.3-0.3
			c-0.2-0.2-0.4-0.4-0.5-0.7c-0.1-0.4-0.4-0.5-0.8-0.5c-0.2,0-0.4,0.1-0.7,0C10.9,7.4,10.9,7.4,10.8,7.4z M5.6,4.8
			C5.3,4.5,4.8,4.3,4.5,4C4.5,4,4.5,4,4.5,4c0.1,0.3,0.1,0.7,0.2,1c0,0.2,0.1,0.4,0.3,0.6c0,0,0.1-0.1,0.1-0.1
			c0.2-0.2,0.5-0.4,0.8-0.4c0.1,0,0.1,0,0.2,0c0.2,0,0.3-0.1,0.3,0.2c0,0,0,0,0,0c0,0,0.1,0,0,0.1c0,0-0.1,0-0.1,0
			c-0.3,0-0.6,0-0.9,0.2C5.3,5.8,5.2,5.9,5.3,6c0,0.1,0,0.2,0.1,0.3c0.1,0,0.1-0.1,0.2-0.1c0.3-0.1,0.7-0.1,1-0.1c0,0,0.1,0,0.1,0
			c0,0.1,0.1,0.1,0.2,0C7,6.1,7.2,6,7.4,6c0,0,0.1,0,0.1-0.1c0-0.1-0.1-0.1-0.2-0.1C6.9,5.6,6.5,5.3,6.1,5.1C6,5,5.9,5,5.8,5
			C5.6,5,5.4,5,5.1,5.1C5.2,4.8,5.4,4.9,5.6,4.8z M12.8,16.7c0.4-0.7,0.8-1.3,0.9-2C13.2,15.3,13,16,12.8,16.7z M26.8,24.8
			c-0.2,0.1-0.4,0.1-0.6,0.2c-0.1,0-0.2,0.1-0.3,0.2c-0.1,0.1-0.1,0.2-0.1,0.3c0.1,0.1,0.3,0.1,0.4,0c0.1-0.1,0.2-0.2,0.3-0.2
			c0,0,0.1,0,0.1-0.1C26.7,25.1,26.8,25,26.8,24.8z M25.9,24.9c0.2,0,0.3-0.1,0.4-0.1c0.2-0.1,0.4-0.1,0.5-0.1
			c0.1,0,0.1-0.1,0.2-0.1c0-0.1-0.1-0.1-0.1-0.1c-0.1,0-0.2-0.1-0.3-0.1c-0.1,0-0.2,0-0.2,0c-0.1,0.1-0.2,0.3-0.4,0.4
			C25.9,24.8,25.9,24.8,25.9,24.9z M27.1,23.9c-0.2-0.1-0.2-0.1-0.4,0C26.7,24,26.6,24,26.5,24c0,0-0.1,0-0.1,0.1
			c0,0.1,0,0.1,0.1,0.1c0.2,0,0.4,0.1,0.5,0.2c0.1,0,0.1,0,0.2,0C27.3,24.2,27.3,24.1,27.1,23.9z M27.2,23
			C27.2,23.1,27.1,23.1,27.2,23c-0.1,0.1-0.1,0.2-0.2,0.2c-0.1,0.4-0.1,0.4,0.2,0.6c0,0,0,0,0.1,0C27.4,23.6,27.2,23.4,27.2,23z
			 M18.4,10.5c0.2,0.3,0.4,0.4,0.6,0.3C18.9,10.6,18.7,10.5,18.4,10.5z M17.2,10.4c-0.4,0.1-0.7,0.1-1,0.3c0.2-0.1,0.5-0.1,0.7-0.1
			C17,10.6,17.1,10.5,17.2,10.4z M27.5,23.5c0.1-0.1,0.1-0.2,0.1-0.3c0,0,0-0.1-0.1-0.1c-0.1,0-0.1,0.1-0.1,0.1
			C27.4,23.3,27.4,23.3,27.5,23.5z"/>
		<path class="st1" d="M12.2,15.6c0-0.3,0.2-0.6,0.3-0.9c0.1-0.2,0.3-0.4,0.4-0.7c0.2-0.3,0.4-0.5,0.6-0.8c0.1-0.1,0.2-0.1,0.3-0.2
			c0.5-0.2,0.8-0.6,1.2-0.9c0.1,0,0.1-0.1,0.2-0.1c0,0.1-0.2,0.1-0.2,0.3c0.1,0,0.2-0.1,0.2-0.1c0.3-0.2,0.7-0.5,1-0.8
			c0.2-0.2,0.5-0.4,0.7-0.6c0.2-0.2,0.5-0.2,0.7-0.3c0.1,0,0.1,0,0.2,0c0,0,0.1,0,0.1,0.1c0,0,0,0-0.1,0c-0.4,0-0.7,0.1-0.9,0.4
			c-0.3,0.3-0.6,0.6-1,0.8c-0.3,0.2-0.5,0.4-0.8,0.6c-0.3,0.2-0.6,0.5-0.8,0.7c-0.3,0.3-0.6,0.6-1,0.8c-0.5,0.2-0.7,0.6-0.8,1
			C12.4,15.3,12.3,15.5,12.2,15.6L12.2,15.6z M13.1,13.9c0.2,0,0.4-0.1,0.5-0.2c0.3-0.2,0.6-0.6,0.9-0.9c-0.2,0.1-0.4,0.3-0.6,0.4
			C13.6,13.4,13.4,13.6,13.1,13.9z"/>
		<path class="st1" d="M10.5,16.3c0-0.3,0-0.6,0.1-0.9c0-0.2,0.1-0.5,0.2-0.7c0.1-0.2,0.2-0.4,0.3-0.6c0.3-0.5,0.8-0.9,1-1.4
			c0.1-0.2,0.3-0.4,0.5-0.6c0.3-0.2,0.6-0.4,0.9-0.6c0.2-0.1,0.3-0.1,0.5,0c0,0,0,0,0,0c-0.3,0-0.5,0.1-0.7,0.2
			c-0.3,0.2-0.6,0.4-0.9,0.7c-0.1,0.1-0.2,0.2-0.2,0.3c-0.2,0.3-0.4,0.6-0.6,0.9c-0.3,0.4-0.6,0.7-0.7,1.2c-0.1,0.4-0.2,0.9-0.2,1.3
			C10.5,16.2,10.5,16.3,10.5,16.3z"/>
		<path class="st1" d="M15.7,13.3c0.2-0.3,0.4-0.6,0.8-0.7c0.2-0.1,0.5-0.3,0.7-0.4c0.2-0.1,0.3-0.1,0.5-0.2
			c0.2-0.1,0.4-0.1,0.7-0.1c0.3,0,0.5,0.1,0.8,0.1c0.2,0,0.5,0.1,0.7,0.2c0.2,0.1,0.4,0.1,0.5,0.2c0,0,0.1,0,0.1,0.1s0.1,0.1,0,0.1
			c0,0-0.1,0-0.1,0c-0.3-0.1-0.6-0.2-0.9-0.3c-0.2-0.1-0.4-0.1-0.6-0.1c-0.2,0-0.5,0-0.7-0.1c-0.3-0.1-0.5,0-0.7,0.1
			c-0.1,0.1-0.2,0.1-0.3,0.1c-0.2,0.1-0.4,0.2-0.6,0.3C16.4,12.8,16.1,13.1,15.7,13.3z"/>
		<path class="st1" d="M17.7,17c0,0.1-0.1,0.1-0.1,0.1c-0.3,0.7-0.6,1.3-0.8,2c-0.1,0.3-0.2,0.7-0.3,1c-0.1,0.4-0.1,0.7,0,1
			c0.1,0.4,0.3,0.9,0.4,1.3c0,0,0,0-0.1,0c-0.2-0.7-0.5-1.3-0.5-2c0-0.3,0.1-0.6,0.2-0.9c0.1-0.5,0.3-0.9,0.5-1.4
			c0.2-0.4,0.3-0.8,0.6-1.2C17.6,17.1,17.6,17,17.7,17z"/>
		<path class="st1" d="M16.8,12.9c0,0-0.1,0.1-0.1,0.1c-0.4,0.4-0.8,0.9-1.1,1.4c-0.3,0.4-0.5,0.8-0.8,1.2s-0.5,0.8-0.6,1.3
			c0,0.1,0,0.3-0.1,0.5C14,17.3,14,17.2,14,17.1c0-0.4,0.2-0.7,0.4-1c0.3-0.6,0.7-1.1,1.1-1.7c0.1-0.2,0.2-0.3,0.3-0.5
			c0.2-0.3,0.4-0.5,0.7-0.7C16.6,13,16.7,13,16.8,12.9C16.8,12.9,16.8,12.9,16.8,12.9z"/>
		<path class="st1" d="M12.9,18.9c-0.1-0.4-0.1-0.9,0.1-1.3c0.2-0.4,0.4-0.7,0.7-1.1c0.2-0.2,0.3-0.4,0.4-0.7c0.3-0.5,0.7-1,1-1.5
			c0.1-0.1,0.2-0.3,0.4-0.4c0,0.1-0.1,0.2-0.1,0.2c-0.3,0.4-0.5,0.8-0.7,1.1c-0.4,0.5-0.6,1-1,1.5c-0.2,0.3-0.5,0.7-0.6,1
			c-0.1,0.2-0.1,0.5-0.1,0.7C12.9,18.7,12.9,18.8,12.9,18.9z"/>
		<path class="st1" d="M21.2,15.8c-0.3,0.2-0.5,0.4-0.6,0.7c-0.1,0.1-0.2,0.2-0.2,0.3c-0.1,0.1-0.2,0.2-0.3,0.3
			c-0.3,0.4-0.8,0.7-1.2,1c-0.1,0.1-0.2,0.2-0.3,0.3c0,0.1,0,0.1-0.1,0.1c0.1-0.3,0.2-0.4,0.4-0.6c0.7-0.4,1.1-0.9,1.7-1.5
			c0-0.1,0.1-0.1,0.1-0.2C20.8,16.1,21,15.9,21.2,15.8z"/>
		<path class="st1" d="M19.8,14.7c-0.1,0.1-0.2,0.1-0.3,0.1c-0.1,0-0.2,0-0.3,0.1c-0.5,0.2-0.9,0.5-1.2,0.8
			c-0.1,0.1-0.3,0.2-0.5,0.3c-0.2,0.1-0.4,0.3-0.5,0.4c0-0.2,0.1-0.4,0.3-0.4c0.4-0.2,0.7-0.5,1-0.8C18.8,14.9,19.2,14.6,19.8,14.7z
			"/>
		<path class="st1" d="M25.2,23.6c0-0.1,0-0.2,0-0.3c0.1-0.2,0.2-0.4,0.5-0.6c0,0,0.1-0.1,0.1-0.1c0.1-0.2,0.4-0.3,0.6-0.5
			c0.2-0.1,0.3-0.1,0.5-0.1c0.1,0,0.1,0,0.1,0.1c0,0.1-0.1,0.1-0.1,0.1c-0.3,0-0.6,0.1-0.8,0.3C25.7,22.9,25.4,23.2,25.2,23.6z"/>
		<path class="st1" d="M15.3,16.9c-0.3,0.5-0.5,1-0.5,1.5c-0.1,0.5-0.2,1-0.1,1.6c-0.1-0.1-0.1-0.2-0.1-0.3c0-0.3,0-0.5,0.1-0.8
			c0.1-0.4,0.1-0.7,0.2-1c0.1-0.3,0.2-0.6,0.4-0.8C15.2,17,15.2,16.9,15.3,16.9z"/>
		<path class="st1" d="M9,9.8c0.1-0.1,0.2-0.1,0.3-0.2c0.2-0.1,0.3-0.2,0.5-0.3c0.5-0.2,0.9-0.5,1.4-0.6c0.2,0,0.2,0,0.3,0.1
			c-0.2,0-0.4,0.1-0.6,0.1C10.5,9,10.1,9.2,9.8,9.5C9.5,9.6,9.3,9.8,9,9.8z"/>
		<path class="st1" d="M10.8,7.4c0.3,0,0.6,0.2,0.9,0.4c0.2,0.1,0.4,0.3,0.6,0.4c0.1,0.1,0.2,0.1,0.2,0.3c-0.3-0.2-0.6-0.4-0.9-0.6
			c-0.3-0.2-0.6-0.3-0.9-0.4C10.7,7.4,10.8,7.4,10.8,7.4L10.8,7.4z"/>
		<path class="st1" d="M17.9,14c0,0.1-0.1,0.1-0.2,0.2c-0.3,0.2-0.5,0.4-0.7,0.7c-0.3,0.4-0.5,0.7-0.8,1.1c0-0.2,0.1-0.3,0.1-0.4
			c0.1-0.1,0.2-0.3,0.3-0.4c0.2-0.2,0.3-0.4,0.4-0.6C17.3,14.3,17.6,14.2,17.9,14z"/>
		<path class="st1" d="M13,10c-0.6,0.1-1.3,0.3-1.9,0.6C11.2,10.3,12.4,10,13,10z"/>
		<path class="st1" d="M12.2,15.6c0,0.1,0,0.1,0,0.2C12.1,15.7,12.1,15.7,12.2,15.6L12.2,15.6z"/>
	</g>
</g>
</svg>
