<?xml version="1.0" encoding="utf-8"?>
<!-- Generator: Adobe Illustrator 21.0.0, SVG Export Plug-In . SVG Version: 6.00 Build 0)  -->
<svg version="1.1" id="Layer_1" xmlns="http://www.w3.org/2000/svg" xmlns:xlink="http://www.w3.org/1999/xlink" x="0px" y="0px"
	 viewBox="0 0 30 22.1" style="enable-background:new 0 0 30 22.1;" xml:space="preserve">
<style type="text/css">
	.st0{fill:#FFFFFF;}
	.st1{fill:#972C35;}
</style>
<g>
	<path class="st0" d="M2.3,4.3c0,0.1,0,0.2,0,0.3c0-0.1,0-0.3,0-0.5c0,0,0-0.1-0.1-0.1c0,0,0-0.1,0-0.1c0,0-0.1,0-0.1-0.1
		C2,3.9,2,3.8,2.1,3.7c0.1-0.1,0.1-0.1,0-0.2c0-0.1-0.1-0.1,0-0.2c0-0.1,0-0.2-0.1-0.3c0,0-0.1,0-0.1,0c0.2,0,0.3,0.1,0.3,0.3
		c0,0.1,0,0.1,0,0.2c0,0,0-0.1,0-0.1c0-0.2,0.1-0.4,0.2-0.5c0.1-0.1,0.1-0.2,0.2-0.3C2.7,2.3,2.8,2.1,3,2c0.1,0,0.1-0.1,0.2-0.2
		c0.1-0.1,0.1-0.1,0-0.2C3.1,1.6,3.1,1.5,2.9,1.4c0.1,0,0.1,0,0.2,0c0.1,0.1,0.2,0.2,0.3,0.4c0.2,0,0.4,0,0.5-0.2C4,1.6,4,1.5,4,1.4
		c0-0.1,0.1-0.2,0.2-0.3c0.2-0.2,0.4-0.4,0.6-0.5c0.2-0.1,0.3-0.1,0.5-0.1c0,0,0,0,0,0c0,0-0.1,0-0.1,0c-0.1,0-0.3,0-0.4,0.1
		C4.7,0.8,4.5,0.9,4.4,1.1C4.3,1.2,4.1,1.4,4.1,1.6c0,0,0,0,0.1,0c0.3,0,0.5,0,0.8,0.1c0.1,0,0.3,0,0.4,0c0.1,0,0.2,0,0.2-0.1
		c0.3-0.1,0.6-0.2,0.9-0.4c0,0,0-0.1,0.1,0c0,0.1,0,0.1-0.1,0.1C6.3,1.4,6.3,1.5,6.2,1.5C6,1.6,5.8,1.7,5.6,1.7
		C5.3,1.8,5,1.8,4.7,1.7c-0.1,0-0.1,0-0.2,0c0.1,0,0.2,0.1,0.2,0.1c0.4,0,0.9,0.2,1.3,0.4C6,2.3,6.1,2.3,6.2,2.3
		c0.2,0.1,0.5,0.2,0.7,0.3c0,0,0.1,0,0.1,0c0.2,0.1,0.4,0.1,0.5,0.2C7.8,3,8.1,3.2,8.4,3.4c0.1,0.1,0.3,0.2,0.4,0.3
		C9,3.8,9.2,3.9,9.3,4c0.2,0.1,0.3,0.3,0.5,0.5c0.1,0.1,0.3,0.2,0.4,0.4c0.1,0.1,0.2,0.2,0.3,0.4c0.1,0.1,0.2,0.2,0.3,0.3
		c0.2,0.2,0.3,0.3,0.5,0.4C11.5,6,11.8,6.2,12,6.3c0.2,0.1,0.3,0.1,0.5,0.2c0.1,0.1,0.2,0.1,0.3,0.1c0.3,0.1,0.7,0.2,1,0.4
		c0.2,0.1,0.4,0.2,0.6,0.3c0.3,0.2,0.5,0.3,0.8,0.5c0,0,0.1,0.1,0.1,0.1C15.4,8,15.7,8.2,16,8.3c0.4,0.2,2.1,0.9,2.3,1.1
		c0.2,0.2,1.8,1.6,1.8,1.7c0.2,0.2,0.3,0.4,0.5,0.5c0.1,0,0.1,0.1,0.1,0.1c0.1,0.2,0.2,0.3,0.3,0.4c0.1,0.1,0.2,0.2,0.4,0.3
		c0.1,0.1,0.3,0.2,0.3,0.4c0,0.1,0.1,0.1,0.1,0.1c0.3,0.2,0.6,0.5,0.8,0.8c0,0.1,0.1,0.1,0.2,0.2c0.1,0,0.2,0.1,0.2,0.2c0,0,0,0,0,0
		c0.4,0.2,0.6,0.5,0.8,0.8c0.1,0.1,0.2,0.2,0.2,0.3c0.1,0.2,0.2,0.3,0.3,0.5c0.2,0.2,0.3,0.5,0.4,0.7c0.2,0.2,0.3,0.5,0.5,0.7
		c0.1,0.1,0.1,0.2,0.2,0.2c0.2,0.2,0.3,0.4,0.5,0.6c0.2,0.2,0.4,0.5,0.6,0.7c0.1,0.2,0.3,0.3,0.4,0.5c0.2,0.3,0.4,0.4,0.7,0.4
		c0.1,0,0.2,0,0.3,0.1c0.2,0.1,0.4,0.1,0.7,0.1c0.1,0,0.2,0,0.4,0c0,0,0.1,0,0.1,0c0,0,0,0-0.1,0c-0.2,0-0.3,0-0.5,0
		c-0.2,0-0.4-0.1-0.6-0.1c-0.1,0-0.1,0-0.2,0c-0.2,0-0.3,0-0.5-0.1c0,0-0.1-0.1-0.1-0.1c0,0.1,0,0.2,0.1,0.3
		c0.1,0.1,0.1,0.1,0.2,0.2c0,0.1,0.1,0.1,0.2,0.2c0.2,0.2,0.4,0.3,0.7,0.3c0.2,0,0.3,0,0.5,0c0,0,0.1,0,0.1,0
		c-0.6,0.1-1.1,0-1.6-0.5c0,0.1,0,0.1,0,0.2c0,0,0,0,0,0.1c0,0.1,0.1,0.2,0.2,0.3c0.5,0.3,0.9,0.5,1.4,0.7c0,0,0.1,0,0.1,0.1
		c-0.1,0-0.1,0-0.1,0c-0.4-0.2-0.8-0.3-1.2-0.6c-0.1,0-0.1-0.1-0.2-0.1c0.1,0.2,0.2,0.3,0.3,0.4c0.3,0.4,0.7,0.6,1.1,0.7
		c0,0,0,0-0.1,0c-0.3-0.1-0.6-0.2-0.8-0.4c-0.3-0.2-0.5-0.5-0.7-0.8c-0.1-0.1-0.1-0.2-0.2-0.2c-0.2-0.1-0.4-0.3-0.6-0.3
		c0,0-0.1,0-0.1,0c0,0,0,0,0,0.1c0.2,0.2,0.4,0.4,0.6,0.6c0.1,0.1,0.3,0.3,0.4,0.5c0,0.1,0.1,0.2,0.1,0.2c0,0,0,0,0,0
		c-0.1-0.3-0.3-0.5-0.5-0.6c-0.3-0.2-0.5-0.5-0.7-0.8c0-0.1-0.1-0.1-0.2-0.1c-0.2,0-0.3-0.1-0.5-0.2c0,0-0.1,0-0.1,0
		c0.1,0.1,0.2,0.2,0.3,0.3c0.2,0.2,0.5,0.4,0.7,0.7c0,0.1,0.1,0.2,0.2,0.2c0,0,0.1,0,0.1,0.1c-0.1-0.1-0.3-0.1-0.3-0.3
		c-0.1-0.2-0.2-0.4-0.4-0.5c-0.1-0.1-0.3-0.2-0.4-0.4c-0.1-0.1-0.2-0.2-0.3-0.2c-0.1-0.1-0.2-0.1-0.3-0.2c-0.1-0.2-0.3-0.2-0.4-0.3
		c-0.1-0.1-0.3-0.2-0.5-0.2c-0.3-0.1-0.6-0.2-0.8-0.3c0,0-0.1,0-0.1-0.1c-0.3-0.3-0.7-0.5-1.1-0.7c-0.3-0.1-0.6-0.2-0.9-0.3
		c-0.2-0.1-0.4-0.1-0.6-0.2c-0.2-0.1-0.4-0.1-0.6-0.1c-0.1,0-0.2,0-0.4-0.1C20,17,19.8,17,19.6,16.9c-0.3-0.1-0.7-0.1-1-0.2
		c-0.2,0-0.3-0.1-0.5-0.2c-0.2-0.1-0.4-0.2-0.6-0.3c-0.1,0-0.1,0-0.2-0.1c-0.1-0.1-0.2-0.1-0.4-0.2c-0.1,0-0.1,0-0.2-0.1
		c-0.1-0.1-0.2-0.1-0.3-0.2c-0.1-0.1-0.2-0.2-0.3-0.3c-0.2-0.2-0.3-0.4-0.5-0.5c-0.1,0-0.1-0.1-0.2-0.1c-0.1,0-0.2-0.1-0.3-0.1
		c-0.1,0-0.2,0-0.2,0c-0.2,0-0.3-0.1-0.4-0.2c-0.1-0.1-0.1-0.1-0.2-0.1c-0.1,0-0.2-0.1-0.3-0.1c-0.1,0-0.1,0-0.1-0.1
		c-0.1-0.1-0.2-0.1-0.2-0.1c-0.2-0.1-0.5-0.2-0.7-0.3c-0.2-0.1-0.4-0.2-0.5-0.3c-0.1-0.1-0.2-0.1-0.3-0.1c-0.1,0-0.3-0.1-0.4-0.2
		c-0.2-0.1-0.8,0-1.1-0.3c-0.1-0.1-0.8-0.7-1-0.8c-0.2-0.1-0.3-0.2-0.5-0.3c-0.2-0.1-0.4-0.2-0.6-0.4c-0.3-0.2-0.5-0.4-0.8-0.6
		c0,0-0.1-0.1-0.2-0.1c-0.1,0-0.1-0.1-0.2-0.2c-0.1-0.1-0.1-0.1-0.2-0.2C7.2,10.3,7.1,10.1,7,10C6.9,9.9,6.8,9.7,6.7,9.6
		C6.6,9.5,6.4,9.4,6.3,9.3C6.3,9.3,6.2,9.2,6.2,9.2C6.1,9.1,5.9,9.1,5.9,9C5.7,8.8,5.5,8.7,5.3,8.6C5.1,8.5,4.9,8.4,4.7,8.2
		C4.6,8.1,4.5,8.1,4.4,8C4.3,7.9,4.1,7.9,4,7.8C3.8,7.6,3.5,7.3,3.2,7.1C3.2,7,3.2,7,3.1,7C3,6.7,2.9,6.5,2.7,6.3
		c0-0.1-0.1-0.1-0.1-0.2c0-0.2-0.1-0.4-0.2-0.7c0-0.1-0.1-0.2-0.1-0.3C2.2,5.2,2.2,5.3,2.1,5.4C2,5.4,2,5.5,2,5.6c0,0,0,0.1,0,0.1
		C2,6,2,6.2,2,6.5c0,0.1,0,0.2,0,0.4C2,6.9,2,7,2,7.1c0-0.2,0-0.5,0-0.7c0,0,0-0.1,0-0.2c0-0.2,0-0.4,0-0.6c0-0.1,0-0.2,0.1-0.3
		c0.1-0.1,0.2-0.2,0.2-0.2C2.3,5,2.3,5,2.3,4.9c-0.1-0.2,0-0.5,0-0.7c0,0,0,0,0,0C2.3,4.2,2.3,4.2,2.3,4.3z"/>
	<g>
		<path class="st1" d="M2.3,4.3c0,0.1,0,0.2,0,0.3c0-0.1,0-0.3,0-0.5c0,0,0-0.1-0.1-0.1c0,0,0-0.1,0-0.1c0,0-0.1,0-0.1-0.1
			C2,3.9,2,3.8,2.1,3.7c0.1-0.1,0.1-0.1,0-0.2c0-0.1-0.1-0.1,0-0.2c0-0.1,0-0.2-0.1-0.3c0,0-0.1,0-0.1,0c0.2,0,0.3,0.1,0.3,0.3
			c0,0.1,0,0.1,0,0.2c0,0,0-0.1,0-0.1c0-0.2,0.1-0.4,0.2-0.5c0.1-0.1,0.1-0.2,0.2-0.3C2.7,2.3,2.8,2.1,3,2c0.1,0,0.1-0.1,0.2-0.2
			c0.1-0.1,0.1-0.1,0-0.2C3.1,1.6,3.1,1.5,2.9,1.4c0.1,0,0.1,0,0.2,0c0.1,0.1,0.2,0.2,0.3,0.4c0.2,0,0.4,0,0.5-0.2
			C4,1.6,4,1.5,4,1.4c0-0.1,0.1-0.2,0.2-0.3c0.2-0.2,0.4-0.4,0.6-0.5c0.2-0.1,0.3-0.1,0.5-0.1c0,0,0,0,0,0c0,0-0.1,0-0.1,0
			c-0.1,0-0.3,0-0.4,0.1C4.7,0.8,4.5,0.9,4.4,1.1C4.3,1.2,4.1,1.4,4.1,1.6c0,0,0,0,0.1,0c0.3,0,0.5,0,0.8,0.1c0.1,0,0.3,0,0.4,0
			c0.1,0,0.2,0,0.2-0.1c0.3-0.1,0.6-0.2,0.9-0.4c0,0,0-0.1,0.1,0c0,0.1,0,0.1-0.1,0.1C6.3,1.4,6.3,1.5,6.2,1.5
			C6,1.6,5.8,1.7,5.6,1.7C5.3,1.8,5,1.8,4.7,1.7c-0.1,0-0.1,0-0.2,0c0.1,0,0.2,0.1,0.2,0.1c0.4,0,0.9,0.2,1.3,0.4
			C6,2.3,6.1,2.3,6.2,2.3c0.2,0.1,0.5,0.2,0.7,0.3c0,0,0.1,0,0.1,0c0.2,0.1,0.4,0.1,0.5,0.2C7.8,3,8.1,3.2,8.4,3.4
			c0.1,0.1,0.3,0.2,0.4,0.3C9,3.8,9.2,3.9,9.3,4c0.2,0.1,0.3,0.3,0.5,0.5c0.1,0.1,0.3,0.2,0.4,0.4c0.1,0.1,0.2,0.2,0.3,0.4
			c0.1,0.1,0.2,0.2,0.3,0.3c0.2,0.2,0.3,0.3,0.5,0.4C11.5,6,11.8,6.2,12,6.3c0.2,0.1,0.3,0.1,0.5,0.2c0.1,0.1,0.2,0.1,0.3,0.1
			c0.3,0.1,0.7,0.2,1,0.4c0.2,0.1,0.4,0.2,0.6,0.3c0.3,0.2,0.5,0.3,0.8,0.5c0,0,0.1,0.1,0.1,0.1C15.4,8,15.7,8.2,16,8.3
			c0.4,0.2,2.1,0.9,2.3,1.1c0.2,0.2,1.8,1.6,1.8,1.7c0.2,0.2,0.3,0.4,0.5,0.5c0.1,0,0.1,0.1,0.1,0.1c0.1,0.2,0.2,0.3,0.3,0.4
			c0.1,0.1,0.2,0.2,0.4,0.3c0.1,0.1,0.3,0.2,0.3,0.4c0,0.1,0.1,0.1,0.1,0.1c0.3,0.2,0.6,0.5,0.8,0.8c0,0.1,0.1,0.1,0.2,0.2
			c0.1,0,0.2,0.1,0.2,0.2c0,0,0,0,0,0c0.4,0.2,0.6,0.5,0.8,0.8c0.1,0.1,0.2,0.2,0.2,0.3c0.1,0.2,0.2,0.3,0.3,0.5
			c0.2,0.2,0.3,0.5,0.4,0.7c0.2,0.2,0.3,0.5,0.5,0.7c0.1,0.1,0.1,0.2,0.2,0.2c0.2,0.2,0.3,0.4,0.5,0.6c0.2,0.2,0.4,0.5,0.6,0.7
			c0.1,0.2,0.3,0.3,0.4,0.5c0.2,0.3,0.4,0.4,0.7,0.4c0.1,0,0.2,0,0.3,0.1c0.2,0.1,0.4,0.1,0.7,0.1c0.1,0,0.2,0,0.4,0
			c0,0,0.1,0,0.1,0c0,0,0,0-0.1,0c-0.2,0-0.3,0-0.5,0c-0.2,0-0.4-0.1-0.6-0.1c-0.1,0-0.1,0-0.2,0c-0.2,0-0.3,0-0.5-0.1
			c0,0-0.1-0.1-0.1-0.1c0,0.1,0,0.2,0.1,0.3c0.1,0.1,0.1,0.1,0.2,0.2c0,0.1,0.1,0.1,0.2,0.2c0.2,0.2,0.4,0.3,0.7,0.3
			c0.2,0,0.3,0,0.5,0c0,0,0.1,0,0.1,0c-0.6,0.1-1.1,0-1.6-0.5c0,0.1,0,0.1,0,0.2c0,0,0,0,0,0.1c0,0.1,0.1,0.2,0.2,0.3
			c0.5,0.3,0.9,0.5,1.4,0.7c0,0,0.1,0,0.1,0.1c-0.1,0-0.1,0-0.1,0c-0.4-0.2-0.8-0.3-1.2-0.6c-0.1,0-0.1-0.1-0.2-0.1
			c0.1,0.2,0.2,0.3,0.3,0.4c0.3,0.4,0.7,0.6,1.1,0.7c0,0,0,0-0.1,0c-0.3-0.1-0.6-0.2-0.8-0.4c-0.3-0.2-0.5-0.5-0.7-0.8
			c-0.1-0.1-0.1-0.2-0.2-0.2c-0.2-0.1-0.4-0.3-0.6-0.3c0,0-0.1,0-0.1,0c0,0,0,0,0,0.1c0.2,0.2,0.4,0.4,0.6,0.6
			c0.1,0.1,0.3,0.3,0.4,0.5c0,0.1,0.1,0.2,0.1,0.2c0,0,0,0,0,0c-0.1-0.3-0.3-0.5-0.5-0.6c-0.3-0.2-0.5-0.5-0.7-0.8
			c0-0.1-0.1-0.1-0.2-0.1c-0.2,0-0.3-0.1-0.5-0.2c0,0-0.1,0-0.1,0c0.1,0.1,0.2,0.2,0.3,0.3c0.2,0.2,0.5,0.4,0.7,0.7
			c0,0.1,0.1,0.2,0.2,0.2c0,0,0.1,0,0.1,0.1c-0.1-0.1-0.3-0.1-0.3-0.3c-0.1-0.2-0.2-0.4-0.4-0.5c-0.1-0.1-0.3-0.2-0.4-0.4
			c-0.1-0.1-0.2-0.2-0.3-0.2c-0.1-0.1-0.2-0.1-0.3-0.2c-0.1-0.2-0.3-0.2-0.4-0.3c-0.1-0.1-0.3-0.2-0.5-0.2c-0.3-0.1-0.6-0.2-0.8-0.3
			c0,0-0.1,0-0.1-0.1c-0.3-0.3-0.7-0.5-1.1-0.7c-0.3-0.1-0.6-0.2-0.9-0.3c-0.2-0.1-0.4-0.1-0.6-0.2c-0.2-0.1-0.4-0.1-0.6-0.1
			c-0.1,0-0.2,0-0.4-0.1C20,17,19.8,17,19.6,16.9c-0.3-0.1-0.7-0.1-1-0.2c-0.2,0-0.3-0.1-0.5-0.2c-0.2-0.1-0.4-0.2-0.6-0.3
			c-0.1,0-0.1,0-0.2-0.1c-0.1-0.1-0.2-0.1-0.4-0.2c-0.1,0-0.1,0-0.2-0.1c-0.1-0.1-0.2-0.1-0.3-0.2c-0.1-0.1-0.2-0.2-0.3-0.3
			c-0.2-0.2-0.3-0.4-0.5-0.5c-0.1,0-0.1-0.1-0.2-0.1c-0.1,0-0.2-0.1-0.3-0.1c-0.1,0-0.2,0-0.2,0c-0.2,0-0.3-0.1-0.4-0.2
			c-0.1-0.1-0.1-0.1-0.2-0.1c-0.1,0-0.2-0.1-0.3-0.1c-0.1,0-0.1,0-0.1-0.1c-0.1-0.1-0.2-0.1-0.2-0.1c-0.2-0.1-0.5-0.2-0.7-0.3
			c-0.2-0.1-0.4-0.2-0.5-0.3c-0.1-0.1-0.2-0.1-0.3-0.1c-0.1,0-0.3-0.1-0.4-0.2c-0.2-0.1-0.8,0-1.1-0.3c-0.1-0.1-0.8-0.7-1-0.8
			c-0.2-0.1-0.3-0.2-0.5-0.3c-0.2-0.1-0.4-0.2-0.6-0.4c-0.3-0.2-0.5-0.4-0.8-0.6c0,0-0.1-0.1-0.2-0.1c-0.1,0-0.1-0.1-0.2-0.2
			c-0.1-0.1-0.1-0.1-0.2-0.2C7.2,10.3,7.1,10.1,7,10C6.9,9.9,6.8,9.7,6.7,9.6C6.6,9.5,6.4,9.4,6.3,9.3C6.3,9.3,6.2,9.2,6.2,9.2
			C6.1,9.1,5.9,9.1,5.9,9C5.7,8.8,5.5,8.7,5.3,8.6C5.1,8.5,4.9,8.4,4.7,8.2C4.6,8.1,4.5,8.1,4.4,8C4.3,7.9,4.1,7.9,4,7.8
			C3.8,7.6,3.5,7.3,3.2,7.1C3.2,7,3.2,7,3.1,7C3,6.7,2.9,6.5,2.7,6.3c0-0.1-0.1-0.1-0.1-0.2c0-0.2-0.1-0.4-0.2-0.7
			c0-0.1-0.1-0.2-0.1-0.3C2.2,5.2,2.2,5.3,2.1,5.4C2,5.4,2,5.5,2,5.6c0,0,0,0.1,0,0.1C2,6,2,6.2,2,6.5c0,0.1,0,0.2,0,0.4
			C2,6.9,2,7,2,7.1c0-0.2,0-0.5,0-0.7c0,0,0-0.1,0-0.2c0-0.2,0-0.4,0-0.6c0-0.1,0-0.2,0.1-0.3c0.1-0.1,0.2-0.2,0.2-0.2
			C2.3,5,2.3,5,2.3,4.9c-0.1-0.2,0-0.5,0-0.7c0,0,0,0,0,0C2.3,4.2,2.3,4.2,2.3,4.3z M3.5,6.5C3.7,6.9,4,7.1,4.3,7.4
			c0.3,0.2,0.6,0.4,1,0.6C5.5,8,5.6,8.2,5.8,8.3C6,8.5,6.3,8.7,6.5,8.9c0.2,0.2,0.4,0.4,0.6,0.6c0.1,0.1,0.3,0.2,0.4,0.4
			c0.2,0.3,0.4,0.5,0.7,0.8c0,0,0,0,0,0c0.1,0.1,0.2,0.1,0.2-0.1c0-0.1,0.1-0.1,0.1-0.2c0.1-0.1,0.1-0.1,0-0.2
			c-0.1,0-0.2-0.1-0.3-0.1c-0.2,0-0.4-0.1-0.6-0.2C7.4,9.6,7.1,9.3,6.8,9C6.6,8.8,6.4,8.6,6.3,8.4C6.1,8.3,6,8.2,5.9,8.1
			C5.9,8,5.8,8,5.8,7.9C5.3,7.8,4.9,7.6,4.5,7.4C4.4,7.3,4.3,7.2,4.2,7.1c-0.3-0.3-0.5-0.6-0.8-1c0-0.1,0-0.1-0.1-0.2
			c0-0.1,0-0.1-0.2-0.1C3.3,5.9,3.4,6,3.4,6.1C3.4,6.2,3.5,6.4,3.5,6.5z M12.4,10.3C12.4,10.3,12.3,10.3,12.4,10.3
			c-0.2-0.2-0.4-0.2-0.6-0.3c-0.1-0.1-0.2-0.2-0.4-0.2c-0.2-0.2-0.5-0.4-0.7-0.5c-0.1-0.1-0.3-0.2-0.5-0.3c-0.1,0-0.2,0-0.2,0
			c0,0,0,0,0,0C9.9,9,9.7,9.1,9.6,9.3c0.3,0.1,0.5,0.3,0.8,0.4c0.2,0.1,0.4,0.2,0.6,0.4c0.2,0.2,0.5,0.4,0.7,0.6c0,0,0,0,0.1,0.1
			c-0.1,0-0.1-0.1-0.2-0.1c-0.2-0.2-0.4-0.3-0.6-0.5c-0.2-0.2-0.5-0.3-0.7-0.4C10,9.6,9.9,9.5,9.8,9.5c-0.1,0-0.2-0.1-0.3-0.1
			c-0.1,0-0.1,0.1-0.2,0.1c0,0.1,0,0.1,0.1,0.1c0.4,0.2,0.8,0.5,1.2,0.7c0.3,0.2,0.5,0.4,0.7,0.5c0.1,0.1,0.1,0.1,0.2,0.1
			c0.1,0,0.1,0.1,0.2,0.1c-0.2-0.1-0.4-0.2-0.5-0.3c-0.3-0.2-0.6-0.5-1-0.7C9.9,10,9.6,9.8,9.3,9.7c0,0-0.1-0.1-0.1,0s0,0.1,0,0.1
			c0.3,0.1,0.5,0.3,0.8,0.4c0.2,0.1,0.4,0.3,0.6,0.4c0.3,0.2,0.6,0.5,0.9,0.7c-0.2-0.1-0.4-0.2-0.6-0.3c-0.2-0.2-0.4-0.3-0.7-0.5
			c-0.1-0.1-0.3-0.2-0.4-0.2c-0.2-0.1-0.4-0.2-0.6-0.3C9.2,9.9,9.2,9.9,9.1,10c0,0,0,0.1,0,0.1c0,0.1-0.1,0.1-0.2,0.2
			c-0.1,0-0.1,0.1-0.1,0.1c0,0.1,0.1,0.1,0.1,0.1c0.2,0.1,0.4,0.2,0.5,0.4c0.2,0.2,0.4,0.3,0.7,0.4c0.1,0,0.1,0.1,0.2,0.1
			c0.1,0.2,0.3,0.3,0.4,0.5c0,0.1,0.1,0.1,0.1,0.2c0.1,0.2,0.2,0.4,0.4,0.5c0.2,0.1,0.8,0.2,1,0.3c0.1,0.1,0.3,0.2,0.5,0.2
			c0.4,0.2,0.8,0.4,1.2,0.5c0.2,0,0.3,0.1,0.5,0.2c0.1,0,0.1,0.1,0.1,0.1c0,0-0.1,0-0.1,0c-0.1-0.1-0.3-0.2-0.5-0.2
			c-0.1,0-0.2-0.1-0.4-0.1c-0.3-0.1-0.6-0.3-0.9-0.4c-0.2-0.1-0.4-0.2-0.6-0.3c-0.4-0.2-0.6-0.1-0.6-0.1c-0.1-0.1-0.2-0.1-0.3-0.2
			c-0.2-0.1-0.3-0.2-0.4-0.4c-0.1-0.3-0.4-0.5-0.6-0.7c0-0.1-0.1-0.1-0.2-0.1c-0.2-0.1-0.4-0.2-0.5-0.3c-0.2-0.1-0.4-0.3-0.7-0.4
			c0,0,0,0-0.1,0c0,0.1,0,0.2-0.1,0.3c0,0,0,0.1,0,0.1c0,0.2-0.1,0.2-0.2,0.2c0,0,0,0,0,0c0,0,0,0.1,0.1,0.1
			c0.2,0.2,0.5,0.3,0.7,0.5c0.2,0.1,0.5,0.3,0.7,0.4c0.2,0.1,0.8,0.6,0.9,0.8c0.1,0.1,0.2,0.1,0.1-0.1c-0.1-0.1-0.5-0.4-0.6-0.5
			C10,12,9.7,11.8,9.4,11.6c-0.2-0.2-0.4-0.3-0.6-0.4c0,0-0.1-0.1-0.1-0.1c0-0.1,0.1,0,0.1,0c0.2,0.1,0.4,0.3,0.5,0.4
			c0.2,0.2,0.4,0.3,0.6,0.5c0.2,0.1,0.3,0.2,0.5,0.4c0.2,0.1,0.3,0.2,0.4,0.3c0.2,0.3,0.8,0.5,1,0.6c0.1,0.1,0.2,0.1,0.3,0.1
			c0.2,0,0.3,0.1,0.4,0.2c0.3,0.2,0.6,0.3,0.9,0.5c0.2,0.1,0.3,0.2,0.5,0.3c0,0,0.1,0,0.1,0.1c0.3,0,0.5,0.1,0.8,0.3
			c0,0,0.1,0,0.2,0c0.2,0,0.4,0.1,0.7,0.2c0.3,0.1,0.5,0.4,0.8,0.6c0.2,0.2,0.4,0.4,0.7,0.5c0.1,0,0.1,0,0.2,0.1
			c0.2,0.2,0.5,0.2,0.7,0.3c0.1,0,0.2,0,0.2-0.1c0.1-0.2,0.1-0.3,0.2-0.4c0,0,0-0.1,0-0.1c-0.1-0.1-0.3-0.1-0.4-0.1
			c-0.3-0.1-0.7-0.2-1-0.4c-0.3-0.1-0.5-0.3-0.7-0.5c-0.2-0.2-0.4-0.4-0.6-0.5c-0.2-0.1-0.3-0.2-0.5-0.3c0,0-0.1,0.1-0.1,0.1
			c0,0-0.1,0.1-0.1,0c0-0.1,0.1-0.2,0.2-0.3c-0.3,0-0.5-0.2-0.7-0.3c-0.4-0.3-0.8-0.5-1.2-0.6c-0.4-0.1-0.6-0.7-0.3-0.5
			c0.2,0.2,0.5,0.4,0.7,0.5c0.2,0.1,0.4,0.2,0.6,0.4c0.2,0.1,0.4,0.3,0.6,0.4c0.1,0.1,0.3,0.1,0.4,0.1c0,0,0,0,0.1,0
			c0.1,0,0.1-0.1,0.2-0.1c0.1-0.1,0.2-0.1,0.3-0.3c0-0.1,0.1-0.1,0.2-0.2c0,0,0-0.1,0-0.1c-0.2-0.2-0.6-0.3-0.8-0.5
			c-0.2-0.2-0.6-0.3-0.8-0.4c-0.1-0.1-0.1-0.2-0.2-0.2c0.1,0,0.1,0.1,0.2,0.1c0.3,0.2,0.8,0.3,1,0.6c0.2,0.2,0.5,0.2,0.6,0.3
			c0,0,0.1,0.1,0.1,0.1c0.1,0,0.1,0.1,0,0.1c0,0-0.1,0.1-0.1,0.1c-0.1,0.1-0.1,0.2-0.2,0.3c-0.1,0.1-0.1,0.2-0.3,0.2
			c-0.1,0.1-0.2,0.1-0.3,0.2c0.1,0.1,0.2,0.1,0.3,0.2c0.1,0,0.1,0.1,0.1,0.1c0.2,0.1,0.5,0.3,0.6,0.5c0.2,0.2,0.5,0.4,0.7,0.5
			c0.2,0.1,0.4,0.1,0.6,0.2c0.2,0.1,0.4,0.1,0.6,0.2c0,0,0.1,0,0.1,0c0.2,0.1,0.4,0.2,0.5,0.3c0,0,0,0-0.1,0c-0.1,0-0.2-0.1-0.2-0.1
			c-0.1,0-0.2,0-0.2,0.1c0,0.1-0.1,0.1-0.1,0.2c0,0.1-0.1,0.2-0.1,0.2c0.1,0.1,0.1,0.1,0.2,0.1c0.4,0.1,0.7,0.2,1.1,0.3
			c0.2,0,0.3,0.1,0.5,0.1c0.1,0,0.2,0.1,0.3,0.1c0.3,0,0.5,0.1,0.8,0.2c0.2,0,0.3,0.1,0.5,0.1c0.4,0.1,0.8,0.2,1.2,0.4
			c0.3,0.2,0.6,0.3,0.8,0.5c0.1,0.1,0.3,0.2,0.4,0.2c0.3,0.1,0.5,0.2,0.8,0.3c0.2,0.1,0.3,0.2,0.4,0.3c0.1,0,0.1,0.1,0.2,0.2
			c0.1,0.1,0.2,0.2,0.4,0.2c0.2,0.1,0.3,0.2,0.5,0.2c0,0,0,0,0.1,0c0,0,0-0.1,0-0.1c-0.1-0.1-0.1-0.2-0.2-0.3
			c-0.2-0.3-0.5-0.4-0.8-0.6c-0.1,0-0.1,0-0.2-0.1c0,0-0.1,0-0.1,0c0,0,0,0,0-0.1c0,0,0,0,0.1,0c0.1,0,0.1,0.1,0.2,0.1
			c0.2,0.1,0.3,0.2,0.5,0.2c0.2,0.1,0.3,0.2,0.4,0.4c0.1,0.2,0.3,0.4,0.4,0.5c0,0,0.1,0.1,0.1,0.1c0.2,0.1,0.4,0.1,0.6,0.2
			c0,0,0.1,0,0.1,0c0-0.1-0.1-0.2-0.2-0.2c-0.3-0.1-0.5-0.2-0.6-0.4c-0.1-0.1-0.3-0.2-0.3-0.4c-0.1-0.1-0.2-0.2-0.4-0.3
			c-0.2-0.1-0.4-0.3-0.6-0.4c-0.1,0-0.2-0.1-0.3-0.1c-0.1,0-0.2,0-0.3-0.1c-0.1,0-0.1,0-0.2-0.1c-0.4-0.1-0.7-0.2-1.1-0.4
			c-0.2-0.1-0.5-0.2-0.7-0.4c-0.1,0-0.2,0-0.3,0c0,0,0,0-0.1,0c0,0,0,0,0-0.1c0.1-0.1,0.2-0.1,0.3,0c0.3,0.2,0.6,0.3,0.9,0.5
			c0.2,0.1,0.4,0.1,0.6,0.2c0,0,0-0.1-0.1-0.1c-0.3-0.2-0.5-0.4-0.9-0.5c-0.2-0.1-0.5-0.2-0.7-0.3c-0.1,0-0.2-0.1-0.3-0.2
			c-0.2-0.1-0.4-0.2-0.7-0.3c-0.3-0.1-0.6-0.3-0.9-0.4c-0.2-0.1-0.3-0.1-0.5-0.2c-0.1,0-0.3-0.1-0.4-0.2c0,0,0,0-0.1-0.1
			c0,0,0-0.1,0-0.1c0,0,0,0,0.1,0c0,0,0,0.1,0.1,0.1c0.1,0,0.2,0.1,0.3,0.1c0.3,0,0.6,0.2,0.8,0.3c0.3,0.2,0.6,0.3,0.9,0.4
			c0.1,0.1,0.3,0.1,0.4,0.2c0,0,0.1,0.1,0.1,0.1c0.2,0,0.2,0.1,0.4,0.2c0.3,0.1,0.5,0.2,0.7,0.3c0.3,0.1,0.5,0.3,0.8,0.5
			c0.1,0.1,0.2,0.1,0.3,0.2c0.1,0,0.3,0.1,0.5,0.1c-0.3-0.2-0.5-0.5-0.8-0.7c-0.3-0.1-0.5-0.3-0.7-0.4c-0.1-0.1-0.3-0.1-0.4-0.1
			c-0.2,0-0.4-0.1-0.5-0.1c-0.1-0.1-0.3-0.1-0.4-0.2c-0.1-0.1-0.3-0.2-0.4-0.3c-0.1-0.1-0.2-0.2-0.3-0.2c-0.1-0.1-0.2-0.1-0.3-0.2
			c-0.2-0.1-0.4-0.3-0.7-0.4c-0.1,0-0.1-0.1-0.2-0.2c0.4,0.1,0.7,0.3,1,0.5c0.1,0.1,0.3,0.1,0.4,0.2c0.2,0.1,0.4,0.3,0.6,0.4
			c0.1,0.1,0.3,0.2,0.4,0.2c0,0,0.1,0,0.1,0c0.1,0,0.1,0,0.2,0c0,0.1-0.1,0-0.1,0c0,0,0.1,0,0.2,0.1c0.1,0,0.2,0,0.3,0
			c0.2,0,0.4,0.1,0.6,0.2c0.2,0.1,0.3,0.2,0.5,0.3c0.2,0.1,0.3,0.2,0.4,0.3c0.2,0.2,0.3,0.3,0.6,0.4c0.1,0.1,0.2,0.1,0.3,0.2
			c0.1,0.1,0.3,0.2,0.4,0.3c0.2,0.1,0.3,0.2,0.4,0.4c0.2,0.2,0.4,0.4,0.7,0.6c0.1,0,0.1,0.1,0.2,0.1c0,0,0-0.1,0-0.1
			c0,0,0-0.1,0-0.1c-0.1-0.4-0.1-0.4-0.4-0.6c-0.1-0.1-0.2-0.1-0.3-0.2c-0.2-0.2-0.4-0.3-0.5-0.5c-0.1-0.1-0.3-0.3-0.4-0.4
			c0,0,0,0,0-0.1c0,0,0-0.1,0,0c0,0,0.1,0,0.1,0.1c0.2,0.2,0.3,0.4,0.5,0.6c0.2,0.2,0.4,0.4,0.7,0.5c0-0.1-0.1-0.2-0.2-0.3
			c-0.2-0.3-0.4-0.5-0.6-0.8c-0.2-0.2-0.4-0.5-0.5-0.7c-0.2-0.2-0.4-0.4-0.6-0.6c-0.1-0.1-0.2-0.2-0.3-0.3c-0.2-0.2-0.4-0.5-0.5-0.7
			c-0.2-0.2-0.4-0.5-0.6-0.7c-0.1-0.1-0.2-0.3-0.3-0.4c0-0.1-0.1-0.1-0.2-0.1c-0.1,0-0.2-0.1-0.3-0.2s-0.2-0.1-0.3-0.2
			c-0.1,0-0.1-0.1-0.2-0.1c-0.2-0.2-0.4-0.3-0.6-0.5c-0.1-0.1-0.2-0.2-0.3-0.3c-0.1-0.1-0.1-0.1-0.2-0.1c0,0,0,0,0,0
			c-0.2-0.1-0.4-0.2-0.5-0.4c-0.1-0.1-0.1-0.1-0.2-0.2c0,0-0.1,0-0.1,0c-0.1,0.1-0.1,0.2-0.2,0.3c0,0.1,0,0.2,0.1,0.3
			c0.2,0.1,0.3,0.2,0.5,0.4c0.1,0.1,0.2,0.2,0.3,0.3c0,0.1,0.1,0.1,0.2,0.2c-0.1,0-0.1,0-0.1,0c0,0-0.1,0-0.1,0
			c-0.1,0.1-0.2,0.2-0.3,0.3c-0.1,0.1-0.2,0.2-0.2,0.3c0,0.1-0.1,0.2-0.2,0.3c0,0,0-0.1,0-0.1c0.1-0.1,0.1-0.2,0.2-0.3
			c0-0.1,0.1-0.1,0.1-0.2c0.1-0.1,0.1-0.1,0.2-0.2c0,0,0.1-0.1,0.1-0.1c0.1-0.1,0-0.1,0-0.2c-0.2-0.2-0.4-0.3-0.6-0.5
			c0,0-0.1-0.1-0.1-0.1c0,0,0,0.1-0.1,0.1c-0.1,0,0-0.1-0.1-0.2c-0.1,0.1-0.1,0.3-0.1,0.4c-0.1-0.1-0.1-0.2,0-0.3
			c0-0.1,0-0.1,0.1-0.2c0,0,0-0.1,0-0.1c0,0,0,0-0.1,0c-0.1-0.2-0.2-0.3-0.4-0.4c-0.1-0.1-0.3-0.3-0.5-0.4c-0.2-0.1-0.4-0.3-0.6-0.4
			c-0.1-0.1-0.2-0.1-0.3-0.2c0,0-0.1,0,0-0.1c0,0,0.1,0,0.1,0c0.1,0.1,0.3,0.2,0.4,0.3c0.2,0.1,0.4,0.3,0.5,0.4
			c0.1,0.1,0.2,0.2,0.4,0.3c0.2,0.2,0.4,0.3,0.5,0.5c0.1-0.2,0.1-0.3,0.2-0.5c0-0.1,0.1-0.1,0.1-0.2c0.1-0.2,0-0.4,0-0.6
			c0,0,0-0.1,0-0.1c-0.1-0.1-0.2-0.2-0.2-0.3c-0.1-0.1-0.1-0.2-0.3-0.2c-0.1,0-0.2-0.1-0.2-0.2c-0.1-0.1-0.2-0.1-0.3-0.2
			c-0.1,0-0.2-0.1-0.3-0.2c0,0-0.1-0.1-0.1-0.1c0,0,0,0.1,0,0.1c0.1,0.2,0.3,0.4,0.4,0.6c0.1,0.1,0.2,0.3,0.4,0.4
			c0,0,0.1,0.1,0.1,0.1l0,0c-0.2-0.2-0.5-0.4-0.7-0.6c-0.1-0.1-0.1-0.2-0.2-0.3c0,0-0.1-0.1-0.1-0.1c0,0-0.1,0-0.1,0.1
			c0,0,0,0,0,0.1c0.1,0.2,0.3,0.4,0.4,0.5c0.3,0.3,0.5,0.6,0.8,0.8c0,0,0,0,0,0c-0.1-0.1-0.2-0.2-0.3-0.2c-0.2-0.2-0.4-0.5-0.7-0.7
			c-0.1-0.1-0.2-0.2-0.3-0.3c-0.1-0.1-0.1-0.1-0.1,0c-0.2,0.1-0.2,0.1,0,0.3c0.2,0.2,0.4,0.4,0.6,0.5c0.2,0.2,0.4,0.4,0.6,0.6
			c0,0,0,0,0.1,0.1c-0.1,0-0.1-0.1-0.2-0.1c-0.3-0.3-0.6-0.5-0.9-0.8c-0.1-0.1-0.2-0.2-0.3-0.4c-0.1,0.1-0.1,0.1-0.2,0.2
			c0,0.1-0.1,0.2-0.2,0.3c-0.1,0.1-0.1,0.2-0.2,0.3c-0.1,0.1-0.1,0.1-0.2,0.1c0.2-0.2,0.3-0.4,0.5-0.6c0,0,0,0,0,0
			c0.1-0.3,0.3-0.4,0.5-0.6c0.1-0.1,0.2-0.2,0.2-0.3c0-0.1,0-0.1,0-0.1c0,0-0.1-0.1-0.1-0.1C18.3,10,18.1,9.8,18,9.6
			c0,0,0-0.1-0.1-0.1c-0.2-0.1-0.3-0.2-0.4-0.3c-0.2-0.1-1.5-0.7-1.7-0.8C15.5,8.3,15.3,8.1,15,8c-0.2-0.1-0.4-0.3-0.5-0.4
			c-0.1-0.1-0.3-0.2-0.4-0.2c-0.2-0.1-0.4-0.2-0.6-0.3c-0.2-0.1-0.5-0.2-0.8-0.3c-0.1,0-0.2-0.1-0.3-0.1c-0.1-0.1-0.3-0.1-0.4-0.2
			s-0.2-0.1-0.4-0.2c0,0,0,0-0.1,0c0,0-0.1,0-0.1,0C11.4,6.2,11.2,6.1,11,6c-0.2-0.1-0.4-0.3-0.7-0.4C10.1,5.5,10,5.3,9.8,5.1
			C9.6,5,9.5,4.8,9.3,4.7C9.2,4.6,9.1,4.4,9,4.3C8.8,4.1,8.7,4,8.6,3.9c0,0,0-0.1-0.1-0.1c-0.1,0-0.2-0.1-0.3-0.1c0,0-0.1,0-0.1,0
			c0,0.1,0.1,0.1,0.2,0.2C8.4,4,8.5,4.1,8.6,4.2c0.3,0.2,0.6,0.5,0.9,0.7C9.6,5,9.7,5.1,9.8,5.2c0.1,0,0.1,0.1,0.2,0.2
			c0.1,0.2,0.3,0.4,0.5,0.5C10.6,5.9,10.7,6,10.8,6c0.2,0.2,0.5,0.3,0.7,0.4c0.2,0,0.3,0.1,0.5,0.2c0.1,0.1,0.3,0.1,0.4,0.2
			c0.2,0.1,0.4,0.2,0.6,0.3c0.4,0.2,0.8,0.4,1.3,0.6C14.6,7.8,14.8,7.9,15,8c0.2,0.2,0.5,0.3,0.7,0.5c0.3,0.2,0.4,0.4,0.2,0.2
			c-0.3-0.2-0.5-0.4-0.8-0.6c-0.2-0.1-0.4-0.3-0.7-0.4c-0.1,0-0.2-0.1-0.3-0.1c-0.2-0.1-0.5-0.2-0.7-0.3c-0.2-0.1-0.4-0.2-0.5-0.3
			c-0.3-0.1-0.6-0.2-0.9-0.4c-0.2-0.1-0.3-0.2-0.5-0.2c-0.2-0.1-0.4-0.2-0.6-0.3C10.8,6.1,10.6,6,10.5,6C10.2,5.8,10,5.6,9.8,5.4
			C9.8,5.3,9.6,5.2,9.5,5.1C9.3,4.9,9,4.7,8.8,4.5c-0.1,0-0.1-0.1-0.2-0.1c0,0.1,0,0.3,0.1,0.3c0.5,0.4,0.9,0.8,1.4,1.2
			C10.3,6,10.4,6,10.5,6.1c0.2,0.1,0.4,0.2,0.6,0.4c0.2,0.1,0.4,0.3,0.6,0.4c0,0-0.1,0,0,0.1c0,0.1,0,0.2-0.1,0.3
			c-0.1,0.1-0.1,0.1,0,0.2c0.2,0.2,0.4,0.4,0.6,0.6c0.2,0.2,0.4,0.3,0.6,0.4c0.1,0.1,0.2,0.1,0.4,0.2c0.2,0.1,0.3,0.2,0.5,0.3
			C13.7,9,13.7,9,13.8,9.2c0,0.1,0,0.2,0,0.3c0,0,0,0.1,0,0.1c0.1,0.1,0.2,0.3,0.4,0.4c0.3,0.2,0.5,0.5,0.3,0.3
			c-0.2-0.2-0.5-0.4-0.7-0.6c-0.1-0.1-0.1-0.1-0.2,0c-0.1,0.1-0.2,0.2-0.2,0.3c0,0,0,0,0,0.1c0.1,0.1,0.3,0.3,0.5,0.4
			c0.4,0.3,0.4,0.4,0.1,0.2c-0.2-0.1-0.3-0.3-0.5-0.4c-0.1-0.1-0.1-0.1-0.2,0c-0.1,0-0.1,0-0.2,0c-0.2-0.1-0.4-0.2-0.6-0.4
			c-0.1-0.1-0.1-0.1-0.2-0.2c-0.2-0.1-0.3-0.2-0.5-0.3c-0.3-0.2-0.6-0.4-1-0.6c-0.1-0.1-0.2-0.1-0.2-0.2c-0.1-0.1-0.1-0.1-0.2-0.1
			c-0.1,0-0.1,0-0.1-0.1c0,0-0.1,0-0.1,0C9.9,8.2,9.8,8.1,9.7,7.9c-0.3-0.3-0.7-0.7-1-1c0,0-0.1-0.1-0.1-0.1C8.2,6.5,7.9,6.2,7.6,6
			c-0.1-0.1-0.1-0.1,0-0.2c0.1-0.1,0.1-0.2,0.2-0.3c0,0,0,0-0.1,0C7.4,5.4,7.2,5.2,6.9,5C6.8,4.9,6.7,4.8,6.6,4.7
			C6.4,4.5,6.2,4.3,6,4.2C5.9,4.1,5.8,4.1,5.7,4C5.5,3.8,5.3,3.7,5.1,3.7C4.9,3.6,4.7,3.5,4.5,3.4C4.3,3.2,4,3.1,3.8,3
			c-0.1,0-0.2-0.1-0.3-0.2C3.3,2.7,3.2,2.7,3.1,2.6c0,0-0.1,0-0.1,0C3,2.7,2.9,2.8,2.9,2.9c0,0.1,0,0.3,0,0.4c0,0,0,0.1,0,0.1
			c0.1,0.1,0.2,0.2,0.3,0.4C3.4,3.9,3.5,4,3.7,4.2C3.8,4.2,3.9,4.3,4,4.4c0,0,0.1,0,0,0.1c0,0-0.1,0-0.1,0C3.8,4.3,3.7,4.2,3.5,4.1
			C3.4,4,3.3,3.9,3.2,3.7C3.1,3.6,3,3.5,2.9,3.4c0,0,0,0,0,0c-0.1,0-0.1,0.1-0.2,0.1c0,0,0,0,0,0.1c0,0,0,0.1,0.1,0.1
			C3,3.9,3.2,4.3,3.4,4.6c0.1,0.1,0.2,0.2,0.3,0.2c0.1,0,0.1,0,0.1,0c0-0.1,0.1-0.2,0.2-0.2c0.1,0,0.1-0.1,0.1-0.2c0,0,0-0.1,0-0.1
			C4.1,4,4.2,4,4.3,3.9c0,0,0.1,0,0.1,0c0,0,0,0.1,0.1,0.1c0.1,0,0.2,0.1,0.3,0.1C4.8,4.3,4.9,4.4,5,4.5c0,0,0.1,0,0.1,0.1
			c0.2,0.2,0.4,0.3,0.7,0.5c0.1,0,0.1,0.1,0.2,0.1c0,0,0-0.1-0.1-0.1C5.8,5,5.7,4.8,5.7,4.7C5.6,4.5,5.4,4.4,5.3,4.2
			c0-0.1-0.1-0.1-0.2-0.1C5,4,4.8,3.9,4.7,3.8c0,0-0.1-0.1-0.1-0.1c0,0-0.1-0.1,0-0.1c0,0,0.1,0,0.1,0C4.8,3.8,5,3.9,5.2,4
			c0.1,0,0.2,0.1,0.2,0.2c0.1,0.2,0.3,0.4,0.4,0.6C5.9,5,6.1,5.2,6.3,5.3c0.1,0.1,0.2,0.2,0.3,0.2c0,0,0.1,0.1,0.1,0.1
			C6.9,5.7,7,5.8,7.1,5.9C7.2,6,7.2,6,7.3,6.1c0.2,0.1,0.4,0.3,0.6,0.5C8,6.8,8.1,6.9,8.3,7.1c0,0,0,0,0,0.1C8.2,7.1,8.1,7.1,8.1,7
			C8,6.8,7.8,6.7,7.7,6.6C7.6,6.4,7.5,6.3,7.3,6.2C7.1,6.1,7,5.9,6.7,5.8C6.8,5.9,6.9,6,7,6.2c-0.1,0-0.1-0.1-0.1-0.1
			C6.7,6,6.6,5.8,6.5,5.7C6.4,5.5,6.2,5.3,5.9,5.2c0,0-0.1,0-0.1-0.1C5.6,5,5.4,4.9,5.2,4.7C5.1,4.6,5,4.6,4.9,4.5
			C4.8,4.4,4.7,4.3,4.6,4.2c-0.1,0-0.1-0.1-0.2-0.1c-0.1,0-0.1,0-0.1,0c0,0.1,0,0.2,0,0.4c0,0.1,0.1,0.1,0.1,0.2
			C4.6,4.8,4.8,4.9,5,5.1c0.1,0.1,0.3,0.2,0.4,0.3c0.1,0.1,0.2,0.1,0.3,0.2C5.8,5.6,5.9,5.7,6,5.8C6.1,6,6.3,6.1,6.5,6.2
			C6.7,6.3,6.8,6.4,7,6.5c-0.1,0-0.3-0.1-0.4-0.1c-0.1,0-0.1-0.1-0.2-0.1C6.2,6.2,6,6,5.8,5.8C5.7,5.7,5.6,5.6,5.5,5.5
			C5.4,5.5,5.2,5.3,5.1,5.2C4.9,5,4.6,4.9,4.4,4.7c-0.1,0-0.1-0.1-0.2-0.1c0,0-0.1,0-0.1,0C4,4.7,3.9,4.8,4.1,5
			c0.1,0.1,0.2,0.2,0.3,0.3c0.2,0.2,0.3,0.3,0.5,0.5C4.9,5.8,5,5.9,5,5.9c-0.1,0-0.2-0.1-0.3-0.1C4.6,5.6,4.4,5.4,4.2,5.2
			C4.1,5.1,4,5.1,3.9,5C3.8,5.1,3.8,5.2,3.8,5.3c0,0.2,0,0.2,0.1,0.4C4.1,5.8,4.3,5.9,4.5,6C4.7,6.1,4.8,6.2,5,6.3
			c0.2,0.1,0.3,0.2,0.4,0.3c0.3,0.2,0.5,0.5,0.8,0.7c0.1,0.1,0.2,0.2,0.3,0.3c-0.1,0-0.1,0-0.2,0C6.2,7.4,6.1,7.3,6,7.2
			C5.9,7.2,5.9,7.1,5.8,7.1C5.6,6.9,5.3,6.7,5.1,6.5C5.1,6.4,5,6.3,4.8,6.3c-0.1,0-0.1-0.1-0.2-0.1C4.4,6.1,4.2,5.9,4,5.8
			C3.9,5.7,3.8,5.6,3.8,5.6c0,0-0.1-0.1-0.1,0c0,0,0,0-0.1,0c0,0,0,0,0-0.1C3.7,5.3,3.7,5.2,3.7,5c0-0.1,0-0.1-0.1-0.1
			C3.4,4.8,3.3,4.5,3.1,4.3C3,4.1,2.8,3.9,2.7,3.7c0,0,0-0.1-0.1-0.1c0,0,0-0.1-0.1-0.1c-0.1,0-0.1,0-0.2,0.1c0,0.1-0.1,0.1-0.2,0.2
			c0,0,0,0.1,0,0.1c0,0,0.1,0,0.1,0.1c0.1,0.1,0.2,0.2,0.2,0.4c0,0.1,0,0.1,0.1,0.1c0,0,0,0,0,0c0,0.1,0.2,0.2,0.2,0.2
			C3,4.8,3.3,5,3.4,5.2c0,0,0.1,0.1,0.1,0.1c-0.1,0.1-0.1,0-0.1-0.1C3.2,5.1,3.1,5,2.9,4.9C2.8,4.8,2.6,4.7,2.5,4.6
			c0,0.1,0,0.2-0.1,0.3c0,0.1,0,0.1,0.1,0.1C2.6,5,2.8,5.1,2.9,5.2C3,5.3,3.1,5.4,3.2,5.5c0,0.1,0.1,0.1,0.1,0.1
			c0.1,0,0.1,0.1,0.2,0.2c0,0,0,0,0,0c0,0.1,0,0.2,0.1,0.3C3.8,6.5,4,6.8,4.3,7.1c0.1,0.1,0.2,0.2,0.4,0.3c0.3,0.1,0.5,0.3,0.8,0.4
			C5.6,7.8,5.7,7.9,5.9,8C5.9,8,6,8,6,8c0,0,0,0,0,0c0-0.3,0-0.3-0.2-0.4c0,0-0.1,0-0.1,0C5.4,7.5,5.2,7.3,5,7.2
			C4.8,6.9,4.5,6.7,4.3,6.5C4.2,6.3,4.1,6.1,3.9,6C3.9,5.9,3.8,5.9,3.8,5.8c0,0,0,0,0,0c0,0,0,0,0,0c0,0,0.1,0.1,0.1,0.1
			c0.3,0.3,0.5,0.7,0.8,1C4.9,7,5.1,7.1,5.2,7.2s0.3,0.2,0.5,0.3C5.9,7.5,6,7.6,6,7.6c0.1,0,0.1,0.1,0.1,0.2c0,0.1,0,0.2,0,0.3
			c0,0.2,0.1,0.3,0.3,0.4c0,0-0.1,0.1,0,0.1C6.8,9,7.3,9.5,7.8,9.8C7.9,9.9,8.1,10,8.3,10c0.1,0,0.2,0,0.3,0.1c0,0,0.1,0,0.1,0
			c0.1,0,0.1,0,0.1,0.1c0-0.1,0.1-0.1,0.1-0.2C8.6,9.8,8.2,9.6,7.9,9.4C7.7,9.3,7.5,9.1,7.4,8.9C7.2,8.8,7.1,8.6,6.9,8.4
			C6.8,8.3,6.7,8.2,6.6,8c0,0,0,0-0.1-0.1C6.4,7.9,6.4,7.8,6.5,7.6c0,0,0.1,0,0.1,0.1C6.7,7.9,6.9,8,7.1,8.1C7.5,8.4,7.9,8.7,8.3,9
			C8.5,9.2,8.7,9.5,9,9.7c0,0,0,0,0,0c0.1,0.1,0.1,0.1,0.1,0c0-0.1,0.1-0.2,0.2-0.3c0,0,0-0.1,0-0.1C8.9,9.2,8.7,8.9,8.4,8.7
			C8.3,8.6,8.2,8.5,8.1,8.4C8.1,8.4,8,8.3,7.9,8.3C7.6,8,7.3,7.7,7,7.5C7,7.4,6.9,7.3,6.7,7.2c0,0,0,0,0-0.1c0-0.1,0-0.1-0.1-0.2
			C6.4,6.8,6.1,6.5,5.9,6.3C5.8,6.3,5.7,6.2,5.7,6.1c0,0-0.1-0.1-0.1-0.1C5.5,5.9,5.4,5.9,5.4,5.8C5.3,5.7,5.2,5.6,5.1,5.5
			C5,5.5,5,5.5,5,5.4c0,0,0,0,0,0c0.2,0.1,0.4,0.3,0.6,0.4C5.8,6.1,6,6.3,6.2,6.5c0.1,0.1,0.2,0.1,0.2,0.2C6.5,6.8,6.7,6.9,6.8,7
			c0,0,0.1,0,0.1,0C7,6.9,7,6.9,7.1,6.8c0-0.1,0-0.1,0.1-0.2c0-0.1,0-0.1,0.1-0.1c0,0,0.1,0,0.1,0c0,0.1,0.1,0.2,0.2,0.3
			C7.7,7,8,7.3,8.2,7.5c0,0,0,0,0,0c0.4,0.2,0.7,0.6,1,0.9c0.2,0.1,0.4,0.3,0.6,0.4c0.1,0.1,0.2,0.1,0.2,0.1c0.2,0,0.4,0.1,0.5,0.2
			c0.3,0.2,0.6,0.4,0.9,0.7c0.2,0.1,0.3,0.3,0.5,0.4C12.2,10.1,12.3,10.2,12.4,10.3C12.4,10.2,12.4,10.3,12.4,10.3
			C12.5,10.3,12.5,10.3,12.4,10.3C12.4,10.3,12.4,10.3,12.4,10.3L12.4,10.3z M12.9,9c-0.1-0.1-0.2-0.2-0.3-0.2
			c-0.3-0.2-0.6-0.4-0.9-0.6C11.5,8,11.4,8,11.3,7.9c-0.2-0.1-0.3-0.3-0.4-0.5c-0.1-0.3-0.3-0.5-0.6-0.8C10,6.4,9.9,6.2,9.7,6
			C9.5,5.8,9.2,5.6,9,5.4C8.9,5.4,8.8,5.3,8.8,5.3C8.7,5.2,8.6,5.1,8.5,5.1c-0.1,0-0.1,0-0.1,0c0,0.1,0,0.1,0,0.1
			c0.1,0.1,0.3,0.3,0.4,0.4c0.1,0,0.1,0.1,0.1,0.2c0,0-0.1,0-0.1,0C8.7,5.7,8.5,5.6,8.4,5.4c0,0,0,0,0-0.1c-0.1-0.1-0.2-0.1-0.3,0
			c0,0,0,0.1,0,0.1c0.1,0.1,0.2,0.1,0.2,0.2C8.6,5.9,8.8,6.1,9,6.3c0.2,0.2,0.4,0.4,0.6,0.6c0.3,0.2,0.6,0.5,0.8,0.7
			c0.1,0.1,0.1,0.1,0.2,0.1c0.1,0,0.1,0.1,0.2,0.1C11,8,11.2,8.2,11.4,8.3c0.1,0.1,0.2,0.2,0.3,0.3C12,8.8,12.3,9,12.6,9.2
			c0.2,0.1,0.4,0.3,0.6,0.4c0,0,0.1,0,0.1,0c0.1-0.1,0.2-0.1,0.3-0.2c0,0,0.1-0.1,0.1-0.2c0-0.2-0.1-0.3-0.2-0.4
			c-0.1-0.1-0.2-0.1-0.3-0.2c-0.2-0.1-0.5-0.2-0.7-0.4c-0.1,0-0.1-0.1-0.2-0.1c-0.1-0.1-0.2-0.2-0.3-0.2c-0.2-0.2-0.4-0.3-0.5-0.5
			c-0.1-0.1-0.1-0.2,0-0.3c0,0,0.1-0.1,0.1-0.1c0.1-0.1,0.1-0.2-0.1-0.2c-0.3-0.2-0.6-0.3-0.8-0.6c-0.1-0.1-0.2-0.1-0.3-0.2
			c-0.3-0.2-0.5-0.4-0.8-0.6C9.3,5.2,9,5,8.7,4.7c-0.1,0-0.1,0-0.1,0c0,0.1,0,0.1,0,0.2c0,0,0,0.1,0,0.1c0.3,0.2,0.6,0.5,0.9,0.7
			C9.6,5.8,9.7,5.9,9.8,6c0.2,0.2,0.5,0.5,0.7,0.7c0.2,0.3,0.4,0.5,0.6,0.8c0,0.1,0.1,0.1,0.2,0.2c0.2,0.1,0.3,0.3,0.5,0.4
			c0.3,0.3,0.7,0.5,1.1,0.7C13,8.9,13.1,9,13.2,9.2C13.1,9.1,13,9.1,12.9,9z M11.7,8.8c-0.1-0.1-0.3-0.3-0.4-0.4
			c-0.1-0.1-0.3-0.2-0.4-0.3c0,0-0.1-0.1-0.1-0.1c0,0-0.1-0.1-0.1-0.1c-0.2,0-0.3-0.2-0.5-0.3c-0.1-0.1-0.2-0.2-0.4-0.3
			c-0.4-0.3-0.7-0.7-1-1C8.6,6,8.4,5.8,8.2,5.7c0,0-0.1-0.1-0.1-0.1C8,5.5,8,5.5,7.9,5.6C7.8,5.7,7.8,5.7,7.7,5.8c0,0.1,0,0.1,0,0.1
			C7.8,6,7.9,6.1,7.9,6.1c0.4,0.4,0.8,0.7,1.2,1.1c0.2,0.2,0.4,0.4,0.7,0.6C9.8,8,9.9,8,10,8c0.1,0.1,0.3,0.1,0.4,0.2
			c0.1,0,0.2,0.1,0.3,0.2c0,0.1,0.1,0.1,0.2,0.2c0.1,0.1,0.2,0.2,0.4,0.2c0.2,0.1,0.4,0.3,0.7,0.4c0.2,0.1,0.4,0.3,0.6,0.4
			c0.1,0.1,0.2,0.2,0.4,0.2c0.1,0,0.1,0,0.2,0c0.1-0.1,0.1-0.1,0-0.2c-0.2-0.2-0.4-0.3-0.6-0.4C12.2,9.1,11.9,8.9,11.7,8.8z
			 M2.6,5.8c0,0.2,0.1,0.4,0.2,0.5C3,6.5,3,6.7,3.1,6.8C3.2,6.9,3.2,7,3.3,7c0.2,0.2,0.4,0.4,0.6,0.6C4.1,7.7,4.3,7.8,4.4,8
			C4.5,8,4.6,8.1,4.7,8.2c0.1,0.1,0.2,0.1,0.2,0.2c0.3,0.1,0.5,0.3,0.7,0.4c0.1,0,0.1,0.1,0.1,0.1C5.9,9,6.1,9.1,6.2,9.2
			c0,0,0,0,0,0C6.5,9.4,6.9,9.6,7,10c0.1,0.2,0.3,0.3,0.4,0.4c0.2,0.2,0.5,0.4,0.7,0.6c0,0,0.1,0.1,0.1,0.1c0-0.1,0-0.2,0-0.2
			c0,0,0,0,0-0.1c-0.1,0-0.1-0.1-0.2-0.1c-0.1-0.1-0.2-0.2-0.3-0.3C7.5,10,7.3,9.7,7,9.5c0,0,0,0,0,0C6.7,9.2,6.3,8.9,6.1,8.6
			C6,8.5,5.8,8.4,5.7,8.3C5.5,8.1,5.2,8,5,7.9C4.7,7.7,4.4,7.5,4.1,7.3C4,7.3,3.9,7.2,3.9,7.1C3.6,6.9,3.5,6.7,3.4,6.5
			C3.4,6.4,3.4,6.3,3.3,6.2C3.3,6,3.2,5.9,3,5.8c0,0-0.1,0-0.1-0.1c0-0.1-0.1-0.1-0.1-0.1c-0.1,0-0.1,0-0.2-0.1
			C2.5,5.6,2.6,5.7,2.6,5.8z M8.6,7.9C8.4,7.7,8.2,7.6,8,7.4C7.8,7.2,7.5,6.9,7.3,6.7c-0.1-0.1-0.1-0.1-0.1,0C7.1,6.8,7,7,6.9,7.1
			c-0.1,0,0,0.1,0,0.1C7,7.3,7.2,7.4,7.3,7.5C7.6,7.9,8,8.2,8.4,8.6C8.6,8.8,8.9,9,9.2,9.1c0.2,0.1,0.2,0.1,0.4-0.1
			C9.6,9,9.7,9,9.7,8.9c0.1,0,0.1-0.1,0-0.2C9.7,8.7,9.5,8.6,9.4,8.5C9.1,8.3,8.9,8.1,8.6,7.9z M7.7,4.6C7.8,4.7,8,4.9,8.2,5
			c0.1,0.1,0.1,0.1,0.1,0c0,0,0.1-0.1,0.1-0.1c0,0,0.1-0.1,0.1-0.1c0,0,0-0.1,0-0.1c0.1-0.1,0.1-0.1,0.1-0.2c0,0,0-0.1,0-0.1
			c0-0.1,0-0.2-0.1-0.2c-0.3-0.3-0.6-0.6-1-0.8C7.2,3.3,6.9,3.2,6.6,3C6.4,2.9,6.1,2.9,5.9,2.8C5.7,2.7,5.4,2.6,5.2,2.4
			C5.1,2.3,5,2.3,4.9,2.3C4.5,2.2,4.2,2.2,3.8,2.1c-0.1,0-0.1,0-0.2,0c0,0-0.1,0-0.1,0c0,0,0,0.1,0,0.1c0.2,0.1,0.3,0.2,0.5,0.2
			c0.2,0,0.4,0.1,0.7,0.2C5,2.6,5.2,2.8,5.5,2.9C5.7,2.9,5.9,3,6.1,3c0.3,0.1,0.5,0.2,0.7,0.3C7,3.5,7.2,3.7,7.4,3.8
			c0.2,0.1,0.4,0.3,0.7,0.5c0,0,0,0,0,0c0,0,0,0.1,0,0.1c0,0-0.1,0-0.1,0C8,4.3,7.9,4.2,7.8,4.2c0,0,0,0-0.1,0c-0.1,0-0.3,0-0.4-0.1
			C7.4,4.2,7.6,4.4,7.7,4.6z M3.4,2.3c-0.1,0-0.1,0.1-0.2,0.1c0,0,0,0.1,0,0.1c0,0,0.1,0,0.1,0c0.1,0,0.2,0.1,0.3,0.2
			c0.1,0.1,0.2,0.1,0.3,0.1C4.2,3,4.5,3.2,4.7,3.4C4.9,3.4,5,3.5,5.1,3.5c0.2,0.1,0.4,0.2,0.6,0.3C5.9,4,6,4.1,6.2,4.2
			c0.3,0.2,0.5,0.4,0.7,0.6C7.1,5,7.3,5.2,7.6,5.3c0.1,0,0.1,0,0.1,0.1c0.2,0.1,0.2,0,0.3-0.1C8.2,5.1,8.2,5.1,8,5.1
			c0,0-0.1,0-0.1,0C7.8,4.9,7.6,4.9,7.5,4.8C7.4,4.7,7.3,4.7,7.2,4.6C7,4.6,6.8,4.4,6.7,4.3C6.4,4,6.1,3.8,5.8,3.6
			C5.5,3.5,5.1,3.3,4.9,3.1C4.6,2.9,4.3,2.7,3.9,2.6C3.8,2.5,3.7,2.4,3.5,2.3C3.5,2.2,3.4,2.3,3.4,2.3z M8.4,3.6
			C8.1,3.3,7.8,3.1,7.5,3c-0.1,0-0.1,0-0.1-0.1C7.1,2.8,6.9,2.7,6.7,2.6C6.5,2.5,6.4,2.5,6.2,2.4C6.1,2.4,6,2.4,5.9,2.3
			C5.6,2.1,5.3,2,5,1.9c-0.3,0-0.6-0.1-1-0.1c-0.1,0-0.1,0-0.2,0c0,0-0.1,0-0.1,0c0,0-0.1,0-0.1,0.1c0,0,0,0.1,0.1,0.1
			c0.2,0,0.3,0,0.5,0c0.3,0,0.6,0.1,0.9,0.2c0.3,0.1,0.7,0.1,1,0.3c0.2,0.1,0.5,0.2,0.7,0.3c0.1,0,0.2,0.1,0.3,0.2
			c0.2,0.1,0.4,0.3,0.7,0.4C7.8,3.5,8.1,3.6,8.4,3.6c0,0.1,0,0.1,0.1,0.1C8.5,3.6,8.4,3.6,8.4,3.6z M5,3.1c0.3,0.2,0.6,0.4,0.9,0.5
			c0.3,0.2,0.6,0.3,0.8,0.6C6.9,4.3,7,4.5,7.3,4.6c0.1,0,0.2,0.1,0.2,0.1c0.1,0.1,0.2,0.1,0.3,0.1c0,0,0,0,0-0.1
			C7.5,4.5,7.4,4.3,7.2,4.1C7.1,4,7,3.9,6.9,3.9c0,0-0.1,0-0.1,0C6.6,3.7,6.3,3.6,6.1,3.4C5.9,3.3,5.7,3.2,5.5,3
			C5.3,2.8,5,2.9,4.8,2.9C4.9,3,4.9,3,5,3.1z M7.1,8.5C7.3,8.6,7.4,8.8,7.6,9c0.2,0.2,0.5,0.4,0.8,0.6c0.1,0.1,0.2,0.1,0.3,0.2
			c0.1,0,0.1,0.1,0.2,0C8.8,9.6,8.7,9.5,8.6,9.4C8.5,9.4,8.5,9.3,8.4,9.2C8.2,9,7.9,8.7,7.6,8.5C7.4,8.4,7.2,8.2,6.9,8
			C6.8,8,6.7,7.9,6.6,7.7C6.7,8,6.9,8.3,7.1,8.5z M20.5,11.8c0.1,0.1,0,0.2,0,0.3c0.2,0,0.3,0.2,0.5,0.4c0.1,0.1,0.1,0.2,0.2,0.3
			c0.1,0.1,0.2,0.2,0.4,0.3c0-0.1,0-0.2,0-0.3c0-0.1-0.1-0.2-0.2-0.3c-0.1-0.1-0.2-0.1-0.3-0.2c-0.1-0.1-0.3-0.2-0.4-0.3
			c-0.1-0.1-0.3-0.2-0.4-0.4c0,0,0,0.1,0,0.1c0,0.2,0,0.5-0.2,0.7c-0.1,0.1-0.1,0.3-0.1,0.4C20.2,12.5,20.3,12.1,20.5,11.8z
			 M8.7,3.8C8.8,3.9,8.9,4.1,9,4.2c0.2,0.2,0.4,0.4,0.6,0.6c0,0,0.1,0.1,0.1,0.1C9.9,5,10,5.2,10.1,5.3c0.2,0.2,0.4,0.3,0.6,0.4
			c0,0,0,0,0,0c-0.1-0.1-0.2-0.2-0.3-0.3c-0.2-0.2-0.3-0.3-0.5-0.5C10,4.9,9.8,4.8,9.7,4.6C9.6,4.5,9.5,4.4,9.4,4.2
			C9.2,4.1,9,3.9,8.7,3.8C8.7,3.8,8.7,3.8,8.7,3.8C8.7,3.8,8.7,3.8,8.7,3.8z M13.2,12.7c-0.3-0.2-0.3,0.2,0.3,0.3
			C13.4,12.9,13.3,12.8,13.2,12.7z M6.1,3.4c0.3,0.2,0.7,0.3,1,0.5C7.3,3.9,7.4,4,7.6,4C7.5,3.9,7.5,3.9,7.4,3.8
			C7.2,3.7,7,3.6,6.8,3.5C6.6,3.3,6.3,3.2,6,3.1C5.9,3.1,5.8,3,5.6,3C5.8,3.2,5.9,3.3,6.1,3.4z M3.2,2.3C3.3,2.2,3.4,2.1,3.4,2
			c0,0,0,0,0-0.1c0-0.1,0-0.1-0.1-0.1c0,0-0.1,0-0.2,0.1C3.2,2,3.1,2,3,2.1C3,2.1,2.9,2.2,2.9,2.3c0,0.1-0.1,0.2-0.1,0.3
			c0,0.1,0,0.1-0.1,0.2C2.6,2.9,2.6,3,2.5,3.1c-0.1,0.1-0.1,0.2,0,0.3c0,0,0,0,0.1,0c0.1-0.1,0.3-0.1,0.3-0.3c0-0.1,0-0.1,0-0.2
			c0-0.2,0.1-0.3,0.1-0.4C3,2.4,3.1,2.3,3.2,2.3z M23.3,14.3c0,0,0,0.1,0.1,0.2c0.1,0.2,0.4,0.4,0.5,0.6c0.2,0.2,0.4,0.5,0.6,0.7
			c0,0.1,0.1,0.1,0.1,0.1c0,0,0-0.1,0-0.1c-0.1-0.3-0.3-0.5-0.5-0.8c-0.1-0.1-0.2-0.2-0.2-0.3C23.7,14.6,23.5,14.5,23.3,14.3
			c0-0.1-0.1-0.1-0.1-0.2C23.2,14.2,23.2,14.3,23.3,14.3z M2.9,5.2C2.8,5.2,2.7,5.1,2.6,5C2.6,5,2.5,5,2.4,5c0,0,0,0,0,0
			c0,0,0,0.1,0,0.1c0,0.1,0.1,0.2,0.1,0.3c0,0,0,0,0,0c0.2,0,0.4,0.1,0.7,0.2C3.1,5.5,3.1,5.3,2.9,5.2z M6.5,2.8
			C6.2,2.7,6,2.6,5.7,2.5c-0.1,0-0.2-0.1-0.3-0.1c0,0,0,0.1,0.1,0.1C5.7,2.7,6,2.8,6.4,2.9c0.2,0,0.3,0.1,0.5,0.2
			c0.1,0,0.2,0.1,0.3,0.1c0,0,0.1,0,0.1,0C7,3,6.8,2.9,6.5,2.8z M21.7,12.9c0,0.1,0,0.1,0.1,0.2c0.2,0.2,0.4,0.5,0.8,0.7
			C22.5,13.4,22,13,21.7,12.9z M20.7,12.3c-0.1-0.1-0.2,0-0.2-0.1c0,0,0,0,0,0c0,0,0,0,0,0.1c0.2,0.1,0.3,0.3,0.4,0.4
			c0.1,0.1,0.2,0.1,0.3,0.1C21,12.6,20.9,12.4,20.7,12.3z M18.1,9.5C18.1,9.5,18.1,9.6,18.1,9.5c0.1,0.2,0.2,0.3,0.3,0.4
			c0.2,0.1,0.4,0.3,0.5,0.4c0,0,0.1,0.1,0.1,0C18.8,10,18.4,9.8,18.1,9.5z M5,2.8C4.9,2.7,4.4,2.5,4.2,2.6C4.4,2.7,4.7,2.8,5,2.8z
			 M22.5,13.8c0.1,0.2,0.4,0.4,0.6,0.4C22.9,14,22.9,14,22.5,13.8z M8.5,10.7c0,0.1,0,0.2-0.1,0.2c0,0,0,0.1,0,0.1c0,0,0,0,0.1,0
			c0,0,0.1,0,0.1-0.1c0,0,0-0.1,0-0.1c0-0.1,0.1-0.3,0.1-0.4C8.6,10.5,8.6,10.6,8.5,10.7z M22.4,13.9C22.4,13.9,22.4,13.9,22.4,13.9
			c0-0.1-0.1-0.2-0.2-0.3c-0.1-0.1-0.2-0.2-0.3-0.2c-0.1-0.1-0.2-0.2-0.3-0.2c0,0,0,0,0,0C21.8,13.4,22.1,13.7,22.4,13.9z M13.1,10
			C13.1,10,13.1,10,13.1,10C13.1,10,13.2,10,13.1,10c0.1,0,0.2-0.1,0.2-0.2C13.2,9.8,13.2,9.9,13.1,10z"/>
		<path class="st1" d="M15.4,12.1c-0.1-0.1-0.2-0.2-0.3-0.3c-0.1-0.1-0.3-0.2-0.5-0.3c-0.4-0.2-0.6-0.4-0.8-0.6
			c-0.1-0.1-0.3-0.2-0.5-0.2c-0.2-0.1-0.3-0.2-0.5-0.3c0.1-0.1,0.1-0.2,0.1-0.3c0,0-0.1,0-0.1,0.1c0,0.1-0.1,0.1-0.1,0.1
			c-0.1,0.1-0.2,0.2-0.2,0.3c0,0.1,0,0.2,0,0.2c0,0.1-0.1,0.2-0.1,0.3c0,0,0,0,0,0.1c0,0,0.1,0,0.1,0c0,0,0-0.1,0.1-0.1
			c0.1-0.1,0.1-0.3,0.1-0.4c0,0,0-0.1,0-0.2c0-0.1,0.1-0.1,0.2-0.1c0.1,0,0.2,0,0.2,0.1c0.2,0.1,0.3,0.2,0.5,0.2
			c0.1,0.1,0.7,0.5,0.8,0.6c0.2,0.1,0.3,0.2,0.5,0.3c0.1,0.1,0.2,0.2,0.3,0.2C15.2,12,15.3,12.1,15.4,12.1z"/>
		<path class="st1" d="M21.9,14.4c0,0.1,0,0.1,0,0.1c0.3,0.3,0.5,0.6,0.9,0.8c0.2,0.2,0.4,0.4,0.6,0.6c0.1,0.1,0.1,0.1,0,0.2
			c-0.1,0.1-0.2,0.2-0.3,0.3c-0.1,0.1-0.1,0.3-0.2,0.4c0.1,0,0.1,0,0.2-0.1c0.1-0.1,0.1-0.2,0.2-0.3c0,0,0.1-0.1,0.1,0
			c0.1,0.1,0.3,0.2,0.4,0.3c0.1,0.1,0.2,0.1,0.3,0.2c0.3,0.2,0.5,0.4,0.8,0.7c0.2,0.2,0.4,0.4,0.6,0.6c0.1,0.1,0.1,0.1,0.3,0.2
			c0,0-0.1-0.1-0.1-0.1c-0.3-0.3-0.5-0.5-0.8-0.8c-0.2-0.2-0.5-0.4-0.8-0.6c-0.2-0.2-0.4-0.3-0.6-0.4c-0.1-0.1-0.1-0.1,0-0.1
			c0,0,0-0.1,0.1-0.1c0.1-0.1,0.2-0.3,0.2-0.5c0,0,0-0.1,0-0.1c0,0,0,0-0.1-0.1c-0.1-0.2-0.3-0.3-0.5-0.5c-0.2-0.2-0.4-0.4-0.7-0.6
			c-0.1-0.1-0.2-0.2-0.3-0.3c0,0-0.1-0.1-0.1-0.1c0.1,0.1,0.2,0.3,0.4,0.4c0.1,0.1,0.3,0.3,0.4,0.4c0.1,0.1,0.2,0.2,0.3,0.3
			c0.1,0.1,0.3,0.3,0.4,0.4c0,0,0,0.1,0.1,0.1c0,0,0,0,0,0c0,0.1,0,0.2-0.1,0.2c0,0-0.1,0-0.1,0c0,0,0,0,0-0.1
			c-0.2-0.2-0.4-0.4-0.7-0.6c-0.2-0.2-0.5-0.4-0.7-0.6C22.1,14.6,22,14.5,21.9,14.4L21.9,14.4z"/>
		<path class="st1" d="M15.7,9.9c0.2,0.2,0.7,0.5,1,0.6c0.2,0.1,0.3,0.2,0.5,0.3c0.1,0.1,0.3,0.1,0.4,0.2c0,0,0.1,0,0.1,0
			c0,0,0,0,0,0c-0.4-0.2-0.7-0.4-1-0.6c-1.3-1-1.6-0.8-0.5,0c0.1,0.1,0.2,0.2,0.3,0.2c0,0,0.1,0.1,0.2,0.1c0.2,0.1,0.4,0.3,0.6,0.4
			c0.1,0,0.1,0.1,0.2,0.1c0,0,0,0,0.1,0c0,0,0,0,0-0.1c-0.3-0.1-0.5-0.3-0.8-0.5c-0.2-0.2-0.8-0.5-1-0.7C15.7,10,15.6,9.9,15.7,9.9z
			"/>
		<path class="st1" d="M19.4,13.4c-0.1-0.1-0.2-0.1-0.2-0.2c-0.3-0.3-0.7-0.6-1.2-0.9c-0.1-0.1-0.2-0.2-0.3-0.2c0,0,0,0,0,0
			c0,0,0-0.1-0.1-0.1c0,0-0.1,0-0.1,0.1c0,0-0.1,0.1-0.1,0.1c-0.1,0.1-0.1,0.1-0.2,0.2c0,0.1-0.1,0.2-0.1,0.3c0,0,0,0.1,0,0.1
			c0,0,0.1,0,0.1,0c0-0.1,0.1-0.2,0.1-0.3c0-0.1,0.1-0.1,0.2-0.2c0,0.1,0.1,0.1,0.1,0.2c0,0.1,0.1,0.1,0.1,0.2
			c0.2,0.2,0.5,0.4,0.7,0.6c0.3,0.2,0.5,0.4,0.8,0.6c0.2,0.1,0.3,0.3,0.5,0.4c0.1,0.1,0.1,0.1,0.2,0.1l0,0c-0.3-0.1-0.5-0.3-0.7-0.5
			c-0.2-0.1-0.3-0.2-0.5-0.4c-0.2-0.2-0.5-0.4-0.7-0.6c-0.2-0.1-0.4-0.3-0.5-0.6c0,0,0-0.1,0-0.1c0.2,0.1,0.3,0.2,0.5,0.3
			c0.2,0.1,0.3,0.2,0.5,0.3c0.1,0.1,0.3,0.2,0.4,0.3C19.1,13.2,19.3,13.3,19.4,13.4z"/>
		<path class="st1" d="M18.8,14.5c-0.4-0.2-0.7-0.5-1.1-0.7c-0.3-0.2-0.6-0.5-0.8-0.8c0,0,0,0,0,0c0,0,0.1,0,0.1,0
			c0.1,0,0.2,0.1,0.3,0.1c0.5,0.3,1.1,0.7,1.6,1c0.2,0.1,0.4,0.3,0.6,0.4c0.2,0.1,0.3,0.2,0.4,0.3c0,0,0.1,0.1,0.1,0.1
			c0.1-0.1,0-0.1-0.1-0.1c-0.2-0.2-0.4-0.3-0.6-0.5c-0.4-0.3-0.7-0.4-1.1-0.7c-0.2-0.2-0.5-0.3-0.7-0.5c-0.1-0.1-0.3-0.2-0.4-0.2
			c-0.1,0-0.1,0-0.2,0c0,0-0.1,0-0.1,0c0,0,0,0.1,0,0.1c0.1,0.1,0.1,0.1,0.2,0.2c0.2,0.2,0.4,0.4,0.6,0.5c0.2,0.2,0.4,0.3,0.6,0.4
			C18.4,14.3,18.6,14.4,18.8,14.5z"/>
		<path class="st1" d="M21.2,14c-0.1,0-0.1,0-0.1,0c-0.1,0.1-0.1,0.2-0.2,0.2c-0.1,0.1-0.2,0.2-0.3,0.4c-0.1,0.1-0.2,0.3-0.3,0.4
			c0,0-0.1,0.1-0.1,0.1c0,0,0.1,0,0.1-0.1c0.1-0.2,0.2-0.3,0.4-0.5c0.1,0.2,0.3,0.3,0.4,0.4c0.2,0.2,0.4,0.3,0.6,0.5
			c0.2,0.1,0.3,0.2,0.5,0.4c0.1,0,0.2,0.1,0.3,0.1c-0.1-0.1-0.1-0.1-0.2-0.2c-0.2-0.2-0.4-0.3-0.7-0.5c-0.2-0.1-0.4-0.3-0.6-0.5
			c0,0-0.1-0.1-0.1-0.1c-0.1-0.2-0.2-0.2,0-0.4c0-0.1,0.1-0.1,0.1-0.2C21.1,14.2,21.1,14.1,21.2,14z"/>
		<path class="st1" d="M15.8,9.2c-0.2-0.2-0.4-0.3-0.6-0.4c-0.1-0.1-0.2-0.2-0.4-0.3c-0.1-0.1-0.2-0.1-0.4-0.2c0,0,0,0,0,0
			c0.1,0,0.2,0.1,0.4,0.2c0.1,0.1,0.3,0.2,0.4,0.3C15.5,9,15.7,9.1,15.8,9.2C16.1,9.5,16,9.3,15.8,9.2z"/>
		<path class="st1" d="M12,13.1c0.1,0.1,0.3,0.1,0.4,0.2c0.3,0.2,0.6,0.3,0.9,0.4c0.1,0,0.2,0.1,0.3,0.1c0.3,0.1,0.5,0.2,0.8,0.3
			c0,0,0,0,0,0c0,0-0.1-0.1-0.1-0.1c-0.4-0.1-0.7-0.3-1.1-0.5c-0.1,0-0.1,0-0.2-0.1c-0.3-0.1-0.5-0.2-0.8-0.4
			C12.1,13.1,11.8,13,12,13.1z"/>
		<path class="st1" d="M18,10.9c-0.1-0.1-0.2-0.3-0.4-0.4c-0.5-0.3-0.9-0.6-1.4-0.9c-0.4-0.3,0.2,0.2,0.3,0.3c0.3,0.2,0.6,0.4,1,0.6
			c0.1,0.1,0.2,0.2,0.3,0.3C17.9,10.9,17.9,11,18,10.9z"/>
		<path class="st1" d="M12.4,10.3c-0.1,0.1-0.2,0.2-0.2,0.3c0,0.1,0,0.2,0,0.3c0,0.2-0.1,0.4-0.2,0.5c-0.1,0.2-0.1,0.2,0,0.3
			c0.1,0.2,0.5,0.2,0.3,0.2c-0.1-0.1-0.2-0.1-0.3-0.2c-0.1-0.1,0-0.1,0-0.2c0,0,0.1-0.1,0.1-0.1c0.1-0.2,0.1-0.4,0.1-0.7
			c0-0.1,0-0.2,0-0.3C12.4,10.4,12.4,10.4,12.4,10.3L12.4,10.3z"/>
		<path class="st1" d="M22.4,17.5C22.4,17.5,22.4,17.5,22.4,17.5c-0.2-0.1-0.3-0.2-0.4-0.3c-0.2-0.1-0.3-0.2-0.5-0.2
			c-0.1,0-0.2-0.1-0.3-0.1c-0.3-0.1-0.6-0.1-0.9-0.2c-0.3-0.1-0.5-0.2-0.8-0.3c-0.1-0.1-0.2-0.1-0.2-0.2c0,0,0,0,0,0
			c0,0-0.1-0.1-0.1-0.1c-0.1,0,0,0.1,0,0.1c0.1,0.1,0.3,0.3,0.4,0.4c0.1,0,0.2,0.1,0.4,0.2c0.1,0,0.2,0.1,0.3,0.1
			c0.4,0.1,0.7,0.1,1.1,0.3c0.2,0.1,0.4,0.1,0.6,0.3c0.1,0.1,0.2,0.1,0.3,0.2C22.3,17.5,22.4,17.5,22.4,17.5z"/>
		<path class="st1" d="M15.3,10.8c0.2,0.2,0.5,0.3,0.7,0.5c0.1,0.1,0.2,0.1,0.3,0.2c0.2,0.1,0.3,0.2,0.4,0.3c0,0,0.1,0.1,0.2,0.1
			c-0.1-0.1-0.2-0.2-0.3-0.3c-0.3-0.2-0.5-0.3-0.8-0.5c-0.2-0.1-0.3-0.2-0.4-0.3C15,10.5,15,10.6,15.3,10.8z"/>
		<path class="st1" d="M16.6,12.5c0-0.1-0.1-0.1-0.1-0.1c-0.3-0.1-0.6-0.3-0.9-0.5c-0.3-0.2-0.5-0.3-0.7-0.5c0,0-0.1-0.1-0.1-0.1
			c-0.3-0.2-0.5-0.2-0.3-0.1c0.2,0.1,0.4,0.3,0.7,0.4c0.2,0.2,0.5,0.3,0.7,0.5c0.2,0.1,0.5,0.2,0.7,0.4
			C16.5,12.5,16.6,12.5,16.6,12.5z"/>
		<path class="st1" d="M18.1,16.2c-0.2-0.1-0.5-0.2-0.7-0.3c-0.3-0.1-0.5-0.3-0.7-0.5c0,0-0.1-0.1-0.1-0.1c-0.1-0.1-0.2-0.2-0.3-0.3
			c-0.1-0.1-0.2-0.2-0.3-0.3c-0.3-0.2-0.5-0.3-0.9-0.4c-0.1,0-0.1,0-0.2,0c0,0.1,0.1,0.1,0.1,0.1c0.5,0.1,0.9,0.3,1.2,0.6
			c0.3,0.3,0.6,0.5,0.9,0.7c0.2,0.1,0.4,0.2,0.6,0.3C17.8,16.1,18,16.2,18.1,16.2z"/>
		<path class="st1" d="M23.1,16.2c0-0.1-0.1-0.1-0.2-0.1c-0.3-0.2-0.5-0.4-0.7-0.5c-0.3-0.2-0.6-0.5-0.9-0.8
			c-0.2-0.1-0.2-0.2-0.1-0.4c0-0.1,0.1-0.1,0.1-0.2c0-0.1,0.1-0.1,0.1-0.2c0,0,0,0,0-0.1c0,0,0,0-0.1,0c-0.2,0.2-0.3,0.4-0.3,0.7
			c0,0.1,0,0.1,0.1,0.1c0.1,0.1,0.3,0.2,0.4,0.4c0.1,0.1,0.3,0.2,0.4,0.3c0.2,0.2,0.5,0.4,0.8,0.6C22.9,16.1,23,16.1,23.1,16.2z"/>
		<path class="st1" d="M15.4,9.3c-0.2-0.1-0.3-0.2-0.5-0.4c0,0,0,0-0.1,0c0,0,0,0.1,0,0.1c0.1,0.1,0.2,0.2,0.4,0.3
			C15.5,9.4,15.8,9.5,15.4,9.3z"/>
		<path class="st1" d="M16.3,13.7c0,0.1,0,0.1,0.1,0.1c0.2,0.1,0.4,0.2,0.6,0.4c0.4,0.3,0.9,0.6,1.3,0.9c0,0,0.1,0.1,0.1,0.1
			c0.2,0.1,0.4,0.2,0.6,0.4c0.1,0.1,0.3,0.1,0.4,0.2c0-0.1,0-0.1-0.1-0.1c-0.2-0.1-0.3-0.2-0.5-0.3c-0.1-0.1-0.2-0.1-0.3-0.2
			c-0.2-0.1-0.4-0.3-0.6-0.4c-0.3-0.2-0.6-0.4-0.9-0.6c-0.1-0.1-0.3-0.2-0.4-0.3C16.5,13.8,16.4,13.8,16.3,13.7z"/>
		<path class="st1" d="M15.1,9.4c-0.1-0.1-0.2-0.2-0.3-0.3c-0.1-0.1-0.2-0.2-0.3-0.3c-0.1-0.1-0.3-0.3-0.5-0.3
			c-0.2-0.1-0.4-0.2-0.6-0.3c-0.1,0-0.2-0.1-0.2-0.2c-0.2-0.1-0.4-0.2-0.5-0.4c-0.1-0.1-0.2-0.2-0.3-0.3c0,0,0,0,0,0
			c0,0,0-0.1-0.1,0c0,0,0,0,0,0.1c0.1,0,0.1,0.1,0.2,0.2c0.1,0.1,0.3,0.2,0.4,0.3C12.9,8,13,8.1,13.1,8.2c0.1,0.1,0.2,0.1,0.4,0.2
			c0.2,0.1,0.4,0.2,0.5,0.3c0.1,0.1,0.3,0.2,0.4,0.3c0,0.1,0.1,0.1,0.2,0.2C14.7,9.2,14.9,9.4,15.1,9.4C15.1,9.5,15.1,9.5,15.1,9.4z
			"/>
		<path class="st1" d="M9.4,10.3c0,0.1,0.1,0.1,0.1,0.1c0.3,0.1,0.6,0.3,0.8,0.5c0.3,0.3,0.5,0.5,0.7,0.9c0.1,0.1,0.2,0.3,0.3,0.4
			c0,0,0.1,0.1,0.1,0.1c0,0,0,0,0-0.1c-0.2-0.1-0.3-0.3-0.4-0.5c-0.2-0.3-0.5-0.6-0.8-0.9c-0.2-0.1-0.3-0.3-0.5-0.4
			C9.7,10.3,9.6,10.3,9.4,10.3z"/>
		<path class="st1" d="M12.5,11.2c0,0.1,0.1,0.1,0.1,0.1c0.3,0.1,0.6,0.3,0.8,0.5c0.3,0.3,0.5,0.5,0.7,0.9c0.1,0.1,0.2,0.3,0.3,0.4
			c0,0,0.1,0.1,0.1,0.1c0,0,0,0,0-0.1c-0.2-0.1-0.3-0.3-0.4-0.5c-0.2-0.3-0.5-0.6-0.8-0.9c-0.2-0.1-0.3-0.3-0.5-0.4
			C12.8,11.2,12.7,11.2,12.5,11.2z"/>
		<path class="st1" d="M16.8,9.6c0.2,0.1,0.3,0.2,0.5,0.4c0.1,0.1,0.2,0.2,0.3,0.2c0.1,0,0.1,0.1,0.2,0.2c0,0.1,0.1,0.2,0.2,0.3
			c0,0,0,0,0.1,0c0,0,0-0.1,0-0.1c0,0-0.1-0.1-0.1-0.2c-0.1-0.1-0.2-0.2-0.3-0.3c-0.1-0.1-0.2-0.2-0.3-0.3c-0.1-0.1-0.2-0.1-0.3-0.2
			C16.7,9.5,16.6,9.5,16.8,9.6z"/>
		<path class="st1" d="M22.7,16.5c-0.1-0.1-0.3-0.2-0.4-0.3c-0.4-0.2-0.7-0.5-1-0.8c-0.2-0.1-0.3-0.3-0.5-0.4c0,0,0,0-0.1,0
			s0,0,0,0.1c0,0,0,0,0,0c0.1,0.1,0.3,0.3,0.4,0.4c0.2,0.2,0.5,0.3,0.7,0.5c0.2,0.1,0.4,0.3,0.6,0.4C22.5,16.5,22.6,16.5,22.7,16.5z
			"/>
		<path class="st1" d="M25.5,17.6c-0.2-0.2-0.3-0.4-0.4-0.6c-0.1-0.2-0.3-0.4-0.5-0.5c-0.2-0.1-0.3-0.3-0.5-0.5
			C24,16,24,15.9,23.9,15.9c0,0-0.1,0-0.1,0c0.1,0.1,0.1,0.1,0.2,0.2c0.2,0.1,0.3,0.3,0.4,0.4c0.1,0.1,0.3,0.2,0.4,0.4
			c0.1,0.1,0.1,0.1,0.2,0.2c0.1,0.2,0.3,0.4,0.4,0.5C25.4,17.6,25.5,17.6,25.5,17.6z"/>
		<path class="st1" d="M14.8,10.9c0,0.1,0.1,0.1,0.1,0.1c0.1,0.1,0.3,0.2,0.4,0.3s0.3,0.2,0.4,0.3c0.3,0.2,0.6,0.4,0.8,0.6
			c0,0,0.1,0.1,0.1,0C16,11.8,15.5,11.3,14.8,10.9z"/>
		<path class="st1" d="M14.4,8.1C14.4,8.1,14.4,8.1,14.4,8.1c-0.3-0.1-0.6-0.2-0.8-0.3c-0.4-0.2-0.7-0.4-1.1-0.6
			c-0.1,0-0.1-0.1-0.2-0.1c0,0.1,0.1,0.1,0.1,0.1c0.3,0.1,0.5,0.3,0.7,0.4C13.4,7.8,13.7,8,14,8.1C14.1,8.1,14.2,8.1,14.4,8.1
			C14.4,8.2,14.4,8.2,14.4,8.1z"/>
		<path class="st1" d="M13,13C13,12.9,13,12.9,13,13c-0.3-0.1-0.6-0.2-0.8-0.3c-0.4-0.2-0.7-0.4-1.1-0.6C11,12,11,12,10.9,11.9
			C10.9,12,11,12,11,12c0.3,0.1,0.5,0.3,0.7,0.4c0.3,0.1,0.6,0.4,0.9,0.5C12.7,12.9,12.8,13,13,13C13,13,13,13,13,13z"/>
		<path class="st1" d="M23.1,15.9c-0.2-0.1-0.4-0.3-0.5-0.4c-0.2-0.2-0.4-0.3-0.6-0.5c-0.2-0.1-0.3-0.3-0.4-0.4c0,0,0,0-0.1-0.1
			c0,0,0,0,0,0c0,0,0,0,0,0.1c0.1,0.1,0.2,0.2,0.3,0.3c0.2,0.1,0.4,0.3,0.6,0.4c0.2,0.1,0.4,0.3,0.5,0.4
			C22.9,15.9,23,15.9,23.1,15.9z"/>
		<path class="st1" d="M3.3,3.2c0.1,0.1,0.3,0.2,0.5,0.4C3.8,3.7,3.9,3.7,4,3.8c0,0,0,0,0,0c0,0,0,0,0.1,0c0,0,0,0,0-0.1
			c0,0-0.1-0.1-0.1-0.1C3.8,3.5,3.5,3.2,3.2,3c0,0-0.1-0.1-0.1-0.1c0,0-0.1,0-0.1,0C3,3,3,3,3,3C3.1,3.1,3.2,3.1,3.3,3.2z"/>
		<path class="st1" d="M21.9,14.4c-0.1,0-0.1-0.1-0.2-0.1l0,0C21.8,14.4,21.8,14.4,21.9,14.4L21.9,14.4z"/>
		<path class="st1" d="M19.7,12.2C19.7,12.2,19.7,12.2,19.7,12.2C19.7,12.2,19.7,12.2,19.7,12.2C19.7,12.2,19.7,12.2,19.7,12.2
			C19.7,12.2,19.7,12.2,19.7,12.2z"/>
		<path class="st1" d="M19.6,11.4C19.7,11.5,19.7,11.5,19.6,11.4C19.7,11.5,19.7,11.5,19.6,11.4L19.6,11.4z"/>
	</g>
</g>
</svg>
