<?xml version="1.0" encoding="utf-8"?>
<!-- Generator: Adobe Illustrator 21.0.0, SVG Export Plug-In . SVG Version: 6.00 Build 0)  -->
<svg version="1.1" id="Layer_1" xmlns="http://www.w3.org/2000/svg" xmlns:xlink="http://www.w3.org/1999/xlink" x="0px" y="0px"
	 viewBox="0 0 30 32.2" style="enable-background:new 0 0 30 32.2;" xml:space="preserve">
<style type="text/css">
	.st0{fill:#FFFFFF;}
	.st1{fill:#BF1D70;}
</style>
<g>
	<path class="st0" d="M22.5,12.3c-0.3,0.1-0.7,0.2-1,0.2c-0.2,0-0.4,0-0.6,0.1c-0.1,0-0.2,0.1-0.3,0.1c-0.3,0-0.5,0.2-0.7,0.5
		c-0.1,0.2-0.2,0.3-0.4,0.5c-0.3,0.3-0.6,0.6-0.9,0.9c-0.2,0.3-0.4,0.6-0.5,1c0.7-0.1,1.3-0.2,1.8-0.7c0,0.1-0.1,0.2-0.2,0.3
		c-0.3,0.2-0.6,0.3-0.9,0.4c-0.2,0.1-0.4,0.1-0.6,0.1c-0.1,0-0.2,0.1-0.2,0.2c-0.1,0.4-0.3,0.8-0.5,1.1c-0.3,0.6-0.5,1.2-0.8,1.7
		c-0.2,0.4-0.4,0.8-0.7,1c0,0,0,0.1,0,0.1c0,0.2-0.1,0.4-0.2,0.5c-0.2,0.4-0.4,0.9-0.7,1.3c-0.2,0.2-0.3,0.3-0.5,0.5
		c-0.3,0.4-0.7,0.7-0.9,1.2c-0.5,0.8-1,1.6-1.6,2.4c-0.1,0.1-0.1,0.2-0.2,0.2c-0.2,0.1-0.3,0.3-0.5,0.4c-0.1,0.1-0.2,0.2-0.3,0.3
		c-0.3,0.2-0.6,0.4-0.8,0.7c-0.4,0.4-0.9,0.7-1.3,0.9c-0.2,0.1-0.4,0.2-0.7,0.4c-0.5,0.3-0.9,0.6-1.4,0.7c-0.3,0.1-0.5,0.2-0.8,0.4
		c0.2,0.1,0.3,0,0.5,0c0.3-0.1,0.6-0.1,0.9,0.1c0.1,0.1,0.3,0.1,0.4,0.1c0.3,0.1,0.6,0,0.9,0c0,0,0.1,0,0.1,0c0,0,0,0.1-0.1,0.1
		c-0.5,0.1-1,0.2-1.5,0c-0.3-0.1-0.6-0.2-0.9,0c-0.2,0.1-0.5,0.1-0.7,0c-0.1,0-0.2-0.1-0.3,0c-0.2,0-0.3,0-0.4-0.1
		c0-0.1,0.1-0.1,0.1-0.1c0.1,0,0.1,0,0.2-0.1c0-0.1,0-0.2-0.1-0.2c0,0-0.1,0-0.1,0c-0.2-0.1-0.4-0.2-0.5-0.3
		c-0.1-0.1-0.1-0.1-0.3-0.1c0.1,0.3,0.3,0.5,0.5,0.6c0.1,0,0.1,0,0.2,0.1c0,0,0.1,0.1,0.1,0.1c0,0.1-0.1,0.1-0.1,0
		c-0.1,0-0.3-0.1-0.3-0.1c-0.1-0.1-0.3-0.2-0.5-0.3c-0.2-0.2-0.4-0.4-0.5-0.7c0-0.1,0-0.2-0.1-0.3c-0.2-0.1-0.2-0.3-0.3-0.5
		c-0.1-0.2-0.1-0.5-0.2-0.7c0-0.3-0.2-0.5-0.5-0.6c0,0,0,0,0,0c0.1-0.1,0.3,0.1,0.4,0c0.2-0.5,0.1-0.9,0.1-1.4
		c-0.1-0.6,0-1.1,0.2-1.7c0.1-0.4,0.4-0.8,0.5-1.2c0.1-0.2,0.1-0.3,0.1-0.5c0-0.3-0.1-0.5,0-0.8c0.2-0.4,0.3-0.8,0.6-1.2
		c0.1-0.2,0.3-0.4,0.4-0.6c0.1-0.2,0.2-0.3,0.4-0.4C5,18.4,5.1,18.2,5.2,18c0.2-0.4,0.4-0.8,0.7-1.2c0.1-0.1,0.1-0.2,0.1-0.3
		c0.2-0.5,0.4-1,0.8-1.5c0,0,0-0.1,0-0.1c0.4-0.7,0.9-1.4,1.4-2c0.3-0.4,0.7-0.7,1.1-0.8c0.3-0.1,0.6-0.2,0.8-0.4
		c0.4-0.3,0.9-0.5,1.4-0.6c0.1,0,0.2,0,0.2-0.2c0,0,0-0.1,0.1-0.1c0.3-0.1,0.6-0.3,0.9-0.4c0.2-0.1,0.3-0.2,0.5-0.3
		c0.6-0.6,1.4-1,2.2-1.2c0.4-0.1,0.9-0.2,1.4-0.4c0.2,0,0.3-0.1,0.5-0.1c0.2,0,0.4-0.1,0.5-0.3C17.9,7.9,18,7.7,18,7.4
		c0-0.3,0-0.6,0.1-0.9c0-0.1,0-0.2,0-0.3c0-0.4,0.2-1,0.6-1.1c0,0.1-0.1,0.1-0.1,0.2c-0.3,0.3-0.3,0.6-0.3,1c0,0.1,0,0.2,0,0.2
		c-0.1,0.3-0.1,0.6-0.1,0.9c0,0.1,0,0.2-0.1,0.3C18.1,8,18,8.1,17.9,8.4c0.3-0.2,0.6-0.3,0.9-0.5c0.4-0.3,0.8-0.4,1.2-0.3
		c0.2,0,0.4,0,0.5-0.1c0.5-0.2,1-0.3,1.5-0.4c0.2,0,0.4-0.1,0.6,0c0.3,0.1,0.5,0,0.8,0c0.2,0,0.3-0.1,0.4-0.3
		C23.9,6.5,24,6.2,24.2,6c0.2-0.3,0.4-0.6,0.5-1c0-0.1,0-0.2,0.1-0.3c0,0.4,0,0.7-0.2,1C24.2,6.1,24,6.5,23.8,7
		c0.1,0.1,0.2,0.1,0.3,0.1C24.4,7,24.7,7,24.9,6.8c0.2-0.2,0.5-0.4,0.8-0.4c0.3-0.1,0.7-0.1,1-0.1c0.8,0,1.4-0.3,2-0.9
		c0.3-0.2,0.4-0.5,0.6-0.8c0,0,0,0.1,0,0.1c-0.1,0.3-0.3,0.6-0.5,0.8c-0.4,0.4-0.8,0.7-1.3,0.8c-0.4,0.2-0.9,0.1-1.3,0.2
		c-0.4,0-0.8,0.1-1.2,0.4C24.9,7,24.9,7,24.9,7.3c0,0.2,0,0.3-0.1,0.4c-0.3,0.2-0.5,0.5-0.6,0.8C24.1,8.6,24,8.7,24,8.9
		C24.1,8.9,24.2,9,24.3,9c0.2,0,0.3,0,0.5,0C25,9,25.2,9,25.4,8.8c0.1-0.1,0.2-0.2,0.3-0.2c0.3-0.3,0.6-0.6,1-0.8
		c0.3-0.2,0.7-0.4,1-0.7c0,0.1-0.1,0.2-0.2,0.3c-0.2,0.2-0.4,0.3-0.6,0.4c-0.5,0.3-1,0.7-1.4,1.2c-0.1,0.1-0.2,0.2-0.4,0.3
		c-0.4,0.1-0.7,0.1-1.1,0c-0.4-0.1-0.6,0-0.8,0.3c-0.2,0.3-0.4,0.6-0.7,0.9c-0.3,0.3-0.6,0.6-0.9,1c0,0.1-0.1,0.1-0.1,0.2
		c-0.2,0.2-0.4,0.5-0.6,0.6c-0.1,0-0.1,0.1-0.2,0.2c0.3-0.1,0.5-0.1,0.8-0.1c0.2,0,0.4,0,0.6,0c0.3-0.1,0.6-0.2,0.7-0.5
		C22.9,12,22.7,12.2,22.5,12.3z"/>
	<g>
		<g>
			<path id="SVGID_2_" class="st1" d="M22.5,12.3c-0.3,0.1-0.7,0.2-1,0.2c-0.2,0-0.4,0-0.6,0.1c-0.1,0-0.2,0.1-0.3,0.1
				c-0.3,0-0.5,0.2-0.7,0.5c-0.1,0.2-0.2,0.3-0.4,0.5c-0.3,0.3-0.6,0.6-0.9,0.9c-0.2,0.3-0.4,0.6-0.5,1c0.7-0.1,1.3-0.2,1.8-0.7
				c0,0.1-0.1,0.2-0.2,0.3c-0.3,0.2-0.6,0.3-0.9,0.4c-0.2,0.1-0.4,0.1-0.6,0.1c-0.1,0-0.2,0.1-0.2,0.2c-0.1,0.4-0.3,0.8-0.5,1.1
				c-0.3,0.6-0.5,1.2-0.8,1.7c-0.2,0.4-0.4,0.8-0.7,1c0,0,0,0.1,0,0.1c0,0.2-0.1,0.4-0.2,0.5c-0.2,0.4-0.4,0.9-0.7,1.3
				c-0.2,0.2-0.3,0.3-0.5,0.5c-0.3,0.4-0.7,0.7-0.9,1.2c-0.5,0.8-1,1.6-1.6,2.4c-0.1,0.1-0.1,0.2-0.2,0.2c-0.2,0.1-0.3,0.3-0.5,0.4
				c-0.1,0.1-0.2,0.2-0.3,0.3c-0.3,0.2-0.6,0.4-0.8,0.7c-0.4,0.4-0.9,0.7-1.3,0.9c-0.2,0.1-0.4,0.2-0.7,0.4
				c-0.5,0.3-0.9,0.6-1.4,0.7c-0.3,0.1-0.5,0.2-0.8,0.4c0.2,0.1,0.3,0,0.5,0c0.3-0.1,0.6-0.1,0.9,0.1c0.1,0.1,0.3,0.1,0.4,0.1
				c0.3,0.1,0.6,0,0.9,0c0,0,0.1,0,0.1,0c0,0,0,0.1-0.1,0.1c-0.5,0.1-1,0.2-1.5,0c-0.3-0.1-0.6-0.2-0.9,0c-0.2,0.1-0.5,0.1-0.7,0
				c-0.1,0-0.2-0.1-0.3,0c-0.2,0-0.3,0-0.4-0.1c0-0.1,0.1-0.1,0.1-0.1c0.1,0,0.1,0,0.2-0.1c0-0.1,0-0.2-0.1-0.2c0,0-0.1,0-0.1,0
				c-0.2-0.1-0.4-0.2-0.5-0.3c-0.1-0.1-0.1-0.1-0.3-0.1c0.1,0.3,0.3,0.5,0.5,0.6c0.1,0,0.1,0,0.2,0.1c0,0,0.1,0.1,0.1,0.1
				c0,0.1-0.1,0.1-0.1,0c-0.1,0-0.3-0.1-0.3-0.1c-0.1-0.1-0.3-0.2-0.5-0.3c-0.2-0.2-0.4-0.4-0.5-0.7c0-0.1,0-0.2-0.1-0.3
				c-0.2-0.1-0.2-0.3-0.3-0.5c-0.1-0.2-0.1-0.5-0.2-0.7c0-0.3-0.2-0.5-0.5-0.6c0,0,0,0,0,0c0.1-0.1,0.3,0.1,0.4,0
				c0.2-0.5,0.1-0.9,0.1-1.4c-0.1-0.6,0-1.1,0.2-1.7c0.1-0.4,0.4-0.8,0.5-1.2c0.1-0.2,0.1-0.3,0.1-0.5c0-0.3-0.1-0.5,0-0.8
				c0.2-0.4,0.3-0.8,0.6-1.2c0.1-0.2,0.3-0.4,0.4-0.6c0.1-0.2,0.2-0.3,0.4-0.4C5,18.4,5.1,18.2,5.2,18c0.2-0.4,0.4-0.8,0.7-1.2
				c0.1-0.1,0.1-0.2,0.1-0.3c0.2-0.5,0.4-1,0.8-1.5c0,0,0-0.1,0-0.1c0.4-0.7,0.9-1.4,1.4-2c0.3-0.4,0.7-0.7,1.1-0.8
				c0.3-0.1,0.6-0.2,0.8-0.4c0.4-0.3,0.9-0.5,1.4-0.6c0.1,0,0.2,0,0.2-0.2c0,0,0-0.1,0.1-0.1c0.3-0.1,0.6-0.3,0.9-0.4
				c0.2-0.1,0.3-0.2,0.5-0.3c0.6-0.6,1.4-1,2.2-1.2c0.4-0.1,0.9-0.2,1.4-0.4c0.2,0,0.3-0.1,0.5-0.1c0.2,0,0.4-0.1,0.5-0.3
				C17.9,7.9,18,7.7,18,7.4c0-0.3,0-0.6,0.1-0.9c0-0.1,0-0.2,0-0.3c0-0.4,0.2-1,0.6-1.1c0,0.1-0.1,0.1-0.1,0.2
				c-0.3,0.3-0.3,0.6-0.3,1c0,0.1,0,0.2,0,0.2c-0.1,0.3-0.1,0.6-0.1,0.9c0,0.1,0,0.2-0.1,0.3C18.1,8,18,8.1,17.9,8.4
				c0.3-0.2,0.6-0.3,0.9-0.5c0.4-0.3,0.8-0.4,1.2-0.3c0.2,0,0.4,0,0.5-0.1c0.5-0.2,1-0.3,1.5-0.4c0.2,0,0.4-0.1,0.6,0
				c0.3,0.1,0.5,0,0.8,0c0.2,0,0.3-0.1,0.4-0.3C23.9,6.5,24,6.2,24.2,6c0.2-0.3,0.4-0.6,0.5-1c0-0.1,0-0.2,0.1-0.3
				c0,0.4,0,0.7-0.2,1C24.2,6.1,24,6.5,23.8,7c0.1,0.1,0.2,0.1,0.3,0.1C24.4,7,24.7,7,24.9,6.8c0.2-0.2,0.5-0.4,0.8-0.4
				c0.3-0.1,0.7-0.1,1-0.1c0.8,0,1.4-0.3,2-0.9c0.3-0.2,0.4-0.5,0.6-0.8c0,0,0,0.1,0,0.1c-0.1,0.3-0.3,0.6-0.5,0.8
				c-0.4,0.4-0.8,0.7-1.3,0.8c-0.4,0.2-0.9,0.1-1.3,0.2c-0.4,0-0.8,0.1-1.2,0.4C24.9,7,24.9,7,24.9,7.3c0,0.2,0,0.3-0.1,0.4
				c-0.3,0.2-0.5,0.5-0.6,0.8C24.1,8.6,24,8.7,24,8.9C24.1,8.9,24.2,9,24.3,9c0.2,0,0.3,0,0.5,0C25,9,25.2,9,25.4,8.8
				c0.1-0.1,0.2-0.2,0.3-0.2c0.3-0.3,0.6-0.6,1-0.8c0.3-0.2,0.7-0.4,1-0.7c0,0.1-0.1,0.2-0.2,0.3c-0.2,0.2-0.4,0.3-0.6,0.4
				c-0.5,0.3-1,0.7-1.4,1.2c-0.1,0.1-0.2,0.2-0.4,0.3c-0.4,0.1-0.7,0.1-1.1,0c-0.4-0.1-0.6,0-0.8,0.3c-0.2,0.3-0.4,0.6-0.7,0.9
				c-0.3,0.3-0.6,0.6-0.9,1c0,0.1-0.1,0.1-0.1,0.2c-0.2,0.2-0.4,0.5-0.6,0.6c-0.1,0-0.1,0.1-0.2,0.2c0.3-0.1,0.5-0.1,0.8-0.1
				c0.2,0,0.4,0,0.6,0c0.3-0.1,0.6-0.2,0.7-0.5C22.9,12,22.7,12.2,22.5,12.3z M19.8,12.8c0.1-0.2,0.2-0.5,0.2-0.7
				c0-0.1,0-0.1-0.1-0.2c-0.1,0-0.1-0.1,0-0.2c0.1,0,0.1-0.1,0.1-0.2c0-0.1,0-0.1-0.1-0.1c0,0-0.1,0-0.1,0c0-0.1,0-0.1,0.1-0.1
				c0.2,0,0.2-0.1,0.2-0.3c0-0.1,0-0.2,0.1-0.3c0-0.1,0-0.1-0.1-0.2c-0.1,0-0.1-0.1,0-0.1c0.1,0,0.1-0.1,0.1-0.2
				c-0.2-0.4-0.4-0.7-0.6-1.1c-0.1-0.1-0.2-0.2-0.3-0.3c0,0-0.1-0.1-0.1-0.1c0,0,0.1,0,0.1,0c0.2,0.1,0.4,0.2,0.5,0.5
				c0.2,0.3,0.4,0.6,0.5,0.9c0.1,0.2,0.1,0.4,0.1,0.6c-0.1,0.4-0.2,0.9-0.2,1.3c0,0.2-0.1,0.4-0.2,0.6c0.1,0,0.2,0,0.3-0.1
				c0.6-0.4,1.1-0.9,1.5-1.5c0.1-0.2,0.3-0.4,0.5-0.5c0.4-0.3,0.7-0.7,0.9-1.2c0,0,0.1-0.1,0-0.1c-0.1-0.1-0.1,0.1-0.2,0
				c0.1-0.1,0.2-0.2,0.4-0.2c0.1,0,0.2,0,0.2-0.2c0,0,0-0.1,0.1-0.1c0.4-0.3,0.6-0.8,0.9-1.1c0.1-0.1,0.1-0.2,0-0.3
				c-0.1-0.1-0.2-0.1-0.2,0c-0.1,0.1-0.2,0.1-0.4,0.1c-0.1,0-0.3-0.1-0.4-0.1s-0.3,0-0.4,0c0.1,0.3,0.4,0.5,0.5,0.7
				c-0.2-0.1-0.4-0.2-0.6-0.4c-0.2-0.3-0.5-0.3-0.9-0.3c0.1,0.2,0.3,0.4,0.5,0.5c0.3,0.2,0.4,0.5,0.2,0.8c0.1-0.4-0.1-0.7-0.4-0.9
				c-0.1,0-0.1-0.1-0.1-0.1c-0.3-0.3-0.7-0.4-1.1-0.2c0.3,0.1,0.5,0.2,0.7,0.5c0.2,0.2,0.2,0.5,0.1,0.8c0.1-0.6-0.3-0.8-0.7-1
				c-0.4-0.2-0.6-0.2-0.9,0C20.7,7.8,20.8,7.9,21,8c0.3,0.2,0.6,0.5,0.8,0.8c0.1,0.2,0.1,0.3,0,0.5c-0.1-0.6-0.5-0.9-1-1.2
				C20.8,8.1,20.7,8,20.6,8c-0.5-0.4-1.1-0.4-1.6-0.1c-0.3,0.2-0.6,0.3-0.9,0.4C18,8.4,18,8.5,18,8.7c0,0.1,0.1,0.2-0.1,0.3
				c-0.1-0.1-0.1-0.2-0.1-0.3c0-0.1-0.1-0.2-0.2-0.1c-0.2,0.1-0.5,0-0.7,0.1c-0.2,0.1-0.5,0.2-0.7,0.2c-0.2,0-0.1,0.2-0.3,0.2
				c-0.1-0.1-0.2,0-0.4,0c-0.4,0.1-0.8,0.3-1.1,0.5c-0.3,0.2-0.5,0.3-0.8,0.6c0,0-0.1,0.1-0.1,0.1c0.6-0.1,1.1,0.1,1.7,0.3
				c0.1,0,0.3,0.1,0.4,0.2c0.2,0.1,0.4,0.3,0.7,0.4c0.2,0.1,0.3,0.2,0.4,0.4c-1.4-0.8-1.5-0.9-1.9-0.9c0.1,0.2,0.1,0.3,0.3,0.4
				c0.2,0.1,0.3,0.2,0.5,0.3c0.6,0.3,0.8,0.8,0.9,1.5c-0.1,0-0.1-0.1-0.1-0.1c-0.1-0.2-0.1-0.4-0.2-0.6c-0.2-0.4-0.5-0.6-0.9-0.7
				c-0.2-0.1-0.3-0.2-0.5-0.4c-0.1-0.2-0.3-0.3-0.5-0.4c0,0-0.1,0-0.1,0c-0.5,0.1-1,0.1-1.4,0.4c0.4,0.1,0.7,0.2,1.1,0.4
				c0.3,0.2,0.7,0.3,1,0.7c-0.1,0-0.1,0-0.2-0.1c-0.4-0.3-0.9-0.5-1.3-0.7c-0.4-0.2-0.7-0.2-1.1-0.1c-0.2,0.1-0.4,0.2-0.6,0.2
				c-0.2,0-0.3,0.1-0.5,0.2c-0.2,0.1-0.4,0.2-0.5,0.4c0.3,0,0.6-0.1,0.9-0.1c0.6-0.1,1.1,0,1.6,0.2c0.3,0.1,0.6,0.2,0.9,0.4
				c-0.1,0.1-0.2,0-0.2,0c-0.4-0.1-0.7-0.2-1.1-0.4c-0.4-0.1-0.8-0.2-1.3,0c0.2,0.1,0.4,0,0.6,0.1c0.5,0.1,1,0.2,1.4,0.4
				c0.1,0,0.2,0.1,0.3,0.1c0.4,0.1,0.6,0.4,0.9,0.6c0.2,0.2,0.4,0.5,0.5,0.7c0.1,0.2,0.2,0.3,0.3,0.5c0.1,0.2,0.2,0.4,0.2,0.6
				c0,0.2,0.1,0.3,0.2,0.5c0,0.1,0.1,0.1,0.1,0.2c0,0,0,0.1,0,0.1c0,0-0.1,0-0.2-0.1c-0.1-0.3-0.3-0.5-0.3-0.8
				c0-0.1-0.1-0.2-0.1-0.4c-0.1-0.2-0.2-0.5-0.4-0.7c-0.4-0.6-0.9-1.1-1.6-1.3c-0.3-0.1-0.7-0.2-1-0.3c-0.4-0.1-0.8-0.1-1.3-0.1
				c0,0-0.1,0-0.1,0c-0.1,0.1-0.2,0.2-0.3,0c-0.1,0-0.1,0-0.2,0c-0.1,0.1-0.2,0.1-0.3,0.2c-0.4,0-0.7,0.2-1.1,0.4
				c-0.2,0.1-0.3,0.3-0.5,0.5c-0.6,0.8-1.2,1.5-1.6,2.4c0,0,0,0.1,0,0.1c0.1,0.1,0.1,0,0.2,0c0.2-0.1,0.4-0.3,0.6-0.4
				c0.2-0.2,0.5-0.2,0.8-0.2c0.3,0,0.9-0.1,1.3,0c-0.2,0.1-0.2,0.1-0.5,0.1c-0.5,0-1,0-1.4,0.3c-0.3,0.1-0.5,0.3-0.8,0.4
				c-0.2,0.1-0.3,0.3-0.4,0.5c-0.3,0.6-0.6,1.1-1,1.6c0,0.1-0.1,0.1-0.1,0.2c-0.1,0.2-0.2,0.4-0.4,0.5c-0.1,0-0.2,0.1-0.2,0.2
				c-0.3,0.4-0.6,0.8-0.9,1.2c0,0-0.1,0.1-0.1,0.2C4,20,4.2,19.9,4.4,19.8c0.5-0.3,1.1-0.4,1.7-0.5c0.5,0,1,0,1.6,0
				c0.5,0,0.8,0.2,1.2,0.5c-0.2,0-0.3-0.1-0.5-0.2c-0.4-0.1-0.8-0.1-1.2-0.2c-0.7,0-1.3,0-2,0.1C4.8,19.7,4.4,20,4,20.2
				c-0.1,0-0.1,0.1-0.2,0.1c-0.2,0.1-0.3,0.4-0.4,0.6c-0.1,0.1,0,0.2,0,0.3c0.1,0.4,0,0.7-0.1,1c-0.1,0.2-0.1,0.4-0.3,0.6
				c0.3-0.1,0.5-0.2,0.7-0.3c0.5-0.3,1-0.4,1.6-0.2c0.5,0.1,1,0.2,1.5,0.4c0.6,0.1,1.1,0.4,1.6,0.8c0.1,0.1,0.3,0.2,0.4,0.3
				c0.4,0.3,0.7,0.7,0.8,1.1c0,0.1,0.1,0.2,0.1,0.4c-0.1-0.1-0.1-0.3-0.2-0.4c-0.2-0.4-0.4-0.8-0.8-1c-0.2-0.1-0.4-0.3-0.6-0.5
				c-0.4-0.3-0.8-0.5-1.3-0.6c-0.5-0.1-1.1-0.2-1.6-0.4c-0.5-0.1-1-0.1-1.4,0.2C3.6,23,3.3,23,3,23.2c-0.1,0-0.1,0.1-0.2,0.2
				c0,0.1-0.1,0.3-0.1,0.4c0,0.2-0.1,0.5-0.1,0.8c0,0.1,0,0.1,0.1,0.2c0.3-0.3,0.7-0.3,1-0.5c0.4-0.2,0.8-0.4,1.3-0.3
				c0.3,0.1,0.5,0.1,0.7,0.3c0.3,0.1,0.5,0.3,0.7,0.5c0.4,0.4,0.8,0.8,1.1,1.4c-0.1,0-0.1-0.1-0.2-0.2c-0.3-0.5-0.7-0.9-1.1-1.2
				c-0.4-0.3-0.9-0.5-1.4-0.6c-0.2,0-0.4,0-0.5,0.1c-0.4,0.1-0.7,0.3-1.1,0.4c-0.1,0-0.2,0.1-0.3,0.1c-0.2,0.1-0.3,0.2-0.3,0.5
				c0.1,0.3,0.1,0.7,0,1c-0.1,0.2,0,0.3,0.2,0.4c0.1,0,0.2,0.1,0.3,0.1c0.1,0,0.1,0.1,0.2,0.2c0.1,0.2,0.2,0.4,0.3,0.7
				c0.1,0.1,0.1,0.2,0.1,0.4c0,0.1,0.1,0.2,0.2,0.2c0.1,0,0.2,0,0.4,0.1c0-0.2-0.2-0.2-0.2-0.4c0.2,0,0.2,0.1,0.3,0.2
				c0.2,0.1,0.2,0.1,0.3-0.1c0-0.2,0.1-0.3,0.2-0.4c0.1-0.1,0-0.2-0.1-0.2c-0.2-0.1-0.4-0.2-0.7-0.3c-0.1,0-0.1,0-0.1-0.1
				c0.1-0.1,0.2,0,0.3,0c0.2,0.1,0.4,0.1,0.6,0.2c0.1,0,0.2,0,0.2-0.1c0.1-0.2,0.2-0.3,0.4-0.4c0.2-0.1,0.3-0.2,0.4-0.4
				c0,0.2,0,0.3-0.2,0.4c-0.1,0.1-0.2,0.2-0.3,0.2c-0.1,0-0.1,0.1-0.2,0.2c-0.1,0.2-0.1,0.2,0.1,0.3c0.2,0.1,0.4,0.3,0.6,0.5
				C6.1,28,6.3,28,6.5,27.9c0.2-0.1,0.4-0.1,0.5,0c0.1,0,0.2,0,0.1,0.1C7.2,28.1,7,28.1,7,28c-0.1,0-0.2,0-0.3,0c-0.1,0-0.1,0-0.2,0
				c-0.2,0.1-0.2,0.2,0,0.3c0.2,0.1,0.2,0.2,0.2,0.4c0,0,0,0.1,0,0.2c0.6-0.1,0.9-0.6,0.8-1.1c-0.1-0.4-0.2-0.8-0.5-1
				c-0.2-0.2-0.3-0.3-0.5-0.5c-0.3-0.3-0.6-0.4-0.9-0.6c-0.3-0.1-0.6-0.3-0.9-0.4c-0.2-0.1-0.4-0.1-0.6-0.2c0.4-0.1,0.7,0,0.9,0.1
				c0.2,0.1,0.4,0.3,0.6,0.3c0.6,0.1,1,0.5,1.3,0.9c0.1,0.1,0.2,0.2,0.3,0.3c0.3,0.2,0.4,0.5,0.5,0.8c0.1,0.2,0,0.5,0,0.7
				c0,0.1,0,0.2,0,0.3c0.3-0.2,0.6-0.3,0.9-0.5c0.1-0.1,0.2-0.2,0.2-0.4c0-0.6-0.2-1.2-0.5-1.7c-0.2-0.2-0.3-0.5-0.5-0.7
				c-0.2-0.2-0.3-0.4-0.5-0.5c0.1-0.1,0.1,0,0.1,0c0.2,0.2,0.4,0.3,0.5,0.5c0.2,0.3,0.4,0.5,0.7,0.7c0.2,0.1,0.3,0.3,0.4,0.6
				c0.1,0.3,0.3,0.6,0.4,1c0.1,0,0.1,0,0.1,0c0.4-0.3,0.9-0.7,1.3-1.1c0.2-0.2,0.3-0.4,0.2-0.7c0-0.2-0.1-0.3-0.2-0.5
				c-0.2-0.6-0.6-1.1-1-1.6c-0.1-0.2-0.3-0.3-0.5-0.4C9,23,8.7,22.8,8.5,22.7c-0.1,0-0.1-0.1-0.1-0.2c0.1,0,0.2,0.1,0.3,0.2
				c0.2,0.2,0.4,0.3,0.7,0.4c0.3,0.2,0.5,0.4,0.7,0.7c0.3,0.4,0.6,0.9,0.8,1.4c0.1,0.1,0.1,0.2,0.1,0.4c0,0.1,0,0.2,0.1,0.3
				c0.2-0.3,0.4-0.7,0.4-1.1c0.1-0.5,0.1-1,0-1.6c-0.1-0.3-0.2-0.6-0.4-0.9c-0.2-0.3-0.2-0.6-0.3-1c0.1,0.1,0.1,0.1,0.2,0.2
				c0.1,0.4,0.4,0.8,0.6,1.3c0.3,0.7,0.3,1.4,0.1,2.1c0,0.2-0.1,0.4-0.2,0.6c0.1,0,0.1-0.1,0.2-0.1c0.4-0.6,0.9-1.3,1.3-1.9
				c0.2-0.3,0.3-0.5,0.4-0.8c0-0.1,0.1-0.2,0.1-0.4c0-0.4,0-0.7-0.1-1.1c0-0.1,0-0.2-0.1-0.2c-0.2-0.5-0.3-1-0.4-1.5
				c0-0.1,0-0.1-0.1-0.2c-0.2-0.3-0.4-0.7-0.6-1.1c-0.2-0.3-0.4-0.5-0.7-0.6c-0.4-0.2-0.9-0.3-1.2-0.6c0,0,0-0.1-0.1-0.1
				c0.1,0,0.2,0.1,0.3,0.1c0.2,0.1,0.4,0.2,0.6,0.3c0.3,0.1,0.5,0.3,0.8,0.4c0.2,0.1,0.4,0.3,0.5,0.5c0.2,0.4,0.4,0.8,0.6,1.1
				c0.1,0.2,0.2,0.4,0.2,0.6c0.1,0.3,0.1,0.6,0.3,0.8c0.1,0.2,0.1,0.4,0.1,0.6c0,0.4,0.1,0.7,0.1,1.1c0,0,0.1,0,0.1,0
				c0.3-0.4,0.6-0.7,0.9-1c0.3-0.3,0.4-0.7,0.6-1.1c0.3-0.5,0.3-1.1,0.3-1.6c0-0.4-0.2-0.7-0.4-0.9c-0.3-0.3-0.7-0.6-1-0.9
				c-0.3-0.3-0.6-0.6-0.8-1c-0.1-0.2-0.3-0.4-0.5-0.6c-0.1-0.1-0.2-0.1-0.2-0.3c0.2,0,0.4,0.2,0.5,0.3c0.1,0.1,0.2,0.1,0.3,0.1
				c0.3,0,0.5,0.2,0.6,0.4c0.2,0.3,0.4,0.6,0.6,0.8c0.2,0.3,0.4,0.5,0.5,0.8c0,0.1,0.1,0.2,0.3,0.2c-0.1-0.5-0.3-1-0.5-1.4
				c0.2,0.2,0.4,0.5,0.5,0.8c0.1,0.4,0.3,0.7,0.4,1c0.1,0.2,0.1,0.4,0.1,0.7c0,0,0,0.1,0,0.1c-0.2,0.2-0.2,0.4-0.2,0.7
				c0.2-0.1,0.3-0.3,0.4-0.4c0.3-0.6,0.6-1.3,0.9-1.9c0.2-0.3,0.4-0.7,0.5-1.1c-0.2,0-0.5,0.3-0.5,0.4c0,0.1,0,0.2-0.1,0.2
				c0,0,0,0-0.1,0c0,0,0,0,0-0.1c0.1-0.1,0.1-0.3,0.2-0.4c0.1-0.2,0-0.3-0.2-0.4c0,0-0.1,0-0.2,0c0.2-0.2,0.4-0.1,0.6,0.1
				c0.3-0.2,0.6-0.4,0.8-0.8c0.3-0.6,0.7-1.2,1.3-1.6c0.1-0.1,0.2-0.2,0.3-0.4l0,0C19.7,13,19.8,12.9,19.8,12.8z M5.2,27.5
				c-0.1,0-0.2,0-0.2,0.1c-0.1,0.1-0.1,0.3-0.2,0.4c0,0.2,0,0.2,0.2,0.3c0.1-0.1,0-0.3,0.1-0.4c0.1,0.1,0,0.3,0.1,0.4
				c0,0.1,0,0.2,0.1,0.2c0.1,0.1,0.2,0.2,0.3,0c0.1-0.2,0.3-0.3,0.5-0.5C5.7,27.8,5.5,27.6,5.2,27.5z M2.8,26.9
				c0,0.2,0.1,0.4,0.1,0.6c0,0.2,0.2,0.3,0.3,0.5c0.1,0.1,0.2,0.1,0.3,0c0.1,0,0.1-0.1,0.1-0.2c0-0.1,0-0.2,0-0.3
				c0-0.1-0.1-0.2-0.1-0.3c-0.1-0.3-0.3-0.5-0.6-0.6C2.8,26.8,2.8,26.9,2.8,26.9z M6.3,28.7c0-0.1,0-0.3-0.1-0.4
				c0-0.1-0.1-0.1-0.1,0c-0.1,0-0.2,0.1-0.3,0.2c-0.2,0.2-0.3,0.4-0.2,0.7c0,0,0,0.1,0,0.2C6.1,29.3,6.2,29,6.3,28.7z M14.9,16.8
				c-0.2-0.4-0.5-0.7-0.7-1c-0.1-0.2-0.3-0.3-0.6-0.4C13.8,15.8,14.4,16.5,14.9,16.8z M9.1,27.6c0.1,0,0.1-0.1,0.1-0.2
				c-0.1-0.4-0.3-0.9-0.6-1.2c0.1,0.5,0.3,1,0.3,1.5C9,27.7,9.1,27.7,9.1,27.6z M4.3,28.6c0,0,0.1,0,0.1-0.1c0-0.1,0-0.1,0-0.1
				c-0.1-0.1-0.3-0.2-0.4-0.2c0,0-0.1,0-0.1,0.1c0,0,0,0.1,0.1,0.1c0.1,0,0.1,0,0.2,0.1C4.1,28.6,4.2,28.6,4.3,28.6z M4.9,28.9
				c0-0.1,0.1,0,0.1,0c0.1,0,0.1,0,0.1-0.1c0-0.1,0-0.1-0.1-0.1c0-0.1-0.1,0-0.1,0c-0.1,0.1-0.3,0.1-0.4,0.2
				C4.7,29,4.8,29.1,4.9,28.9z M4.8,28.7c0,0,0.1-0.1,0.1-0.1c0,0-0.1-0.1-0.1-0.1c-0.1,0-0.1,0-0.1,0.1c0,0.1-0.1,0.2-0.1,0.3
				C4.6,28.8,4.7,28.7,4.8,28.7z M5.1,29.2c0,0.1,0,0.2,0.1,0.2c0.1,0.1,0.1,0,0.1-0.1c0-0.1,0-0.2,0-0.2
				C5.2,29.1,5.2,29.1,5.1,29.2z M6.4,28.9c0,0,0,0.1,0,0.1c0.1,0,0.1,0,0.1,0c0-0.1,0-0.2,0-0.3C6.5,28.7,6.5,28.8,6.4,28.9z
				 M3.7,28.8c0-0.1,0-0.1-0.1-0.1C3.5,28.8,3.6,28.8,3.7,28.8z M5.6,30.4c0,0-0.1,0-0.1,0c-0.2-0.1-0.4-0.2-0.5-0.5
				c0,0,0-0.1-0.1,0c0,0,0,0.1,0,0.1c0.1,0.2,0.1,0.4,0.3,0.5c0.2,0.1,0.4,0.2,0.6,0.3c0.1,0,0.1,0,0.1,0c0-0.1,0-0.1,0-0.2
				C5.9,30.5,5.8,30.4,5.6,30.4L5.6,30.4z M23,11.4c-0.1,0.1-0.1,0.2-0.1,0.3C23.1,11.6,23,11.5,23,11.4z M8.7,13.9
				C8.7,13.9,8.8,13.9,8.7,13.9C8.8,14.1,8.9,14,9,14c0.2,0,0.3-0.1,0.5-0.1c0.3-0.1,0.6-0.2,0.9-0.2c0.5,0,1,0.2,1.5,0.4
				c0.2,0.1,0.4,0.2,0.5,0.4c0,0.1,0.1,0.1,0,0.2s-0.1,0.1-0.2,0.1c0,0-0.1,0-0.1,0c-0.5-0.1-0.9-0.2-1.4-0.2
				c-0.3-0.1-0.7-0.1-1-0.3c-0.2-0.1-0.3-0.1-0.5-0.1c-0.2,0-0.4,0-0.6,0C8.6,14.1,8.7,14,8.7,13.9z M9.5,14.1
				c0.3,0.2,0.6,0.3,0.9,0.3c0.3,0,0.6,0,0.9,0.1c0.2,0,0.4,0,0.7,0C11.7,14.1,10.4,13.6,9.5,14.1z M10.9,15.5c0.1,0,0.1,0,0.2,0
				c0.1-0.1,0.2,0,0.3,0c0.4,0.2,0.7,0.5,1,0.9c0.1,0.2,0.3,0.4,0.4,0.5c0.3,0.4,0.6,0.9,0.9,1.4c0.2,0.4,0.3,0.8,0.4,1.1
				c0,0.2,0.1,0.3,0.2,0.5c0.1,0.2,0.2,0.5,0.3,0.8c0-0.3,0-0.5-0.1-0.8c-0.2-0.3-0.2-0.7-0.3-1c-0.1-0.4-0.3-0.8-0.5-1.1
				c-0.3-0.5-0.7-1-1-1.5c-0.3-0.4-0.6-0.7-1-0.9C11.2,15.2,11.1,15.2,10.9,15.5z M15.1,10.3c0.2,0.1,0.4,0.1,0.5,0
				c0.2-0.1,0.3-0.1,0.5,0c0.1,0,0.1,0.1,0.2,0.1c0.4,0.1,0.8,0.3,1.1,0.5c0.4,0.2,0.7,0.5,1,0.8c0,0,0.1,0.1,0.1,0.1c0,0,0,0,0,0
				c0.1,0,0-0.1,0-0.1c-0.2-0.3-0.4-0.5-0.7-0.7c-0.3-0.2-0.6-0.4-0.9-0.6c-0.2-0.1-0.4-0.2-0.6-0.2c-0.3-0.1-0.6-0.2-0.9,0
				C15.4,10.3,15.3,10.3,15.1,10.3z M12.1,19.4c-0.1-0.2-0.3-0.4-0.5-0.5c-0.3-0.3-0.6-0.6-0.9-1c-0.1-0.1-0.2-0.2-0.3-0.3
				c-0.3-0.2-0.5-0.3-0.8-0.5C9.5,17,9.4,17,9.3,17c-0.3,0-0.5,0.1-0.8,0.1c0.1,0.2,0.3,0.1,0.4,0.1c0.2,0,0.3-0.1,0.5-0.1
				c0.1,0,0.2,0,0.3,0.1c0.2,0.1,0.4,0.3,0.7,0.4c0.1,0.1,0.2,0.2,0.3,0.3C11,18.6,11.5,19,12.1,19.4C12,19.4,12,19.4,12.1,19.4z
				 M8.7,19.2c-0.2-0.2-0.4-0.3-0.6-0.5c-0.1-0.1-0.2-0.1-0.3-0.1c-0.6-0.1-1.2-0.1-1.7-0.1c-0.3,0-0.5,0.2-0.8,0.2
				c0,0-0.1,0-0.1,0.1C5.2,18.9,5,19,5.1,19.1c0.1,0.1,0.2,0,0.2-0.1c0.3-0.2,0.6-0.3,0.9-0.3c0.4,0,0.8,0,1.2,0
				c0.3,0,0.7,0.1,1,0.3C8.5,19.1,8.6,19.1,8.7,19.2z M7.3,20.2c0.6,0.1,1.1,0,1.7,0.2c0.5,0.2,1,0.4,1.4,0.8
				C9.9,20.3,8.1,19.8,7.3,20.2z M10.4,17.3c0.5,0.4,1,0.8,1.3,1.4c0-0.2-0.2-0.5-0.5-0.8C10.9,17.6,10.7,17.3,10.4,17.3z
				 M14.8,12.7c0.3,0.5,0.4,1.1,0.7,1.6c0-0.1,0-0.2,0-0.3c-0.1-0.3-0.2-0.6-0.3-0.9C15,12.9,14.9,12.8,14.8,12.7z M19.8,11.6
				c0-0.1,0.1-0.1,0-0.1c-0.1,0-0.1,0-0.1,0.1c-0.1,0.1-0.2,0-0.2,0.1c0,0,0,0-0.1,0.1c0,0,0,0.1,0,0.1c0.1,0,0.2,0.1,0.3,0.1
				C19.8,11.8,19.8,11.7,19.8,11.6z M7.7,14.2c0.2-0.1,0.4-0.2,0.6-0.1C8,13.9,7.9,13.9,7.7,14.2z M19.5,13C19.6,13,19.6,13,19.5,13
				c0.1-0.1,0.2-0.1,0.1-0.2c0,0-0.1-0.1-0.2,0C19.4,12.9,19.4,13,19.5,13C19.5,13,19.5,13,19.5,13C19.6,13,19.5,13,19.5,13z
				 M18.9,12.5c0,0,0-0.1-0.1-0.1c-0.1,0-0.1,0-0.1,0c0,0.1,0,0.1,0.1,0.1C18.8,12.5,18.8,12.5,18.9,12.5z M19.8,12.2
				c0.1,0,0.1,0,0.1-0.1c0,0,0-0.1,0-0.1C19.8,12,19.8,12.1,19.8,12.2C19.7,12.2,19.8,12.2,19.8,12.2z M9.7,13
				C9.7,13,9.7,13.1,9.7,13c-0.1,0.1-0.1,0.2,0,0.2c0,0,0.1,0,0.1,0C9.8,13.1,9.8,13.1,9.7,13z M9.9,12.6c0,0,0-0.1,0-0.1
				c-0.1,0-0.1,0-0.1,0c0,0,0,0.1,0,0.1C9.8,12.7,9.9,12.7,9.9,12.6z M9.5,13.3C9.5,13.2,9.5,13.2,9.5,13.3c-0.1-0.1-0.2-0.1-0.2,0
				c0,0,0,0.1,0.1,0.1S9.5,13.3,9.5,13.3z M8.6,13.2c0-0.1,0-0.1,0-0.1c-0.1,0-0.1,0-0.1,0c0,0,0,0.1,0,0.1
				C8.6,13.2,8.6,13.2,8.6,13.2z M11.6,12.8C11.6,12.9,11.6,12.8,11.6,12.8c0.1,0,0.1-0.1,0.1-0.1c0,0-0.1,0-0.1,0
				C11.5,12.7,11.5,12.8,11.6,12.8z M20,10.1C20,10.1,20,10,20,10.1c-0.1-0.1-0.1-0.1-0.2,0c0,0,0,0.1,0,0.1
				C20,10.2,20,10.1,20,10.1z M11.4,12.9C11.4,12.9,11.4,12.9,11.4,12.9c-0.1-0.1-0.1-0.1-0.1,0C11.3,13,11.3,13,11.4,12.9
				C11.4,13,11.4,13,11.4,12.9z M10.6,12.7C10.6,12.8,10.7,12.8,10.6,12.7c0.1-0.1,0.1-0.1,0.1-0.1c0,0-0.1,0-0.1,0
				C10.5,12.7,10.6,12.7,10.6,12.7z M10.3,12.5c0-0.1,0-0.1,0-0.1c0,0-0.1,0-0.1,0.1C10.2,12.5,10.2,12.6,10.3,12.5
				C10.3,12.6,10.3,12.5,10.3,12.5z M20,10.9c0.1,0,0.1,0,0.1-0.1c0,0,0,0,0-0.1C20.1,10.7,20,10.7,20,10.9C20,10.8,20,10.9,20,10.9
				z M8.9,13.1C9,13.1,9,13.1,8.9,13.1C9,13,9,13,9,13s-0.1,0-0.1,0C8.9,13.1,8.9,13.1,8.9,13.1z M9.2,13.7c0,0,0-0.1,0-0.1
				C9.1,13.6,9.1,13.6,9.2,13.7C9.1,13.7,9.1,13.7,9.2,13.7C9.1,13.7,9.2,13.7,9.2,13.7z M11.9,13.1c0,0,0-0.1,0-0.1
				c0,0-0.1,0-0.1,0C11.8,13.1,11.8,13.1,11.9,13.1C11.9,13.1,11.9,13.1,11.9,13.1z M11.3,12.7C11.3,12.7,11.3,12.6,11.3,12.7
				c-0.1-0.1-0.1-0.1-0.1-0.1c0,0,0,0.1,0,0.1C11.2,12.7,11.3,12.7,11.3,12.7z M19.2,13.3C19.2,13.2,19.2,13.2,19.2,13.3
				c-0.1-0.1-0.1-0.1-0.1,0c0,0,0,0.1,0,0.1C19.1,13.3,19.2,13.3,19.2,13.3z M18.4,12.7c0.1,0,0.1,0,0.1,0c0,0,0-0.1,0-0.1
				C18.5,12.5,18.4,12.6,18.4,12.7C18.4,12.6,18.4,12.7,18.4,12.7z M19.4,12.6C19.4,12.6,19.4,12.6,19.4,12.6
				c-0.1-0.1-0.1-0.1-0.2,0c0,0,0,0.1,0,0.1C19.3,12.7,19.3,12.7,19.4,12.6z M19.8,12.5C19.8,12.5,19.8,12.5,19.8,12.5
				c-0.1-0.1-0.2-0.1-0.2,0c0,0,0,0.1,0,0.1C19.7,12.6,19.8,12.5,19.8,12.5z M19.6,12.1c0.1,0,0.1,0,0.1-0.1c0,0,0,0,0-0.1
				C19.7,11.9,19.6,11.9,19.6,12.1C19.6,12,19.6,12.1,19.6,12.1z M10.6,13.2C10.7,13.2,10.7,13.2,10.6,13.2c0.1-0.1,0.1-0.1,0-0.1
				c0,0,0,0-0.1,0C10.6,13.1,10.6,13.2,10.6,13.2z M10.2,12.8C10.2,12.8,10.1,12.8,10.2,12.8c-0.1,0.1-0.1,0.1,0,0.1
				C10.2,13,10.2,13,10.2,12.8C10.2,12.9,10.2,12.9,10.2,12.8z M18.7,13.8C18.7,13.8,18.7,13.8,18.7,13.8c-0.1-0.1-0.1-0.1-0.1,0
				c0,0,0,0.1,0,0.1C18.6,13.9,18.7,13.9,18.7,13.8z M18,14.1c0,0-0.1,0-0.1,0c0,0,0,0.1,0,0.1C17.9,14.3,18,14.3,18,14.1
				C18,14.2,18,14.2,18,14.1z M19.1,13.1c0,0,0.1,0,0.1-0.1c0,0,0,0,0-0.1C19.1,12.9,19.1,13,19.1,13.1C19,13,19,13.1,19.1,13.1z
				 M19,12.8c0,0,0.1,0,0.1-0.1c0,0,0,0,0-0.1C19,12.6,19,12.7,19,12.8C18.9,12.7,19,12.7,19,12.8z M19.4,12.3
				C19.4,12.2,19.4,12.2,19.4,12.3c-0.1-0.1-0.1-0.1-0.1,0c0,0,0,0,0,0.1C19.3,12.4,19.4,12.3,19.4,12.3z M17.5,8.9
				C17.5,8.8,17.5,8.8,17.5,8.9c-0.1-0.1-0.1-0.1-0.1-0.1C17.3,8.8,17.3,8.9,17.5,8.9C17.4,8.9,17.4,8.9,17.5,8.9z M11.4,12.4
				C11.4,12.4,11.4,12.3,11.4,12.4c-0.1-0.1-0.1-0.1-0.1,0C11.3,12.4,11.3,12.5,11.4,12.4C11.4,12.5,11.4,12.5,11.4,12.4z M9.2,12.9
				c0,0,0.1,0,0.1,0c0,0,0-0.1,0-0.1C9.3,12.8,9.2,12.8,9.2,12.9C9.2,12.9,9.2,12.9,9.2,12.9z M19.1,11.2
				C19.1,11.2,19.2,11.2,19.1,11.2c0-0.1-0.1-0.1-0.1,0C19,11.2,19,11.3,19.1,11.2C19.1,11.3,19.1,11.3,19.1,11.2z M18.2,14.4
				c0,0-0.1,0-0.1,0C18,14.5,18.1,14.5,18.2,14.4C18.1,14.6,18.2,14.5,18.2,14.4C18.2,14.5,18.2,14.5,18.2,14.4z M19.7,11.2
				C19.7,11.2,19.7,11.1,19.7,11.2c-0.1-0.1-0.1-0.1-0.1,0c0,0,0,0,0,0.1C19.6,11.3,19.7,11.2,19.7,11.2z M19.3,11.4
				C19.3,11.4,19.3,11.4,19.3,11.4c-0.1-0.1-0.1,0-0.1,0C19.2,11.5,19.2,11.5,19.3,11.4C19.2,11.5,19.3,11.5,19.3,11.4z M19.6,10.7
				c0,0-0.1,0-0.1,0c0,0,0,0,0,0.1C19.6,10.8,19.6,10.8,19.6,10.7C19.6,10.7,19.6,10.7,19.6,10.7z M16.7,9.1
				C16.7,9.1,16.7,9.1,16.7,9.1C16.8,9,16.8,9,16.7,8.9C16.7,8.9,16.7,8.9,16.7,9.1C16.6,9,16.6,9,16.7,9.1z M19.7,10.5
				c0,0,0.1,0,0.1-0.1c0,0,0,0,0-0.1C19.8,10.3,19.7,10.3,19.7,10.5C19.7,10.4,19.7,10.4,19.7,10.5z M17.6,8.9
				C17.6,8.9,17.6,8.9,17.6,8.9C17.6,9,17.6,9,17.6,9c0,0,0,0,0,0C17.7,8.9,17.7,8.9,17.6,8.9z M18.7,13.2c0,0,0.1,0,0.1,0
				C18.8,13.2,18.8,13.2,18.7,13.2C18.7,13.1,18.7,13.1,18.7,13.2C18.6,13.2,18.6,13.2,18.7,13.2z M19.6,12.3
				C19.7,12.3,19.6,12.3,19.6,12.3c-0.1-0.1-0.1-0.1-0.1-0.1c0,0,0,0,0,0.1C19.6,12.4,19.6,12.4,19.6,12.3z M19.1,12.1
				c0,0,0.1,0,0.1-0.1c0,0,0,0-0.1,0C19.1,11.9,19.1,12,19.1,12.1C19.1,12,19.1,12,19.1,12.1z M11,12.4C11,12.4,11,12.4,11,12.4
				c-0.1,0.1-0.1,0.1,0,0.1C11.1,12.5,11.1,12.5,11,12.4C11.1,12.4,11.1,12.4,11,12.4z M10.2,13.5C10.2,13.5,10.2,13.4,10.2,13.5
				C10.1,13.4,10.1,13.4,10.2,13.5C10.1,13.5,10.1,13.5,10.2,13.5C10.2,13.5,10.2,13.5,10.2,13.5z M18.7,12C18.7,12,18.7,12,18.7,12
				c0-0.1-0.1-0.1-0.1,0c0,0,0,0.1,0,0.1C18.7,12.1,18.7,12,18.7,12z M16.4,9.2C16.4,9.2,16.4,9.1,16.4,9.2
				C16.4,9.1,16.3,9.1,16.4,9.2C16.3,9.2,16.3,9.2,16.4,9.2C16.4,9.2,16.4,9.2,16.4,9.2z M11.8,12.5C11.8,12.5,11.8,12.4,11.8,12.5
				C11.8,12.4,11.7,12.4,11.8,12.5C11.7,12.5,11.7,12.5,11.8,12.5C11.8,12.5,11.8,12.5,11.8,12.5z M8.3,13.7
				C8.3,13.7,8.3,13.7,8.3,13.7C8.3,13.6,8.3,13.6,8.3,13.7C8.2,13.7,8.2,13.7,8.3,13.7C8.3,13.8,8.3,13.8,8.3,13.7z M12.2,12.7
				C12.2,12.7,12.2,12.6,12.2,12.7c0.1-0.1,0.1-0.1,0.1-0.1C12.2,12.5,12.2,12.5,12.2,12.7C12.1,12.6,12.1,12.6,12.2,12.7z
				 M12.9,12.7C12.9,12.7,12.9,12.6,12.9,12.7c-0.1-0.1-0.1-0.1-0.1,0C12.8,12.7,12.8,12.7,12.9,12.7C12.9,12.7,12.9,12.7,12.9,12.7
				z M19.8,11C19.9,11,19.9,11,19.8,11C19.8,10.9,19.8,10.9,19.8,11C19.7,11,19.7,11,19.8,11C19.8,11,19.8,11,19.8,11z"/>
		</g>
	</g>
</g>
</svg>
