<?xml version="1.0" encoding="utf-8"?>
<!-- Generator: Adobe Illustrator 21.1.0, SVG Export Plug-In . SVG Version: 6.00 Build 0)  -->
<svg version="1.1" id="Layer_1" xmlns="http://www.w3.org/2000/svg" xmlns:xlink="http://www.w3.org/1999/xlink" x="0px" y="0px"
	 viewBox="0 0 30 27.8" style="enable-background:new 0 0 30 27.8;" xml:space="preserve">
<style type="text/css">
	.st0{fill:#F9DC36;}
	.st1{fill:#381C1B;}
</style>
<g>
	<path class="st0" d="M23.7,19.1c-1.5,1-2.4,2.3-2.5,4.1c0,0.3-0.2,0.7-0.3,1c-0.4,0.9-0.7,1-1.6,0.9c-1.5-0.1-2.8-0.7-3.9-1.6
		c-1.1-0.9-2.3-1.7-3.6-2.3c-0.8-0.3-1.5-0.8-2.2-1.2c-2.5-1.5-3.5-3.6-2.6-6.7c0.3-1.1,0.3-1.2-0.6-1.7c0.4-0.4,1-1.1,1.5-1.1
		C9,10.2,9,10.2,9.7,11.1c0.4,0.6,0.8,0.6,1.3,0.1c0.2-0.2,0.2-0.5,0.5-0.6c0.3,0,0.3,0.3,0.5,0.5c0.5,0.5,0.9,0.6,1.3,0
		c0.2-0.4,0.5-0.4,0.8-0.2c0.2,0.1,0.4,0.1,0.6,0.2c0.5,0.1,0.7-0.2,1-0.5c0.2-0.2-0.1-0.5-0.2-0.7c-0.1,0-0.1-0.1-0.1-0.1
		c-0.8-1.2-0.8-1.2,0.6-1.9c0.6-0.3,1.3-0.4,1.7-1c-0.1-0.7-0.3-1.1-1.1-0.8C16.4,6.2,16,6.4,15.8,6c-0.1-0.1-0.1-0.4,0-0.5
		C16,5.1,16.4,5,16.7,5.1c0.8,0.3,1.7,0.3,2.2,1.1c0.7,0.6,1.1,1.4,1.3,2.3c0.7,2.5,2,4.6,3.9,6.5C25.5,16.4,25.7,17.9,23.7,19.1z"
		/>
	<path class="st1" d="M20.1,17.8c0.1,0.3,0.3,0.8-0.3,1.1c-0.4,0.3-0.9,0.2-1.2-0.2c-1.1-1.5-2.7-1.3-4.2-1.3
		c-2.2,0.1-3.5-1.1-3.4-3.2c0-0.6,0.3-0.8,0.8-0.9c0.5-0.2,0.7,0.1,0.9,0.5s0.4,0.7,0.6,1.1c0.5,0.8,1.2,1.1,2.1,0.7
		C17.1,14.8,19.4,15.8,20.1,17.8z"/>
	<path class="st1" d="M26.8,15.5c-0.5-1.1-1.2-2.1-2.1-2.9c-1.3-1.1-2.2-2.5-2.6-4.2c-0.1-0.6-0.3-1.2-0.7-1.8
		c-0.5-0.8-0.8-1.7-1.6-2.1c-2.2-1.1-4.1-1.4-6.2,0.7c-0.8,0.7-0.8,0.8-1.7,0c-1.3-1.1-2.4-2.3-3.4-3.6C7.2,0,5.3-0.1,3.8,1.3
		C3.6,1.5,3.4,1.8,3.1,1.9C2.6,2.1,2.3,2.5,2.4,3c0.1,0.6,0.5,0.9,1,1C4,4.2,4.6,4.3,5.1,4.5C6.8,5.1,8.3,6,9.6,7.4
		C8.7,7.9,7.8,8.1,7,8.4C5.6,9,5.2,10.3,5.7,11.6c-0.8,0.2-1.3,0.9-1.4,1.7c-0.7,3,0.1,5.5,2.4,7.5c1.4,1.2,3.1,2,4.8,2.8
		c0.8,0.3,1.5,0.7,2.1,1.3c1.5,1.4,3.2,2.2,5.3,2.3c2.3,0.1,4-1.2,4.3-3.5c0-0.4,0.1-0.7,0.1-1.1c0-0.6,0.3-1.1,0.9-1.3
		c0.9-0.4,1.5-1,2-1.7C27.2,18.4,27.6,17,26.8,15.5z M23.7,19.1c-1.5,1-2.4,2.3-2.5,4.1c0,0.3-0.2,0.7-0.3,1c-0.4,0.9-0.7,1-1.6,0.9
		c-1.5-0.1-2.8-0.7-3.9-1.6c-1.1-0.9-2.3-1.7-3.6-2.3c-0.8-0.3-1.5-0.8-2.2-1.2c-2.5-1.5-3.5-3.6-2.6-6.7c0.3-1.1,0.3-1.2-0.6-1.7
		c0.4-0.4,1-1.1,1.5-1.1C9,10.2,9,10.2,9.7,11.1c0.4,0.6,0.8,0.6,1.3,0.1c0.2-0.2,0.2-0.5,0.5-0.6c0.3,0,0.3,0.3,0.5,0.5
		c0.5,0.5,0.9,0.6,1.3,0c0.2-0.4,0.5-0.4,0.8-0.2c0.2,0.1,0.4,0.1,0.6,0.2c0.5,0.1,0.7-0.2,1-0.5c0.2-0.2-0.1-0.5-0.2-0.7
		c-0.1,0-0.1-0.1-0.1-0.1c-0.8-1.2-0.8-1.2,0.6-1.9c0.6-0.3,1.3-0.4,1.7-1c-0.1-0.7-0.3-1.1-1.1-0.8C16.4,6.2,16,6.4,15.8,6
		c-0.1-0.1-0.1-0.4,0-0.5C16,5.1,16.4,5,16.7,5.1c0.8,0.3,1.7,0.3,2.2,1.1c0.7,0.6,1.1,1.4,1.3,2.3c0.7,2.5,2,4.6,3.9,6.5
		C25.5,16.4,25.7,17.9,23.7,19.1z"/>
</g>
</svg>
