<?xml version="1.0" encoding="utf-8"?>
<!-- Generator: Adobe Illustrator 21.1.0, SVG Export Plug-In . SVG Version: 6.00 Build 0)  -->
<svg version="1.1" id="Layer_1" xmlns="http://www.w3.org/2000/svg" xmlns:xlink="http://www.w3.org/1999/xlink" x="0px" y="0px"
	 viewBox="0 0 30 19.2" style="enable-background:new 0 0 30 19.2;" xml:space="preserve">
<style type="text/css">
	.st0{fill:#F0F4D5;}
	.st1{fill:#E1EAA2;}
	.st2{fill:#381C1B;}
	.st3{fill:#25592F;}
	.st4{fill:#37803F;}
</style>
<path class="st0" d="M7.9,9.6C8,9.3,8.4,9.4,8.5,9.2C8.8,9.1,9,9,9.3,8.8c0.5-0.2,1.1-0.3,1.6-0.5c0,0,0,0.1,0.1,0.2
	c-0.5,0.3-1.1,0.4-1.6,0.8l0,0c-0.1-0.1-0.1,0-0.2,0l0,0c-0.3,0-0.6,0.2-0.9,0.4l0,0c-0.2,0-0.3,0-0.4,0.1C7.9,9.7,7.9,9.7,7.9,9.6z
	"/>
<path class="st1" d="M7.9,9.8C7.8,9.9,7.6,10,7.4,10.1C7.3,9.8,7.7,9.8,7.7,9.6c0.1,0,0.1,0,0.2,0C7.9,9.7,7.9,9.7,7.9,9.8z"/>
<g>
	<path class="st2" d="M19.2,10.6c-1-0.1-2-0.4-3-0.3c-0.9,0.1-1.8,0.1-2.7,0.3c-1.2,0.3-2.4,0.7-3.5,1.2c-0.9,0.4-1.8,0.9-2.7,1.5
		s-1.7,1.3-2.5,2.2c-0.4,0.5-0.8,1-1.1,1.6c-0.2,0.4-0.5,0.6-0.8,0.9c-0.5,0.4-0.6,0.4-1.1,0.1c-0.8-0.4-1.1-1.1-1.1-2
		c-0.1-1.3,0.2-2.6,0.8-3.8c0.4-0.8,0.8-1.7,1.2-2.5C3,9,3.4,8.3,4,7.6C4.5,7,5,6.4,5.5,5.8c0.5-0.6,1.2-1,1.9-1.5
		C8.2,3.7,9.1,3,10.1,2.5c1.5-0.8,3.1-1.2,4.7-1.4c1.3-0.2,2.5-0.3,3.8-0.1c0.9,0.1,1.7,0,2.6-0.2c0.3-0.1,0.7,0,1,0.1
		c1,0.4,1.8,1,2.6,1.7c0.3,0.3,0.5,0.8,0.7,1.2c0.1,0.5,0.4,1,0.4,1.5c0,0.4,0.1,0.6,0.5,0.8c1,0.5,1.8,1.3,2.4,2.3
		c0.6,0.9,0.5,2,0.2,3c-0.1,0.4-0.6,0.6-1,0.6c-0.6-0.1-1.1-0.3-1.5-0.8c-0.3-0.4-0.7-0.7-1.1-0.9c-0.5-0.3-0.5-0.3-0.9,0.1
		c-0.9,0.7-1.8,1.4-2.9,1.8c-0.5,0.2-1.1,0.3-1.6,0.1C19,11.8,18.9,11.5,19.2,10.6z"/>
	<path class="st3" d="M16.5,2.4c-0.1,0-0.1,0-0.2,0c-0.4,0.1-0.7,0.2-1.1,0.2c-0.3-0.1-0.6-0.1-0.8,0c-0.9,0.3-1.8,0.4-2.6,0.8
		C11,3.7,10.3,4.2,9.6,4.7C8.9,5.1,8.3,5.6,7.6,6C7,6.3,6.6,6.8,6.1,7.2c-0.4,0.5-0.7,1-1.2,1.4C4.5,9.1,4,9.7,3.8,10.4
		c-0.4,0.8-0.9,1.5-1.2,2.3C2.3,13.4,2,14.1,2,14.9c0,0.6,0,1.2,0.3,1.7c0.3-0.2,0.5-0.4,0.7-0.7c0.3-0.5,0.7-0.9,1.1-1.3
		c0.1-0.1,0.3-0.3,0.4-0.5c0.6-0.7,1.3-1.1,1.9-1.7c0.5-0.5,1.1-0.7,1.7-1.1C8.5,11,9,10.9,9.4,10.7c1.2-0.7,2.5-1.1,3.9-1.4
		C15,9,16.7,8.7,18.4,9.1c0.6,0.1,1.1,0,1.3-0.6c0.2-0.2,0-0.3,0-0.5c0.6,0,0.9-0.3,1.1-0.8c-0.6-0.1-1.1-0.2-1.7-0.4
		c0.1-0.2,0-0.3-0.1-0.4c0.1-0.3,0.3-0.5,0.5-0.7C20,5.3,20,5.3,19.4,4.9c0,0-0.1,0-0.1-0.1c-0.4-0.4-0.4-0.8,0.1-1.1
		c0.2-0.1,0.3-0.2,0.4-0.4c0.1-0.3,0.6-0.4,0.6-0.9c-0.6,0.1-1.2,0-1.8-0.1C17.8,2.3,17.2,2.3,16.5,2.4L16.5,2.4z"/>
	<path class="st4" d="M9.9,8.8C9.8,8.8,9.6,8.8,9.6,8.7C9.5,8.5,9.7,8.4,9.8,8.4c0.5-0.2,1-0.6,1.6-0.7c0.1,0,0.4,0,0.4-0.3
		c0-0.1,0.1-0.1,0.2,0c0.4,0,0.6,0,0.7-0.5c0-0.1,0.1-0.2,0.1-0.2c0-0.1,0.1-0.2,0.1-0.3c-0.2,0-0.4-0.1-0.6,0
		c-0.3,0.4-0.5,0.1-0.5-0.2c-0.1-0.3-0.4-0.4-0.4-0.8c0.4-0.1,0.5-0.5,0.9-0.6c0.3-0.1,0.6-0.2,0.9-0.3c0.7-0.2,1.3-0.5,1.9-0.8
		c0.1,0,0.2-0.2,0.1-0.3C15,3.4,15,3.3,14.9,3.1c0.2-0.2,0.7,0,0.8-0.4c0.4-0.1,0.7-0.2,1.1-0.2c0.1,0,0.1,0,0.2,0l0,0
		c0.2,0.1,0.4,0.1,0.4,0.3c0,0.4,0.3,0.4,0.6,0.3C18.5,3,18.6,3,18.8,3.6h0.1C19,3.6,19,3.4,19,3.3C19.1,3,19.4,3,19.6,3
		c0.2,0,0.2,0.2,0.2,0.3c-0.1,0.2-0.2,0.3-0.4,0.4C19,4,18.9,4.4,19.3,4.8c0.1,0.3,0.1,0.4,0,0.4S19,5.7,18.9,5.7
		C18.8,5.8,19,6,18.8,6.2c-0.4,0.4,0.1,0.2,0.2,0.3c0.1,0.1,0.3,0.2,0.1,0.4C18,6.9,17,7,16,7.1c-1.1,0.1-2.1,0.2-3.1,0.6
		c-0.2,0.1-0.3,0.1-0.5,0.1c-0.1,0-0.1,0-0.2,0.1l0,0c-0.1-0.1-0.2,0-0.3,0.1l0,0c-0.1,0-0.1,0-0.2,0.1c-0.1,0.1-0.3,0.2-0.4,0.2
		C10.9,8.5,10.4,8.7,9.9,8.8z"/>
	<path class="st4" d="M4.7,12.3c-0.2-0.3-0.1-0.6,0.2-0.9c0.1-0.1,0.3-0.3,0.4-0.5c0-0.1,0.1-0.1,0.1-0.2c0.6-0.2,1-0.7,1.5-1
		C7,9.5,7.2,9.4,7.4,9.2C7.6,9.1,8,9,8.3,8.9S8.7,9,8.6,9.2C8.5,9.4,8.1,9.3,8,9.6c-0.1,0-0.1,0-0.2,0c-0.1,0-0.1-0.1-0.2,0
		C7.1,9.9,6.7,10.3,6.4,11c0.6-0.1,0.9-0.4,1.2-0.8c0.6,0.1,0.6,0.1,0.9-0.4l0,0c0.5,0.2,0.5,0.2,0.9-0.4l0,0c0.1,0,0.1,0,0.2,0l0,0
		c0.2,0.1,0.3,0.3,0.2,0.5c0.2-0.1,0.4-0.2,0.3-0.3c0-0.3,0.2-0.3,0.4-0.4c0.5-0.3,1.2-0.4,1.8-0.5c0.2,0,0.4-0.1,0.4-0.3l0,0
		c0.6,0.3,1.2,0.3,1.6-0.2l0,0c0.2,0.1,0.3,0.1,0.4-0.1l0,0C14.7,8,14.9,8.1,15,8.1C15.3,8,15.6,8,15.9,8.1c0.1,0,0.2,0.1,0.2,0
		C16.5,7.8,17,7.9,17.5,8c0.2,0,0.4,0,0.4-0.3c0,0,0,0,0.1,0C18.2,8,18.5,8,18.8,8c0.3,0,0.6,0.1,0.9,0.2l0,0c0,0,0.1,0.1,0.1,0.2
		c-0.3,0.6-0.7,0.8-1.2,0.7c-2-0.4-3.7-0.1-5.4,0.2C12,9.7,10.6,10,9.4,10.7c-0.4,0.2-1,0.4-1.4,0.6c-0.6,0.4-1.2,0.7-1.7,1.1
		c-0.6,0.6-1.4,1.1-1.9,1.7c-0.1-0.5,0.1-1,0-1.4C4.5,12.6,4.7,12.6,4.7,12.3c0.4,0.2,0.4-0.1,0.5-0.4C4.9,12,4.8,12.2,4.7,12.3z"/>
	<path class="st4" d="M5.4,11.7c0.2,0,0.2-0.2,0.3-0.2c0.1-0.1,0.4-0.2,0.2-0.4c-0.1-0.2-0.3,0.1-0.4,0.2
		C5.4,11.3,5.3,11.4,5.4,11.7z"/>
	<path class="st0" d="M11.1,8.2C11.2,8.1,11.4,8,11.5,8c0.1,0,0.1,0,0.2-0.1l0,0c0.1,0,0.2,0,0.3-0.1l0,0c0.1,0.1,0.1,0,0.2-0.1
		c0.2,0,0.4,0,0.5-0.1c1-0.5,2.1-0.5,3.2-0.6s2.2-0.2,3.2-0.2c0.5,0.1,1.1,0.2,1.7,0.4c-0.2,0.5-0.6,0.9-1.1,0.8
		c-0.6-0.1-1.2-0.2-1.8-0.2c0,0,0,0-0.1,0c-0.9-0.1-1.9-0.1-2.8-0.1c-0.1,0-0.3,0-0.4,0.1l0,0c-0.1,0-0.3,0-0.4,0.1l0,0
		c-0.5,0-1.1,0.1-1.6,0.2l0,0c-0.5-0.1-1,0.2-1.5,0.2C11.2,8.3,11.2,8.2,11.1,8.2z"/>
	<path class="st2" d="M19.4,8.3L19.4,8.3L19.4,8.3z"/>
</g>
</svg>
