<?xml version="1.0" encoding="utf-8"?>
<!-- Generator: Adobe Illustrator 21.1.0, SVG Export Plug-In . SVG Version: 6.00 Build 0)  -->
<svg version="1.1" id="Layer_1" xmlns="http://www.w3.org/2000/svg" xmlns:xlink="http://www.w3.org/1999/xlink" x="0px" y="0px"
	 viewBox="0 0 30 25" style="enable-background:new 0 0 30 25;" xml:space="preserve">
<style type="text/css">
	.st0{fill:#BC7129;}
</style>
<g>
	<g>
		<g>
			<path class="st0" d="M26.9,9.4C27,9.5,27,9.5,26.9,9.4C27,9.5,27,9.4,26.9,9.4z"/>
			<path class="st0" d="M26.9,9.3c0-0.1,0-0.1,0-0.2c0-0.2,0-0.3,0-0.2c0,0,0,0-0.1,0c0,0,0-0.1,0-0.1c0-0.3-0.1-0.6-0.1-0.6
				c0,0,0,0.1,0,0c0,0,0,0,0,0c0,0,0,0-0.1,0l0,0c0,0,0,0,0,0c0.1-0.4,0.1-0.6,0.1-0.8c0-0.2,0-0.4-0.1-0.7l0,0
				c-0.2-0.8-0.6-1.5-1.2-2c-0.3-0.3-0.5-0.5-0.8-0.7C24.3,4,24,3.8,23.7,3.6c-1.2-0.6-2.5-1-3.7-1.4c-0.2,0-0.4-0.1-0.6-0.1
				c-0.2,0-0.4-0.1-0.6-0.1c-0.4-0.1-0.9-0.2-1.3-0.3c-0.9-0.2-1.8-0.4-2.7-0.5c-1-0.1-2-0.2-3-0.1c-1,0-2,0.2-2.8,0.4
				C8.7,1.5,8.5,1.6,8.3,1.6c-0.2,0-0.3,0-0.5,0.1C7,1.9,6.1,2.3,5.3,2.9C4.9,3.2,4.6,3.6,4.3,4C4.1,4.2,3.9,4.3,3.8,4.6
				C3.7,4.7,3.7,4.8,3.6,4.9C3.5,5,3.5,5.1,3.5,5.3c0,0,0-0.1,0-0.1C3.4,5.4,3.3,5.6,3.2,5.8C3.1,6.1,3,6.3,3,6.5
				C2.8,6.9,2.8,7.3,2.7,7.8c0,0,0,0.1,0,0.2c-0.1,0.1-0.1,1.5,0.1,2.8c0.2,1.3,0.6,2.6,0.6,2.8c0,0.1,0.1,0.2,0.1,0.3
				c0.1,0.2,0.1,0.5,0.2,0.7c0.1,0.2,0.1,0.5,0.2,0.7L4,15.7c0,0.1,0.1,0.2,0.1,0.4c0.1,0.2,0.2,0.5,0.3,0.7
				c0.5,0.9,1.1,1.6,1.7,2.2c0.3,0.2,0.7,0.4,1,0.5c0.1,0.1,0.2,0.2,0.3,0.2c0.1,0,0.2,0.1,0.3,0.2c0.3,0.4,0.6,0.6,0.7,0.7
				c0.2,0.1,0.2,0,0-0.1c0.2,0.1,0.3,0.2,0.5,0.3c0.2,0.1,0.3,0.2,0.5,0.2c0.2,0.1,0.3,0.2,0.5,0.2c0.2,0.1,0.3,0.1,0.5,0.2
				c0.3,0.1,0.6,0.2,0.9,0.3c0.3,0.1,0.4,0.2,0.5,0.3c0.7,0.1,0.4,0.2,1.1,0.4c0,0,0.2,0.1,0.3,0.1c0.2,0,0.4,0,0.6,0.1
				c0.2,0,0.4,0,0.6,0c0.2,0,0.3,0,0.4,0h-0.1c0.2,0,0.4,0.1,0.6,0.1c0.2,0,0.3,0.1,0.5,0.1c0.2,0,0.3,0.1,0.5,0.1
				c0.2,0,0.4,0,0.6,0c1.1,0,2.3-0.3,3.4-0.8c1.1-0.5,2.1-1.2,2.8-2c-0.1-0.1-0.3,0.4-0.4,0.3c0.9-0.9,1.8-1.9,2.3-3.1
				c0,0,0.1-0.1,0.1-0.2c0-0.1,0.1-0.1,0.1-0.2c0.1-0.1,0.1-0.2,0.1-0.2c0.1-0.2,0.1-0.3,0.1-0.3c0,0,0-0.1,0-0.2l0.1,0
				c0-0.4,0.3-0.5,0.3-0.9c0,0,0-0.2,0-0.3c0.1,0,0.1-0.4,0.2-0.4l0,0c0-0.1,0-0.1,0.1-0.2c0-0.1,0-0.5,0-0.9c0-0.4,0-0.8,0-0.9
				l0-0.1c0-0.2,0-0.3-0.1-0.2l0.1-0.3v0l0.1-0.3c0,0,0.1-0.1,0.1,0c0-0.2,0-0.3,0.1-0.5c-0.1,0.4-0.3,0.9-0.5,1.3
				c0-0.2,0.1-0.5,0.2-0.7c0.1-0.2,0.3-0.7,0.4-1c0-0.1-0.1-0.2,0-0.3c0.1-0.1,0-0.2,0.1-0.4c0,0.2,0,0.4-0.1,0.5
				c0.1,0,0.1-0.4,0.2-0.6c0-0.1,0.1-0.4,0.1-0.6C26.9,9.5,26.9,9.4,26.9,9.3C26.9,9.3,26.9,9.2,26.9,9.3
				C26.9,9.2,26.9,9.3,26.9,9.3z M26.8,9.2c0,0.1,0,0.2-0.1,0.2c0,0,0,0,0,0l0,0.1c0-0.1,0-0.2,0-0.3c0,0,0,0.1,0,0.1
				c0-0.1,0-0.3,0.1-0.5c0,0,0,0.1-0.1,0c0,0,0-0.1,0-0.2c0,0,0,0,0-0.1l0,0c0,0,0-0.1,0-0.1c0,0,0-0.1,0-0.1c0,0,0,0.1,0,0.2
				c0-0.1,0.1,0.2,0.1,0.5C26.9,9,26.8,9.1,26.8,9.2z"/>
			<path class="st0" d="M26.7,9.3C26.7,9.3,26.7,9.3,26.7,9.3C26.8,9.3,26.7,9.3,26.7,9.3C26.7,9.3,26.7,9.3,26.7,9.3z"/>
			<path class="st0" d="M26.9,9.3C26.9,9.3,26.9,9.3,26.9,9.3c0,0.1,0,0.1,0,0.1C26.9,9.4,26.9,9.3,26.9,9.3
				C26.9,9.3,26.9,9.3,26.9,9.3z"/>
		</g>
	</g>
</g>
</svg>
