<?xml version="1.0" encoding="utf-8"?>
<!-- Generator: Adobe Illustrator 21.1.0, SVG Export Plug-In . SVG Version: 6.00 Build 0)  -->
<svg version="1.1" id="Layer_1" xmlns="http://www.w3.org/2000/svg" xmlns:xlink="http://www.w3.org/1999/xlink" x="0px" y="0px"
	 viewBox="0 0 30 25" style="enable-background:new 0 0 30 25;" xml:space="preserve">
<style type="text/css">
	.st0{fill:#BF1D70;}
</style>
<g>
	<g>
		<g>
			<path class="st0" d="M11.7,0.3C11.8,0.3,11.9,0.3,11.7,0.3C11.8,0.3,11.8,0.3,11.7,0.3z"/>
			<path class="st0" d="M11.5,0.3c-0.1,0-0.2,0-0.2,0c-0.2,0-0.3,0-0.3,0c0,0,0,0,0.1,0.1c-0.1,0-0.1,0-0.2,0
				c-0.4,0-0.8,0.1-0.7,0.1c0.1,0,0.1,0,0.1,0c0,0,0,0,0,0c0,0-0.1,0,0,0.1l0,0c0,0,0,0,0,0c-0.5-0.1-0.8-0.1-1-0.1
				c-0.3,0-0.5,0-0.9,0.1l0,0c-1,0.2-2,0.6-2.6,1.2C5.3,2.1,5,2.4,4.7,2.7C4.4,3,4.2,3.3,4,3.6C3.1,4.8,2.6,6,2.2,7.3
				C2.1,7.5,2.1,7.7,2,7.9C1.9,8.1,1.9,8.3,1.8,8.5C1.7,8.9,1.6,9.4,1.4,9.8c-0.3,0.9-0.5,1.8-0.6,2.7c-0.1,1-0.2,2-0.2,3
				c0,1,0.2,2,0.5,2.8c0.1,0.2,0.1,0.4,0.1,0.6c0,0.2,0,0.3,0.1,0.5C1.7,20.1,2.2,21,3,21.8c0.4,0.4,0.9,0.8,1.4,1.1
				C4.7,23,5,23.2,5.3,23.3c0.1,0.1,0.3,0.1,0.4,0.2c0.1,0.1,0.3,0.1,0.4,0.2c0,0-0.1,0-0.1,0c0.3,0.1,0.6,0.2,0.9,0.3
				c0.3,0.1,0.6,0.2,0.8,0.2c0.6,0.1,1.1,0.2,1.7,0.3c0,0,0.2,0,0.3,0c0.1,0.1,2,0.1,3.8-0.1c1.8-0.2,3.5-0.6,3.7-0.6
				c0.1,0,0.2-0.1,0.4-0.1c0.3-0.1,0.6-0.1,0.9-0.2c0.3-0.1,0.6-0.1,1-0.2l0.5-0.1c0.2,0,0.3-0.1,0.5-0.1c0.3-0.1,0.6-0.2,0.9-0.3
				c1.2-0.5,2.2-1.1,2.9-1.7c0.3-0.3,0.6-0.7,0.7-1c0.1-0.1,0.2-0.2,0.3-0.3c0.1-0.1,0.1-0.2,0.2-0.3c0.5-0.3,0.8-0.6,0.9-0.7
				c0.1-0.2,0.1-0.2-0.2,0c0.1-0.2,0.2-0.3,0.3-0.5c0.1-0.2,0.2-0.3,0.3-0.5c0.1-0.2,0.2-0.3,0.3-0.5c0.1-0.2,0.2-0.3,0.3-0.5
				c0.1-0.3,0.2-0.6,0.3-0.9c0.1-0.2,0.2-0.4,0.3-0.5c0.2-0.6,0.2-0.4,0.5-1.1c0,0,0.1-0.2,0.1-0.3c0-0.2,0.1-0.4,0.1-0.6
				c0-0.2,0-0.4,0-0.6c0-0.2,0-0.3,0-0.4v0.1c0-0.2,0.1-0.4,0.1-0.6c0-0.2,0.1-0.3,0.1-0.5c0-0.2,0.1-0.3,0.1-0.5
				c0-0.2,0.1-0.4,0-0.6c0-1.1-0.4-2.3-1-3.4c-0.7-1.1-1.6-2.1-2.7-2.8C25.5,4,26.2,4.3,26,4.4c-1.2-0.9-2.5-1.7-4.1-2.2
				c-0.1,0-0.1-0.1-0.2-0.1C21.6,2,21.6,2,21.5,2c-0.1-0.1-0.2-0.1-0.3-0.1c-0.3-0.1-0.3-0.1-0.4-0.1c-0.1,0-0.1,0-0.3,0l0-0.1
				c-0.5,0-0.7-0.3-1.2-0.3c0,0-0.2,0-0.4,0c0-0.1-0.5-0.1-0.5-0.2l0,0c-0.1,0-0.2,0-0.3-0.1c-0.1,0-0.6,0-1.2,0c-0.5,0-1.1,0-1.2,0
				l-0.1,0c-0.3,0-0.4,0-0.3,0.1L15,0.9h0l-0.3-0.1c-0.1,0-0.1-0.1,0-0.1c-0.2,0-0.4,0-0.6-0.1c0.5,0.1,1.2,0.3,1.7,0.5
				c-0.2,0-0.6-0.1-0.9-0.2c-0.3-0.1-0.9-0.3-1.4-0.4c-0.1,0-0.2,0.1-0.4,0c-0.1-0.1-0.3,0-0.5-0.1c0.2,0,0.5,0,0.7,0.1
				c0-0.1-0.6-0.1-0.7-0.2c-0.1,0-0.6-0.1-0.9-0.1C11.8,0.4,11.7,0.3,11.5,0.3C11.5,0.3,11.5,0.3,11.5,0.3
				C11.5,0.3,11.5,0.3,11.5,0.3z M11.4,0.4c0.1,0,0.2,0,0.2,0.1c0,0,0,0,0.1,0l0.1,0C11.7,0.5,11.6,0.5,11.4,0.4
				c0.1,0.1,0.1,0.1,0.1,0.1c-0.1,0-0.5,0-0.7-0.1c0,0,0.1,0,0.1,0.1c-0.1,0-0.1,0-0.2,0c0,0-0.1,0-0.1,0l-0.1,0c-0.1,0-0.1,0-0.2,0
				c0,0-0.1,0-0.1,0c0,0,0.1,0,0.2,0c-0.2,0,0.3-0.1,0.7-0.1C11.2,0.4,11.3,0.4,11.4,0.4z"/>
			<path class="st0" d="M11.6,0.5C11.6,0.5,11.6,0.5,11.6,0.5C11.6,0.5,11.6,0.5,11.6,0.5C11.5,0.5,11.6,0.5,11.6,0.5z"/>
			<path class="st0" d="M11.5,0.3C11.5,0.3,11.5,0.3,11.5,0.3c0.1,0,0.1,0,0.2,0C11.7,0.3,11.6,0.3,11.5,0.3
				C11.5,0.3,11.5,0.3,11.5,0.3z"/>
		</g>
	</g>
</g>
</svg>
