<?xml version="1.0" encoding="utf-8"?>
<!-- Generator: Adobe Illustrator 21.0.0, SVG Export Plug-In . SVG Version: 6.00 Build 0)  -->
<svg version="1.1" id="Layer_1" xmlns="http://www.w3.org/2000/svg" xmlns:xlink="http://www.w3.org/1999/xlink" x="0px" y="0px"
	 viewBox="0 0 30 25" style="enable-background:new 0 0 30 25;" xml:space="preserve">
<style type="text/css">
	.st0{fill:#FFC521;}
</style>
<g>
	<path class="st0" d="M11.4,0.8c6.5-1,13.7,3.2,15.9,9.5c2.4,6.8,2,11.5-5.1,13.3c-7,1.8-18.6,0.2-20.4-6.8C0.5,11,5.5,1.7,11.4,0.8
		z"/>
	<path d="M16.5,24.4c-2.2,0-4.4-0.3-6.4-0.8c-2.1-0.6-3.9-1.4-5.3-2.5c-1.6-1.2-2.6-2.7-3-4.4C1,13.8,2,9.5,4.4,5.9
		c2-3,4.5-4.9,7-5.2l0,0.1l0-0.1C14.6,0.2,18,1,21.1,2.7c3.1,1.8,5.3,4.5,6.4,7.6c1.6,4.4,1.7,7.5,0.6,9.7c-1,1.8-2.8,3-5.7,3.8
		C20.6,24.2,18.6,24.4,16.5,24.4z M13.3,0.9c-0.6,0-1.3,0-1.9,0.1C9,1.3,6.6,3.2,4.7,6.1C2.3,9.6,1.3,13.8,2,16.7
		c0.4,1.6,1.4,3,2.9,4.2c1.4,1,3.1,1.9,5.2,2.4c3.8,1,8.4,1,12.1,0.1c2.8-0.7,4.6-1.9,5.5-3.6c1.1-2.1,0.9-5.1-0.6-9.5
		C25.2,4.8,19.3,0.9,13.3,0.9z"/>
</g>
</svg>
