<?xml version="1.0" encoding="utf-8"?>
<!-- Generator: Adobe Illustrator 22.0.1, SVG Export Plug-In . SVG Version: 6.00 Build 0)  -->
<svg version="1.1" id="Layer_1" xmlns="http://www.w3.org/2000/svg" xmlns:xlink="http://www.w3.org/1999/xlink" x="0px" y="0px"
	 viewBox="0 0 30 25" style="enable-background:new 0 0 30 25;" xml:space="preserve">
<style type="text/css">
	.st0{fill:#3FA9F5;}
</style>
<g>
	<path class="st0" d="M21.9,22.9C16.2,24.8,8.3,21.8,4.4,16C0.3,9.6-0.7,5,5.2,2.1S22.3-1,26,5.7C29.1,11.1,27,21.1,21.9,22.9z"/>
	<path d="M0.8,7.7c0-0.6,0.1-1.2,0.3-1.6C1.7,4.4,2.9,3,5.2,1.9c6.2-2.9,17.5-3,21.1,3.7c1.8,3.4,1.9,8.5,0.2,12.6
		c-1,2.5-2.7,4.2-4.5,4.8l0,0c-5.9,2-13.9-1.1-17.7-6.9C1.9,12.5,0.8,9.9,0.8,7.7z M27.2,11.9c0-2.2-0.5-4.4-1.4-6.1
		C22.3-0.6,11.4-0.5,5.4,2.3c-2.2,1.1-3.5,2.3-4,3.9c-0.7,2.3,0.4,5.4,3.2,9.6c3.8,5.7,11.5,8.7,17.2,6.8C23.5,22,25,20.4,26,18
		C26.8,16.1,27.2,14,27.2,11.9z"/>
</g>
</svg>
