<?xml version="1.0" encoding="utf-8"?>
<!-- Generator: Adobe Illustrator 21.0.0, SVG Export Plug-In . SVG Version: 6.00 Build 0)  -->
<svg version="1.1" id="Layer_1" xmlns="http://www.w3.org/2000/svg" xmlns:xlink="http://www.w3.org/1999/xlink" x="0px" y="0px"
	 viewBox="0 0 30 25" style="enable-background:new 0 0 30 25;" xml:space="preserve">
<style type="text/css">
	.st0{fill:#3FA9F5;}
</style>
<g>
	<path class="st0" d="M23.3,23.9c-6.2,2-14.8-1.1-19-7.1C-0.2,10.2-1.3,5.4,5.2,2.4s18.6-3.2,22.6,3.7
		C31.1,11.7,28.9,22.1,23.3,23.9z"/>
	<path d="M0.4,8.2c0-0.6,0.1-1.2,0.3-1.7c0.6-1.8,2-3.2,4.5-4.3c6.7-3,19-3.1,22.9,3.8c2,3.5,2.1,8.8,0.2,13.1
		c-1.1,2.6-2.9,4.4-4.9,5h0C17,26.2,8.3,23,4.1,16.9C1.6,13.2,0.4,10.5,0.4,8.2z M29.1,12.5c0-2.3-0.5-4.6-1.5-6.3
		C23.8-0.4,11.9-0.3,5.4,2.6C3,3.7,1.6,5,1.1,6.6c-0.8,2.4,0.3,5.6,3.4,10c4.1,5.9,12.5,9,18.7,7c1.9-0.6,3.5-2.3,4.6-4.8
		C28.7,16.9,29.1,14.7,29.1,12.5z"/>
</g>
</svg>
