<?xml version="1.0" encoding="utf-8"?>
<!-- Generator: Adobe Illustrator 22.0.1, SVG Export Plug-In . SVG Version: 6.00 Build 0)  -->
<svg version="1.1" id="Layer_1" xmlns="http://www.w3.org/2000/svg" xmlns:xlink="http://www.w3.org/1999/xlink" x="0px" y="0px"
	 viewBox="0 0 30 25" style="enable-background:new 0 0 30 25;" xml:space="preserve">
<style type="text/css">
	.st0{fill:#69BE5A;}
</style>
<g>
	<path class="st0" d="M19,23.3c-6.6,1-13.9-3.1-16.1-9.2C0.4,7.5,0.8,2.9,7.9,1.2S26.8,1,28.6,7.9C30.1,13.4,24.9,22.4,19,23.3z"/>
	<path d="M17.1,23.6c-6.2,0-12.4-3.9-14.4-9.5C1,9.9,0.9,6.8,2.1,4.7C3,2.9,5,1.7,7.9,1c3.8-1,8.5-0.9,12.4,0.1
		c4.6,1.1,7.7,3.5,8.5,6.7c0.8,3-0.3,7.2-2.7,10.6c-2,2.9-4.6,4.7-7.1,5.1l0,0C18.4,23.6,17.7,23.6,17.1,23.6z M13.8,0.8
		c-2,0-4,0.2-5.8,0.7C5.2,2,3.3,3.2,2.4,4.9c-1.1,2-1,5,0.6,9.1c2.2,5.9,9.3,10.1,15.9,9.1l0,0c2.4-0.4,4.9-2.1,6.8-4.9
		c2.4-3.4,3.4-7.5,2.6-10.3C27.1,2.9,20.2,0.8,13.8,0.8z"/>
</g>
</svg>
