<?xml version="1.0" encoding="utf-8"?>
<!-- Generator: Adobe Illustrator 22.0.1, SVG Export Plug-In . SVG Version: 6.00 Build 0)  -->
<svg version="1.1" id="Layer_1" xmlns="http://www.w3.org/2000/svg" xmlns:xlink="http://www.w3.org/1999/xlink" x="0px" y="0px"
	 viewBox="0 0 30 25" style="enable-background:new 0 0 30 25;" xml:space="preserve">
<style type="text/css">
	.st0{fill:#DA8853;}
</style>
<g>
	<g>
		<g>
			<path class="st0" d="M21.4,0.8C21.3,0.8,21.2,0.7,21.4,0.8C21.3,0.8,21.3,0.8,21.4,0.8z"/>
			<path class="st0" d="M21.6,0.9L21.6,0.9c-0.2,0-0.4,0-0.3,0c-0.3,0-0.8-0.1-0.8-0.1c-0.2,0-0.7,0-0.8,0c0.2,0,0.5,0,0.7,0.1
				c-0.2,0-0.4,0-0.5,0c-0.3,0-0.3-0.1-0.4-0.1c-0.5,0-1.1,0.1-1.5,0.1c-0.3,0-0.7,0-0.9,0c0.6-0.1,1.3-0.2,1.8-0.2
				c-0.2,0-0.4,0-0.6-0.1c0.1,0,0,0.1,0,0.1h-0.4l0,0h-0.4c0.2,0,0-0.1-0.2-0.1h-0.1c-0.1,0-0.6-0.1-1.2-0.2
				c-0.5-0.1-1.1-0.2-1.2-0.2c-0.1,0-0.2,0-0.3,0l0,0c0,0.1-0.5,0-0.5,0.1c-0.2,0-0.4,0-0.4,0c-0.5,0-0.7,0.2-1.3,0.1v0.1
				c-0.2,0-0.2,0-0.3,0s-0.1,0-0.4,0c-0.1,0-0.2,0.1-0.3,0.1s-0.2,0-0.2,0.1c-0.1,0-0.2,0-0.2,0.1C9.2,1,7.6,1.6,6.2,2.3
				C6.1,2.2,6.8,2,6.7,1.9C5.4,2.5,4.2,3.3,3.2,4.2c-1,1-1.7,2.1-2.1,3.2C1,7.6,1,7.7,1,7.9S0.9,8.2,0.9,8.4s0,0.3,0,0.5
				s0,0.4-0.1,0.6V9.4c0,0.1,0,0.2-0.1,0.4s-0.1,0.4-0.2,0.6c-0.1,0.2-0.1,0.4-0.1,0.6c0,0.2,0,0.3,0,0.3c0,0.7,0.1,0.5,0.1,1.2
				c0.1,0.1,0.2,0.3,0.2,0.5c0,0.3,0,0.6,0.1,0.9c0,0.2,0.1,0.3,0.1,0.5S1,14.7,1,14.9c0.1,0.2,0.1,0.4,0.2,0.5
				c0.1,0.2,0.1,0.4,0.2,0.5c-0.1-0.2-0.2-0.2-0.2,0c0,0.2,0.3,0.5,0.6,0.9c0.1,0.2,0.1,0.3,0.1,0.4s0.1,0.2,0.2,0.3
				c0,0.3,0.2,0.7,0.4,1.1C3.2,19.4,4,20.1,5,20.8c0.3,0.2,0.5,0.3,0.8,0.5c0.1,0.1,0.3,0.2,0.4,0.2l0.4,0.2
				c0.3,0.2,0.6,0.2,0.9,0.4c0.3,0.1,0.6,0.2,0.9,0.3c0.1,0.1,0.2,0.1,0.3,0.1c0.2,0,1.8,0.7,3.4,1.2c1.7,0.5,3.5,0.8,3.6,0.8
				s0.3,0,0.3,0.1c0.6,0.1,1.2,0.1,1.8,0c0.3,0,0.6,0,0.9-0.1c0.3,0,0.6-0.1,1-0.1h-0.1c0.2,0,0.3,0,0.5-0.1c0.2,0,0.3-0.1,0.5-0.1
				c0.3-0.1,0.6-0.2,1-0.3c0.6-0.2,1.2-0.5,1.7-0.8c1-0.6,1.8-1.4,2.4-2.1c0.1-0.2,0.2-0.3,0.2-0.5c0.1-0.2,0.2-0.3,0.3-0.5
				c0.6-0.8,1-1.7,1.4-2.6c0.4-1,0.6-2,0.8-2.9c0.1-0.9,0.2-1.8,0.2-2.7c0-0.4,0-0.9,0-1.3c0-0.2,0-0.4,0-0.6c0-0.2,0-0.4,0-0.6
				C28.5,8,28.4,6.7,28,5.4c-0.1-0.3-0.3-0.7-0.4-1c-0.2-0.3-0.4-0.7-0.6-1c-0.5-0.6-1.3-1.2-2.2-1.6h0.1c-0.4-0.1-0.7-0.2-0.9-0.2
				c-0.2-0.1-0.5-0.1-1-0.1l0,0l0,0c0.1,0,0.1,0,0.1,0l0,0c0,0,0,0,0.1,0s-0.3-0.1-0.7-0.2C22.1,1,22,1,21.9,1C22,1,22,1,22,1
				c0.1,0,0-0.1-0.2-0.1C21.7,0.8,21.6,0.8,21.6,0.9L21.6,0.9z M21.9,1c0.4,0.1,0.8,0.3,0.6,0.2c0.1,0,0.2,0,0.2,0h-0.1
				c-0.1,0-0.1,0-0.2,0h-0.1h-0.1c-0.1,0-0.2,0-0.2-0.1c0,0,0.1,0,0.1-0.1c-0.1,0.1-0.5,0-0.6,0h0.1c-0.1,0-0.3,0-0.3-0.1h0.1l0,0
				c0,0,0.1,0,0.2,0C21.8,1,21.9,1,21.9,1z"/>
			<path class="st0" d="M21.5,1C21.4,1,21.4,1,21.5,1C21.4,1,21.5,1,21.5,1L21.5,1z"/>
			<path class="st0" d="M21.6,0.8L21.6,0.8c-0.1,0-0.1,0-0.2-0.1C21.4,0.8,21.5,0.8,21.6,0.8L21.6,0.8z"/>
		</g>
	</g>
</g>
</svg>
