<?xml version="1.0" encoding="utf-8"?>
<!-- Generator: Adobe Illustrator 22.0.1, SVG Export Plug-In . SVG Version: 6.00 Build 0)  -->
<svg version="1.1" id="Layer_1" xmlns="http://www.w3.org/2000/svg" xmlns:xlink="http://www.w3.org/1999/xlink" x="0px" y="0px"
	 viewBox="0 0 30 25" style="enable-background:new 0 0 30 25;" xml:space="preserve">
<style type="text/css">
	.st0{fill:#FFC521;}
</style>
<g>
	<path class="st0" d="M11,0.6c6.7-1,14.2,3.2,16.5,9.4c2.5,6.7,2.1,11.3-5.3,13.1C15,24.8,2.9,23.2,1.1,16.3
		C-0.3,10.6,4.9,1.5,11,0.6z"/>
	<path d="M16.3,23.8c-2.3,0-4.6-0.3-6.6-0.8c-2.2-0.6-4-1.4-5.5-2.5c-1.7-1.2-2.7-2.7-3.1-4.3C0.2,13.4,1.3,9.2,3.8,5.6
		c2.1-3,4.7-4.8,7.3-5.1v0.1V0.5c3.3-0.5,6.8,0.3,10.1,2c3.2,1.8,5.5,4.4,6.6,7.5c1.7,4.3,1.8,7.4,0.6,9.6c-1,1.8-2.9,3-5.9,3.7
		C20.6,23.6,18.5,23.8,16.3,23.8z M13,0.7c-0.6,0-1.3,0-2,0.1c-2.5,0.3-5,2.2-6.9,5c-2.5,3.4-3.5,7.6-2.8,10.4c0.4,1.6,1.5,3,3,4.1
		c1.5,1,3.2,1.9,5.4,2.4c3.9,1,8.7,1,12.5,0.1c2.9-0.7,4.8-1.9,5.7-3.5c1.1-2.1,0.9-5-0.6-9.4C25.3,4.5,19.2,0.7,13,0.7z"/>
</g>
</svg>
