<?xml version="1.0" encoding="utf-8"?>
<!-- Generator: Adobe Illustrator 21.1.0, SVG Export Plug-In . SVG Version: 6.00 Build 0)  -->
<svg version="1.1" id="Layer_1" xmlns="http://www.w3.org/2000/svg" xmlns:xlink="http://www.w3.org/1999/xlink" x="0px" y="0px"
	 viewBox="0 0 30 30" style="enable-background:new 0 0 30 30;" xml:space="preserve">
<path d="M18.9,21.3c-5.3,3.8-12.1,2.3-15.6-2.2c-3.4-4.5-3-10.8,1-14.8c4-4,10.3-4.4,14.8-0.9c4.4,3.4,6,10.2,2.2,15.5
	c0.1,0.1,0.1,0.1,0.2,0.2c2,2,4.1,4.1,6.1,6.1c0.7,0.7,0.8,1.5,0.2,2.3c-0.6,0.8-1.8,0.9-2.6,0.2c-2.1-2.1-4.1-4.1-6.2-6.2
	C19.1,21.4,19,21.4,18.9,21.3z M4.4,12.2c0,4.2,3.3,7.8,7.8,7.8c4.4,0,7.8-3.5,7.9-7.8c0-4.3-3.5-7.8-7.8-7.8
	C7.9,4.4,4.4,7.9,4.4,12.2z"/>
</svg>
