<?xml version="1.0" encoding="utf-8"?>
<!-- Generator: Adobe Illustrator 21.0.0, SVG Export Plug-In . SVG Version: 6.00 Build 0)  -->
<svg version="1.1" id="Layer_1" xmlns="http://www.w3.org/2000/svg" xmlns:xlink="http://www.w3.org/1999/xlink" x="0px" y="0px"
	 viewBox="0 0 34.1 9.6" style="enable-background:new 0 0 34.1 9.6;" xml:space="preserve">
<style type="text/css">
	.st0{fill:#FFFFFF;}
	.st1{font-family:'TheSans-B8ExtraBold';}
	.st2{font-size:2.799px;}
</style>
<g>
	<text transform="matrix(0.7 0 0 0.7 3.6495 9.1737)" class="st0 st1 st2">de</text>
	<text transform="matrix(1 0 0 1 7.0724 9.1737)" class="st0 st1 st2"> </text>
	<text transform="matrix(0.7 0 0 0.7 8.5221 9.1737)" class="st0 st1 st2">maíz</text>
	<text transform="matrix(1 0 0 1 15.4205 9.1737)" class="st0 st1 st2"> </text>
	<text transform="matrix(0.7 0 0 0.7 16.8707 9.1737)" class="st0 st1 st2">con</text>
	<text transform="matrix(1 0 0 1 22.4547 9.1737)" class="st0 st1 st2"> </text>
	<text transform="matrix(0.7 0 0 0.7 23.9049 9.1737)" class="st0 st1 st2">papa</text>
	<g>
		<g>
			<path class="st0" d="M4.4,1.5c0,0,0,0.2,0,0.2c0,0.1-0.1,0.1-0.2,0.2C4.1,2,4.1,2.1,4,2.1c-0.1,0-0.1,0.1-0.2,0.2
				c-0.1,0-0.2,0.1-0.2,0.1c-0.1,0-0.1,0.1-0.2,0.1c-0.1,0-0.2,0.1-0.2,0.1C3.1,2.7,3,2.7,2.9,2.7c-0.1,0-0.1,0.1-0.2,0.1
				c0.1,0,0.1,0.1,0.1,0.1C2.9,3,2.9,3.1,3,3.2C3,3.2,3,3.3,3.1,3.4c0,0.1,0.1,0.1,0.1,0.2c0,0.1,0,0.1,0.1,0.2c0,0.1,0,0.1,0.1,0.2
				c0,0.1,0.1,0.1,0.1,0.2c0,0.1,0,0.1,0.1,0.2c0,0.1,0,0.2,0,0.2c0,0.1,0.1,0.1,0.1,0.2c0,0.1,0,0.1,0,0.2c0,0.1,0,0.2,0,0.2
				c0,0.1,0,0.1,0,0.2c0,0.1,0,0.1,0,0.2c0,0.1,0,0.1,0.1,0.2c0,0.1,0,0.1,0,0.2c0,0.1,0,0.1,0.1,0.2c0,0.1,0,0.1,0,0.2
				c0,0.1,0,0.1,0,0.2c0,0.1-0.1,0.1-0.1,0.2C3.7,6.9,3.7,7,3.6,7c0,0.1-0.1,0.1-0.1,0.2c-0.1,0-0.1,0.1-0.2,0.1
				c-0.1,0-0.1,0.1-0.2,0.1c-0.1,0-0.1,0-0.2,0c0,0,0-0.1-0.1,0c0,0-0.1,0-0.1,0c-0.1,0-0.1-0.2-0.1-0.2c0-0.1,0-0.2,0-0.2
				c0-0.1-0.1-0.2-0.1-0.2c0-0.1,0-0.2,0-0.2c0-0.1,0-0.1,0-0.2c0-0.1,0-0.1,0-0.2c0-0.1,0-0.2,0-0.2c0-0.1,0-0.1,0-0.2
				c0-0.1,0-0.1-0.1-0.2c0-0.1,0-0.1,0-0.2C2.4,5.1,2.3,5,2.3,5c0-0.1,0-0.1,0-0.2c0-0.1,0-0.1,0-0.2c0-0.1-0.1-0.1-0.1-0.2
				c0-0.1,0-0.1,0-0.2c0-0.1,0-0.1,0-0.2c0-0.1,0-0.1,0-0.2c0-0.1,0-0.1-0.1-0.2c0-0.1,0-0.1,0-0.2c0-0.1,0-0.1,0-0.2
				c-0.1,0-0.2,0.1-0.2,0.1c-0.1,0-0.2,0.1-0.2,0.1c-0.1,0-0.2,0.1-0.3,0.1C1.2,3.4,1.1,3.5,1,3.5c-0.1,0-0.2,0-0.2,0.1
				c-0.1,0-0.2,0-0.2,0.1c-0.1,0-0.2,0.1-0.2,0c-0.2,0.1-0.2,0-0.1-0.1c-0.2,0,0-0.2,0-0.2c0.1,0,0.1-0.1,0.2-0.1
				C0.6,3.1,0.6,3,0.7,3c0.1,0,0.1-0.1,0.2-0.1C1,2.8,1,2.8,1.1,2.8c0.1,0,0.2-0.1,0.2-0.1c0.1,0,0.1-0.1,0.2-0.1
				c0.1,0,0.2-0.1,0.2-0.1C1.9,2.4,2,2.4,2,2.4c0.1,0,0.2-0.1,0.2-0.1c0.1,0,0.2-0.1,0.2-0.1c0.1,0,0.2,0,0.2-0.1C2.8,2.1,2.9,2,3,2
				c0.1,0,0.2,0,0.2-0.1c0.1,0,0.2-0.1,0.2-0.1c0.1,0,0.2,0,0.2-0.1c0.1,0,0.2-0.1,0.2-0.1c0.1,0,0.2-0.1,0.2-0.1
				c0,0-0.2,0.1-0.2,0.1c0,0,0,0,0.2-0.1C4.2,1.6,4.3,1.5,4.4,1.5z M3.2,6.6c0,0,0,0.1,0,0.1C3.3,6.7,3.3,6.7,3.2,6.6z M3,5.4
				C3,5.4,3,5.4,3,5.4C3,5.4,3,5.4,3,5.4z M3,5.4C3,5.4,3,5.4,3,5.4C3,5.4,3,5.4,3,5.4C3,5.4,3,5.4,3,5.4z M2.9,4.9
				c0,0.1,0,0.2,0,0.2c0,0.1,0,0.1,0,0.1c0,0,0-0.1,0-0.1C2.9,5.1,2.9,5,2.9,4.9z"/>
			<path class="st0" d="M8.8,5.3c0,0.1-0.1,0.2-0.2,0.2C8.6,5.6,8.5,5.7,8.4,5.7c-0.1,0-0.2,0.1-0.3,0.1C8,5.9,7.9,5.9,7.8,6
				C7.7,6,7.6,6.1,7.5,6.1c-0.1,0-0.2,0.1-0.3,0.1C7.1,6.2,7,6.3,7,6.3c-0.1,0-0.2,0-0.3,0c-0.1,0-0.2,0-0.3,0c-0.1,0-0.2,0-0.3-0.1
				C6,6.3,5.9,6.2,5.9,6.2C5.8,6.1,5.8,6,5.7,6c0-0.1-0.1-0.1-0.1-0.2c0-0.1-0.1-0.2-0.1-0.3c0-0.1,0-0.2,0-0.3c0-0.1,0-0.2,0-0.3
				c0-0.1,0-0.2,0-0.3c0-0.1,0-0.2,0-0.3c0-0.1,0-0.2,0-0.3c0-0.1,0-0.2,0-0.3c0-0.1,0-0.2,0-0.3c0-0.1,0-0.2,0-0.3
				c0-0.1,0-0.2,0-0.3c0-0.1,0-0.2,0-0.3c0-0.1,0-0.2,0-0.3c0-0.1,0-0.2,0-0.3c0-0.1,0-0.2,0-0.3c0-0.1,0.1-0.2,0.1-0.3
				c0-0.1,0.1-0.2,0.1-0.3C6,1.3,6,1.3,6.1,1.2c0.1-0.1,0.2-0.1,0.3-0.1c0.1,0,0.2,0,0.3,0.1c0.1,0.1,0.1,0.1,0.1,0.2
				c0,0.1,0,0.2,0,0.2c0,0.1,0,0.2,0,0.2c0,0.1,0,0.1,0,0.1c0,0.1,0,0.1,0,0.2c0,0.1,0,0.2-0.1,0.4c0,0.1,0,0.2,0,0.3
				c0,0.1-0.1,0.2-0.1,0.3c0,0.1,0,0.2,0,0.3c0,0.1,0,0.2,0,0.3c0,0.1,0,0.2,0,0.3c0,0.1,0,0.2,0,0.3c0,0.1,0,0.2,0,0.3
				c0,0.1,0,0.2,0,0.3c0,0.1,0.1,0.2,0.1,0.3c0,0.1,0.1,0.2,0.1,0.3C7,5.4,7.1,5.5,7.2,5.5c0.1,0,0.2,0,0.4,0c0.1,0,0.2,0,0.4-0.1
				C8,5.5,8,5.4,8.1,5.4c0.1,0,0.2,0,0.3-0.1c0.1,0,0.2,0,0.3-0.1C8.7,5.3,8.7,5.3,8.8,5.3C8.7,5.3,8.7,5.3,8.8,5.3
				c-0.1,0-0.1,0-0.1,0C8.7,5.3,8.8,5.3,8.8,5.3z M8.5,5.3C8.6,5.3,8.6,5.3,8.5,5.3C8.6,5.3,8.6,5.3,8.5,5.3z"/>
			<path class="st0" d="M12.9,5.2c0,0.1,0,0.1,0,0.2c0,0.1-0.1,0.1-0.1,0.1c-0.1,0-0.1,0.1-0.1,0.1c-0.1,0-0.1,0-0.1,0.1
				c-0.1,0-0.1,0-0.2,0c-0.1,0-0.1,0-0.2,0c0-0.1-0.1-0.1-0.1-0.2c0-0.1-0.1-0.1-0.1-0.1c0-0.1,0-0.1-0.1-0.2c0-0.1,0-0.1-0.1-0.2
				c0-0.1,0-0.1,0-0.2c0-0.1,0-0.1-0.1-0.2c0-0.1,0-0.1-0.1-0.2c0-0.1-0.1-0.1-0.1-0.2c0-0.1,0-0.1-0.1-0.2c0-0.1-0.1-0.1-0.1-0.2
				c0-0.1,0-0.1-0.1-0.2c0-0.1,0-0.1-0.1-0.2c-0.1,0-0.1-0.1-0.2-0.1c-0.1,0-0.1,0-0.2,0c-0.1,0-0.1,0-0.2,0.1c-0.1,0-0.1,0-0.2,0.1
				c0,0.1,0,0.1,0,0.2c0,0.1,0,0.1,0,0.2c0,0.1,0,0.1,0,0.2c0,0.1,0,0.1,0,0.2c0,0.1,0,0.1,0,0.2c0,0.1,0,0.1,0,0.2
				c0,0.1,0,0.1,0,0.2c0,0.1,0,0.1-0.1,0.2c0,0.1,0,0.1,0,0.2c0,0.1,0,0.1,0,0.2c0,0.1,0,0.1,0,0.2c0,0.1,0,0.1-0.1,0.2
				c0,0.1-0.1,0.1-0.1,0.1c0,0.1,0,0.1-0.1,0.2C10,6,10,6,9.9,6c0,0-0.1,0.1-0.1,0.1c-0.1,0-0.1,0.1-0.1,0.1c-0.1,0-0.1,0.1-0.1,0.1
				c-0.1,0-0.1,0-0.2,0.1c-0.1,0-0.1,0-0.1-0.1c0-0.1,0-0.1-0.1-0.2c0-0.1,0-0.1,0-0.2c0-0.1,0-0.1,0-0.2c0-0.1,0-0.1,0-0.2
				c0-0.1,0-0.1,0-0.2c0-0.1,0-0.1,0-0.2c0-0.1,0-0.1,0-0.2c0-0.1,0-0.1,0-0.2c0-0.1,0-0.1,0-0.2c0-0.1,0-0.1,0.1-0.2
				c0-0.1,0-0.1,0-0.2c0-0.1,0-0.1,0-0.2c0-0.1,0-0.1,0-0.2c0-0.1,0-0.1,0-0.2c-0.1,0-0.1,0-0.1,0c0-0.1,0-0.1,0.1-0.1
				c0-0.1,0.1-0.1,0.1-0.2c0-0.1,0-0.1,0.1-0.2c0-0.1,0-0.1,0-0.2c0-0.1,0-0.1,0.1-0.2c0-0.1,0-0.1,0-0.2c0-0.1,0-0.1,0-0.2
				c0-0.1,0-0.1,0-0.2c0-0.1,0-0.1,0-0.2c0-0.1,0-0.1,0-0.2c0-0.1,0-0.1,0-0.2c0-0.1,0-0.1,0-0.2c0-0.1,0-0.1,0-0.2
				c0-0.1,0-0.1,0.1-0.2c0-0.1,0-0.1,0-0.2c0-0.1,0-0.1,0.1-0.2c0-0.1,0.1-0.1,0.1-0.1c0.1,0,0.1-0.1,0.1-0.1c0.1,0,0.1-0.1,0.1-0.1
				c0.1,0,0.1-0.1,0.2-0.1c0.1,0,0.1,0,0.2,0C10.7,1,10.7,1,10.8,1c0,0.1,0.1,0.1,0.1,0.1c0,0.1,0,0.1,0.1,0.2c0,0.1,0,0.1,0.1,0.1
				c0,0.1,0.1,0.1,0.1,0.2c0,0.1,0,0.1,0.1,0.2c0,0.1,0,0.1,0.1,0.2c0,0.1,0.1,0.1,0.1,0.2c0,0.1,0,0.1,0.1,0.2c0,0.1,0,0.1,0.1,0.2
				c0,0,0.1,0.1,0.1,0.1c0,0.1,0,0.1,0.1,0.1c0,0.1,0,0.1,0.1,0.1c0,0.1,0,0.1,0.1,0.1C11.9,3,11.9,3,12,3.1c0.1,0,0.1,0,0.2,0
				c0.1,0,0.1,0,0.2,0c0,0,0.1,0.1,0.1,0.1c-0.1,0-0.1,0.1-0.1,0.1c-0.1,0-0.1,0.1-0.1,0.1c-0.1,0-0.1,0.1-0.1,0.1c0,0,0,0,0,0
				c0,0,0,0,0,0c0,0.1,0.1,0.1,0.1,0.1c0,0.1,0,0.1,0.1,0.2c0,0.1,0,0.1,0.1,0.2c0,0.1,0.1,0.1,0.1,0.2c0,0.1,0.1,0.1,0.1,0.2
				c0,0.1,0,0.1,0,0.2c0,0.1,0,0.1,0.1,0.2c0,0.1,0,0.1,0.1,0.2c0,0.1,0,0.1,0,0.2c0,0.1,0.1,0.1,0.1,0.1
				C12.8,5.1,12.8,5.1,12.9,5.2z M11.1,3.3c0-0.1,0-0.1-0.1-0.1c0-0.1,0-0.1-0.1-0.1c0-0.1,0-0.1-0.1-0.1c0,0-0.1-0.1-0.1-0.1
				c0-0.1,0-0.1-0.1-0.1c0,0.1,0,0.1,0,0.2c0,0.1,0,0.1,0,0.2c0,0.1,0,0.1,0,0.2c0,0.1,0,0.1,0,0.2c0,0.1,0,0.1,0,0.1c0,0,0,0,0,0
				c0.1,0,0.1,0,0.2-0.1C10.9,3.3,11,3.3,11.1,3.3z"/>
			<path class="st0" d="M17.9,2c-0.1,0.1-0.1,0.1-0.2,0.2c0,0.1-0.1,0.1-0.2,0.2c0,0.1-0.1,0.1-0.1,0.2c0,0.1-0.1,0.1-0.2,0.2
				c-0.1,0.1-0.1,0.1-0.1,0.2C17.1,2.9,17.1,3,17,3c0,0-0.1,0.1-0.1,0.1c0,0-0.1,0.1-0.1,0.1c0,0.1,0,0.2,0,0.3c0,0.1,0,0.1,0,0.2
				c0,0.1,0,0.1,0,0.2c0,0.1,0,0.1,0,0.2c0,0.1,0,0.1,0,0.2c0,0.1,0,0.1,0,0.2c0,0.1,0,0.1,0,0.2c0,0.1,0,0.1,0,0.2
				c0,0.1,0,0.2,0,0.2c0,0.1,0,0.1,0,0.2c0,0.1-0.1,0.1-0.1,0.2c0,0.1,0,0.1-0.1,0.2c0,0.1,0,0.1-0.1,0.2c0,0.1-0.1,0.1-0.1,0.2
				c0,0.1-0.1,0.1-0.1,0.2c0,0.1-0.1,0.1-0.1,0.2c0,0.1-0.1,0.1-0.2,0.2C16,6.9,15.9,6.9,15.9,7c-0.1,0-0.1,0.1-0.2,0.1
				c-0.1,0-0.1,0.1-0.2,0.1c-0.1,0-0.1,0-0.2,0c-0.1,0-0.1,0-0.2,0c-0.1,0-0.1,0-0.2,0c-0.1,0-0.2,0-0.2-0.1c-0.1,0-0.1-0.1-0.2-0.1
				c0-0.1-0.1-0.1-0.1-0.2c0-0.1,0-0.1,0-0.2c0-0.1,0-0.1,0-0.2c0-0.1,0-0.1,0.1-0.2c0-0.1,0-0.1,0.1-0.2c0-0.1,0.1-0.1,0.1-0.2
				c0-0.1,0.1-0.1,0.1-0.2c0-0.1,0.1-0.1,0.1-0.2c0-0.1,0.1-0.1,0.1-0.2c0-0.1,0.1-0.1,0.1-0.2c0-0.1,0.1-0.1,0.1-0.2
				c0-0.1,0.1-0.1,0.1-0.2c0-0.1,0.1-0.1,0.1-0.2c0-0.1,0.1-0.1,0.1-0.2c0,0,0.1-0.1,0.1-0.2c0,0,0.1-0.1,0.1-0.2
				c0.1-0.1,0-0.2,0-0.3c0-0.1,0-0.1,0-0.2c0-0.1,0-0.1,0-0.2c0-0.1,0-0.1,0-0.2c0,0.1-0.1,0.1-0.1,0.2c0,0.1-0.1,0.1-0.1,0.2
				c0,0.1-0.1,0.1-0.2,0.1c-0.1,0-0.1,0.1-0.2,0.1c-0.1,0-0.1,0.1-0.2,0.1c-0.1,0-0.1,0.1-0.2,0.1c-0.1,0-0.1,0-0.2,0.1
				c-0.1,0-0.1,0-0.2,0.1c-0.1,0-0.2,0-0.2,0c-0.1,0-0.2,0-0.2,0c-0.1,0-0.1,0-0.2-0.1c-0.1,0-0.1-0.1-0.2-0.1
				c-0.1,0-0.1-0.1-0.1-0.2c0-0.1-0.1-0.1-0.1-0.2c0-0.1,0-0.1-0.1-0.2c0-0.1-0.1-0.1-0.1-0.2c0-0.1-0.1-0.1-0.1-0.2
				C13,2.7,13,2.7,13,2.6c0-0.1-0.1-0.1-0.1-0.2c0-0.1,0-0.2,0-0.2c0-0.1,0-0.1,0-0.2c0-0.1,0-0.1,0-0.2c0-0.1,0-0.1,0-0.2
				c0-0.1,0-0.1,0-0.2c0-0.1,0-0.2,0-0.2c0-0.1,0.1-0.1,0.1-0.2C13,0.8,13,0.8,13,0.7c0-0.1,0.1-0.1,0.2-0.2
				c0.1-0.1,0.1-0.1,0.2-0.1c0.1-0.1,0.2-0.1,0.3-0.1c0.1,0,0.1,0,0.2,0.1c0,0.1,0,0.1,0,0.2c0,0.1,0,0.2,0,0.2c0,0.1,0,0.2,0,0.2
				c0,0.1,0,0.2,0,0.2c0,0.1,0,0.1,0.1,0.2c0,0.1,0.1,0.1,0.1,0.2c0,0.1,0.1,0.1,0.1,0.2c0,0.1,0,0.2,0.1,0.2c0,0.1,0.1,0.1,0.1,0.2
				c0,0.1,0.1,0.1,0.1,0.2c0,0.1,0,0.1,0.1,0.2c0,0.1,0.1,0.1,0.1,0.1c0,0,0.1,0.1,0.2,0.1c0,0,0.1,0,0.2,0c0,0,0-0.1,0.1-0.1
				c0-0.1,0.1-0.2,0.1-0.2c0-0.1,0.1-0.1,0.1-0.2c0-0.1,0-0.1,0-0.2c0-0.1,0.1-0.1,0.1-0.2c0-0.1,0-0.1,0.1-0.2c0-0.1,0-0.1,0.1-0.2
				c0-0.1,0-0.1,0-0.2c0,0,0-0.1,0-0.2c0-0.1,0-0.1,0-0.2c0-0.1,0-0.2,0.1-0.2c0,0,0.1-0.1,0.1-0.1c0,0,0.1-0.1,0.1-0.1
				c0.1,0,0.2-0.1,0.4-0.1c0.1,0,0.1,0.1,0.1,0.1c0,0.1,0,0.1-0.1,0.2c0,0.1,0.1,0.2,0.1,0.3c0,0.1,0.1,0.2,0.1,0.3
				c0,0.1,0,0.2,0,0.2c0,0.1,0,0.2,0,0.2c0,0.1,0,0.2,0,0.2c0,0.1,0,0.1,0.1,0.2c0,0.1,0,0.1,0,0.2c0,0.1,0,0.2,0,0.2
				c0-0.1,0.1-0.1,0.1-0.2c0,0,0.1-0.1,0.1-0.2c0,0,0.1-0.1,0.1-0.2c0,0,0.1-0.1,0.2-0.1c0-0.1,0.1-0.1,0.2-0.1
				c0.1,0,0.1-0.1,0.2-0.1c0.1,0,0.1,0,0.2,0c0.1,0-0.1,0,0,0C17.9,1.8,18.1,1.9,17.9,2z M15.8,4.6c0,0.1-0.1,0.1-0.1,0.2
				c0,0.1-0.1,0.1-0.1,0.2c0,0.1-0.1,0.1-0.1,0.2c0,0.1-0.1,0.1-0.1,0.2c0,0.1-0.1,0.1-0.1,0.2c0,0.1,0,0.1-0.1,0.2c0,0,0,0,0,0
				c0,0,0,0.1,0,0.2c0,0.1-0.1,0.1-0.1,0.2c0,0.1,0,0.2,0,0.2c0,0.1,0,0.2,0,0.2c0,0.1,0.1,0.1,0.1,0.2c0-0.1,0.1-0.1,0.1-0.2
				c0-0.1,0.1-0.1,0.1-0.2c0-0.1,0.1-0.1,0.1-0.2c0-0.1,0-0.1,0.1-0.2c0-0.1,0-0.1,0-0.2c0-0.1,0.1-0.1,0.1-0.2c0-0.1,0-0.1,0.1-0.2
				c0-0.1,0-0.1,0-0.2c0-0.1,0-0.1,0-0.2c0-0.1,0-0.1,0-0.2C15.8,4.7,15.8,4.6,15.8,4.6z M15.2,5.9C15.2,5.9,15.2,5.9,15.2,5.9
				C15.1,6,15.1,5.9,15.2,5.9z M15.1,3.2C15.1,3.2,15,3.2,15.1,3.2C15,3.2,15,3.2,15.1,3.2C15.1,3.2,15.1,3.2,15.1,3.2
				C15.1,3.2,15.1,3.2,15.1,3.2z"/>
			<path class="st0" d="M22.4,0.4c0,0.1-0.2,0.3-0.3,0.4C22,1,21.8,1,21.6,1.1c-0.1,0-0.2,0.1-0.3,0.1c-0.1,0.1,0,0.2,0,0.2
				c0.1,0.2,0.1,0.3,0.2,0.5c0.1,0.2,0.1,0.3,0.1,0.5c0,0.2,0.1,0.4,0,0.6c0,0.2,0,0.4,0,0.6c0,0.1,0,0.3-0.1,0.4
				c-0.1,0.1-0.1,0.2-0.1,0.3c-0.1,0.2-0.2,0.4-0.4,0.6C20.9,5,20.7,5,20.5,5.2c-0.2,0.1-0.4,0.1-0.6,0.1c-0.3,0.1-0.5,0-0.7-0.1
				c-0.2-0.1-0.4-0.2-0.5-0.4c-0.3-0.4-0.3-0.9-0.4-1.3c0-0.1,0-0.3,0-0.4c0-0.1,0-0.2,0-0.3c0-0.2,0.1-0.4,0.1-0.7
				c0-0.1,0-0.3,0.1-0.4c0-0.1,0.1-0.2,0.2-0.3c0.1-0.2,0.2-0.4,0.4-0.6c0.1-0.1,0.2-0.2,0.3-0.3c0.1-0.1,0.2-0.1,0.3-0.1
				c0.3,0,0.5-0.2,0.7-0.1c0.2,0,0.4,0,0.5,0.2c0,0.1,0.1,0.2,0.1,0.2C21,0.8,21.1,0.9,21.1,1c0.3-0.2,0.5-0.6,0.9-0.7
				c0,0-0.1,0,0,0c0,0,0,0,0,0c0,0-0.1,0,0,0C22.1,0.4,22.5,0.2,22.4,0.4z M20.9,3.2c0-0.4-0.1-0.7-0.2-1c0,0,0,0,0,0c0,0,0,0,0,0
				c0,0,0,0,0,0c0,0,0.1,0.1,0.1,0.1c0,0-0.1-0.3-0.1-0.4c0-0.1-0.1-0.3-0.3-0.4c-0.2,0-0.4,0-0.5,0c-0.1,0-0.2,0-0.2,0.1
				c-0.1,0.1-0.1,0.3-0.1,0.5c0,0.2-0.1,0.3-0.1,0.5c0,0.4-0.1,0.7,0,1.1c0,0.2,0.1,0.4,0.2,0.5c0.1,0.1,0.2,0.2,0.3,0.3
				c0.1,0.1,0.3,0.2,0.5,0.1c0.2-0.1,0.2-0.2,0.3-0.4c0.1-0.2,0.1-0.4,0.1-0.6C20.9,3.5,20.9,3.4,20.9,3.2z M20.1,0.9
				c0,0.2,0,0.3,0.2,0.3C20.3,1.1,20.2,1,20.1,0.9z"/>
			<path class="st0" d="M25.3,5.3c0,0.1-0.2,0.1-0.2,0.2c-0.1,0-0.2,0.1-0.3,0.1c-0.1,0-0.2,0-0.3,0c-0.1,0-0.2,0-0.3,0.1
				c-0.1,0-0.2,0-0.3,0c-0.1,0-0.2,0-0.3,0c-0.1,0-0.2,0-0.3,0c-0.1,0-0.2,0-0.3-0.1c-0.1,0-0.2,0-0.3-0.1c-0.1,0-0.2-0.1-0.2-0.2
				c-0.1-0.1-0.1-0.1-0.1-0.2c0-0.1-0.1-0.2-0.1-0.2c0-0.1,0-0.2,0-0.3c0-0.1,0-0.2,0-0.3c0-0.1,0-0.2,0.1-0.3
				c0-0.1,0.1-0.2,0.1-0.3c0-0.1,0.1-0.2,0.1-0.2c0-0.1,0-0.2,0.1-0.3c0-0.1,0.1-0.2,0.1-0.2c0-0.1,0-0.2,0.1-0.3
				c0-0.1,0.1-0.2,0.1-0.3c0-0.1,0.1-0.2,0.1-0.3c0-0.1,0.1-0.2,0.1-0.3c0-0.1,0.1-0.2,0.1-0.3c0-0.1,0.1-0.2,0.1-0.3
				c0-0.1,0.1-0.2,0.1-0.2c0-0.1,0.1-0.2,0.1-0.3c0-0.1,0.1-0.2,0.2-0.2c0.1-0.1,0.1-0.1,0.2-0.2c0.1,0,0.2-0.1,0.3-0.1
				c0.1,0,0.2,0,0.3,0c0.1,0,0.2,0.1,0.2,0.2c0,0.1,0.1,0.2,0.1,0.2c0,0.1,0,0.2,0,0.2c0,0.1,0,0.2-0.1,0.2c0,0.1,0,0.1,0,0.2
				c0,0.1-0.1,0.1-0.1,0.2c-0.1,0.1-0.1,0.2-0.2,0.3c0,0.1-0.1,0.2-0.1,0.3c0,0.1-0.1,0.2-0.2,0.2c0,0.1-0.1,0.2-0.1,0.3
				C24.1,2.9,24,3,24,3.1c0,0.1-0.1,0.2-0.1,0.3c0,0.1-0.1,0.2-0.1,0.3c0,0.1,0,0.2-0.1,0.3c0,0.1-0.1,0.2-0.1,0.3
				c0,0.1,0,0.2,0,0.3c0,0.1,0,0.2,0,0.3c0,0.1,0.1,0.2,0.1,0.3C23.8,5,23.9,5.1,24,5.1c0.1,0,0.2,0,0.4,0.1c0.1,0,0.2,0,0.3,0
				c0.1,0,0.2,0,0.3,0c0.1,0,0.2,0,0.3,0C25.3,5.3,25.3,5.3,25.3,5.3C25.3,5.3,25.3,5.3,25.3,5.3c-0.1,0-0.1-0.1-0.1-0.1
				C25.3,5.3,25.3,5.3,25.3,5.3z M25.1,5.3C25.1,5.3,25.1,5.3,25.1,5.3C25.1,5.3,25.1,5.3,25.1,5.3z"/>
			<path class="st0" d="M30.2,2c-0.1,0-0.2,0-0.3,0.1c-0.1,0-0.2,0-0.3,0.1c-0.1,0-0.2,0-0.3,0c-0.1,0-0.2,0-0.3,0
				c-0.1,0-0.2,0-0.3,0c-0.1,0-0.1,0-0.1,0.1c0,0.1,0,0.1,0,0.2c0,0.1-0.1,0.1-0.1,0.2c0,0.1,0,0.1,0,0.2c0,0.1,0,0.2-0.1,0.3
				c0,0.1,0,0.2-0.1,0.3c0,0.1-0.1,0.2-0.1,0.3c0,0.1,0,0.2-0.1,0.3C28,4.1,28,4.2,28,4.3c0,0.1,0,0.2-0.1,0.3
				c0,0.1-0.1,0.2-0.1,0.3c0,0.1,0,0.2-0.1,0.3c0,0.1-0.1,0.2-0.1,0.3c0,0.1-0.1,0.1-0.1,0.2c0,0.1,0,0.1,0,0.2c0,0.1,0,0.1,0.1,0.1
				c0,0,0.1,0,0.1,0c0.1,0,0.2,0,0.3,0c0.1,0,0.2,0,0.3,0c0.1,0,0.2,0,0.3,0.1c0.1,0,0.2,0,0.2,0.1c0.1,0.1,0.2,0.1,0.1,0.2
				c-0.1,0-0.2,0-0.2,0.1c-0.1,0.1-0.2,0.1-0.3,0.1c-0.1,0-0.2,0-0.3,0.1c-0.1,0-0.2,0-0.3,0c-0.1,0-0.2,0-0.3,0c-0.1,0-0.2,0-0.3,0
				c-0.1,0-0.2,0-0.3,0c-0.1,0-0.2,0-0.3,0c-0.1,0-0.2,0-0.3,0c-0.1,0-0.2,0-0.3-0.1c-0.1,0-0.2,0-0.3,0c-0.1,0-0.2,0-0.3,0
				c-0.1,0-0.2-0.1-0.2-0.2c0-0.1,0-0.2,0-0.2c0-0.1,0.1-0.1,0.1-0.2c0.1,0,0.2,0,0.2,0c0.1,0,0.2,0,0.2,0c0.1,0,0.1,0,0.2,0
				c0-0.1,0-0.2,0.1-0.2c0-0.1,0-0.2,0-0.3c0-0.1,0-0.2,0-0.2c0-0.1,0.1-0.2,0.1-0.2c0-0.1,0-0.2,0.1-0.2c0-0.1,0-0.2,0.1-0.2
				c0-0.1,0-0.2,0.1-0.2c0-0.1,0.1-0.2,0.1-0.2c0-0.1,0-0.2,0.1-0.2c0-0.1,0.1-0.2,0.1-0.2c0-0.1,0-0.2,0.1-0.2c0-0.1,0-0.2,0.1-0.2
				c0-0.1,0.1-0.2,0.1-0.2c0-0.1,0-0.2,0-0.2c0-0.1,0.1-0.2,0.1-0.2c-0.1,0-0.2,0-0.3,0c-0.1,0-0.2,0-0.3,0c-0.1,0-0.2,0-0.3,0
				c-0.1,0-0.3,0-0.4-0.1c0,0,0-0.1,0.1-0.2c0.1-0.1,0.2-0.1,0.2-0.2c0.1,0,0.2-0.1,0.3-0.1c0.1,0,0.2,0,0.4,0c0.1,0,0.2,0,0.3,0
				c0.1,0,0.2,0,0.3,0c0.1,0,0.2,0,0.3,0c0.1,0,0.2,0,0.3,0c0.1,0,0.2,0,0.3,0c0.1,0,0.2,0,0.3,0c0.1,0,0.2,0,0.3,0
				c0.1,0,0.2,0,0.3,0.1c0.1,0,0.2,0,0.2,0c0.1,0,0.1,0,0.2,0.1c0,0,0,0,0,0c0,0,0,0,0,0c0,0,0,0,0,0C30.2,1.9,30.3,2,30.2,2z"/>
			<path class="st0" d="M33.7,3.9c0,0.1,0,0.2-0.1,0.3c-0.1,0.2-0.3,0.2-0.5,0.2c-0.3,0-0.3-0.2-0.2-0.4c0-0.2,0.2-0.4,0-0.6
				c-0.1-0.2-0.4-0.4-0.6-0.2c-0.2,0.1-0.2,0.4-0.1,0.6c0,0.1,0,0.3,0,0.4c0,0.1,0.1,0.2,0.1,0.3c0.1,0.2,0.1,0.5,0.1,0.7
				c0,0.2,0.1,0.4,0.1,0.6c0,0.1,0,0.2,0,0.4c0,0.1-0.1,0.2-0.1,0.3c-0.1,0.2-0.2,0.4-0.4,0.5c-0.2,0.1-0.3,0.2-0.6,0.3
				c-0.2,0-0.5,0.1-0.8,0c-0.1,0-0.2-0.1-0.4-0.1c-0.1,0-0.2,0-0.4-0.1c-0.4-0.3-0.6-0.7-0.5-1.1c0-0.1,0-0.2,0-0.4
				c0-0.1,0.1-0.2,0.2-0.3c0.1-0.1,0.4-0.2,0.6-0.2c0.2,0,0.3,0.1,0.2,0.2c-0.1,0.1-0.2,0.3-0.1,0.5c0.1,0.2,0.2,0.4,0.4,0.6
				c0.1,0.1,0.2,0.1,0.3,0.1c0.1,0,0.2-0.1,0.2-0.2c0.2-0.2,0.2-0.4,0.1-0.6c0-0.1,0-0.2,0-0.3c0-0.1,0-0.2,0-0.3
				c0-0.3-0.1-0.5-0.1-0.8c0-0.1,0-0.2,0-0.4c0-0.1,0-0.2,0-0.4c0-0.1,0-0.2,0-0.3c0.1-0.1,0.2-0.2,0.2-0.2c0-0.1,0.1-0.2,0.2-0.2
				c0.1,0,0.2-0.1,0.3-0.1c0.2-0.1,0.5-0.2,0.7-0.2c0.1,0,0.3,0,0.4,0c0.1,0,0.2,0.1,0.3,0.1c0.1,0.1,0.3,0.1,0.3,0.2
				c0.1,0.1,0.2,0.2,0.2,0.3c0,0.1,0.1,0.4,0,0.5c0,0.1,0,0.1,0,0.1c0,0,0,0,0,0c0,0,0-0.1,0-0.1C33.8,3.7,33.8,3.8,33.7,3.9z"/>
		</g>
	</g>
</g>
</svg>
