<?xml version="1.0" encoding="utf-8"?>
<!-- Generator: Adobe Illustrator 21.1.0, SVG Export Plug-In . SVG Version: 6.00 Build 0)  -->
<svg version="1.1" id="Layer_1" xmlns="http://www.w3.org/2000/svg" xmlns:xlink="http://www.w3.org/1999/xlink" x="0px" y="0px"
	 viewBox="0 0 30 26.8" style="enable-background:new 0 0 30 26.8;" xml:space="preserve">
<style type="text/css">
	.st0{fill:#490E0E;}
</style>
<g>
	<g>
		<g>
			<path class="st0" d="M20.4,23.6l-0.3,0.1c0.9-0.3,1.9-0.8,2.7-1.4c-0.1,0.1-0.3,0.1-0.4,0.2s-0.3,0.1-0.4,0.2
				c-0.3,0.1-0.5,0.2-0.8,0.3c-0.3,0.1-0.5,0.2-0.8,0.3c-0.1,0-0.3,0.1-0.4,0.1l-0.2,0.1h-0.2c-1.1,0.3-2.1,0.5-3.1,0.9
				c0-0.1-0.1-0.1-0.2-0.2S16.1,24.1,16,24c-0.2-0.1-0.5-0.2-0.8-0.3c-0.3-0.1-0.6-0.2-0.8-0.2c-0.2-0.1-0.4-0.1-0.4,0
				c-0.5,0-0.9-0.1-1.4-0.1c0.3,0.1,0.7,0.1,1,0.1c-0.3,0-0.7-0.1-1-0.1c-1.5-0.2-3.1-0.8-4.5-1.7c-0.7-0.4-1.4-0.9-2-1.5
				c-0.3-0.3-0.6-0.6-0.9-0.9c-0.1-0.2-0.3-0.3-0.4-0.5l-0.2-0.2c-0.1-0.1-0.1-0.2-0.2-0.3c-0.1-0.1-0.1-0.2-0.2-0.3
				c0-0.1-0.1-0.1-0.1-0.2S4,17.7,4,17.6c-0.1-0.3-0.3-0.6-0.4-0.9c0-0.1-0.1-0.2-0.1-0.2c0-0.1-0.1-0.2-0.1-0.3
				c-0.1-0.2-0.1-0.4-0.2-0.6C3.1,15.4,3.1,15.2,3,15c0-0.2-0.1-0.4-0.1-0.7c-0.2-0.9-0.3-1.8-0.3-2.6c-0.1-0.8,0-1.5,0-1.9
				c0-0.3,0-0.5,0.1-0.8c0.1,0.6,0.1,0.6,0.1,1C2.7,8.9,2.7,7.8,2.9,6.9C2.8,7,2.7,7.1,2.5,7.4c0,0,0-0.1,0.1-0.2
				c0-0.1,0-0.1,0.1-0.2V6.9c0-0.2,0-0.6,0.2-1C2.9,5.8,3,5.7,3,5.6c0-0.1,0.1-0.2,0.1-0.2C3.2,5.3,3.2,5.1,3.3,5c0,0.1,0.1,0,0.2,0
				c0,0,0.1-0.1,0.2-0.2c0.1-0.1,0.1-0.1,0.2-0.2L3.7,4.8c0.5-0.5,1-0.9,1.6-1.3s1.2-0.6,1.8-0.8c0.2-0.1,0.3,0,0.4,0
				c0,0,0.1,0,0.2-0.1c0.1,0,0.2-0.1,0.4-0.1c0.3-0.1,0.6-0.1,0.6-0.1c-0.1,0.1,1,0,0.4,0.1c0.9-0.3,1.8-0.2,2.7-0.3
				c1.6,0,3.2,0.2,4.9,0.5c0.8,0.1,1.7,0.3,2.5,0.4c0.8,0.2,1.7,0.3,2.5,0.5l-0.1-0.1c0.6,0.1,1.1,0.2,1.7,0.3s1.2,0.3,1.8,0.6
				c0.5,0.1,1.1,0.4,1.6,0.6s0.9,0.5,1.2,0.6c0.5,0.4,0.7,0.8,1,1.2c0.2,0.4,0.4,0.8,0.5,1.5c0.1-0.2,0.1,0.1,0.2,0.4
				c0,0.1,0,0.1,0,0.2V9c0,0.1,0,0,0.1-0.1c0.1-0.5,0.1-0.7,0.1-1c0-0.2-0.1-0.4-0.1-0.9l0,0c-0.2-1-0.8-1.8-1.4-2.4
				c-0.3-0.3-0.7-0.6-1-0.9c-0.4-0.3-0.7-0.5-1.1-0.7c-1.5-0.8-3.1-1.3-4.6-1.7c-0.3,0-0.5-0.1-0.8-0.1C20.5,1.1,20.3,1.1,20,1
				c-0.5-0.1-1.1-0.2-1.6-0.4c-1.1-0.2-2.2-0.5-3.3-0.6c-1.5,0-2.7,0-4,0C9.9,0,8.7,0.2,7.6,0.5C7.4,0.6,7.2,0.6,7,0.6
				s-0.4,0-0.6,0.1c-1,0.3-2,0.8-3,1.6C2.8,2.6,2.4,3.1,2,3.5C1.8,3.8,1.6,4,1.4,4.3C1.3,4.5,1.3,4.6,1.2,4.7C1.1,4.9,1,5,1,5.1
				c0,0,0,0,0-0.1C0.9,5.3,0.8,5.6,0.7,5.9C0.6,6.1,0.5,6.4,0.4,6.6c-0.2,0.5-0.3,1-0.3,1.6c0,0,0,0.2,0,0.3C0,8.6-0.1,10.3,0.2,12
				S1,15.3,1,15.5c0,0.1,0.1,0.2,0.1,0.3c0.1,0.3,0.1,0.6,0.2,0.9c0.1,0.3,0.1,0.6,0.2,0.9L1.7,18c0.1,0.2,0.1,0.3,0.2,0.4
				C2,18.7,2.1,19,2.3,19.3c0.6,1.1,1.3,2,2.1,2.7c0.4,0.2,0.8,0.5,1.2,0.6c0.1,0.1,0.2,0.2,0.3,0.2C6,22.9,6.1,22.9,6.3,23
				c0.4,0.5,0.7,0.7,0.9,0.8c0.2,0.1,0.3,0.1,0-0.1c0.2,0.1,0.4,0.2,0.6,0.3c0.2,0.1,0.4,0.2,0.6,0.3c0.2,0.1,0.4,0.2,0.6,0.3
				c0.2,0.1,0.4,0.2,0.6,0.2c0.3,0.1,0.7,0.2,1.1,0.3c0.3,0.1,0.5,0.2,0.6,0.3c0.8,0.2,0.5,0.2,1.4,0.5c0,0,0.2,0.1,0.4,0.1
				s0.5,0.1,0.8,0.1s0.6,0,0.8,0s0.4,0,0.5,0H15c0.2,0,0.5,0.1,0.7,0.1s0.4,0.1,0.6,0.1c0.2,0,0.4,0.1,0.6,0.1s0.5,0,0.7,0
				c1.4,0,2.9-0.3,4.3-1c1.4-0.6,2.6-1.5,3.5-2.5c-0.1-0.1-0.4,0.4-0.5,0.3c1.1-1.1,2.2-2.3,2.8-3.8c0-0.1,0.1-0.1,0.1-0.2
				s0.1-0.1,0.1-0.2c0.1-0.1,0.1-0.2,0.2-0.3c0.1-0.2,0.1-0.3,0.1-0.4s0-0.1,0-0.3h0.1c0-0.5,0.3-0.7,0.4-1.1c0,0,0-0.2,0-0.4
				c0.1,0,0.1-0.5,0.2-0.4l0,0c0-0.1,0-0.2,0.1-0.3c0-0.1,0-0.6,0-1.1s0-1,0-1.1v-0.1c0.1-0.3,0-0.4-0.1-0.2L29,13l0,0l0.1-0.3
				c0-0.1,0.1-0.1,0.1,0c0-0.2,0-0.4,0.1-0.6c-0.2,0.5-0.4,1.1-0.7,1.6c0-0.2,0.2-0.6,0.2-0.8c0.1-0.3,0.3-0.8,0.5-1.3
				c0-0.1-0.1-0.2,0-0.4c0.1-0.1,0-0.3,0.1-0.4c0,0.2,0,0.4-0.1,0.7c0.1,0,0.2-0.5,0.2-0.7c0-0.1,0.1-0.5,0.1-0.8
				c0.1,0.1,0.1-0.2,0.2-0.4c0-0.2,0-0.3-0.1-0.2c-0.1,0-0.1,0.2-0.1,0.3c0,0.2-0.1,0.3-0.1,0.2c0.1-0.1,0.1-0.4,0.1-0.6
				c-0.1,0-0.1,0.1-0.1,0c0-0.2,0-0.5,0-0.6c0,0,0,0.1,0,0.2c0-0.1,0.1,0.2,0.2,0.6c0.1,0.4,0.1,0.8,0.1,0.6c0,0,0-0.1-0.1-0.2
				c0-0.1-0.1-0.4-0.1-0.6c-0.1-0.4-0.1-0.8-0.1-0.7c0,0.2-0.1-0.1-0.1,0l0.1,0.2c0,0.2-0.2,0.3-0.2,0.2c0-0.2,0.1,0.1,0.2,0.4
				c0.1,0.3,0.1,0.6,0.1,0.4l-0.1,0.1c0-0.1,0-0.5,0.1-0.7c-0.1,0-0.1-0.2-0.1-0.4V8.7c0-0.2,0-0.4-0.1-0.3c0,0.5-0.2,0.3-0.3,0.1
				c-0.2-0.2-0.3-0.3-0.4,0.1C29.1,8.8,29,9.3,29,9.7c-0.1,0-0.1,0.2-0.2,0.5c0,0.3,0,0.2,0.1,0.2c-0.1,0.1-0.1,0.4-0.2,0.4
				c0.1,0.2-0.1,0.3-0.1,0.5s0,0,0.1,0.1c-0.1,0.3-0.1,0.7-0.2,1c-0.1,0.1-0.3,0.3-0.3,0.1c0.1-0.5,0.1,0.2,0.2-0.3
				c-0.2,0.2,0-0.4-0.1-0.5c-0.1,0.1-0.1,0.5-0.2,0.7l0,0c0,0.2-0.1,0.7-0.2,0.9c0-0.1-0.1,0-0.1-0.1v0.2c0,0.1,0,0.2,0,0.2
				s0,0.1,0.1,0c0,0.2,0,0.3-0.1,0.4c0,0-0.1,0.4-0.1,0.9c0,0.4-0.1,0.8-0.1,0.8c-0.1,0.2-0.2,0.3-0.2,0.5c0.1,0,0.3-2.2,0.3-1.9
				c-0.1,0.1-0.1,0.7-0.2,1.4c-0.1,0.7-0.2,1.3-0.3,1.3c0,0.2-0.1,0.4,0,0.3c-0.1,0.3-0.1-0.1-0.2,0.1c0,0,0,0,0,0.1l-0.1,0.2
				c0,0.5-0.4,1-0.4,1.5c0-0.2-0.1-0.3,0-0.6l0,0c0,0,0.1-0.3,0-0.3c-0.1,0.3-0.2,0.5-0.2,0.8l-0.1,0.1l0,0c-0.1,0.1-0.1,0.1-0.1,0
				l0,0c-0.1,0-0.2,0.3-0.3,0.6c-0.1,0.3-0.2,0.6-0.4,0.8c-0.1,0.1,0,0-0.1,0.2c-0.2,0.2-0.3,0.4-0.5,0.5c-0.2,0.2-0.3,0.3-0.5,0.5
				c-0.1,0.2,0,0.2,0.2,0.1l0,0L24.4,22c-0.1,0.1-0.2,0.1-0.2,0.1c0.1-0.4-0.7,0.4-0.5,0c-0.1,0.1-0.3,0.2-0.4,0.4
				c0,0.1,0,0.1-0.2,0.3c-0.4,0.2-0.3,0.1-0.6,0.3c-0.1,0,0-0.1-0.1-0.1c-0.2,0-0.4,0-0.5,0.1c-0.1,0-0.2,0-0.4,0.1
				c-0.1,0.1-0.3,0.2-0.5,0.3c-0.2,0.1-0.3,0.2-0.3,0.2C20.5,23.8,20.4,23.7,20.4,23.6"/>
			<path class="st0" d="M25,7c0,0-0.1,0-0.3,0h-0.2v0.5h0.2c0.1,0,0.2,0,0.2,0C25,7.5,25,7.4,25,7.3C25.1,7.1,25.1,7.1,25,7
				 M24.8,6.8c0.2,0,0.3,0,0.4,0.1s0.2,0.2,0.2,0.4c0,0.1,0,0.2-0.1,0.3c-0.1,0-0.1,0.1-0.2,0.1c0.1,0,0.2,0.1,0.2,0.1
				C25.4,7.9,25.4,8,25.4,8v0.1v0.1v0.1l0,0h-0.2l0,0l0,0l0,0V8.2c0-0.2,0-0.3-0.1-0.3s-0.1,0-0.3,0h-0.2v0.6h-0.2V7.1L24.8,6.8z
				 M24,6.7c-0.2,0.2-0.3,0.5-0.3,0.8s0.1,0.6,0.3,0.8c0.2,0.2,0.5,0.3,0.8,0.3s0.6-0.1,0.8-0.3c0.2-0.2,0.3-0.5,0.3-0.8
				s-0.1-0.6-0.3-0.8c-0.2-0.2-0.5-0.3-0.8-0.3C24.5,6.4,24.2,6.5,24,6.7 M25.7,8.4c-0.3,0.3-0.6,0.4-0.9,0.4
				c-0.4,0-0.7-0.1-0.9-0.4c-0.3-0.3-0.4-0.6-0.4-0.9c0-0.4,0.1-0.7,0.4-0.9c0.3-0.3,0.6-0.4,0.9-0.4c0.4,0,0.7,0.1,0.9,0.4
				c0.3,0.3,0.4,0.6,0.4,0.9C26.1,7.9,26,8.2,25.7,8.4"/>
			<path class="st0" d="M10.1,14.5c0,0.1-0.1,0.2-0.1,0.3c0,0,0,0,0.1,0c0.1-0.1,0.1-0.2,0.2-0.2C10.2,14.5,10.2,14.5,10.1,14.5
				 M9.7,15.7c0.2-0.2,0.4-0.3,0.1-0.7C9.7,15.3,9.7,15.5,9.7,15.7 M8.4,10.8C8.4,10.8,8.3,10.8,8.4,10.8c-0.1,0-0.2,0.1-0.2,0.1
				c0.1,0.2,0.2,0.4,0.4,0.6L8.4,10.8z M11.9,12.4l-0.3,1.1c-0.1,0.3-0.1,0.5-0.3,0.8c-0.1,0.3-0.3,0.7-0.4,1
				c-0.1,0.2-0.2,0.4-0.3,0.6c-0.1,0.3-0.3,1.1-0.4,1.4c-0.1,0.2-0.3,0.2-0.2,0.4c0,0.1,0,0.2,0,0.2c0,0.1,0,0.3-0.1,0.4
				c-0.1,0.3-0.2,0.5-0.4,0.9c-0.2,0-0.2,0-0.1,0.3c-0.1,0.1-0.2,0.1-0.3,0.2s-0.4,0-0.6-0.1c-0.3-0.2-0.5-0.3-0.6-0.5
				c0.1-0.6,0.4-2.2,0.5-2.8c0.1-0.4,0.2-0.8,0.3-1.1s0.2-0.6,0.3-0.8c0.2-0.4,0.2-0.8-0.3-1.2C8.8,13.1,8.9,13,9,12.9
				c0-0.1-0.3-0.2-0.1-0.4c0,0-0.1-0.2-0.2-0.3c-0.1-0.1-0.2-0.2-0.3-0.1c-0.1-0.3-0.2-0.5-0.2-0.7c-0.3-0.8-0.5-1.4-0.7-2
				c0-0.4-0.2-0.6-0.3-1C7.1,8.2,7,7.8,7,7.5C6.9,7.3,6.8,7,6.7,6.7c0.1,0,0.3-0.1,0.5-0.1L8,6.7h0.4c0.1,0.4,0.3,0.7,0.5,1V7.6l0,0
				L9,7.7L9.2,8c0.1,0.1,0.1,0.1,0.1,0.1s0,0,0,0.1h0.1V8.1L9.3,8c0-0.1-0.1-0.2-0.1-0.3C9.1,7.6,9,7.6,8.9,7.5c0,0-0.1-0.1-0.1-0.2
				l0-0.1c0-0.1-0.1-0.1-0.1-0.2L8.6,6.9V6.8c0-0.1,0.1-0.1,0.2,0c0.1,0,0.1,0.1,0.1,0.2C9,7.2,9.1,7.4,9.2,7.6l0.3,0.6v0.1l0.1,0.1
				C9.7,8.6,9.8,8.8,9.8,9c0.1,0.2,0.2,0.4,0.3,0.6c0.1,0.2,0.2,0.4,0.3,0.6c0.2,0.2,0.1,0.5,0.3,0.7c0.1-0.3,0.3-0.7,0.3-1
				c0-0.2,0.1-0.2-0.1-0.3c0-0.4,0.1-0.7,0.3-1c0.1-0.2,0.1-0.4,0.1-0.6c0.2-0.4,0.4-0.8,0.6-1.3L12,6.4c0.1-0.2,0.2-0.4,0.4-0.3
				s0.5,0.1,0.8,0.2c0.2,0,0.2,0.2,0.2,0.3c-0.1,0.2-0.1,0.4-0.2,0.6c-0.1,0.5-0.3,0.9-0.5,1.4c0,0.1,0,0.2,0,0.3
				c0,0.3-0.1,0.6-0.2,0.9c-0.2,0.6-0.4,1.3-0.6,1.9c-0.1,0-0.1-0.1-0.1-0.2c0-0.2,0-0.3,0-0.5l0.1-0.3c0-0.1,0.1-0.2,0-0.3
				c0-0.1,0.1-0.2,0.1-0.3s0-0.1,0-0.2l0.1-0.1l0.1-0.1l0,0c0-0.1,0-0.1,0-0.1c0,0.1,0,0.1,0,0l0,0V9.5c0-0.1,0-0.1,0-0.1V9.3V9.2
				V9.1l0,0l0,0l0,0L12.6,9V8.9V8.8l0.1-0.2l0.2-0.8c-0.1,0.2-0.2,0.4-0.3,0.6l-0.1,0.1l0,0l0,0l0,0v0.1l0,0l0,0l0,0v0.1
				c0,0.1,0,0.1,0,0.1v0.1c0-0.1-0.1,0-0.1,0l0,0l0,0V9c0,0,0,0,0,0.1c0,0,0,0,0,0.1l0,0c0,0,0,0,0,0.1l0,0v0.1l0,0l0,0
				c0,0,0,0,0,0.1l0,0v0.1l0,0l0,0v0.1c0,0.1-0.1,0.3-0.1,0.4c0,0.1-0.1,0.2-0.1,0.3v0.1v0.1c0,0.1-0.1,0.1-0.1,0.3
				c0,0.1-0.1,0.2-0.1,0.3s-0.1,0.3-0.1,0.5c0,0-0.1,0.1-0.1,0.2c0,0.1,0,0.2,0,0.2c0,0.3-0.1,0.4-0.2,0.6c-0.1,0.2-0.2,0.6-0.1,0.7
				c-0.1,0.2-0.2,0.7-0.2,0.7c0-0.1,0.1-0.4,0.2-0.5c0.1-0.2,0.1-0.4,0.2-0.5l0.4-0.9l0.2-0.3L11.9,12.4z"/>
			<path class="st0" d="M18.1,13.5c0-0.4,0.1-0.8-0.1-1.1c0,0.7,0,1.5,0,2.2C18.1,14.2,18.1,13.8,18.1,13.5 M17.6,17.8
				C17.6,17.7,17.5,17.7,17.6,17.8c0-0.1,0-0.2,0.1-0.3h0.1C17.7,17.6,17.6,17.7,17.6,17.8 M15,17.5c-0.3-0.4-0.4-0.9-0.6-1.5
				c-0.1,0.6,0.2,1.2,0.4,1.7c0,0.1,0.1,0.2,0.2,0.3c0.2,0.1,0.3,0,0.3-0.2c0.1,0.1,0.3,0,0.3-0.1c0.2-0.3,0.4-0.6,0.6-1
				c0.4-1,0.4-2.1,0.4-3.2c0-0.8-0.2-1.6-0.4-2.4c0-0.1-0.1-0.1-0.1-0.2c-0.3,0.6-0.7,1.2-0.9,1.8c-0.1,0.1-0.1,0.3-0.1,0.4
				C15,13.4,15,13.7,14.9,14c0,0.1-0.1,0.1-0.1,0.2c0,0.4,0,0.9,0,1.3c0,0.9,0.1,1.7,0.6,2.4C15.2,17.7,15,17.6,15,17.5 M16.8,18.7
				c-0.2,0.3-0.6,0.4-0.9,0.5c-0.1,0-0.2,0-0.3,0c-0.3-0.1-0.3-0.1-0.6,0c-0.3-0.1-0.6-0.2-0.9-0.3c-0.4-0.2-0.6-0.5-0.9-0.9
				c-0.4-0.6-0.5-1.4-0.6-2.2c0-1,0-2,0.2-3c0-0.1,0-0.1,0-0.2c0.3-0.4,0.3-0.9,0.5-1.3c0.4-0.9,1.1-1.6,2.1-1.9
				c0.4-0.1,0.8,0,1.2,0.1c0.2,0.4,0.7,0.6,0.8,1c0.2,0.6,0.5,1.2,0.5,1.8c0.1,0.6,0.1,1.2,0,1.9c-0.2,0.8-0.4,1.7-0.6,2.5
				c-0.1,0.4-0.3,0.8-0.4,1.2c0,0.1,0,0.2-0.1,0.4C17.1,18.4,17,18.6,16.8,18.7"/>
			<path class="st0" d="M19.6,14.8c0-0.2,0-0.3-0.1-0.4C19.5,14.7,19.5,14.7,19.6,14.8 M19.7,15.7c0-0.2,0-0.4-0.2-0.5
				C19.5,15.4,19.6,15.5,19.7,15.7C19.6,15.7,19.7,15.7,19.7,15.7 M21.5,10.4c0.6-0.2,1.2-0.3,1.8-0.2c0.2,0,0.4,0.1,0.6,0.1
				c0.1,0,0.2,0.1,0.1,0.3s-0.2,0.4-0.4,0.5c-0.1,0-0.3,0.1-0.3,0.3l-0.1,0.1c-0.3,0.1-0.6,0.3-0.9,0.5c-0.4,0.2-0.8,0.3-1.2,0.3
				c0.2,0.4-0.1,1.1-0.1,1.4c0,0.1,0,0.1,0,0.2c0,0.1,0.1,0.2,0.1,0.3c0,0.3,0,0.7,0,1c0,0.2,0.1,0.4,0.1,0.6c0,0.1,0.1,0.2,0.2,0.3
				c-0.1,0.2,0.1,0.3,0.2,0.5s0.3,0.3,0.4,0.5c0.2,0.3,0.5,0.5,0.8,0.6s0.7-0.1,0.8-0.4c0-0.1,0.1-0.1,0.1-0.2
				c0.1,0.2,0.2,0.4,0.1,0.6s-0.3,0.5-0.4,0.7c-0.1,0.3-0.4,0.5-0.7,0.6c-0.1,0-0.1,0-0.1,0.1c-0.6,0.3-1.2,0.2-1.8-0.2
				c-0.2-0.1-0.5-0.3-0.7-0.5c-0.1-0.1-0.2-0.2-0.3-0.3c0-0.1,0-0.1-0.1-0.2c0,0,0,0,0.1,0c0.2,0.2,0.5,0.4,0.7,0.7
				c0-0.1,0-0.2,0-0.2c-0.2-0.5-0.5-1-0.7-1.5c-0.1-0.3-0.2-0.6-0.4-0.9c-0.2-0.5-0.2-1-0.2-1.5c0-0.3,0-1.2-0.1-1.5
				c0-0.1-0.1-0.1-0.1-0.2c0-0.5,0.1-0.9,0.1-1.4c0-0.2,0.1-0.5,0.1-0.7c0.1-0.4,0.1-0.9,0.2-1.3c0.1-0.5,0.3-1.1,0.4-1.7
				s0.3-1.1,0.5-1.6c0.1-0.1,0.1-0.2,0.2-0.2c0.2-0.1,0.5-0.1,0.7,0C21.3,6,21.5,6,21.6,6.1c0.2,0.1,0.3,0.3,0.2,0.5
				c-0.1,0.3-0.1,0.6-0.2,0.8c-0.1,0.3-0.1,0.7-0.2,1c-0.1,0.7-0.3,1.4-0.4,2.1c0,0.1,0,0.1,0,0.2C21.3,10.4,21.4,10.4,21.5,10.4"/>
		</g>
	</g>
</g>
</svg>
