<?xml version="1.0" encoding="utf-8"?>
<!-- Generator: Adobe Illustrator 21.1.0, SVG Export Plug-In . SVG Version: 6.00 Build 0)  -->
<svg version="1.1" id="Layer_1" xmlns="http://www.w3.org/2000/svg" xmlns:xlink="http://www.w3.org/1999/xlink" x="0px" y="0px"
	 viewBox="0 0 34.1 9.6" style="enable-background:new 0 0 34.1 9.6;" xml:space="preserve">
<style type="text/css">
	.st0{fill:#490E0E;}
</style>
<g>
	<g>
		<path class="st0" d="M4.5,9.2c-0.1,0-0.3,0-0.4,0V7.9c0.1,0,0.3,0,0.4,0C5,7.9,5.3,8,5.3,8.5C5.3,8.9,5,9.2,4.5,9.2z M4.6,8.1
			c0,0-0.1,0-0.1,0v0.8c0,0,0.1,0,0.1,0c0.2,0,0.4-0.1,0.4-0.4C4.9,8.3,4.9,8.1,4.6,8.1z"/>
		<path class="st0" d="M6,9.2V7.9h0.7v0.3H6.3v0.3h0.4v0.2H6.3v0.3h0.4v0.3H6z"/>
		<path class="st0" d="M10.2,9.2l-0.1-0.5c0-0.1,0-0.2,0-0.3h0c0,0.1,0,0.2-0.1,0.3L9.8,9.2H9.5L9.4,8.7c0-0.1-0.1-0.2-0.1-0.3h0
			c0,0.1,0,0.2,0,0.3L9.2,9.2H8.9l0.2-1.3h0.3l0.2,0.6c0,0.1,0,0.2,0.1,0.3h0c0-0.1,0-0.2,0.1-0.3l0.2-0.6h0.3l0.2,1.3H10.2z"/>
		<path class="st0" d="M12,9.2l-0.1-0.2h-0.4l-0.1,0.2h-0.3l0.4-1.3h0.3l0.5,1.3H12z M11.8,8.4c0-0.1,0-0.1-0.1-0.2h0
			c0,0.1,0,0.1,0,0.2l-0.1,0.3h0.3L11.8,8.4z"/>
		<path class="st0" d="M13,7.8l0-0.2l0.4-0.1l0.1,0.2L13,7.8z M13,9.2V7.9h0.3v1.3H13z"/>
		<path class="st0" d="M14.1,9.2V8.9l0.4-0.7c0,0,0-0.1,0.1-0.1c0,0-0.1,0-0.2,0h-0.3V7.9H15v0.2l-0.4,0.7c0,0,0,0,0,0.1
			c0,0,0.1,0,0.3,0H15v0.3H14.1z"/>
		<path class="st0" d="M17.7,9.2c-0.5,0-0.6-0.3-0.6-0.6c0-0.4,0.2-0.7,0.7-0.7c0.1,0,0.2,0,0.3,0l0,0.3c-0.1,0-0.2,0-0.2,0
			c-0.2,0-0.3,0.2-0.3,0.4c0,0.3,0.1,0.4,0.3,0.4c0.1,0,0.2,0,0.2,0l0,0.3C18,9.2,17.8,9.2,17.7,9.2z"/>
		<path class="st0" d="M19.3,9.2c-0.4,0-0.6-0.3-0.6-0.7c0-0.4,0.3-0.7,0.6-0.7c0.3,0,0.6,0.2,0.6,0.7C19.9,8.9,19.7,9.2,19.3,9.2z
			 M19.3,8.1c-0.2,0-0.3,0.1-0.3,0.4c0,0.3,0.1,0.4,0.3,0.4c0.1,0,0.3-0.1,0.3-0.4C19.6,8.3,19.5,8.1,19.3,8.1z"/>
		<path class="st0" d="M21.4,9.2l-0.3-0.6C21,8.5,21,8.4,21,8.3c0,0.1,0,0.2,0,0.4v0.5h-0.3V7.9h0.4l0.3,0.5
			c0.1,0.1,0.1,0.2,0.2,0.3c0-0.1,0-0.3,0-0.4V7.9h0.3v1.3H21.4z"/>
		<path class="st0" d="M24.4,8.7C24.4,8.7,24.3,8.7,24.4,8.7l-0.1,0.4H24V7.9c0.1,0,0.2,0,0.4,0c0.3,0,0.5,0.1,0.5,0.4
			C24.9,8.5,24.7,8.7,24.4,8.7z M24.4,8.1C24.4,8.1,24.3,8.1,24.4,8.1l-0.1,0.4c0,0,0,0,0.1,0c0.1,0,0.2-0.1,0.2-0.2
			C24.6,8.2,24.5,8.1,24.4,8.1z"/>
		<path class="st0" d="M26.3,9.2l-0.1-0.2h-0.4l-0.1,0.2h-0.3l0.4-1.3h0.3l0.5,1.3H26.3z M26,8.4c0-0.1,0-0.1-0.1-0.2h0
			c0,0.1,0,0.1,0,0.2l-0.1,0.3h0.3L26,8.4z"/>
		<path class="st0" d="M27.7,8.7C27.7,8.7,27.6,8.7,27.7,8.7l-0.1,0.4h-0.3V7.9c0.1,0,0.2,0,0.4,0c0.3,0,0.5,0.1,0.5,0.4
			C28.2,8.5,28,8.7,27.7,8.7z M27.7,8.1C27.6,8.1,27.6,8.1,27.7,8.1l-0.1,0.4c0,0,0,0,0.1,0c0.1,0,0.2-0.1,0.2-0.2
			C27.9,8.2,27.8,8.1,27.7,8.1z"/>
		<path class="st0" d="M29.6,9.2l-0.1-0.2H29L29,9.2h-0.3l0.4-1.3h0.3l0.5,1.3H29.6z M29.3,8.4c0-0.1,0-0.1-0.1-0.2h0
			c0,0.1,0,0.1,0,0.2l-0.1,0.3h0.3L29.3,8.4z"/>
	</g>
	<g>
		<g>
			<path class="st0" d="M4.6,1.7c0,0,0,0.2,0,0.2C4.6,2,4.5,2,4.4,2.1C4.4,2.1,4.3,2.2,4.2,2.3c-0.1,0-0.1,0.1-0.2,0.2
				C4,2.4,3.9,2.5,3.8,2.5c-0.1,0-0.1,0.1-0.2,0.1c-0.1,0-0.1,0.1-0.2,0.1c-0.1,0-0.2,0.1-0.2,0.1C3.1,2.9,3.1,2.9,3,2.9
				c0,0,0.1,0.1,0.1,0.1c0,0.1,0.1,0.1,0.1,0.2c0,0.1,0.1,0.1,0.1,0.2c0,0.1,0.1,0.1,0.1,0.2c0,0.1,0,0.1,0.1,0.2
				c0,0.1,0,0.1,0.1,0.2c0,0.1,0.1,0.1,0.1,0.2c0,0.1,0,0.1,0.1,0.2c0,0.1,0,0.1,0,0.2c0,0.1,0.1,0.1,0.1,0.2c0,0.1,0,0.1,0,0.2
				c0,0.1,0,0.1,0,0.2c0,0.1,0,0.1,0,0.2c0,0.1,0,0.1,0,0.2c0,0.1,0,0.1,0.1,0.2C4,6,4,6,4,6.1c0,0.1,0,0.1,0.1,0.2
				c0,0.1,0,0.1,0,0.2c0,0.1,0,0.1,0,0.2C4.1,6.8,4,6.8,4,6.9C4,6.9,3.9,7,3.9,7.1c0,0.1-0.1,0.1-0.1,0.2c-0.1,0-0.1,0.1-0.2,0.1
				c0,0-0.1,0.1-0.2,0.1c-0.1,0-0.1,0-0.2,0c0,0,0-0.1-0.1,0c0,0-0.1,0-0.1,0C3,7.4,3,7.2,2.9,7.2c0-0.1,0-0.2,0-0.2
				c0-0.1-0.1-0.2-0.1-0.2c0-0.1,0-0.2,0-0.2c0-0.1,0-0.1,0-0.2c0-0.1,0-0.1,0-0.2c0-0.1,0-0.1,0-0.2c0-0.1,0-0.1,0-0.2
				c0-0.1,0-0.1-0.1-0.2c0-0.1,0-0.1,0-0.2c0-0.1-0.1-0.1-0.1-0.2c0-0.1,0-0.1,0-0.2c0-0.1,0-0.1,0-0.2c0-0.1-0.1-0.1-0.1-0.2
				c0-0.1,0-0.1,0-0.2c0-0.1,0-0.1,0-0.2c0-0.1,0-0.1,0-0.2c0-0.1,0-0.1-0.1-0.2c0-0.1,0-0.1,0-0.2c0-0.1,0-0.1,0-0.2
				C2.2,3.3,2.1,3.3,2,3.4C2,3.4,1.9,3.4,1.8,3.4c-0.1,0-0.2,0-0.3,0.1c-0.1,0-0.2,0.1-0.2,0.1c-0.1,0-0.2,0-0.2,0.1
				c-0.1,0-0.2,0-0.2,0.1c-0.1,0-0.2,0.1-0.2,0c-0.2,0.1-0.2,0-0.1-0.1c-0.2,0,0-0.2,0-0.2c0.1,0,0.1-0.1,0.2-0.1
				c0.1,0,0.1-0.1,0.2-0.1C1.1,3.1,1.1,3,1.2,3c0.1,0,0.1-0.1,0.2-0.1c0.1,0,0.2-0.1,0.2-0.1c0.1,0,0.1-0.1,0.2-0.1
				c0.1,0,0.2-0.1,0.2-0.1c0.1,0,0.2-0.1,0.2-0.1c0.1,0,0.2-0.1,0.2-0.1c0.1,0,0.2-0.1,0.2-0.1c0.1,0,0.2,0,0.2-0.1
				c0.1,0,0.2-0.1,0.2-0.1c0.1,0,0.2,0,0.2-0.1C3.6,2,3.7,2,3.7,2c0.1,0,0.2,0,0.2-0.1c0.1,0,0.2-0.1,0.2-0.1c0.1,0,0.1-0.1,0.2-0.1
				c0,0-0.2,0.1-0.2,0.1c0,0,0,0,0.2-0.1C4.5,1.7,4.6,1.6,4.6,1.7z M3.5,6.7c0,0,0,0.1,0,0.1C3.5,6.7,3.5,6.7,3.5,6.7z M3.3,5.5
				C3.3,5.5,3.3,5.5,3.3,5.5C3.3,5.5,3.3,5.5,3.3,5.5z M3.3,5.4C3.3,5.5,3.3,5.5,3.3,5.4C3.3,5.5,3.3,5.5,3.3,5.4
				C3.3,5.4,3.3,5.4,3.3,5.4z M3.2,5c0,0.1,0,0.2,0,0.2c0,0.1,0,0.1,0,0.1c0,0,0-0.1,0-0.1C3.2,5.2,3.2,5.1,3.2,5z"/>
			<path class="st0" d="M9,5.4c0,0.1-0.1,0.2-0.2,0.2C8.7,5.6,8.7,5.7,8.6,5.8c-0.1,0-0.2,0.1-0.3,0.1C8.2,5.9,8.1,6,8,6
				c-0.1,0-0.2,0.1-0.3,0.1c-0.1,0-0.2,0.1-0.3,0.1c-0.1,0-0.2,0.1-0.3,0.1c-0.1,0-0.2,0-0.3,0c-0.1,0-0.2,0-0.3,0
				c-0.1,0-0.2,0-0.2-0.1c-0.1,0-0.1-0.1-0.2-0.1C6,6.2,6,6.1,6,6c0-0.1-0.1-0.1-0.1-0.2c0-0.1-0.1-0.2-0.1-0.3c0-0.1,0-0.2,0-0.3
				c0-0.1,0-0.2,0-0.3c0-0.1,0-0.2,0-0.3c0-0.1,0-0.2,0-0.3c0-0.1,0-0.2,0-0.3c0-0.1,0-0.2,0-0.3c0-0.1,0-0.2,0-0.3
				c0-0.1,0-0.2,0-0.3c0-0.1,0-0.2,0-0.3c0-0.1,0-0.2,0-0.3c0-0.1,0-0.2,0-0.3c0-0.1,0-0.2,0-0.3c0-0.1,0-0.2,0-0.3
				C5.9,2,5.9,1.9,6,1.8c0-0.1,0.1-0.2,0.1-0.2c0.1-0.1,0.1-0.1,0.2-0.2c0.1-0.1,0.2-0.1,0.3-0.1c0.1,0,0.2,0,0.3,0.1
				C7,1.4,7,1.5,7.1,1.5c0,0.1,0,0.2,0,0.2c0,0.1,0,0.2,0,0.2c0,0.1,0,0.1,0,0.1c0,0.1,0,0.1,0,0.2c0,0.1,0,0.2-0.1,0.3
				c0,0.1,0,0.2,0,0.3C7.1,3,7,3.1,7,3.2c0,0.1,0,0.2,0,0.3c0,0.1,0,0.2,0,0.3C7,3.9,7,4,7,4c0,0.1,0,0.2,0,0.3c0,0.1,0,0.2,0,0.3
				c0,0.1,0,0.2,0,0.3C7,5,7,5.1,7,5.2c0,0.1,0.1,0.2,0.1,0.3c0.1,0.1,0.1,0.1,0.2,0.2c0.1,0,0.2,0,0.3,0c0.1,0,0.2,0,0.4-0.1
				c0.1,0,0.2-0.1,0.3-0.1c0.1,0,0.2,0,0.3-0.1c0.1,0,0.2,0,0.3-0.1C8.9,5.3,8.9,5.3,9,5.4C8.9,5.3,8.9,5.3,9,5.4
				c-0.1,0-0.1,0-0.1,0C8.9,5.3,9,5.3,9,5.4z M8.7,5.4C8.7,5.4,8.7,5.4,8.7,5.4C8.7,5.4,8.7,5.4,8.7,5.4z"/>
			<path class="st0" d="M13,5.2c0,0.1,0,0.1,0,0.2c0,0.1-0.1,0.1-0.1,0.1c-0.1,0-0.1,0.1-0.1,0.1c-0.1,0-0.1,0-0.1,0.1
				c-0.1,0-0.1,0-0.2,0c-0.1,0-0.1,0-0.2,0c0-0.1,0-0.1-0.1-0.2c0-0.1-0.1-0.1-0.1-0.1c0-0.1,0-0.1-0.1-0.2c0-0.1,0-0.1-0.1-0.2
				C12,5,12,5,12,4.9c0-0.1,0-0.1-0.1-0.2c0-0.1,0-0.1-0.1-0.2c0-0.1-0.1-0.1-0.1-0.2c0-0.1,0-0.1-0.1-0.2c0-0.1-0.1-0.1-0.1-0.2
				c0-0.1,0-0.1-0.1-0.2c0-0.1,0-0.1-0.1-0.2c-0.1,0-0.1-0.1-0.2-0.1c-0.1,0-0.1,0-0.2,0c-0.1,0-0.1,0-0.2,0.1c-0.1,0-0.1,0-0.2,0.1
				c0,0.1,0,0.1,0,0.2c0,0.1,0,0.1,0,0.2c0,0.1,0,0.1,0,0.2c0,0.1,0,0.1,0,0.2c0,0.1,0,0.1,0,0.2c0,0.1,0,0.1,0,0.2
				c0,0.1,0,0.1,0,0.2c0,0.1,0,0.1-0.1,0.1c0,0.1,0,0.1,0,0.2c0,0.1,0,0.1,0,0.2c0,0.1,0,0.1,0,0.2c0,0.1,0,0.1-0.1,0.2
				c0,0.1-0.1,0.1-0.1,0.1c0,0.1,0,0.1-0.1,0.2c0,0-0.1,0.1-0.1,0.1c0,0-0.1,0.1-0.1,0.1c-0.1,0-0.1,0.1-0.1,0.1
				c-0.1,0-0.1,0.1-0.1,0.1c-0.1,0-0.1,0-0.2,0.1c-0.1,0-0.1,0-0.1-0.1c0-0.1,0-0.1-0.1-0.2c0-0.1,0-0.1,0-0.2c0-0.1,0-0.1,0-0.2
				c0-0.1,0-0.1,0-0.2c0-0.1,0-0.1,0-0.2c0-0.1,0-0.1,0-0.2c0-0.1,0-0.1,0-0.2c0-0.1,0-0.1,0-0.2c0-0.1,0-0.1,0-0.2
				c0-0.1,0-0.1,0.1-0.2c0-0.1,0-0.1,0-0.2c0-0.1,0-0.1,0-0.1c0-0.1,0-0.1,0-0.2c0-0.1,0-0.1,0-0.2c-0.1,0-0.1,0-0.1,0
				c0-0.1,0-0.1,0.1-0.1c0-0.1,0.1-0.1,0.1-0.2c0-0.1,0-0.1,0.1-0.2c0-0.1,0-0.1,0-0.2c0-0.1,0-0.1,0.1-0.2c0-0.1,0-0.1,0-0.2
				c0-0.1,0-0.1,0-0.2c0-0.1,0-0.1,0-0.2c0-0.1,0-0.1,0-0.2c0-0.1,0-0.1,0-0.2c0-0.1,0-0.1,0-0.2c0-0.1,0-0.1,0-0.2
				c0-0.1,0-0.1,0-0.2c0-0.1,0-0.1,0.1-0.2c0-0.1,0-0.1,0-0.2c0-0.1,0-0.1,0.1-0.1c0,0,0.1-0.1,0.1-0.1c0.1,0,0.1-0.1,0.1-0.1
				c0.1,0,0.1-0.1,0.1-0.1c0.1,0,0.1-0.1,0.2-0.1c0.1,0,0.1,0,0.2,0c0.1,0,0.1,0.1,0.1,0.1C11,1.2,11,1.3,11,1.3
				c0,0.1,0,0.1,0.1,0.2c0,0.1,0,0.1,0.1,0.1c0,0.1,0.1,0.1,0.1,0.2c0,0.1,0,0.1,0.1,0.2c0,0.1,0,0.1,0.1,0.2c0,0.1,0.1,0.1,0.1,0.2
				c0,0.1,0,0.1,0.1,0.1c0,0.1,0,0.1,0.1,0.2c0,0,0.1,0.1,0.1,0.1c0,0.1,0,0.1,0.1,0.1c0,0.1,0,0.1,0.1,0.1c0,0.1,0,0.1,0,0.1
				c0.1,0,0.1,0.1,0.2,0.1c0.1,0,0.1,0,0.2,0c0.1,0,0.1,0,0.2,0c0,0,0.1,0,0.1,0.1c-0.1,0-0.1,0.1-0.1,0.1c-0.1,0-0.1,0.1-0.1,0.1
				c-0.1,0-0.1,0.1-0.1,0.1c0,0,0,0,0,0c0,0,0,0,0,0c0,0.1,0.1,0.1,0.1,0.1c0,0.1,0,0.1,0.1,0.2c0,0.1,0,0.1,0.1,0.2
				c0,0.1,0,0.1,0.1,0.1c0,0.1,0.1,0.1,0.1,0.1c0,0.1,0,0.1,0,0.2c0,0.1,0,0.1,0.1,0.2c0,0.1,0,0.1,0.1,0.1c0,0.1,0,0.1,0,0.2
				c0,0.1,0.1,0.1,0.1,0.1C12.9,5.1,12.9,5.2,13,5.2z M11.2,3.4c0-0.1,0-0.1-0.1-0.1c0-0.1,0-0.1-0.1-0.1C11,3.1,11,3,11,3
				c0,0-0.1-0.1-0.1-0.1c0-0.1,0-0.1-0.1-0.1c0,0.1,0,0.1,0,0.1c0,0.1,0,0.1,0,0.2c0,0.1,0,0.1,0,0.2c0,0.1,0,0.1,0,0.2
				c0,0.1,0,0.1,0,0.1c0,0,0,0,0,0c0.1,0,0.1,0,0.2-0.1C11.1,3.4,11.1,3.4,11.2,3.4z"/>
			<path class="st0" d="M17.9,2.1c-0.1,0.1-0.1,0.1-0.2,0.2c0,0.1-0.1,0.1-0.2,0.2c0,0-0.1,0.1-0.1,0.2c0,0.1-0.1,0.1-0.2,0.2
				c-0.1,0.1-0.1,0.1-0.1,0.2c0,0.1-0.1,0.1-0.1,0.2c0,0-0.1,0.1-0.1,0.1c0,0-0.1,0.1-0.1,0.1c0,0.1,0,0.2,0,0.3c0,0.1,0,0.1,0,0.2
				c0,0.1,0,0.1,0,0.2c0,0.1,0,0.1,0,0.2c0,0.1,0,0.1,0,0.2c0,0.1,0,0.1,0,0.2c0,0.1,0,0.1,0,0.2c0,0.1,0,0.1,0,0.2
				c0,0.1,0,0.2,0,0.2c0,0.1,0,0.1,0,0.2c0,0.1-0.1,0.1-0.1,0.2c0,0.1,0,0.1-0.1,0.2c0,0.1,0,0.1-0.1,0.2c0,0.1-0.1,0.1-0.1,0.2
				c0,0.1-0.1,0.1-0.1,0.2c0,0.1-0.1,0.1-0.1,0.2c0,0.1-0.1,0.1-0.2,0.2C16,6.9,16,7,15.9,7c-0.1,0-0.1,0.1-0.2,0.1
				c-0.1,0-0.1,0.1-0.2,0.1c-0.1,0-0.1,0-0.2,0c-0.1,0-0.1,0-0.2,0c-0.1,0-0.1,0-0.2,0c-0.1,0-0.1,0-0.2-0.1c-0.1,0-0.1-0.1-0.2-0.1
				c0-0.1-0.1-0.1-0.1-0.2c0-0.1,0-0.1,0-0.2c0-0.1,0-0.1,0-0.2c0-0.1,0-0.1,0.1-0.2c0-0.1,0-0.1,0.1-0.2c0-0.1,0.1-0.1,0.1-0.2
				c0-0.1,0.1-0.1,0.1-0.2c0-0.1,0.1-0.1,0.1-0.2C15,5.3,15,5.3,15,5.2c0-0.1,0.1-0.1,0.1-0.2c0-0.1,0.1-0.1,0.1-0.2
				c0-0.1,0.1-0.1,0.1-0.2c0-0.1,0.1-0.1,0.1-0.2c0-0.1,0.1-0.1,0.1-0.2c0,0,0.1-0.1,0.1-0.2c0,0,0.1-0.1,0.1-0.2
				c0.1-0.1,0-0.2,0-0.3c0-0.1,0-0.1,0-0.2c0-0.1,0-0.1,0-0.2c0-0.1,0-0.1,0-0.2c0,0.1-0.1,0.1-0.1,0.2c0,0.1-0.1,0.1-0.1,0.2
				c0,0.1-0.1,0.1-0.2,0.1c0,0-0.1,0.1-0.2,0.1c-0.1,0-0.1,0.1-0.2,0.1c-0.1,0-0.1,0.1-0.2,0.1c-0.1,0-0.1,0-0.2,0.1
				c-0.1,0-0.1,0-0.2,0.1c-0.1,0-0.2,0-0.2,0c-0.1,0-0.2,0-0.2,0c-0.1,0-0.1,0-0.2-0.1c-0.1,0-0.1-0.1-0.2-0.1
				c-0.1,0-0.1-0.1-0.1-0.2c0-0.1-0.1-0.1-0.1-0.2c0-0.1,0-0.1-0.1-0.2c0-0.1-0.1-0.1-0.1-0.2c0-0.1-0.1-0.1-0.1-0.2
				c0-0.1-0.1-0.1-0.1-0.2C13,2.6,13,2.6,13,2.5c0-0.1,0-0.1,0-0.2c0-0.1,0-0.1,0-0.2c0-0.1,0-0.1,0-0.2c0-0.1,0-0.1,0-0.2
				c0-0.1,0-0.1,0-0.2c0-0.1,0-0.2,0-0.2c0-0.1,0.1-0.1,0.1-0.2c0-0.1,0.1-0.1,0.1-0.2c0-0.1,0.1-0.1,0.2-0.2
				c0.1-0.1,0.1-0.1,0.2-0.1c0.1-0.1,0.2-0.1,0.3-0.1c0.1,0,0.1,0,0.2,0.1c0,0.1,0,0.1,0,0.2c0,0.1,0,0.2,0,0.2c0,0.1,0,0.2,0,0.2
				c0,0.1,0,0.2,0,0.2c0,0.1,0,0.1,0.1,0.2c0,0.1,0.1,0.1,0.1,0.2c0,0.1,0.1,0.1,0.1,0.2c0,0.1,0,0.2,0.1,0.2c0,0.1,0.1,0.1,0.1,0.2
				c0,0.1,0.1,0.1,0.1,0.2c0,0.1,0,0.1,0.1,0.2c0,0.1,0.1,0.1,0.1,0.1c0,0,0.1,0.1,0.2,0.1c0,0,0.1,0,0.2,0c0,0,0-0.1,0.1-0.1
				c0-0.1,0.1-0.2,0.1-0.2c0-0.1,0.1-0.1,0.1-0.2c0-0.1,0-0.1,0-0.2c0-0.1,0.1-0.1,0.1-0.2c0-0.1,0-0.1,0.1-0.2c0-0.1,0-0.1,0.1-0.2
				c0-0.1,0-0.1,0-0.2c0,0,0-0.1,0-0.2c0-0.1,0-0.1,0-0.2c0-0.1,0-0.1,0.1-0.2c0,0,0.1-0.1,0.1-0.1c0,0,0.1-0.1,0.1-0.1
				c0.1,0,0.2-0.1,0.4-0.1c0.1,0,0.1,0.1,0.1,0.1c0,0.1,0,0.1-0.1,0.2c0,0.1,0.1,0.2,0.1,0.3c0,0.1,0.1,0.2,0.1,0.3
				c0,0.1,0,0.2,0,0.2c0,0.1,0,0.2,0,0.2c0,0.1,0,0.2,0,0.2c0,0.1,0,0.1,0.1,0.2c0,0.1,0,0.1,0,0.2c0,0.1,0,0.2,0,0.2
				c0-0.1,0.1-0.1,0.1-0.2c0,0,0.1-0.1,0.1-0.2c0,0,0.1-0.1,0.1-0.1c0,0,0.1-0.1,0.1-0.1c0-0.1,0.1-0.1,0.1-0.1
				c0.1,0,0.1-0.1,0.2-0.1c0.1,0,0.1,0,0.2,0c0.1,0-0.1,0,0,0C17.9,1.9,18.1,2,17.9,2.1z M15.9,4.6c0,0.1-0.1,0.1-0.1,0.2
				c0,0.1-0.1,0.1-0.1,0.2c0,0.1-0.1,0.1-0.1,0.2c0,0.1-0.1,0.1-0.1,0.2c0,0.1-0.1,0.1-0.1,0.2c0,0.1,0,0.1-0.1,0.2c0,0,0,0,0,0
				c0,0,0,0.1,0,0.1c0,0.1-0.1,0.1-0.1,0.2c0,0.1,0,0.2,0,0.2c0,0.1,0,0.2,0,0.2c0,0.1,0.1,0.1,0.1,0.2c0-0.1,0.1-0.1,0.1-0.2
				c0-0.1,0.1-0.1,0.1-0.2c0-0.1,0.1-0.1,0.1-0.2c0-0.1,0-0.1,0.1-0.2c0-0.1,0-0.1,0-0.2c0-0.1,0.1-0.1,0.1-0.2c0-0.1,0-0.1,0.1-0.2
				c0-0.1,0-0.1,0-0.2c0-0.1,0-0.1,0-0.2c0-0.1,0-0.1,0-0.2C15.8,4.8,15.9,4.7,15.9,4.6z M15.2,5.9C15.2,5.9,15.2,5.9,15.2,5.9
				C15.2,6,15.2,6,15.2,5.9z M15.1,3.3C15.1,3.3,15.1,3.3,15.1,3.3C15.1,3.3,15.1,3.3,15.1,3.3C15.1,3.3,15.1,3.3,15.1,3.3
				C15.1,3.3,15.1,3.3,15.1,3.3z"/>
			<path class="st0" d="M22.3,0.6c0,0.1-0.2,0.3-0.3,0.4c-0.1,0.1-0.3,0.2-0.5,0.2c-0.1,0-0.2,0.1-0.3,0.1c-0.1,0.1,0,0.1,0,0.2
				c0.1,0.2,0.1,0.3,0.2,0.5c0.1,0.2,0.1,0.3,0.1,0.5c0,0.2,0.1,0.4,0,0.5c0,0.2,0,0.4,0,0.5c0,0.1,0,0.3-0.1,0.4
				c-0.1,0.1-0.1,0.2-0.1,0.3c-0.1,0.2-0.2,0.4-0.4,0.5c-0.2,0.2-0.4,0.2-0.6,0.4c-0.2,0.1-0.4,0.1-0.6,0.1c-0.3,0.1-0.5,0-0.7-0.1
				c-0.2-0.1-0.4-0.2-0.5-0.4c-0.3-0.3-0.3-0.9-0.4-1.3c0-0.1,0-0.3,0-0.4c0-0.1,0-0.2,0-0.3c0-0.2,0.1-0.4,0.1-0.6
				c0-0.1,0-0.3,0.1-0.4c0-0.1,0.1-0.2,0.2-0.3c0.1-0.2,0.2-0.4,0.4-0.6c0.1-0.1,0.2-0.2,0.3-0.3c0.1-0.1,0.2-0.1,0.3-0.1
				c0.3,0,0.5-0.2,0.7-0.1c0.2,0,0.4,0,0.5,0.2c0,0.1,0.1,0.1,0.1,0.2C21,0.9,21,1,21.1,1.1c0.3-0.2,0.5-0.6,0.9-0.7c0,0-0.1,0,0,0
				c0,0,0,0,0,0c0,0,0,0,0,0C22,0.5,22.4,0.4,22.3,0.6z M20.9,3.3c0-0.3-0.1-0.7-0.2-1c0,0,0,0,0,0c0,0,0,0,0,0c0,0,0,0,0,0
				c0,0,0.1,0.1,0.1,0.1c0,0-0.1-0.3-0.1-0.4c0-0.1-0.1-0.3-0.2-0.4c-0.2,0-0.4,0-0.5,0c-0.1,0-0.2,0-0.2,0.1
				c-0.1,0.1-0.1,0.3-0.1,0.4c0,0.2-0.1,0.3-0.1,0.5c0,0.4-0.1,0.7,0,1.1c0,0.2,0.1,0.3,0.2,0.5c0.1,0.1,0.2,0.2,0.3,0.3
				c0.1,0.1,0.3,0.2,0.5,0.1c0.2-0.1,0.2-0.2,0.3-0.4c0.1-0.2,0.1-0.4,0.1-0.6C20.8,3.6,20.9,3.5,20.9,3.3z M20.1,1
				c0,0.2,0,0.3,0.2,0.3C20.2,1.2,20.1,1.1,20.1,1z"/>
			<path class="st0" d="M25.2,5.4c0,0.1-0.2,0.1-0.2,0.2c-0.1,0-0.2,0.1-0.3,0.1c-0.1,0-0.2,0-0.3,0c-0.1,0-0.2,0-0.3,0.1
				c-0.1,0-0.2,0-0.3,0c-0.1,0-0.2,0-0.3,0c-0.1,0-0.2,0-0.3,0c-0.1,0-0.2,0-0.3-0.1c-0.1,0-0.2,0-0.3-0.1c-0.1,0-0.1-0.1-0.2-0.1
				c-0.1-0.1-0.1-0.1-0.1-0.2c0-0.1-0.1-0.2-0.1-0.2c0-0.1,0-0.2,0-0.2c0-0.1,0-0.2,0-0.3c0-0.1,0-0.2,0.1-0.3
				c0-0.1,0.1-0.2,0.1-0.3c0-0.1,0.1-0.2,0.1-0.2c0-0.1,0-0.2,0.1-0.3c0-0.1,0.1-0.2,0.1-0.2c0-0.1,0-0.2,0.1-0.3
				c0-0.1,0.1-0.2,0.1-0.3c0-0.1,0.1-0.2,0.1-0.3c0-0.1,0.1-0.2,0.1-0.3C23,2.1,23,2,23.1,1.9c0-0.1,0.1-0.2,0.1-0.3
				c0-0.1,0.1-0.2,0.1-0.2c0-0.1,0.1-0.2,0.1-0.2c0-0.1,0.1-0.2,0.2-0.2c0.1-0.1,0.1-0.1,0.2-0.2c0.1,0,0.2-0.1,0.3-0.1
				c0.1,0,0.2,0,0.3,0c0.1,0,0.2,0.1,0.2,0.2c0,0.1,0.1,0.2,0.1,0.2c0,0.1,0,0.2,0,0.2c0,0.1,0,0.2-0.1,0.2c0,0.1,0,0.1,0,0.1
				c0,0.1-0.1,0.1-0.1,0.2c-0.1,0.1-0.1,0.2-0.2,0.3c0,0.1-0.1,0.2-0.1,0.3c0,0.1-0.1,0.2-0.1,0.2C24,2.8,24,2.9,24,3
				c0,0.1-0.1,0.2-0.1,0.2c0,0.1-0.1,0.2-0.1,0.3c0,0.1-0.1,0.2-0.1,0.2c0,0.1,0,0.2-0.1,0.3c0,0.1-0.1,0.2-0.1,0.3
				c0,0.1,0,0.2,0,0.3c0,0.1,0,0.2,0,0.3c0,0.1,0.1,0.2,0.1,0.2c0.1,0.1,0.2,0.1,0.3,0.1c0.1,0,0.2,0,0.4,0.1c0.1,0,0.2,0,0.3,0
				c0.1,0,0.2,0,0.3,0c0.1,0,0.2,0,0.3,0C25.1,5.3,25.1,5.3,25.2,5.4C25.1,5.3,25.1,5.3,25.2,5.4c-0.1,0-0.1-0.1-0.1-0.1
				C25.1,5.3,25.2,5.3,25.2,5.4z M24.9,5.3C25,5.3,25,5.3,24.9,5.3C25,5.3,25,5.3,24.9,5.3z"/>
			<path class="st0" d="M29.9,2.2c-0.1,0-0.2,0-0.3,0.1c-0.1,0-0.2,0-0.3,0.1c-0.1,0-0.2,0-0.3,0c-0.1,0-0.2,0-0.3,0
				c-0.1,0-0.2,0-0.3,0c-0.1,0-0.1,0-0.1,0.1c0,0.1,0,0.1,0,0.2c0,0.1-0.1,0.1-0.1,0.2c0,0.1,0,0.1,0,0.2c0,0.1,0,0.2-0.1,0.3
				c0,0.1,0,0.2-0.1,0.3c0,0.1-0.1,0.2-0.1,0.2c0,0.1,0,0.2-0.1,0.3c0,0.1-0.1,0.2-0.1,0.2c0,0.1,0,0.2-0.1,0.3
				c0,0.1-0.1,0.2-0.1,0.3c0,0.1,0,0.2-0.1,0.3c0,0.1,0,0.2-0.1,0.3c0,0.1-0.1,0.1-0.1,0.2c0,0.1,0,0.1,0,0.2c0,0.1,0,0.1,0.1,0.1
				c0,0,0.1,0,0.1,0c0.1,0,0.2,0,0.3,0c0.1,0,0.2,0,0.3,0c0.1,0,0.2,0,0.3,0.1c0.1,0,0.2,0,0.2,0.1c0.1,0.1,0.2,0.1,0.1,0.2
				c-0.1,0-0.2,0-0.2,0.1c-0.1,0.1-0.2,0.1-0.3,0.1c-0.1,0-0.2,0-0.3,0c-0.1,0-0.2,0-0.3,0c-0.1,0-0.2,0-0.3,0c-0.1,0-0.2,0-0.3,0
				c-0.1,0-0.2,0-0.3,0c-0.1,0-0.2,0-0.3,0c-0.1,0-0.2,0-0.3,0c-0.1,0-0.2,0-0.2-0.1c-0.1,0-0.2,0-0.3,0c-0.1,0-0.2,0-0.3,0
				c-0.1,0-0.2-0.1-0.2-0.2c0-0.1,0-0.2,0-0.2c0-0.1,0.1-0.1,0.1-0.2c0.1,0,0.2,0,0.2,0c0.1,0,0.2,0,0.2,0c0.1,0,0.1,0,0.2,0
				c0-0.1,0-0.1,0.1-0.2c0-0.1,0-0.2,0-0.2c0-0.1,0-0.2,0-0.2c0-0.1,0.1-0.2,0.1-0.2c0-0.1,0-0.2,0.1-0.2c0-0.1,0-0.2,0.1-0.2
				c0-0.1,0-0.2,0.1-0.2c0-0.1,0.1-0.2,0.1-0.2c0-0.1,0-0.2,0.1-0.2c0-0.1,0.1-0.1,0.1-0.2c0-0.1,0-0.2,0.1-0.2c0-0.1,0-0.2,0.1-0.2
				C27,2.9,27,2.9,27,2.8c0-0.1,0-0.2,0-0.2c0-0.1,0-0.2,0.1-0.2c-0.1,0-0.2,0-0.3,0c-0.1,0-0.2,0-0.3,0c-0.1,0-0.2,0-0.3,0
				c-0.1,0-0.3,0-0.4-0.1c0,0,0-0.1,0.1-0.2c0.1-0.1,0.2-0.1,0.2-0.2c0.1,0,0.2-0.1,0.3-0.1c0.1,0,0.2,0,0.3,0c0.1,0,0.2,0,0.3,0
				c0.1,0,0.2,0,0.3,0c0.1,0,0.2,0,0.3,0c0.1,0,0.2,0,0.3,0c0.1,0,0.2,0,0.3,0c0.1,0,0.2,0,0.3,0c0.1,0,0.2,0,0.3,0
				c0.1,0,0.2,0,0.3,0.1c0.1,0,0.2,0,0.2,0c0.1,0,0.1,0,0.2,0.1c0,0,0,0,0,0c0,0,0,0,0,0c0,0,0,0,0,0C30,2,30.1,2.1,29.9,2.2z"/>
			<path class="st0" d="M33.5,4c0,0.1,0,0.2-0.1,0.3c-0.1,0.2-0.3,0.2-0.5,0.2c-0.3,0-0.3-0.2-0.2-0.4c0-0.2,0.2-0.3,0-0.6
				c-0.1-0.2-0.4-0.4-0.6-0.2c-0.2,0.1-0.1,0.4-0.1,0.6c0,0.1,0,0.3,0,0.4c0,0.1,0.1,0.2,0.1,0.3c0.1,0.2,0.1,0.5,0.1,0.7
				c0,0.2,0.1,0.4,0.1,0.6c0,0.1,0,0.2,0,0.4c0,0.1-0.1,0.2-0.1,0.3C32.1,6.7,32,6.9,31.8,7c-0.2,0.1-0.3,0.2-0.5,0.3
				c-0.2,0-0.5,0.1-0.8,0c-0.1,0-0.2-0.1-0.3-0.1c-0.1,0-0.2,0-0.3-0.1c-0.4-0.2-0.6-0.7-0.5-1.1c0-0.1,0-0.2,0-0.3
				c0-0.1,0.1-0.2,0.2-0.3c0.1-0.1,0.4-0.2,0.6-0.2c0.2,0,0.3,0.1,0.2,0.2c-0.1,0.1-0.2,0.3-0.1,0.5c0.1,0.2,0.2,0.4,0.4,0.6
				c0.1,0.1,0.1,0.1,0.3,0.1c0.1,0,0.2-0.1,0.2-0.2C31.1,6.2,31.1,6,31,5.7c0-0.1,0-0.2,0-0.3c0-0.1,0-0.2,0-0.3
				c0-0.3-0.1-0.5-0.1-0.8c0-0.1,0-0.2,0-0.4c0-0.1,0-0.2,0-0.4c0-0.1,0-0.2,0-0.3C31,3.2,31.1,3.1,31.1,3c0-0.1,0.1-0.2,0.2-0.2
				c0.1,0,0.2-0.1,0.3-0.1c0.2-0.1,0.5-0.2,0.7-0.2c0.1,0,0.3,0,0.4,0c0.1,0,0.2,0.1,0.3,0.1c0.1,0.1,0.3,0.1,0.3,0.2
				c0.1,0.1,0.2,0.2,0.2,0.3c0,0.1,0.1,0.4,0,0.5c0,0.1,0,0.1,0,0.1c0,0,0,0,0,0c0,0,0-0.1,0-0.1C33.5,3.8,33.5,3.9,33.5,4z"/>
		</g>
	</g>
</g>
</svg>
